<?xml version="1.0" encoding="utf-8" ?>
<svg baseProfile="full" height="65.42265001684427" version="1.1" width="62.61836142279208" xmlns="http://www.w3.org/2000/svg" xmlns:ev="http://www.w3.org/2001/xml-events" xmlns:xlink="http://www.w3.org/1999/xlink"><defs /><rect fill="white" height="65.42265001684427" width="62.61836142279208" x="0" y="0" /><path d="M32.25644584745169,33.16720699860525 m-0.37708330899477005,-1.3843078911304474 l-1.2713238596916199,-1.2270249426364899 -1.9002820551395416,-0.5520987138152122 l-1.7778776586055756,0.2711055427789688 -1.042458638548851,0.870450884103775 l-0.8874203264713287,1.9813954830169678 0.10370598174631596,3.155893087387085 l1.5064764022827148,2.200469523668289 1.7374365031719208,1.279253512620926 l1.9696462154388428,0.6601154804229736 3.084430694580078,0.00019105182218481787 l2.052384167909622,-0.9106408804655075 1.4456549286842346,-1.4805656671524048 l0.7186265289783478,-1.8613964319229126 -9.594077710062265e-06,-2.431943118572235 l-1.3799810409545898,-1.928887516260147 -1.9921261072158813,-1.1225300282239914 l-2.3853442072868347,-0.27960680425167084 -1.8223686516284943,0.6900737434625626 m1.1636483669281006,0.31377967447042465 l0.19917290657758713,-4.506372809410095 0.7272625714540482,-1.9045601785182953 m-0.8161753416061401,4.2726898193359375 l0.24032842367887497,-0.9354129433631897 0.9026913344860077,-0.808199867606163 l1.1041886359453201,-0.39795584976673126 0.8334801346063614,0.1554980594664812 l0.6269925087690353,0.8824872970581055 0.00019244684153818525,0.9271858632564545 l-0.5523842945694923,0.6536625325679779 -1.5178979933261871,0.6430631130933762 l-1.1412712186574936,0.005539273843169212 -0.6654717028141022,-0.4831944406032562 " fill="none" stroke="black" stroke-width="1" /></svg>