<?xml version="1.0" encoding="utf-8" ?>
<svg baseProfile="full" height="850.0" version="1.1" width="715.0" xmlns="http://www.w3.org/2000/svg" xmlns:ev="http://www.w3.org/2001/xml-events" xmlns:xlink="http://www.w3.org/1999/xlink"><defs /><rect fill="white" height="850.0" width="715.0" x="0" y="0" /><path d="M395.0,485.0 m-15.0,-70.0 l-60.0,-60.0 -70.0,-20.0 l-110.0,15.0 -55.0,30.0 l-60.0,90.0 5.0,135.0 l75.0,120.0 90.0,70.0 l105.0,30.0 185.0,-10.0 l120.0,-55.0 50.0,-65.0 l35.0,-145.0 -20.0,-100.0 l-65.0,-60.0 -100.0,-15.0 l-95.0,45.0 -65.0,85.0 m-15.0,0.0 l60.0,-230.0 -5.0,-250.0 m0.0,410.0 l-20.0,-5.0 -5.0,-25.0 l0.0,-50.0 30.0,-85.0 l45.0,-60.0 50.0,0.0 l25.0,30.0 -10.0,55.0 l-35.0,30.0 10.0,-20.0 l115.0,-40.0 " fill="none" stroke="black" stroke-width="1" /></svg>