<?xml version="1.0" encoding="utf-8" ?>
<svg baseProfile="full" height="2320.0" version="1.1" width="1730.0" xmlns="http://www.w3.org/2000/svg" xmlns:ev="http://www.w3.org/2001/xml-events" xmlns:xlink="http://www.w3.org/1999/xlink"><defs /><rect fill="white" height="2320.0" width="1730.0" x="0" y="0" /><path d="M765.0,1105.0 m15.0,-40.0 l-15.0,-80.0 -50.0,-55.0 l-85.0,-55.0 -170.0,-50.0 l-110.0,-5.0 -65.0,25.0 l-55.0,45.0 -145.0,210.0 l-60.0,215.0 10.0,310.0 l65.0,255.0 165.0,300.0 l125.0,95.0 115.0,20.0 l135.0,0.0 525.0,-35.0 m-450.0,-1175.0 l205.0,-295.0 80.0,-90.0 l85.0,-45.0 170.0,0.0 l115.0,65.0 220.0,190.0 l75.0,185.0 25.0,110.0 l15.0,270.0 -160.0,290.0 l-90.0,95.0 -180.0,120.0 l-240.0,245.0 -75.0,50.0 l-25.0,0.0 m-135.0,-1360.0 l-65.0,-250.0 5.0,-135.0 l135.0,-275.0 60.0,-85.0 l145.0,-110.0 130.0,-35.0 l205.0,120.0 55.0,50.0 " fill="none" stroke="black" stroke-width="1" /></svg>