<?xml version="1.0" encoding="utf-8" ?>
<svg baseProfile="full" height="84.65828538872302" version="1.1" width="92.25099049508572" xmlns="http://www.w3.org/2000/svg" xmlns:ev="http://www.w3.org/2001/xml-events" xmlns:xlink="http://www.w3.org/1999/xlink"><defs /><rect fill="white" height="84.65828538872302" width="92.25099049508572" x="0" y="0" /><path d="M40.364837309612085,37.208370025364275 m0.21954642608761787,-0.8130061626434326 l-0.3953513503074646,-1.5301704406738281 -1.786518394947052,-1.95791095495224 l-2.007855325937271,-1.0959258675575256 -2.2046752274036407,-0.537211187183857 l-2.533804774284363,0.00019143419194733724 -2.743093967437744,1.4120227098464966 l-1.771068423986435,1.8346334993839264 -1.1977922916412354,2.229204624891281 l-0.9441664069890976,4.042749404907227 -5.757276539952727e-05,5.304315090179443 l1.8933363258838654,5.247364044189453 2.004406452178955,2.9149723052978516 l2.058132290840149,1.8170319497585297 3.10761958360672,1.5255139768123627 l3.794133961200714,0.6355238705873489 3.9635759592056274,-0.395745187997818 l2.3416437208652496,-1.1476948112249374 m-2.5639280676841736,-19.497050046920776 l2.451332062482834,-2.79211163520813 4.297508597373962,-3.055691421031952 l5.036046504974365,-2.063174992799759 4.753616750240326,-0.6194081529974937 l3.640468418598175,0.8389716595411301 1.8273729085922241,1.089947521686554 l2.1168483793735504,2.796219289302826 1.3215480744838715,4.531433880329132 l0.20732857286930084,5.380135774612427 -1.2442122399806976,4.995315372943878 l-2.314283400774002,4.366881847381592 -3.0726951360702515,3.463316559791565 l-3.5773584246635437,2.279735654592514 -3.9643844962120056,1.2495357543230057 l-7.394776344299316,-0.10246352292597294 m-2.7561813592910767,-22.619352340698242 l0.12004006654024124,-3.6298513412475586 1.1619585007429123,-3.7941068410873413 l1.2667162716388702,-1.980680525302887 2.220858335494995,-1.659853309392929 l2.866622507572174,-0.8719775080680847 1.7648901045322418,0.09260307997465134 l1.6903075575828552,1.23736210167408 0.7603248953819275,1.3622646033763885 l0.26706619188189507,4.067465364933014 " fill="none" stroke="black" stroke-width="1" /></svg>