<?xml version="1.0" encoding="utf-8" ?>
<svg baseProfile="full" height="1290.0" version="1.1" width="2480.0" xmlns="http://www.w3.org/2000/svg" xmlns:ev="http://www.w3.org/2001/xml-events" xmlns:xlink="http://www.w3.org/1999/xlink"><defs /><rect fill="white" height="1290.0" width="2480.0" x="0" y="0" /><path d="M2420.0,115.0 m-120.0,5.0 l-245.0,-65.0 -260.0,-30.0 l-1190.0,25.0 -425.0,30.0 l-35.0,20.0 -10.0,25.0 l-95.0,500.0 -15.0,210.0 l15.0,30.0 80.0,55.0 l125.0,35.0 600.0,45.0 l275.0,0.0 365.0,-55.0 l365.0,-5.0 20.0,-30.0 l15.0,-870.0 m510.0,60.0 l0.0,415.0 60.0,435.0 l-155.0,25.0 -180.0,0.0 l-305.0,-105.0 m-1450.0,115.0 l0.0,135.0 20.0,75.0 l55.0,60.0 110.0,10.0 l75.0,-35.0 60.0,-90.0 l20.0,-135.0 -75.0,-75.0 l-120.0,-65.0 -60.0,0.0 l-25.0,15.0 -50.0,40.0 l-25.0,60.0 m660.0,-5.0 l-5.0,55.0 40.0,110.0 l50.0,80.0 25.0,15.0 l85.0,25.0 80.0,0.0 l30.0,-15.0 50.0,-65.0 l20.0,-65.0 0.0,-90.0 l-50.0,-80.0 -70.0,-50.0 l-85.0,-35.0 -95.0,0.0 l-50.0,45.0 " fill="none" stroke="black" stroke-width="1" /></svg>