<?xml version="1.0" encoding="utf-8" ?>
<svg baseProfile="full" height="75.49021769315004" version="1.1" width="101.00314568728209" xmlns="http://www.w3.org/2000/svg" xmlns:ev="http://www.w3.org/2001/xml-events" xmlns:xlink="http://www.w3.org/1999/xlink"><defs /><rect fill="white" height="75.49021769315004" width="101.00314568728209" x="0" y="0" /><path d="M65.6474324373994,26.623334647156298 m-2.386874407529831,0.11915544047951698 l-8.208160996437073,-0.5360766127705574 -9.76852536201477,-0.052858577109873295 l-7.991331219673157,0.2557174488902092 -3.9264780282974243,0.7205892354249954 l-3.435455560684204,1.334703415632248 -2.556948959827423,1.8286624550819397 l-1.7796634137630463,2.2435586154460907 -0.5793895944952965,1.6007351875305176 l-0.014604894677177072,1.701517254114151 0.5832386761903763,1.3052399456501007 l2.0108994841575623,1.804293692111969 4.650605916976929,1.894899159669876 l6.333643794059753,1.1997830867767334 18.216071128845215,0.6678573042154312 l8.809975981712341,-0.9397537261247635 4.084573984146118,-1.0154073685407639 l2.8331258893013,-1.318216472864151 1.9905248284339905,-1.6542741656303406 l1.1715400218963623,-2.0083795487880707 0.3189459815621376,-2.4440570175647736 l-0.534895546734333,-2.2182828187942505 -1.438165009021759,-2.064191997051239 l-2.2299499809741974,-1.7874775826931 -2.660697102546692,-1.27198725938797 l-3.040616810321808,-0.7674171030521393 -3.3893200755119324,-0.2216666378080845 m-23.0051589012146,7.8337931632995605 l0.15445674769580364,3.817698061466217 -0.6316019594669342,6.487872004508972 l-0.11252130381762981,6.785717606544495 0.5087221786379814,0.40844548493623734 l3.9669910073280334,0.15669137239456177 5.916604399681091,-0.3848899155855179 l5.456331372261047,-0.09601608850061893 4.110673666000366,-0.4107639938592911 l0.37836767733097076,-0.5331536009907722 0.09940505027770996,-1.449873000383377 l0.02770764520391822,-9.667028784751892 0.026965111028403044,-5.731276869773865 l-1.1117196828126907,-0.5310222133994102 -8.400715589523315,0.3681313991546631 l-7.718532085418701,0.4304657503962517 -2.7300038933753967,0.1878017745912075 m6.399446725845337,2.0970740914344788 l-0.08181381970643997,3.6942651867866516 0.13947568833827972,4.360202252864838 l0.6228805705904961,0.3291596472263336 4.013104736804962,0.0033957883715629578 l3.5709148645401,-0.28761599212884903 0.3831923007965088,-0.509687028825283 l-0.012936489656567574,-6.817009449005127 -5.469724535942078,-0.23652903735637665 l-2.995275557041168,0.3353162109851837 " fill="none" stroke="black" stroke-width="1" /></svg>