<?xml version="1.0" encoding="utf-8" ?>
<svg baseProfile="full" height="1080.0" version="1.1" width="1190.0" xmlns="http://www.w3.org/2000/svg" xmlns:ev="http://www.w3.org/2001/xml-events" xmlns:xlink="http://www.w3.org/1999/xlink"><defs /><rect fill="white" height="1080.0" width="1190.0" x="0" y="0" /><path d="M960.0,385.0 m80.0,-10.0 l95.0,15.0 30.0,50.0 l-20.0,35.0 -205.0,15.0 l-220.0,70.0 -200.0,35.0 l-195.0,5.0 -80.0,-10.0 l-175.0,-130.0 -45.0,-65.0 l70.0,-20.0 430.0,-25.0 l415.0,0.0 m95.0,0.0 l-60.0,-180.0 0.0,-65.0 l20.0,-80.0 30.0,35.0 l10.0,40.0 25.0,255.0 m-60.0,145.0 l20.0,185.0 40.0,75.0 l25.0,-15.0 15.0,-145.0 l-45.0,-185.0 m-625.0,35.0 l40.0,140.0 5.0,345.0 l20.0,120.0 120.0,-20.0 l55.0,-50.0 20.0,-50.0 l10.0,-215.0 -35.0,-235.0 m-405.0,-125.0 l-155.0,10.0 " fill="none" stroke="black" stroke-width="1" /></svg>