<?xml version="1.0" encoding="utf-8" ?>
<svg baseProfile="full" height="69.15879927575588" version="1.1" width="74.80599727680783" xmlns="http://www.w3.org/2000/svg" xmlns:ev="http://www.w3.org/2001/xml-events" xmlns:xlink="http://www.w3.org/1999/xlink"><defs /><rect fill="white" height="69.15879927575588" width="74.80599727680783" x="0" y="0" /><path d="M44.96893447091679,35.18800510792062 m1.654718816280365,-0.0984108168631792 l2.0273569226264954,0.3262365236878395 1.1549870669841766,0.8435098826885223 l-0.00012860938113590237,0.9644500911235809 -0.943121612071991,0.7569032907485962 l-4.720582664012909,1.3055193424224854 -8.803529739379883,0.8867604285478592 l-3.3394601941108704,-0.11872834526002407 -4.780856370925903,-1.2638528645038605 l-2.217911034822464,-2.0035509765148163 -0.00040705210267333314,-1.3854655623435974 l1.0382204502820969,-0.9870633482933044 9.53639030456543,-0.920855924487114 l4.285224378108978,0.29811928048729897 2.604624032974243,0.702260211110115 m-4.894201159477234,2.771081328392029 l0.29957057908177376,0.20595667883753777 1.2355335801839828,1.4690998196601868 l0.8137428015470505,2.206760197877884 -0.10605057701468468,1.7628277838230133 l-0.9136258065700531,0.6251675635576248 -2.8460025787353516,-0.036073687952011824 m-1.0786111652851105,-7.7291083335876465 l0.35408299416303635,-2.9107946157455444 1.64516881108284,-6.4829981327056885 l0.7888837158679962,-1.3757549226284027 0.7780776172876358,1.6007700562477112 l0.9579045325517654,6.099331378936768 m-3.280176818370819,6.032400727272034 l0.14228811487555504,2.705795168876648 0.18071671947836876,1.955236941576004 l0.33069368451833725,0.6770329922437668 1.1758783459663391,0.08823201060295105 l1.0415959358215332,-3.751436173915863 0.18316704779863358,-2.833920121192932 m-5.854915380477905,-2.5704145431518555 l-0.8527395129203796,-2.0657463371753693 -0.3690721467137337,-1.3679839670658112 " fill="none" stroke="black" stroke-width="1" /></svg>