<?xml version="1.0" encoding="utf-8" ?>
<svg baseProfile="full" height="104.78517695330083" version="1.1" width="92.23635770380497" xmlns="http://www.w3.org/2000/svg" xmlns:ev="http://www.w3.org/2001/xml-events" xmlns:xlink="http://www.w3.org/1999/xlink"><defs /><rect fill="white" height="104.78517695330083" width="92.23635770380497" x="0" y="0" /><path d="M60.83881262689829,37.662919466383755 m-8.99026870727539,0.03919110167771578 l-7.529861927032471,0.9332027286291122 -10.088939666748047,2.5974297523498535 l-3.980800211429596,1.7514200508594513 -2.4203073978424072,1.9436626136302948 l-1.3396702706813812,2.236347794532776 -0.4057832807302475,2.5989851355552673 l0.3965712711215019,2.411790192127228 1.3402891159057617,2.0437251031398773 l2.1078917384147644,1.6962343454360962 2.7553167939186096,1.2763135135173798 l3.3574143052101135,0.7746389508247375 3.8914087414741516,0.2680667117238045 l3.944500982761383,-0.19386477768421173 3.76791775226593,-0.7276938110589981 l5.168878436088562,-1.7924374341964722 4.344786703586578,-2.386382669210434 l3.6905130743980408,-2.9804611206054688 2.0114026963710785,-2.4595655500888824 l1.2205016613006592,-2.6641762256622314 0.34021493047475815,-2.7823007106781006 l-0.36081958562135696,-2.448296695947647 -1.1485729366540909,-1.9427941739559174 l-1.7089420557022095,-1.5356151759624481 -2.1185119450092316,-1.0206667333841324 l-2.6282569766044617,-0.4411556199193001 m-24.8820161819458,14.88351583480835 l-0.8313713222742081,4.468654096126556 -2.8921183943748474,13.043748140335083 l-2.850179970264435,12.226835489273071 16.025129556655884,0.3039066307246685 l16.52296543121338,-0.7856665551662445 9.350535869598389,-1.1185308545827866 l0.3377268463373184,-0.5449873208999634 -0.46963922679424286,-3.5093337297439575 l-3.2129648327827454,-13.414733409881592 -1.7735916376113892,-9.240772128105164 l-1.1153560131788254,-6.443455815315247 -0.8486977219581604,-1.592128872871399 m-28.534972667694092,6.22463583946228 l-0.17056582495570183,-5.789892077445984 -1.0240502655506134,-6.681969165802002 l-0.06956144236028194,-5.973217487335205 1.4799843728542328,0.11081582866609097 l0.5346965789794922,1.797780841588974 -0.06156555376946926,10.69192886352539 l-0.19386416301131248,3.8787397742271423 m6.601470112800598,-6.933799386024475 l0.07252078503370285,-6.34472131729126 -0.47568824142217636,-5.712936520576477 l2.4579593539237976,-0.17497358843684196 0.5726435407996178,0.49074653536081314 l0.056524467654526234,10.48551321029663 -0.045878016389906406,2.9862207174301147 m5.529433488845825,-1.9353772699832916 l0.04223729018121958,-7.5600796937942505 -0.029373313300311565,-4.401089549064636 l2.7166035771369934,0.2422746643424034 0.5136389657855034,0.5354473367333412 l0.034368052147328854,9.844658970832825 -0.1975417323410511,2.692543864250183 m1.6975915431976318,-5.273245573043823 l-0.3779963031411171,-2.0651261508464813 -0.17861396074295044,-5.937244892120361 l0.2716808393597603,-1.620154231786728 0.7271414250135422,-1.1797887086868286 l1.3630913197994232,-0.5332591012120247 0.970841720700264,1.8716025352478027 l0.18878720700740814,1.9724008440971375 -0.5425962060689926,3.8652485609054565 l-1.2479376047849655,4.960402846336365 -0.2426956221461296,1.7172090709209442 m-22.815992832183838,6.6437846422195435 l-0.6704358011484146,-1.2444104254245758 -0.19887400791049004,-1.4922668039798737 l0.3597434237599373,-3.1353408098220825 1.3517290353775024,-3.133290112018585 l1.049225702881813,-1.3356661796569824 1.4556588232517242,-0.7790147513151169 l1.6271378099918365,0.0548246456310153 0.838332325220108,0.7354080677032471 l0.841577872633934,2.961365282535553 -0.11189652606844902,4.03968870639801 l-0.8126643300056458,2.618308663368225 -1.1115727573633194,1.9268544018268585 l-1.185426414012909,1.212550774216652 -1.3851679861545563,0.583985410630703 l-1.6670161485671997,-0.12443063780665398 -0.8973294496536255,-0.7121995091438293 l-0.5491072311997414,-1.2711772322654724 -0.15328085981309414,-1.677764356136322 l0.28271084651350975,-1.597898006439209 " fill="none" stroke="black" stroke-width="1" /></svg>