<?xml version="1.0" encoding="utf-8" ?>
<svg baseProfile="full" height="1880.0" version="1.1" width="3975.0" xmlns="http://www.w3.org/2000/svg" xmlns:ev="http://www.w3.org/2001/xml-events" xmlns:xlink="http://www.w3.org/1999/xlink"><defs /><rect fill="white" height="1880.0" width="3975.0" x="0" y="0" /><path d="M2040.0,185.0 m-445.0,5.0 l-750.0,-80.0 -560.0,-80.0 l-220.0,-5.0 -10.0,85.0 l35.0,400.0 0.0,305.0 l-30.0,435.0 30.0,-10.0 l170.0,-150.0 60.0,-25.0 l90.0,0.0 80.0,85.0 l55.0,165.0 30.0,15.0 l100.0,-25.0 630.0,15.0 l45.0,-75.0 45.0,-180.0 l70.0,-130.0 80.0,-55.0 l145.0,-15.0 50.0,5.0 l45.0,25.0 85.0,80.0 l80.0,120.0 75.0,195.0 l25.0,15.0 375.0,-5.0 l515.0,35.0 -30.0,0.0 l-15.0,-25.0 -35.0,-250.0 l0.0,-255.0 40.0,-320.0 l-5.0,-130.0 -350.0,-75.0 l-670.0,-35.0 m1060.0,75.0 l55.0,45.0 95.0,25.0 l320.0,15.0 60.0,315.0 l125.0,70.0 180.0,35.0 l75.0,55.0 100.0,160.0 l5.0,105.0 -75.0,100.0 l-105.0,65.0 -235.0,50.0 l-275.0,-20.0 -250.0,-75.0 l-185.0,-5.0 m-900.0,-25.0 l0.0,0.0 m85.0,125.0 l0.0,-100.0 -130.0,-170.0 l-145.0,-110.0 -100.0,-35.0 l-145.0,5.0 -135.0,85.0 l-85.0,135.0 -30.0,95.0 l-20.0,170.0 0.0,95.0 l15.0,30.0 205.0,130.0 l135.0,35.0 140.0,-5.0 l80.0,-25.0 175.0,-115.0 l60.0,-85.0 15.0,-50.0 l5.0,-120.0 -15.0,-50.0 m-1490.0,50.0 l5.0,65.0 m-35.0,-125.0 l-240.0,535.0 -45.0,0.0 m310.0,-490.0 l-165.0,415.0 -100.0,110.0 l-75.0,20.0 -60.0,-50.0 l-50.0,-120.0 -55.0,-275.0 l-10.0,-170.0 40.0,-50.0 l145.0,-10.0 " fill="none" stroke="black" stroke-width="1" /></svg>