<?xml version="1.0" encoding="utf-8" ?>
<svg baseProfile="full" height="840.0" version="1.1" width="880.0" xmlns="http://www.w3.org/2000/svg" xmlns:ev="http://www.w3.org/2001/xml-events" xmlns:xlink="http://www.w3.org/1999/xlink"><defs /><rect fill="white" height="840.0" width="880.0" x="0" y="0" /><path d="M520.0,285.0 m-90.0,-35.0 l-130.0,-10.0 -70.0,15.0 l-65.0,45.0 -55.0,70.0 l-35.0,85.0 -15.0,165.0 l30.0,85.0 55.0,55.0 l80.0,45.0 185.0,10.0 l95.0,-45.0 150.0,-160.0 l40.0,-90.0 20.0,-140.0 l-25.0,-50.0 -105.0,-55.0 l-180.0,-35.0 m-195.0,30.0 l65.0,-175.0 45.0,-70.0 l25.0,20.0 5.0,155.0 l30.0,35.0 m145.0,-35.0 l70.0,-135.0 35.0,-20.0 l25.0,25.0 5.0,140.0 l-20.0,150.0 m-335.0,25.0 l0.0,0.0 m150.0,-10.0 l0.0,0.0 m-180.0,40.0 l5.0,30.0 25.0,10.0 l5.0,-30.0 15.0,10.0 m150.0,-40.0 l-35.0,20.0 25.0,20.0 l15.0,-30.0 m-210.0,160.0 l-165.0,-40.0 m155.0,65.0 l-235.0,85.0 m205.0,10.0 l-80.0,35.0 -50.0,45.0 m440.0,-215.0 l240.0,-105.0 m-215.0,160.0 l255.0,-65.0 m-260.0,140.0 l295.0,-10.0 m-455.0,-100.0 l-30.0,0.0 -30.0,40.0 l15.0,55.0 50.0,0.0 l30.0,-35.0 -15.0,-60.0 l-25.0,-5.0 " fill="none" stroke="black" stroke-width="1" /></svg>