<?xml version="1.0" encoding="utf-8" ?>
<svg baseProfile="full" height="64.44076949730515" version="1.1" width="64.65985219925642" xmlns="http://www.w3.org/2000/svg" xmlns:ev="http://www.w3.org/2001/xml-events" xmlns:xlink="http://www.w3.org/1999/xlink"><defs /><rect fill="white" height="64.44076949730515" width="64.65985219925642" x="0" y="0" /><path d="M34.465740248560905,26.575824806350283 m-1.7955297231674194,-0.789872482419014 l-2.592826187610626,-0.2783004008233547 -1.3862787187099457,0.22000733762979507 l-1.3427485525608063,0.754997581243515 -1.405869871377945,1.7576830089092255 l-0.653458908200264,1.5783192217350006 -0.2890282869338989,2.6246455311775208 l0.5845998227596283,2.9702088236808777 1.403719037771225,2.0239700376987457 l2.00288325548172,1.3524043560028076 2.391152083873749,0.6440252810716629 l2.741735875606537,0.006856395048089325 1.9035010039806366,-0.7314153760671616 l1.8430837988853455,-1.5514735877513885 1.2644897401332855,-2.1865279972553253 l0.5246875807642937,-2.7105537056922913 -0.1434304192662239,-2.629818916320801 l-0.8514083921909332,-1.9491122663021088 -1.4727997779846191,-1.5485092997550964 l-1.8472042679786682,-0.8499216288328171 -2.17320054769516,-0.28343671932816505 l-1.2452850490808487,0.19557077437639236 m-2.2181010246276855,9.071201086044312 l-0.5124188959598541,0.6941075623035431 0.3527269884943962,0.4425995424389839 l0.544682964682579,-0.6749266386032104 -0.33004030585289,-0.32065991312265396 l-0.2377258613705635,0.7505093514919281 0.5722730979323387,-0.47031644731760025 l-0.28251633048057556,-0.06361461710184813 -0.06279978435486555,0.5477220565080643 l0.5761968344449997,-0.6271738559007645 -0.4616720601916313,0.25678280740976334 l0.20017404109239578,0.2236146666109562 0.3670087456703186,-0.4552123323082924 l-0.2938142977654934,-0.03202468389645219 -0.054845353588461876,0.45642904937267303 l0.6355033814907074,-0.6187960132956505 -0.3442877531051636,0.1127463486045599 l0.06311651784926653,0.2875768579542637 0.5676589161157608,-0.5061366781592369 l-0.45047853142023087,0.04724005237221718 -0.053502083756029606,0.5139065161347389 l0.7124984264373779,-0.60178492218256 -0.37614982575178146,-0.0009191501158056781 l-0.05185308400541544,0.4971154034137726 0.6262493878602982,-0.590851902961731 l-0.44766705483198166,0.06368847098201513 -0.029435607139021158,0.46491000801324844 l0.6567276269197464,-0.6228609383106232 -0.4428073391318321,0.058840187266469 l-0.04363222047686577,0.5244413763284683 0.6132446974515915,-0.6026101112365723 l-0.3762673959136009,0.04276818595826626 0.007564384141005576,0.46929601579904556 l0.6895811855792999,-0.5515852943062782 -0.4314441606402397,-0.05448308773338795 l-0.17105121165513992,0.6481287628412247 0.5628927797079086,-0.5399483442306519 l-0.2916046977043152,-0.06601290311664343 -0.1094997487962246,0.43929725885391235 l0.5113833770155907,-0.3496703505516052 " fill="none" stroke="black" stroke-width="1" /></svg>