<?xml version="1.0" encoding="utf-8" ?>
<svg baseProfile="full" height="1940.0" version="1.1" width="2155.0" xmlns="http://www.w3.org/2000/svg" xmlns:ev="http://www.w3.org/2001/xml-events" xmlns:xlink="http://www.w3.org/1999/xlink"><defs /><rect fill="white" height="1940.0" width="2155.0" x="0" y="0" /><path d="M825.0,725.0 m295.0,-530.0 l20.0,-75.0 10.0,155.0 l-20.0,420.0 -25.0,-5.0 m-270.0,10.0 l-5.0,-25.0 110.0,-400.0 l115.0,-245.0 30.0,-5.0 l25.0,10.0 110.0,250.0 l0.0,205.0 -65.0,315.0 l15.0,25.0 135.0,40.0 l490.0,85.0 220.0,85.0 l115.0,75.0 -60.0,25.0 l-435.0,45.0 -460.0,-10.0 l-25.0,90.0 -70.0,555.0 l0.0,25.0 35.0,50.0 l25.0,10.0 -80.0,0.0 l-100.0,-50.0 -50.0,-45.0 l-30.0,-5.0 -85.0,65.0 l-255.0,45.0 -5.0,-25.0 l65.0,-65.0 160.0,-90.0 l35.0,-695.0 -30.0,20.0 l-110.0,15.0 -190.0,0.0 l-150.0,-20.0 -175.0,-50.0 l-95.0,-50.0 -20.0,-85.0 l95.0,-10.0 320.0,-95.0 l155.0,-10.0 230.0,-60.0 " fill="none" stroke="black" stroke-width="1" /></svg>