<?xml version="1.0" encoding="utf-8" ?>
<svg baseProfile="full" height="65.70911168120801" version="1.1" width="62.36409246921539" xmlns="http://www.w3.org/2000/svg" xmlns:ev="http://www.w3.org/2001/xml-events" xmlns:xlink="http://www.w3.org/1999/xlink"><defs /><rect fill="white" height="65.70911168120801" width="62.36409246921539" x="0" y="0" /><path d="M27.158642783761024,37.93647035956383 m5.8162522315979,-10.515607595443726 l0.3048071078956127,-2.420862764120102 -1.1060567945241928,7.205865383148193 l-0.1924559287726879,4.619372189044952 m-2.9081520438194275,-2.710733711719513 l-1.5558545291423798,-3.172515034675598 -2.5171828269958496,-4.762907922267914 l1.5227147936820984,2.93441504240036 3.152725100517273,3.2335489988327026 m2.8618913888931274,0.27887096628546715 l2.244771122932434,-2.8540420532226562 2.325614094734192,-1.7204062640666962 l0.2563759684562683,3.592653274536133 -0.19846204668283463,3.173375725746155 l0.06433787290006876,2.152695804834366 -0.47067366540431976,1.4806465804576874 l-1.109846904873848,1.238965168595314 -1.772737056016922,0.8660639077425003 l-2.1505750715732574,0.153243625536561 -1.7639049887657166,-0.6916267424821854 l-1.3677063584327698,-1.4574645459651947 -0.6051798537373543,-1.4446163177490234 l-0.13323304243385792,-1.570424884557724 0.2893970161676407,-1.2614372372627258 m4.407487511634827,1.1141186952590942 l0.04188030958175659,0.32096873968839645 0.42978066951036453,0.05309468135237694 l-0.022429886739701033,-0.5340773239731789 -0.49967020750045776,0.44283241033554077 l0.3233182430267334,-0.0588250532746315 -0.024477113038301468,-0.4067623242735863 m0.1223926991224289,-1.3540048897266388 l-0.14274030923843384,0.6001710519194603 -0.10166198015213013,0.037449158262461424 l-0.08726711384952068,-0.5687350034713745 m0.5479578673839569,0.3039618954062462 l-0.05180697422474623,0.7984824478626251 -0.10612871497869492,0.1790495589375496 l-0.24741213768720627,-0.05893624387681484 -0.25812283158302307,-0.7651606947183609 m0.6561022996902466,0.44840600341558456 l0.007403390482068062,1.1561159789562225 0.10795085690915585,0.3437192365527153 l0.39181556552648544,0.1746370643377304 0.4761161655187607,-0.32013967633247375 m-0.038496796041727066,-1.794494241476059 l0.21642738953232765,0.7892432063817978 m0.6636407226324081,0.11376510374248028 l0.036091748625040054,0.004861310299020261 " fill="none" stroke="black" stroke-width="1" /></svg>