<?xml version="1.0" encoding="utf-8" ?>
<svg baseProfile="full" height="99.85791813582182" version="1.1" width="98.81751364213414" xmlns="http://www.w3.org/2000/svg" xmlns:ev="http://www.w3.org/2001/xml-events" xmlns:xlink="http://www.w3.org/1999/xlink"><defs /><rect fill="white" height="99.85791813582182" width="98.81751364213414" x="0" y="0" /><path d="M46.483834431683135,33.81786150845073 m-0.7962876558303833,1.6196610033512115 l-0.404021255671978,5.753804445266724 -0.11950697749853134,13.48810076713562 l0.6756429374217987,7.645915150642395 0.8960571885108948,3.3511972427368164 l1.4200413227081299,2.623460590839386 1.2103427946567535,0.958433598279953 l0.5378792062401772,-0.27143895626068115 0.48463109880685806,-1.391943246126175 l0.48069752752780914,-4.3682146072387695 -0.9576565772294998,-19.097105264663696 l-2.079368233680725,-8.760340809822083 -0.9572886675596237,-1.7337648570537567 m1.7280623316764832,4.576071500778198 l3.06607186794281,-5.674602389335632 2.3122602701187134,-2.6993757486343384 l2.3568549752235413,-1.7782658338546753 2.3205702006816864,-0.9637477248907089 l2.5174346566200256,0.0005895768845221028 2.767779231071472,1.1660435795783997 l1.7157544195652008,1.3509249687194824 1.9607822597026825,2.933933436870575 l0.8284240961074829,2.461092323064804 8.442631042271387e-05,3.5658639669418335 l-1.297818273305893,4.1588738560676575 -2.452530860900879,3.828693926334381 l-3.043382465839386,2.984461486339569 4.216486215591431,0.5418644845485687 l2.5891339778900146,1.3097283244132996 2.5550973415374756,2.618701457977295 l1.951344758272171,3.884754776954651 0.8501070737838745,4.3301597237586975 l-0.00019459170289337635,4.0548136830329895 -0.6799504905939102,2.1667003631591797 l-2.0761141180992126,2.656852602958679 -3.3707064390182495,1.8597742915153503 l-4.484586119651794,0.848860889673233 -7.2204965353012085,-1.6557328402996063 l-1.3812188804149628,-0.9767645597457886 -1.5661372244358063,-2.3209281265735626 m-8.549513816833496,-29.082648754119873 l-1.3932512700557709,-2.2116634249687195 -2.938455045223236,-2.4629823863506317 l-4.365389347076416,-1.8899036943912506 -4.444544315338135,-0.5852372944355011 l-1.4097750186920166,0.36369673907756805 -2.956957519054413,2.8875544667243958 l-1.1816949397325516,2.2461366653442383 -0.7985279709100723,4.105289280414581 l0.2935539372265339,4.673557281494141 1.1339525133371353,2.737119495868683 l2.7607136964797974,3.368103504180908 6.064772605895996,4.113506376743317 l-0.4496675357222557,4.395001232624054 -0.7532547414302826,4.1582366824150085 l0.13206109404563904,3.800826668739319 1.546834111213684,3.049018681049347 l1.7819219827651978,1.425197720527649 3.0265802145004272,0.901876762509346 l3.5423335433006287,0.0002635706005094107 3.2227209210395813,-1.5830542147159576 l1.5741641819477081,-1.7010289430618286 m-1.1498026549816132,-31.779780387878418 l-0.3404403105378151,-2.994721829891205 -2.0741531252861023,-5.802313685417175 l-1.566065400838852,-2.683337926864624 -2.4598459899425507,-2.0790423452854156 l-1.4259825646877289,-0.5009346455335617 -2.0718981325626373,0.18566042184829712 m10.950933694839478,12.573610544204712 l-0.22427070885896683,-1.5774399042129517 0.8682450652122498,-3.827539086341858 l2.060401439666748,-3.9627647399902344 1.7359663546085358,-1.9784127175807953 l2.5431236624717712,-1.6015645861625671 2.042315900325775,-0.5452540889382362 l1.5595230460166931,0.16183549538254738 1.6252236068248749,1.193966567516327 l0.7631286233663559,1.1698327213525772 0.21362457424402237,1.00706547498703 l-0.39292100816965103,0.7506502419710159 m-17.189573049545288,6.899427771568298 l-0.9583589434623718,-2.852497398853302 " fill="none" stroke="black" stroke-width="1" /></svg>