<?xml version="1.0" encoding="utf-8" ?>
<svg baseProfile="full" height="2750.0" version="1.1" width="2290.0" xmlns="http://www.w3.org/2000/svg" xmlns:ev="http://www.w3.org/2001/xml-events" xmlns:xlink="http://www.w3.org/1999/xlink"><defs /><rect fill="white" height="2750.0" width="2290.0" x="0" y="0" /><path d="M1065.0,555.0 m-40.0,80.0 l-20.0,275.0 -10.0,830.0 l30.0,215.0 70.0,245.0 l55.0,85.0 55.0,30.0 l45.0,-20.0 10.0,-35.0 l-10.0,-335.0 -170.0,-1165.0 l15.0,-45.0 m35.0,180.0 l15.0,-125.0 45.0,-85.0 l135.0,-185.0 165.0,-190.0 l85.0,-75.0 140.0,-90.0 l105.0,-20.0 55.0,5.0 l15.0,30.0 -10.0,210.0 l-70.0,345.0 -145.0,420.0 l-165.0,280.0 190.0,105.0 l80.0,80.0 75.0,115.0 l165.0,285.0 190.0,395.0 l65.0,280.0 0.0,25.0 l-40.0,20.0 -110.0,5.0 l-210.0,-70.0 -115.0,-55.0 l-125.0,-85.0 -215.0,-205.0 l-135.0,-160.0 -40.0,-85.0 m-395.0,-1250.0 l-35.0,-40.0 -55.0,-155.0 l-125.0,-230.0 -225.0,-215.0 l-205.0,-100.0 -10.0,465.0 l10.0,85.0 30.0,80.0 l330.0,480.0 200.0,240.0 l-225.0,45.0 -75.0,40.0 l-80.0,70.0 -135.0,160.0 l-245.0,435.0 -10.0,65.0 l310.0,10.0 455.0,-55.0 l325.0,-155.0 m-130.0,-1470.0 l55.0,-285.0 -10.0,-160.0 l-35.0,-80.0 -40.0,-20.0 l-105.0,0.0 -45.0,50.0 l-20.0,120.0 40.0,40.0 l35.0,5.0 45.0,-25.0 l5.0,-25.0 -25.0,10.0 m250.0,280.0 l-15.0,-210.0 10.0,-55.0 l70.0,-105.0 210.0,-70.0 l20.0,85.0 -10.0,120.0 " fill="none" stroke="black" stroke-width="1" /></svg>