<?xml version="1.0" encoding="utf-8" ?>
<svg baseProfile="full" height="93.21824165731869" version="1.1" width="827.2027353966223" xmlns="http://www.w3.org/2000/svg" xmlns:ev="http://www.w3.org/2001/xml-events" xmlns:xlink="http://www.w3.org/1999/xlink"><defs /><rect fill="white" height="93.21824165731869" width="827.2027353966223" x="0" y="0" /><path d="M25,25 m0.0,0.0 m44.28339338861406,18.087369655258954 l-0.29985448345541954,-0.06736570503562689 m-3.495098054409027,-2.3087452352046967 l-1.2911967933177948,-0.31378619372844696 -1.611819565296173,0.5402467027306557 l-0.9523062407970428,1.0580529272556305 -0.9489421546459198,2.999410629272461 l0.13646711595356464,0.7868142426013947 1.583801507949829,0.9654184430837631 l1.6130124032497406,0.17694557085633278 0.20604576915502548,-1.1810971051454544 l-1.2475719302892685,-1.0127852112054825 -1.311822086572647,-0.43553486466407776 l-1.4813168346881866,0.20842814818024635 -0.6765446066856384,0.6851544231176376 l-0.3920327126979828,2.183344066143036 0.5846477672457695,3.4630274772644043 l0.7974108308553696,3.2787543535232544 m4.097975492477417,-7.727581262588501 l0.5247005075216293,4.559319615364075 m-2.6091453433036804,0.24140264838933945 l-0.9736122936010361,6.488892436027527 m1.3937932252883911,-5.697871446609497 l-3.9665332436561584,0.8189341425895691 -2.226998507976532,0.9685540944337845 m6.060033440589905,-1.9508762657642365 l0.3686144948005676,1.1064943671226501 1.1067219823598862,2.4000446498394012 l1.413036286830902,1.785072535276413 m-3.2462140917778015,-5.7515305280685425 l2.618740499019623,0.03487563692033291 2.597910463809967,-0.36404576152563095 l1.4787712693214417,-0.36966562271118164 m-5.515406131744385,-0.776103213429451 l0.16967030242085457,-0.3097110614180565 1.0908623784780502,-0.4362424463033676 l4.1068872809410095,-1.5438735485076904 2.3569902777671814,-0.5235839262604713 l2.5843974947929382,-0.07706655189394951 2.4833284318447113,0.7070419937372208 l2.082798033952713,1.7156195640563965 0.8427485078573227,1.4128591120243073 l0.39075199514627457,2.100686877965927 -0.5582405999302864,2.4422840774059296 l-0.9474702179431915,1.3268844783306122 -2.169404625892639,1.4643628895282745 l-3.4888696670532227,1.0623932629823685 -4.190860390663147,0.24657299742102623 l-2.6082149147987366,-0.8500669151544571 -0.854249969124794,-0.7947142422199249 l-0.6592173129320145,-1.8245510756969452 m-0.5914092063903809,-7.43208110332489 l-1.2373940646648407,-0.9952642023563385 -2.364976704120636,-1.2161900848150253 l-5.38249671459198,-1.04644276201725 -2.3009636998176575,0.706535130739212 l-1.370444893836975,1.2284132838249207 -0.8776403963565826,1.5662993490695953 l-0.452047735452652,2.774369716644287 0.43999310582876205,1.981726586818695 l1.179654598236084,1.6865581274032593 1.7944720387458801,1.2609946727752686 l5.387558937072754,1.5558186173439026 4.988391101360321,0.04668631590902805 l2.3786669969558716,-0.686865895986557 m-3.129167854785919,-11.784098148345947 l3.210703730583191,-1.544301062822342 2.612312138080597,-0.7013462483882904 l1.8053270876407623,0.06421465892344713 2.0279251039028168,1.0470568388700485 l1.7148038744926453,2.4237817525863647 0.6953482329845428,3.156491219997406 l-0.43930593878030777,2.9254603385925293 -0.9534447640180588,1.3147932291030884 l-2.182640880346298,1.4574414491653442 -1.9199289381504059,0.4704981669783592 l-4.392881691455841,-0.38916509598493576 -1.1095698177814484,-0.7004888355731964 l-1.130465567111969,-1.8316195905208588 -0.6012511998414993,-3.255169093608856 l0.2657187543809414,-2.271279990673065 m4.393757581710815,0.08009299635887146 l0.5235676467418671,3.0305373668670654 0.38962941616773605,3.746262788772583 l0.2785523422062397,2.508772909641266 0.38643885403871536,1.5612339973449707 l0.6377492100000381,0.654909759759903 m-1.9053025543689728,-13.032398223876953 l3.1563302874565125,-1.9616538286209106 2.293945997953415,-0.9417031705379486 l2.3775342106819153,-0.5992541462182999 2.193569540977478,-0.04970898851752281 l2.016451507806778,0.6539640575647354 m73.19156579120317,-0.5783114166115411 l-0.24699578061699867,-0.2905183658003807 m-3.4714385867118835,-2.504996955394745 l-1.4670442044734955,-0.5787654593586922 -1.8521153926849365,0.2448657713830471 l-2.36684188246727,1.9845229387283325 -0.8909261226654053,1.6515201330184937 l-0.23825878277420998,2.2452518343925476 0.33494189381599426,0.7783166319131851 l1.9583652913570404,1.074954867362976 1.50538831949234,0.34889601171016693 l3.005508780479431,-0.15667147934436798 -0.5544725432991982,-0.6759592890739441 l-1.575828641653061,-0.75033999979496 -1.548842191696167,-0.43216582387685776 l-1.8440885841846466,0.07508914452046156 -1.6420479118824005,0.7891923934221268 l-1.4098763465881348,1.7074455320835114 -0.7554556429386139,2.5325772166252136 l0.21682733669877052,2.9654812812805176 1.5210072696208954,2.736378014087677 m9.191173911094666,-13.918015956878662 l1.3527745008468628,8.848916292190552 m-5.914551615715027,-0.6453602761030197 l-0.11184301227331161,5.292612314224243 m0.6848864257335663,-5.4213303327560425 l0.4284728318452835,3.2575419545173645 0.4148832708597183,3.109517991542816 m-1.438755989074707,-8.75942051410675 l-1.229136660695076,0.09760260581970215 -1.4518222212791443,0.3022218868136406 l-2.013479769229889,0.9619570523500443 -1.205352544784546,1.3164308667182922 l-0.5572491884231567,1.393001228570938 -0.002734962909016758,1.345468908548355 l0.8715618401765823,1.9147878885269165 1.4113645255565643,1.214231550693512 l1.7279304563999176,0.6010965257883072 2.9498320817947388,0.07182173430919647 l1.951247900724411,-0.65684974193573 1.4163409173488617,-1.1397160589694977 l0.777953490614891,-1.404367834329605 0.24437597021460533,-1.5775468945503235 l-0.6605353951454163,-2.1508364379405975 -1.1607080698013306,-1.3634654879570007 l-2.188245952129364,-1.140613704919815 m-2.901751399040222,3.372103273868561 l2.5800538063049316,-2.0254255831241608 2.907840311527252,-2.446146458387375 l2.651069760322571,-2.327902913093567 1.6373904049396515,-0.9812517464160919 l1.822374016046524,-0.5616383999586105 1.1683408915996552,0.20043669268488884 l1.2464560568332672,1.2660330533981323 1.0389503836631775,2.6746511459350586 l0.10083460249006748,3.4008976817131042 -1.25094935297966,3.219095468521118 l-2.3433098196983337,2.858670651912689 -3.0704325437545776,2.082035541534424 l-3.507676422595978,1.1643192172050476 m-6.181094646453857,-10.362914800643921 l-1.332317739725113,-1.424395740032196 -2.224588990211487,-1.6286568343639374 l-2.2413773834705353,-0.5246135592460632 -2.629069983959198,0.46771034598350525 l-1.3708668947219849,1.076473817229271 -1.3210776448249817,2.3785558342933655 l-0.3551335260272026,1.9714415073394775 0.3550853207707405,1.8395459651947021 l1.0956228524446487,1.5907680988311768 2.614661455154419,1.8534395098686218 l3.661319315433502,1.1378403007984161 3.223513960838318,-8.19092383608222e-05 l1.9076688587665558,-0.6894813477993011 m0.7098659127950668,-10.883375406265259 l-0.11509513482451439,-0.5000394582748413 0.553317666053772,-1.8815946578979492 l2.0318007469177246,-3.1624189019203186 1.732688993215561,-1.4228907227516174 l1.7698773741722107,-0.5656944960355759 1.5382519364356995,0.12381992302834988 l1.7668811976909637,1.2522640824317932 1.4430402219295502,2.53266841173172 l0.4329748824238777,3.1033411622047424 -0.72681725025177,2.8514236211776733 m73.62721517005411,-3.5429245003615506 l-0.21800003945827484,-0.5054726451635361 -2.6746666431427,-1.896197497844696 l-2.4553312361240387,-1.2321837246418 -2.0438961684703827,-0.0027946988120675087 l-1.9836197793483734,1.971251517534256 -0.6112395972013474,1.6246724128723145 l0.0003942076727980748,2.2008581459522247 0.6042197719216347,1.271667331457138 l1.865898072719574,1.4827771484851837 -1.047510802745819,0.50942312926054 l-3.4276145696640015,1.9386553764343262 -1.1616090685129166,1.489071100950241 l-0.46834394335746765,1.4986251294612885 0.3227439895272255,2.13504821062088 l1.2229382991790771,1.3156655430793762 1.970481425523758,0.8803246915340424 l5.670106410980225,0.32540760934352875 3.623459041118622,-1.352735310792923 l1.5302197635173798,-1.5350691974163055 0.9507933259010315,-2.8397470712661743 l-0.02152400091290474,-5.4043543338775635 -0.6093094497919083,-1.9777697324752808 m-5.71919322013855,1.9258521497249603 l-0.6261829286813736,3.324197232723236 -0.7242080569267273,4.061609506607056 m2.4955937266349792,-7.475578188896179 l0.34796811640262604,3.7389904260635376 0.3952101618051529,3.8893789052963257 m-2.564237415790558,-7.2957998514175415 l-2.3258961737155914,-0.4631724953651428 -1.7731553316116333,-0.1527195144444704 l-1.9811330735683441,0.24668000638484955 -2.135654389858246,1.053975597023964 l-1.2673260271549225,1.3988377153873444 -0.5239967629313469,1.4775434136390686 l0.17572952434420586,1.3493481278419495 1.378220021724701,1.895705759525299 l1.7724472284317017,1.0120492428541183 2.8039631247520447,0.4479076713323593 l2.8948161005973816,-0.39396051317453384 m3.0170562863349915,-8.951097130775452 l3.8690730929374695,-1.6487699747085571 2.597203850746155,-0.27097659185528755 l1.451057344675064,0.5503396317362785 1.259004920721054,1.6731232404708862 l0.5801929906010628,2.699437439441681 -0.5355189368128777,2.7735182642936707 l-1.7794087529182434,2.2722944617271423 -1.5238311886787415,0.8834672719240189 l-2.507096529006958,0.45256514102220535 -1.926160305738449,-0.6918096542358398 m-3.7454503774642944,-11.0502290725708 l-0.6543266028165817,-0.7825884222984314 -1.0937294363975525,-1.1101310700178146 l-2.9707545042037964,-2.754988968372345 -1.5028205513954163,-1.2507326900959015 l-1.8635864555835724,-1.165178343653679 -2.01757475733757,-0.7559069246053696 l-2.1664296090602875,-0.15781521797180176 -1.2595875561237335,0.50419881939888 l-0.8855871856212616,1.0719605535268784 -0.44656842947006226,1.534809172153473 l0.22766528651118279,2.834010422229767 1.0511700809001923,2.1843528747558594 l1.5415872633457184,1.7748402059078217 2.791798710823059,1.992022693157196 l3.3339619636535645,1.3916763663291931 2.724682092666626,0.9633266180753708 m7.8896564245224,-7.311391234397888 l0.9033258259296417,-1.1325138807296753 1.7313075065612793,-1.3451801240444183 l3.0788981914520264,-1.6709457337856293 2.330549508333206,-0.6006118282675743 l2.536303997039795,0.10660885833203793 1.4991068840026855,0.8142043650150299 l1.4109916985034943,1.9478334486484528 0.47771215438842773,1.5637855231761932 l-0.16359426081180573,2.458305209875107 -1.5405173599720001,2.741437554359436 l-2.7418169379234314,2.353743314743042 -3.471095561981201,1.539192646741867 m75.03058083933865,-9.781631551450118 l-0.18706496804952621,-0.7103641331195831 -2.6319369673728943,-2.009217292070389 l-2.513292133808136,-1.2655425071716309 -2.320152223110199,-0.1356339268386364 l-1.6969296336174011,1.0914437472820282 -0.9844113886356354,1.4519228041172028 l-0.819486677646637,3.808448910713196 0.0005087268436909653,2.783675491809845 l0.3602602705359459,1.0217949748039246 1.4928513765335083,1.494000405073166 l2.1262258291244507,1.0440446436405182 -0.3679574653506279,0.4913998395204544 l-2.6406991481781006,2.038058638572693 -1.3637901842594147,2.046431601047516 l-0.32303497195243835,1.5766258537769318 0.570208765566349,1.236962005496025 l1.586933434009552,0.8426900207996368 9.798029661178589,-1.1587521433830261 l2.8836414217948914,-2.776620388031006 1.002221256494522,-2.2913748025894165 l0.35755597054958344,-3.3560550212860107 -0.5604762956500053,-2.9688167572021484 l-1.4073188602924347,-2.4232985079288483 -1.3578790426254272,-1.0393034666776657 m-4.908102750778198,5.909817814826965 l-0.1964445598423481,2.9882434010505676 -0.3943725675344467,4.319110810756683 l-0.1400111522525549,3.001072108745575 m2.2917526960372925,-10.222190618515015 l0.6170077249407768,3.7168917059898376 0.5515530332922935,4.7950950264930725 m-3.6804956197738647,-11.659834384918213 l-0.11059246957302094,-0.4837776720523834 0.42769648134708405,-0.8902545273303986 l2.155977040529251,-2.9258888959884644 1.9951072335243225,-1.3899700343608856 l1.833469271659851,-0.47097694128751755 1.4324875175952911,0.255502313375473 l1.4862951636314392,1.2585239112377167 1.128961592912674,2.5052443146705627 l0.03130840137600899,1.649797409772873 -1.0319791734218597,2.0620089769363403 l-1.3267290592193604,1.060553789138794 -2.556426227092743,0.850609764456749 l-3.1146329641342163,0.025556916370987892 m-2.657345235347748,-6.078920960426331 l-3.7313470244407654,-2.327975779771805 -2.7278906106948853,-0.8826009184122086 l-2.894035577774048,-0.055066049098968506 -1.4467883110046387,0.6676908582448959 l-1.4409239590168,1.8770216405391693 -0.43359987437725067,1.7518964409828186 l0.28049610555171967,1.5837512910366058 1.0227155685424805,1.365286111831665 l2.6218190789222717,1.694076806306839 3.8740140199661255,1.1616159975528717 l2.4536053836345673,0.5417921394109726 m5.810863375663757,-8.182712197303772 l0.05236182361841202,-1.0099831223487854 0.907629206776619,-1.203559786081314 l2.6058754324913025,-1.7784182727336884 2.4674542248249054,-0.773901641368866 l2.061213403940201,-0.03416757332161069 1.5339712798595428,0.685359388589859 l1.663002222776413,1.9327957928180695 0.5979835242033005,1.5979468822479248 l0.025222920812666416,2.3366649448871613 -1.2214509397745132,2.479558140039444 l-1.2549427151679993,1.1206644028425217 -2.443850338459015,0.9689557552337646 l-3.2828599214553833,0.26561107486486435 -2.0132654905319214,-0.6755818426609039 m-2.6660344004631042,-9.943678379058838 l2.4221619963645935,-2.1859459578990936 2.1968986093997955,-0.9801369905471802 m77.80503461268381,6.162504507119593 l-0.17610901966691017,-0.8958671987056732 -2.598942518234253,-1.9706383347511292 l-2.7466535568237305,-1.4230480790138245 -1.5802636742591858,-0.24593090638518333 l-2.1389231085777283,0.6909748911857605 -1.3910458981990814,1.230224221944809 l-1.4588530361652374,2.680915892124176 -0.6970452517271042,3.5463184118270874 l0.00036963363527320325,3.066081702709198 0.36197446286678314,1.2408912926912308 l1.5807221829891205,2.169155031442642 1.5216818451881409,1.4828039705753326 l2.0572787523269653,1.273830533027649 2.4465125799179077,0.7267937064170837 l2.116044759750366,-0.0004311373413656838 3.4257861971855164,-1.6229450702667236 l1.3943029940128326,-2.7303144335746765 0.6353706121444702,-6.093468070030212 l-1.0071075707674026,-2.815774977207184 -1.6330081224441528,-1.6163773834705353 l-1.6832554340362549,-0.7640689611434937 -2.086978405714035,-0.0007234033546410501 l-1.1606856435537338,0.63974529504776 -1.1179053783416748,1.6214142739772797 m-1.5058323740959167,7.375131845474243 l-1.0704049468040466,6.185706853866577 -0.9517905116081238,4.013241827487946 l-0.4337453097105026,1.7179152369499207 m6.738795638084412,-9.530468583106995 l1.312624216079712,3.333033323287964 1.648416668176651,4.060981273651123 l0.9370921552181244,1.9025707244873047 m-9.18627679347992,-16.864131689071655 l-0.8305268734693527,-0.8922316133975983 -1.0720735043287277,-1.663948893547058 l-1.0732050985097885,-2.383461892604828 -0.48583317548036575,-1.6113705933094025 l-0.14782373793423176,-1.1623868346214294 0.2785168029367924,-1.3584335148334503 l0.862480029463768,-0.9829716384410858 1.395965963602066,-0.5612385272979736 l1.5643498301506042,0.07035686168819666 2.1327559649944305,1.1067953705787659 l1.876668632030487,2.282346487045288 0.5454181134700775,1.7211829125881195 l-0.047551863826811314,2.1862007677555084 m1.8868467211723328,1.0360288619995117 l3.5383206605911255,-2.431366443634033 2.3676154017448425,-0.8888742327690125 l2.7086088061332703,-0.149838300421834 1.4317460358142853,0.6538499146699905 l1.217581182718277,1.723230928182602 0.35647690296173096,1.4597886800765991 l-0.4293789342045784,2.1049323678016663 -0.9390029311180115,1.1579090356826782 l-2.1895304322242737,1.1825992166996002 -3.1685489416122437,0.5999276041984558 m-10.038121938705444,-5.372975468635559 l-1.236453801393509,-1.1846207082271576 -1.5101252496242523,-1.3795402646064758 l-1.7683960497379303,-1.4280644059181213 -1.895260214805603,-1.3403676450252533 l-1.9229789078235626,-1.1861270666122437 -1.9249805808067322,-0.786835178732872 l-0.13388639315962791,0.5908582732081413 0.6357426196336746,2.113877832889557 l1.4267529547214508,2.040468007326126 2.5946778059005737,2.3776307702064514 m93.56419475869188,3.76367164390615 l-0.1965639367699623,-1.049562618136406 -2.451823353767395,-1.8988335132598877 l-2.6415598392486572,-1.3190092146396637 -2.630179226398468,-0.4382789507508278 l-1.2400111556053162,0.2262299507856369 -1.98648139834404,1.4247962832450867 l-1.918187439441681,2.880234122276306 -0.8682418614625931,2.483571022748947 l0.0005480955223902129,3.804425895214081 0.689506009221077,3.3271461725234985 l0.5875773727893829,1.3874118030071259 1.8080289661884308,2.5083839893341064 l1.0334136337041855,0.9430240094661713 2.7556902170181274,1.4860863983631134 l2.3065243661403656,0.5888388678431511 3.8828185200691223,-0.0004235286178300157 l5.476691126823425,-2.654738128185272 1.0426456481218338,-1.2685352563858032 l1.2943349778652191,-4.731807708740234 0.0011689431266859174,-3.935590982437134 l-1.349557638168335,-3.099336326122284 -1.95781871676445,-2.218433916568756 l-1.8555475771427155,-1.0968966782093048 -1.9861510396003723,-0.4678482189774513 l-2.250072807073593,-0.0005478605089592747 -2.2604721784591675,0.9550909698009491 m-2.378273606300354,12.05485463142395 l-0.6721905618906021,2.4849358201026917 -0.4944007098674774,2.3965679109096527 l0.18203571438789368,1.166885495185852 1.8432527780532837,-2.9857915251341183e-07 l1.4433388411998749,-2.6921308040618896 0.2000761218369007,-2.330787628889084 m1.837501972913742,0.34831754863262177 l1.5906810760498047,1.1774678528308868 1.8262523412704468,1.2571577727794647 l1.1587127298116684,0.2040468528866768 1.0682332515716553,-0.7509465515613556 l0.70496566593647,-1.856764703989029 -0.3294973447918892,-3.752778172492981 m-11.921374797821045,-12.018216848373413 l-1.2136117368936539,-1.5588033199310303 -1.3665905594825745,-1.8401739001274109 l-1.3521677255630493,-1.8865786492824554 -0.9089025110006332,-1.1246772855520248 l-1.219133511185646,-1.1385516822338104 -1.7690914869308472,-0.9691088646650314 l-1.1243736743927002,0.13253440149128437 -1.528981477022171,1.3142986595630646 l-0.7970665395259857,1.6672113537788391 -0.42681649327278137,3.0089399218559265 l0.41884228587150574,2.157556861639023 1.0311760008335114,1.6098417341709137 l1.4606867730617523,1.1439193040132523 2.5891104340553284,0.9223567694425583 m16.4621901512146,-4.182234406471252 l0.04441420082002878,-1.13076351583004 0.9611909091472626,-1.3083277642726898 l1.6267156600952148,-1.0375160723924637 1.7684876918792725,-0.39759084582328796 l1.5661923587322235,0.23249560967087746 1.781955510377884,1.2307947129011154 l1.454579085111618,2.444044202566147 0.2297622710466385,1.5634100139141083 m66.7064037964883,-1.2872083475070895 l-0.21272405982017517,-1.194581463932991 -2.1692760288715363,-1.841949224472046 l-2.5578293204307556,-1.3996651768684387 -1.6930022835731506,-0.3522459417581558 l-2.429783195257187,0.3223172202706337 -2.2769640386104584,1.516946405172348 l-1.4785866439342499,1.762031465768814 -1.4811262488365173,3.338005244731903 l-0.583428218960762,2.8761377930641174 0.0005471819895319641,4.359624981880188 l1.0173087567090988,3.6379629373550415 1.6103832423686981,2.646765112876892 l1.0048004239797592,1.0818834602832794 2.0405851304531097,1.4148123562335968 l2.1435968577861786,0.8751846849918365 4.950306713581085,0.7194721698760986 l4.262673556804657,-0.00019977840565843508 3.676784932613373,-1.8135255575180054 l1.9477131962776184,-2.146182209253311 2.269536107778549,-6.10616147518158 l0.0007728049240540713,-4.800646007061005 -1.3663999736309052,-3.371397852897644 l-1.5561947226524353,-2.1946153044700623 -1.7733892798423767,-1.473962515592575 l-1.9976058602333069,-0.8933711796998978 -2.116664946079254,-0.3024755045771599 l-2.889162600040436,0.4706798493862152 -1.441897302865982,0.8294753730297089 m-2.190711498260498,10.163130760192871 l-0.14503532089293003,0.4819091781973839 -0.1294293813407421,1.017431914806366 l0.1543605886399746,0.5832823365926743 3.372335135936737,-1.9916163384914398 l-0.5949854850769043,-0.5736833065748215 -1.226043626666069,0.1529183518141508 m0.17273638397455215,0.4346155375242233 l1.044423133134842,-3.282872438430786 3.0417343974113464,-6.552294492721558 l1.447318196296692,-2.0288732647895813 1.2988363206386566,-0.8829347044229507 l1.672695130109787,-0.3778086230158806 1.7825669050216675,0.4559686779975891 l0.8085266500711441,0.9107434749603271 0.36477483808994293,1.8990316987037659 l-0.7592117786407471,2.5961926579475403 -2.03447163105011,2.6050546765327454 l-2.773258090019226,2.087337225675583 -3.0063587427139282,1.225777119398117 m-5.27758002281189,-5.651638507843018 l-0.5452192947268486,-0.8300550282001495 -0.8678514510393143,-1.0834739357233047 l-1.9664151966571808,-2.1713465452194214 -0.7008215039968491,-0.9068267792463303 l-0.6935083121061325,-0.8901923894882202 -0.5063321441411972,-0.8448713272809982 l-0.06282305344939232,-0.7722500711679459 0.9084054082632065,-0.6048881635069847 m89.15361353143453,4.27792228778344 l-0.2434147335588932,-1.3092240691184998 -2.0105651021003723,-1.6850563883781433 l-2.6782360672950745,-1.2938687205314636 -2.729623317718506,-0.45958075672388077 l-1.3663192093372345,0.17143052071332932 -2.1265892684459686,1.2857386469841003 l-1.5861783921718597,1.781579852104187 -1.7347070574760437,3.5942742228507996 l-0.8387912064790726,4.971548616886139 0.0003260336598032154,4.379711151123047 l1.042715311050415,3.708876073360443 1.2555550038814545,2.329871654510498 l1.4303798973560333,1.6756224632263184 1.7299383878707886,1.2876954674720764 l4.318481087684631,1.6986072063446045 2.8902536630630493,0.45998867601156235 l4.704463183879852,-0.0002787709854601417 4.509859085083008,-1.6761685907840729 l2.5786322355270386,-2.029087245464325 3.2608652114868164,-5.726755261421204 l0.7190785557031631,-3.5627281665802 -0.049787270836532116,-4.471428394317627 l-1.4562958478927612,-3.4214136004447937 -1.6451652348041534,-2.241640090942383 l-1.8793009221553802,-1.56534343957901 -2.089427262544632,-0.9696290642023087 l-2.2636038064956665,-0.42470362037420273 -3.033025860786438,-0.0005540867641684599 l-2.9842397570610046,0.9696654230356216 -1.4461785554885864,1.0647756606340408 m0.5075664818286896,8.296750783920288 l0.04166902042925358,-0.593469887971878 0.7320767641067505,-1.6782768070697784 l2.0489828288555145,-3.5060521960258484 2.045697271823883,-2.560811936855316 l2.248605340719223,-1.8433663249015808 1.400689035654068,-0.6139647215604782 m-8.938187956809998,9.667874574661255 l-0.4180775582790375,-0.2731221728026867 -0.2542894333600998,-0.025662125553935766 l-0.3856828436255455,0.6697117537260056 -0.39868999272584915,1.8257202208042145 l0.5054720863699913,1.230333372950554 1.0048872232437134,0.7177193462848663 l1.942988783121109,0.34407906234264374 1.3266204297542572,-0.3659922629594803 l1.428208202123642,-1.296018809080124 0.48397980630397797,-1.3185222446918488 l-0.3769003599882126,-1.7562898993492126 -1.7153501510620117,-1.6652517020702362 l-2.7350279688835144,-1.0553605109453201 m81.89794848763995,-0.3157711205949454 l-0.26780614629387856,-1.3618873059749603 -1.9047655165195465,-1.5387223660945892 l-2.548118531703949,-1.2260524928569794 -2.74171382188797,-0.45153625309467316 l-2.2852078080177307,0.3982677310705185 -2.050430327653885,1.3556638360023499 l-1.5348322689533234,1.7427663505077362 -1.7373880743980408,3.518415093421936 l-0.7462625205516815,3.0712324380874634 0.0005104642332298681,5.454842448234558 l1.1420054733753204,4.53558087348938 1.814817190170288,3.4257790446281433 l1.7158901691436768,2.0790819823741913 1.900031864643097,1.4924418926239014 l2.1591506898403168,1.0531269013881683 5.327631831169128,1.067572757601738 l4.78087455034256,-0.00017807085896492936 4.975757896900177,-1.6809742152690887 l2.9895395040512085,-2.049075812101364 3.037272095680237,-3.6789095401763916 l1.4568586647510529,-3.277299404144287 0.7505880296230316,-4.62557852268219 l0.00046916797145968303,-3.9414262771606445 -1.065668910741806,-3.8473644852638245 l-1.3598616421222687,-2.433665096759796 -1.6829295456409454,-1.7564602196216583 l-1.9989226758480072,-1.1748424917459488 -2.27289155125618,-0.6215330585837364 l-3.62520694732666,-0.00040418140997644514 -1.7802727222442627,0.6227900832891464 l-2.003537267446518,1.608993262052536 m-0.9620294719934464,0.11864391155540943 l-0.08817649446427822,-1.0742328315973282 0.7246807962656021,-3.4728652238845825 l1.6994529962539673,-3.0130520462989807 1.4895623922348022,-1.3064515590667725 l2.0829324424266815,-0.7374653965234756 1.4095894992351532,0.054211681708693504 l1.3611938059329987,1.0175026208162308 0.8704113960266113,2.063550502061844 l-0.1911143772304058,2.5348418951034546 -2.2508350014686584,1.8232084810733795 l-4.692682921886444,1.3597263395786285 -1.6872642934322357,0.2061023749411106 l-1.2521596252918243,-0.4706258699297905 m79.39097806010977,2.4331346959888833 l-0.3082261048257351,-1.405070275068283 -1.7273624241352081,-1.35559543967247 l-2.63823539018631,-1.138082817196846 -2.5075283646583557,-0.3855949267745018 l-2.2798101603984833,0.4148559644818306 -2.1096400916576385,1.4211751520633698 l-1.6381186246871948,1.9328665733337402 -1.729719638824463,3.6814719438552856 l-0.753687396645546,3.270803391933441 0.00041977902583312243,5.4678744077682495 l1.240856796503067,4.726358652114868 2.1440118551254272,3.9457082748413086 l1.3473564386367798,1.6353118419647217 2.649105489253998,2.131746858358383 l2.5953683257102966,1.2601543962955475 5.537340044975281,1.1251678317785263 l5.2396780252456665,-0.00010836142791958991 5.1903218030929565,-1.857396513223648 l3.1539827585220337,-2.1959860622882843 3.263050615787506,-3.848430812358856 l1.6033253073692322,-3.337845802307129 1.056859865784645,-4.616476595401764 l0.0002458978633512743,-4.378869831562042 -1.1119774729013443,-3.8799700140953064 l-1.3832616806030273,-2.42082417011261 -1.6908864676952362,-1.7653676867485046 l-1.905016005039215,-1.1741551011800766 -2.2948352992534637,-0.7176464796066284 l-3.512699604034424,-0.00021618065147777088 -3.1393402814865112,0.9763798117637634 l-1.6282126307487488,1.0986220091581345 -1.3631193339824677,1.7990221083164215 m0.06306874100118876,-1.191968396306038 l-0.25053974241018295,-1.8653862178325653 0.19696848466992378,-4.522296786308289 l1.0092460364103317,-2.919442057609558 1.1551306396722794,-1.330104023218155 l1.9933326542377472,-0.938945934176445 1.550115942955017,-0.15921076759696007 l1.648334413766861,0.7088679820299149 0.6736811995506287,0.878363698720932 l-0.045385309495031834,1.7199893295764923 -2.089144140481949,2.6538723707199097 " fill="none" stroke="black" stroke-width="1" /></svg>