<?xml version="1.0" encoding="utf-8" ?>
<svg baseProfile="full" height="66.46124824881554" version="1.1" width="64.04299458830792" xmlns="http://www.w3.org/2000/svg" xmlns:ev="http://www.w3.org/2001/xml-events" xmlns:xlink="http://www.w3.org/1999/xlink"><defs /><rect fill="white" height="66.46124824881554" width="64.04299458830792" x="0" y="0" /><path d="M25.181481450490537,29.174689203755406 m2.6874950528144836,-2.2395257651805878 l1.8247202038764954,-0.5469175428152084 3.393510580062866,0.3795570507645607 l1.8311139941215515,0.9082438796758652 2.0320938527584076,1.8589816987514496 l1.5207114815711975,2.6222872734069824 0.571867972612381,2.0293840765953064 l-0.00021769075829070061,2.824622392654419 -0.5503365397453308,1.6139374673366547 l-1.6618616878986359,2.0037956535816193 -1.5348435938358307,0.8318003267049789 l-3.2672718167304993,0.0003925335840904154 -4.818631410598755,-2.7885016798973083 l-1.6613605618476868,-2.7372875809669495 -0.5484712868928909,-2.247720956802368 l0.11983287520706654,-2.920674681663513 0.5042513459920883,-1.0564923286437988 m2.14542955160141,-0.09751424193382263 l0.5048288404941559,-3.6055275797843933 0.599023774266243,-1.0075291991233826 m3.6365774273872375,3.5007500648498535 l1.7461948096752167,-3.225734531879425 0.8266843855381012,-0.24370914325118065 l0.9484868496656418,0.665174126625061 m-7.248416543006897,4.010784924030304 l0.42275838553905487,-0.7818755507469177 0.7651601731777191,-1.212342008948326 l0.7000833749771118,-0.35140126943588257 0.9478246420621872,0.3306616097688675 l0.8294001966714859,1.3429124653339386 m-3.1978487968444824,2.70315945148468 l0.40870916098356247,0.12104551307857037 0.3509557992219925,1.3053271174430847 l0.027549127116799355,0.6212741136550903 0.160836111754179,0.00043266492866678163 m-0.6676207482814789,-3.8363558053970337 l2.211659550666809,-2.7957510948181152 1.7020183801651,-0.9165571630001068 l1.7548584938049316,-0.06494657136499882 1.4716333150863647,0.9535182267427444 l0.8881573379039764,1.8053844571113586 0.055124363861978054,2.2415775060653687 l-0.5672216787934303,1.0432101041078568 m-8.150973916053772,-1.8887917697429657 l0.16909483820199966,-1.2931399047374725 0.5776788666844368,-1.1007887870073318 m1.6815349459648132,1.7657837271690369 l1.584591269493103,-1.2188592553138733 m-0.46629365533590317,2.0536744594573975 l2.0280814170837402,-0.21872717887163162 " fill="none" stroke="black" stroke-width="1" /></svg>