<?xml version="1.0" encoding="utf-8" ?>
<svg baseProfile="full" height="1015.0" version="1.1" width="880.0" xmlns="http://www.w3.org/2000/svg" xmlns:ev="http://www.w3.org/2001/xml-events" xmlns:xlink="http://www.w3.org/1999/xlink"><defs /><rect fill="white" height="1015.0" width="880.0" x="0" y="0" /><path d="M160.0,345.0 m130.0,-110.0 l95.0,-30.0 160.0,10.0 l80.0,30.0 95.0,75.0 l90.0,140.0 45.0,125.0 l-5.0,95.0 -30.0,90.0 l-115.0,170.0 -85.0,40.0 l-105.0,10.0 -215.0,-95.0 l-85.0,-95.0 -80.0,-210.0 l-5.0,-55.0 70.0,-225.0 l80.0,-85.0 m110.0,5.0 l30.0,-85.0 5.0,-85.0 m-60.0,10.0 l50.0,-20.0 70.0,0.0 l50.0,-25.0 m-355.0,395.0 l55.0,-80.0 95.0,-40.0 m-200.0,120.0 l-70.0,-125.0 -35.0,-100.0 l0.0,-40.0 70.0,-80.0 l85.0,-15.0 75.0,35.0 l40.0,25.0 65.0,105.0 m205.0,55.0 l40.0,-10.0 105.0,40.0 l65.0,0.0 30.0,-35.0 m-245.0,-20.0 l95.0,-185.0 40.0,-25.0 l25.0,10.0 20.0,-10.0 m-25.0,15.0 l30.0,30.0 " fill="none" stroke="black" stroke-width="1" /></svg>