<?xml version="1.0" encoding="utf-8" ?>
<svg baseProfile="full" height="1850.0" version="1.1" width="3465.0" xmlns="http://www.w3.org/2000/svg" xmlns:ev="http://www.w3.org/2001/xml-events" xmlns:xlink="http://www.w3.org/1999/xlink"><defs /><rect fill="white" height="1850.0" width="3465.0" x="0" y="0" /><path d="M35.0,160.0 m135.0,750.0 l0.0,260.0 -45.0,110.0 l-95.0,-715.0 -5.0,-400.0 l200.0,-35.0 1535.0,-10.0 l295.0,-45.0 530.0,0.0 l115.0,-30.0 600.0,-20.0 l-30.0,375.0 -45.0,190.0 l-40.0,285.0 0.0,175.0 l-70.0,365.0 -60.0,20.0 l-525.0,35.0 -330.0,50.0 l-565.0,20.0 -1085.0,5.0 l-345.0,-55.0 -65.0,-110.0 l10.0,-205.0 m270.0,345.0 l-200.0,10.0 -25.0,60.0 l0.0,40.0 45.0,110.0 l25.0,25.0 145.0,45.0 l285.0,0.0 100.0,-75.0 l25.0,-35.0 0.0,-60.0 l-50.0,-80.0 -45.0,-35.0 m1930.0,-55.0 l-395.0,-5.0 -345.0,105.0 l-75.0,45.0 -20.0,55.0 l5.0,65.0 40.0,40.0 l175.0,45.0 605.0,5.0 l175.0,-60.0 60.0,-45.0 l5.0,-125.0 -10.0,-25.0 l-105.0,-60.0 -240.0,-35.0 m-1600.0,60.0 l85.0,10.0 -110.0,175.0 l-50.0,-5.0 -50.0,-35.0 m910.0,-130.0 l-25.0,10.0 -35.0,60.0 l-10.0,55.0 45.0,40.0 l115.0,0.0 m650.0,-1605.0 l0.0,210.0 -45.0,335.0 l0.0,100.0 25.0,100.0 l40.0,55.0 100.0,20.0 l865.0,0.0 " fill="none" stroke="black" stroke-width="1" /></svg>