<?xml version="1.0" encoding="utf-8" ?>
<svg baseProfile="full" height="87.40143646544311" version="1.1" width="115.78321449458599" xmlns="http://www.w3.org/2000/svg" xmlns:ev="http://www.w3.org/2001/xml-events" xmlns:xlink="http://www.w3.org/1999/xlink"><defs /><rect fill="white" height="87.40143646544311" width="115.78321449458599" x="0" y="0" /><path d="M26.42531616613269,30.743208788335323 m2.967478334903717,15.588082075119019 l0.1601879484951496,4.054234027862549 -1.2575644254684448,2.367372363805771 m-3.2954180240631104,-22.86409616470337 l0.888587161898613,-0.6213457509875298 8.708963990211487,-1.1290601640939713 l15.27276873588562,-1.106635183095932 16.7906653881073,-1.0030990093946457 l22.435612678527832,-1.0286609828472137 0.8076516538858414,2.733551263809204 l0.5275774747133255,8.842371106147766 0.3513874113559723,7.002333402633667 l-0.10589019395411015,5.376354455947876 -0.45017216354608536,0.7447992265224457 l-1.6486328840255737,0.8605217188596725 -15.121288299560547,1.4022637903690338 l-6.90177321434021,0.6246975809335709 -7.288549542427063,0.5559120699763298 l-6.378459334373474,0.31844235956668854 -14.514995813369751,0.09239356033504009 l-4.548813104629517,0.004085191176272929 -3.401375710964203,0.038812230341136456 l-2.108711004257202,0.008509657345712185 -1.2599405646324158,-0.048135118559002876 m10.002635717391968,0.1816103793680668 l-2.6768893003463745,0.6597093492746353 -1.651218831539154,1.183718889951706 l-1.4171448349952698,2.298501878976822 -0.18817737698554993,1.6557462513446808 l0.5862966179847717,1.3132040202617645 1.3276101648807526,0.9209442138671875 l4.729932546615601,0.631088986992836 1.2687785923480988,-0.4514387995004654 l1.7680825293064117,-2.011798769235611 0.7265374809503555,-2.963051497936249 l-0.00039432619814760983,-2.1276211738586426 -0.731763020157814,-1.2208467721939087 m38.146069049835205,-0.3772999346256256 l-2.4876967072486877,0.00018005706806434318 -3.7122586369514465,1.366952508687973 l-1.5386424958705902,1.2587587535381317 -1.0544122010469437,2.1345996856689453 l-0.04413105081766844,1.5460363030433655 0.822557732462883,1.1876192688941956 l1.4800740778446198,0.769999623298645 4.881725311279297,0.47350339591503143 l1.3101916015148163,-0.43584778904914856 1.092093139886856,-1.0437938570976257 l0.8686854690313339,-2.2722770273685455 -0.10121027939021587,-2.6566648483276367 l-1.9033335149288177,-1.6346608102321625 -1.9379283487796783,-0.6945856660604477 m-32.90047883987427,-18.311972618103027 l-0.21299030631780624,4.817336797714233 0.04105924163013697,1.8353506922721863 l0.4951983690261841,0.38563668727874756 7.099304795265198,-0.30779169872403145 l0.36200903356075287,-3.256106674671173 -0.8286865800619125,-3.814975917339325 l-6.175504922866821,0.29171187430620193 -1.7072106897830963,0.5382152646780014 m16.793404817581177,-0.05566798150539398 l-0.2518545091152191,4.832026958465576 7.038000226020813,0.24502133950591087 l0.15683753415942192,-2.8682494163513184 -0.7883487641811371,-2.714878022670746 l-5.405859351158142,0.09236210957169533 -1.8951146304607391,0.43113742023706436 m14.7005295753479,-0.27129674330353737 l0.27202511206269264,4.027482569217682 0.6391621381044388,1.9915558397769928 l7.071964740753174,-0.777994766831398 -0.15734465792775154,-3.4342747926712036 l-5.578739047050476,-1.525023877620697 " fill="none" stroke="black" stroke-width="1" /></svg>