<?xml version="1.0" encoding="utf-8" ?>
<svg baseProfile="full" height="75.10794688016176" version="1.1" width="81.06197852641344" xmlns="http://www.w3.org/2000/svg" xmlns:ev="http://www.w3.org/2001/xml-events" xmlns:xlink="http://www.w3.org/1999/xlink"><defs /><rect fill="white" height="75.10794688016176" width="81.06197852641344" x="0" y="0" /><path d="M29.91721261292696,48.43746074016963 m-2.9808348417282104,-2.4136313796043396 l-1.1433564126491547,-1.520766019821167 -0.6304634362459183,-1.876937448978424 l-0.1625579223036766,-2.376975864171982 0.45025210827589035,-2.5003981590270996 l1.1012248694896698,-2.4579542875289917 1.5469032526016235,-2.133536636829376 l1.8954834342002869,-1.7125169932842255 3.4723421931266785,-1.91878542304039 l3.0050644278526306,-0.9956107288599014 4.511878788471222,-0.6176742166280746 l4.162608981132507,0.00027302179660182446 3.997706174850464,1.078844964504242 l2.1325990557670593,1.080058217048645 2.452802360057831,2.140795737504959 l1.3564449548721313,2.103738486766815 0.9766679257154465,3.046419322490692 l-0.00019973231246694922,2.5649505853652954 -0.49754422158002853,1.8948523700237274 l-1.0157183557748795,1.8347246944904327 -1.4910785853862762,1.6938553750514984 l-1.8860659003257751,1.383591741323471 -3.8169538974761963,1.734154224395752 l-5.017393231391907,1.240789219737053 -5.1187533140182495,0.398225337266922 l-3.7368524074554443,-0.4574557766318321 -2.619009017944336,-1.1707211285829544 l-2.1369458734989166,-1.8936951458454132 m8.383219242095947,-14.068272113800049 l0.09278289042413235,-1.6134840250015259 1.3146375119686127,-5.904318690299988 m0.760086327791214,7.985613942146301 l5.00923216342926,-0.7103317230939865 3.5554230213165283,-0.7912509143352509 m-9.495001435279846,4.994624555110931 l0.5608895048499107,3.6836376786231995 0.8747687935829163,3.2292205095291138 m-3.0814579129219055,-6.126324534416199 l8.60497236251831,0.01609939383342862 " fill="none" stroke="black" stroke-width="1" /></svg>