<?xml version="1.0" encoding="utf-8" ?>
<svg baseProfile="full" height="1255.0" version="1.1" width="1635.0" xmlns="http://www.w3.org/2000/svg" xmlns:ev="http://www.w3.org/2001/xml-events" xmlns:xlink="http://www.w3.org/1999/xlink"><defs /><rect fill="white" height="1255.0" width="1635.0" x="0" y="0" /><path d="M265.0,1150.0 m-150.0,-115.0 l-50.0,-80.0 -35.0,-100.0 l-5.0,-130.0 20.0,-140.0 l60.0,-235.0 35.0,-85.0 l85.0,-100.0 85.0,-60.0 l210.0,-65.0 125.0,-15.0 l230.0,0.0 285.0,45.0 l105.0,35.0 125.0,75.0 l110.0,115.0 40.0,85.0 l25.0,230.0 -15.0,225.0 l-25.0,95.0 -100.0,135.0 l-130.0,55.0 -100.0,25.0 l-505.0,70.0 -265.0,15.0 l-160.0,-10.0 -75.0,-20.0 l-80.0,-35.0 -60.0,-50.0 m675.0,-515.0 l20.0,40.0 m25.0,-45.0 l245.0,-190.0 320.0,-280.0 m-585.0,535.0 l50.0,20.0 110.0,0.0 l700.0,-75.0 m-745.0,-440.0 l35.0,45.0 " fill="none" stroke="black" stroke-width="1" /></svg>