<?xml version="1.0" encoding="utf-8" ?>
<svg baseProfile="full" height="1440.0" version="1.1" width="1875.0" xmlns="http://www.w3.org/2000/svg" xmlns:ev="http://www.w3.org/2001/xml-events" xmlns:xlink="http://www.w3.org/1999/xlink"><defs /><rect fill="white" height="1440.0" width="1875.0" x="0" y="0" /><path d="M820.0,475.0 m-35.0,10.0 l-125.0,330.0 -50.0,245.0 l-15.0,335.0 200.0,20.0 l270.0,-5.0 140.0,-40.0 l45.0,-40.0 10.0,-90.0 l-15.0,-255.0 -70.0,-395.0 l-40.0,-70.0 -105.0,-100.0 l-105.0,-15.0 -80.0,35.0 m45.0,-35.0 l-20.0,-135.0 30.0,-65.0 l45.0,-45.0 30.0,-10.0 l60.0,45.0 20.0,60.0 l-10.0,85.0 -55.0,40.0 l-40.0,-10.0 m-70.0,-145.0 l-75.0,-90.0 15.0,-25.0 l40.0,-35.0 145.0,-50.0 l70.0,5.0 65.0,40.0 l30.0,50.0 -35.0,70.0 l-55.0,30.0 m65.0,295.0 l45.0,-40.0 65.0,-20.0 l55.0,5.0 95.0,50.0 l60.0,80.0 80.0,250.0 l100.0,175.0 105.0,85.0 l100.0,45.0 -85.0,40.0 l-75.0,5.0 -40.0,-5.0 l-30.0,-70.0 -85.0,30.0 l-40.0,-5.0 -20.0,-30.0 l-30.0,-5.0 -50.0,20.0 l-55.0,0.0 -30.0,-30.0 l-5.0,-40.0 -60.0,-35.0 m-490.0,-535.0 l-65.0,-70.0 -115.0,5.0 l-85.0,45.0 -55.0,85.0 l-165.0,425.0 -170.0,185.0 l-75.0,20.0 5.0,25.0 l25.0,10.0 85.0,-5.0 l115.0,-70.0 55.0,10.0 l35.0,-15.0 70.0,-80.0 l15.0,30.0 30.0,0.0 l80.0,-45.0 40.0,15.0 l45.0,-10.0 m120.0,-345.0 l110.0,-20.0 m-165.0,105.0 l80.0,10.0 65.0,-30.0 m40.0,-75.0 l25.0,-145.0 25.0,-5.0 l0.0,85.0 -25.0,140.0 l-25.0,15.0 -5.0,-10.0 m75.0,-100.0 l-15.0,-90.0 15.0,-25.0 l25.0,-5.0 15.0,55.0 l-15.0,160.0 -25.0,-5.0 " fill="none" stroke="black" stroke-width="1" /></svg>