<?xml version="1.0" encoding="utf-8" ?>
<svg baseProfile="full" height="72.1812205389142" version="1.1" width="81.3243655860424" xmlns="http://www.w3.org/2000/svg" xmlns:ev="http://www.w3.org/2001/xml-events" xmlns:xlink="http://www.w3.org/1999/xlink"><defs /><rect fill="white" height="72.1812205389142" width="81.3243655860424" x="0" y="0" /><path d="M41.26864594465587,26.344030536711216 m-0.7550785690546036,0.22609606385231018 l-1.9806736707687378,3.301425576210022 -1.393725723028183,8.902767896652222 l1.1733097583055496,4.101825654506683 1.9004863500595093,2.3811806738376617 l4.959792494773865,1.9238941371440887 2.536817491054535,-0.3843798115849495 l1.9157852232456207,-1.2983803451061249 1.3950790464878082,-2.0169681310653687 l0.9015855193138123,-2.81777560710907 0.31733427196741104,-3.234422504901886 l-0.14534163288772106,-3.231908679008484 -0.7688090205192566,-2.735171914100647 l-1.33138969540596,-2.496766299009323 -1.8019457161426544,-1.9901318848133087 l-2.0548269152641296,-1.315453052520752 -2.3902931809425354,-0.6598623096942902 l-2.593914270401001,0.004564494010992348 -1.3143621385097504,0.47200679779052734 l-0.8897068351507187,0.8225857466459274 m2.571331560611725,1.2409859895706177 l0.031208733562380075,1.039436161518097 -0.5674643814563751,2.3484040796756744 l1.6639785468578339,0.7761694490909576 2.6497426629066467,0.024874955415725708 l0.1274972129613161,-0.914480909705162 -0.6486210227012634,-1.5435363352298737 l-0.7528488337993622,-0.7585044950246811 -0.9830963611602783,-0.34012317657470703 l-1.0281558334827423,0.0526144914329052 m-0.8359313011169434,3.4542420506477356 l-0.22105176001787186,1.3259407877922058 0.5328787118196487,0.33697742968797684 l0.2975364588201046,-0.8988134562969208 -0.6231305375695229,-0.29130972921848297 l-0.7681677490472794,0.3081832081079483 m2.135980576276779,0.34699950367212296 l-0.21719016134738922,1.078377142548561 0.26697220280766487,0.33220909535884857 l0.2630518935620785,-0.9688954800367355 -0.6002381443977356,-0.0831291638314724 m0.46989738941192627,1.3692925870418549 l0.007334047113545239,1.1878793686628342 -0.16852585598826408,0.360659621655941 l-0.5058241635560989,-0.03223222913220525 -0.5418127030134201,-0.7768665999174118 m0.35042833536863327,0.5572188273072243 l0.19266067072749138,1.5784217417240143 0.38398727774620056,0.3601771220564842 l0.5877851694822311,-0.062061031349003315 0.4176415503025055,-0.7721379399299622 m-0.5244241282343864,-4.23487514257431 l-0.011026966385543346,0.5689701810479164 0.5510275810956955,-0.012231452856212854 l-0.28654979541897774,-0.287795290350914 -0.4492521286010742,0.4152601584792137 m0.9204269200563431,0.025785574689507484 l0.00955689640250057,0.6331406533718109 0.5497465655207634,-0.2994050830602646 l-0.2879241481423378,-0.11043443344533443 m-1.4986470341682434,0.913538858294487 l0.005619245930574834,0.9371718019247055 -0.28833113610744476,0.4191890358924866 l-0.7215893268585205,-0.02303095068782568 -0.4576731473207474,-0.65413698554039 m0.5623321607708931,0.08843780495226383 l0.21190134808421135,1.5272580087184906 0.46690497547388077,0.3132960945367813 l0.6543097645044327,-0.10016149841248989 0.47717809677124023,-0.7879125326871872 m0.10988530702888966,-2.765081524848938 l3.7670329213142395,-1.4385353028774261 3.593021333217621,-1.7560605704784393 l5.534217357635498,-2.8399354219436646 m-11.747550964355469,6.588887572288513 l4.182135760784149,-0.42235296219587326 5.338187217712402,0.3444754332304001 l1.7531058192253113,0.3448256850242615 m-10.214582681655884,1.3606467843055725 l2.544865906238556,0.646156370639801 5.768004059791565,3.4967905282974243 l1.360965371131897,1.0478252172470093 m-16.53815746307373,-7.648336887359619 l-9.328770637512207,-1.1750487238168716 -2.9088610410690308,-0.33390991389751434 l-1.533706933259964,0.05008555483072996 m11.75057053565979,2.591036856174469 l-2.3263458907604218,-0.0649511395022273 -5.1166075468063354,1.3541428744792938 l-2.63494074344635,1.355924904346466 -1.1036818474531174,1.0430200397968292 m11.763633489608765,-1.9013696908950806 l-5.502616763114929,3.89102965593338 -1.542847752571106,1.6301235556602478 l-0.7313774526119232,1.5082961320877075 m12.049893140792847,-12.599642276763916 l-0.3902539610862732,0.43112121522426605 0.14962823130190372,0.7143379002809525 l0.46998851001262665,-0.3435845673084259 -0.3534184768795967,-0.33302992582321167 " fill="none" stroke="black" stroke-width="1" /></svg>