<?xml version="1.0" encoding="utf-8" ?>
<svg baseProfile="full" height="1330.0" version="1.1" width="925.0" xmlns="http://www.w3.org/2000/svg" xmlns:ev="http://www.w3.org/2001/xml-events" xmlns:xlink="http://www.w3.org/1999/xlink"><defs /><rect fill="white" height="1330.0" width="925.0" x="0" y="0" /><path d="M180.0,500.0 m-100.0,95.0 l-55.0,140.0 0.0,145.0 l20.0,95.0 50.0,105.0 l70.0,80.0 80.0,60.0 l265.0,85.0 190.0,0.0 l140.0,-30.0 30.0,-20.0 l30.0,-105.0 -5.0,-410.0 l-175.0,-145.0 -275.0,-165.0 l-165.0,-30.0 -135.0,0.0 l-65.0,30.0 -10.0,25.0 l5.0,25.0 40.0,20.0 m125.0,-65.0 l30.0,80.0 5.0,130.0 l50.0,30.0 180.0,15.0 l-45.0,-60.0 -25.0,-140.0 m-50.0,450.0 l-10.0,85.0 15.0,30.0 l170.0,5.0 155.0,-45.0 l50.0,-35.0 5.0,-55.0 l-45.0,-55.0 -150.0,-50.0 l-100.0,-10.0 -55.0,140.0 l0.0,25.0 35.0,10.0 m-5.0,-930.0 l-25.0,115.0 m-20.0,-135.0 l70.0,60.0 45.0,120.0 l115.0,-190.0 " fill="none" stroke="black" stroke-width="1" /></svg>