<?xml version="1.0" encoding="utf-8" ?>
<svg baseProfile="full" height="67.24019089633657" version="1.1" width="68.23578514158726" xmlns="http://www.w3.org/2000/svg" xmlns:ev="http://www.w3.org/2001/xml-events" xmlns:xlink="http://www.w3.org/1999/xlink"><defs /><rect fill="white" height="67.24019089633657" width="68.23578514158726" x="0" y="0" /><path d="M28.00304737607803,25.510569466277957 m-1.9193795323371887,1.9690807163715363 l-1.083306297659874,3.194047510623932 -0.00036154608096694574,2.867147922515869 l0.832575261592865,2.4751506745815277 1.2101826071739197,1.9620931148529053 l1.5772534906864166,1.5687617659568787 3.576757311820984,2.014515846967697 l3.389047086238861,0.6785237044095993 3.648947775363922,0.0003001737786689773 l1.7876015603542328,-0.8254379779100418 1.540369987487793,-1.9324737787246704 l0.6730500608682632,-3.327113687992096 -3.323316276073456,-7.018962502479553 l-2.5206518173217773,-2.295599579811096 -2.7475526928901672,-1.3012230396270752 l-2.868378758430481,-0.5254096537828445 -2.614627480506897,0.00039215286960825324 l-1.2794005870819092,0.5445980280637741 -0.6322643160820007,0.8292575925588608 l-6.682199909846531e-05,0.5782734602689743 m3.3391836285591125,0.8069409430027008 l0.42969759553670883,0.0002855218917829916 1.2559445202350616,0.31110771000385284 l2.215949594974518,1.2194432318210602 0.48410043120384216,1.2781670689582825 l-0.3501628339290619,2.3978859186172485 -0.8122752606868744,1.0434214770793915 l-0.4996318742632866,0.0003623712109401822 -1.2919080257415771,-1.3019847869873047 l-1.7390653491020203,-2.2463709115982056 m-0.44090308248996735,-4.398384690284729 l0.32235562801361084,-0.3763435408473015 1.5239407122135162,-0.7010222226381302 l0.7750921696424484,0.2747693099081516 1.2459908425807953,2.684619724750519 m-1.855282336473465,0.33459410071372986 l2.145925909280777,0.10842090472579002 1.1939645558595657,0.2811011113226414 l0.9886385500431061,0.9507276117801666 0.41867855936288834,2.1571193635463715 l-0.6495735794305801,0.9778650104999542 -1.3864131271839142,0.5905760452151299 m-3.6608365178108215,-2.656964063644409 l0.3894033655524254,-0.6727012246847153 2.6297062635421753,-3.510156571865082 m-1.50259330868721,4.578842520713806 l4.484611749649048,1.4026883244514465 " fill="none" stroke="black" stroke-width="1" /></svg>