<?xml version="1.0" encoding="utf-8" ?>
<svg baseProfile="full" height="1405.0" version="1.1" width="6010.0" xmlns="http://www.w3.org/2000/svg" xmlns:ev="http://www.w3.org/2001/xml-events" xmlns:xlink="http://www.w3.org/1999/xlink"><defs /><rect fill="white" height="1405.0" width="6010.0" x="0" y="0" /><path d="M480.0,870.0 m1360.0,-235.0 l970.0,-200.0 1010.0,-180.0 l300.0,-70.0 790.0,-105.0 l705.0,-55.0 345.0,10.0 l25.0,10.0 -5.0,25.0 l-205.0,160.0 -360.0,145.0 l-535.0,135.0 -440.0,100.0 l-350.0,60.0 -265.0,70.0 l-330.0,55.0 -1275.0,320.0 l-660.0,135.0 -730.0,95.0 l-445.0,35.0 -180.0,-5.0 l-120.0,-65.0 -60.0,-80.0 l15.0,-110.0 160.0,-185.0 l220.0,-100.0 150.0,-25.0 m1685.0,-405.0 l-10.0,380.0 20.0,350.0 l20.0,105.0 80.0,10.0 l70.0,-15.0 405.0,-160.0 l490.0,-145.0 50.0,-20.0 l15.0,-30.0 45.0,-435.0 l-50.0,-175.0 -40.0,-35.0 l-135.0,0.0 -460.0,85.0 l-360.0,115.0 -175.0,75.0 l-30.0,30.0 m75.0,330.0 l130.0,-50.0 230.0,-40.0 l-150.0,25.0 -205.0,85.0 " fill="none" stroke="black" stroke-width="1" /></svg>