<?xml version="1.0" encoding="utf-8" ?>
<svg baseProfile="full" height="96.88832336105406" version="1.1" width="183.24918400729075" xmlns="http://www.w3.org/2000/svg" xmlns:ev="http://www.w3.org/2001/xml-events" xmlns:xlink="http://www.w3.org/1999/xlink"><defs /><rect fill="white" height="96.88832336105406" width="183.24918400729075" x="0" y="0" /><path d="M45.33382345223799,35.88171597570181 m27.405071258544922,-5.230265855789185 l22.32128143310547,-2.4126307666301727 20.78725814819336,-1.4283864200115204 l21.384704113006592,-1.4437897503376007 10.075702667236328,-0.36664318293333054 l3.4745919704437256,0.09985428303480148 2.5627046823501587,0.5176341906189919 l2.2315341234207153,1.2073194235563278 1.135503128170967,1.1309011280536652 l1.0494989156723022,2.093379646539688 0.4875101149082184,2.44649276137352 l-0.001100993249565363,2.2396320104599 -0.6000989302992821,2.1102164685726166 l-1.3971468806266785,2.2189390659332275 -2.295468896627426,2.131759822368622 l-7.667437791824341,3.7939679622650146 -16.829798221588135,4.6748363971710205 l-20.337352752685547,3.549293875694275 -23.124947547912598,2.417377680540085 l-21.766083240509033,1.3205912709236145 -17.7681565284729,0.1315456535667181 l-12.72628903388977,-1.6866976022720337 -6.474430561065674,-2.1260131895542145 l-1.4629940688610077,-0.9263710677623749 -0.7730048149824142,-1.2375883758068085 l-0.024873744696378708,-1.6922736167907715 0.806531086564064,-1.7617923021316528 l3.23208749294281,-3.4809404611587524 6.688680648803711,-4.231456220149994 l8.531101942062378,-3.053314685821533 14.230427742004395,-3.2431671023368835 l9.129206538200378,-1.257338672876358 m9.122763872146606,7.667408585548401 l-0.013756782282143831,3.0898794531822205 -0.2930537238717079,11.381528377532959 l-0.03430686658248305,12.598580121994019 0.4952551797032356,4.462687373161316 l0.5954133719205856,0.30145110562443733 1.7306406795978546,-0.6077417731285095 l5.626095533370972,-0.6764429807662964 7.040575742721558,-0.3090105764567852 l6.106774210929871,-0.20628072321414948 5.698004961013794,-0.3219040483236313 l5.359532833099365,-0.24046219885349274 0.3409596160054207,-0.5635912343859673 l-0.7485783845186234,-17.530109882354736 -0.5286364257335663,-8.519127368927002 l-0.5404041334986687,-0.5846268683671951 -17.364678382873535,-0.21413955837488174 l-9.52366590499878,0.6733281165361404 -7.314047813415527,0.7347077131271362 " fill="none" stroke="black" stroke-width="1" /></svg>