<?xml version="1.0" encoding="utf-8" ?>
<svg baseProfile="full" height="2625.0" version="1.1" width="2755.0" xmlns="http://www.w3.org/2000/svg" xmlns:ev="http://www.w3.org/2001/xml-events" xmlns:xlink="http://www.w3.org/1999/xlink"><defs /><rect fill="white" height="2625.0" width="2755.0" x="0" y="0" /><path d="M625.0,1510.0 m-100.0,-40.0 l-40.0,-50.0 -40.0,-115.0 l-30.0,-180.0 -20.0,-920.0 l15.0,-40.0 65.0,-15.0 l75.0,75.0 165.0,260.0 l195.0,340.0 290.0,575.0 l80.0,125.0 m5.0,-130.0 l20.0,-55.0 985.0,-955.0 l195.0,-175.0 215.0,-175.0 l30.0,-10.0 -5.0,55.0 l-55.0,130.0 -80.0,145.0 l-630.0,970.0 -165.0,300.0 l-70.0,190.0 m-190.0,-405.0 l-45.0,-55.0 -130.0,-35.0 l-185.0,-15.0 -225.0,10.0 l-250.0,70.0 -240.0,110.0 l-195.0,135.0 -135.0,140.0 l-80.0,140.0 -25.0,135.0 l15.0,145.0 110.0,145.0 l195.0,115.0 275.0,90.0 l345.0,60.0 345.0,0.0 l300.0,-80.0 225.0,-155.0 l150.0,-215.0 40.0,-255.0 l-50.0,-240.0 -170.0,-190.0 l-245.0,-125.0 -280.0,-60.0 l-285.0,0.0 -245.0,65.0 m-380.0,330.0 l-25.0,-15.0 -15.0,40.0 l25.0,140.0 30.0,75.0 l85.0,125.0 60.0,50.0 l185.0,100.0 125.0,35.0 l315.0,25.0 170.0,0.0 l155.0,-40.0 265.0,-115.0 l115.0,-75.0 155.0,-145.0 l40.0,-65.0 20.0,-85.0 m-1150.0,0.0 l5.0,-15.0 m470.0,55.0 l0.0,0.0 m-135.0,20.0 l55.0,50.0 " fill="none" stroke="black" stroke-width="1" /></svg>