<?xml version="1.0" encoding="utf-8" ?>
<svg baseProfile="full" height="85.64533576834947" version="1.1" width="97.00199633836746" xmlns="http://www.w3.org/2000/svg" xmlns:ev="http://www.w3.org/2001/xml-events" xmlns:xlink="http://www.w3.org/1999/xlink"><defs /><rect fill="white" height="85.64533576834947" width="97.00199633836746" x="0" y="0" /><path d="M29.825486661866307,57.83105902839452 m-1.9815686345100403,-0.8565103262662888 l-1.412355750799179,-2.0672032237052917 -0.8605293929576874,-2.026038318872452 l-0.45190200209617615,-2.2638748586177826 -0.11913088150322437,-3.909386396408081 l0.7195717096328735,-3.963710069656372 1.4477171003818512,-3.671136796474457 l1.889619380235672,-3.3212095499038696 2.2106313705444336,-2.940583825111389 l2.414425164461136,-2.441854774951935 2.8676465153694153,-2.0972560346126556 l3.2162871956825256,-1.6101716458797455 3.7656983733177185,-1.086280271410942 l4.505568444728851,-0.5146029591560364 4.970892071723938,0.23326970636844635 l5.1133716106414795,1.2788820266723633 3.488779366016388,1.4720992743968964 l4.318323135375977,2.837928831577301 2.448015809059143,2.4967534840106964 l1.9319219887256622,2.9988983273506165 1.2274809181690216,3.363577425479889 l0.46604618430137634,3.374301493167877 -0.20725175738334656,3.1236091256141663 l-1.0808920115232468,3.056780993938446 -1.8047016859054565,2.7974191308021545 l-2.494831085205078,2.4802547693252563 -3.0689576268196106,2.038661688566208 l-5.103253722190857,2.1806761622428894 -5.83771288394928,1.4106738567352295 l-5.819283723831177,0.4403094947338104 -5.5808669328689575,-0.30372560024261475 l-3.6750340461730957,-0.9497988969087601 -4.224163889884949,-2.0881155133247375 l-2.2062742710113525,-1.9450660049915314 -1.5268674492835999,-2.4520057439804077 l-0.5242473259568214,-1.9001203775405884 -0.04466670099645853,-1.8592199683189392 l0.6934617459774017,-2.3760494589805603 1.5175853669643402,-2.2056831419467926 l2.9169675707817078,-2.671307325363159 m14.453799724578857,-2.340245097875595 l0.11828663758933544,-0.3028932213783264 0.19253768026828766,0.1591072417795658 l0.03596772672608495,0.3423690050840378 -0.009471244411543012,-0.5267339572310448 l-0.06830174010246992,-0.6873631477355957 0.14645472168922424,0.32659512013196945 l0.11407887563109398,0.45574501156806946 -0.034364776220172644,-0.3660013899207115 l0.029242897871881723,-0.5242890864610672 0.20339833572506905,0.11076708324253559 l0.19452784210443497,0.32782137393951416 0.017348919063806534,-0.26962459087371826 l-0.06542908027768135,-0.34058403223752975 0.12385770678520203,-0.031067063100636005 l0.26944562792778015,0.23314021527767181 0.004656283417716622,0.13387341052293777 l-0.13261099345982075,-0.2754708006978035 0.1903722807765007,-0.3832431137561798 l0.3510376811027527,0.23432018235325813 0.00104437094705645,0.3423842042684555 l-0.2177693322300911,-0.23441772907972336 0.14593671075999737,-0.5399118363857269 l0.42404916137456894,0.10702770203351974 0.01694298698566854,0.625397264957428 l-0.19395310431718826,-0.25251131504774094 0.17166990786790848,-0.630805641412735 l0.3560864180326462,0.11677811853587627 -0.16159776598215103,0.5222183093428612 l-0.15209847129881382,-0.46205274760723114 0.2535601519048214,-0.5580725148320198 l0.32981257885694504,0.2272987738251686 0.04158400930464268,0.3951569274067879 m0.0638468936085701,-0.5061282217502594 l0.0218661455437541,-7.971522212028503 -0.3732040897011757,-4.351305961608887 " fill="none" stroke="black" stroke-width="1" /></svg>