<?xml version="1.0" encoding="utf-8" ?>
<svg baseProfile="full" height="85.0091214850545" version="1.1" width="88.67858741432428" xmlns="http://www.w3.org/2000/svg" xmlns:ev="http://www.w3.org/2001/xml-events" xmlns:xlink="http://www.w3.org/1999/xlink"><defs /><rect fill="white" height="85.0091214850545" width="88.67858741432428" x="0" y="0" /><path d="M32.88804171606898,28.49232394248247 m-3.252117335796356,1.8916164338588715 l-1.7548644542694092,1.6769519448280334 -1.6374021768569946,2.800856828689575 l-0.9939341247081757,3.528297245502472 -0.2497236244380474,3.7878912687301636 l0.6704795360565186,4.714828729629517 2.022913843393326,4.410280883312225 l3.0158916115760803,3.6218473315238953 3.9575254917144775,2.692207098007202 l4.605804085731506,1.685042530298233 5.129221081733704,0.7069772481918335 l5.113852024078369,-0.1720024272799492 4.222996532917023,-1.2079980969429016 l2.9234567284584045,-1.541726291179657 2.4466612935066223,-2.007080316543579 l1.970587968826294,-2.4756060540676117 1.441948562860489,-2.93559193611145 l0.8557791262865067,-3.274548351764679 0.3014695271849632,-3.418833315372467 l-0.2547227218747139,-3.375808000564575 -0.9329374879598618,-2.982555329799652 l-1.6404534876346588,-2.9938268661499023 -2.130863517522812,-2.558217942714691 l-3.7366610765457153,-2.743295133113861 -4.605755805969238,-2.0217955112457275 l-5.288950204849243,-1.0777246952056885 -4.182077646255493,-0.22251121699810028 l-3.684174418449402,0.3754296898841858 -3.4030959010124207,1.0781919956207275 l-2.6256856322288513,1.5199603140354156 m5.063489079475403,1.6888830065727234 l-0.006385594606399536,2.860807478427887 -1.2615086138248444,5.803300142288208 m9.081607460975647,-5.873839855194092 l1.2752139568328857,-0.26467999443411827 0.9399356693029404,0.6767550110816956 l0.6551942229270935,1.5640199184417725 -0.13850155286490917,2.068358361721039 l-1.2518660724163055,1.742585301399231 1.7554837465286255,0.0665503041818738 l2.420273572206497,-0.4066501185297966 1.7888040840625763,-0.45272573828697205 l1.2164518237113953,-0.4196121543645859 m-1.1526338756084442,2.76081383228302 l2.0545853674411774,-0.4322325810790062 2.230774760246277,0.3116065263748169 l0.6697124987840652,0.54702527821064 0.11045010760426521,0.8111346513032913 l-0.9584539383649826,1.2568974494934082 0.8513692766427994,1.0326451808214188 l0.3326341509819031,1.1081934720277786 -0.27998633682727814,1.0509295016527176 l-1.3625384867191315,1.052313894033432 -2.1331702172756195,0.6120262667536736 m-5.727640986442566,1.2647619843482971 l-0.4370741918683052,1.8690891563892365 2.233804166316986,0.5721283331513405 l3.8669177889823914,-0.19301416352391243 1.0493439435958862,-0.45181095600128174 l0.5440788343548775,-0.9184001386165619 -0.17780544236302376,-1.3733281195163727 l-0.9017854183912277,-0.5973533168435097 -1.088821291923523,-0.035026122350245714 l-0.7874003052711487,0.4621146246790886 -0.763198509812355,1.6093814373016357 l0.03774910932406783,1.8767735362052917 " fill="none" stroke="black" stroke-width="1" /></svg>