<?xml version="1.0" encoding="utf-8" ?>
<svg baseProfile="full" height="1990.0" version="1.1" width="2800.0" xmlns="http://www.w3.org/2000/svg" xmlns:ev="http://www.w3.org/2001/xml-events" xmlns:xlink="http://www.w3.org/1999/xlink"><defs /><rect fill="white" height="1990.0" width="2800.0" x="0" y="0" /><path d="M965.0,380.0 m-160.0,95.0 l-80.0,75.0 -120.0,160.0 l-15.0,100.0 0.0,170.0 l60.0,290.0 120.0,215.0 l100.0,135.0 230.0,185.0 l215.0,95.0 335.0,65.0 l150.0,0.0 240.0,-45.0 l100.0,-55.0 105.0,-90.0 l110.0,-150.0 60.0,-185.0 l35.0,-200.0 5.0,-295.0 l-35.0,-160.0 -80.0,-115.0 l-185.0,-120.0 -355.0,-150.0 l-415.0,-100.0 -280.0,0.0 l-65.0,30.0 -120.0,140.0 m1105.0,20.0 l115.0,-145.0 285.0,-150.0 l275.0,115.0 75.0,10.0 l-245.0,95.0 -140.0,-5.0 l-215.0,35.0 -65.0,25.0 l-25.0,50.0 m-1000.0,-150.0 l-60.0,-45.0 -105.0,-130.0 l-80.0,-60.0 -120.0,-55.0 l-120.0,10.0 -190.0,140.0 l-20.0,50.0 15.0,30.0 l115.0,80.0 190.0,110.0 m-480.0,-400.0 l-55.0,5.0 -70.0,90.0 l0.0,115.0 80.0,50.0 l110.0,5.0 110.0,-45.0 l60.0,-70.0 0.0,-45.0 l-50.0,-90.0 -185.0,-80.0 l-145.0,-10.0 -55.0,35.0 l-5.0,95.0 40.0,45.0 l85.0,30.0 135.0,10.0 " fill="none" stroke="black" stroke-width="1" /></svg>