<?xml version="1.0" encoding="utf-8" ?>
<svg baseProfile="full" height="94.34310048818588" version="1.1" width="87.43719508871436" xmlns="http://www.w3.org/2000/svg" xmlns:ev="http://www.w3.org/2001/xml-events" xmlns:xlink="http://www.w3.org/1999/xlink"><defs /><rect fill="white" height="94.34310048818588" width="87.43719508871436" x="0" y="0" /><path d="M42.65404097735882,42.86569805815816 m-1.8648174405097961,-0.706232488155365 l-3.482203781604767,-0.3009597398340702 -3.4664595127105713,0.5377539247274399 l-3.1854262948036194,1.5822483599185944 -2.689850926399231,2.5006520748138428 l-1.8063171207904816,3.0407458543777466 -1.1589659005403519,4.7696298360824585 l0.24068525061011314,4.724798500537872 1.367885023355484,2.8019511699676514 l3.3767592906951904,3.4367594122886658 4.682438671588898,2.5052008032798767 l7.974124550819397,1.5848547220230103 7.580915093421936,-0.4204108193516731 l4.58383172750473,-1.5061737596988678 2.762361168861389,-1.6276191174983978 l2.224463075399399,-2.117699980735779 1.5592111647129059,-2.5768807530403137 l0.8963162451982498,-3.136131167411804 0.188203826546669,-3.441172242164612 l-0.526113323867321,-3.0921754240989685 -1.3019566237926483,-3.0223914980888367 l-2.5692597031593323,-3.4736785292625427 -2.354717254638672,-1.9620785117149353 l-2.773215174674988,-1.4734575152397156 -2.9496443271636963,-0.824829488992691 l-3.2173770666122437,-0.2678641118109226 -2.980238199234009,0.2938268147408962 l-2.4535322189331055,0.9519313275814056 -1.181662455201149,0.8847391605377197 m1.569286733865738,1.0026534646749496 l-0.00714431400410831,-0.0994659960269928 0.005464978748932481,-1.9214431941509247 l-0.4663313552737236,-8.030362129211426 0.18534261733293533,-3.7603041529655457 l0.5703512206673622,-1.7221924662590027 1.1050106585025787,-1.411590576171875 l1.7126922309398651,-1.051587089896202 2.1256396174430847,-0.5367427319288254 l2.017495483160019,0.009693836327642202 1.5288734436035156,0.5798222869634628 l0.9785645455121994,0.7807321846485138 " fill="none" stroke="black" stroke-width="1" /></svg>