<?xml version="1.0" encoding="utf-8" ?>
<svg baseProfile="full" height="1875.0" version="1.1" width="2070.0" xmlns="http://www.w3.org/2000/svg" xmlns:ev="http://www.w3.org/2001/xml-events" xmlns:xlink="http://www.w3.org/1999/xlink"><defs /><rect fill="white" height="1875.0" width="2070.0" x="0" y="0" /><path d="M730.0,465.0 m-95.0,-35.0 l-220.0,5.0 -190.0,100.0 l-120.0,140.0 -55.0,115.0 l-25.0,200.0 0.0,105.0 l40.0,195.0 5.0,100.0 l30.0,50.0 190.0,175.0 l400.0,170.0 315.0,55.0 l340.0,10.0 335.0,-80.0 l165.0,-110.0 80.0,-95.0 l70.0,-140.0 45.0,-170.0 l5.0,-245.0 -200.0,-365.0 l-65.0,-60.0 -105.0,-55.0 l-170.0,-60.0 -200.0,-40.0 l-340.0,0.0 -140.0,15.0 l-85.0,15.0 -160.0,65.0 m285.0,-115.0 l10.0,-80.0 35.0,-85.0 l160.0,-190.0 m65.0,-30.0 l0.0,0.0 m-85.0,25.0 l40.0,50.0 5.0,55.0 l-70.0,125.0 -100.0,75.0 m140.0,-245.0 " fill="none" stroke="black" stroke-width="1" /></svg>