<?xml version="1.0" encoding="utf-8" ?>
<svg baseProfile="full" height="108.13044264912605" version="1.1" width="99.74162600934505" xmlns="http://www.w3.org/2000/svg" xmlns:ev="http://www.w3.org/2001/xml-events" xmlns:xlink="http://www.w3.org/1999/xlink"><defs /><rect fill="white" height="108.13044264912605" width="99.74162600934505" x="0" y="0" /><path d="M60.77893456298625,83.08597080409527 m-0.003020035510417074,0.04447184503078461 m-1.9519980251789093,-20.918846130371094 l-2.526196539402008,-1.8155114352703094 -2.7435335516929626,-1.0733774304389954 l-8.914602994918823,-2.2868940234184265 -4.6261292695999146,-0.8062031120061874 l-3.042386770248413,-0.4971667006611824 -2.4221034348011017,-0.5170591548085213 l-2.4007807672023773,-0.7653892785310745 -2.875967025756836,-1.5903080999851227 l-2.420360743999481,-2.37824022769928 -1.5009348094463348,-3.254631459712982 l-0.350920595228672,-3.9577925205230713 0.7800683379173279,-4.020191133022308 l2.0945169031620026,-3.9190611243247986 3.061426281929016,-3.328482508659363 l3.9655524492263794,-2.7830442786216736 4.722324907779694,-2.1701931953430176 l5.150055885314941,-1.3926663994789124 5.701594352722168,-0.655384436249733 l5.90472936630249,0.06289872340857983 5.315727591514587,1.0043556243181229 l4.981822371482849,2.0519056916236877 3.9124396443367004,2.904534339904785 l2.0684638619422913,2.5514760613441467 1.438223272562027,3.1476569175720215 l0.6446807831525803,3.3305364847183228 -0.018020484130829573,3.344985842704773 l-0.819113701581955,3.1641599535942078 -1.5222522616386414,2.9860720038414 l-2.996707260608673,3.7965303659439087 -3.6624157428741455,3.069297969341278 l-2.7362149953842163,1.4664821326732635 -2.5917592644691467,0.7720828056335449 m-9.056472182273865,-22.11573362350464 l-0.0291850371286273,1.8771281838417053 0.0043804835877381265,5.254293084144592 l8.865948915481567,1.1173035204410553 " fill="none" stroke="black" stroke-width="1" /></svg>