<?xml version="1.0" encoding="utf-8" ?>
<svg baseProfile="full" height="2190.0" version="1.1" width="3075.0" xmlns="http://www.w3.org/2000/svg" xmlns:ev="http://www.w3.org/2001/xml-events" xmlns:xlink="http://www.w3.org/1999/xlink"><defs /><rect fill="white" height="2190.0" width="3075.0" x="0" y="0" /><path d="M1730.0,2165.0 m0.0,0.0 m145.0,-1455.0 l-30.0,-15.0 -475.0,0.0 l-455.0,35.0 -200.0,65.0 l-610.0,-770.0 90.0,500.0 l70.0,220.0 100.0,215.0 l-50.0,20.0 -50.0,45.0 l-95.0,135.0 -100.0,240.0 l-45.0,195.0 445.0,-400.0 l165.0,-100.0 50.0,-5.0 l160.0,80.0 200.0,35.0 l525.0,0.0 200.0,-25.0 l420.0,-100.0 435.0,-30.0 l220.0,-50.0 130.0,-85.0 l75.0,-110.0 -65.0,-60.0 l-95.0,-45.0 -230.0,-45.0 l-235.0,0.0 -250.0,35.0 l-195.0,0.0 -110.0,-25.0 l-150.0,5.0 m-460.0,55.0 l0.0,0.0 " fill="none" stroke="black" stroke-width="1" /></svg>