<?xml version="1.0" encoding="utf-8" ?>
<svg baseProfile="full" height="1680.0" version="1.1" width="1645.0" xmlns="http://www.w3.org/2000/svg" xmlns:ev="http://www.w3.org/2001/xml-events" xmlns:xlink="http://www.w3.org/1999/xlink"><defs /><rect fill="white" height="1680.0" width="1645.0" x="0" y="0" /><path d="M1150.0,80.0 m-25.0,-30.0 l-45.0,-15.0 -280.0,-10.0 l-120.0,25.0 -255.0,115.0 l-55.0,40.0 -65.0,80.0 l-105.0,195.0 -60.0,160.0 l-85.0,350.0 -30.0,255.0 l5.0,155.0 50.0,65.0 l75.0,50.0 220.0,90.0 l220.0,50.0 430.0,0.0 l100.0,-30.0 325.0,-280.0 l130.0,-180.0 40.0,-130.0 l-5.0,-305.0 -80.0,-230.0 l-125.0,-225.0 -165.0,-160.0 l-140.0,-45.0 -115.0,0.0 m-275.0,825.0 l50.0,15.0 0.0,-25.0 l-55.0,-20.0 25.0,5.0 m0.0,0.0 l55.0,-125.0 170.0,-245.0 l130.0,-130.0 m-325.0,500.0 l100.0,665.0 m-180.0,-670.0 l-175.0,0.0 -235.0,-60.0 " fill="none" stroke="black" stroke-width="1" /></svg>