<?xml version="1.0" encoding="utf-8" ?>
<svg baseProfile="full" height="84.74087834358215" version="1.1" width="82.87484811618924" xmlns="http://www.w3.org/2000/svg" xmlns:ev="http://www.w3.org/2001/xml-events" xmlns:xlink="http://www.w3.org/1999/xlink"><defs /><rect fill="white" height="84.74087834358215" width="82.87484811618924" x="0" y="0" /><path d="M48.224863598588854,28.869297970086336 m-0.5407163128256798,-0.6396327167749405 l-2.1188905835151672,-0.9656018018722534 -3.376649022102356,-0.5284938961267471 l-3.4675997495651245,0.1699097454547882 -3.2915711402893066,1.1318321526050568 l-3.1656265258789062,2.018222361803055 -2.819005250930786,2.8149494528770447 l-2.169310301542282,3.23334664106369 -1.4963117241859436,3.558453619480133 l-0.7470614463090897,3.762582242488861 -0.0321215414442122,5.029444098472595 l0.8622437715530396,3.097858726978302 1.743883490562439,2.8694355487823486 l2.4264155328273773,2.296314686536789 2.928153872489929,1.657944917678833 l4.642865061759949,1.1911925673484802 3.7901490926742554,0.17382202669978142 l3.376303017139435,-0.49764860421419144 3.409724235534668,-1.225520744919777 l2.929995357990265,-1.7618900537490845 2.513393461704254,-2.2735095024108887 l1.9705985486507416,-2.7601641416549683 1.3581369817256927,-3.1133845448493958 l0.7438287883996964,-3.4243857860565186 0.17915690317749977,-3.4876343607902527 l-0.3632017597556114,-3.2951104640960693 -0.9539110213518143,-3.0611342191696167 l-1.4618682861328125,-2.8289026021957397 -1.7823131382465363,-2.454862892627716 l-1.9738680124282837,-1.928703933954239 -2.1137207746505737,-1.4045536518096924 l-2.3120373487472534,-0.9088785201311111 -2.387067675590515,-0.3145943209528923 m-3.9266598224639893,11.63417935371399 l-0.12291086837649345,2.672816812992096 0.047426167875528336,5.176692605018616 l3.2582399249076843,-0.036128461360931396 6.052634119987488,-0.49949798732995987 l2.579817771911621,-0.25383327156305313 m-13.164552450180054,-6.216339468955994 l0.06938166916370392,-0.4709566757082939 0.0832932535558939,-0.8539175987243652 " fill="none" stroke="black" stroke-width="1" /></svg>