<?xml version="1.0" encoding="utf-8" ?>
<svg baseProfile="full" height="1520.0" version="1.1" width="1580.0" xmlns="http://www.w3.org/2000/svg" xmlns:ev="http://www.w3.org/2001/xml-events" xmlns:xlink="http://www.w3.org/1999/xlink"><defs /><rect fill="white" height="1520.0" width="1580.0" x="0" y="0" /><path d="M310.0,265.0 m-200.0,225.0 l-80.0,150.0 -5.0,65.0 l20.0,200.0 95.0,275.0 l55.0,90.0 175.0,150.0 l110.0,45.0 260.0,30.0 l185.0,-5.0 175.0,-25.0 l265.0,-90.0 55.0,-35.0 l115.0,-150.0 20.0,-150.0 l-20.0,-150.0 -50.0,-135.0 l-100.0,-190.0 -105.0,-135.0 l-110.0,-105.0 -170.0,-120.0 l-215.0,-115.0 -130.0,-55.0 l-100.0,-10.0 -155.0,25.0 l-150.0,65.0 -65.0,90.0 l-45.0,325.0 m625.0,265.0 l40.0,-415.0 0.0,210.0 l-45.0,180.0 50.0,35.0 l220.0,90.0 205.0,60.0 " fill="none" stroke="black" stroke-width="1" /></svg>