<?xml version="1.0" encoding="utf-8" ?>
<svg baseProfile="full" height="75.86499318480492" version="1.1" width="80.8273745700717" xmlns="http://www.w3.org/2000/svg" xmlns:ev="http://www.w3.org/2001/xml-events" xmlns:xlink="http://www.w3.org/1999/xlink"><defs /><rect fill="white" height="75.86499318480492" width="80.8273745700717" x="0" y="0" /><path d="M31.074422746896744,27.484484606357 m-4.127224683761597,4.566810727119446 l-1.6081111133098602,2.9929134249687195 -0.33908694982528687,1.531074345111847 l0.3714480623602867,3.7839654088020325 2.3385360836982727,4.087003469467163 l3.2817289233207703,3.11411052942276 1.7275464534759521,1.073305904865265 l4.150207936763763,1.5890546143054962 3.043193519115448,0.6418823450803757 l4.197424352169037,0.0003878093048115261 2.9920101165771484,-0.5420704558491707 l2.5885477662086487,-0.9942707419395447 3.2547378540039062,-2.1847128868103027 l1.7632728815078735,-2.2511984407901764 1.1187206208705902,-3.5251423716545105 l-0.00024367658625124022,-3.4198471903800964 -1.152416542172432,-3.6764290928840637 l-1.516825407743454,-2.6823025941848755 -1.8638388812541962,-2.111912816762924 l-2.2521458566188812,-1.7154109477996826 -2.596360445022583,-1.2898455560207367 l-3.0378326773643494,-0.8954089134931564 -4.562695324420929,-0.5764411762356758 l-4.186641275882721,0.0002515675987524446 -4.187365174293518,0.949009358882904 l-1.8258070945739746,0.963994711637497 -1.179027035832405,1.2200352549552917 l-0.5241743475198746,1.370299607515335 m12.710391283035278,6.718360185623169 l-0.3399217128753662,-0.6749314069747925 -0.4341171681880951,-4.723382890224457 l0.5635687336325645,0.6917189061641693 1.0434942692518234,3.855990767478943 l4.599314332008362,1.5952692925930023 4.1050684452056885,0.9208729863166809 l2.491272985935211,1.1680402606725693 " fill="none" stroke="black" stroke-width="1" /></svg>