<?xml version="1.0" encoding="utf-8" ?>
<svg baseProfile="full" height="60.518058775924146" version="1.1" width="62.44181150570512" xmlns="http://www.w3.org/2000/svg" xmlns:ev="http://www.w3.org/2001/xml-events" xmlns:xlink="http://www.w3.org/1999/xlink"><defs /><rect fill="white" height="60.518058775924146" width="62.44181150570512" x="0" y="0" /><path d="M30.391557049006224,33.12721975147724 m1.4591677486896515,0.15740599483251572 l2.511066496372223,-0.8232074230909348 2.812228500843048,-3.0554047226905823 l0.267791710793972,-1.6842420399188995 -0.6453148275613785,-1.2311181426048279 l-1.445680409669876,-1.0144969820976257 -2.146158367395401,-0.47615643590688705 l-2.4388577044010162,0.13936469331383705 -2.1666139364242554,1.0843022912740707 l-1.1640219390392303,1.173575520515442 -0.634332001209259,1.3337881863117218 l-0.14116590842604637,1.46711066365242 0.3175273537635803,1.1880891770124435 l0.8475754410028458,0.8279570937156677 1.3268265128135681,0.46656861901283264 l1.6012170910835266,0.009934133850038052 1.5222880244255066,-0.7044313102960587 l1.2819331884384155,-1.4226038753986359 0.2955978363752365,-1.167842373251915 l-0.32650209963321686,-1.177683100104332 -1.1837556958198547,-0.9215524047613144 l-1.7271563410758972,-0.3875969350337982 -2.116774022579193,0.09304169565439224 l-1.7221345007419586,0.8146604150533676 -1.2399300187826157,1.4094293117523193 l-0.5363791808485985,1.829085648059845 0.21649520844221115,2.0480282604694366 l0.668279305100441,1.027134284377098 1.129227727651596,0.8300893008708954 l1.9929565489292145,0.47789502888917923 2.2057047486305237,-0.28326844796538353 l1.7860545217990875,-1.1954452842473984 1.1472755670547485,-1.795797049999237 l0.22937536239624023,-1.9972249865531921 -0.6279487162828445,-1.4344114065170288 l-1.3918115198612213,-1.123191937804222 -1.8617439270019531,-0.45238520950078964 l-2.124776244163513,0.1738317310810089 -1.5205110609531403,0.9926951676607132 l-0.7552756369113922,1.054040789604187 -0.28354449197649956,1.2520644068717957 l0.2589762955904007,1.964321881532669 1.059466227889061,1.4399020373821259 l1.7626021802425385,0.9690577536821365 2.1297000348567963,0.22982371971011162 l1.839299350976944,-0.553145743906498 1.3817152380943298,-1.3633199036121368 l0.6429664045572281,-1.8881656229496002 -0.08320881053805351,-1.8835824728012085 l-0.7722428441047668,-1.2505269050598145 -1.5008406341075897,-0.9316468983888626 l-2.0280835032463074,-0.2873186953365803 -2.046719938516617,0.3300270065665245 l-1.4797993004322052,1.1466318368911743 -0.672747865319252,1.1291448026895523 l-0.17878912389278412,1.9342121481895447 0.5676079168915749,1.7952577769756317 l1.3159002363681793,1.3418136537075043 1.8409456312656403,0.7663203030824661 " fill="none" stroke="black" stroke-width="1" /></svg>