<?xml version="1.0" encoding="utf-8" ?>
<svg baseProfile="full" height="1395.0" version="1.1" width="1185.0" xmlns="http://www.w3.org/2000/svg" xmlns:ev="http://www.w3.org/2001/xml-events" xmlns:xlink="http://www.w3.org/1999/xlink"><defs /><rect fill="white" height="1395.0" width="1185.0" x="0" y="0" /><path d="M840.0,560.0 m75.0,10.0 l130.0,-55.0 75.0,-100.0 l0.0,-115.0 -50.0,-85.0 l-10.0,-160.0 -10.0,-25.0 l-25.0,-5.0 -65.0,120.0 l-25.0,15.0 -105.0,0.0 l-90.0,50.0 -140.0,-80.0 l35.0,135.0 -20.0,170.0 l35.0,100.0 m255.0,55.0 l-10.0,135.0 -115.0,175.0 l-65.0,190.0 5.0,50.0 l50.0,55.0 -5.0,25.0 l-105.0,40.0 -195.0,-25.0 m175.0,-670.0 l-75.0,-55.0 -155.0,-65.0 l-90.0,0.0 -50.0,20.0 l-75.0,150.0 -10.0,145.0 l-150.0,265.0 -10.0,70.0 l25.0,70.0 140.0,130.0 l95.0,45.0 215.0,30.0 l450.0,-35.0 135.0,-50.0 l55.0,-65.0 20.0,-80.0 l-10.0,-40.0 -60.0,-60.0 l-40.0,-5.0 -30.0,10.0 l-95.0,165.0 -85.0,50.0 l-195.0,50.0 -165.0,0.0 l-140.0,-40.0 -50.0,-85.0 l5.0,-80.0 m100.0,-245.0 l25.0,-55.0 35.0,-30.0 l40.0,0.0 80.0,105.0 l10.0,120.0 " fill="none" stroke="black" stroke-width="1" /></svg>