<?xml version="1.0" encoding="utf-8" ?>
<svg baseProfile="full" height="1075.0" version="1.1" width="1040.0" xmlns="http://www.w3.org/2000/svg" xmlns:ev="http://www.w3.org/2001/xml-events" xmlns:xlink="http://www.w3.org/1999/xlink"><defs /><rect fill="white" height="1075.0" width="1040.0" x="0" y="0" /><path d="M570.0,400.0 m-60.0,-30.0 l-90.0,-100.0 -30.0,-5.0 l-135.0,0.0 -130.0,45.0 l-75.0,120.0 -25.0,90.0 l0.0,225.0 20.0,145.0 l65.0,65.0 70.0,45.0 l105.0,5.0 135.0,-70.0 l50.0,75.0 25.0,15.0 l90.0,25.0 80.0,0.0 l30.0,-5.0 95.0,-85.0 l215.0,-330.0 10.0,-185.0 l-40.0,-50.0 -105.0,-55.0 l-100.0,-5.0 -205.0,100.0 l-25.0,-215.0 -20.0,-30.0 l-105.0,-75.0 -40.0,-75.0 l-30.0,-15.0 " fill="none" stroke="black" stroke-width="1" /></svg>