<?xml version="1.0" encoding="utf-8" ?>
<svg baseProfile="full" height="67.12853969540447" version="1.1" width="69.0888336673379" xmlns="http://www.w3.org/2000/svg" xmlns:ev="http://www.w3.org/2001/xml-events" xmlns:xlink="http://www.w3.org/1999/xlink"><defs /><rect fill="white" height="67.12853969540447" width="69.0888336673379" x="0" y="0" /><path d="M35.38242984563112,26.330149485729635 m-1.1583169549703598,-0.630219355225563 l-1.3665169477462769,-0.21233463659882545 -1.5343493223190308,0.03986993804574013 l-1.295015960931778,0.36104708909988403 -1.4125260710716248,0.7664141803979874 l-1.720685213804245,1.6110537946224213 -1.1540855467319489,1.9842761754989624 l-0.5469346418976784,1.7862460017204285 -0.19399918615818024,2.7529802918434143 l0.2181413397192955,1.6521184146404266 0.6281482428312302,1.5002258121967316 l1.526370793581009,1.8788400292396545 2.1024923026561737,1.345033049583435 l2.610178291797638,0.7526016980409622 2.9686230421066284,0.21023772656917572 l2.7001649141311646,-0.32266784459352493 2.3613879084587097,-1.0775286704301834 l1.9273421168327332,-1.7144060134887695 1.386418640613556,-2.285393327474594 l0.6595660746097565,-2.6846402883529663 -0.024328359868377447,-2.9085317254066467 l-0.8105414360761642,-2.1396753191947937 -1.5911750495433807,-1.991383284330368 l-1.994064450263977,-1.2974195182323456 -2.271840423345566,-0.6564053893089294 l-2.207842916250229,-0.05048831459134817 m-0.5325092375278473,6.244465708732605 l-0.2355557680130005,-0.8279720693826675 0.028732854407280684,-1.8593084812164307 l0.024596459697932005,-3.207542598247528 " fill="none" stroke="black" stroke-width="1" /></svg>