<?xml version="1.0" encoding="utf-8" ?>
<svg baseProfile="full" height="920.0" version="1.1" width="1545.0" xmlns="http://www.w3.org/2000/svg" xmlns:ev="http://www.w3.org/2001/xml-events" xmlns:xlink="http://www.w3.org/1999/xlink"><defs /><rect fill="white" height="920.0" width="1545.0" x="0" y="0" /><path d="M130.0,465.0 m135.0,0.0 l450.0,70.0 275.0,0.0 l225.0,-40.0 115.0,-50.0 l50.0,-50.0 15.0,-40.0 l0.0,-95.0 -15.0,-30.0 l-90.0,-75.0 -230.0,-100.0 l-190.0,-30.0 -210.0,0.0 l-200.0,75.0 -225.0,140.0 l-70.0,80.0 -40.0,120.0 l15.0,50.0 60.0,20.0 m-80.0,255.0 l105.0,40.0 200.0,45.0 l285.0,30.0 255.0,0.0 l345.0,-75.0 130.0,-75.0 l65.0,-80.0 10.0,-55.0 l5.0,-280.0 -25.0,-60.0 l-70.0,-40.0 -195.0,-70.0 l-230.0,-15.0 m-870.0,740.0 l-25.0,-30.0 -80.0,-265.0 l0.0,-195.0 40.0,-65.0 l75.0,-55.0 250.0,-85.0 m550.0,400.0 l-145.0,30.0 -65.0,55.0 l-15.0,60.0 5.0,120.0 l30.0,35.0 40.0,15.0 l220.0,5.0 95.0,-45.0 l50.0,-85.0 0.0,-140.0 l-45.0,-70.0 -65.0,-40.0 l-105.0,0.0 -75.0,50.0 l-45.0,65.0 0.0,70.0 l90.0,50.0 165.0,0.0 l30.0,-100.0 -15.0,-70.0 l-40.0,-50.0 -90.0,-50.0 l-55.0,0.0 -40.0,30.0 l-20.0,65.0 0.0,85.0 l20.0,40.0 80.0,55.0 l130.0,15.0 25.0,-20.0 l20.0,-80.0 0.0,-85.0 l-45.0,-70.0 -40.0,-20.0 l-100.0,5.0 -95.0,50.0 " fill="none" stroke="black" stroke-width="1" /></svg>