<?xml version="1.0" encoding="utf-8" ?>
<svg baseProfile="full" height="80.65415028482676" version="1.1" width="81.52428794652224" xmlns="http://www.w3.org/2000/svg" xmlns:ev="http://www.w3.org/2001/xml-events" xmlns:xlink="http://www.w3.org/1999/xlink"><defs /><rect fill="white" height="80.65415028482676" width="81.52428794652224" x="0" y="0" /><path d="M28.33521849475801,38.89482891652733 m2.71119087934494,0.027714127209037542 l6.187422871589661,-0.7795526832342148 11.063165664672852,-0.7408100366592407 l3.940032720565796,-0.2606830932199955 1.667073518037796,-0.026239531580358744 l0.9336019307374954,0.11656748130917549 1.037863865494728,0.5847448483109474 l0.5435526371002197,0.9080275893211365 0.10516536422073841,1.271558403968811 l-0.4181644693017006,1.1020436882972717 -0.9690997004508972,1.0479849576950073 l-2.3111696541309357,1.2937907874584198 -4.610526859760284,1.257883757352829 l-5.464758276939392,0.5675887688994408 -12.16855764389038,-0.5119476467370987 l-3.0069157481193542,-0.7216387987136841 -1.5353332459926605,-0.7050046324729919 l-0.8188693225383759,-0.8610840886831284 -0.2208930253982544,-1.2338419258594513 l0.4156434163451195,-1.077035441994667 1.665666401386261,-1.361325979232788 l2.503519058227539,-0.876799151301384 m8.765233755111694,2.776380181312561 l-0.03852855181321502,4.8347556591033936 0.019161191303282976,6.2265849113464355 l-0.07358544040471315,3.5244959592819214 0.4892748221755028,0.3751632571220398 l1.6365817189216614,-0.11875774711370468 2.1109291911125183,-1.0048969089984894 l1.3178560137748718,-1.2395070493221283 1.2941178679466248,-2.429182678461075 l0.7316251844167709,-3.205360472202301 0.09869009256362915,-3.2357165217399597 l-0.775064155459404,-3.7377825379371643 m-5.516301989555359,-5.548219084739685 l-0.12876504100859165,-3.6102065443992615 0.33007901161909103,-2.1538518369197845 l1.0723811388015747,-2.167673259973526 1.6479329764842987,-1.4870107173919678 l1.993788480758667,-0.7159849256277084 1.9705495238304138,0.06025507114827633 l1.4173756539821625,0.8395512402057648 0.7997868210077286,1.077849119901657 l0.5417400598526001,2.0872890949249268 -0.04565447103232145,2.522643208503723 l-1.2219730019569397,3.335951566696167 -0.8908084779977798,1.3315558433532715 m-7.316694259643555,3.1909343600273132 l-0.5473274737596512,0.4972824454307556 -0.21679198369383812,1.122097596526146 l0.3271004930138588,0.981554314494133 0.9001249819993973,0.4786408692598343 l1.6462594270706177,-0.13424123637378216 0.8398203551769257,-0.7761380821466446 l0.34927256405353546,-1.155456230044365 -0.16704397276043892,-1.0055459290742874 l-0.6352383643388748,-0.6959965080022812 -1.5025819838047028,-0.5393226072192192 l-1.2305580824613571,0.04473344422876835 -0.7523752748966217,0.47731589525938034 m5.4118430614471436,-0.34846916794776917 l-0.5988273024559021,0.9127143025398254 0.016979211941361427,1.3104330003261566 l0.5359262973070145,0.7560908049345016 1.4203804731369019,0.41259609162807465 l1.5618564188480377,-0.35845860838890076 0.7796388119459152,-0.8935829997062683 l0.2562038227915764,-1.5139718353748322 -0.6433894485235214,-1.1916323751211166 l-0.8638755232095718,-0.6115823611617088 -1.7542386054992676,-0.24311423301696777 l-1.2216468900442123,0.25319183245301247 -0.8412616699934006,0.6757313758134842 m5.25800883769989,-0.3758053109049797 l-0.517667718231678,0.6961096823215485 0.07196329068392515,1.273186057806015 l0.620017759501934,0.7717901468276978 1.3688741624355316,0.3443516418337822 l1.624286025762558,-0.30027156695723534 0.7597634196281433,-0.7710010558366776 " fill="none" stroke="black" stroke-width="1" /></svg>