<?xml version="1.0" encoding="utf-8" ?>
<svg baseProfile="full" height="92.85046346485615" version="1.1" width="104.25785340368748" xmlns="http://www.w3.org/2000/svg" xmlns:ev="http://www.w3.org/2001/xml-events" xmlns:xlink="http://www.w3.org/1999/xlink"><defs /><rect fill="white" height="92.85046346485615" width="104.25785340368748" x="0" y="0" /><path d="M50.52361806854606,39.461163284649956 m-15.224381685256958,0.18273966386914253 l-5.250219106674194,0.7499916106462479 -3.2249608635902405,1.1458151042461395 l-1.5256957709789276,1.55049666762352 -0.2983606420457363,1.2875604629516602 l0.9572581201791763,1.8414826691150665 1.785629540681839,1.1212452501058578 l2.678852379322052,0.7193318009376526 8.587109446525574,-0.00047633649955969304 l9.090615510940552,-0.3967807814478874 9.126304984092712,-0.6236579641699791 l7.002822160720825,-0.32056689262390137 6.6712892055511475,-0.35568661987781525 l5.2607786655426025,-0.7168228179216385 2.137140780687332,-3.2933273911476135 l0.9600526094436646,-7.861014008522034 -0.08454539813101292,-7.988308668136597 l-0.4224831983447075,-1.5031850337982178 -0.735713541507721,0.6434043496847153 l-1.5249590575695038,5.2381831407547 -1.3468793034553528,3.916676938533783 l-1.288030594587326,1.9847485423088074 -2.0088039338588715,1.038696989417076 l-5.071306228637695,0.8851215243339539 -5.366000533103943,0.6669346243143082 l-4.305192232131958,0.548611655831337 -4.226707816123962,0.5149313434958458 l-3.119353950023651,0.49565594643354416 m-5.0591254234313965,1.9756443798542023 l1.0958316177129745,8.86540949344635 0.6877193599939346,4.973518252372742 l0.9375523030757904,3.9244750142097473 1.21683731675148,3.19327175617218 l1.1854437738656998,1.551683098077774 2.413756400346756,1.537245512008667 l3.3497121930122375,0.8962509036064148 4.540853202342987,-0.00020149289412074722 l3.867555856704712,-0.7156527787446976 1.8972763419151306,-1.0155531764030457 l0.9920309484004974,-1.3234904408454895 0.705484002828598,-2.8334352374076843 l-0.257958360016346,-4.257711172103882 -1.4808614552021027,-4.1219982504844666 l-3.1591632962226868,-5.474568009376526 -2.4600864946842194,-1.9469915330410004 l-3.1981128454208374,-1.012841984629631 -8.014698028564453,-0.6363176554441452 l-2.7915602922439575,-0.042223865166306496 -1.9069008529186249,0.3265054523944855 " fill="none" stroke="black" stroke-width="1" /></svg>