<?xml version="1.0" encoding="utf-8" ?>
<svg baseProfile="full" height="2110.0" version="1.1" width="3170.0" xmlns="http://www.w3.org/2000/svg" xmlns:ev="http://www.w3.org/2001/xml-events" xmlns:xlink="http://www.w3.org/1999/xlink"><defs /><rect fill="white" height="2110.0" width="3170.0" x="0" y="0" /><path d="M1340.0,960.0 m-745.0,15.0 l-255.0,40.0 -185.0,80.0 l-115.0,110.0 -15.0,50.0 l10.0,30.0 180.0,70.0 l260.0,50.0 365.0,-10.0 l115.0,-25.0 505.0,-50.0 l730.0,-15.0 320.0,-15.0 l165.0,-30.0 425.0,-5.0 l45.0,-200.0 -10.0,-1030.0 l-195.0,5.0 -130.0,65.0 l-50.0,5.0 -20.0,35.0 l-110.0,445.0 -325.0,5.0 l-135.0,55.0 -220.0,30.0 l-120.0,65.0 -160.0,155.0 l-295.0,105.0 m150.0,145.0 l-5.0,160.0 40.0,140.0 l55.0,80.0 120.0,125.0 l65.0,35.0 60.0,60.0 l75.0,30.0 70.0,70.0 l175.0,125.0 160.0,50.0 l310.0,60.0 160.0,10.0 l5.0,-50.0 -85.0,-150.0 l-95.0,-60.0 -160.0,-150.0 l-260.0,-135.0 -85.0,-85.0 l-255.0,-155.0 -90.0,-105.0 " fill="none" stroke="black" stroke-width="1" /></svg>