<?xml version="1.0" encoding="utf-8" ?>
<svg baseProfile="full" height="89.40019271569327" version="1.1" width="83.91660712659359" xmlns="http://www.w3.org/2000/svg" xmlns:ev="http://www.w3.org/2001/xml-events" xmlns:xlink="http://www.w3.org/1999/xlink"><defs /><rect fill="white" height="89.40019271569327" width="83.91660712659359" x="0" y="0" /><path d="M41.681514121592045,42.94454214395955 m-0.7680904865264893,-1.4817605912685394 l-1.9728364050388336,-1.6467218101024628 -2.6073145866394043,-1.0271404683589935 l-2.8265440464019775,-0.2598925121128559 -2.5276944041252136,0.5558174476027489 l-2.411818355321884,1.4765319228172302 -1.9517798721790314,2.3213890194892883 l-1.1926466226577759,2.898002564907074 -0.4227893427014351,3.39794784784317 l0.3304988145828247,3.2364344596862793 1.2116728723049164,2.9663679003715515 l1.989077627658844,2.7926748991012573 3.7124085426330566,3.1444919109344482 l4.33833122253418,2.026517540216446 5.213814377784729,1.054990440607071 l5.277807116508484,-0.025815621484071016 4.027886390686035,-1.1269022524356842 l2.906138002872467,-1.522129476070404 2.183784395456314,-1.9892790913581848 l1.5983963012695312,-2.639523446559906 0.9077522903680801,-3.1582224369049072 l0.2190391719341278,-3.263700008392334 -0.4468214511871338,-2.990771234035492 l-1.741330772638321,-3.653394877910614 -1.830323040485382,-2.1442194283008575 l-2.2650186717510223,-1.565217673778534 -2.5934547185897827,-0.9295634180307388 l-2.7828440070152283,-0.23961815983057022 -2.4504686892032623,0.4805106669664383 l-2.0866887271404266,1.2234797328710556 -1.240685135126114,1.524902880191803 l-0.21895920857787132,-5.224007964134216 0.29532378539443016,-4.577122926712036 l0.8709455281496048,-2.9122331738471985 1.5275335311889648,-2.364809662103653 l1.6062228381633759,-1.3107003271579742 1.90447136759758,-0.7629311084747314 l2.0326972007751465,-0.2289237082004547 1.400092989206314,0.3406919911503792 l0.8317228406667709,0.7065201550722122 0.25811564177274704,1.0436363518238068 l-0.5192085728049278,1.8237540125846863 -1.6483217477798462,1.9331637024879456 l-5.247112512588501,3.314448297023773 " fill="none" stroke="black" stroke-width="1" /></svg>