<?xml version="1.0" encoding="utf-8" ?>
<svg baseProfile="full" height="1435.0" version="1.1" width="1630.0" xmlns="http://www.w3.org/2000/svg" xmlns:ev="http://www.w3.org/2001/xml-events" xmlns:xlink="http://www.w3.org/1999/xlink"><defs /><rect fill="white" height="1435.0" width="1630.0" x="0" y="0" /><path d="M880.0,280.0 m-40.0,-70.0 l-80.0,-75.0 -180.0,-105.0 l-155.0,-5.0 -95.0,40.0 l-85.0,70.0 -180.0,235.0 l-40.0,120.0 10.0,120.0 l30.0,100.0 145.0,330.0 l55.0,95.0 80.0,60.0 l380.0,170.0 210.0,45.0 l175.0,-20.0 305.0,-95.0 l160.0,-95.0 30.0,-90.0 l0.0,-140.0 -40.0,-135.0 l-140.0,-275.0 -70.0,-85.0 l-260.0,-245.0 -105.0,-50.0 l-55.0,0.0 -125.0,-35.0 m-45.0,485.0 l5.0,50.0 25.0,10.0 l20.0,-25.0 -25.0,-25.0 l-25.0,10.0 0.0,25.0 l25.0,5.0 25.0,-25.0 l-10.0,-25.0 -25.0,0.0 l-15.0,25.0 25.0,0.0 l10.0,-270.0 m0.0,300.0 l100.0,95.0 220.0,285.0 " fill="none" stroke="black" stroke-width="1" /></svg>