<?xml version="1.0" encoding="utf-8" ?>
<svg baseProfile="full" height="820.0" version="1.1" width="2080.0" xmlns="http://www.w3.org/2000/svg" xmlns:ev="http://www.w3.org/2001/xml-events" xmlns:xlink="http://www.w3.org/1999/xlink"><defs /><rect fill="white" height="820.0" width="2080.0" x="0" y="0" /><path d="M1270.0,435.0 m205.0,-15.0 l110.0,-25.0 60.0,-30.0 l235.0,-160.0 50.0,-50.0 l35.0,-85.0 m-705.0,370.0 l10.0,160.0 m-30.0,-200.0 l-260.0,65.0 5.0,75.0 l25.0,50.0 85.0,80.0 l50.0,-20.0 70.0,-80.0 l85.0,-5.0 m-275.0,-40.0 l130.0,-5.0 m-175.0,-70.0 l-520.0,-20.0 -240.0,-95.0 l-145.0,-180.0 -20.0,25.0 l-30.0,110.0 0.0,120.0 l235.0,130.0 135.0,25.0 l110.0,40.0 185.0,190.0 l160.0,-60.0 175.0,10.0 l75.0,-60.0 m170.0,-110.0 l300.0,-5.0 360.0,-85.0 l40.0,-45.0 15.0,-85.0 l55.0,-100.0 15.0,-185.0 l-10.0,-45.0 " fill="none" stroke="black" stroke-width="1" /></svg>