<?xml version="1.0" encoding="utf-8" ?>
<svg baseProfile="full" height="67.7673701569438" version="1.1" width="70.2037501326231" xmlns="http://www.w3.org/2000/svg" xmlns:ev="http://www.w3.org/2001/xml-events" xmlns:xlink="http://www.w3.org/1999/xlink"><defs /><rect fill="white" height="67.7673701569438" width="70.2037501326231" x="0" y="0" /><path d="M25,29.903325829654932 m4.519364535808563,-0.2623124234378338 l2.449474334716797,-0.36760512739419937 1.7270606756210327,-1.1221997439861298 l3.952726721763611,-2.379140257835388 -0.19964106380939484,-0.7720682770013809 l-7.725895643234253,0.18036667257547379 -3.766244649887085,1.4640884101390839 l-0.20998088642954826,1.664356291294098 m2.691972851753235,0.23779116570949554 l-0.0002332971962459851,1.7754830420017242 m2.2506083548069,-2.4883484840393066 l0.11505018919706345,2.146981507539749 0.35080496221780777,1.5457911789417267 m-3.5041260719299316,-1.1257397383451462 l-0.95428466796875,3.6182641983032227 -0.7413557171821594,3.720387816429138 l0.22669747471809387,2.607712149620056 1.0676976293325424,1.7870500683784485 l2.207688093185425,0.6331858783960342 8.456333875656128,-1.0456761717796326 l0.12834295630455017,-3.567134439945221 -0.7419449090957642,-4.852925539016724 l-1.0117820650339127,-3.4613528847694397 -0.7366637885570526,-0.9418611228466034 m-8.960309624671936,5.8527809381484985 l1.9980153441429138,-0.4285343736410141 3.556385338306427,-0.9152019768953323 l3.8021281361579895,-0.659787505865097 3.0797311663627625,-0.48710018396377563 l4.27866131067276,-1.2150991708040237 1.8974685668945312,-0.2534308284521103 l-0.14859138056635857,3.2307013869285583 -0.15807414427399635,2.310130149126053 l-0.5453075468540192,1.5260006487369537 -8.936180472373962,1.6258697211742401 l-6.299561262130737,0.5528786405920982 -2.1582257747650146,-0.3790660575032234 l-0.8247062563896179,-1.030600592494011 0.26906484737992287,-2.7340981364250183 m4.465691447257996,-2.469455897808075 l0.600719079375267,0.032073447946459055 8.481417894363403,-1.1025389283895493 " fill="none" stroke="black" stroke-width="1" /></svg>