<?xml version="1.0" encoding="utf-8" ?>
<svg baseProfile="full" height="2095.0" version="1.1" width="3800.0" xmlns="http://www.w3.org/2000/svg" xmlns:ev="http://www.w3.org/2001/xml-events" xmlns:xlink="http://www.w3.org/1999/xlink"><defs /><rect fill="white" height="2095.0" width="3800.0" x="0" y="0" /><path d="M65.0,140.0 m0.0,325.0 l-40.0,495.0 0.0,315.0 l510.0,60.0 860.0,185.0 l325.0,15.0 1185.0,5.0 l180.0,-30.0 15.0,-25.0 l40.0,-340.0 110.0,-530.0 l10.0,-300.0 -15.0,-95.0 l-25.0,-10.0 -145.0,25.0 l-675.0,15.0 -890.0,-100.0 l-590.0,-90.0 -510.0,-35.0 l-370.0,55.0 m355.0,1170.0 l-210.0,135.0 -50.0,70.0 l-30.0,110.0 0.0,95.0 l30.0,105.0 25.0,30.0 l70.0,30.0 175.0,20.0 l200.0,-60.0 85.0,-65.0 l45.0,-85.0 0.0,-90.0 l-70.0,-140.0 -120.0,-80.0 l-90.0,-20.0 -125.0,0.0 m2205.0,260.0 l-25.0,5.0 -20.0,30.0 l-15.0,95.0 35.0,190.0 l30.0,55.0 85.0,90.0 l85.0,40.0 155.0,-15.0 l145.0,-60.0 80.0,-135.0 l-5.0,-65.0 -45.0,-65.0 l-105.0,-65.0 -320.0,-90.0 m635.0,-500.0 l435.0,5.0 90.0,15.0 l-125.0,195.0 -195.0,365.0 l-25.0,15.0 -245.0,-70.0 l-385.0,-65.0 -75.0,0.0 m-165.0,-895.0 l-55.0,305.0 245.0,10.0 l50.0,-115.0 55.0,-230.0 l-220.0,-15.0 m-545.0,-45.0 l10.0,90.0 -50.0,250.0 l-30.0,20.0 -385.0,0.0 l90.0,-195.0 90.0,-270.0 l35.0,-20.0 110.0,0.0 l235.0,45.0 " fill="none" stroke="black" stroke-width="1" /></svg>