<?xml version="1.0" encoding="utf-8" ?>
<svg baseProfile="full" height="90.53361539030448" version="1.1" width="113.49310895428061" xmlns="http://www.w3.org/2000/svg" xmlns:ev="http://www.w3.org/2001/xml-events" xmlns:xlink="http://www.w3.org/1999/xlink"><defs /><rect fill="white" height="90.53361539030448" width="113.49310895428061" x="0" y="0" /><path d="M25.756565583869815,26.933432356454432 m0.08571800775825977,6.8864905834198 l-0.8422835916280746,11.197997331619263 0.23689275607466698,5.50035834312439 l19.043155908584595,2.6371702551841736 12.296067476272583,1.3279223442077637 l11.480984687805176,0.7777740806341171 8.095791935920715,0.06711570080369711 l5.889459252357483,-0.5216442421078682 4.415319263935089,-0.8423295617103577 l0.582713820040226,-0.5618879571557045 0.9441693872213364,-8.497560024261475 l0.5085544660687447,-11.029942035675049 -0.18191924318671227,-6.694767475128174 l-0.4368070513010025,-0.721302330493927 -1.3537299633026123,-0.6187552586197853 l-20.974788665771484,-0.5936214700341225 -17.12174415588379,-0.24645064026117325 l-14.542403221130371,0.10199707001447678 -6.647326946258545,0.32541152089834213 l-1.7865963280200958,0.4893564432859421 m6.811844706535339,27.601194381713867 l-1.4554482698440552,0.667240098118782 -1.0553601384162903,1.2586231529712677 l-0.6466768682003021,1.573951095342636 -0.14978723600506783,2.6520994305610657 l0.6217176094651222,1.6991133987903595 1.154024824500084,1.2880246341228485 l1.548750102519989,0.8528862148523331 2.688661515712738,0.4613257199525833 l2.816767990589142,-0.5719345808029175 1.7247369885444641,-1.2076002359390259 l0.9712009131908417,-1.432889848947525 0.4064737632870674,-1.6953149437904358 l-0.135570103302598,-1.6840167343616486 -0.7835680246353149,-1.4528623223304749 l-1.3025909662246704,-1.1395295709371567 -1.7519301176071167,-0.6990224868059158 l-2.8139138221740723,-0.22628646343946457 -1.5539905428886414,0.7896376401185989 m39.414942264556885,0.7251565903425217 l-0.8740910142660141,-0.03208607202395797 -2.065926641225815,1.2524092197418213 l-1.201499104499817,1.5240734815597534 -0.8735998719930649,2.62906014919281 l0.05631194915622473,1.910637617111206 0.8353010565042496,1.416826993227005 l1.440681666135788,0.952511727809906 2.8704440593719482,0.5036220699548721 l3.218878209590912,-0.7231345772743225 1.5525245666503906,-1.460845023393631 l0.8210168778896332,-2.5939467549324036 -9.254144060832914e-05,-2.6585057377815247 l-0.7603830844163895,-1.6538991034030914 -1.9858965277671814,-1.5681566298007965 l-3.020438253879547,-0.9260375052690506 m-26.85453176498413,-21.633341312408447 l-0.4554532468318939,5.431383848190308 -0.3325648605823517,4.30538535118103 l10.981104373931885,-0.27830246835947037 -0.23143554106354713,-4.316606819629669 l-7.107429504394531,-3.0231013894081116 -4.4333067536354065,-0.3019343316555023 m18.268380165100098,0.9313012659549713 l-0.6399407237768173,4.778539538383484 6.763405799865723,1.0307751595973969 l0.38819529116153717,-2.98467218875885 -0.6161146610975266,-2.959708571434021 l-5.052250027656555,-0.21661264821887016 -2.4629414081573486,0.1541390735656023 m-12.030645608901978,3.6423516273498535 l-0.5603276565670967,4.010246396064758 0.42963169515132904,0.44886287301778793 l4.771457314491272,0.04685034044086933 0.5768928304314613,-2.792321741580963 l-0.42915821075439453,-2.211883068084717 -4.603076279163361,-0.4230320453643799 l-1.6970905661582947,0.4106881469488144 " fill="none" stroke="black" stroke-width="1" /></svg>