<?xml version="1.0" encoding="utf-8" ?>
<svg baseProfile="full" height="1710.0" version="1.1" width="1925.0" xmlns="http://www.w3.org/2000/svg" xmlns:ev="http://www.w3.org/2001/xml-events" xmlns:xlink="http://www.w3.org/1999/xlink"><defs /><rect fill="white" height="1710.0" width="1925.0" x="0" y="0" /><path d="M1230.0,540.0 m25.0,-175.0 l35.0,-60.0 100.0,-120.0 l115.0,-70.0 200.0,-5.0 l125.0,55.0 55.0,75.0 l15.0,135.0 -145.0,355.0 l35.0,50.0 70.0,375.0 l-10.0,235.0 -70.0,130.0 l-105.0,45.0 -135.0,0.0 l-60.0,-30.0 -225.0,-420.0 l-30.0,-10.0 m-35.0,-840.0 l-5.0,805.0 15.0,415.0 l-50.0,70.0 -80.0,60.0 l-65.0,5.0 -20.0,-25.0 l5.0,-250.0 -65.0,-375.0 l0.0,-425.0 25.0,-115.0 l75.0,-105.0 65.0,-60.0 l70.0,-15.0 25.0,20.0 l0.0,60.0 m-285.0,275.0 l0.0,-110.0 -105.0,-210.0 l-165.0,-170.0 -100.0,-55.0 l-205.0,-35.0 -100.0,0.0 l-135.0,55.0 -65.0,110.0 l10.0,145.0 140.0,185.0 l95.0,170.0 -10.0,60.0 l-120.0,220.0 -35.0,125.0 l-15.0,375.0 70.0,160.0 l60.0,50.0 85.0,5.0 l145.0,-50.0 160.0,-85.0 l310.0,-225.0 80.0,-105.0 l15.0,-85.0 m-360.0,-40.0 l-25.0,-30.0 -30.0,15.0 l-25.0,45.0 " fill="none" stroke="black" stroke-width="1" /></svg>