<?xml version="1.0" encoding="utf-8" ?>
<svg baseProfile="full" height="71.69524824246764" version="1.1" width="66.19866758584976" xmlns="http://www.w3.org/2000/svg" xmlns:ev="http://www.w3.org/2001/xml-events" xmlns:xlink="http://www.w3.org/1999/xlink"><defs /><rect fill="white" height="71.69524824246764" width="66.19866758584976" x="0" y="0" /><path d="M25.924601666629314,33.40857185423374 m0.6291547417640686,-3.6277517676353455 l1.4273564517498016,-2.340638190507889 2.144489288330078,-1.62944495677948 l4.186296164989471,-0.8107369393110275 2.4439845979213715,0.24415304884314537 l1.943681538105011,1.05903759598732 1.4894044399261475,1.8647916615009308 l0.859399139881134,2.507253885269165 0.1502995565533638,4.370032250881195 l-0.9198593348264694,3.8769403100013733 -1.2207109481096268,2.492627054452896 l-1.5189321339130402,1.951054334640503 -2.434161901473999,1.9887807965278625 l-2.0934687554836273,0.9922348707914352 -2.179722487926483,0.3483424335718155 l-1.9316403567790985,-0.3740721195936203 -1.7527233064174652,-1.3751579821109772 l-1.255740076303482,-2.146470993757248 -0.8917082846164703,-3.567904233932495 l0.004353352996986359,-2.586592733860016 0.7941602170467377,-2.2326813638210297 l1.404479444026947,-1.7632335424423218 m3.326544761657715,1.3231149315834045 l-0.00014955711776565295,-0.8751504123210907 0.04866194911301136,-0.9637036919593811 l-0.07284064311534166,-2.093767672777176 -0.014525173464789987,-2.639724016189575 l0.34352000802755356,-1.150844544172287 0.6039474159479141,-0.4239032045006752 l1.5578371286392212,0.062435101717710495 0.7858745008707047,1.3409174978733063 l0.3517720103263855,2.223972827196121 -0.14165734872221947,2.061222642660141 l-0.8458974957466125,1.5756268799304962 -1.3478080928325653,0.9152350574731827 l-1.4337463676929474,0.1482666190713644 -0.6684668362140656,-0.4673954099416733 l-0.35004395991563797,-1.110277846455574 0.048978328704833984,-1.160375028848648 l0.8773195743560791,-1.3966615498065948 1.548725664615631,-0.876348465681076 l1.8022538721561432,0.027374026831239462 0.6171777099370956,0.5897987633943558 l0.3429843485355377,1.4181393384933472 -0.2092159166932106,1.7953620851039886 l-0.9613201022148132,1.2736417353153229 -1.3510435819625854,0.57548888027668 l-1.360568106174469,-0.17512237653136253 -0.6525754183530807,-0.7958979904651642 l-0.30624229460954666,-1.2729313969612122 0.10997464880347252,-1.1543724685907364 l0.9632570296525955,-1.2847821414470673 1.091768592596054,-0.50416499376297 l1.1318349093198776,0.13436740264296532 0.669446736574173,0.7324216514825821 l0.1705128327012062,0.9838774800300598 -0.3890417516231537,1.534360647201538 l-1.001727133989334,1.1486270278692245 -1.1802729964256287,0.4823672026395798 l-1.116488203406334,-0.170216616243124 -0.6222285330295563,-0.7442804425954819 l-0.13530682772397995,-1.5477104485034943 0.8397539705038071,-1.33820042014122 " fill="none" stroke="black" stroke-width="1" /></svg>