<?xml version="1.0" encoding="utf-8" ?>
<svg baseProfile="full" height="1885.0" version="1.1" width="1370.0" xmlns="http://www.w3.org/2000/svg" xmlns:ev="http://www.w3.org/2001/xml-events" xmlns:xlink="http://www.w3.org/1999/xlink"><defs /><rect fill="white" height="1885.0" width="1370.0" x="0" y="0" /><path d="M430.0,1860.0 m-90.0,-65.0 l-190.0,-255.0 -85.0,-200.0 l-40.0,-205.0 0.0,-200.0 l15.0,-85.0 95.0,-150.0 l165.0,-130.0 190.0,-60.0 l280.0,-10.0 110.0,35.0 l270.0,160.0 110.0,115.0 l65.0,145.0 15.0,70.0 l5.0,245.0 -25.0,160.0 l-55.0,135.0 -120.0,205.0 l-85.0,80.0 -75.0,-5.0 l-135.0,-155.0 -30.0,-15.0 l-95.0,20.0 -235.0,110.0 l-30.0,10.0 -15.0,-10.0 m-65.0,-1045.0 l25.0,-35.0 90.0,-50.0 l150.0,-50.0 240.0,-10.0 l160.0,55.0 m-385.0,-90.0 l-5.0,-55.0 35.0,-115.0 l125.0,-185.0 120.0,-100.0 l160.0,-100.0 -50.0,80.0 l-110.0,120.0 -105.0,260.0 l-80.0,80.0 " fill="none" stroke="black" stroke-width="1" /></svg>