<?xml version="1.0" encoding="utf-8" ?>
<svg baseProfile="full" height="77.50393763184547" version="1.1" width="79.60840158164501" xmlns="http://www.w3.org/2000/svg" xmlns:ev="http://www.w3.org/2001/xml-events" xmlns:xlink="http://www.w3.org/1999/xlink"><defs /><rect fill="white" height="77.50393763184547" width="79.60840158164501" x="0" y="0" /><path d="M31.02151319384575,52.503937631845474 m-1.8015454709529877,-1.2630510330200195 l-1.7606079578399658,-3.0571448802948 -1.3856658339500427,-4.049489796161652 l-0.7534389942884445,-3.9615237712860107 -0.32025493681430817,-3.5396066308021545 l0.16055243089795113,-3.467921018600464 0.5878110602498055,-1.8142057955265045 l2.1165943145751953,-2.7470779418945312 3.33231657743454,-2.1447530388832092 l4.305599927902222,-1.3090091943740845 6.913982033729553,-0.15015453100204468 l4.191438853740692,1.1043208837509155 3.7641948461532593,2.1760427951812744 l1.9487777352333069,2.067207396030426 1.4112195372581482,2.6864364743232727 l0.7258401066064835,3.0625709891319275 0.15007415786385536,3.0942296981811523 l-0.7498902082443237,3.99395614862442 -1.283937394618988,2.7135518193244934 l-1.797032356262207,2.2415220737457275 -2.2901663184165955,1.785803735256195 l-2.7738916873931885,1.3294942677021027 -3.0431851744651794,0.7120963931083679 l-4.1545286774635315,0.057112593203783035 -3.6791953444480896,-1.0061778873205185 l-2.2775493562221527,-1.3692866265773773 -1.0671821236610413,-1.2239492684602737 m7.020028233528137,-16.004903316497803 l0.011137856636196375,-0.39439018815755844 0.04737557843327522,-0.73625847697258 l0.05429982207715511,0.166544858366251 0.1271085999906063,2.2212420403957367 l0.7213187217712402,-0.0232215179130435 1.5290774405002594,-0.3368772566318512 l0.050765424966812134,-0.16331011429429054 -0.5327486991882324,-0.2284061536192894 l-0.18963778391480446,-0.09461678564548492 0.03220736747607589,0.15525531023740768 l0.38923487067222595,-0.11990443803369999 -0.10810984298586845,-0.30008284375071526 l-0.42060326784849167,0.3150017186999321 0.1641368307173252,0.2688433788716793 l0.5302576348185539,0.05290939472615719 " fill="none" stroke="black" stroke-width="1" /></svg>