<?xml version="1.0" encoding="utf-8" ?>
<svg baseProfile="full" height="60.68743571639061" version="1.1" width="73.85878247102937" xmlns="http://www.w3.org/2000/svg" xmlns:ev="http://www.w3.org/2001/xml-events" xmlns:xlink="http://www.w3.org/1999/xlink"><defs /><rect fill="white" height="60.68743571639061" width="73.85878247102937" x="0" y="0" /><path d="M25.033119934482784,29.770469793656957 m0.10720119811594486,4.71563458442688 l0.23754345253109932,0.21056275814771652 1.2223558872938156,0.00041017534385900944 l4.206564128398895,-0.764177143573761 5.374186038970947,-0.7828188687562943 l5.69824755191803,-0.46364184468984604 4.508861601352692,-0.2105318382382393 l2.470702677965164,-0.24307113140821457 -0.04363408777862787,-4.291065037250519 l-0.7649388164281845,-2.941771447658539 -11.673153638839722,1.1828064173460007 l-8.115932941436768,1.0403719544410706 -2.6789137721061707,0.9646982699632645 l-0.582168698310852,0.8054131269454956 -4.051612904731883e-05,1.4615565538406372 m3.922102153301239,2.067623883485794 l-0.4024175927042961,0.8940128982067108 0.05999461282044649,1.1081022769212723 l0.5242582410573959,0.7758873701095581 0.9443990886211395,0.38696296513080597 l1.6190019249916077,-0.2068626508116722 0.9094464778900146,-0.8432099968194962 l0.4821055009961128,-1.6562840342521667 -0.5244273319840431,-0.741250291466713 l-1.5203702449798584,-0.5605753138661385 -1.2158767879009247,0.2905709110200405 l-1.074644848704338,1.1190101504325867 m11.553035974502563,-1.7779573798179626 l-0.5600450187921524,1.7973870038986206 0.1397861633449793,1.399400383234024 l0.6842514127492905,0.753239169716835 1.5522746741771698,0.3316095098853111 l0.692337229847908,-0.3814467787742615 0.6511111557483673,-1.452663540840149 l-0.07861139252781868,-1.9042560458183289 -0.6921324133872986,-0.5727467685937881 l-1.5405450761318207,-0.21635809913277626 m-9.737406969070435,-2.8717854619026184 l0.6893733143806458,0.12942446395754814 3.3326944708824158,-0.019027878297492862 l3.385300636291504,-0.20066235214471817 m-1.818489134311676,-1.2357083708047867 l0.6635934859514236,2.5862786173820496 m0.29859041795134544,-2.871752083301544 l0.3769034147262573,2.5352513790130615 m-5.640705823898315,-0.28964556753635406 l3.752957582473755,-0.019785691983997822 3.4724822640419006,-0.46821992844343185 m-7.143175005912781,-0.07389069069176912 l0.5797215551137924,2.2209368646144867 0.646418035030365,2.109062969684601 m0.8360312134027481,-5.088792443275452 l0.4676031693816185,2.9855823516845703 0.488923117518425,2.0071598887443542 m2.3926688730716705,-5.992026329040527 l0.46316444873809814,3.1067389249801636 0.5730233713984489,2.201039493083954 l0.46135883778333664,0.37703122943639755 1.1413218080997467,0.00021297333660186268 m0.43669041246175766,-6.5513670444488525 l0.3292699530720711,2.793205976486206 0.4105234518647194,3.459686040878296 " fill="none" stroke="black" stroke-width="1" /></svg>