<?xml version="1.0" encoding="utf-8" ?>
<svg baseProfile="full" height="830.0" version="1.1" width="1230.0" xmlns="http://www.w3.org/2000/svg" xmlns:ev="http://www.w3.org/2001/xml-events" xmlns:xlink="http://www.w3.org/1999/xlink"><defs /><rect fill="white" height="830.0" width="1230.0" x="0" y="0" /><path d="M65.0,400.0 m0.0,230.0 l5.0,20.0 45.0,20.0 l145.0,0.0 390.0,-80.0 l320.0,-35.0 70.0,-15.0 l0.0,-20.0 m-995.0,-140.0 l10.0,-140.0 15.0,-30.0 l105.0,-60.0 370.0,-55.0 l65.0,-35.0 400.0,-30.0 l50.0,15.0 90.0,100.0 l55.0,270.0 -15.0,70.0 l-120.0,25.0 -70.0,40.0 l5.0,-15.0 m0.0,-25.0 l-35.0,35.0 -35.0,90.0 l0.0,25.0 30.0,15.0 l75.0,-15.0 45.0,-45.0 l0.0,-75.0 -50.0,-35.0 m-805.0,165.0 l-20.0,-5.0 -45.0,50.0 l0.0,50.0 15.0,20.0 l45.0,20.0 65.0,-30.0 l25.0,-25.0 5.0,-45.0 l-60.0,-45.0 -10.0,-25.0 m0.0,-425.0 l30.0,355.0 m170.0,-445.0 l35.0,80.0 25.0,110.0 l-15.0,315.0 m-470.0,-235.0 l220.0,-60.0 m240.0,-70.0 l285.0,-15.0 335.0,-65.0 m-550.0,-70.0 l30.0,40.0 65.0,30.0 m110.0,-155.0 l0.0,140.0 5.0,35.0 l20.0,10.0 m150.0,-160.0 l-15.0,25.0 -10.0,105.0 " fill="none" stroke="black" stroke-width="1" /></svg>