<?xml version="1.0" encoding="utf-8" ?>
<svg baseProfile="full" height="1000.0" version="1.1" width="840.0" xmlns="http://www.w3.org/2000/svg" xmlns:ev="http://www.w3.org/2001/xml-events" xmlns:xlink="http://www.w3.org/1999/xlink"><defs /><rect fill="white" height="1000.0" width="840.0" x="0" y="0" /><path d="M375.0,390.0 m-75.0,15.0 l-70.0,125.0 -25.0,150.0 l0.0,100.0 25.0,50.0 l80.0,85.0 165.0,60.0 l110.0,0.0 100.0,-35.0 l100.0,-130.0 30.0,-120.0 l0.0,-145.0 -50.0,-110.0 l-75.0,-65.0 -50.0,-20.0 l-195.0,-15.0 -130.0,60.0 l-30.0,40.0 -10.0,45.0 m330.0,-205.0 l35.0,-100.0 135.0,-150.0 l10.0,345.0 -20.0,60.0 m-445.0,-100.0 l-170.0,-105.0 -125.0,-105.0 l0.0,250.0 20.0,55.0 l95.0,145.0 90.0,95.0 m205.0,-120.0 l-45.0,10.0 -5.0,70.0 l0.0,-25.0 -30.0,-25.0 l-35.0,-5.0 m295.0,-30.0 l-10.0,30.0 20.0,25.0 l20.0,-25.0 -30.0,-20.0 l-60.0,0.0 45.0,30.0 l-10.0,-40.0 " fill="none" stroke="black" stroke-width="1" /></svg>