<?xml version="1.0" encoding="utf-8" ?>
<svg baseProfile="full" height="65.59970112983137" version="1.1" width="63.06769872549921" xmlns="http://www.w3.org/2000/svg" xmlns:ev="http://www.w3.org/2001/xml-events" xmlns:xlink="http://www.w3.org/1999/xlink"><defs /><rect fill="white" height="65.59970112983137" width="63.06769872549921" x="0" y="0" /><path d="M28.84782349690795,27.938760449178517 m-1.4656998217105865,0.2826136350631714 l-1.0823237895965576,0.9814580529928207 -1.1141493916511536,2.5050127506256104 l-0.18565049394965172,3.0717849731445312 0.7625219970941544,2.3725657165050507 l1.6185897588729858,1.9703014194965363 3.0788803100585938,1.3916577398777008 l3.155929744243622,0.08554639294743538 1.7254625260829926,-0.9815038740634918 l1.26493439078331,-1.748441457748413 0.6277067959308624,-2.5359001755714417 l-0.04141217563301325,-2.918085753917694 -0.7975649833679199,-2.084500640630722 l-1.574033796787262,-1.8588648736476898 -2.02387273311615,-1.118839755654335 l-2.287004142999649,-0.38870617747306824 -2.1033726632595062,0.26526883244514465 m1.1864050477743149,1.5887892246246338 l-0.08817142806947231,0.7334095239639282 0.09324168786406517,3.253980278968811 l1.8241995573043823,0.6204349547624588 2.9939857125282288,-0.04437985364347696 m-7.13111937046051,-2.3432855308055878 l-0.8442030847072601,-0.5950167775154114 -0.6071623787283897,-1.244174912571907 l-0.14351874589920044,-1.3126659393310547 0.22842610254883766,-1.0591582208871841 l1.1066219955682755,-1.1600261926651 1.6646431386470795,-0.3179013356566429 l1.404789388179779,0.6215003132820129 0.8481400460004807,1.3996689021587372 l0.19938897341489792,1.8132829666137695 -0.4511237144470215,1.4793333411216736 l-1.0523949563503265,1.0790812969207764 m4.112011790275574,-2.4545736610889435 l-0.38344211876392365,-1.4061741530895233 0.13677804730832577,-1.3348780572414398 l0.9245499223470688,-1.1589091271162033 1.5117204189300537,-0.3884642943739891 l1.2983828783035278,0.590575560927391 0.7512008398771286,1.5109358727931976 l0.07758394815027714,1.3042692840099335 -0.5836084857583046,1.5986332297325134 l-1.2016593664884567,1.2161365151405334 -1.3691730797290802,0.5186428502202034 " fill="none" stroke="black" stroke-width="1" /></svg>