<?xml version="1.0" encoding="utf-8" ?>
<svg baseProfile="full" height="62.1297811716795" version="1.1" width="74.9927819520235" xmlns="http://www.w3.org/2000/svg" xmlns:ev="http://www.w3.org/2001/xml-events" xmlns:xlink="http://www.w3.org/1999/xlink"><defs /><rect fill="white" height="62.1297811716795" width="74.9927819520235" x="0" y="0" /><path d="M27.47198404977098,25.861888900399208 m-0.07642206270247698,3.199669122695923 l0.27904363349080086,0.8349772542715073 0.46411357820034027,0.4506416618824005 l2.2920912504196167,-1.9333617389202118 -0.01916935434564948,-3.413815200328827 l-4.267733097076416,0.021874047815799713 m0.2742246724665165,2.161492705345154 l0.8221397548913956,0.26934914290905 2.2519269585609436,0.23030802607536316 l2.05757275223732,-0.10845094919204712 -0.15909526497125626,-1.0229573398828506 l-5.484758019447327,-0.12847190722823143 m0.6315536797046661,1.3651619851589203 l3.3382242918014526,0.16425544396042824 5.328199863433838,-0.3328699618577957 m-8.187645077705383,-0.31792759895324707 l4.4347187876701355,0.4699699953198433 5.291620492935181,0.374126136302948 l4.167581796646118,0.24884968996047974 m-13.737773895263672,-1.4316114783287048 l3.2727226614952087,0.48288948833942413 4.824066460132599,0.7366254180669785 l4.671574234962463,0.778217539191246 3.9100858569145203,0.707312747836113 l2.789325714111328,0.7301361858844757 1.8083125352859497,0.839398130774498 l1.0795838385820389,1.0759896039962769 0.46471185982227325,3.2281020283699036 l-0.5275530368089676,0.4233327880501747 -15.419167280197144,-0.7102350145578384 l-9.046061635017395,-1.879458874464035 m7.947977781295776,-5.967420935630798 l-0.7992575317621231,1.9621464610099792 -0.985814556479454,4.189728498458862 l-0.34660033881664276,2.7487465739250183 m6.233038902282715,-8.878778219223022 l-0.8571214973926544,5.226393938064575 -0.8217353373765945,4.473556876182556 " fill="none" stroke="black" stroke-width="1" /></svg>