<?xml version="1.0" encoding="utf-8" ?>
<svg baseProfile="full" height="81.2835607456509" version="1.1" width="73.67963058874011" xmlns="http://www.w3.org/2000/svg" xmlns:ev="http://www.w3.org/2001/xml-events" xmlns:xlink="http://www.w3.org/1999/xlink"><defs /><rect fill="white" height="81.2835607456509" width="73.67963058874011" x="0" y="0" /><path d="M25.23878994397819,55.125611304538324 m0.04357169382274151,-8.184839487075806 l0.4971250519156456,-3.8382652401924133 2.3602044582366943,0.31386740505695343 l8.393754959106445,0.808190256357193 6.384221315383911,0.02271118573844433 l3.37411105632782,-0.07056398782879114 2.0568284392356873,-0.20838363096117973 l0.331023670732975,0.45217301696538925 -0.21275345236063004,5.406471490859985 l0.04832303151488304,5.536698698997498 -0.20824499428272247,0.9198897331953049 l-0.8674667030572891,-0.4822107031941414 -10.933701992034912,-0.7154539972543716 l-8.448604941368103,-0.062063452787697315 -3.0571815371513367,0.08898022584617138 m3.4949451684951782,-12.290453910827637 l0.11631029658019543,-3.0465763807296753 0.5042793229222298,-0.8864546567201614 l3.0899393558502197,-0.5183776468038559 3.9545878767967224,-0.07022435311228037 l4.233245551586151,0.23485135287046432 3.030294179916382,0.47831345349550247 l0.553390309214592,1.4558756351470947 0.17511308193206787,2.5133690237998962 m-12.162659168243408,-4.380256831645966 l0.2746996097266674,-3.829398453235626 0.5360346287488937,-1.800844520330429 l0.5360051244497299,-0.22812806069850922 5.880460143089294,0.5854541435837746 l0.38729775696992874,0.4672423005104065 0.007758489227853715,4.485775530338287 l-0.10873401537537575,1.428259164094925 m-4.133816063404083,-8.727992177009583 l-0.39242789149284363,-1.9894085824489594 0.2482781931757927,-1.403796225786209 l0.8040239661931992,0.36597471684217453 0.13436468318104744,2.927226722240448 m0.13725215569138527,-2.868589460849762 l-0.2325628139078617,-1.65050208568573 m-1.7919163405895233,1.076345145702362 l-0.955202654004097,-0.5958905443549156 -0.37086542695760727,-0.8592179417610168 l0.9906725585460663,-0.9666309505701065 0.9346602112054825,-0.01875722431577742 l0.561431348323822,0.7175051420927048 -0.38682717829942703,1.1821511387825012 l-0.9947747737169266,0.4401617869734764 -0.35776562988758087,-0.3733721002936363 " fill="none" stroke="black" stroke-width="1" /></svg>