<?xml version="1.0" encoding="utf-8" ?>
<svg baseProfile="full" height="1550.0" version="1.1" width="1325.0" xmlns="http://www.w3.org/2000/svg" xmlns:ev="http://www.w3.org/2001/xml-events" xmlns:xlink="http://www.w3.org/1999/xlink"><defs /><rect fill="white" height="1550.0" width="1325.0" x="0" y="0" /><path d="M25,1440.0 m0.0,-405.0 l25.0,-205.0 260.0,35.0 l445.0,35.0 200.0,0.0 l275.0,-25.0 50.0,5.0 l10.0,20.0 10.0,105.0 l-5.0,310.0 -15.0,170.0 l-30.0,40.0 -215.0,-40.0 l-510.0,-55.0 -475.0,-15.0 m350.0,-545.0 l-20.0,-115.0 5.0,-130.0 l110.0,35.0 125.0,5.0 l360.0,-20.0 95.0,-20.0 l10.0,20.0 0.0,55.0 l-35.0,230.0 m-460.0,-180.0 l50.0,-370.0 20.0,0.0 l60.0,40.0 60.0,15.0 l185.0,15.0 10.0,25.0 l-60.0,150.0 m-95.0,-170.0 l-10.0,-60.0 25.0,-30.0 m60.0,150.0 l0.0,-145.0 -45.0,0.0 m-10.0,-25.0 l-30.0,-10.0 -15.0,-60.0 l35.0,-80.0 40.0,-170.0 l15.0,100.0 65.0,70.0 l10.0,35.0 -80.0,200.0 " fill="none" stroke="black" stroke-width="1" /></svg>