<?xml version="1.0" encoding="utf-8" ?>
<svg baseProfile="full" height="107.74639800190926" version="1.1" width="161.45916247740388" xmlns="http://www.w3.org/2000/svg" xmlns:ev="http://www.w3.org/2001/xml-events" xmlns:xlink="http://www.w3.org/1999/xlink"><defs /><rect fill="white" height="107.74639800190926" width="161.45916247740388" x="0" y="0" /><path d="M34.069386068731546,48.514309977181256 m2.827892303466797,-0.19417092204093933 l21.725656986236572,0.04916897974908352 35.2643609046936,-1.1548400670289993 l18.49385142326355,-0.2938300557434559 14.375274181365967,0.3613422065973282 l8.375787734985352,1.0936961323022842 0.7921788841485977,0.7643482834100723 l0.5347739905118942,2.447584718465805 -1.2768521904945374,14.900877475738525 l-1.9304469227790833,5.784483551979065 -2.936473786830902,3.0035394430160522 l-2.742849290370941,1.4072835445404053 -9.7296142578125,1.7153176665306091 l-23.167455196380615,1.0234702378511429 -11.367638111114502,0.04872297402471304 l-11.339865922927856,-0.1699119247496128 -20.306034088134766,-0.7198696583509445 l-7.680231928825378,-0.8255286514759064 -6.17006778717041,-0.8340689539909363 l-4.466747939586639,-1.3518260419368744 -3.199552595615387,-1.9995847344398499 l-1.666097491979599,-2.0047174394130707 -2.1522650122642517,-6.309579610824585 l-1.0877058655023575,-9.381273984909058 -0.2392640896141529,-9.152488112449646 l0.8027589321136475,-3.121749758720398 1.0447019338607788,-1.390855461359024 l1.3744783401489258,-0.6275591999292374 2.5713303685188293,-0.08944672532379627 l6.499114036560059,0.5783078074455261 m13.853312730789185,20.4905366897583 l-0.1688387244939804,1.6986894607543945 0.2360452525317669,5.06350040435791 l1.0025465488433838,4.664073586463928 1.050136536359787,2.0934708416461945 l1.2876874208450317,1.0831142216920853 3.9761680364608765,0.6935287266969681 l3.7665319442749023,-0.8869821578264236 2.0745138823986053,-1.567467451095581 l2.166442722082138,-3.2549917697906494 1.0650328546762466,-4.226624667644501 l0.16238022595643997,-4.076737761497498 -0.49122072756290436,-1.7103669047355652 l-0.9019134193658829,-0.9886236488819122 -4.033768177032471,-1.2894922494888306 l-8.379541635513306,1.3134311139583588 m34.06409978866577,0.6822957098484039 l-0.010988959111273289,4.7086650133132935 0.2926270291209221,8.237540125846863 l1.1453013867139816,5.252156853675842 2.006390541791916,2.443504184484482 l0.977947935461998,0.2520259842276573 5.105340480804443,-4.574362933635712 l5.2115219831466675,-9.907886385917664 1.7356935143470764,-5.344871878623962 l0.4381689429283142,-3.5562479496002197 -0.44469915330410004,-2.571389675140381 l-0.9649905562400818,-1.3391244411468506 m-39.235005378723145,-6.666955947875977 l-0.4440164566040039,-1.5106569230556488 -0.34266993403434753,-6.634576916694641 l0.6363647431135178,-9.216980338096619 1.5061898529529572,-4.674308001995087 l0.7949243485927582,-0.9359528869390488 6.421951651573181,-0.8130837231874466 l7.9051244258880615,0.18685849383473396 7.871232032775879,0.8794882893562317 l6.277123689651489,1.1816324293613434 5.879834890365601,1.378585696220398 l5.231263637542725,1.388082504272461 4.447030425071716,1.5599046647548676 l0.5834667757153511,0.7861332595348358 0.23722181096673012,3.637438416481018 l-0.4265959560871124,8.482577204704285 -0.840575322508812,6.613807678222656 l-1.0660283267498016,4.035942852497101 -1.3124680519104004,2.766712009906769 l-1.932341605424881,1.576363444328308 -2.0881637930870056,0.6603679805994034 l-6.843594312667847,0.0003031257620023098 " fill="none" stroke="black" stroke-width="1" /></svg>