<?xml version="1.0" encoding="utf-8" ?>
<svg baseProfile="full" height="3640.0" version="1.1" width="5825.0" xmlns="http://www.w3.org/2000/svg" xmlns:ev="http://www.w3.org/2001/xml-events" xmlns:xlink="http://www.w3.org/1999/xlink"><defs /><rect fill="white" height="3640.0" width="5825.0" x="0" y="0" /><path d="M460.0,910.0 m130.0,-15.0 l1155.0,0.0 1135.0,-60.0 l1590.0,-10.0 625.0,-75.0 l315.0,145.0 100.0,75.0 l290.0,370.0 0.0,215.0 l-80.0,175.0 -80.0,95.0 l-660.0,315.0 -285.0,85.0 l-520.0,60.0 -780.0,5.0 l-1505.0,-50.0 -725.0,-100.0 l-355.0,-155.0 -240.0,-155.0 l-180.0,-230.0 -70.0,-180.0 l-15.0,-170.0 15.0,-160.0 l180.0,-265.0 m-15.0,60.0 l-115.0,-75.0 -195.0,-340.0 l-120.0,-130.0 -30.0,195.0 l35.0,285.0 10.0,245.0 l0.0,585.0 80.0,260.0 l50.0,-20.0 45.0,-80.0 l180.0,-215.0 m2010.0,645.0 l-80.0,80.0 -180.0,240.0 l-140.0,260.0 -235.0,590.0 l-20.0,120.0 40.0,85.0 l230.0,-45.0 495.0,-205.0 l330.0,-235.0 215.0,-305.0 l70.0,-150.0 85.0,-125.0 l165.0,-385.0 m-815.0,-1340.0 l25.0,-10.0 260.0,-405.0 l245.0,-290.0 225.0,-95.0 l60.0,15.0 215.0,140.0 l90.0,150.0 60.0,210.0 l0.0,120.0 -15.0,105.0 l-90.0,130.0 m1155.0,200.0 l-5.0,80.0 105.0,340.0 l140.0,240.0 35.0,-30.0 l80.0,-155.0 80.0,-285.0 l-15.0,-155.0 -30.0,-55.0 l-35.0,-20.0 -80.0,0.0 l-95.0,40.0 -310.0,275.0 l-60.0,20.0 " fill="none" stroke="black" stroke-width="1" /></svg>