<?xml version="1.0" encoding="utf-8" ?>
<svg baseProfile="full" height="1745.0" version="1.1" width="2330.0" xmlns="http://www.w3.org/2000/svg" xmlns:ev="http://www.w3.org/2001/xml-events" xmlns:xlink="http://www.w3.org/1999/xlink"><defs /><rect fill="white" height="1745.0" width="2330.0" x="0" y="0" /><path d="M1205.0,1470.0 m25.0,185.0 l50.0,55.0 35.0,10.0 l25.0,-25.0 40.0,-305.0 l0.0,-695.0 -80.0,-345.0 l-5.0,-100.0 -35.0,-90.0 l-45.0,-50.0 -35.0,35.0 l-40.0,165.0 -15.0,560.0 l70.0,650.0 m-105.0,-1170.0 l-265.0,-220.0 -95.0,-55.0 l-185.0,-50.0 -200.0,5.0 l-100.0,45.0 -130.0,180.0 l-80.0,220.0 -10.0,200.0 l55.0,70.0 80.0,65.0 l110.0,50.0 300.0,75.0 l-110.0,90.0 -130.0,165.0 l-10.0,35.0 15.0,80.0 l195.0,210.0 105.0,30.0 l400.0,50.0 150.0,-95.0 l20.0,-40.0 m165.0,25.0 l160.0,5.0 155.0,80.0 l490.0,25.0 90.0,-105.0 l40.0,-105.0 0.0,-95.0 l-40.0,-105.0 -45.0,-55.0 l-130.0,-100.0 -100.0,-35.0 l150.0,-150.0 40.0,-70.0 l25.0,-90.0 0.0,-65.0 l-35.0,-55.0 -60.0,-210.0 l-30.0,-55.0 -165.0,-125.0 l-175.0,-35.0 -95.0,0.0 l-130.0,90.0 -185.0,190.0 " fill="none" stroke="black" stroke-width="1" /></svg>