<?xml version="1.0" encoding="utf-8" ?>
<svg baseProfile="full" height="74.51793164014816" version="1.1" width="70.30114345252514" xmlns="http://www.w3.org/2000/svg" xmlns:ev="http://www.w3.org/2001/xml-events" xmlns:xlink="http://www.w3.org/1999/xlink"><defs /><rect fill="white" height="74.51793164014816" width="70.30114345252514" x="0" y="0" /><path d="M26.927216732874513,39.50844049453735 m0.3832332417368889,3.699340522289276 l0.7951189577579498,1.0516183078289032 1.0314979404211044,0.41651349514722824 l1.244504526257515,-0.5328699573874474 0.8196163177490234,-1.4859431982040405 l0.8987109363079071,-5.644829273223877 -0.3080259822309017,-7.597161531448364 l-1.1268242448568344,-3.6524638533592224 -0.8516156673431396,-0.7626450061798096 l-0.7849670201539993,0.2991393208503723 -1.676061898469925,9.823774099349976 l-0.631929337978363,8.126899003982544 -0.047570373862981796,5.326248407363892 l0.4500499740242958,0.9418708086013794 1.5753871202468872,-4.082521200180054 l1.4521387219429016,-10.678578615188599 0.524926520884037,-4.533112943172455 l0.051095811650156975,-1.3067609071731567 -0.22171519696712494,-2.5442442297935486 l0.3435860574245453,6.89725399017334 0.16185471788048744,5.137940049171448 l0.6338822096586227,1.3836713135242462 1.0288099199533463,-1.4571352303028107 l5.454622507095337,-11.717565059661865 -1.2075742334127426,8.910587430000305 l-0.9181620925664902,3.8078105449676514 -0.49002785235643387,1.9706127047538757 l-1.0464611649513245,3.6912131309509277 -0.43967727571725845,0.8993040770292282 l-1.930842250585556,1.487409621477127 -3.3938956260681152,0.308681633323431 l-0.8366919308900833,-0.6594241410493851 -2.6856520771980286,-6.174439787864685 l-0.17855798825621605,-3.7579643726348877 0.8201303333044052,-2.5770756602287292 l2.107454836368561,-2.357693910598755 2.1042317152023315,-1.1781509965658188 l3.192718029022217,-0.6863061338663101 5.666514039039612,0.4840608313679695 l2.998051941394806,1.2692071497440338 2.2017499804496765,1.9878649711608887 l1.2102925777435303,2.343524694442749 -5.719742178916931,3.8151034712791443 l-7.3093730211257935,0.797799602150917 -2.146255671977997,-0.24535611271858215 l-2.0957306027412415,-1.2779755890369415 -0.9049519896507263,-1.4645160734653473 l-0.21960502490401268,-2.4942274391651154 0.7949927449226379,-1.8147903680801392 l1.5156427025794983,-1.328190267086029 3.2671302556991577,-1.2179745733737946 l4.1725024580955505,-0.19665522500872612 3.151656985282898,1.0930980741977692 l2.1839842200279236,2.1121034026145935 0.5454264208674431,1.3991248607635498 l-0.2675645053386688,1.6529476642608643 -1.8028101325035095,1.7498289048671722 l-3.022201359272003,1.1180531978607178 -3.5299569368362427,0.11758273467421532 l-1.516563892364502,-1.1249735951423645 -1.1844027042388916,-2.5010958313941956 " fill="none" stroke="black" stroke-width="1" /></svg>