<?xml version="1.0" encoding="utf-8" ?>
<svg baseProfile="full" height="2125.0" version="1.1" width="2620.0" xmlns="http://www.w3.org/2000/svg" xmlns:ev="http://www.w3.org/2001/xml-events" xmlns:xlink="http://www.w3.org/1999/xlink"><defs /><rect fill="white" height="2125.0" width="2620.0" x="0" y="0" /><path d="M1100.0,635.0 m0.0,-70.0 l-55.0,-110.0 -70.0,-85.0 l-85.0,-55.0 -725.0,0.0 l-50.0,50.0 -45.0,90.0 l-45.0,175.0 5.0,160.0 l45.0,115.0 75.0,80.0 l165.0,105.0 230.0,75.0 l80.0,5.0 -20.0,30.0 l-100.0,45.0 -120.0,80.0 l-155.0,160.0 -100.0,205.0 l0.0,150.0 5.0,25.0 l55.0,55.0 60.0,35.0 l210.0,70.0 300.0,65.0 l185.0,10.0 35.0,-20.0 l40.0,-55.0 65.0,-140.0 l90.0,-405.0 15.0,-150.0 m-120.0,-840.0 l40.0,45.0 35.0,180.0 l5.0,900.0 55.0,305.0 l40.0,35.0 60.0,0.0 l135.0,-110.0 40.0,-50.0 l75.0,-245.0 5.0,-205.0 l-20.0,-120.0 -75.0,-300.0 l-5.0,-80.0 -120.0,-365.0 l-75.0,-75.0 -105.0,-10.0 l-40.0,45.0 -65.0,135.0 l-10.0,110.0 m400.0,-20.0 l15.0,-120.0 35.0,-90.0 l105.0,-105.0 130.0,-70.0 l175.0,0.0 150.0,70.0 l50.0,40.0 150.0,240.0 l40.0,135.0 0.0,100.0 l-50.0,60.0 -355.0,270.0 l-215.0,95.0 -90.0,20.0 l160.0,-50.0 185.0,-30.0 l100.0,0.0 155.0,30.0 l70.0,25.0 185.0,115.0 l30.0,30.0 125.0,225.0 l0.0,100.0 -65.0,105.0 l-155.0,120.0 -195.0,80.0 l-165.0,0.0 -185.0,-65.0 l-240.0,-170.0 -70.0,-150.0 m-430.0,-1280.0 l-5.0,-35.0 -120.0,-205.0 l-35.0,-130.0 " fill="none" stroke="black" stroke-width="1" /></svg>