<?xml version="1.0" encoding="utf-8" ?>
<svg baseProfile="full" height="92.48615110736864" version="1.1" width="99.8028206757499" xmlns="http://www.w3.org/2000/svg" xmlns:ev="http://www.w3.org/2001/xml-events" xmlns:xlink="http://www.w3.org/1999/xlink"><defs /><rect fill="white" height="92.48615110736864" width="99.8028206757499" x="0" y="0" /><path d="M46.49291361813994,38.998651311594585 m0.006423567538149655,-1.4529389142990112 l-1.1612006276845932,-2.031835615634918 -1.422799527645111,-1.2974953651428223 l-3.591208755970001,-1.6404680907726288 -8.862161636352539,-0.24250352755188942 l-3.041209876537323,1.693108230829239 -1.2765544652938843,1.5755003690719604 l-0.8561988919973373,2.609480619430542 -0.00012379562576825265,2.9104146361351013 l0.8503502607345581,1.921975165605545 2.3308882117271423,2.464207261800766 l3.452243208885193,1.9755926728248596 1.3343623280525208,0.9683648496866226 l1.88505157828331,1.5019422769546509 -1.3919973373413086,0.4993048310279846 l-4.723058342933655,1.585848480463028 -2.042059749364853,1.376570463180542 l-2.060457319021225,2.419823557138443 -0.780322253704071,1.9468030333518982 l-0.14288019388914108,3.0846798419952393 0.7709275931119919,1.9504852592945099 l1.4591659605503082,1.670001596212387 2.1612422168254852,1.3811643421649933 l2.693341076374054,0.9798175096511841 4.601908922195435,0.6372234225273132 l4.9629321694374084,0.00043288982851663604 2.5052648782730103,-0.6365469843149185 l1.521405577659607,-0.9298475086688995 0.9768250584602356,-1.3066299259662628 l0.7644427567720413,-2.7844032645225525 m-2.4612782895565033,-26.37479305267334 l-0.7597324252128601,3.928769826889038 -0.714862272143364,8.974343538284302 l-0.06819729693233967,7.1987879276275635 0.5220041796565056,5.479291081428528 l0.7771202921867371,2.115700840950012 1.0563341528177261,1.1660491675138474 l1.2971305847167969,0.6001078709959984 1.5128757059574127,0.0004542252645478584 l1.2605838477611542,-0.8131075650453568 1.065046712756157,-1.5883572399616241 l0.7647106796503067,-2.3125311732292175 0.5450479686260223,-4.813118278980255 l-1.7781067072064616e-05,-6.467661261558533 -0.9937554597854614,-5.605950951576233 l-1.6410531103610992,-4.545914530754089 -1.454308032989502,-2.2609706223011017 l-0.9609271585941315,-0.6613623350858688 -1.6909842193126678,-0.253253486007452 l-0.8042401075363159,0.4028342291712761 m5.287935733795166,3.128115236759186 l0.46647410839796066,-1.3311122357845306 1.597885638475418,-1.8560543656349182 l2.2971822321414948,-1.749257892370224 2.509012520313263,-1.1699312925338745 l3.8744398951530457,-0.8346910774707794 3.3867624402046204,0.0005288371539791115 l3.2878920435905457,1.1065168678760529 1.7357930541038513,1.1360707134008408 l1.7514583468437195,2.3357798159122467 0.6103627011179924,1.8982823193073273 l-0.0657320860773325,2.887151539325714 -0.7842344790697098,1.735430359840393 l-2.13811531662941,2.288094460964203 -5.514017939567566,3.013952076435089 l4.10326361656189,0.5401849001646042 2.9138734936714172,1.275223046541214 l2.612728476524353,2.2231702506542206 1.1904501914978027,1.718442589044571 l0.9582938998937607,2.7875399589538574 0.05215792451053858,3.188510835170746 l-0.6493224948644638,1.8568632006645203 -1.8727339804172516,2.397211194038391 l-1.7177031934261322,1.2060221284627914 -3.3177384734153748,1.116078644990921 l-4.732314646244049,0.3817024827003479 -4.611821174621582,-0.6811310350894928 l-1.4034253358840942,-0.6725320219993591 -1.8454302847385406,-1.7919480800628662 m-8.85176420211792,-28.835477828979492 l-0.7212615758180618,-2.1039895713329315 -1.4448001980781555,-2.421119809150696 l-1.9970430433750153,-2.5158685445785522 -2.6169076561927795,-2.145088165998459 l-1.9129735231399536,-0.8262045681476593 -2.5202924013137817,-0.2845066040754318 " fill="none" stroke="black" stroke-width="1" /></svg>