<?xml version="1.0" encoding="utf-8" ?>
<svg baseProfile="full" height="1985.0" version="1.1" width="2620.0" xmlns="http://www.w3.org/2000/svg" xmlns:ev="http://www.w3.org/2001/xml-events" xmlns:xlink="http://www.w3.org/1999/xlink"><defs /><rect fill="white" height="1985.0" width="2620.0" x="0" y="0" /><path d="M995.0,610.0 m-210.0,45.0 l-245.0,95.0 -200.0,185.0 l-140.0,190.0 -30.0,105.0 l15.0,255.0 80.0,185.0 l50.0,55.0 190.0,120.0 l215.0,75.0 235.0,40.0 l470.0,-10.0 135.0,-30.0 l210.0,-80.0 125.0,-80.0 l90.0,-110.0 60.0,-140.0 l5.0,-165.0 -80.0,-210.0 l-210.0,-270.0 -210.0,-175.0 l-200.0,-120.0 -190.0,-25.0 l-140.0,0.0 -140.0,20.0 l-165.0,80.0 m-485.0,120.0 l-180.0,-275.0 -25.0,-65.0 l5.0,-30.0 m1685.0,180.0 l120.0,-175.0 210.0,-375.0 m-1905.0,375.0 l215.0,-110.0 625.0,-180.0 l375.0,-40.0 1240.0,-10.0 m-1580.0,675.0 l0.0,65.0 30.0,5.0 m45.0,-65.0 l80.0,-15.0 0.0,100.0 l50.0,20.0 80.0,0.0 " fill="none" stroke="black" stroke-width="1" /></svg>