<?xml version="1.0" encoding="utf-8" ?>
<svg baseProfile="full" height="84.09301130101085" version="1.1" width="94.95079264044762" xmlns="http://www.w3.org/2000/svg" xmlns:ev="http://www.w3.org/2001/xml-events" xmlns:xlink="http://www.w3.org/1999/xlink"><defs /><rect fill="white" height="84.09301130101085" width="94.95079264044762" x="0" y="0" /><path d="M44.36038159765303,32.22362748434534 m-4.214040637016296,0.9102790057659149 l-4.926880598068237,2.208056151866913 -3.548346757888794,2.9952049255371094 l-1.9224245846271515,2.8609246015548706 -1.02447047829628,4.958592653274536 l0.6326897442340851,3.9624956250190735 1.0464074462652206,1.8342220783233643 l1.8483437597751617,1.9751662015914917 4.965516626834869,3.065582811832428 l3.8585373759269714,1.339363306760788 4.018985033035278,0.7592405378818512 l6.906777024269104,0.00025591725716367364 4.420478343963623,-0.7611531019210815 l3.8601627945899963,-1.3027465343475342 2.8959697484970093,-1.624809056520462 l2.0288366079330444,-2.0257826149463654 1.4903071522712708,-3.5234779119491577 l0.11615640483796597,-3.1367745995521545 -1.1427489668130875,-3.9997440576553345 l-1.721280962228775,-2.847367227077484 -2.2028613090515137,-2.3742665350437164 l-4.036502838134766,-2.8103867173194885 -3.459847569465637,-1.5454025566577911 l-3.477148711681366,-0.9447380155324936 -5.380550026893616,-0.5761758238077164 l-5.06503701210022,0.2689920552074909 m-9.21949326992035,7.825149297714233 l-2.8910642862319946,-4.972904920578003 -3.2168516516685486,-6.9578492641448975 l1.044606864452362,-1.2387904524803162 2.1240444481372833,-0.44100716710090637 l14.215623140335083,2.6824256777763367 m13.048161268234253,4.272621273994446 l9.688699841499329,-5.819027423858643 4.829657077789307,-2.2397956252098083 m-28.917415142059326,14.26276683807373 l9.065619707107544,-0.5797046795487404 13.769162893295288,-1.5636320412158966 m-21.621718406677246,2.1429860591888428 l4.444512128829956,0.3996536135673523 5.823974609375,0.19672980532050133 l4.368174970149994,-0.02457490423694253 m-13.167338371276855,-2.4902839958667755 l0.26276305317878723,-0.3637271746993065 2.1665704250335693,-0.4349110275506973 l0.035789706744253635,0.5743231624364853 m1.5624931454658508,0.38050930947065353 l0.3373381868004799,-0.3110969625413418 " fill="none" stroke="black" stroke-width="1" /></svg>