<?xml version="1.0" encoding="utf-8" ?>
<svg baseProfile="full" height="63.44454652629793" version="1.1" width="155.4500837996602" xmlns="http://www.w3.org/2000/svg" xmlns:ev="http://www.w3.org/2001/xml-events" xmlns:xlink="http://www.w3.org/1999/xlink"><defs /><rect fill="white" height="63.44454652629793" width="155.4500837996602" x="0" y="0" /><path d="M38.751392625272274,28.970281571964733 m0.5684125423431396,-0.4184987023472786 l1.6980057954788208,-0.13338876888155937 2.7759170532226562,0.33148448914289474 l2.72032767534256,0.9760715067386627 3.171640932559967,1.7777119576931 l1.7187537252902985,0.5167097598314285 3.56742262840271,0.05664130672812462 l3.033185303211212,-0.4299521818757057 4.2020004987716675,0.08967224508523941 l3.399859070777893,-0.3451761230826378 4.493334889411926,0.06537147797644138 l3.712114691734314,-0.4935281351208687 4.625111222267151,-0.08992812596261501 l4.051332175731659,-0.5304696783423424 4.584510028362274,-0.1036041509360075 l3.5199132561683655,-0.5509728938341141 4.015103578567505,-0.014659770531579852 l2.78550922870636,-0.3749547153711319 3.463192582130432,0.05886422470211983 l2.711453437805176,-0.4574788734316826 3.517821431159973,0.008330551791004837 l2.7612334489822388,-0.5565313994884491 3.6463531851768494,-0.028617861680686474 l1.0737263411283493,0.18602279946208 2.6179051399230957,-0.07233597338199615 l2.648737132549286,-0.5772195756435394 3.4340068697929382,-0.04046929534524679 l2.4083226919174194,-0.4562057927250862 3.257458209991455,0.12417396530508995 l0.8443548530340195,0.4438897594809532 0.4814549908041954,0.7226767390966415 l0.190216563642025,1.7551273107528687 -1.268124133348465,0.6399142742156982 l-7.2568100690841675,1.2218405306339264 -8.37231993675232,1.4772993326187134 l-8.517042994499207,1.2401574105024338 -9.39298391342163,1.1926832050085068 l-9.140085577964783,0.9429079294204712 -9.138962030410767,0.7596651464700699 l-9.43499207496643,0.3587624058127403 -9.267181158065796,0.20227864384651184 l-8.593394160270691,-0.2189183235168457 -8.093759417533875,-0.3834306076169014 l-6.382720470428467,-0.5658755078911781 -4.542972445487976,-0.7851892709732056 l-3.66181343793869,-1.0180875658988953 -1.4969033002853394,-1.210380271077156 l-0.7151109725236893,-1.3813672959804535 -0.17490770667791367,-1.5883928537368774 l0.5504811927676201,-2.204715758562088 0.9567759931087494,-1.2492572516202927 l1.4921630918979645,-0.9631127864122391 2.6659929752349854,-0.9103491902351379 l4.393132925033569,-0.18292168155312538 4.147914350032806,-0.5568668991327286 l4.71683144569397,0.1270310115069151 3.8107502460479736,-0.3527122735977173 " fill="none" stroke="black" stroke-width="1" /></svg>