<?xml version="1.0" encoding="utf-8" ?>
<svg baseProfile="full" height="3115.0" version="1.1" width="3005.0" xmlns="http://www.w3.org/2000/svg" xmlns:ev="http://www.w3.org/2001/xml-events" xmlns:xlink="http://www.w3.org/1999/xlink"><defs /><rect fill="white" height="3115.0" width="3005.0" x="0" y="0" /><path d="M355.0,360.0 m25.0,-20.0 l55.0,-5.0 135.0,-50.0 l215.0,-10.0 95.0,25.0 l135.0,120.0 275.0,545.0 l125.0,190.0 125.0,140.0 l90.0,70.0 260.0,110.0 l175.0,35.0 310.0,5.0 m-2020.0,-1335.0 l50.0,-40.0 265.0,-85.0 l200.0,5.0 130.0,65.0 l65.0,65.0 110.0,170.0 l75.0,190.0 170.0,315.0 l185.0,185.0 145.0,105.0 l215.0,95.0 170.0,40.0 l345.0,50.0 180.0,160.0 l-20.0,25.0 -140.0,0.0 l-115.0,20.0 m-20.0,-155.0 l0.0,0.0 m-70.0,10.0 l0.0,0.0 m-60.0,15.0 l0.0,0.0 m-200.0,-65.0 l0.0,0.0 m945.0,1740.0 l-25.0,-15.0 m0.0,0.0 l-2570.0,-2680.0 m-155.0,100.0 l-105.0,0.0 -85.0,-135.0 l-15.0,-200.0 40.0,-75.0 l75.0,-60.0 80.0,0.0 l70.0,30.0 40.0,30.0 l35.0,55.0 15.0,60.0 l-5.0,100.0 m2105.0,2305.0 l-85.0,-30.0 " fill="none" stroke="black" stroke-width="1" /></svg>