<?xml version="1.0" encoding="utf-8" ?>
<svg baseProfile="full" height="95.48191292211413" version="1.1" width="109.82606703182682" xmlns="http://www.w3.org/2000/svg" xmlns:ev="http://www.w3.org/2001/xml-events" xmlns:xlink="http://www.w3.org/1999/xlink"><defs /><rect fill="white" height="95.48191292211413" width="109.82606703182682" x="0" y="0" /><path d="M60.80333240330219,33.61024994403124 m-0.40109794586896896,-1.238294094800949 l-1.4725808799266815,-1.3687615096569061 -2.499707341194153,-1.26491978764534 l-2.8120484948158264,-0.5788084492087364 -2.952987253665924,0.09136080741882324 l-1.8185783922672272,0.6182456016540527 -2.343006581068039,1.6663645207881927 l-1.8406710028648376,2.4428103864192963 -0.9873192012310028,2.9601022601127625 l-0.11847144924104214,3.0480682849884033 0.7441947609186172,2.5881916284561157 l1.6084890067577362,2.4377404153347015 2.296695113182068,2.018709033727646 l4.081133604049683,1.9800825417041779 4.461737871170044,0.8127354830503464 l4.777804017066956,-0.202215276658535 2.5373810529708862,-0.9585931897163391 l2.2542792558670044,-1.6615329682826996 1.6494959592819214,-2.261856645345688 l0.8693277835845947,-2.817728817462921 0.07257816381752491,-3.081074059009552 l-0.7652278989553452,-2.510184943675995 -1.5512081980705261,-2.344842851161957 l-1.9626526534557343,-1.8141888082027435 -2.2442519664764404,-1.281309723854065 l-2.569219470024109,-0.749090164899826 -2.7596431970596313,-0.2154300920665264 m-8.582432270050049,11.306875944137573 l-0.5932742729783058,0.4433465749025345 -3.683769106864929,4.621348679065704 l-5.659065842628479,8.517428636550903 -2.7500036358833313,5.268657207489014 l-1.2590625882148743,3.517847955226898 -0.18106456845998764,1.651207059621811 l0.2737704664468765,1.0746973752975464 0.7616765797138214,0.8979927748441696 l2.0714229345321655,1.1358913779258728 3.1046223640441895,0.8585990965366364 l5.533475875854492,0.6291227787733078 15.972787141799927,0.6330679357051849 l7.118837833404541,-0.8658891916275024 3.034317195415497,-1.1220552027225494 l1.3938923180103302,-1.1383238434791565 1.0216416418552399,-2.2249636054039 l0.22500330582261086,-3.2748305797576904 -0.6756015121936798,-3.4255456924438477 l-2.0766347646713257,-4.588262438774109 -2.689395844936371,-4.185860753059387 l-3.0835357308387756,-3.4107333421707153 -3.402218818664551,-2.572838068008423 l-2.6431164145469666,-1.226799562573433 m-8.828909993171692,-0.1760871522128582 l-2.284630537033081,-3.104059100151062 -3.8946834206581116,-4.892081916332245 l-4.1482990980148315,-4.364379048347473 -3.8186392188072205,-2.9261311888694763 l-3.076416850090027,-1.502133160829544 -2.2108885645866394,-0.4809390753507614 l-1.6414619982242584,0.04422891419380903 -1.7839562892913818,0.8255164325237274 l-1.8565946817398071,1.8194599449634552 -1.2758435308933258,2.479253262281418 l-0.4697251692414284,2.0914743840694427 0.03374958178028464,2.862347662448883 l0.8637796342372894,2.4618200957775116 2.3026475310325623,3.282279372215271 l6.569568514823914,5.971775650978088 7.700486183166504,5.184921622276306 l3.7175020575523376,3.0990445613861084 2.855363190174103,1.9880343973636627 m16.31583333015442,-14.165902137756348 l1.5984734892845154,-1.936456710100174 5.005199313163757,-6.159264445304871 l4.665309190750122,-4.329676032066345 3.1409886479377747,-1.8723340332508087 l2.1928702294826508,-0.6327079981565475 2.8642961382865906,-0.035540161188691854 " fill="none" stroke="black" stroke-width="1" /></svg>