<?xml version="1.0" encoding="utf-8" ?>
<svg baseProfile="full" height="2205.0" version="1.1" width="2470.0" xmlns="http://www.w3.org/2000/svg" xmlns:ev="http://www.w3.org/2001/xml-events" xmlns:xlink="http://www.w3.org/1999/xlink"><defs /><rect fill="white" height="2205.0" width="2470.0" x="0" y="0" /><path d="M960.0,330.0 m-20.0,-60.0 l-115.0,-110.0 -170.0,-105.0 l-120.0,-30.0 -105.0,0.0 l-175.0,65.0 -105.0,70.0 l-105.0,145.0 -20.0,185.0 l90.0,155.0 90.0,100.0 l205.0,180.0 195.0,105.0 l180.0,65.0 -220.0,-5.0 l-90.0,35.0 -60.0,45.0 l-95.0,150.0 -40.0,120.0 l-25.0,185.0 5.0,170.0 l115.0,165.0 45.0,40.0 l155.0,75.0 250.0,35.0 l290.0,0.0 150.0,-15.0 l60.0,-25.0 m-295.0,-1795.0 l-50.0,260.0 -40.0,285.0 l-10.0,195.0 -75.0,485.0 l-15.0,605.0 m235.0,-1795.0 l-25.0,-40.0 20.0,-95.0 l130.0,-105.0 65.0,-25.0 l60.0,10.0 105.0,85.0 l80.0,135.0 40.0,230.0 l-5.0,155.0 -195.0,685.0 l-40.0,220.0 -15.0,290.0 l-60.0,160.0 -65.0,95.0 l-55.0,45.0 -80.0,25.0 l-130.0,0.0 -60.0,-70.0 l0.0,-85.0 40.0,-185.0 m710.0,-1575.0 l10.0,-60.0 25.0,-40.0 l160.0,-100.0 90.0,-20.0 l255.0,-5.0 75.0,25.0 l95.0,65.0 115.0,230.0 l25.0,110.0 -15.0,115.0 l-140.0,180.0 -190.0,130.0 l-375.0,165.0 -165.0,100.0 l-120.0,35.0 220.0,-50.0 l175.0,0.0 80.0,30.0 " fill="none" stroke="black" stroke-width="1" /></svg>