<?xml version="1.0" encoding="utf-8" ?>
<svg baseProfile="full" height="66.76690764725208" version="1.1" width="123.28463667072356" xmlns="http://www.w3.org/2000/svg" xmlns:ev="http://www.w3.org/2001/xml-events" xmlns:xlink="http://www.w3.org/1999/xlink"><defs /><rect fill="white" height="66.76690764725208" width="123.28463667072356" x="0" y="0" /><path d="M29.298934801627183,26.56577047891915 m-1.4832866191864014,4.548070430755615 l-1.0001732409000397,5.576063394546509 -0.0005169260839466006,1.5855316817760468 l0.6859712302684784,0.4416331648826599 9.171128273010254,0.8653996139764786 l15.965392589569092,0.8573347330093384 34.3324613571167,0.8920907229185104 l10.865590572357178,0.04710671957582235 0.44913463294506073,-4.434206485748291 l-0.07671386934816837,-7.769923210144043 -1.0439074784517288,-2.600012719631195 l-15.172135829925537,-0.32125696539878845 -20.65290927886963,-0.4670169949531555 l-17.33036160469055,-0.567438080906868 -5.168752074241638,-0.15068191103637218 l-8.46006453037262,-0.06846457254141569 -4.311245679855347,0.2015133947134018 l-1.068546324968338,0.4124588519334793 m15.484094619750977,10.013805627822876 l-1.0941536724567413,0.1649557426571846 -1.0834556072950363,1.244574412703514 l-0.3181386739015579,1.3139264285564423 0.48477306962013245,1.116296797990799 l1.2031116336584091,0.7991241663694382 2.350842207670212,0.4545857012271881 l3.2228440046310425,-0.9048657119274139 0.9378086030483246,-1.3266544044017792 l-0.0003257811476942152,-1.6706518828868866 -2.5201261043548584,-1.303616315126419 l-4.544363915920258,-0.3139697387814522 m32.17089891433716,1.3288860023021698 l-1.7435044050216675,1.3102909922599792 -0.6186797842383385,1.277921348810196 l0.3600452095270157,1.6809087991714478 0.6526442617177963,0.4765033721923828 l3.1251195073127747,0.490914061665535 1.5106910467147827,-2.065589129924774 l-0.2507186308503151,-2.0385484397411346 -1.6790926456451416,-1.140640452504158 l-1.6184793412685394,-0.1761135831475258 m12.272800207138062,0.40780268609523773 l-0.9615292400121689,1.1301188915967941 0.09988122619688511,1.8966177105903625 l0.5769858509302139,0.4570664092898369 1.5425585210323334,0.20718565210700035 l0.8764783293008804,-2.026054263114929 -0.7522965222597122,-1.328158974647522 l-1.5690170228481293,-0.46236641705036163 m-33.1627893447876,-7.430262565612793 l-0.0829978659749031,3.0625227093696594 0.29080644249916077,0.961306020617485 l4.872862994670868,0.06440827157348394 0.22397523745894432,-2.8051623702049255 l-1.0217781364917755,-1.9720885157585144 -5.563493371009827,0.2323690429329872 m12.673358917236328,0.6311976164579391 l0.20783033221960068,3.417958915233612 0.6063760444521904,0.13890731148421764 l4.4576579332351685,-0.3894686698913574 -0.12424064800143242,-2.6578742265701294 l-4.969300031661987,-0.5937853083014488 m11.889249086380005,0.618031732738018 l0.2735261991620064,3.1028661131858826 6.081863045692444,-0.2244863472878933 l-0.19486689940094948,-2.657802700996399 -4.430873394012451,-0.708342120051384 l-2.367527335882187,0.1913125440478325 " fill="none" stroke="black" stroke-width="1" /></svg>