<?xml version="1.0" encoding="utf-8" ?>
<svg baseProfile="full" height="995.0" version="1.1" width="4035.0" xmlns="http://www.w3.org/2000/svg" xmlns:ev="http://www.w3.org/2001/xml-events" xmlns:xlink="http://www.w3.org/1999/xlink"><defs /><rect fill="white" height="995.0" width="4035.0" x="0" y="0" /><path d="M495.0,25 m-75.0,220.0 l-50.0,275.0 -10.0,90.0 l40.0,20.0 425.0,30.0 l735.0,10.0 785.0,45.0 l1630.0,-5.0 25.0,-95.0 l10.0,-465.0 -40.0,-10.0 l-1525.0,-25.0 -440.0,15.0 l-1260.0,0.0 -150.0,5.0 l-430.0,60.0 -85.0,0.0 l-55.0,-50.0 m880.0,535.0 l-245.0,0.0 -60.0,15.0 l-25.0,30.0 5.0,120.0 l65.0,70.0 65.0,25.0 l245.0,0.0 70.0,-15.0 l120.0,-65.0 10.0,-55.0 l-165.0,-115.0 m2485.0,75.0 l-165.0,-5.0 -90.0,25.0 l-105.0,60.0 -25.0,55.0 l5.0,25.0 85.0,35.0 l90.0,10.0 225.0,0.0 l25.0,-155.0 -75.0,-35.0 l-95.0,-15.0 m-2505.0,-635.0 l-15.0,110.0 15.0,50.0 l120.0,20.0 175.0,5.0 l35.0,-50.0 10.0,-110.0 m575.0,-20.0 l10.0,150.0 30.0,15.0 l255.0,-10.0 20.0,-210.0 m680.0,65.0 l-10.0,115.0 15.0,25.0 l385.0,0.0 50.0,-5.0 l35.0,-165.0 m375.0,55.0 l-10.0,115.0 25.0,30.0 l135.0,5.0 115.0,-30.0 l15.0,-25.0 0.0,-150.0 " fill="none" stroke="black" stroke-width="1" /></svg>