<?xml version="1.0" encoding="utf-8" ?>
<svg baseProfile="full" height="1080.0" version="1.1" width="850.0" xmlns="http://www.w3.org/2000/svg" xmlns:ev="http://www.w3.org/2001/xml-events" xmlns:xlink="http://www.w3.org/1999/xlink"><defs /><rect fill="white" height="1080.0" width="850.0" x="0" y="0" /><path d="M460.0,440.0 m-70.0,-20.0 l-105.0,20.0 -125.0,90.0 l-95.0,125.0 -20.0,70.0 l-5.0,130.0 35.0,70.0 l50.0,50.0 140.0,75.0 l165.0,5.0 80.0,-25.0 l140.0,-120.0 55.0,-75.0 l55.0,-130.0 0.0,-115.0 l-40.0,-50.0 -160.0,-85.0 l-205.0,-35.0 m65.0,265.0 l-35.0,10.0 -95.0,90.0 m10.0,-95.0 l10.0,110.0 70.0,-65.0 m85.0,-75.0 l20.0,-65.0 95.0,-110.0 m-140.0,55.0 l25.0,-35.0 40.0,-15.0 l110.0,-10.0 10.0,45.0 l-40.0,45.0 m-175.0,-145.0 l20.0,-145.0 70.0,-80.0 l150.0,-60.0 95.0,10.0 l10.0,50.0 -125.0,-10.0 l-50.0,60.0 20.0,30.0 l70.0,-10.0 20.0,-35.0 l0.0,-55.0 -25.0,-20.0 l-60.0,0.0 -20.0,25.0 l-5.0,70.0 40.0,15.0 l70.0,-15.0 10.0,-80.0 l-40.0,-30.0 -35.0,0.0 l-25.0,50.0 -50.0,0.0 m100.0,10.0 l-55.0,-35.0 -65.0,5.0 l-45.0,55.0 0.0,75.0 l25.0,35.0 50.0,25.0 l125.0,5.0 105.0,-60.0 l25.0,-25.0 10.0,-45.0 l-70.0,-35.0 -185.0,5.0 l-85.0,50.0 -5.0,90.0 l115.0,5.0 50.0,-30.0 l30.0,-45.0 0.0,-85.0 l-35.0,-20.0 -95.0,15.0 l-30.0,70.0 m-110.0,190.0 l30.0,-235.0 0.0,-115.0 l-30.0,-40.0 -115.0,-35.0 l-130.0,5.0 -95.0,50.0 l-40.0,55.0 0.0,30.0 l105.0,10.0 m90.0,-70.0 l-60.0,20.0 -5.0,90.0 l105.0,15.0 50.0,-15.0 l20.0,-35.0 0.0,-60.0 l-50.0,0.0 -50.0,20.0 l-35.0,70.0 -5.0,120.0 l65.0,10.0 25.0,-45.0 l-10.0,-105.0 -30.0,-20.0 l-40.0,0.0 -35.0,20.0 l0.0,85.0 m485.0,315.0 l-10.0,70.0 m-60.0,115.0 l40.0,-20.0 5.0,35.0 l-50.0,50.0 20.0,15.0 m-140.0,-5.0 l25.0,-10.0 0.0,50.0 " fill="none" stroke="black" stroke-width="1" /></svg>