<?xml version="1.0" encoding="utf-8" ?>
<svg baseProfile="full" height="85.23747703060508" version="1.1" width="92.36100891139358" xmlns="http://www.w3.org/2000/svg" xmlns:ev="http://www.w3.org/2001/xml-events" xmlns:xlink="http://www.w3.org/1999/xlink"><defs /><rect fill="white" height="85.23747703060508" width="92.36100891139358" x="0" y="0" /><path d="M49.41905127838254,26.53573226649314 m-1.4041447639465332,-0.4643386974930763 l-2.745402157306671,0.05709686782211065 -1.7602287232875824,0.6614504009485245 l-1.5735524892807007,1.2699432671070099 -1.53678297996521,2.525603771209717 l-0.5837665870785713,3.0110204219818115 0.3715984523296356,2.8153103590011597 l1.4585578441619873,1.9346456229686737 2.2814571857452393,1.1981848627328873 l3.6985036730766296,0.20640837028622627 2.180524468421936,-0.8166049420833588 l1.9624748826026917,-1.6096414625644684 1.3959479331970215,-2.134416103363037 l0.7181116193532944,-2.5430962443351746 0.021959375590085983,-2.617385983467102 l-0.7312792539596558,-2.02585369348526 -1.425279676914215,-1.675545871257782 l-1.8365132808685303,-1.0238035768270493 -2.073006331920624,-0.30470963567495346 l-1.9990596175193787,0.2564840391278267 m-1.9147667288780212,11.91102147102356 l-0.2981051430106163,1.401781290769577 -1.3432605564594269,3.4835362434387207 l-2.042311429977417,4.159721732139587 -1.3976985216140747,2.9783889651298523 l-1.0123307257890701,2.829623818397522 -0.27521563693881035,2.380736917257309 l0.39131809026002884,2.0647983253002167 1.2200824171304703,1.7786289751529694 l1.3487602770328522,1.0017066448926926 2.1838898956775665,0.7996673136949539 l2.5044944882392883,0.1913812942802906 2.32586532831192,-0.509444884955883 l2.3294173181056976,-1.2960992753505707 1.9755984842777252,-2.0044706761837006 l1.482924073934555,-2.757044732570648 0.791216716170311,-3.198997676372528 l0.1802239753305912,-3.3272236585617065 -0.520709902048111,-3.0580970644950867 l-1.1488573998212814,-2.5345662236213684 -1.6305842995643616,-2.1348057687282562 l-1.924111247062683,-1.4952421188354492 -2.123791128396988,-0.8744162321090698 m-3.4211835265159607,5.964679718017578 l-0.4029425233602524,-0.621386356651783 -0.7686974108219147,-1.0624831914901733 l-3.0683547258377075,-3.330131769180298 -3.8484081625938416,-3.357539474964142 l-2.0323511958122253,-1.2731857597827911 -2.003815323114395,-0.687512680888176 l-2.1235504746437073,-0.10586977936327457 -1.2871310114860535,0.4662458598613739 l-1.585211157798767,1.6183672845363617 -1.043071374297142,2.348451465368271 l-0.35650230944156647,2.902337908744812 0.2720953896641731,3.472331166267395 l0.8621962368488312,2.0913787186145782 1.2968690693378448,1.7860311269760132 l1.6982422769069672,1.498333215713501 3.00749808549881,1.5256229043006897 l2.4733291566371918,0.5640961602330208 2.48226061463356,0.0747890630736947 l1.9518771767616272,-0.5213409289717674 1.7551636695861816,-1.1761347949504852 l1.244589164853096,-1.647716909646988 0.6101429462432861,-1.7904993891716003 m7.701232433319092,-2.970457077026367 l0.7215773314237595,-1.086936742067337 2.1265707910060883,-1.844957321882248 l3.552803099155426,-2.232660949230194 2.599169611930847,-0.9301813691854477 l2.373093068599701,-0.23081602528691292 1.8729312717914581,0.41935838758945465 l1.7536714673042297,1.1794135719537735 1.2742865085601807,1.7560017108917236 l0.6648831069469452,2.2391802072525024 0.0665264343842864,2.5511515140533447 l-0.6569494307041168,2.276732623577118 -1.2328964471817017,1.939697414636612 l-1.7241989076137543,1.5531082451343536 -2.096894681453705,1.0538102686405182 l-2.471305876970291,0.4636743664741516 -2.6166951656341553,-0.1274125836789608 l-3.2437413930892944,-1.350945383310318 -1.9492171704769135,-1.594260334968567 l-0.7970868796110153,-1.3643945753574371 m-5.436081290245056,-8.133944272994995 l-0.7748222351074219,-0.4882807657122612 -0.49333199858665466,-1.262253224849701 l-0.08203781209886074,-1.5232965350151062 0.24288363754749298,-1.2978096306324005 l1.097058281302452,-1.3440059125423431 1.841207891702652,-0.6982186436653137 l2.080085277557373,0.1043076254427433 1.3376890122890472,0.8347000926733017 l0.624641515314579,1.0302651673555374 0.18662204965949059,1.977546066045761 l-0.5068212375044823,1.6757147014141083 -0.771128237247467,0.9854985773563385 l-1.4376267790794373,0.9040193259716034 -1.836572289466858,0.3525957092642784 l-1.7140291631221771,-0.30103178694844246 -0.7758018374443054,-0.6613060832023621 l-0.4134844243526459,-1.0926589369773865 -0.04615190904587507,-1.2654021382331848 l0.6278253346681595,-1.4209386706352234 1.9975779950618744,-1.6298845410346985 l2.009081691503525,-0.5216842517256737 1.7290259897708893,0.12318314984440804 l0.8958036452531815,0.5603209882974625 0.5685953795909882,0.931485965847969 l0.22977327927947044,1.7824234068393707 -0.39047248661518097,1.6807368397712708 l-1.1019687354564667,1.4574949443340302 -1.5175402164459229,0.8768956363201141 l-1.7832060158252716,0.26829788461327553 -1.6099277138710022,-0.37739384919404984 l-1.2594380974769592,-1.1388525366783142 -0.5881877616047859,-1.248147189617157 l-0.1418238878250122,-1.2616918981075287 " fill="none" stroke="black" stroke-width="1" /></svg>