<?xml version="1.0" encoding="utf-8" ?>
<svg baseProfile="full" height="75.68243019282818" version="1.1" width="130.26672777719796" xmlns="http://www.w3.org/2000/svg" xmlns:ev="http://www.w3.org/2001/xml-events" xmlns:xlink="http://www.w3.org/1999/xlink"><defs /><rect fill="white" height="75.68243019282818" width="130.26672777719796" x="0" y="0" /><path d="M28.46725918352604,35.459211403504014 m16.620826721191406,0.24599270895123482 l25.393006801605225,0.7249300926923752 24.405109882354736,0.5596675723791122 l5.573928356170654,-0.09150330908596516 2.163066416978836,-0.30333517119288445 l1.4829982817173004,-0.7424736022949219 1.0797535628080368,-1.389288455247879 l0.08077857084572315,-1.465219259262085 -0.8732808381319046,-1.183876395225525 l-2.374357432126999,-1.654336005449295 -4.913952648639679,-2.008659839630127 l-6.540009379386902,-1.5970711410045624 -10.948563814163208,-1.2962064146995544 l-18.513742685317993,-0.2578321844339371 -18.51258873939514,2.075973153114319 l-10.26975393295288,2.5322335958480835 -3.778029680252075,1.5891508758068085 l-2.3137937486171722,1.6678030788898468 -1.1269371956586838,1.7468668520450592 l-0.10171768255531788,1.3071049749851227 0.639132559299469,0.966917872428894 l2.185557335615158,1.2809565663337708 3.479025363922119,0.9682169556617737 l8.556331992149353,1.0609471797943115 14.753843545913696,1.1840766668319702 l8.543486595153809,0.19452271983027458 14.724472761154175,-0.558394268155098 l9.076969623565674,-1.2193097174167633 7.802060842514038,-1.8904156982898712 l5.966246128082275,-2.4693578481674194 2.18718558549881,-1.645883470773697 l0.675506591796875,-1.3078631460666656 -0.2071414701640606,-1.4333024621009827 l-1.4410600066184998,-1.4432062208652496 -2.5784483551979065,-1.3581392168998718 l-3.3561155200004578,-1.078144684433937 -6.024578213691711,-0.9265917539596558 l-6.78233802318573,-0.2512754499912262 -16.434972286224365,0.8002063632011414 l-10.901023149490356,1.714988797903061 -9.558183550834656,2.3085518181324005 l-5.756351947784424,1.916932612657547 -4.656129479408264,2.1025334298610687 l-2.432720512151718,1.6079527139663696 -1.6645216941833496,1.721491515636444 l-0.8558344841003418,1.9288522005081177 -0.02748879138380289,1.5208277106285095 l0.647774338722229,1.0915520787239075 1.318361908197403,0.8713175356388092 l2.7852487564086914,0.8127838373184204 5.506836771965027,0.6573896110057831 l9.298453330993652,0.35748522728681564 10.06442904472351,-0.26917075738310814 l9.53790009021759,-0.9630076587200165 9.157121777534485,-1.7971965670585632 l7.8207820653915405,-2.3988962173461914 4.257773160934448,-1.9156630337238312 l2.059323340654373,-1.5881365537643433 0.8437873423099518,-1.3697133958339691 l-0.08450357243418694,-1.343248188495636 -1.323980838060379,-1.37788325548172 l-2.565258741378784,-1.3424035906791687 -3.381235897541046,-1.0570868849754333 l-3.933568000793457,-0.7297497987747192 -6.210994124412537,-0.3161275386810303 l-6.326003074645996,0.3195330873131752 -8.980428576469421,1.6256365180015564 l-8.340044021606445,2.3653259873390198 -7.167494893074036,2.645244598388672 l-4.243399202823639,2.123374789953232 -2.9985660314559937,2.1777120232582092 l-1.5451231598854065,1.7970529198646545 -0.7608341425657272,2.0375870168209076 l0.055242604576051235,1.5114469826221466 1.0530337691307068,1.6266514360904694 l2.186756879091263,1.4785823225975037 3.1610995531082153,1.0539823770523071 l3.884854316711426,0.5678484216332436 8.177806735038757,0.4149831458926201 l9.49404001235962,-0.3138122707605362 9.247046709060669,-1.238122582435608 l5.761393308639526,-1.3659416139125824 3.244958519935608,-1.318366676568985 l2.432272434234619,-1.6539473831653595 1.5109334886074066,-1.9301559031009674 l0.6237853690981865,-2.38408625125885 -0.3747592121362686,-2.251994013786316 l-1.4232377707958221,-1.9282253086566925 -2.236977368593216,-1.6487930715084076 l-2.9161447286605835,-1.3605625927448273 -3.4036344289779663,-1.0019800812005997 l-3.8182350993156433,-0.5800209194421768 -5.943066477775574,-0.06076222285628319 l-6.044256687164307,0.8242429047822952 -3.6545082926750183,1.0396793484687805 l-3.166860044002533,1.355208307504654 -2.4257859587669373,1.5330128371715546 l-1.7934471368789673,1.735045164823532 -1.175040751695633,2.030322551727295 l-0.5572359263896942,3.258183002471924 0.30319923534989357,1.7325380444526672 l1.2498115748167038,1.795583963394165 2.1235138177871704,1.4605620503425598 l2.913832664489746,0.9735493361949921 3.6041396856307983,0.4320720210671425 l7.472577691078186,-0.05452435929328203 7.202628254890442,-1.2864138185977936 l3.362521231174469,-1.188669502735138 2.3498718440532684,-1.5179339051246643 l1.3575933873653412,-1.8034708499908447 0.4467577859759331,-2.1835821866989136 l-0.44311847537755966,-2.136596441268921 -1.4323639869689941,-1.788412630558014 l-2.32337087392807,-1.5958645939826965 -2.9443874955177307,-1.2310381978750229 l-3.4126555919647217,-0.8201447129249573 -3.798949718475342,-0.3780066594481468 l-3.6440330743789673,0.009469015058130026 -3.2245290279388428,0.5261160433292389 l-3.0440425872802734,1.0647479444742203 -2.452140748500824,1.4187251031398773 l-1.7269712686538696,1.6687534749507904 -1.0141593217849731,1.9808712601661682 l-0.19196771085262299,2.3035545647144318 0.49873072654008865,1.3530147075653076 l1.5836270153522491,1.5880607068538666 2.4422070384025574,1.163148358464241 l3.134554922580719,0.568971186876297 6.786337494850159,0.012530847452580929 " fill="none" stroke="black" stroke-width="1" /></svg>