<?xml version="1.0" encoding="utf-8" ?>
<svg baseProfile="full" height="2390.0" version="1.1" width="3885.0" xmlns="http://www.w3.org/2000/svg" xmlns:ev="http://www.w3.org/2001/xml-events" xmlns:xlink="http://www.w3.org/1999/xlink"><defs /><rect fill="white" height="2390.0" width="3885.0" x="0" y="0" /><path d="M120.0,1340.0 m795.0,0.0 l525.0,-20.0 2355.0,5.0 l-30.0,-340.0 25.0,-185.0 l10.0,-255.0 -15.0,-335.0 l35.0,-175.0 -30.0,-10.0 l-515.0,65.0 -1040.0,25.0 l-1340.0,70.0 -495.0,0.0 l-255.0,35.0 -25.0,10.0 l30.0,175.0 30.0,600.0 l-5.0,300.0 m290.0,-905.0 l25.0,250.0 305.0,10.0 l250.0,-15.0 -25.0,-310.0 l-155.0,45.0 -430.0,45.0 m835.0,-15.0 l5.0,195.0 390.0,-45.0 l270.0,0.0 215.0,25.0 l-25.0,-5.0 -5.0,-30.0 l0.0,-275.0 -25.0,-40.0 l-30.0,-15.0 -180.0,0.0 l-760.0,160.0 m1405.0,-145.0 l-20.0,35.0 -50.0,405.0 l390.0,-40.0 190.0,-40.0 l175.0,-10.0 15.0,-35.0 l0.0,-185.0 25.0,-265.0 l-330.0,85.0 -215.0,20.0 m-2130.0,1220.0 l-110.0,15.0 -110.0,55.0 l-205.0,200.0 -80.0,135.0 l-40.0,130.0 -10.0,235.0 l45.0,85.0 80.0,60.0 l120.0,25.0 130.0,-5.0 l110.0,-60.0 75.0,-75.0 l60.0,-85.0 30.0,-75.0 l10.0,-190.0 -65.0,-235.0 l-50.0,-110.0 -70.0,-85.0 l-125.0,-80.0 -65.0,0.0 l-95.0,30.0 m1975.0,-15.0 l-380.0,-5.0 -240.0,75.0 l-270.0,135.0 -220.0,190.0 l-60.0,85.0 -40.0,95.0 l-10.0,65.0 15.0,80.0 l75.0,65.0 135.0,40.0 l170.0,5.0 190.0,-35.0 l165.0,-70.0 140.0,-85.0 l130.0,-105.0 190.0,-210.0 l50.0,-110.0 10.0,-140.0 l-30.0,-135.0 -70.0,-90.0 l-85.0,-40.0 -85.0,-20.0 l-190.0,0.0 m1600.0,180.0 l-65.0,-10.0 -220.0,35.0 l-180.0,60.0 -350.0,160.0 l-130.0,85.0 -90.0,100.0 l-55.0,100.0 -15.0,90.0 l15.0,85.0 85.0,75.0 l135.0,60.0 165.0,25.0 l195.0,-5.0 375.0,-125.0 l180.0,-90.0 165.0,-115.0 l130.0,-120.0 95.0,-120.0 l40.0,-95.0 5.0,-95.0 l-50.0,-85.0 -105.0,-75.0 l-165.0,-60.0 -170.0,-20.0 l-185.0,0.0 -100.0,20.0 " fill="none" stroke="black" stroke-width="1" /></svg>