<?xml version="1.0" encoding="utf-8" ?>
<svg baseProfile="full" height="69.35108259320259" version="1.1" width="72.52162491902709" xmlns="http://www.w3.org/2000/svg" xmlns:ev="http://www.w3.org/2001/xml-events" xmlns:xlink="http://www.w3.org/1999/xlink"><defs /><rect fill="white" height="69.35108259320259" width="72.52162491902709" x="0" y="0" /><path d="M39.89789832383394,27.258864417672157 m-0.668429359793663,-0.3366188332438469 l-2.8014039993286133,-0.2787751145660877 -7.293775677680969,0.728682205080986 l-1.7987576127052307,0.8208592981100082 -1.72890305519104,1.8577821552753448 l-0.6066286191344261,2.4645188450813293 0.4561465233564377,2.5991788506507874 l2.5877538323402405,2.469381093978882 6.702172160148621,1.9295893609523773 l6.65397047996521,-0.22458013147115707 3.0819743871688843,-1.2589378654956818 l1.8464048206806183,-1.640286147594452 1.0154812037944794,-2.079070806503296 l0.1777215115725994,-2.42387592792511 -0.7993081212043762,-2.0435313880443573 l-1.720162183046341,-1.9981928169727325 -2.1532687544822693,-1.3589273393154144 l-2.4474965035915375,-0.7568841427564621 -2.7483367919921875,-0.17634933814406395 m-8.102495670318604,7.20209002494812 l-0.7192766666412354,2.0855839550495148 -0.08023664355278015,7.253243923187256 l8.879749178886414,1.5285097062587738 7.772893905639648,0.7288286089897156 l0.9905745834112167,-0.6395845860242844 0.5531386286020279,-1.1746198683977127 l-0.0007855208968976513,-6.975733637809753 -0.44297780841588974,-2.9899492859840393 m-14.85080361366272,-0.30238382518291473 l-0.1504825334995985,-2.887963354587555 -0.43893367052078247,-3.9793244004249573 l1.6781248152256012,-0.4015236347913742 0.48983849585056305,0.30255574733018875 l0.024748751893639565,6.993723511695862 -0.07746373303234577,1.6130436956882477 m3.8106298446655273,-3.808164894580841 l0.05041415337473154,-3.540644943714142 1.8520037829875946,-0.7662831246852875 l0.4912601038813591,0.296904481947422 0.04847297444939613,5.794067978858948 l-0.3777746111154556,1.412840336561203 m2.345321625471115,-2.036258578300476 l0.008985261665657163,-3.676900267601013 2.266266644001007,-0.35134464502334595 l0.47225620597600937,0.3781086578965187 -0.01840431708842516,5.5491191148757935 " fill="none" stroke="black" stroke-width="1" /></svg>