<?xml version="1.0" encoding="utf-8" ?>
<svg baseProfile="full" height="690.0" version="1.1" width="1315.0" xmlns="http://www.w3.org/2000/svg" xmlns:ev="http://www.w3.org/2001/xml-events" xmlns:xlink="http://www.w3.org/1999/xlink"><defs /><rect fill="white" height="690.0" width="1315.0" x="0" y="0" /><path d="M850.0,80.0 m-30.0,-15.0 l-375.0,0.0 -235.0,55.0 l-90.0,55.0 -45.0,85.0 l5.0,80.0 90.0,80.0 l135.0,55.0 80.0,10.0 l450.0,5.0 135.0,-25.0 l105.0,-50.0 50.0,-45.0 l35.0,-60.0 5.0,-125.0 l-30.0,-40.0 -80.0,-75.0 l-55.0,-25.0 -260.0,-20.0 m-715.0,330.0 l50.0,180.0 20.0,25.0 l150.0,5.0 235.0,60.0 l180.0,15.0 175.0,-5.0 l250.0,-65.0 50.0,-40.0 l15.0,-95.0 m140.0,-180.0 l0.0,-20.0 m-760.0,260.0 l-30.0,165.0 430.0,5.0 l-40.0,-55.0 -25.0,-70.0 l-40.0,-20.0 -330.0,-15.0 m-410.0,-165.0 l15.0,-35.0 95.0,-50.0 l170.0,-55.0 265.0,-55.0 l270.0,10.0 180.0,40.0 l75.0,40.0 " fill="none" stroke="black" stroke-width="1" /></svg>