<?xml version="1.0" encoding="utf-8" ?>
<svg baseProfile="full" height="83.72646920528496" version="1.1" width="103.44085787422955" xmlns="http://www.w3.org/2000/svg" xmlns:ev="http://www.w3.org/2001/xml-events" xmlns:xlink="http://www.w3.org/1999/xlink"><defs /><rect fill="white" height="83.72646920528496" width="103.44085787422955" x="0" y="0" /><path d="M48.97368919077053,51.76846992888386 m-1.7456267774105072,-2.866337299346924 l-0.45285142958164215,-1.5417321026325226 0.07609771098941565,-6.100261211395264 l0.8708953112363815,-4.864769279956818 1.2544195353984833,-2.8903964161872864 l0.6470242142677307,-0.3745907172560692 0.4052172973752022,0.5197105184197426 l1.3624264299869537,8.582655191421509 0.23366371169686317,6.1418986320495605 l-0.261735413223505,2.650412619113922 -0.7070737332105637,0.5663079768419266 l-1.3254152238368988,-0.11396395973861217 -0.4833752289414406,-0.5853526294231415 m0.5520005896687508,-19.576104879379272 l0.0208616117015481,-0.9001170098781586 1.124839410185814,-2.3275384306907654 l1.3943573832511902,-1.4079956710338593 1.3588632643222809,-0.5706020072102547 l1.1673180013895035,0.08983106352388859 1.2327326834201813,1.0249842703342438 l0.5667848885059357,1.1746619641780853 0.15219762921333313,1.7648154497146606 l-0.4207336902618408,1.0954974591732025 -0.7797981053590775,0.6195447593927383 l-1.6857202351093292,0.37074316293001175 -1.6120201349258423,-0.628536120057106 l-0.4405180737376213,-0.7992126047611237 m-0.905066654086113,-0.7865606248378754 l-0.0001226228596351575,0.0002937038334493991 m3.116579055786133,-0.1736963540315628 l0.0005814019459648989,0.0007067473779898137 m-3.0950799584388733,1.9651319086551666 l0.4840601235628128,0.13297265395522118 1.1423012614250183,-0.30915239825844765 l0.6331953406333923,-0.6951291114091873 -0.3681870922446251,-0.42339976876974106 m-1.8051114678382874,3.390197455883026 l-0.40903788059949875,-0.0007428354001604021 -0.7462596148252487,-0.41961804032325745 l-0.8217020332813263,-0.8362627774477005 -0.4445382207632065,-0.8569838851690292 l-0.2846040762960911,-1.3148947060108185 0.05934162065386772,-1.8293766677379608 l0.8326336741447449,-2.0064881443977356 1.2609809637069702,-1.1559706181287766 l1.4688849449157715,-0.5030491948127747 1.9905874133110046,0.26007315143942833 l1.6696789860725403,1.5958556532859802 0.7825301587581635,2.694529891014099 l-0.34103021025657654,2.5751593708992004 -1.5255297720432281,1.9042667746543884 l-2.2729338705539703,1.2239505350589752 m-0.8665072917938232,4.494291543960571 l2.0415309071540833,-0.9718208014965057 4.550296664237976,-2.7498185634613037 l4.893541038036346,-2.8402286767959595 4.794986546039581,-2.1832340955734253 l4.176348447799683,-1.1642643809318542 2.7396875619888306,0.0004352597170509398 l2.2102850675582886,1.1621833592653275 1.5649782121181488,2.470918893814087 l0.4350384324789047,3.199882209300995 -0.8576299250125885,3.5471391677856445 l-1.1258716881275177,1.9085094332695007 -2.541065812110901,2.4900728464126587 l-3.7352973222732544,2.1683302521705627 -4.6777719259262085,1.5873026847839355 l-5.23495614528656,0.7602998614311218 -2.651647627353668,-0.05319440271705389 l-3.1003260612487793,-0.8242876082658768 -1.584499031305313,-0.7600905746221542 l-1.479087918996811,-1.484212875366211 m-2.888158857822418,-7.114611864089966 l-1.534690409898758,-1.407589167356491 -2.8732308745384216,-2.0824886858463287 l-3.899160623550415,-1.8652276694774628 -4.194920659065247,-1.1190952360630035 l-3.828490376472473,-0.21888479590415955 -3.465541899204254,0.853421688079834 l-1.7959831655025482,1.1624569445848465 -1.2291478365659714,1.4581350982189178 l-0.6424927711486816,1.6798901557922363 -0.10088694281876087,2.8581073880195618 l0.7421712577342987,1.9859597086906433 1.4174434542655945,1.6702035069465637 l1.9554705917835236,1.3060763478279114 3.7164369225502014,1.2093979865312576 l4.825640022754669,0.3989911451935768 7.25386381149292,-1.0564955323934555 l2.614680826663971,-1.040487214922905 1.3537904620170593,-1.1128441989421844 l0.6270590424537659,-1.25299870967865 -0.041959923692047596,-2.061447948217392 l-0.8753331005573273,-1.6699206829071045 -1.4658097922801971,-1.1223813891410828 m-5.296991467475891,7.017140984535217 l-0.9210740029811859,5.128173828125 -1.5809816122055054,5.372558236122131 l-1.4380759000778198,3.7383803725242615 " fill="none" stroke="black" stroke-width="1" /></svg>