<?xml version="1.0" encoding="utf-8" ?>
<svg baseProfile="full" height="1950.0" version="1.1" width="2330.0" xmlns="http://www.w3.org/2000/svg" xmlns:ev="http://www.w3.org/2001/xml-events" xmlns:xlink="http://www.w3.org/1999/xlink"><defs /><rect fill="white" height="1950.0" width="2330.0" x="0" y="0" /><path d="M1210.0,1925.0 m-90.0,-150.0 l-20.0,-75.0 25.0,-175.0 l-10.0,-515.0 40.0,-115.0 l75.0,-130.0 60.0,-25.0 l25.0,80.0 20.0,255.0 l10.0,670.0 -65.0,110.0 l-55.0,15.0 -30.0,-25.0 m40.0,-1120.0 l-20.0,-25.0 5.0,-110.0 l50.0,-35.0 55.0,10.0 l20.0,25.0 40.0,120.0 l-5.0,25.0 -25.0,5.0 l-50.0,0.0 -15.0,-15.0 m35.0,-225.0 l80.0,-115.0 65.0,-155.0 l105.0,-140.0 m5.0,-20.0 l-5.0,50.0 25.0,-15.0 l5.0,-25.0 -25.0,-5.0 l-10.0,15.0 m-340.0,430.0 l-70.0,-135.0 -40.0,-125.0 l-20.0,-165.0 m-20.0,-55.0 l-5.0,25.0 25.0,10.0 l25.0,-10.0 10.0,-25.0 l-15.0,-15.0 m220.0,805.0 l35.0,-65.0 55.0,-45.0 l145.0,-75.0 195.0,-45.0 l225.0,-5.0 150.0,40.0 l85.0,50.0 70.0,155.0 l5.0,110.0 -20.0,55.0 l-60.0,80.0 -195.0,135.0 l-180.0,55.0 -240.0,5.0 l230.0,40.0 180.0,85.0 l50.0,110.0 5.0,135.0 l-10.0,60.0 -50.0,50.0 l-155.0,65.0 -335.0,5.0 l-240.0,-30.0 m-115.0,-950.0 l-130.0,-185.0 -60.0,-50.0 l-90.0,-20.0 -390.0,-5.0 l-415.0,235.0 -25.0,25.0 l-25.0,70.0 -10.0,180.0 l20.0,75.0 35.0,60.0 l135.0,95.0 195.0,85.0 l150.0,35.0 445.0,30.0 l25.0,-10.0 5.0,-25.0 l-65.0,-25.0 -195.0,0.0 l-105.0,20.0 -55.0,30.0 l-40.0,65.0 -20.0,80.0 l10.0,125.0 15.0,30.0 l60.0,45.0 245.0,65.0 l60.0,0.0 85.0,-35.0 m805.0,-1185.0 " fill="none" stroke="black" stroke-width="1" /></svg>