<?xml version="1.0" encoding="utf-8" ?>
<svg baseProfile="full" height="1965.0" version="1.1" width="1620.0" xmlns="http://www.w3.org/2000/svg" xmlns:ev="http://www.w3.org/2001/xml-events" xmlns:xlink="http://www.w3.org/1999/xlink"><defs /><rect fill="white" height="1965.0" width="1620.0" x="0" y="0" /><path d="M25,1360.0 m30.0,-15.0 l540.0,-45.0 990.0,0.0 l10.0,400.0 -25.0,190.0 l-20.0,35.0 -35.0,15.0 l-105.0,-15.0 -690.0,0.0 l-70.0,-15.0 -485.0,-15.0 l-60.0,-90.0 -30.0,-195.0 l-10.0,-235.0 m55.0,-90.0 l0.0,0.0 m55.0,20.0 l-5.0,-265.0 20.0,-55.0 l25.0,-10.0 250.0,0.0 l120.0,15.0 810.0,0.0 l15.0,305.0 m-965.0,-345.0 l25.0,-545.0 380.0,65.0 l295.0,20.0 5.0,440.0 m-440.0,-525.0 l-5.0,-235.0 m165.0,255.0 l0.0,-215.0 m130.0,225.0 l0.0,-200.0 m0.0,-195.0 l0.0,0.0 m-10.0,0.0 l25.0,-15.0 " fill="none" stroke="black" stroke-width="1" /></svg>