<?xml version="1.0" encoding="utf-8" ?>
<svg baseProfile="full" height="67.68656785367057" version="1.1" width="85.67839320749044" xmlns="http://www.w3.org/2000/svg" xmlns:ev="http://www.w3.org/2001/xml-events" xmlns:xlink="http://www.w3.org/1999/xlink"><defs /><rect fill="white" height="67.68656785367057" width="85.67839320749044" x="0" y="0" /><path d="M25,34.495743578954716 m0.3274698182940483,-0.20196296274662018 l7.686587572097778,-0.49748122692108154 27.3262882232666,-0.230123121291399 l0.338047593832016,3.49787175655365 -0.14510688371956348,4.677643775939941 l-0.3510364890098572,0.5280960351228714 -0.9326313436031342,0.41639193892478943 l-5.801249146461487,0.0003880791336996481 -6.072688102722168,-0.16136620193719864 l-13.4006667137146,-0.033463079016655684 -7.633041739463806,-0.6209544837474823 l-0.5353685840964317,-0.5159272998571396 0.00024855344236129895,-2.786930203437805 l0.4929002746939659,-4.158370196819305 m3.4094417095184326,-0.280500203371048 l0.6811131536960602,-4.159843623638153 0.8348637819290161,-2.111247479915619 l0.574600026011467,-0.16167767345905304 13.561381101608276,0.6932409852743149 m-3.8788968324661255,5.94728410243988 l0.49254395067691803,-2.342057228088379 0.6635488569736481,-4.217400848865509 l0.9865861386060715,-1.3829231262207031 m3.602525293827057,7.500448822975159 l1.7751279473304749,-3.8525789976119995 0.5943706259131432,-3.935592770576477 m-17.268840074539185,6.068034768104553 l1.0745921730995178,-4.380438029766083 0.6159535795450211,-2.7943050861358643 m2.4681030213832855,7.335189580917358 l1.522274762392044,-5.023298859596252 m4.393844306468964,5.462753772735596 l1.8346811830997467,-5.086205005645752 m3.2030269503593445,5.452078580856323 l1.6828133165836334,-4.220812618732452 0.6580581516027451,-1.3937090337276459 m2.1084001660346985,5.701749324798584 l0.4713611677289009,-2.998861074447632 " fill="none" stroke="black" stroke-width="1" /></svg>