<?xml version="1.0" encoding="utf-8" ?>
<svg baseProfile="full" height="76.26739710569382" version="1.1" width="67.89839914901677" xmlns="http://www.w3.org/2000/svg" xmlns:ev="http://www.w3.org/2001/xml-events" xmlns:xlink="http://www.w3.org/1999/xlink"><defs /><rect fill="white" height="76.26739710569382" width="67.89839914901677" x="0" y="0" /><path d="M38.81449765632169,32.653405934906914 m-3.2889756560325623,-0.1793961599469185 l-2.616860270500183,0.6691392511129379 -2.033218741416931,1.3894177973270416 l-2.7313345670700073,2.9961827397346497 -2.264043688774109,3.9505627751350403 l-0.8799795061349869,2.8717923164367676 -8.522639291186351e-05,3.625452220439911 l1.581924855709076,2.304050177335739 2.1251241862773895,0.9863594174385071 l3.4655559062957764,0.0004306357732275501 2.6704141497612,-0.6415687501430511 l1.6068653762340546,-0.9440556168556213 1.645595133304596,-0.5704235658049583 l2.7199625968933105,-2.399440109729767 1.2287582457065582,-2.1992425620555878 l0.854058712720871,-4.924573302268982 0.00013998611393617466,-3.653722405433655 l-2.713809609413147,-3.1881585717201233 -2.270311415195465,-0.49619968980550766 m-2.434537261724472,-0.39672546088695526 l0.5139052495360374,-2.1394605934619904 0.5691132321953773,-2.3399244248867035 l0.9658998250961304,-1.6770286858081818 1.0096076130867004,-0.6968733668327332 l-1.541007161140442,3.1314921379089355 -0.7711357623338699,3.177616000175476 " fill="none" stroke="black" stroke-width="1" /></svg>