<?xml version="1.0" encoding="utf-8" ?>
<svg baseProfile="full" height="1305.0" version="1.1" width="1005.0" xmlns="http://www.w3.org/2000/svg" xmlns:ev="http://www.w3.org/2001/xml-events" xmlns:xlink="http://www.w3.org/1999/xlink"><defs /><rect fill="white" height="1305.0" width="1005.0" x="0" y="0" /><path d="M745.0,330.0 m-165.0,-5.0 l-120.0,30.0 -120.0,85.0 l-105.0,125.0 -140.0,190.0 l-70.0,195.0 10.0,150.0 l55.0,95.0 140.0,80.0 l180.0,5.0 200.0,-40.0 l70.0,-30.0 65.0,-45.0 l45.0,-55.0 80.0,-140.0 l70.0,-200.0 40.0,-335.0 l-110.0,-45.0 -90.0,-15.0 l-60.0,-70.0 m-130.0,-10.0 l5.0,-50.0 85.0,-120.0 l10.0,-75.0 -10.0,-25.0 l-95.0,0.0 " fill="none" stroke="black" stroke-width="1" /></svg>