<?xml version="1.0" encoding="utf-8" ?>
<svg baseProfile="full" height="1930.0" version="1.1" width="3335.0" xmlns="http://www.w3.org/2000/svg" xmlns:ev="http://www.w3.org/2001/xml-events" xmlns:xlink="http://www.w3.org/1999/xlink"><defs /><rect fill="white" height="1930.0" width="3335.0" x="0" y="0" /><path d="M45.0,580.0 m20.0,60.0 l135.0,225.0 95.0,100.0 l720.0,-135.0 55.0,0.0 l460.0,-80.0 715.0,-45.0 l300.0,20.0 350.0,60.0 l65.0,0.0 350.0,85.0 m-3270.0,-290.0 l-15.0,20.0 0.0,90.0 l20.0,320.0 80.0,360.0 l20.0,10.0 85.0,0.0 l410.0,-85.0 145.0,-10.0 l280.0,0.0 465.0,40.0 l380.0,-10.0 555.0,-45.0 l265.0,-55.0 245.0,-90.0 l190.0,-140.0 45.0,-15.0 l20.0,-25.0 m-740.0,-195.0 l-5.0,50.0 20.0,150.0 l30.0,45.0 40.0,15.0 l625.0,-60.0 m-1570.0,5.0 l0.0,50.0 80.0,215.0 l25.0,125.0 140.0,425.0 l40.0,105.0 30.0,30.0 m200.0,-1020.0 l0.0,60.0 -30.0,135.0 l-60.0,180.0 -100.0,210.0 l-80.0,275.0 0.0,60.0 m-265.0,-1140.0 l-215.0,-565.0 m775.0,540.0 l0.0,-20.0 -240.0,-280.0 l-180.0,-155.0 -250.0,-160.0 " fill="none" stroke="black" stroke-width="1" /></svg>