<?xml version="1.0" encoding="utf-8" ?>
<svg baseProfile="full" height="78.52317395216232" version="1.1" width="118.78814071416855" xmlns="http://www.w3.org/2000/svg" xmlns:ev="http://www.w3.org/2001/xml-events" xmlns:xlink="http://www.w3.org/1999/xlink"><defs /><rect fill="white" height="78.52317395216232" width="118.78814071416855" x="0" y="0" /><path d="M25.8192465826869,35.659174258507846 m0.403374619781971,1.0420278459787369 l2.7779242396354675,4.547730982303619 2.1513214707374573,2.4414196610450745 l11.024967432022095,-1.1754333227872849 5.750167369842529,-1.084207221865654 l6.266010403633118,-1.2529738247394562 7.191401124000549,-0.7617320865392685 m-36.38441324234009,-2.7040448784828186 l3.041885495185852,0.06999376229941845 7.143387794494629,0.5790726467967033 l9.133388996124268,0.7496871799230576 8.76796305179596,0.6536347419023514 l7.398077845573425,0.5419005081057549 6.561439037322998,0.19634798169136047 l6.928648352622986,-0.050980253145098686 5.512722134590149,-0.16117854043841362 l5.198547840118408,-0.07035559508949518 4.640718698501587,-0.0884146336466074 l4.461361467838287,-0.11421003378927708 m-39.17792081832886,-4.418737590312958 l0.5440885573625565,2.053208351135254 0.7758643478155136,4.828684329986572 l0.8500368893146515,4.962674677371979 1.103588119149208,3.9433827996253967 l1.372673213481903,2.154572308063507 1.4300572872161865,0.9819298982620239 l3.774525821208954,-0.00022260999685386196 4.764696359634399,-1.1975988745689392 l2.0684173703193665,-1.3851195573806763 1.1225942522287369,-1.7204825580120087 l1.3131581246852875,-6.095981001853943 0.18571065738797188,-8.489063382148743 l-0.907079353928566,-1.4537972211837769 -7.588884234428406,-0.4140147194266319 m-13.754991292953491,2.253088504076004 l0.23177003487944603,-0.6361985951662064 3.815377354621887,-5.249938368797302 l3.5358446836471558,-4.133845567703247 1.156858429312706,2.1982133388519287 l1.2220419943332672,5.511693954467773 m-9.263222217559814,6.932170391082764 l1.1029455065727234,3.9670920372009277 1.1085007339715958,2.966548204421997 l1.0763319581747055,1.7889949679374695 m-2.4845080077648163,-8.917409181594849 l0.5002696439623833,4.897468388080597 0.18152112141251564,4.022035896778107 m-5.024480223655701,-9.454033374786377 l-0.7986601442098618,3.1777364015579224 -1.1893144994974136,3.0799636244773865 l-1.2403792142868042,1.7435754835605621 -3.6631757020950317,2.375742942094803 m3.049650490283966,-11.565989255905151 l-5.473386645317078,-0.2037655934691429 -7.97276496887207,-0.5190262570977211 " fill="none" stroke="black" stroke-width="1" /></svg>