<?xml version="1.0" encoding="utf-8" ?>
<svg baseProfile="full" height="1975.0" version="1.1" width="2425.0" xmlns="http://www.w3.org/2000/svg" xmlns:ev="http://www.w3.org/2001/xml-events" xmlns:xlink="http://www.w3.org/1999/xlink"><defs /><rect fill="white" height="1975.0" width="2425.0" x="0" y="0" /><path d="M1290.0,475.0 m-130.0,20.0 l-240.0,235.0 -85.0,115.0 l-80.0,155.0 -40.0,155.0 l-15.0,300.0 25.0,100.0 l55.0,105.0 80.0,95.0 l95.0,70.0 145.0,60.0 l255.0,40.0 485.0,25.0 l105.0,-35.0 25.0,-35.0 l30.0,-135.0 5.0,-475.0 l-25.0,-150.0 -115.0,-350.0 l-80.0,-140.0 -100.0,-130.0 l-70.0,-65.0 -135.0,-85.0 l-90.0,0.0 -90.0,155.0 m-530.0,250.0 l20.0,-560.0 20.0,-85.0 l30.0,0.0 175.0,135.0 l170.0,195.0 m415.0,-60.0 l160.0,-330.0 20.0,-25.0 l35.0,25.0 110.0,250.0 l45.0,275.0 0.0,170.0 m-705.0,300.0 l-60.0,80.0 -30.0,80.0 l0.0,60.0 30.0,50.0 l175.0,0.0 25.0,-5.0 l20.0,-30.0 15.0,-160.0 l-30.0,-75.0 -45.0,-50.0 l-65.0,-20.0 m-140.0,-245.0 l-25.0,5.0 -15.0,35.0 l0.0,85.0 25.0,100.0 l35.0,60.0 50.0,15.0 l115.0,-95.0 m360.0,-205.0 l-80.0,5.0 -25.0,15.0 l-55.0,80.0 0.0,80.0 l35.0,55.0 60.0,20.0 l25.0,-20.0 -15.0,-190.0 m-645.0,680.0 l80.0,-5.0 145.0,-50.0 l75.0,-100.0 70.0,200.0 l80.0,80.0 70.0,25.0 l110.0,5.0 25.0,-10.0 l0.0,-30.0 m-40.0,-195.0 l125.0,10.0 380.0,-10.0 l275.0,-55.0 -20.0,-15.0 m-730.0,230.0 l195.0,40.0 505.0,10.0 m-1385.0,-415.0 l-145.0,-30.0 -240.0,0.0 m365.0,80.0 l-255.0,20.0 -190.0,45.0 l-430.0,180.0 m910.0,-100.0 l-275.0,0.0 -265.0,25.0 l-255.0,45.0 -160.0,55.0 m1660.0,-220.0 l315.0,0.0 200.0,-35.0 " fill="none" stroke="black" stroke-width="1" /></svg>