<?xml version="1.0" encoding="utf-8" ?>
<svg baseProfile="full" height="86.83545917272568" version="1.1" width="95.1119039952755" xmlns="http://www.w3.org/2000/svg" xmlns:ev="http://www.w3.org/2001/xml-events" xmlns:xlink="http://www.w3.org/1999/xlink"><defs /><rect fill="white" height="86.83545917272568" width="95.1119039952755" x="0" y="0" /><path d="M48.41181278405202,31.55731877483049 m-2.631070911884308,0.42344607412815094 l-5.219667553901672,4.745588004589081 -1.4829903841018677,2.3592059314250946 l-1.1568722873926163,2.9157689213752747 -0.7938292622566223,4.725849032402039 l8.611237717559561e-05,3.9371460676193237 0.40450986474752426,1.716795265674591 l1.3492131233215332,2.726326882839203 1.6851702332496643,2.087056338787079 l2.059989720582962,1.6356855630874634 5.562022924423218,2.3807938396930695 l3.2625383138656616,0.6241332367062569 4.313915371894836,0.00034523956855991855 l2.377203404903412,-0.9496264159679413 2.617979347705841,-2.3459775745868683 l1.2856744229793549,-2.562057375907898 0.6501498818397522,-4.41014438867569 l-0.00014767398170079105,-5.282615423202515 -1.1271829158067703,-4.858170747756958 l-1.9651274383068085,-3.956240713596344 -2.6255157589912415,-3.12476247549057 l-2.13721826672554,-1.6136328876018524 -2.2155453264713287,-0.9710264950990677 l-3.1438088417053223,-0.4718765988945961 -2.8754493594169617,0.43912943452596664 m-6.302575469017029,3.6644116044044495 l-1.5106630325317383,-4.325876832008362 -2.037399262189865,-6.066992282867432 l3.3485397696495056,5.124860405921936 3.0321526527404785,2.931053042411804 m12.975083589553833,0.32872647047042847 l5.326899886131287,-5.733612775802612 1.9675551354885101,-1.475442498922348 l0.3695499897003174,0.6366545706987381 -0.17086653038859367,2.3275381326675415 l-1.8748849630355835,6.363914608955383 -0.7159490138292313,3.528366982936859 m-14.765843152999878,4.340892136096954 l-0.03368059406057,-0.07097512017935514 -0.0001448002876713872,0.612410195171833 l0.1783617027103901,0.6227982416749 0.48546116799116135,0.5016806721687317 l0.88590107858181,-0.043158773332834244 0.2959290146827698,-1.477239578962326 l-0.6087948754429817,-0.47279439866542816 -0.8409211784601212,0.43145041912794113 l-0.22790288552641869,1.1536700278520584 0.5066698044538498,0.27136145159602165 l0.17870070412755013,-1.3925749063491821 -0.5793880671262741,-0.31240856274962425 m8.029749989509583,0.31149011105298996 l-0.5895696207880974,1.114528775215149 0.28858887031674385,0.8969235420227051 l0.5647562444210052,0.2664976380765438 0.9616576880216599,-0.47625698149204254 l-0.14676792547106743,-1.3206011056900024 -0.6769867241382599,-0.39023689925670624 l-0.746782049536705,0.4326925426721573 -0.13898707926273346,0.699598640203476 l0.6302901357412338,-0.13892383314669132 -0.30109837651252747,-0.6852378696203232 l-0.6452132761478424,-0.0475993612781167 m-5.92954695224762,6.661926507949829 l-0.22880356758832932,3.2126426696777344 -0.5283622443675995,1.8925638496875763 l-1.2302463501691818,1.3499902188777924 -2.233024388551712,0.9225033223628998 l-3.027832508087158,0.2014879696071148 -1.5936380624771118,-0.7583782076835632 l-1.028888002038002,-1.2831643223762512 -0.451621375977993,-1.5159060060977936 m10.242400169372559,-3.811653256416321 l1.086643561720848,3.780865967273712 0.9597853571176529,1.2927532196044922 l1.4625884592533112,0.8050668239593506 2.24973127245903,0.0004483173688640818 l1.4643314480781555,-0.8540849387645721 1.0663408786058426,-1.3480700552463531 l0.4814900830388069,-1.4889776706695557 m-6.017807722091675,-4.241670370101929 l8.3292555809021,-2.7735984325408936 6.477164626121521,-1.703285127878189 l4.844675660133362,-0.886501669883728 m-18.06278944015503,6.638920903205872 l10.400069952011108,-0.4449011757969856 5.969746708869934,0.06905791349709034 m-16.333496570587158,2.3272357881069183 l7.5887614488601685,2.0396219193935394 5.502480864524841,2.2666315734386444 l1.5045379102230072,1.0394026339054108 m-26.394004821777344,-8.809229731559753 l-8.286811113357544,-0.9316906332969666 -3.653777837753296,-0.23210572078824043 l-3.346621096134186,0.2373725362122059 m16.25230312347412,3.0135855078697205 l-6.523926258087158,1.5997472405433655 -3.5063588619232178,1.3740365207195282 l-1.7620772123336792,1.1702580749988556 m12.754323482513428,-1.860433965921402 l-1.8219304084777832,0.4718874394893646 -3.394577205181122,2.1400150656700134 l-3.1277284026145935,2.8111904859542847 " fill="none" stroke="black" stroke-width="1" /></svg>