<?xml version="1.0" encoding="utf-8" ?>
<svg baseProfile="full" height="67.56945705972612" version="1.1" width="101.41822970472276" xmlns="http://www.w3.org/2000/svg" xmlns:ev="http://www.w3.org/2001/xml-events" xmlns:xlink="http://www.w3.org/1999/xlink"><defs /><rect fill="white" height="67.56945705972612" width="101.41822970472276" x="0" y="0" /><path d="M25,25.508760502561927 m19.27678346633911,0.39496518671512604 l8.16381573677063,-0.8242328464984894 6.147421598434448,-0.0794928427785635 l2.991964817047119,0.3719085082411766 3.702048659324646,1.2328600138425827 l2.484722286462784,0.46134285628795624 3.816743493080139,0.127417529001832 l2.7738016843795776,-0.41264064610004425 m-47.074036598205566,0.8131259679794312 l0.16234461218118668,1.897435337305069 0.19181301817297935,6.7091721296310425 l-0.8376200497150421,4.690986275672913 4.672722816467285,0.7049007713794708 l6.3168638944625854,0.4537292569875717 7.025212645530701,0.3479662165045738 l6.6168200969696045,0.17125284299254417 5.769321322441101,-0.06795162800699472 l5.25978684425354,-0.1156323216855526 5.261622071266174,-0.15350108034908772 l4.44843053817749,-0.16760468482971191 3.8070863485336304,-0.19557207822799683 l0.35152532160282135,-0.5049976706504822 0.08903508074581623,-2.8595316410064697 l-0.5471435934305191,-6.163164973258972 -0.556667149066925,-4.763164222240448 m-35.93396186828613,6.649100184440613 l-0.558684691786766,0.3516208752989769 -0.4486032947897911,1.1750276386737823 l-0.01644365955144167,1.5814156830310822 0.5347638577222824,1.0051685571670532 l1.0265956819057465,0.6005240976810455 1.9521604478359222,0.14845622703433037 l1.7005889117717743,-0.6845535337924957 0.8120718598365784,-1.0844512283802032 l0.29347725212574005,-2.0233429968357086 -0.4915672540664673,-1.6546541452407837 l-1.2931837141513824,-1.1376290023326874 -1.7309115827083588,-0.36926157772541046 l-1.2473898380994797,0.1218645554035902 -0.7271441072225571,0.5482449382543564 m13.055464029312134,0.474381260573864 l-0.7246380299329758,1.132100448012352 -0.0729865301400423,1.4874707162380219 l0.4566230997443199,1.0466798394918442 0.9914681315422058,0.7942596077919006 l2.0187143981456757,0.4694514721632004 2.020993083715439,-0.2504889853298664 l1.4242978394031525,-1.1337960511446 0.5023327469825745,-1.6115197539329529 l-0.33185839653015137,-1.651543378829956 " fill="none" stroke="black" stroke-width="1" /></svg>