<?xml version="1.0" encoding="utf-8" ?>
<svg baseProfile="full" height="1780.0" version="1.1" width="3270.0" xmlns="http://www.w3.org/2000/svg" xmlns:ev="http://www.w3.org/2001/xml-events" xmlns:xlink="http://www.w3.org/1999/xlink"><defs /><rect fill="white" height="1780.0" width="3270.0" x="0" y="0" /><path d="M685.0,705.0 m910.0,5.0 l540.0,-15.0 30.0,-15.0 l310.0,0.0 5.0,-25.0 l200.0,-50.0 225.0,-10.0 l75.0,25.0 180.0,105.0 l35.0,40.0 50.0,150.0 l-240.0,40.0 -180.0,10.0 l-455.0,-20.0 m-1705.0,-245.0 l-70.0,-20.0 -555.0,-265.0 l-15.0,30.0 30.0,185.0 l75.0,235.0 75.0,100.0 l65.0,45.0 120.0,40.0 l480.0,15.0 315.0,-45.0 l670.0,-35.0 410.0,0.0 l135.0,20.0 190.0,-50.0 m-810.0,-20.0 l480.0,-5.0 370.0,55.0 l-5.0,30.0 -90.0,105.0 l-290.0,255.0 -590.0,380.0 l125.0,-695.0 m65.0,-360.0 l30.0,0.0 -60.0,-95.0 l-240.0,-225.0 -215.0,-160.0 l-345.0,-195.0 -130.0,120.0 l-15.0,55.0 220.0,175.0 l185.0,120.0 175.0,160.0 " fill="none" stroke="black" stroke-width="1" /></svg>