<?xml version="1.0" encoding="utf-8" ?>
<svg baseProfile="full" height="1975.0" version="1.1" width="1625.0" xmlns="http://www.w3.org/2000/svg" xmlns:ev="http://www.w3.org/2001/xml-events" xmlns:xlink="http://www.w3.org/1999/xlink"><defs /><rect fill="white" height="1975.0" width="1625.0" x="0" y="0" /><path d="M545.0,690.0 m-40.0,-85.0 l-95.0,-45.0 -185.0,-10.0 l-50.0,40.0 5.0,200.0 l60.0,260.0 -40.0,140.0 l-100.0,195.0 -50.0,135.0 l-25.0,270.0 30.0,80.0 l30.0,30.0 35.0,5.0 l175.0,-40.0 130.0,-85.0 l75.0,-85.0 20.0,-45.0 l20.0,-220.0 -20.0,-525.0 l-30.0,-215.0 -20.0,340.0 l35.0,235.0 150.0,450.0 l95.0,220.0 30.0,15.0 l50.0,-60.0 30.0,-95.0 l5.0,-135.0 -20.0,-180.0 l-30.0,-115.0 -80.0,-215.0 l-65.0,-125.0 -130.0,-185.0 l90.0,-185.0 95.0,-85.0 l155.0,-80.0 45.0,40.0 l5.0,75.0 -125.0,310.0 l40.0,25.0 415.0,35.0 l140.0,45.0 65.0,55.0 l110.0,170.0 25.0,115.0 l-15.0,260.0 -35.0,90.0 l-25.0,25.0 -110.0,50.0 l-380.0,10.0 -10.0,-15.0 m-425.0,-965.0 l-45.0,-140.0 -40.0,-470.0 m110.0,450.0 l60.0,-130.0 220.0,-335.0 l75.0,-165.0 " fill="none" stroke="black" stroke-width="1" /></svg>