<?xml version="1.0" encoding="utf-8" ?>
<svg baseProfile="full" height="78.47870827652514" version="1.1" width="75.62746986933689" xmlns="http://www.w3.org/2000/svg" xmlns:ev="http://www.w3.org/2001/xml-events" xmlns:xlink="http://www.w3.org/1999/xlink"><defs /><rect fill="white" height="78.47870827652514" width="75.62746986933689" x="0" y="0" /><path d="M35.51943151280284,27.642905907705426 m-0.7852490991353989,-1.619393229484558 l-1.8602997064590454,-0.8130700886249542 -3.632250428199768,0.36653298884630203 l-0.8455643057823181,0.9767930209636688 -0.7196685671806335,3.8938510417938232 l1.0703115165233612,4.585411250591278 0.5178522691130638,1.7595754563808441 l1.2660269439220428,2.546476125717163 -2.990444600582123,2.784683406352997 l-1.4307242631912231,1.9781839847564697 -0.977722555398941,2.771649956703186 l-0.13169871643185616,3.0867725610733032 0.6089043244719505,1.7882007360458374 l1.0904459655284882,1.127055585384369 1.544455885887146,0.6030795723199844 l2.917127311229706,-0.057761287316679955 3.315685987472534,-1.8225865066051483 l2.7383390069007874,-3.36730033159256 1.0009919852018356,-2.6844534277915955 l-0.28386330232024193,-7.357967495918274 -0.5035517737269402,-5.038655996322632 l-0.31135963276028633,-4.046352803707123 0.3695395216345787,-2.8147032856941223 l1.1400391906499863,-1.0901973396539688 1.3277313113212585,-0.19872980192303658 l1.8426784873008728,1.0235319286584854 1.6946850717067719,2.987780272960663 l1.0782557725906372,4.435888230800629 -7.291792371688643e-05,7.051782011985779 l-1.03021539747715,6.046389937400818 -1.206107884645462,2.808305025100708 l-1.0024450719356537,0.938468724489212 -1.0525626689195633,0.21931596100330353 l-1.7512719333171844,-0.6886561214923859 -0.6658126413822174,-0.8467806875705719 l-0.5576315894722939,-2.243163138628006 -9.44202474784106e-05,-3.57835590839386 l0.631018877029419,-3.050476610660553 0.75180284678936,-2.9115325212478638 l0.7964587211608887,-3.031323254108429 0.9400565177202225,-3.309878408908844 l1.2149631977081299,-2.3970310389995575 1.3335572183132172,-1.1894924193620682 l2.2263872623443604,-0.6684986501932144 2.652340531349182,0.37910841405391693 l1.2275996804237366,0.9219484776258469 1.1325649172067642,2.0535583794116974 l0.41682951152324677,2.876015603542328 -2.902161180973053,8.040547966957092 l-2.659246325492859,3.887604773044586 -2.173627018928528,1.810571551322937 l-3.7346822023391724,1.562795341014862 m-0.9193674474954605,-17.575538158416748 l2.6119449734687805,-2.4161987006664276 3.6504602432250977,-2.1668708324432373 m-6.743273138999939,5.072357654571533 l-2.6829692721366882,-3.3976638317108154 -2.1053801476955414,-1.6611970961093903 " fill="none" stroke="black" stroke-width="1" /></svg>