<?xml version="1.0" encoding="utf-8" ?>
<svg baseProfile="full" height="74.77829240262508" version="1.1" width="76.88453752547503" xmlns="http://www.w3.org/2000/svg" xmlns:ev="http://www.w3.org/2001/xml-events" xmlns:xlink="http://www.w3.org/1999/xlink"><defs /><rect fill="white" height="74.77829240262508" width="76.88453752547503" x="0" y="0" /><path d="M33.18670432767249,27.457461494686868 m0.15432503074407578,1.682804673910141 l0.846269428730011,2.1346358954906464 1.500064730644226,0.9119581431150436 l1.7821283638477325,-9.098597729462199e-05 1.3652782142162323,-0.7746757566928864 l0.8947164565324783,-1.232539489865303 0.37866346538066864,-1.4985434710979462 l0.000859706342453137,-1.5963281691074371 -0.593806803226471,-1.230664774775505 l-1.124921590089798,-0.8535575866699219 -2.165503203868866,-0.0004599730164045468 l-1.7266730964183807,1.0925479233264923 -0.7015175372362137,1.0208619385957718 l-0.282098688185215,1.5835335850715637 m2.529534101486206,4.546588957309723 l-0.6340506672859192,4.257238507270813 -1.005038097500801,5.624091625213623 l-0.7460962235927582,4.232234358787537 -0.4341566190123558,2.4211955070495605 l5.388290286064148,-0.4416929930448532 3.413878083229065,-0.7984848320484161 l0.3712642937898636,-0.5285751819610596 -1.1942357569932938,-5.135945677757263 l-1.0016141086816788,-3.866502344608307 -1.4714980125427246,-4.672853052616119 l-0.2743297256529331,-1.4707690477371216 m1.3890984654426575,3.2141533493995667 l2.7346271276474,-3.9522260427474976 2.16450572013855,-2.167016565799713 l2.5168761610984802,-2.009729743003845 2.3117300868034363,-1.2730923295021057 l0.5454710498452187,1.7956766486167908 -0.4749726876616478,3.672283887863159 l-1.3680750131607056,4.409031867980957 1.5961720049381256,-0.5860986188054085 l0.807129293680191,0.08563580922782421 1.205538958311081,1.650131642818451 l-2.9498666524887085,4.221023321151733 -1.2805372476577759,0.7956916093826294 l-1.6503261029720306,0.1264240499585867 -2.322736084461212,-0.5601023510098457 l-1.1805269122123718,-0.5289465188980103 -1.0145975649356842,-0.5977416411042213 m-5.68985641002655,-3.5449063777923584 l-2.5220847129821777,-3.9041107892990112 -2.0442837476730347,-2.5425556302070618 l-3.2509255409240723,-2.554132342338562 -1.413922756910324,0.008249793900176883 l-0.7994598895311356,1.066434234380722 -0.5161751434206963,2.4447135627269745 l-0.23622237145900726,2.6207002997398376 0.208376944065094,1.2239786982536316 l1.1791152507066727,1.575745940208435 -0.23934606462717056,1.2579920887947083 l-0.8066998422145844,1.4546570181846619 -0.3544626757502556,1.633191555738449 l0.849524587392807,1.3719087839126587 1.3679444789886475,0.21595608443021774 l1.0036607086658478,-0.24772094562649727 2.4663016200065613,-2.04825222492218 l0.5697049200534821,0.8404294401407242 0.903046578168869,1.3113537430763245 l1.4833272993564606,-1.11200712621212 0.9213127195835114,-0.8056800812482834 l0.5610785260796547,-0.37694893777370453 m1.3187608122825623,-11.58218502998352 l-2.319530099630356,-1.2024001777172089 -1.887117177248001,-0.7706192880868912 l-1.6169878840446472,-0.5046267062425613 -1.4924994111061096,-0.10791270062327385 l-1.440812349319458,0.5519463121891022 0.4019321873784065,1.7011810839176178 l2.748022675514221,0.9289470314979553 2.66647070646286,0.05457350518554449 l1.2168459594249725,-0.7196636497974396 " fill="none" stroke="black" stroke-width="1" /></svg>