<?xml version="1.0" encoding="utf-8" ?>
<svg baseProfile="full" height="1460.0" version="1.1" width="1545.0" xmlns="http://www.w3.org/2000/svg" xmlns:ev="http://www.w3.org/2001/xml-events" xmlns:xlink="http://www.w3.org/1999/xlink"><defs /><rect fill="white" height="1460.0" width="1545.0" x="0" y="0" /><path d="M630.0,405.0 m5.0,80.0 l45.0,105.0 95.0,45.0 l65.0,0.0 55.0,-30.0 l75.0,-120.0 10.0,-85.0 l-30.0,-65.0 -30.0,-30.0 l-110.0,-45.0 -100.0,5.0 l-65.0,40.0 -35.0,65.0 l0.0,60.0 m65.0,255.0 l-105.0,110.0 -45.0,70.0 l-55.0,140.0 -20.0,130.0 l10.0,270.0 15.0,20.0 l90.0,10.0 575.0,-80.0 l45.0,-70.0 0.0,-65.0 l-55.0,-130.0 -130.0,-215.0 l-100.0,-275.0 m160.0,310.0 l-5.0,-20.0 35.0,-120.0 l285.0,-610.0 20.0,-135.0 l-20.0,5.0 -45.0,90.0 l-35.0,110.0 10.0,60.0 l40.0,30.0 35.0,5.0 l135.0,-40.0 5.0,25.0 l-150.0,330.0 20.0,5.0 l30.0,-10.0 0.0,20.0 l-135.0,205.0 0.0,30.0 l45.0,25.0 -180.0,115.0 l-140.0,60.0 -25.0,0.0 m-385.0,-160.0 l-215.0,-135.0 -90.0,-115.0 l-100.0,-270.0 -10.0,-250.0 l-50.0,90.0 -110.0,260.0 l0.0,20.0 20.0,5.0 l20.0,-15.0 45.0,-110.0 l-40.0,260.0 5.0,90.0 l30.0,15.0 40.0,-45.0 l35.0,140.0 95.0,50.0 l110.0,-30.0 20.0,10.0 l20.0,220.0 15.0,25.0 l50.0,10.0 85.0,-65.0 " fill="none" stroke="black" stroke-width="1" /></svg>