<?xml version="1.0" encoding="utf-8" ?>
<svg baseProfile="full" height="4820.0" version="1.1" width="4525.0" xmlns="http://www.w3.org/2000/svg" xmlns:ev="http://www.w3.org/2001/xml-events" xmlns:xlink="http://www.w3.org/1999/xlink"><defs /><rect fill="white" height="4820.0" width="4525.0" x="0" y="0" /><path d="M430.0,2720.0 m-15.0,215.0 l-200.0,775.0 -45.0,305.0 l-85.0,330.0 -35.0,220.0 l30.0,-65.0 35.0,-25.0 l215.0,-40.0 190.0,15.0 l510.0,90.0 330.0,25.0 l330.0,-10.0 220.0,-70.0 l230.0,-15.0 115.0,10.0 l490.0,105.0 190.0,25.0 l630.0,135.0 385.0,45.0 l350.0,5.0 100.0,-25.0 l100.0,-65.0 -65.0,-105.0 l-35.0,-115.0 -45.0,-315.0 l0.0,-335.0 -15.0,-150.0 l-40.0,-155.0 -100.0,-195.0 l-5.0,-80.0 35.0,-60.0 l5.0,-205.0 -40.0,-140.0 l-25.0,-20.0 -205.0,55.0 l-295.0,40.0 -685.0,-5.0 l-395.0,-40.0 -940.0,20.0 l-90.0,-20.0 -460.0,-35.0 l-405.0,-100.0 -385.0,15.0 l-125.0,0.0 -35.0,-15.0 m1025.0,30.0 l-45.0,-125.0 -190.0,-780.0 l-15.0,-115.0 0.0,-235.0 m790.0,1270.0 l30.0,-285.0 55.0,-305.0 l15.0,-450.0 m440.0,1015.0 l10.0,-430.0 -20.0,-480.0 m715.0,890.0 l5.0,-165.0 -50.0,-435.0 l-20.0,-595.0 m1015.0,1350.0 l20.0,-40.0 25.0,-195.0 l10.0,-365.0 25.0,-250.0 l0.0,-275.0 -25.0,-170.0 m-3360.0,1160.0 l-15.0,-25.0 0.0,-400.0 l-20.0,-150.0 -400.0,-1855.0 l-95.0,-310.0 -50.0,0.0 " fill="none" stroke="black" stroke-width="1" /></svg>