<?xml version="1.0" encoding="utf-8" ?>
<svg baseProfile="full" height="94.55786905251443" version="1.1" width="136.40201166272163" xmlns="http://www.w3.org/2000/svg" xmlns:ev="http://www.w3.org/2001/xml-events" xmlns:xlink="http://www.w3.org/1999/xlink"><defs /><rect fill="white" height="94.55786905251443" width="136.40201166272163" x="0" y="0" /><path d="M28.741231597959995,28.042446789331734 m-0.24237649515271187,4.680852293968201 l-1.0036768019199371,7.354157567024231 -1.0382460057735443,8.343007564544678 l-0.07232313975691795,11.679606437683105 -0.9157685935497284,7.200949192047119 l-0.4688405618071556,1.8020185828208923 0.4113970696926117,0.3893103078007698 l2.822664976119995,0.06552031729370356 5.0837719440460205,-0.4210786521434784 l5.759431719779968,-0.18277795985341072 6.185797452926636,-0.33592671155929565 l6.276329755783081,-0.08298559114336967 6.845669746398926,-0.3652576357126236 l6.7581963539123535,-0.13637930154800415 16.336698532104492,0.18839793279767036 l5.1453036069869995,-0.3367200493812561 5.33212423324585,-0.2549525164067745 l4.730793535709381,-0.5107410252094269 5.1136863231658936,-0.12756559997797012 l4.485219717025757,-0.6021014228463173 4.81812059879303,-0.13096348382532597 l0.29680609703063965,-0.6355162709951401 -1.0084392130374908,-8.211036920547485 l-1.0091504454612732,-9.268895983695984 -0.9678701311349869,-10.186197757720947 l-0.7039500772953033,-7.529224157333374 -0.842265784740448,-1.7001834511756897 l-1.9489538669586182,-1.4379334449768066 -3.2208582758903503,-1.051962897181511 l-9.296419024467468,-0.987442135810852 -18.085665702819824,-0.25042401626706123 l-13.97478461265564,0.37591759115457535 -13.150314092636108,0.6017143651843071 l-9.547943472862244,0.6057063117623329 -5.456063747406006,0.48123106360435486 m6.644241213798523,26.711432933807373 l-0.6646262854337692,0.1275850273668766 -0.8248326182365417,0.9095848351716995 l-0.6987015157938004,1.619836688041687 -0.23404335603117943,1.888865977525711 l0.22523634135723114,1.5269702672958374 0.7145486772060394,1.1275791376829147 l1.1445097625255585,0.8052490651607513 2.172481119632721,0.4125600680708885 l2.3515647649765015,-0.3368896618485451 1.9129636883735657,-1.3682891428470612 l0.8343172818422318,-1.4321024715900421 0.36957506090402603,-2.4378858506679535 l-0.41948210448026657,-2.0324313640594482 -1.2533777952194214,-1.5460288524627686 l-1.7890582978725433,-0.9590460360050201 -2.052513509988785,-0.2200896106660366 l-0.9786080569028854,0.33986352384090424 m48.748841285705566,0.3712272644042969 l-1.4961545169353485,0.5325515940785408 -0.9924180805683136,0.9489283710718155 l-0.9321118146181107,2.0480969548225403 -0.1953045092523098,2.5102540850639343 l0.40291137993335724,1.3561275601387024 0.839851051568985,1.0722427070140839 l1.7313365638256073,0.9673036634922028 2.280198633670807,0.31064625829458237 l2.3992061614990234,-0.34977931529283524 1.9423237442970276,-1.2660016119480133 l0.9932666271924973,-1.4597667753696442 0.518789179623127,-2.412578910589218 l-0.2349943295121193,-2.431837171316147 -1.1166881769895554,-1.9010481238365173 l-1.8693961203098297,-1.439581960439682 -2.248292863368988,-0.7193246483802795 l-2.534322142601013,-0.03834553295746446 -1.2089674174785614,0.45729078352451324 m-35.692620277404785,-17.26324200630188 l-0.20261192694306374,4.438801407814026 0.20705413073301315,5.640885233879089 l3.098491132259369,-0.1670699194073677 11.96677565574646,-0.3845525160431862 l13.719897270202637,-0.05886469502002001 " fill="none" stroke="black" stroke-width="1" /></svg>