<?xml version="1.0" encoding="utf-8" ?>
<svg baseProfile="full" height="1330.0" version="1.1" width="1370.0" xmlns="http://www.w3.org/2000/svg" xmlns:ev="http://www.w3.org/2001/xml-events" xmlns:xlink="http://www.w3.org/1999/xlink"><defs /><rect fill="white" height="1330.0" width="1370.0" x="0" y="0" /><path d="M1275.0,290.0 m-145.0,-100.0 l-185.0,-95.0 -235.0,-70.0 l-225.0,0.0 -90.0,25.0 l-125.0,65.0 -40.0,30.0 l-120.0,165.0 -65.0,190.0 l-20.0,210.0 0.0,125.0 l60.0,230.0 70.0,100.0 l75.0,65.0 125.0,65.0 l110.0,10.0 195.0,-10.0 l155.0,-40.0 115.0,-50.0 l140.0,-100.0 75.0,-80.0 l165.0,-285.0 35.0,-195.0 l-5.0,-95.0 -20.0,-80.0 l-65.0,-120.0 m-625.0,395.0 l0.0,0.0 m-55.0,25.0 l5.0,0.0 m-5.0,-50.0 l135.0,-200.0 125.0,-145.0 l25.0,-65.0 m-320.0,395.0 l-175.0,-235.0 -60.0,-50.0 m420.0,-270.0 l-5.0,50.0 m450.0,160.0 l-80.0,70.0 m195.0,445.0 l-25.0,5.0 " fill="none" stroke="black" stroke-width="1" /></svg>