<?xml version="1.0" encoding="utf-8" ?>
<svg baseProfile="full" height="75.21181005984545" version="1.1" width="76.91024880914483" xmlns="http://www.w3.org/2000/svg" xmlns:ev="http://www.w3.org/2001/xml-events" xmlns:xlink="http://www.w3.org/1999/xlink"><defs /><rect fill="white" height="75.21181005984545" width="76.91024880914483" x="0" y="0" /><path d="M50.96524469554424,29.32392381131649 m-2.953181564807892,-2.1205635368824005 l-3.2437172532081604,-1.3621746003627777 -3.482617437839508,-0.7138566672801971 l-3.681277632713318,-0.1273290067911148 -3.146655857563019,0.5116380006074905 l-3.082195520401001,1.3333730399608612 -2.5119146704673767,1.8938590586185455 l-1.9522741436958313,2.4825434386730194 -1.3149508833885193,2.942379117012024 l-0.5964597314596176,3.1470686197280884 0.009014607057906687,3.0831804871559143 l0.7115247845649719,2.4879106879234314 1.3769371807575226,2.4371683597564697 l1.9063922762870789,1.986205279827118 2.2711317241191864,1.4754214882850647 l2.6361924409866333,0.9898056089878082 3.0366790294647217,0.4412568733096123 l3.2072865962982178,-0.07776649203151464 2.6939424872398376,-0.7121255993843079 l2.774760127067566,-1.3861267268657684 2.419855296611786,-1.889103502035141 l1.9625253975391388,-2.378920316696167 1.3292838633060455,-2.7821293473243713 l0.5747229978442192,-3.0290040373802185 -0.01325230929069221,-3.272601068019867 l-0.7147727906703949,-2.7476730942726135 -1.3016150891780853,-2.50731498003006 l-1.6517256200313568,-1.9979915022850037 -1.8717959523200989,-1.4559173583984375 m-8.402905464172363,6.779530048370361 l-0.028717771638184786,1.8526074290275574 0.0412833271548152,2.7593043446540833 l2.423345148563385,-0.27964720502495766 2.754935324192047,-0.2991662919521332 l2.9767021536827087,-0.9489204734563828 1.90853551030159,-0.13820442371070385 m-10.325024127960205,-5.989745259284973 l0.010633509373292327,-0.015877094119787216 -0.3369627520442009,-0.23454291746020317 l-0.37929717451334,-0.11053252033889294 -0.20917771384119987,0.5473629012703896 l0.5273209512233734,0.338229238986969 " fill="none" stroke="black" stroke-width="1" /></svg>