<?xml version="1.0" encoding="utf-8" ?>
<svg baseProfile="full" height="80.3313252874068" version="1.1" width="112.26203242316842" xmlns="http://www.w3.org/2000/svg" xmlns:ev="http://www.w3.org/2001/xml-events" xmlns:xlink="http://www.w3.org/1999/xlink"><defs /><rect fill="white" height="80.3313252874068" width="112.26203242316842" x="0" y="0" /><path d="M53.4934775803049,33.54494297731435 m-4.596817791461945,-0.1715560257434845 l-1.300804615020752,0.45814935117959976 -1.194838285446167,1.3335439562797546 l-0.3192758560180664,2.050652801990509 1.1882514506578445,1.4726871252059937 l2.5270462036132812,0.7694510370492935 6.865947246551514,-0.12906686402857304 l0.992620587348938,-0.568244494497776 0.8081259578466415,-1.5694773197174072 l0.0004082460145582445,-2.1432776749134064 -4.802037477493286,-2.223680317401886 l-2.515404224395752,0.14356036670506 m-0.3238845244050026,8.087465167045593 l-1.211060881614685,1.7655861377716064 -2.0631861686706543,4.089785814285278 l-1.316697746515274,3.4765255451202393 -0.5456065014004707,2.3512621223926544 l0.5534076318144798,1.638859510421753 1.3297025859355927,0.9541560709476471 l11.230480670928955,-0.27806324884295464 4.500746726989746,-0.6517395377159119 l0.6027216464281082,-0.5365516617894173 -0.36440152674913406,-2.282765805721283 l-2.9754671454429626,-4.977072179317474 -1.9019235670566559,-2.613670229911804 l-1.7460592091083527,-1.967826634645462 -1.7508922517299652,-1.3132870197296143 m-5.0571393966674805,1.1808671057224274 l-4.585530459880829,-2.096431851387024 -6.915038824081421,-3.066282868385315 l-2.7078741788864136,-0.8503834903240204 -2.7653005719184875,-0.496600903570652 l-2.8343895077705383,-0.026814702432602644 -2.9668763279914856,0.6472691148519516 l-1.538284718990326,0.8471938967704773 -0.6862464547157288,0.962224081158638 l-0.10789832100272179,1.7769427597522736 0.9368084371089935,1.292429268360138 l4.3070971965789795,2.381073534488678 2.355046719312668,1.0304450243711472 l2.158501148223877,0.5565443634986877 2.155984491109848,0.37309009581804276 l3.1534403562545776,0.22494755685329437 3.557112216949463,0.09055312722921371 l3.443167805671692,0.1586020179092884 2.9640519618988037,0.17645817250013351 m11.258903741836548,-4.307089447975159 l8.583036661148071,-2.7867689728736877 5.750840902328491,-2.20732644200325 l4.241496324539185,-1.486143171787262 3.129446506500244,-0.9263323247432709 l3.710961639881134,-0.8801531791687012 -0.128455962985754,1.698252558708191 l-2.5941437482833862,2.261681705713272 -3.3579406142234802,1.5342284739017487 l3.8482245802879333,-0.3418749198317528 2.4361562728881836,0.11988166719675064 l0.35229578614234924,0.5346836149692535 -0.856047049164772,1.034226268529892 l-4.077243804931641,2.1291956305503845 2.7985525131225586,0.38247566670179367 l1.5163090825080872,0.6697657704353333 -0.15180584974586964,0.7694569230079651 l-1.8025778234004974,1.091245412826538 -5.433439612388611,1.6547669470310211 l3.550705313682556,0.6416314095258713 1.489616185426712,1.0063619911670685 l0.21756602451205254,0.7323379814624786 -1.1018852889537811,0.9965608268976212 l-2.896968126296997,1.033606231212616 -3.953786790370941,0.5863900110125542 l-4.522942006587982,-0.0004072589217685163 -3.286179304122925,-0.5495220422744751 l-2.5648754835128784,-0.7431495934724808 -2.191934287548065,-0.9392602741718292 m-12.181804180145264,-12.515360116958618 l-1.122216135263443,-0.17375553026795387 -3.700629472732544,-1.271355003118515 l-2.584275007247925,-1.186845824122429 -2.4564793705940247,-1.6989035904407501 l-1.0587802529335022,-1.222168654203415 -0.776427835226059,-1.7196135222911835 l0.022597280330955982,-1.440097987651825 0.8539629727602005,-1.2567399442195892 l1.7423723638057709,-1.0441352427005768 3.994356691837311,-1.002611219882965 l4.881535768508911,-0.04961010068655014 4.179975986480713,1.0007673501968384 l1.9580771028995514,0.9932368993759155 1.7136597633361816,1.8705251812934875 l0.6673106551170349,2.4262598156929016 -0.624254085123539,2.3433394730091095 l-2.319168299436569,1.9678175449371338 -1.977955847978592,0.8315352350473404 l-3.113810420036316,0.46061325818300247 -2.1132217347621918,-0.39421960711479187 l-1.4502480626106262,-1.0697022825479507 -0.5390169098973274,-1.2257782369852066 l0.26652583852410316,-1.1384236812591553 1.1111435294151306,-1.0405650734901428 l2.8337422013282776,-1.1510002613067627 4.305751323699951,-0.13816517777740955 l3.2545968890190125,0.7445232570171356 1.414208710193634,0.8510829508304596 l0.852900892496109,1.5207059681415558 -0.14945397153496742,1.0848435759544373 l-1.5519580245018005,1.3134139776229858 -3.3349180221557617,1.1459103226661682 l-6.10149085521698,-0.09637990966439247 -1.942826509475708,-0.8859840780496597 l-0.7638821005821228,-1.248679980635643 0.1575448177754879,-1.3904039561748505 l1.2009082734584808,-1.208786517381668 3.5712772607803345,-1.367219239473343 l5.373332500457764,-0.36074183881282806 4.50868159532547,0.6468182057142258 l3.258512318134308,1.6331015527248383 0.663747638463974,1.0822757333517075 l-0.7228755950927734,1.3200262188911438 -5.1400333642959595,2.2732914984226227 l-9.871266484260559,0.7139527797698975 " fill="none" stroke="black" stroke-width="1" /></svg>