<?xml version="1.0" encoding="utf-8" ?>
<svg baseProfile="full" height="1885.0" version="1.1" width="3370.0" xmlns="http://www.w3.org/2000/svg" xmlns:ev="http://www.w3.org/2001/xml-events" xmlns:xlink="http://www.w3.org/1999/xlink"><defs /><rect fill="white" height="1885.0" width="3370.0" x="0" y="0" /><path d="M2005.0,130.0 m-230.0,-10.0 l-60.0,25.0 -60.0,80.0 l-25.0,115.0 100.0,40.0 l240.0,40.0 90.0,-5.0 l75.0,-35.0 30.0,-50.0 l-5.0,-80.0 -175.0,-125.0 m-420.0,-45.0 l110.0,-50.0 310.0,-5.0 l185.0,60.0 135.0,70.0 l15.0,25.0 -5.0,115.0 l-155.0,175.0 -80.0,45.0 l-265.0,0.0 -200.0,-65.0 l-35.0,-55.0 -15.0,-75.0 l-15.0,-235.0 m80.0,900.0 l0.0,30.0 -25.0,30.0 l-250.0,185.0 -100.0,110.0 l-325.0,480.0 -15.0,25.0 l25.0,15.0 370.0,-30.0 l970.0,0.0 320.0,-30.0 l115.0,-35.0 430.0,0.0 l-40.0,-35.0 -540.0,-190.0 l-80.0,-140.0 -85.0,-90.0 l-385.0,-105.0 -205.0,-75.0 l-45.0,-55.0 -20.0,-65.0 m150.0,-370.0 l-25.0,-20.0 -110.0,0.0 l-60.0,30.0 -35.0,35.0 l-50.0,100.0 -5.0,115.0 l45.0,90.0 70.0,50.0 l75.0,20.0 115.0,0.0 l40.0,-15.0 115.0,-95.0 l20.0,-50.0 0.0,-110.0 l-60.0,-70.0 -340.0,-70.0 m-395.0,665.0 l-145.0,-145.0 -130.0,-95.0 l-140.0,-155.0 -245.0,-105.0 l-245.0,10.0 -30.0,60.0 l10.0,35.0 50.0,25.0 l10.0,25.0 -20.0,60.0 l5.0,105.0 75.0,65.0 l65.0,20.0 -5.0,25.0 l-440.0,125.0 -55.0,30.0 l-30.0,50.0 5.0,25.0 l235.0,100.0 100.0,15.0 l340.0,125.0 -60.0,40.0 l5.0,30.0 350.0,0.0 l30.0,-25.0 -95.0,-55.0 l-230.0,-55.0 295.0,-15.0 l50.0,-55.0 10.0,-80.0 l30.0,-40.0 m1095.0,-235.0 l140.0,-125.0 105.0,-120.0 l40.0,-20.0 470.0,-130.0 l335.0,-15.0 -75.0,85.0 l-175.0,135.0 145.0,0.0 l115.0,-50.0 35.0,0.0 l25.0,20.0 0.0,80.0 l-35.0,30.0 -115.0,70.0 l-40.0,50.0 -90.0,5.0 l110.0,0.0 -415.0,-20.0 l-460.0,0.0 70.0,0.0 l220.0,50.0 245.0,30.0 l-270.0,15.0 -80.0,175.0 l-10.0,55.0 " fill="none" stroke="black" stroke-width="1" /></svg>