<?xml version="1.0" encoding="utf-8" ?>
<svg baseProfile="full" height="102.14343026280403" version="1.1" width="149.13515992928296" xmlns="http://www.w3.org/2000/svg" xmlns:ev="http://www.w3.org/2001/xml-events" xmlns:xlink="http://www.w3.org/1999/xlink"><defs /><rect fill="white" height="102.14343026280403" width="149.13515992928296" x="0" y="0" /><path d="M27.453051977790892,25 m17.29977011680603,2.1594972908496857 l7.309553027153015,1.2979896366596222 14.534263610839844,2.0733587443828583 l13.87940526008606,1.588447391986847 22.596862316131592,1.3332800567150116 l8.067883849143982,0.2427918277680874 6.007968187332153,0.23201199248433113 l4.943161308765411,0.38153741508722305 0.5250027030706406,0.7630319148302078 l0.5871699377894402,9.083244800567627 0.4314272105693817,8.740578293800354 l0.2917921729385853,7.0508623123168945 0.20784825086593628,6.221466064453125 l-0.07543316576629877,4.584229588508606 -0.4727448895573616,0.6382948160171509 l-1.1179832369089127,0.46632949262857437 -4.544887840747833,0.14974907040596008 l-5.51211953163147,-0.27139727026224136 -5.291100740432739,-0.3657993674278259 l-5.958777666091919,-0.1802922785282135 -5.883077383041382,0.05977848544716835 l-7.091700434684753,0.06791666150093079 -6.658837199211121,0.09577702730894089 l-6.558940410614014,-0.11430717073380947 -7.072706818580627,-0.3305824100971222 l-6.534446477890015,-0.2046038582921028 -6.666973829269409,-0.2705809101462364 l-14.075900316238403,-1.1352771520614624 -10.169891119003296,-1.0832064598798752 l-2.7164646983146667,-0.8066899329423904 -0.6277383118867874,-0.7726029306650162 l-1.228599101305008,-8.58213186264038 -0.6988376379013062,-9.31841492652893 l-0.1779991202056408,-8.691494464874268 0.17474763095378876,-7.073752284049988 l0.5737225711345673,-3.878035545349121 1.0198473930358887,-2.25146621465683 m18.919817209243774,34.006595611572266 l-2.3111411929130554,-0.0395022239536047 -2.4580059945583344,1.1173205822706223 l-1.5461824834346771,1.612999439239502 -1.2912766635417938,3.258875608444214 l-0.16601990908384323,2.2083209455013275 0.5363907665014267,1.8411841988563538 l1.2503445148468018,1.5233200788497925 2.880772054195404,1.6540710628032684 l3.8992008566856384,0.6445659697055817 4.131095707416534,-0.7049483060836792 l1.9907380640506744,-1.4776931703090668 1.0425589233636856,-1.7457833886146545 l0.41866976767778397,-3.2088059186935425 -0.8697675913572311,-3.3218419551849365 l-1.9730620086193085,-2.4338938295841217 -1.8244874477386475,-1.0833834111690521 m44.617486000061035,3.8134852051734924 l-0.8881489932537079,-0.36379318684339523 -2.1711336076259613,0.7543940842151642 l-1.4764714241027832,1.5260738134384155 -0.9337214380502701,1.896052360534668 l-0.4985146224498749,3.3894628286361694 0.4115874320268631,2.100754827260971 l1.088779792189598,1.586931049823761 1.5804587304592133,1.1199147254228592 l1.91880002617836,0.5692154169082642 4.7717490792274475,-0.4973619431257248 l1.6312366724014282,-3.4967854619026184 -0.12721650302410126,-4.605855643749237 l-1.8282632529735565,-2.5713104009628296 -2.7345111966133118,-1.7602568864822388 m-46.59592628479004,-23.9690899848938 l-0.03148382995277643,5.624582767486572 -0.0919966772198677,5.193071365356445 l0.08618472144007683,3.3142751455307007 0.3053565137088299,2.268582582473755 l0.6436678767204285,0.8428042382001877 11.727427244186401,-0.855189710855484 l8.479934334754944,0.029530348256230354 0.3253859281539917,-5.565530061721802 l-0.4951557144522667,-9.973617792129517 -10.242794752120972,-0.7375643402338028 l-9.31536078453064,0.42819932103157043 m21.58886194229126,0.8243601769208908 l0.41304953396320343,8.655837774276733 0.5062413588166237,4.769769012928009 l0.9525258094072342,1.745557188987732 10.177608728408813,-1.1697851121425629 l0.6462562084197998,-4.5962682366371155 -0.26544759050011635,-6.299305558204651 l-7.414358854293823,-1.5753015875816345 " fill="none" stroke="black" stroke-width="1" /></svg>