<?xml version="1.0" encoding="utf-8" ?>
<svg baseProfile="full" height="2645.0" version="1.1" width="6085.0" xmlns="http://www.w3.org/2000/svg" xmlns:ev="http://www.w3.org/2001/xml-events" xmlns:xlink="http://www.w3.org/1999/xlink"><defs /><rect fill="white" height="2645.0" width="6085.0" x="0" y="0" /><path d="M835.0,25 m785.0,95.0 l340.0,75.0 700.0,105.0 l1025.0,105.0 235.0,40.0 l645.0,40.0 250.0,30.0 l195.0,-25.0 15.0,25.0 l0.0,210.0 -65.0,1030.0 l80.0,15.0 520.0,10.0 l500.0,30.0 0.0,25.0 l-205.0,185.0 -220.0,360.0 l-30.0,80.0 -120.0,25.0 l-180.0,10.0 -270.0,-30.0 l-385.0,-75.0 -385.0,-125.0 l-225.0,-90.0 -315.0,-95.0 l-485.0,-115.0 -345.0,-50.0 l-380.0,-15.0 -705.0,20.0 l-390.0,40.0 -680.0,120.0 l-480.0,-115.0 -190.0,-70.0 l-45.0,-45.0 0.0,-40.0 l60.0,-335.0 115.0,-505.0 l90.0,-255.0 60.0,-245.0 l65.0,-130.0 m885.0,1605.0 l-10.0,25.0 45.0,200.0 l35.0,280.0 95.0,170.0 l430.0,-5.0 50.0,-30.0 l145.0,-300.0 0.0,-50.0 l-85.0,-260.0 -40.0,-70.0 l-90.0,-45.0 -50.0,-10.0 l-55.0,10.0 m1260.0,185.0 l-125.0,170.0 -25.0,200.0 l80.0,60.0 140.0,65.0 l130.0,10.0 165.0,-25.0 l40.0,-45.0 80.0,-220.0 l-30.0,-55.0 -75.0,-60.0 l-110.0,-35.0 m-2290.0,-1705.0 l370.0,70.0 270.0,10.0 l50.0,225.0 5.0,105.0 l-25.0,465.0 -270.0,-50.0 l-1015.0,-50.0 -150.0,-45.0 l-60.0,-35.0 10.0,-55.0 l300.0,-485.0 110.0,-165.0 l160.0,-190.0 m920.0,290.0 l-15.0,105.0 0.0,395.0 l25.0,535.0 " fill="none" stroke="black" stroke-width="1" /></svg>