<?xml version="1.0" encoding="utf-8" ?>
<svg baseProfile="full" height="86.34135117625192" version="1.1" width="82.05139759189478" xmlns="http://www.w3.org/2000/svg" xmlns:ev="http://www.w3.org/2001/xml-events" xmlns:xlink="http://www.w3.org/1999/xlink"><defs /><rect fill="white" height="86.34135117625192" width="82.05139759189478" x="0" y="0" /><path d="M40.816525015980005,36.72477824484304 m-0.26780614629387856,-1.3618873059749603 l-1.9047655165195465,-1.5387223660945892 -2.548118531703949,-1.2260524928569794 l-2.74171382188797,-0.45153625309467316 -2.2852078080177307,0.3982677310705185 l-2.050430327653885,1.3556638360023499 -1.5348322689533234,1.7427663505077362 l-1.7373880743980408,3.518415093421936 -0.7462625205516815,3.0712324380874634 l0.0005104642332298681,5.454842448234558 1.1420054733753204,4.53558087348938 l1.814817190170288,3.4257790446281433 1.7158901691436768,2.0790819823741913 l1.900031864643097,1.4924418926239014 2.1591506898403168,1.0531269013881683 l5.327631831169128,1.067572757601738 4.78087455034256,-0.00017807085896492936 l4.975757896900177,-1.6809742152690887 2.9895395040512085,-2.049075812101364 l3.037272095680237,-3.6789095401763916 1.4568586647510529,-3.277299404144287 l0.7505880296230316,-4.62557852268219 0.00046916797145968303,-3.9414262771606445 l-1.065668910741806,-3.8473644852638245 -1.3598616421222687,-2.433665096759796 l-1.6829295456409454,-1.7564602196216583 -1.9989226758480072,-1.1748424917459488 l-2.27289155125618,-0.6215330585837364 -3.62520694732666,-0.00040418140997644514 l-1.7802727222442627,0.6227900832891464 -2.003537267446518,1.608993262052536 m-0.9620294719934464,0.11864391155540943 l-0.08817649446427822,-1.0742328315973282 0.7246807962656021,-3.4728652238845825 l1.6994529962539673,-3.0130520462989807 1.4895623922348022,-1.3064515590667725 l2.0829324424266815,-0.7374653965234756 1.4095894992351532,0.054211681708693504 l1.3611938059329987,1.0175026208162308 0.8704113960266113,2.063550502061844 l-0.1911143772304058,2.5348418951034546 -2.2508350014686584,1.8232084810733795 l-4.692682921886444,1.3597263395786285 -1.6872642934322357,0.2061023749411106 l-1.2521596252918243,-0.4706258699297905 " fill="none" stroke="black" stroke-width="1" /></svg>