<?xml version="1.0" encoding="utf-8" ?>
<svg baseProfile="full" height="70.7303824549308" version="1.1" width="77.82789494842291" xmlns="http://www.w3.org/2000/svg" xmlns:ev="http://www.w3.org/2001/xml-events" xmlns:xlink="http://www.w3.org/1999/xlink"><defs /><rect fill="white" height="70.7303824549308" width="77.82789494842291" x="0" y="0" /><path d="M46.4101470951573,28.53974487108644 m-0.24699578061699867,-0.2905183658003807 m-3.4714385867118835,-2.504996955394745 l-1.4670442044734955,-0.5787654593586922 -1.8521153926849365,0.2448657713830471 l-2.36684188246727,1.9845229387283325 -0.8909261226654053,1.6515201330184937 l-0.23825878277420998,2.2452518343925476 0.33494189381599426,0.7783166319131851 l1.9583652913570404,1.074954867362976 1.50538831949234,0.34889601171016693 l3.005508780479431,-0.15667147934436798 -0.5544725432991982,-0.6759592890739441 l-1.575828641653061,-0.75033999979496 -1.548842191696167,-0.43216582387685776 l-1.8440885841846466,0.07508914452046156 -1.6420479118824005,0.7891923934221268 l-1.4098763465881348,1.7074455320835114 -0.7554556429386139,2.5325772166252136 l0.21682733669877052,2.9654812812805176 1.5210072696208954,2.736378014087677 m9.191173911094666,-13.918015956878662 l1.3527745008468628,8.848916292190552 m-5.914551615715027,-0.6453602761030197 l-0.11184301227331161,5.292612314224243 m0.6848864257335663,-5.4213303327560425 l0.4284728318452835,3.2575419545173645 0.4148832708597183,3.109517991542816 m-1.438755989074707,-8.75942051410675 l-1.229136660695076,0.09760260581970215 -1.4518222212791443,0.3022218868136406 l-2.013479769229889,0.9619570523500443 -1.205352544784546,1.3164308667182922 l-0.5572491884231567,1.393001228570938 -0.002734962909016758,1.345468908548355 l0.8715618401765823,1.9147878885269165 1.4113645255565643,1.214231550693512 l1.7279304563999176,0.6010965257883072 2.9498320817947388,0.07182173430919647 l1.951247900724411,-0.65684974193573 1.4163409173488617,-1.1397160589694977 l0.777953490614891,-1.404367834329605 0.24437597021460533,-1.5775468945503235 l-0.6605353951454163,-2.1508364379405975 -1.1607080698013306,-1.3634654879570007 l-2.188245952129364,-1.140613704919815 m-2.901751399040222,3.372103273868561 l2.5800538063049316,-2.0254255831241608 2.907840311527252,-2.446146458387375 l2.651069760322571,-2.327902913093567 1.6373904049396515,-0.9812517464160919 l1.822374016046524,-0.5616383999586105 1.1683408915996552,0.20043669268488884 l1.2464560568332672,1.2660330533981323 1.0389503836631775,2.6746511459350586 l0.10083460249006748,3.4008976817131042 -1.25094935297966,3.219095468521118 l-2.3433098196983337,2.858670651912689 -3.0704325437545776,2.082035541534424 l-3.507676422595978,1.1643192172050476 m-6.181094646453857,-10.362914800643921 l-1.332317739725113,-1.424395740032196 -2.224588990211487,-1.6286568343639374 l-2.2413773834705353,-0.5246135592460632 -2.629069983959198,0.46771034598350525 l-1.3708668947219849,1.076473817229271 -1.3210776448249817,2.3785558342933655 l-0.3551335260272026,1.9714415073394775 0.3550853207707405,1.8395459651947021 l1.0956228524446487,1.5907680988311768 2.614661455154419,1.8534395098686218 l3.661319315433502,1.1378403007984161 3.223513960838318,-8.19092383608222e-05 l1.9076688587665558,-0.6894813477993011 m0.7098659127950668,-10.883375406265259 l-0.11509513482451439,-0.5000394582748413 0.553317666053772,-1.8815946578979492 l2.0318007469177246,-3.1624189019203186 1.732688993215561,-1.4228907227516174 l1.7698773741722107,-0.5656944960355759 1.5382519364356995,0.12381992302834988 l1.7668811976909637,1.2522640824317932 1.4430402219295502,2.53266841173172 l0.4329748824238777,3.1033411622047424 -0.72681725025177,2.8514236211776733 " fill="none" stroke="black" stroke-width="1" /></svg>