<?xml version="1.0" encoding="utf-8" ?>
<svg baseProfile="full" height="73.94507074961439" version="1.1" width="77.97822757158428" xmlns="http://www.w3.org/2000/svg" xmlns:ev="http://www.w3.org/2001/xml-events" xmlns:xlink="http://www.w3.org/1999/xlink"><defs /><rect fill="white" height="73.94507074961439" width="77.97822757158428" x="0" y="0" /><path d="M42.83609422735026,31.93430662387982 m-0.18706496804952621,-0.7103641331195831 l-2.6319369673728943,-2.009217292070389 -2.513292133808136,-1.2655425071716309 l-2.320152223110199,-0.1356339268386364 -1.6969296336174011,1.0914437472820282 l-0.9844113886356354,1.4519228041172028 -0.819486677646637,3.808448910713196 l0.0005087268436909653,2.783675491809845 0.3602602705359459,1.0217949748039246 l1.4928513765335083,1.494000405073166 2.1262258291244507,1.0440446436405182 l-0.3679574653506279,0.4913998395204544 -2.6406991481781006,2.038058638572693 l-1.3637901842594147,2.046431601047516 -0.32303497195243835,1.5766258537769318 l0.570208765566349,1.236962005496025 1.586933434009552,0.8426900207996368 l9.798029661178589,-1.1587521433830261 2.8836414217948914,-2.776620388031006 l1.002221256494522,-2.2913748025894165 0.35755597054958344,-3.3560550212860107 l-0.5604762956500053,-2.9688167572021484 -1.4073188602924347,-2.4232985079288483 l-1.3578790426254272,-1.0393034666776657 m-4.908102750778198,5.909817814826965 l-0.1964445598423481,2.9882434010505676 -0.3943725675344467,4.319110810756683 l-0.1400111522525549,3.001072108745575 m2.2917526960372925,-10.222190618515015 l0.6170077249407768,3.7168917059898376 0.5515530332922935,4.7950950264930725 m-3.6804956197738647,-11.659834384918213 l-0.11059246957302094,-0.4837776720523834 0.42769648134708405,-0.8902545273303986 l2.155977040529251,-2.9258888959884644 1.9951072335243225,-1.3899700343608856 l1.833469271659851,-0.47097694128751755 1.4324875175952911,0.255502313375473 l1.4862951636314392,1.2585239112377167 1.128961592912674,2.5052443146705627 l0.03130840137600899,1.649797409772873 -1.0319791734218597,2.0620089769363403 l-1.3267290592193604,1.060553789138794 -2.556426227092743,0.850609764456749 l-3.1146329641342163,0.025556916370987892 m-2.657345235347748,-6.078920960426331 l-3.7313470244407654,-2.327975779771805 -2.7278906106948853,-0.8826009184122086 l-2.894035577774048,-0.055066049098968506 -1.4467883110046387,0.6676908582448959 l-1.4409239590168,1.8770216405391693 -0.43359987437725067,1.7518964409828186 l0.28049610555171967,1.5837512910366058 1.0227155685424805,1.365286111831665 l2.6218190789222717,1.694076806306839 3.8740140199661255,1.1616159975528717 l2.4536053836345673,0.5417921394109726 m5.810863375663757,-8.182712197303772 l0.05236182361841202,-1.0099831223487854 0.907629206776619,-1.203559786081314 l2.6058754324913025,-1.7784182727336884 2.4674542248249054,-0.773901641368866 l2.061213403940201,-0.03416757332161069 1.5339712798595428,0.685359388589859 l1.663002222776413,1.9327957928180695 0.5979835242033005,1.5979468822479248 l0.025222920812666416,2.3366649448871613 -1.2214509397745132,2.479558140039444 l-1.2549427151679993,1.1206644028425217 -2.443850338459015,0.9689557552337646 l-3.2828599214553833,0.26561107486486435 -2.0132654905319214,-0.6755818426609039 m-2.6660344004631042,-9.943678379058838 l2.4221619963645935,-2.1859459578990936 2.1968986093997955,-0.9801369905471802 " fill="none" stroke="black" stroke-width="1" /></svg>