<?xml version="1.0" encoding="utf-8" ?>
<svg baseProfile="full" height="77.3449445515871" version="1.1" width="78.44054765624605" xmlns="http://www.w3.org/2000/svg" xmlns:ev="http://www.w3.org/2001/xml-events" xmlns:xlink="http://www.w3.org/1999/xlink"><defs /><rect fill="white" height="77.3449445515871" width="78.44054765624605" x="0" y="0" /><path d="M40.314424354583025,29.747729934751987 m-0.2434147335588932,-1.3092240691184998 l-2.0105651021003723,-1.6850563883781433 -2.6782360672950745,-1.2938687205314636 l-2.729623317718506,-0.45958075672388077 -1.3663192093372345,0.17143052071332932 l-2.1265892684459686,1.2857386469841003 -1.5861783921718597,1.781579852104187 l-1.7347070574760437,3.5942742228507996 -0.8387912064790726,4.971548616886139 l0.0003260336598032154,4.379711151123047 1.042715311050415,3.708876073360443 l1.2555550038814545,2.329871654510498 1.4303798973560333,1.6756224632263184 l1.7299383878707886,1.2876954674720764 4.318481087684631,1.6986072063446045 l2.8902536630630493,0.45998867601156235 4.704463183879852,-0.0002787709854601417 l4.509859085083008,-1.6761685907840729 2.5786322355270386,-2.029087245464325 l3.2608652114868164,-5.726755261421204 0.7190785557031631,-3.5627281665802 l-0.049787270836532116,-4.471428394317627 -1.4562958478927612,-3.4214136004447937 l-1.6451652348041534,-2.241640090942383 -1.8793009221553802,-1.56534343957901 l-2.089427262544632,-0.9696290642023087 -2.2636038064956665,-0.42470362037420273 l-3.033025860786438,-0.0005540867641684599 -2.9842397570610046,0.9696654230356216 l-1.4461785554885864,1.0647756606340408 m0.5075664818286896,8.296750783920288 l0.04166902042925358,-0.593469887971878 0.7320767641067505,-1.6782768070697784 l2.0489828288555145,-3.5060521960258484 2.045697271823883,-2.560811936855316 l2.248605340719223,-1.8433663249015808 1.400689035654068,-0.6139647215604782 m-8.938187956809998,9.667874574661255 l-0.4180775582790375,-0.2731221728026867 -0.2542894333600998,-0.025662125553935766 l-0.3856828436255455,0.6697117537260056 -0.39868999272584915,1.8257202208042145 l0.5054720863699913,1.230333372950554 1.0048872232437134,0.7177193462848663 l1.942988783121109,0.34407906234264374 1.3266204297542572,-0.3659922629594803 l1.428208202123642,-1.296018809080124 0.48397980630397797,-1.3185222446918488 l-0.3769003599882126,-1.7562898993492126 -1.7153501510620117,-1.6652517020702362 l-2.7350279688835144,-1.0553605109453201 " fill="none" stroke="black" stroke-width="1" /></svg>