<?xml version="1.0" encoding="utf-8" ?>
<svg baseProfile="full" height="89.24662386477394" version="1.1" width="85.02192300289607" xmlns="http://www.w3.org/2000/svg" xmlns:ev="http://www.w3.org/2001/xml-events" xmlns:xlink="http://www.w3.org/1999/xlink"><defs /><rect fill="white" height="89.24662386477394" width="85.02192300289607" x="0" y="0" /><path d="M40.692328196018934,37.517472034696766 m-0.3082261048257351,-1.405070275068283 l-1.7273624241352081,-1.35559543967247 -2.63823539018631,-1.138082817196846 l-2.5075283646583557,-0.3855949267745018 -2.2798101603984833,0.4148559644818306 l-2.1096400916576385,1.4211751520633698 -1.6381186246871948,1.9328665733337402 l-1.729719638824463,3.6814719438552856 -0.753687396645546,3.270803391933441 l0.00041977902583312243,5.4678744077682495 1.240856796503067,4.726358652114868 l2.1440118551254272,3.9457082748413086 1.3473564386367798,1.6353118419647217 l2.649105489253998,2.131746858358383 2.5953683257102966,1.2601543962955475 l5.537340044975281,1.1251678317785263 5.2396780252456665,-0.00010836142791958991 l5.1903218030929565,-1.857396513223648 3.1539827585220337,-2.1959860622882843 l3.263050615787506,-3.848430812358856 1.6033253073692322,-3.337845802307129 l1.056859865784645,-4.616476595401764 0.0002458978633512743,-4.378869831562042 l-1.1119774729013443,-3.8799700140953064 -1.3832616806030273,-2.42082417011261 l-1.6908864676952362,-1.7653676867485046 -1.905016005039215,-1.1741551011800766 l-2.2948352992534637,-0.7176464796066284 -3.512699604034424,-0.00021618065147777088 l-3.1393402814865112,0.9763798117637634 -1.6282126307487488,1.0986220091581345 l-1.3631193339824677,1.7990221083164215 m0.06306874100118876,-1.191968396306038 l-0.25053974241018295,-1.8653862178325653 0.19696848466992378,-4.522296786308289 l1.0092460364103317,-2.919442057609558 1.1551306396722794,-1.330104023218155 l1.9933326542377472,-0.938945934176445 1.550115942955017,-0.15921076759696007 l1.648334413766861,0.7088679820299149 0.6736811995506287,0.878363698720932 l-0.045385309495031834,1.7199893295764923 -2.089144140481949,2.6538723707199097 " fill="none" stroke="black" stroke-width="1" /></svg>