<?xml version="1.0" encoding="utf-8" ?>
<svg baseProfile="full" height="72.35430906526744" version="1.1" width="83.5287175886333" xmlns="http://www.w3.org/2000/svg" xmlns:ev="http://www.w3.org/2001/xml-events" xmlns:xlink="http://www.w3.org/1999/xlink"><defs /><rect fill="white" height="72.35430906526744" width="83.5287175886333" x="0" y="0" /><path d="M45.44328905896691,32.3475102847442 m-0.21800003945827484,-0.5054726451635361 l-2.6746666431427,-1.896197497844696 -2.4553312361240387,-1.2321837246418 l-2.0438961684703827,-0.0027946988120675087 -1.9836197793483734,1.971251517534256 l-0.6112395972013474,1.6246724128723145 0.0003942076727980748,2.2008581459522247 l0.6042197719216347,1.271667331457138 1.865898072719574,1.4827771484851837 l-1.047510802745819,0.50942312926054 -3.4276145696640015,1.9386553764343262 l-1.1616090685129166,1.489071100950241 -0.46834394335746765,1.4986251294612885 l0.3227439895272255,2.13504821062088 1.2229382991790771,1.3156655430793762 l1.970481425523758,0.8803246915340424 5.670106410980225,0.32540760934352875 l3.623459041118622,-1.352735310792923 1.5302197635173798,-1.5350691974163055 l0.9507933259010315,-2.8397470712661743 -0.02152400091290474,-5.4043543338775635 l-0.6093094497919083,-1.9777697324752808 m-5.71919322013855,1.9258521497249603 l-0.6261829286813736,3.324197232723236 -0.7242080569267273,4.061609506607056 m2.4955937266349792,-7.475578188896179 l0.34796811640262604,3.7389904260635376 0.3952101618051529,3.8893789052963257 m-2.564237415790558,-7.2957998514175415 l-2.3258961737155914,-0.4631724953651428 -1.7731553316116333,-0.1527195144444704 l-1.9811330735683441,0.24668000638484955 -2.135654389858246,1.053975597023964 l-1.2673260271549225,1.3988377153873444 -0.5239967629313469,1.4775434136390686 l0.17572952434420586,1.3493481278419495 1.378220021724701,1.895705759525299 l1.7724472284317017,1.0120492428541183 2.8039631247520447,0.4479076713323593 l2.8948161005973816,-0.39396051317453384 m3.0170562863349915,-8.951097130775452 l3.8690730929374695,-1.6487699747085571 2.597203850746155,-0.27097659185528755 l1.451057344675064,0.5503396317362785 1.259004920721054,1.6731232404708862 l0.5801929906010628,2.699437439441681 -0.5355189368128777,2.7735182642936707 l-1.7794087529182434,2.2722944617271423 -1.5238311886787415,0.8834672719240189 l-2.507096529006958,0.45256514102220535 -1.926160305738449,-0.6918096542358398 m-3.7454503774642944,-11.0502290725708 l-0.6543266028165817,-0.7825884222984314 -1.0937294363975525,-1.1101310700178146 l-2.9707545042037964,-2.754988968372345 -1.5028205513954163,-1.2507326900959015 l-1.8635864555835724,-1.165178343653679 -2.01757475733757,-0.7559069246053696 l-2.1664296090602875,-0.15781521797180176 -1.2595875561237335,0.50419881939888 l-0.8855871856212616,1.0719605535268784 -0.44656842947006226,1.534809172153473 l0.22766528651118279,2.834010422229767 1.0511700809001923,2.1843528747558594 l1.5415872633457184,1.7748402059078217 2.791798710823059,1.992022693157196 l3.3339619636535645,1.3916763663291931 2.724682092666626,0.9633266180753708 m7.8896564245224,-7.311391234397888 l0.9033258259296417,-1.1325138807296753 1.7313075065612793,-1.3451801240444183 l3.0788981914520264,-1.6709457337856293 2.330549508333206,-0.6006118282675743 l2.536303997039795,0.10660885833203793 1.4991068840026855,0.8142043650150299 l1.4109916985034943,1.9478334486484528 0.47771215438842773,1.5637855231761932 l-0.16359426081180573,2.458305209875107 -1.5405173599720001,2.741437554359436 l-2.7418169379234314,2.353743314743042 -3.471095561981201,1.539192646741867 " fill="none" stroke="black" stroke-width="1" /></svg>