<?xml version="1.0" encoding="utf-8" ?>
<svg baseProfile="full" height="69.07032354734838" version="1.1" width="80.05390111356974" xmlns="http://www.w3.org/2000/svg" xmlns:ev="http://www.w3.org/2001/xml-events" xmlns:xlink="http://www.w3.org/1999/xlink"><defs /><rect fill="white" height="69.07032354734838" width="80.05390111356974" x="0" y="0" /><path d="M44.610198428854346,27.68989713396877 m-0.29985448345541954,-0.06736570503562689 m-3.495098054409027,-2.3087452352046967 l-1.2911967933177948,-0.31378619372844696 -1.611819565296173,0.5402467027306557 l-0.9523062407970428,1.0580529272556305 -0.9489421546459198,2.999410629272461 l0.13646711595356464,0.7868142426013947 1.583801507949829,0.9654184430837631 l1.6130124032497406,0.17694557085633278 0.20604576915502548,-1.1810971051454544 l-1.2475719302892685,-1.0127852112054825 -1.311822086572647,-0.43553486466407776 l-1.4813168346881866,0.20842814818024635 -0.6765446066856384,0.6851544231176376 l-0.3920327126979828,2.183344066143036 0.5846477672457695,3.4630274772644043 l0.7974108308553696,3.2787543535232544 m4.097975492477417,-7.727581262588501 l0.5247005075216293,4.559319615364075 m-2.6091453433036804,0.24140264838933945 l-0.9736122936010361,6.488892436027527 m1.3937932252883911,-5.697871446609497 l-3.9665332436561584,0.8189341425895691 -2.226998507976532,0.9685540944337845 m6.060033440589905,-1.9508762657642365 l0.3686144948005676,1.1064943671226501 1.1067219823598862,2.4000446498394012 l1.413036286830902,1.785072535276413 m-3.2462140917778015,-5.7515305280685425 l2.618740499019623,0.03487563692033291 2.597910463809967,-0.36404576152563095 l1.4787712693214417,-0.36966562271118164 m-5.515406131744385,-0.776103213429451 l0.16967030242085457,-0.3097110614180565 1.0908623784780502,-0.4362424463033676 l4.1068872809410095,-1.5438735485076904 2.3569902777671814,-0.5235839262604713 l2.5843974947929382,-0.07706655189394951 2.4833284318447113,0.7070419937372208 l2.082798033952713,1.7156195640563965 0.8427485078573227,1.4128591120243073 l0.39075199514627457,2.100686877965927 -0.5582405999302864,2.4422840774059296 l-0.9474702179431915,1.3268844783306122 -2.169404625892639,1.4643628895282745 l-3.4888696670532227,1.0623932629823685 -4.190860390663147,0.24657299742102623 l-2.6082149147987366,-0.8500669151544571 -0.854249969124794,-0.7947142422199249 l-0.6592173129320145,-1.8245510756969452 m-0.5914092063903809,-7.43208110332489 l-1.2373940646648407,-0.9952642023563385 -2.364976704120636,-1.2161900848150253 l-5.38249671459198,-1.04644276201725 -2.3009636998176575,0.706535130739212 l-1.370444893836975,1.2284132838249207 -0.8776403963565826,1.5662993490695953 l-0.452047735452652,2.774369716644287 0.43999310582876205,1.981726586818695 l1.179654598236084,1.6865581274032593 1.7944720387458801,1.2609946727752686 l5.387558937072754,1.5558186173439026 4.988391101360321,0.04668631590902805 l2.3786669969558716,-0.686865895986557 m-3.129167854785919,-11.784098148345947 l3.210703730583191,-1.544301062822342 2.612312138080597,-0.7013462483882904 l1.8053270876407623,0.06421465892344713 2.0279251039028168,1.0470568388700485 l1.7148038744926453,2.4237817525863647 0.6953482329845428,3.156491219997406 l-0.43930593878030777,2.9254603385925293 -0.9534447640180588,1.3147932291030884 l-2.182640880346298,1.4574414491653442 -1.9199289381504059,0.4704981669783592 l-4.392881691455841,-0.38916509598493576 -1.1095698177814484,-0.7004888355731964 l-1.130465567111969,-1.8316195905208588 -0.6012511998414993,-3.255169093608856 l0.2657187543809414,-2.271279990673065 m4.393757581710815,0.08009299635887146 l0.5235676467418671,3.0305373668670654 0.38962941616773605,3.746262788772583 l0.2785523422062397,2.508772909641266 0.38643885403871536,1.5612339973449707 l0.6377492100000381,0.654909759759903 m-1.9053025543689728,-13.032398223876953 l3.1563302874565125,-1.9616538286209106 2.293945997953415,-0.9417031705379486 l2.3775342106819153,-0.5992541462182999 2.193569540977478,-0.04970898851752281 l2.016451507806778,0.6539640575647354 " fill="none" stroke="black" stroke-width="1" /></svg>