<?xml version="1.0" encoding="utf-8" ?>
<svg baseProfile="full" height="79.34835245993895" version="1.1" width="81.39530333224684" xmlns="http://www.w3.org/2000/svg" xmlns:ev="http://www.w3.org/2001/xml-events" xmlns:xlink="http://www.w3.org/1999/xlink"><defs /><rect fill="white" height="79.34835245993895" width="81.39530333224684" x="0" y="0" /><path d="M45.36114253456617,37.99388824191851 m-0.1965639367699623,-1.049562618136406 l-2.451823353767395,-1.8988335132598877 -2.6415598392486572,-1.3190092146396637 l-2.630179226398468,-0.4382789507508278 -1.2400111556053162,0.2262299507856369 l-1.98648139834404,1.4247962832450867 -1.918187439441681,2.880234122276306 l-0.8682418614625931,2.483571022748947 0.0005480955223902129,3.804425895214081 l0.689506009221077,3.3271461725234985 0.5875773727893829,1.3874118030071259 l1.8080289661884308,2.5083839893341064 1.0334136337041855,0.9430240094661713 l2.7556902170181274,1.4860863983631134 2.3065243661403656,0.5888388678431511 l3.8828185200691223,-0.0004235286178300157 5.476691126823425,-2.654738128185272 l1.0426456481218338,-1.2685352563858032 1.2943349778652191,-4.731807708740234 l0.0011689431266859174,-3.935590982437134 -1.349557638168335,-3.099336326122284 l-1.95781871676445,-2.218433916568756 -1.8555475771427155,-1.0968966782093048 l-1.9861510396003723,-0.4678482189774513 -2.250072807073593,-0.0005478605089592747 l-2.2604721784591675,0.9550909698009491 m-2.378273606300354,12.05485463142395 l-0.6721905618906021,2.4849358201026917 -0.4944007098674774,2.3965679109096527 l0.18203571438789368,1.166885495185852 1.8432527780532837,-2.9857915251341183e-07 l1.4433388411998749,-2.6921308040618896 0.2000761218369007,-2.330787628889084 m1.837501972913742,0.34831754863262177 l1.5906810760498047,1.1774678528308868 1.8262523412704468,1.2571577727794647 l1.1587127298116684,0.2040468528866768 1.0682332515716553,-0.7509465515613556 l0.70496566593647,-1.856764703989029 -0.3294973447918892,-3.752778172492981 m-11.921374797821045,-12.018216848373413 l-1.2136117368936539,-1.5588033199310303 -1.3665905594825745,-1.8401739001274109 l-1.3521677255630493,-1.8865786492824554 -0.9089025110006332,-1.1246772855520248 l-1.219133511185646,-1.1385516822338104 -1.7690914869308472,-0.9691088646650314 l-1.1243736743927002,0.13253440149128437 -1.528981477022171,1.3142986595630646 l-0.7970665395259857,1.6672113537788391 -0.42681649327278137,3.0089399218559265 l0.41884228587150574,2.157556861639023 1.0311760008335114,1.6098417341709137 l1.4606867730617523,1.1439193040132523 2.5891104340553284,0.9223567694425583 m16.4621901512146,-4.182234406471252 l0.04441420082002878,-1.13076351583004 0.9611909091472626,-1.3083277642726898 l1.6267156600952148,-1.0375160723924637 1.7684876918792725,-0.39759084582328796 l1.5661923587322235,0.23249560967087746 1.781955510377884,1.2307947129011154 l1.454579085111618,2.444044202566147 0.2297622710466385,1.5634100139141083 " fill="none" stroke="black" stroke-width="1" /></svg>