<?xml version="1.0" encoding="utf-8" ?>
<svg baseProfile="full" height="76.63461446802103" version="1.1" width="74.92500890526571" xmlns="http://www.w3.org/2000/svg" xmlns:ev="http://www.w3.org/2001/xml-events" xmlns:xlink="http://www.w3.org/1999/xlink"><defs /><rect fill="white" height="76.63461446802103" width="74.92500890526571" x="0" y="0" /><path d="M39.88272003829479,31.87191244254791 m-0.21272405982017517,-1.194581463932991 l-2.1692760288715363,-1.841949224472046 -2.5578293204307556,-1.3996651768684387 l-1.6930022835731506,-0.3522459417581558 -2.429783195257187,0.3223172202706337 l-2.2769640386104584,1.516946405172348 -1.4785866439342499,1.762031465768814 l-1.4811262488365173,3.338005244731903 -0.583428218960762,2.8761377930641174 l0.0005471819895319641,4.359624981880188 1.0173087567090988,3.6379629373550415 l1.6103832423686981,2.646765112876892 1.0048004239797592,1.0818834602832794 l2.0405851304531097,1.4148123562335968 2.1435968577861786,0.8751846849918365 l4.950306713581085,0.7194721698760986 4.262673556804657,-0.00019977840565843508 l3.676784932613373,-1.8135255575180054 1.9477131962776184,-2.146182209253311 l2.269536107778549,-6.10616147518158 0.0007728049240540713,-4.800646007061005 l-1.3663999736309052,-3.371397852897644 -1.5561947226524353,-2.1946153044700623 l-1.7733892798423767,-1.473962515592575 -1.9976058602333069,-0.8933711796998978 l-2.116664946079254,-0.3024755045771599 -2.889162600040436,0.4706798493862152 l-1.441897302865982,0.8294753730297089 m-2.190711498260498,10.163130760192871 l-0.14503532089293003,0.4819091781973839 -0.1294293813407421,1.017431914806366 l0.1543605886399746,0.5832823365926743 3.372335135936737,-1.9916163384914398 l-0.5949854850769043,-0.5736833065748215 -1.226043626666069,0.1529183518141508 m0.17273638397455215,0.4346155375242233 l1.044423133134842,-3.282872438430786 3.0417343974113464,-6.552294492721558 l1.447318196296692,-2.0288732647895813 1.2988363206386566,-0.8829347044229507 l1.672695130109787,-0.3778086230158806 1.7825669050216675,0.4559686779975891 l0.8085266500711441,0.9107434749603271 0.36477483808994293,1.8990316987037659 l-0.7592117786407471,2.5961926579475403 -2.03447163105011,2.6050546765327454 l-2.773258090019226,2.087337225675583 -3.0063587427139282,1.225777119398117 m-5.27758002281189,-5.651638507843018 l-0.5452192947268486,-0.8300550282001495 -0.8678514510393143,-1.0834739357233047 l-1.9664151966571808,-2.1713465452194214 -0.7008215039968491,-0.9068267792463303 l-0.6935083121061325,-0.8901923894882202 -0.5063321441411972,-0.8448713272809982 l-0.06282305344939232,-0.7722500711679459 0.9084054082632065,-0.6048881635069847 " fill="none" stroke="black" stroke-width="1" /></svg>