<?xml version="1.0" encoding="utf-8" ?>
<svg baseProfile="full" height="77.71405845880508" version="1.1" width="77.15666437521577" xmlns="http://www.w3.org/2000/svg" xmlns:ev="http://www.w3.org/2001/xml-events" xmlns:xlink="http://www.w3.org/1999/xlink"><defs /><rect fill="white" height="77.71405845880508" width="77.15666437521577" x="0" y="0" /><path d="M42.098181437613675,33.23250142730103 m-0.17610901966691017,-0.8958671987056732 l-2.598942518234253,-1.9706383347511292 -2.7466535568237305,-1.4230480790138245 l-1.5802636742591858,-0.24593090638518333 -2.1389231085777283,0.6909748911857605 l-1.3910458981990814,1.230224221944809 -1.4588530361652374,2.680915892124176 l-0.6970452517271042,3.5463184118270874 0.00036963363527320325,3.066081702709198 l0.36197446286678314,1.2408912926912308 1.5807221829891205,2.169155031442642 l1.5216818451881409,1.4828039705753326 2.0572787523269653,1.273830533027649 l2.4465125799179077,0.7267937064170837 2.116044759750366,-0.0004311373413656838 l3.4257861971855164,-1.6229450702667236 1.3943029940128326,-2.7303144335746765 l0.6353706121444702,-6.093468070030212 -1.0071075707674026,-2.815774977207184 l-1.6330081224441528,-1.6163773834705353 -1.6832554340362549,-0.7640689611434937 l-2.086978405714035,-0.0007234033546410501 -1.1606856435537338,0.63974529504776 l-1.1179053783416748,1.6214142739772797 m-1.5058323740959167,7.375131845474243 l-1.0704049468040466,6.185706853866577 -0.9517905116081238,4.013241827487946 l-0.4337453097105026,1.7179152369499207 m6.738795638084412,-9.530468583106995 l1.312624216079712,3.333033323287964 1.648416668176651,4.060981273651123 l0.9370921552181244,1.9025707244873047 m-9.18627679347992,-16.864131689071655 l-0.8305268734693527,-0.8922316133975983 -1.0720735043287277,-1.663948893547058 l-1.0732050985097885,-2.383461892604828 -0.48583317548036575,-1.6113705933094025 l-0.14782373793423176,-1.1623868346214294 0.2785168029367924,-1.3584335148334503 l0.862480029463768,-0.9829716384410858 1.395965963602066,-0.5612385272979736 l1.5643498301506042,0.07035686168819666 2.1327559649944305,1.1067953705787659 l1.876668632030487,2.282346487045288 0.5454181134700775,1.7211829125881195 l-0.047551863826811314,2.1862007677555084 m1.8868467211723328,1.0360288619995117 l3.5383206605911255,-2.431366443634033 2.3676154017448425,-0.8888742327690125 l2.7086088061332703,-0.149838300421834 1.4317460358142853,0.6538499146699905 l1.217581182718277,1.723230928182602 0.35647690296173096,1.4597886800765991 l-0.4293789342045784,2.1049323678016663 -0.9390029311180115,1.1579090356826782 l-2.1895304322242737,1.1825992166996002 -3.1685489416122437,0.5999276041984558 m-10.038121938705444,-5.372975468635559 l-1.236453801393509,-1.1846207082271576 -1.5101252496242523,-1.3795402646064758 l-1.7683960497379303,-1.4280644059181213 -1.895260214805603,-1.3403676450252533 l-1.9229789078235626,-1.1861270666122437 -1.9249805808067322,-0.786835178732872 l-0.13388639315962791,0.5908582732081413 0.6357426196336746,2.113877832889557 l1.4267529547214508,2.040468007326126 2.5946778059005737,2.3776307702064514 " fill="none" stroke="black" stroke-width="1" /></svg>