<?xml version="1.0" encoding="utf-8" ?>
<svg baseProfile="full" height="2175.0" version="1.1" width="1655.0" xmlns="http://www.w3.org/2000/svg" xmlns:ev="http://www.w3.org/2001/xml-events" xmlns:xlink="http://www.w3.org/1999/xlink"><defs /><rect fill="white" height="2175.0" width="1655.0" x="0" y="0" /><path d="M305.0,995.0 m-65.0,-100.0 l-140.0,-400.0 -75.0,-470.0 l210.0,225.0 140.0,185.0 l170.0,320.0 85.0,-105.0 l95.0,-65.0 55.0,-25.0 l145.0,-25.0 115.0,0.0 l70.0,30.0 130.0,130.0 l15.0,60.0 65.0,-50.0 l45.0,-65.0 200.0,-385.0 l25.0,145.0 0.0,200.0 l-45.0,285.0 30.0,55.0 l35.0,165.0 20.0,240.0 l-5.0,335.0 -10.0,75.0 l-55.0,120.0 -180.0,160.0 l-145.0,70.0 -160.0,45.0 l-190.0,0.0 -135.0,-35.0 l-255.0,-125.0 -195.0,-335.0 l-70.0,-360.0 -5.0,-305.0 l20.0,-60.0 m550.0,-60.0 l-155.0,110.0 -25.0,70.0 l10.0,25.0 75.0,0.0 l80.0,-80.0 5.0,-110.0 m215.0,15.0 l-25.0,15.0 -55.0,145.0 l240.0,45.0 80.0,-45.0 l0.0,-70.0 -210.0,-80.0 m-185.0,400.0 l-10.0,180.0 m-50.0,55.0 l-280.0,-120.0 m180.0,115.0 l-180.0,50.0 m240.0,15.0 l-175.0,80.0 m385.0,-255.0 l255.0,-115.0 -55.0,75.0 m-215.0,115.0 l340.0,0.0 m-275.0,25.0 l20.0,40.0 105.0,80.0 m-555.0,105.0 l20.0,70.0 50.0,70.0 l105.0,45.0 210.0,-25.0 l130.0,-130.0 " fill="none" stroke="black" stroke-width="1" /></svg>