<?xml version="1.0" encoding="utf-8" ?>
<svg baseProfile="full" height="70.30187679687515" version="1.1" width="74.80648797005415" xmlns="http://www.w3.org/2000/svg" xmlns:ev="http://www.w3.org/2001/xml-events" xmlns:xlink="http://www.w3.org/1999/xlink"><defs /><rect fill="white" height="70.30187679687515" width="74.80648797005415" x="0" y="0" /><path d="M26.925547434802866,40.81601928919554 m-1.3275878131389618,-2.047819197177887 l-0.5955572798848152,-3.3511704206466675 -0.0024023417790886015,-2.087692767381668 l0.55433738976717,-1.9644804298877716 2.1696506440639496,-2.847324013710022 l3.061964511871338,-2.098689377307892 2.668887674808502,-0.9679773449897766 l4.061653017997742,-0.450865738093853 3.8477623462677,0.3464379906654358 l2.54984974861145,0.882459431886673 2.241225838661194,1.3632832467556 l1.8023836612701416,1.8587040901184082 1.2607447803020477,2.297890782356262 l0.5880283564329147,2.608041763305664 -0.020128590986132622,2.599044442176819 l-0.82271508872509,2.2537384927272797 -1.6320028901100159,2.212005853652954 l-2.241954505443573,1.803985983133316 -2.7150431275367737,1.3172997534275055 l-3.1472864747047424,0.728297084569931 -4.330982863903046,0.030687882099300623 l-4.011154770851135,-1.0381551831960678 -2.552286684513092,-1.4108328521251678 l-1.713830977678299,-1.8784336745738983 -0.7780063152313232,-2.158627361059189 l0.10493041016161442,-2.1856005489826202 m7.7336156368255615,-4.1592490673065186 l-0.23953355848789215,-0.08082621730864048 0.1008263137191534,-0.11840471997857094 l0.27924882248044014,0.15494867227971554 0.31080015003681183,0.46290017664432526 l-0.04993223585188389,0.41481733322143555 -0.3691021353006363,0.05142445210367441 l0.06853741127997637,-0.8186224848031998 0.5324198678135872,0.3503262996673584 l0.08960362523794174,0.672362819314003 -0.4413609951734543,0.23653266951441765 l-0.08210171014070511,-0.7381654530763626 0.5109308287501335,0.11016344651579857 l0.22568585351109505,0.6498870253562927 -0.30817843973636627,0.23958170786499977 l-0.10275663807988167,-0.6941761821508408 0.47738805413246155,0.1162256021052599 l0.15753360465168953,0.5732449144124985 -0.28549356386065483,0.1673424057662487 l-0.028305205050855875,-0.6218628212809563 0.426456555724144,0.3154277801513672 l0.04215786699205637,0.5164803564548492 -0.4484093189239502,-0.04398462828248739 l0.06438598036766052,-0.5551721155643463 0.516836978495121,0.4840880259871483 l-0.011452684411779046,0.5291373655200005 -0.42649809271097183,0.19464172422885895 l-0.5286523327231407,-0.30809149146080017 -0.10360180400311947,-0.6890849769115448 l0.5792515724897385,0.306822769343853 0.3665224462747574,0.6829467415809631 l-0.11446124874055386,0.26651835069060326 -0.47475896775722504,-0.11580917052924633 l0.15774646773934364,-0.5443510413169861 0.482235811650753,0.6048396974802017 l-0.06368048023432493,0.4881705716252327 -0.49931537359952927,0.1122739166021347 l-0.31565185636281967,-0.47090552747249603 0.5571506544947624,-0.1595274917781353 l0.16911743208765984,0.7925161719322205 -0.4211444780230522,0.19569642841815948 l-0.1892201043665409,-0.5289389565587044 0.43800368905067444,-0.04829796031117439 l0.2295321598649025,0.4314707964658737 -0.18795622512698174,0.3322044014930725 l-0.19205857068300247,-0.33652372658252716 0.25498831644654274,-0.19141117110848427 " fill="none" stroke="black" stroke-width="1" /></svg>