<?xml version="1.0" encoding="utf-8" ?>
<svg baseProfile="full" height="63.5547622886952" version="1.1" width="61.90143368803547" xmlns="http://www.w3.org/2000/svg" xmlns:ev="http://www.w3.org/2001/xml-events" xmlns:xlink="http://www.w3.org/1999/xlink"><defs /><rect fill="white" height="63.5547622886952" width="61.90143368803547" x="0" y="0" /><path d="M25.61248503625393,34.21882903552614 m0.039469730108976364,-3.259950280189514 l0.5585338175296783,-1.9750241935253143 0.9346088767051697,-1.5051133930683136 l1.787124127149582,-1.1025622487068176 2.2430919110774994,-0.25036126375198364 l1.8049630522727966,0.5678422749042511 1.1279461532831192,0.9150101989507675 l0.9814673662185669,1.8686865270137787 0.36112044006586075,2.340860962867737 l-0.24164680391550064,2.3871660232543945 -1.0831192880868912,2.0747993886470795 l-1.7562352120876312,1.5532946586608887 -2.0408961176872253,0.7212845981121063 l-2.32692614197731,-0.13187961652874947 -1.2319011986255646,-0.5917716026306152 l-1.004856824874878,-1.0532720386981964 -0.6345709413290024,-1.4528872072696686 l-0.13065798208117485,-1.5845692157745361 m2.6279303431510925,-4.424169957637787 l0.0003600063791964203,0.8884669840335846 -0.13908008113503456,0.28700772672891617 l0.014236720744520426,-0.6112930923700333 0.25641098618507385,-0.5846535786986351 l0.25615887716412544,0.5100929364562035 0.27102453634142876,0.0644984794780612 l0.16092048957943916,-0.3176524117588997 0.22750917822122574,0.1576363667845726 l0.44424325227737427,-0.014381895307451487 0.18505370244383812,-0.17806874588131905 l0.23325946182012558,0.14994828961789608 0.42073290795087814,-0.15967674553394318 l0.2342487871646881,0.01231586909852922 0.3709013760089874,0.05078800022602081 l0.43862052261829376,-0.06170724052935839 0.5005942285060883,0.064679691568017 l0.5162128061056137,-0.11045332998037338 0.5745675787329674,0.027989032678306103 l0.7552298903465271,-0.08755622431635857 0.7207926362752914,-0.0966328103095293 l0.7327942550182343,-0.09311333298683167 0.7039108872413635,-0.1285315304994583 l0.7196251302957535,-0.12862589210271835 0.44107187539339066,-0.23940285667777061 l0.23410333320498466,-0.607747845351696 -0.12132410891354084,-1.1197765916585922 l-0.7970237731933594,-1.1379823833703995 -1.1860901862382889,-0.659206211566925 l-1.7171327769756317,-0.19317330792546272 -1.7717953026294708,0.37347327917814255 l-1.6401216387748718,0.9642663598060608 -0.7423041760921478,0.8443573862314224 l-0.2350306510925293,0.8939370512962341 0.3204292804002762,0.638875886797905 l0.9684550762176514,0.37468791007995605 1.835431158542633,-0.08336671628057957 l1.2665203213691711,-0.6567733734846115 0.9413879364728928,-1.1104317754507065 l0.1819651946425438,-1.2498458474874496 -0.34106291830539703,-0.6396843492984772 l-0.85576131939888,-0.32559435814619064 -1.8091069161891937,0.11974066495895386 l-1.0647960752248764,0.6069230288267136 -0.6818634271621704,0.9251348674297333 l-0.1841351017355919,1.0994894057512283 0.37223082035779953,0.7256311178207397 l0.9392727166414261,0.48207662999629974 1.7594833672046661,0.02716188784688711 l1.2550356984138489,-0.7313708961009979 0.62266044318676,-0.9811351448297501 l0.019126206170767546,-1.3741597533226013 -0.5764871463179588,-0.5477521196007729 l-1.6362778842449188,-0.24811653420329094 -1.138930469751358,0.2801644615828991 l-0.8537436276674271,0.6750182062387466 -0.47354456037282944,1.0421408712863922 l0.05698074121028185,1.0788469761610031 0.6022953242063522,0.601784810423851 l1.5847358107566833,0.38076311349868774 1.7702078819274902,-0.3547857329249382 l0.8806139230728149,-0.8314352482557297 0.3559597581624985,-1.3439984619617462 l-0.24485601112246513,-0.8602608740329742 -1.2630105018615723,-0.6978655606508255 l-1.8876342475414276,0.011504758149385452 -0.973900631070137,0.5239523574709892 l-0.6186582893133163,0.9160396456718445 -0.13979158364236355,1.153382584452629 l0.4268202558159828,0.733451247215271 0.9644431620836258,0.5042367801070213 l1.7396841943264008,0.053617446683347225 1.1636622995138168,-0.6663020700216293 l0.6583061814308167,-1.145235076546669 -0.07390961516648531,-0.8708010613918304 l-0.6070077046751976,-0.4151717945933342 -1.6532208025455475,0.018196855671703815 " fill="none" stroke="black" stroke-width="1" /></svg>