<?xml version="1.0" encoding="utf-8" ?>
<svg baseProfile="full" height="1870.0" version="1.1" width="2365.0" xmlns="http://www.w3.org/2000/svg" xmlns:ev="http://www.w3.org/2001/xml-events" xmlns:xlink="http://www.w3.org/1999/xlink"><defs /><rect fill="white" height="1870.0" width="2365.0" x="0" y="0" /><path d="M920.0,725.0 m0.0,-160.0 l40.0,-75.0 100.0,-45.0 l120.0,0.0 100.0,30.0 l30.0,30.0 40.0,110.0 l0.0,70.0 -20.0,60.0 l-50.0,40.0 -70.0,5.0 m110.0,-525.0 l-300.0,0.0 -180.0,-35.0 l-40.0,-20.0 -20.0,-25.0 l0.0,-30.0 40.0,-90.0 l40.0,-20.0 60.0,-20.0 l280.0,0.0 145.0,20.0 l135.0,80.0 20.0,60.0 l-15.0,30.0 -55.0,30.0 l-50.0,0.0 m-460.0,480.0 l-100.0,285.0 -75.0,375.0 l-5.0,400.0 20.0,30.0 l70.0,30.0 235.0,0.0 l105.0,-40.0 150.0,-120.0 l100.0,-195.0 -10.0,-415.0 l-80.0,-185.0 -105.0,-100.0 m-345.0,20.0 l-30.0,-25.0 -30.0,-100.0 l-60.0,-110.0 -70.0,-90.0 l-210.0,-180.0 -100.0,-55.0 l-160.0,-15.0 -120.0,135.0 l-40.0,115.0 0.0,165.0 l20.0,35.0 100.0,60.0 l180.0,60.0 -160.0,0.0 l-60.0,30.0 -50.0,30.0 l-65.0,120.0 0.0,200.0 l15.0,60.0 105.0,165.0 l100.0,95.0 95.0,20.0 l380.0,0.0 100.0,-35.0 l0.0,-15.0 m480.0,-650.0 l110.0,-115.0 215.0,-125.0 l200.0,-90.0 155.0,-50.0 l200.0,10.0 100.0,70.0 l20.0,40.0 0.0,180.0 l-40.0,60.0 -80.0,60.0 l-110.0,40.0 -120.0,0.0 l130.0,0.0 180.0,60.0 l60.0,45.0 20.0,80.0 l0.0,135.0 -35.0,65.0 l-145.0,115.0 -240.0,45.0 l-295.0,-5.0 -145.0,-40.0 " fill="none" stroke="black" stroke-width="1" /></svg>