<?xml version="1.0" encoding="utf-8" ?>
<svg baseProfile="full" height="72.5980282574892" version="1.1" width="78.35584430024028" xmlns="http://www.w3.org/2000/svg" xmlns:ev="http://www.w3.org/2001/xml-events" xmlns:xlink="http://www.w3.org/1999/xlink"><defs /><rect fill="white" height="72.5980282574892" width="78.35584430024028" x="0" y="0" /><path d="M37.30549990432337,43.06386225391179 m0.022637932561337948,-9.295008182525635 l0.2512027695775032,-1.3687309622764587 0.8009067177772522,-1.529957503080368 l1.0711230337619781,-0.7562559843063354 0.39442844688892365,-0.046577262692153454 l0.2876376733183861,0.6345120817422867 0.3498975932598114,2.634783685207367 l0.047264895401895046,8.763986825942993 0.20131893455982208,4.876857101917267 l-0.3653738275170326,0.5848591774702072 -0.7611828297376633,0.035697026178240776 l-0.6642597168684006,-0.6601300835609436 -0.4579756036400795,-1.3997496664524078 l-0.036605086643248796,-1.8405812978744507 m2.7728840708732605,-12.742605209350586 l0.13117259368300438,-1.1838842928409576 0.871351882815361,-1.2959079444408417 l2.792886793613434,-2.2977976500988007 2.227034419775009,-0.9254183620214462 l2.302039712667465,-0.25195375084877014 1.6975684463977814,0.42547207325696945 l1.3878796994686127,1.2612637877464294 0.7100535184144974,1.9019120931625366 l-0.06531837396323681,2.4063225090503693 -1.0308705270290375,2.219145894050598 l-1.6808503866195679,1.8253859877586365 -2.205650359392166,1.3619165122509003 l1.9010619819164276,0.6659607589244843 1.6487140953540802,1.3372966647148132 l1.2463603913784027,2.531389594078064 0.20300550386309624,2.208707183599472 l-0.47926314175128937,1.7324809730052948 -0.7861784100532532,0.9705229848623276 l-1.838190108537674,0.9356579184532166 -2.5119808316230774,0.335199311375618 l-2.5151216983795166,-0.29041003435850143 -2.1764980256557465,-0.9907076507806778 l-1.5928122401237488,-1.5256750583648682 m-4.602172672748566,-12.988373041152954 l-1.4414802193641663,-2.2020210325717926 -1.6041640937328339,-1.365029513835907 l-2.044476419687271,-0.9174813330173492 -2.2643673419952393,-0.2514978125691414 l-2.0530392229557037,0.5358017608523369 -1.2888358533382416,0.9498991817235947 l-1.0059600323438644,1.9011041522026062 -0.1513039879500866,2.3337018489837646 l0.4172646626830101,1.3118992745876312 1.2859132885932922,1.56386598944664 l1.9211532175540924,1.1430632323026657 2.3929765820503235,0.6225834041833878 l-2.2292248904705048,2.374253273010254 -0.9026482701301575,2.372053563594818 l0.06204338278621435,1.4414942264556885 0.5788736045360565,0.8680699020624161 l1.7880047857761383,0.981670618057251 2.603725790977478,0.3603953868150711 " fill="none" stroke="black" stroke-width="1" /></svg>