<?xml version="1.0" encoding="utf-8" ?>
<svg baseProfile="full" height="930.0" version="1.1" width="1125.0" xmlns="http://www.w3.org/2000/svg" xmlns:ev="http://www.w3.org/2001/xml-events" xmlns:xlink="http://www.w3.org/1999/xlink"><defs /><rect fill="white" height="930.0" width="1125.0" x="0" y="0" /><path d="M475.0,790.0 m-10.0,-450.0 l20.0,-135.0 35.0,-95.0 l25.0,-10.0 20.0,40.0 l0.0,250.0 -15.0,275.0 l-35.0,205.0 -50.0,0.0 l-5.0,-30.0 m125.0,-620.0 l85.0,-55.0 225.0,-80.0 l90.0,-20.0 95.0,10.0 l20.0,30.0 0.0,95.0 l-20.0,70.0 -55.0,95.0 l-50.0,30.0 -130.0,0.0 l95.0,40.0 75.0,80.0 l50.0,95.0 35.0,195.0 l-5.0,30.0 -50.0,45.0 l-65.0,25.0 -85.0,0.0 l-170.0,-70.0 -185.0,-180.0 m-70.0,-480.0 l-30.0,-30.0 -75.0,-20.0 l-25.0,15.0 -70.0,75.0 l-90.0,135.0 -40.0,130.0 l0.0,25.0 30.0,5.0 l165.0,0.0 75.0,-30.0 l-45.0,-15.0 -80.0,5.0 l-155.0,30.0 -65.0,60.0 l-30.0,90.0 -10.0,110.0 l75.0,35.0 110.0,10.0 l265.0,0.0 10.0,-25.0 m60.0,-710.0 l-50.0,-10.0 5.0,-35.0 " fill="none" stroke="black" stroke-width="1" /></svg>