<?xml version="1.0" encoding="utf-8" ?>
<svg baseProfile="full" height="74.80388927040622" version="1.1" width="83.39936866774224" xmlns="http://www.w3.org/2000/svg" xmlns:ev="http://www.w3.org/2001/xml-events" xmlns:xlink="http://www.w3.org/1999/xlink"><defs /><rect fill="white" height="74.80388927040622" width="83.39936866774224" x="0" y="0" /><path d="M30.15620678081177,34.217100464738905 m2.6689955592155457,-1.2516981363296509 l5.111200213432312,-1.3949988782405853 12.79002070426941,-0.43051470071077347 l2.8988516330718994,1.0885610431432724 2.664889693260193,1.657450944185257 l1.2670864164829254,1.280866414308548 0.8421176671981812,1.833048015832901 l-0.017062792321667075,1.2423788011074066 -0.7239178568124771,0.8965842425823212 l-2.638615071773529,1.0757624357938766 -8.759098052978516,0.9696275740861893 l-13.939462900161743,0.02279123989865184 -3.570983111858368,-0.7433252781629562 l-3.397045135498047,-1.9242070615291595 -0.3531837463378906,-1.5513664484024048 l0.6710896641016006,-1.3586616516113281 1.4384636282920837,-0.8761730045080185 l3.982194662094116,-0.6560853868722916 m7.610378861427307,0.02709130523726344 l-0.5094096437096596,-3.120332360267639 -0.5753424391150475,-6.003899574279785 l0.6983698159456253,0.6057940050959587 m4.683949053287506,7.986159324645996 l0.2826896123588085,-0.17083875834941864 2.215237021446228,-2.3280680179595947 l0.7531274110078812,-1.5530183911323547 m-8.245063424110413,11.81869387626648 l0.23654228076338768,4.583007395267487 0.6460078060626984,2.9487940669059753 l1.2156935036182404,0.9129361063241959 2.146427035331726,0.0004296633414924145 l1.2094312906265259,-0.8591967821121216 1.2206748872995377,-2.2926999628543854 l0.8428536355495453,-4.973744750022888 0.20337339490652084,-1.8617814779281616 m-6.151070594787598,-6.1568683385849 l-0.9383329004049301,-0.4389815405011177 -0.7299304753541946,-0.45042119920253754 l-1.2118813395500183,-1.102771833539009 -1.1895853281021118,-1.3448913395404816 l-1.0125311464071274,-1.5253275632858276 " fill="none" stroke="black" stroke-width="1" /></svg>