<?xml version="1.0" encoding="utf-8" ?>
<svg baseProfile="full" height="1230.0" version="1.1" width="1800.0" xmlns="http://www.w3.org/2000/svg" xmlns:ev="http://www.w3.org/2001/xml-events" xmlns:xlink="http://www.w3.org/1999/xlink"><defs /><rect fill="white" height="1230.0" width="1800.0" x="0" y="0" /><path d="M435.0,545.0 m145.0,-65.0 l280.0,-65.0 580.0,0.0 l115.0,25.0 175.0,80.0 l40.0,60.0 5.0,115.0 l-25.0,105.0 -55.0,80.0 l-65.0,15.0 -550.0,-15.0 l-770.0,10.0 -105.0,-20.0 l-85.0,-40.0 -95.0,-80.0 l155.0,-180.0 155.0,-35.0 l225.0,-10.0 m-175.0,-45.0 l5.0,-195.0 -30.0,-165.0 l10.0,-45.0 m-20.0,-50.0 l-255.0,360.0 -25.0,150.0 m515.0,150.0 l-65.0,215.0 -20.0,170.0 l35.0,65.0 85.0,70.0 l100.0,-35.0 60.0,-50.0 l85.0,-370.0 m-55.0,-400.0 l80.0,-155.0 55.0,-40.0 l140.0,-30.0 70.0,70.0 l35.0,60.0 10.0,105.0 l-15.0,55.0 " fill="none" stroke="black" stroke-width="1" /></svg>