<?xml version="1.0" encoding="utf-8" ?>
<svg baseProfile="full" height="120.1450663871833" version="1.1" width="840.0391312454121" xmlns="http://www.w3.org/2000/svg" xmlns:ev="http://www.w3.org/2001/xml-events" xmlns:xlink="http://www.w3.org/1999/xlink"><defs /><rect fill="white" height="120.1450663871833" width="840.0391312454121" x="0" y="0" /><path d="M25,31.170325282577096 m0.0,0.0 m37.91378533700481,24.29256306704474 l-0.1403764821588993,3.7827786803245544 -1.721867024898529,11.22795581817627 l-0.6430856883525848,4.808669686317444 -0.6163143366575241,3.8603246212005615 l0.02132900757715106,1.2909632921218872 8.633559942245483,-0.14541330747306347 l4.44284200668335,-0.5057712271809578 0.38885146379470825,-0.4582647234201431 l-0.08365522138774395,-0.8584180474281311 -2.7996063232421875,-8.708577156066895 l-1.271604597568512,-3.7030020356178284 -1.8555974960327148,-5.593551993370056 l-0.8531874418258667,-2.392703741788864 -1.1699815839529037,-1.717425286769867 l-1.5125840902328491,-0.9845739603042603 -1.6970016062259674,-0.2909799851477146 l-1.2361027300357819,0.4318375885486603 m5.496712923049927,2.6099994778633118 l0.7407448440790176,-0.9433262050151825 7.348748445510864,-3.5185018181800842 l3.721083104610443,-0.7301521301269531 4.141822159290314,0.10890600271522999 l3.4604376554489136,1.2577342987060547 1.5824826061725616,1.1800464242696762 l1.3191890716552734,2.1605943143367767 0.48025261610746384,2.8915446996688843 l-0.8120454847812653,2.901381552219391 -2.3909594118595123,2.6975026726722717 l-3.526495397090912,2.120371013879776 -4.398285150527954,1.3620999455451965 l-6.69643759727478,0.7084675878286362 -1.9293752312660217,-0.28130577877163887 m-8.375632166862488,-10.866402387619019 l-1.5212199091911316,-1.5933303534984589 -2.713664174079895,-1.96870818734169 l-3.5377222299575806,-1.764821857213974 -3.7791046500205994,-1.068643108010292 l-3.459290862083435,-0.0005056975714978762 -1.7684732377529144,0.5785335600376129 l-2.0254413783550262,1.6266974806785583 -0.9760450571775436,1.6143511235713959 l-0.5523141473531723,2.7551373839378357 0.3630386292934418,1.9120612740516663 l1.1319303512573242,1.5439233183860779 1.7564697563648224,1.1406054347753525 l3.209213614463806,0.9030795097351074 2.823878228664398,0.5862539261579514 l3.3189019560813904,0.12070491909980774 1.9316470623016357,0.2808399312198162 l1.9135510921478271,0.0006050767115084454 2.1193845570087433,0.37248071283102036 l2.0724833011627197,0.45584172010421753 2.074556201696396,0.1204568799585104 m0.816555842757225,-14.018023014068604 l-0.8440449088811874,-0.5152617767453194 -1.1302024871110916,-1.0292372107505798 l-2.4392499029636383,-3.193187117576599 -0.7860831171274185,-1.8542629480361938 l-0.06151153706014156,-1.4092065393924713 0.6352680921554565,-1.0819704085588455 l2.1869033575057983,-1.2914742529392242 2.3020488023757935,-0.4496311768889427 l2.092192620038986,0.20257249474525452 2.4940983951091766,1.2875935435295105 l2.2264912724494934,2.575478255748749 0.7478241622447968,1.8474502861499786 l0.13030119240283966,2.4346503615379333 -1.0007965564727783,2.2522668540477753 l-1.973145604133606,1.6770970821380615 -1.5406577289104462,0.4902995750308037 l-2.1493513882160187,-0.09554135613143444 m-1.3025858998298645,-10.669817924499512 l0.19219588488340378,-0.6122292205691338 m2.949613034725189,0.020156088285148144 l-3.948529865738237e-05,-0.0005061004412709735 m-3.5697785019874573,2.905701994895935 l0.4997330904006958,0.09013032540678978 1.7308688163757324,-0.37648171186447144 l0.41196495294570923,-0.4602912813425064 -0.1522351149469614,-0.8137671649456024 l-1.0352951288223267,-0.1883600652217865 -0.8404950052499771,0.6833769381046295 l-0.216232780367136,0.9435237944126129 0.49030307680368423,0.676497146487236 l1.2140436470508575,-6.852281785540981e-05 0.32309964299201965,-1.0546672344207764 l-0.5502529069781303,-0.3881080448627472 -0.640990287065506,0.5456903204321861 m-0.40231961756944656,6.913335919380188 l0.5668457597494125,1.2081355601549149 0.8468931168317795,1.2235277891159058 l0.8487655967473984,0.9329632669687271 1.2871053814888,0.6109767779707909 l1.7789989709854126,-0.13248533010482788 1.8672458827495575,-1.2649737298488617 m-6.426016688346863,-5.731073021888733 l-0.026247675996273756,-1.5551948547363281 0.7600829005241394,-5.182467699050903 l0.8241592347621918,-1.925579011440277 1.0286945849657059,-1.0218218713998795 l1.7628276348114014,-0.5143675953149796 1.9135935604572296,0.4197871685028076 m71.4658416593602,16.327025505941037 l-0.15122521668672562,3.7960058450698853 -1.703680008649826,11.662951707839966 l-0.42139578610658646,3.393779695034027 -0.7108790427446365,4.720317721366882 l0.037747519090771675,1.4846022427082062 7.889226078987122,-0.3926769271492958 l4.495086669921875,-0.0868907943367958 2.2056981921195984,-0.09135540574789047 l0.23962533101439476,-0.45026175677776337 -1.3449841737747192,-3.1323403120040894 l-3.735959827899933,-7.558441162109375 -1.380985975265503,-4.172452092170715 l-1.7248483002185822,-5.5028557777404785 -0.7325592637062073,-2.874063551425934 l-0.9619345515966415,-1.4190930128097534 -2.44122177362442,-0.907142385840416 l-1.6784276068210602,-0.07621351629495621 m5.379241704940796,3.179209530353546 l0.74851393699646,-0.9187689423561096 3.1336113810539246,-2.454974055290222 l4.723755419254303,-2.5901952385902405 4.807524681091309,-1.596083641052246 l3.018810749053955,-0.2783321589231491 1.8024450540542603,0.49796756356954575 l1.7744380235671997,1.6117732226848602 0.955415666103363,2.8146493434906006 l-0.3123880550265312,3.417462408542633 -1.7413914203643799,2.6352426409721375 l-3.320111632347107,2.8712812066078186 -2.431457042694092,1.124894842505455 l-8.287801742553711,1.7065979540348053 -1.6595503687858582,0.40343035012483597 l-0.408862940967083,-0.20803090184926987 m-6.8496620655059814,-7.4320244789123535 l-1.3597100973129272,-1.145942360162735 -5.067951083183289,-3.7634065747261047 l-3.27933132648468,-1.282002478837967 -2.777113616466522,-0.1909119263291359 l-3.396620750427246,1.9401945173740387 -1.4367440342903137,1.7763912677764893 l-1.6587847471237183,4.3110328912734985 -0.06195340771228075,2.5551989674568176 l0.7308541238307953,1.662406176328659 0.7330875843763351,0.7222512364387512 l3.104322850704193,1.1077842116355896 1.6657961905002594,0.10070491582155228 l4.09801721572876,-1.239967718720436 2.083708345890045,-1.3816951215267181 l0.4241029918193817,0.4065430536866188 0.3267069533467293,2.3121707141399384 l0.5761538818478584,0.8313235640525818 1.7373892664909363,0.8284451067447662 l2.9437220096588135,0.14070412144064903 2.5843968987464905,-1.33415088057518 l0.6382684409618378,-0.7693833112716675 m-0.49279484897851944,-15.499749183654785 l-0.74030801653862,-0.5471885949373245 -0.7115130871534348,-0.8211015164852142 l-2.299075275659561,-3.536156713962555 -0.8933310210704803,-1.8122950196266174 l-0.3018404170870781,-1.3954150676727295 0.28487399220466614,-1.5757380425930023 l1.1702460050582886,-1.4143940806388855 2.7441206574440002,-1.311061829328537 l2.6587292551994324,-0.41643574833869934 3.187534809112549,0.4970870167016983 l2.9911673069000244,1.9731034338474274 1.7646025121212006,2.692788541316986 l0.4355957731604576,1.8682008981704712 -0.10045383125543594,1.4143350720405579 l-1.1685547977685928,1.9758890569210052 -2.247105687856674,1.774221956729889 l-2.8253433108329773,1.0951261967420578 -3.2077038288116455,0.2609643340110779 m-0.8489352464675903,-4.3544891476631165 l-0.0031773658702149987,-0.0020417998894117773 m4.041326344013214,-0.7595745474100113 l-0.0004940102007822134,-0.0018927836208604276 m-3.584091067314148,0.4377971217036247 l-0.0007167309377109632,-0.0018156945588998497 m-0.6364991515874863,0.17792770639061928 l1.0564929246902466,-0.47121115028858185 0.8415921777486801,-0.4671291261911392 l0.7316254079341888,-0.5330955982208252 0.7423151284456253,0.00016891075574676506 l0.5653342977166176,0.7724209874868393 0.053365728817880154,1.0103237628936768 l-0.5550305545330048,0.5698226764798164 0.05128647666424513,0.0002779116766760126 l0.4081461578607559,-0.32206200063228607 1.6102789342403412,-1.208670437335968 l0.8402746915817261,0.3555353358387947 -0.49529392272233963,0.5768906325101852 l-0.7792282849550247,0.23458942770957947 -0.896587148308754,-0.4359534755349159 l-0.13764888979494572,-0.7341302186250687 m-4.012936353683472,11.285260915756226 l-0.8640243113040924,0.7138974219560623 -3.630683124065399,7.246991395950317 l1.0008618235588074,0.22587276995182037 3.023912012577057,-0.4004500061273575 m76.10771154122631,-13.619313118433638 l-0.10024911724030972,3.8601914048194885 -1.7045684158802032,11.218163967132568 l-0.48110242933034897,3.658953309059143 -0.4937424510717392,4.988698065280914 l-0.1873963326215744,1.7704512178897858 0.6859948486089706,0.18995055928826332 l15.632293224334717,-1.148795336484909 0.6341978162527084,-0.23252708837389946 l0.09371466003358364,-0.5481802672147751 -0.8193842321634293,-0.7692375034093857 l-3.2366347312927246,-3.372098207473755 -2.361082285642624,-5.491507649421692 l-1.0445567220449448,-2.5547048449516296 0.0014844963152427226,-3.1025582551956177 l-2.4629034101963043,-2.447972595691681 -1.183486059308052,-2.0021434128284454 l-0.7108864188194275,-1.8800273537635803 -3.1814754009246826,-2.063760608434677 m0.9962869435548782,2.959972620010376 l1.7073650658130646,-2.2156064212322235 3.9538168907165527,-3.0060166120529175 l5.4802632331848145,-2.6064836978912354 5.053241848945618,-1.3064734637737274 l2.8853988647460938,0.48243381083011627 3.5480326414108276,1.7953722178936005 l1.3931669294834137,1.1837199330329895 0.2987707033753395,0.8853893727064133 l-0.43769940733909607,2.1177423000335693 -1.761086881160736,2.7048438787460327 l-3.052104115486145,2.6386380195617676 -7.038338780403137,3.353014588356018 l4.160175919532776,-0.8022258430719376 3.9914238452911377,1.0313381999731064 l2.873271107673645,2.538512647151947 0.7355818152427673,1.432223618030548 l-0.14458032324910164,1.3213534653186798 -1.9043904542922974,1.8738250434398651 l-2.3182877898216248,1.0375741869211197 -4.077515006065369,0.6160132586956024 l-5.171555876731873,-0.5027549341320992 -1.7169541120529175,-0.77314592897892 l-1.6262397170066833,-1.7110870778560638 m-8.624269366264343,-13.860840797424316 l-3.937424123287201,-4.2957064509391785 -2.9447022080421448,-1.3968780636787415 l-1.156815066933632,-0.1314002089202404 -2.22218856215477,1.0642926394939423 l-0.7343816012144089,0.9610177576541901 -0.5827539414167404,2.3175550997257233 l0.2813277207314968,1.985669881105423 0.9355957061052322,1.589311808347702 l2.224857360124588,1.7254602909088135 1.9051055610179901,0.552220419049263 l0.17515623942017555,-0.03420679597184062 -2.6562297344207764,1.0083556175231934 l-0.7607049494981766,0.9779839962720871 -0.13836276717483997,1.3861910998821259 l1.579461246728897,3.245885968208313 1.971653401851654,1.5703421831130981 l3.4006336331367493,0.000653845927445218 2.693217098712921,-1.5675003826618195 m1.5900780260562897,-8.502135872840881 l-1.4276650547981262,-3.7415921688079834 -0.6831655651330948,-2.232961058616638 l-0.09743322618305683,-1.3111194968223572 0.3805316239595413,-0.7645705342292786 l0.832446739077568,-0.12295433320105076 1.4787735044956207,0.6159357354044914 l0.7737121731042862,0.7663948833942413 0.6740495562553406,1.7478542029857635 l0.0851600430905819,2.047387659549713 m-1.0703536868095398,-6.37243390083313 l0.00043127525714226067,-1.3634966313838959 0.25665948167443275,-1.2958042323589325 l0.6178691983222961,-0.8106693625450134 0.7566960155963898,0.09427814744412899 l1.1945856362581253,1.308811604976654 0.22892549633979797,2.0670992136001587 l-1.989574283361435,1.0692888498306274 m-3.0842748284339905,4.70024436712265 l-0.06034688092768192,0.42089957743883133 0.8977828174829483,0.7999624311923981 l2.020835727453232,0.41707050055265427 2.0411472022533417,0.00014483357517747208 m-4.084722995758057,-1.3292905688285828 l-0.0011149820784339681,-0.05069275386631489 0.7962188124656677,-0.13152952305972576 m-0.007674420485273004,-6.852161884307861 l-0.23191815242171288,-1.5628716349601746 0.5761704593896866,-1.2104035913944244 m7.613460421562195,-1.0703213512897491 l0.1964772306382656,-0.10738437995314598 0.9624576568603516,-0.07428890559822321 l2.275390774011612,0.08049467578530312 2.787526845932007,0.5046539381146431 l1.4266292750835419,0.5800872296094894 1.079961508512497,0.9684272855520248 l0.49843505024909973,0.6785949319601059 0.020088166929781437,0.9029915928840637 l-0.8041010797023773,0.780702605843544 -2.1824342012405396,1.1458797752857208 l-1.8337617814540863,0.2318207174539566 -3.050101101398468,-0.6041163951158524 m76.08314574950782,2.298313337532818 l-0.2155773714184761,3.952586352825165 -1.6000546514987946,11.406311988830566 l-0.6965335458517075,4.280093014240265 -0.8666049689054489,3.3259955048561096 l-0.9311825037002563,3.3570683002471924 8.278502225875854,-0.5702808126807213 l4.137660562992096,-1.1277098953723907 0.7156375050544739,-0.5705053731799126 l-0.6197644025087357,-2.6681455969810486 -1.8911395967006683,-4.141482710838318 l-1.9920691847801208,-1.1531884968280792 -5.597688555717468,-4.203086793422699 l-5.222955346107483,-5.8715081214904785 0.41762858629226685,-4.9123018980026245 l0.869675949215889,-2.1521489322185516 1.982342153787613,-1.6177618503570557 l2.14875191450119,-0.7647812366485596 2.7641475200653076,-0.2416343055665493 l2.774290144443512,1.080152466893196 3.2836338877677917,4.389098286628723 l0.8541207015514374,2.160511463880539 0.16249386593699455,2.59671688079834 l-0.7544631510972977,1.3821589946746826 -1.1027275770902634,0.6757985055446625 l-4.832036197185516,1.1365444213151932 -1.3303224742412567,-0.2863548509776592 m-3.648926019668579,-5.784643292427063 l-2.738133668899536,-1.6832837462425232 -9.787412285804749,-2.5661203265190125 l-6.370156407356262,-0.6729862838983536 -1.8914005160331726,1.4184315502643585 l-1.2053240835666656,1.8066859245300293 -1.2214260548353195,3.4072962403297424 l0.00729429186321795,1.3741081953048706 1.156817451119423,2.5031548738479614 l2.7398744225502014,2.6488271355628967 2.3548346757888794,1.0322421044111252 l6.509626507759094,0.37073224782943726 2.141364961862564,0.5872050300240517 l6.971060633659363,0.9654674679040909 2.2557316720485687,0.7870136946439743 l2.85502552986145,0.3258395940065384 m1.6203393042087555,-13.538767099380493 l0.5806941166520119,-0.9349032491445541 3.0504554510116577,-0.0007745750190224499 l2.7338600158691406,-0.5841744318604469 1.4391990005970001,-0.31349629163742065 l3.4720420837402344,-1.8546605110168457 2.3476383090019226,-1.6326755285263062 l1.3627336919307709,-0.6284160166978836 2.8702083230018616,-0.5239633470773697 l1.7115843296051025,0.416298508644104 2.002566307783127,1.4638391137123108 l1.1542591452598572,2.9869845509529114 0.07956551387906075,3.931633234024048 l-1.1586172878742218,3.046313524246216 -0.9915421158075333,1.1272762715816498 l-1.5142814815044403,1.067183017730713 -1.6773311793804169,0.49549542367458344 l-3.626285493373871,-0.6493555009365082 -3.324650526046753,-0.8305101841688156 l-3.1142672896385193,-0.00010259922419209033 -1.3567237555980682,1.4147216081619263 l-2.228855639696121,1.3806445896625519 -1.5670081973075867,0.29462892562150955 l-1.20500810444355,-0.17094366252422333 m-1.9800209999084473,-4.8455968499183655 l-0.5641128122806549,0.6473211199045181 -0.31651392579078674,-0.1503854151815176 l-0.9307714551687241,-3.827076554298401 -0.018160922918468714,-2.290373146533966 l0.6195097044110298,-3.0897337198257446 0.8175141364336014,-1.226751133799553 l0.5662447214126587,-0.00010335314073017798 0.3896010294556618,0.725250244140625 l0.04355733282864094,3.370307981967926 -2.5619977712631226,4.882632493972778 l-0.5539589375257492,1.695374995470047 0.6634066253900528,-0.022771565709263086 l1.0722506791353226,-0.6133845821022987 2.410234659910202,-1.2204033881425858 l0.4715701937675476,-0.36953702569007874 m2.868465781211853,8.575658202171326 l-0.004623279382940382,0.0012152570707257837 m-7.822331786155701,-5.928599238395691 l-0.5035044252872467,0.38278695195913315 m0.8191905915737152,-9.299139976501465 l0.30747637152671814,-0.901118665933609 0.614314079284668,-0.5327350273728371 l1.212700828909874,-0.3222164884209633 0.6362592428922653,0.31007278710603714 l0.352017804980278,1.6071614623069763 -0.24639079347252846,1.231912225484848 l-0.8153930306434631,0.5677194148302078 -1.5872721374034882,-0.07860129699110985 l-0.531398355960846,-1.159873902797699 0.07999299094080925,-0.8448158949613571 m1.1094801872968674,-2.0428992807865143 l0.0024215281882788986,-0.19504345953464508 -0.21149743348360062,-1.0329368710517883 l0.3092069923877716,-0.5193465948104858 2.400597780942917,-0.38308363407850266 m77.57178678330092,9.490485324449764 l-0.23998642340302467,3.806299865245819 -1.8326681852340698,9.743883609771729 l-0.3251415863633156,3.503028452396393 -0.7795734703540802,4.686257243156433 l0.6361406296491623,0.035859725903719664 m7.454838752746582,-20.960426330566406 l1.0820453613996506,0.0030929679633118212 0.9981700778007507,0.6280738860368729 l1.3870839774608612,1.3573600351810455 1.3501963019371033,2.51220166683197 l0.1915791630744934,7.001142501831055 -0.7456126809120178,2.347290813922882 l-3.4835851192474365,4.511149525642395 -2.7148598432540894,2.4580347537994385 l-1.6956223547458649,0.6106425449252129 -1.650877445936203,-0.08609645068645477 l-5.913231372833252,-0.5536530911922455 -4.0316906571388245,-1.0856793075799942 l-2.6174449920654297,-1.084168404340744 -2.001768797636032,-1.5046492218971252 l-1.3638630509376526,-2.3226198554039 -0.3222363814711571,-3.1621426343917847 l0.4539963975548744,-0.645708292722702 1.3720238208770752,-0.0008743953367229551 l5.100127458572388,0.061822072602808475 6.848260760307312,-3.2016244530677795 m-0.0016461870109196752,-5.936063528060913 l-0.34143831580877304,-0.5656995996832848 -3.288860321044922,-2.6349619030952454 l-3.6894965171813965,-1.1118467897176743 -0.6739050894975662,-0.8526858687400818 l-0.3980139270424843,-3.165106475353241 1.0145103186368942,-3.0151307582855225 l1.523902416229248,-0.930931344628334 1.4335992932319641,-0.0005599443829851225 l0.776953399181366,0.3387109935283661 1.8684308230876923,2.1957601606845856 l2.162190228700638,3.145299255847931 1.2966176867485046,2.497076094150543 l0.3770831227302551,1.2024038285017014 -0.03909563645720482,1.8323422968387604 m-3.431653678417206,-4.119023978710175 l-1.096002608537674,-1.4908087253570557 -1.019623652100563,-1.7982403934001923 l-1.7711131274700165,-2.11909219622612 -5.168706774711609,-2.370595633983612 l-2.0310744643211365,1.8814006447792053 -0.249756071716547,1.3598646223545074 l0.7281429320573807,1.4756739139556885 2.077820599079132,1.9878630340099335 l4.084961414337158,2.1875709295272827 2.66937255859375,0.6667982786893845 l3.3627596497535706,0.09019823744893074 1.9038787484169006,-0.39613429456949234 l1.6934333741664886,-1.5703663229942322 m-1.9042494893074036,2.7353912591934204 l2.268187403678894,-3.7501683831214905 3.147886097431183,-1.2441792339086533 l4.171013832092285,-1.106887087225914 3.434569835662842,-0.04993349313735962 l1.09823577105999,0.5278507620096207 1.456875503063202,1.4593467116355896 l0.5071964487433434,0.8084281533956528 0.19266650080680847,2.03512504696846 l-0.4044707864522934,0.9199130535125732 -2.3333734273910522,2.7088013291358948 l-2.114575058221817,0.9912094473838806 -6.611390113830566,0.8671224117279053 m-7.601561546325684,8.49061369895935 l1.4761993288993835,1.3050863146781921 0.0010723515879362822,-0.04938030615448952 l-3.387212700545206e-05,2.484404146671295 m-0.00013314896023075562,0.4216890037059784 l2.3372985422611237,-1.5355044603347778 1.0717486590147018,-1.718599647283554 l-0.0002614523509691935,-0.7584623247385025 -1.3317939639091492,-0.3448234498500824 l-0.8826664090156555,0.21151239052414894 m-6.050306558609009,-5.28299868106842 l-0.18414024263620377,-0.48677340149879456 m-2.5949901342391968,-9.394172430038452 l-4.042282700538635,2.663537561893463 -0.596766471862793,1.4833934605121613 l0.35766836255788803,0.31473346054553986 2.907123863697052,0.6149007007479668 l2.6025500893592834,-0.000366191343346145 1.1983655393123627,-1.811852604150772 l0.2832631953060627,-1.0900163650512695 -1.129734143614769,0.14706525951623917 l-3.5403773188591003,1.3073290884494781 -1.9667381048202515,0.7065708190202713 l-0.9469353407621384,0.3226093202829361 -0.3092537820339203,0.0010569226287771016 l1.7631995677947998,-1.6794753074645996 0.23736730217933655,1.7451320588588715 l1.7688874900341034,0.5702627450227737 0.6222689151763916,-0.3976704552769661 m10.15943169593811,-4.8639509081840515 l0.07968595251441002,-2.5103506445884705 m91.25418590709842,-7.803308156962885 l-0.2925453521311283,3.706517517566681 -1.5805353224277496,10.01024842262268 l-1.172647550702095,8.605852127075195 -0.3508661314845085,1.5296165645122528 l-1.0009468346834183,1.6540542244911194 8.949931859970093,-0.5253562703728676 l5.033895373344421,-1.8365523219108582 2.8478828072547913,-0.7828665524721146 l-0.024864792358130217,-0.35005465149879456 -1.4656254649162292,-2.0108237862586975 l-4.476033449172974,-5.664918422698975 -2.132059782743454,-4.095205366611481 l-0.8465391397476196,-4.825344681739807 -0.20968688651919365,-2.1356406807899475 l-0.951097384095192,0.0785091333091259 -3.0469441413879395,0.62043696641922 l-2.393307089805603,0.7939198613166809 -1.8936024606227875,0.00024201979613280855 m7.110077738761902,5.914931297302246 l-0.07713838014751673,-0.12677949853241444 2.405364066362381,-1.3239121437072754 l12.6603102684021,-10.378775596618652 1.225605309009552,0.29140664264559746 l1.9072617590427399,3.182796835899353 0.7148897647857666,3.6153605580329895 l0.8474677801132202,0.013724416494369507 -6.843917965888977,4.787549078464508 l-0.9158989042043686,2.1764615178108215 -1.607246845960617,1.7478987574577332 l-2.4767006933689117,1.4569151401519775 -10.230836868286133,0.44122569262981415 m-3.071340322494507,-4.404779374599457 l-3.4598690271377563,-0.8023954927921295 -4.037919342517853,-1.5001410245895386 l-3.2558777928352356,-2.178206443786621 -4.826659858226776,-3.052002787590027 l-1.110052466392517,-0.10915258899331093 -4.074027240276337,-4.706149399280548 l-1.8824663758277893,-1.5538161993026733 -1.2753330171108246,-0.45386843383312225 l-0.6210152804851532,-0.009293064358644187 -6.71678364276886,0.26297030970454216 l-4.940533339977264,0.8561833202838898 -4.585405886173248,1.4634720981121063 l-0.6268510222434998,3.0850014090538025 0.04028383642435074,2.205412983894348 l0.5482764169573784,1.758154183626175 3.4317564964294434,7.180460691452026 l2.692018151283264,3.5264521837234497 1.2740795314311981,0.5632346123456955 l2.7575206756591797,0.5770769342780113 3.9875271916389465,0.9307319670915604 l4.064855873584747,0.7484649866819382 1.7541180551052094,-0.5588141828775406 l4.46990430355072,2.2114235162734985 0.9202178567647934,-0.1082761399447918 l2.292800396680832,-0.6283728033304214 0.771210566163063,-0.5359415337443352 l1.960388571023941,-0.4805327206850052 2.2424812614917755,-1.0553070157766342 l1.0900568962097168,-1.1163025349378586 m-0.6544601917266846,-0.6022525206208229 l0.42455460876226425,0.13053825125098228 m1.3083666563034058,13.948454856872559 l0.622832179069519,0.939551517367363 m-0.7416190207004547,2.0836803317070007 l-0.007359590381383896,0.0035753805423155427 -0.0010913455480476841,4.197879135608673 l-0.07176138460636139,1.392710655927658 -0.49148935824632645,0.008091975469142199 l-1.1251845210790634,-1.3874441385269165 -0.0010529075370868668,-1.408749669790268 l-0.07784715853631496,-2.8402388095855713 0.5315637215971947,-0.5296367406845093 l0.2598750591278076,-8.02858266979456e-06 0.09105781093239784,0.35255447030067444 m0.5297720059752464,-12.643948793411255 l-2.1954569220542908,-0.05976993590593338 -0.20248763263225555,-0.17729533836245537 l2.683213949203491,0.00039948463381733745 0.8685395121574402,2.06632062792778 l-0.7173771411180496,1.1947102844715118 -0.99245585501194,0.4851878434419632 l-1.125122755765915,-0.13732588849961758 0.6335239857435226,-2.2071631252765656 l1.5821580588817596,-2.260601818561554 0.7749610394239426,0.344204418361187 l0.16833465546369553,0.39052698761224747 m0.2503589354455471,2.6918870210647583 l0.5083848536014557,0.34838635474443436 1.7389373481273651,-1.633000671863556 m-1.0083197057247162,-18.055567741394043 l-3.466762900352478,-9.121311902999878 0.3629850223660469,7.115442752838135 l0.50213523209095,-1.7310632765293121 0.34397464245557785,-1.8961958587169647 l0.8311382681131363,0.656607449054718 0.9386709332466125,0.35876017063856125 l0.718475952744484,0.4670080170035362 3.1365352869033813,-1.0718980431556702 l0.15649938955903053,1.6026121377944946 m70.0523669346876,15.250083042974438 l-0.3010086342692375,3.610696494579315 -1.3104595243930817,10.877213478088379 l-0.9907861053943634,4.9935683608055115 -0.6589154154062271,2.3638540506362915 l-2.5070062279701233,8.543922901153564 6.130433082580566,-0.37859760224819183 l6.4617979526519775,-1.828974187374115 2.6912057399749756,1.243816688656807 l-0.1133615430444479,-0.28943080455064774 -5.041189193725586,-9.363082647323608 l-3.3478671312332153,-7.953395843505859 -0.1407337188720703,-2.1087707579135895 l-0.8058914542198181,-5.093440413475037 0.00921909580938518,-0.43063320219516754 l-3.1247347593307495,-2.5958403944969177 -0.09088211692869663,-0.5032102018594742 l0.2702510915696621,0.6924350559711456 m-1.1012668907642365,2.093122750520706 l-0.0711005087941885,-1.9794164597988129 -0.006625282112509012,-0.3620848059654236 l5.061863660812378,-0.5181752145290375 3.371920883655548,-0.2539445087313652 l8.725425601005554,-0.0002806041084113531 7.232872843742371,1.7453591525554657 l-0.6119346618652344,2.6358625292778015 -11.068267822265625,1.4065484702587128 l-2.8453224897384644,1.3157263398170471 3.9356717467308044,0.14229429885745049 l4.344715178012848,0.2892011031508446 2.531891167163849,1.0693615674972534 l1.7387081682682037,1.6435357928276062 0.6979628652334213,0.8878996968269348 l-0.9653391689062119,4.207409620285034 -2.255217432975769,2.185531109571457 l-3.7293171882629395,1.7515483498573303 -1.572132259607315,0.4467494413256645 l-2.587352991104126,-0.1350698433816433 -4.318313002586365,-1.9225592911243439 l-7.944552302360535,-5.614221096038818 -0.6155071407556534,-3.988366723060608 m2.4227391183376312,-12.320414781570435 l-1.4002858102321625,-1.9593733549118042 -0.42079996317625046,-4.064281582832336 l-1.6478820145130157,-0.0019331097428221256 -4.15681779384613,0.8493562042713165 l-1.2924514710903168,0.23201962932944298 -2.329995632171631,0.6146084889769554 l-0.8533862233161926,0.9422049671411514 -0.8461455255746841,1.2257727235555649 l-0.6449528783559799,1.6291391849517822 -0.5839554965496063,3.1049230694770813 l0.07046324200928211,1.503058522939682 1.1322887986898422,2.4949240684509277 l0.7985549420118332,0.5461253225803375 1.8738360702991486,0.6032061204314232 l3.2328572869300842,-0.15964725986123085 0.2292870543897152,0.09095263667404652 l-1.0205485671758652,-0.19538914784789085 -2.9437217116355896,0.5501842126250267 l-0.9245272725820541,1.1842887103557587 -0.11010248214006424,0.7106044888496399 l-0.0002917211713793222,2.1798136830329895 0.6270007789134979,1.720336675643921 l0.6059420481324196,1.3102231919765472 m10.960975885391235,-19.786550998687744 l5.695502161979675,-2.0296576619148254 4.8313263058662415,-2.7069899439811707 l1.9226284325122833,-0.627482682466507 0.7128609716892242,-0.1818818598985672 l0.25472158566117287,1.2379951775074005 -0.11295735836029053,1.5970931947231293 l-0.757509395480156,1.3461112976074219 -1.6325977444648743,1.2120911478996277 l-10.863815546035767,4.8636966943740845 -1.1690042167901993,-0.5049384385347366 l-0.11601087637245655,-1.0139872878789902 2.3266269266605377,-2.6120129227638245 l5.263124704360962,-0.2280719205737114 m2.358829230070114,-6.815729141235352 l1.1449410766363144,-0.0011328151595080271 m2.688519060611725,-12.8611421585083 l-0.8715566247701645,11.973848342895508 0.38114510476589203,0.7787352800369263 m-14.343622922897339,-4.203937649726868 l-0.04817068111151457,1.479506939649582 0.6902650743722916,0.5572984367609024 l1.7384766042232513,0.5434773117303848 1.6658809781074524,-0.9721027314662933 l0.5978106334805489,-1.3588209450244904 -0.06868222262710333,-0.6072475761175156 l-0.7916387915611267,-0.7797145843505859 -1.3871164619922638,-0.2085704542696476 l-0.4776625335216522,0.4261116683483124 0.9870610386133194,0.923873782157898 l1.061754897236824,0.4782310128211975 0.932227149605751,0.3128976374864578 m0.7220687717199326,1.1338870227336884 l0.07605360355228186,0.3104748763144016 -0.16766222193837166,0.00013878106074116658 l-1.6171862185001373,0.20751753821969032 m74.07915058798608,-0.6316553363376443 l-0.11502299457788467,3.8759535551071167 -1.7011693120002747,6.87275767326355 l-0.541401132941246,9.471060633659363 0.4182388633489609,4.151506125926971 m0.8945925533771515,-0.6457620114088058 l5.845215916633606,3.7985017895698547 -0.9201358258724213,-0.0013487212709151208 l-2.025810182094574,-0.44826142489910126 -3.3809053897857666,-0.7065793126821518 l-3.301994800567627,-1.3130970299243927 -1.9665080308914185,-1.2221203744411469 l-0.025134149473160505,-7.92228639125824 -0.0017812055011745542,-2.736653983592987 l1.9555413722991943,-2.5955143570899963 3.210160732269287,-3.0364200472831726 l4.827031493186951,-2.526080906391144 2.3434533178806305,-0.44686567038297653 l8.874840140342712,1.864388883113861 0.8708836883306503,0.6901902705430984 l-1.7410898208618164,0.7637616991996765 -9.601706862449646,1.0796943306922913 m3.7497684359550476,0.7508864253759384 l-4.43246603012085,-1.2261953204870224 -0.527368001639843,-0.011759010376408696 l-0.11115284636616707,3.132881820201874 m3.950055241584778,19.850677251815796 l0.0977610144764185,0.23903166875243187 -4.455989301204681,0.002985732280649245 l2.5157853960990906,-0.9443678706884384 -1.8075662851333618,0.8901834487915039 l-3.261294364929199,4.009523391723633 0.28509531170129776,0.3649349510669708 l-0.17316551879048347,0.35626575350761414 -2.794293165206909,-6.695882081985474 l-3.5975584387779236,-4.8606327176094055 -2.6379963755607605,-4.031660556793213 l0.4064575582742691,-2.4539297819137573 2.0044873654842377,-2.6116380095481873 l1.446317732334137,-0.8832560479640961 6.192009449005127,1.09872467815876 l1.9970884919166565,1.1830021440982819 3.7959101796150208,2.285189628601074 l7.973852753639221,3.8316887617111206 10.170955657958984,6.3872575759887695 l0.1672052964568138,0.7196346670389175 -4.481815993785858,0.1325426809489727 l-0.45393090695142746,0.5917316675186157 -5.772784948348999,2.5836116075515747 l-4.086845517158508,0.5632594600319862 -1.4866168797016144,1.426241546869278 l-2.818070948123932,2.8515636920928955 m12.358132600784302,2.3443295061588287 l5.571514368057251,0.8702141046524048 2.9115626215934753,0.41964560747146606 m-9.11880910396576,-4.293434321880341 l-2.6635700464248657,-3.3733683824539185 -0.5574517697095871,-2.6620933413505554 l0.0009246689296560362,-1.4820601046085358 -0.50498116761446,-0.4861532524228096 l-0.49618955701589584,-1.191759705543518 -2.683548629283905,-8.47124457359314 l0.497647225856781,-0.8156470954418182 1.422979086637497,-0.2785607799887657 l0.9461933374404907,0.08229653351008892 m-4.061282575130463,5.8646345138549805 l1.2080702930688858,2.251383066177368 -0.7786483317613602,1.0279984027147293 l-0.4065500572323799,-0.58454480022192 -1.703553944826126,-2.239060401916504 l-1.332489401102066,-3.073706328868866 0.25216512382030487,-1.3914722204208374 l1.3254572451114655,-0.7411424815654755 m-9.669702649116516,-17.058093547821045 l-0.33231839537620544,0.44382259249687195 -2.9196882247924805,0.0017393307643942535 l-2.9785844683647156,6.590900421142578 0.7483888417482376,2.7598464488983154 l0.4808945953845978,0.20581863820552826 -0.9869374334812164,-1.6529843211174011 l-1.9984778761863708,-2.2723957896232605 5.634855031967163,7.950455546379089 l1.5827937424182892,2.222052216529846 -0.7031294703483582,-0.917675569653511 l-1.4165133237838745,-2.1161022782325745 -1.2303611636161804,-2.4123264849185944 l1.2413890659809113,1.2920914590358734 4.992894530296326,4.1053056716918945 l-0.0021187095262575895,2.685295045375824 0.48419348895549774,1.2199824303388596 m0.7222224771976471,-15.698875188827515 l-1.2605014443397522,1.2493649870157242 -0.030892305076122284,5.30771017074585 l1.0372621566057205,0.5601869150996208 1.233934760093689,1.7185412347316742 l0.0007422250928357244,5.157381892204285 1.8257296085357666,-0.6565874814987183 m-1.5210522711277008,-10.127502679824829 l-0.23252859711647034,-4.644380509853363 7.544310392404441e-05,-0.3947710618376732 l0.851074755191803,1.3109095394611359 1.1671565473079681,0.7624945789575577 l-2.807856798171997,-9.920527935028076 -0.24971229955554008,-1.8736235797405243 l-0.07241709157824516,-0.5195439234375954 m83.71376979431261,24.362552402666324 l-0.0888877734541893,3.902207911014557 -2.127644568681717,14.620249271392822 l-1.463388055562973,10.0071120262146 -0.0013904283696319908,1.971304714679718 l-2.7010414004325867,0.0004914201417705044 1.31598562002182,0.8683052659034729 m5.279626250267029,-0.3720484673976898 l0.49028772860765457,-2.738814055919647 -0.194785725325346,-0.4144619405269623 l3.626805543899536,-3.1371283531188965 -0.21546464413404465,2.689976990222931 l-0.5485162138938904,2.306973934173584 -1.8334975838661194,3.4214070439338684 l12.342604398727417,0.900372639298439 2.161600738763809,-0.1911688596010208 l1.4741913974285126,-0.3199252486228943 0.3066127374768257,-0.3824397921562195 l-0.09569446556270123,-0.5677518993616104 4.547539949417114,-10.94430923461914 l-0.23346958681941032,-4.4325852394104 -1.0742071270942688,2.2353805601596832 l-1.9686375558376312,1.1519048362970352 -0.7405693829059601,-0.19982745870947838 l-7.1678227186203,-4.704441726207733 -2.6782849431037903,-2.262422889471054 m-2.9962962865829468,0.07175845559686422 l-3.5622429847717285,-0.0005649681406794116 -5.098018646240234,0.517817921936512 l-5.09498655796051,-2.0940573513507843 0.34056514501571655,0.6664761155843735 l0.891927182674408,2.0540503555821488e-05 -0.2931838296353817,-3.845752775669098 l-6.310192942619324,-7.653831243515015 -4.184344112873077,1.8649697303771973 l-0.002631735405884683,1.5537749230861664 3.0975565314292908,11.586852073669434 l-5.248650908470154,0.00024178347302949987 -0.40940050035715103,1.031431332230568 l2.2213055193424225,-1.2273533642292023 1.7944736778736115,0.09716357104480267 l1.9675610959529877,0.44268660247325897 1.7139926552772522,0.9189526736736298 l4.20126736164093,1.446504145860672 5.01691997051239,0.0004433024150785059 m8.668150305747986,-8.094286918640137 l0.8517808467149734,-1.7268411815166473 0.7662677019834518,-0.7456550747156143 l0.9728564321994781,-1.3223041594028473 3.7318426370620728,-2.579508423805237 l1.517242044210434,-0.5243133008480072 2.368254065513611,0.00011170420293638017 l-0.9583039581775665,-0.3486129641532898 -0.516970120370388,-2.024909257888794 l-1.6125786304473877,8.020472526550293 10.976040363311768,1.7944836616516113 l-10.800138711929321,3.9383620023727417 -3.6192548274993896,5.333825349807739 l1.8568558990955353,3.0711770057678223 -0.0015172993880696595,1.3618367910385132 l-0.6310518085956573,0.619632788002491 -0.9215926378965378,0.3404015675187111 l-0.718352347612381,-0.2294909581542015 -0.6397617608308792,-0.42403988540172577 m-0.29121464118361473,-46.110544204711914 l2.241693437099457,-3.6410102248191833 2.508142590522766,-1.6255325078964233 l3.8833728432655334,1.8316583335399628 1.242266222834587,2.8065985441207886 l-0.9418123960494995,4.642432928085327 -0.31824376434087753,1.385410726070404 l-0.6038753315806389,0.41621286422014236 m0.7285098731517792,0.47506827861070633 l0.7594373822212219,-4.17930543422699 -0.05534939933568239,-3.9236027002334595 l-0.7797316461801529,-0.2325703389942646 -2.766468822956085,1.2589307129383087 l-1.5229392051696777,0.731201246380806 -0.5791008844971657,0.7223247736692429 l0.0006545034557348117,0.8971655368804932 0.032140996772795916,0.4792262613773346 m10.271623134613037,-7.560210824012756 l-0.7647004723548889,3.4393885731697083 m0.002953474468085915,-2.285810112953186 l-2.0847712457180023,-1.4151963591575623 -3.721499741077423,-3.2376429438591003 l-0.8375091850757599,-1.8197384476661682 -0.4261357709765434,-2.627459764480591 l0.283262487500906,-0.3184259310364723 1.1159896850585938,-0.2830325998365879 l1.1891970038414001,0.051962947472929955 1.9455434381961823,0.5392028018832207 l1.671999990940094,0.36833547055721283 0.4736434295773506,2.2143106162548065 l-0.0004859100954490714,-0.6848227977752686 2.4301020801067352,0.0010911800927715376 l0.5798838287591934,0.3569956496357918 m3.48434180021286,-2.408892959356308 l-0.05253361538052559,-1.6290734708309174 -0.06277050357311964,3.758929669857025 m53.33598719887959,28.138544678471362 l0.1645509898662567,3.4434014558792114 -1.5771761536598206,7.991741299629211 l-0.4483896493911743,13.180240392684937 -4.315713047981262,0.0018705440743360668 l-1.536804586648941,1.9521765410900116 5.246831178665161,1.5481151640415192 l6.824214458465576,0.20940428599715233 3.1115680932998657,0.3516463190317154 l2.680169641971588,-1.2570445239543915 -1.0012660920619965,-0.13972370885312557 l-1.3580545783042908,-0.03679403569549322 -1.8298065662384033,-2.2613073885440826 l-0.506465956568718,-1.939271092414856 -0.31106408685445786,-2.4626392126083374 l0.3112732619047165,-1.640624850988388 -0.25167370215058327,-12.50455617904663 l-0.6812713295221329,-1.8144474923610687 -4.664040207862854,-4.182882010936737 m-5.4687535762786865,-1.9854441285133362 l-1.7954395711421967,2.4758563935756683 -0.5185875669121742,4.745869040489197 l0.8585264533758163,2.460353821516037 2.2153693437576294,3.87970507144928 l0.645931214094162,1.3645967841148376 0.19542327150702477,1.384577453136444 l-0.9040751308202744,1.4427195489406586 13.550989627838135,-2.541029155254364 l-1.936025470495224,-0.028273428324609995 -5.9948015213012695,-0.8524110913276672 l2.452010065317154,0.9151392430067062 m-3.9625653624534607,-15.694102048873901 l6.4558058977127075,-4.811027646064758 1.9615520536899567,-2.2331899404525757 l2.184254080057144,-0.816599577665329 4.2967042326927185,0.26354651898145676 l-0.16436802223324776,0.45111309736967087 -0.12555683963000774,1.0759730637073517 l0.001382192422170192,2.337104380130768 0.39098765701055527,1.295311450958252 l0.5139554664492607,0.9648901969194412 1.933872401714325,0.2886473014950752 m0.3402538225054741,0.2229027822613716 l-0.002363375388085842,-1.3472260534763336 3.0642160773277283,-1.3819102942943573 l3.5938704013824463,-1.3197693228721619 -0.10440345853567123,0.3034562058746815 l-3.7069690227508545,-0.0004739319410873577 0.5833287909626961,-0.568629801273346 l0.8788646757602692,0.19896740093827248 -8.41886043548584,0.21520975977182388 l0.5659450590610504,0.08654671721160412 4.76734846830368,3.3883747458457947 l2.0925846695899963,0.4957619309425354 0.46820785850286484,0.6511528044939041 l-1.3441342115402222,1.1225253343582153 13.42212200164795,-5.672619342803955 l0.38574792444705963,1.5563187003135681 -4.914710521697998,2.1191731095314026 l-8.820740580558777,1.6733227670192719 -4.5552244782447815,0.0005275516741676256 l-6.28165066242218,0.3892618790268898 -3.8905903697013855,1.1242976039648056 l1.344267725944519,0.19572163000702858 m-16.653032302856445,2.842082679271698 l1.8117766082286835,-7.917131185531616 1.8850192427635193,-4.162393510341644 l-0.27428269386291504,0.24905744940042496 -0.3460470587015152,1.3914874196052551 l-0.8803576976060867,4.296228587627411 -0.0003938839290640317,4.384414255619049 l-4.801079034805298,1.3953499495983124 -2.7542531490325928,1.4829526841640472 l-0.3625740483403206,2.5922319293022156 -0.320587120950222,0.7135118544101715 m2.7914446592330933,0.6387870013713837 l1.8697810173034668,-1.4844374358654022 -0.5402122437953949,-0.6136985868215561 l-1.2445393949747086,-0.0010216503142146394 1.009865552186966,0.1536392606794834 m11.440080404281616,2.108280658721924 l0.9755979478359222,2.6965048909187317 m-24.469444751739502,-28.412775993347168 l-0.15859445556998253,-2.9369351267814636 -0.2316928282380104,-0.6408362835645676 l-0.871327668428421,1.0688833892345428 -0.5056587234139442,2.4842849373817444 l2.1732287108898163,-0.04098504316061735 0.41666485369205475,-2.1146240830421448 l0.21630460396409035,-0.2956007234752178 0.13372070156037807,0.18435705453157425 l-0.44118668884038925,1.6285748779773712 -0.09415828622877598,4.208213686943054 m0.22594794631004333,-0.532195046544075 l0.883341059088707,-1.3338369131088257 2.6619350910186768,-2.3037679493427277 l0.45240893959999084,0.2691923454403877 m3.0112016201019287,-4.318349361419678 l-0.003722508263308555,-0.008937738602980971 0.0026352173881605268,1.5209254622459412 l0.8517008274793625,0.0840475969016552 1.4976856112480164,-1.1576835066080093 l0.0009084102202905342,-0.9722311049699783 -1.2342756986618042,-0.667181983590126 l-1.2356705218553543,0.2929658442735672 " fill="none" stroke="black" stroke-width="1" /></svg>