<?xml version="1.0" encoding="utf-8" ?>
<svg baseProfile="full" height="87.12960422039032" version="1.1" width="97.49369438737631" xmlns="http://www.w3.org/2000/svg" xmlns:ev="http://www.w3.org/2001/xml-events" xmlns:xlink="http://www.w3.org/1999/xlink"><defs /><rect fill="white" height="87.12960422039032" width="97.49369438737631" x="0" y="0" /><path d="M44.822579845786095,36.269690338522196 m-0.10062223300337791,3.8236448168754578 l-1.8112002313137054,10.565334558486938 -0.30186669901013374,3.42115581035614 l-0.9056001156568527,2.918044626712799 -2.716800272464752,5.031111836433411 l8.552889823913574,0.10062223300337791 2.213689088821411,-0.5031111836433411 l1.71057790517807,-1.9118224084377289 2.3143114149570465,-0.6037333980202675 l0.30186669901013374,-0.6037333980202675 -0.9056001156568527,-2.41493359208107 l-3.3205336332321167,-5.534222722053528 -1.71057790517807,-3.924266993999481 l-0.30186669901013374,-4.226133823394775 0.40248893201351166,-0.9056001156568527 l0.20124446600675583,-3.5217782855033875 -1.207466796040535,-1.8112002313137054 l-0.5031111836433411,-0.20124446600675583 m-2.8174224495887756,1.5093335509300232 l-0.40248893201351166,-0.5031111836433411 -7.747911810874939,-0.7043556123971939 l-7.6472896337509155,-2.716800272464752 -0.6037333980202675,0.0 l-0.8049778640270233,0.8049778640270233 -0.10062223300337791,1.9118224084377289 l0.40248893201351166,1.8112002313137054 2.3143114149570465,4.0248894691467285 l2.918044626712799,2.716800272464752 2.1130669116973877,1.207466796040535 l2.3143114149570465,0.8049778640270233 -3.0186671018600464,0.40248893201351166 l-7.345423102378845,2.41493359208107 -1.0062223672866821,0.8049778640270233 l-0.30186669901013374,0.7043556123971939 0.10062223300337791,2.213689088821411 l0.9056001156568527,1.4087112247943878 1.5093335509300232,1.207466796040535 l3.8236448168754578,1.5093335509300232 4.7292450070381165,-0.5031111836433411 l3.5217782855033875,-1.4087112247943878 m9.860978722572327,-18.313246965408325 l12.376534938812256,-0.20124446600675583 3.11928927898407,-1.6099557280540466 l4.930489361286163,-3.5217782855033875 0.9056001156568527,-0.40248893201351166 l1.207466796040535,0.0 0.40248893201351166,0.5031111836433411 l0.10062223300337791,2.3143114149570465 -0.40248893201351166,1.6099557280540466 l-2.3143114149570465,3.42115581035614 -2.3143114149570465,2.41493359208107 l-6.641067266464233,3.3205336332321167 4.226133823394775,0.0 l2.8174224495887756,0.40248893201351166 -0.10062223300337791,1.3080890476703644 l-0.7043556123971939,0.8049778640270233 -2.918044626712799,1.1068445444107056 l-7.244800925254822,0.6037333980202675 -1.6099557280540466,1.207466796040535 l-3.622400462627411,0.9056001156568527 m-6.339200735092163,-15.596445798873901 l-1.0062223672866821,0.0 -1.1068445444107056,-0.6037333980202675 l-1.5093335509300232,-1.9118224084377289 -0.5031111836433411,-1.9118224084377289 l0.0,-2.213689088821411 0.6037333980202675,-2.213689088821411 l1.3080890476703644,-1.5093335509300232 1.207466796040535,-0.5031111836433411 l1.6099557280540466,0.0 1.71057790517807,1.1068445444107056 l1.5093335509300232,1.5093335509300232 1.6099557280540466,2.41493359208107 l0.0,1.6099557280540466 -0.5031111836433411,1.71057790517807 l-1.3080890476703644,1.5093335509300232 -1.207466796040535,0.5031111836433411 m-4.125511646270752,-5.534222722053528 l0.0,0.0 m2.213689088821411,0.0 l0.40248893201351166,0.0 m-2.41493359208107,0.20124446600675583 l-0.10062223300337791,-0.10062223300337791 m0.6037333980202675,1.71057790517807 l2.716800272464752,0.8049778640270233 1.0062223672866821,0.0 l0.40248893201351166,-0.6037333980202675 m-6.339200735092163,-4.82986718416214 l0.30186669901013374,1.8112002313137054 -0.6037333980202675,2.1130669116973877 l-1.0062223672866821,2.41493359208107 -1.0062223672866821,0.7043556123971939 l3.2199114561080933,-6.84231162071228 0.9056001156568527,-0.9056001156568527 l0.7043556123971939,-0.20124446600675583 1.4087112247943878,0.0 l1.5093335509300232,0.8049778640270233 2.41493359208107,3.3205336332321167 l1.4087112247943878,1.207466796040535 2.918044626712799,0.9056001156568527 " fill="none" stroke="black" stroke-width="1" /></svg>