<?xml version="1.0" encoding="utf-8" ?>
<svg baseProfile="full" height="95.48579006455839" version="1.1" width="830.6323290243745" xmlns="http://www.w3.org/2000/svg" xmlns:ev="http://www.w3.org/2001/xml-events" xmlns:xlink="http://www.w3.org/1999/xlink"><defs /><rect fill="white" height="95.48579006455839" width="830.6323290243745" x="0" y="0" /><path d="M25,25 m0.0,0.0 m33.823081319310404,7.665483706548457 l-5.649510622024536,0.494026243686676 -7.979559302330017,3.5134053230285645 l-2.2571447491645813,1.2974295020103455 -2.6884007453918457,2.441646307706833 l-1.7376725375652313,2.2470006346702576 -1.793673038482666,3.571512997150421 l-0.7889880239963531,2.786499857902527 -0.00020705623683170415,3.8388600945472717 l0.9502248466014862,3.79791796207428 1.3642551004886627,2.5777795910835266 l3.05817186832428,3.2799214124679565 3.0129969120025635,2.0586495101451874 l5.201424956321716,2.2588354349136353 9.406668543815613,1.8303453922271729 l7.6150500774383545,-5.9859662542294245e-05 2.7244552969932556,-0.5201557278633118 l4.420396685600281,-1.6514687240123749 2.9313716292381287,-1.804780662059784 l2.2338567674160004,-2.082005739212036 2.381451427936554,-3.6190879344940186 l1.1088944971561432,-3.0722472071647644 0.43579377233982086,-2.8914034366607666 l0.00011588604138523806,-3.5270771384239197 -1.0529415309429169,-4.0533265471458435 l-1.3925044238567352,-2.7600905299186707 -2.729870080947876,-3.4178656339645386 l-3.901437819004059,-3.1995540857315063 -3.130747675895691,-1.6630533337593079 l-9.167492389678955,-2.026832401752472 -2.8564807772636414,-0.04156649112701416 m-0.5892664194107056,3.196619153022766 l0.3899500146508217,3.2780325412750244 m4.783647954463959,-1.609969139099121 l1.6400374472141266,-0.08857937529683113 0.8412004262208939,0.5301203578710556 l0.6723404675722122,2.3390989005565643 -0.4143992066383362,1.801532357931137 m0.15957433730363846,11.56458854675293 l1.8103285133838654,0.2060886286199093 2.8034600615501404,0.6105117499828339 l1.3968099653720856,1.199435219168663 -0.00027000822228728794,1.3044573366641998 m67.3026987266121,-23.39670868878102 l-5.700405240058899,0.45000098645687103 -7.812903523445129,3.3531910181045532 l-2.3135975003242493,1.3459756970405579 -3.000055253505707,2.6078370213508606 l-1.860577017068863,2.192828506231308 -1.474771648645401,2.6753106713294983 l-1.0871170461177826,3.5404494404792786 -0.29342321678996086,4.165857434272766 l0.3055787645280361,1.8448187410831451 1.8618924915790558,3.7162914872169495 l2.969962954521179,3.2566750049591064 3.997589647769928,2.6091748476028442 l7.77861475944519,3.0994993448257446 4.120878875255585,0.7094612717628479 l8.889660835266113,0.16358202323317528 3.7510311603546143,-0.6521537899971008 l4.540726840496063,-1.5721981227397919 3.266462981700897,-1.9497005641460419 l2.3190565407276154,-2.0920106768608093 1.6171421110630035,-2.375245690345764 l1.100066676735878,-2.7975887060165405 0.4906073212623596,-4.1990020871162415 l0.00023626245820196345,-4.102835655212402 -1.034940779209137,-4.519809186458588 l-1.5398521721363068,-3.031790554523468 -2.8050997853279114,-3.551090359687805 l-2.458156794309616,-1.998431384563446 -2.785186469554901,-1.4713066816329956 l-9.595052003860474,-2.4312521517276764 -2.4284863471984863,-0.3454216197133064 m-2.04879954457283,2.6944443583488464 l0.1447257585823536,3.908817768096924 m3.9519697427749634,-2.4339714646339417 l1.6604092717170715,-0.01171073759905994 0.8949708938598633,1.7124012112617493 l-0.6005756929516792,2.753932476043701 4.327108263969421,1.3274161517620087 m4.673824310302734,1.2460606545209885 l3.022908866405487,0.6997416913509369 1.0689964145421982,1.658094972372055 l-2.045723646879196,3.116316795349121 -0.2326623536646366,0.9602519869804382 m63.71674295348839,-16.47741228295672 l-5.695374608039856,0.49936410039663315 -7.556891441345215,3.512018620967865 l-1.7744836211204529,0.9671233594417572 -2.255329340696335,1.7295858263969421 l-3.1933623552322388,3.694460093975067 -1.9296246767044067,3.825792372226715 l-0.7955870032310486,2.927429974079132 -0.0003494242992019281,4.187719225883484 l0.45699194073677063,1.8764017522335052 1.0223724693059921,2.4533215165138245 l3.243524432182312,4.066919386386871 2.2980955243110657,1.6737350821495056 l6.4678168296813965,3.101472854614258 7.724804878234863,1.8494945764541626 l8.082661628723145,-0.00019464967408566736 3.215409219264984,-0.4241999611258507 l3.4786194562911987,-0.9961577504873276 4.090149104595184,-1.867498755455017 l2.9158613085746765,-2.228570580482483 2.1420636773109436,-2.6514536142349243 l2.0480819046497345,-4.029751121997833 0.44174477458000183,-2.265585958957672 l0.00011906181498488877,-3.560487926006317 -0.7431565225124359,-2.6829612255096436 l-3.5010525584220886,-6.014419794082642 -5.458295941352844,-5.9985703229904175 l-3.605090081691742,-2.675277590751648 -2.8249654173851013,-1.2918636202812195 l-3.9212140440940857,-0.9471084177494049 -2.7720701694488525,-0.215779896825552 m-1.338106095790863,3.193599581718445 l-0.0005678496381733567,4.503191113471985 m1.2879389524459839,-2.844383418560028 l1.699306070804596,-0.1469071488827467 0.20239338278770447,2.381366640329361 l0.15409976243972778,2.091629207134247 -1.1196854710578918,2.1049588918685913 m-4.578850269317627,11.475687026977539 l2.309381067752838,0.47776393592357635 4.635499715805054,0.5562882870435715 l2.25550040602684,0.30559116974473 4.237895309925079,0.034448630176484585 m68.51300179673217,-22.141983316514597 l-5.80422043800354,0.42144011706113815 -7.877790927886963,3.163405954837799 l-2.2348426282405853,1.2301459908485413 -3.1475386023521423,2.988547384738922 l-1.4021804928779602,1.8657942116260529 -1.7441338300704956,3.445023000240326 l-0.6767578423023224,2.407754808664322 0.00025245868528145365,3.832423686981201 l0.37574756890535355,1.4650769531726837 0.0001526780761196278,4.213882088661194 l5.03263533115387,5.060815215110779 4.462285041809082,2.4567613005638123 l2.4611708521842957,1.1255594342947006 8.57689380645752,2.4969935417175293 l7.393052577972412,0.20006997510790825 4.690865576267242,-1.0065420717000961 l3.5240349173545837,-1.359531730413437 3.036915361881256,-1.6977840662002563 l4.02734637260437,-3.3088749647140503 1.521829068660736,-2.1842190623283386 l1.2089648097753525,-2.2432421147823334 0.7528511434793472,-3.816457986831665 l-0.03537756856530905,-2.843656837940216 -0.4535084217786789,-3.264140486717224 l-2.327774167060852,-6.562886834144592 -1.1422575265169144,-1.9055050611495972 l-4.793990254402161,-4.262705147266388 -2.4113869667053223,-1.418003886938095 l-4.260439872741699,-1.3714811205863953 -6.874749660491943,-1.7908239364624023 m-4.81188178062439,3.8540589809417725 l-0.0003816550088231452,2.3260803520679474 m6.652038097381592,-0.55560152977705 l0.9847810119390488,-0.3633526712656021 0.8863601833581924,1.1175327748060226 l-0.47290030866861343,3.064815402030945 1.3127587735652924,0.8238212019205093 m-6.005202531814575,11.996943950653076 l1.4805521070957184,0.4104069620370865 3.131597638130188,2.848573327064514 l0.3349900245666504,0.8946449309587479 2.2914639115333557,0.0004319519575801678 m70.85664889090367,-25.9246367634114 l-5.506428480148315,0.4970574378967285 -7.2021400928497314,3.490156829357147 l-3.799659311771393,3.0478543043136597 -1.6729818284511566,1.6488799452781677 l-1.9857312738895416,2.878895103931427 -1.3607488572597504,2.8812015056610107 l-0.001305559417232871,2.5784191489219666 -0.00045297143515199423,4.145238399505615 l1.0500779002904892,5.970015525817871 0.4343082010746002,0.9366900473833084 l1.1194879561662674,1.777096688747406 5.107070207595825,3.833562433719635 l4.066087007522583,1.6640080511569977 17.450339794158936,2.3535193502902985 l5.182697772979736,-0.18674537539482117 2.3699982464313507,-0.30381206423044205 l2.1062617003917694,-0.8133568614721298 3.2211190462112427,-2.1767976880073547 l2.8045105934143066,-2.993091642856598 1.2143122404813766,-1.9938763976097107 l1.1051316559314728,-2.510736882686615 0.6724506616592407,-2.8257110714912415 l0.002950268390122801,-3.794645071029663 -1.468280851840973,-4.393883645534515 l-1.8444107472896576,-2.591310143470764 -3.6116549372673035,-3.9336955547332764 l-1.7660671472549438,-2.112499177455902 -2.716894745826721,-2.216949313879013 l-5.580114126205444,-3.087044060230255 m-11.618174314498901,1.8575651943683624 l0.736464187502861,3.111504018306732 3.46506804227829,0.8119550347328186 l0.49595165997743607,1.0700773447752 m0.1438478659838438,0.015649670967832208 l0.655699148774147,2.808349132537842 0.011329795233905315,1.6713902354240417 l-0.7867451757192612,3.434523046016693 m9.021082520484924,0.10428683832287788 l1.3314682245254517,-9.424330528418068e-05 1.927560418844223,1.6574470698833466 l0.6988923251628876,1.8645136058330536 -1.0142654925584793,3.025636374950409 m67.32123722016695,-23.17163907063332 l-5.485501289367676,0.38090549409389496 -8.709220290184021,4.6696072816848755 l-3.236873745918274,2.5007206201553345 -2.1709956228733063,1.9277259707450867 l-2.933947741985321,3.961133062839508 -0.7396505773067474,2.367978096008301 l-0.540650337934494,4.239882230758667 0.13829032890498638,2.640424072742462 l0.7982755452394485,3.6513328552246094 1.2895460426807404,2.7106288075447083 l3.0411994457244873,3.4307315945625305 7.785680890083313,4.12955105304718 l4.373377859592438,0.8515120297670364 12.95932412147522,0.06510151084512472 l3.2167816162109375,-0.46753671020269394 2.701222598552704,-0.7145964354276657 l3.7622594833374023,-1.466272920370102 3.499654531478882,-2.1643902361392975 l1.1649832874536514,-1.062116101384163 1.5085633099079132,-2.02114537358284 l0.7004629820585251,-1.4652585983276367 2.0251205563545227,-7.873653173446655 l-9.40694098972017e-05,-6.908206939697266 -1.1095115542411804,-1.2621033191680908 l-2.982076406478882,-3.2627475261688232 -1.9991585612297058,-1.499621868133545 l-2.3907679319381714,-1.0316244512796402 -3.7306350469589233,-0.690922811627388 l-5.066653490066528,-0.002367307897657156 -2.503412663936615,-1.85104101896286 m-8.4148508310318,1.262136995792389 l0.32697584480047226,12.830314636230469 m-0.30059779062867165,0.5118191987276077 l4.218699932098389,0.001329355000052601 5.412859320640564,-0.7657769322395325 l2.4160729348659515,-0.0006720809324178845 0.0006767975719412789,-0.7540348917245865 l-1.0567297786474228,1.3868743181228638 -2.000584900379181,2.7762389183044434 m-3.451680541038513,-2.28554829955101 l-0.7502657175064087,3.945719301700592 0.1742616482079029,4.197829365730286 l-1.4325210452079773,0.5899767577648163 -2.5712591409683228,0.5782538279891014 m79.46164461355693,-27.439424481854076 l-6.397157311439514,0.6994325667619705 -8.22833240032196,3.7438318133354187 l-3.427187204360962,2.0272180438041687 -1.2532538175582886,1.5017101168632507 l-1.41036257147789,2.190901041030884 -1.217593252658844,3.3902227878570557 l-1.5440815687179565,5.682410001754761 -0.2628047950565815,2.7981334924697876 l1.0183829069137573,2.490013837814331 0.7956869155168533,1.5370859205722809 l4.21226441860199,4.926536679267883 1.8288373947143555,1.5156061947345734 l3.270324170589447,1.5371623635292053 18.3162522315979,2.459491491317749 l6.130661368370056,0.10867364704608917 5.3727781772613525,-0.7438892871141434 l1.900552660226822,-0.34574661403894424 2.1398186683654785,-1.0902256518602371 l1.8793457746505737,-1.614360511302948 1.5490253269672394,-1.8307076394557953 l0.9675728529691696,-1.851942390203476 1.1715863645076752,-2.6518046855926514 l1.6396187245845795,-8.862200379371643 -0.00012226326361997053,-6.4056336879730225 l-1.6407908499240875,-3.104529082775116 -4.001947641372681,-2.709168791770935 l-2.3668645322322845,-1.2944592535495758 -2.615325450897217,-0.9429001063108444 l-7.390841841697693,-1.1535530537366867 -8.847330808639526,-0.40314704179763794 m3.554491102695465,18.45401644706726 l-0.45159894973039627,-0.13428310863673687 m1.2940818071365356,0.15564251691102982 l0.6236103549599648,-1.1128360033035278 1.5535801649093628,0.02907064976170659 l-0.14213807880878448,0.5620616301894188 -0.4787993058562279,-0.009010220528580248 m2.3957373201847076,0.6972476094961166 l4.104364812374115,1.8620659410953522 7.847362160682678,0.0021511726663447917 l0.9589436650276184,0.031779848504811525 0.14070981182157993,0.4630286619067192 m59.094821047874575,-22.512405224551912 l-5.640320181846619,0.43513622134923935 -7.488327622413635,3.443710207939148 l-2.2607657313346863,1.730026751756668 -1.7302720248699188,2.1916207671165466 l-1.2713928520679474,-0.07094751112163067 -4.418472945690155,3.9463961124420166 l-2.893405258655548,5.578126907348633 0.0006855263200122863,0.6991913169622421 l-0.44814690947532654,1.476232260465622 -0.14605185948312283,2.5209197402000427 l1.324746012687683,3.084627389907837 10.183231830596924,7.628990411758423 l2.2494353353977203,2.6797643303871155 7.390469312667847,2.655847668647766 l1.8755349516868591,0.05204200744628906 5.165480375289917,0.06682026199996471 l4.968772530555725,-1.1038830876350403 4.110120236873627,-1.1818579584360123 l1.7638295888900757,-0.7319478690624237 4.033485054969788,-2.6590394973754883 l3.286171555519104,-1.877460926771164 3.7337157130241394,-2.945096492767334 l3.6266937851905823,-3.373105823993683 0.9383346885442734,-2.7965685725212097 l-2.2539715468883514,-2.794440984725952 -4.967686831951141,-4.774313569068909 l-7.551755309104919,-5.958948135375977 -3.0471980571746826,-3.334718644618988 l-1.3538196682929993,-1.034611463546753 -1.278185248374939,-0.6468852609395981 l-5.4266053438186646,-1.3612578809261322 m3.8355648517608643,-3.0689871311187744 l-0.0004960991645930335,4.871944189071655 0.0015165515651460737,3.7624040246009827 m-0.16334040090441704,3.1468957662582397 l-0.09720132686197758,-0.23368310183286667 2.5051236152648926,0.3036193735897541 l1.6512934863567352,1.0945560783147812 2.842731475830078,3.656335771083832 m0.6509291380643845,2.651325762271881 l2.668974995613098,-0.17169976606965065 1.3490085303783417,-0.4125779867172241 l-2.8095263242721558,-0.00019173392502125353 -5.42959988117218,5.9923094511032104 m73.3410731121694,-24.91636678321811 l-6.665358543395996,0.2467700093984604 -7.747617959976196,3.0944842100143433 l-5.1047539710998535,2.5103652477264404 -1.681147813796997,0.8985970914363861 l-2.082658112049103,2.3919935524463654 -1.8894192576408386,2.4676768481731415 l-1.2337535619735718,2.651847004890442 -1.852695494890213,7.49987006187439 l-0.04506400786340237,4.332780539989471 0.5516788735985756,1.9097214937210083 l1.6698800027370453,1.3834109902381897 2.9472148418426514,1.7748509347438812 l5.652451515197754,2.7203524112701416 7.8144371509552,3.2158461213111877 l15.928001403808594,2.674136161804199 0.878593772649765,0.3522118553519249 l1.4234969019889832,0.002429913729429245 3.2537344098091125,-1.0021404176950455 l3.89037162065506,-2.6452532410621643 2.8807249665260315,-3.6736589670181274 l1.5118327736854553,-4.229941666126251 1.6168320178985596,-2.8713983297348022 l0.6599235534667969,-2.6958099007606506 0.2920065075159073,-4.101189076900482 l-1.2497663497924805,-5.118206739425659 -0.0013045956438872963,-3.1589066982269287 l-1.4157196879386902,-2.4581822752952576 -1.9688606262207031,-1.4453299343585968 l-13.931647539138794,-6.925672292709351 -6.552237868309021,-0.15235057100653648 m-4.798139035701752,1.414283961057663 l0.6149635836482048,0.9816183894872665 1.556830257177353,4.710062146186829 m-1.7041628062725067,-4.647344946861267 l2.486519068479538,0.9454035758972168 0.7731989026069641,3.5482043027877808 m-16.217130422592163,8.326024413108826 l0.49307141453027725,-1.2861929833889008 1.1359014362096786,-0.5851341038942337 l-1.4584161341190338,0.18162334337830544 1.2476355582475662,0.691022127866745 l4.3095701932907104,0.9744324535131454 -5.205857157707214,3.352307677268982 m97.06410493337899,-15.931987203402969 l-5.464767217636108,0.43846648186445236 -11.29313349723816,4.726158678531647 l-2.190316915512085,1.3259905576705933 -3.6919069290161133,3.9608851075172424 l-1.639397293329239,2.206137925386429 -1.278539001941681,2.95058012008667 l-0.0025873418780975044,7.470993995666504 0.9778077900409698,3.635343313217163 l0.4604239761829376,0.8933504670858383 4.3935006856918335,5.3347694873809814 l4.431118369102478,1.9413778185844421 4.056325256824493,1.0168568044900894 l4.235182702541351,0.32683536410331726 15.62059760093689,-0.000861678781802766 l5.538657307624817,-0.6290523707866669 4.016062617301941,-0.6177607551217079 l2.533295750617981,-1.032533347606659 1.7533938586711884,-1.683032512664795 l1.849789321422577,-2.2143715620040894 1.3916344940662384,-1.7006815969944 l0.936402752995491,-2.8767409920692444 -0.11241769418120384,-5.964677333831787 l-0.713297501206398,-3.3553239703178406 -1.4788201451301575,-3.0893662571907043 l-2.2540077567100525,-3.7791699171066284 -6.249242424964905,-3.6218246817588806 l-7.988131642341614,-2.645975947380066 -4.487208127975464,-1.5138831734657288 l-3.4448179602622986,-1.005789339542389 -9.12937879562378,-1.2116600573062897 m4.663139283657074,3.417524993419647 l1.8270863592624664,10.94578504562378 m-0.0014928131713531911,-0.5253470689058304 l2.1519996225833893,0.0003136682789772749 4.6395763754844666,2.0079410076141357 l1.8059967458248138,1.3620240986347198 0.613129734992981,0.9515326470136642 l5.922817587852478,0.0012710137525573373 m-9.768356680870056,-4.415568113327026 l1.4158107340335846,-0.22484779357910156 1.0383456200361252,0.303481612354517 l-0.005491831107065082,2.1587955951690674 -6.294172406196594,9.7665274143219 " fill="none" stroke="black" stroke-width="1" /></svg>