<?xml version="1.0" encoding="utf-8" ?>
<svg baseProfile="full" height="88.84018203243613" version="1.1" width="97.69493792206049" xmlns="http://www.w3.org/2000/svg" xmlns:ev="http://www.w3.org/2001/xml-events" xmlns:xlink="http://www.w3.org/1999/xlink"><defs /><rect fill="white" height="88.84018203243613" width="97.69493792206049" x="0" y="0" /><path d="M47.640002984553576,25 m-6.037334203720093,0.6037333980202675 l-8.251023292541504,3.8236448168754578 -1.8112002313137054,1.1068445444107056 l-2.41493359208107,2.1130669116973877 -1.5093335509300232,2.41493359208107 l-2.3143114149570465,7.144178748130798 -0.30186669901013374,2.0124447345733643 l0.20124446600675583,4.528000354766846 0.8049778640270233,1.9118224084377289 l2.213689088821411,3.0186671018600464 3.2199114561080933,2.41493359208107 l3.11928927898407,1.6099557280540466 8.552889823913574,3.42115581035614 l8.854756355285645,2.41493359208107 2.6161780953407288,0.30186669901013374 l5.836089253425598,-0.10062223300337791 5.836089253425598,-3.622400462627411 l2.41493359208107,-2.213689088821411 2.0124447345733643,-2.918044626712799 l1.3080890476703644,-3.5217782855033875 0.7043556123971939,-3.8236448168754578 l0.0,-4.427378177642822 -0.6037333980202675,-1.8112002313137054 l-1.9118224084377289,-3.11928927898407 -6.137956380844116,-4.930489361286163 l-3.0186671018600464,-1.71057790517807 -7.747911810874939,-2.1130669116973877 l-4.427378177642822,-3.622400462627411 -1.9118224084377289,-0.6037333980202675 m-1.3080890476703644,2.5155559182167053 l0.30186669901013374,4.82986718416214 m5.131734013557434,0.30186669901013374 l1.8112002313137054,1.4087112247943878 0.30186669901013374,1.6099557280540466 l1.6099557280540466,0.7043556123971939 m7.244800925254822,-1.5093335509300232 l5.031111836433411,1.3080890476703644 1.207466796040535,1.0062223672866821 l0.0,0.7043556123971939 -0.9056001156568527,1.6099557280540466 l0.0,1.5093335509300232 -3.8236448168754578,2.41493359208107 " fill="none" stroke="black" stroke-width="1" /></svg>