<?xml version="1.0" encoding="utf-8" ?>
<svg baseProfile="full" height="161.13564908970147" version="1.1" width="834.603883465752" xmlns="http://www.w3.org/2000/svg" xmlns:ev="http://www.w3.org/2001/xml-events" xmlns:xlink="http://www.w3.org/1999/xlink"><defs /><rect fill="white" height="161.13564908970147" width="834.603883465752" x="0" y="0" /><path d="M25,51.09207689994946 m0.0,0.0 m32.26368282921612,10.650252716150135 l-2.439717799425125,4.3163928389549255 -1.1744938790798187,3.3760762214660645 l-0.44900577515363693,5.458500981330872 -0.6771815568208694,4.950258731842041 l-1.221952810883522,3.810427188873291 -1.9420494139194489,1.8991971015930176 l-6.630421876907349,1.7732758820056915 -3.260768949985504,0.8841921389102936 l-2.5679922103881836,0.7972463965415955 -2.3946110904216766,1.0935407876968384 l-1.0278493165969849,0.9539706259965897 -0.32619014382362366,1.1174192279577255 l0.5100299790501595,1.1758922785520554 1.5802370011806488,1.05165034532547 l9.226966500282288,1.0647544264793396 9.5313960313797,0.19407235085964203 l7.036789655685425,-0.16505591571331024 5.028545260429382,-0.09469671174883842 l3.4100353717803955,-0.035539278760552406 m-8.6897474527359,-27.44241237640381 l0.1501128450036049,2.3583070933818817 0.3701359033584595,6.318675875663757 l0.22494515404105186,6.618103981018066 0.2964138612151146,5.565950274467468 l0.5167250335216522,4.950182139873505 0.8945394307374954,3.3849838376045227 l1.4713186025619507,2.1459640562534332 1.9300276041030884,0.9061823040246964 l4.363633692264557,-0.07147376891225576 0.9583643078804016,-0.6472679972648621 l1.2303715944290161,-2.3694443702697754 0.9684006124734879,-5.019826292991638 l0.3194986656308174,-10.456032752990723 -1.2997931241989136,-10.983850955963135 l-2.515302300453186,-8.850691318511963 -1.1409078538417816,-1.1241579055786133 l-7.413511276245117,0.570605993270874 -2.4025321006774902,1.4403542876243591 l-1.0994215309619904,1.3263387978076935 m7.254560589790344,8.240404725074768 l2.732023000717163,0.06133214104920626 6.619676351547241,0.4512994736433029 l12.682467699050903,2.2298765182495117 4.071669280529022,1.7635443806648254 l-5.589191913604736,9.090571403503418 -3.483855426311493,3.6561763286590576 l-3.5795846581459045,2.3664559423923492 m56.230606166645885,-32.50457046462543 l-2.493237853050232,4.191389977931976 -1.0208407789468765,3.2051149010658264 l-0.28717659413814545,6.070760488510132 -0.7717265188694,5.2311623096466064 l-1.5414711833000183,2.904580235481262 -6.080896258354187,1.498781442642212 l-2.3174306750297546,0.31737126410007477 -4.28976833820343,1.1262159794569016 l-3.369097113609314,2.083337903022766 -1.2150312960147858,1.729443520307541 l-0.45220132917165756,1.7591485381126404 0.42930804193019867,1.3252480328083038 l1.3870158791542053,1.270429790019989 2.2259141504764557,0.8796904236078262 l5.820994973182678,0.0003643301533884369 17.145543098449707,0.7372552901506424 l5.929847359657288,0.07758212741464376 3.3300387859344482,0.19376840442419052 l0.4128935933113098,-0.16207639127969742 m-8.487410545349121,-26.82178258895874 l-0.7744256407022476,3.240373730659485 -0.9915755689144135,5.0799643993377686 l-0.4885706305503845,5.931140780448914 0.0812118873000145,6.019988656044006 l0.7007307559251785,5.59784471988678 0.7627012580633163,3.610997498035431 l0.6055924296379089,0.8036675304174423 2.64380544424057,0.6414499133825302 l4.2459636926651,-0.2592167444527149 5.335185527801514,-0.9433502703905106 l2.4012741446495056,-1.259080171585083 0.6073077023029327,-1.0205652564764023 l0.37519820034503937,-1.6395126283168793 -1.6359588503837585,-12.396525144577026 l-3.671564757823944,-11.50957465171814 -1.9351136684417725,-3.5991594195365906 l-2.4417762458324432,-1.5912796556949615 -3.6597561836242676,-0.9802018851041794 l-4.247406721115112,0.47720957547426224 -1.999843567609787,1.5998801589012146 m17.600306272506714,8.320326209068298 l7.624989748001099,-0.9993229061365128 12.264678478240967,-1.2110000848770142 l-0.21056998521089554,1.7268423736095428 -1.6252070665359497,7.05708920955658 l-1.5233403444290161,8.601829409599304 -1.1762025952339172,4.782554805278778 l-1.928441971540451,2.107785791158676 m57.89207491558045,-38.616034258193395 l-2.4493251740932465,4.3518635630607605 -1.1165214329957962,3.3329659700393677 l-0.4712805524468422,4.385931491851807 -1.9323155283927917,8.708295226097107 l-1.1315972357988358,2.331135720014572 -0.413418784737587,0.3783953934907913 l-4.958963692188263,-0.10272927582263947 -3.3571189641952515,-0.06855122279375792 l-1.2652017176151276,0.34009188413619995 -2.7600693702697754,2.407863885164261 l-1.472320407629013,2.780141830444336 -0.8713199198246002,2.9546046257019043 l-0.27553441002964973,4.114142060279846 3.15087229013443,0.895642563700676 l7.928824424743652,0.6284242868423462 11.153020858764648,0.4326242208480835 l5.961403250694275,0.01836419920437038 4.4822958111763,-0.0005991884609102271 l3.0579978227615356,0.04960798192769289 m-15.825049877166748,-26.342461109161377 l1.7218813300132751,0.05993735510855913 3.321525752544403,0.905131921172142 l7.683492302894592,4.168256521224976 2.2079242765903473,2.044961154460907 l0.8476673811674118,1.6501767933368683 0.4035978391766548,2.1943362057209015 l-0.13464282266795635,1.6438284516334534 -3.583104908466339,5.256081223487854 l-1.7234112322330475,1.4279988408088684 -3.0389603972434998,1.4511367678642273 l-3.9204078912734985,0.6566993147134781 -4.516394734382629,-0.3083955682814121 l-2.6711440086364746,-1.2993960082530975 -1.5763315558433533,-1.4264091849327087 l-0.46896059066057205,-0.990506038069725 -0.9515440464019775,-7.081231474876404 l0.35562019795179367,-3.994745910167694 2.244267761707306,-5.522944331169128 l2.888067066669464,-11.228563785552979 4.773886203765869,7.52561092376709 m13.35835337638855,20.861318111419678 l1.8869678676128387,7.822033166885376 1.5663610398769379,9.211917519569397 l-1.078929826617241,-0.8738863468170166 -4.6276408433914185,-6.481103301048279 l-4.629082977771759,-7.898074388504028 -0.4426349326968193,-1.6152791678905487 m65.15798617452674,-22.96576866357441 l-2.4155639111995697,4.424254298210144 -1.2305809557437897,3.616451323032379 l-0.16182906925678253,3.8318753242492676 0.5157257616519928,7.298842072486877 l-3.7748533487319946,5.850475430488586 -1.482943445444107,0.1739094965159893 l-2.4061594903469086,0.43560512363910675 -3.9332768321037292,0.812443345785141 l-3.4790128469467163,1.3447664678096771 -2.8880053758621216,1.3707417249679565 l-2.4434375762939453,1.8434225022792816 0.662691593170166,4.497002065181732 l0.8147763460874557,0.9233911335468292 1.8560200929641724,1.0483647137880325 l7.899242043495178,1.562254851705802e-05 11.36808156967163,-0.9931982308626175 l5.401714444160461,1.0352998226881027 2.945903241634369,0.8120513707399368 l2.2042709589004517,0.4528612270951271 2.3241806030273438,0.3469287231564522 l0.6928012520074844,-0.055890888907015324 m-11.042541265487671,-33.301734924316406 l-2.994180917739868,4.426693618297577 -2.915826141834259,10.28218150138855 l-2.1851401031017303,7.688636779785156 0.13038916513323784,4.886472821235657 l1.0788865387439728,1.5060830116271973 2.5660312175750732,1.2970595061779022 l3.667701780796051,-0.0002860421227524057 2.884511649608612,-1.7075204849243164 l2.054063528776169,-2.192400097846985 1.6787220537662506,-2.666780650615692 l0.8491051942110062,-2.6235535740852356 0.2236124686896801,-19.3252694606781 l-1.7341136932373047,-8.50465178489685 -2.1388275921344757,-3.33583265542984 l-1.0586119443178177,-0.23208830505609512 -0.43020542711019516,0.5794030800461769 l-0.15865588560700417,3.5540059208869934 -0.6363752484321594,14.303350448608398 l0.0016061995120253414,1.4165835082530975 m-2.537424862384796,-3.4870517253875732 l18.441966772079468,4.808802604675293 16.209551095962524,3.3210766315460205 l-7.317709922790527,0.7789306342601776 -17.758618593215942,-0.9274233877658844 l-8.301867842674255,2.236361652612686 m84.64165468096326,-24.417466381382837 l-2.548430860042572,4.245922267436981 -1.2001106888055801,3.3129674196243286 l-0.6431152671575546,3.3029958605766296 -2.9906809329986572,7.13720440864563 l-0.16457512974739075,2.321845591068268 0.16177019104361534,0.6416533142328262 l-6.767321228981018,0.2926061116158962 -10.63805341720581,3.3288615942001343 l-3.1351232528686523,4.0065595507621765 1.5224938094615936,0.8199228346347809 l2.153909206390381,0.3555963560938835 3.796672523021698,0.5835240706801414 l14.612349271774292,1.6450507938861847 6.734375357627869,0.1429287437349558 l-1.6088920831680298,2.9251623153686523 -2.3533138632774353,2.9789748787879944 l-1.474757343530655,1.49982288479805 -4.136737287044525,3.3343929052352905 l6.613554954528809,-1.0490428656339645 2.581469714641571,-1.3386909663677216 l1.9967882335186005,-0.9264574199914932 -2.6157906651496887,0.47315746545791626 l-1.9936075806617737,-1.3588619232177734 m10.820916891098022,-42.10501670837402 l7.851375341415405,-0.27799978852272034 4.564458131790161,1.0020126402378082 l3.138462007045746,1.815200001001358 0.9594275802373886,1.9172325730323792 l1.7685611546039581,10.126376152038574 0.0013269826013129205,6.803937554359436 l0.0016615657659713179,0.43700549751520157 -0.08069767616689205,-0.3541557863354683 l-0.4954893887042999,-0.3537440299987793 -5.409700870513916,-4.733261903311359e-05 l-7.2988080978393555,-0.0761537253856659 -5.952466726303101,-0.6468867510557175 l-4.7000667452812195,0.1631048507988453 -0.9755431115627289,-0.14725513756275177 l0.11048332788050175,0.22613484412431717 4.144369959831238,5.486496090888977 l2.919711470603943,5.37312388420105 m-8.387747406959534,-21.699986457824707 l-1.3909819722175598,5.3415751457214355 -5.911505818367004,9.748428463935852 l0.0038744325865991414,-1.0694152116775513 m88.13457405660301,-20.529776452563055 l-2.326124608516693,4.475747644901276 -1.2937405705451965,3.620978891849518 l0.08884425275027752,6.776673793792725 0.2799491584300995,9.002886414527893 l-0.8605906367301941,0.9163962304592133 -1.9863063097000122,0.12616300024092197 l-5.293830633163452,-0.8262091875076294 -7.04107403755188,0.05669125355780125 l-5.427475571632385,1.0063312202692032 -3.583401143550873,1.6224667429924011 l0.43484289199113846,1.4475439488887787 3.3630242943763733,3.747679889202118 l3.180758059024811,2.2753706574440002 4.0240344405174255,5.563598275184631 m0.269579254090786,-0.029277079738676548 l3.400481641292572,-0.1697266288101673 9.472041130065918,-3.2978561520576477 l6.7139732837677,-0.4634100943803787 5.175860524177551,-0.7935578376054764 l3.5893189907073975,-1.0793878138065338 1.7869381606578827,-1.0550057888031006 l0.7354939728975296,-0.7020538300275803 1.0408244282007217,-1.3386830687522888 l0.7000919431447983,-0.5730453506112099 2.0421673357486725,-2.3067426681518555 l1.544891893863678,-0.21851526573300362 2.1943752467632294,-0.8770668506622314 l1.308700442314148,0.9732061624526978 m-50.835886001586914,6.042585372924805 l0.0005480154504766688,0.04740616772323847 2.760617434978485,5.480535626411438 l1.0036822408437729,3.320266008377075 0.9270346909761429,7.197278141975403 l5.371116399765015,11.829392910003662 1.3397382199764252,1.9299554824829102 l1.0814760625362396,1.6497676074504852 0.0965187419205904,4.328173995018005 l-1.0287684202194214,3.579113483428955 -4.68662828207016,2.240227907896042 l-2.456713020801544,-0.028767813928425312 -1.550774723291397,-1.0764846950769424 l0.3673853352665901,-2.4401575326919556 1.7490597069263458,-15.733673572540283 l10.372297763824463,-34.383206367492676 m7.758841514587402,-57.47335910797119 l2.0416519045829773,2.1631599962711334 -2.5376862287521362,18.74083399772644 l0.47336772084236145,7.021905779838562 m80.23044251174724,-8.410436886788375 l-2.4923525750637054,3.976123332977295 -1.4732526242733002,3.761536180973053 l-1.1073572933673859,7.272796630859375 -1.163182407617569,3.962397277355194 l-3.062732517719269,2.104814052581787 -1.8088418245315552,-0.7354312390089035 m0.6988148391246796,0.5466398969292641 l-0.46679064631462097,0.25380460545420647 -1.3770650327205658,1.7631301283836365 l-0.7662345468997955,0.37930529564619064 -2.5712931156158447,5.352869033813477 l-1.5353333950042725,4.6302467584609985 -0.2520347759127617,2.238016575574875 l1.0585247725248337,1.724325567483902 13.824372291564941,1.2525208294391632 l7.965070009231567,-1.6710001230239868 3.488500714302063,-1.7339012026786804 l0.7382914423942566,-0.7300037145614624 0.10551081970334053,-0.8869154006242752 l2.2183039784431458,-0.5437248200178146 0.6576536595821381,-3.9915823936462402 l-1.9461999833583832,-1.98540598154068 -10.984766483306885,-5.964138507843018 l-2.720949351787567,0.050373212434351444 -7.709415555000305,-7.644499419257045e-05 l-4.55318421125412,0.33466678112745285 -3.821798264980316,4.751769602298737 l9.653547406196594,7.499047517776489 1.318960040807724,-0.3966277837753296 l12.746639251708984,0.0003295976057415828 4.224042594432831,-1.4998190104961395 l9.090752005577087,-0.6605870276689529 1.687944382429123,0.000288613882730715 l1.266515702009201,-0.40023673325777054 0.5166055262088776,-19.313347339630127 l0.2702469751238823,-4.131700098514557 1.0757332295179367,-1.633594036102295 l-9.664345979690552,0.00036486384487943724 -1.15401953458786,0.8197880536317825 l-1.535804122686386,2.265305072069168 -3.5216766595840454,12.619098424911499 m-4.6507444977760315,6.98589026927948 l-0.9997646510601044,4.646440148353577 -1.1889714002609253,11.698940992355347 l0.7373662292957306,6.952008605003357 1.1075495183467865,11.55972957611084 l-1.1938973516225815,4.004875719547272 m78.54428614547942,-52.88632946134385 l-2.001640349626541,4.684408009052277 -0.19939688965678215,3.6047765612602234 l0.777270719408989,3.9458274841308594 1.851196438074112,2.775091528892517 l0.07517171557992697,3.1460726261138916 -12.483255863189697,12.421469688415527 l-0.862066000699997,0.26273978874087334 -3.2787340879440308,-0.001292896195081994 l-1.2831303477287292,0.4372246563434601 -1.1198029667139053,0.8308599889278412 l-0.0003275700146332383,2.2786925733089447 1.8119238317012787,2.1922414004802704 l4.792993664741516,3.2447603344917297 17.905948162078857,2.4422354996204376 l9.785473346710205,-1.088327169418335 -0.16064278781414032,0.0893243309110403 l-0.8311940729618073,-0.10153819806873798 -4.323403835296631,-0.6150585412979126 l-1.965908706188202,-0.35731710493564606 -0.7548149675130844,0.8555217832326889 m-5.873619914054871,-43.39570999145508 l0.9745216369628906,2.4487748742103577 2.5930255651474,4.382309019565582 l6.280959844589233,14.138238430023193 0.44225379824638367,0.7854825258255005 l2.1812596917152405,1.7475415766239166 3.4764745831489563,2.352093756198883 l6.884662508964539,3.0570414662361145 -0.4846883937716484,0.0006603555812034756 l-0.8714529871940613,0.8045360445976257 -14.906915426254272,-0.4603893309831619 l-5.349671840667725,-2.7729830145835876 1.573188155889511,16.026538610458374 l4.672119319438934,-0.5314509198069572 8.396302461624146,0.0006474285328295082 l0.7146769016981125,-1.2577596306800842 -0.4284482076764107,-3.941725492477417 l-12.774580717086792,-36.054089069366455 0.015969766536727548,8.963714241981506 l0.3000004030764103,3.866073489189148 -1.7932052910327911,1.2769672274589539 l2.7663031220436096,6.704574227333069 1.255582869052887,2.6778006553649902 l0.7850688695907593,6.645863056182861 -3.0391299724578857,17.871536016464233 m62.41578583514638,-37.67879083430671 l-2.8061193227767944,4.06070351600647 -0.9451813995838165,3.515118658542633 l-0.5158151686191559,1.6982966661453247 -3.1469714641571045,9.337613582611084 l-1.3112753629684448,5.727368593215942 -2.1363504230976105,1.0746075212955475 l0.9974397718906403,-0.4001925140619278 3.1841638684272766,-0.0002237204353150446 l2.1869322657585144,0.12660802341997623 -5.849736332893372,0.0020441705419216305 l-5.431699156761169,-1.7343142628669739 m15.126453638076782,-18.934125900268555 l-2.992839813232422,3.8100722432136536 -1.1945737898349762,9.911129474639893 l1.4499816298484802,6.338382959365845 4.220181405544281,7.6209622621536255 l1.2910768389701843,3.3880165219306946 0.9158249199390411,1.4871631562709808 l2.2077524662017822,1.464066207408905 6.746488809585571,1.8600277602672577 l2.5211936235427856,0.3963804617524147 -1.3972815871238708,-0.0010299815039616078 l5.899389982223511,-3.54017436504364 0.8016867190599442,-2.639799118041992 l0.3684721514582634,-3.5730713605880737 0.19388753920793533,-1.9820557534694672 l0.38571350276470184,-1.638963371515274 0.8418945968151093,-6.020234227180481 l-1.6254973411560059,-4.973762929439545 -0.7004794478416443,-0.9653326123952866 l0.2458421140909195,0.40280982851982117 -31.228370666503906,4.891156256198883 l2.6142001152038574,-2.3616190254688263 2.1505823731422424,-6.248021721839905 l-6.472000479698181,-22.151498794555664 4.291619956493378,-1.1172658205032349 l9.221314191818237,-1.6060873866081238 11.266717910766602,-0.0014354866289068013 l9.595988988876343,3.730909526348114 1.0956937074661255,0.7320891320705414 l-3.843211531639099,-3.64172101020813 -0.6118566542863846,-2.199918031692505 l1.5086008608341217,-1.2162073701620102 7.880262732505798,1.8656831979751587 l-0.0010002316412283108,18.157739639282227 m7.519502639770508,21.212341785430908 l9.097008109092712,-1.3023154437541962 0.8363254368305206,2.263384461402893 m74.79129924522567,-46.420202256508674 l-2.43762269616127,4.516460299491882 -0.9946989268064499,2.108745276927948 l-0.7038109749555588,4.8070162534713745 1.795106679201126,3.2517898082733154 l-13.273242712020874,7.0197755098342896 1.0485370457172394,-0.8701277524232864 l-5.738874673843384,4.073717892169952 0.0003649661084637046,3.67906391620636 l1.4006252586841583,-0.7852277159690857 0.5787897109985352,-5.569868790189503e-05 l2.5679856538772583,1.4868077635765076 0.8834026753902435,-0.00017651655070949346 l5.195867419242859,-0.3151914104819298 9.06259834766388,-0.00029266002457006834 l1.7392782866954803,3.4967973828315735 1.3094691932201385,3.0079641938209534 l0.0716555817052722,3.8404786586761475 -2.682623863220215,6.0511314868927 l0.19355960190296173,-0.8955139666795731 1.0974793136119843,-0.4450906068086624 m-34.04937267303467,-43.085222244262695 l12.331030368804932,-0.6710606068372726 5.619947910308838,1.3864634931087494 l-26.76137924194336,8.980492353439331 5.297802686691284,5.376080870628357 l3.09150367975235,3.5614681243896484 0.49170345067977905,1.000715047121048 l0.2922278270125389,5.451837182044983 -1.1568085849285126,2.1384315192699432 l-7.688004970550537,8.97620439529419 -5.0578343868255615,3.374408185482025 l-2.355196326971054,1.0782448202371597 0.5590179562568665,0.586441196501255 l1.4534345269203186,1.4683271944522858 19.722880125045776,2.815485894680023 l-0.31868696212768555,13.738664388656616 -0.3383784741163254,1.4179478585720062 l-23.678882122039795,1.3275264203548431 -0.14643216505646706,-0.41673436760902405 l2.8883984684944153,2.673901319503784 m2.0810121297836304,-4.722568690776825 l7.170370817184448,0.0007846389053156599 15.342751741409302,-0.8230089396238327 l5.629794001579285,-2.207496166229248 " fill="none" stroke="black" stroke-width="1" /></svg>