<?xml version="1.0" encoding="utf-8" ?>
<svg baseProfile="full" height="104.43662751466036" version="1.1" width="115.10258495807648" xmlns="http://www.w3.org/2000/svg" xmlns:ev="http://www.w3.org/2001/xml-events" xmlns:xlink="http://www.w3.org/1999/xlink"><defs /><rect fill="white" height="104.43662751466036" width="115.10258495807648" x="0" y="0" /><path d="M58.70844818651676,25.60373144224286 m-2.5155559182167053,4.226133823394775 l-1.1068445444107056,3.7230226397514343 -0.7043556123971939,8.955378532409668 l0.0,4.528000354766846 -0.5031111836433411,0.30186669901013374 l-1.0062223672866821,-0.40248893201351166 -2.716800272464752,1.0062223672866821 l-8.955378532409668,4.930489361286163 -8.049778938293457,4.930489361286163 l-4.427378177642822,2.0124447345733643 -3.7230226397514343,2.213689088821411 l0.5031111836433411,0.30186669901013374 3.11928927898407,0.0 l2.918044626712799,0.6037333980202675 7.345423102378845,0.0 l7.043556571006775,-1.3080890476703644 2.6161780953407288,-0.20124446600675583 l2.716800272464752,-0.7043556123971939 2.6161780953407288,-0.20124446600675583 l0.30186669901013374,0.5031111836433411 -0.10062223300337791,2.8174224495887756 l-1.8112002313137054,8.552889823913574 m6.942933797836304,-47.09120273590088 l0.5031111836433411,-0.30186669901013374 0.6037333980202675,0.10062223300337791 l1.5093335509300232,0.9056001156568527 1.8112002313137054,3.3205336332321167 l0.5031111836433411,2.213689088821411 1.0062223672866821,9.760356545448303 l0.0,4.82986718416214 1.8112002313137054,0.40248893201351166 l4.226133823394775,1.71057790517807 6.641067266464233,1.8112002313137054 l3.622400462627411,0.7043556123971939 8.653512001037598,0.6037333980202675 l-2.41493359208107,0.30186669901013374 -5.031111836433411,2.0124447345733643 l-9.96160089969635,1.4087112247943878 -10.464712381362915,2.8174224495887756 l0.40248893201351166,0.8049778640270233 0.30186669901013374,17.10577964782715 l0.30186669901013374,3.2199114561080933 m-10.464712381362915,-10.263468027114868 l-0.30186669901013374,0.8049778640270233 -0.10062223300337791,9.860978722572327 " fill="none" stroke="black" stroke-width="1" /></svg>