<?xml version="1.0" encoding="utf-8" ?>
<svg baseProfile="full" height="91.10003605484962" version="1.1" width="822.2485704696919" xmlns="http://www.w3.org/2000/svg" xmlns:ev="http://www.w3.org/2001/xml-events" xmlns:xlink="http://www.w3.org/1999/xlink"><defs /><rect fill="white" height="91.10003605484962" width="822.2485704696919" x="0" y="0" /><path d="M25,25 m0.0,0.0 m33.2165592815727,24.356294230092317 l-2.1596820652484894,-0.17305510118603706 -0.7098828256130219,-1.3563419878482819 l0.12749099172651768,-0.6339527666568756 0.6186594069004059,-0.5238579958677292 l0.8651873469352722,-0.1113184355199337 1.1476237326860428,0.460454598069191 l0.9748641401529312,1.2416456639766693 -0.0895940326154232,1.3575144112110138 l-0.860188752412796,0.8350756019353867 -0.8224872499704361,0.4153610020875931 l-0.6538743525743484,0.3229505196213722 -0.7504931837320328,0.6113463267683983 l-0.8976276218891144,1.6730868816375732 0.15523826703429222,2.4610915780067444 l0.9557768702507019,1.8474587798118591 1.1099933087825775,0.878385528922081 l1.8188530206680298,0.4186704382300377 1.9615209102630615,-0.44552773237228394 l1.092512086033821,-0.9675996005535126 0.8216513693332672,-1.9149579107761383 l0.14982139691710472,-1.7141906917095184 -0.956113189458847,-3.2497531175613403 l-0.8121130615472794,-1.4876489341259003 -0.808846578001976,-0.7084850966930389 l-1.0403837263584137,-0.29578812420368195 -1.1457102000713348,0.41545040905475616 l-0.6620737910270691,0.9760130196809769 m5.109238028526306,0.8984941244125366 l1.180940717458725,-0.8347994834184647 1.677500158548355,-0.6473507732152939 l1.6994479298591614,-0.203531626611948 1.274532675743103,0.32012104988098145 l1.2620511651039124,1.2159334123134613 0.823688879609108,2.304861694574356 l-0.02419412136077881,2.6406174898147583 -0.6021881476044655,1.2996450066566467 l-1.510084867477417,1.2139085680246353 -2.3567916452884674,0.6683309376239777 l-2.7755898237228394,-0.2136273868381977 -0.7976523041725159,-0.659174844622612 m-3.5815027356147766,-8.189776539802551 l0.32348353415727615,-0.9514277428388596 0.8498446643352509,-0.7906308025121689 l1.3792680203914642,-0.5437221750617027 1.4052295684814453,0.04640655126422644 l1.7194309830665588,1.0468193143606186 1.554507464170456,2.446584403514862 l0.43818701058626175,1.8125107884407043 -0.225315410643816,2.6163670420646667 l-0.6992089748382568,1.3456101715564728 -1.7007026076316833,1.4289209246635437 l-1.4927001297473907,0.4598350077867508 -2.1920794248580933,-0.09597722440958023 l-0.7562088221311569,-0.5740346387028694 -0.7160354405641556,-1.611715853214264 l-0.03298261435702443,-1.8521565198898315 m1.465926319360733,-6.294772028923035 l0.5472907051444054,-3.8751527667045593 0.9713693708181381,-1.9533365964889526 l1.34719118475914,-1.1870341747999191 1.3979466259479523,-0.4019862785935402 l1.737629771232605,0.33659677952528 0.8698104321956635,1.0839004069566727 l0.4135100543498993,2.280009239912033 -0.4857225716114044,1.4140141010284424 l-1.5373426675796509,1.6609375178813934 m-5.55063784122467,-0.37280287593603134 l-2.67771452665329,-3.258764147758484 m4.617776870727539,2.334752678871155 l0.7677881419658661,-2.700742781162262 1.2469525635242462,-1.6471925377845764 l1.2388933449983597,-0.6743333488702774 m-5.8868008852005005,3.5152238607406616 l-1.4995603263378143,-2.309025079011917 -1.2094220519065857,-1.3946165144443512 m86.08016714062614,4.2894128369152895 l-2.1440276503562927,-0.16734832897782326 -0.6846217066049576,-1.380840390920639 l0.14048714190721512,-0.7029701769351959 0.9618405997753143,-0.8426853269338608 l1.0546700656414032,-0.29153671115636826 1.0782331973314285,0.3143688291311264 l0.9098636358976364,0.9946753084659576 0.322374626994133,1.1058880388736725 l0.00013357361240196042,2.502892315387726 -0.8230146020650864,1.3133521378040314 l-0.7259877026081085,0.7130162417888641 -0.7901116460561752,0.16738714650273323 l0.09410123340785503,-0.00010501265933271497 1.2514010071754456,-0.02334492513909936 l0.9827708452939987,0.5156679823994637 0.4154021292924881,1.1142107844352722 l-0.1298221666365862,1.486702412366867 -0.2483598329126835,1.6953711211681366 l-0.6310588121414185,1.8683648109436035 -0.6555484980344772,1.3011279702186584 l-1.0723315924406052,1.1739440262317657 -0.2202977053821087,0.0004189283572486602 l0.18534690141677856,-0.7272248715162277 1.3205446302890778,-3.818836212158203 l0.7950344681739807,-2.4984557926654816 0.8692828565835953,-1.2304022908210754 l0.874021127820015,-0.4464634507894516 0.5828118324279785,0.09284298866987228 l0.3435318171977997,1.0108833760023117 m-0.6414346396923065,0.2407996915280819 l2.0168428122997284,-0.19471602514386177 2.025115042924881,-1.2185607105493546 l1.5845942497253418,-1.213740035891533 1.3338008522987366,-1.242220550775528 l1.407695859670639,-1.964099258184433 0.5585048347711563,-1.0294178128242493 l0.31228216364979744,0.736544206738472 -0.47927845269441605,3.5264283418655396 l-0.7161418348550797,1.9700337946414948 -2.110503613948822,2.6814931631088257 l-2.5442588329315186,1.798284649848938 -2.9107385873794556,1.0309402644634247 l-1.6398915648460388,0.23748626932501793 m-3.128071427345276,-6.699450612068176 l-2.8882071375846863,-1.0321582853794098 -3.3848652243614197,-2.312740832567215 l-1.1847314983606339,-1.3176767528057098 -0.652189627289772,-0.5620706081390381 l-0.6664183735847473,-0.22515784949064255 -0.8933388441801071,0.2774907648563385 l-0.9287571907043457,1.1386827379465103 -0.9278184920549393,2.7129068970680237 l-0.012680267682299018,2.006014436483383 0.6736597418785095,1.9080668687820435 l2.0120783150196075,2.6017960906028748 1.7799186706542969,1.192658394575119 l2.820150852203369,0.7371336221694946 3.2237517833709717,4.101020749658346e-05 l1.8194708228111267,-0.6571759283542633 m-1.2398327142000198,-9.791064858436584 l-0.18945448100566864,-1.4163634181022644 0.5897486209869385,-1.2722127139568329 l1.1587969213724136,-0.973636582493782 1.2773677706718445,-0.3693944588303566 l1.0949385911226273,0.25367941707372665 0.72525754570961,0.7127674669027328 l0.5339247733354568,1.5703241527080536 -0.1450448576360941,1.1206207424402237 l-1.0376876592636108,1.2529976665973663 -1.1245635896921158,0.57928167283535 m-3.5350462794303894,-1.3311859965324402 l0.5022481828927994,-2.211228758096695 m1.9369126856327057,1.3948242366313934 l0.5749160423874855,-3.03909569978714 m0.1534651406109333,3.214830756187439 l0.961332693696022,-1.8519227206707 1.3070471584796906,-1.2598510086536407 m75.83483435231756,11.73027430628963 l-2.1589599549770355,-0.15968844294548035 -0.792199969291687,-1.3309429585933685 l0.2808559127151966,-1.1574318259954453 0.000890136871021241,-0.9907971322536469 l0.39882611483335495,-0.464712455868721 0.6032426282763481,0.16846876591444016 l1.4515122771263123,2.005498558282852 0.33224187791347504,1.5117737650871277 l0.0005072327257948928,1.7954924702644348 -0.36194514483213425,1.8953970074653625 l-0.9015363454818726,2.8436076641082764 -0.4927488788962364,0.643303394317627 l0.47978755086660385,-0.0002641759238031227 1.384282261133194,-0.5660801008343697 l1.0080529004335403,-0.4697069898247719 1.3342200219631195,-0.6008017063140869 l0.46711426228284836,-0.3589420020580292 -0.06924939807504416,-0.6935490667819977 l-2.0725217461586,-2.1836847066879272 -0.6332605332136154,-1.4228738844394684 l-0.10474090464413166,-1.8230132758617401 0.6946375221014023,-1.055910587310791 l2.8898125886917114,-1.9093088805675507 1.7066662013530731,-0.2535715140402317 l1.1541634052991867,0.4157198593020439 0.9816420823335648,1.051931083202362 l1.2007086724042892,2.6758769154548645 0.25882428511977196,1.612882912158966 l-0.3904269263148308,1.9448551535606384 -1.32262721657753,1.4368851482868195 l-2.160288989543915,1.188126727938652 -2.4979254603385925,0.4182495176792145 m-2.3991498351097107,-10.30237078666687 l0.20987169817090034,-0.5082564428448677 1.248445212841034,-3.008265197277069 l1.7656546831130981,-0.738760456442833 1.9814954698085785,-0.03606382058933377 l1.4112526178359985,0.6709759682416916 1.4975519478321075,1.7814052104949951 l0.39864707738161087,1.3967405259609222 0.025080437771975994,1.2635710835456848 l-0.847485288977623,1.676623672246933 -1.8420450389385223,1.541827917098999 l-1.5228088200092316,0.6130298227071762 -1.068132072687149,-2.402146037638886e-05 m-3.4065166115760803,-5.36920428276062 l-1.4314068853855133,0.00045507065806305036 -1.4113351702690125,0.17155542969703674 l-2.2602149844169617,1.1561355739831924 -1.8399535119533539,2.39072248339653 l-0.5976882576942444,2.186000347137451 0.06629986688494682,1.5754182636737823 l0.7411681860685349,1.3211987912654877 1.1801441758871078,1.1277806013822556 l2.2403699159622192,1.1550861597061157 3.082144558429718,0.3855966776609421 l1.4155122637748718,-0.6848490983247757 1.0095179080963135,-1.173202022910118 l1.0789541155099869,-2.4479587376117706 0.4237320274114609,-2.7843865752220154 l-0.2270744927227497,-1.2736499309539795 m-3.262186646461487,-5.036969780921936 l1.123717576265335,-3.5403427481651306 1.5060427784919739,-2.2760674357414246 l1.2351314723491669,-1.0807543247938156 m-3.6986419558525085,5.4843151569366455 l-0.7808010280132294,-2.127775400876999 -0.8798113465309143,-1.6879408061504364 l-1.2118219584226608,-1.4008383452892303 -1.601148545742035,-1.292116940021515 m5.5007994174957275,7.6143211126327515 l0.10518297553062439,-0.8685411512851715 1.5199799835681915,-2.438034415245056 l2.2006382048130035,-2.086765170097351 1.7179098725318909,-0.7882091403007507 m-5.961228609085083,-0.44942088425159454 l2.4287354946136475,-0.9449676424264908 m78.97747113544028,8.040330622541205 l-2.2726550698280334,-0.20057452842593193 -0.8326998353004456,-1.4603087306022644 l0.07785565685480833,-1.3370418548583984 0.4009506106376648,-0.6733173131942749 l1.126387119293213,-0.2679642103612423 0.4999374598264694,-0.0004144255581195466 l0.46784717589616776,0.6832931190729141 -0.3917204588651657,2.5379791855812073 l-0.27041297405958176,1.9891689717769623 0.05348986480385065,1.3723111152648926 l1.8292202055454254,0.8571773767471313 -1.0753246396780014,1.8343308568000793 l-0.8283989131450653,0.8904794603586197 -0.47438740730285645,0.8067676424980164 l-0.030189654789865017,0.28566617518663406 0.6882613897323608,0.0954961683601141 l1.8364153802394867,-0.27307765558362007 1.8419434130191803,-1.167769879102707 l0.657881423830986,-0.6354111433029175 0.49754682928323746,-1.9646255671977997 l-0.7761377096176147,-3.840135335922241 -0.2800113335251808,-1.4121855795383453 l-0.0960030872374773,-0.14923827722668648 0.004234122461639345,0.4908725619316101 l0.3926980122923851,1.6822095215320587 -0.17171960324048996,2.5532644987106323 m-0.37272945046424866,1.1881767958402634 l1.3633337616920471,-0.00076531563536264 0.9456732124090195,0.00038031008443795145 l0.9565456956624985,0.5144935846328735 0.4121934249997139,0.6152709573507309 l0.018000315176323056,1.7619399726390839 -0.36555103957653046,2.6989182829856873 l-0.4897383600473404,1.2650790810585022 -0.8059211075305939,0.8543156087398529 l-2.5476399064064026,1.40593022108078 -1.657179743051529,0.6117867305874825 l-3.235355019569397,0.8395204693078995 -0.7460743933916092,-0.37891071289777756 l-0.17206253483891487,-0.7808901369571686 m6.809537410736084,-0.2122616022825241 l1.7154182493686676,-0.21390797570347786 1.0816153138875961,-0.34508276730775833 l0.6047768518328667,-0.6087849289178848 1.4782774448394775,-3.1144320964813232 l0.37379302084445953,-0.8383594453334808 0.7673602551221848,-4.670519232749939 l-0.3715985640883446,-2.31679767370224 -0.5756036937236786,-1.6149386763572693 l-1.1386264860630035,-1.2433915585279465 -1.929013580083847,-0.949234664440155 l-2.7303552627563477,0.5883774161338806 m-8.039063215255737,2.9164689779281616 l-2.831535041332245,-3.351595401763916 -2.2823256254196167,-2.624649405479431 l-1.0329312831163406,-1.539103388786316 -0.7163690030574799,-1.651669293642044 l0.06300068460404873,-0.5198380351066589 1.1003320664167404,-0.18571598455309868 l1.1944988369941711,-0.02342197811231017 1.512097716331482,0.48451829701662064 l1.3218651711940765,1.1418616771697998 1.1726215481758118,2.098223716020584 m6.032325029373169,2.556917369365692 l0.8729753643274307,-3.0497175455093384 0.5713218450546265,-0.8691533654928207 l1.2865377962589264,-0.5969075113534927 0.4618891701102257,0.9966745972633362 l-0.09789801202714443,2.0866431295871735 -0.8489116281270981,2.1127820014953613 m-10.047270059585571,-4.340399503707886 l0.0015145585348363966,0.0017712957924231887 m3.8936740159988403,-0.9134368598461151 l0.0031032448168843985,-0.001990165183087811 m76.81981113772054,8.705229813048163 l-2.2399312257766724,-0.19868992269039154 -0.7722390443086624,-1.5039771795272827 l0.06353931501507759,-0.6099605187773705 1.1678385734558105,-0.6079211086034775 l1.5257373452186584,-0.23621920496225357 0.8380723744630814,0.5512044578790665 l0.6287049502134323,1.8713892996311188 -0.4500797763466835,0.8679111301898956 l-2.166573256254196,1.2391214072704315 -0.5524306744337082,0.6688138842582703 l-0.23835819214582443,1.2304896116256714 0.6169715896248817,1.6245274245738983 l0.7197409123182297,1.0145701467990875 1.252063661813736,1.0249228030443192 l1.4655937254428864,0.0002650821625138633 0.6473880261182785,-1.6232214868068695 l0.04526179749518633,-1.9087062776088715 -0.943504199385643,-1.4806786179542542 l-0.9752796590328217,-0.3242265060544014 -0.761701837182045,1.5830602251298842e-05 l-0.5034336075186729,0.41723456233739853 0.2564752474427223,1.6491398215293884 l0.8452830463647842,1.941642314195633 0.8683601766824722,1.0664912313222885 l0.5443757027387619,0.8361826092004776 1.2211918830871582,-0.9253725409507751 l0.23657241836190224,-4.386669099330902 m-3.882216215133667,2.9192692041397095 l-0.0011768940748879686,0.9125805646181107 0.12929433956742287,1.792490929365158 l1.8710052967071533,2.707779109477997 2.1994587779045105,1.5041863918304443 l1.8274591863155365,0.41312020272016525 1.7028561234474182,-0.03885149257257581 l0.4800919443368912,-0.5695907026529312 0.34113045781850815,-1.5359315276145935 l-0.27277568355202675,-2.695138454437256 -2.6995792984962463,-2.8895094990730286 l-1.6202780604362488,-2.5980356335639954 -0.680491253733635,-0.7076598703861237 l-1.4462529122829437,-0.40693584829568863 -0.18507031723856926,0.34641001373529434 m0.48386212438344955,1.0082949697971344 l-1.3303185999393463,-1.5527112782001495 -0.3137942776083946,-1.8387404084205627 l1.1162913590669632,-2.5129899382591248 0.9727952629327774,-0.6808473914861679 l2.1921101212501526,-0.14214638620615005 m-0.03051115432754159,0.7793495804071426 l2.493096888065338,-2.309987097978592 2.1195848286151886,-0.6776929646730423 l2.008180022239685,0.1588173769414425 1.1385202407836914,2.8684833645820618 l-0.222405306994915,2.1310414373874664 -1.4077961444854736,1.2268783152103424 l-1.941787302494049,0.9587252140045166 1.3534294068813324,0.6205156445503235 l1.9446951150894165,1.154969334602356 1.4328847825527191,1.6797560453414917 l0.9861306101083755,3.82839173078537 -1.0483691841363907,0.6640375405550003 l-1.5853451192378998,1.0249417275190353 -3.5692134499549866,0.5045948177576065 l-3.4997543692588806,-0.001153259290731512 -0.7274851202964783,-0.40383853018283844 l-0.735076293349266,-0.9481275081634521 -0.06444802973419428,-1.1458051204681396 m-0.8267508447170258,-8.890155553817749 l-1.0580376535654068,-0.32933004200458527 m0.8990173041820526,0.3918500617146492 l-0.3774373233318329,-2.9472848773002625 m2.700175642967224,0.7346715778112411 l-1.126028522849083,-1.8940284848213196 0.2140374295413494,-1.7311693727970123 l1.9591225683689117,-2.6730847358703613 m71.63273401813058,5.634677354355517 l-2.3349063098430634,0.0844269897788763 -0.6790631264448166,-1.6429148614406586 l0.759127140045166,-1.944984644651413 0.9996810555458069,-0.3768245130777359 l0.6654214113950729,0.22516654804348946 -0.01911966479383409,0.5031147226691246 l-0.22354492917656898,1.0681968927383423 -0.41333600878715515,0.9304971992969513 l-1.3155868649482727,3.0922454595565796 -0.46981170773506165,2.8337693214416504 l1.167503148317337,0.39757635444402695 -0.6221681833267212,0.30246464535593987 l0.2871447429060936,0.09230735711753368 0.18886150792241096,-0.0378853315487504 l0.7079576700925827,-0.5371055006980896 0.741434320807457,-0.7398899644613266 l0.9240569174289703,-0.827726349234581 0.2234874852001667,-1.0858980566263199 l-0.993310809135437,-0.10952230542898178 -0.28841467574238777,0.25921400636434555 l-0.0013303168816491961,-1.4275844395160675 0.8133796602487564,-3.151494562625885 l2.3735783994197845,-1.571439504623413 m-3.6498814821243286,2.6240313053131104 l-0.41560206562280655,0.7448095083236694 -0.19942792132496834,-0.12891159392893314 l-0.23160241544246674,-0.2027917467057705 -1.1031880974769592,0.1395949348807335 l-0.0002046587542281486,2.5244107842445374 1.118149608373642,10.208816528320312 l1.038576364517212,2.7699321508407593 1.8874303996562958,2.53305584192276 l1.145782545208931,1.0877775400877 1.3870561122894287,0.34843143075704575 l2.852807343006134,-0.11676651425659657 1.8355582654476166,-1.0876990109682083 l1.8843308091163635,-2.272734194993973 0.4736543819308281,-1.725611388683319 l0.060108378529548645,-3.863958418369293 -0.6915973126888275,-2.2216857969760895 l-0.6783672422170639,-1.5374960005283356 -2.1724963188171387,-2.5131648778915405 l-2.8232142329216003,-1.8126405775547028 -4.191984832286835,-0.8749664574861526 m7.123122811317444,3.5584670305252075 l0.0009232526645064354,0.04224540200084448 0.13547335751354694,-0.09092491120100021 l0.5595900118350983,-1.248336210846901 1.612827628850937,-4.475579857826233 l0.8851767331361771,-1.6382521390914917 1.7192855477333069,-1.75604447722435 l2.585042715072632,-1.8522381782531738 2.442367970943451,-1.1464493721723557 l0.6375786662101746,0.13796718791127205 2.3564064502716064,1.119912937283516 l0.15967685729265213,0.6729745119810104 -1.2039927393198013,2.505943179130554 l-1.125793606042862,1.0841946303844452 -2.007651776075363,1.7003156244754791 l-2.865459620952606,1.4241009950637817 0.0013742588635068387,2.1953587234020233 m-8.060659766197205,0.7703173160552979 l-0.5272253602743149,-0.037178811617195606 0.00677869189530611,0.7103726267814636 l0.44111981987953186,0.8656074851751328 m3.2274845242500305,-2.4031533300876617 l-0.7388803362846375,-0.09883874095976353 -0.2878822572529316,-0.10527756996452808 m0.7545047998428345,4.201540946960449 l0.6157584860920906,-1.0744427889585495 1.3864584267139435,-2.2763387858867645 l1.43325537443161,-2.93205589056015 m-4.977664053440094,7.6098936796188354 l1.295301616191864,-1.6529706120491028 0.8478949964046478,-1.4703330397605896 m78.87650415315875,-1.1147910107683856 l-2.040807455778122,-0.08514639921486378 -0.606653019785881,-1.3187393546104431 l0.8688557893037796,-0.9758888185024261 0.19507091492414474,0.4388889670372009 l0.49456875771284103,0.7408132404088974 0.3554527088999748,0.7680483907461166 l0.9603280574083328,1.359523981809616 -0.616505891084671,-3.7732475996017456 l0.7744245231151581,-0.2996429242193699 0.14726899564266205,2.6326116919517517 l1.1794683337211609,-1.2462125718593597 0.11463244445621967,-0.606699027121067 l-0.5819370225071907,-0.6914608180522919 -0.6667597591876984,0.3058268129825592 l0.028232389595359564,2.4058908224105835 1.1943848431110382,3.236756920814514 l0.5211605876684189,0.7806996256113052 1.5063422918319702,0.0007293133239727467 l1.166619285941124,-0.709470734000206 1.3687962293624878,-1.3355830311775208 l-0.22197522222995758,-2.851816415786743 0.1566079817712307,-0.31043192371726036 l1.4052766561508179,0.23474324494600296 0.7892494648694992,0.37949781864881516 m0.003334613284096122,0.0074855738785117865 l0.3372258320450783,2.0980679988861084 -0.012424910673871636,4.853181838989258 l0.025579058565199375,4.210869371891022 0.19072281196713448,0.9962968528270721 l1.2241706252098083,1.8911491334438324 0.8441548049449921,1.1331939697265625 l0.2582646906375885,0.6987559795379639 -0.32662808895111084,0.1851906068623066 l-1.8070591986179352,-0.18063947558403015 -3.985465168952942,-3.1604576110839844 l-2.759394347667694,-2.9676833748817444 0.2521580830216408,-0.7097098976373672 l0.7067161798477173,-1.1554104089736938 0.28060076758265495,-0.008404275286011398 l-0.7664908468723297,2.937426269054413 -1.577724665403366,-3.4558796882629395 l0.001058770576491952,0.8497663587331772 1.1158209294080734,0.7896514236927032 l1.8313631415367126,0.031230337917804718 0.45683540403842926,0.10428860783576965 l-0.1535324938595295,-0.08737313561141491 m-12.932037115097046,-8.78610908985138 l3.091917932033539,-3.2288742065429688 1.2790155410766602,-0.5463793873786926 l0.38668137043714523,0.203373022377491 1.251348853111267,2.0256206393241882 l-0.8808183670043945,0.2786845527589321 m7.0517271757125854,2.8419670462608337 l2.1085233986377716,-2.8976482152938843 1.0359296202659607,-0.9914955496788025 l-0.0027133990079164505,0.4739871248602867 0.16184678301215172,0.8097848296165466 l-0.4012998938560486,0.539269708096981 -0.9405425190925598,0.9011390060186386 l-0.2603453956544399,0.22335756570100784 -1.6138440370559692,-0.07865783758461475 m-1.7170903086662292,-1.7001770436763763 l-0.9722311794757843,-1.5856260061264038 -1.383497267961502,-0.26648206636309624 l-1.0253069549798965,-1.2693987786769867 -0.45944545418024063,-0.939924493432045 l0.3820708766579628,-0.2669796720147133 2.1477170288562775,0.03617184003815055 l3.034479320049286,-0.5436268076300621 m1.8233822286128998,14.218447208404541 l3.2767254114151,-5.62059760093689 m-8.462005853652954,-11.756004095077515 l-2.999317944049835,-1.8942411243915558 -0.0005446272189146839,-0.8457001298666 m5.9124791622161865,4.357605874538422 l0.00673838600050658,-0.0027965137269347906 -0.5156248435378075,-0.1160795334726572 m75.66876432621939,3.308897774477373 l-2.3357127606868744,-0.12349140830338001 -1.07706218957901,-1.1663325130939484 l0.16324352473020554,-1.3167503476142883 0.6807223707437515,-0.32272718846797943 l1.0293398052453995,0.038998331874608994 1.48639976978302,0.2706323191523552 l0.9488943964242935,0.46198267489671707 -0.0007339848525589332,3.601835072040558 l0.12440672144293785,0.02563174581155181 0.347956083714962,-0.8366488665342331 l0.5097141116857529,-0.5676963552832603 0.5301298946142197,-0.3222467005252838 l1.1224837601184845,-0.6609217077493668 0.47575999051332474,0.07518759928643703 l0.6754647940397263,1.4346085488796234 1.211714744567871,1.1500047147274017 l-1.2483564019203186,0.0007350221130764112 -0.8791381865739822,-1.9966375827789307 l0.3732525557279587,-4.5735713839530945 1.0910405963659286,-1.400444656610489 l3.813074827194214,0.22348791360855103 0.3311164677143097,0.12487309984862804 l0.8220972120761871,1.754155457019806 -0.5624527111649513,2.6407217979431152 l-1.9297686219215393,2.413027435541153 -1.338237226009369,0.6334360688924789 l-0.5071799829602242,0.024219455663114786 m-0.18794894218444824,-0.0021670850401278585 l-0.08479234762489796,-0.33309854567050934 0.5755211785435677,-0.6773031502962112 l0.3348153829574585,0.8316057175397873 4.980647563934326,7.9115378856658936 l1.5098346769809723,3.2493725419044495 -0.057847476564347744,3.1710028648376465 l-0.40842778980731964,1.9973857700824738 -0.6369496881961823,2.600893974304199 l-1.330617368221283,1.1209383606910706 -5.135610103607178,1.020975187420845 l-7.198776006698608,-2.863256335258484 -3.3234450221061707,-1.5798135101795197 l-1.2678977847099304,-0.9536053240299225 -0.7301399111747742,-0.6351735442876816 l-0.39693672209978104,-1.1595027893781662 0.4777069762349129,-4.609557390213013 m0.4815647378563881,-0.6350542604923248 l0.07435475010424852,-0.9197895973920822 1.408972442150116,-4.834408164024353 l1.468062400817871,-4.703767895698547 0.4736235737800598,-2.2680802643299103 l0.5625412240624428,-1.784798800945282 3.9220160245895386,-1.0758034139871597 l2.427459955215454,0.5661031603813171 0.5148809030652046,1.1014129966497421 l1.030193716287613,2.5513139367103577 0.3802764415740967,2.5524604320526123 l-1.2122992426156998,-1.1383522301912308 -3.666814863681793,-1.2432242929935455 l0.0012553292617667466,-1.1683963239192963 0.6096801534295082,-0.6001352518796921 l0.9964926540851593,-0.29724473133683205 m1.1184000223875046,-0.9932805597782135 l-0.06952535826712847,-0.7159226387739182 -2.2306764125823975,-5.039178133010864 l-1.990155428647995,0.6243416294455528 -1.7414268851280212,0.7067148387432098 l0.0014346309762913734,1.4129191637039185 1.7195780575275421,2.149590849876404 m-2.8959089517593384,9.821332097053528 l0.0015379262913484126,0.0041804302600212395 m-3.4577080607414246,-2.4536338448524475 l-0.7868336886167526,-6.826174855232239 0.9280998259782791,-2.442225068807602 l2.1259404718875885,-0.9071109443902969 1.701831966638565,0.6910856068134308 l0.970301553606987,1.5812981128692627 m0.1320414710789919,0.5452795699238777 l0.8040580153465271,-0.3424013778567314 m79.0497339637659,6.75459664358641 l-2.162728011608124,-0.2138095535337925 -0.9755608439445496,-1.3464146852493286 l1.2114784866571426,-3.45997154712677 0.9695297479629517,-1.0645851492881775 l1.0123182088136673,-0.355956107378006 0.9941493719816208,0.7010853290557861 l0.8927576243877411,0.8307705819606781 0.977490171790123,2.457563579082489 l0.889800637960434,3.839590847492218 1.4238657057285309,0.1071617379784584 l0.0013356660201679915,-0.8467871695756912 -2.0568764209747314,0.23059668019413948 l-2.256578356027603,1.4703713357448578 -0.4901478812098503,2.442377507686615 l0.2614290826022625,0.7760732620954514 2.313425838947296,1.1856874078512192 m-0.9892933815717697,-4.659022092819214 l3.951294422149658,0.998896136879921 2.9359570145606995,0.20447347313165665 l2.455112785100937,-1.2076162546873093 0.8825349807739258,-2.1745745837688446 l0.6495711207389832,-1.725696325302124 0.03734269179403782,-0.9923560172319412 l-1.4253151416778564,-1.0741576552391052 -2.3895955085754395,-0.6350310146808624 l-1.7749881744384766,0.04627340007573366 -3.825097680091858,-3.0531084537506104 l-1.404445767402649,-1.0883209854364395 -2.0998290181159973,-0.29028119519352913 l-0.9030661731958389,-0.07052830886095762 -0.33886753022670746,0.4104234278202057 l0.23391202092170715,0.5281341075897217 0.360582172870636,1.355167031288147 l1.8854182958602905,2.8862646222114563 1.5469148755073547,1.016598865389824 m1.395060271024704,13.833805322647095 l-0.002934603253379464,-1.9132408499717712 -1.3666653633117676,-2.3133713006973267 l-1.622176319360733,-2.2224287688732147 0.5632831528782845,1.0852735489606857 l-0.65800741314888,2.8619039058685303 0.0007669009937671944,4.23593670129776 l0.7396997511386871,3.18501740694046 0.010533928871154785,-0.4998364672064781 l1.7823673784732819,-5.489819049835205 1.1742223799228668,-1.4765812456607819 l0.5836659669876099,0.0009937476716004312 0.41689682751893997,0.7080839574337006 m1.548496037721634,4.654631316661835 l-0.033471856731921434,-3.3930954337120056 1.5211115777492523,-6.385934948921204 l1.3285887241363525,-0.8761012554168701 1.1913657933473587,-0.1976291462779045 l0.6376055628061295,0.526430606842041 -0.32379738986492157,2.06818163394928 l0.6397413462400436,4.633702635765076 m0.16154611483216286,6.515432596206665 l-0.00036990284570492804,-0.5606600269675255 0.368710532784462,-1.6899223625659943 l-0.2341843582689762,-2.2713683545589447 0.07768800482153893,-1.297173947095871 m-5.790840983390808,-4.150266945362091 l-1.0934491455554962,-0.078090182505548 -1.227637454867363,2.370207756757736 l-1.9886459410190582,5.477961301803589 0.9662725776433945,4.0227943658828735 l-2.18202605843544,-2.805439531803131 -0.0008855650230543688,-5.852017402648926 l-0.8056717365980148,0.29823919758200645 m5.3865039348602295,-2.835673987865448 l-1.0756812989711761,-1.1379913240671158 -4.008068740367889,-2.420412600040436 m84.03791703510933,-1.2752952177658017 l-2.115592062473297,-0.25498654693365097 -0.49546685069799423,-1.5243227779865265 l0.22230161353945732,-0.9051135182380676 1.6004583239555359,-1.4297021925449371 l1.8256835639476776,-0.18091663718223572 0.8895516395568848,1.012767180800438 l0.5341034010052681,1.5965616703033447 0.1357847824692726,1.3719667494297028 l-1.1868887394666672,3.9277634024620056 -0.9790953248739243,0.2037636935710907 l-0.9953027218580246,-6.535355510095542e-06 0.09244033135473728,-0.9639158099889755 l1.4428584277629852,-0.8681848645210266 0.33255457878112793,-0.3270385414361954 l-0.909649208188057,1.4334064722061157 -1.1292219907045364,4.17690247297287 m-0.17534887418150902,-12.39713430404663 l-1.6068622469902039,-0.09613814763724804 -2.3057961463928223,-0.4151694104075432 l-2.546948790550232,0.05490728188306093 -1.832498162984848,0.03516621654853225 l-2.594849467277527,0.6388053297996521 -1.3169555366039276,1.8989890813827515 l0.2080923691391945,0.7611055672168732 0.4290005564689636,1.7231616377830505 l1.2892413139343262,2.0935100317001343 1.2842509150505066,1.6192542016506195 l2.6369574666023254,2.1694260835647583 1.3593210279941559,0.46926673501729965 l4.737811088562012,4.436034858226776 3.7618499994277954,0.4118465632200241 l5.736865997314453,-0.5372010543942451 1.9033515453338623,-1.4716415107250214 l0.850997269153595,-1.3807868957519531 0.15611451119184494,-3.2603037357330322 l-3.546170546542271e-05,-0.8701398968696594 -0.36455336958169937,-0.2822815999388695 l-0.1604260504245758,0.39592061191797256 0.6297313421964645,-0.05058085545897484 l-0.9292354434728622,-2.0265009999275208 -0.9178367257118225,0.2685907483100891 l-0.6166546791791916,1.1192827671766281 -0.9912539273500443,3.6885833740234375 l-0.4264044389128685,2.100086212158203 m0.14706971123814583,0.48761919140815735 l2.747640907764435,2.6906394958496094 0.822489783167839,-0.47981295734643936 m0.5956324562430382,0.8678729087114334 l2.3145918548107147,-1.5086719393730164 0.05775760859251022,1.8123254179954529 m0.24726951494812965,-0.9009741991758347 l-0.8010432869195938,0.9409509599208832 -0.4084860533475876,0.7127616554498672 l0.17414618283510208,0.4164498299360275 0.38890182971954346,0.05121029447764158 l-0.7464749366044998,-4.798820912837982 1.3543504476547241,-2.9647406935691833 l-0.2762278541922569,-1.2068596482276917 -1.231905221939087,-1.1310350894927979 l-1.2708553671836853,-1.0377931594848633 -2.1611563861370087,-2.1146956086158752 l-0.7334376871585846,0.0006898982974234968 0.0005408469223766588,0.11312026530504227 l0.67642442882061,1.4178133010864258 2.0618197321891785,5.917091965675354 l1.2782149016857147,-0.34164126962423325 -0.03187641967087984,0.3517621383070946 m-20.032832622528076,-16.082643270492554 l1.854432374238968,2.8923889994621277 -1.1454375088214874,1.1651597172021866 l-2.2080734372138977,0.10275568813085556 -5.469349026679993,-0.25405876338481903 l0.6005304679274559,0.40741603821516037 1.1174825578927994,-0.20001094788312912 l3.4378203749656677,0.46601850539445877 m12.472450733184814,-4.973568320274353 l5.901869535446167,-0.22569319233298302 " fill="none" stroke="black" stroke-width="1" /></svg>