<?xml version="1.0" encoding="utf-8" ?>
<svg baseProfile="full" height="72.23751362413168" version="1.1" width="74.14933601394296" xmlns="http://www.w3.org/2000/svg" xmlns:ev="http://www.w3.org/2001/xml-events" xmlns:xlink="http://www.w3.org/1999/xlink"><defs /><rect fill="white" height="72.23751362413168" width="74.14933601394296" x="0" y="0" /><path d="M37.577778939157724,34.357867781072855 m-2.1130669116973877,-0.20124446600675583 l-0.6037333980202675,-1.4087112247943878 0.7043556123971939,-1.1068445444107056 l0.8049778640270233,-0.30186669901013374 0.7043556123971939,0.10062223300337791 l0.8049778640270233,0.9056001156568527 0.20124446600675583,1.4087112247943878 l-1.207466796040535,1.1068445444107056 -0.30186669901013374,1.71057790517807 l0.7043556123971939,0.5031111836433411 0.9056001156568527,0.0 l0.10062223300337791,-1.1068445444107056 -0.40248893201351166,-0.10062223300337791 l-0.10062223300337791,0.6037333980202675 0.20124446600675583,2.1130669116973877 l0.8049778640270233,3.8236448168754578 0.9056001156568527,2.213689088821411 l1.3080890476703644,1.5093335509300232 1.8112002313137054,1.1068445444107056 l0.40248893201351166,-0.30186669901013374 0.0,-0.8049778640270233 l-0.30186669901013374,-2.0124447345733643 -1.6099557280540466,-3.2199114561080933 l-2.918044626712799,-3.0186671018600464 m0.7043556123971939,-2.3143114149570465 l-0.40248893201351166,-1.3080890476703644 0.5031111836433411,-1.8112002313137054 l3.3205336332321167,-5.735467076301575 1.4087112247943878,-1.6099557280540466 l0.7043556123971939,-0.10062223300337791 0.7043556123971939,0.30186669901013374 l1.71057790517807,2.0124447345733643 0.6037333980202675,1.207466796040535 l0.30186669901013374,1.207466796040535 -0.40248893201351166,2.213689088821411 l-1.1068445444107056,1.9118224084377289 -1.8112002313137054,1.5093335509300232 l-2.918044626712799,0.9056001156568527 -1.71057790517807,0.0 m1.8112002313137054,1.5093335509300232 l0.8049778640270233,1.207466796040535 2.1130669116973877,1.6099557280540466 l2.6161780953407288,0.6037333980202675 1.5093335509300232,-0.5031111836433411 l0.30186669901013374,-0.6037333980202675 -0.10062223300337791,-1.1068445444107056 l-0.9056001156568527,-1.5093335509300232 -2.918044626712799,-2.6161780953407288 m-10.263468027114868,0.5031111836433411 l-1.71057790517807,-0.9056001156568527 -3.0186671018600464,-0.9056001156568527 l-2.8174224495887756,0.0 -1.71057790517807,0.6037333980202675 l-0.5031111836433411,0.9056001156568527 -0.20124446600675583,1.5093335509300232 l0.8049778640270233,3.7230226397514343 0.8049778640270233,1.5093335509300232 l2.1130669116973877,1.6099557280540466 1.9118224084377289,0.40248893201351166 l1.1068445444107056,-0.10062223300337791 2.213689088821411,-1.6099557280540466 l2.8174224495887756,-4.0248894691467285 m-3.3205336332321167,4.125511646270752 l-0.6037333980202675,1.9118224084377289 -0.10062223300337791,2.1130669116973877 l0.30186669901013374,0.8049778640270233 0.7043556123971939,0.20124446600675583 l1.207466796040535,0.0 2.0124447345733643,-1.0062223672866821 l0.7043556123971939,-1.5093335509300232 0.0,-2.213689088821411 m-1.3080890476703644,-10.565334558486938 l-0.10062223300337791,-3.0186671018600464 0.7043556123971939,-3.8236448168754578 m-3.622400462627411,7.345423102378845 l-3.11928927898407,-5.332978367805481 " fill="none" stroke="black" stroke-width="1" /></svg>