<?xml version="1.0" encoding="utf-8" ?>
<svg baseProfile="full" height="89.41885191947222" version="1.1" width="820.5776018917095" xmlns="http://www.w3.org/2000/svg" xmlns:ev="http://www.w3.org/2001/xml-events" xmlns:xlink="http://www.w3.org/1999/xlink"><defs /><rect fill="white" height="89.41885191947222" width="820.5776018917095" x="0" y="0" /><path d="M25,25 m0.0,0.0 m35.51216230727732,22.390478153988624 l-4.289296865463257,1.3547830283641815 -4.019110798835754,2.121824771165848 l-1.4341220259666443,2.082050144672394 0.09808674454689026,1.9504188001155853 l0.9742972999811172,1.1229319125413895 2.676782011985779,1.133725568652153 l4.817194640636444,4.7699272727186326e-05 2.9102298617362976,-1.2991610169410706 m-2.432153671979904,-7.949025630950928 l2.104988545179367,-2.7648237347602844 1.8415822088718414,-1.3715305924415588 l1.6274388134479523,-0.3888769820332527 1.214449182152748,0.382644347846508 l1.1878526210784912,1.5994195640087128 0.6249956041574478,2.7911171317100525 l-0.533645749092102,2.975923717021942 m-8.689892888069153,0.6824932992458344 l-0.18381597474217415,3.404238224029541 0.2895279973745346,3.656703233718872 l0.9416218847036362,2.3445606231689453 0.6641213595867157,0.5274278670549393 l1.307661533355713,-0.0920424796640873 1.0602319240570068,-1.009063795208931 l1.1507564038038254,-2.6606354117393494 0.8438724279403687,-5.916219353675842 m-6.131364703178406,-3.8594356179237366 l4.103920757770538,-4.849381148815155 2.5904110074043274,-1.9192779064178467 l1.8311761319637299,-0.4791184887290001 1.6848324239253998,0.6571032106876373 l1.3069826364517212,2.0760996639728546 m70.65103827837447,4.651989822368705 l-4.218972623348236,1.3708370923995972 -4.324758052825928,2.3706744611263275 l-1.3530467450618744,1.7193609476089478 -0.000797094326117076,1.4517848193645477 l1.4348024129867554,1.6477042436599731 2.8371697664260864,0.8545594662427902 l3.458661735057831,-8.006310054042842e-05 3.0866676568984985,-1.0244032740592957 m-2.040494829416275,-7.708486914634705 l0.825071707367897,-1.0326696932315826 2.1596436202526093,-1.6955587267875671 l1.8647810816764832,-0.7186926901340485 0.631137490272522,0.315789096057415 l0.4986947774887085,2.289172112941742 -0.07221792824566364,3.4839385747909546 m-6.639817953109741,2.1534478664398193 l0.3031037002801895,2.4006102979183197 0.32814670354127884,2.952978014945984 l0.5735981091856956,1.3488712906837463 1.191546469926834,1.2696760892868042 l1.3383908569812775,0.3708268702030182 1.5853293240070343,-0.7635995000600815 l0.9112164378166199,-1.459391862154007 0.5799530446529388,-3.0722832679748535 l-0.32476212829351425,-3.561757206916809 m-6.055811047554016,-4.9364835023880005 l6.44835889339447,-6.038044095039368 2.7531424164772034,-1.7622233927249908 l0.6550902873277664,0.24744879454374313 0.42017731815576553,1.6779457032680511 l-1.1443217098712921,9.207606315612793 m73.6775376740843,-1.6219178209939855 l-4.22108918428421,1.3443352282047272 -4.577460587024689,2.433658242225647 l-1.3767600059509277,2.0782138407230377 -0.14522328972816467,1.0872174799442291 l0.9274619817733765,1.570131629705429 3.7147435545921326,0.7096218317747116 l4.372375309467316,0.00027788755687652156 2.9216033220291138,-0.6316490471363068 m-2.059328854084015,-8.280254602432251 l2.4726633727550507,-4.426683783531189 2.0460592210292816,-1.7670641839504242 l1.6702079772949219,-0.2671643905341625 0.46840645372867584,0.4606209695339203 l-0.21410709246993065,5.843071341514587 0.13339029625058174,2.0937617123126984 l-0.13218886218965054,2.2483354806900024 m-6.705518364906311,-0.8638088405132294 l0.2595563791692257,2.6826077699661255 0.6028810143470764,4.158105850219727 l0.8786661177873611,2.000003159046173 1.5008479356765747,1.3621088862419128 l1.5162831544876099,0.4983767867088318 1.0764119774103165,-0.576293095946312 l0.9274535626173019,-2.2683340311050415 0.44095270335674286,-2.3918189108371735 l-0.30788660049438477,-3.409510850906372 m-8.59773874282837,-7.643582224845886 l5.390748381614685,-7.737828493118286 2.6224520802497864,-2.1216657757759094 l0.3255065530538559,3.27077716588974 -0.2514345571398735,4.109163582324982 m71.55027799337404,3.298987780799507 l-4.387562572956085,1.294875144958496 -4.29657906293869,2.3863840103149414 l-1.2764044106006622,1.6373279690742493 -0.17838308587670326,1.0439076274633408 l0.8934621512889862,1.220991462469101 4.381965100765228,-0.00044142558181192726 l4.040320813655853,-0.6883280724287033 m1.8419985473155975,-5.619447231292725 l0.460202693939209,-0.7645603269338608 4.0611326694488525,-1.836591213941574 l1.6988387703895569,0.1875058375298977 0.5145075917243958,0.8740519732236862 l-0.12551093474030495,0.9234097599983215 -1.1751875281333923,2.288016378879547 l-1.3632835447788239,1.521480679512024 m-6.137378811836243,-1.005961075425148 l1.4191058278083801,1.348702609539032 2.343042939901352,2.550245523452759 l1.2914054095745087,3.7159714102745056 0.3917299956083298,1.534343808889389 l0.20433129742741585,0.6086965650320053 0.13578446581959724,-0.33026665449142456 l0.11917666532099247,-2.2208158671855927 -0.897279679775238,-8.287416696548462 l0.0029329018434509635,-2.915373742580414 m-3.107002377510071,0.2588629722595215 l5.333045721054077,-7.487581968307495 1.5022146701812744,-0.7663147151470184 l1.725715696811676,0.10188831947743893 1.4117085933685303,1.5698395669460297 l0.6952604651451111,1.9918984174728394 m67.89578490454005,0.35982850939035416 l-4.291542172431946,1.384185403585434 -4.126889109611511,2.222413122653961 l-1.642577350139618,1.9949379563331604 0.2392430417239666,2.139122486114502 l1.052783578634262,0.7695897668600082 3.0579176545143127,0.6131913140416145 l5.178294777870178,0.010055671446025372 2.2286681830883026,-0.9854644536972046 m-4.880630075931549,-6.888030767440796 l4.883986115455627,-1.7654810845851898 2.966051697731018,0.05047129467129707 l3.1456708908081055,1.4615122973918915 1.0651171207427979,-0.09548901580274105 l1.79259791970253,0.8062688261270523 1.8175972998142242,2.2777308523654938 l0.31294994056224823,0.8617643266916275 -1.3130062818527222,3.0349627137184143 m-15.673933029174805,-4.592176973819733 l0.2938433922827244,1.924317330121994 1.2125441431999207,1.771700531244278 l3.1321141123771667,3.5974979400634766 2.4826720356941223,2.591758370399475 l2.45277538895607,1.2012602388858795 0.7369562983512878,-0.0013131939340382814 l0.4219406470656395,-2.0792414247989655 -0.07710223086178303,-4.820225536823273 l-0.9594705700874329,-3.399772047996521 -1.5921372175216675,-3.096315562725067 m-4.231398403644562,3.63470196723938 l4.2963749170303345,0.5635592341423035 3.3260491490364075,-0.754876509308815 m72.8780833282508,0.26801795058418065 l-4.452777802944183,1.3635219633579254 -4.945044815540314,2.5803324580192566 l-1.5477393567562103,1.7658963799476624 -0.39881449192762375,2.583695948123932 l0.5155117437243462,0.8542647957801819 1.9862665235996246,0.8403434604406357 l7.290458679199219,-0.8105181902647018 2.853163480758667,-1.2869329750537872 m-0.31220853328704834,-9.477787613868713 l1.596062183380127,-0.7661121338605881 2.4287889897823334,-0.006261143716983497 l0.5604796856641769,0.9887279570102692 0.18831264227628708,2.789849638938904 l-0.05465236026793718,4.3966564536094666 -0.35936135798692703,1.8491064012050629 l-1.8028442561626434,2.9888761043548584 m-3.096650242805481,-12.585893869400024 l1.7695625126361847,-1.3387654721736908 1.6324090957641602,-0.8001941442489624 l2.0508961379528046,-1.0099541395902634 2.1933893859386444,-1.035226434469223 l1.948188841342926,-0.09926031343638897 2.1300071477890015,0.00024553870389354415 l0.5092793703079224,0.6815195828676224 0.7063625007867813,2.7129989862442017 l-0.5830299481749535,6.843274235725403 m-17.98069477081299,-4.0332841873168945 l4.792323708534241,3.747992217540741 5.206665396690369,4.503907859325409 l-0.08560183458030224,-2.2115446627140045 0.7556933164596558,0.6877878308296204 m68.73944619408576,-7.624072282505949 l-4.5147815346717834,1.1312200129032135 -3.982588052749634,2.33814999461174 l-1.7586444318294525,2.846652567386627 -0.0031707106973044574,0.9317206591367722 l1.3275499641895294,1.1201944202184677 5.930532217025757,1.357855200767517 l1.4099130034446716,0.11524824425578117 2.860768437385559,-0.48741016536951065 l1.160125955939293,-3.0396774411201477 m-0.9524642676115036,-2.041504830121994 l1.7189523577690125,0.9958948194980621 2.5806787610054016,-1.179814264178276 l0.3209197521209717,-1.0738418251276016 -0.9577708691358566,-2.0721806585788727 l-1.4539134502410889,-4.037082195281982 -1.2526941299438477,-0.9458887577056885 l-1.0135991871356964,-0.01353664556518197 m3.1516116857528687,7.2004735469818115 l3.270394504070282,1.1387130618095398 2.898258864879608,0.9117963165044785 l0.8042837679386139,0.3867972642183304 0.5905338749289513,0.0319223920814693 l1.2032347917556763,0.7579502463340759 0.9059511870145798,1.0978484153747559 l1.8215440213680267,0.7806923240423203 m1.2934955954551697,-0.10114001110196114 l4.669575989246368,-9.331480860710144 0.6141842901706696,0.7417858392000198 l0.45909594744443893,4.660786688327789 0.5351975187659264,4.855391979217529 l0.07497511804103851,0.3785413131117821 m60.26711724814959,-12.493048720498336 l-3.826172351837158,1.235368475317955 -4.4956377148628235,2.0427721738815308 l-0.9605535119771957,2.1175308525562286 0.1884104311466217,1.3980738818645477 l2.0863424241542816,2.0842593908309937 1.6555652022361755,0.2205069176852703 l4.89910751581192,0.47583792358636856 3.366420269012451,-0.00102344507467933 m1.6039745509624481,-5.517014861106873 l-0.9207276999950409,-1.0040053725242615 m0.009100099559873343,-2.693875730037689 l0.6358758360147476,-2.2038619220256805 1.9063286483287811,-1.5686783194541931 l1.204492673277855,-0.4079169034957886 1.9898776710033417,-0.39376743137836456 l2.8876954317092896,-0.7488192617893219 2.7139660716056824,3.269154727458954 l1.000635176897049,5.141988396644592 0.20931102335453033,3.830488622188568 l-1.1375842988491058,3.3668312430381775 -0.9602514654397964,1.214940994977951 l0.0008921234984882176,-0.628819465637207 -0.0010970690345857292,-1.7549949884414673 m-16.78128480911255,0.34085713326931 l0.27049124240875244,4.057992994785309 0.6489410251379013,3.1600669026374817 m4.252508282661438,-20.870559215545654 l2.1394629776477814,-0.25096679106354713 5.293819904327393,-0.0010229898180114105 l1.4763596653938293,0.3282448276877403 1.589861810207367,4.7865185141563416 m60.888218157488154,5.213305404904531 l-4.786282777786255,1.2556657195091248 -3.66823673248291,2.6339399814605713 l-1.439998596906662,1.5024672448635101 -0.0007840382750146091,1.5728625655174255 l1.0438153892755508,1.7897003889083862 1.749289631843567,0.48936963081359863 l10.484002828598022,0.0007891025597928092 m0.6173403188586235,-8.824569582939148 l3.215823173522949,-5.4960280656814575 0.16524041071534157,-2.972412407398224 l-0.4879781976342201,1.0342320054769516 -0.6764740496873856,1.6498270630836487 l-0.8058419078588486,7.931551933288574 0.7666166871786118,-0.09488283656537533 m2.52718985080719,-5.850616693496704 l2.912786602973938,-4.360302090644836 2.245136946439743,-1.8329288065433502 l2.253159284591675,-0.042411359027028084 1.6478431224822998,0.6976758688688278 l1.910155564546585,1.345280110836029 0.8199314773082733,4.16390597820282 l-1.5663878619670868,1.5023574233055115 -1.530308872461319,1.1502746492624283 l-0.25911830365657806,0.040261331014335155 1.783885657787323,-2.052980363368988 m0.42454931885004044,-3.529406189918518 l-1.3612060248851776,13.428399562835693 0.6279679387807846,-0.7456161826848984 l5.101235508918762,-2.8196677565574646 1.6753099858760834,-0.5342017859220505 l1.7893685400485992,1.6252340376377106 m57.214390431763604,-6.097741432841985 l-4.2124029994010925,1.120280772447586 -4.5881810784339905,2.43278905749321 l-1.1665979772806168,2.1784359216690063 0.23207012563943863,2.490602880716324 l0.5079318210482597,0.6223199516534805 1.8164993822574615,0.1935621164739132 l5.295314788818359,1.070808619260788 6.0659414529800415,-3.260895609855652 m0.9207180142402649,-5.313570499420166 l0.29806653037667274,-1.9149093329906464 m-0.26274358853697777,-1.707897037267685 l0.7275862246751785,-0.01883435295894742 0.5955181270837784,0.08466428145766258 l0.18464839085936546,0.4045555740594864 0.1272042654454708,0.2473175898194313 l1.145406886935234,6.6287171840667725 -1.7180721461772919,2.7208781242370605 l-0.25847164914011955,1.8886849284172058 4.0985360741615295,-5.818750262260437 m0.012528744991868734,8.979653120040894 l4.991990923881531,0.7843714952468872 2.6250866055488586,-3.38519362230727e-05 l1.8504172563552856,-1.1000493168830872 0.32383155077695847,-1.001281514763832 l-2.228693813085556,-9.444212317466736 -1.0627443343400955,-2.1370862424373627 m-7.177426815032959,-11.702685356140137 l-0.30812904238700867,0.7859452068805695 0.9671857208013535,4.691943526268005 l4.012871086597443,10.498412847518921 2.351731061935425,1.0393594950437546 " fill="none" stroke="black" stroke-width="1" /></svg>