<?xml version="1.0" encoding="utf-8" ?>
<svg baseProfile="full" height="75.457425378263" version="1.1" width="72.74062521755695" xmlns="http://www.w3.org/2000/svg" xmlns:ev="http://www.w3.org/2001/xml-events" xmlns:xlink="http://www.w3.org/1999/xlink"><defs /><rect fill="white" height="75.457425378263" width="72.74062521755695" x="0" y="0" /><path d="M34.86097892746329,32.04355647787452 m-4.125511646270752,1.207466796040535 l-4.226133823394775,2.41493359208107 -1.4087112247943878,1.6099557280540466 l-0.10062223300337791,2.41493359208107 1.5093335509300232,1.207466796040535 l2.41493359208107,0.5031111836433411 3.0186671018600464,-0.10062223300337791 l6.137956380844116,-1.4087112247943878 m-4.226133823394775,-7.144178748130798 l-0.10062223300337791,-6.339200735092163 0.20124446600675583,-0.7043556123971939 l2.1130669116973877,-0.7043556123971939 1.5093335509300232,0.40248893201351166 l3.622400462627411,2.41493359208107 0.9056001156568527,1.4087112247943878 l0.30186669901013374,2.6161780953407288 m-6.54044508934021,7.043556571006775 l0.5031111836433411,-1.0062223672866821 0.6037333980202675,-0.20124446600675583 l0.5031111836433411,2.1130669116973877 -0.20124446600675583,4.226133823394775 l-0.8049778640270233,4.0248894691467285 0.0,1.9118224084377289 l0.5031111836433411,0.5031111836433411 1.8112002313137054,-1.6099557280540466 l2.8174224495887756,-3.924266993999481 2.213689088821411,-7.546667456626892 m-2.213689088821411,-5.836089253425598 l5.332978367805481,-0.6037333980202675 0.6037333980202675,0.8049778640270233 l0.20124446600675583,4.125511646270752 " fill="none" stroke="black" stroke-width="1" /></svg>