<?xml version="1.0" encoding="utf-8" ?>
<svg baseProfile="full" height="121.8692214558007" version="1.1" width="835.8739140523676" xmlns="http://www.w3.org/2000/svg" xmlns:ev="http://www.w3.org/2001/xml-events" xmlns:xlink="http://www.w3.org/1999/xlink"><defs /><rect fill="white" height="121.8692214558007" width="835.8739140523676" x="0" y="0" /><path d="M25,36.03514205450722 m0.0,0.0 m30.55427926243283,31.7269175403635 l-0.1647760346531868,0.030644971411675215 m2.41893470287323,-21.599223613739014 l3.433588743209839,-1.6217407584190369 4.497224986553192,-0.6867001205682755 l2.7153825759887695,0.30140090733766556 1.9611656665802002,0.9545627981424332 l2.2748425602912903,2.2766274213790894 1.2089180946350098,2.643018960952759 l0.6588339060544968,4.156707227230072 -0.314011313021183,4.5344749093055725 l-0.8445708453655243,2.608611285686493 -2.1298404037952423,3.6098018288612366 l-2.927928864955902,2.9758116602897644 -2.344364821910858,1.5597246587276459 l-3.5897526144981384,1.346142441034317 -4.250727891921997,0.5537904426455498 l-3.6489033699035645,0.0002317206235602498 -2.6757392287254333,-0.5888577550649643 l-2.1213696897029877,-1.0628623515367508 -1.5906985104084015,-1.4336322247982025 l-1.6081991791725159,-2.889556586742401 -0.6304153800010681,-2.7315375208854675 l0.03951100166887045,-3.9683061838150024 0.8408503234386444,-2.9818806052207947 l1.3476842641830444,-2.36448734998703 2.7104488015174866,-2.558353543281555 l2.420535385608673,-1.2082938104867935 2.244696021080017,-0.426989309489727 l1.7420163750648499,0.2470710501074791 m1.8457353115081787,2.518203854560852 l0.012713009491562843,-0.6608768552541733 0.9718900918960571,-2.3083919286727905 l1.5780779719352722,-1.9588643312454224 1.8441839516162872,-1.3341523706912994 l2.0414479076862335,-0.767192468047142 1.9931186735630035,-0.2058381773531437 l1.8122950196266174,0.42484238743782043 2.244326025247574,1.5257789194583893 l1.1762268096208572,1.4445415139198303 0.9662369638681412,2.6034530997276306 l0.005020203534513712,3.060275614261627 -1.3222722709178925,3.081497848033905 l-1.3981536030769348,1.5126684308052063 -2.6378098130226135,1.4406000077724457 l-3.574650287628174,0.7398167997598648 -3.916201889514923,-0.2803678810596466 l-1.1165598034858704,-0.6979265809059143 -1.185225173830986,-1.9227373600006104 l-0.36001116037368774,-2.0036548376083374 0.4834318533539772,-2.930958867073059 l1.0063187777996063,-1.6118809580802917 m1.2838800251483917,4.919165670871735 l-0.003232691378798336,-0.0006822414434282109 m2.681155502796173,0.43944887816905975 l-0.001530302979517728,-0.0011646244820440188 m-3.27763170003891,1.339917778968811 l-0.0016567220154684037,-0.0006135849980637431 m1.0931827872991562,0.6562282890081406 l-0.0015880681166891009,-0.0010059735359391198 m-0.4188992455601692,0.5095982551574707 l-0.0006570666300831363,-0.0009875067917164415 m-0.2899058349430561,0.3588295355439186 l-0.0009425688040209934,-0.0006162838690215722 m0.948278084397316,0.44380292296409607 l-0.001079428184311837,-0.0011547096801223233 m-0.01736364676617086,-0.07549457717686892 l-0.0005882900586584583,-0.0007980460213730112 m-0.3687436878681183,-0.38803305476903915 l-0.001000300035229884,-0.0010143304825760424 m0.958385169506073,-0.6925560534000397 l-0.0015557695587631315,-0.0012266411795280874 m-1.2154265493154526,1.052096039056778 l3.902643620967865,-0.4932509735226631 m-4.187318682670593,1.3744890689849854 l3.4708502888679504,-0.09116159752011299 m-4.79760617017746,-2.1903592348098755 l2.425904870033264,-0.381181538105011 4.490246474742889,-0.7446282356977463 l4.648764133453369,-0.501604788005352 4.091589152812958,0.17668360844254494 l3.493577539920807,1.096404492855072 3.1405216455459595,2.2307655215263367 l1.2970398366451263,1.7220669984817505 0.7515300810337067,2.681150436401367 l-0.305462833493948,3.1727853417396545 -1.6437987983226776,3.027271032333374 l-3.088502287864685,2.9280009865760803 -4.49960470199585,2.367023378610611 l-5.687234997749329,1.608855277299881 -6.134626865386963,0.6023884564638138 l-5.307287573814392,-0.326467826962471 -1.535896211862564,-0.7052116096019745 l-1.2801982462406158,-1.2356063723564148 -1.3683322072029114,-2.8401586413383484 l-0.659366175532341,-4.303448498249054 0.40339279919862747,-4.8509106040000916 l1.0047273337841034,-2.4689479172229767 2.292216569185257,-2.673981189727783 m9.00418758392334,6.526098847389221 l-0.5015519261360168,2.2842276096343994 m3.4345921874046326,-1.6186664998531342 l-0.15010473318398,1.8310518562793732 m-2.7040940523147583,-1.3481028378009796 l-0.8173725008964539,1.9461630284786224 m71.89300504667699,0.23775638715051173 l-0.1800672896206379,-0.04932460840791464 m2.9024046659469604,-21.741013526916504 l3.142452836036682,-1.9136513769626617 4.404400885105133,-0.8597608655691147 l3.0086123943328857,0.1629798859357834 2.94260174036026,1.300923079252243 l2.491443455219269,2.374217063188553 1.3213655352592468,2.627829611301422 l0.781831368803978,4.143365025520325 -0.2512458898127079,4.452619850635529 l-0.776783749461174,2.6610827445983887 -1.1251792311668396,2.1851463615894318 l-2.5040203332901,2.784441113471985 -3.494657576084137,2.4857017397880554 l-2.7298206090927124,1.3018693029880524 -4.333239197731018,1.1650029569864273 l-2.8668615221977234,0.1924748346209526 -3.7034207582473755,-0.6568596512079239 l-1.5274503827095032,-0.8708849549293518 -1.6954061388969421,-2.039790451526642 l-1.0669266432523727,-2.270709276199341 -0.4853282868862152,-2.402253746986389 l0.127459354698658,-3.6647427082061768 0.9314315766096115,-2.9244065284729004 l1.4037400484085083,-2.2654443979263306 1.557694524526596,-1.361091434955597 m4.10050243139267,-3.8763073086738586 l0.04686958156526089,-3.462003171443939 0.8174856752157211,-2.374425530433655 l1.4154715836048126,-1.8260951340198517 1.8149669468402863,-1.2455091625452042 l1.7911726236343384,-0.5907061323523521 2.029416859149933,-0.17058119177818298 l2.717817723751068,0.7563214004039764 1.6162626445293427,1.3988405466079712 l1.0256069153547287,1.9407376646995544 0.4481523111462593,2.9067081212997437 l-0.0003934358392143622,2.366345226764679 -0.4733283072710037,1.7094813287258148 l-1.391100138425827,1.9106143712997437 -1.5108095109462738,0.9945198148488998 l-4.356011152267456,1.2001543492078781 -4.210314154624939,0.040293349884450436 l-1.447366625070572,-0.7357405871152878 -1.568230390548706,-1.8444977700710297 l-0.5258285999298096,-1.7850682139396667 0.10499178431928158,-1.5738527476787567 l0.9615783393383026,-1.868397742509842 1.320093721151352,-1.0660738497972488 m4.387162625789642,9.25600528717041 l0.9686621278524399,0.9283294528722763 m-2.502925992012024,1.66203111410141 l-0.0003586957973311655,-0.0011327128595439717 m3.06977242231369,-0.30496440827846527 l-0.002526647294871509,-0.0015933805843815207 m-2.9246968030929565,-1.8033607304096222 l-0.0017767101235222071,-0.00028884265702799894 m2.0913484692573547,3.2306531071662903 l2.366342693567276,-0.4340575262904167 m-1.5271970629692078,1.7194941639900208 l0.9454478323459625,-0.0001711199183773715 m-2.493230402469635,-3.4828245639801025 l1.6619208455085754,-0.022253911010921 m-2.8008604049682617,-0.897267684340477 l1.0004164278507233,0.7429175823926926 m-2.0682254433631897,-0.5177028477191925 l-0.0013072237197775394,-0.00019897952370229177 m0.28948022052645683,-3.246881663799286 l-3.4699517488479614,-1.3466747105121613 m2.8456446528434753,0.6845296919345856 l1.6032692790031433,0.3566671162843704 m0.6874424964189529,1.2885445356369019 l1.8069984018802643,-0.04645592998713255 m-4.272409081459045,5.8324432373046875 l-2.8520631790161133,2.1994076669216156 -1.5116411447525024,1.8517303466796875 l-1.4453057944774628,2.7225261926651 -1.1208979785442352,3.578769862651825 l-0.38676247000694275,3.817438781261444 0.46681828796863556,3.1903082132339478 l1.086556687951088,1.89462810754776 1.5910185873508453,1.291196495294571 l3.3135518431663513,1.200467050075531 3.108779191970825,0.3341463953256607 l11.099759340286255,-2.8639066219329834 2.68447607755661,-1.8088148534297943 l1.603950709104538,-2.0568792521953583 0.8119141310453415,-2.2518445551395416 l-0.11046100407838821,-3.2160815596580505 -1.5973865985870361,-3.411601483821869 l-1.97577103972435,-2.2876136004924774 -3.3780214190483093,-2.4201636016368866 l-2.765776813030243,-1.1208371073007584 -3.852475583553314,-0.6187746673822403 l-2.486777752637863,0.4713442176580429 m2.02882781624794,3.4553706645965576 l-0.3417421877384186,1.630818396806717 m1.9420892000198364,-0.07618536241352558 l0.10047335177659988,0.5952844023704529 m-5.026875138282776,-0.3529404476284981 l-0.6372690945863724,1.0039524734020233 m1.6935202479362488,-5.985521078109741 l-0.30933678150177,1.9045159220695496 -0.49469489604234695,0.5824460089206696 l-0.8275546133518219,0.21892119199037552 -0.5565537512302399,-0.5449820309877396 m84.02805910891402,18.028539536817334 l-0.11343087069690228,0.020467801950871944 m3.1896328926086426,-19.48063015937805 l2.9119372367858887,-2.464994937181473 3.492444157600403,-0.8159083873033524 l4.279295206069946,0.6710055470466614 2.4424153566360474,1.9736894965171814 l1.7575128376483917,2.7681520581245422 0.6774399429559708,2.4441081285476685 l0.281942430883646,2.9024538397789 -0.5637780949473381,3.8612976670265198 l-0.6929760426282883,2.2973938286304474 -1.2313329428434372,2.2225503623485565 l-1.5139532089233398,1.773049533367157 -3.1118589639663696,2.3233167827129364 l-4.294112324714661,1.820407509803772 -3.2106325030326843,0.5676764249801636 l-3.2714855670928955,0.03475060220807791 -4.238640367984772,-0.9727362543344498 l-2.394421696662903,-1.094043180346489 -2.152455151081085,-2.2191762924194336 l-1.1407369375228882,-2.224605083465576 -0.6080833077430725,-2.3943814635276794 l0.07035246584564447,-2.247152626514435 1.2621122598648071,-3.8011324405670166 l1.5904982388019562,-2.508814036846161 2.4080757796764374,-1.8192549049854279 l2.0890729129314423,-0.9550479799509048 3.375145196914673,-0.6726371496915817 m-4.588703513145447,0.6603819876909256 l-1.8042342364788055,-1.4616301655769348 -1.3453733921051025,-1.8275199830532074 l-0.8087564259767532,-2.498353123664856 0.11901259422302246,-3.1303641200065613 l1.2630590796470642,-1.8743856251239777 1.9044390320777893,-1.343955546617508 l2.3761092126369476,-0.847061350941658 1.8623988330364227,-0.0004309098221710883 l2.552255392074585,0.7768078148365021 3.1547555327415466,2.0946115255355835 l1.709727793931961,1.9134260714054108 0.6928906589746475,2.842349112033844 l0.2676329202950001,0.8394898474216461 0.22911883890628815,1.2984372675418854 l-0.016500336350873113,2.5584325194358826 -0.5383804440498352,1.2042779475450516 l-3.413185477256775,2.60894775390625 -3.526935875415802,1.215577870607376 l-1.3571490347385406,0.40972765535116196 -1.4113035798072815,-0.3067214600741863 l-1.2761226296424866,-1.1065616458654404 m8.905675411224365,-2.357490658760071 l-0.0051427981816232204,2.0553378760814667 m2.245076298713684,-0.016699933912605047 l1.2874753773212433,1.807173639535904 m0.10636452585458755,0.833042785525322 l1.4903400838375092,1.8894919753074646 m-0.6215512007474899,1.5976934134960175 l1.3112853467464447,2.4356015026569366 m-7.657555937767029,1.6983862221240997 l0.8653846383094788,2.5960278511047363 m-5.84644079208374,-4.741528332233429 l0.8959093689918518,5.3355807065963745 0.25083957239985466,2.0994333922863007 m-5.189563035964966,-13.730553388595581 l0.19256707280874252,3.645033538341522 -0.418303944170475,3.5481175780296326 l-0.2198493294417858,1.460942029953003 -0.4981781542301178,1.5376091003417969 m7.618206143379211,-14.174573421478271 l0.04165475722402334,3.6558976769447327 m-1.5842083096504211,-2.927061915397644 l-0.2874145656824112,-0.43428733944892883 m1.6556563973426819,-1.2507668137550354 l0.8593261241912842,2.481577843427658 m-0.5558349937200546,-2.329058349132538 l0.38623858243227005,0.8651880919933319 m-1.4322483539581299,-14.219303131103516 l-2.0270559191703796,-2.754577100276947 -2.207016795873642,-2.9144886136054993 l-2.9485955834388733,-3.4447479248046875 -1.2739914655685425,-0.9040281921625137 l-2.1282319724559784,-1.0936666280031204 -3.8145342469215393,-0.8406767249107361 l-1.7388921976089478,0.2136654406785965 -1.1462130397558212,0.8118390291929245 l-1.5596814453601837,2.699744701385498 -0.7926208525896072,4.171091616153717 l0.11257617734372616,1.74773707985878 0.7482882589101791,1.7620529234409332 l1.7619410157203674,2.009183168411255 1.9593238830566406,1.2774983048439026 m20.231869220733643,-1.7239555716514587 l3.071768581867218,-4.361819326877594 2.362763285636902,-1.8487709760665894 l0.7961937040090561,-0.1117180660367012 1.9165357947349548,1.368696540594101 l1.2284232676029205,3.345898687839508 m-7.135534286499023,-5.38309633731842 l-0.20958660170435905,1.9508032500743866 0.6662391126155853,1.9459004700183868 m-16.280109882354736,12.488213777542114 l-0.6235959380865097,-0.42585939168930054 -1.3381074368953705,-1.1806520819664001 l-1.1222478747367859,-0.2161218412220478 -4.079485535621643,0.700499415397644 m95.78055772070911,19.21992517430681 l-0.13583924621343613,0.13559485785663128 m0.46635445207357407,-31.2583065032959 l3.5842353105545044,-1.182791218161583 5.685473680496216,-1.0829485952854156 l4.396957159042358,0.1504917535930872 2.5284841656684875,0.9763815999031067 l2.0454150438308716,1.5329481661319733 1.3949695229530334,2.56320983171463 l0.6660373508930206,2.4768270552158356 0.00011315111805743072,2.1613359451293945 l-1.9333383440971375,5.98378598690033 -2.6627501845359802,4.238121807575226 l-2.1319222450256348,2.2851532697677612 -2.3191331326961517,1.8186838924884796 l-3.9252659678459167,2.026372402906418 -2.594243288040161,0.6863126158714294 l-1.9714967906475067,0.0020589036284945905 -3.504461646080017,-0.9229876101016998 l-2.426198720932007,-1.2979935109615326 -1.0915467143058777,-1.1363521963357925 l-0.7531558722257614,-1.7225874960422516 -0.3226274251937866,-1.9124391674995422 l-0.03280286444351077,-4.115993678569794 1.215335726737976,-4.625396132469177 l2.3489275574684143,-3.0397525429725647 2.771914303302765,-2.031361609697342 l3.2819995284080505,-0.9776774793863297 m0.23263966664671898,-1.181061640381813 l-0.6212353706359863,0.5860448256134987 -0.6919810920953751,1.172814965248108 l-2.5545981526374817,4.003288745880127 -1.504262089729309,2.2979822754859924 l-2.1466779708862305,4.023427367210388 -1.1562642455101013,0.9904926270246506 l-2.3800128698349,1.6316108405590057 -2.1664439141750336,1.9905796647071838 l-0.9651003777980804,1.2371263653039932 -0.8286983519792557,1.4869160950183868 l-0.2465379424393177,1.5554186701774597 0.37661030888557434,0.9890494495630264 l0.7851819694042206,0.455707311630249 1.6879428923130035,-0.08015834726393223 l2.325037121772766,-0.5847762152552605 6.864421963691711,-3.5119691491127014 l2.80900776386261,-2.3084427416324615 1.7389892041683197,-2.4443165957927704 l1.2545503675937653,-3.2402601838111877 0.1910942979156971,-2.3287056386470795 l-0.168474018573761,-0.505434088408947 -0.8909263461828232,-0.6725851446390152 l-2.1083642542362213,-0.8276256173849106 -6.079998016357422,-1.2284015119075775 m8.394511938095093,0.15126039274036884 l-0.0002662900078576058,-0.0021491970983333886 m-5.74678361415863,7.3972296714782715 l0.0009447865886613727,0.0016299576964229345 m-1.5214903652668,9.022412896156311 l0.05105325486510992,0.2541493996977806 m5.756958723068237,-1.0818225145339966 l1.24104343354702,-0.00013112729902786668 m1.110306978225708,-1.0726532340049744 l-1.043332889676094,-0.020448206923902035 m-3.370741307735443,-5.051015615463257 l-0.8320266753435135,-0.22253669798374176 m1.5140552818775177,-0.006184189114719629 l-1.0627398639917374,0.3757954016327858 m2.154949903488159,-4.937255084514618 l-0.0032106979051604867,0.00044905420509167016 m1.09834223985672,-6.418200135231018 l-0.4698699340224266,-1.633959710597992 m1.7504225671291351,0.8936449140310287 l4.277171790599823,-1.463417112827301 m-9.491527676582336,-5.64522385597229 l3.1089699268341064,2.1225015819072723 m-10.059549808502197,-0.6188390403985977 l0.7553767412900925,0.15568368136882782 1.4117839932441711,0.08617741987109184 m-0.11279256083071232,-1.0382886976003647 l-0.10279347188770771,-0.10988845489919186 -0.8353832364082336,-0.25479137897491455 l-6.80858850479126,-1.4315804839134216 -4.116153419017792,-0.04194381646811962 l-6.099004745483398,1.6823841631412506 -1.3038770854473114,1.3427138328552246 l-0.8274433016777039,3.0263733863830566 -0.10271289385855198,2.0953139662742615 l0.3495659679174423,2.4329285323619843 1.0536479204893112,1.3466309010982513 l1.5476654469966888,1.1041716486215591 5.851932168006897,1.3289353251457214 l5.2568745613098145,0.17153384163975716 2.0343023538589478,-0.32729316502809525 m12.274647951126099,-10.487468242645264 l3.9284533262252808,-1.0888468474149704 3.6306792497634888,-0.9385732561349869 l1.1404693871736526,-0.41023295372724533 1.3763225078582764,-0.8230206370353699 l1.3346192240715027,0.3702850639820099 0.823347344994545,0.9335359930992126 l0.8690062910318375,1.9674701988697052 0.01026143436320126,7.871510982513428 l-2.478358894586563,3.932189643383026 -2.803795635700226,2.84787118434906 m0.9900067746639252,-3.0895933508872986 m59.361730952514336,4.199462478350142 l-0.17559533938765526,0.08834457024931908 m2.9481464624404907,-22.464773654937744 l1.281236708164215,-1.2109261006116867 4.857113063335419,-0.3614916279911995 l4.371786713600159,0.5286827683448792 1.4351823925971985,0.45280441641807556 l2.4297995865345,1.8244761228561401 0.0007448871474480256,1.955401599407196 l-1.7720206081867218,8.369737267494202 -1.693006008863449,3.138589859008789 l-1.532541960477829,1.9104857742786407 -2.0964618027210236,1.659957468509674 l-2.41759791970253,1.0990402102470398 -2.8601866960525513,0.6910563260316849 l-3.303886651992798,0.002411468158243224 -1.5052372217178345,-0.48611946403980255 l-1.6673308610916138,-1.0601149499416351 -2.3495014011859894,-2.2148121893405914 l-1.5262538194656372,-3.1478428840637207 -0.3624027967453003,-3.4013673663139343 l0.4997943341732025,-2.7328163385391235 0.44234152883291245,-0.8352633565664291 l4.747418761253357,-2.11163267493248 6.059150695800781,-0.638570562005043 l3.0830037593841553,-0.004024266381748021 m-14.607391357421875,6.344244480133057 l-0.5901965498924255,-1.5836025774478912 -0.2240627072751522,-1.3039974868297577 l-0.223466195166111,-1.6426850855350494 0.0031977807520888746,-1.328658014535904 l2.7019518613815308,-4.8622727394104 1.899573653936386,-1.127035692334175 l2.0727385580539703,-0.623285174369812 1.8358278274536133,0.09599819779396057 l1.577409952878952,0.5574249476194382 3.29875648021698,2.0219869911670685 l0.589715838432312,0.807410329580307 0.855114534497261,1.7145489156246185 l0.6271331012248993,3.646518886089325 0.9906324744224548,1.6380520164966583 l0.11775879189372063,1.7740695178508759 -0.8241220563650131,2.316475510597229 l-1.523028314113617,1.5551409125328064 -1.826222836971283,0.8850271254777908 l-4.6943143010139465,-0.6327550858259201 -2.0124144852161407,-1.2059956789016724 l-0.8311454206705093,-1.4312231540679932 -0.2069072611629963,-1.4404672384262085 l-0.05373584106564522,-1.0357507318258286 m6.994261741638184,-3.8098368048667908 l0.5121807381510735,0.033297010231763124 m-8.939705491065979,2.5377067923545837 l0.00033925913157872856,0.00099569842859637 m3.660791516304016,-1.5028247237205505 l1.7866851389408112,0.0008848321886034682 m0.892300009727478,3.3896788954734802 l4.884898066520691,0.993557944893837 m-0.0743590435013175,1.161884218454361 l-0.2881995774805546,0.8167116343975067 m-1.0587961226701736,1.79127037525177 l-7.334415316581726,1.433100402355194 m3.3605176210403442,-11.002492904663086 l-1.911875307559967,0.3320181742310524 m-1.9582626223564148,0.22283729165792465 l-0.000702822653693147,-0.7539032399654388 m5.575615763664246,6.397277116775513 l-0.4078065976500511,1.839701533317566 0.996672585606575,4.523192644119263 l1.837822049856186,0.794370248913765 1.18181012570858,-0.014504964929074049 l1.1680205166339874,-0.36039549857378006 m-9.672600626945496,-8.117976784706116 l2.1783116459846497,-0.6338897347450256 m-4.26494687795639,-1.038268804550171 l0.925174281001091,-0.36348316818475723 m5.149151086807251,14.770622253417969 l-0.4667230695486069,1.8557649850845337 1.77047461271286,20.004873275756836 m-5.2210599184036255,-19.54406499862671 l-0.7768888771533966,0.8034944534301758 -2.634623646736145,6.9561767578125 l0.051766615360975266,1.436203122138977 3.5005173087120056,-0.0007367401849478483 l0.27886901050806046,-0.6502178311347961 -0.3031644970178604,-2.297053635120392 l0.5504249408841133,-2.247539311647415 1.436232878404553e-05,-2.0793549716472626 m5.655587911605835,-1.0509836673736572 l1.3091526925563812,-1.2362835556268692 0.7213409245014191,-0.6159794330596924 l0.1106836274266243,-1.6663436591625214 -1.0391264408826828,-2.6105600595474243 l-1.442527323961258,-2.742666006088257 -5.071505308151245,-3.266081213951111 l-1.071009784936905,-0.8739142119884491 -0.35790320485830307,-3.2622814178466797 l-0.8703052252531052,-1.6211748123168945 m-0.7186993956565857,19.98676300048828 l-0.17553651705384254,2.7647045254707336 m83.11755712636341,10.907405836915132 l-0.07261669263243675,0.0384478853084147 m2.088797837495804,-37.169246673583984 l0.7640969753265381,1.0237566381692886 1.9856910407543182,1.3442771136760712 l3.498615324497223,2.446333169937134 4.06671941280365,3.1235167384147644 l2.0162247121334076,2.0323017239570618 0.9050431847572327,0.683501735329628 l0.4136073961853981,0.013660165714100003 1.2408910691738129,-0.4136129468679428 l0.5500989034771919,-0.460723452270031 0.4435606300830841,-2.145063132047653 l-2.0272520184516907,-2.545435130596161 -2.7528774738311768,-2.004607319831848 l-2.857189178466797,-1.6340155899524689 -1.8886861205101013,-0.9179957956075668 l-5.421282649040222,-2.1832475066184998 -3.0388808250427246,-0.6004141271114349 l-2.361948788166046,0.5735740065574646 -1.6881412267684937,1.2139666825532913 l-1.6732951998710632,1.7483517527580261 -0.9745518863201141,2.052391618490219 l-0.6426366418600082,4.440917670726776 -0.42159251868724823,2.5399050116539 l0.37333905696868896,6.455286741256714 0.9818584471940994,4.436229765415192 l0.655880868434906,1.7664144933223724 1.5707921981811523,2.7013033628463745 l1.2149038165807724,0.9693969041109085 m11.8990957736969,-24.406766891479492 l2.8643932938575745,-2.118879407644272 2.54666268825531,-1.555650383234024 l3.3710160851478577,-1.4389117062091827 1.6649341583251953,-0.45778118073940277 l2.224191427230835,-0.43707769364118576 1.5802939236164093,0.08938751183450222 l1.9054053723812103,0.7117784023284912 0.9590859711170197,0.7389049977064133 l0.8721766620874405,1.1968313157558441 0.19317686557769775,3.6724886298179626 l-1.3022737205028534,2.2750721871852875 -1.5122096240520477,1.7113125324249268 l-2.4291598796844482,1.4472374320030212 -4.105627238750458,1.9567309319972992 l-4.946272075176239,0.9420368820428848 m-3.3250343799591064,0.5208361893892288 l3.3847475051879883,-4.695515036582947 2.977151870727539,-1.927577555179596 l1.5129263699054718,-0.18319470807909966 2.088424414396286,0.0009360774129163474 l-0.001128500880440697,0.31962472945451736 m-1.0631447285413742,1.8319959938526154 l1.680866926908493,0.8681861311197281 0.43464910238981247,1.322093904018402 l-1.3784652948379517,3.3753758668899536 -0.19636331126093864,1.7632478475570679 m-3.3119389414787292,17.333035469055176 l-1.975257694721222,1.002725288271904 -0.8024955540895462,1.0999692976474762 m-18.420429229736328,-8.499237298965454 l-0.49843113869428635,1.2858207523822784 m-1.0488487780094147,-1.669333130121231 l-0.6813131272792816,-0.1571590080857277 -8.45001995563507,-1.1864078044891357 m5.208284258842468,-0.39572518318891525 l0.7607902586460114,-0.001412227429682389 m5.486828088760376,-2.8759142756462097 l3.5948696732521057,3.6747273802757263 m2.355128973722458,-22.535793781280518 l-1.1805864423513412,2.9814553260803223 -2.1941883862018585,1.8214619159698486 m9.860723614692688,-5.797600746154785 l1.1504019796848297,-0.19430594518780708 m-21.277148723602295,19.460766315460205 l-2.6110291481018066,0.9557188302278519 -1.1405505239963531,0.683240219950676 m1.2042655795812607,-6.005735397338867 l0.02133757807314396,0.6855420768260956 -0.15904605388641357,1.2659472227096558 l-0.24667123332619667,1.3165435194969177 m8.715193271636963,-1.3027960062026978 l-1.767231673002243,-0.13362327590584755 m5.696605443954468,-2.7780306339263916 l-0.3883121535181999,-1.7879800498485565 m3.756021559238434,-2.1226462721824646 l0.15189948491752148,0.019289510091766715 m-4.280160367488861,1.8792317807674408 l-0.00345327629474923,-0.0026741079636849463 0.1961955986917019,-0.3128347173333168 l1.339762955904007,-1.1047090590000153 1.1244939267635345,-0.9379053860902786 m-1.0265079140663147,1.8356908857822418 l-3.6268821358680725,-0.4649254307150841 -1.338796317577362,-0.806533470749855 l0.661701038479805,-1.8688005208969116 2.5899410247802734,-2.0914192497730255 l2.860144078731537,5.010250210762024 -3.3385393023490906,0.23971769958734512 l0.24239175021648407,0.26695504784584045 m-2.5843149423599243,-7.756757736206055 l-1.1366746574640274,-2.732912302017212 1.3134756684303284,-3.683280348777771 l1.3592009246349335,-0.9288650751113892 1.8582049012184143,0.39955947548151016 l0.9445387125015259,2.01310858130455 m88.1600136029283,20.722625173511915 l-0.31737852841615677,-0.0032796914456412196 2.0487475395202637,-5.621811747550964 l4.270085394382477,-13.083410263061523 3.1323960423469543,-1.429639607667923 l2.480078786611557,0.3883274272084236 2.7420172095298767,2.0463305711746216 l0.7984626293182373,0.8625853061676025 1.4979970455169678,2.294973134994507 l0.7358482480049133,1.914110779762268 0.1617552526295185,2.2723914682865143 l-1.2256250530481339,6.041293144226074 -1.6346685588359833,5.301276445388794 l-2.2476926445961,3.405907154083252 -2.658222019672394,2.962346374988556 l-3.43435138463974,2.8189197182655334 -2.853780686855316,1.6131854057312012 l-3.3388805389404297,1.2905165553092957 -2.8639456629753113,0.39330001920461655 l-1.1076805740594864,-0.15739746391773224 -1.3444142043590546,-0.4685797914862633 l-1.6051289439201355,-1.047959327697754 -1.1096784472465515,-1.1493581533432007 l-0.9361165761947632,-1.4415153861045837 -1.223418042063713,-5.247569680213928 l-0.0009777662489796057,-2.635795772075653 0.2105015330016613,-3.4983614087104797 m-2.750515639781952,1.2305223941802979 l-1.2339214980602264,-2.7576252818107605 -0.7196015119552612,-5.113610625267029 l0.3292511776089668,-1.3242065906524658 0.9447694569826126,-2.3358815908432007 l0.42071200907230377,-0.7490918785333633 1.2489515542984009,-1.793062537908554 l2.1745970845222473,-1.3130983710289001 1.73019677400589,0.00996479531750083 l2.2329728305339813,0.877191498875618 0.46282168477773666,0.7599154114723206 l0.9064973145723343,2.175256460905075 2.3191308975219727,4.764988720417023 l0.29648831114172935,-0.2582206018269062 2.4500946700572968,-0.5105495825409889 l1.2390392273664474,-1.6544200479984283 0.37576038390398026,0.0005498580139828846 l0.5640165135264397,1.316504180431366 0.3062561899423599,3.6541160941123962 l-0.00030198387321433984,1.4214469492435455 -0.2693862281739712,0.49924958497285843 l0.023776523303240538,-0.725712925195694 3.186953365802765,-3.6962661147117615 m-5.8559370040893555,10.600974559783936 l1.7292144894599915,0.4206688702106476 m3.5765263438224792,3.0267998576164246 l0.4604969173669815,-0.00015348030501627363 m-10.421783924102783,-7.256512641906738 l-3.123101592063904,-0.04423107486218214 m9.433585405349731,0.31734395772218704 l-4.900766611099243,0.9812141209840775 m4.10016655921936,-0.31591009348630905 l0.0029988057212904096,1.7510758340358734 -0.0005548087938223034,0.8546259254217148 m-0.07028568536043167,2.0301643013954163 l3.0598193407058716,0.2510817348957062 m-5.788887143135071,2.200721651315689 l10.109000205993652,1.1516499519348145 m-9.380937814712524,-10.102999210357666 l-0.4446147382259369,0.5965068191289902 0.5982429906725883,1.1146000027656555 m6.983024477958679,6.133552193641663 l1.5058425068855286,-2.260080575942993 2.979196012020111,-0.7212848216295242 m-1.5442538261413574,6.914663314819336 l5.5044543743133545,-1.617034673690796 m-8.590770363807678,-6.1382341384887695 l-0.2929707430303097,2.0411787927150726 -0.4064854234457016,1.1838794499635696 l-1.1260206252336502,0.8972196280956268 m2.9152971506118774,-3.538658618927002 l-11.923493146896362,-0.5477229505777359 -0.9791931509971619,0.32021429389715195 l0.3789311647415161,2.272658944129944 0.0010049432603409514,1.7907214164733887 l0.008235233253799379,2.2952236235141754 0.016085562529042363,3.126630485057831 m13.591969013214111,-15.518293380737305 l-3.0554068088531494,-0.5538645014166832 -1.8276174366474152,-0.09893005713820457 l-2.8381824493408203,1.1339861154556274 -3.758828639984131,3.4195664525032043 l-2.7729320526123047,5.249954462051392 m11.154985427856445,-2.5449776649475098 l0.3251729905605316,-2.380078285932541 0.47615107148885727,-3.730226457118988 m-22.56129026412964,11.988586187362671 l-1.8155327439308167,-0.13503131456673145 -1.1395708471536636,0.16861002892255783 l0.0018788964371196926,-1.634356677532196 m13.265501260757446,0.16298100352287292 l1.5112987160682678,-0.37924226373434067 0.891563668847084,-0.3293333575129509 l1.2260520458221436,3.5982581973075867 0.0075771554838865995,0.5942284688353539 m73.00212427667248,-14.770959557918104 l-0.2590717561542988,0.3370387852191925 m0.34690171480178833,-17.843821048736572 l-0.007619612733833492,-0.12732535600662231 8.155208230018616,-2.1042096614837646 l4.546241760253906,0.006554185529239476 2.821761667728424,0.7295321673154831 l1.4313143491744995,1.0459882766008377 -0.002087785687763244,-0.6358949840068817 l2.357257753610611,2.304084300994873 1.3743184506893158,1.6899196803569794 l1.1345195025205612,2.9348257184028625 0.642239898443222,3.7251266837120056 l-0.34461934119462967,0.6647401303052902 -5.5612146854400635,4.7442057728767395 l-4.0057119727134705,1.2549765408039093 -3.4856265783309937,0.6763090193271637 l-5.041993856430054,0.599888376891613 -4.220111966133118,0.000834285601740703 l-3.19830060005188,-0.3867768123745918 -1.7583176493644714,-0.8834382146596909 l-3.402198553085327,-2.753424346446991 -1.0901138931512833,-1.8842895328998566 l-0.45332305133342743,-4.70128059387207 0.44288519769907,-4.255921244621277 l0.805199071764946,-2.5365155935287476 1.5465018153190613,-3.7885940074920654 l2.713685631752014,-4.687192142009735 1.5579421818256378,-1.2006115913391113 m8.909101486206055,3.1727710366249084 l2.040195018053055,-0.18090225756168365 0.6896348297595978,0.0009921062883222476 l2.9771432280540466,-2.6590946316719055 1.894683986902237,0.0006872688391013071 l1.3376379013061523,3.95359069108963 0.7405154407024384,3.514145612716675 l-0.0010938077321043238,1.2988907098770142 0.08866564370691776,0.2326788567006588 l-0.2832861430943012,-0.055106040090322495 -3.173563778400421,-3.170042932033539 l-1.4074800908565521,0.2115255780518055 -1.737722009420395,3.265025317668915 l-0.6239349767565727,0.9130314737558365 -0.9726216644048691,-0.8356624096632004 l-0.22425418719649315,-1.529037207365036 -2.1079330146312714,-9.021078944206238 m5.387090444564819,17.177590131759644 l-1.9783945381641388,6.945133209228516 -1.25595360994339,4.052842557430267 m18.808751106262207,-19.61829900741577 l0.0010613199992803857,4.849142134189606 -1.1171483248472214,7.927173376083374 l0.12962509877979755,1.2127434462308884 -0.4171358793973923,3.796420693397522 m1.2289480865001678,8.965958952903748 l1.1859425157308578,-0.6692925840616226 0.0008039166277740151,1.980050951242447 l0.003986336232628673,5.724815130233765 0.0007765409100102261,1.1286090314388275 m-29.67116355895996,3.1533485651016235 l-1.0522137582302094,-2.03363299369812 3.398253917694092,1.3521137833595276 l3.563407063484192,2.063872814178467 m-2.7880683541297913,-0.3940696269273758 l-0.1280171051621437,-5.958274006843567 m10.344635248184204,-0.2505815401673317 l0.5445961281657219,4.545069932937622 m1.7579132318496704,-2.0345431566238403 l-1.0490217804908752,2.289106547832489 -2.591208815574646,1.7871765792369843 m-14.399842023849487,2.592746615409851 l2.774920165538788,3.768920600414276 5.4945456981658936,3.4939005970954895 m1.6927577555179596,-18.79379153251648 l0.31199028715491295,-6.973468661308289 m-0.05413302220404148,-1.7282049357891083 l-4.726808965206146,-3.529313802719116 m-9.533432603348047e-05,-0.5597907677292824 l0.1508173905313015,-3.540731966495514 2.0405742526054382,-6.071917414665222 l0.7957607507705688,-2.39980012178421 m-3.8096174597740173,0.13407655991613865 l-0.3573371097445488,0.6107916682958603 0.05981219932436943,0.9675796329975128 l-1.218041107058525,1.4378546178340912 -0.48392951488494873,0.39298828691244125 l-0.04899442661553621,-0.0026284359046258032 m3.7629252672195435,-7.889370322227478 l0.15675576403737068,1.8805325031280518 m-7.4149006605148315,-12.235698699951172 l-0.29120564460754395,1.3255968689918518 1.2372483313083649,1.6151471436023712 l0.9075732529163361,0.3466958925127983 1.2248224020004272,-0.397663414478302 l1.2499839812517166,-0.9568268060684204 m11.719648838043213,0.06558441556990147 l1.1419810354709625,-0.20123915746808052 1.5968962013721466,0.8892957121133804 l-0.6562821567058563,0.12761021964251995 -1.7100338637828827,0.09592928923666477 l-3.9312517642974854,-0.00032883835956454277 0.7360455393791199,-1.2784609198570251 l0.6712860614061356,-0.7249756902456284 m77.47892767019948,35.238672132208535 l-0.0017904676496982574,-0.1005313266068697 m0.9455905109643936,-24.157555103302002 l0.7081428915262222,5.3518372774124146 7.8501856327056885,7.113094925880432 l2.9619744420051575,1.463068425655365 2.1607738733291626,0.5258962884545326 l-0.18281299620866776,-0.03283229423686862 0.13116671703755856,-1.2692365050315857 l0.4513605684041977,-3.4714430570602417 -1.546752005815506,-6.1705416440963745 l-2.3731017112731934,-4.835206568241119 -1.3721990585327148,-2.0235277712345123 l-1.426098346710205,-1.6355909407138824 -2.614637613296509,-2.7445006370544434 l-7.121214866638184,-5.826227068901062 -0.562141090631485,-1.1572667956352234 l-0.8417662233114243,-0.9489797055721283 -3.9729884266853333,-3.4201982617378235 l-0.8917152881622314,-0.027030229102820158 -3.9239615201950073,0.0017083417333196849 l-3.711507022380829,1.8626050651073456 -0.0018061458831653,4.035719633102417 l1.298125982284546,5.052292346954346 1.823141872882843,4.785668253898621 l3.4643280506134033,6.738348603248596 3.9934787154197693,5.494167804718018 l1.4332783222198486,-0.8793263137340546 3.6396530270576477,-1.5036532282829285 l4.1324761509895325,-2.4000082910060883 m-12.828513383865356,5.96147358417511 l-3.5290735960006714,-0.15788646414875984 -1.1012226343154907,1.1643429100513458 l-1.9097857177257538,4.443267583847046 -0.3861039876937866,1.5907929837703705 l-0.032886185217648745,2.6796475052833557 0.0006881259469082579,0.015320878010243177 l2.132759541273117,0.10885577648878098 2.4353420734405518,-0.000337925084750168 l0.7808380573987961,1.4134740240479005e-05 1.1026717722415924,-0.19295098260045052 l3.400672972202301,-1.3259531557559967 1.264486163854599,-0.9475336223840714 l-1.9494646787643433,7.710389581916388e-05 m24.524877071380615,-11.904526948928833 l-4.743136167526245,0.7296069711446762 -0.003546966763678938,0.6681151688098907 l3.296269178390503,-0.6025261431932449 1.5722474455833435,-0.43679315596818924 l0.0008090083429124206,0.9716774523258209 0.1598574034869671,1.3944613933563232 m-0.8370915055274963,-10.914649963378906 l-0.8359081298112869,-0.7005147635936737 -2.0287518203258514,-2.1420294046401978 l-3.126714825630188,-2.7547159790992737 0.9832433611154556,-1.2655553221702576 m-18.13843011856079,30.90942144393921 l-0.820554569363594,0.002223614137619734 m7.576776742935181,-2.9504823684692383 l0.8302327245473862,1.0551604628562927 m-1.3349832594394684,6.439574956893921 l0.2733771689236164,2.191048562526703 m12.8472900390625,20.79472303390503 l1.7969617247581482,3.858349919319153 m5.242282748222351,-25.57589054107666 l2.8662189841270447,-0.043158428743481636 0.0013699654664378613,0.10683544911444187 l1.1964775621891022,1.6433966159820557 m-17.03912854194641,-7.271803021430969 l-0.890268087387085,2.7360180020332336 m16.600379943847656,-22.832348346710205 l-2.5206443667411804,-1.1531203240156174 m-39.93549585342407,-3.9637526869773865 l-0.011891830945387483,0.020731643307954073 0.11208681389689445,-0.00022024252757546492 l0.6505152583122253,-0.6787187606096268 0.22088568657636642,0.0009059928561327979 l-0.28397053480148315,0.8063315600156784 m-0.0014784951054025441,0.5544614419341087 l0.9761890023946762,0.5786659568548203 -0.6592845171689987,-1.0480013489723206 l0.37657827138900757,-1.0313878953456879 2.1511314809322357,0.014516148949041963 m17.881920337677002,-2.0314952731132507 l0.3307465463876724,-4.153848886489868 0.8488090336322784,-0.4811978340148926 l1.6943036019802094,-0.042484928853809834 1.0144122689962387,2.600123882293701 l-0.0333175715059042,4.24782395362854 2.0594526827335358,-1.4956402778625488 m-19.09703493118286,5.3607600927352905 l-0.0015641374920960516,3.486027419567108 6.800958514213562,-0.5117930844426155 l-0.5279265716671944,-1.1141093075275421 m20.55424213409424,17.401304244995117 l-4.915598034858704,2.495708018541336 1.5880891680717468,0.2711685374379158 l10.143465995788574,-0.4793877899646759 -3.2230624556541443,0.6375943869352341 l-2.935500741004944,0.7263141870498657 -8.853119611740112,2.4962715804576874 l4.168647825717926,-6.852827072143555 m52.62235253890594,21.13092319709665 l-0.38634710013866425,-0.30157020315527916 m18.59122633934021,-29.173030853271484 l-1.0302425920963287,0.4064866155385971 -0.7873595505952835,2.915911078453064 l-0.21892189979553223,3.446924090385437 1.0502131283283234,2.9168665409088135 l1.3407617807388306,2.3530076444149017 8.063254952430725,5.101060271263123 l0.8748826384544373,-0.33498048782348633 1.5803055465221405,-1.1651833355426788 l0.8577992022037506,-1.3043516874313354 1.901898980140686,-6.472221612930298 l0.6275187432765961,-2.135618180036545 0.07366357836872339,-1.3568204641342163 l-0.5286800488829613,-1.5274249017238617 -4.067202508449554,-4.486274719238281 l-3.3332544565200806,-1.5861818194389343 -4.557240307331085,-1.0373710840940475 l-0.004040680069010705,0.6604040414094925 -0.9741634875535965,1.067175418138504 m-0.45949649065732956,-0.4079366847872734 l0.1245090551674366,2.0801568031311035 -1.6971099376678467,0.519435815513134 l-0.8291297405958176,0.39718836545944214 -2.297476828098297,5.62543511390686 l-3.4511759877204895,6.035474538803101 -1.5031829476356506,4.9912020564079285 l-0.37191979587078094,7.260801792144775 -0.03164589172229171,3.1636935472488403 l0.8165211230516434,1.9023069739341736 1.6106508672237396,1.897309124469757 l1.433136910200119,1.0732229053974152 0.6070981547236443,-0.05584042053669691 l1.8379707634449005,-5.55733859539032 -0.7837790250778198,-4.820190370082855 l4.290251731872559,4.55325186252594 4.535387456417084,3.8318926095962524 l6.622633337974548,-0.04578331019729376 4.360589683055878,-1.2203208357095718 l5.438708662986755,-1.550591140985489 4.784685969352722,-3.532818853855133 l-1.651635318994522,-5.310138463973999 -3.3442002534866333,-3.516440987586975 l-1.7083972692489624,-0.3288251534104347 -15.333307981491089,0.07276182528585196 l-1.4110109210014343,-2.542024254798889 9.106230735778809,-4.5861440896987915 l2.215236723423004,1.3943330943584442 m0.029097208753228188,0.38617197424173355 l-0.5561771988868713,0.3026255592703819 -1.404498964548111,2.0195819437503815 m5.878966450691223,-0.051817335188388824 l0.07959958165884018,-0.3413725271821022 -1.870710551738739,-0.6074681505560875 l1.119699776172638,-0.4419231042265892 1.1175072193145752,-0.020450467709451914 l0.5973701924085617,0.23774955421686172 m-3.1958267092704773,5.145220160484314 l-1.2004980444908142,0.693788081407547 -2.335614264011383,0.8845188468694687 m-3.685164153575897,-0.8750844746828079 l-4.1627562046051025,-0.9471312910318375 m4.9947768449783325,2.922844886779785 l-1.2963001430034637,0.14551982283592224 m2.2475138306617737,-3.3644402027130127 l0.003140545159112662,-2.217690944671631 -1.3369695842266083,-8.725420236587524 m0.3511296585202217,10.679558515548706 l0.0398325314745307,-1.4712926745414734 1.3209950923919678,-7.910339832305908 m0.864541083574295,-1.8668881058692932 l-0.6810986995697021,1.6418905556201935 m-13.188220262527466,-10.560890436172485 l2.090143859386444,-1.0228919237852097 8.487926721572876,-0.0006402991130016744 l0.9889538586139679,-1.6329452395439148 m2.059093713760376,-0.5134241282939911 l-0.0001427129882358713,-4.002782702445984 2.490060329437256,-1.7400121688842773 l9.858983755111694,-3.9612317085266113 -4.578159749507904,21.220853328704834 l-2.1630242466926575,15.581843852996826 -0.9791605174541473,9.06445562839508 l0.2364099957048893,-0.19252462312579155 1.2736721336841583,-1.891648769378662 m0.9637027233839035,-13.782626390457153 l2.3757851123809814,-2.8213629126548767 2.47904509305954,0.40475159883499146 l2.246819883584976,-0.37054531276226044 m-44.344072341918945,6.99311375617981 l0.721549466252327,-1.4601044356822968 -1.398354172706604,-0.6476816534996033 l-2.776046395301819,-0.8839942514896393 -0.398038811981678,0.5737919732928276 l1.9151847064495087,0.3668088838458061 -0.7752206176519394,-0.2756816893815994 l-2.967105507850647,-0.18765196204185486 -1.931779533624649,-0.0006796784873586148 m1.5186789631843567,-0.14507168903946877 l1.2227249145507812,-3.036125898361206 " fill="none" stroke="black" stroke-width="1" /></svg>