<?xml version="1.0" encoding="utf-8" ?>
<svg baseProfile="full" height="79.3816927075386" version="1.1" width="77.67111478373408" xmlns="http://www.w3.org/2000/svg" xmlns:ev="http://www.w3.org/2001/xml-events" xmlns:xlink="http://www.w3.org/1999/xlink"><defs /><rect fill="white" height="79.3816927075386" width="77.67111478373408" x="0" y="0" /><path d="M33.552890717983246,53.67733521386981 m0.0,0.0 m-0.8049778640270233,-23.344357013702393 l6.137956380844116,-3.7230226397514343 2.1130669116973877,0.20124446600675583 l2.213689088821411,0.7043556123971939 2.1130669116973877,1.207466796040535 l2.918044626712799,2.6161780953407288 1.6099557280540466,2.1130669116973877 l1.6099557280540466,3.5217782855033875 0.30186669901013374,2.3143114149570465 l-0.20124446600675583,2.41493359208107 -2.0124447345733643,4.125511646270752 l-3.42115581035614,3.11928927898407 -3.8236448168754578,1.5093335509300232 l-3.0186671018600464,0.20124446600675583 -3.11928927898407,-0.6037333980202675 l-3.2199114561080933,-1.3080890476703644 -2.1130669116973877,-1.3080890476703644 l-2.6161780953407288,-2.3143114149570465 -2.3143114149570465,-3.11928927898407 l-0.6037333980202675,-2.6161780953407288 0.20124446600675583,-2.716800272464752 l1.4087112247943878,-2.918044626712799 3.3205336332321167,-3.622400462627411 l1.5093335509300232,-1.1068445444107056 3.5217782855033875,-1.4087112247943878 l2.0124447345733643,0.0 m-7.446045279502869,6.942933797836304 l2.918044626712799,-4.326756000518799 2.5155559182167053,-1.8112002313137054 l1.4087112247943878,-0.5031111836433411 2.213689088821411,-0.10062223300337791 l3.3205336332321167,0.7043556123971939 4.326756000518799,2.5155559182167053 l1.71057790517807,1.5093335509300232 1.4087112247943878,2.1130669116973877 l0.30186669901013374,3.3205336332321167 -0.30186669901013374,2.213689088821411 l-0.7043556123971939,1.8112002313137054 -2.1130669116973877,2.41493359208107 l-2.213689088821411,1.207466796040535 -2.41493359208107,0.7043556123971939 l-3.5217782855033875,0.10062223300337791 -4.427378177642822,-1.207466796040535 l-3.622400462627411,-2.1130669116973877 -1.5093335509300232,-1.6099557280540466 l-1.0062223672866821,-1.9118224084377289 -0.20124446600675583,-2.0124447345733643 l0.30186669901013374,-1.3080890476703644 0.8049778640270233,-1.5093335509300232 l1.4087112247943878,-1.3080890476703644 m8.854756355285645,3.924266993999481 l0.0,-6.137956380844116 m-0.5031111836433411,6.339200735092163 l3.5217782855033875,-2.41493359208107 2.41493359208107,-0.6037333980202675 m-3.7230226397514343,-4.528000354766846 l0.8049778640270233,1.9118224084377289 m3.8236448168754578,0.7043556123971939 l0.0,2.1130669116973877 m0.30186669901013374,3.11928927898407 l-0.8049778640270233,3.3205336332321167 m-4.427378177642822,1.1068445444107056 l0.0,0.0 m-4.528000354766846,0.6037333980202675 l0.0,0.0 m-3.42115581035614,-3.11928927898407 l0.0,0.0 m-0.5031111836433411,-4.628622829914093 l-0.9056001156568527,3.11928927898407 m3.8236448168754578,-6.54044508934021 l-1.1068445444107056,2.3143114149570465 m-2.918044626712799,6.641067266464233 l1.1068445444107056,1.5093335509300232 1.1068445444107056,0.40248893201351166 m5.634844899177551,0.7043556123971939 l1.6099557280540466,0.8049778640270233 0.9056001156568527,0.0 m3.0186671018600464,-15.898312330245972 l1.71057790517807,-2.0124447345733643 2.0124447345733643,-0.9056001156568527 l2.1130669116973877,-0.30186669901013374 1.5093335509300232,0.9056001156568527 l0.8049778640270233,1.8112002313137054 0.0,0.7043556123971939 l-0.9056001156568527,1.8112002313137054 -0.9056001156568527,0.8049778640270233 l-1.5093335509300232,0.6037333980202675 -1.71057790517807,-0.40248893201351166 m-14.791468381881714,-5.332978367805481 l-3.0186671018600464,-0.5031111836433411 -0.6037333980202675,0.20124446600675583 l-2.213689088821411,1.3080890476703644 -1.6099557280540466,1.9118224084377289 l-0.30186669901013374,1.71057790517807 0.40248893201351166,1.0062223672866821 l1.6099557280540466,1.5093335509300232 1.3080890476703644,0.6037333980202675 m19.9232017993927,14.69084620475769 l3.42115581035614,5.332978367805481 m-21.53315782546997,-6.84231162071228 l-4.125511646270752,5.031111836433411 -1.1068445444107056,1.9118224084377289 l0.0,0.6037333980202675 " fill="none" stroke="black" stroke-width="1" /></svg>