<?xml version="1.0" encoding="utf-8" ?>
<svg baseProfile="full" height="102.02735554426908" version="1.1" width="833.0938856303692" xmlns="http://www.w3.org/2000/svg" xmlns:ev="http://www.w3.org/2001/xml-events" xmlns:xlink="http://www.w3.org/1999/xlink"><defs /><rect fill="white" height="102.02735554426908" width="833.0938856303692" x="0" y="0" /><path d="M25,27.386646773666143 m0.0,0.0 m38.68430728582098,17.075266475740136 l-0.8295188844203949,-1.4596453309059143 -2.3720601201057434,-1.9185426831245422 l-2.370470017194748,-1.0329005867242813 -7.694604396820068,-1.004323661327362 l-3.4692898392677307,0.6293099373579025 -1.9945049285888672,1.0696488618850708 l-2.373717725276947,2.4392543733119965 -1.284269243478775,2.5510409474372864 l-0.9217111766338348,4.392476975917816 -0.00012517464710981585,5.633373260498047 l1.6169129312038422,4.91382896900177 2.7417245507240295,4.250454306602478 l1.6622552275657654,1.6969513893127441 5.117083191871643,3.3399277925491333 l3.754303753376007,1.44074946641922 8.44530463218689,1.4606477320194244 l7.613885402679443,-0.0001934002102643717 4.3975672125816345,-0.9590603411197662 l3.714994788169861,-1.4895881712436676 2.960510551929474,-1.8726441264152527 l2.307228147983551,-2.202189713716507 1.6629476845264435,-2.511146068572998 l1.0581470280885696,-2.6825761795043945 0.540025569498539,-4.129140079021454 l-0.0002046793269983027,-3.535822331905365 -0.6630133837461472,-2.850709557533264 l-1.143437847495079,-2.4360565841197968 -1.5896587073802948,-2.1372853219509125 l-2.060541659593582,-1.8090520799160004 -3.745679557323456,-2.0278288424015045 l-3.2525092363357544,-0.9932653605937958 -4.730845093727112,-0.593017153441906 l-7.044385671615601,1.096818521618843 -1.977483481168747,0.9835092723369598 m0.03011082299053669,-0.27213532477617264 l-0.2837587147951126,-2.040085792541504 -0.8753535151481628,-2.8713366389274597 l-2.0748846232891083,-4.602283537387848 -1.1708249896764755,-1.8793211877346039 l-1.9338777661323547,-1.6710774600505829 -1.3915902376174927,-0.3888396546244621 l-2.23711296916008,0.29601093381643295 -1.3463112711906433,0.9237589687108994 l-0.780961662530899,1.2816523015499115 -0.1511351391673088,1.4936341345310211 l0.7230333238840103,1.6429026424884796 4.110235571861267,4.684151113033295 l2.798779606819153,2.266533225774765 m7.151787281036377,7.876470685005188 l7.167587876319885,-0.041055893525481224 m71.53637833020184,-3.7282470673653734 l-0.8299277722835541,-1.4765238761901855 -2.420578747987747,-1.9668406248092651 l-3.0164211988449097,-1.333373337984085 -7.404955625534058,-0.8628407120704651 l-2.770075798034668,0.5275017395615578 -2.0038747787475586,1.0856286436319351 l-2.1369144320487976,2.5288867950439453 -1.867484450340271,4.065927267074585 l-0.5859418585896492,4.950322508811951 -0.00022806960259913467,4.43084180355072 l1.4836260676383972,4.685031473636627 1.454005092382431,2.4932758510112762 l2.0674094557762146,2.12783619761467 3.110598921775818,2.1012353897094727 l13.431810140609741,4.096904695034027 4.860830903053284,0.37696070969104767 l5.570454001426697,0.0004951872688252479 3.8689693808555603,-0.7672487944364548 l4.828382134437561,-1.9183656573295593 3.230150043964386,-2.24082812666893 l1.3190951943397522,-1.4467030763626099 1.8366891145706177,-3.025887608528137 l1.288391351699829,-4.349760413169861 -0.0004886757596977986,-3.992733359336853 l-0.6274072080850601,-2.80594140291214 -1.2307145446538925,-2.613581418991089 l-1.7640526592731476,-2.436835914850235 -2.111721932888031,-1.9843606650829315 l-2.79471218585968,-1.6366378962993622 -4.614150524139404,-1.605806052684784 l-4.963807761669159,-0.7862621545791626 -4.527497291564941,-0.0006168631807668135 l-3.6606553196907043,0.751224011182785 -1.3668474555015564,0.7500896602869034 m3.288918435573578,-1.334005445241928 l-0.3128005936741829,-1.7092974483966827 -0.17986983060836792,-3.0708160996437073 l0.1971035823225975,-2.674444615840912 0.6951919943094254,-2.5876784324645996 l0.9430207312107086,-1.52205228805542 1.972823292016983,-1.509833186864853 l1.8035444617271423,-0.6952082365751266 1.3405594229698181,0.029777477029711008 l1.3290680944919586,0.9852395206689835 1.3004860281944275,2.9620355367660522 l-5.170602202415466,8.444443941116333 -2.8188371658325195,3.6071544885635376 l-2.1438947319984436,3.505045175552368 m4.57368940114975,2.5949513912200928 l-2.1890664100646973,2.70609974861145 m77.11539630927291,-8.388149423410596 l-0.8612893521785736,-1.4187832176685333 -2.024635225534439,-1.9020727276802063 l-2.3329323530197144,-1.093176230788231 -6.171560883522034,-1.5006613731384277 l-2.2002100944519043,1.858725454439991e-05 -6.046414375305176,3.2237666845321655 l-2.6126638054847717,4.462169110774994 -0.7428494840860367,3.0919894576072693 l-0.1724729873239994,3.9254403114318848 0.22910112515091896,1.7960341274738312 l1.2692788243293762,3.5394755005836487 2.0319753885269165,3.369699716567993 l2.3996418714523315,2.6785820722579956 7.177002429962158,4.832772612571716 l4.487784206867218,1.6398830711841583 8.761122226715088,1.3055278360843658 l6.067878007888794,-0.0005304290607455187 2.555266320705414,-0.5715519189834595 l4.325290024280548,-1.878659874200821 3.4825846552848816,-2.3348279297351837 l1.430407166481018,-1.411859393119812 3.331180512905121,-4.515071511268616 l1.596725583076477,-3.6686348915100098 0.5531954392790794,-2.8576210141181946 l0.05313785746693611,-2.578841745853424 -0.616694986820221,-2.197078764438629 l-1.3510601222515106,-2.513343393802643 -2.53275066614151,-3.13521146774292 l-2.5438690185546875,-2.1318699419498444 -2.8012722730636597,-1.6545288264751434 l-4.666184186935425,-1.50477796792984 -5.3183335065841675,-0.0005150413198862225 l-4.50504869222641,0.7955515384674072 -3.5406598448753357,1.2875966727733612 m0.17915580421686172,-1.7731812596321106 l-0.6022575870156288,-1.5896503627300262 -0.9700958430767059,-2.378727048635483 l-1.9156679511070251,-3.3803248405456543 -1.305527538061142,-1.5961004793643951 l-1.170603558421135,-0.9548311680555344 -1.21536985039711,-0.9208629280328751 l-0.7106703519821167,0.07800208870321512 -2.6803576946258545,2.1005286276340485 l-0.00016848143786774017,2.8129157423973083 0.9945555031299591,2.5297370553016663 l1.61905437707901,1.8978287279605865 4.5801591873168945,3.9345937967300415 l4.487772285938263,2.8310367465019226 m2.8132370114326477,3.507048487663269 l0.7324250787496567,-0.13854876160621643 m76.57517253386914,-4.205578399287333 l-0.7609910517930984,-1.4584127068519592 -2.5989848375320435,-2.0066048204898834 l-2.6281780004501343,-1.0758449882268906 -5.227041840553284,-0.5018015578389168 l-2.368924915790558,0.453115738928318 -3.1067243218421936,1.512959748506546 l-3.2514211535453796,2.736669182777405 -1.2234731018543243,1.508028656244278 l-2.3365649580955505,7.254230976104736 0.3030410408973694,6.093146204948425 l1.758495420217514,3.512168526649475 1.702532023191452,1.9205467402935028 l1.8960267305374146,1.4836643636226654 4.324122071266174,2.008676379919052 l10.497229099273682,3.218255341053009 10.701358318328857,1.097293496131897 l5.3171175718307495,-0.5631057918071747 2.8405097126960754,-0.8323884010314941 l2.580500841140747,-1.2985758483409882 2.65566885471344,-2.145579606294632 l2.802424430847168,-3.4399253129959106 2.2356821596622467,-4.724617302417755 l0.7689742743968964,-3.344776928424835 7.151800218707649e-05,-2.5158634781837463 l-0.5759060010313988,-2.47866153717041 -1.1216899007558823,-2.1083396673202515 l-1.5315322577953339,-2.017105221748352 -2.2591321170330048,-1.90408393740654 l-2.5744614005088806,-1.3753046095371246 -3.1181365251541138,-1.1354073137044907 l-3.048557937145233,-0.5522195622324944 -7.171310186386108,0.0001424906076863408 l-3.140627443790436,1.3088099658489227 -1.9133439660072327,1.6452071070671082 m0.09059486910700798,-0.5499313771724701 l-0.19277691841125488,-4.688720107078552 -0.44700779020786285,-4.57122415304184 l-0.5321275442838669,-1.8304777145385742 -0.823487788438797,-1.4750635623931885 l-1.5650257468223572,-1.1297930777072906 -4.013936519622803,-1.094110831618309 l-3.934451639652252,2.912108600139618 -0.822315514087677,1.5270690619945526 l0.0001238880940945819,2.2277937829494476 2.003062069416046,5.175641179084778 l2.3577460646629333,2.965022325515747 3.836219608783722,3.4484663605690002 l3.0312374234199524,3.307127058506012 m-3.522881865501404,-6.244163513183594 l0.5284018069505692,3.336106240749359 m81.39658705430747,-7.003846298030112 l-0.8489486575126648,-1.4890235662460327 -2.427634447813034,-1.9689248502254486 l-4.266209006309509,-1.7562082409858704 -6.651408672332764,-0.16291167587041855 l-1.9641181826591492,0.2690831385552883 -1.0750720649957657,0.5853937938809395 l-1.9312317669391632,1.9048084318637848 -2.0821477472782135,3.955294191837311 l-0.9101387113332748,4.638551473617554 0.34898802638053894,10.785759687423706 l1.6323943436145782,4.308147728443146 2.3105548322200775,3.3158710598945618 l4.149047434329987,3.5869476199150085 2.759888768196106,1.3638684153556824 l11.340097188949585,2.453398108482361 3.0196550488471985,0.32855402678251266 l9.396227598190308,-0.8043017983436584 4.918171465396881,-1.4915591478347778 l4.579340815544128,-2.378283441066742 2.247193157672882,-1.565822958946228 l3.267064392566681,-2.7546367049217224 1.4928843080997467,-1.9337321817874908 l0.4220021888613701,-0.9648751467466354 0.00011222282410017215,-3.8915717601776123 l-0.6932219862937927,-3.305029273033142 -1.2554377317428589,-3.0357709527015686 l-1.5268568694591522,-2.4600619077682495 -1.5447573363780975,-1.7550811171531677 l-3.2302138209342957,-2.4910473823547363 -3.685770630836487,-1.8257111310958862 l-2.7630171179771423,-0.9741091728210449 -5.182669758796692,-0.7758866250514984 l-2.9309317469596863,0.14942824840545654 -2.844284474849701,0.9283933043479919 m-0.2095736376941204,-0.39913102984428406 l-0.1776658557355404,-0.7045843452215195 -0.6171143427491188,-2.263343930244446 l-0.7879637181758881,-1.9272275269031525 -3.740707039833069,-7.517539858818054 l-1.6852299869060516,-0.638488382101059 -1.6585999727249146,0.0833522342145443 l0.8125811070203781,2.7496087551116943 1.9556862115859985,1.4521272480487823 l2.3762547969818115,1.4827604591846466 0.9419925510883331,0.4753607138991356 l1.2901389598846436,1.8309962749481201 2.9420694708824158,0.24444986134767532 l-3.118000328540802,2.473570704460144 m-14.947391748428345,18.230801820755005 l-1.914467215538025,2.7645501494407654 m98.10786382372498,-16.346497405320406 l-0.7197555154561996,-1.3530248403549194 -2.1395988762378693,-1.6335107386112213 l-3.8681331276893616,-1.9608470797538757 -8.034443259239197,-1.0983869433403015 l-1.3719111680984497,0.4036654531955719 -1.8174682557582855,1.119174286723137 l-1.905185878276825,1.7213334143161774 -1.6866211593151093,2.5665825605392456 l-1.9333210587501526,10.525752305984497 0.15432778745889664,5.1220619678497314 l1.1392911523580551,3.416091799736023 1.443333625793457,1.5844354033470154 l2.714535892009735,2.38521546125412 4.210876524448395,2.1236929297447205 l8.526187539100647,2.551983594894409 8.157410025596619,1.4249177277088165 l3.5011279582977295,0.1220689807087183 4.038607180118561,-0.9873848408460617 l7.055702209472656,-3.781791627407074 4.030502736568451,-3.779873549938202 l1.2870489060878754,-1.923428475856781 0.6788013875484467,-1.9932997226715088 l0.5644649639725685,-2.9229098558425903 -0.0002166478407161776,-3.434770405292511 l-1.5522882342338562,-4.556639790534973 -1.0646692663431168,-1.9938744604587555 l-2.6702076196670532,-3.334972560405731 -2.0701725780963898,-2.027282416820526 l-2.2218281030654907,-1.4266499876976013 -3.1707268953323364,-1.2547828257083893 l-2.6443326473236084,-0.5246038362383842 -7.199699282646179,-0.18877098336815834 l-4.957548975944519,3.482843041419983 m-0.45046228915452957,-0.38558006286621094 l-0.33628132194280624,-5.671294927597046 0.5034451931715012,-2.507261335849762 l1.1666427552700043,-1.704763025045395 2.9754823446273804,-2.665960192680359 l3.703782558441162,-0.28955068439245224 1.498124748468399,0.7115978002548218 l-0.44438939541578293,3.0505597591400146 -1.0393310338258743,0.7277121394872665 l-1.7111952602863312,0.6896647810935974 -4.55556333065033,1.0398583114147186 l-4.5848748087883,0.9755485504865646 -5.821373462677002,1.1200401186943054 l-1.1379435658454895,0.0355010898783803 -0.7633161544799805,0.00010529586688790005 m18.047467470169067,17.777905464172363 l-4.801141321659088,3.0199071764945984 m80.22371072680471,-11.475824801282215 l-0.7302292436361313,-1.2864267826080322 -2.825441360473633,-2.0510193705558777 l-3.666042685508728,-1.145838126540184 -4.685235917568207,-0.7996482402086258 l-4.248366355895996,0.13071652501821518 -1.8982021510601044,1.4963625371456146 l-3.553106188774109,5.056380033493042 -1.178930476307869,6.106455326080322 l0.3089296445250511,3.396030068397522 0.31023185700178146,1.332227736711502 l1.2968750298023224,2.7334225177764893 2.7501660585403442,4.625876843929291 l2.863740622997284,2.6442527770996094 6.490547060966492,3.872884213924408 l4.425210654735565,1.4561106264591217 9.202498197555542,0.00029580989576061256 l4.018060863018036,-0.3764673322439194 3.681236505508423,-0.6767290085554123 l8.616091012954712,-5.449234247207642 2.6681461930274963,-3.677682876586914 l0.6992433965206146,-1.743268370628357 0.6828773766756058,-1.6639688611030579 l0.19190173596143723,-2.124190032482147 -0.7233407348394394,-2.026292234659195 l-0.7302694767713547,-1.6767561435699463 -0.4982852563261986,-2.3942871391773224 l-0.9457576274871826,-2.8822514414787292 -1.2317336350679398,-2.337370365858078 l-3.320988416671753,-3.738202154636383 -2.806532084941864,-1.6065968573093414 l-2.0574431121349335,-0.43386902660131454 -2.417394518852234,-0.09756320156157017 l-9.947918057441711,1.7545600235462189 -2.7396181225776672,1.3443343341350555 m2.5183606147766113,-1.0328076034784317 l-1.3034892082214355,-4.142252206802368 -1.2712788581848145,-5.464185476303101 l-0.8835642784833908,-4.431856572628021 -0.5181356146931648,-0.6624111533164978 l-3.7875157594680786,-0.9361697733402252 -2.354402095079422,0.3159140422940254 l-1.1819302290678024,1.5858303010463715 0.04348105750977993,1.0503030568361282 l3.2885798811912537,6.853322982788086 1.1907737702131271,2.314966171979904 l1.7572325468063354,2.470428943634033 1.917591392993927,1.2902171909809113 l0.4983465373516083,-0.21487297490239143 1.8745934963226318,-0.5789849907159805 m-3.0863991379737854,5.663982629776001 l0.00810803088825196,-0.006948444643057883 m79.10979874257464,-8.48548050973477 l-0.6859142333269119,-1.4865750074386597 -2.4863919615745544,-1.7711445689201355 l-2.3269639909267426,-1.057640090584755 -4.456286728382111,-0.00033158747100969777 l-7.123627066612244,2.998369038105011 -1.428878903388977,0.7174759358167648 l-1.1946053057909012,1.0585778951644897 -0.9595827758312225,1.70374795794487 l-0.8263172209262848,2.546176016330719 -0.5460405349731445,13.604909181594849 l0.668347105383873,1.8131953477859497 3.0556920170783997,3.640488386154175 l3.92697274684906,2.148756682872772 4.517816603183746,3.1783196330070496 l6.1806124448776245,2.999635636806488 5.415623784065247,0.2091326005756855 l6.249587535858154,-1.4868392050266266 13.301757574081421,-1.6777966916561127 l2.829453945159912,-1.1844442784786224 4.406614601612091,-2.987043261528015 l2.4108295142650604,-2.609926164150238 1.6930225491523743,-2.955692410469055 l0.49402114003896713,-2.6235273480415344 -0.16201039776206017,-1.4926335215568542 l-1.1279023438692093,-1.671653538942337 -1.679692268371582,-2.2213590145111084 l-1.7701643705368042,-3.6566928029060364 -0.7558724284172058,-1.3167895376682281 l-2.379177212715149,-3.322174847126007 -2.203556001186371,-1.5504582226276398 l-2.281215935945511,-1.1770345270633698 -3.42006117105484,0.45599695295095444 l-13.000457286834717,0.8320902287960052 -1.7845673859119415,5.111939311027527 m0.25960056111216545,1.2117363512516022 l0.3935188055038452,-9.734042882919312 1.179421916604042,-1.3014300167560577 l-0.9381989389657974,-3.372163474559784 -0.8121324330568314,-2.8122618794441223 l1.5768590569496155,-1.5061208605766296 -0.19209211692214012,0.12602674774825573 l-1.243176907300949,2.2435839474201202 -1.2225332111120224,1.506575345993042 l-0.5128148198127747,4.862801730632782 -0.3303656727075577,1.1405900120735168 l0.7140270620584488,-0.10971567593514919 9.505951404571533,-0.9449197351932526 m9.538488388061523,2.164442539215088 m65.92831139219925,1.5048803761601448 l-1.0842883586883545,-1.372969001531601 -1.9896876811981201,-1.6856706142425537 l-5.288489460945129,-1.2009207904338837 -6.49122953414917,0.33005625009536743 l-1.8650078773498535,-0.9842123091220856 -4.252742826938629,0.6970652192831039 l-1.573585718870163,2.0220816135406494 -1.4815954864025116,2.956188917160034 l-1.8549583852291107,7.191171646118164 0.07081559393554926,2.933640480041504 l0.12200135737657547,2.9775404930114746 0.6082654744386673,2.1372416615486145 l4.3980929255485535,9.150378108024597 2.1829740703105927,2.1556584537029266 l3.7260231375694275,2.164878398180008 8.234831690788269,2.595444619655609 l9.149045944213867,3.0896061658859253 8.162841796875,-2.0972710847854614 l4.133647382259369,-1.4690659940242767 1.8883293867111206,-1.055123656988144 l3.296736478805542,-2.3303690552711487 1.9799034297466278,-1.754627376794815 l0.5786286294460297,-1.066640242934227 0.3381737694144249,-1.6220855712890625 l0.3853844106197357,-3.2231405377388 -0.30388809740543365,-1.8653872609138489 l-0.3002074733376503,-3.6196550726890564 -3.1237301230430603,-7.131233811378479 l-1.9914524257183075,-3.253192901611328 -3.273525834083557,-3.063865303993225 l-4.295618534088135,-2.2280657291412354 -3.069722354412079,-0.5130753293633461 l-5.6185901165008545,1.317073404788971 0.1444562617689371,0.7408232241868973 l-1.2553299963474274,0.3014775365591049 m-1.6768629848957062,-4.795384109020233 l-0.5538187175989151,-2.8530842065811157 -0.2599523775279522,-1.747424453496933 l1.2227354943752289,-2.582341432571411 3.9367279410362244,-2.807541787624359 l0.26707256212830544,-1.0141928493976593 -1.635042428970337,-2.2939619421958923 l-0.2291206642985344,0.5082992836833 -0.5587046965956688,0.5395827814936638 l-4.557768106460571,4.482315480709076 -0.35858020186424255,0.80577053129673 l-0.3294775262475014,0.9295327961444855 0.5706864967942238,1.530117392539978 m-3.3001038432121277,-3.8383454084396362 m86.16117417579517,12.30203130748123 l-0.6597705185413361,-1.505398005247116 -2.237538844347,-2.485632300376892 l-6.690906286239624,-4.802297949790955 -6.059218645095825,-0.4175574332475662 l-1.0284928977489471,0.5551504343748093 -1.9269295036792755,1.6555263102054596 l-3.259287178516388,5.0023698806762695 -0.9415027499198914,2.9006928205490112 l-0.7646958529949188,4.162857532501221 0.27505792677402496,12.433451414108276 l1.280924528837204,2.4092333018779755 2.076197862625122,1.8378205597400665 l1.741921752691269,0.9983263164758682 6.572094559669495,2.8217950463294983 l2.8634628653526306,-0.19851557910442352 8.113433122634888,0.9353601932525635 l9.159526824951172,-0.5620792135596275 2.8952735662460327,0.5631022900342941 l1.6977283358573914,0.1505692768841982 4.702701568603516,-1.1783984303474426 l2.180846333503723,-1.0903415828943253 1.0113980621099472,-1.1279653757810593 l2.93674498796463,-7.047272324562073 -0.8971390128135681,-5.824853181838989 l-0.8564629405736923,-3.0734413862228394 -1.0731549561023712,-2.3493321239948273 l-0.9301164001226425,-1.504616141319275 -1.7568933963775635,-1.9502002000808716 l-2.1038058400154114,-1.6508308053016663 -0.9336766600608826,-1.0355038195848465 l-3.5926973819732666,-0.1720002479851246 -1.7210841178894043,0.6232305243611336 l-1.0680356621742249,2.4046461284160614 m-1.93893700838089,6.674845814704895 l0.5295028537511826,0.10349947959184647 -0.5770354345440865,-1.305001825094223 l4.543125927448273,-10.537115335464478 0.05658275447785854,-5.241439342498779 l-7.824328541755676,19.485106468200684 -0.9513688832521439,-0.24726662784814835 l-7.083488702774048,4.905332326889038 2.074218988418579,-2.9481515288352966 l6.997511386871338,-8.383607864379883 -5.294967293739319,1.0317690670490265 l0.38672085851430893,-2.6152729988098145 0.2499040775001049,-1.382260024547577 l-5.174848437309265,-4.372802674770355 -0.4420850798487663,-0.0002046386907750275 l-2.345743626356125,-1.8436580896377563 m-7.562852501869202,-1.3909882307052612 l6.199201345443726,5.860302448272705 " fill="none" stroke="black" stroke-width="1" /></svg>