<?xml version="1.0" encoding="utf-8" ?>
<svg baseProfile="full" height="99.80800539255142" version="1.1" width="101.31733864545822" xmlns="http://www.w3.org/2000/svg" xmlns:ev="http://www.w3.org/2001/xml-events" xmlns:xlink="http://www.w3.org/1999/xlink"><defs /><rect fill="white" height="99.80800539255142" width="101.31733864545822" x="0" y="0" /><path d="M47.74062504991889,40.69706844165921 m-0.8049778640270233,-1.5093335509300232 l-2.5155559182167053,-2.0124447345733643 -3.5217782855033875,-1.6099557280540466 l-2.1130669116973877,-0.40248893201351166 -3.11928927898407,0.30186669901013374 l-8.45226764678955,3.924266993999481 -1.207466796040535,1.207466796040535 l-0.9056001156568527,3.2199114561080933 -0.10062223300337791,7.345423102378845 l0.40248893201351166,2.716800272464752 0.7043556123971939,2.1130669116973877 l2.8174224495887756,4.326756000518799 4.930489361286163,3.8236448168754578 l6.23857855796814,3.2199114561080933 3.2199114561080933,1.1068445444107056 l5.2323561906814575,1.0062223672866821 6.942933797836304,0.10062223300337791 l4.326756000518799,-1.1068445444107056 5.936712026596069,-2.6161780953407288 l5.735467076301575,-3.924266993999481 1.9118224084377289,-1.8112002313137054 l2.1130669116973877,-2.918044626712799 0.8049778640270233,-3.11928927898407 l0.0,-3.11928927898407 -0.40248893201351166,-1.9118224084377289 l-1.6099557280540466,-3.2199114561080933 -1.0062223672866821,-1.207466796040535 l-6.339200735092163,-4.930489361286163 -1.6099557280540466,-0.7043556123971939 l-4.125511646270752,-1.0062223672866821 -4.427378177642822,-0.7043556123971939 l-3.924266993999481,0.0 -2.41493359208107,0.6037333980202675 l-3.3205336332321167,1.5093335509300232 m0.30186669901013374,0.0 l0.20124446600675583,-7.546667456626892 0.6037333980202675,-3.0186671018600464 l1.71057790517807,-1.8112002313137054 3.622400462627411,-1.1068445444107056 l2.0124447345733643,-0.10062223300337791 -2.1130669116973877,-0.8049778640270233 l-2.0124447345733643,0.0 -1.5093335509300232,0.5031111836433411 l-1.5093335509300232,1.3080890476703644 -1.207466796040535,2.5155559182167053 l-0.40248893201351166,1.8112002313137054 -0.10062223300337791,6.037334203720093 l0.40248893201351166,2.6161780953407288 m-1.6099557280540466,30.48853635787964 l-2.716800272464752,4.528000354766846 " fill="none" stroke="black" stroke-width="1" /></svg>