<?xml version="1.0" encoding="utf-8" ?>
<svg baseProfile="full" height="88.94219834193791" version="1.1" width="819.1243411006872" xmlns="http://www.w3.org/2000/svg" xmlns:ev="http://www.w3.org/2001/xml-events" xmlns:xlink="http://www.w3.org/1999/xlink"><defs /><rect fill="white" height="88.94219834193791" width="819.1243411006872" x="0" y="0" /><path d="M25,25 m0.0,0.0 m38.31415379419923,21.29169989258571 l-1.4610181748867035,-1.094164103269577 -1.8823198974132538,-0.5453601479530334 l-2.959640622138977,0.222109816968441 -1.6558542847633362,1.2867474555969238 l-1.0943637043237686,2.647709846496582 -0.3527257964015007,3.949488401412964 l0.35634376108646393,3.5258716344833374 0.9962614625692368,2.6590514183044434 l0.6699635833501816,0.9700454771518707 0.9835144132375717,0.7817898690700531 l1.3049210608005524,0.4896925389766693 2.401958554983139,-0.00014284839380707126 l3.3630186319351196,-1.0759351402521133 2.739867866039276,-1.6007636487483978 l3.380028009414673,-3.004891574382782 1.89911350607872,-2.7219659090042114 l0.9459526836872101,-2.4766135215759277 0.22055748850107193,-2.0854277908802032 l-0.38563039153814316,-1.6909363865852356 -0.9425719082355499,-1.3391679525375366 l-1.4457152783870697,-0.9348732978105545 -2.7674049139022827,-0.5957084149122238 l-3.0923649668693542,-0.00027766465791501105 -2.6746127009391785,0.8976247161626816 l-1.057196781039238,0.8210846781730652 m1.4002329111099243,-0.07155224215239286 l0.39348553866147995,-4.35097336769104 0.8533906936645508,-2.3647965490818024 l1.7375124990940094,-1.9623754918575287 m-2.8647103905677795,5.90726912021637 l1.8266057968139648,-1.8690496683120728 2.153433859348297,-1.1845827102661133 l2.9562637209892273,-0.7540041208267212 1.710546463727951,0.06590666249394417 l1.2368318438529968,0.9035312384366989 0.5575947463512421,1.7121396958827972 l-0.855407789349556,2.1973800659179688 -1.5073516964912415,1.277351975440979 l-4.821498990058899,1.904335767030716 -2.784452736377716,0.7089869678020477 l-2.9028326272964478,0.3037619777023792 m84.0523192901037,-0.9046882535403711 l-1.4495275914669037,-1.101534590125084 -1.8773002922534943,-0.5489574000239372 l-2.8304967284202576,0.12358661741018295 -2.5926244258880615,2.4929317831993103 l-0.636022686958313,1.2450356781482697 -0.5049140378832817,2.7660319209098816 l-8.646024980407674e-05,4.436126351356506 0.909179151058197,3.3577510714530945 l0.7492245733737946,1.1560995876789093 1.0487665981054306,0.8202771097421646 l1.3822382688522339,0.46662166714668274 2.5088289380073547,-0.00013348789252631832 l4.021104872226715,-1.461949497461319 2.322247475385666,-1.583588570356369 l3.0617019534111023,-2.910079061985016 1.834433376789093,-2.604871094226837 l0.8943115919828415,-2.4075669050216675 0.25845540687441826,-3.077266216278076 l-0.6306201964616776,-1.377285122871399 -1.0852579027414322,-1.0391196608543396 l-2.2942183911800385,-1.0568399727344513 -2.2969894111156464,-0.29903415590524673 l-2.7643409371376038,0.5142944306135178 -1.23213030397892,1.0450873523950577 m-0.43189041316509247,0.37535618990659714 l-0.25790875777602196,-2.0146669447422028 0.5424318090081215,-4.141511917114258 l0.9234361350536346,-2.119908928871155 1.880905032157898,-2.2625820338726044 m-2.925706207752228,7.435452342033386 l1.7761269211769104,-1.9001129269599915 2.2447335720062256,-1.2164505571126938 l2.0175209641456604,-0.4900701344013214 2.136222869157791,0.17076432704925537 l1.2297262251377106,1.0839032381772995 0.23926027119159698,1.7798306047916412 l-0.9873214364051819,1.7786796391010284 -2.28293776512146,1.8191221356391907 l-5.5656468868255615,2.368563413619995 -2.168598771095276,0.5810107290744781 m81.32163078524172,-3.0366009420094997 l-1.4090991020202637,-1.0935796797275543 -1.8185977637767792,-0.5719644576311111 l-2.9853877425193787,0.16189990565180779 -1.3635213673114777,0.5214683711528778 l-0.8838196098804474,1.1365112662315369 -1.01786307990551,7.45610773563385 l0.15876594930887222,1.9877700507640839 0.5393898114562035,1.8540363013744354 l0.8661860227584839,1.6481439769268036 1.8755574524402618,1.9566649198532104 l1.7164482176303864,0.9196900576353073 1.8473860621452332,0.3032447583973408 l2.0034295320510864,-0.25893764570355415 4.204899966716766,-2.8224563598632812 l1.9100502133369446,-1.754617989063263 2.620674967765808,-2.9940012097358704 l2.9446440935134888,-4.788372218608856 0.5826554074883461,-1.6368617117404938 l-0.06023027002811432,-1.506180614233017 -0.9864561259746552,-1.6787701845169067 l-1.7016617953777313,-0.8816640824079514 -2.9825127124786377,-0.6066865101456642 l-2.5544843077659607,0.38410190492868423 -1.4987812936306,0.8774593472480774 l-1.3389518857002258,1.5207798779010773 m-0.2314540557563305,-0.26054786518216133 l0.2660355903208256,-5.053588151931763 1.3010241091251373,-3.695693612098694 l1.5201041102409363,-1.714557707309723 m-3.426177501678467,7.750150561332703 l-0.4043278843164444,-0.7691965997219086 0.25669343769550323,-1.8464787304401398 l1.6493415832519531,-2.1432439982891083 2.4402469396591187,-1.6188471019268036 l2.088005691766739,-0.5004822462797165 0.6991545110940933,0.00010641870176186785 l0.9052830934524536,0.785130113363266 0.10107344947755337,1.1807068437337875 l-1.530580073595047,2.8456145524978638 -4.501314163208008,4.084578156471252 l-2.2298237681388855,1.3142991065979004 m81.48188736959128,-0.9650196727824323 l-1.4631043374538422,-1.1362683027982712 -1.990087479352951,-0.6103622913360596 l-2.9287680983543396,0.26586705818772316 -2.926231026649475,3.2274410128593445 l-0.5719558149576187,1.2147300690412521 -0.3548365831375122,2.520967125892639 l-0.31946003437042236,4.532001316547394 0.5763530731201172,3.7957727909088135 l0.5310076847672462,1.1098654568195343 1.666085571050644,1.2640662491321564 l1.337950974702835,0.46240124851465225 2.796902656555176,5.348062472876336e-06 l3.342626690864563,-0.23151803761720657 2.756933569908142,-0.8134082704782486 l2.519339621067047,-1.7046038806438446 3.7374669313430786,-6.017395853996277 l1.2123893201351166,-2.603919506072998 0.720938965678215,-2.952894866466522 l0.008605425828136504,-2.5900888442993164 -0.7478035986423492,-1.7571395635604858 l-1.4904646575450897,-1.2725155055522919 -2.2937168180942535,-0.7383814454078674 l-2.3725928366184235,0.07338426075875759 -2.54966139793396,1.155637875199318 l-1.6190296411514282,1.6411691904067993 m1.346241533756256,-0.5254324898123741 l0.00029343911592150107,-2.3487432301044464 0.6272930651903152,-3.255409598350525 l1.1249738186597824,-1.699826568365097 1.3987566530704498,-0.6952524930238724 m-3.2740959525108337,6.039500832557678 l0.8131816983222961,-2.889324724674225 2.355886995792389,-2.4908410012722015 l1.4860771596431732,-0.7018078863620758 2.9300090670585632,-0.3635798767209053 l-0.2348765730857849,0.0005108512777951546 -2.266312688589096,0.5255025252699852 l-3.7047740817070007,3.0083218216896057 -0.8412691205739975,1.4290417730808258 l-1.5101329982280731,3.9371517300605774 0.3163934126496315,2.234979420900345 m79.64903719661379,-0.8274663867268828 l-1.422376036643982,-1.0782455652952194 -2.0285288989543915,-0.6967457383871078 l-2.481252998113632,-0.2125021629035473 -1.6230477392673492,1.1177711188793182 l-2.009401321411133,4.27176296710968 -0.12151877395808697,2.5548717379570007 l0.15011126175522804,1.6137929260730743 1.234031692147255,5.22743284702301 l0.9015218168497086,1.8642507493495941 1.1014686524868011,1.0856162011623383 l1.5251611173152924,0.7160366326570511 0.8478537946939468,0.06088448688387871 l3.3286109566688538,-0.7800815999507904 3.4725001454353333,-1.6594454646110535 l3.7317541241645813,-2.457762509584427 1.917329877614975,-2.205376476049423 l1.117628589272499,-2.0275524258613586 0.6323082745075226,-2.4171504378318787 l-0.330897718667984,-2.1063433587551117 -1.0261987149715424,-1.8143224716186523 l-2.6203036308288574,-1.3743402063846588 -2.776547074317932,-0.16326602548360825 l-0.883738324046135,0.10377323254942894 -1.0699260234832764,0.7053240388631821 m-2.8830987215042114,-0.2976173348724842 l0.04978590179234743,-3.693905770778656 0.19003819674253464,-1.5506470203399658 l0.2822295017540455,-2.769601047039032 m-0.004222718125674874,-0.09187472984194756 l1.0948976129293442,-0.6308244913816452 0.7275796681642532,-0.7137466967105865 l1.620960384607315,-0.5653044953942299 2.2196215391159058,-0.29743362218141556 l1.4844237267971039,0.32282501459121704 3.4906259179115295,3.9616617560386658 l0.019230697071179748,3.898076117038727 -1.1824354529380798,1.247052624821663 l-2.4864766001701355,0.7535728812217712 -3.6947470903396606,-0.0006057629434508272 l-4.796487390995026,-1.8349860608577728 m82.38101531016582,2.364262902824521 l-1.3895489275455475,-1.1467716842889786 -1.8502315878868103,-0.6292009353637695 l-3.5233846306800842,0.897214263677597 -1.0005109757184982,0.3550522029399872 l-1.6866517066955566,5.017520785331726 -0.3400680050253868,1.3327120244503021 l-0.26190927252173424,4.7861239314079285 0.1837611198425293,1.8075215816497803 l0.6665793806314468,2.0503725111484528 1.0893741250038147,1.897408664226532 l1.2352333962917328,0.9800852835178375 2.44216188788414,-0.0003916126661351882 l4.771017134189606,-2.085273116827011 3.131016492843628,-1.7399774491786957 l2.3190489411354065,-1.532481461763382 2.2861550748348236,-2.4133025109767914 l1.307920217514038,-2.012258768081665 0.6269461661577225,-2.4205851554870605 l0.0014712069241795689,-1.7708726227283478 -0.5884547904133797,-1.1649076640605927 l-1.970466673374176,-1.626739352941513 -3.9380493760108948,-7.99474128143629e-05 l-1.6762106120586395,1.1673493683338165 1.7277070879936218,-3.6300092935562134 l-0.7162671536207199,-0.2104090340435505 -5.0960999727249146,2.0742887258529663 l-1.6740334033966064,1.698451191186905 m6.343688368797302,-2.8684651851654053 l0.9805972874164581,-0.5364394560456276 1.922391653060913,-3.91838937997818 m-2.302537113428116,1.1926166713237762 l2.860543727874756,0.908234640955925 2.470986992120743,0.09131068363785744 l1.414656937122345,-0.13385570608079433 0.39129767566919327,-0.33635150641202927 l0.3888903558254242,-0.7647807151079178 -1.2839438021183014,-4.515762627124786 l-1.543997973203659,-2.0689035952091217 -1.1643923074007034,-0.8307646214962006 l-2.3118358850479126,-0.0006000265420880169 -2.6406341791152954,1.1382759362459183 l-1.2732593715190887,1.4713941514492035 m77.73956287819601,5.696099058200161 l-1.4392215013504028,-1.1250738054513931 -1.718372255563736,-0.4043273255228996 l-2.866891026496887,0.386013463139534 -0.871320441365242,0.49241606146097183 l-1.4660997688770294,2.239401340484619 -1.3807816803455353,4.872121810913086 l0.38318969309329987,4.9277520179748535 1.292169988155365,3.2740575075149536 l1.0280396044254303,1.475619226694107 1.78708016872406,1.485292762517929 l0.9062386304140091,0.4316514730453491 1.7402713000774384,0.43613966554403305 l1.6915811598300934,-0.026189207565039396 6.630410552024841,-2.1128298342227936 l5.648621320724487,-3.5249218344688416 1.5761254727840424,-2.767614722251892 l0.0848827138543129,-1.752011477947235 0.7599591463804245,-1.4572210609912872 l0.21513359621167183,-1.6273312270641327 -0.5575858429074287,-2.1328192949295044 l-0.9131597727537155,-0.8568016439676285 -0.7164305448532104,-0.15213536098599434 l-3.952673077583313,-0.19736308604478836 -4.37828004360199,0.23640096187591553 l-0.1307244971394539,-0.10790321975946426 m-0.07251202128827572,0.5069048702716827 l-0.0019371983944438398,-4.879332184791565 2.039341628551483,-1.230911910533905 l4.521532654762268,-1.2878255546092987 0.29125234112143517,0.8378872275352478 m-0.03430209821090102,-0.09219523519277573 l-0.3790624812245369,-0.22550702095031738 0.186394602060318,0.8840539306402206 l0.9803526103496552,1.3230523467063904 2.691057026386261,1.9477741420269012 l0.26895442977547646,0.5574624985456467 -0.18558358773589134,1.0339423269033432 l-1.333971917629242,2.5714486837387085 -2.826562523841858,-2.378358244895935 l-0.17074542120099068,-1.0369337350130081 0.06523498799651861,-2.3963528871536255 l-0.136245209723711,-1.954360008239746 -0.2920067682862282,-1.8029296398162842 m71.89488810341572,6.805477814450569 l-1.5385492146015167,-1.26085564494133 -1.833939552307129,-0.6884929537773132 l-2.0835334062576294,0.26948990300297737 -2.133248895406723,0.4555123299360275 l-0.4966605082154274,1.2682101130485535 -0.4255963861942291,2.647905647754669 l0.12422137893736362,8.355427980422974 0.40941521525382996,1.6648359596729279 l0.8646085113286972,2.2534823417663574 0.6673531234264374,1.6999547183513641 l1.3346375524997711,1.0731057077646255 3.4379181265830994,0.4509235545992851 l2.7713701128959656,-0.21386204287409782 1.5686717629432678,-0.17114927992224693 l2.651108205318451,-1.6330775618553162 3.213365077972412,-3.628646731376648 l1.4829079806804657,-3.413735330104828 0.8406693488359451,-3.946239948272705 l-0.18287042155861855,-1.7164289951324463 -0.40924280881881714,-1.719333678483963 l-2.577084004878998,-1.0627204924821854 -3.8460376858711243,-0.0814663153141737 l-2.520534098148346,0.7312077283859253 -1.0991176962852478,0.7036193460226059 l-1.332189291715622,-4.77076381444931 m-0.859646275639534,2.199851870536804 l-0.3038109466433525,-0.00013230914191808552 0.8409775048494339,-2.7587223052978516 l2.925764322280884,-4.580679535865784 0.290609635412693,2.2751590609550476 m-4.054373502731323,1.610599011182785 l1.1105339974164963,-1.1245224624872208 4.752073287963867,-2.2876377403736115 l2.547980844974518,-0.5719156935811043 2.1020054817199707,0.19317420199513435 l0.6977522373199463,0.582532100379467 0.09240109473466873,0.5221077054738998 l-6.685188412666321,4.895464479923248 -3.9098820090293884,3.0067187547683716 l-2.3094987869262695,1.1395235359668732 -0.8753614127635956,-0.103587806224823 l-0.7480277121067047,-0.777674987912178 -0.6184893846511841,-0.9156312793493271 l1.9730797410011292,-2.7568233013153076 m83.11957763839018,4.273893438112282 l-1.4692017436027527,-0.9911958128213882 -2.1089163422584534,-0.49526575952768326 l-4.47178453207016,0.3718239814043045 0.9226413816213608,2.411476820707321 l-0.676887109875679,2.78117835521698 -1.0988140106201172,2.9579296708106995 l-0.6807587295770645,6.559009552001953 0.705312043428421,0.7341065257787704 l1.2206866592168808,0.7722651958465576 1.6931343078613281,0.28829222545027733 l2.2816920280456543,0.2308979444205761 0.4092978313565254,0.4015526920557022 l7.536541223526001,-0.033710089046508074 5.487602353096008,-3.590606153011322 l2.2377312183380127,-2.2079572081565857 2.1239130198955536,-2.5940537452697754 l0.0007460365304723382,-1.7849230766296387 0.0004313255340093747,-0.7341486215591431 l-1.712528020143509,-2.595209777355194 -1.1102581769227982,-0.9845359623432159 l-6.320416331291199,-2.8205090761184692 -1.1072394251823425,-0.2897019684314728 l-0.6346629559993744,-0.0017243281763512641 -1.1711637675762177,0.5607713013887405 l-0.21784378215670586,0.17185067757964134 m-5.582234263420105,-0.256479699164629 l-0.48179641366004944,-5.743703246116638 -1.8386563658714294,0.5322291329503059 l0.0014652524259872735,-3.09120774269104 m8.382242918014526,15.219894647598267 l0.4427766427397728,-0.5787337943911552 1.0450612753629684,-0.6205796077847481 l2.9263532161712646,-0.9237702935934067 1.2094973772764206,1.2282752245664597 l0.248882956802845,0.13380363583564758 -0.14527518302202225,-0.39731886237859726 l-2.281034290790558,0.000271892458840739 -0.9511376917362213,1.4259971678256989 l0.36297034472227097,0.6394878029823303 0.28751498088240623,0.9489103406667709 l-0.15936844050884247,3.075994551181793 m73.64748661126214,-5.8915534021070926 l-1.473722755908966,-1.108284443616867 -2.0288200676441193,-0.6149187684059143 l-3.24396550655365,0.2581976540386677 -0.02399462042376399,0.4315822571516037 l-0.5169487372040749,2.9751628637313843 0.11621685698628426,2.6062148809432983 l-0.12053052894771099,4.733884930610657 0.5483363568782806,2.155526429414749 l0.30859390273690224,0.8427101373672485 1.260991096496582,0.8044316619634628 l1.3820168375968933,0.3200170397758484 2.9933512210845947,-0.10587240569293499 l3.1369242072105408,-1.2008605152368546 3.393562138080597,-2.378859966993332 l1.1418581008911133,-1.1634887009859085 2.9022392630577087,-6.159675121307373 l-0.0021749481675215065,-0.2578463777899742 -0.7559182494878769,-3.768523633480072 l0.8945928514003754,-1.2083596736192703 -1.2244047224521637,-0.7801911234855652 l-1.9274914264678955,-0.2777055837213993 -2.393520027399063,0.36789361387491226 l-1.6058668494224548,1.1254631727933884 -0.3720896318554878,0.9450659155845642 l-1.3563720881938934,0.3418070822954178 m-0.003824865852948278,-0.6543693691492081 l-0.2583758719265461,-4.65894341468811 0.9443703293800354,-5.193421840667725 m1.7893142998218536,-1.6138410568237305 l0.010036159073933959,0.27345551177859306 2.681921422481537,5.619834661483765 l4.691621363162994,-4.726920127868652 1.924925148487091,-1.2542273104190826 l1.0915116965770721,-1.3230228424072266 -0.9752477705478668,-0.8284104615449905 l-5.673366189002991,-1.2196338176727295 -3.3907094597816467,-0.00031218536605592817 l-2.3844245076179504,0.39428722113370895 -2.1857288479804993,1.5619595348834991 l-1.8923600018024445,2.3133863508701324 " fill="none" stroke="black" stroke-width="1" /></svg>