<?xml version="1.0" encoding="utf-8" ?>
<svg baseProfile="full" height="77.8723588399589" version="1.1" width="71.13066906109452" xmlns="http://www.w3.org/2000/svg" xmlns:ev="http://www.w3.org/2001/xml-events" xmlns:xlink="http://www.w3.org/1999/xlink"><defs /><rect fill="white" height="77.8723588399589" width="71.13066906109452" x="0" y="0" /><path d="M35.263467859476805,37.07466844469309 m-1.6099557280540466,-1.1068445444107056 l-1.9118224084377289,-0.6037333980202675 -3.5217782855033875,-0.20124446600675583 l-0.9056001156568527,0.30186669901013374 -1.4087112247943878,1.9118224084377289 l-0.8049778640270233,3.924266993999481 -0.10062223300337791,6.4398229122161865 l0.30186669901013374,1.71057790517807 0.6037333980202675,1.4087112247943878 l0.9056001156568527,1.1068445444107056 2.213689088821411,0.9056001156568527 l1.4087112247943878,0.0 1.5093335509300232,-0.30186669901013374 l1.6099557280540466,-0.8049778640270233 6.4398229122161865,-5.2323561906814575 l4.0248894691467285,-3.7230226397514343 1.9118224084377289,-2.5155559182167053 l0.20124446600675583,-1.1068445444107056 -0.20124446600675583,-0.6037333980202675 l-1.0062223672866821,-0.8049778640270233 -2.8174224495887756,-1.3080890476703644 l-2.5155559182167053,-0.7043556123971939 -3.8236448168754578,0.0 l-1.6099557280540466,1.4087112247943878 -0.8049778640270233,1.9118224084377289 m0.5031111836433411,-2.6161780953407288 l1.207466796040535,-2.41493359208107 0.40248893201351166,-1.6099557280540466 l0.10062223300337791,-7.446045279502869 m1.5093335509300232,6.641067266464233 l-1.6099557280540466,-0.6037333980202675 0.0,-0.7043556123971939 l1.3080890476703644,-1.207466796040535 2.213689088821411,-1.0062223672866821 l2.716800272464752,-0.6037333980202675 2.5155559182167053,-0.10062223300337791 l1.207466796040535,0.6037333980202675 0.20124446600675583,0.9056001156568527 l-0.5031111836433411,0.8049778640270233 -3.11928927898407,2.3143114149570465 l-7.244800925254822,4.528000354766846 " fill="none" stroke="black" stroke-width="1" /></svg>