<?xml version="1.0" encoding="utf-8" ?>
<svg baseProfile="full" height="105.90028898232049" version="1.1" width="859.7166558913887" xmlns="http://www.w3.org/2000/svg" xmlns:ev="http://www.w3.org/2001/xml-events" xmlns:xlink="http://www.w3.org/1999/xlink"><defs /><rect fill="white" height="105.90028898232049" width="859.7166558913887" x="0" y="0" /><path d="M25,29.402460834944577 m0.0,0.0 m39.51050818199292,12.010742840357125 l-1.6902172565460205,-1.4052768051624298 -3.1906941533088684,-0.5345014110207558 l-3.091524839401245,0.758635625243187 -3.4232231974601746,1.9974011182785034 l-2.0947112143039703,1.8766815960407257 -1.8899153172969818,2.6423558592796326 l-0.5970001593232155,1.8525810539722443 0.021389219909906387,1.600521206855774 l0.7284774631261826,1.1415547877550125 1.4880949258804321,0.8797548711299896 l2.4052247405052185,0.5427271500229836 7.81306266784668,-0.09523976594209671 l8.995476365089417,-1.7438089847564697 5.05664587020874,-1.6070042550563812 l3.5645726323127747,-1.673053801059723 2.0111536979675293,-1.6293132305145264 l0.6950927525758743,-1.5735805034637451 -0.37595633417367935,-1.4186714589595795 l-1.4922471344470978,-1.167842149734497 -4.13735568523407,-1.3784223794937134 l-13.392181396484375,-0.49623481929302216 -3.5698342323303223,0.8587436378002167 m-8.480761051177979,7.91403591632843 l-0.032902935054153204,5.9428757429122925 -0.3371543809771538,6.913326978683472 m30.1283597946167,-14.833030700683594 l-0.15615304000675678,7.649863362312317 -0.3028777614235878,4.952190518379211 m-28.695878982543945,-2.3519259691238403 l1.8437990546226501,0.4745858162641525 8.138418793678284,0.39795611053705215 l9.26948070526123,-0.3679807484149933 5.297633409500122,-0.7996237277984619 m-24.013590812683105,-6.4526718854904175 l0.7216453552246094,-2.7020710706710815 1.2845492362976074,-2.069777101278305 l1.1860759556293488,-1.0525867342948914 1.784645915031433,-0.8418231457471848 m3.094377815723419,5.6881409883499146 l0.941520556807518,-2.9615506529808044 1.339753121137619,-2.274795174598694 m3.878203332424164,4.956361651420593 l0.7993677258491516,-3.4054192900657654 1.1807551234960556,-2.4170225858688354 m4.044053852558136,5.828115344047546 l0.68964883685112,-3.452828526496887 1.0485684126615524,-2.327997237443924 m-19.384559392929077,3.4143269062042236 l-0.29312388971447945,-0.36887671798467636 0.2893204241991043,-0.9764062613248825 l0.8564577251672745,-1.3086919486522675 0.9803679585456848,-0.6284940987825394 l1.2104839831590652,-0.1156487688422203 1.054341346025467,0.7823436707258224 l-0.0545250391587615,2.038971930742264 -0.861218273639679,0.6536751240491867 l-1.8321509659290314,0.29282335191965103 m8.591498136520386,-1.6727899014949799 l-0.6803760677576065,-0.7042559236288071 -0.42496662586927414,-1.2424030900001526 l0.33391788601875305,-1.1616867035627365 1.0183517634868622,-0.7650699466466904 l1.1639031022787094,-0.08861769922077656 0.8626072108745575,0.6058176606893539 l0.5044630914926529,1.5880347788333893 -0.5539771541953087,2.1107912063598633 l-1.0132260620594025,0.7835449278354645 m6.869766712188721,-2.365468144416809 l-1.0956047475337982,-0.7482699304819107 -0.7416136562824249,-1.5055717527866364 l0.1480276696383953,-1.2911072373390198 0.8898317813873291,-0.9456890821456909 l1.1614098399877548,-0.3216368332505226 0.949326679110527,0.3766751289367676 l0.7497012615203857,1.369229406118393 -0.12147283181548119,2.1623532474040985 l-0.8016467094421387,1.0155326873064041 m-24.162988662719727,9.560322165489197 l0.46991653740406036,0.1326498854905367 1.7962241172790527,0.5860796198248863 l2.9810643196105957,1.214422658085823 3.340955972671509,1.3739639520645142 l3.614179790019989,1.1465564370155334 4.152921140193939,0.7297413796186447 l6.99942946434021,-0.23626258596777916 4.476175904273987,-1.3748328387737274 l2.3899976909160614,-1.2882480025291443 m-33.989036083221436,3.4169286489486694 l1.6034133732318878,0.8380034565925598 2.683091461658478,0.7399697601795197 l6.526468992233276,0.5037282407283783 5.608956813812256,-0.35863805562257767 l8.193793892860413,-1.7589060962200165 5.604414939880371,-0.8533027023077011 l3.786059617996216,-0.6801095604896545 2.9323044419288635,-0.6741707772016525 m-33.09209108352661,0.2521677501499653 l0.12491142377257347,1.170179694890976 0.6871762126684189,3.0603453516960144 l1.633228063583374,2.795901298522949 1.712917536497116,1.3813962042331696 l2.183801084756851,0.778282880783081 m87.6190361159388,-23.170958578593854 l-1.6592177748680115,-1.408761590719223 -3.253387212753296,-0.5196701735258102 l-2.9726415872573853,0.6480654329061508 -3.620874285697937,2.0980989933013916 l-2.0645637810230255,1.9692453742027283 -1.776946783065796,2.6989659667015076 l-0.5388854444026947,1.7445607483386993 0.022644188720732927,1.029600128531456 l0.5979453027248383,0.9160956740379333 1.2714052200317383,0.7006695866584778 l4.825455844402313,0.6164240092039108 8.22864055633545,5.91510979575105e-05 l7.527382969856262,-1.2206459790468216 6.419475674629211,-2.1663813292980194 l3.276725709438324,-1.7363804578781128 1.5669021010398865,-1.547802984714508 l0.4422297328710556,-1.5856406092643738 -0.6338369101285934,-1.1892689019441605 l-1.5293794870376587,-0.9399279952049255 -6.5401691198349,-1.8055562674999237 l-12.946118116378784,0.2470487356185913 m-15.695741176605225,9.68792200088501 l-0.7793954014778137,5.023273825645447 -0.6963372230529785,5.848481059074402 l0.0353980646468699,3.692671060562134 m42.40751266479492,-18.80539059638977 l-0.39832722395658493,7.161228060722351 -0.3710004687309265,6.755052208900452 m-34.411582946777344,-1.7279770970344543 l1.638367623090744,0.5939170345664024 7.097294330596924,0.6117307022213936 l8.14630389213562,-0.3403658792376518 7.152656316757202,-0.657343864440918 l5.1303017139434814,-0.8065745234489441 m-27.090697288513184,-12.080495357513428 l0.14324426651000977,0.37892814725637436 m5.628930330276489,-0.908925011754036 l-0.9597092121839523,-1.0605216026306152 -0.3640860319137573,-1.187295913696289 l0.4435405507683754,-1.2595216929912567 1.0347994416952133,-0.6960929185152054 l0.5696988850831985,1.218392476439476 m6.876385807991028,2.9342618584632874 l-0.015855792444199324,-4.543390870094299 0.23282509297132492,-0.5946739763021469 l0.6712108105421066,0.20624076947569847 0.10247058235108852,2.510010302066803 l-0.46785134822130203,1.8040922284126282 m6.130034327507019,-0.7951351255178452 l-0.156369898468256,-2.7323561906814575 0.8315113186836243,-2.3372547328472137 l0.9047124534845352,1.1053648591041565 -0.042630298994481564,2.7801120281219482 l-0.39253227412700653,1.576625108718872 m4.561516642570496,-1.2836438417434692 l-0.6050661578774452,-2.184482514858246 0.47526706010103226,-1.9132329523563385 l1.514725387096405,-0.36858368664979935 0.4160717502236366,0.742364376783371 l-0.14857313595712185,3.1703349947929382 m-19.008278846740723,5.2018654346466064 l0.2410600520670414,-2.794426381587982 1.1742538213729858,-1.608014851808548 l1.1507926881313324,-0.48645392060279846 0.85699662566185,0.2558634802699089 l0.47160301357507706,1.239912211894989 -0.26152240112423897,2.392282634973526 l-0.8884066343307495,0.9037262201309204 -1.699635237455368,0.4691678658127785 m-7.002017498016357,2.5316601991653442 l-0.11965708807110786,-2.765519917011261 1.6669969260692596,-1.9164562225341797 l1.6069479286670685,-0.6919005513191223 1.1709284782409668,0.11794585734605789 l1.1354374140501022,1.841767430305481 0.15775613486766815,1.4354269206523895 l-0.7515820115804672,1.7495611310005188 -1.1678403615951538,0.6771819293498993 l-2.2053468227386475,0.10833716951310635 -1.0677213966846466,-1.174204871058464 l-0.3372238576412201,-1.4766715466976166 m-8.982988595962524,6.29998505115509 l0.8984684199094772,-0.027251255232840776 3.0181604623794556,-0.2900984138250351 l5.494706034660339,-0.06819037720561028 6.909502744674683,0.10200767777860165 l2.5815558433532715,-0.5567297711968422 2.897542417049408,-1.161057949066162 l4.190827906131744,-1.0423622280359268 4.193703532218933,-0.9249629080295563 m-27.876036167144775,9.493901133537292 l2.5921884179115295,0.028272487688809633 6.3251882791519165,-0.042612915858626366 l6.893046498298645,-0.49217771738767624 4.9374425411224365,-1.0743501037359238 l5.039546489715576,-0.5922934412956238 4.820695519447327,-0.4247703403234482 m63.90569707589748,-13.779907582447777 l-1.6666069626808167,-1.3958969712257385 -3.189551830291748,-0.5398709699511528 l-2.0276829600334167,0.3904242068529129 -5.051696300506592,2.8588491678237915 l-2.3530134558677673,2.1492238342761993 -2.0016564428806305,2.786077558994293 l-0.5446953698992729,1.6882339119911194 0.0521510886028409,1.1541499942541122 l0.7091911137104034,1.0430413484573364 1.1612626910209656,0.755167081952095 l3.6043712496757507,0.7471697777509689 7.466289401054382,-0.00047667846956755966 l9.741710424423218,-1.8843084573745728 8.967326879501343,-3.3660084009170532 l2.892950177192688,-1.7529654502868652 0.758090540766716,-0.8152603358030319 l0.18510207533836365,-0.9909642487764359 -0.7824980467557907,-1.022021472454071 l-2.0678596198558807,-0.9611733257770538 -2.982802391052246,-0.6861473619937897 l-13.545907735824585,-0.4140286147594452 m-15.13936996459961,8.790026307106018 l0.0077000155579298735,7.785740494728088 0.7653066515922546,4.422673285007477 m28.60793113708496,-14.080607891082764 l0.0009030618093675002,6.973659992218018 0.27865953743457794,5.697559118270874 m-29.00550603866577,-1.5691806375980377 l5.327851176261902,1.2105989456176758 8.575613498687744,0.6487943977117538 l5.02250075340271,-0.2517488971352577 4.866240322589874,-1.9899827241897583 l2.791856527328491,-1.6256526112556458 m-22.2869610786438,-12.53065824508667 l0.3201020881533623,-1.4004066586494446 0.771535336971283,-0.9777364879846573 m6.12998366355896,2.3440560698509216 l0.08689655922353268,-2.461461126804352 m3.3040177822113037,2.8551840782165527 l0.46844199299812317,-3.6544829607009888 0.6986772269010544,-0.7136297225952148 m2.0644739270210266,4.3749624490737915 l0.3199280798435211,-0.746738538146019 0.8325070887804031,-1.90224289894104 l0.7950355112552643,-1.7393644154071808 m-21.52710199356079,1.8109685182571411 l-0.7829618453979492,-0.4329002648591995 -0.6632163375616074,-0.8852189779281616 l-0.4770486056804657,-1.1843270808458328 0.15524272806942463,-0.9942817687988281 l1.7727603018283844,-1.8341682851314545 2.2822487354278564,-1.3147900998592377 l1.8448185920715332,-0.28675349429249763 1.6992835700511932,0.46839382499456406 l1.1697550117969513,1.1279026418924332 0.9042813628911972,2.0821847021579742 l-0.10789007879793644,0.8281806111335754 -3.0895456671714783,2.602740526199341 l-3.32859069108963,1.2340772897005081 m13.46379041671753,-1.5819136798381805 l-0.5955423787236214,-1.0852902382612228 0.4890943691134453,-2.021522670984268 l0.8097219467163086,-0.6227178499102592 1.6500553488731384,-0.19624337553977966 l1.3416188955307007,0.7583162933588028 0.6639961898326874,0.9772536158561707 l0.22342011332511902,1.6474317014217377 -1.447950154542923,1.125025823712349 l-1.605357825756073,0.31364675611257553 m6.233575344085693,-1.8900468945503235 l0.4279450699687004,-3.387135863304138 1.1881447583436966,-2.482554465532303 l0.7461529970169067,-0.3720341995358467 0.7611528038978577,0.21274849772453308 l0.8797274529933929,1.2529441714286804 0.27533186599612236,2.8305980563163757 l-0.5561676621437073,1.4025115966796875 -1.4090922474861145,0.9705770760774612 m-24.778573513031006,9.741483330726624 l0.7953660935163498,-0.3668227419257164 1.7169520258903503,-0.49596961587667465 l1.4902175962924957,-0.05890616215765476 2.5302866101264954,1.1356882005929947 l2.865038216114044,0.2493480034172535 8.577558398246765,-2.1396374702453613 l3.887108266353607,0.06775252521038055 2.800550162792206,-0.43847978115081787 l3.2641249895095825,-0.0005936893649050035 2.72664874792099,-0.0008429376612184569 m-32.31006145477295,11.13508939743042 l0.39444535970687866,0.25175726041197777 2.262013405561447,1.0764618963003159 l4.347586631774902,1.1461228877305984 8.86181652545929,0.7453013956546783 l15.604770183563232,-1.3313047587871552 4.410647451877594,-0.9822601079940796 l1.8395116925239563,-0.8024356514215469 1.9766314327716827,-1.6252557933330536 m51.92608140228003,-14.556832598354958 l-1.6585476696491241,-1.4083267748355865 -3.180750608444214,-0.5509087815880775 l-2.7520161867141724,0.7631909847259521 -4.3111637234687805,2.3636452853679657 l-3.457624912261963,3.1736621260643005 -1.5940573811531067,2.8067952394485474 l-0.3286748006939888,0.98497673869133 -0.002090480411425233,1.7063723504543304 l0.7623628526926041,1.1967454105615616 1.7429938912391663,0.8664147555828094 l2.29190856218338,0.28176939114928246 7.773176431655884,-0.5673885345458984 l12.545946836471558,-3.3103612065315247 5.548391938209534,-2.0015424489974976 l3.566124439239502,-1.538100689649582 0.9290959686040878,-1.0218653082847595 l0.35806622356176376,-1.217985451221466 -0.43156202882528305,-1.278717815876007 l-4.825449585914612,-1.6674521565437317 -14.885106086730957,-0.9865691512823105 l-6.824854612350464,1.118466779589653 m-11.485918760299683,8.887864351272583 l0.13576540164649487,3.341286778450012 0.9729266911745071,7.780128121376038 l8.516454696655273,0.579419769346714 20.674359798431396,-0.3042627312242985 l2.2506146132946014,-0.4590783268213272 3.027676045894623,-1.543503999710083 l1.383705586194992,-9.991477727890015 m-26.594679355621338,-3.8656258583068848 l-0.9334906935691833,2.6122573018074036 m0.0023947886074893177,0.3273828700184822 l3.5949236154556274,0.11931822635233402 m0.1994052529335022,-1.6584782302379608 l1.4721563458442688,2.830090820789337 m2.0661750435829163,-2.7463605999946594 l0.32881759107112885,1.4372821152210236 m3.5042428970336914,4.201848804950714 l0.06064948160201311,-0.1999921351671219 0.6963951140642166,-0.5954532325267792 l0.2185148000717163,-1.1798956990242004 -0.026381576899439096,-2.8976884484291077 m-1.2325290590524673,3.4159716963768005 l-0.16866818070411682,-0.08425960317254066 0.2138771116733551,0.3297039493918419 l1.155337169766426,-0.00022447131414082833 0.4008934274315834,-1.7162251472473145 l-0.837637260556221,-0.3931305930018425 m-0.1141571905463934,0.26242949068546295 l0.015564123168587685,0.04891546443104744 0.2826102450489998,-0.4365404322743416 l0.4613220691680908,-0.06303632166236639 0.1340144034475088,0.2796998806297779 l-0.42071059346199036,0.3400743380188942 -0.12838497757911682,-0.000270001582975965 l-0.00014703859051223844,0.3076045773923397 1.0197453945875168,0.29766106978058815 m-8.467630743980408,-0.12528127990663052 l0.6829254329204559,-0.7765020430088043 -0.06268490571528673,0.22817377001047134 l-0.952649712562561,-0.08392860181629658 -0.2505083195865154,-0.9569378942251205 l-0.30971579253673553,0.587228499352932 0.13915175572037697,0.6266666948795319 l-0.13831130228936672,-0.40605783462524414 -0.08385610766708851,-0.6476987153291702 l-0.025470575783401728,-0.45910943299531937 -0.00016594940461800434,0.6293284147977829 l0.021990169771015644,-1.5156859159469604 -0.7719144225120544,-0.22544918581843376 l0.3927507996559143,1.1599548906087875 m-4.563855826854706,13.199388980865479 l9.580079913139343,-0.6016670912504196 3.5965049266815186,-0.8624312281608582 l9.298850893974304,-1.1205091327428818 3.9346304535865784,1.0105043649673462 l5.362465977668762,1.2810856103897095 8.99193823337555,1.283843219280243 l5.123845338821411,1.844182014465332 2.6687091588974,2.0413853228092194 m-33.368446826934814,-16.72659993171692 l-0.4774889722466469,-2.1483998000621796 0.3541606292128563,-7.5617676973342896 l1.0114213824272156,-5.258721113204956 0.5550268292427063,-2.091536968946457 l0.7465913891792297,-0.6071609258651733 2.6613861322402954,-0.2758893743157387 l1.124918907880783,0.30889615416526794 0.7840833067893982,1.1097479611635208 l-0.9837428480386734,8.692696690559387 0.0004245730087859556,8.205892443656921 l0.37324249744415283,2.6519784331321716 0.8251497894525528,0.39595574140548706 l1.851784884929657,0.0006960617611184716 m3.1583571434020996,-5.615224838256836 l1.8926718831062317,-3.9236867427825928 0.0016535613394808024,-2.0057663321495056 l0.42181577533483505,-4.986029863357544 1.9386732578277588,-10.074018239974976 l0.7610771805047989,-0.4103558138012886 1.2640903890132904,0.09042708203196526 m65.61604843665009,13.383814122116746 l-1.7521992325782776,-1.434215009212494 -3.413264751434326,-0.5738081783056259 l-3.1571125984191895,0.8549066632986069 -1.9784505665302277,0.9244021028280258 l-4.400917887687683,3.40473473072052 -1.3302800059318542,1.854817271232605 l-1.0830291360616684,2.6746851205825806 0.3144451975822449,1.85329869389534 l0.9145044535398483,0.7694541662931442 1.4649966359138489,0.8059642463922501 l2.368033528327942,0.6730798631906509 3.7276557087898254,-0.0002409414082649164 l10.392817258834839,-1.9380204379558563 11.050115823745728,-2.8839462995529175 l4.02428537607193,-1.4732491970062256 1.0171619802713394,-0.7543064653873444 l0.11526559479534626,-0.869477391242981 -1.4913304150104523,-1.6639097034931183 l-2.712559998035431,-1.060580313205719 -10.313011407852173,-1.786133199930191 l-7.510630488395691,-0.2112409844994545 m-18.57362151145935,8.169111609458923 l-0.7228158414363861,6.626680493354797 0.43054815381765366,5.080890655517578 m-0.1631498895585537,-1.0555771738290787 l0.690375491976738,0.17293844372034073 m11.213756799697876,-8.034340143203735 l22.927541732788086,2.483799457550049 5.881941914558411,1.0039744526147842 m-3.780573010444641,-2.3018571734428406 l1.5779493749141693,1.309036761522293 6.175149083137512,-0.0006208728882484138 l3.4344080090522766,1.0256282985210419 m-39.85362768173218,-13.145631551742554 l0.5622069165110588,0.9195306897163391 1.1573173105716705,2.3858915269374847 l1.0694628953933716,1.2923280894756317 1.879790723323822,2.197660803794861 m2.8809264302253723,-7.4563223123550415 l0.28727877885103226,2.3451068997383118 0.38027994334697723,1.615416556596756 l0.6282836198806763,1.0141579806804657 m9.81490969657898,-7.20042884349823 l0.48926763236522675,3.888726532459259 m-4.452760219573975,-4.9790701270103455 l0.452265702188015,-3.2507213950157166 1.0785652697086334,1.052268072962761 l0.32419290393590927,1.9796520471572876 -1.284421682357788,0.8813995867967606 m-1.8866726756095886,-2.4139685928821564 l-1.4590077102184296,-0.5203075706958771 -0.34799594432115555,-0.5985574051737785 l-0.5301085114479065,-1.5611539781093597 2.434863517919439e-05,0.3754178062081337 l1.3938967883586884,-0.0002902356573031284 -0.6594903767108917,-0.07271610666066408 l0.23418648168444633,1.548369824886322 m-3.5507848858833313,6.1144620180130005 l-0.6181466951966286,-0.8303461223840714 0.0013542234955821186,-3.8041236996650696 l0.7690878957509995,-1.2243497371673584 1.2292253971099854,-0.6164747476577759 l2.23647341132164,-0.08173847571015358 0.2584773302078247,3.510168492794037 l-0.5586809664964676,1.986202895641327 -1.4765441417694092,1.6920499503612518 l-1.8704579770565033,0.19484920427203178 -0.2995254658162594,0.3569016605615616 m-16.021212339401245,6.3053810596466064 l-0.2552599087357521,-0.4991720989346504 3.0248329043388367,-0.3593733161687851 l3.4383559226989746,-0.09523033164441586 4.4474902749061584,0.000570986740058288 l2.8922176361083984,-0.08913612924516201 2.4152983725070953,-0.31744975596666336 l1.7844781279563904,-0.5161114782094955 4.298339486122131,-2.4042220413684845 l3.7744203209877014,-0.0006590623524971306 2.792735993862152,-0.4488253593444824 l3.4989091753959656,1.0497429966926575 m-31.82292938232422,17.3614239692688 l1.7926129698753357,-0.02853564452379942 4.679731130599976,-1.571948230266571 l2.360316216945648,-0.7148737460374832 8.236591219902039,-1.1157633364200592 l2.7494314312934875,-1.723363846540451 4.61882472038269,-2.00334295630455 l3.8565215468406677,-1.0113292187452316 3.9807850122451782,0.3068337216973305 l3.1410199403762817,-0.0006819229747634381 1.8319246172904968,0.05797908175736666 l1.4375531673431396,-0.2519204467535019 m-1.7054474353790283,3.192182779312134 l-2.0888374745845795,-2.9384469985961914 m-9.107945561408997,4.986734986305237 l-2.361336350440979,-2.4041658639907837 -0.9472835808992386,-3.530414402484894 l-0.7299090176820755,-5.479235053062439 m77.06355793626926,1.5901239678260026 l-1.8299587070941925,-1.4523163437843323 -3.04956316947937,-0.45336466282606125 l-2.941761612892151,-0.0017868183203972876 -4.12183552980423,2.0907384157180786 l-1.5841642022132874,1.522025614976883 -1.6803188621997833,2.497651129961014 l-0.5456623807549477,1.4912459254264832 -0.00018859866031561978,2.956681549549103 l0.19672611728310585,0.752062126994133 1.3123083114624023,0.9297147393226624 l4.044473767280579,0.799553319811821 8.393392562866211,-0.03563456702977419 l13.441692590713501,-2.0824873447418213 3.8118749856948853,-1.8287470936775208 l1.6604359447956085,-1.2633739411830902 0.796121135354042,-1.3631777465343475 l0.09547082707285881,-1.2459922581911087 -1.391279697418213,-0.998576357960701 l-2.0839911699295044,-1.3970240950584412 -1.7767412960529327,-0.5725330114364624 m-36.35861396789551,1.2574060261249542 l-0.09043569676578045,9.396842122077942 -0.3262966498732567,9.458731412887573 l3.350047767162323,0.45740649104118347 20.311601161956787,0.7491038739681244 m4.360408186912537,-0.7832282781600952 l-0.18324440345168114,5.1236289739608765 m11.70000672340393,-9.376354813575745 l-0.632784515619278,0.22591684013605118 -1.898944079875946,2.133941203355789 l-3.605586886405945,5.611110329627991 m-28.055148124694824,-14.331079721450806 l15.694456100463867,-5.357287526130676 m-0.9158273041248322,1.6834862530231476 l-0.22596368566155434,0.07572122383862734 0.5994261801242828,0.8066079765558243 m-7.855506539344788,-4.744800329208374 l1.0889076441526413,-0.00030110497391433455 m1.0380971431732178,0.2869146503508091 l-1.2091265618801117,0.5633992701768875 -0.2825130708515644,1.3581541180610657 l0.4368695989251137,0.8703825622797012 1.1053044348955154,0.379495732486248 l0.9875117242336273,-0.25046877562999725 0.8964095264673233,-1.1112932860851288 l-4.182461907475954e-05,-1.7443107068538666 -1.0242529213428497,-0.26484979316592216 l-1.0263032466173172,0.7453080266714096 m0.44871985912323,0.411437563598156 l-0.6218567863106728,0.354275181889534 -0.27401844039559364,1.333708018064499 l0.11939872987568378,-0.6086641177535057 -0.24306325241923332,-1.0618457198143005 l-0.47224629670381546,-0.286801066249609 -0.6862892210483551,-0.17725614830851555 m11.651034355163574,-0.48139937222003937 l1.092040315270424,8.417712450027466 1.3364678621292114,2.0434893667697906 l1.2882283329963684,0.5346334353089333 0.4018697515130043,-0.48414409160614014 l-0.358690582215786,-3.045082688331604 -1.1090075969696045,-2.5747236609458923 l-1.1752478033304214,-0.9288293123245239 m2.5998055934906006,-3.6904507875442505 l0.05454920697957277,2.7890685200691223 0.4493441805243492,3.336029350757599 l1.161138191819191,-1.5679074823856354 0.5128988996148109,-1.1246352642774582 l-0.32211992889642715,-1.759001910686493 -2.189265340566635,-2.93722927570343 m5.713052749633789,4.988774359226227 l2.8382879495620728,-0.2707165293395519 1.9654223322868347,-2.184951603412628 l0.0011280181934125721,-8.193174004554749 -0.6204695254564285,-1.597573608160019 l-2.389141023159027,-4.232914745807648 1.0896866023540497,-1.4729632437229156 l4.821173250675201,-3.8713905215263367 3.8467764854431152,-1.9718295335769653 l4.677534699440002,-0.7108278572559357 8.317296504974365,1.6904079914093018 m-9.763426184654236,7.9559361934661865 l-1.5623950958251953,0.0965097825974226 -4.193753898143768,-1.6450950503349304 l-4.781734943389893,-3.5077446699142456 -2.475544661283493,-2.502976357936859 l-1.222480684518814,-3.30121248960495 0.00011537564205355011,-3.549516499042511 l-0.6272416561841965,-1.3196790218353271 -2.631840407848358,-3.252279758453369 l-1.6146057844161987,-1.7809207737445831 0.11971679516136646,-0.35208258777856827 l2.5717705488204956,-0.3047903999686241 4.379101991653442,-0.6613531708717346 l2.2316353023052216,0.04633498378098011 3.833644688129425,1.8683114647865295 l2.2391127049922943,1.9048890471458435 m-46.85546398162842,-3.646228611469269 l1.5601471066474915,2.7390235662460327 5.3453874588012695,10.013290643692017 l-4.323575794696808,5.543181896209717 -1.128009855747223,6.720547676086426 m106.71006031629986,-8.623811260431467 l-1.6846351325511932,-1.3395652174949646 -3.1236764788627625,-1.014222651720047 l-2.0113475620746613,0.22431617602705956 -3.8310185074806213,2.170673906803131 l-2.7638790011405945,2.075125128030777 -3.3504530787467957,3.921842575073242 l-0.6952103227376938,2.3979750275611877 0.21133733913302422,1.4839161932468414 l0.9838172793388367,0.482419915497303 1.8498249351978302,0.4525148868560791 l2.4832703173160553,0.09736087173223495 6.160861849784851,-0.29444532468914986 l11.64792537689209,-2.311832159757614 9.969980120658875,-1.0022145509719849 l7.106739282608032,-1.8880051374435425 1.139080598950386,-0.8601998537778854 l-0.2896112762391567,-1.3580475747585297 -1.831255555152893,-1.7607548832893372 l-3.6338207125663757,-1.5388934314250946 -3.719530999660492,-0.4631451517343521 l-4.063469171524048,0.4115211218595505 -8.584282994270325,2.0291028916835785 m-15.301669836044312,4.1013264656066895 l0.8512745797634125,4.930874705314636 m-7.296849489212036,9.094183444976807 l4.301437437534332,0.9475619345903397 5.266907811164856,1.0289664566516876 l6.076555252075195,0.37263713777065277 7.78266966342926,-0.3617715463042259 m11.224156618118286,-13.18082332611084 l-0.006060157902538776,1.6207754611968994 m3.7975680828094482,0.7602038979530334 l0.9145686775445938,12.878772020339966 m-27.961277961730957,-17.93256163597107 l-1.426738053560257,2.128162533044815 -0.2870037220418453,1.3557209074497223 l0.7367998361587524,0.8633006364107132 5.6378936767578125,1.3050258159637451 m-9.041999578475952,2.69525408744812 l2.0750848948955536,0.7542897760868073 3.266938626766205,0.23875821381807327 m-2.705478072166443,1.3852502405643463 l1.3090123236179352,0.00505915901158005 -0.6789029389619827,0.9011058509349823 m20.872516632080078,-4.259812533855438 l-1.5910740196704865,0.10831646621227264 -1.594116985797882,0.882200300693512 l0.0018574052955955267,2.122805416584015 m-0.0049992953427135944,-0.7780817151069641 l-0.002066970191663131,0.012375538935884833 0.7868079096078873,-1.1766958236694336 l0.6881088018417358,-1.7177104949951172 0.6910337507724762,-0.6244794279336929 l-0.9062913060188293,0.00018776499928208068 -1.8252474069595337,1.0862357169389725 l1.1911976337432861,-0.00038361744373105466 m1.308484822511673,-9.197971820831299 l-1.198253259062767,0.22478699684143066 -0.0010053560981759802,-4.664669632911682 l1.1029144376516342,-1.20758518576622 0.44482070952653885,-0.22207096219062805 l1.2543711066246033,-0.05027238745242357 2.2961753606796265,-0.5158143490552902 l3.6780786514282227,-0.0005678168236045167 0.3734062612056732,0.47416388988494873 l-2.6069149374961853,3.0440711975097656 1.9963404536247253,-1.8403998017311096 l1.274096816778183,0.00021340889361454174 1.1271201819181442,2.8526493906974792 m-3.143205940723419,11.292730569839478 l3.2998600602149963,-0.22399958223104477 -0.8689327538013458,1.8130205571651459 l0.6435103714466095,0.0005792429874418303 0.7966595888137817,-1.986563354730606 l0.4338514059782028,-3.7014442682266235 -1.95480078458786,-0.26058757677674294 m-9.26423966884613,16.05575919151306 l-2.163427919149399,-3.626047670841217 -0.6457751989364624,-2.087947726249695 l0.1465822570025921,-2.376875579357147 0.853019580245018,-0.732671394944191 m-21.85697317123413,-10.612916946411133 l-0.6719499826431274,1.2742140889167786 0.03858927637338638,2.8476351499557495 l0.8344053477048874,3.2556208968162537 1.231199949979782,0.8864587545394897 l1.6762344539165497,0.04244374576956034 0.7880425453186035,-0.5156045407056808 m6.909357309341431,-1.1736565828323364 l2.6872023940086365,5.444708466529846 0.10777950286865234,2.145114988088608 l0.17073992639780045,0.9286954253911972 2.3158037662506104,0.22861819714307785 l8.943122625350952,-2.3644156754016876 1.203584000468254,-0.8868532627820969 l0.2001591958105564,-1.9915874302387238 -1.1951714754104614,-1.4679911732673645 m60.65692551908796,-12.666677400466142 l-1.458021104335785,-1.5343216061592102 -3.012530207633972,-0.5799021571874619 l-4.670857489109039,1.7607393860816956 -1.9198863208293915,1.4167390763759613 l-1.4542341232299805,1.0899857431650162 -2.16183602809906,2.147798538208008 l-0.9528684616088867,1.1438558995723724 -0.676695853471756,2.1155279874801636 l1.1375632137060165,3.5255706310272217 0.6600414961576462,0.11642643250524998 l1.5073390305042267,0.3092283569276333 6.6162484884262085,0.2897743321955204 l9.594358801841736,-1.4795491099357605 11.65855884552002,-3.9621472358703613 l4.90632951259613,-1.6829445958137512 1.8089273571968079,-1.3183462619781494 l0.5077691748738289,-0.8426343649625778 -4.800870418548584,-1.0475979000329971 l-6.1479634046554565,-0.9770545363426208 -12.001317739486694,8.404924301430583e-05 l-3.1964603066444397,0.3035610355436802 m-12.671892642974854,8.126758933067322 l-2.692030370235443,4.085626602172852 1.5882724523544312,3.2762131094932556 l0.9687280654907227,0.5958819389343262 m28.73847484588623,-9.899563789367676 l16.595988273620605,0.00011613965398282744 3.731229305267334,0.8135995268821716 m-43.50174427032471,16.341110467910767 l-0.003931780520360917,1.683151125907898 -0.8589039742946625,-0.23320844396948814 l0.6802042573690414,-3.103768825531006 0.9202306717634201,-0.47628264874219894 l0.6041090935468674,0.1518780831247568 0.46990782022476196,0.44420354068279266 l0.24402860552072525,0.11871286667883396 -3.3095046877861023,0.6033042818307877 l0.8311519771814346,-0.1278065051883459 m2.183525860309601,3.14145565032959 l-0.00300893239909783,0.0004931771763949655 m-2.8738608956336975,-5.4054296016693115 l0.809384360909462,0.9554719179868698 m-4.9532195925712585,-3.1018832325935364 l-0.6972971558570862,-2.5355112552642822 m-6.77798867225647,7.168211936950684 l3.4134647250175476,2.2596104443073273 -0.00016784331819508225,3.6455070972442627 m20.029165744781494,-17.166123390197754 l0.8233504742383957,-1.560852974653244 0.582006573677063,-0.9039797633886337 l1.9051441550254822,-2.0370234549045563 6.072033047676086,-3.2208645343780518 l2.405400425195694,-1.3531418144702911 0.4007810354232788,2.4364522099494934 l-0.0005217309444560669,2.3131312429904938 -1.225341260433197,-0.6712789088487625 l-15.251946449279785,-2.0009173452854156 4.257608354091644,-5.429435968399048 l2.4730491638183594,-0.4712851345539093 3.35578054189682,0.12758015654981136 l0.2115018665790558,1.1251557618379593 -0.5708050355315208,1.5907905995845795 l-2.783607542514801,5.7981836795806885 5.295620560646057,-4.973415434360504 l1.4961911737918854,-0.40419667959213257 1.8468870222568512,-0.25958970189094543 l2.887232005596161,-0.28157034888863564 2.4573472142219543,0.0007222410931717604 l2.2799156606197357,-3.4094181656837463 2.7697449922561646,-2.609732151031494 l1.1453338712453842,2.386217564344406 1.6589158773422241,2.690155506134033 l1.1995931714773178,2.1369516849517822 1.4652921259403229,0.3030507080256939 l4.894246757030487,-4.68826949596405 4.742310345172882,-7.823313474655151 m-12.733347415924072,9.749230146408081 l4.334413707256317,-1.0066846013069153 m8.752857446670532,-6.589717268943787 l5.318017601966858,-1.6199558973312378 2.8607890009880066,-1.0663433372974396 l-3.054402470588684,2.0225511491298676 -1.1438533663749695,0.23060165345668793 l-0.5525044351816177,-1.068212017416954 -0.037751528434455395,-1.6131922602653503 l0.4276302084326744,-0.5198822543025017 1.342364251613617,0.046224421821534634 l-1.9787344336509705,1.9364836812019348 0.42732153087854385,0.0016505879466421902 l-1.2770585715770721,-0.4681025445461273 -0.6223708391189575,0.6950194388628006 m-27.577462196350098,30.590519905090332 l1.8102386593818665,0.6157339736819267 0.5583784356713295,0.0013218681851867586 l0.6677205860614777,-1.0887567698955536 0.9367415308952332,-1.5525087714195251 m100.44452359251409,-21.70118593661755 l-1.9416090846061707,-1.4664989709854126 -3.0781444907188416,-0.5637946724891663 l-4.374964535236359,-0.002004006819333881 -2.2629600763320923,1.3293299078941345 l-3.7982454895973206,4.020552635192871 -1.129450723528862,2.5065994262695312 l-0.3397153317928314,1.9724369049072266 -0.07481083273887634,0.8834461122751236 l0.05800990853458643,0.5599795654416084 1.7997172474861145,1.7256873846054077 l1.5373232960700989,0.0005230712849879637 5.396072864532471,0.26707177981734276 l13.00337553024292,-1.4629648625850677 20.519909858703613,-4.080568253993988 l0.33927977085113525,-0.7264361530542374 0.03275700379163027,-1.6731978952884674 l-1.4236049354076385,-1.3717567920684814 -2.726990580558777,-1.7041915655136108 l-15.917750597000122,-2.9976263642311096 -12.87966012954712,1.2188168615102768 l-2.879403233528137,1.6221420466899872 m-0.003916287096217275,1.71016126871109 l-0.20546812564134598,0.9792841970920563 m26.159005165100098,1.5732333064079285 l5.363150238990784,-5.447544455528259 -0.7497907429933548,4.882935881614685 l-0.60994703322649,5.483460426330566 -0.0003562056372174993,1.5003551542758942 m-0.05952228792011738,-0.16052000224590302 l1.347639560699463,10.843554735183716 1.8749774992465973,3.2631713151931763 l0.5412814021110535,0.7130715996026993 m-50.63912868499756,-0.25534437969326973 l1.0777931660413742,0.5905517935752869 10.472370386123657,-0.0026465728296898305 l13.114622831344604,-1.6770508885383606 m-4.001104831695557,-3.5780033469200134 l-1.345348209142685,-0.06744745653122663 m-7.177852392196655,-9.427264332771301 l-0.25585584342479706,1.184673085808754 m-0.1360247004777193,0.6443727761507034 l1.9457046687602997,3.195648491382599 1.412811279296875,0.07576397620141506 l5.068241357803345,-0.9764464944601059 0.036098877899348736,-0.8537722378969193 m1.8099504709243774,-4.82048898935318 l0.06842304021120071,3.0773302912712097 -0.09606408886611462,0.6249677762389183 l2.842355966567993,-1.2754639983177185 1.0554753988981247,-4.394916892051697 l-0.5640767887234688,-1.3787369430065155 m4.191083014011383,0.02138397889211774 l1.1259792745113373,1.1026625335216522 1.4599609375,-1.940542310476303 l0.4759332165122032,-0.41975274682044983 0.9979760646820068,0.0003511908289510757 l0.46521496027708054,-0.0007852080307202414 -0.48984888941049576,0.630452111363411 l-0.2199387550354004,0.9241507947444916 0.07371250540018082,4.7895824909210205 l0.6689340621232986,-0.2356431819498539 0.8061423897743225,-0.22652005776762962 l-0.0006727289292030036,0.19006768241524696 m-58.40549945831299,17.193151712417603 l0.0802504364401102,0.30166996642947197 -0.31488247215747833,0.9193652868270874 l-0.5461922660470009,1.5845216810703278 0.00026549185349722393,3.5432711243629456 l-0.20177070051431656,-0.011102802818641067 -0.9409519284963608,-2.8462114930152893 l0.6824561953544617,-6.442484259605408 -0.029897214844822884,-2.5613009929656982 l-0.6719399988651276,-2.478002905845642 -0.5194044858217239,-1.3099946081638336 l0.2634882740676403,-5.325619578361511 0.7020305097103119,-3.105463981628418 l0.0004445996819413267,-0.11105149984359741 m-24.02099370956421,-22.379369735717773 l0.640115961432457,1.5738216042518616 0.7365115731954575,2.785431146621704 l0.9584087133407593,0.9525561332702637 0.949934646487236,-0.1186781283468008 l0.05211142357438803,-4.369589388370514 1.623508632183075,-0.5359175056219101 l1.4464738965034485,-0.8201989531517029 4.68016654253006,0.0004623072891263291 l-3.6656174063682556,13.954273462295532 -1.5330947935581207,2.976059913635254 l0.02006141934543848,1.417698711156845 3.457837402820587,-1.1222542077302933 m0.6137338280677795,-1.4441189169883728 l-1.2056897580623627,-0.6374363601207733 -7.169893383979797,-1.7319303750991821 l4.417360424995422,-7.323188781738281 m120.95200628046769,8.673779544915305 l-1.498638093471527,-1.47698312997818 -2.858179807662964,-0.5105722695589066 l-2.1759922802448273,1.118452325463295 -5.022566318511963,3.755688965320587 l-1.2463031709194183,1.5108659863471985 -0.24799903854727745,0.5238139629364014 l0.0017564237350597978,5.738295316696167 1.0059577971696854,1.7955750226974487 l1.2243810296058655,1.119217649102211 1.4928406476974487,0.6399241834878922 l6.244925856590271,-0.026706145144999027 9.977025389671326,-2.8280285000801086 l2.035798281431198,-0.9226270020008087 8.885374665260315,-4.4203320145606995 l1.3064771890640259,-0.822710394859314 0.0829413440078497,-0.7232500612735748 l-12.8284752368927,-2.4363641440868378 -0.6875468045473099,0.8197172731161118 l-0.4738413915038109,0.1531772781163454 m50.391435623168945,0.02569435629993677 l-10.690263509750366,-2.849912643432617 m-0.7121648639440536,-0.4006773605942726 l5.410369038581848,0.5916320160031319 m-32.0683479309082,-0.9342796355485916 l-20.772883892059326,-0.006293862825259566 -1.3508130609989166,1.049315705895424 l-0.7502370327711105,2.4440881609916687 0.806846097111702,2.50456303358078 l2.4339228868484497,1.2216973304748535 m3.9062532782554626,0.16411205753684044 l-2.855367660522461,-0.3267841041088104 m-45.404348373413086,3.6765500903129578 l-0.3835529461503029,3.162483870983124 0.919538140296936,10.573112964630127 l2.3407481610774994,-2.1669602394104004 2.257099896669388,-2.114558517932892 m4.3203794956207275,-8.411421179771423 l-0.02160460688173771,-0.00437490118201822 0.9077261388301849,-1.9242846965789795 l0.6201101467013359,-0.6486687064170837 m-0.3845396637916565,-0.6650474667549133 l0.14113043434917927,-0.1466023176908493 2.095014899969101,1.9498538970947266 l0.002804902906063944,3.595469892024994 0.8274919539690018,2.029884159564972 l1.0185686498880386,0.43672148138284683 0.8171450346708298,2.2086651623249054 m-0.3207819163799286,-9.004245400428772 l0.8470099419355392,1.7830635607242584 0.0013117217167746276,-2.6865822076797485 l0.38407187908887863,0.5403677001595497 m-0.08951125666499138,-0.9556146711111069 l-0.0016838805458974093,3.731446862220764 1.8519477546215057,0.6476401537656784 l2.7977940440177917,0.0003759454921237193 1.0687367618083954,-1.2848357856273651 l3.1634863262297586e-05,3.1360968947410583 m-9.450182914733887,10.640420913696289 l3.7151628732681274,1.226547434926033 6.07860267162323,-0.0006262056558625773 l-0.0010801403550431132,-1.68118417263031 0.7703074812889099,-2.267989218235016 m-10.386425256729126,-4.231527149677277 l-1.1560685187578201,1.3422858715057373 -0.63746377825737,0.6126192584633827 l3.7812450528144836,-3.464989960193634 2.001771032810211,-6.679905652999878 l-0.478144995868206,-0.5796432495117188 0.3063679486513138,0.09316625073552132 m-6.049668192863464,-3.0359166860580444 l0.16541751101613045,-1.2770122289657593 3.7513121962547302,-4.435917437076569 l0.5248793587088585,-2.7646133303642273 -0.13523109257221222,0.7754615694284439 l-0.1137086097151041,1.415318250656128 -6.97924133419292e-05,-0.9558118879795074 l-0.032726931385695934,-0.014672614634037018 2.0786532759666443,3.28140527009964 l0.6638153642416,0.9654336422681808 -0.10555154643952847,0.8801276236772537 l5.024888515472412,-2.0658156275749207 1.6669923067092896,-5.660226941108704 l-0.07313824258744717,-0.5647312849760056 -6.709176301956177,-2.9848530888557434 m20.867462158203125,8.967998027801514 l1.0852071642875671,6.396738886833191 -0.18692228943109512,-4.789856374263763 l2.9096752405166626,-11.351372003555298 " fill="none" stroke="black" stroke-width="1" /></svg>