<?xml version="1.0" encoding="utf-8" ?>
<svg baseProfile="full" height="85.92213770374656" version="1.1" width="91.6576043702662" xmlns="http://www.w3.org/2000/svg" xmlns:ev="http://www.w3.org/2001/xml-events" xmlns:xlink="http://www.w3.org/1999/xlink"><defs /><rect fill="white" height="85.92213770374656" width="91.6576043702662" x="0" y="0" /><path d="M41.803912967443466,38.08089101687074 m-1.71057790517807,-1.4087112247943878 l-3.3205336332321167,-0.7043556123971939 -2.213689088821411,0.5031111836433411 l-4.7292450070381165,2.8174224495887756 -3.5217782855033875,3.2199114561080933 l-0.9056001156568527,1.6099557280540466 -0.40248893201351166,1.5093335509300232 l0.20124446600675583,1.3080890476703644 1.0062223672866821,1.0062223672866821 l1.8112002313137054,0.6037333980202675 2.213689088821411,0.30186669901013374 l5.836089253425598,0.0 16.099557876586914,-2.716800272464752 l7.747911810874939,-2.1130669116973877 3.0186671018600464,-1.8112002313137054 l0.8049778640270233,-0.9056001156568527 0.10062223300337791,-0.8049778640270233 l-0.5031111836433411,-0.7043556123971939 -2.41493359208107,-1.3080890476703644 l-8.955378532409668,-1.0062223672866821 -16.803913116455078,-1.0062223672866821 m-7.848533987998962,10.062223672866821 l-0.5031111836433411,0.30186669901013374 -0.20124446600675583,1.1068445444107056 l1.207466796040535,8.653512001037598 m35.82151412963867,-14.08711314201355 l-1.6099557280540466,10.665956735610962 m-34.11093711853027,4.82986718416214 l0.6037333980202675,0.0 2.0124447345733643,1.207466796040535 l3.42115581035614,1.1068445444107056 7.144178748130798,0.6037333980202675 l5.634844899177551,-0.20124446600675583 8.049778938293457,-1.6099557280540466 l4.628622829914093,-2.3143114149570465 6.037334203720093,-4.226133823394775 m-28.274848461151123,-19.218846559524536 l2.0124447345733643,10.665956735610962 m-2.1130669116973877,-11.873424053192139 l-0.10062223300337791,0.20124446600675583 m0.0,0.30186669901013374 l-0.20124446600675583,0.9056001156568527 1.1068445444107056,-1.3080890476703644 l0.20124446600675583,0.5031111836433411 -1.0062223672866821,-0.10062223300337791 m-0.7043556123971939,-1.6099557280540466 l-0.30186669901013374,1.71057790517807 m-0.10062223300337791,0.5031111836433411 l-0.6037333980202675,-1.0062223672866821 -0.20124446600675583,-2.3143114149570465 l0.10062223300337791,-2.213689088821411 0.40248893201351166,-1.4087112247943878 l0.9056001156568527,1.1068445444107056 0.9056001156568527,-0.9056001156568527 l0.40248893201351166,0.5031111836433411 0.0,1.207466796040535 l0.7043556123971939,0.10062223300337791 0.6037333980202675,0.9056001156568527 l-0.10062223300337791,1.9118224084377289 -0.8049778640270233,2.1130669116973877 m11.77280068397522,10.766578912734985 l-0.6037333980202675,0.40248893201351166 -0.30186669901013374,-0.8049778640270233 l1.3080890476703644,-9.760356545448303 0.0,-3.924266993999481 l-0.40248893201351166,-0.5031111836433411 -0.5031111836433411,0.30186669901013374 l-1.207466796040535,-0.5031111836433411 -1.207466796040535,-1.71057790517807 l-0.10062223300337791,-1.4087112247943878 1.0062223672866821,-0.7043556123971939 l1.8112002313137054,0.10062223300337791 2.1130669116973877,-0.5031111836433411 l0.5031111836433411,0.10062223300337791 0.0,0.5031111836433411 l0.7043556123971939,0.40248893201351166 1.0062223672866821,0.0 l0.30186669901013374,0.7043556123971939 -0.40248893201351166,1.8112002313137054 l0.6037333980202675,0.20124446600675583 -2.41493359208107,2.918044626712799 m-24.95431423187256,20.62755823135376 l3.3205336332321167,1.5093335509300232 1.5093335509300232,0.10062223300337791 l1.71057790517807,-0.20124446600675583 8.049778938293457,-2.3143114149570465 l14.288357496261597,-2.3143114149570465 3.0186671018600464,0.6037333980202675 l3.2199114561080933,-0.7043556123971939 2.41493359208107,-0.9056001156568527 m-36.02275848388672,7.848533987998962 l3.0186671018600464,0.8049778640270233 2.8174224495887756,0.20124446600675583 l8.45226764678955,-0.40248893201351166 11.068445444107056,0.40248893201351166 l6.641067266464233,-1.207466796040535 3.11928927898407,-1.1068445444107056 l2.716800272464752,-1.5093335509300232 " fill="none" stroke="black" stroke-width="1" /></svg>