<?xml version="1.0" encoding="utf-8" ?>
<svg baseProfile="full" height="89.97857509242976" version="1.1" width="823.3457594364882" xmlns="http://www.w3.org/2000/svg" xmlns:ev="http://www.w3.org/2001/xml-events" xmlns:xlink="http://www.w3.org/1999/xlink"><defs /><rect fill="white" height="89.97857509242976" width="823.3457594364882" x="0" y="0" /><path d="M25,27.875023773250405 m0.0,0.0 m50.04815347492695,13.45260295085609 l-6.454545855522156,-8.204653859138489 -3.6578723788261414,-2.8393712639808655 l-4.135123193264008,-1.5464210510253906 -3.9544785022735596,-0.11367234401404858 l-3.3729302883148193,1.1135800182819366 -2.7084460854530334,1.6266550123691559 l-3.621663451194763,3.6378976702690125 -2.8350380063056946,5.132535099983215 l-0.6731262058019638,6.607460379600525 1.2260479480028152,4.893222749233246 l2.433544397354126,3.844616115093231 2.558814585208893,2.3685911297798157 l2.6744642853736877,1.5413308143615723 4.143308103084564,1.32783442735672 l4.350801110267639,-0.000112194020402967 3.0069389939308167,-0.726282000541687 l2.5775718688964844,-1.273333877325058 3.1439080834388733,-2.537878155708313 l1.9645370543003082,-2.558518946170807 1.084253340959549,-2.5753137469291687 l0.656859502196312,-3.959169387817383 -0.1338733732700348,-6.398254036903381 l-1.1424463987350464,-2.997817099094391 m-13.062160015106201,2.614751160144806 l0.6348516047000885,-1.8609648942947388 0.1943931169807911,-1.0594426840543747 m-0.5978133529424667,3.1206470727920532 l2.5657659769058228,-1.9044625759124756 m-2.1381862461566925,2.9849138855934143 l2.4796320497989655,1.1234097182750702 m93.04446851834655,-1.5948278760424728 l-6.442181468009949,-8.148491382598877 -3.676176965236664,-2.980935573577881 l-2.5223076343536377,-1.1829402297735214 -4.559023678302765,-0.5687800422310829 l-4.004625082015991,1.0264196246862411 -3.5519105195999146,2.2128447890281677 l-3.6937034130096436,3.8674387335777283 -1.90084770321846,3.313104510307312 l-1.701524555683136,7.33127236366272 0.7985815405845642,5.229250192642212 l2.682400345802307,4.295117557048798 2.6486140489578247,2.3460176587104797 l2.5267833471298218,1.5229164063930511 4.0497466921806335,1.3953699171543121 l3.583694100379944,0.4464555159211159 4.531571567058563,-0.40712054818868637 l2.9283902049064636,-1.1260584741830826 1.997624933719635,-1.5172991156578064 l2.491181194782257,-2.9515933990478516 1.4702124893665314,-2.9878944158554077 l0.9102173149585724,-4.455077350139618 -0.19353928044438362,-9.85872745513916 l-0.5375595763325691,-1.1678854376077652 -0.9131146222352982,-0.8557514101266861 m-13.924598693847656,3.6706548929214478 l0.7089190930128098,-3.9728739857673645 m-0.35849902778863907,4.35836136341095 l2.9297471046447754,-0.29062625020742416 1.6038744151592255,-0.2527310140430927 m-3.2543057203292847,2.106892913579941 l1.3958334922790527,0.813353881239891 m92.73190060630441,-1.3575568050146103 l-5.812138915061951,-7.711421251296997 -3.7301692366600037,-2.863375246524811 l-3.789222538471222,-1.4095079898834229 -4.521055519580841,-0.331684835255146 l-3.48715603351593,0.8334166556596756 -2.253579944372177,1.1683731526136398 l-3.427322506904602,3.2519933581352234 -2.802848517894745,5.4275137186050415 l-1.0054822266101837,5.259491801261902 0.43109074234962463,4.666740894317627 l2.1202319860458374,4.73086416721344 2.698580026626587,3.2519695162773132 l3.418307900428772,2.4723094701766968 3.035847246646881,1.1944519728422165 l5.301992297172546,0.7666521519422531 3.074752390384674,-0.0002654034506122116 l4.25789475440979,-1.2899714708328247 1.7406119406223297,-1.0998524725437164 l2.6201385259628296,-2.7627286314964294 1.818079799413681,-2.9256099462509155 l1.4041750133037567,-4.914021790027618 -0.00012139423233747948,-3.8549599051475525 l-1.2852570414543152,-5.05396842956543 -1.0732029378414154,-1.8354004621505737 m-13.137460947036743,-0.3211880475282669 l0.5058538168668747,-3.6242669820785522 m-0.0006371112976921722,2.296288013458252 l1.221621036529541,-0.5060089007019997 m0.47678373754024506,1.5068581700325012 l2.4444305896759033,-0.012743156403303146 m91.16162402472582,3.3622586731689807 l-6.773183345794678,-7.351671457290649 -3.3304065465927124,-2.728826105594635 l-2.636932134628296,-1.0737478733062744 -6.115587949752808,-0.001217914468725212 l-3.2698792219161987,1.1217208206653595 -3.8991332054138184,1.8752655386924744 l-2.5104644894599915,2.0775318145751953 -3.615030348300934,6.443768739700317 l-0.3063339553773403,6.5847474336624146 0.9834572672843933,4.763428866863251 l1.5276333689689636,3.3548349142074585 1.8423612415790558,2.2469989955425262 l4.001495540142059,2.563086748123169 4.615243375301361,1.0464270412921906 l4.527132213115692,-0.16808543354272842 3.4223932027816772,-0.7837744802236557 l4.117584824562073,-1.8330314755439758 1.6293992102146149,-1.481061577796936 l1.4257621765136719,-1.933051198720932 1.3398805260658264,-3.119785785675049 l1.0105004161596298,-4.561657607555389 -0.06047674920409918,-7.762383222579956 l-2.6926761865615845,-4.354794919490814 -0.8163028210401535,-0.09252246469259262 m-10.248457193374634,6.563125252723694 l0.41595395654439926,0.1105804555118084 m0.2999970503151417,0.2341373823583126 l2.608097493648529,-2.5565913319587708 m-2.581149637699127,5.377686023712158 l3.7765517830848694,-0.5315534397959709 m91.76415860187262,-3.9364409632980824 l-6.584071516990662,-8.132008910179138 -4.132288694381714,-2.8086894750595093 l-2.8816860914230347,-1.217142790555954 -2.1838852763175964,-0.3037889860570431 l-4.463239312171936,1.3195563852787018 -4.098106026649475,1.9641025364398956 l-4.887042045593262,3.931317925453186 -2.283024787902832,3.4864380955696106 l-1.4539317786693573,4.337987303733826 1.0230530053377151,7.477625608444214 l2.5836345553398132,4.448887407779694 3.0422773957252502,3.359159827232361 l1.683475524187088,1.263476014137268 3.067842423915863,1.3546329736709595 l4.022166430950165,-0.00029810433261445723 4.214761853218079,-0.6470057368278503 l3.1664201617240906,-1.0311761498451233 3.6404749751091003,-2.265128642320633 l2.411741018295288,-2.43895947933197 0.5550439655780792,-0.9160056710243225 l0.9070325642824173,-2.800368070602417 0.6206148862838745,-6.378519535064697 l-1.2049650400877,-4.031638205051422 -2.539936900138855,-6.020859479904175 m-12.332284450531006,7.990404367446899 l1.371312439441681,-0.27949612587690353 m-0.04885786212980747,-0.4179263114929199 l-0.001077255728887394,-0.15065704472362995 2.0181170105934143,0.00010532377928029746 m-3.3151420950889587,-3.2246428728103638 m96.4948940598697,1.5691308179339103 l-6.060758829116821,-7.30563223361969 -3.4216251969337463,-2.6889535784721375 l-4.188219606876373,-1.486506164073944 -3.476954400539398,-0.2346518076956272 l-3.718910813331604,0.7994384318590164 -3.2260558009147644,2.0467253029346466 l-4.082341194152832,6.091077923774719 -1.6487978398799896,4.527490735054016 l0.19473711028695107,5.195539593696594 0.9570512175559998,2.70653635263443 l2.8835001587867737,6.225713491439819 2.4713605642318726,3.2331523299217224 l2.934417724609375,1.6630840301513672 2.8980588912963867,0.8497689664363861 l4.8106443881988525,0.8886115252971649 3.9886662364006042,-1.025635078549385 l3.110097646713257,-1.8259428441524506 3.3973488211631775,-5.209585428237915 l1.0781610012054443,-2.8404146432876587 0.14725040644407272,-3.0813762545585632 l-0.10967032052576542,-1.8538084626197815 -1.3401171565055847,-5.311675071716309 l-2.930285632610321,-6.0413771867752075 m-2.758159339427948,-2.852722406387329 l-0.002993568778038025,-1.2704594433307648 m-2.260405272245407,2.4353745579719543 l0.0051635445561259985,-0.0034723570570349693 0.7402664422988892,2.438618242740631 m0.41796911507844925,-1.2268882989883423 l4.025129675865173,-2.998110055923462 m86.21548878611065,7.629537167958915 l-7.086901664733887,-8.296965956687927 -3.46505343914032,-3.1487873196601868 l-3.270072042942047,-1.4885179698467255 -4.142939746379852,-0.6590040028095245 l-3.1622350215911865,0.6969158351421356 -4.1378796100616455,2.742646038532257 l-3.0619731545448303,3.3595463633537292 -1.5155701339244843,2.2992879152297974 l-1.2689381837844849,3.7045907974243164 -1.1652035266160965,11.491843461990356 l0.9605305641889572,5.4641419649124146 2.5389009714126587,2.27388396859169 l2.3420004546642303,2.5886183977127075 4.659782648086548,1.8885643780231476 l4.756978154182434,0.5425803735852242 3.4833675622940063,-0.508454218506813 l1.4114214479923248,-0.7049635797739029 3.2435649633407593,-2.2324827313423157 l2.722499370574951,-2.4838006496429443 1.8324807286262512,-2.379290759563446 l0.7834188640117645,-2.1470612287521362 0.8902349323034286,-5.848940014839172 l-0.2357960306107998,-3.752506971359253 -1.459571123123169,-8.901714086532593 m-13.131439685821533,0.8205529302358627 l-0.0043139446643181145,-0.002022817061515525 m-0.059731691144406796,0.1078511867672205 l3.4749388694763184,0.3717978298664093 m-2.670923173427582,1.160290464758873 l2.197779417037964,-0.13986543752253056 1.7959289252758026,-0.027481697034090757 m92.12233935279073,4.734013971519744 l-7.133055925369263,-8.671322464942932 -4.442434012889862,-3.4601202607154846 l-5.045844316482544,-2.0291519165039062 -1.2717056274414062,-0.0003850725988741033 l-3.9388400316238403,0.5055221542716026 -7.4731093645095825,4.571684896945953 l-1.202639415860176,2.5319063663482666 -1.251450926065445,3.1800103187561035 l-0.7763151079416275,8.655409812927246 1.1432025581598282,4.58977073431015 l3.118930757045746,4.527438282966614 2.8104746341705322,2.8123298287391663 l6.66267991065979,3.0143946409225464 4.740120768547058,0.00031549989216728136 l0.9047122299671173,-0.01590129337273538 1.664445698261261,-0.5240741744637489 l3.392917513847351,-2.121889591217041 3.122883141040802,-2.3755764961242676 l2.090096026659012,-1.829620748758316 0.9678130596876144,-1.3607966899871826 l0.41912712156772614,-2.3527100682258606 0.25747502222657204,-7.6961904764175415 l-1.206313967704773,-3.67095410823822 -3.6118435859680176,-5.62325656414032 m0.2910201624035835,0.8765427023172379 l0.23019172251224518,0.5761926248669624 m-3.7818971276283264,6.349058747291565 l0.9883899241685867,0.6240914762020111 0.6210631132125854,0.5970620363950729 m4.749384820461273,-7.604770660400391 l-0.4448219761252403,5.450924634933472 m86.8316516187042,-3.6767474741657225 l-6.0464030504226685,-7.8857362270355225 -4.355514645576477,-3.013542592525482 l-6.083965301513672,-1.0432959347963333 -4.184846878051758,-0.07690169848501682 l-2.610734701156616,0.7088641822338104 -2.922881543636322,0.9553617984056473 l-1.2019082903862,0.7898160815238953 -3.599311113357544,3.5987061262130737 l-2.4361667037010193,3.960905969142914 -3.3481645584106445,14.348728656768799 l3.853321671485901,8.964113593101501 3.4896457195281982,3.399531841278076 l2.4245446920394897,2.082110345363617 2.0210614800453186,1.170189380645752 l1.9285431504249573,2.070643176921294e-05 5.95690131187439,0.0002264113209093921 l3.2609498500823975,-0.41724395006895065 4.039373099803925,-1.309720128774643 l3.2852014899253845,-2.4001875519752502 3.6375486850738525,-4.928821623325348 l0.6813888251781464,-1.6690652072429657 0.5460914969444275,-5.196776390075684 l-0.6501365453004837,-3.9227911829948425 -0.6175200268626213,-4.172235131263733 l-2.6823776960372925,-2.0366573333740234 m-13.406414985656738,6.6362422704696655 m0.009081225143745542,-1.738821268081665 l1.781914085149765,-0.6038283929228783 m-7.040860652923584,1.8735866248607635 m3.163309395313263,-0.252396110445261 l2.567979097366333,-0.0023047972354106605 m98.70490285451524,-3.3265009900981113 l-6.477733254432678,-6.765342354774475 -3.4269848465919495,-2.7213969826698303 l-3.3228763937950134,-2.2572578489780426 -4.4637733697891235,-1.8170449137687683 l-7.051085829734802,0.8509181439876556 -2.3926348984241486,2.45785191655159 l-2.0411333441734314,1.5118731558322906 -1.8715088069438934,3.057047128677368 l-3.44057559967041,7.701111435890198 -0.40604058653116226,12.091763019561768 l1.518833488225937,4.2951899766922 3.104192316532135,2.3639364540576935 l3.4427672624588013,1.2838451564311981 7.187269330024719,0.9900607168674469 l2.3248808085918427,-0.033679292537271976 2.046496719121933,-0.5194590985774994 l5.017410516738892,-2.2391457855701447 1.1765529960393906,-0.33365916460752487 l1.641620248556137,-1.4759737253189087 0.5767960846424103,-1.2342353910207748 l0.8734039962291718,-3.7033432722091675 0.9010694175958633,-4.894660711288452 l0.3304152935743332,-12.426531314849854 m-14.660450220108032,4.186986982822418 l-0.002701358462218195,-2.7171683311462402 1.0844068229198456,-11.229108572006226 m2.0334257185459137,12.415112257003784 l-0.1674172468483448,1.2233597040176392 0.7908491790294647,0.801360234618187 m6.888257265090942,-14.707709550857544 " fill="none" stroke="black" stroke-width="1" /></svg>