<?xml version="1.0" encoding="utf-8" ?>
<svg baseProfile="full" height="84.01031460613012" version="1.1" width="83.7084480933845" xmlns="http://www.w3.org/2000/svg" xmlns:ev="http://www.w3.org/2001/xml-events" xmlns:xlink="http://www.w3.org/1999/xlink"><defs /><rect fill="white" height="84.01031460613012" width="83.7084480933845" x="0" y="0" /><path d="M57.90347069501877,38.08089029043913 m-7.244800925254822,-8.45226764678955 l-3.622400462627411,-2.918044626712799 -3.622400462627411,-1.5093335509300232 l-4.226133823394775,-0.20124446600675583 -3.7230226397514343,1.207466796040535 l-1.9118224084377289,1.0062223672866821 -4.226133823394775,4.326756000518799 l-3.0186671018600464,5.735467076301575 -1.3080890476703644,5.836089253425598 l0.10062223300337791,3.0186671018600464 1.0062223672866821,2.41493359208107 l6.4398229122161865,7.244800925254822 3.42115581035614,1.8112002313137054 l3.2199114561080933,0.8049778640270233 4.0248894691467285,0.6037333980202675 l3.42115581035614,0.0 2.41493359208107,-1.4087112247943878 l2.1130669116973877,-2.213689088821411 2.716800272464752,-2.1130669116973877 l2.1130669116973877,-2.8174224495887756 1.5093335509300232,-3.2199114561080933 l1.207466796040535,-6.54044508934021 0.0,-1.207466796040535 l-0.8049778640270233,-1.0062223672866821 m-17.508268356323242,-8.552889823913574 l0.40248893201351166,3.3205336332321167 m6.23857855796814,2.716800272464752 l0.5031111836433411,-2.0124447345733643 1.5093335509300232,-2.5155559182167053 m0.40248893201351166,7.244800925254822 l3.42115581035614,-0.40248893201351166 " fill="none" stroke="black" stroke-width="1" /></svg>