<?xml version="1.0" encoding="utf-8" ?>
<svg baseProfile="full" height="76.31472995504737" version="1.1" width="84.59632979858725" xmlns="http://www.w3.org/2000/svg" xmlns:ev="http://www.w3.org/2001/xml-events" xmlns:xlink="http://www.w3.org/1999/xlink"><defs /><rect fill="white" height="76.31472995504737" width="84.59632979858725" x="0" y="0" /><path d="M43.57965252514987,26.022218596190214 m-3.101296126842499,1.4170365035533905 l-0.323229543864727,0.5406693741679192 0.3421346843242645,0.2263365127146244 l2.97632098197937,-0.6606505811214447 0.6566573679447174,-1.2633587419986725 l-0.4478762671351433,-1.1328814178705215 -1.2807609140872955,-0.1493702456355095 m-0.4391248896718025,4.507010281085968 l-0.15468026511371136,2.002232074737549 0.06074951030313969,2.8147196769714355 l0.31892772763967514,2.24405974149704 0.5564218759536743,1.6877412796020508 l0.7059869915246964,0.7943861186504364 1.1107202619314194,0.19243018701672554 l0.8454469591379166,-0.6076409295201302 0.65924271941185,-1.3597068190574646 l0.32049793750047684,-2.7940356731414795 -0.5281464383006096,-3.180939257144928 l-0.7694480568170547,-1.5994477272033691 -0.9379527717828751,-0.7271920889616013 m-1.4052967727184296,5.5143725872039795 l-0.8155480027198792,7.264697551727295 -0.5885261297225952,4.659071564674377 l-0.4065726697444916,3.2559940218925476 -0.15059261582791805,1.6469773650169373 m2.7860456705093384,-12.202087640762329 l1.6313989460468292,3.552095592021942 1.6177251935005188,5.345384478569031 l0.5588089302182198,2.9921045899391174 m-3.9780348539352417,-14.692696332931519 l3.8781705498695374,-1.7524956166744232 3.7493714690208435,-2.1755003929138184 l1.8387244641780853,-1.2307687848806381 1.0613325238227844,-0.5763847753405571 l1.287636160850525,-0.3684205561876297 1.8456979095935822,0.21637743338942528 l1.5298976004123688,1.1789815127849579 1.005847156047821,2.170380651950836 l-0.002271175180794671,2.819688320159912 -1.4323478937149048,3.0446821451187134 l-2.57881760597229,2.7319255471229553 -1.9581685960292816,1.2096267938613892 l-5.265412330627441,1.7042739689350128 -6.921937465667725,1.2484809756278992 m0.40101051330566406,-12.660621404647827 l-4.953832924365997,-1.169152781367302 m5.302131175994873,1.3886472582817078 l-2.619071304798126,0.02699463628232479 -1.7342384159564972,0.3016958571970463 l-1.5885065495967865,0.8184041827917099 -0.7695476710796356,1.035912185907364 l-0.22038618102669716,1.6941139101982117 0.5590753629803658,1.1940580606460571 l1.7710691690444946,1.2072240561246872 1.1936953663825989,0.6294523179531097 l1.7123369872570038,0.39202697575092316 0.9354734420776367,0.016857398441061378 m1.7202059924602509,-10.701473951339722 l-0.814136192202568,0.01790001755580306 -1.0771679878234863,0.7653456926345825 l-1.16361565887928,1.7676368355751038 -0.23360451683402061,1.3237755000591278 l0.46729158610105515,0.8746044337749481 1.6717429459095001,0.7332609593868256 l2.3440708220005035,3.589387915781117e-05 1.359013170003891,-0.6775104999542236 l1.0585729777812958,-1.5179449319839478 0.13062136247754097,-1.2976594269275665 l-0.5792318284511566,-0.9904764592647552 -1.7440471053123474,-0.9461503475904465 l-1.6220280528068542,-0.1814723014831543 m0.09997345507144928,5.9230077266693115 l0.0003444209141889587,-0.0028190447483211756 m1.579498052597046,0.038710401859134436 l-0.0005286478699417785,-0.0016571700689382851 m-2.521006762981415,2.9618990421295166 l-0.0007647249731235206,-0.0007356995047302917 m0.8843272179365158,0.46439792960882187 l0.0010344232578063384,-0.000990182234090753 m-0.12016996741294861,0.3119414485991001 l-3.4754678606987,-0.7084150612354279 -5.40975034236908,-1.3604409992694855 l-2.4886278808116913,-0.26981083676218987 -2.4530471861362457,0.22824449464678764 l-2.3753727972507477,1.012408584356308 -1.2186966091394424,1.2403303384780884 l-0.44601600617170334,1.4113351702690125 0.27774399146437645,1.4442022144794464 l1.0967368632555008,1.2709848582744598 2.922697365283966,1.4913101494312286 l6.817829012870789,1.231023371219635 1.8443691730499268,0.40800735354423523 l1.7891180515289307,0.1693127304315567 1.2888415157794952,-0.148207675665617 l2.2291798889636993,-1.320924311876297 m-2.01655775308609,-5.242444276809692 l3.5910779237747192,-0.5708892270922661 2.8814485669136047,-0.3154287114739418 l2.093712091445923,0.1313538011163473 1.7197036743164062,0.7939228415489197 l1.3343574106693268,1.610226333141327 0.4075576364994049,2.076258212327957 l-0.9881757199764252,2.315230816602707 " fill="none" stroke="black" stroke-width="1" /></svg>