<?xml version="1.0" encoding="utf-8" ?>
<svg baseProfile="full" height="1645.0" version="1.1" width="1575.0" xmlns="http://www.w3.org/2000/svg" xmlns:ev="http://www.w3.org/2001/xml-events" xmlns:xlink="http://www.w3.org/1999/xlink"><defs /><rect fill="white" height="1645.0" width="1575.0" x="0" y="0" /><path d="M765.0,190.0 m-145.0,70.0 l-10.0,20.0 20.0,0.0 l200.0,-70.0 -15.0,-20.0 l-35.0,-5.0 -65.0,10.0 m10.0,190.0 l-65.0,80.0 -25.0,65.0 l0.0,50.0 30.0,20.0 l60.0,-10.0 90.0,-50.0 l120.0,-120.0 -10.0,-25.0 l-65.0,-10.0 -95.0,5.0 l-55.0,30.0 m-35.0,240.0 l-20.0,120.0 25.0,570.0 l25.0,155.0 45.0,95.0 m65.0,-975.0 l80.0,125.0 105.0,290.0 l25.0,160.0 5.0,350.0 l20.0,70.0 m-160.0,-985.0 l55.0,-110.0 165.0,-200.0 l335.0,-275.0 80.0,-25.0 l20.0,20.0 -5.0,45.0 l-160.0,225.0 -120.0,130.0 m110.0,-120.0 l60.0,-35.0 75.0,-15.0 l30.0,0.0 5.0,20.0 l-125.0,160.0 -165.0,145.0 m150.0,-80.0 l120.0,-15.0 30.0,5.0 l-15.0,35.0 -275.0,235.0 m105.0,-70.0 l55.0,-15.0 90.0,25.0 l-40.0,55.0 -180.0,90.0 m95.0,-20.0 l50.0,75.0 -15.0,40.0 l-85.0,15.0 -75.0,-30.0 m40.0,30.0 l15.0,110.0 -15.0,50.0 l-25.0,15.0 -95.0,-35.0 l-175.0,-130.0 m-505.0,-500.0 l-135.0,-10.0 -155.0,40.0 l-110.0,55.0 -60.0,70.0 l-15.0,85.0 40.0,20.0 l385.0,-140.0 m-190.0,150.0 l-50.0,35.0 -55.0,80.0 l-40.0,110.0 0.0,20.0 l90.0,-25.0 325.0,-200.0 m-115.0,135.0 l-65.0,30.0 -40.0,60.0 l-30.0,110.0 25.0,15.0 l80.0,-60.0 145.0,-160.0 m-110.0,145.0 l-5.0,100.0 20.0,-10.0 l45.0,-70.0 m-60.0,90.0 l-25.0,135.0 10.0,75.0 l40.0,-20.0 160.0,-170.0 " fill="none" stroke="black" stroke-width="1" /></svg>