<?xml version="1.0" encoding="utf-8" ?>
<svg baseProfile="full" height="1020.0" version="1.1" width="1235.0" xmlns="http://www.w3.org/2000/svg" xmlns:ev="http://www.w3.org/2001/xml-events" xmlns:xlink="http://www.w3.org/1999/xlink"><defs /><rect fill="white" height="1020.0" width="1235.0" x="0" y="0" /><path d="M1000.0,120.0 m-200.0,-75.0 l-475.0,105.0 -150.0,75.0 l-115.0,85.0 -30.0,55.0 l-5.0,215.0 65.0,215.0 l125.0,85.0 175.0,80.0 l185.0,35.0 255.0,0.0 l250.0,-165.0 90.0,-150.0 l30.0,-100.0 10.0,-165.0 l-15.0,-130.0 -40.0,-55.0 l-180.0,-125.0 -15.0,-65.0 l-25.0,-15.0 m-310.0,135.0 l10.0,35.0 m285.0,75.0 l35.0,-25.0 15.0,15.0 m-430.0,310.0 l-105.0,50.0 m175.0,-65.0 l-40.0,-125.0 -5.0,-110.0 l25.0,-85.0 75.0,200.0 l0.0,100.0 -85.0,5.0 l-180.0,125.0 -140.0,60.0 l80.0,55.0 " fill="none" stroke="black" stroke-width="1" /></svg>