<?xml version="1.0" encoding="utf-8" ?>
<svg baseProfile="full" height="72.35574479214847" version="1.1" width="75.50970810698345" xmlns="http://www.w3.org/2000/svg" xmlns:ev="http://www.w3.org/2001/xml-events" xmlns:xlink="http://www.w3.org/1999/xlink"><defs /><rect fill="white" height="72.35574479214847" width="75.50970810698345" x="0" y="0" /><path d="M44.744030982255936,28.5028141643852 m-4.009665250778198,-1.524532437324524 l-5.350880026817322,-0.515056662261486 -6.40254020690918,2.169911712408066 l-2.284042239189148,2.152910828590393 -1.3925211131572723,2.834916114807129 l-0.3043821454048157,4.338124096393585 1.443018615245819,3.5969188809394836 l3.0059143900871277,3.129799962043762 3.9964666962623596,1.9759735465049744 l4.313942492008209,0.6939645856618881 4.53180193901062,-0.25803131982684135 l3.4926316142082214,-1.4259128272533417 2.2460386157035828,-1.8355844914913177 l1.63589745759964,-2.4914801120758057 0.8197728544473648,-3.0303171277046204 l0.024223432410508394,-3.193468153476715 -0.7641001045703888,-2.6235952973365784 l-2.0491059124469757,-3.2005655765533447 -1.8070954084396362,-1.619703322649002 l-2.0478807389736176,-1.0804418474435806 -2.226768285036087,-0.5345214158296585 m-5.846043229103088,8.77870500087738 l-0.2845485880970955,0.5729274451732635 0.5513230338692665,0.5443963035941124 l0.3846898302435875,-0.9458722919225693 -0.6197718158364296,0.07416529580950737 l-0.010991415474563837,0.5740019679069519 0.757860541343689,-0.4981612414121628 l-0.2806839905679226,-0.18335828557610512 -0.21076872944831848,0.8050800859928131 l0.6330934911966324,-0.35500049591064453 -0.1950710453093052,-0.2995666489005089 l-0.24696538224816322,0.58670274913311 0.4000764340162277,-0.15045051462948322 m-0.04672858398407698,-0.34723568707704544 l-0.11602790094912052,-7.44810163974762 -0.21436117589473724,-2.7703553438186646 " fill="none" stroke="black" stroke-width="1" /></svg>