<?xml version="1.0" encoding="utf-8" ?>
<svg baseProfile="full" height="84.77790746255778" version="1.1" width="77.97879735007882" xmlns="http://www.w3.org/2000/svg" xmlns:ev="http://www.w3.org/2001/xml-events" xmlns:xlink="http://www.w3.org/1999/xlink"><defs /><rect fill="white" height="84.77790746255778" width="77.97879735007882" x="0" y="0" /><path d="M25.41247016750276,46.99466321035288 m0.030051851645112038,2.7045750617980957 l-0.3643527999520302,2.1994149684906006 -0.07816921919584274,3.9345580339431763 l0.6872647255659103,1.1474896222352982 1.9507680833339691,1.421305239200592 l4.482713043689728,0.968889594078064 12.085413932800293,0.4070117324590683 l3.602314293384552,-0.4871225357055664 3.1057900190353394,-1.2131161987781525 l1.036587804555893,-0.9836329519748688 0.7838373631238937,-1.940072923898697 l0.24410808458924294,-2.633734941482544 -0.40437791496515274,-2.4568861722946167 l-1.1194103956222534,-2.1586160361766815 -1.701456755399704,-1.6910737752914429 l-2.1259108185768127,-1.1150755733251572 -2.9104000329971313,-0.7925187051296234 l-3.492703139781952,-0.3534511849284172 -3.707784414291382,0.07172823417931795 l-3.246382772922516,0.5900441110134125 -3.151925504207611,1.0771027952432632 l-4.833912253379822,1.03840172290802 -1.0538115352392197,0.6529376655817032 m4.494480490684509,-1.3477496802806854 l-0.004304030153434724,-3.38998943567276 -0.5828803032636642,-4.398191869258881 l2.4879421293735504,-0.43206367641687393 9.69393253326416,-0.41014380753040314 l5.057080984115601,-0.0755977164953947 0.39376456290483475,0.5819127336144447 l-0.04143184516578913,7.480884790420532 0.06622192449867725,2.345694601535797 m-12.776193618774414,-11.244721412658691 l-0.04009237512946129,-1.340993046760559 -0.30971501022577286,-4.0247854590415955 l3.685147762298584,0.01871362212114036 5.8139073848724365,0.07392710540443659 l-0.06423649378120899,6.716582179069519 -0.15025533735752106,1.077117994427681 m-6.331138014793396,-7.086390256881714 l-0.04552380181849003,-2.0280922949314117 -0.48643842339515686,-3.069368600845337 l2.505253255367279,-0.02921830164268613 2.6728492975234985,-0.34176863729953766 l0.10368994437158108,5.694096684455872 -0.037650386802852154,0.897553488612175 m-3.7842702865600586,-4.5568448305130005 l-0.0967032928019762,-2.5973740220069885 1.0528847575187683,-0.462261438369751 l2.825362980365753,0.12207477353513241 -0.003258311771787703,4.431868195533752 l-0.11568672023713589,0.09873972274363041 m-4.894935190677643,-0.3814612329006195 l-0.03680612659081817,-2.2716429829597473 0.2925625443458557,-1.2774871289730072 l0.803411528468132,-0.9091644734144211 1.4535737037658691,-0.24667657911777496 l0.4245299845933914,0.485587976872921 0.23215297609567642,2.6523995399475098 " fill="none" stroke="black" stroke-width="1" /></svg>