<?xml version="1.0" encoding="utf-8" ?>
<svg baseProfile="full" height="915.0" version="1.1" width="1440.0" xmlns="http://www.w3.org/2000/svg" xmlns:ev="http://www.w3.org/2001/xml-events" xmlns:xlink="http://www.w3.org/1999/xlink"><defs /><rect fill="white" height="915.0" width="1440.0" x="0" y="0" /><path d="M85.0,245.0 m0.0,135.0 l-25.0,100.0 25.0,250.0 l55.0,40.0 115.0,25.0 l265.0,25.0 380.0,70.0 l215.0,0.0 110.0,-55.0 l105.0,-115.0 85.0,-240.0 l0.0,-45.0 -60.0,-95.0 l-80.0,-70.0 -115.0,-50.0 l-205.0,0.0 -330.0,35.0 l-335.0,-5.0 -125.0,25.0 l-105.0,45.0 m360.0,0.0 l35.0,75.0 -5.0,30.0 l-55.0,50.0 -55.0,10.0 l-5.0,40.0 25.0,25.0 l-35.0,105.0 -55.0,50.0 m460.0,-300.0 l0.0,0.0 m-10.0,-140.0 l5.0,110.0 -10.0,45.0 m-20.0,45.0 l-60.0,140.0 0.0,25.0 m285.0,-390.0 l25.0,150.0 -70.0,280.0 m220.0,-345.0 l140.0,85.0 20.0,30.0 l-10.0,35.0 -185.0,65.0 l-50.0,60.0 0.0,65.0 l35.0,65.0 0.0,115.0 m-1015.0,-510.0 l25.0,-120.0 -10.0,-105.0 l-20.0,-40.0 5.0,-20.0 l125.0,-25.0 270.0,0.0 l25.0,30.0 30.0,95.0 l0.0,115.0 " fill="none" stroke="black" stroke-width="1" /></svg>