<?xml version="1.0" encoding="utf-8" ?>
<svg baseProfile="full" height="75.99748483884468" version="1.1" width="85.76372290961444" xmlns="http://www.w3.org/2000/svg" xmlns:ev="http://www.w3.org/2001/xml-events" xmlns:xlink="http://www.w3.org/1999/xlink"><defs /><rect fill="white" height="75.99748483884468" width="85.76372290961444" x="0" y="0" /><path d="M29.075205392678072,34.75580118596554 m0.30607517808675766,11.688809394836426 m-0.689789280295372,-12.689679861068726 l1.3183152675628662,0.1742071472108364 8.473880887031555,0.16247600317001343 l6.8157124519348145,0.16567805781960487 2.7682656049728394,0.21813061088323593 l0.3767874836921692,0.5277382954955101 0.007058041519485414,2.814684212207794 l-0.3396592289209366,7.373871803283691 -0.5236519500613213,3.0964839458465576 l-0.5931840464472771,0.3731777146458626 -10.641578435897827,0.17277659848332405 l-4.096461534500122,-0.28585409745574 -4.277998507022858,-0.49384087324142456 m4.132556617259979,-16.213902235031128 l0.013184387935325503,-2.16405987739563 0.4703647270798683,-2.768561840057373 m4.419310390949249,4.531410038471222 l4.7148546400421765e-05,-3.278421461582184 0.08386893197894096,-2.30225071310997 m4.438930451869965,5.640466809272766 l0.07090803701430559,-3.5297957062721252 0.3143588826060295,-2.2873756289482117 m3.5048675537109375,5.923610329627991 l0.33487748354673386,-3.1106483936309814 0.5302451550960541,-2.477942556142807 l0.4744148254394531,-1.0169889032840729 m-15.407456159591675,5.529327988624573 l-0.45414999127388,-0.9051370620727539 0.4467330127954483,-2.0360395312309265 l1.01155586540699,-1.1513562500476837 1.2232055515050888,-0.472186915576458 l1.5221664309501648,0.29472945258021355 1.2754271924495697,1.409779042005539 l0.6150973960757256,2.1060603857040405 -0.17247674986720085,1.1649426072835922 l-1.1694099009037018,0.9531460702419281 -2.2898153960704803,0.41056327521800995 l-1.5630090236663818,-0.5848490446805954 -0.6692919880151749,-1.191689372062683 m6.18019700050354,-2.0687824487686157 l-0.14593002386391163,0.8114947378635406 m2.491292506456375,-0.8107412606477737 l-0.03923384938389063,0.9667767584323883 m-6.513221263885498,4.314306974411011 l2.532409429550171,0.16449542716145515 2.6353418827056885,0.0009480969310970977 l2.795870006084442,-0.034169487189501524 m-7.129696607589722,1.528225690126419 l3.017427921295166,0.3568720072507858 4.005850255489349,0.3289974108338356 l3.6033397912979126,0.16086915507912636 2.6891180872917175,0.14703402295708656 m-15.57889461517334,4.0068840980529785 l3.017018437385559,0.42031023651361465 4.6880534291267395,0.4547983780503273 l4.569588303565979,0.22981448099017143 3.3508798480033875,-0.08560328744351864 l2.96757310628891,-0.16191672533750534 1.3626974821090698,-0.26052234694361687 l0.7234813272953033,-0.4075174778699875 0.5082345753908157,-0.9857731312513351 l-0.10386810638010502,-0.963069275021553 -1.2191687524318695,-1.2552542984485626 l-2.879120409488678,-0.5145235732197762 -3.873147964477539,0.2018209919333458 l-7.156217098236084,0.9031449258327484 -5.950371026992798,0.8897407352924347 l-3.0651208758354187,0.47089558094739914 -2.291540205478668,0.6497515738010406 l-0.7372359186410904,0.43014977127313614 -0.5910948291420937,1.3335712254047394 l0.1305502187460661,1.2920349836349487 0.8181449770927429,1.0774654150009155 l1.5054814517498016,0.9004011750221252 2.093397080898285,0.5914323404431343 l6.421946287155151,0.5143695697188377 7.10978627204895,-0.0579109787940979 l6.551204323768616,-0.3383435681462288 5.23876428604126,-0.4620545357465744 l3.3507201075553894,-0.9767221659421921 1.596321016550064,-1.0322773456573486 l0.7801886647939682,-1.172363981604576 0.16721822321414948,-1.217121034860611 l-0.4649558290839195,-1.072833389043808 -1.0665551573038101,-0.7731994986534119 l-2.7251583337783813,-0.7120058685541153 m-23.43451499938965,3.277130126953125 l-0.2236342430114746,5.233238935470581 0.3962753713130951,3.1267622113227844 l0.41979510337114334,0.6322187185287476 0.921654999256134,0.41634757071733475 l3.3718860149383545,0.0005965460513834842 5.245133638381958,-0.0707464199513197 l4.873723387718201,-0.0869167223572731 4.420861899852753,-0.10435467585921288 l3.319673240184784,-0.2817285619676113 1.2827697396278381,-0.5182400345802307 l1.151905357837677,-1.5104132890701294 0.4313251003623009,-3.933473825454712 l0.07817083969712257,-4.442788660526276 " fill="none" stroke="black" stroke-width="1" /></svg>