<?xml version="1.0" encoding="utf-8" ?>
<svg baseProfile="full" height="2040.0" version="1.1" width="1860.0" xmlns="http://www.w3.org/2000/svg" xmlns:ev="http://www.w3.org/2001/xml-events" xmlns:xlink="http://www.w3.org/1999/xlink"><defs /><rect fill="white" height="2040.0" width="1860.0" x="0" y="0" /><path d="M400.0,580.0 m10.0,565.0 m-35.0,-560.0 l50.0,-20.0 575.0,-95.0 l235.0,-5.0 85.0,15.0 l40.0,45.0 40.0,135.0 l20.0,465.0 -15.0,95.0 l-20.0,25.0 -30.0,5.0 l-580.0,45.0 -415.0,-15.0 m200.0,-990.0 l0.0,180.0 10.0,75.0 l15.0,10.0 m295.0,-315.0 l-15.0,145.0 5.0,180.0 m165.0,-320.0 l-20.0,175.0 10.0,110.0 m170.0,-265.0 l-20.0,30.0 -25.0,195.0 m-600.0,-195.0 l-25.0,10.0 -30.0,-40.0 l-40.0,-100.0 0.0,-60.0 l35.0,-20.0 35.0,25.0 l20.0,65.0 -5.0,115.0 m340.0,-30.0 l-20.0,-35.0 10.0,-190.0 l20.0,30.0 -10.0,180.0 m155.0,-35.0 l-25.0,5.0 45.0,-190.0 l20.0,45.0 -30.0,160.0 m125.0,-5.0 l-25.0,5.0 5.0,-30.0 l30.0,-65.0 25.0,-20.0 l10.0,25.0 -25.0,90.0 m-795.0,800.0 l-20.0,70.0 -5.0,185.0 m35.0,5.0 l-210.0,10.0 -160.0,45.0 l-10.0,40.0 25.0,90.0 l15.0,185.0 -10.0,340.0 l25.0,15.0 60.0,0.0 l290.0,-20.0 845.0,-10.0 l475.0,-30.0 60.0,-30.0 l5.0,-25.0 -40.0,-265.0 l-15.0,-285.0 -20.0,-60.0 l-85.0,-40.0 -130.0,-20.0 l-160.0,-5.0 -50.0,25.0 m-910.0,-370.0 l45.0,70.0 60.0,10.0 l155.0,-115.0 30.0,-5.0 l115.0,75.0 65.0,5.0 l55.0,-30.0 65.0,0.0 l55.0,55.0 65.0,25.0 l50.0,-10.0 95.0,-65.0 l170.0,-50.0 m-1400.0,775.0 l65.0,50.0 50.0,10.0 l105.0,-25.0 120.0,-70.0 l105.0,-30.0 180.0,35.0 l160.0,0.0 205.0,60.0 l185.0,-40.0 230.0,0.0 l185.0,-65.0 215.0,30.0 " fill="none" stroke="black" stroke-width="1" /></svg>