<?xml version="1.0" encoding="utf-8" ?>
<svg baseProfile="full" height="81.2078095972538" version="1.1" width="77.13343011215329" xmlns="http://www.w3.org/2000/svg" xmlns:ev="http://www.w3.org/2001/xml-events" xmlns:xlink="http://www.w3.org/1999/xlink"><defs /><rect fill="white" height="81.2078095972538" width="77.13343011215329" x="0" y="0" /><path d="M29.75160574540496,32.86933521972969 m0.5855617672204971,0.3383231908082962 l4.615136384963989,0.1081016194075346 6.404899954795837,0.8173629641532898 l4.705410003662109,0.019698513206094503 1.743595153093338,0.0719529390335083 l1.4440307021141052,0.29304249212145805 1.4711950719356537,0.8325210958719254 l1.1101842671632767,1.3761331140995026 0.3018110617995262,1.1991412192583084 l-0.2467513270676136,1.6760092973709106 -0.7781420648097992,1.1414509266614914 l-2.105548232793808,1.3959410786628723 -4.435102939605713,1.254023015499115 l-5.174853801727295,0.4397479444742203 -5.143912434577942,-0.19854221493005753 l-4.0281155705451965,-0.9698713570833206 -3.493332862854004,-1.6837222874164581 l-1.1756298691034317,-1.1118845641613007 -0.5520410090684891,-1.3425010442733765 l0.06334306206554174,-1.4039143919944763 1.2544935941696167,-1.6253572702407837 l1.3638325035572052,-0.7477456331253052 2.343471795320511,-0.57475496083498 m5.396047830581665,6.612541675567627 l-0.08150370791554451,5.6455981731414795 -0.5129453912377357,9.437834620475769 l0.5075152218341827,0.3373442217707634 9.692636728286743,-1.1656563729047775 l1.334923505783081,-1.1401478946208954 0.46803172677755356,-1.5021911263465881 l0.061238547787070274,-4.223782122135162 -0.9047017246484756,-5.870099663734436 l-1.1226458102464676,-2.7707552909851074 m-8.761953711509705,-3.9405208826065063 l-0.005381362279877067,-6.417809724807739 -0.2839629352092743,-3.808489441871643 l2.469923049211502,-0.3243572637438774 3.979545533657074,-0.0439998134970665 l-0.03760115010663867,7.6733338832855225 -0.19803324714303017,3.809170424938202 l-0.2035687305033207,-0.13233537785708904 m-3.108222782611847,-9.67319369316101 l0.054086041636765,-0.8684699237346649 " fill="none" stroke="black" stroke-width="1" /></svg>