<?xml version="1.0" encoding="utf-8" ?>
<svg baseProfile="full" height="1845.0" version="1.1" width="2685.0" xmlns="http://www.w3.org/2000/svg" xmlns:ev="http://www.w3.org/2001/xml-events" xmlns:xlink="http://www.w3.org/1999/xlink"><defs /><rect fill="white" height="1845.0" width="2685.0" x="0" y="0" /><path d="M1695.0,605.0 m25.0,15.0 l190.0,-25.0 315.0,-5.0 l175.0,10.0 110.0,35.0 l110.0,150.0 40.0,130.0 l-10.0,130.0 -45.0,80.0 l-50.0,50.0 -140.0,20.0 l-100.0,-20.0 -440.0,-15.0 l-165.0,-30.0 -695.0,-30.0 l-860.0,-10.0 -50.0,285.0 l-60.0,180.0 -20.0,-20.0 l0.0,-55.0 50.0,-495.0 l20.0,-640.0 40.0,-270.0 l-10.0,-50.0 0.0,65.0 l30.0,110.0 180.0,525.0 l35.0,40.0 405.0,-30.0 l495.0,-120.0 275.0,-40.0 l230.0,40.0 45.0,0.0 l-5.0,-10.0 m-525.0,320.0 l120.0,230.0 200.0,290.0 l205.0,210.0 195.0,165.0 l0.0,-195.0 -35.0,-250.0 l0.0,-520.0 " fill="none" stroke="black" stroke-width="1" /></svg>