<?xml version="1.0" encoding="utf-8" ?>
<svg baseProfile="full" height="965.0" version="1.1" width="640.0" xmlns="http://www.w3.org/2000/svg" xmlns:ev="http://www.w3.org/2001/xml-events" xmlns:xlink="http://www.w3.org/1999/xlink"><defs /><rect fill="white" height="965.0" width="640.0" x="0" y="0" /><path d="M305.0,210.0 m10.0,-45.0 l80.0,-80.0 105.0,-60.0 l-105.0,185.0 -15.0,20.0 l-65.0,0.0 m30.0,80.0 l-120.0,25.0 -95.0,55.0 l-100.0,185.0 -5.0,105.0 l50.0,95.0 40.0,50.0 l110.0,85.0 110.0,30.0 l130.0,-5.0 125.0,-50.0 l-10.0,-20.0 -65.0,-40.0 l-50.0,-60.0 -30.0,-70.0 l-15.0,-95.0 25.0,-50.0 l170.0,-130.0 0.0,-20.0 l-70.0,-40.0 -220.0,-65.0 " fill="none" stroke="black" stroke-width="1" /></svg>