<?xml version="1.0" encoding="utf-8" ?>
<svg baseProfile="full" height="59.95458479039371" version="1.1" width="58.858446227386594" xmlns="http://www.w3.org/2000/svg" xmlns:ev="http://www.w3.org/2001/xml-events" xmlns:xlink="http://www.w3.org/1999/xlink"><defs /><rect fill="white" height="59.95458479039371" width="58.858446227386594" x="0" y="0" /><path d="M29.568782774731517,31.174138761125505 m0.2838311716914177,-0.9407990425825119 l0.8799658715724945,-1.2453339993953705 1.2953756749629974,-0.8918089419603348 l1.1125486344099045,-0.05129336845129728 0.2263079211115837,0.9679747372865677 l-0.617038682103157,1.7298588156700134 -1.5525838732719421,1.5188445150852203 l-3.109043538570404,0.2047930471599102 -1.0504898428916931,-0.5650864541530609 l-1.4714628458023071,-1.9334456324577332 -0.4404040426015854,-1.7419211566448212 l0.2031017281115055,-1.5100686252117157 1.0596732795238495,-1.1245357990264893 l1.8235127627849579,-0.591316856443882 1.982160061597824,0.0830711331218481 l1.844465285539627,1.1397265642881393 1.1427509784698486,1.363847553730011 l0.6769929081201553,2.1069318056106567 -0.25565266609191895,2.5639671087265015 l-0.9789673238992691,1.3796959817409515 -1.5628577768802643,0.9774583578109741 l-1.8996191024780273,0.33988628536462784 -1.9193793833255768,-0.23985909298062325 l-1.401335597038269,-1.0907220095396042 -0.6868559122085571,-1.3164697587490082 l-0.1537784654647112,-1.5039466321468353 0.6365249305963516,-1.7974719405174255 " fill="none" stroke="black" stroke-width="1" /></svg>