<?xml version="1.0" encoding="utf-8" ?>
<svg baseProfile="full" height="975.0" version="1.1" width="1265.0" xmlns="http://www.w3.org/2000/svg" xmlns:ev="http://www.w3.org/2001/xml-events" xmlns:xlink="http://www.w3.org/1999/xlink"><defs /><rect fill="white" height="975.0" width="1265.0" x="0" y="0" /><path d="M425.0,835.0 m-200.0,-30.0 l-65.0,-60.0 -25.0,-50.0 l25.0,-60.0 70.0,-70.0 l180.0,-50.0 -220.0,-15.0 l-110.0,-35.0 -50.0,-50.0 l-5.0,-60.0 10.0,-30.0 l35.0,-55.0 100.0,-85.0 l170.0,-55.0 75.0,20.0 l75.0,55.0 110.0,180.0 l45.0,180.0 -120.0,275.0 l90.0,-230.0 0.0,-80.0 l30.0,-130.0 m-125.0,550.0 l200.0,-45.0 175.0,-80.0 l35.0,-30.0 5.0,-50.0 l-35.0,-45.0 -55.0,-35.0 l-85.0,-25.0 -165.0,-5.0 l175.0,0.0 190.0,-30.0 l145.0,-80.0 135.0,-155.0 l-10.0,-65.0 -35.0,-35.0 l-90.0,-30.0 -120.0,0.0 l-115.0,40.0 -200.0,220.0 m-15.0,20.0 l-15.0,-200.0 5.0,-80.0 l-50.0,-165.0 0.0,-35.0 l15.0,-15.0 m10.0,245.0 l50.0,-55.0 80.0,-50.0 l120.0,-40.0 " fill="none" stroke="black" stroke-width="1" /></svg>