<?xml version="1.0" encoding="utf-8" ?>
<svg baseProfile="full" height="74.07743339193985" version="1.1" width="74.2896184977144" xmlns="http://www.w3.org/2000/svg" xmlns:ev="http://www.w3.org/2001/xml-events" xmlns:xlink="http://www.w3.org/1999/xlink"><defs /><rect fill="white" height="74.07743339193985" width="74.2896184977144" x="0" y="0" /><path d="M31.31658874452114,49.07743339193985 m-4.133179187774658,-0.5928124114871025 l-1.383625864982605,-1.2478409707546234 -0.7997836917638779,-2.0333698391914368 l0.8336994051933289,-1.493762582540512 1.5656210482120514,-0.6954294443130493 l2.8686216473579407,0.02609526738524437 0.4789301007986069,0.46785425394773483 l-0.022111539728939533,1.176954209804535 -0.7596752047538757,1.0380837321281433 l-1.3994336128234863,0.8743866533041 -0.7918177545070648,0.056141093373298645 l-0.5590504035353661,-0.752340629696846 0.04598743747919798,-2.1259939670562744 l0.9916462004184723,-1.7896927893161774 2.413024604320526,-1.9312432408332825 m7.019844055175781,6.79762065410614 l4.618366956710815,-1.0665132105350494 3.839840888977051,-1.780267059803009 l1.5027490258216858,-1.2632855772972107 1.140279397368431,-2.0518316328525543 l0.5030962452292442,-2.8089195489883423 -0.3686473146080971,-2.7952367067337036 l-1.4514154195785522,-2.350660413503647 -1.5730302035808563,-1.1823417991399765 l-1.7263738811016083,-0.4501023143529892 -2.768975794315338,0.22047629579901695 l-2.348424792289734,1.2395825237035751 -2.125674784183502,2.2512920200824738 l-1.299540400505066,2.871786057949066 -0.48072297126054764,2.2815078496932983 l0.1259976252913475,1.7649967968463898 0.564020499587059,1.332978755235672 l1.0111678391695023,0.7184957712888718 1.9868376851081848,0.20404556766152382 l2.1455644071102142,-0.8616431802511215 1.1577587574720383,-1.1434032022953033 m-4.524131417274475,-6.848223805427551 l0.38168538361787796,-3.225243389606476 1.0200140625238419,-2.097667157649994 l2.0186634361743927,-1.8447454273700714 1.6768451035022736,-0.6736961007118225 l2.1428440511226654,-0.03601050702854991 1.7309106886386871,1.0345011949539185 l0.6427379697561264,1.0968390107154846 0.001394590362906456,1.8422849476337433 m-7.358907461166382,-0.49574874341487885 l-0.004090566071681678,-1.4638179540634155 0.17399702221155167,-1.6834427416324615 l0.7084762305021286,-2.376016527414322 0.35282865166664124,-0.21205317229032516 " fill="none" stroke="black" stroke-width="1" /></svg>