<?xml version="1.0" encoding="utf-8" ?>
<svg baseProfile="full" height="65.24392612278461" version="1.1" width="65.0140260268131" xmlns="http://www.w3.org/2000/svg" xmlns:ev="http://www.w3.org/2001/xml-events" xmlns:xlink="http://www.w3.org/1999/xlink"><defs /><rect fill="white" height="65.24392612278461" width="65.0140260268131" x="0" y="0" /><path d="M37.197207867295674,27.65741120372695 m-1.6721934080123901,-1.561448574066162 l-1.9201040267944336,-0.43598171323537827 -3.224414885044098,0.4624497890472412 l-2.038063704967499,1.3877829909324646 -1.3163159787654877,2.0821818709373474 l-0.42849257588386536,1.9308087229728699 -0.00025038749299710616,2.8215357661247253 l1.1115270107984543,2.548040449619293 1.4109982550144196,1.6871839761734009 l1.603422611951828,1.069541573524475 1.8224282562732697,0.5941703543066978 l2.7820932865142822,0.0002497127206879668 1.9275079667568207,-0.8173719048500061 l1.4395743608474731,-1.3983051478862762 0.8818808943033218,-1.7527416348457336 l0.4372204840183258,-4.487244486808777 -1.0233838111162186,-2.6758211851119995 l-1.6627159714698792,-1.8747171759605408 -2.164395749568939,-1.0432346910238266 m-4.358014762401581,4.588859975337982 l-0.5402253940701485,-5.783349871635437 m3.010529577732086,5.472268462181091 l2.7757662534713745,-2.8826045989990234 m-5.693690776824951,-0.1286123227328062 l0.6868588924407959,-0.03256028285250068 3.249659240245819,-0.04939008969813585 l-0.1446092128753662,-0.2903498336672783 m-2.901434898376465,0.21670393645763397 l-2.6156044006347656,-0.2540496364235878 -1.3820408284664154,0.20595217123627663 l-1.2836043536663055,0.8901694416999817 -0.9670828282833099,1.813739538192749 l-3.700294882946764e-05,1.7919661104679108 0.6928162276744843,1.2719105184078217 l1.1729633808135986,0.8506626635789871 2.3208464682102203,0.5126144737005234 l4.3222567439079285,-1.733374446630478 1.022714450955391,-1.4430789649486542 l0.13195527717471123,-1.9663658738136292 -3.0802541971206665,-2.503710091114044 m-0.6516360491514206,5.677666664123535 l-0.28409916907548904,0.230967216193676 " fill="none" stroke="black" stroke-width="1" /></svg>