<?xml version="1.0" encoding="utf-8" ?>
<svg baseProfile="full" height="1050.0" version="1.1" width="730.0" xmlns="http://www.w3.org/2000/svg" xmlns:ev="http://www.w3.org/2001/xml-events" xmlns:xlink="http://www.w3.org/1999/xlink"><defs /><rect fill="white" height="1050.0" width="730.0" x="0" y="0" /><path d="M555.0,400.0 m-85.0,-80.0 l-100.0,-25.0 -135.0,20.0 l-130.0,80.0 -50.0,85.0 l-30.0,135.0 0.0,145.0 l40.0,80.0 100.0,110.0 l80.0,45.0 140.0,25.0 l100.0,0.0 125.0,-55.0 l40.0,-70.0 35.0,-115.0 l20.0,-250.0 -60.0,-135.0 l-125.0,-105.0 -25.0,20.0 m-220.0,455.0 l5.0,-265.0 m35.0,240.0 l5.0,-30.0 165.0,-60.0 m-155.0,-505.0 l0.0,160.0 m-25.0,-200.0 l-75.0,-65.0 -100.0,-15.0 l-50.0,15.0 -25.0,25.0 l0.0,60.0 20.0,25.0 l170.0,25.0 125.0,-90.0 l135.0,-35.0 30.0,45.0 l-10.0,75.0 -185.0,0.0 m20.0,815.0 l0.0,25.0 -30.0,15.0 " fill="none" stroke="black" stroke-width="1" /></svg>