<?xml version="1.0" encoding="utf-8" ?>
<svg baseProfile="full" height="87.41386343433987" version="1.1" width="122.30008793063462" xmlns="http://www.w3.org/2000/svg" xmlns:ev="http://www.w3.org/2001/xml-events" xmlns:xlink="http://www.w3.org/1999/xlink"><defs /><rect fill="white" height="87.41386343433987" width="122.30008793063462" x="0" y="0" /><path d="M25,41.47125443210825 m4.088226854801178,-0.1638202741742134 l13.114618062973022,-0.37944067269563675 8.053395748138428,0.3112682141363621 l4.5907920598983765,-0.10731671936810017 3.1563451886177063,-0.6630197167396545 l0.3849506750702858,-2.5582855939865112 0.162438303232193,-7.09983766078949 l0.4973599687218666,-4.284355640411377 0.593617856502533,-1.0019698739051819 l1.0855179280042648,-0.5036366730928421 1.4257372915744781,-0.020839821081608534 l2.1666812896728516,1.0735226422548294 2.2377990186214447,2.6790407299995422 l1.5520274639129639,6.221828460693359 0.7447601854801178,6.168165802955627 l0.3077390789985657,4.016055464744568 8.85283887386322,-0.548461303114891 l6.280946731567383,-0.2008972503244877 6.636593341827393,0.13682087883353233 l4.145818650722504,0.30831269919872284 0.011441630776971579,-2.488771826028824 l-0.4501418024301529,-7.549652457237244 -0.2186688780784607,-7.61943519115448 l0.3487217053771019,-0.057324161753058434 1.1822672933340073,2.932114899158478 l0.8678087592124939,5.027648210525513 0.4586072266101837,4.938092529773712 l0.021847423631697893,3.968517780303955 -0.4139435663819313,2.407064437866211 l-1.0899070650339127,1.8928754329681396 -1.6970913112163544,1.353604942560196 l-4.927201867103577,1.69208362698555 -5.761566162109375,0.6683063507080078 l-5.165648460388184,0.19148897379636765 -5.168867111206055,-0.04189507570117712 l-4.381130039691925,-0.08198536932468414 -10.936654806137085,-0.17762940376996994 l-3.8467326760292053,-0.01036591362208128 -10.021151304244995,-0.05770076997578144 l-8.591259121894836,0.09645377285778522 -3.424072265625,-0.03349897684529424 l-1.6628186404705048,-0.4554889351129532 -1.0207103192806244,-0.7958418875932693 l-2.286349982023239,-6.287466287612915 -0.09343381971120834,-3.4196677803993225 l0.6617230921983719,-1.6486559808254242 1.3881970942020416,-0.7558517158031464 l6.168041825294495,-0.49695979803800583 7.8135621547698975,0.008649173541925848 m10.685673952102661,9.50569748878479 l1.370520442724228,5.706765055656433 1.050044670701027,5.449567437171936 l0.6867903470993042,3.6987367272377014 0.8768173307180405,-0.33500030636787415 " fill="none" stroke="black" stroke-width="1" /></svg>