<?xml version="1.0" encoding="utf-8" ?>
<svg baseProfile="full" height="1880.0" version="1.1" width="3390.0" xmlns="http://www.w3.org/2000/svg" xmlns:ev="http://www.w3.org/2001/xml-events" xmlns:xlink="http://www.w3.org/1999/xlink"><defs /><rect fill="white" height="1880.0" width="3390.0" x="0" y="0" /><path d="M90.0,655.0 m205.0,-20.0 l580.0,-10.0 260.0,0.0 l390.0,30.0 80.0,-100.0 l30.0,-115.0 0.0,-415.0 l25.0,10.0 55.0,70.0 l65.0,125.0 60.0,175.0 l15.0,205.0 25.0,15.0 l275.0,-30.0 870.0,-10.0 l25.0,-5.0 30.0,-65.0 l45.0,-45.0 15.0,-55.0 l25.0,35.0 125.0,425.0 l75.0,620.0 -130.0,5.0 l-90.0,-80.0 -60.0,-130.0 l-25.0,-105.0 -65.0,-120.0 l-50.0,-145.0 -25.0,-20.0 l-515.0,120.0 -520.0,-20.0 l5.0,365.0 35.0,220.0 l0.0,195.0 -15.0,60.0 l-175.0,15.0 -85.0,-20.0 l-45.0,-40.0 -30.0,-60.0 l0.0,-465.0 -95.0,-260.0 l-325.0,-30.0 -825.0,-20.0 l-195.0,-25.0 -75.0,-30.0 l-35.0,-110.0 0.0,-165.0 l70.0,-15.0 m265.0,155.0 l340.0,20.0 925.0,0.0 l215.0,35.0 610.0,0.0 l310.0,-45.0 " fill="none" stroke="black" stroke-width="1" /></svg>