<?xml version="1.0" encoding="utf-8" ?>
<svg baseProfile="full" height="1050.0" version="1.1" width="1070.0" xmlns="http://www.w3.org/2000/svg" xmlns:ev="http://www.w3.org/2001/xml-events" xmlns:xlink="http://www.w3.org/1999/xlink"><defs /><rect fill="white" height="1050.0" width="1070.0" x="0" y="0" /><path d="M465.0,55.0 m-55.0,0.0 l-90.0,35.0 -165.0,100.0 l-60.0,70.0 -30.0,90.0 l-40.0,235.0 5.0,160.0 l45.0,55.0 125.0,105.0 l130.0,50.0 305.0,70.0 l75.0,-20.0 105.0,-60.0 l65.0,-55.0 105.0,-150.0 l45.0,-115.0 15.0,-125.0 l0.0,-175.0 -30.0,-65.0 l-135.0,-105.0 -200.0,-30.0 l-185.0,-100.0 -40.0,20.0 m-30.0,175.0 l110.0,-125.0 25.0,5.0 l40.0,75.0 m-75.0,-55.0 l-45.0,405.0 225.0,10.0 m-45.0,-75.0 l75.0,50.0 " fill="none" stroke="black" stroke-width="1" /></svg>