<?xml version="1.0" encoding="utf-8" ?>
<svg baseProfile="full" height="71.60461905412376" version="1.1" width="72.13728874921799" xmlns="http://www.w3.org/2000/svg" xmlns:ev="http://www.w3.org/2001/xml-events" xmlns:xlink="http://www.w3.org/1999/xlink"><defs /><rect fill="white" height="71.60461905412376" width="72.13728874921799" x="0" y="0" /><path d="M40.208841413259506,27.163612423464656 m-1.0497243702411652,-0.8398395031690598 l-2.6546630263328552,-0.8436053991317749 -3.1976228952407837,-0.11892206966876984 l-2.523917257785797,0.8290568739175797 -2.5146591663360596,1.844668984413147 l-1.9242723286151886,2.6232531666755676 -1.1073610931634903,3.1434357166290283 l-0.23662127554416656,3.4826231002807617 0.6673722714185715,2.884814441204071 l1.5100999176502228,2.616060972213745 2.1154864132404327,1.9779975712299347 l2.5133508443832397,1.2511400878429413 2.9482501745224,0.5903226882219315 l4.112163782119751,-0.09328145533800125 2.4097397923469543,-0.834980383515358 l2.242826372385025,-1.5118266642093658 1.7960536479949951,-2.1117785573005676 l1.2361758947372437,-2.625211477279663 0.5857696384191513,-3.098129630088806 l-0.05325542762875557,-3.0054861307144165 -0.7513571530580521,-2.6291295886039734 l-1.3611756265163422,-2.256992608308792 -1.81433767080307,-1.668965071439743 l-2.151511311531067,-1.1323502659797668 -2.32324942946434,-0.5539797991514206 l-2.2354893386363983,-0.08250742219388485 m-0.7872065156698227,7.214576005935669 l-0.06716805044561625,1.7351661622524261 0.0352679961360991,3.358207643032074 l2.572444975376129,-0.21679608151316643 2.860044538974762,-0.20054088905453682 m-5.514373183250427,-6.422308087348938 l-0.07587225176393986,1.2604804337024689 -0.5283183604478836,0.8195693790912628 l1.3029122352600098,0.34533631056547165 " fill="none" stroke="black" stroke-width="1" /></svg>