<?xml version="1.0" encoding="utf-8" ?>
<svg baseProfile="full" height="1015.0" version="1.1" width="1075.0" xmlns="http://www.w3.org/2000/svg" xmlns:ev="http://www.w3.org/2001/xml-events" xmlns:xlink="http://www.w3.org/1999/xlink"><defs /><rect fill="white" height="1015.0" width="1075.0" x="0" y="0" /><path d="M715.0,80.0 m-55.0,-40.0 l-55.0,-15.0 -165.0,0.0 l-210.0,120.0 -80.0,75.0 l-105.0,175.0 -20.0,95.0 l15.0,225.0 55.0,95.0 l70.0,80.0 90.0,60.0 l115.0,40.0 245.0,-5.0 l230.0,-115.0 85.0,-80.0 l65.0,-90.0 55.0,-175.0 l0.0,-95.0 -30.0,-90.0 l-55.0,-90.0 -70.0,-70.0 l-135.0,-90.0 -135.0,-35.0 l-90.0,-5.0 m0.0,30.0 l-10.0,190.0 -65.0,270.0 l300.0,20.0 m0.0,-310.0 l0.0,0.0 m140.0,165.0 l0.0,0.0 m-150.0,-205.0 l0.0,-25.0 -5.0,15.0 " fill="none" stroke="black" stroke-width="1" /></svg>