<?xml version="1.0" encoding="utf-8" ?>
<svg baseProfile="full" height="1785.0" version="1.1" width="1675.0" xmlns="http://www.w3.org/2000/svg" xmlns:ev="http://www.w3.org/2001/xml-events" xmlns:xlink="http://www.w3.org/1999/xlink"><defs /><rect fill="white" height="1785.0" width="1675.0" x="0" y="0" /><path d="M1000.0,25 m-405.0,65.0 l-170.0,70.0 -145.0,100.0 l-110.0,160.0 -105.0,255.0 l-35.0,145.0 -5.0,165.0 l20.0,95.0 110.0,260.0 l65.0,100.0 115.0,130.0 l115.0,90.0 170.0,80.0 l100.0,20.0 215.0,0.0 l215.0,-50.0 125.0,-50.0 l125.0,-100.0 75.0,-105.0 l130.0,-245.0 35.0,-100.0 l10.0,-85.0 -5.0,-250.0 l-35.0,-95.0 -90.0,-100.0 l-240.0,-215.0 -60.0,-35.0 l-40.0,-50.0 -240.0,-155.0 l-375.0,0.0 -60.0,15.0 l-115.0,65.0 m350.0,-15.0 l-50.0,70.0 m130.0,-70.0 l25.0,0.0 35.0,50.0 l-15.0,25.0 -50.0,-5.0 l25.0,-15.0 50.0,65.0 " fill="none" stroke="black" stroke-width="1" /></svg>