<?xml version="1.0" encoding="utf-8" ?>
<svg baseProfile="full" height="83.81509942933917" version="1.1" width="80.29341517016292" xmlns="http://www.w3.org/2000/svg" xmlns:ev="http://www.w3.org/2001/xml-events" xmlns:xlink="http://www.w3.org/1999/xlink"><defs /><rect fill="white" height="83.81509942933917" width="80.29341517016292" x="0" y="0" /><path d="M46.16169258952141,26.01665483787656 m-8.02231252193451,1.1904028058052063 l-4.2606958746910095,1.4349113404750824 -2.990387976169586,1.8880248069763184 l-2.2707590460777283,2.415837347507477 -1.8401609361171722,3.1157732009887695 l-1.184828281402588,3.523874878883362 -0.5925479531288147,4.978260397911072 l0.20398057997226715,3.493105471134186 0.9973566234111786,3.1794968247413635 l1.5943795442581177,2.6268169283866882 2.154567539691925,2.145495116710663 l2.5651156902313232,1.5358097851276398 2.9708099365234375,0.9401126205921173 l3.316599726676941,0.3305230662226677 3.2846570014953613,-0.20417699590325356 l3.010917007923126,-0.9187310934066772 2.8349879384040833,-1.5879040956497192 l3.414390981197357,-3.132268488407135 1.833677887916565,-2.7681714296340942 l1.3283075392246246,-3.3895331621170044 0.6449756771326065,-3.551880717277527 l0.138691496104002,-3.7879255414009094 -0.43006516993045807,-3.3421680331230164 l-1.0763298720121384,-3.033486008644104 -1.6066065430641174,-2.817453145980835 l-1.9509828090667725,-2.2608105838298798 -2.0728756487369537,-1.5294979512691498 l-2.374759167432785,-1.036912202835083 -2.480064630508423,-0.4541799798607826 l-2.4482744932174683,0.06110485643148422 m-1.2529285252094269,13.88755202293396 l-0.09858612902462482,-1.3397662341594696 -0.019501021597534418,-4.60414856672287 l-0.02400119323283434,-3.9021113514900208 -0.027657777536660433,-2.799215018749237 m0.20638050511479378,12.97522783279419 l2.377628982067108,0.7184899598360062 4.294199049472809,-0.04341224208474159 l3.759085536003113,-0.46363353729248047 3.6725270748138428,-0.006344638532027602 " fill="none" stroke="black" stroke-width="1" /></svg>