<?xml version="1.0" encoding="utf-8" ?>
<svg baseProfile="full" height="81.62388556578662" version="1.1" width="81.20788166299462" xmlns="http://www.w3.org/2000/svg" xmlns:ev="http://www.w3.org/2001/xml-events" xmlns:xlink="http://www.w3.org/1999/xlink"><defs /><rect fill="white" height="81.62388556578662" width="81.20788166299462" x="0" y="0" /><path d="M54.9092962522991,32.26569895807188 m-1.6378147900104523,-2.0196007192134857 l-2.5450417399406433,-1.8519161641597748 -3.3270099759101868,-1.3690395653247833 l-3.598567843437195,-0.6490138918161392 -3.8344526290893555,0.02455912297591567 l-3.5058563947677612,0.8790665119886398 -3.61571341753006,1.8195551633834839 l-3.14317524433136,2.567451596260071 -2.387142926454544,3.058091700077057 l-1.5452171862125397,3.331069052219391 -0.7424051314592361,3.609461784362793 l-0.026898973155766726,3.5258057713508606 0.786251574754715,2.917049825191498 l1.5761105716228485,2.781604528427124 2.1466033160686493,2.3154421150684357 l2.649058997631073,1.7551180720329285 2.9434365034103394,1.1234376579523087 l3.2869771122932434,0.5400440469384193 3.5533830523490906,-0.004015613230876625 l3.0607369542121887,-0.6583784520626068 3.018648326396942,-1.342179775238037 l2.668710947036743,-1.9369810819625854 2.1336187422275543,-2.3288993537425995 l1.691180020570755,-2.820236384868622 1.4044897258281708,-4.506232142448425 l0.28867581859230995,-3.382502794265747 -0.24676529690623283,-3.2663938403129578 l-0.821223184466362,-2.7356326580047607 -1.300138533115387,-2.562372088432312 l-1.5405446290969849,-2.0466603338718414 -1.6854672133922577,-1.5432973206043243 l-1.8159674108028412,-1.0663128644227982 -2.042139619588852,-0.6389742344617844 m-7.882547974586487,11.029138565063477 l-0.0780687341466546,-0.0111878733150661 0.09252789430320263,0.6300129741430283 l0.1476409938186407,0.40307413786649704 0.2512933127582073,-1.1028087884187698 l-0.3776884078979492,-0.11797699145972729 -0.07951298728585243,0.3111378103494644 l0.5092944204807281,-0.2513016574084759 -0.21009588614106178,-0.27447305619716644 l-0.25397319346666336,0.44517409056425095 0.29456689953804016,-0.21111490204930305 l-0.06277370266616344,-0.47153525054454803 m-0.10052885860204697,0.08427955210208893 l-0.09049183689057827,-7.434585094451904 -0.13890069909393787,-3.812650144100189 m0.1320120505988598,11.97136640548706 l4.792987704277039,2.3069268465042114 " fill="none" stroke="black" stroke-width="1" /></svg>