<?xml version="1.0" encoding="utf-8" ?>
<svg baseProfile="full" height="2170.0" version="1.1" width="1680.0" xmlns="http://www.w3.org/2000/svg" xmlns:ev="http://www.w3.org/2001/xml-events" xmlns:xlink="http://www.w3.org/1999/xlink"><defs /><rect fill="white" height="2170.0" width="1680.0" x="0" y="0" /><path d="M1590.0,1130.0 m-80.0,-100.0 l-95.0,-70.0 -320.0,-135.0 l-75.0,-15.0 -225.0,-5.0 l-305.0,40.0 -185.0,95.0 l-125.0,120.0 -80.0,105.0 l-70.0,180.0 -5.0,165.0 l10.0,100.0 90.0,260.0 l60.0,75.0 85.0,65.0 l245.0,80.0 120.0,15.0 l145.0,-5.0 135.0,-50.0 l35.0,80.0 35.0,15.0 l200.0,-55.0 125.0,-70.0 l105.0,-85.0 150.0,-205.0 l55.0,-120.0 35.0,-190.0 l-5.0,-170.0 -40.0,-200.0 l-25.0,-60.0 -30.0,-30.0 m-800.0,-90.0 l-45.0,-240.0 5.0,-65.0 l95.0,-135.0 205.0,-180.0 l60.0,-75.0 120.0,-50.0 l150.0,-5.0 75.0,15.0 l90.0,90.0 m-745.0,250.0 l-95.0,-270.0 -5.0,-75.0 l30.0,-65.0 50.0,-40.0 l30.0,5.0 65.0,70.0 l60.0,130.0 " fill="none" stroke="black" stroke-width="1" /></svg>