<?xml version="1.0" encoding="utf-8" ?>
<svg baseProfile="full" height="69.25788800814189" version="1.1" width="76.24195665121078" xmlns="http://www.w3.org/2000/svg" xmlns:ev="http://www.w3.org/2001/xml-events" xmlns:xlink="http://www.w3.org/1999/xlink"><defs /><rect fill="white" height="69.25788800814189" width="76.24195665121078" x="0" y="0" /><path d="M27.484177790593094,25.896937666693702 m1.9975067675113678,0.06077958736568689 l6.765112280845642,-0.9479229897260666 4.689634442329407,-0.009794264333322644 l4.6880534291267395,0.7844093441963196 2.957400381565094,1.4839164912700653 l1.9884678721427917,2.1107859909534454 0.6713896989822388,1.9447863101959229 l0.00021398811441031285,3.680616319179535 -0.8391807973384857,4.811585247516632 l-0.8505332469940186,1.8459001183509827 -1.2012908607721329,1.2095101922750473 l-2.8272342681884766,1.2289295345544815 -11.495016813278198,0.1365477778017521 l-3.5584256052970886,-1.4298130571842194 -2.6904264092445374,-2.3512478172779083 l-1.882837861776352,-3.401738703250885 -0.8970107883214951,-4.204988777637482 l0.7114894688129425,-4.979690909385681 1.4000771939754486,-2.3440995812416077 m5.407741069793701,10.20806074142456 l-0.40900852531194687,0.07672635838389397 -0.3274613618850708,1.2496747076511383 l-0.005957091925665736,2.974330186843872 0.7942622154951096,2.354770451784134 l1.1093957722187042,1.2578119337558746 1.3215000927448273,0.6092049553990364 l1.928899884223938,0.0019001925829797983 1.2525364756584167,-0.8310775458812714 l1.146647036075592,-2.1172143518924713 0.4296794906258583,-2.89984792470932 l-0.45098789036273956,-2.5653958320617676 -0.8736997097730637,-1.2661856412887573 l-1.1713267117738724,-0.6476432830095291 -3.4569281339645386,-0.17921585589647293 l-1.4646366238594055,0.9278597682714462 m0.8183214068412781,-1.0259461402893066 l-0.2592969872057438,3.466767370700836 0.07105824537575245,3.1128019094467163 l0.5032503232359886,1.4267948269844055 0.8591978996992111,0.6305394321680069 l4.515166282653809,-0.08482176810503006 2.5701624155044556,-0.8177046477794647 l0.8776181936264038,-1.010197103023529 -0.21496841683983803,-4.219191670417786 l-1.0859987139701843,-2.8099340200424194 -5.847470164299011,-0.27558252215385437 l-2.51340389251709,0.6946549564599991 m0.6988698244094849,0.15796774998307228 l0.025058570317924023,3.6455073952674866 0.25450803339481354,1.931920200586319 l0.4841363802552223,0.7776555418968201 1.8941643834114075,0.7112504541873932 l2.6129424571990967,0.00024781453248579055 0.6510552018880844,-3.8531410694122314 l-0.5272606015205383,-2.9858604073524475 m-4.481194615364075,-1.8850481510162354 l-0.4425724595785141,1.3711699843406677 m1.8611297011375427,0.21618885919451714 l-0.15334362164139748,0.6209627538919449 m-0.42537350207567215,-0.01348338439129293 l3.0409258604049683,-0.8902356773614883 m-3.3574581146240234,0.015502701280638576 l5.030655860900879,-1.1819183081388474 5.576733350753784,-0.9143290668725967 " fill="none" stroke="black" stroke-width="1" /></svg>