<?xml version="1.0" encoding="utf-8" ?>
<svg baseProfile="full" height="1485.0" version="1.1" width="1240.0" xmlns="http://www.w3.org/2000/svg" xmlns:ev="http://www.w3.org/2001/xml-events" xmlns:xlink="http://www.w3.org/1999/xlink"><defs /><rect fill="white" height="1485.0" width="1240.0" x="0" y="0" /><path d="M25,155.0 m95.0,5.0 l325.0,-40.0 200.0,0.0 l275.0,15.0 230.0,45.0 l45.0,55.0 5.0,105.0 l-30.0,95.0 -10.0,100.0 l-10.0,470.0 -20.0,185.0 l-85.0,10.0 -370.0,-40.0 l-470.0,-70.0 -60.0,-35.0 l-75.0,-170.0 -30.0,-140.0 l-10.0,-350.0 50.0,-295.0 l-10.0,-75.0 m75.0,1115.0 l-15.0,35.0 15.0,60.0 l95.0,75.0 105.0,30.0 l75.0,0.0 25.0,-20.0 l0.0,-160.0 -130.0,-135.0 l-90.0,-45.0 -105.0,-10.0 l-30.0,35.0 m815.0,125.0 l-75.0,30.0 -60.0,145.0 l0.0,85.0 60.0,40.0 l85.0,25.0 105.0,5.0 l20.0,-25.0 15.0,-185.0 l-30.0,-90.0 -85.0,-145.0 l-50.0,-35.0 -40.0,5.0 m-825.0,-555.0 l250.0,-40.0 280.0,5.0 l95.0,35.0 100.0,85.0 l120.0,15.0 345.0,-115.0 m-975.0,-320.0 l0.0,100.0 -35.0,170.0 m360.0,-230.0 l-60.0,250.0 m290.0,-295.0 l0.0,145.0 -60.0,210.0 m255.0,-285.0 l-25.0,200.0 -60.0,120.0 " fill="none" stroke="black" stroke-width="1" /></svg>