<?xml version="1.0" encoding="utf-8" ?>
<svg baseProfile="full" height="73.76495111733675" version="1.1" width="96.8581622838974" xmlns="http://www.w3.org/2000/svg" xmlns:ev="http://www.w3.org/2001/xml-events" xmlns:xlink="http://www.w3.org/1999/xlink"><defs /><rect fill="white" height="73.76495111733675" width="96.8581622838974" x="0" y="0" /><path d="M41.923459894023836,28.311028266325593 m3.9500856399536133,1.9889470934867859 l2.6737946271896362,0.47609925270080566 3.7403732538223267,-0.0921675655990839 l2.1719029545783997,-0.5983088165521622 1.4011159539222717,-0.9116899967193604 l0.7025784254074097,-1.5621832013130188 -0.7189198583364487,-0.8468872308731079 l-8.478685021400452,-1.7648378014564514 -6.216857433319092,0.30869195237755775 l-2.022440731525421,0.6820144504308701 -1.6496799886226654,1.3641005754470825 l-0.4484856501221657,1.1910855025053024 0.3243175521492958,1.0052423179149628 l1.1740557849407196,0.7602313905954361 5.009651184082031,0.349871926009655 m0.6641718000173569,0.44777799397706985 l-0.6121869757771492,4.671816527843475 -1.1324220150709152,4.69251275062561 l-0.9061922132968903,3.5089874267578125 -0.6628548353910446,2.268311381340027 l0.2443716675043106,1.4811596274375916 2.0816929638385773,0.7223570346832275 l7.873692512512207,0.3107902593910694 5.529782176017761,-0.18351146951317787 l0.5139424279332161,-0.36151260137557983 0.1552111841738224,-1.23789943754673 l-2.1810010075569153,-7.620605826377869 -1.1506683379411697,-3.2863208651542664 l-1.0532508790493011,-3.6039403080940247 -1.0562367737293243,-1.424969881772995 m-9.845949411392212,6.4767444133758545 l-3.902609348297119,-0.8670185506343842 -5.08404016494751,-0.7626387476921082 l-4.00739848613739,-0.01547911437228322 -1.9482474029064178,0.38173917680978775 l-1.0999740660190582,0.600271038711071 -0.9198077023029327,1.3460785150527954 l-0.036291698925197124,1.1443904042243958 0.8726492524147034,0.8780743181705475 l1.803021878004074,0.6173025444149971 5.432108044624329,0.36074820905923843 l4.4731223583221436,0.05832670722156763 3.9890074729919434,-0.05834476090967655 m12.42094874382019,-4.834220707416534 l4.724515378475189,-0.29579147696495056 5.653108358383179,-0.19369162619113922 l3.9203569293022156,0.3376052528619766 2.1144530177116394,0.8130983263254166 l1.4548708498477936,1.4034895598888397 -4.031795561313629,1.8132729828357697 l-9.6551913022995,0.8352282643318176 -3.403830826282501,-0.1292382925748825 m-10.482487678527832,-5.443188548088074 l2.985111176967621,0.27129802852869034 3.6243218183517456,0.16646422445774078 l3.7739884853363037,-0.011247596703469753 2.9638874530792236,-0.2843211777508259 l1.8636289238929749,-0.43346550315618515 m-14.363623857498169,-1.8304668366909027 l2.4242570996284485,0.34555308520793915 4.124405682086945,0.17856141552329063 l3.610111176967621,-0.17459142953157425 2.434791922569275,-0.5940680950880051 l1.1429018527269363,-0.7468419522047043 m-12.227096557617188,1.1002898961305618 l-2.63496071100235,-0.1590147614479065 -4.415105581283569,-0.3874756023287773 l-4.135359227657318,-0.7333841174840927 -2.7927476167678833,-0.6575321406126022 l-1.6854886710643768,-0.47624021768569946 -1.2738695740699768,0.21900298073887825 l-3.67431104183197,3.2419300079345703 -0.8939546346664429,1.7304249107837677 l0.22303815931081772,0.5569363012909889 9.59706723690033,0.47143910080194473 l4.462054967880249,0.17928335815668106 3.9436280727386475,0.17481541261076927 l2.451048642396927,-0.04588088486343622 m6.921534538269043,-4.56462949514389 l6.690742373466492,-2.368433177471161 4.431284070014954,-0.9947089105844498 l3.055869936943054,-0.09685279801487923 2.1702268719673157,0.7561147212982178 l1.6418515145778656,1.605508178472519 0.898374542593956,2.1047335863113403 l-4.760756194591522,2.670748233795166 -8.598257899284363,1.0256363451480865 l-6.152326464653015,0.5713619664311409 -2.015201151371002,-0.0754776643589139 m-5.36568820476532,-7.058950066566467 l0.9656597673892975,-0.3288262337446213 2.5718215107917786,-0.46697545796632767 l2.388487756252289,-0.19163355231285095 1.6997931897640228,0.21440686658024788 l1.3162286579608917,0.5604248866438866 1.7761211097240448,1.3483357429504395 l0.8962612599134445,0.5246947333216667 1.682780385017395,1.0235001146793365 m-10.854988098144531,-2.0823918282985687 l-3.213684558868408,-0.06197676062583923 " fill="none" stroke="black" stroke-width="1" /></svg>