<?xml version="1.0" encoding="utf-8" ?>
<svg baseProfile="full" height="1440.0" version="1.1" width="1450.0" xmlns="http://www.w3.org/2000/svg" xmlns:ev="http://www.w3.org/2001/xml-events" xmlns:xlink="http://www.w3.org/1999/xlink"><defs /><rect fill="white" height="1440.0" width="1450.0" x="0" y="0" /><path d="M240.0,485.0 m200.0,100.0 l140.0,25.0 145.0,0.0 l120.0,-20.0 105.0,-50.0 l30.0,-40.0 -125.0,-60.0 l-230.0,-25.0 -250.0,10.0 l-115.0,60.0 -35.0,35.0 l-15.0,100.0 0.0,450.0 m790.0,-530.0 l35.0,540.0 -15.0,20.0 l-225.0,65.0 -235.0,25.0 l-245.0,-30.0 -50.0,-25.0 l-30.0,-40.0 m10.0,-305.0 l-140.0,70.0 -35.0,35.0 l-45.0,90.0 0.0,105.0 l45.0,75.0 160.0,140.0 l65.0,45.0 115.0,40.0 l230.0,25.0 300.0,-25.0 l235.0,-80.0 205.0,-120.0 l45.0,-55.0 0.0,-65.0 l-30.0,-50.0 -55.0,-40.0 l-145.0,-30.0 -205.0,0.0 m-770.0,-275.0 l80.0,45.0 220.0,35.0 l350.0,0.0 135.0,-30.0 m-775.0,105.0 l65.0,25.0 355.0,35.0 l385.0,10.0 m-805.0,80.0 l375.0,75.0 375.0,-10.0 m-745.0,-235.0 l175.0,30.0 235.0,-5.0 l-330.0,-30.0 -30.0,-10.0 l50.0,-15.0 200.0,35.0 l-100.0,-35.0 -170.0,-20.0 l20.0,-5.0 185.0,45.0 l-140.0,-40.0 -55.0,0.0 l480.0,65.0 140.0,0.0 l-45.0,-10.0 -315.0,-30.0 l400.0,0.0 -200.0,0.0 l-110.0,20.0 85.0,30.0 l215.0,35.0 -365.0,5.0 l370.0,-35.0 -250.0,-5.0 m-210.0,-265.0 l-25.0,-130.0 0.0,-115.0 m285.0,265.0 l20.0,-285.0 m-290.0,-50.0 l-110.0,-35.0 -40.0,-45.0 l5.0,-30.0 90.0,-45.0 l40.0,-55.0 65.0,230.0 l-75.0,15.0 m275.0,-65.0 l65.0,20.0 85.0,-45.0 l-25.0,-70.0 -100.0,-105.0 l10.0,55.0 -60.0,160.0 l25.0,20.0 " fill="none" stroke="black" stroke-width="1" /></svg>