<?xml version="1.0" encoding="utf-8" ?>
<svg baseProfile="full" height="1025.0" version="1.1" width="795.0" xmlns="http://www.w3.org/2000/svg" xmlns:ev="http://www.w3.org/2001/xml-events" xmlns:xlink="http://www.w3.org/1999/xlink"><defs /><rect fill="white" height="1025.0" width="795.0" x="0" y="0" /><path d="M500.0,320.0 m-85.0,5.0 l-70.0,25.0 -195.0,115.0 l-120.0,160.0 -5.0,85.0 l80.0,125.0 185.0,105.0 l215.0,60.0 95.0,0.0 l70.0,-60.0 80.0,-150.0 l20.0,-110.0 -5.0,-95.0 l-30.0,-60.0 -60.0,-60.0 l-65.0,-55.0 -140.0,-75.0 l-15.0,-25.0 0.0,-160.0 l30.0,-110.0 25.0,-10.0 l145.0,-5.0 80.0,20.0 l5.0,55.0 -45.0,45.0 l-60.0,25.0 -90.0,10.0 l-90.0,-30.0 " fill="none" stroke="black" stroke-width="1" /></svg>