<?xml version="1.0" encoding="utf-8" ?>
<svg baseProfile="full" height="65.42724058032036" version="1.1" width="66.04077871888876" xmlns="http://www.w3.org/2000/svg" xmlns:ev="http://www.w3.org/2001/xml-events" xmlns:xlink="http://www.w3.org/1999/xlink"><defs /><rect fill="white" height="65.42724058032036" width="66.04077871888876" x="0" y="0" /><path d="M33.64327289164066,26.20537525974214 m-1.6612757742404938,0.06909143179655075 l-2.7860048413276672,0.9866391867399216 -2.4719373881816864,1.8310311436653137 l-1.3622193038463593,2.297109067440033 -0.3618355840444565,2.7665963768959045 l0.6218241155147552,2.3905929923057556 1.8704244494438171,2.1234238147735596 l3.7901481986045837,1.6312336921691895 4.095139503479004,0.12614761479198933 l2.239471822977066,-1.0223935544490814 1.6662633419036865,-1.5657064318656921 l1.1611354351043701,-2.129044532775879 0.5963718518614769,-2.706950604915619 l-0.05932568572461605,-2.6712745428085327 -0.8328557014465332,-2.033225893974304 l-1.5703023970127106,-1.7768536508083344 -1.8972474336624146,-1.0955703258514404 l-2.1344879269599915,-0.4262210428714752 -2.0277589559555054,0.12081863358616829 m0.32138973474502563,1.1002152413129807 l-0.025910385884344578,0.7575935125350952 0.08875226601958275,2.319067269563675 l-0.266351867467165,2.9478952288627625 2.94855535030365,0.0793310534209013 l2.4976253509521484,-0.06675004493445158 1.3031414151191711,-0.40270760655403137 m-5.406270623207092,-2.6547402143478394 l0.05968458950519562,0.4338277503848076 " fill="none" stroke="black" stroke-width="1" /></svg>