<?xml version="1.0" encoding="utf-8" ?>
<svg baseProfile="full" height="82.39104235428385" version="1.1" width="88.4341945219785" xmlns="http://www.w3.org/2000/svg" xmlns:ev="http://www.w3.org/2001/xml-events" xmlns:xlink="http://www.w3.org/1999/xlink"><defs /><rect fill="white" height="82.39104235428385" width="88.4341945219785" x="0" y="0" /><path d="M28.220125027000904,31.070720347343013 m-0.9381216019392014,5.575414299964905 l-2.1330273151397705,7.488189339637756 -0.14897610992193222,9.297553896903992 l0.15728062018752098,1.448066085577011 0.5775709077715874,1.056189388036728 l1.6589933633804321,0.9252238273620605 5.189637541770935,0.5296851694583893 l10.71699857711792,-0.35962317138910294 4.15451854467392,-0.35199254751205444 l3.611944615840912,-0.15188406221568584 0.9957534819841385,-0.8041016757488251 l0.5817455425858498,-2.0734183490276337 0.08674777112901211,-10.654720067977905 l-0.5238316208124161,-8.476943373680115 -0.7868797332048416,-2.846469283103943 l-0.7245241105556488,-1.1646167933940887 -1.818549484014511,-1.1502153426408768 l-2.9217806458473206,-0.763104036450386 -5.448134541511536,-0.375254862010479 l-9.376940131187439,0.733368843793869 -4.707090258598328,0.97298264503479 m0.7455554604530334,11.5666663646698 l2.1774670481681824,-0.29938384890556335 3.8684645295143127,-0.22877855226397514 l5.363227128982544,-0.07800164632499218 5.1326000690460205,-0.4049842432141304 l4.398082792758942,0.04549670033156872 m-20.233094692230225,1.2946635484695435 l7.3096150159835815,-0.3814859315752983 11.843059062957764,-0.5362682417035103 l7.067162394523621,-0.013375122798606753 m-24.438836574554443,-1.3267940282821655 l5.390382409095764,-0.18957747146487236 13.281608819961548,-0.6912485510110855 l7.713307738304138,-0.2554253302514553 m-26.13914728164673,2.0117296278476715 l8.166381120681763,-0.446360781788826 12.356613874435425,-0.9008271992206573 l7.698633074760437,-0.536300539970398 m-26.31002187728882,0.7167114317417145 l7.236469984054565,-0.6082654371857643 11.983553171157837,-0.8798585087060928 l8.092668652534485,-0.6302055716514587 m-25.78275203704834,0.4116395115852356 l7.063664793968201,-0.6836052983999252 12.06760287284851,-1.1400581896305084 l7.162020802497864,-0.7886209338903427 m-24.292213916778564,0.4001022130250931 l6.74083948135376,-0.8985009789466858 11.322026252746582,-1.5117062628269196 l6.935271620750427,-1.0830064862966537 3.090522289276123,-0.5843845382332802 m-24.75146770477295,2.989550828933716 l1.8945880234241486,-0.27387505397200584 3.6713626980781555,-0.3107624873518944 l4.15154755115509,-0.17169445753097534 8.703164458274841,-1.0274532437324524 l3.4864819049835205,-0.13896599411964417 m-20.237720012664795,1.346174031496048 l2.397972494363785,-0.12344810180366039 10.213614702224731,-1.2771768867969513 l4.572095274925232,-0.14019054360687733 4.274592399597168,-1.0197234153747559 m-20.239508152008057,1.2317728996276855 l-0.09235020726919174,-2.4656066298484802 0.4603138193488121,-1.7504923045635223 l0.6233780458569527,-1.2852798402309418 0.7919676601886749,-0.8446002006530762 l1.56587615609169,-0.7367271929979324 1.9348466396331787,-0.27653738856315613 l1.897280514240265,0.12631187215447426 1.4753980934619904,0.6480567157268524 l1.382477730512619,1.1578138917684555 1.5040743350982666,2.2759923338890076 l0.5725199729204178,1.9228330254554749 -0.02280261367559433,1.5674670040607452 l-0.4061540961265564,0.6532377004623413 -1.4266467094421387,0.5372891947627068 l-2.3452548682689667,0.04309244453907013 -2.148248702287674,-0.6010047346353531 l-1.8861480057239532,-1.1076722294092178 -1.2700320780277252,-1.5733151137828827 l-0.46118710190057755,-1.3472311198711395 -0.03773001255467534,-1.2370999157428741 l0.820813775062561,-1.3671205937862396 1.6062451899051666,-1.0203512012958527 l2.014954090118408,-0.4438907653093338 1.9206538796424866,0.05204733461141586 l1.3987520337104797,0.6016890704631805 1.148100346326828,1.1203686892986298 l0.7182668149471283,1.6671137511730194 0.04285977687686682,1.8038488924503326 l-0.729854628443718,1.3617806136608124 -1.5773488581180573,1.1487407237291336 l-2.0192770659923553,0.3955956920981407 -2.0045846700668335,-0.31930316239595413 l-1.0665331780910492,-0.6902426481246948 -0.8326874673366547,-1.1243579536676407 l-0.29024336487054825,-1.8093326687812805 0.2403363212943077,-1.1901690065860748 l1.1823424696922302,-1.454828679561615 1.8686264753341675,-0.9577382355928421 l2.0611242949962616,-0.24812685325741768 1.046239510178566,0.25380726903676987 l0.8386792987585068,0.7275605946779251 0.43045569211244583,1.0390068590641022 l-0.018310262821614742,1.1689484119415283 -0.4660268500447273,1.0157686471939087 l-1.4167597889900208,1.1615966260433197 -1.872485876083374,0.5154052749276161 l-1.76532581448555,-0.13410440646111965 -0.9172932058572769,-0.6768055260181427 l-0.5661336332559586,-1.0262902826070786 -0.1497799064964056,-1.1820493638515472 l0.282825268805027,-1.0311309248209 1.179080456495285,-1.203264445066452 l1.8427073955535889,-0.7232140749692917 1.9846883416175842,-0.046746665611863136 l0.8168892562389374,0.4434114694595337 0.4780507832765579,0.8721751719713211 l0.047895521856844425,1.215447336435318 -0.45894987881183624,0.9947975724935532 l-1.3868612051010132,1.1157846450805664 -1.85895636677742,0.5157330632209778 l-1.7334292829036713,-0.16337694600224495 -0.7710782438516617,-0.6142124161124229 l-0.4607423394918442,-1.043354868888855 -0.01120801200158894,-1.0812389850616455 l0.45064572244882584,-0.8877512067556381 1.4329071342945099,-1.0348423570394516 l2.0421113073825836,-0.4347119480371475 1.7304252088069916,0.23010870441794395 l0.8099248260259628,0.6112677976489067 0.3738965094089508,0.9710922837257385 l-0.10395587421953678,1.0412906855344772 -0.5936926230788231,0.8138500899076462 l-1.5734374523162842,0.8044709265232086 " fill="none" stroke="black" stroke-width="1" /></svg>