<?xml version="1.0" encoding="utf-8" ?>
<svg baseProfile="full" height="1930.0" version="1.1" width="4010.0" xmlns="http://www.w3.org/2000/svg" xmlns:ev="http://www.w3.org/2001/xml-events" xmlns:xlink="http://www.w3.org/1999/xlink"><defs /><rect fill="white" height="1930.0" width="4010.0" x="0" y="0" /><path d="M225.0,105.0 m-45.0,270.0 l-80.0,915.0 -45.0,180.0 l-30.0,50.0 40.0,25.0 l515.0,10.0 100.0,-65.0 l110.0,-130.0 145.0,-60.0 l75.0,5.0 65.0,40.0 l95.0,130.0 80.0,40.0 l105.0,10.0 90.0,-40.0 l140.0,-95.0 220.0,-10.0 l65.0,45.0 95.0,115.0 l100.0,30.0 115.0,-20.0 l65.0,-40.0 80.0,-85.0 l80.0,-40.0 125.0,-10.0 l105.0,75.0 75.0,105.0 l105.0,70.0 130.0,15.0 l95.0,-45.0 95.0,-70.0 l110.0,-5.0 95.0,45.0 l95.0,115.0 65.0,45.0 l115.0,10.0 145.0,-195.0 l70.0,-170.0 35.0,-360.0 l40.0,-75.0 35.0,-155.0 l45.0,-90.0 0.0,-335.0 l-20.0,-50.0 -270.0,-55.0 l-1550.0,-10.0 -610.0,-65.0 l-575.0,-100.0 -645.0,-50.0 m680.0,1300.0 l-60.0,10.0 -95.0,50.0 l5.0,115.0 70.0,90.0 l50.0,25.0 185.0,-15.0 l15.0,-145.0 -25.0,-45.0 l-35.0,-35.0 -75.0,-35.0 l-70.0,-5.0 -20.0,20.0 m795.0,130.0 l-65.0,-20.0 -40.0,15.0 l-30.0,25.0 -15.0,45.0 l-5.0,60.0 30.0,70.0 l60.0,30.0 75.0,15.0 l80.0,-25.0 45.0,-35.0 l15.0,-65.0 0.0,-60.0 l-35.0,-60.0 -80.0,-75.0 l-55.0,-15.0 -30.0,80.0 m780.0,0.0 l-140.0,45.0 -65.0,60.0 l10.0,95.0 25.0,35.0 l55.0,45.0 130.0,15.0 l40.0,-50.0 -10.0,-85.0 l-120.0,-105.0 -95.0,-30.0 m895.0,155.0 l-25.0,0.0 -55.0,40.0 l-50.0,80.0 105.0,130.0 l65.0,5.0 50.0,-25.0 l35.0,-55.0 0.0,-40.0 l-85.0,-125.0 -90.0,-70.0 l-35.0,-5.0 m-10.0,-1145.0 l-100.0,240.0 -110.0,205.0 l40.0,45.0 70.0,20.0 l340.0,40.0 90.0,25.0 l45.0,-85.0 15.0,-105.0 l5.0,-180.0 -25.0,-100.0 l-160.0,0.0 -265.0,-100.0 m-870.0,-100.0 l-95.0,320.0 0.0,70.0 l95.0,70.0 220.0,65.0 l375.0,90.0 -5.0,-490.0 l-30.0,-30.0 -305.0,-35.0 l-200.0,-45.0 m-915.0,0.0 l-30.0,25.0 -45.0,100.0 l-20.0,140.0 20.0,95.0 l75.0,85.0 160.0,70.0 l140.0,35.0 180.0,10.0 l110.0,-35.0 10.0,-40.0 " fill="none" stroke="black" stroke-width="1" /></svg>