<?xml version="1.0" encoding="utf-8" ?>
<svg baseProfile="full" height="2765.0" version="1.1" width="2770.0" xmlns="http://www.w3.org/2000/svg" xmlns:ev="http://www.w3.org/2001/xml-events" xmlns:xlink="http://www.w3.org/1999/xlink"><defs /><rect fill="white" height="2765.0" width="2770.0" x="0" y="0" /><path d="M695.0,455.0 m-105.0,40.0 l-165.0,110.0 -295.0,260.0 l-30.0,55.0 50.0,0.0 l280.0,-170.0 110.0,-80.0 l165.0,-160.0 55.0,-85.0 l-95.0,60.0 m30.0,-45.0 l-10.0,-105.0 -25.0,-30.0 l-100.0,-35.0 -165.0,0.0 l-130.0,75.0 -155.0,190.0 l-85.0,220.0 0.0,95.0 l30.0,30.0 75.0,15.0 m1915.0,-495.0 l-65.0,10.0 45.0,85.0 l205.0,165.0 150.0,70.0 l80.0,-10.0 15.0,-50.0 l-20.0,-35.0 -235.0,-190.0 l-95.0,-20.0 -55.0,30.0 m-60.0,-165.0 l75.0,-115.0 55.0,-35.0 l65.0,-15.0 165.0,15.0 l215.0,105.0 110.0,95.0 l50.0,100.0 -5.0,135.0 l-50.0,100.0 -55.0,35.0 m-1225.0,-660.0 l-120.0,15.0 -20.0,35.0 l0.0,40.0 20.0,25.0 l65.0,15.0 50.0,0.0 l85.0,-60.0 15.0,-30.0 l-30.0,-55.0 -40.0,-10.0 l-50.0,25.0 m-25.0,130.0 l-5.0,210.0 -70.0,400.0 m-940.0,915.0 l5.0,-140.0 75.0,-135.0 l200.0,-230.0 205.0,-165.0 l175.0,-90.0 275.0,-90.0 l405.0,-30.0 275.0,65.0 l170.0,70.0 165.0,100.0 l130.0,125.0 85.0,140.0 l45.0,220.0 -5.0,155.0 l-80.0,240.0 -105.0,155.0 l-155.0,155.0 -290.0,220.0 l-205.0,115.0 -205.0,85.0 l-210.0,55.0 -205.0,15.0 l-190.0,-25.0 -295.0,-140.0 l-180.0,-140.0 -80.0,-85.0 l-125.0,-175.0 -65.0,-170.0 l-15.0,-80.0 5.0,-155.0 l75.0,-200.0 105.0,-135.0 l90.0,-50.0 90.0,-15.0 m815.0,-390.0 l-95.0,655.0 -100.0,555.0 l-5.0,240.0 m-635.0,-500.0 l70.0,-35.0 355.0,-75.0 l1065.0,-160.0 185.0,-50.0 l35.0,-30.0 " fill="none" stroke="black" stroke-width="1" /></svg>