<?xml version="1.0" encoding="utf-8" ?>
<svg baseProfile="full" height="93.89386826194823" version="1.1" width="132.85220354795456" xmlns="http://www.w3.org/2000/svg" xmlns:ev="http://www.w3.org/2001/xml-events" xmlns:xlink="http://www.w3.org/1999/xlink"><defs /><rect fill="white" height="93.89386826194823" width="132.85220354795456" x="0" y="0" /><path d="M73.56950949862949,30.45482262259611 m-2.1301615238189697,0.8066757023334503 l-3.2007163763046265,2.329746335744858 -7.034739255905151,6.596938967704773 l0.12480595149099827,0.9192094951868057 1.7699505388736725,0.12177799828350544 l3.431452214717865,-1.488826423883438 3.5652658343315125,-2.6226505637168884 l1.861756592988968,-2.067273110151291 0.8446206897497177,-1.6995246708393097 l0.2238348312675953,-2.1252135932445526 m7.406032085418701,0.3275563195347786 l0.06695820484310389,0.47361187636852264 0.9749259054660797,3.4709492325782776 l1.5993887186050415,2.8673508763313293 2.1528781950473785,1.6712397336959839 l2.67039954662323,0.5835512652993202 2.665920853614807,-0.7072159647941589 l0.981810912489891,-1.4541608095169067 0.06008225027471781,-4.1157591342926025 l-2.495063841342926,-2.546834945678711 -3.8054129481315613,-1.5720407664775848 l-2.9081344604492188,-0.28081633150577545 m-8.313611149787903,-1.3631966710090637 l-3.8030144572257996,-0.24127580225467682 -4.3149566650390625,-0.4641980677843094 l-4.331280291080475,-0.5110111460089684 -3.190337121486664,-0.2783813327550888 l-2.630399763584137,-0.10834384709596634 -2.581433355808258,0.17232444137334824 l-2.447607070207596,0.7154630869626999 -1.3418617844581604,1.0101847350597382 l-0.6684082001447678,1.2829449772834778 -0.028099154587835073,1.5033914148807526 l0.7668047398328781,1.4241302013397217 1.5349112451076508,1.213110312819481 l2.3139014840126038,0.9040989726781845 4.629672467708588,0.6278045475482941 l6.312881708145142,0.1724504679441452 4.598172605037689,-0.22691061720252037 m-0.8126552402973175,-5.825513005256653 l0.0016643543494865298,0.7949609309434891 0.19882351160049438,1.3521632552146912 l0.49326997250318527,1.0771936178207397 1.1231264472007751,0.8442292362451553 l1.810295581817627,0.2877587452530861 1.2443048506975174,-0.5152943357825279 l1.3210715353488922,-1.5817278623580933 0.3143360838294029,-1.3495109975337982 m-8.094388246536255,0.2621757239103317 l0.08456957526504993,1.2021837383508682 0.1855538785457611,1.3241161406040192 l0.52212193608284,1.3034462928771973 0.9221111238002777,0.6085892766714096 l1.9373494386672974,0.0883099902421236 1.363285630941391,-0.7827490568161011 l0.9271809458732605,-1.242448017001152 m-5.246103405952454,-2.180151045322418 l-0.7500125467777252,4.622824788093567 -1.4700572192668915,5.290418267250061 l-1.414952278137207,5.7706522941589355 -1.2553952634334564,5.309571027755737 l-0.995231494307518,4.261144399642944 -0.6562050431966782,3.5119208693504333 l-0.0023916961799841374,2.8705796599388123 0.8561060577630997,2.359234243631363 l1.472792625427246,1.5489046275615692 2.0236124098300934,1.0712063312530518 l4.048624336719513,0.8335282653570175 6.641721129417419,0.00045107455662218854 l3.2188352942466736,-0.739230290055275 3.871256411075592,-1.9159770011901855 l2.236991971731186,-1.8849124014377594 1.3545501232147217,-2.085035890340805 l1.0233093798160553,-3.8842272758483887 -0.030593867413699627,-5.131440758705139 l-2.6025813817977905,-8.015401363372803 -1.9379107654094696,-3.4492942690849304 l-2.885892391204834,-3.152643144130707 -2.027982622385025,-2.036377340555191 l-1.9398902356624603,-1.2910518050193787 m-9.690855741500854,6.759788393974304 l-6.268649101257324,-3.8037770986557007 -3.9832469820976257,-2.919936776161194 l-4.407599866390228,-3.2109370827674866 -4.345561861991882,-2.928587794303894 l-3.7216660380363464,-2.004946768283844 -3.8126301765441895,-1.3975539803504944 l-3.5873576998710632,-0.7624451071023941 -3.1990575790405273,-0.03988050855696201 l-3.1468379497528076,0.9700358659029007 -1.8546126782894135,1.3168255984783173 l-1.9991287589073181,2.729645073413849 -0.829835832118988,2.497805207967758 l-0.12828029692173004,2.6129040122032166 0.7232429087162018,2.395770251750946 l1.5869678556919098,2.333439737558365 3.722018599510193,3.494463860988617 l5.863852500915527,3.7581199407577515 7.120178937911987,3.420584797859192 l7.616256475448608,2.6439380645751953 11.709771156311035,2.586248815059662 l4.700028300285339,0.49355849623680115 m11.361063718795776,-13.883509635925293 l1.7558106780052185,-0.9710048139095306 5.868428349494934,-3.6937502026557922 l9.548617005348206,-6.417003870010376 6.331503391265869,-3.8382333517074585 l4.944463670253754,-2.423985004425049 " fill="none" stroke="black" stroke-width="1" /></svg>