<?xml version="1.0" encoding="utf-8" ?>
<svg baseProfile="full" height="1605.0" version="1.1" width="2550.0" xmlns="http://www.w3.org/2000/svg" xmlns:ev="http://www.w3.org/2001/xml-events" xmlns:xlink="http://www.w3.org/1999/xlink"><defs /><rect fill="white" height="1605.0" width="2550.0" x="0" y="0" /><path d="M1515.0,25 m-195.0,55.0 l-725.0,370.0 -480.0,200.0 l-30.0,25.0 -25.0,55.0 l-35.0,200.0 40.0,300.0 l35.0,75.0 140.0,135.0 l180.0,70.0 1010.0,70.0 l325.0,0.0 305.0,-125.0 l150.0,-110.0 195.0,-100.0 l35.0,-40.0 65.0,-150.0 l20.0,-80.0 -10.0,-80.0 l-80.0,-170.0 -230.0,-355.0 l-140.0,-135.0 -215.0,-125.0 l-135.0,-50.0 -140.0,-10.0 l-125.0,30.0 -120.0,0.0 l-50.0,20.0 m-80.0,690.0 l0.0,0.0 m35.0,65.0 l-15.0,-25.0 10.0,-65.0 l5.0,125.0 m35.0,-100.0 l25.0,-60.0 80.0,-90.0 l280.0,-185.0 m-490.0,410.0 l0.0,405.0 m230.0,-1075.0 l5.0,50.0 m85.0,-95.0 l45.0,45.0 -15.0,50.0 l105.0,-10.0 5.0,-15.0 m625.0,590.0 l80.0,15.0 10.0,90.0 l-20.0,40.0 -35.0,25.0 l80.0,-5.0 0.0,25.0 l-140.0,55.0 " fill="none" stroke="black" stroke-width="1" /></svg>