<?xml version="1.0" encoding="utf-8" ?>
<svg baseProfile="full" height="79.009901098907" version="1.1" width="99.6206010505557" xmlns="http://www.w3.org/2000/svg" xmlns:ev="http://www.w3.org/2001/xml-events" xmlns:xlink="http://www.w3.org/1999/xlink"><defs /><rect fill="white" height="79.009901098907" width="99.6206010505557" x="0" y="0" /><path d="M57.52231727587059,26.351043097674847 m-3.7493103742599487,1.1859843134880066 l-5.347707271575928,0.8919709920883179 -16.194236278533936,3.977544605731964 l-3.6947476863861084,2.8997302055358887 -2.2778329253196716,3.270304799079895 l-1.2326566874980927,4.612999856472015 -0.02582605229690671,5.6689780950546265 l2.7216050028800964,2.3571884632110596 10.745420455932617,2.486172616481781 l6.905861496925354,0.30798405408859253 8.695490956306458,-0.8438240736722946 l7.678232192993164,-2.1912354230880737 4.899009466171265,-2.2115664184093475 l3.7460222840309143,-2.629598081111908 2.589954137802124,-3.1178927421569824 l1.2105068564414978,-2.7078527212142944 0.42849820107221603,-2.984876036643982 l-0.2723642624914646,-2.9409584403038025 -1.091414913535118,-2.345316708087921 l-1.972823441028595,-2.3446419835090637 -3.6557120084762573,-2.442057281732559 l-3.204660713672638,-1.3252703845500946 -3.447279632091522,-0.7442298531532288 l-3.645823895931244,-0.18058095127344131 -3.3403998613357544,0.31881265342235565 m-12.305376529693604,13.890255689620972 l0.045318603515625,0.12998884543776512 0.5756933242082596,0.31267568469047546 l0.3252075985074043,-0.2595618925988674 -0.2544337511062622,-0.4448101297020912 l-0.18375592306256294,0.23526117205619812 0.3588724508881569,-0.1516235712915659 l-0.020118022803217173,-0.3107438236474991 -0.20188651978969574,0.2831571362912655 l0.276474691927433,-0.17923502251505852 0.08763235993683338,-0.29399946331977844 l-0.12519492767751217,0.2373831905424595 0.24364223703742027,-0.21653791889548302 l0.020757669117301702,-0.2554011717438698 -0.05107268691062927,0.30668655410408974 l0.3129972144961357,-0.2599342353641987 0.03362352028489113,-0.2005709521472454 l-0.09067712351679802,0.2212357334792614 0.30010396614670753,-0.16184035688638687 l0.07536089979112148,-0.18096044659614563 -0.03273193258792162,0.18484754487872124 l0.22988738492131233,-0.19815657287836075 0.12733160518109798,-0.1615215465426445 l-0.023292519617825747,0.21485371515154839 0.1684940606355667,-0.18245631828904152 l0.09030270390212536,-0.2002444677054882 m-0.005322505603544414,-0.052071064710617065 l0.09018636308610439,-7.906357645988464 -0.34154392778873444,-2.963249981403351 " fill="none" stroke="black" stroke-width="1" /></svg>