<?xml version="1.0" encoding="utf-8" ?>
<svg baseProfile="full" height="1880.0" version="1.1" width="2540.0" xmlns="http://www.w3.org/2000/svg" xmlns:ev="http://www.w3.org/2001/xml-events" xmlns:xlink="http://www.w3.org/1999/xlink"><defs /><rect fill="white" height="1880.0" width="2540.0" x="0" y="0" /><path d="M25,995.0 m15.0,725.0 l20.0,65.0 55.0,50.0 l175.0,20.0 735.0,0.0 l1410.0,-50.0 55.0,-5.0 l25.0,-40.0 0.0,-125.0 l-45.0,-230.0 -80.0,-215.0 l-65.0,-75.0 -60.0,-30.0 l-205.0,-35.0 -1585.0,-15.0 l-360.0,-45.0 m2150.0,25.0 l45.0,-40.0 0.0,-145.0 l-40.0,-145.0 -140.0,-45.0 l-90.0,-5.0 -460.0,35.0 l-390.0,0.0 -85.0,15.0 l-335.0,-5.0 -180.0,-40.0 l-330.0,15.0 -85.0,30.0 l-100.0,75.0 30.0,170.0 m295.0,75.0 l60.0,-310.0 m80.0,310.0 l120.0,-120.0 105.0,-150.0 m30.0,270.0 l135.0,-135.0 285.0,-145.0 m-50.0,160.0 l180.0,-190.0 160.0,-105.0 m150.0,410.0 l175.0,-260.0 m100.0,365.0 l95.0,-190.0 60.0,-175.0 m-115.0,-140.0 l10.0,-130.0 50.0,-185.0 l5.0,-85.0 m-125.0,45.0 l0.0,90.0 -35.0,215.0 m135.0,-495.0 l0.0,40.0 -75.0,75.0 l-90.0,40.0 -70.0,5.0 l10.0,-10.0 m-555.0,295.0 l0.0,-275.0 m-125.0,320.0 l25.0,-230.0 50.0,-190.0 m-115.0,-75.0 l105.0,-25.0 165.0,0.0 l90.0,35.0 5.0,30.0 l-20.0,25.0 -55.0,25.0 l-70.0,5.0 -295.0,0.0 l0.0,-15.0 m-375.0,375.0 l25.0,-340.0 " fill="none" stroke="black" stroke-width="1" /></svg>