<?xml version="1.0" encoding="utf-8" ?>
<svg baseProfile="full" height="107.1557549424324" version="1.1" width="96.86272718012333" xmlns="http://www.w3.org/2000/svg" xmlns:ev="http://www.w3.org/2001/xml-events" xmlns:xlink="http://www.w3.org/1999/xlink"><defs /><rect fill="white" height="107.1557549424324" width="96.86272718012333" x="0" y="0" /><path d="M25,64.74261993447726 m0.4003065824508667,14.56822395324707 l0.2748044580221176,1.3063238561153412 1.4695048332214355,0.9737325459718704 l4.268074631690979,0.5378839001059532 14.449765682220459,0.026970752514898777 l15.709611177444458,-0.781150683760643 8.196747899055481,-1.0845643281936646 l1.4725121855735779,-0.7786820828914642 0.6213997304439545,-1.1088019609451294 l-0.42388059198856354,-5.138846039772034 -1.0671144723892212,-6.065147519111633 l-1.0052390396595001,-1.9399058818817139 -1.5158937871456146,-1.0961893200874329 l-2.624278962612152,-0.7292453944683075 -21.970949172973633,-0.21762292832136154 l-14.649267196655273,0.43324965983629227 -2.6549842953681946,0.39274178445339203 m5.768038034439087,-0.22306691855192184 l-0.505250059068203,-1.0364817827939987 -0.5110881105065346,-5.430465340614319 l0.6647015362977982,-3.8836514949798584 0.7721798866987228,-0.6635680049657822 l19.499406814575195,-0.4957061633467674 8.574783205986023,-0.06188852712512016 l0.8344021439552307,0.4215420037508011 0.5052923038601875,1.7553885281085968 l0.24287862703204155,6.451658606529236 -0.12209726497530937,2.7963820099830627 m-24.116532802581787,-9.94701623916626 l-0.4150407016277313,-0.9396591782569885 -0.18509475514292717,-4.964840114116669 l0.5740952864289284,-3.9591509103775024 0.7051614671945572,-0.6660202145576477 l16.166961193084717,-0.2526642940938473 6.295146942138672,0.15326197259128094 l0.49152735620737076,0.5725308880209923 -0.33581357449293137,7.600259184837341 l-0.2428819239139557,3.629792630672455 m-16.8538236618042,-11.821304559707642 l-0.4173862934112549,-7.704232931137085 0.19951099529862404,-2.508176863193512 l0.5226342752575874,-0.33676017075777054 3.325207531452179,0.0005383473035180941 l5.6473952531814575,0.248701311647892 0.4439827427268028,9.155871868133545 l0.27830593287944794,2.4208658933639526 m-7.8749388456344604,-11.92861557006836 l-0.6424389779567719,-4.5676445960998535 m3.737034797668457,4.438929259777069 l-0.03202814608812332,-4.325430393218994 m3.2239174842834473,4.45790708065033 l-0.012738698860630393,-3.9857396483421326 m3.086644411087036,4.1903156042099 l0.0601038197055459,-3.787211775779724 m-9.68495786190033,1.7609487473964691 l-0.03566330298781395,-2.8084686398506165 0.14680837281048298,-1.0077878832817078 m-2.1031834185123444,1.8307134509086609 l-0.7900039851665497,-1.1562330275774002 0.09939215146005154,-1.8330246210098267 l0.6514780968427658,-0.6323877722024918 0.575937069952488,0.4350651055574417 l0.01767156762070954,1.7294751107692719 m3.3566436171531677,2.947510778903961 l-0.25812752544879913,-3.1347525119781494 0.25296201929450035,-0.8322041481733322 l0.6279055029153824,0.30064359307289124 -0.1332497037947178,2.262515276670456 l-0.7613667845726013,0.942532941699028 m-1.672457754611969,1.3379010558128357 l-0.5559028312563896,-2.644399404525757 0.3892861679196358,-0.9792345762252808 l0.7546005398035049,0.35298697650432587 -0.20128389820456505,2.1173684298992157 m-0.8782343566417694,4.512212574481964 l-0.5680683255195618,-3.0394506454467773 0.15926048159599304,-1.3868744671344757 l0.7645648717880249,0.33692166209220886 " fill="none" stroke="black" stroke-width="1" /></svg>