<?xml version="1.0" encoding="utf-8" ?>
<svg baseProfile="full" height="81.2089093029499" version="1.1" width="153.05966924875975" xmlns="http://www.w3.org/2000/svg" xmlns:ev="http://www.w3.org/2001/xml-events" xmlns:xlink="http://www.w3.org/1999/xlink"><defs /><rect fill="white" height="81.2089093029499" width="153.05966924875975" x="0" y="0" /><path d="M29.783922443166375,25.5895476648584 m-1.217752918601036,2.960783541202545 l-1.6286210715770721,8.045389652252197 -1.8413449823856354,9.703975915908813 l-0.09620347060263157,4.099789559841156 0.5666539072990417,0.5459631234407425 l6.2572407722473145,0.9612298011779785 8.290533423423767,1.1436421424150467 l11.199227571487427,1.1621247231960297 11.813677549362183,1.24036006629467 l13.160560131072998,0.6788379698991776 15.350484848022461,0.07726514246314764 l13.405182361602783,-0.4792483150959015 10.003281831741333,-0.7261929661035538 l7.3845356702804565,-0.8943980932235718 4.62140679359436,-1.0200674831867218 l0.7858524471521378,-5.119906663894653 0.22103194147348404,-8.185852766036987 l-0.2582572028040886,-7.919941544532776 -0.6283818185329437,-3.6127039790153503 l-0.6525922566652298,-0.5101031437516212 -28.385117053985596,-0.7018017768859863 l-23.61536979675293,-0.7361859083175659 -19.01364803314209,-0.8084046095609665 l-13.686416149139404,-0.38070376962423325 -7.970247864723206,-0.11339828372001648 l-2.1215948462486267,0.26091959327459335 m14.623017311096191,19.79320764541626 l-1.2894336879253387,-0.09383179247379303 -1.3183929026126862,1.1597110331058502 l-0.5871088802814484,1.502528041601181 0.07172930054366589,1.4946253597736359 l0.8577339351177216,1.1653359234333038 1.388004869222641,0.7342280447483063 l2.555130422115326,0.32484833151102066 1.5404044091701508,-0.5564822629094124 l0.9768296778202057,-1.1124758422374725 0.4635777324438095,-2.1697282791137695 l-0.7214570790529251,-2.1948885917663574 -1.2292642146348953,-1.1748764663934708 l-1.483088880777359,-0.5648062750697136 -1.3257254660129547,0.40551673620939255 m38.82638454437256,2.127760946750641 l-0.9322595596313477,-0.003351665218360722 -1.353057622909546,1.1887812614440918 l-1.0858206450939178,2.4091389775276184 -0.00011090684893133584,2.0512880384922028 l0.8674771338701248,1.3367755711078644 1.4405430853366852,0.8650128543376923 l4.207653999328613,0.5188855901360512 1.1153320968151093,-0.43775688856840134 l1.3236021995544434,-1.7186066508293152 0.42072728276252747,-1.8246707320213318 l-0.4938904568552971,-2.357720136642456 -1.1008241772651672,-1.336548924446106 l-1.4595481753349304,-0.799676924943924 m12.806447744369507,0.22818434983491898 l-1.4628593623638153,0.9762081503868103 -0.8164170384407043,1.3559767603874207 l-0.20680321380496025,2.2424374520778656 0.6535604596138,1.3613691926002502 l1.2270601093769073,0.8224725723266602 2.4944576621055603,0.4566226154565811 l2.507091760635376,-0.49337413161993027 1.2409433722496033,-1.068621426820755 l0.6352640688419342,-2.127886563539505 -0.6417576223611832,-1.1175467818975449 l-1.9749142229557037,-1.3599403202533722 -4.750241637229919,-1.4222726225852966 m-43.92331123352051,-14.386591911315918 l-0.5643966421484947,4.8796650767326355 6.260458827018738,0.9684256464242935 l4.503090679645538,-0.07036453112959862 0.3569340705871582,-2.697027623653412 l-0.9057392179965973,-2.8808557987213135 -6.505333185195923,-0.7114911079406738 l-4.1479286551475525,0.09820997714996338 " fill="none" stroke="black" stroke-width="1" /></svg>