<?xml version="1.0" encoding="utf-8" ?>
<svg baseProfile="full" height="1910.0" version="1.1" width="5210.0" xmlns="http://www.w3.org/2000/svg" xmlns:ev="http://www.w3.org/2001/xml-events" xmlns:xlink="http://www.w3.org/1999/xlink"><defs /><rect fill="white" height="1910.0" width="5210.0" x="0" y="0" /><path d="M250.0,75.0 m-55.0,145.0 l-90.0,465.0 -50.0,420.0 l-30.0,135.0 35.0,20.0 l230.0,10.0 660.0,130.0 l435.0,60.0 205.0,50.0 l420.0,70.0 815.0,55.0 l1035.0,-10.0 805.0,-100.0 l490.0,-35.0 20.0,-25.0 l10.0,-60.0 0.0,-495.0 l-45.0,-375.0 -110.0,-325.0 l-60.0,-100.0 -40.0,-30.0 l-300.0,0.0 -1105.0,-55.0 l-1275.0,0.0 -430.0,30.0 l-1680.0,0.0 m-30.0,835.0 l225.0,-70.0 140.0,-75.0 l-50.0,10.0 -15.0,-25.0 l0.0,-55.0 30.0,-30.0 l100.0,-40.0 125.0,-5.0 l-45.0,55.0 -120.0,20.0 m25.0,725.0 l-65.0,50.0 -30.0,65.0 l-10.0,125.0 10.0,40.0 l25.0,20.0 100.0,30.0 l200.0,-5.0 115.0,-85.0 l35.0,-70.0 15.0,-180.0 l-5.0,-35.0 -45.0,-60.0 l-95.0,-65.0 -195.0,-45.0 m3915.0,320.0 l-295.0,-20.0 -65.0,10.0 l-125.0,50.0 -90.0,60.0 l-40.0,60.0 -25.0,140.0 l30.0,50.0 165.0,30.0 l240.0,-5.0 95.0,-35.0 l80.0,-65.0 85.0,-115.0 l0.0,-135.0 -45.0,-40.0 l-165.0,-70.0 m-790.0,195.0 l-85.0,10.0 -30.0,25.0 l-15.0,120.0 25.0,25.0 l135.0,30.0 275.0,0.0 l85.0,-35.0 " fill="none" stroke="black" stroke-width="1" /></svg>