<?xml version="1.0" encoding="utf-8" ?>
<svg baseProfile="full" height="69.67176217585802" version="1.1" width="68.00040632486343" xmlns="http://www.w3.org/2000/svg" xmlns:ev="http://www.w3.org/2001/xml-events" xmlns:xlink="http://www.w3.org/1999/xlink"><defs /><rect fill="white" height="69.67176217585802" width="68.00040632486343" x="0" y="0" /><path d="M34.135842309333384,25.281906314194202 m-2.6338553428649902,0.0965563952922821 l-1.5591546893119812,0.5791227519512177 -1.476840227842331,1.0051484405994415 l-1.8170605599880219,2.142460197210312 -1.1691468209028244,2.6190590858459473 l-0.44417180120944977,2.139795869588852 -0.03561286721378565,3.236577808856964 l0.8830203115940094,2.628636956214905 1.828911304473877,2.371577173471451 l2.4069438874721527,1.6259302198886871 3.7646910548210144,0.9449909627437592 l3.7203052639961243,-0.26361342519521713 2.0187686383724213,-1.0452760756015778 l1.6943800449371338,-1.7698253691196442 1.1540298163890839,-2.5152677297592163 l0.5293560028076172,-3.1499305367469788 -0.07832355797290802,-3.060157895088196 l-0.8084909617900848,-2.5569412112236023 -1.4479939639568329,-2.3308373987674713 l-1.853834092617035,-1.6664476692676544 -2.2677016258239746,-1.0198581963777542 l-2.4769018590450287,-0.2936066687107086 -1.9335411489009857,0.33898670226335526 m1.5375261008739471,2.257072329521179 l-0.029547973535954952,2.838764190673828 0.04063744097948074,4.074239730834961 l1.657271832227707,0.1375752128660679 3.617538809776306,-0.3801403194665909 m-6.67689323425293,-2.421151250600815 l-0.5382342264056206,0.46373680233955383 -0.3251362591981888,0.7691854983568192 l-0.10914681479334831,0.9995713084936142 0.3102528676390648,0.7560268044471741 l1.2001296132802963,0.3094061091542244 0.8273588120937347,-0.446229986846447 l0.48403114080429077,-1.2894909083843231 -0.1787227764725685,-0.8323238790035248 l-0.6603487581014633,-0.46231992542743683 -0.8012518286705017,0.003667905111797154 m4.374724328517914,-0.014965467853471637 l-0.47320224344730377,0.7611402124166489 0.14183330349624157,1.1353830248117447 l0.6142350286245346,0.5889877304434776 1.3111220300197601,0.01567313796840608 l0.4332384467124939,-0.6936455518007278 -0.10039937682449818,-0.733182281255722 " fill="none" stroke="black" stroke-width="1" /></svg>