<?xml version="1.0" encoding="utf-8" ?>
<svg baseProfile="full" height="1010.0" version="1.1" width="1085.0" xmlns="http://www.w3.org/2000/svg" xmlns:ev="http://www.w3.org/2001/xml-events" xmlns:xlink="http://www.w3.org/1999/xlink"><defs /><rect fill="white" height="1010.0" width="1085.0" x="0" y="0" /><path d="M490.0,130.0 m-130.0,5.0 l-25.0,20.0 -125.0,35.0 l-110.0,70.0 -70.0,165.0 l-5.0,130.0 40.0,125.0 l55.0,95.0 115.0,90.0 l155.0,85.0 115.0,35.0 l135.0,0.0 60.0,-10.0 l130.0,-65.0 155.0,-110.0 l25.0,-25.0 50.0,-135.0 l0.0,-335.0 -40.0,-105.0 l-90.0,-40.0 -140.0,-35.0 l-145.0,-5.0 -155.0,30.0 m-60.0,105.0 l0.0,55.0 20.0,35.0 l100.0,35.0 170.0,0.0 l115.0,-85.0 -5.0,-15.0 m-285.0,15.0 l-40.0,-80.0 0.0,-75.0 l20.0,-50.0 110.0,-55.0 l130.0,-10.0 15.0,25.0 l-10.0,75.0 -140.0,55.0 l-60.0,75.0 -60.0,25.0 m20.0,-55.0 l140.0,-115.0 60.0,-35.0 l65.0,-10.0 " fill="none" stroke="black" stroke-width="1" /></svg>