<?xml version="1.0" encoding="utf-8" ?>
<svg baseProfile="full" height="1930.0" version="1.1" width="2090.0" xmlns="http://www.w3.org/2000/svg" xmlns:ev="http://www.w3.org/2001/xml-events" xmlns:xlink="http://www.w3.org/1999/xlink"><defs /><rect fill="white" height="1930.0" width="2090.0" x="0" y="0" /><path d="M390.0,230.0 m1070.0,-155.0 l570.0,-50.0 0.0,545.0 l-25.0,490.0 30.0,280.0 l-25.0,20.0 -320.0,-60.0 l-125.0,-5.0 -290.0,0.0 l-225.0,30.0 -255.0,75.0 l-355.0,190.0 -120.0,-215.0 l-195.0,-515.0 -100.0,-560.0 l115.0,5.0 190.0,-50.0 l195.0,-5.0 m1025.0,1140.0 l-25.0,-70.0 -30.0,-415.0 l-40.0,-185.0 180.0,-80.0 l115.0,-30.0 300.0,-5.0 m-2010.0,285.0 l385.0,-65.0 670.0,-205.0 l375.0,-95.0 595.0,-65.0 m-1610.0,-350.0 l-15.0,700.0 m360.0,-580.0 l40.0,200.0 55.0,160.0 l55.0,75.0 55.0,5.0 m275.0,-495.0 l50.0,210.0 40.0,95.0 l30.0,40.0 80.0,35.0 m260.0,-480.0 l20.0,100.0 90.0,175.0 m-1340.0,1020.0 l-95.0,195.0 -40.0,180.0 l10.0,50.0 50.0,40.0 l65.0,35.0 85.0,20.0 l85.0,0.0 75.0,-25.0 l60.0,-50.0 50.0,-70.0 l25.0,-85.0 -35.0,-265.0 l-70.0,-85.0 -115.0,-15.0 l-50.0,30.0 -50.0,95.0 l0.0,145.0 m995.0,-180.0 l-65.0,-5.0 -165.0,70.0 l-100.0,90.0 -45.0,65.0 l-25.0,55.0 0.0,50.0 l50.0,75.0 60.0,40.0 l110.0,60.0 140.0,20.0 l185.0,-20.0 165.0,-80.0 l130.0,-130.0 60.0,-135.0 l0.0,-100.0 -10.0,-45.0 l-90.0,-15.0 -710.0,335.0 m310.0,-115.0 l35.0,50.0 65.0,50.0 l115.0,55.0 85.0,15.0 m-1250.0,-270.0 l130.0,45.0 250.0,145.0 " fill="none" stroke="black" stroke-width="1" /></svg>