<?xml version="1.0" encoding="utf-8" ?>
<svg baseProfile="full" height="84.9087003589375" version="1.1" width="94.90268097491935" xmlns="http://www.w3.org/2000/svg" xmlns:ev="http://www.w3.org/2001/xml-events" xmlns:xlink="http://www.w3.org/1999/xlink"><defs /><rect fill="white" height="84.9087003589375" width="94.90268097491935" x="0" y="0" /><path d="M31.147243541199714,29.598947763442993 m24.246394634246826,-3.4604066610336304 l13.573929071426392,-1.1385411024093628 0.3462958335876465,6.695650815963745 l0.3226948529481888,12.328903675079346 0.26612304151058197,8.038330078125 l-0.02537940861657262,3.4790247678756714 -0.4038495197892189,0.46864598989486694 l-13.850611448287964,0.006428599008359015 -15.744260549545288,-0.10241125710308552 l-5.206219553947449,0.015671021537855268 -7.479420304298401,0.08173267357051373 l-0.6218905746936798,-0.4857645183801651 -1.2137503176927567,-6.738547682762146 l-0.3572992980480194,-8.51181447505951 0.29879583045840263,-6.881666779518127 l0.5506212264299393,-4.449345767498016 0.42464539408683777,-0.7004573196172714 l4.937226176261902,-0.2227138727903366 6.875168681144714,0.08244644850492477 l8.585658073425293,0.28136318549513817 8.99490237236023,0.25407975539565086 l7.081034779548645,0.37601884454488754 m-26.76248550415039,13.168282508850098 l0.08573701605200768,3.538362979888916 0.06709946785122156,5.776596665382385 l0.22005684673786163,3.9039286971092224 0.43759170919656754,2.52882719039917 m10.451432466506958,-18.22079062461853 l0.06886996328830719,7.626845836639404 0.23727310821413994,7.701018452644348 l0.36321595311164856,3.491702079772949 m9.542246460914612,-18.94737720489502 l0.3123941086232662,7.663037180900574 0.2176986075937748,7.689421772956848 m7.540523409843445,-16.56942844390869 l0.3674823045730591,7.333481311798096 0.26092180982232094,7.315540313720703 m-26.228721141815186,-6.049892902374268 l-0.4754680395126343,4.790924489498138 -0.21838771179318428,4.832233488559723 l0.30370811000466347,1.744551807641983 0.7118966430425644,1.0048723220825195 l1.069757267832756,0.4475484788417816 2.1091540157794952,-0.30975768342614174 l1.5260609984397888,-1.1355025321245193 1.0886509716510773,-1.6401349008083344 l0.8046711981296539,-3.1798896193504333 -0.014153392985463142,-3.5868412256240845 l-1.0392729192972183,-2.5826996564865112 -1.2601475417613983,-1.1846200376749039 l-2.263389080762863,-0.6771542876958847 -2.974768877029419,0.32841071486473083 l-1.438508778810501,0.9715092927217484 m15.239901542663574,-0.1118254754692316 l-0.5969806760549545,4.66640830039978 -0.12012994848191738,5.118757486343384 l0.4312707483768463,1.8870392441749573 0.8450876176357269,1.0659471899271011 l1.1674165725708008,0.49379296600818634 2.0546160638332367,-0.310316476970911 l1.5289169549942017,-1.299428790807724 1.1361221969127655,-1.8440596759319305 l0.6303990632295609,-2.0591509342193604 0.15258941799402237,-3.1101596355438232 l-0.8328010886907578,-2.84942090511322 -1.1549175530672073,-1.593814194202423 l-1.4411735534667969,-0.8594700694084167 -1.5828117728233337,-0.21725177764892578 l-2.0867259800434113,0.7773958146572113 m-12.587406635284424,2.1522030234336853 l-0.09490988217294216,2.8339654207229614 0.38960736244916916,3.7753474712371826 l0.8060399442911148,1.766635924577713 1.152784675359726,0.9322201460599899 l1.2952573597431183,0.2793656289577484 2.008240222930908,-0.6954967975616455 l1.3091884553432465,-1.3965089619159698 0.8126682043075562,-1.7557068169116974 l0.2965855412185192,-2.8473010659217834 -0.4530085623264313,-1.8634629249572754 l-0.9132426977157593,-1.2187103182077408 -2.020236551761627,-1.0257674008607864 l-1.941000372171402,-0.15867315232753754 -2.329981178045273,0.87265245616436 m-0.278567373752594,-1.2625159323215485 l0.0016194229829125106,1.7899657785892487 m3.0336961150169373,-1.8981768190860748 l0.22038063034415245,1.5050458908081055 " fill="none" stroke="black" stroke-width="1" /></svg>