<?xml version="1.0" encoding="utf-8" ?>
<svg baseProfile="full" height="80.07711930200458" version="1.1" width="134.0951820462942" xmlns="http://www.w3.org/2000/svg" xmlns:ev="http://www.w3.org/2001/xml-events" xmlns:xlink="http://www.w3.org/1999/xlink"><defs /><rect fill="white" height="80.07711930200458" width="134.0951820462942" x="0" y="0" /><path d="M49.54708996228874,30.58149235555902 m1.2818607687950134,-0.623481348156929 l3.34883451461792,-0.7297023385763168 5.309961438179016,-0.5175801366567612 l3.0382326245307922,0.12325557880103588 3.5676923394203186,0.9356314688920975 l3.553335666656494,1.7316560447216034 2.8021016716957092,2.1842296421527863 l2.256842702627182,2.4970877170562744 1.799280047416687,2.6731547713279724 l0.9337387233972549,2.08946093916893 0.5159785971045494,2.184314727783203 l0.13800173066556454,2.93847918510437 -0.41326750069856644,2.2060270607471466 l-1.1153096705675125,2.142120599746704 -1.9704854488372803,2.0510439574718475 l-2.6199832558631897,1.4612962305545807 -4.621095955371857,1.1299959570169449 l-7.608183026313782,0.018636889290064573 -4.9450987577438354,-1.1969728022813797 l-3.1902894377708435,-1.5032298862934113 -2.428702861070633,-1.9402772188186646 l-1.8381017446517944,-2.4056370556354523 -1.1227569729089737,-2.8144490718841553 l-0.2829156070947647,-2.9113388061523438 0.5521366000175476,-2.777542769908905 l1.4868102967739105,-2.678169906139374 2.059512734413147,-2.188902795314789 l3.309803307056427,-2.1290509402751923 2.794698178768158,-0.9429474174976349 m9.56143856048584,6.260380744934082 l1.9260960817337036,-0.4649772495031357 4.165757894515991,-1.3644684851169586 l8.888810276985168,-2.9438263177871704 7.775149345397949,-2.859162390232086 l5.080950856208801,-1.889352947473526 2.982535660266876,-1.1275149136781693 l2.4974939227104187,-0.9896870702505112 1.8396154046058655,-0.6407096236944199 l1.5179258584976196,-0.3831994906067848 1.5836606919765472,-0.1860828883945942 l1.5374600887298584,0.12793230824172497 1.4726747572422028,0.7212233543395996 l1.359906643629074,1.474204659461975 0.6006006896495819,1.4058484137058258 l0.16538364812731743,1.5428726375102997 -0.3859296441078186,2.268468141555786 l-1.2749961018562317,2.5279876589775085 -2.0020408928394318,2.4722465872764587 l-2.653551697731018,2.2825126349925995 -3.129388988018036,1.9129818677902222 l-4.896874129772186,2.1390166878700256 -5.409181714057922,1.5765845775604248 l-5.639088749885559,0.8821665495634079 -5.344563126564026,0.20468130707740784 l-3.1125497817993164,-0.389057956635952 -1.8151485919952393,-0.5763287842273712 l-1.2757615745067596,-0.7368109375238419 -0.7340975105762482,-0.8644689619541168 m-14.759893417358398,-8.153618574142456 l-1.3878703117370605,-0.6031548976898193 -3.6553585529327393,-1.2125204503536224 l-7.305893301963806,-1.9108444452285767 -4.5599594712257385,-0.7922690361738205 l-4.450636804103851,-0.3496481105685234 -3.8208329677581787,0.22694598883390427 l-2.582140862941742,0.8100955933332443 -2.0089325308799744,1.3242918252944946 l-1.3424064218997955,1.8501222133636475 -0.5480848997831345,2.2981008887290955 l0.125247435644269,1.538548767566681 0.6279576569795609,1.1677934974431992 l1.6954849660396576,1.4614501595497131 2.646918296813965,1.291307657957077 l3.252292275428772,0.8910401910543442 5.0354015827178955,0.6159669160842896 l5.257483720779419,0.1450352557003498 3.3281102776527405,-0.3060806170105934 l4.228417873382568,-1.0833418369293213 3.262298107147217,-0.309560839086771 l1.1307795345783234,-0.4355034977197647 m-1.5840113162994385,-9.923976063728333 l-1.845119446516037,0.6908600032329559 -1.2147148698568344,1.0562335699796677 l-0.9462533891201019,1.7803262174129486 -0.24471038952469826,1.5835495293140411 l0.3102700226008892,1.0446883738040924 0.8878332376480103,0.6900519877672195 l2.0666582882404327,0.41924312710762024 2.4472439289093018,-0.10672098957002163 l1.9227774441242218,-0.7876893877983093 1.467507779598236,-1.4721617102622986 l0.6193459779024124,-1.9660207629203796 -0.13282418251037598,-1.988789141178131 l-0.8877725899219513,-1.136050596833229 -1.6025559604167938,-0.8426539599895477 l-2.1859662234783173,-0.32591111958026886 -2.241452783346176,0.15240374021232128 l-1.0907529294490814,0.4934471845626831 -0.6691432744264603,0.7568766921758652 l-0.20481836050748825,0.9996727108955383 0.38499679416418076,0.9273519366979599 l1.103784218430519,0.6989781558513641 2.3761695623397827,0.46025224030017853 l2.6200395822525024,-0.04359386395663023 1.8317067623138428,-0.6106598302721977 l1.2455856055021286,-1.17733933031559 0.2870930917561054,-1.673600822687149 l-0.7072839140892029,-1.3300102949142456 -1.4838752150535583,-0.9210953861474991 l-2.062194049358368,-0.34338902682065964 -2.176939994096756,0.18692225217819214 l-1.8189191818237305,1.0058636218309402 -0.8132804930210114,1.038774698972702 l-0.18457841128110886,1.178763210773468 0.4072730243206024,0.8448847383260727 l1.6327176988124847,0.9784694015979767 2.458902895450592,0.4373624175786972 l2.441123276948929,-0.07241770625114441 1.5769363939762115,-0.6310511380434036 l0.9951682388782501,-1.1462703347206116 0.05293827969580889,-1.4172936975955963 l-0.9564197063446045,-0.901222750544548 -1.8066540360450745,-0.5290632322430611 l-2.4462106823921204,0.033284579403698444 " fill="none" stroke="black" stroke-width="1" /></svg>