<?xml version="1.0" encoding="utf-8" ?>
<svg baseProfile="full" height="1930.0" version="1.1" width="2605.0" xmlns="http://www.w3.org/2000/svg" xmlns:ev="http://www.w3.org/2001/xml-events" xmlns:xlink="http://www.w3.org/1999/xlink"><defs /><rect fill="white" height="1930.0" width="2605.0" x="0" y="0" /><path d="M480.0,940.0 m65.0,-35.0 l260.0,-85.0 200.0,-15.0 l60.0,0.0 275.0,85.0 l180.0,85.0 100.0,25.0 l220.0,25.0 145.0,0.0 l65.0,-15.0 70.0,-55.0 l20.0,-95.0 -10.0,-145.0 l-125.0,-275.0 10.0,-155.0 l40.0,-85.0 90.0,-90.0 l200.0,-75.0 115.0,-10.0 l100.0,30.0 20.0,50.0 l-15.0,70.0 5.0,95.0 l-10.0,20.0 -25.0,5.0 l-60.0,-35.0 -30.0,-75.0 l-20.0,-10.0 -80.0,0.0 l-65.0,80.0 -30.0,170.0 l30.0,325.0 -15.0,80.0 l-45.0,90.0 -75.0,95.0 l-45.0,175.0 -30.0,45.0 l-70.0,20.0 -140.0,0.0 l-55.0,45.0 -60.0,520.0 l-55.0,85.0 -215.0,-25.0 l-45.0,-35.0 5.0,-20.0 l75.0,-20.0 35.0,-90.0 l-10.0,-220.0 -30.0,-100.0 l-20.0,-20.0 -20.0,5.0 l-40.0,60.0 -40.0,95.0 l-70.0,345.0 -75.0,20.0 l-175.0,-40.0 -20.0,-20.0 l60.0,-25.0 70.0,-65.0 l25.0,-225.0 -5.0,-130.0 l-90.0,-55.0 -205.0,-35.0 l-50.0,0.0 -35.0,45.0 l-35.0,310.0 -30.0,115.0 l-70.0,60.0 -120.0,35.0 l-105.0,-15.0 -35.0,-40.0 l20.0,-20.0 110.0,-40.0 l30.0,-50.0 30.0,-115.0 l15.0,-185.0 -10.0,-45.0 l-100.0,20.0 -95.0,60.0 l-25.0,55.0 -35.0,190.0 l-70.0,130.0 -30.0,20.0 l-45.0,0.0 -115.0,-45.0 l-25.0,-45.0 135.0,-50.0 l50.0,-160.0 135.0,-210.0 l0.0,-30.0 -30.0,-60.0 l-95.0,-85.0 -210.0,-125.0 l-35.0,-70.0 5.0,-100.0 l45.0,-60.0 90.0,-50.0 l130.0,5.0 80.0,35.0 l65.0,65.0 75.0,120.0 m-175.0,-145.0 l160.0,-95.0 5.0,75.0 l-25.0,75.0 m-425.0,-100.0 l-25.0,-100.0 20.0,-45.0 l145.0,65.0 m-25.0,165.0 l0.0,-10.0 m140.0,75.0 l0.0,0.0 m0.0,25.0 l10.0,0.0 m-135.0,5.0 l-30.0,5.0 " fill="none" stroke="black" stroke-width="1" /></svg>