<?xml version="1.0" encoding="utf-8" ?>
<svg baseProfile="full" height="1055.0" version="1.1" width="2340.0" xmlns="http://www.w3.org/2000/svg" xmlns:ev="http://www.w3.org/2001/xml-events" xmlns:xlink="http://www.w3.org/1999/xlink"><defs /><rect fill="white" height="1055.0" width="2340.0" x="0" y="0" /><path d="M310.0,175.0 m305.0,-15.0 l675.0,-95.0 370.0,10.0 l280.0,-50.0 210.0,0.0 l100.0,15.0 65.0,565.0 l-30.0,30.0 -60.0,10.0 l-185.0,5.0 -395.0,-30.0 l-340.0,10.0 -315.0,55.0 l-135.0,40.0 -215.0,-20.0 l-110.0,-55.0 -145.0,-180.0 l-45.0,-175.0 10.0,-95.0 m-15.0,155.0 l-105.0,30.0 -155.0,10.0 l-50.0,20.0 0.0,155.0 l30.0,145.0 290.0,25.0 l195.0,-10.0 m330.0,-25.0 l-125.0,30.0 -60.0,50.0 l-30.0,115.0 20.0,60.0 l45.0,55.0 50.0,15.0 l25.0,-10.0 50.0,-80.0 l45.0,-135.0 -10.0,-80.0 l-20.0,-25.0 -40.0,-35.0 l-70.0,-20.0 m1255.0,-5.0 l-125.0,70.0 -60.0,60.0 l-55.0,105.0 20.0,25.0 l50.0,10.0 140.0,0.0 l165.0,-60.0 30.0,-30.0 l5.0,-60.0 -60.0,-75.0 l-105.0,-45.0 -115.0,-20.0 l-60.0,45.0 " fill="none" stroke="black" stroke-width="1" /></svg>