<?xml version="1.0" encoding="utf-8" ?>
<svg baseProfile="full" height="70.83917354699224" version="1.1" width="89.70418756827712" xmlns="http://www.w3.org/2000/svg" xmlns:ev="http://www.w3.org/2001/xml-events" xmlns:xlink="http://www.w3.org/1999/xlink"><defs /><rect fill="white" height="70.83917354699224" width="89.70418756827712" x="0" y="0" /><path d="M25,26.779491843190044 m6.162365674972534,-0.20213760435581207 l13.288596868515015,-0.7639633119106293 10.375475883483887,0.031299537513405085 l4.561810493469238,-0.3163498640060425 3.3735567331314087,-0.35171590745449066 l1.7037546634674072,-0.17662469297647476 0.23862725123763084,4.068835079669952 l-0.043659708462655544,5.936797261238098 -0.1267628464847803,6.245694160461426 l-6.347396969795227,0.17369111999869347 -8.804684281349182,0.2633674629032612 l-10.097781419754028,0.2612660080194473 -8.028955459594727,0.2697746828198433 l-5.17103374004364,-0.07763049099594355 -0.42536139488220215,-0.4280335456132889 l0.008628916693851352,-1.2470153719186783 0.4318970814347267,-7.838671803474426 l0.013614088529720902,-5.862975120544434 -0.1996278390288353,-1.7069433629512787 m4.590378999710083,15.505919456481934 l-1.274532973766327,0.05346599966287613 -0.9735987335443497,0.8370526880025864 l-0.4496600106358528,1.3864189386367798 0.13501309789717197,1.4621277153491974 l0.7645807415246964,0.9238401055335999 1.6255566477775574,0.6121925637125969 l2.073574662208557,-0.19539790228009224 1.5828165411949158,-1.1565354466438293 l0.9161978960037231,-1.691642701625824 0.048846169374883175,-1.8368352949619293 l-0.810772180557251,-1.0573508590459824 -1.0275967419147491,-0.4801532253623009 l-1.8813492357730865,-0.03266918007284403 -0.9707903861999512,0.4465257376432419 m29.644594192504883,0.2159348875284195 l-1.3981816172599792,-0.05614027380943298 -0.9300801903009415,0.4135407507419586 l-1.0255362838506699,1.4636321365833282 -0.20319102331995964,1.360163539648056 l0.3970971703529358,1.0978060215711594 0.9928569197654724,0.8188874274492264 l1.9069696962833405,0.48190247267484665 2.027934640645981,-0.23902755230665207 l1.646037995815277,-1.0790512710809708 0.9671411663293839,-1.5449072420597076 l0.10893021710216999,-1.90214142203331 -0.8162597566843033,-1.2790174782276154 l-1.7495116591453552,-1.0040123015642166 -2.2925972938537598,-0.3284730017185211 l-2.0678603649139404,0.24656811729073524 m-19.52933430671692,-10.426943302154541 l-0.0460193632170558,4.342636168003082 2.1526391804218292,0.2574566565454006 l7.865810394287109,-0.24204256013035774 7.136220932006836,-0.09347115643322468 l4.629935920238495,-0.3661799803376198 1.9066043198108673,-0.39594199508428574 " fill="none" stroke="black" stroke-width="1" /></svg>