<?xml version="1.0" encoding="utf-8" ?>
<svg baseProfile="full" height="1950.0" version="1.1" width="1740.0" xmlns="http://www.w3.org/2000/svg" xmlns:ev="http://www.w3.org/2001/xml-events" xmlns:xlink="http://www.w3.org/1999/xlink"><defs /><rect fill="white" height="1950.0" width="1740.0" x="0" y="0" /><path d="M785.0,790.0 m-15.0,-30.0 l-105.0,-50.0 -80.0,-15.0 l-150.0,5.0 -150.0,95.0 l-170.0,200.0 -80.0,175.0 l-10.0,170.0 30.0,145.0 l30.0,65.0 130.0,195.0 l110.0,100.0 115.0,55.0 l165.0,25.0 125.0,0.0 l420.0,-120.0 250.0,-95.0 l100.0,-60.0 85.0,-95.0 l90.0,-190.0 40.0,-205.0 l-5.0,-130.0 -75.0,-110.0 l-180.0,-155.0 -140.0,-70.0 l-90.0,-20.0 -165.0,0.0 l-85.0,30.0 -95.0,60.0 l-55.0,70.0 m25.0,10.0 l-25.0,-35.0 -45.0,-170.0 l-5.0,-175.0 15.0,-100.0 l125.0,-210.0 95.0,-105.0 l65.0,-25.0 m-325.0,495.0 l40.0,-55.0 265.0,-135.0 l125.0,-55.0 30.0,-5.0 l10.0,30.0 -125.0,130.0 l-305.0,240.0 " fill="none" stroke="black" stroke-width="1" /></svg>