<?xml version="1.0" encoding="utf-8" ?>
<svg baseProfile="full" height="85.68446916062385" version="1.1" width="80.36154955625534" xmlns="http://www.w3.org/2000/svg" xmlns:ev="http://www.w3.org/2001/xml-events" xmlns:xlink="http://www.w3.org/1999/xlink"><defs /><rect fill="white" height="85.68446916062385" width="80.36154955625534" x="0" y="0" /><path d="M38.87292340397835,39.401184157977696 m-0.4178912937641144,-0.6255016475915909 l-2.068946063518524,-0.9269404411315918 -1.4163857698440552,-0.16973651945590973 l-2.917863130569458,0.4432182013988495 -2.6958250999450684,1.6316123306751251 l-2.4924100935459137,2.795373499393463 -1.1172417551279068,2.4428850412368774 l-0.7463601976633072,5.665809512138367 0.7946626096963882,4.0190863609313965 l0.8496540784835815,1.5619030594825745 2.703087031841278,2.568120062351227 l1.5274354815483093,0.8500350266695023 3.9716464281082153,1.0271325707435608 l3.707045316696167,0.00028794580430258065 2.9445353150367737,-0.6550897657871246 l5.858246088027954,-2.5624626874923706 3.305070400238037,-2.1678972244262695 l2.201947569847107,-2.218434065580368 1.4704112708568573,-2.335551530122757 l1.027807965874672,-3.5966774821281433 -0.00015524596165050752,-2.9415053129196167 l-0.6615570932626724,-2.260248363018036 -1.6919869184494019,-2.6065361499786377 l-1.7613986134529114,-1.5282513201236725 -1.9967883825302124,-0.906003788113594 l-3.259468376636505,-0.49302607774734497 -3.4102508425712585,0.43010007590055466 l-1.7673654854297638,0.8454199135303497 -1.0793883353471756,1.0996371507644653 l-0.47775477170944214,1.207641065120697 -0.20045557990670204,0.030238847248256207 l0.028515916783362627,-1.377846896648407 m0.3780468925833702,0.8775834739208221 l0.3835618123412132,-5.440228581428528 0.8703454583883286,-2.941688597202301 l1.7504246532917023,-2.823495864868164 2.462471127510071,-2.12855726480484 l2.852470576763153,-1.1915887147188187 m-8.004329800605774,8.804925084114075 l-0.09232421405613422,-0.9395012259483337 0.37050873041152954,-1.2931905686855316 l1.2745212018489838,-1.845013052225113 2.2763632237911224,-1.6842317581176758 l2.4962618947029114,-0.769423097372055 -3.632117509841919,3.8786858320236206 l-2.12002694606781,2.4588896334171295 " fill="none" stroke="black" stroke-width="1" /></svg>