<?xml version="1.0" encoding="utf-8" ?>
<svg baseProfile="full" height="2015.0" version="1.1" width="2230.0" xmlns="http://www.w3.org/2000/svg" xmlns:ev="http://www.w3.org/2001/xml-events" xmlns:xlink="http://www.w3.org/1999/xlink"><defs /><rect fill="white" height="2015.0" width="2230.0" x="0" y="0" /><path d="M95.0,520.0 m100.0,70.0 l185.0,210.0 170.0,125.0 l100.0,30.0 425.0,60.0 l270.0,-10.0 185.0,-30.0 l340.0,-150.0 135.0,-40.0 l105.0,-140.0 10.0,50.0 l-40.0,735.0 5.0,275.0 l20.0,60.0 -75.0,40.0 l-135.0,40.0 -120.0,15.0 l-280.0,105.0 -170.0,25.0 l-340.0,-70.0 -320.0,-180.0 l-420.0,-265.0 -205.0,-80.0 l-15.0,-210.0 35.0,-645.0 l200.0,-195.0 185.0,-80.0 l160.0,-25.0 385.0,55.0 l105.0,25.0 65.0,45.0 l65.0,-20.0 30.0,15.0 l160.0,5.0 150.0,25.0 l240.0,110.0 215.0,5.0 l145.0,35.0 40.0,30.0 m-1850.0,-20.0 l0.0,-265.0 20.0,-260.0 " fill="none" stroke="black" stroke-width="1" /></svg>