<?xml version="1.0" encoding="utf-8" ?>
<svg baseProfile="full" height="80.64216457307339" version="1.1" width="100.83721492439508" xmlns="http://www.w3.org/2000/svg" xmlns:ev="http://www.w3.org/2001/xml-events" xmlns:xlink="http://www.w3.org/1999/xlink"><defs /><rect fill="white" height="80.64216457307339" width="100.83721492439508" x="0" y="0" /><path d="M32.57346696220338,28.84642176286434 m1.971888691186905,1.465853750705719 l4.8029956221580505,4.465491473674774 2.174135595560074,1.7870575189590454 l5.1655274629592896,2.8614097833633423 3.2991909980773926,0.8058103919029236 l5.476486086845398,0.000558793981326744 5.5723994970321655,-0.8381401747465134 l4.84019935131073,-1.2437549978494644 3.6772334575653076,-1.7643451690673828 l1.6665954887866974,-1.3615216314792633 2.4176040291786194,-3.608880043029785 l1.0641143471002579,1.7861244082450867 1.055680587887764,6.581746935844421 l0.07969674654304981,6.069452166557312 -0.8911938965320587,4.135242402553558 l-0.9521134942770004,1.5657314658164978 -2.4982479214668274,1.7561683058738708 l-4.390667676925659,1.4313068985939026 -17.15287446975708,0.9004305303096771 l-11.745847463607788,-0.8039206266403198 -7.525627613067627,-2.1079809963703156 l-2.4276548624038696,-2.0857979357242584 -1.2477340549230576,-2.060735523700714 l-1.5054932236671448,-5.92257559299469 -0.4997602477669716,-5.996786952018738 l0.3964680805802345,-4.721237123012543 0.7448949664831161,-3.0394113063812256 l0.9998869150876999,-1.7246538400650024 1.35812446475029,-1.1156616359949112 l2.5622370839118958,-0.8845315873622894 2.192484736442566,-0.17887145280838013 l3.041066825389862,0.6604602932929993 3.101520836353302,1.729036122560501 l2.77797669172287,2.493230104446411 1.93532794713974,2.7605628967285156 l1.2916910648345947,2.6583468914031982 m1.5605759620666504,8.087408542633057 l1.329810470342636,-0.279806200414896 7.0447856187820435,-2.7192312479019165 l6.920292377471924,-3.647960126399994 3.1483876705169678,-2.343773990869522 " fill="none" stroke="black" stroke-width="1" /></svg>