<?xml version="1.0" encoding="utf-8" ?>
<svg baseProfile="full" height="630.0" version="1.1" width="610.0" xmlns="http://www.w3.org/2000/svg" xmlns:ev="http://www.w3.org/2001/xml-events" xmlns:xlink="http://www.w3.org/1999/xlink"><defs /><rect fill="white" height="630.0" width="610.0" x="0" y="0" /><path d="M305.0,75.0 m-140.0,-5.0 l-30.0,30.0 -110.0,275.0 l0.0,105.0 25.0,35.0 l145.0,80.0 165.0,10.0 l120.0,-65.0 65.0,-95.0 l30.0,-155.0 -5.0,-145.0 l-25.0,-45.0 -60.0,-50.0 l-80.0,-25.0 -95.0,0.0 l-40.0,40.0 m15.0,5.0 l-10.0,55.0 15.0,160.0 m50.0,155.0 l-25.0,25.0 -35.0,105.0 m-220.0,-250.0 l25.0,15.0 60.0,-5.0 m340.0,-40.0 l100.0,-10.0 " fill="none" stroke="black" stroke-width="1" /></svg>