<?xml version="1.0" encoding="utf-8" ?>
<svg baseProfile="full" height="68.7237772392109" version="1.1" width="62.989995488896966" xmlns="http://www.w3.org/2000/svg" xmlns:ev="http://www.w3.org/2001/xml-events" xmlns:xlink="http://www.w3.org/1999/xlink"><defs /><rect fill="white" height="68.7237772392109" width="62.989995488896966" x="0" y="0" /><path d="M31.716570667922497,33.05670456495136 m-2.7883562445640564,-0.10798564180731773 l-2.071797400712967,0.8914108574390411 -1.534881740808487,2.1341529488563538 l-0.32153528183698654,2.7995693683624268 1.6953179240226746,3.405424654483795 l2.7570053935050964,1.4601634442806244 2.8968635201454163,0.08433704264461994 l1.4121177792549133,-0.8582844585180283 1.2404543161392212,-1.6863127052783966 l0.7509750872850418,-2.3587335646152496 0.08811624720692635,-2.657816708087921 l-0.5918937176465988,-1.934555470943451 -1.3278740644454956,-1.5697081387043 l-1.6972853243350983,-0.79903744161129 -1.8122205138206482,-0.07442617323249578 m-0.5732307583093643,0.5965511500835419 l0.017606792971491814,-0.09714842773973942 0.04127703607082367,-0.8444005995988846 l0.23513905704021454,-1.5143783390522003 0.5993970856070518,-1.3094596564769745 l1.3173805177211761,-1.5818186104297638 1.780843436717987,-1.2728913128376007 l1.5612486004829407,-0.5765864625573158 2.0631608366966248,-0.18477031961083412 l0.5355962365865707,0.8130117505788803 -0.10830984450876713,0.9391871094703674 l-1.3278882205486298,1.3823537528514862 -4.834674000740051,2.5292351841926575 " fill="none" stroke="black" stroke-width="1" /></svg>