<?xml version="1.0" encoding="utf-8" ?>
<svg baseProfile="full" height="87.6456925785169" version="1.1" width="154.70975673408248" xmlns="http://www.w3.org/2000/svg" xmlns:ev="http://www.w3.org/2001/xml-events" xmlns:xlink="http://www.w3.org/1999/xlink"><defs /><rect fill="white" height="87.6456925785169" width="154.70975673408248" x="0" y="0" /><path d="M32.25395219982602,27.865870278328657 m2.459268420934677,0.5520522966980934 l28.47573757171631,0.10703079402446747 18.394639492034912,-0.5015717819333076 l6.8944936990737915,-0.3679109737277031 4.897598922252655,-0.22652247920632362 l4.22697514295578,-0.3907608240842819 4.25745815038681,-0.2218935452401638 l4.584958255290985,-0.48943113535642624 4.365209639072418,-0.17968012019991875 l3.2787635922431946,-0.4502754658460617 4.183661639690399,-0.1116020604968071 l3.1649187207221985,-0.4740764945745468 3.8919585943222046,-0.11122848838567734 l1.3567422330379486,0.11265242472290993 1.3174208998680115,0.5838114023208618 l1.1390242725610733,1.5909220278263092 0.5669752880930901,2.4184876680374146 l-0.13961875811219215,2.568630576133728 -1.0664869099855423,2.446749210357666 l-2.6104453206062317,3.251867890357971 -2.6881036162376404,2.0343688130378723 l-3.1565505266189575,1.5159228444099426 -3.633580505847931,1.039312407374382 l-5.938010215759277,0.9571406245231628 -16.22730851173401,0.7514052093029022 l-18.120604753494263,-0.06864175666123629 -18.56078028678894,-0.7527518272399902 l-11.059889793395996,-0.1502867415547371 -8.332655429840088,-0.9504365921020508 l-7.370054125785828,-1.7897921800613403 -2.844054698944092,-1.1841920763254166 l-1.4545126259326935,-1.010679304599762 -0.9740247577428818,-1.279185563325882 l-0.5219590663909912,-1.689751297235489 -0.011116830864921212,-1.831354945898056 l0.6108929961919785,-1.5839740633964539 1.1748047918081284,-1.3983847200870514 l3.3358806371688843,-2.2972621023654938 2.994697093963623,-1.1819101870059967 l2.900303900241852,-0.567697286605835 m23.220465183258057,4.217115640640259 l0.12392668053507805,2.418537735939026 -0.8181234449148178,5.130210518836975 l-2.6997560262680054,10.70068359375 -2.9656946659088135,10.063583850860596 l-0.8780466765165329,3.580590784549713 4.080871641635895,-0.9524887055158615 l5.407534837722778,-0.5572840943932533 6.863688230514526,-0.13336452655494213 l5.771222710609436,-0.4456569254398346 5.02061128616333,-0.15553394332528114 l4.663717150688171,-0.40736153721809387 4.610980749130249,-0.18383536487817764 l1.0121797025203705,-1.036510020494461 0.5264202877879143,-1.4557109773159027 l0.34809455275535583,-4.2028215527534485 -0.8093762397766113,-11.138944625854492 l-0.7214836776256561,-7.03951358795166 -0.7380370050668716,-1.7512696981430054 l-2.164277881383896,-2.2306716442108154 -2.4188631772994995,-1.182512491941452 l-3.2196199893951416,-0.7023389637470245 -3.8979998230934143,-0.25120723992586136 l-8.364881873130798,0.42533837258815765 -6.376652717590332,0.7040261477231979 l-2.962309718132019,0.7397399842739105 -1.3806439936161041,0.6680005788803101 m0.5458638817071915,6.84162437915802 l-0.1630726270377636,1.8155819177627563 0.34545835107564926,1.6377530992031097 l1.1427800357341766,1.8705123662948608 1.699950248003006,1.185067594051361 l2.171178013086319,0.5058002471923828 2.4767471849918365,-0.10948393493890762 l2.2147835791110992,-0.9077931940555573 1.2314227223396301,-1.078791692852974 l0.8189097791910172,-1.8214824795722961 -0.0723680853843689,-2.126469761133194 l-1.0863298922777176,-1.4684666693210602 -1.9702108204364777,-1.0979728400707245 l-2.636972963809967,-0.4913331940770149 -2.897346615791321,0.09676753543317318 l-1.4202365279197693,0.4339183494448662 " fill="none" stroke="black" stroke-width="1" /></svg>