<?xml version="1.0" encoding="utf-8" ?>
<svg baseProfile="full" height="2045.0" version="1.1" width="4715.0" xmlns="http://www.w3.org/2000/svg" xmlns:ev="http://www.w3.org/2001/xml-events" xmlns:xlink="http://www.w3.org/1999/xlink"><defs /><rect fill="white" height="2045.0" width="4715.0" x="0" y="0" /><path d="M115.0,1935.0 m125.0,25.0 l1925.0,15.0 455.0,45.0 l325.0,0.0 125.0,-15.0 l315.0,15.0 410.0,-75.0 l375.0,-30.0 390.0,5.0 l25.0,-5.0 70.0,-280.0 l35.0,-370.0 -20.0,-75.0 l-140.0,-80.0 -95.0,-15.0 l-410.0,-10.0 -85.0,-15.0 l-55.0,-45.0 -60.0,-145.0 l-70.0,-360.0 -30.0,-310.0 l-15.0,-55.0 -25.0,-15.0 l-590.0,-35.0 -370.0,-70.0 l-500.0,-10.0 -325.0,10.0 l-350.0,40.0 -355.0,10.0 l-455.0,80.0 -655.0,50.0 l25.0,155.0 -15.0,335.0 l30.0,280.0 0.0,145.0 l-100.0,830.0 m325.0,-1430.0 l-80.0,280.0 -20.0,130.0 l225.0,-100.0 285.0,-70.0 l25.0,-25.0 45.0,-185.0 l0.0,-25.0 -25.0,-20.0 l-265.0,-15.0 -120.0,30.0 m680.0,-30.0 l-35.0,370.0 25.0,10.0 l310.0,-30.0 250.0,-65.0 l20.0,-35.0 5.0,-220.0 l-35.0,-45.0 -270.0,-35.0 l-255.0,-5.0 -95.0,25.0 m835.0,-30.0 l5.0,335.0 35.0,5.0 l690.0,-25.0 -10.0,-120.0 l-55.0,-165.0 -60.0,-30.0 l-305.0,-45.0 -315.0,35.0 m1130.0,20.0 l60.0,395.0 45.0,130.0 l25.0,10.0 35.0,0.0 l135.0,-85.0 290.0,-110.0 l15.0,-175.0 -30.0,-85.0 l-50.0,-85.0 -75.0,-50.0 l-75.0,-20.0 -420.0,-40.0 " fill="none" stroke="black" stroke-width="1" /></svg>