<?xml version="1.0" encoding="utf-8" ?>
<svg baseProfile="full" height="2015.0" version="1.1" width="2055.0" xmlns="http://www.w3.org/2000/svg" xmlns:ev="http://www.w3.org/2001/xml-events" xmlns:xlink="http://www.w3.org/1999/xlink"><defs /><rect fill="white" height="2015.0" width="2055.0" x="0" y="0" /><path d="M695.0,825.0 m10.0,90.0 l-5.0,195.0 -70.0,545.0 l60.0,25.0 400.0,35.0 l85.0,0.0 15.0,-25.0 l-65.0,-610.0 30.0,-265.0 l-50.0,-20.0 -300.0,5.0 l-105.0,-10.0 m215.0,5.0 l-55.0,-30.0 -120.0,-105.0 l-40.0,-105.0 10.0,-105.0 l25.0,-70.0 55.0,-65.0 l55.0,-30.0 105.0,-15.0 l60.0,25.0 35.0,25.0 l70.0,115.0 15.0,130.0 l-25.0,120.0 -70.0,95.0 l-20.0,10.0 -30.0,-10.0 m130.0,-65.0 l220.0,-20.0 15.0,-25.0 l-20.0,-220.0 -70.0,-130.0 l-175.0,-205.0 -105.0,-65.0 l-90.0,-25.0 -115.0,5.0 l-110.0,50.0 -60.0,90.0 l-30.0,95.0 -30.0,240.0 l5.0,120.0 80.0,30.0 l120.0,0.0 m160.0,-315.0 l-90.0,150.0 -100.0,110.0 l-50.0,20.0 0.0,-25.0 l20.0,-30.0 m250.0,-270.0 l0.0,90.0 65.0,110.0 l155.0,75.0 m-295.0,-45.0 l-20.0,0.0 0.0,25.0 l25.0,-35.0 m120.0,40.0 l10.0,-20.0 -10.0,50.0 l20.0,-40.0 m-135.0,75.0 l0.0,45.0 15.0,20.0 l55.0,10.0 40.0,-35.0 l0.0,-20.0 -20.0,-20.0 l-75.0,0.0 m-525.0,-300.0 l585.0,55.0 480.0,-15.0 l170.0,-40.0 25.0,-15.0 l5.0,-30.0 -25.0,-35.0 l-135.0,-100.0 -155.0,-55.0 l-175.0,-35.0 -280.0,-10.0 l-360.0,25.0 -190.0,45.0 l-45.0,30.0 0.0,50.0 l85.0,70.0 100.0,45.0 l130.0,10.0 m165.0,1470.0 l-15.0,155.0 -45.0,40.0 m390.0,-210.0 l0.0,145.0 25.0,50.0 l40.0,25.0 m25.0,-1025.0 l85.0,25.0 70.0,-40.0 l35.0,-65.0 m-680.0,195.0 l-50.0,5.0 -25.0,-15.0 l-30.0,-55.0 -5.0,-90.0 m600.0,300.0 l175.0,-80.0 115.0,-80.0 l90.0,-100.0 25.0,-5.0 l100.0,25.0 80.0,0.0 l140.0,-55.0 135.0,-80.0 l5.0,30.0 -90.0,170.0 l-45.0,125.0 -50.0,90.0 l-60.0,70.0 -65.0,40.0 l-185.0,50.0 -165.0,85.0 l-140.0,-5.0 m-555.0,-295.0 l-205.0,-25.0 -145.0,-70.0 l-125.0,-125.0 -120.0,-205.0 l-50.0,130.0 -5.0,45.0 l15.0,75.0 50.0,50.0 l145.0,70.0 30.0,50.0 l20.0,105.0 40.0,45.0 l300.0,75.0 90.0,0.0 l85.0,-20.0 " fill="none" stroke="black" stroke-width="1" /></svg>