<?xml version="1.0" encoding="utf-8" ?>
<svg baseProfile="full" height="86.78225229436066" version="1.1" width="101.2908474355936" xmlns="http://www.w3.org/2000/svg" xmlns:ev="http://www.w3.org/2001/xml-events" xmlns:xlink="http://www.w3.org/1999/xlink"><defs /><rect fill="white" height="86.78225229436066" width="101.2908474355936" x="0" y="0" /><path d="M48.177480217837,39.751289365813136 m0.2604939043521881,1.695500910282135 l-0.03142590168863535,3.8066312670707703 -1.0136280953884125,11.329801082611084 l1.4899887144565582,0.29445504769682884 8.578693866729736,-0.1401679404079914 l3.81819486618042,-0.196637324988842 0.3078484535217285,-0.35651493817567825 l-2.812759280204773,-11.867595911026001 -1.1307918280363083,-2.9501423239707947 l-1.9703757762908936,-3.3674925565719604 -4.931609928607941,-0.2872823737561703 l-3.2368719577789307,1.3251422345638275 -0.9416630864143372,0.9781084954738617 m5.747890472412109,-2.3516537249088287 l-0.7820079475641251,-0.5631523579359055 -1.152670755982399,-1.211254596710205 l-1.3040344417095184,-2.0635557174682617 -0.5157284811139107,-1.6892558336257935 l0.06801470648497343,-1.4885742962360382 0.7375913858413696,-1.3688141107559204 l1.3860626518726349,-1.127130463719368 1.835528016090393,-0.7410036772489548 l1.9578871130943298,-0.2077462337911129 1.7268143594264984,0.3622588887810707 l2.127162516117096,1.3585427403450012 1.1422568559646606,1.3713127374649048 l0.8687367290258408,2.3493339121341705 0.011411260347813368,2.7559855580329895 l-1.193726658821106,2.3194120824337006 -1.1912047117948532,1.0487112402915955 l-2.0465880632400513,0.7671599835157394 -2.7571991086006165,0.11568070389330387 l-0.9475725889205933,-0.4272562637925148 -0.9160082042217255,-1.3891083002090454 m1.2790407240390778,-6.53936505317688 l-0.3395143151283264,-0.6099908426403999 -0.7663902640342712,-0.9598926454782486 l-0.8876653015613556,-0.7668755948543549 -1.0783038288354874,-0.7738915085792542 l-1.2827537953853607,-0.839100107550621 -1.557999849319458,-0.8914461731910706 l-1.7730152606964111,-0.8377900719642639 -2.0148691534996033,-0.6166353076696396 l-0.4955616965889931,0.4426456242799759 -0.20664110779762268,1.4738187193870544 l0.5384288728237152,2.6903772354125977 1.1569873988628387,1.7852063477039337 l1.4164897799491882,1.077810749411583 m8.318485617637634,1.7379558086395264 l3.389972746372223,-2.849445641040802 2.164771854877472,-1.2153065204620361 l2.053159475326538,-0.5457482859492302 1.1311746388673782,0.2160765416920185 l1.0200441628694534,1.153292953968048 0.6433863192796707,2.268003523349762 l-0.3109305910766125,2.493269294500351 -0.780060812830925,1.2406376749277115 l-1.7049315571784973,1.1770427227020264 -2.8008058667182922,0.7271039485931396 m-7.0643675327301025,-1.6349603235721588 l-0.0018858008843380958,-0.0005229034650255926 m3.887222409248352,-0.7122459262609482 l-0.0012333091581240296,0.00019733090084628202 m-3.3101099729537964,3.3356550335884094 l-0.0008969147893367335,0.00019585228073992766 m0.06035067606717348,1.9230785965919495 l-0.0005354618770070374,0.001016765963868238 m0.1331998873502016,1.8457309901714325 l0.00024255694370367564,0.0014601221482735127 0.6217844039201736,-0.00032060117518994957 l0.5522159859538078,-0.4483940452337265 0.2141783945262432,-0.48573989421129227 l-0.09937439113855362,-0.34106913954019547 m-1.5394626557826996,1.7447884380817413 l-0.17429735511541367,-0.029569952748715878 0.0006847137410659343,-0.04074208904057741 l0.48798132687807083,-0.3191469609737396 0.29070591554045677,-0.5804695934057236 l0.3018328547477722,-0.8703684061765671 0.36950185894966125,-0.49136433750391006 l0.6657574325799942,-0.09781182743608952 0.0427198875695467,0.5235445871949196 l-0.9497755020856857,0.29923170804977417 -0.06189668085426092,-0.1778506487607956 l0.34081753343343735,-0.2860289067029953 0.28707263991236687,0.4029139503836632 l-0.5995222181081772,0.3866492584347725 0.17640618607401848,-0.10932435281574726 m-0.3869883716106415,5.5686986446380615 l3.3048102259635925,-2.1523070335388184 3.1388631463050842,-2.8039902448654175 l3.2811617851257324,-3.276064097881317 3.1720533967018127,-3.3625683188438416 l2.0579376816749573,-1.7830666899681091 2.395634949207306,-1.5918006002902985 l1.7731133103370667,-0.7109849900007248 1.3211210072040558,-0.08573796600103378 l1.038120836019516,0.557015910744667 1.23153954744339,1.9653414189815521 l0.855475589632988,3.6917102336883545 -0.39169855415821075,4.739280045032501 l-2.084355652332306,4.750002920627594 -3.155827224254608,4.2158761620521545 l-4.271407127380371,3.6051619052886963 -5.057414770126343,2.8101396560668945 l-5.306706428527832,1.9227059185504913 -4.73797082901001,1.0115659981966019 m-2.235052138566971,-13.135007619857788 l-6.664370894432068,-3.917638659477234 -4.010858237743378,-1.8641281127929688 l-3.918035328388214,-1.2637153267860413 -3.1330078840255737,-0.5744808167219162 l-2.70934522151947,0.12878977693617344 -1.5241904556751251,0.7376401126384735 l-1.5037047863006592,1.9320304691791534 -0.5869019031524658,2.0301851630210876 l0.17010390758514404,1.961085945367813 1.0369233787059784,1.8964236974716187 l2.946896553039551,2.873000204563141 4.804224669933319,2.937525510787964 l5.597255229949951,2.1743617951869965 5.942872166633606,1.3098394870758057 l5.229506492614746,0.2892358601093292 m1.2449146062135696,-13.58119010925293 l-0.9572726488113403,-0.35238608717918396 -1.4555898308753967,-0.4132026806473732 l-2.20121830701828,-0.6037219986319542 -2.6430442929267883,-0.502086766064167 l-2.7027660608291626,-0.20037947222590446 -2.69001305103302,0.2688338980078697 l-2.533259391784668,0.9389441460371017 -1.2982212007045746,1.2130877375602722 l-0.9531137347221375,2.2769981622695923 -0.03398599103093147,1.9669783115386963 l0.6962946057319641,1.6611243784427643 1.2066523730754852,1.2902769446372986 l1.7199485003948212,0.9647408872842789 3.484528958797455,0.8231370896100998 l4.766378104686737,0.03200031816959381 2.8690528869628906,-0.6531190872192383 " fill="none" stroke="black" stroke-width="1" /></svg>