<?xml version="1.0" encoding="utf-8" ?>
<svg baseProfile="full" height="1395.0" version="1.1" width="830.0" xmlns="http://www.w3.org/2000/svg" xmlns:ev="http://www.w3.org/2001/xml-events" xmlns:xlink="http://www.w3.org/1999/xlink"><defs /><rect fill="white" height="1395.0" width="830.0" x="0" y="0" /><path d="M335.0,305.0 m-125.0,15.0 l-80.0,50.0 -105.0,195.0 l0.0,85.0 30.0,75.0 l150.0,125.0 -95.0,85.0 l-65.0,145.0 -5.0,130.0 l55.0,85.0 55.0,35.0 l140.0,35.0 110.0,5.0 l10.0,-30.0 -65.0,-220.0 l-30.0,-245.0 0.0,-430.0 l-15.0,-125.0 10.0,-35.0 m25.0,40.0 l210.0,10.0 75.0,20.0 l75.0,70.0 110.0,180.0 l0.0,80.0 -85.0,135.0 l-85.0,80.0 -110.0,30.0 l65.0,10.0 75.0,60.0 l35.0,90.0 -10.0,165.0 l-70.0,80.0 -110.0,30.0 l-55.0,-5.0 m-145.0,-1020.0 l-35.0,-5.0 -40.0,-45.0 l-95.0,-265.0 " fill="none" stroke="black" stroke-width="1" /></svg>