<?xml version="1.0" encoding="utf-8" ?>
<svg baseProfile="full" height="76.4301477698973" version="1.1" width="67.83498116754345" xmlns="http://www.w3.org/2000/svg" xmlns:ev="http://www.w3.org/2001/xml-events" xmlns:xlink="http://www.w3.org/1999/xlink"><defs /><rect fill="white" height="76.4301477698973" width="67.83498116754345" x="0" y="0" /><path d="M33.191429898142815,28.53917787321734 m-2.4419009685516357,0.38867559283971786 l-1.427120715379715,1.1771056801080704 -1.0331988334655762,1.9436675310134888 l0.49700260162353516,5.102971196174622 0.489158034324646,1.2404341995716095 l1.5152257680892944,1.7444205284118652 -1.2662191689014435,0.5183370411396027 l-3.3042263984680176,2.636893093585968 -0.8611857146024704,1.653754860162735 l-0.3589645028114319,2.424818277359009 0.43752655386924744,1.5956972539424896 l1.0948116332292557,1.1087484657764435 3.748587667942047,1.3553108274936676 l2.5902968645095825,0.00013534910067392047 1.148708164691925,-0.9384436905384064 l1.3380955159664154,-4.061886370182037 -0.00037777252146042883,-5.90867280960083 l-1.0156408697366714,-6.409138441085815 -0.7717227190732956,-3.018404543399811 l-0.6392750889062881,-0.8398637920618057 m2.556125521659851,2.7022287249565125 l1.9275245070457458,-1.0016563534736633 1.8761299550533295,-0.1701931655406952 l2.1255847811698914,0.7433125376701355 0.9171206504106522,0.960923507809639 l0.5014858022332191,1.8495763838291168 -0.4745209962129593,2.236486077308655 l-0.960148498415947,1.08902707695961 -2.9783672094345093,1.515219509601593 l3.0645108222961426,1.453062891960144 1.0084212571382523,2.2087857127189636 l-0.11530332267284393,2.4498818814754486 -1.3304349780082703,2.128884494304657 l-2.1313051879405975,1.348356455564499 -2.4073638021945953,0.0004054279634146951 m-2.9027554392814636,-18.621796369552612 l-0.8775685727596283,-1.1062511801719666 -1.5084002912044525,-2.1688689291477203 l-1.3058464229106903,-1.6232195496559143 -1.5287254750728607,-1.2479032576084137 " fill="none" stroke="black" stroke-width="1" /></svg>