<?xml version="1.0" encoding="utf-8" ?>
<svg baseProfile="full" height="79.91891881683841" version="1.1" width="65.84584329277277" xmlns="http://www.w3.org/2000/svg" xmlns:ev="http://www.w3.org/2001/xml-events" xmlns:xlink="http://www.w3.org/1999/xlink"><defs /><rect fill="white" height="79.91891881683841" width="65.84584329277277" x="0" y="0" /><path d="M28.574719727039337,54.91891881683841 m-1.4045718312263489,-13.916902542114258 l-2.1701478958129883,-5.708975195884705 1.3188987970352173,-0.823737233877182 l3.5414493083953857,-0.3457004576921463 5.0279927253723145,-0.26034289970993996 l3.9333006739616394,-0.3626753017306328 1.0079383850097656,0.5303558334708214 l0.5678197741508484,1.1264969408512115 0.44844362884759903,3.644089698791504 l-0.0020382413640618324,12.376347780227661 -0.7231651991605759,1.0817456990480423 l-1.2401921302080154,0.5133064091205597 -6.054041385650635,0.6548695266246796 l-4.355160295963287,0.03538935212418437 -0.36652039736509323,-0.41327234357595444 m2.2798463702201843,-17.607699632644653 l0.09003769606351852,-3.102365732192993 0.45649103820323944,-1.6613993048667908 l0.6041284650564194,-1.2411130219697952 0.8842535316944122,-0.7927961647510529 l1.7736977338790894,-0.49714893102645874 1.9827793538570404,0.12483547441661358 l1.3197948038578033,0.8768204599618912 0.8392973244190216,1.5843461453914642 l0.43635815382003784,3.1865140795707703 m-6.355338096618652,-0.7897182554006577 l0.015555750578641891,-3.295869529247284 0.36064881831407547,-1.6258436441421509 l0.8173450082540512,-1.206337809562683 0.9760561585426331,-0.4247703403234482 l1.6547860205173492,0.11531071737408638 0.7578743249177933,0.6221598759293556 l0.33395949751138687,1.1865061521530151 -0.08062086999416351,4.723471701145172 m-4.778970181941986,-1.843799650669098 l-0.050631724298000336,-2.974800169467926 0.3133348748087883,-1.6696517169475555 l0.6462628394365311,-1.1100618541240692 1.2489283829927444,-0.6265029311180115 l1.5265640616416931,0.09541756473481655 0.6554882973432541,0.6989645212888718 l0.5412643030285835,2.64652818441391 0.08184097707271576,3.4363695979118347 l-0.6366752833127975,1.1156409233808517 " fill="none" stroke="black" stroke-width="1" /></svg>