<?xml version="1.0" encoding="utf-8" ?>
<svg baseProfile="full" height="1590.0" version="1.1" width="1785.0" xmlns="http://www.w3.org/2000/svg" xmlns:ev="http://www.w3.org/2001/xml-events" xmlns:xlink="http://www.w3.org/1999/xlink"><defs /><rect fill="white" height="1590.0" width="1785.0" x="0" y="0" /><path d="M885.0,1565.0 m-80.0,-705.0 l10.0,-110.0 m40.0,85.0 l450.0,-435.0 65.0,-10.0 l55.0,50.0 0.0,70.0 l-50.0,90.0 -155.0,200.0 l175.0,-20.0 215.0,10.0 l110.0,55.0 35.0,70.0 l5.0,85.0 -25.0,125.0 l-65.0,125.0 -100.0,125.0 l-130.0,110.0 -95.0,50.0 l-90.0,15.0 -295.0,-10.0 m-210.0,-705.0 l-255.0,-160.0 -250.0,-100.0 l-170.0,-5.0 -35.0,25.0 l-15.0,75.0 25.0,40.0 l80.0,45.0 480.0,95.0 l-140.0,35.0 -75.0,80.0 l-35.0,65.0 -25.0,195.0 l15.0,65.0 55.0,65.0 l120.0,65.0 230.0,15.0 l120.0,-35.0 65.0,-55.0 m-110.0,-640.0 l415.0,-680.0 m-390.0,695.0 l-365.0,-630.0 " fill="none" stroke="black" stroke-width="1" /></svg>