<?xml version="1.0" encoding="utf-8" ?>
<svg baseProfile="full" height="1675.0" version="1.1" width="2520.0" xmlns="http://www.w3.org/2000/svg" xmlns:ev="http://www.w3.org/2001/xml-events" xmlns:xlink="http://www.w3.org/1999/xlink"><defs /><rect fill="white" height="1675.0" width="2520.0" x="0" y="0" /><path d="M110.0,195.0 m250.0,155.0 l270.0,80.0 320.0,50.0 l535.0,10.0 350.0,-60.0 l185.0,-60.0 235.0,-165.0 l160.0,-180.0 m-2325.0,165.0 l-25.0,15.0 -40.0,375.0 l260.0,80.0 315.0,55.0 l485.0,50.0 285.0,5.0 l230.0,-35.0 280.0,-80.0 l330.0,-160.0 165.0,-130.0 l60.0,-95.0 50.0,-140.0 l10.0,-75.0 m-1425.0,465.0 l-45.0,335.0 360.0,5.0 l210.0,-35.0 30.0,-15.0 l10.0,-45.0 0.0,-220.0 l25.0,-210.0 -30.0,-10.0 l-625.0,70.0 45.0,220.0 m195.0,-130.0 l-35.0,275.0 50.0,20.0 l110.0,-20.0 125.0,0.0 l25.0,-20.0 0.0,-320.0 l-165.0,60.0 -150.0,30.0 m-1125.0,40.0 l35.0,60.0 0.0,805.0 l25.0,185.0 25.0,50.0 m2215.0,-1350.0 l45.0,135.0 55.0,700.0 l0.0,350.0 -20.0,165.0 l-15.0,0.0 m-1165.0,-540.0 l-80.0,280.0 -25.0,260.0 m115.0,-510.0 l160.0,325.0 65.0,185.0 " fill="none" stroke="black" stroke-width="1" /></svg>