<?xml version="1.0" encoding="utf-8" ?>
<svg baseProfile="full" height="88.93288671970367" version="1.1" width="97.86060235928744" xmlns="http://www.w3.org/2000/svg" xmlns:ev="http://www.w3.org/2001/xml-events" xmlns:xlink="http://www.w3.org/1999/xlink"><defs /><rect fill="white" height="88.93288671970367" width="97.86060235928744" x="0" y="0" /><path d="M26.233877474442124,35.799739824724384 m4.865923821926117,3.212343454360962 l5.592721700668335,1.7692987620830536 7.8679656982421875,1.4144696295261383 l6.033447980880737,0.2931995876133442 8.317365050315857,-0.9865602850914001 l5.439307689666748,-1.8470558524131775 2.4415940046310425,-1.414572298526764 m-41.68814182281494,-1.702062338590622 l-0.10406159795820713,2.9475703835487366 0.5048905685544014,4.8721760511398315 l1.0698064416646957,2.4226319789886475 1.6296705603599548,1.7479370534420013 l2.345986068248749,1.3299484550952911 3.3234190940856934,0.9742775559425354 l6.13954484462738,0.6130888685584068 9.834227561950684,0.00038873415178386495 l7.045968770980835,-1.0791879147291183 5.427417159080505,-1.8822099268436432 l2.5179442763328552,-1.5906651318073273 2.369796186685562,-2.8373542428016663 l1.378072202205658,-3.4028539061546326 0.3606724739074707,-3.13025563955307 m-29.999914169311523,3.36392343044281 l0.12570795603096485,4.102657735347748 0.06818115245550871,3.9582541584968567 l0.3371385857462883,2.108779549598694 0.5859678983688354,0.9844408929347992 l0.9543183445930481,0.5486650764942169 3.674810528755188,0.0005488230453920551 l5.032216906547546,-0.6915561109781265 0.5362134054303169,-4.90574449300766 l-0.16521960496902466,-6.6530585289001465 -0.9608126431703568,-2.105623781681061 l-7.678433060646057,0.5988501384854317 -2.2703655064105988,0.6441935151815414 m5.714285969734192,2.1650615334510803 l0.12383888475596905,3.1524819135665894 0.23581193760037422,4.084832668304443 l0.44460877776145935,1.6023264825344086 0.7849936187267303,-0.02363884123042226 l2.426484376192093,-2.18206062912941 0.323215089738369,-5.218231678009033 l-3.019236922264099,-1.337263584136963 m-6.333475708961487,1.2770543992519379 l0.22869564592838287,4.546113014221191 m1.4208005368709564,-4.973450303077698 l0.2538692206144333,2.9617249965667725 0.188161488622427,3.9163264632225037 m1.2892229855060577,-6.65838360786438 l1.0829536616802216,3.258848190307617 0.9969561547040939,3.9688315987586975 l0.7459140568971634,3.2001230120658875 0.6541182845830917,2.353753000497818 l2.053295075893402,-1.6752402484416962 m-5.929023623466492,-14.050328731536865 l1.7137476801872253,2.439056485891342 11.407047510147095,11.72463059425354 l16.8670916557312,9.921696782112122 m-28.235414028167725,-24.976816177368164 l-0.9759364277124405,-3.402445912361145 -3.547818660736084,-10.553624629974365 " fill="none" stroke="black" stroke-width="1" /></svg>