<?xml version="1.0" encoding="utf-8" ?>
<svg baseProfile="full" height="1890.0" version="1.1" width="2405.0" xmlns="http://www.w3.org/2000/svg" xmlns:ev="http://www.w3.org/2001/xml-events" xmlns:xlink="http://www.w3.org/1999/xlink"><defs /><rect fill="white" height="1890.0" width="2405.0" x="0" y="0" /><path d="M65.0,430.0 m10.0,220.0 l-50.0,630.0 10.0,70.0 l45.0,15.0 355.0,15.0 l555.0,95.0 530.0,20.0 l120.0,-15.0 125.0,-55.0 l15.0,-30.0 5.0,-85.0 l-25.0,-485.0 -30.0,-220.0 l-100.0,-450.0 -60.0,-105.0 l-25.0,-25.0 -50.0,0.0 l-320.0,90.0 -560.0,195.0 l-345.0,55.0 -75.0,30.0 l-10.0,635.0 m140.0,305.0 l-60.0,10.0 -50.0,50.0 l-35.0,75.0 -5.0,80.0 l45.0,70.0 50.0,30.0 l120.0,10.0 55.0,-10.0 l55.0,-40.0 10.0,-55.0 l-75.0,-135.0 -90.0,-65.0 l-60.0,-20.0 -80.0,0.0 l-35.0,15.0 -75.0,95.0 m645.0,40.0 l-50.0,20.0 -15.0,55.0 l15.0,70.0 45.0,65.0 l140.0,75.0 90.0,10.0 l80.0,-15.0 50.0,-60.0 l15.0,-85.0 -20.0,-110.0 l-60.0,-55.0 -65.0,-15.0 l-155.0,15.0 -190.0,110.0 m895.0,-80.0 l-210.0,65.0 -85.0,40.0 l-50.0,50.0 0.0,50.0 l115.0,115.0 165.0,60.0 l75.0,-5.0 150.0,-70.0 l75.0,-115.0 -10.0,-50.0 l-60.0,-40.0 -95.0,-10.0 l-125.0,15.0 -90.0,35.0 l-40.0,35.0 m530.0,-235.0 l-85.0,45.0 -55.0,85.0 l-15.0,75.0 15.0,110.0 l85.0,95.0 50.0,25.0 l80.0,-5.0 75.0,-40.0 l45.0,-50.0 30.0,-85.0 l-15.0,-110.0 -110.0,-90.0 l-60.0,-25.0 -70.0,0.0 m-25.0,-840.0 l435.0,-40.0 120.0,5.0 l0.0,255.0 20.0,225.0 l-10.0,110.0 -85.0,65.0 l-460.0,20.0 -295.0,-20.0 l-10.0,15.0 m-1130.0,-410.0 l-20.0,25.0 -15.0,70.0 l5.0,80.0 5.0,20.0 l25.0,5.0 205.0,5.0 l80.0,-10.0 50.0,-40.0 l35.0,-65.0 15.0,-120.0 l-20.0,-40.0 -25.0,-10.0 l-60.0,5.0 -205.0,90.0 m460.0,-250.0 l25.0,285.0 35.0,45.0 l65.0,0.0 140.0,-30.0 l30.0,-15.0 15.0,-40.0 l-90.0,-120.0 -70.0,-50.0 l-60.0,-5.0 -55.0,30.0 m400.0,185.0 l155.0,-30.0 45.0,-25.0 l25.0,-50.0 15.0,-145.0 l-5.0,-70.0 -20.0,-5.0 l-190.0,20.0 -65.0,35.0 l-40.0,70.0 -5.0,85.0 l45.0,115.0 40.0,50.0 " fill="none" stroke="black" stroke-width="1" /></svg>