<?xml version="1.0" encoding="utf-8" ?>
<svg baseProfile="full" height="85.06587616167963" version="1.1" width="86.5804746872891" xmlns="http://www.w3.org/2000/svg" xmlns:ev="http://www.w3.org/2001/xml-events" xmlns:xlink="http://www.w3.org/1999/xlink"><defs /><rect fill="white" height="85.06587616167963" width="86.5804746872891" x="0" y="0" /><path d="M26.133011570200324,29.083112683147192 m0.08595363236963749,4.304768145084381 l-1.2189652025699615,12.949998378753662 0.25302356109023094,0.9562189877033234 l1.5205343067646027,1.5527117252349854 7.52699077129364,1.1462590843439102 l9.306766390800476,0.7274211198091507 7.793412208557129,0.1572767272591591 l4.712702631950378,-0.49680665135383606 1.6480149328708649,-0.6465247273445129 l0.9770724922418594,-1.1094873398542404 1.9970642030239105,-10.341795682907104 l0.5526600033044815,-8.006965517997742 -0.3333071246743202,-3.8464337587356567 l-0.4861350357532501,-0.6871242821216583 -1.8306228518486023,-0.5580570176243782 l-3.986462950706482,-0.18457187339663506 -13.391413688659668,0.6609837710857391 l-10.726324319839478,0.7306933403015137 -2.8847160935401917,0.5090843886137009 m2.9203495383262634,22.556209564208984 l-1.8560434877872467,-0.24650158360600471 -1.491018682718277,1.0671865940093994 l-0.9367835521697998,1.5019279718399048 -0.4960877075791359,1.7367379367351532 l-0.02249788260087371,1.7474588751792908 0.5240587890148163,1.4568740129470825 l0.9632565081119537,1.2001985311508179 1.311018168926239,0.8190208673477173 l1.5768709778785706,0.3804788738489151 1.5264259278774261,-0.11558772996068001 l1.3802039623260498,-0.6421557068824768 1.1150708049535751,-1.0701022297143936 l0.7741974294185638,-1.427740603685379 0.3721003234386444,-2.4014581739902496 l-0.2402731217443943,-1.8560633063316345 -0.7255879044532776,-1.3404376804828644 l-1.0373932123184204,-0.9082657843828201 -1.2823224067687988,-0.4715028777718544 l-1.8969257175922394,0.06926133297383785 m16.253159046173096,1.4220428466796875 l-0.7602178305387497,-0.3069045767188072 -1.691087782382965,0.4565885290503502 l-1.4103499054908752,1.0875412821769714 -1.472054272890091,2.3206934332847595 l-0.4796646535396576,1.9187666475772858 0.10849633254110813,1.5466782450675964 l0.7040838897228241,1.2766124308109283 1.1841461062431335,0.9112459421157837 l1.5516382455825806,0.47631099820137024 2.5031447410583496,-0.1878523826599121 l1.7245621979236603,-0.9841711074113846 1.1475114524364471,-1.3151118159294128 l0.6007847562432289,-1.5500220656394958 0.07389208767563105,-2.497510462999344 l-0.6203154474496841,-1.6882975399494171 -1.0235902667045593,-1.1663146317005157 l-1.293686032295227,-0.6475351750850677 -1.5546239912509918,0.0005289221735438332 m9.075297713279724,1.0349100828170776 l-2.0358820259571075,0.61485156416893 -1.3486208021640778,1.3452602922916412 l-0.739973783493042,1.593693196773529 -0.2013191394507885,2.27090984582901 l0.5905819311738014,1.4529110491275787 1.0870520770549774,0.8805222809314728 l1.4386004209518433,0.42502906173467636 2.2730502486228943,-0.2696172893047333 l1.4863166213035583,-1.0698745399713516 0.8736187964677811,-1.3720107078552246 l0.32110895961523056,-2.3818621039390564 -0.7060409337282181,-2.3680657148361206 l-1.147010698914528,-1.3810455799102783 -1.338886171579361,-0.7662922143936157 m-23.228838443756104,-16.431057453155518 l-0.2795141376554966,3.286620080471039 -0.15181131660938263,3.3489450812339783 l0.9376519918441772,0.6690101325511932 5.324214696884155,0.015267723938450217 l5.025089383125305,-0.13329780660569668 0.27142850682139397,-3.277016282081604 l-0.34861594438552856,-3.9690884947776794 -0.5397244915366173,-0.4864204674959183 l-8.368753790855408,0.5747551843523979 -2.5333914160728455,0.4580239951610565 m14.981863498687744,-1.1455627530813217 l-0.07632562890648842,4.366698265075684 0.352364219725132,2.6284974813461304 l0.48525135964155197,0.46365197747945786 4.895787835121155,-0.1761942356824875 l2.9354706406593323,-0.5289120972156525 0.48129796981811523,-0.4137161374092102 l0.18598003312945366,-1.3065873086452484 -0.37811074405908585,-2.0906859636306763 l-0.7056290656328201,-1.251755803823471 -1.6605718433856964,-1.2169373780488968 l-1.8487104773521423,-0.5514733120799065 -3.2434728741645813,0.000426415863330476 l-1.853880137205124,0.5750377476215363 m9.86087441444397,-0.19105041399598122 l-0.27533479034900665,4.287894368171692 0.3330851346254349,0.7943767309188843 l0.7437869906425476,0.46423178166151047 3.8314375281333923,-0.20399164408445358 l0.6515513360500336,-0.43136216700077057 0.4737922176718712,-1.27436101436615 l0.0006319545354926959,-2.0071497559547424 -0.5639806389808655,-1.2160025537014008 l-1.0025280714035034,-0.7678554952144623 -2.2864487767219543,-0.5669619515538216 l-2.8168508410453796,0.0004901253851130605 m-18.345015048980713,8.27938437461853 l-0.48141486942768097,2.776823937892914 0.30630094930529594,1.5627574920654297 l0.8129268884658813,0.905635803937912 1.2509572505950928,0.45557208359241486 l2.002679705619812,-0.1477991510182619 1.3225553929805756,-0.7650177925825119 l0.7203976064920425,-1.0956685990095139 0.2475694753229618,-1.8754036724567413 l-0.4304848611354828,-1.2971094250679016 -0.9726542979478836,-0.8703244477510452 l-2.2505488991737366,-0.6989395618438721 -1.7374348640441895,0.0006318238592939451 m-4.485450088977814,2.26315900683403 l-0.6960170716047287,1.2064440548419952 -0.14612434431910515,1.348581463098526 l0.4805368185043335,1.0067757219076157 1.0963831096887589,0.6314493715763092 l2.094384580850601,0.12666583061218262 1.2625440955162048,-0.6697815656661987 l0.6710692495107651,-1.1220751702785492 0.029971268959343433,-1.8477046489715576 l-0.6793399155139923,-1.2316668778657913 -1.165037676692009,-0.8053229749202728 " fill="none" stroke="black" stroke-width="1" /></svg>