<?xml version="1.0" encoding="utf-8" ?>
<svg baseProfile="full" height="84.26225053612143" version="1.1" width="79.11602664738894" xmlns="http://www.w3.org/2000/svg" xmlns:ev="http://www.w3.org/2001/xml-events" xmlns:xlink="http://www.w3.org/1999/xlink"><defs /><rect fill="white" height="84.26225053612143" width="79.11602664738894" x="0" y="0" /><path d="M25.758976582437754,45.18434273544699 m-0.35866256803274155,14.077907800674438 l4.043762981891632,-0.5185699835419655 6.482514142990112,-0.043409643694758415 l6.454060673713684,-0.36684945225715637 10.589745044708252,0.17218507826328278 l0.8785815536975861,-0.8146937936544418 0.2670482359826565,-2.74692565202713 l-0.6239743158221245,-6.6064780950546265 -0.81976518034935,-3.896822929382324 l-0.5057747662067413,-0.37377800792455673 -1.3356909155845642,-0.12541388161480427 l-7.998567223548889,0.5583538860082626 -7.630780935287476,0.28887761756777763 l-6.22483491897583,0.13068421743810177 -3.3641308546066284,0.02130856504663825 l-0.6125075370073318,0.09391685016453266 m3.1092989444732666,0.37501152604818344 l0.023206768091768026,-2.20799058675766 -0.179271399974823,-3.366895020008087 l2.1387477219104767,-0.3790256008505821 3.8467729091644287,0.11595306918025017 l8.697483539581299,-0.02831519115716219 2.8490394353866577,-0.4665202274918556 l0.3642018511891365,0.5867858976125717 -0.004826006479561329,5.895238518714905 l0.10762210004031658,2.2835546731948853 m-13.17171335220337,-8.84667694568634 l0.0008287830860354006,-1.6726890206336975 -0.2593720145523548,-3.6577588319778442 l3.8536152243614197,0.027326864656060934 3.241013288497925,-0.2821807190775871 l2.929306924343109,-0.03335779067128897 0.3396392986178398,0.6126179918646812 l-0.0403790595009923,6.20120644569397 0.23353459313511848,2.165873497724533 m-7.46305525302887,-8.497875928878784 l0.01162286032922566,-1.5122397243976593 -0.036128247156739235,-3.774210512638092 l2.959054112434387,0.05883239209651947 2.443632632493973,-0.28162090107798576 l0.03905443241819739,4.910000562667847 -0.02656496362760663,1.7619512975215912 m-4.174377918243408,-3.944704830646515 l-0.04093454219400883,-2.6182934641838074 -0.3319203853607178,-3.136787712574005 l2.1272101998329163,-0.15617752447724342 2.1695414185523987,-0.16566751524806023 l0.07908373139798641,5.025213360786438 -0.10482448153197765,1.4324943721294403 m-4.969453513622284,0.3493361547589302 l-0.4127214476466179,-0.5071048438549042 -0.2251807041466236,-1.5903674066066742 l0.13090678490698338,-1.4192967116832733 0.8422072231769562,-1.0641293227672577 l1.626879870891571,-0.48958759754896164 0.4768453538417816,0.4653075337409973 l0.25441158562898636,1.3321112096309662 -0.2803393080830574,2.695050537586212 l-0.5027405172586441,1.0282740741968155 -0.5250797420740128,0.4660322517156601 l-0.9555181115865707,0.08687327615916729 -0.738098993897438,-0.5760961025953293 l-0.36255985498428345,-1.0891498625278473 0.033125432673841715,-1.3231335580348969 l0.47789085656404495,-1.0004942864179611 1.216827780008316,-0.9413539618253708 l1.5587122738361359,-0.22647537291049957 1.06586255133152,0.5536536127328873 l0.6142818555235863,1.3570977747440338 " fill="none" stroke="black" stroke-width="1" /></svg>