<?xml version="1.0" encoding="utf-8" ?>
<svg baseProfile="full" height="1120.0" version="1.1" width="1380.0" xmlns="http://www.w3.org/2000/svg" xmlns:ev="http://www.w3.org/2001/xml-events" xmlns:xlink="http://www.w3.org/1999/xlink"><defs /><rect fill="white" height="1120.0" width="1380.0" x="0" y="0" /><path d="M50.0,100.0 m-25.0,695.0 l155.0,40.0 395.0,45.0 l680.0,50.0 90.0,0.0 l10.0,-25.0 -35.0,-715.0 l-25.0,-90.0 -50.0,-35.0 l-100.0,-35.0 -210.0,-5.0 l-360.0,40.0 -315.0,60.0 l-210.0,-5.0 m85.0,135.0 l25.0,130.0 65.0,45.0 l60.0,-25.0 80.0,-65.0 l0.0,-95.0 -50.0,-10.0 l-160.0,25.0 m420.0,-10.0 l20.0,205.0 50.0,0.0 l120.0,-30.0 40.0,-55.0 l10.0,-70.0 -15.0,-25.0 l-60.0,-25.0 -150.0,-30.0 m545.0,-5.0 l-65.0,305.0 35.0,0.0 l120.0,-75.0 25.0,-50.0 l0.0,-45.0 -65.0,-70.0 l-80.0,-45.0 -55.0,-5.0 l-80.0,20.0 m-630.0,495.0 l-60.0,-15.0 -30.0,10.0 l-50.0,55.0 -15.0,55.0 l-15.0,105.0 10.0,30.0 l60.0,50.0 35.0,5.0 l50.0,-15.0 50.0,-45.0 l55.0,-90.0 0.0,-35.0 l-25.0,-55.0 -75.0,-50.0 m625.0,65.0 l-45.0,65.0 -35.0,115.0 l-5.0,100.0 20.0,0.0 l90.0,-65.0 55.0,-85.0 l5.0,-40.0 -15.0,-55.0 l-40.0,-30.0 -35.0,-5.0 l-85.0,25.0 " fill="none" stroke="black" stroke-width="1" /></svg>