<?xml version="1.0" encoding="utf-8" ?>
<svg baseProfile="full" height="76.2372969727221" version="1.1" width="78.14716682793005" xmlns="http://www.w3.org/2000/svg" xmlns:ev="http://www.w3.org/2001/xml-events" xmlns:xlink="http://www.w3.org/1999/xlink"><defs /><rect fill="white" height="76.2372969727221" width="78.14716682793005" x="0" y="0" /><path d="M37.54164155572653,30.524951874622275 m0.14262784272432327,-1.1177057027816772 l-0.2686915546655655,-0.5375273153185844 -0.8375682681798935,-0.47261904925107956 l-1.7198853194713593,4.951859409629833e-05 -2.2271443903446198,0.6986641138792038 l-1.8130673468112946,1.1112356185913086 -1.5226615965366364,1.5145163238048553 l-1.6374851763248444,2.9978197813034058 -0.6525611877441406,3.9109164476394653 l0.5310495942831039,4.102469384670258 1.7880776524543762,3.3605733513832092 l2.017938643693924,2.186245918273926 2.2240671515464783,1.4939606189727783 l2.375047951936722,0.9322846680879593 3.538554310798645,0.5311493203043938 l3.0296358466148376,0.00031209994631353766 2.4461428821086884,-0.6567107886075974 l2.060110569000244,-1.1635644733905792 1.6874374449253082,-1.6091793775558472 l1.2336640805006027,-1.9218800961971283 0.7615511119365692,-2.2063376009464264 l0.27982551604509354,-2.4537160992622375 -0.22564344108104706,-2.5870755314826965 l-0.8767671883106232,-2.493285685777664 -2.135109156370163,-3.1356117129325867 l-2.186209261417389,-1.9504569470882416 -2.3668788373470306,-1.3021080195903778 l-5.642807483673096,-1.3997574150562286 -3.9718806743621826,0.776306539773941 m-1.7561066150665283,1.7568403482437134 l-0.916249081492424,-0.7873990386724472 -0.9352608770132065,-1.2157561630010605 l-1.2494298070669174,-2.082423120737076 -0.5789663642644882,-0.6774506717920303 l-0.7385272532701492,-0.5950295552611351 -0.7400205731391907,-0.2999110333621502 l-1.271892786026001,0.5219255015254021 -0.3865579143166542,1.6200442612171173 l1.0833610594272614,2.2963598370552063 1.7077624797821045,0.8750170469284058 l1.3802379369735718,0.00037557601899607107 m16.81143879890442,-1.786603182554245 l0.7479149848222733,-2.131842225790024 1.1438515782356262,-1.1916537582874298 l1.2773177027702332,-0.43641358613967896 1.6915173828601837,0.2761774882674217 l1.571168452501297,1.4304353296756744 0.7324417680501938,2.188565880060196 l0.0001546836028865073,1.8748915195465088 -0.9065879881381989,1.2235832959413528 l-2.6906874775886536,0.9172529727220535 m-10.210751295089722,3.5554510354995728 l-1.0971634089946747,2.1937277913093567 " fill="none" stroke="black" stroke-width="1" /></svg>