<?xml version="1.0" encoding="utf-8" ?>
<svg baseProfile="full" height="1510.0" version="1.1" width="1350.0" xmlns="http://www.w3.org/2000/svg" xmlns:ev="http://www.w3.org/2001/xml-events" xmlns:xlink="http://www.w3.org/1999/xlink"><defs /><rect fill="white" height="1510.0" width="1350.0" x="0" y="0" /><path d="M635.0,315.0 m0.0,-55.0 l-20.0,-30.0 -35.0,-10.0 l-85.0,0.0 -130.0,35.0 l-85.0,45.0 -80.0,75.0 l-105.0,175.0 -25.0,135.0 l10.0,225.0 75.0,165.0 l95.0,95.0 205.0,135.0 l95.0,35.0 155.0,25.0 l185.0,-5.0 105.0,-45.0 l130.0,-100.0 60.0,-105.0 l30.0,-90.0 20.0,-165.0 l0.0,-195.0 -70.0,-215.0 l-70.0,-90.0 -170.0,-155.0 l-125.0,-55.0 -150.0,-20.0 l-200.0,45.0 m-130.0,75.0 l-110.0,-220.0 -55.0,10.0 l-110.0,70.0 -20.0,65.0 l10.0,30.0 45.0,35.0 l85.0,-15.0 60.0,-100.0 l-15.0,-65.0 m810.0,145.0 l105.0,-105.0 135.0,-15.0 l25.0,5.0 40.0,50.0 l0.0,80.0 -45.0,40.0 l-60.0,-15.0 -50.0,-40.0 l-35.0,-55.0 -15.0,-90.0 m-860.0,1120.0 l-165.0,310.0 155.0,-40.0 " fill="none" stroke="black" stroke-width="1" /></svg>