<?xml version="1.0" encoding="utf-8" ?>
<svg baseProfile="full" height="1965.0" version="1.1" width="1750.0" xmlns="http://www.w3.org/2000/svg" xmlns:ev="http://www.w3.org/2001/xml-events" xmlns:xlink="http://www.w3.org/1999/xlink"><defs /><rect fill="white" height="1965.0" width="1750.0" x="0" y="0" /><path d="M1195.0,855.0 m-95.0,-115.0 l-400.0,-715.0 5.0,730.0 l-25.0,50.0 -65.0,40.0 l-115.0,25.0 -375.0,5.0 l-60.0,30.0 -30.0,55.0 l-10.0,140.0 45.0,35.0 l135.0,30.0 200.0,-25.0 l280.0,0.0 25.0,25.0 l55.0,65.0 30.0,70.0 l80.0,560.0 15.0,60.0 l25.0,20.0 50.0,-95.0 l45.0,-155.0 35.0,-380.0 l45.0,-95.0 60.0,-45.0 l190.0,-15.0 310.0,15.0 l20.0,60.0 25.0,-15.0 l25.0,-85.0 5.0,-205.0 l-80.0,-230.0 -25.0,130.0 l-25.0,40.0 -70.0,40.0 l-150.0,10.0 -255.0,-85.0 m-905.0,160.0 l65.0,10.0 " fill="none" stroke="black" stroke-width="1" /></svg>