<?xml version="1.0" encoding="utf-8" ?>
<svg baseProfile="full" height="77.0906237885356" version="1.1" width="85.25293230777606" xmlns="http://www.w3.org/2000/svg" xmlns:ev="http://www.w3.org/2001/xml-events" xmlns:xlink="http://www.w3.org/1999/xlink"><defs /><rect fill="white" height="77.0906237885356" width="85.25293230777606" x="0" y="0" /><path d="M43.14306281041354,35.717310309410095 m-1.6871792078018188,-2.289527654647827 l-6.662246584892273,-8.427782654762268 -2.700398564338684,7.558402419090271 l-2.1405604481697083,0.5255474522709846 -0.8390004187822342,0.5967225134372711 l-1.3143201172351837,2.00237438082695 -0.29213715344667435,1.5914978086948395 l1.75947904586792,2.9907864332199097 0.031093545258045197,1.0053036361932755 l-2.926478385925293,1.7545005679130554 -1.337338536977768,2.445998787879944 l-0.03397598396986723,1.4035937190055847 0.8166136592626572,1.0840939730405807 l1.54115229845047,0.7551331073045731 4.959525167942047,0.6348337233066559 l4.641735255718231,-0.5148100107908249 1.652282476425171,-1.291126161813736 l1.122608557343483,-1.3286623358726501 0.7079517841339111,-1.0060938447713852 l1.2794433534145355,2.8794822096824646 1.4600257575511932,2.6460134983062744 l1.516827940940857,1.357031911611557 1.2856082618236542,-0.09261672385036945 l0.837768018245697,-0.8716387301683426 1.0468817502260208,-3.7387844920158386 l0.22599956020712852,-3.302447497844696 -0.03753675380721688,-2.317691445350647 l4.881085157394409,-1.3451570272445679 3.2695111632347107,-0.7319232076406479 l2.798597812652588,-0.7462260872125626 1.2468510866165161,-1.042494922876358 l-1.5164338052272797,-2.97654926776886 -2.6198536157608032,-1.1481235921382904 l-6.315367221832275,-0.49026280641555786 -4.7508129477500916,0.33669859170913696 l-2.440376430749893,0.3770492970943451 -2.291504144668579,0.03991774749010801 m1.051356941461563,3.0356022715568542 l0.7160723209381104,5.552927255630493 " fill="none" stroke="black" stroke-width="1" /></svg>