<?xml version="1.0" encoding="utf-8" ?>
<svg baseProfile="full" height="63.37189882993698" version="1.1" width="65.70317581761628" xmlns="http://www.w3.org/2000/svg" xmlns:ev="http://www.w3.org/2001/xml-events" xmlns:xlink="http://www.w3.org/1999/xlink"><defs /><rect fill="white" height="63.37189882993698" width="65.70317581761628" x="0" y="0" /><path d="M38.88095509726554,26.28253372386098 m-2.9625388979911804,-0.8341803401708603 l-2.619751989841461,0.11716550216078758 -1.359676867723465,0.7149702310562134 l-1.553143709897995,1.9500099122524261 -0.742560550570488,2.8589168190956116 l0.38443710654973984,3.851666748523712 1.873113065958023,2.320666015148163 l1.9977432489395142,0.9576437622308731 2.1838706731796265,0.15250645577907562 l1.761402189731598,-0.5896679311990738 1.5208649635314941,-1.499927043914795 l1.0277514904737473,-2.3100166022777557 0.31070999801158905,-2.8761544823646545 l-0.3863178566098213,-2.5182953476905823 -1.1016735434532166,-1.9321218132972717 l-1.4185087382793427,-1.1488768458366394 -1.6986188292503357,-0.4968387633562088 m-3.8437825441360474,7.291619181632996 l-1.0075391829013824,0.17977075651288033 -0.18610140308737755,-0.12994434684515 l0.4618968069553375,-0.6157781556248665 0.16103126108646393,0.1649029552936554 l-0.18789676949381828,0.47735545784235 -0.11984167620539665,-0.7080269604921341 l0.31530946493148804,0.1776733621954918 -0.14388909563422203,0.519903302192688 l-0.20964698866009712,-0.9134890884160995 0.3796941041946411,0.04635197576135397 l0.08173818700015545,0.8171234279870987 -0.26029715314507484,-0.6674704700708389 l0.3318905085325241,-0.13390661217272282 0.07886902429163456,0.7674890756607056 l-0.25848161429166794,-0.56611068546772 0.24375488981604576,-0.2297806739807129 l0.04983391147106886,0.7059621810913086 -0.159441027790308,-0.49967139959335327 m1.710451990365982,-0.2963423542678356 l1.5766678750514984,-0.8993129432201385 3.154837191104889,-1.556895226240158 l1.5650191903114319,-0.3381378948688507 m-7.520144581794739,3.8557416200637817 l3.2196080684661865,0.10934741236269474 1.5766197443008423,0.15667350962758064 m-6.768544912338257,-1.49576798081398 l-3.221418261528015,-0.28903013095259666 -2.118253856897354,0.15905950218439102 m5.848767161369324,1.2290848046541214 l-2.1273386478424072,0.12618077918887138 -1.2745040655136108,0.49305617809295654 m4.062127768993378,-3.9201751351356506 l-0.4505384713411331,0.2852165140211582 " fill="none" stroke="black" stroke-width="1" /></svg>