<?xml version="1.0" encoding="utf-8" ?>
<svg baseProfile="full" height="1440.0" version="1.1" width="1485.0" xmlns="http://www.w3.org/2000/svg" xmlns:ev="http://www.w3.org/2001/xml-events" xmlns:xlink="http://www.w3.org/1999/xlink"><defs /><rect fill="white" height="1440.0" width="1485.0" x="0" y="0" /><path d="M470.0,460.0 m-155.0,-40.0 l-65.0,25.0 -85.0,65.0 l-125.0,280.0 -15.0,165.0 l30.0,25.0 20.0,0.0 l175.0,-80.0 70.0,-70.0 l45.0,-95.0 30.0,-15.0 l85.0,-5.0 105.0,45.0 m-40.0,-275.0 l-25.0,-80.0 -5.0,-155.0 l70.0,-155.0 70.0,-60.0 l130.0,-10.0 25.0,10.0 l45.0,70.0 0.0,100.0 l-15.0,80.0 -65.0,100.0 m55.0,55.0 l135.0,-175.0 155.0,-40.0 l75.0,5.0 115.0,50.0 l85.0,125.0 65.0,255.0 l-310.0,0.0 -115.0,190.0 l-20.0,5.0 -70.0,-55.0 l-30.0,-50.0 55.0,305.0 l45.0,140.0 40.0,40.0 l115.0,60.0 -10.0,20.0 l-90.0,40.0 -365.0,10.0 l-330.0,50.0 -80.0,-5.0 l-10.0,-25.0 145.0,-245.0 l25.0,-160.0 70.0,-160.0 m-45.0,175.0 l120.0,-265.0 " fill="none" stroke="black" stroke-width="1" /></svg>