<?xml version="1.0" encoding="utf-8" ?>
<svg baseProfile="full" height="68.81734808906913" version="1.1" width="62.81987905502319" xmlns="http://www.w3.org/2000/svg" xmlns:ev="http://www.w3.org/2001/xml-events" xmlns:xlink="http://www.w3.org/1999/xlink"><defs /><rect fill="white" height="68.81734808906913" width="62.81987905502319" x="0" y="0" /><path d="M26.160514038056135,31.858778069727123 m-0.1824563555419445,3.0881524085998535 l-0.7951263338327408,3.776543438434601 -0.1829313486814499,2.357567697763443 l1.7707672715187073,0.7743735611438751 6.907564401626587,-0.03913924563676119 l2.1624664962291718,-1.048022285103798 1.1400823295116425,-1.2929993867874146 l0.838998556137085,-2.429802566766739 -0.00011789260497607756,-3.644166588783264 l-0.7019373029470444,-0.7832176238298416 -6.894224286079407,-0.8216142654418945 l-3.626852035522461,0.15245244838297367 m1.0755831003189087,-1.0901817679405212 l0.18750669434666634,-5.475103259086609 m4.337894022464752,5.38051962852478 l-0.30082961544394493,-2.7980923652648926 0.4834049567580223,-2.133430391550064 l0.6600905954837799,-0.8326175063848495 0.5875642970204353,0.18512845039367676 l0.49109529703855515,1.2428144365549088 -0.18553178757429123,2.4962179362773895 l-0.5593544617295265,0.9855823218822479 m-5.075846910476685,0.18047107383608818 l-0.2659621462225914,-0.47080717980861664 0.6546938419342041,-1.9496440887451172 l1.0689777135849,-0.8523525297641754 0.895693451166153,0.47706879675388336 l0.2338474616408348,1.8236735463142395 -0.3016703762114048,1.3884036242961884 m-5.054967403411865,6.651889085769653 l-0.1965232565999031,2.503148913383484 0.05486326292157173,2.800247073173523 l8.197659850120544,0.16404930502176285 3.6456334590911865,-0.27061913162469864 m-11.076222658157349,-3.352303206920624 l-0.20697234198451042,3.0768582224845886 0.06460483651608229,1.7375214397907257 m4.8980483412742615,-4.52400803565979 l0.06425639148801565,3.342614769935608 " fill="none" stroke="black" stroke-width="1" /></svg>