<?xml version="1.0" encoding="utf-8" ?>
<svg baseProfile="full" height="1040.0" version="1.1" width="730.0" xmlns="http://www.w3.org/2000/svg" xmlns:ev="http://www.w3.org/2001/xml-events" xmlns:xlink="http://www.w3.org/1999/xlink"><defs /><rect fill="white" height="1040.0" width="730.0" x="0" y="0" /><path d="M75.0,490.0 m-5.0,150.0 l-45.0,195.0 0.0,150.0 l30.0,25.0 540.0,5.0 l25.0,-25.0 50.0,-120.0 l35.0,-150.0 0.0,-110.0 l-20.0,-55.0 -80.0,-75.0 l-530.0,0.0 m60.0,0.0 l15.0,-395.0 m-15.0,20.0 l-15.0,-50.0 25.0,-10.0 l60.0,0.0 25.0,10.0 l10.0,25.0 0.0,105.0 l-35.0,75.0 -10.0,80.0 m185.0,115.0 l0.0,-430.0 45.0,50.0 l0.0,150.0 -20.0,25.0 l0.0,30.0 m-315.0,345.0 l50.0,15.0 245.0,0.0 l285.0,25.0 m-630.0,145.0 l575.0,10.0 40.0,20.0 m-270.0,-200.0 l0.0,200.0 " fill="none" stroke="black" stroke-width="1" /></svg>