<?xml version="1.0" encoding="utf-8" ?>
<svg baseProfile="full" height="66.7988978838548" version="1.1" width="67.07492418587208" xmlns="http://www.w3.org/2000/svg" xmlns:ev="http://www.w3.org/2001/xml-events" xmlns:xlink="http://www.w3.org/1999/xlink"><defs /><rect fill="white" height="66.7988978838548" width="67.07492418587208" x="0" y="0" /><path d="M38.72381756082177,29.68845278955996 m-0.7368147373199463,0.04440399818122387 l-1.1630085110664368,-1.2389907240867615 -2.186766415834427,-1.7685586214065552 l-2.171170860528946,-1.1956101655960083 -2.164333760738373,-0.5296972766518593 l-1.4192672073841095,0.07106335368007421 -1.2689907848834991,0.6527074426412582 l-1.517312228679657,1.7628136277198792 -0.9263184666633606,2.516799569129944 l-0.16983458772301674,2.8583666682243347 0.3152288496494293,1.8078571557998657 l1.2033521384000778,2.375863343477249 1.8517090380191803,2.0453009009361267 l2.301584482192993,1.5209442377090454 3.5763579607009888,1.097165048122406 l2.6280856132507324,0.09001653641462326 1.8381744623184204,-0.5727818980813026 l1.7071950435638428,-1.3908953964710236 1.209537833929062,-2.1711039543151855 l0.4436987638473511,-2.797979414463043 -0.20346492528915405,-2.7162936329841614 l-0.8575902879238129,-2.0458145439624786 -1.3769789040088654,-1.6855838894844055 l-1.6526848077774048,-1.1294476687908173 -2.0089389383792877,-0.6758445501327515 m-6.281713843345642,7.866001725196838 l-0.467253141105175,0.07699164096266031 0.11589017696678638,-0.18974103033542633 l0.3787688910961151,-0.3136426955461502 0.052322084084153175,0.36226343363523483 l-0.06201331503689289,-0.008777969633229077 0.04861856810748577,-0.27077896520495415 l0.2782118506729603,0.20691026002168655 0.14956682920455933,0.11182292364537716 l-0.0690199388191104,-0.11810361407697201 0.020397594198584557,-0.2157714031636715 l0.21722281351685524,0.15493027865886688 0.10334154590964317,0.1356147974729538 l-0.025286367163062096,-0.20696720108389854 0.1317755226045847,-0.18601005896925926 l0.18559888005256653,0.21981405094265938 -0.2059636451303959,0.36397580057382584 l-0.061791022308170795,-0.5671817809343338 0.42100321501493454,-0.1379418559372425 l-0.07877428084611893,0.382244735956192 -0.24177448824048042,-0.46280015259981155 l0.3267897292971611,-0.20807476714253426 0.15442383475601673,0.574549213051796 l-0.520351305603981,0.33101994544267654 -0.018826782470569015,-1.0359717905521393 l0.512583963572979,0.03691505175083876 -0.1631520688533783,0.7742208987474442 l-0.25466665625572205,-0.6972231715917587 0.451015941798687,-0.289162527769804 l-0.022570285946130753,0.2930951490998268 -0.09875359944999218,-0.07434956729412079 l0.16708899289369583,-0.32312292605638504 0.2099810168147087,0.13414209708571434 l-0.24605628103017807,0.568920262157917 -0.14237107709050179,-0.6678871810436249 l0.4628496617078781,-0.2984793670475483 0.07231733296066523,0.6782656162977219 l-0.6628486514091492,0.21268226206302643 0.010938964551314712,-1.0622704029083252 l0.647476390004158,-0.02780067501589656 -0.14696435071527958,0.841430202126503 l-0.2698914147913456,-0.5790004506707191 0.39177607744932175,-0.39045587182044983 l0.232410728931427,0.5571890249848366 -0.4352933168411255,0.4891406372189522 l-0.07472696248441935,-0.9319703280925751 " fill="none" stroke="black" stroke-width="1" /></svg>