<?xml version="1.0" encoding="utf-8" ?>
<svg baseProfile="full" height="1680.0" version="1.1" width="1830.0" xmlns="http://www.w3.org/2000/svg" xmlns:ev="http://www.w3.org/2001/xml-events" xmlns:xlink="http://www.w3.org/1999/xlink"><defs /><rect fill="white" height="1680.0" width="1830.0" x="0" y="0" /><path d="M730.0,420.0 m-40.0,0.0 l-80.0,-35.0 -60.0,-65.0 l-120.0,-80.0 -55.0,-20.0 l-90.0,0.0 -110.0,70.0 l-125.0,135.0 -25.0,55.0 l0.0,90.0 85.0,180.0 l135.0,65.0 125.0,30.0 l130.0,0.0 160.0,-55.0 l-200.0,85.0 -95.0,65.0 l-125.0,155.0 -25.0,85.0 l0.0,270.0 40.0,65.0 l125.0,80.0 165.0,50.0 l180.0,10.0 60.0,-25.0 l65.0,-115.0 70.0,-65.0 m200.0,-1015.0 l40.0,-85.0 80.0,-70.0 l175.0,0.0 145.0,80.0 l35.0,35.0 20.0,55.0 l10.0,265.0 -25.0,40.0 l-90.0,75.0 -75.0,25.0 l-135.0,0.0 425.0,0.0 l55.0,40.0 25.0,80.0 l0.0,255.0 -45.0,140.0 l-60.0,105.0 -115.0,80.0 l-235.0,35.0 -125.0,0.0 m-450.0,-1245.0 l5.0,480.0 80.0,325.0 l125.0,225.0 25.0,5.0 l30.0,-175.0 0.0,-565.0 l15.0,-70.0 -10.0,-250.0 l-85.0,-75.0 -60.0,-15.0 l-70.0,15.0 -45.0,45.0 l-20.0,60.0 -10.0,155.0 m130.0,-255.0 l-25.0,-5.0 -15.0,-35.0 l-30.0,-185.0 m220.0,290.0 l25.0,0.0 15.0,-25.0 l110.0,-240.0 " fill="none" stroke="black" stroke-width="1" /></svg>