<?xml version="1.0" encoding="utf-8" ?>
<svg baseProfile="full" height="86.05059549212456" version="1.1" width="78.21327075827867" xmlns="http://www.w3.org/2000/svg" xmlns:ev="http://www.w3.org/2001/xml-events" xmlns:xlink="http://www.w3.org/1999/xlink"><defs /><rect fill="white" height="86.05059549212456" width="78.21327075827867" x="0" y="0" /><path d="M43.914850007522546,37.49069285579026 m-5.6633299589157104,-1.8659533560276031 l-2.395077347755432,0.12006028555333614 -3.832777440547943,2.105185091495514 l-4.53504353761673,4.5879775285720825 -1.3537375628948212,2.237457185983658 l-0.749029666185379,2.030634880065918 -0.3857836499810219,2.1390698850154877 l-7.084362550813239e-05,2.4763046205043793 0.3147527202963829,1.480044573545456 l0.7217081636190414,1.641819030046463 1.1297513544559479,1.6159909963607788 l2.292283773422241,2.144758105278015 2.3254163563251495,1.4487561583518982 l2.4549590051174164,0.892188772559166 5.194787383079529,0.5056088790297508 l2.0368407666683197,-0.35200778394937515 3.1718963384628296,-1.584305763244629 l2.073960304260254,-1.9040986895561218 1.492248773574829,-2.278078645467758 l1.254761666059494,-3.817305862903595 0.34620601683855057,-3.2757949829101562 l-0.2944459393620491,-4.298282563686371 -0.8765739947557449,-2.762499153614044 l-1.2021972984075546,-2.0751647651195526 -1.4330895245075226,-1.4268015325069427 l-1.6921864449977875,-0.8613980561494827 -2.8086674213409424,-0.45722972601652145 m-15.062704086303711,3.301830291748047 l-0.3893107920885086,-1.9782565534114838 -0.07761656772345304,-6.832854151725769 l0.7460296899080276,-4.701748490333557 0.6331101804971695,-0.7465990632772446 l1.4599189162254333,0.06822837516665459 2.3182709515094757,1.6630066931247711 l3.6022350192070007,5.064904093742371 2.4018707871437073,3.0294007062911987 m6.458093523979187,0.8446049690246582 l0.8441122621297836,-1.545998901128769 2.71794855594635,-3.4629452228546143 l3.052883744239807,-3.071467876434326 2.5621989369392395,-1.8808816373348236 l0.443817637860775,0.4764380306005478 -0.08043944835662842,2.300584316253662 l-3.294801414012909,12.425038814544678 -0.7737243920564651,4.808873534202576 m-14.828214645385742,6.189775466918945 l1.0570784658193588,0.5036473274230957 5.181365013122559,3.3884447813034058 l4.2500752210617065,2.582097351551056 3.350999355316162,1.8280589580535889 m-12.560266256332397,-9.115074276924133 l5.608900785446167,3.7462377548217773 4.244231581687927,2.8006836771965027 m-13.046520948410034,-9.248943328857422 l2.302284836769104,2.7989760041236877 4.1249993443489075,4.6415212750434875 m-7.010999321937561,-6.725647449493408 l-4.980053007602692,0.28912341222167015 m4.927249848842621,0.9274668246507645 l-4.237405061721802,1.423436850309372 m4.837312698364258,0.2199995145201683 l-2.8175711631774902,1.956421136856079 " fill="none" stroke="black" stroke-width="1" /></svg>