<?xml version="1.0" encoding="utf-8" ?>
<svg baseProfile="full" height="2300.0" version="1.1" width="1315.0" xmlns="http://www.w3.org/2000/svg" xmlns:ev="http://www.w3.org/2001/xml-events" xmlns:xlink="http://www.w3.org/1999/xlink"><defs /><rect fill="white" height="2300.0" width="1315.0" x="0" y="0" /><path d="M955.0,920.0 m-280.0,-95.0 l-120.0,5.0 -220.0,115.0 l-150.0,155.0 -100.0,145.0 l-35.0,95.0 -25.0,145.0 l0.0,150.0 30.0,135.0 l20.0,55.0 85.0,110.0 l70.0,65.0 125.0,80.0 l90.0,35.0 245.0,40.0 l220.0,-25.0 115.0,-65.0 l105.0,-100.0 60.0,-135.0 l20.0,-115.0 10.0,-210.0 l-25.0,-300.0 -30.0,-90.0 l-85.0,-110.0 -125.0,-120.0 l-80.0,-45.0 m-705.0,290.0 l-10.0,-125.0 20.0,-130.0 l95.0,-275.0 65.0,-125.0 l175.0,-255.0 90.0,-100.0 l130.0,-85.0 50.0,-10.0 l85.0,20.0 65.0,45.0 l110.0,175.0 120.0,405.0 l35.0,330.0 m-1015.0,1040.0 l-35.0,55.0 -35.0,180.0 l55.0,-30.0 80.0,-120.0 m930.0,-135.0 l85.0,120.0 25.0,80.0 l-25.0,20.0 -30.0,-5.0 l-145.0,-110.0 m-390.0,-1230.0 l10.0,80.0 -20.0,160.0 m295.0,475.0 l210.0,35.0 m-1080.0,-125.0 l35.0,10.0 135.0,-10.0 m420.0,455.0 l-15.0,165.0 m-435.0,-355.0 l-100.0,135.0 m275.0,15.0 " fill="none" stroke="black" stroke-width="1" /></svg>