<?xml version="1.0" encoding="utf-8" ?>
<svg baseProfile="full" height="69.28909952104732" version="1.1" width="116.75126557704061" xmlns="http://www.w3.org/2000/svg" xmlns:ev="http://www.w3.org/2001/xml-events" xmlns:xlink="http://www.w3.org/1999/xlink"><defs /><rect fill="white" height="69.28909952104732" width="116.75126557704061" x="0" y="0" /><path d="M25,26.50184053229168 m1.0061468929052353,3.6153417825698853 l0.8071231842041016,7.253208756446838 0.07733103353530169,6.2812453508377075 l0.5523601174354553,0.2640038728713989 21.39707088470459,-0.3475690633058548 l22.77315855026245,0.09412922896444798 15.110807418823242,0.027854552026838064 l4.516646564006805,-0.3219357132911682 0.3666873648762703,-0.5404254794120789 l0.14393356628715992,-11.21779203414917 -0.06811215542256832,-6.279386878013611 l-0.596792958676815,-0.33051490783691406 -9.680610299110413,0.38261130452156067 l-12.118532657623291,0.28674039989709854 -14.178653955459595,0.2832457050681114 l-13.008599281311035,0.04181133583188057 -9.708618521690369,0.034897217992693186 l-5.12395441532135,0.04075299482792616 m6.598217487335205,12.949373722076416 l-0.2025940641760826,0.0011755950254155323 -0.16693374142050743,0.7647634297609329 l0.14942561276257038,2.3671242594718933 0.6465250253677368,1.1105761677026749 l1.5846063196659088,0.8340483158826828 2.3048795759677887,0.1919790729880333 l1.9561593234539032,-0.6428824365139008 1.6126151382923126,-1.4352941513061523 l0.6499474495649338,-1.7759718000888824 -0.20670950412750244,-1.8108215928077698 l-1.2944033741950989,-1.1910049617290497 -1.9116270542144775,-0.5978694930672646 l-2.390212267637253,0.04508323036134243 -1.163180023431778,0.5465113744139671 l-0.6620913743972778,0.9379243850708008 m43.75926971435547,0.22028086706995964 l-1.0731922835111618,0.8821849524974823 -0.4832146316766739,1.3045285642147064 l0.04025226924568415,1.3654625415802002 0.5794037133455276,0.9493588656187057 l1.180717870593071,0.7528278976678848 2.2967764735221863,0.4476362094283104 l2.095913290977478,-0.17942650243639946 1.697198897600174,-0.9906903654336929 l1.03219173848629,-1.5716835856437683 0.15572059899568558,-1.7879708111286163 l-0.9161313623189926,-1.4127306640148163 -1.9181455671787262,-1.0902036726474762 l-2.4980229139328003,-0.4062187299132347 -2.4869903922080994,0.18713656812906265 l-1.1981037259101868,0.5452952906489372 m-33.911986351013184,-9.081180691719055 l-0.13604922220110893,3.7529999017715454 0.14536799862980843,4.7847819328308105 " fill="none" stroke="black" stroke-width="1" /></svg>