<?xml version="1.0" encoding="utf-8" ?>
<svg baseProfile="full" height="2085.0" version="1.1" width="3830.0" xmlns="http://www.w3.org/2000/svg" xmlns:ev="http://www.w3.org/2001/xml-events" xmlns:xlink="http://www.w3.org/1999/xlink"><defs /><rect fill="white" height="2085.0" width="3830.0" x="0" y="0" /><path d="M25,730.0 m50.0,170.0 l30.0,335.0 35.0,50.0 l75.0,20.0 1165.0,0.0 l320.0,-60.0 965.0,125.0 l915.0,10.0 120.0,-25.0 l100.0,-45.0 5.0,-110.0 l-55.0,-85.0 -65.0,-60.0 l-160.0,-75.0 -980.0,0.0 l-130.0,-40.0 -1035.0,-5.0 l-430.0,-45.0 -770.0,-15.0 l-105.0,-55.0 m935.0,80.0 l45.0,-175.0 35.0,-55.0 l145.0,-130.0 25.0,-50.0 l95.0,-70.0 65.0,-20.0 l150.0,-120.0 250.0,-255.0 l30.0,0.0 145.0,175.0 l100.0,240.0 30.0,110.0 l80.0,155.0 55.0,55.0 l220.0,45.0 15.0,65.0 m-1140.0,485.0 l-35.0,450.0 0.0,240.0 l60.0,15.0 185.0,0.0 l45.0,-25.0 125.0,-5.0 l165.0,-30.0 110.0,-45.0 l165.0,-130.0 100.0,-105.0 l175.0,-305.0 m-2300.0,-325.0 l10.0,-30.0 185.0,-155.0 " fill="none" stroke="black" stroke-width="1" /></svg>