<?xml version="1.0" encoding="utf-8" ?>
<svg baseProfile="full" height="2205.0" version="1.1" width="4475.0" xmlns="http://www.w3.org/2000/svg" xmlns:ev="http://www.w3.org/2001/xml-events" xmlns:xlink="http://www.w3.org/1999/xlink"><defs /><rect fill="white" height="2205.0" width="4475.0" x="0" y="0" /><path d="M1105.0,1780.0 m725.0,0.0 l165.0,-25.0 1210.0,-20.0 l305.0,-55.0 195.0,-55.0 l455.0,-160.0 80.0,-55.0 l100.0,-150.0 95.0,-195.0 l15.0,-90.0 0.0,-205.0 l-50.0,-145.0 -145.0,-175.0 l-85.0,-50.0 -440.0,-130.0 l-590.0,-120.0 -600.0,-75.0 l-240.0,0.0 -415.0,-50.0 l-445.0,0.0 -310.0,35.0 l-190.0,30.0 -210.0,60.0 l-215.0,90.0 -80.0,75.0 l-245.0,310.0 -135.0,240.0 l-30.0,75.0 0.0,240.0 l45.0,120.0 160.0,200.0 l60.0,115.0 80.0,100.0 l110.0,110.0 125.0,90.0 l100.0,40.0 240.0,5.0 l590.0,75.0 140.0,0.0 m-90.0,-810.0 l-455.0,15.0 -110.0,-35.0 l-50.0,-40.0 -170.0,-260.0 l-30.0,-100.0 35.0,-205.0 l50.0,-130.0 20.0,-35.0 l65.0,-40.0 480.0,-5.0 l1440.0,35.0 385.0,-80.0 l155.0,15.0 125.0,50.0 l190.0,175.0 190.0,260.0 l5.0,220.0 -15.0,40.0 l-40.0,65.0 -105.0,85.0 l-60.0,20.0 -405.0,50.0 l-890.0,0.0 -980.0,-105.0 m1195.0,-35.0 l-365.0,5.0 -75.0,20.0 l-20.0,25.0 -60.0,180.0 l-5.0,145.0 -50.0,260.0 l10.0,110.0 70.0,95.0 l85.0,45.0 645.0,110.0 l350.0,0.0 160.0,-45.0 l105.0,-95.0 30.0,-95.0 l0.0,-250.0 -15.0,-100.0 l-50.0,-120.0 -85.0,-115.0 l-195.0,-160.0 -205.0,-120.0 l-145.0,-60.0 -190.0,-5.0 l-120.0,15.0 -285.0,110.0 " fill="none" stroke="black" stroke-width="1" /></svg>