<?xml version="1.0" encoding="utf-8" ?>
<svg baseProfile="full" height="95.63047060872123" version="1.1" width="124.26454992033541" xmlns="http://www.w3.org/2000/svg" xmlns:ev="http://www.w3.org/2001/xml-events" xmlns:xlink="http://www.w3.org/1999/xlink"><defs /><rect fill="white" height="95.63047060872123" width="124.26454992033541" x="0" y="0" /><path d="M25,60.90375844563823 m16.05229139328003,-0.008290970581583679 l3.9869654178619385,-0.40605630725622177 26.383039951324463,-0.4384216293692589 l8.34463357925415,-1.3906553387641907 6.16136908531189,-1.8191203474998474 l4.832336604595184,-2.103593647480011 2.584100365638733,-1.7721135914325714 l2.6227253675460815,-3.0110234022140503 1.2349679321050644,-2.5455015897750854 l0.701388493180275,-3.678540885448456 -0.1882091723382473,-4.048917293548584 l-1.5122270584106445,-4.115932881832123 -1.6770568490028381,-2.68183171749115 l-2.0041315257549286,-2.095663398504257 -2.5642114877700806,-1.758439987897873 l-4.933777451515198,-1.9869458675384521 -6.353216171264648,-1.3770043849945068 l-7.384745478630066,-0.6657052040100098 -7.868835926055908,0.22394392639398575 l-7.321816682815552,1.2255527079105377 -6.772754788398743,2.0825445652008057 l-6.447288990020752,2.846805155277252 -5.279671549797058,3.3112528920173645 l-4.21129047870636,3.8123440742492676 -2.7747631072998047,3.736353814601898 l-1.7949415743350983,3.9084944128990173 -0.5584680661559105,2.5847873091697693 l-0.14396147802472115,2.329229712486267 0.7678358256816864,2.9275691509246826 l1.328062266111374,2.001631408929825 1.756863296031952,1.486857533454895 l2.0898784697055817,0.9499621391296387 3.8636431097984314,0.7189465314149857 l3.8105621933937073,-0.000180387341970345 4.541400074958801,-1.1401092261075974 l2.463504672050476,-1.1913227289915085 2.592860162258148,-2.233504503965378 l1.1073178052902222,-1.9822955131530762 0.22681782022118568,-1.761305183172226 l-1.0010762512683868,-2.6411065459251404 -1.7680314183235168,-1.8366721272468567 l-2.249172329902649,-1.2213385850191116 -4.431045949459076,-0.9494844824075699 l-5.205699801445007,0.20777687430381775 -4.721220433712006,1.7196425795555115 l-2.040993869304657,1.4865386486053467 -1.9062085449695587,2.500455677509308 m48.19934844970703,-3.995244801044464 l-0.6380633264780045,4.678771495819092 -0.8306878060102463,6.207394003868103 l0.08568352088332176,4.586439430713654 1.1160881072282791,0.7895000278949738 l7.705267667770386,0.03774730721488595 8.369749188423157,-0.5063384398818016 l5.837463140487671,-0.7223246246576309 0.08195352740585804,-9.22193169593811 l-0.983012467622757,-5.769524574279785 -1.7929404973983765,-2.664743959903717 l-1.695200800895691,-0.9769309312105179 -3.648408055305481,-0.6065176799893379 l-12.216722965240479,1.2253521382808685 -9.136763215065002,2.1687066555023193 l-3.4394454956054688,1.0237300395965576 -3.8360708951950073,1.5255336463451385 m-2.150975614786148,4.096112847328186 l-5.911304950714111,0.9856124222278595 -8.560394048690796,1.8391039967536926 l-8.441309332847595,2.0679937303066254 -3.3218494057655334,1.1472991108894348 l-1.7404669523239136,1.0856182128190994 -1.0646629333496094,1.3081559538841248 l-0.8207288384437561,2.4909181892871857 0.08192550390958786,1.9553649425506592 l0.8858206123113632,1.6594688594341278 1.5714599192142487,1.3748545944690704 l2.347894310951233,1.1507651209831238 2.931550145149231,0.7701021432876587 l8.432151079177856,0.8157245814800262 7.785142660140991,0.0003880339863826521 l6.728494167327881,-0.8921007066965103 5.854275822639465,-1.7388047277927399 l5.1197463274002075,-2.4619172513484955 2.5672125816345215,-1.9648686051368713 l2.4588489532470703,-3.0962061882019043 0.8649979531764984,-2.3001983761787415 l0.1364525407552719,-2.9903995990753174 -0.7499686628580093,-2.001897543668747 l-1.4497606456279755,-1.636146903038025 -2.19253271818161,-1.373780071735382 l-2.7143001556396484,-0.903700441122055 -5.221809148788452,-0.6193717569112778 l-6.226480603218079,0.26491662487387657 -5.858783721923828,1.3114933669567108 " fill="none" stroke="black" stroke-width="1" /></svg>