<?xml version="1.0" encoding="utf-8" ?>
<svg baseProfile="full" height="79.35743734240532" version="1.1" width="82.1245576068759" xmlns="http://www.w3.org/2000/svg" xmlns:ev="http://www.w3.org/2001/xml-events" xmlns:xlink="http://www.w3.org/1999/xlink"><defs /><rect fill="white" height="79.35743734240532" width="82.1245576068759" x="0" y="0" /><path d="M43.173979725688696,27.37493859604001 m-0.5694219470024109,-0.4343857616186142 l-1.2552951276302338,-0.31415097415447235 -2.885817289352417,-0.23848813027143478 l-3.020772933959961,0.2909482456743717 -2.8632283210754395,1.0824253410100937 l-2.5473976135253906,1.7636387050151825 -2.1816204488277435,2.4133865535259247 l-1.62614107131958,2.867456376552582 -0.9873759001493454,3.279649317264557 l-0.23690907284617424,3.450528085231781 0.4943792521953583,3.195737898349762 l1.3678675889968872,2.9446494579315186 2.146220952272415,2.5715839862823486 l2.7520018815994263,1.9843104481697083 3.3290985226631165,1.355082392692566 l5.157161355018616,0.7701268047094345 5.287012457847595,-0.2920103631913662 l3.2541394233703613,-1.002650409936905 2.9493018984794617,-1.6004133224487305 l2.3408478498458862,-2.070792317390442 1.6977803409099579,-2.56519615650177 l1.012941300868988,-3.081272542476654 0.335804782807827,-3.4313976764678955 l-0.22193655371665955,-3.2633283734321594 -0.8676556497812271,-2.8221428394317627 l-1.5000897645950317,-2.7098459005355835 -2.0114047825336456,-2.325933277606964 l-2.351730912923813,-1.8322627246379852 -2.5074926018714905,-1.3073097169399261 l-2.6861047744750977,-0.793982595205307 -2.7635657787323,-0.25889912620186806 l-2.356366366147995,0.2310100570321083 -1.9731628894805908,0.8205327391624451 m2.0234210789203644,11.544098854064941 l-0.2507840469479561,0.8622115850448608 0.34033093601465225,0.9915768355131149 l0.34796733409166336,-0.3811534121632576 -0.2231902815401554,-0.8091309666633606 l-0.2992091327905655,0.3166446089744568 0.31374063342809677,0.37867549806833267 l0.29824797064065933,-0.4701139032840729 -0.13729117810726166,-0.2535467967391014 l-0.17280785366892815,0.4153088852763176 0.3896012529730797,-0.05276145413517952 l0.059211524203419685,-0.5334954708814621 -0.24105863645672798,0.13884562999010086 l0.02142183482646942,0.3226787969470024 m0.026945369318127632,-0.5320514366030693 l-0.008938322425819933,-7.787683606147766 -0.10192420333623886,-3.4150218963623047 " fill="none" stroke="black" stroke-width="1" /></svg>