<?xml version="1.0" encoding="utf-8" ?>
<svg baseProfile="full" height="1380.0" version="1.1" width="1790.0" xmlns="http://www.w3.org/2000/svg" xmlns:ev="http://www.w3.org/2001/xml-events" xmlns:xlink="http://www.w3.org/1999/xlink"><defs /><rect fill="white" height="1380.0" width="1790.0" x="0" y="0" /><path d="M895.0,115.0 m-25.0,-20.0 l-135.0,-35.0 -95.0,-20.0 l-65.0,5.0 -80.0,45.0 l-290.0,230.0 -60.0,70.0 l-90.0,215.0 -30.0,185.0 l0.0,115.0 40.0,115.0 l75.0,100.0 75.0,55.0 l310.0,175.0 40.0,5.0 l280.0,-20.0 235.0,10.0 l310.0,-100.0 80.0,-50.0 l100.0,-100.0 125.0,-200.0 l40.0,-130.0 30.0,-320.0 l-45.0,-170.0 -140.0,-145.0 l-120.0,-70.0 -210.0,-35.0 l-225.0,50.0 -60.0,-20.0 m-80.0,285.0 l-60.0,-180.0 m105.0,20.0 l50.0,0.0 55.0,75.0 l10.0,25.0 -15.0,25.0 l20.0,25.0 30.0,-5.0 m195.0,-140.0 l15.0,85.0 -25.0,205.0 m100.0,35.0 l55.0,20.0 20.0,25.0 l0.0,30.0 -40.0,50.0 l10.0,15.0 m-85.0,135.0 " fill="none" stroke="black" stroke-width="1" /></svg>