<?xml version="1.0" encoding="utf-8" ?>
<svg baseProfile="full" height="77.26543011143804" version="1.1" width="80.3725666180253" xmlns="http://www.w3.org/2000/svg" xmlns:ev="http://www.w3.org/2001/xml-events" xmlns:xlink="http://www.w3.org/1999/xlink"><defs /><rect fill="white" height="77.26543011143804" width="80.3725666180253" x="0" y="0" /><path d="M43.65000092424452,25.872491491027176 m-2.1895331144332886,-0.022433348931372166 l-3.6122071743011475,0.563424862921238 -3.9745086431503296,1.3539952039718628 l-3.286805748939514,1.8871387839317322 -2.554939389228821,2.3690226674079895 l-1.8552480638027191,2.8541696071624756 -1.0446123033761978,3.2868972420692444 l-0.13214648701250553,3.6075392365455627 0.8354154974222183,2.8741753101348877 l1.866607666015625,2.7933770418167114 3.773215413093567,2.8322097659111023 l4.686653017997742,1.624879240989685 5.165948271751404,0.36854300647974014 l4.919420480728149,-0.591614656150341 3.0540823936462402,-1.183898001909256 l2.4504156410694122,-1.7294901609420776 1.837947517633438,-2.245182693004608 l1.2213215231895447,-2.837614119052887 0.5615391954779625,-3.3090969920158386 l-0.021773003973066807,-3.39731365442276 -0.7175078243017197,-2.8533875942230225 l-1.4114579558372498,-2.702472507953644 -1.8330144882202148,-2.228390723466873 l-2.334256023168564,-1.8731899559497833 -2.5456875562667847,-1.328873634338379 l-2.7373534440994263,-0.7738302648067474 -2.786646783351898,-0.21107515320181847 l-1.8977877497673035,0.38918815553188324 m0.8848237246274948,2.0458249747753143 l0.001078628483810462,3.150676190853119 m4.130641222000122,-1.509067714214325 l1.7409856617450714,-0.21789228543639183 0.3825709968805313,0.5664065480232239 l-0.07406757213175297,1.5372852981090546 0.4637044295668602,0.5771975219249725 l1.5809492766857147,0.03712846664711833 m1.6378705203533173,1.7487643659114838 l1.4120611548423767,0.038480679504573345 0.2970820292830467,0.7986439764499664 l-0.21352527663111687,1.0754667222499847 0.8155620098114014,0.8845184743404388 l-0.0985569879412651,0.8795594424009323 -1.1161940544843674,0.6816434115171432 l-1.6435685753822327,0.2417951077222824 m-2.7025583386421204,2.7833616733551025 l-0.5091241002082825,1.4741401374340057 " fill="none" stroke="black" stroke-width="1" /></svg>