<?xml version="1.0" encoding="utf-8" ?>
<svg baseProfile="full" height="1480.0" version="1.1" width="1435.0" xmlns="http://www.w3.org/2000/svg" xmlns:ev="http://www.w3.org/2001/xml-events" xmlns:xlink="http://www.w3.org/1999/xlink"><defs /><rect fill="white" height="1480.0" width="1435.0" x="0" y="0" /><path d="M1025.0,225.0 m-110.0,0.0 l-245.0,50.0 -210.0,55.0 l-135.0,60.0 -115.0,115.0 l-120.0,200.0 -55.0,130.0 l-10.0,195.0 65.0,80.0 l155.0,125.0 155.0,100.0 l240.0,110.0 260.0,10.0 l220.0,-55.0 155.0,-125.0 l85.0,-130.0 35.0,-150.0 l15.0,-315.0 -70.0,-175.0 l-70.0,-70.0 -50.0,-30.0 l-250.0,-60.0 -5.0,-25.0 l-25.0,-15.0 -85.0,0.0 m-65.0,195.0 l0.0,80.0 -40.0,180.0 l-25.0,365.0 125.0,85.0 l110.0,130.0 65.0,45.0 m-600.0,-1080.0 l150.0,-60.0 20.0,-25.0 l-45.0,-120.0 -75.0,-60.0 l-60.0,-15.0 -50.0,0.0 l-155.0,65.0 -35.0,50.0 l-30.0,215.0 180.0,-65.0 l175.0,-30.0 m545.0,-30.0 " fill="none" stroke="black" stroke-width="1" /></svg>