<?xml version="1.0" encoding="utf-8" ?>
<svg baseProfile="full" height="71.19107804997839" version="1.1" width="83.18297425284982" xmlns="http://www.w3.org/2000/svg" xmlns:ev="http://www.w3.org/2001/xml-events" xmlns:xlink="http://www.w3.org/1999/xlink"><defs /><rect fill="white" height="71.19107804997839" width="83.18297425284982" x="0" y="0" /><path d="M39.55999819561839,44.18967336308924 m-0.1363476924598217,-0.003424772003199905 m-14.42365050315857,-18.390750885009766 l2.427932173013687,5.951977968215942 4.526704549789429,8.790053129196167 l-0.22312777116894722,-2.345833033323288 m-2.481069415807724,-9.354755282402039 l1.4327509701251984,-0.5768857151269913 5.686654448509216,-0.5896138027310371 l8.093832731246948,-0.2606857940554619 7.432337999343872,0.22783510386943817 l5.876086950302124,0.7827885448932648 0.41087161749601364,2.623780071735382 l-0.09263692423701286,6.767164468765259 -0.4262858256697655,4.646035730838776 l-0.6237183511257172,2.3975656926631927 -1.5637750923633575,0.9219083935022354 l-15.685055255889893,0.4142448678612709 -6.119092106819153,-0.0006559872417710721 l-7.225539684295654,-0.3139211982488632 -0.5475242435932159,-0.538288913667202 l-0.00021820431356900372,-2.332676351070404 0.28119273483753204,-4.240686595439911 m3.34124356508255,0.2082671970129013 l5.435786247253418,0.49252595752477646 6.384910941123962,0.28093118220567703 l6.967434883117676,0.00023242368115461431 5.041436553001404,-0.12245849706232548 l3.5413500666618347,-0.1350990030914545 m-28.431448936462402,-0.8981005847454071 l3.1486868858337402,0.2588447369635105 4.801745712757111,0.3779330477118492 l5.188402533531189,0.18267422914505005 4.32421088218689,-0.04079881124198437 l3.9319220185279846,0.10571260936558247 3.565264046192169,0.22877559065818787 l2.4453042447566986,0.21473633125424385 1.876327395439148,0.036123208701610565 m-25.271055698394775,-6.640636324882507 l-0.7641951739788055,-0.886014997959137 -0.6763932853937149,-1.2596870958805084 l-0.2212720923125744,-1.6046616435050964 0.7278052717447281,-2.4504488706588745 l0.9436850249767303,-1.8023498356342316 0.8150568604469299,-0.31134985387325287 l1.2948217988014221,0.45931100845336914 1.195579245686531,1.6821715235710144 l0.18743056803941727,4.0104275941848755 -0.7969037443399429,2.1445728838443756 m8.399673700332642,-1.5319575369358063 l-1.6568030416965485,-0.9894699603319168 -0.9503259509801865,-1.8659941852092743 l0.000135745403895271,-2.130376696586609 0.5388657748699188,-0.7628519088029861 l1.6306950151920319,-0.6619351357221603 1.3552309572696686,0.08449051529169083 l1.2869195640087128,1.003226563334465 0.8868436515331268,2.085697203874588 l0.00036678269680123776,2.3644421994686127 -0.5849800631403923,1.1461807787418365 l-1.569557636976242,1.014062762260437 -1.1537814885377884,0.14951343648135662 l-1.015995368361473,-0.610925704240799 " fill="none" stroke="black" stroke-width="1" /></svg>