<?xml version="1.0" encoding="utf-8" ?>
<svg baseProfile="full" height="1930.0" version="1.1" width="1525.0" xmlns="http://www.w3.org/2000/svg" xmlns:ev="http://www.w3.org/2001/xml-events" xmlns:xlink="http://www.w3.org/1999/xlink"><defs /><rect fill="white" height="1930.0" width="1525.0" x="0" y="0" /><path d="M935.0,1905.0 m0.0,0.0 m-860.0,-1500.0 l30.0,115.0 25.0,390.0 l60.0,440.0 m-165.0,-955.0 l530.0,-85.0 235.0,-5.0 l185.0,15.0 435.0,100.0 l60.0,60.0 15.0,75.0 l15.0,215.0 -5.0,400.0 l-15.0,40.0 -305.0,70.0 l-250.0,30.0 -520.0,25.0 l-125.0,0.0 -65.0,-5.0 l5.0,-5.0 m-150.0,-925.0 l30.0,30.0 495.0,70.0 l580.0,-20.0 150.0,-30.0 m-1175.0,295.0 l40.0,30.0 120.0,10.0 l70.0,-30.0 190.0,-30.0 l125.0,0.0 195.0,25.0 l320.0,-20.0 195.0,0.0 l20.0,5.0 10.0,25.0 l-50.0,80.0 -310.0,80.0 l-690.0,-5.0 -240.0,-35.0 m495.0,-470.0 l-110.0,-25.0 -50.0,-135.0 l15.0,-30.0 150.0,-40.0 l150.0,-5.0 70.0,-105.0 l15.0,120.0 0.0,185.0 l-75.0,20.0 -100.0,0.0 l-100.0,-20.0 m15.0,-350.0 l-35.0,45.0 65.0,105.0 l95.0,15.0 70.0,-25.0 l5.0,-30.0 -20.0,-30.0 l-55.0,-30.0 -100.0,-20.0 l-45.0,10.0 " fill="none" stroke="black" stroke-width="1" /></svg>