<?xml version="1.0" encoding="utf-8" ?>
<svg baseProfile="full" height="1710.0" version="1.1" width="1410.0" xmlns="http://www.w3.org/2000/svg" xmlns:ev="http://www.w3.org/2001/xml-events" xmlns:xlink="http://www.w3.org/1999/xlink"><defs /><rect fill="white" height="1710.0" width="1410.0" x="0" y="0" /><path d="M255.0,490.0 m125.0,-90.0 l110.0,-50.0 240.0,-20.0 l75.0,10.0 130.0,60.0 l65.0,45.0 120.0,130.0 l110.0,160.0 45.0,95.0 l85.0,210.0 20.0,105.0 l5.0,230.0 -15.0,100.0 l-40.0,75.0 -115.0,95.0 l-70.0,25.0 -195.0,15.0 l-350.0,-15.0 -135.0,-75.0 l-75.0,-70.0 -50.0,-85.0 l-135.0,-330.0 -30.0,-210.0 l10.0,-185.0 125.0,-230.0 l110.0,-90.0 110.0,-25.0 m515.0,-65.0 l25.0,-25.0 80.0,-30.0 l115.0,5.0 15.0,100.0 l-25.0,40.0 -80.0,60.0 l-80.0,10.0 -30.0,-15.0 l-25.0,-70.0 5.0,-80.0 l20.0,-35.0 55.0,-40.0 m-1075.0,110.0 l155.0,-10.0 30.0,20.0 l25.0,25.0 25.0,80.0 l0.0,70.0 -25.0,25.0 l-150.0,0.0 -45.0,-30.0 l-35.0,-70.0 15.0,-80.0 l105.0,-85.0 40.0,-15.0 m-10.0,30.0 l40.0,-25.0 55.0,-125.0 l100.0,-75.0 130.0,-40.0 l215.0,-5.0 155.0,50.0 l65.0,45.0 95.0,105.0 l5.0,90.0 m150.0,1345.0 " fill="none" stroke="black" stroke-width="1" /></svg>