<?xml version="1.0" encoding="utf-8" ?>
<svg baseProfile="full" height="76.1911978200078" version="1.1" width="74.81280498206615" xmlns="http://www.w3.org/2000/svg" xmlns:ev="http://www.w3.org/2001/xml-events" xmlns:xlink="http://www.w3.org/1999/xlink"><defs /><rect fill="white" height="76.1911978200078" width="74.81280498206615" x="0" y="0" /><path d="M29.064892455935478,27.86802228540182 m2.5958576798439026,-1.7568446695804596 l2.80786395072937,-0.8789122104644775 2.6567769050598145,-0.232265405356884 l2.3134738206863403,0.20057713612914085 3.1217405200004578,1.3001671433448792 l2.7592936158180237,2.1520204842090607 2.1496719121932983,2.741277813911438 l1.5389345586299896,3.2094287872314453 0.6456149369478226,2.6397719979286194 l0.1586846262216568,2.6138877868652344 -0.6034015864133835,3.3019304275512695 l-1.125413179397583,2.3342813551425934 -1.7252390086650848,2.0935559272766113 l-2.2225920855998993,1.6372373700141907 -2.6569584012031555,1.1624439805746078 l-3.009156882762909,0.6534548848867416 -3.0362889170646667,0.15116272494196892 l-2.606779932975769,-0.5122959613800049 -2.6130738854408264,-1.2674449384212494 l-2.248472422361374,-1.941295862197876 -1.6705220937728882,-2.5095292925834656 l-0.9795419126749039,-3.0148401856422424 -0.31536467373371124,-4.459719657897949 l0.7301358133554459,-4.393546283245087 1.3902470469474792,-2.6219993829727173 l1.8270853161811829,-1.9424408674240112 2.0160603523254395,-1.1367980390787125 l2.1533699333667755,-0.4861893132328987 m1.9104649126529694,12.152992486953735 l-0.16121799126267433,-0.3317716345191002 0.12115723453462124,0.0028348248451948166 l0.06417485885322094,0.14091139659285545 0.013693078653886914,-0.1982291042804718 l-0.023910156451165676,-0.22601313889026642 0.08252935484051704,0.13070400804281235 l0.21651482209563255,0.14944955706596375 -0.025094340089708567,-0.08209817111492157 l-0.10427047498524189,-0.14953967183828354 0.018677430925890803,-0.05516876466572285 l0.22547829896211624,0.004581611719913781 0.05805596709251404,0.101340152323246 l-0.14381756074726582,0.0338054308667779 -0.0038112112088128924,-0.2223053202033043 l0.24002233520150185,-0.1310612726956606 0.1090352050960064,0.1868729665875435 l-0.14931107871234417,-0.005735318991355598 -0.0425749272108078,-0.2665886841714382 l0.1723838411271572,-0.11841081082820892 0.07754512596875429,0.13388190418481827 l-0.12367474846541882,-0.004275479295756668 -0.01502745202742517,-0.2116999216377735 l0.274868868291378,-0.14187716878950596 -0.016660047695040703,0.2549874782562256 l-0.25959495455026627,-0.1656094752252102 0.10037434287369251,-0.2030659094452858 l0.25535376742482185,0.04801003262400627 0.10009187273681164,0.2590589411556721 l-0.17833787947893143,-0.23904016241431236 0.013020522892475128,-0.2828054502606392 l0.11233136989176273,-0.03392614424228668 0.06022442597895861,0.09848419576883316 l-0.04413074813783169,-0.20042818039655685 0.027736721094697714,-0.1977045089006424 l0.09474098682403564,-0.00189020240213722 0.11382359080016613,0.02954449038952589 " fill="none" stroke="black" stroke-width="1" /></svg>