<?xml version="1.0" encoding="utf-8" ?>
<svg baseProfile="full" height="71.1513195745647" version="1.1" width="75.44559750705957" xmlns="http://www.w3.org/2000/svg" xmlns:ev="http://www.w3.org/2001/xml-events" xmlns:xlink="http://www.w3.org/1999/xlink"><defs /><rect fill="white" height="71.1513195745647" width="75.44559750705957" x="0" y="0" /><path d="M36.443010568618774,27.975166868418455 m-0.6101209670305252,7.518239617347717 l0.2667863853275776,4.356639981269836 0.8853013813495636,4.45726752281189 l0.7565982639789581,1.3798196613788605 0.9661272913217545,0.4641859233379364 l0.8626502007246017,-0.9060503542423248 0.5064882338047028,-1.704295575618744 l0.4612765461206436,-5.03477931022644 -0.6332005560398102,-7.646229267120361 l-1.4120876789093018,-3.7632372975349426 -1.2270482629537582,-1.4939729869365692 l-0.9188833832740784,-0.26567257940769196 -0.8688460290431976,0.2975463308393955 l-0.7152941823005676,0.9393227100372314 m4.703011512756348,1.5586642920970917 l0.923079252243042,-1.1069922149181366 1.3626432418823242,-0.9589108824729919 l3.2345765829086304,-1.0667124390602112 2.9737114906311035,0.045094541274011135 l1.403878629207611,0.8678296208381653 0.9191283583641052,1.6045011579990387 l0.16281062737107277,2.134808301925659 -0.7658752053976059,2.02438622713089 l-1.7493541538715363,1.8775846064090729 0.7254908978939056,1.1135367304086685 l0.9106525033712387,1.9286631047725677 0.35652291029691696,3.062545359134674 l-0.8055253326892853,2.460530996322632 -1.5273396670818329,1.4594629406929016 l-2.167188376188278,0.8163941651582718 -2.4684904515743256,0.13968760147690773 l-1.830081045627594,-0.5458538979291916 m-6.915246248245239,-15.470983982086182 l-3.5440686345100403,-1.7270992696285248 -2.5384700298309326,-0.0117359624709934 l-1.1293081194162369,0.5233892053365707 -1.473347246646881,1.7568479478359222 l-0.5239693075418472,2.1792657673358917 0.1600858010351658,1.4227384328842163 " fill="none" stroke="black" stroke-width="1" /></svg>