<?xml version="1.0" encoding="utf-8" ?>
<svg baseProfile="full" height="1135.0" version="1.1" width="905.0" xmlns="http://www.w3.org/2000/svg" xmlns:ev="http://www.w3.org/2001/xml-events" xmlns:xlink="http://www.w3.org/1999/xlink"><defs /><rect fill="white" height="1135.0" width="905.0" x="0" y="0" /><path d="M340.0,180.0 m-30.0,370.0 l25.0,250.0 75.0,250.0 l45.0,40.0 65.0,20.0 l5.0,-80.0 -25.0,-190.0 l-125.0,-665.0 m65.0,260.0 l90.0,-70.0 115.0,-55.0 l95.0,-15.0 20.0,15.0 l-15.0,45.0 -80.0,105.0 l-205.0,210.0 325.0,-110.0 l50.0,0.0 45.0,20.0 l-10.0,45.0 -55.0,80.0 l-190.0,220.0 m-295.0,-425.0 l-70.0,5.0 -95.0,45.0 l-80.0,95.0 -60.0,105.0 l55.0,15.0 175.0,-15.0 l0.0,20.0 -80.0,95.0 l-50.0,100.0 90.0,15.0 l150.0,-35.0 m-30.0,-685.0 l-140.0,-45.0 -100.0,-95.0 m340.0,65.0 l95.0,-160.0 " fill="none" stroke="black" stroke-width="1" /></svg>