<?xml version="1.0" encoding="utf-8" ?>
<svg baseProfile="full" height="1515.0" version="1.1" width="1230.0" xmlns="http://www.w3.org/2000/svg" xmlns:ev="http://www.w3.org/2001/xml-events" xmlns:xlink="http://www.w3.org/1999/xlink"><defs /><rect fill="white" height="1515.0" width="1230.0" x="0" y="0" /><path d="M715.0,530.0 m-10.0,-40.0 l-40.0,-40.0 -160.0,-50.0 l-210.0,-5.0 -30.0,15.0 l-130.0,105.0 -50.0,65.0 l-60.0,210.0 0.0,195.0 l10.0,30.0 445.0,355.0 l80.0,15.0 85.0,-5.0 l10.0,-80.0 10.0,85.0 l55.0,70.0 70.0,35.0 l145.0,0.0 190.0,-65.0 l65.0,-65.0 15.0,-325.0 l-40.0,-365.0 -15.0,-80.0 l-55.0,-60.0 -265.0,-150.0 l-55.0,35.0 -10.0,110.0 m-95.0,-160.0 l30.0,5.0 45.0,-85.0 l125.0,-65.0 175.0,-25.0 l80.0,30.0 m-235.0,-50.0 l45.0,-35.0 5.0,-60.0 l-20.0,-50.0 -30.0,-5.0 l-70.0,50.0 0.0,80.0 " fill="none" stroke="black" stroke-width="1" /></svg>