<?xml version="1.0" encoding="utf-8" ?>
<svg baseProfile="full" height="68.8870371133089" version="1.1" width="68.44076436012983" xmlns="http://www.w3.org/2000/svg" xmlns:ev="http://www.w3.org/2001/xml-events" xmlns:xlink="http://www.w3.org/1999/xlink"><defs /><rect fill="white" height="68.8870371133089" width="68.44076436012983" x="0" y="0" /><path d="M39.19623943977058,29.04220450669527 m-0.14926674775779247,-0.8767139166593552 l-1.1624188721179962,-1.2831085920333862 -2.3545366525650024,-1.3119301199913025 l-2.746976315975189,-0.5704518780112267 -2.7951329946517944,0.23750338703393936 l-2.414604127407074,1.4365741610527039 -1.7261822521686554,2.3877905309200287 l-0.8471214771270752,3.1700336933135986 0.8847247809171677,6.062883734703064 l1.6134414076805115,2.4612371623516083 2.2581641376018524,1.7940832674503326 l3.5173648595809937,1.255682110786438 3.603925406932831,0.08124906569719315 l2.0375871658325195,-0.6365786492824554 1.9228512048721313,-1.3539834320545197 l1.512557864189148,-2.092319577932358 0.8781945705413818,-2.6954039931297302 l0.21195296198129654,-3.0131667852401733 -0.4201790317893028,-2.584396004676819 l-1.0674279928207397,-2.310326099395752 -1.474180817604065,-1.8024452030658722 l-1.7788265645503998,-1.2413110584020615 -1.8662838637828827,-0.631665512919426 l-1.9595175981521606,-0.12298446148633957 -1.6909943521022797,0.4803181067109108 m0.16998149454593658,7.518443465232849 l-0.20041102543473244,0.4725934937596321 0.45689959079027176,0.41384022682905197 l0.18768949434161186,-0.47778524458408356 -0.5064747482538223,0.031117151957005262 l0.06283522117882967,0.4381320998072624 0.6766125559806824,-0.459211990237236 l-0.3155793622136116,-0.07917930372059345 -0.0874541886150837,0.7552578300237656 l0.6187736243009567,-0.4190968722105026 -0.2723420783877373,-0.22621642798185349 l-0.16151187941432,0.5930453538894653 0.40483057498931885,-0.3317020460963249 m-0.11919462122023106,-0.20307272672653198 l-0.0320537481456995,-5.748243927955627 " fill="none" stroke="black" stroke-width="1" /></svg>