<?xml version="1.0" encoding="utf-8" ?>
<svg baseProfile="full" height="940.0" version="1.1" width="1480.0" xmlns="http://www.w3.org/2000/svg" xmlns:ev="http://www.w3.org/2001/xml-events" xmlns:xlink="http://www.w3.org/1999/xlink"><defs /><rect fill="white" height="940.0" width="1480.0" x="0" y="0" /><path d="M65.0,305.0 m0.0,315.0 l10.0,40.0 55.0,70.0 l150.0,15.0 185.0,-40.0 l20.0,-15.0 55.0,-135.0 l0.0,-155.0 -25.0,-70.0 l-80.0,-40.0 -205.0,-15.0 l-190.0,20.0 m-15.0,55.0 l235.0,-100.0 585.0,-105.0 l460.0,-120.0 m-875.0,760.0 l625.0,-250.0 400.0,-135.0 m-1015.0,440.0 l-45.0,-25.0 -20.0,0.0 l-10.0,20.0 5.0,50.0 l20.0,20.0 30.0,0.0 l15.0,-25.0 -5.0,-25.0 l-45.0,-40.0 0.0,20.0 l70.0,5.0 20.0,-35.0 l-25.0,-35.0 m-295.0,45.0 l-15.0,80.0 15.0,20.0 l20.0,-10.0 -35.0,-80.0 m490.0,-525.0 l10.0,90.0 30.0,10.0 l290.0,-60.0 70.0,-25.0 l175.0,-100.0 120.0,-40.0 l10.0,-20.0 -5.0,-45.0 l-30.0,-15.0 -545.0,220.0 l-190.0,60.0 -145.0,25.0 m945.0,15.0 l-5.0,140.0 -5.0,-45.0 l-20.0,-15.0 m75.0,-155.0 l-40.0,80.0 5.0,50.0 l0.0,-55.0 -40.0,-25.0 " fill="none" stroke="black" stroke-width="1" /></svg>