<?xml version="1.0" encoding="utf-8" ?>
<svg baseProfile="full" height="70.26277016848326" version="1.1" width="75.2631264925003" xmlns="http://www.w3.org/2000/svg" xmlns:ev="http://www.w3.org/2001/xml-events" xmlns:xlink="http://www.w3.org/1999/xlink"><defs /><rect fill="white" height="70.26277016848326" width="75.2631264925003" x="0" y="0" /><path d="M30.692168553359807,35.64944189113703 m0.05714916158467531,6.652680039405823 l0.14600089751183987,0.8308624476194382 1.609988659620285,1.6363847255706787 l1.9603896141052246,0.493253692984581 2.6217103004455566,0.00014737176570633892 l3.149462938308716,-1.1683492362499237 1.5276448428630829,-1.3077875971794128 l1.2804655730724335,-2.506057322025299 0.6815157830715179,-4.555475115776062 l-0.7532035559415817,-0.6020846962928772 -8.169217705726624,-0.2640848606824875 l-4.4323283433914185,0.40407199412584305 m6.711235046386719,1.432408094406128 l7.821323871612549,-2.1538999676704407 5.237920880317688,-1.0975244641304016 m-17.4484920501709,5.693058371543884 l3.2195472717285156,-0.485343374311924 5.3791046142578125,-0.7845713943243027 l5.500990152359009,-0.8956990391016006 3.4697499871253967,-0.8591984957456589 m-18.3082115650177,0.3556594252586365 l-1.6533337533473969,-0.947493389248848 -1.6486680507659912,-1.176072359085083 l-1.5542404353618622,-1.5121133625507355 -1.2527130544185638,-1.8548408150672913 l-0.7483220100402832,-2.0275461673736572 -0.09763762354850769,-1.3721390068531036 l0.548630952835083,-0.995241105556488 2.080179899930954,-1.1149516701698303 l2.324022799730301,-0.4674946144223213 3.4174874424934387,0.1683374121785164 l3.259020149707794,1.1720775067806244 2.7310898900032043,1.9520115852355957 l1.7148074507713318,2.3895734548568726 0.6579073518514633,2.5008243322372437 l-0.03726451890543103,1.3396207988262177 m-6.979862451553345,0.7008515298366547 l-0.6497465819120407,0.8857725560665131 -0.6251595169305801,1.577591449022293 l0.38078155368566513,0.9579318016767502 3.5570284724235535,0.03582150209695101 l0.6021503731608391,-2.1840550005435944 -0.6587826460599899,-0.6385044008493423 l-2.8955090045928955,-0.30524201691150665 m6.680730581283569,0.11757162399590015 l-0.11977331712841988,1.5277434885501862 0.6020981818437576,0.9988193213939667 l2.5862708687782288,-0.3546859696507454 0.03118450054898858,-1.9613346457481384 l-0.7231617718935013,-0.5632554739713669 -1.6212870180606842,-0.2224283292889595 m-9.890179634094238,2.222621440887451 l-0.264445710927248,2.2437497973442078 0.4677056521177292,0.9197568893432617 l1.6196826100349426,0.2960093505680561 2.382916361093521,-0.8179078996181488 l0.7903864979743958,-0.9930337220430374 -0.0002205022974521853,-1.5562179684638977 l-4.009765386581421,-0.748862698674202 -1.848197728395462,0.6455206125974655 " fill="none" stroke="black" stroke-width="1" /></svg>