<?xml version="1.0" encoding="utf-8" ?>
<svg baseProfile="full" height="83.76552112400532" version="1.1" width="85.43759821914136" xmlns="http://www.w3.org/2000/svg" xmlns:ev="http://www.w3.org/2001/xml-events" xmlns:xlink="http://www.w3.org/1999/xlink"><defs /><rect fill="white" height="83.76552112400532" width="85.43759821914136" x="0" y="0" /><path d="M44.7488796338439,55.491235572844744 m-3.017195463180542,1.7678223550319672 l-2.9855692386627197,0.7566489279270172 -3.3283916115760803,0.5914889276027679 l-2.5454741716384888,0.15832534059882164 -1.6760997474193573,-0.2635337598621845 l-2.8551459312438965,-1.5104861557483673 -1.2891027331352234,-1.3328978419303894 l-1.4461712539196014,-3.1389936804771423 -0.6057294830679893,-3.8419902324676514 l0.21469620987772942,-4.0986379981040955 1.3451583683490753,-4.222971796989441 l2.0403243601322174,-3.8881874084472656 2.5257188081741333,-3.3978140354156494 l2.883298099040985,-2.8460904955863953 3.255092203617096,-2.3352745175361633 l3.642471432685852,-1.7333722114562988 3.7735944986343384,-0.9439878910779953 l2.940867841243744,-0.2112830989062786 3.5987070202827454,0.570366270840168 l2.715834081172943,1.220974326133728 2.4397458136081696,1.8554279208183289 l1.9300423562526703,2.445526123046875 1.3557207584381104,2.92815625667572 l0.7278554886579514,3.3432096242904663 0.04847087897360325,4.971587061882019 l-1.2166083604097366,4.4470590353012085 -2.390507459640503,4.1033631563186646 l-2.1561215817928314,2.3050397634506226 -3.611190915107727,2.2680680453777313 l-2.9378679394721985,0.8998800069093704 -3.147733509540558,0.18664974719285965 l-2.5449544191360474,-0.5211086198687553 -1.4604687690734863,-0.769529789686203 m1.089099645614624,-20.352389812469482 l-0.012173365103080869,1.218317449092865 -0.6267060339450836,3.9078882336616516 l2.3059463500976562,0.502273254096508 4.3807995319366455,-0.11899188160896301 l4.334371387958527,-0.7570256292819977 3.3736073970794678,-0.042821760289371014 m-14.736584424972534,-5.45475959777832 l-0.6470604240894318,0.17658565193414688 -0.4728367552161217,0.13557552359998226 l-1.685677021741867,1.1050894856452942 -1.816786378622055,1.6006417572498322 l-1.314188688993454,1.7811691761016846 -0.7328791171312332,2.4143482744693756 l0.019585897680372,2.299279272556305 0.8553073555231094,1.9879502058029175 l1.616090089082718,1.6923615336418152 2.2124668955802917,1.2406910210847855 l2.645556628704071,0.6817401200532913 4.014582931995392,0.002728053950704634 l3.112749457359314,-1.2540611624717712 2.1488556265830994,-1.8674802780151367 l1.3361184298992157,-2.4449339509010315 0.481821708381176,-2.7808424830436707 l-0.237673819065094,-2.6600730419158936 -1.0318981856107712,-2.0962777733802795 l-1.7041286826133728,-1.801358312368393 -2.1588818728923798,-1.2706491351127625 l-2.6044002175331116,-0.630231574177742 " fill="none" stroke="black" stroke-width="1" /></svg>