<?xml version="1.0" encoding="utf-8" ?>
<svg baseProfile="full" height="1535.0" version="1.1" width="1635.0" xmlns="http://www.w3.org/2000/svg" xmlns:ev="http://www.w3.org/2001/xml-events" xmlns:xlink="http://www.w3.org/1999/xlink"><defs /><rect fill="white" height="1535.0" width="1635.0" x="0" y="0" /><path d="M1235.0,1350.0 m-150.0,90.0 l-105.0,40.0 -110.0,20.0 l-320.0,10.0 -35.0,-5.0 l-45.0,-40.0 -355.0,-430.0 l-60.0,-100.0 -20.0,-85.0 l-10.0,-170.0 50.0,-95.0 l100.0,-105.0 145.0,-70.0 l150.0,-25.0 320.0,-5.0 l285.0,35.0 100.0,20.0 l230.0,90.0 100.0,100.0 l55.0,145.0 -5.0,145.0 l-45.0,95.0 -170.0,205.0 l-160.0,155.0 -85.0,35.0 l-80.0,0.0 m-695.0,-1220.0 l0.0,30.0 m0.0,0.0 l10.0,185.0 -25.0,-290.0 l10.0,-30.0 55.0,-55.0 l25.0,10.0 165.0,235.0 l105.0,200.0 m430.0,-35.0 l185.0,-175.0 285.0,-190.0 l45.0,140.0 0.0,285.0 l-15.0,115.0 -25.0,90.0 l-25.0,35.0 m-1025.0,240.0 l15.0,75.0 30.0,10.0 l80.0,-70.0 25.0,10.0 l50.0,105.0 25.0,10.0 l30.0,-20.0 35.0,-115.0 m-305.0,-155.0 l-35.0,-85.0 0.0,-50.0 l35.0,0.0 50.0,30.0 l35.0,50.0 -95.0,45.0 m475.0,30.0 " fill="none" stroke="black" stroke-width="1" /></svg>