<?xml version="1.0" encoding="utf-8" ?>
<svg baseProfile="full" height="70.09971919884265" version="1.1" width="66.4748203201384" xmlns="http://www.w3.org/2000/svg" xmlns:ev="http://www.w3.org/2001/xml-events" xmlns:xlink="http://www.w3.org/1999/xlink"><defs /><rect fill="white" height="70.09971919884265" width="66.4748203201384" x="0" y="0" /><path d="M32.943481989204884,32.03213700093329 m-0.41162624955177307,-2.728181481361389 l-0.37202324718236923,-1.2888877093791962 -1.1301301419734955,-1.8373213708400726 l-1.6483339667320251,-1.097882017493248 -1.9882024824619293,-0.07986442185938358 l-1.1994406580924988,0.6479115039110184 -0.7916250824928284,1.2211224436759949 l-0.4021001607179642,2.3983927071094513 0.3802896663546562,1.811094880104065 l4.468042850494385,4.82298344373703 -0.7849828898906708,0.48905886709690094 l-2.82707542181015,1.949029117822647 -0.7569528371095657,1.3705635070800781 l-0.18884114921092987,2.0579878985881805 0.5570194870233536,1.2672683596611023 l1.110043227672577,0.7780312746763229 3.232203722000122,0.3299528732895851 l1.5985031425952911,-0.730881541967392 2.0883721113204956,-3.178194761276245 l0.6033284962177277,-2.35305517911911 0.11100995354354382,-1.9883090257644653 l0.08305066265165806,-2.3455874621868134 0.4891975224018097,-2.7347150444984436 l1.055017039179802,-2.010742723941803 1.2398401647806168,-0.9001055359840393 l1.2919056415557861,-0.16980884596705437 1.0395878553390503,0.5501405149698257 l1.1482445895671844,1.8170663714408875 0.5369946360588074,2.840367555618286 l2.1849402855877997e-05,2.95032799243927 -1.0493142157793045,2.894451916217804 l-1.6016152501106262,1.6474874317646027 -1.9184698164463043,0.6850617378950119 l-0.31086985021829605,-0.3057662770152092 0.2961781807243824,-1.36257603764534 l0.671871230006218,0.273593720048666 0.35654284060001373,2.0940202474594116 l-0.4139375686645508,1.973678469657898 -1.1772003769874573,1.3095036149024963 l-1.2915006279945374,0.00036518504202831537 -0.8958081901073456,-1.2276533991098404 l-0.5283338576555252,-2.597738206386566 0.2578130178153515,-2.3626138269901276 m0.1887611299753189,-7.911485433578491 l0.8170294761657715,-0.6539870798587799 1.1589735746383667,-0.7266831398010254 l1.4935223758220673,-0.37730854004621506 1.4156611263751984,0.36512982100248337 " fill="none" stroke="black" stroke-width="1" /></svg>