<?xml version="1.0" encoding="utf-8" ?>
<svg baseProfile="full" height="1115.0" version="1.1" width="985.0" xmlns="http://www.w3.org/2000/svg" xmlns:ev="http://www.w3.org/2001/xml-events" xmlns:xlink="http://www.w3.org/1999/xlink"><defs /><rect fill="white" height="1115.0" width="985.0" x="0" y="0" /><path d="M450.0,360.0 m-20.0,-135.0 l-25.0,-65.0 -40.0,-60.0 l-80.0,-60.0 -120.0,-15.0 l-35.0,20.0 -70.0,80.0 l-35.0,75.0 10.0,105.0 l170.0,200.0 25.0,50.0 l-100.0,160.0 -40.0,205.0 l5.0,130.0 70.0,40.0 l75.0,-15.0 95.0,-105.0 l85.0,-175.0 15.0,-125.0 l0.0,320.0 15.0,25.0 l55.0,-20.0 60.0,-90.0 l20.0,-245.0 50.0,180.0 l55.0,90.0 70.0,60.0 l100.0,0.0 70.0,-45.0 l20.0,-35.0 10.0,-110.0 l-20.0,-35.0 -165.0,-145.0 l75.0,-110.0 60.0,-150.0 l30.0,-165.0 -15.0,-70.0 l-55.0,-35.0 -80.0,15.0 l-160.0,145.0 -20.0,50.0 l10.0,-120.0 -10.0,-25.0 l-30.0,-10.0 -25.0,10.0 l-45.0,115.0 -5.0,95.0 " fill="none" stroke="black" stroke-width="1" /></svg>