<?xml version="1.0" encoding="utf-8" ?>
<svg baseProfile="full" height="91.48865293711424" version="1.1" width="80.7210661868703" xmlns="http://www.w3.org/2000/svg" xmlns:ev="http://www.w3.org/2001/xml-events" xmlns:xlink="http://www.w3.org/1999/xlink"><defs /><rect fill="white" height="91.48865293711424" width="80.7210661868703" x="0" y="0" /><path d="M43.24718862771988,32.57197055994766 m-4.874587953090668,1.295807808637619 l-5.362023115158081,2.11281955242157 -2.335450202226639,1.4173038303852081 l-2.155945599079132,2.2243699431419373 -1.380894035100937,2.235405147075653 l-1.4258605241775513,3.8242504000663757 -0.7124271988868713,4.804730713367462 l7.920649295556359e-05,3.2648468017578125 0.31473569571971893,1.510852724313736 l0.7096356153488159,1.5279901027679443 1.767483651638031,2.0583637058734894 l1.8610559403896332,1.3178692758083344 2.223837524652481,0.8958353847265244 l6.350220441818237,0.8290434628725052 4.827273786067963,0.00045851829781895503 l6.4061301946640015,-4.252440631389618 1.0889537632465363,-1.7470382153987885 l1.2023067474365234,-3.5396921634674072 0.3815199062228203,-3.15517395734787 l-0.0001462219370296225,-4.066599905490875 -0.5692652985453606,-2.89431095123291 l-1.4879409968852997,-3.687000870704651 -1.4447005093097687,-2.304396778345108 l-1.6645535826683044,-1.6897198557853699 -1.9145776331424713,-1.181410402059555 l-2.143401950597763,-0.6310700625181198 -2.2375260293483734,0.0004768272992805578 l-1.4364708960056305,0.5917048454284668 m-7.888821363449097,25.270872116088867 l-1.5315532684326172,3.1015214323997498 -2.6150795817375183,3.619019091129303 l-1.2668511271476746,1.1619944870471954 m21.4709734916687,-7.925695776939392 l2.157198339700699,3.064732551574707 2.5812068581581116,3.0081725120544434 l0.9788979589939117,0.6057660654187202 m-17.355881929397583,-30.087411403656006 l-1.341366469860077,-1.432970017194748 -1.5793755650520325,-2.1699413657188416 l-2.242847979068756,-4.062100946903229 -1.1068420857191086,-2.489204555749893 l2.628331482410431,3.8862133026123047 2.839098870754242,3.6227813363075256 m12.999128103256226,1.2101180851459503 l4.805234372615814,-5.611107349395752 2.954966723918915,-2.284824401140213 l-0.04105400759726763,2.012821137905121 -1.594841182231903,6.791810393333435 l-1.0680164396762848,3.6780232191085815 m-14.30003046989441,3.2585927844047546 l-1.9033202528953552,-1.4946623146533966 -0.9790299832820892,-0.6396809220314026 l-1.621062010526657,-0.913257971405983 -0.7762912660837173,0.5207870155572891 m9.565680027008057,2.483515739440918 l-1.4239250123500824,-0.6794236600399017 -2.3463310301303864,-0.9261118620634079 l-1.6279563307762146,-0.15950370579957962 " fill="none" stroke="black" stroke-width="1" /></svg>