<?xml version="1.0" encoding="utf-8" ?>
<svg baseProfile="full" height="2175.0" version="1.1" width="1445.0" xmlns="http://www.w3.org/2000/svg" xmlns:ev="http://www.w3.org/2001/xml-events" xmlns:xlink="http://www.w3.org/1999/xlink"><defs /><rect fill="white" height="2175.0" width="1445.0" x="0" y="0" /><path d="M955.0,360.0 m-245.0,65.0 l-255.0,95.0 -130.0,85.0 l-85.0,85.0 -55.0,95.0 l-100.0,255.0 -55.0,245.0 l-5.0,145.0 25.0,110.0 l50.0,105.0 100.0,100.0 l110.0,55.0 65.0,15.0 l180.0,0.0 540.0,-75.0 l140.0,-45.0 125.0,-95.0 l55.0,-130.0 5.0,-195.0 l-55.0,-440.0 -25.0,-90.0 l-60.0,-105.0 -70.0,-80.0 l-100.0,-80.0 -85.0,-45.0 l-140.0,-45.0 -130.0,-5.0 l-80.0,20.0 -115.0,55.0 m-195.0,1295.0 l-160.0,75.0 -25.0,25.0 l-30.0,95.0 m955.0,-270.0 l15.0,50.0 -15.0,320.0 l20.0,100.0 m-385.0,-1085.0 l-5.0,-80.0 15.0,-75.0 l110.0,-395.0 25.0,-140.0 m-120.0,635.0 l420.0,145.0 145.0,90.0 m-750.0,-775.0 l-50.0,-10.0 -20.0,-25.0 l-25.0,-75.0 -135.0,-190.0 l-15.0,-50.0 m675.0,295.0 l45.0,-50.0 130.0,-250.0 l-105.0,-40.0 -305.0,-40.0 m-520.0,55.0 l115.0,-40.0 165.0,-25.0 " fill="none" stroke="black" stroke-width="1" /></svg>