<?xml version="1.0" encoding="utf-8" ?>
<svg baseProfile="full" height="1000.0" version="1.1" width="1400.0" xmlns="http://www.w3.org/2000/svg" xmlns:ev="http://www.w3.org/2001/xml-events" xmlns:xlink="http://www.w3.org/1999/xlink"><defs /><rect fill="white" height="1000.0" width="1400.0" x="0" y="0" /><path d="M390.0,65.0 m90.0,320.0 l25.0,15.0 120.0,-20.0 l150.0,-75.0 115.0,-10.0 l65.0,45.0 5.0,25.0 l-15.0,50.0 -65.0,45.0 l-235.0,90.0 -10.0,20.0 l55.0,250.0 -10.0,50.0 l-65.0,60.0 -45.0,0.0 l-35.0,-40.0 5.0,-135.0 l-15.0,-40.0 -200.0,0.0 l-70.0,30.0 -105.0,5.0 l-105.0,-10.0 -20.0,-40.0 l40.0,-55.0 175.0,-40.0 l50.0,-30.0 10.0,-25.0 l40.0,-150.0 -15.0,-60.0 l-35.0,-45.0 0.0,-60.0 l55.0,-180.0 45.0,-30.0 l20.0,5.0 80.0,105.0 m45.0,230.0 l305.0,-100.0 145.0,-25.0 l205.0,15.0 185.0,60.0 l-30.0,35.0 -125.0,70.0 l-145.0,60.0 -190.0,50.0 l-220.0,15.0 -10.0,20.0 l10.0,260.0 -30.0,150.0 l-25.0,-10.0 -140.0,-225.0 " fill="none" stroke="black" stroke-width="1" /></svg>