<?xml version="1.0" encoding="utf-8" ?>
<svg baseProfile="full" height="69.00231465697289" version="1.1" width="73.42167802155018" xmlns="http://www.w3.org/2000/svg" xmlns:ev="http://www.w3.org/2001/xml-events" xmlns:xlink="http://www.w3.org/1999/xlink"><defs /><rect fill="white" height="69.00231465697289" width="73.42167802155018" x="0" y="0" /><path d="M33.043189693526074,27.214730237610638 m1.4545020461082458,6.790053844451904 l0.28976209461688995,0.32550517469644547 4.5114874839782715,-0.38396481424570084 l1.8889227509498596,-0.34011226147413254 1.5409325063228607,-0.20652521401643753 l1.1916860938072205,-0.08179976604878902 1.288832426071167,-0.06702822167426348 l0.00045673488784814253,-0.09590367786586285 -2.926466166973114,-0.3660997003316879 l-1.8075020611286163,-0.07876280695199966 -1.2917877733707428,0.08955776691436768 l-2.6501569151878357,0.6972114741802216 -0.9359440952539444,0.2925231121480465 l-1.2504790723323822,1.1007685959339142 -0.8021736145019531,2.266432046890259 l-0.26644449681043625,2.3366647958755493 -0.14755796641111374,1.9765034317970276 l-0.26825521141290665,1.4242640137672424 -0.4958444833755493,0.7371682673692703 l-0.756983608007431,0.3711283579468727 -1.619889885187149,-0.33549822866916656 l-1.1251623928546906,-0.9947658330202103 -0.915909931063652,-2.2771117091178894 l-0.6837426871061325,-2.1808910369873047 0.00047361463657580316,-1.5639367699623108 l0.7042153179645538,-1.7232207953929901 0.03715903731063008,-1.425386518239975 l-0.848311185836792,-1.3878017663955688 -1.1569423973560333,-1.5955352783203125 l-0.7264883071184158,-1.7410263419151306 -0.2755775488913059,-1.9436198472976685 l1.1783730238676071,-1.2447760254144669 1.6763630509376526,-0.588744506239891 l4.334816634654999,0.17538636922836304 2.534307837486267,0.90938501060009 m1.8533597886562347,5.147466063499451 l0.7032984495162964,-0.24801766499876976 4.394079744815826,-0.750444233417511 l2.9761332273483276,-0.05781667307019234 2.174631357192993,0.7223112881183624 l1.5963149070739746,1.6399700939655304 -0.00021894662495469674,2.169000953435898 l-2.869376838207245,3.9824938774108887 -2.2920268774032593,1.196305900812149 l-2.9636922478675842,0.46492546796798706 -4.190773665904999,-0.8022826164960861 l-0.7163656502962112,-0.6846607476472855 -0.48970337957143784,-2.633831202983856 " fill="none" stroke="black" stroke-width="1" /></svg>