<?xml version="1.0" encoding="utf-8" ?>
<svg baseProfile="full" height="84.28794720210135" version="1.1" width="79.59645889699459" xmlns="http://www.w3.org/2000/svg" xmlns:ev="http://www.w3.org/2001/xml-events" xmlns:xlink="http://www.w3.org/1999/xlink"><defs /><rect fill="white" height="84.28794720210135" width="79.59645889699459" x="0" y="0" /><path d="M26.806406364266877,37.373859882354736 m-0.23869045078754425,-1.2571322917938232 l0.08670493960380554,-5.167362093925476 4.497626721858978,-5.949365496635437 l3.252960741519928,6.66499137878418 1.105843186378479,1.9386465847492218 l1.340961754322052,0.14981460757553577 3.6152416467666626,-0.8740375936031342 l6.922410726547241,-2.569798231124878 3.718445599079132,-0.6275732815265656 l0.6277508288621902,2.2635257244110107 1.110050305724144,5.5659425258636475 l0.4809097945690155,7.592799067497253 -1.9074665009975433,7.684784531593323 l-1.512010097503662,2.242492437362671 -2.7484071254730225,2.1924231946468353 l-3.7807443737983704,1.4622922241687775 -4.547300636768341,0.6016440317034721 l-3.8158878684043884,-0.5556320399045944 -3.305901885032654,-1.6437798738479614 l-3.071536421775818,-2.751554250717163 -1.6287146508693695,-2.413230985403061 l-1.3944047689437866,-3.817889094352722 -0.6135861575603485,-4.6736690402030945 l-0.000661671583657153,-3.990737497806549 0.44634439051151276,-1.3040950894355774 l1.328025609254837,-1.5295140445232391 m6.777946352958679,4.782519638538361 l-0.3060438111424446,-0.47640368342399597 0.07168540731072426,-1.5874533355236053 l1.3333171606063843,-4.313732087612152 1.0807927697896957,-1.6252923011779785 l1.1696595698595047,-0.7186322659254074 1.6924174129962921,0.13154312036931515 l1.7600636184215546,1.4721417427062988 1.509295403957367,2.6059263944625854 l0.7984630018472672,3.0654338002204895 m5.480235815048218,-1.261107176542282 l0.25159822776913643,-0.9742486476898193 1.646241843700409,-2.111379951238632 l2.5951525568962097,-1.8638379871845245 1.5849117934703827,-0.3669276461005211 l0.3763517737388611,0.5483098700642586 -0.0008443494880339131,3.0973398685455322 l-1.155727580189705,3.3478128910064697 -1.5276287496089935,2.3279741406440735 m-14.830390214920044,5.892317295074463 l-0.053306473419070244,1.9017420709133148 0.30640821903944016,0.8712626248598099 l0.9450213611125946,0.5553003773093224 1.6259679198265076,-0.16633817926049232 l0.9247884154319763,-0.934264287352562 0.5293611437082291,-1.9467534124851227 l-0.5644961073994637,-0.9330055862665176 -1.044117733836174,-0.5029924958944321 l-2.2166644036769867,0.3282405436038971 m6.231486797332764,0.6742560118436813 l-0.12321319431066513,1.582724153995514 0.6818077713251114,1.3399967551231384 l1.0533073544502258,0.5963390320539474 1.6258510947227478,-0.06110849790275097 l0.9300916641950607,-0.8657568693161011 0.4061894863843918,-1.2210720777511597 l-0.2548661082983017,-1.7264360189437866 -0.7997199892997742,-1.0592865198850632 l-1.0890423506498337,-0.5383843928575516 -1.4741669595241547,0.39877839386463165 m-4.643004834651947,4.377090334892273 l-0.5455916002392769,0.32275859266519547 -0.08659382350742817,1.2573128938674927 l0.6527876108884811,0.3373507782816887 0.42830605059862137,-0.5006591603159904 l-0.2696969732642174,-1.1286935955286026 -0.6901869177818298,-0.17485590651631355 l-0.4178280383348465,0.6956491619348526 m0.4881615564227104,0.23954331874847412 l-0.264473557472229,1.9039011001586914 -0.49156248569488525,0.5255353078246117 l-0.7580512762069702,-0.22675905376672745 -0.5646843835711479,-1.0718312859535217 m2.382964789867401,-0.9558999538421631 l0.7003989815711975,1.5812002122402191 1.1694544553756714,0.5222756043076515 l0.9424475580453873,-0.4893985763192177 0.5411079525947571,-1.1794306337833405 m-3.583834171295166,-3.8594353199005127 l2.7631351351737976,-2.062891572713852 m-0.6904848664999008,2.791833281517029 l1.9004324078559875,-1.0292085260152817 m-6.182934045791626,-0.14873177744448185 l-1.400063931941986,-1.3775759935379028 " fill="none" stroke="black" stroke-width="1" /></svg>