<?xml version="1.0" encoding="utf-8" ?>
<svg baseProfile="full" height="1905.0" version="1.1" width="1485.0" xmlns="http://www.w3.org/2000/svg" xmlns:ev="http://www.w3.org/2001/xml-events" xmlns:xlink="http://www.w3.org/1999/xlink"><defs /><rect fill="white" height="1905.0" width="1485.0" x="0" y="0" /><path d="M85.0,835.0 m-20.0,-60.0 l0.0,-260.0 105.0,-395.0 l130.0,230.0 70.0,185.0 l45.0,175.0 220.0,10.0 l445.0,-45.0 170.0,0.0 l35.0,-370.0 90.0,-280.0 l25.0,25.0 55.0,200.0 l5.0,540.0 -60.0,230.0 l-75.0,150.0 -220.0,205.0 l-170.0,70.0 -150.0,5.0 l-95.0,-15.0 -205.0,0.0 l-160.0,-65.0 -100.0,-100.0 l-70.0,-180.0 -110.0,-180.0 l-20.0,-80.0 15.0,-40.0 m640.0,230.0 l210.0,-5.0 -180.0,245.0 l-5.0,-100.0 -45.0,-130.0 l15.0,195.0 -10.0,220.0 l-80.0,5.0 -60.0,-35.0 l-40.0,-55.0 -25.0,-125.0 l0.0,-70.0 25.0,-30.0 m265.0,95.0 l0.0,55.0 70.0,120.0 l65.0,35.0 55.0,0.0 l25.0,-15.0 40.0,-95.0 l10.0,-195.0 m30.0,-240.0 l15.0,-25.0 130.0,0.0 l25.0,-15.0 -80.0,-10.0 l-55.0,30.0 30.0,20.0 l105.0,-5.0 55.0,-35.0 l0.0,-15.0 m-665.0,65.0 l-50.0,-15.0 65.0,10.0 l-50.0,-15.0 -60.0,0.0 l-25.0,15.0 80.0,15.0 m-40.0,610.0 l165.0,150.0 65.0,25.0 l125.0,5.0 65.0,-35.0 l65.0,-100.0 65.0,-190.0 m-270.0,370.0 l40.0,100.0 95.0,30.0 l110.0,0.0 80.0,-55.0 l20.0,-35.0 15.0,-55.0 l-15.0,-35.0 -105.0,-30.0 l-110.0,-5.0 -50.0,30.0 l-15.0,50.0 m80.0,75.0 l0.0,0.0 m50.0,-75.0 l0.0,0.0 m35.0,5.0 l0.0,0.0 m-50.0,30.0 l0.0,0.0 " fill="none" stroke="black" stroke-width="1" /></svg>