<?xml version="1.0" encoding="utf-8" ?>
<svg baseProfile="full" height="2420.0" version="1.1" width="1980.0" xmlns="http://www.w3.org/2000/svg" xmlns:ev="http://www.w3.org/2001/xml-events" xmlns:xlink="http://www.w3.org/1999/xlink"><defs /><rect fill="white" height="2420.0" width="1980.0" x="0" y="0" /><path d="M1175.0,425.0 m-85.0,25.0 l-75.0,85.0 -75.0,150.0 l-85.0,370.0 15.0,100.0 l25.0,50.0 60.0,45.0 l95.0,-20.0 115.0,-90.0 l90.0,-105.0 100.0,-180.0 l50.0,-120.0 0.0,-75.0 l-75.0,-110.0 -65.0,-40.0 l-65.0,-5.0 -105.0,10.0 m-160.0,690.0 l100.0,445.0 25.0,300.0 m5.0,35.0 l-230.0,365.0 m275.0,-295.0 l195.0,145.0 360.0,175.0 l95.0,20.0 m-765.0,-1130.0 l25.0,-5.0 35.0,15.0 l475.0,270.0 m-645.0,-280.0 l-455.0,250.0 m565.0,-200.0 l-50.0,-75.0 -85.0,-185.0 l-35.0,-30.0 -95.0,-55.0 l-200.0,-30.0 -165.0,10.0 l-275.0,55.0 -35.0,70.0 l-30.0,200.0 0.0,85.0 l75.0,255.0 60.0,90.0 l25.0,10.0 205.0,-50.0 l215.0,85.0 340.0,-80.0 m40.0,-415.0 l165.0,-55.0 335.0,-170.0 l160.0,-40.0 110.0,25.0 l50.0,35.0 135.0,210.0 l10.0,40.0 5.0,180.0 l-25.0,30.0 -70.0,35.0 l-220.0,65.0 -470.0,100.0 l-80.0,-125.0 -105.0,-265.0 m-70.0,-1125.0 l150.0,30.0 145.0,-35.0 l45.0,-45.0 15.0,-45.0 l-40.0,-60.0 -55.0,-15.0 l-75.0,0.0 -120.0,60.0 l-20.0,80.0 " fill="none" stroke="black" stroke-width="1" /></svg>