<?xml version="1.0" encoding="utf-8" ?>
<svg baseProfile="full" height="80.12244215933606" version="1.1" width="95.32095733797178" xmlns="http://www.w3.org/2000/svg" xmlns:ev="http://www.w3.org/2001/xml-events" xmlns:xlink="http://www.w3.org/1999/xlink"><defs /><rect fill="white" height="80.12244215933606" width="95.32095733797178" x="0" y="0" /><path d="M51.09346045181155,25.300447596237063 m-1.670127809047699,0.5322011187672615 l-2.588144838809967,1.9269344210624695 -2.2225844860076904,2.8399312496185303 l-1.2280664592981339,2.9949769377708435 -0.25425175204873085,4.173190891742706 l0.8460351824760437,1.9675345718860626 1.605827510356903,1.5251581370830536 l1.4746956527233124,0.5201276764273643 2.4393676221370697,0.0072633568197488785 l2.002701610326767,-0.8953921496868134 1.9634656608104706,-1.7369653284549713 l1.5248668193817139,-2.300700545310974 0.8796927332878113,-2.756042778491974 l0.1741606555879116,-2.8826627135276794 -0.5315863713622093,-2.3409312963485718 l-1.257036179304123,-2.0051947236061096 -1.615498661994934,-1.2684135138988495 l-1.753363162279129,-0.6014629080891609 -1.8419909477233887,0.038492854218930006 m-2.8934472799301147,13.033263683319092 l-1.0886706411838531,2.255655974149704 -1.9637253880500793,3.404589593410492 l-4.337264001369476,6.721001863479614 -2.6739823818206787,3.092276453971863 l-0.26194212958216667,1.0830361396074295 0.5554186925292015,0.4146477207541466 l11.666454076766968,0.07947787642478943 10.496923923492432,-0.5015082657337189 l0.310235396027565,-0.501723438501358 -0.5038218200206757,-1.946500539779663 l-2.301027774810791,-4.190065860748291 -3.5739368200302124,-6.355034708976746 l-1.1209987848997116,-2.7587169408798218 m-5.732331275939941,-1.423904001712799 l-1.1543325334787369,-1.2461984157562256 -2.8668779134750366,-2.0208801329135895 l-4.836497902870178,-2.8132182359695435 -4.82913613319397,-2.096014767885208 l-3.220609426498413,-0.9024499356746674 -1.5603940188884735,-0.03287044120952487 l-1.0922736674547195,0.46789098531007767 -0.7235351949930191,0.9646960347890854 l-0.33585023134946823,2.017996609210968 0.17564618960022926,1.6009105741977692 l0.6182431429624557,1.331779658794403 1.4421921968460083,1.6101671755313873 l3.004823327064514,1.829569935798645 3.722486197948456,1.256665587425232 l-0.7256203144788742,1.9719137251377106 -0.8159101009368896,2.2588464617729187 l0.024721005465835333,1.5904386341571808 0.586770735681057,1.0582450032234192 l1.4735615253448486,1.085527017712593 2.2110354900360107,0.6015544384717941 l2.6295632123947144,-0.0015777788939885795 2.125704139471054,-0.6867757439613342 l1.9389356672763824,-1.3100163638591766 m10.467650890350342,-9.779921770095825 l1.3857081532478333,-1.7835098505020142 3.5368525981903076,-2.843419909477234 l3.635561168193817,-1.6190215945243835 2.686496078968048,-0.4546360671520233 l2.2036127746105194,0.1399927120655775 1.5499036014080048,0.8508553355932236 l1.078610047698021,1.4347298443317413 0.3644096106290817,1.3572292029857635 l-0.23110117763280869,2.1925269067287445 -1.259000450372696,2.085847407579422 l-1.875833421945572,1.722179502248764 -3.02097350358963,1.545495092868805 l1.0079073905944824,1.2002115696668625 0.807831734418869,1.597866266965866 l-0.0031375393155030906,1.1251561343669891 -0.9356263279914856,1.3593247532844543 l-1.8467381596565247,1.0916657745838165 " fill="none" stroke="black" stroke-width="1" /></svg>