<?xml version="1.0" encoding="utf-8" ?>
<svg baseProfile="full" height="84.4604173116386" version="1.1" width="91.21875245429692" xmlns="http://www.w3.org/2000/svg" xmlns:ev="http://www.w3.org/2001/xml-events" xmlns:xlink="http://www.w3.org/1999/xlink"><defs /><rect fill="white" height="84.4604173116386" width="91.21875245429692" x="0" y="0" /><path d="M44.31479015756395,36.827077805664885 m-1.8192003667354584,-2.09797739982605 l-1.2716823816299438,-1.8341898918151855 -3.8296374678611755,-3.3875685930252075 l-2.88697212934494,-1.4732521772384644 -2.282250076532364,-0.4853169247508049 l-2.131502777338028,0.00021547484720940702 -1.4377206563949585,0.6307137757539749 l-1.1653001606464386,1.1960700154304504 -1.1128538101911545,2.4166472256183624 l-0.3643503412604332,2.1375322341918945 -3.611106421885779e-05,3.0838987231254578 l0.6511043012142181,1.9985249638557434 1.0732126981019974,1.5103518962860107 l2.077682912349701,1.4662502706050873 -0.35399332642555237,0.7869353145360947 l-1.5038864314556122,1.5202359855175018 -1.8999646604061127,3.1587940454483032 l-1.0574393719434738,3.9963147044181824 0.00011520911357365549,3.6100217700004578 l0.910802036523819,2.177034616470337 1.5824759006500244,1.3668762147426605 l3.1676828861236572,0.8552272617816925 6.491460204124451,-1.1383172124624252 l6.754810810089111,-5.194485187530518 m4.8606181144714355,-16.145126819610596 l-0.1289195567369461,4.679714739322662 0.0044707380584441125,8.712242245674133 l0.3903242200613022,5.471808314323425 0.944892019033432,2.8456369042396545 l0.6145274266600609,0.5286991223692894 3.1789004802703857,-1.6445711255073547 l1.6723887622356415,-2.405102103948593 1.3394923508167267,-4.460847079753876 l0.45361001044511795,-5.575779676437378 -1.074298769235611,-7.127102613449097 l-1.167784407734871,-2.24641352891922 -1.3155369460582733,-1.3085035979747772 l-1.4725393056869507,-0.6557413190603256 -2.315150201320648,-0.11899380013346672 l-0.9546875208616257,0.9053686261177063 -0.7344142347574234,2.3083116114139557 l3.3655425906181335,-1.1900942027568817 3.0102121829986572,-2.374226599931717 l1.6481903195381165,-1.5218587219715118 1.4692826569080353,-1.566157042980194 l1.2230031192302704,-1.442299485206604 2.1626850962638855,-2.2510971128940582 l2.0903778076171875,-0.5615900829434395 1.7374581098556519,0.679694190621376 l1.3087603449821472,2.244355231523514 -0.0002665765168785583,3.599996864795685 l-1.7868642508983612,3.671500086784363 -4.714073538780212,5.320323705673218 l-6.159176826477051,4.443926811218262 -4.080479443073273,2.0815509557724 m-2.517532706260681,-15.1926851272583 l-2.8935784101486206,-3.2753801345825195 -2.054494172334671,-2.1194998919963837 l-2.0128899812698364,-1.877359002828598 m8.99609088897705,6.8421995639801025 l-0.5141493305563927,-1.1755970120429993 -0.9302535653114319,-1.7152555286884308 l-1.1081833392381668,-2.3278097808361053 -1.0698460787534714,-2.18385249376297 " fill="none" stroke="black" stroke-width="1" /></svg>