<?xml version="1.0" encoding="utf-8" ?>
<svg baseProfile="full" height="1920.0" version="1.1" width="1800.0" xmlns="http://www.w3.org/2000/svg" xmlns:ev="http://www.w3.org/2001/xml-events" xmlns:xlink="http://www.w3.org/1999/xlink"><defs /><rect fill="white" height="1920.0" width="1800.0" x="0" y="0" /><path d="M830.0,690.0 m-85.0,-105.0 l-60.0,-105.0 -195.0,-185.0 l-55.0,-35.0 -120.0,-40.0 l-85.0,0.0 -60.0,25.0 l-50.0,50.0 -75.0,140.0 l-20.0,60.0 5.0,70.0 l35.0,60.0 85.0,55.0 l50.0,60.0 -75.0,250.0 l-90.0,550.0 25.0,240.0 l40.0,45.0 50.0,0.0 l55.0,-25.0 395.0,-320.0 l60.0,-60.0 210.0,-325.0 l35.0,-145.0 m20.0,40.0 l45.0,195.0 90.0,165.0 l220.0,255.0 180.0,260.0 l75.0,30.0 45.0,-190.0 l155.0,-245.0 40.0,-95.0 l-60.0,-150.0 -270.0,-195.0 l-115.0,-120.0 -5.0,-25.0 l200.0,-205.0 100.0,-220.0 l5.0,-105.0 -35.0,-105.0 l-60.0,-95.0 -110.0,-45.0 l-70.0,45.0 -230.0,240.0 l-95.0,190.0 -110.0,130.0 l-80.0,165.0 -30.0,20.0 l-25.0,-15.0 15.0,-40.0 m80.0,-180.0 l0.0,-105.0 -75.0,-325.0 l-150.0,-75.0 -205.0,-55.0 l-145.0,-20.0 m585.0,465.0 l-15.0,-175.0 30.0,-250.0 l30.0,-65.0 30.0,-25.0 l130.0,10.0 " fill="none" stroke="black" stroke-width="1" /></svg>