<?xml version="1.0" encoding="utf-8" ?>
<svg baseProfile="full" height="70.89352003975364" version="1.1" width="77.17301715083657" xmlns="http://www.w3.org/2000/svg" xmlns:ev="http://www.w3.org/2001/xml-events" xmlns:xlink="http://www.w3.org/1999/xlink"><defs /><rect fill="white" height="70.89352003975364" width="77.17301715083657" x="0" y="0" /><path d="M34.20265167951584,27.75547444642143 m-1.7499543726444244,-0.6889432668685913 l-2.7906543016433716,0.30072547495365143 -2.07437202334404,1.0512817651033401 l-1.3967423141002655,1.2248165160417557 -0.8087500184774399,1.3984766602516174 l-0.3821786493062973,2.2080469131469727 0.5770977959036827,2.2538185119628906 l0.6629837304353714,0.871133878827095 2.4327610433101654,1.1942759156227112 l1.4730243384838104,0.16767339780926704 -0.7489269971847534,0.4602953791618347 l-2.254325896501541,2.012619972229004 -0.6865721940994263,1.605565994977951 l0.060524558648467064,2.290997952222824 0.9646739810705185,1.2039707601070404 l1.4661122858524323,0.5828545615077019 3.237568438053131,0.0004352062751422636 l1.9134950637817383,-0.9350904077291489 1.2495507299900055,-1.2865249812602997 m0.914936438202858,-15.613107681274414 l0.039784363470971584,0.26268353685736656 1.3081233203411102,1.5695756673812866 l1.4655359089374542,5.079411268234253 0.6407874077558517,5.1744455099105835 l0.07590798195451498,2.628491222858429 -0.1805080845952034,0.8227863907814026 l-0.9088525921106339,0.0003223332896595821 -1.7730815708637238,-2.9691678285598755 l-0.8100234717130661,-2.607899010181427 -5.409842884773752e-07,-4.016995131969452 m2.2099174559116364,-1.4709572494029999 l5.3565895557403564,-4.058350622653961 2.8828537464141846,-1.136680394411087 l2.9984503984451294,-0.2860042080283165 1.3802902400493622,0.521182157099247 l1.0310650616884232,1.4529862999916077 0.19327465444803238,1.320483684539795 l-0.9202802926301956,2.019420862197876 -2.3639239370822906,2.0627234876155853 l-3.109235167503357,1.305667757987976 2.9598382115364075,0.46065554022789 l1.8520140647888184,1.2359539419412613 0.7781771570444107,1.1532442271709442 l0.11739995330572128,1.722288578748703 -1.2636606395244598,1.8236352503299713 l-1.4789500832557678,0.8388431370258331 -3.062472343444824,0.5157555639743805 l-3.923627734184265,-0.3121083229780197 -3.2347041368484497,-1.1574261635541916 m-2.6123619079589844,-11.985667943954468 l-0.783379003405571,-1.7021659016609192 -1.2350131571292877,-1.5152020752429962 l-1.5875160694122314,-1.111672967672348 -2.0540769398212433,-0.6990555673837662 l-1.2604264914989471,0.00029306338547030464 -0.728810578584671,0.45460276305675507 l-0.2827763743698597,0.7450114190578461 " fill="none" stroke="black" stroke-width="1" /></svg>