<?xml version="1.0" encoding="utf-8" ?>
<svg baseProfile="full" height="1035.0" version="1.1" width="1295.0" xmlns="http://www.w3.org/2000/svg" xmlns:ev="http://www.w3.org/2001/xml-events" xmlns:xlink="http://www.w3.org/1999/xlink"><defs /><rect fill="white" height="1035.0" width="1295.0" x="0" y="0" /><path d="M480.0,120.0 m-85.0,-35.0 l-130.0,15.0 -115.0,55.0 l-65.0,45.0 -30.0,40.0 l-25.0,100.0 20.0,135.0 l25.0,65.0 65.0,40.0 l135.0,-5.0 -225.0,140.0 l-25.0,60.0 0.0,45.0 l45.0,125.0 50.0,50.0 l185.0,15.0 165.0,-75.0 l120.0,-155.0 10.0,-35.0 m-10.0,60.0 l20.0,-160.0 -5.0,-235.0 l-125.0,-320.0 80.0,470.0 l15.0,195.0 -10.0,70.0 l20.0,80.0 115.0,85.0 l95.0,15.0 45.0,-20.0 l45.0,-50.0 45.0,-120.0 l-25.0,-205.0 -220.0,-530.0 m225.0,885.0 l120.0,-10.0 100.0,-75.0 l55.0,-70.0 20.0,-90.0 l-30.0,-70.0 -105.0,-90.0 l-85.0,0.0 25.0,10.0 l40.0,-15.0 110.0,-75.0 l100.0,-105.0 10.0,-45.0 l-45.0,-100.0 -60.0,-85.0 l-75.0,-75.0 -95.0,-45.0 l-110.0,0.0 -95.0,30.0 l-60.0,45.0 -25.0,80.0 m-270.0,15.0 l-25.0,-70.0 " fill="none" stroke="black" stroke-width="1" /></svg>