<?xml version="1.0" encoding="utf-8" ?>
<svg baseProfile="full" height="74.91585002808279" version="1.1" width="118.47591783851385" xmlns="http://www.w3.org/2000/svg" xmlns:ev="http://www.w3.org/2001/xml-events" xmlns:xlink="http://www.w3.org/1999/xlink"><defs /><rect fill="white" height="74.91585002808279" width="118.47591783851385" x="0" y="0" /><path d="M25.873430222272873,43.08007672429085 m-0.8734302222728729,-7.892168760299683 l0.12642184272408485,-3.6108943819999695 2.006581574678421,-3.258674442768097 l2.604588270187378,-1.6478991508483887 3.344636559486389,-0.9848714619874954 l10.996508598327637,-0.6855685263872147 14.229321479797363,0.28103776276111603 l14.241055250167847,0.7012353837490082 9.808349013328552,1.047404259443283 l5.574129819869995,1.2374193966388702 2.859543561935425,1.5213388204574585 l1.6767366230487823,2.1508964896202087 0.8910851925611496,3.1304842233657837 l0.11696005240082741,6.874017119407654 -0.626971498131752,2.839251458644867 l-0.5729016289114952,0.4047868773341179 -4.966159760951996,-0.33546771854162216 l-3.68150532245636,-0.5498766899108887 -2.7538982033729553,-0.3782708942890167 l-2.4286119639873505,-0.1298938412219286 -2.465067058801651,-0.003166717942804098 l-7.040842771530151,0.006543656927533448 -8.44789445400238,-0.2629043348133564 l-1.387379914522171,-2.0593416690826416 -1.5741947293281555,-1.612781286239624 l-3.010258972644806,-1.7554764449596405 -1.900203824043274,-0.4234456643462181 l-2.09592267870903,0.3035026974976063 -2.9757988452911377,2.2460930049419403 l-0.7325129210948944,1.306598037481308 -8.14234972000122,0.3126763552427292 l-6.626644730567932,-0.08899210952222347 m10.647411346435547,0.18699562177062035 l-0.7117380201816559,0.4495671018958092 -0.6661147624254227,0.9815043210983276 l-0.5422559380531311,2.5226175785064697 0.4198988527059555,1.1929401755332947 l0.9610430896282196,0.6841720640659332 2.2620639204978943,0.00036622866900870577 l1.194612756371498,-0.9150301665067673 0.5896776542067528,-1.3908086717128754 l-0.16770081594586372,-2.2275057435035706 -1.7803725600242615,-1.283753216266632 m30.764131546020508,0.9208475053310394 l-1.5182046592235565,1.809026300907135 -0.5520473048090935,3.0518367886543274 l0.9741654992103577,1.4936365187168121 1.380416452884674,0.6757694482803345 l3.251412808895111,-0.04978009965270758 1.1338140815496445,-2.8264278173446655 l-0.2735104225575924,-3.0500754714012146 -1.5449771285057068,-1.318705976009369 l-2.4830789864063263,-0.7467307895421982 m-25.218303203582764,-15.494588613510132 l-0.4914397746324539,2.1079379320144653 -0.3823564201593399,3.918050229549408 l6.614848971366882,0.9018454700708389 4.035855829715729,0.16527734696865082 l3.150574266910553,-0.010284918826073408 0.4834159091114998,-3.337353467941284 l-0.4518332704901695,-3.4416499733924866 -0.5724302306771278,-0.484960712492466 l-8.484013080596924,0.15432970598340034 -4.392416477203369,0.3741811588406563 " fill="none" stroke="black" stroke-width="1" /></svg>