<?xml version="1.0" encoding="utf-8" ?>
<svg baseProfile="full" height="1200.0" version="1.1" width="3455.0" xmlns="http://www.w3.org/2000/svg" xmlns:ev="http://www.w3.org/2001/xml-events" xmlns:xlink="http://www.w3.org/1999/xlink"><defs /><rect fill="white" height="1200.0" width="3455.0" x="0" y="0" /><path d="M75.0,935.0 m-50.0,-425.0 l0.0,-190.0 75.0,-150.0 l115.0,-85.0 175.0,-40.0 l290.0,-20.0 865.0,0.0 l985.0,40.0 355.0,30.0 l155.0,75.0 130.0,185.0 l155.0,290.0 105.0,290.0 l0.0,100.0 -100.0,55.0 l-150.0,35.0 -425.0,-5.0 l-230.0,-40.0 -35.0,75.0 l-75.0,20.0 -75.0,0.0 l-150.0,-90.0 -80.0,-30.0 m-45.0,-35.0 l-130.0,-35.0 -195.0,-25.0 l-460.0,5.0 -10.0,75.0 l-45.0,45.0 -165.0,85.0 l-75.0,0.0 -125.0,-60.0 l-45.0,-50.0 -30.0,-100.0 l-35.0,-15.0 -110.0,-25.0 l-230.0,-20.0 -285.0,0.0 m120.0,-400.0 l560.0,10.0 5.0,-50.0 l-75.0,-295.0 -25.0,-20.0 l-290.0,20.0 -65.0,20.0 l-45.0,80.0 -25.0,175.0 m920.0,-200.0 l45.0,255.0 20.0,230.0 l40.0,165.0 450.0,100.0 l190.0,0.0 5.0,-25.0 l-195.0,-315.0 -40.0,-100.0 l-25.0,-140.0 -45.0,-100.0 l-75.0,-40.0 -100.0,-20.0 l-320.0,-5.0 25.0,15.0 " fill="none" stroke="black" stroke-width="1" /></svg>