<?xml version="1.0" encoding="utf-8" ?>
<svg baseProfile="full" height="1110.0" version="1.1" width="1360.0" xmlns="http://www.w3.org/2000/svg" xmlns:ev="http://www.w3.org/2001/xml-events" xmlns:xlink="http://www.w3.org/1999/xlink"><defs /><rect fill="white" height="1110.0" width="1360.0" x="0" y="0" /><path d="M575.0,50.0 m-80.0,0.0 l-120.0,55.0 -55.0,60.0 l0.0,110.0 65.0,100.0 l50.0,40.0 275.0,50.0 l45.0,-30.0 60.0,-105.0 l10.0,-170.0 -75.0,-120.0 l-70.0,-15.0 -100.0,0.0 m-105.0,445.0 l-25.0,30.0 -50.0,130.0 l-90.0,160.0 -95.0,120.0 l-75.0,125.0 275.0,45.0 l340.0,5.0 110.0,-15.0 l75.0,-30.0 15.0,-25.0 l0.0,-50.0 -45.0,-100.0 l-140.0,-195.0 -70.0,-205.0 m80.0,175.0 l0.0,-80.0 85.0,-145.0 l110.0,-145.0 105.0,-90.0 l80.0,-25.0 75.0,0.0 l35.0,40.0 20.0,100.0 l0.0,45.0 -50.0,25.0 l95.0,80.0 0.0,60.0 l-80.0,20.0 -150.0,5.0 l70.0,90.0 15.0,75.0 l-55.0,25.0 -255.0,5.0 m-465.0,-270.0 l-255.0,-210.0 -50.0,-25.0 l-30.0,0.0 -25.0,20.0 l0.0,120.0 25.0,65.0 l65.0,65.0 50.0,5.0 l-5.0,25.0 -85.0,60.0 l-80.0,100.0 45.0,30.0 l180.0,5.0 -25.0,0.0 l25.0,10.0 75.0,-5.0 l70.0,-45.0 " fill="none" stroke="black" stroke-width="1" /></svg>