<?xml version="1.0" encoding="utf-8" ?>
<svg baseProfile="full" height="71.50020819157362" version="1.1" width="80.12226235121489" xmlns="http://www.w3.org/2000/svg" xmlns:ev="http://www.w3.org/2001/xml-events" xmlns:xlink="http://www.w3.org/1999/xlink"><defs /><rect fill="white" height="71.50020819157362" width="80.12226235121489" x="0" y="0" /><path d="M40.27051699813455,26.45472014846746 m-1.62852942943573,-0.009365850710310042 l-1.3292713463306427,0.5583954602479935 -1.8101665377616882,1.7009013891220093 l-0.569281093776226,1.4040611684322357 0.19568070769309998,2.172527313232422 l1.7174284160137177,1.4251531660556793 4.962265193462372,0.6806160509586334 l1.8424543738365173,-0.8420178294181824 1.261453926563263,-1.5621156990528107 l0.5111008509993553,-1.982419192790985 -0.2565123699605465,-1.9903354346752167 l-1.0054250061511993,-1.4772696793079376 -1.6914485394954681,-1.104700192809105 l-1.9959314167499542,-0.42815081775188446 -2.0569172501564026,0.18026553094387054 m-0.6392354518175125,7.995520234107971 l-0.5026475340127945,1.460626870393753 -2.045956552028656,4.534884393215179 l-2.0153962075710297,3.9322784543037415 -0.7039286196231842,1.8110857903957367 l0.45790761709213257,0.41399363428354263 8.74208688735962,0.7867091149091721 l5.060586333274841,0.38484416902065277 0.3220238536596298,-0.4875218868255615 l-0.17450379207730293,-1.350705623626709 -3.0647891759872437,-5.938110947608948 l-2.104535549879074,-4.2357853055000305 m-3.6093613505363464,-0.23743998259305954 l-2.068902999162674,-1.7027179896831512 -2.793513238430023,-1.6211891174316406 l-3.7085360288619995,-1.5937179327011108 -1.9401143491268158,-0.3933844715356827 l-1.148887574672699,0.14716951176524162 -0.8953633904457092,0.6911632418632507 l-0.5359479039907455,1.1502443999052048 -0.048402450047433376,1.451055109500885 l0.47601599246263504,1.0885326564311981 1.3270626962184906,1.3418099284172058 l2.0104850828647614,1.0947032272815704 -0.6536732614040375,1.2823735177516937 l-0.5266199633479118,1.742517501115799 0.26181405410170555,1.2914654612541199 l0.880839079618454,0.8519215881824493 1.8825297057628632,0.6718793511390686 l2.413015514612198,0.05649702623486519 1.6846458613872528,-0.5817338824272156 l1.376512348651886,-1.2150812149047852 m7.943792343139648,-5.660637617111206 l1.302904337644577,-1.773085743188858 1.310926228761673,-1.0879237204790115 l2.1882708370685577,-1.0506206005811691 2.2766320407390594,-0.3580964356660843 l1.747986078262329,0.24409007281064987 1.3492372632026672,0.951230525970459 l0.7418190687894821,1.4709842205047607 0.1280670426785946,1.7583581805229187 l-0.5674923211336136,1.466064453125 -1.3644775748252869,1.3914330303668976 l-1.7586901783943176,0.8480958640575409 -1.9995883107185364,0.1918306015431881 l-0.9770680963993073,-0.30171090736985207 -0.5116722732782364,-0.6078809499740601 l-0.013278679689392447,-0.7125397771596909 0.9291794151067734,-0.740746483206749 l1.5850147604942322,-0.2739197015762329 1.33768692612648,0.3015839494764805 " fill="none" stroke="black" stroke-width="1" /></svg>