<?xml version="1.0" encoding="utf-8" ?>
<svg baseProfile="full" height="2155.0" version="1.1" width="1870.0" xmlns="http://www.w3.org/2000/svg" xmlns:ev="http://www.w3.org/2001/xml-events" xmlns:xlink="http://www.w3.org/1999/xlink"><defs /><rect fill="white" height="2155.0" width="1870.0" x="0" y="0" /><path d="M1185.0,40.0 m-280.0,-5.0 l-175.0,20.0 -185.0,60.0 l-150.0,90.0 -115.0,115.0 l-100.0,130.0 -100.0,260.0 l-45.0,190.0 -10.0,195.0 l25.0,190.0 120.0,375.0 l170.0,230.0 85.0,70.0 l125.0,90.0 185.0,70.0 l85.0,10.0 175.0,-5.0 l180.0,-50.0 80.0,-35.0 l230.0,-170.0 130.0,-160.0 l115.0,-180.0 35.0,-85.0 l75.0,-380.0 5.0,-85.0 l-55.0,-315.0 -25.0,-75.0 l-80.0,-135.0 -140.0,-160.0 l-160.0,-125.0 -205.0,-115.0 l-120.0,-25.0 m-40.0,-5.0 l-30.0,235.0 -65.0,300.0 l-20.0,510.0 50.0,30.0 l270.0,65.0 450.0,40.0 m0.0,-15.0 l-50.0,-70.0 -70.0,-175.0 m145.0,235.0 l-65.0,20.0 -235.0,125.0 l-40.0,45.0 " fill="none" stroke="black" stroke-width="1" /></svg>