<?xml version="1.0" encoding="utf-8" ?>
<svg baseProfile="full" height="96.80571423843503" version="1.1" width="90.71981715038419" xmlns="http://www.w3.org/2000/svg" xmlns:ev="http://www.w3.org/2001/xml-events" xmlns:xlink="http://www.w3.org/1999/xlink"><defs /><rect fill="white" height="96.80571423843503" width="90.71981715038419" x="0" y="0" /><path d="M48.453285582363605,26.357886288315058 m-5.723316073417664,-0.1110999658703804 l-3.303111493587494,0.7190178334712982 -3.4336984157562256,1.6010288894176483 l-2.9291048645973206,2.2426913678646088 -2.5202885270118713,2.884523570537567 l-2.0560407638549805,3.385378420352936 -2.046937048435211,5.0452423095703125 l-0.9581635892391205,4.234285056591034 -0.4826248064637184,5.684037804603577 l0.24177098646759987,5.2143555879592896 0.9243685752153397,3.4481683373451233 l1.586984246969223,3.132174015045166 2.19627782702446,2.715148627758026 l2.7204015851020813,2.204098701477051 2.9921755194664,1.55997633934021 l3.4373128414154053,1.0481054335832596 3.833838403224945,0.440695621073246 l5.195544362068176,-0.20929446443915367 3.4119972586631775,-0.8557754755020142 l3.400072753429413,-1.5123862028121948 3.134147524833679,-2.1766693890094757 l2.5397205352783203,-2.6402318477630615 2.117706388235092,-3.251827657222748 l1.8901926279067993,-4.901761114597321 0.7883046567440033,-3.8924640417099 l0.30900105834007263,-4.071030914783478 -0.11070860549807549,-3.8999706506729126 l-0.6699799746274948,-3.458074629306793 -1.893925964832306,-4.850328266620636 l-1.8011577427387238,-3.134477436542511 -2.1601855754852295,-2.738160192966461 l-2.4943292140960693,-2.19361811876297 -2.6897743344306946,-1.5941643714904785 l-2.9179632663726807,-1.029863953590393 -3.000815212726593,-0.39561551064252853 l-2.924942374229431,0.13497008010745049 m-0.2705512009561062,17.913496494293213 l-0.13889778405427933,-0.8267386257648468 -0.006347833550535142,-4.330556392669678 l-0.045558693818748,-4.413065314292908 -0.018932122038677335,-4.3048810958862305 m0.3266735002398491,14.908028841018677 l3.5569295287132263,0.0936980452388525 4.876800775527954,-0.6102941557765007 l4.462565779685974,-0.12662249617278576 3.9665398001670837,-0.381825752556324 " fill="none" stroke="black" stroke-width="1" /></svg>