<?xml version="1.0" encoding="utf-8" ?>
<svg baseProfile="full" height="92.40026057697833" version="1.1" width="107.19931770116091" xmlns="http://www.w3.org/2000/svg" xmlns:ev="http://www.w3.org/2001/xml-events" xmlns:xlink="http://www.w3.org/1999/xlink"><defs /><rect fill="white" height="92.40026057697833" width="107.19931770116091" x="0" y="0" /><path d="M26.868705325759947,35.36642199149355 m-0.21195119246840477,0.4820522665977478 l0.09561436250805855,12.916535139083862 0.11777031235396862,12.036961317062378 l0.10257136076688766,5.88579535484314 0.5131250247359276,0.3394724056124687 l5.188664197921753,0.034644047264009714 23.20568084716797,0.07953518070280552 l17.759703397750854,0.2588428743183613 5.774791240692139,-0.299040786921978 l0.48363570123910904,-0.5488871410489082 0.19329799339175224,-8.422526121139526 l0.16245627775788307,-10.797644853591919 -0.055837384425103664,-8.198038935661316 l-0.5723801255226135,-1.6498269140720367 -1.6399455070495605,-1.6845916211605072 l-2.6971736550331116,-1.155867949128151 -3.859635591506958,-0.7593508809804916 l-10.070550441741943,-0.3856108710169792 -11.182622909545898,0.4400946572422981 l-12.16038465499878,0.6983865797519684 -9.502530097961426,0.7400026917457581 l-3.51300448179245,0.6006753072142601 m2.3552843928337097,19.625039100646973 l0.0704573467373848,0.09808279573917389 1.612287163734436,0.3273208439350128 l5.518425107002258,0.3014161251485348 15.235719680786133,0.3724810853600502 l15.960873365402222,0.13339134864509106 10.637006759643555,0.04382922314107418 l3.0603590607643127,-0.4633346199989319 m-47.909579277038574,-4.2393094301223755 l10.637216567993164,0.9682184457778931 17.793248891830444,0.8538636565208435 l15.564994812011719,0.4115232080221176 6.663023829460144,0.1494185533374548 m-45.631465911865234,-9.622327089309692 l-0.14847132377326488,-5.0343406200408936 -0.792289674282074,-5.791425108909607 l0.006695122574456036,-6.512558460235596 1.8895405530929565,0.46056047081947327 l3.570304214954376,0.23451529443264008 -0.008806336554698646,7.149421572685242 l-0.04963917192071676,6.3111913204193115 -0.06888759788125753,1.9803783297538757 m-0.3422810882329941,-11.881575584411621 l-0.42810969054698944,-1.4973902702331543 -0.05410411860793829,-1.7909356951713562 l0.23480264469981194,-1.3364644348621368 0.5430705100297928,-1.09141007065773 l1.3559290766716003,-1.1376137286424637 0.7054772228002548,0.5571163818240166 l0.6782576441764832,4.287375807762146 -0.046190652064979076,3.445901572704315 l-0.44208183884620667,1.5476396679878235 m7.5283437967300415,3.073298931121826 l-0.03767402144148946,-2.629845142364502 -0.45786406844854355,-5.328844785690308 l1.4409515261650085,-0.3853204473853111 3.224692642688751,-0.040558818727731705 l0.1180726196616888,8.25208306312561 0.009668082348071039,2.6691079139709473 m3.7468576431274414,-4.432432949542999 l0.06678191013634205,-3.3944502472877502 0.29379742220044136,-1.5848730504512787 l0.7783132046461105,-1.298806369304657 1.4167845249176025,-0.7665910571813583 l1.7442937195301056,0.04083483014255762 0.8167506754398346,0.5974799394607544 l0.5418200790882111,1.1417559534311295 0.1822066679596901,3.2666629552841187 l-1.1539425700902939,4.608113467693329 -0.11019810102880001,1.8093255162239075 m6.362901329994202,-2.8995275497436523 l-0.47788988798856735,-2.2507554292678833 -0.09446321055293083,-5.5412328243255615 l2.8174397349357605,-0.5008197948336601 0.552896149456501,0.4437614232301712 l0.3954467549920082,1.235077902674675 -0.12489160522818565,5.880525708198547 l-0.6344679743051529,3.0000895261764526 " fill="none" stroke="black" stroke-width="1" /></svg>