<?xml version="1.0" encoding="utf-8" ?>
<svg baseProfile="full" height="1640.0" version="1.1" width="2810.0" xmlns="http://www.w3.org/2000/svg" xmlns:ev="http://www.w3.org/2001/xml-events" xmlns:xlink="http://www.w3.org/1999/xlink"><defs /><rect fill="white" height="1640.0" width="2810.0" x="0" y="0" /><path d="M35.0,35.0 m-10.0,25.0 l30.0,740.0 -30.0,500.0 l25.0,65.0 25.0,10.0 l225.0,20.0 1540.0,-20.0 l680.0,25.0 205.0,-20.0 l30.0,-15.0 30.0,-55.0 l-70.0,-815.0 -100.0,-320.0 l-80.0,-65.0 -245.0,-65.0 l-200.0,-20.0 -1320.0,60.0 l-510.0,0.0 m110.0,1320.0 l-125.0,5.0 -40.0,15.0 l-50.0,60.0 10.0,80.0 l40.0,40.0 50.0,10.0 l55.0,-10.0 55.0,-30.0 l45.0,-80.0 -10.0,-50.0 l-25.0,-20.0 -40.0,-5.0 l-30.0,20.0 m2335.0,0.0 l-15.0,-85.0 -85.0,-5.0 l-85.0,25.0 -30.0,30.0 l-10.0,50.0 25.0,110.0 l40.0,20.0 50.0,-5.0 l65.0,-75.0 15.0,-60.0 l-20.0,-40.0 -60.0,-20.0 m-2475.0,-540.0 l60.0,25.0 330.0,10.0 l145.0,-10.0 30.0,-20.0 l-50.0,-395.0 25.0,-430.0 l-25.0,25.0 m180.0,255.0 l35.0,150.0 -15.0,360.0 l60.0,25.0 315.0,-55.0 l15.0,-75.0 -25.0,-370.0 l-50.0,-30.0 -110.0,-25.0 l-150.0,-5.0 m455.0,65.0 l-30.0,270.0 5.0,150.0 l20.0,40.0 90.0,15.0 l180.0,-40.0 155.0,10.0 l25.0,-45.0 -100.0,-395.0 l-25.0,-20.0 -320.0,-10.0 m725.0,35.0 l-30.0,45.0 -15.0,395.0 l455.0,0.0 20.0,-55.0 l-35.0,-185.0 -50.0,-85.0 l-70.0,-60.0 " fill="none" stroke="black" stroke-width="1" /></svg>