<?xml version="1.0" encoding="utf-8" ?>
<svg baseProfile="full" height="1200.0" version="1.1" width="1055.0" xmlns="http://www.w3.org/2000/svg" xmlns:ev="http://www.w3.org/2001/xml-events" xmlns:xlink="http://www.w3.org/1999/xlink"><defs /><rect fill="white" height="1200.0" width="1055.0" x="0" y="0" /><path d="M650.0,1175.0 m0.0,0.0 m-280.0,-1115.0 l-210.0,130.0 -105.0,130.0 l-25.0,95.0 -5.0,360.0 l55.0,275.0 25.0,20.0 l45.0,25.0 95.0,20.0 l270.0,10.0 190.0,-30.0 l145.0,-60.0 55.0,-40.0 l85.0,-90.0 35.0,-190.0 l5.0,-300.0 -50.0,-110.0 l-60.0,-65.0 -40.0,-75.0 l-65.0,-50.0 -100.0,-40.0 l-125.0,-20.0 m-115.0,0.0 l-155.0,25.0 m155.0,-55.0 l115.0,20.0 -65.0,5.0 l-15.0,25.0 30.0,410.0 l10.0,570.0 " fill="none" stroke="black" stroke-width="1" /></svg>