<?xml version="1.0" encoding="utf-8" ?>
<svg baseProfile="full" height="73.87027884833515" version="1.1" width="68.44779629260302" xmlns="http://www.w3.org/2000/svg" xmlns:ev="http://www.w3.org/2001/xml-events" xmlns:xlink="http://www.w3.org/1999/xlink"><defs /><rect fill="white" height="73.87027884833515" width="68.44779629260302" x="0" y="0" /><path d="M39.41639929078519,48.48086479585618 m-0.11309842579066753,-0.05835902411490679 m-10.243960618972778,-11.891539096832275 l-1.9638192653656006,1.4178676903247833 -1.0073751211166382,1.3435821235179901 l-0.8742647618055344,2.186250388622284 -0.21388109773397446,2.330411374568939 l0.3611517697572708,1.2693578004837036 1.3803745806217194,1.675666868686676 l3.0329740047454834,1.5325839817523956 3.7499088048934937,0.5835919454693794 l4.079962372779846,-0.21459875628352165 2.3477397859096527,-0.8050643652677536 l1.8515969812870026,-1.4486880600452423 1.2194038182497025,-2.1111977100372314 l0.42468417435884476,-2.466426193714142 -0.27941303327679634,-2.4821946024894714 l-1.0942234098911285,-1.7767512798309326 -2.7341675758361816,-1.9528098404407501 l-2.3908738791942596,-0.6879250705242157 -2.7816128730773926,-0.08479789830744267 l-2.259937673807144,0.582692064344883 -1.9570830464363098,1.1914793401956558 m3.431451916694641,-0.22563422098755836 l-0.07046840619295835,-0.7847901433706284 -0.44844288378953934,-3.7016886472702026 l-0.7769705355167389,-3.197854459285736 -0.8397994190454483,-2.0183755457401276 l-0.805383175611496,-1.0202736407518387 -1.0929708927869797,-0.5676427856087685 l-1.5336789190769196,-0.09773703292012215 -0.8743187785148621,0.3364505246281624 " fill="none" stroke="black" stroke-width="1" /></svg>