<?xml version="1.0" encoding="utf-8" ?>
<svg baseProfile="full" height="82.42638118565083" version="1.1" width="106.80642582476139" xmlns="http://www.w3.org/2000/svg" xmlns:ev="http://www.w3.org/2001/xml-events" xmlns:xlink="http://www.w3.org/1999/xlink"><defs /><rect fill="white" height="82.42638118565083" width="106.80642582476139" x="0" y="0" /><path d="M52.34004018828273,48.14787960611284 m0.5762166529893875,-0.06940207444131374 l0.977339968085289,-1.5835101902484894 4.268327951431274,-7.673267722129822 l3.86530339717865,-7.241193056106567 2.395247220993042,-3.9725932478904724 l1.9916030764579773,-2.607913315296173 0.7655651122331619,1.248948648571968 l-0.3865336626768112,6.761597990989685 -1.2001663446426392,7.762988209724426 l-1.2558214366436005,5.554346442222595 -1.3368746638298035,3.577946126461029 l-3.415791392326355,4.305672645568848 -3.3409595489501953,2.1206405758857727 l-2.434259206056595,0.7323804497718811 -5.757908225059509,0.36186009645462036 l-8.97397518157959,-0.3820998966693878 -4.38640296459198,-0.5899951606988907 l-4.058108627796173,-1.374092549085617 -2.0699845254421234,-1.3793990015983582 l-2.044338583946228,-2.78937429189682 -1.2661071121692657,-4.197411835193634 l-0.2524120919406414,-7.133260369300842 1.5891563892364502,-4.421987533569336 l1.7497968673706055,-2.2961144149303436 1.942846029996872,-1.3240179419517517 l3.5881823301315308,-1.032353937625885 5.237134695053101,-0.3078816458582878 l8.699361085891724,1.058962121605873 9.868114590644836,2.6589447259902954 l4.41393107175827,0.5435783416032791 5.249543786048889,0.9640118479728699 l7.282245755195618,0.7942534238100052 4.748852550983429,1.3921566307544708 l1.4582741260528564,1.0221010446548462 0.9789865463972092,1.9098761677742004 l-0.021603968925774097,2.3610693216323853 -1.8003939092159271,2.3749570548534393 l-3.3159077167510986,2.0694297552108765 -4.947628378868103,1.568855345249176 l-10.209252834320068,1.3358333706855774 -4.849489629268646,0.5332036688923836 l-3.588319718837738,0.3632175177335739 -2.996452748775482,0.2668221667408943 l-2.625405192375183,0.11751625686883926 -2.010144591331482,-0.10587322525680065 l-1.7255277931690216,-0.2628624252974987 " fill="none" stroke="black" stroke-width="1" /></svg>