<?xml version="1.0" encoding="utf-8" ?>
<svg baseProfile="full" height="2715.0" version="1.1" width="3755.0" xmlns="http://www.w3.org/2000/svg" xmlns:ev="http://www.w3.org/2001/xml-events" xmlns:xlink="http://www.w3.org/1999/xlink"><defs /><rect fill="white" height="2715.0" width="3755.0" x="0" y="0" /><path d="M2125.0,1220.0 m40.0,-5.0 l35.0,-65.0 195.0,-240.0 l160.0,-335.0 90.0,-300.0 l135.0,-250.0 -70.0,20.0 l-170.0,120.0 -305.0,275.0 l-260.0,330.0 -130.0,215.0 l-45.0,105.0 -40.0,45.0 l-625.0,-125.0 -415.0,-10.0 l-345.0,35.0 -110.0,30.0 l-155.0,85.0 -85.0,120.0 l5.0,105.0 40.0,55.0 l110.0,95.0 145.0,80.0 l525.0,10.0 515.0,90.0 l325.0,10.0 -75.0,255.0 l-75.0,545.0 -10.0,175.0 l85.0,-75.0 120.0,-175.0 l460.0,-520.0 80.0,-30.0 l170.0,-25.0 845.0,10.0 l260.0,-105.0 130.0,-70.0 l50.0,-60.0 -10.0,-55.0 l-260.0,-120.0 -300.0,-90.0 l-130.0,-25.0 -540.0,-35.0 l-415.0,0.0 -130.0,10.0 l-25.0,5.0 20.0,10.0 " fill="none" stroke="black" stroke-width="1" /></svg>