<?xml version="1.0" encoding="utf-8" ?>
<svg baseProfile="full" height="93.13669471768662" version="1.1" width="130.81088919192553" xmlns="http://www.w3.org/2000/svg" xmlns:ev="http://www.w3.org/2001/xml-events" xmlns:xlink="http://www.w3.org/1999/xlink"><defs /><rect fill="white" height="93.13669471768662" width="130.81088919192553" x="0" y="0" /><path d="M28.511565644294024,27.21819001249969 m6.860435605049133,0.09859425015747547 l10.483250617980957,-0.9842339903116226 13.482421636581421,-1.0797448456287384 l11.139004230499268,-0.2528054267168045 13.430010080337524,0.4874853417277336 l0.5169001594185829,3.7881994247436523 0.6428812444210052,7.242001891136169 l0.8009843528270721,5.852339267730713 0.9443776309490204,0.4918418824672699 l5.145241618156433,-0.5819791555404663 5.891776084899902,-0.2073618583381176 l5.678510665893555,0.4460243508219719 0.5917015671730042,0.5689512565732002 l1.4156435430049896,7.105283737182617 0.2761845104396343,3.713987171649933 l-0.47390758991241455,0.4666203632950783 -5.985535979270935,0.7198664546012878 l-7.551752924919128,0.5847965180873871 -7.944226264953613,0.4339630529284477 l-8.690983653068542,0.354984775185585 -18.496196269989014,0.38912590593099594 l-16.025532484054565,0.01843961072154343 -11.65170669555664,0.0010188587475568056 l-2.9144996404647827,-0.35615988075733185 -0.7369083911180496,-0.5291092395782471 l-0.3396392986178398,-0.8184149116277695 0.0630366150289774,-8.071061372756958 l0.08099167607724667,-7.290613651275635 0.10456978343427181,-6.341553330421448 l0.20384879782795906,-3.38684618473053 0.6721630692481995,-1.6237647831439972 l0.5703822523355484,-0.27556587010622025 m6.619219183921814,28.423352241516113 l-1.7446072399616241,-0.14548443257808685 -1.6543212532997131,0.9957810491323471 l-1.0784395039081573,1.4779920876026154 -0.5064133927226067,1.7026276886463165 l0.16290578991174698,2.415148913860321 0.9244651347398758,1.5008103847503662 l1.399245262145996,1.0607466101646423 1.7786264419555664,0.5820096284151077 l2.846950590610504,-0.02813609316945076 1.991959810256958,-0.8601635694503784 l1.4628133177757263,-1.3000673055648804 0.8365719765424728,-1.5246176719665527 l0.3097212314605713,-2.4317875504493713 -0.38780320435762405,-1.8323083221912384 l-0.905536338686943,-1.3943499326705933 -1.3018687069416046,-0.9533970803022385 l-1.5361420810222626,-0.4523910954594612 -2.2230783104896545,0.11900118552148342 l-1.1966055631637573,0.7026942074298859 m38.705453872680664,1.116020753979683 l-2.2654396295547485,-0.06655556615442038 -1.8003493547439575,0.63862644135952 l-2.1164289116859436,1.7411257326602936 -0.959697961807251,1.6250225901603699 l-0.3881123289465904,2.6496106386184692 0.555800050497055,1.7284536361694336 l1.236872673034668,1.2403595447540283 1.7239625751972198,0.8204863220453262 l3.1140315532684326,0.4035840556025505 2.3778922855854034,-0.406511090695858 l1.7543050646781921,-1.0660655796527863 1.1397312581539154,-1.3552413880825043 l0.6570246815681458,-1.71652153134346 -3.0300134312710725e-05,-2.2031424939632416 l-0.6624601036310196,-1.7385666072368622 -1.122947558760643,-1.304757446050644 l-1.5078607201576233,-0.8982561528682709 -1.7711202800273895,-0.419258214533329 l-2.2342129051685333,0.2688685432076454 m12.415914535522461,0.1689779944717884 l-0.8076512068510056,-0.11492469348013401 -1.4577847719192505,1.077670231461525 l-0.9449855238199234,1.6369648277759552 -0.48180416226387024,2.7695584297180176 l0.3813550993800163,1.7006903886795044 1.0000448673963547,1.138039380311966 l1.4558368921279907,0.7211829721927643 2.548891305923462,0.24534285068511963 l1.7417608201503754,-0.6044395640492439 1.1989377439022064,-1.1408393830060959 l0.6733795255422592,-1.5237011015415192 0.0929680559784174,-1.7433623969554901 l-0.8353255689144135,-2.229231297969818 -1.3901300728321075,-1.484893560409546 l-1.5930743515491486,-0.8479941636323929 -2.681945562362671,-0.4508928954601288 m-38.0940318107605,-17.87018656730652 l-0.4476720839738846,3.5608962178230286 0.024311465676873922,2.958269715309143 l0.42204599827528,0.5288092419505119 5.678671598434448,-0.019208600278943777 l4.266718327999115,-0.2852741815149784 0.23813266307115555,-3.6530420184135437 l-0.7934211939573288,-3.421269655227661 -0.6269098073244095,-0.4227183386683464 l-8.293552994728088,0.6752289086580276 -1.6143709421157837,0.424935445189476 m16.6862690448761,-1.026361659169197 l0.06834242958575487,4.846147894859314 0.3692995011806488,3.3898192644119263 l0.506444089114666,0.3513070195913315 6.0573142766952515,-0.4979836195707321 l3.9526891708374023,-0.4702383652329445 0.013011448318138719,-3.7149226665496826 l-0.7831728458404541,-3.31282377243042 -0.5830671265721321,-0.4508057236671448 l-8.676767349243164,0.5459427088499069 -2.0799893140792847,0.35553619265556335 m17.452449798583984,-0.6821420788764954 l0.21203966811299324,5.2457040548324585 0.5063661187887192,0.6853394955396652 l4.9179598689079285,0.03693121252581477 3.578798472881317,-0.47423895448446274 l0.18645262345671654,-3.0970168113708496 -0.7794481515884399,-2.6491597294807434 l-6.220978498458862,0.04984492901712656 -3.724391758441925,0.7277526706457138 m14.984893798828125,-0.9553630650043488 l0.5960335209965706,4.449890851974487 0.7074356824159622,2.5331562757492065 l0.5795830860733986,0.3764577955007553 5.426614880561829,-0.6286656856536865 l3.1954550743103027,-0.7736745476722717 0.05229565780609846,-3.482341468334198 l-1.084410697221756,-2.992573380470276 -7.287155985832214,0.45460473746061325 " fill="none" stroke="black" stroke-width="1" /></svg>