<?xml version="1.0" encoding="utf-8" ?>
<svg baseProfile="full" height="2150.0" version="1.1" width="3950.0" xmlns="http://www.w3.org/2000/svg" xmlns:ev="http://www.w3.org/2001/xml-events" xmlns:xlink="http://www.w3.org/1999/xlink"><defs /><rect fill="white" height="2150.0" width="3950.0" x="0" y="0" /><path d="M315.0,145.0 m345.0,5.0 l570.0,-45.0 740.0,-25.0 l545.0,-55.0 240.0,0.0 l495.0,40.0 -20.0,620.0 l0.0,105.0 15.0,25.0 l350.0,20.0 275.0,45.0 l35.0,10.0 20.0,30.0 l-25.0,210.0 10.0,570.0 l-25.0,25.0 -305.0,30.0 l-280.0,15.0 -490.0,-5.0 l-655.0,75.0 -640.0,0.0 l-355.0,-30.0 -430.0,-10.0 l-290.0,-40.0 -395.0,15.0 l-20.0,-40.0 30.0,-135.0 l105.0,-300.0 65.0,-240.0 l45.0,-95.0 100.0,-475.0 l20.0,-265.0 m40.0,1410.0 l-70.0,170.0 -5.0,185.0 l25.0,60.0 40.0,40.0 l25.0,5.0 140.0,-15.0 l145.0,-55.0 65.0,-50.0 l35.0,-65.0 0.0,-50.0 l-35.0,-60.0 -55.0,-40.0 l-150.0,-40.0 -55.0,0.0 l-10.0,20.0 m520.0,30.0 l-65.0,10.0 -45.0,40.0 l-35.0,60.0 -5.0,75.0 l40.0,55.0 120.0,20.0 l450.0,-70.0 55.0,-20.0 l0.0,-40.0 -25.0,-40.0 l-70.0,-60.0 -115.0,-55.0 l-60.0,-10.0 -20.0,25.0 m715.0,60.0 l-25.0,-15.0 -40.0,20.0 l-40.0,75.0 -5.0,85.0 l40.0,85.0 90.0,55.0 l175.0,0.0 125.0,-30.0 l255.0,-165.0 30.0,-50.0 l0.0,-60.0 -30.0,-45.0 l-40.0,-20.0 -95.0,5.0 l-40.0,20.0 -60.0,90.0 l0.0,95.0 m910.0,-215.0 l-105.0,5.0 -120.0,80.0 l-15.0,25.0 -15.0,100.0 l35.0,70.0 50.0,40.0 l110.0,35.0 175.0,0.0 l255.0,-90.0 40.0,-65.0 l-10.0,-95.0 -25.0,-40.0 l-65.0,-55.0 -75.0,-35.0 l-175.0,-10.0 m-495.0,-1675.0 l5.0,85.0 -75.0,360.0 l-15.0,145.0 35.0,15.0 l225.0,-15.0 305.0,60.0 m-2580.0,-375.0 l-100.0,380.0 395.0,15.0 l25.0,-10.0 10.0,-65.0 l20.0,-295.0 -10.0,-105.0 l-85.0,0.0 -45.0,20.0 l-230.0,35.0 m580.0,-45.0 l35.0,460.0 170.0,-35.0 l210.0,5.0 25.0,-65.0 l30.0,-195.0 -15.0,-245.0 l-245.0,75.0 -210.0,10.0 m745.0,-85.0 l15.0,390.0 255.0,25.0 " fill="none" stroke="black" stroke-width="1" /></svg>