<?xml version="1.0" encoding="utf-8" ?>
<svg baseProfile="full" height="112.43359183892608" version="1.1" width="120.84711570517356" xmlns="http://www.w3.org/2000/svg" xmlns:ev="http://www.w3.org/2001/xml-events" xmlns:xlink="http://www.w3.org/1999/xlink"><defs /><rect fill="white" height="112.43359183892608" width="120.84711570517356" x="0" y="0" /><path d="M37.53042258322239,54.64584362311825 m-3.6323580145835876,0.4552267864346504 l-2.9931584000587463,0.9163942933082581 -3.460051715373993,2.747095823287964 l-1.4215357601642609,2.042861133813858 -1.0233186930418015,2.957140803337097 l0.00013556556041294243,2.5425615906715393 0.6403409689664841,0.5529838055372238 l6.591689586639404,3.422991767365602e-05 33.1106972694397,-4.775128364562988 l24.588139057159424,-4.737290740013123 5.916113257408142,-2.3859623074531555 l-0.1904073730111122,-6.738924980163574 -2.878757417201996,-1.821473091840744 l-2.9088380932807922,-0.7617560029029846 -5.198838114738464,-0.2753810025751591 l-6.216623783111572,0.9056316316127777 -6.36755645275116,1.4019490778446198 l-7.198474407196045,1.5510337054729462 -14.172501564025879,2.5539520382881165 l-9.554365873336792,1.9674701988697052 -2.9334691166877747,0.7168664783239365 l-1.4025992155075073,0.34308087080717087 -0.5248720943927765,0.13488726690411568 m13.957338333129883,-2.7011725306510925 l0.001662824215600267,-6.754571199417114 0.7058683782815933,-10.976989269256592 l1.360243558883667,-5.242976546287537 1.71833336353302,-3.844464123249054 l1.5285411477088928,-0.41892319917678833 0.6071271002292633,0.5526619777083397 l3.0010858178138733,8.325654864311218 1.8958830833435059,9.220884442329407 l1.206497848033905,5.888027548789978 m-12.199264764785767,15.930036306381226 l0.41013892740011215,6.295530200004578 0.7597576826810837,8.142983317375183 l1.1209975183010101,5.320685505867004 1.297604888677597,2.451784312725067 l0.6995316594839096,0.3053433634340763 1.391608715057373,-1.0453809052705765 l3.4234949946403503,-6.5432387590408325 3.607487380504608,-9.951339364051819 l1.5017645061016083,-6.372907757759094 " fill="none" stroke="black" stroke-width="1" /></svg>