<?xml version="1.0" encoding="utf-8" ?>
<svg baseProfile="full" height="3070.0" version="1.1" width="3880.0" xmlns="http://www.w3.org/2000/svg" xmlns:ev="http://www.w3.org/2001/xml-events" xmlns:xlink="http://www.w3.org/1999/xlink"><defs /><rect fill="white" height="3070.0" width="3880.0" x="0" y="0" /><path d="M640.0,1390.0 m-185.0,25.0 l-160.0,50.0 -120.0,95.0 l-80.0,180.0 -70.0,310.0 l15.0,50.0 120.0,-5.0 l260.0,-60.0 540.0,-160.0 l560.0,-125.0 1995.0,-570.0 l340.0,-160.0 -460.0,35.0 l-475.0,70.0 -815.0,0.0 l-280.0,-20.0 -365.0,0.0 l-280.0,65.0 -140.0,40.0 l-120.0,55.0 -335.0,90.0 l-90.0,60.0 m455.0,-445.0 l-5.0,-225.0 30.0,-260.0 l50.0,-295.0 50.0,-165.0 l30.0,175.0 155.0,535.0 l45.0,105.0 25.0,170.0 l0.0,115.0 m-320.0,685.0 l0.0,1235.0 35.0,-5.0 l35.0,-35.0 130.0,-165.0 l135.0,-240.0 115.0,-275.0 l150.0,-295.0 60.0,-190.0 l10.0,-90.0 " fill="none" stroke="black" stroke-width="1" /></svg>