<?xml version="1.0" encoding="utf-8" ?>
<svg baseProfile="full" height="1095.0" version="1.1" width="1590.0" xmlns="http://www.w3.org/2000/svg" xmlns:ev="http://www.w3.org/2001/xml-events" xmlns:xlink="http://www.w3.org/1999/xlink"><defs /><rect fill="white" height="1095.0" width="1590.0" x="0" y="0" /><path d="M865.0,65.0 m-10.0,145.0 l5.0,35.0 25.0,5.0 m-15.0,-190.0 l110.0,-30.0 160.0,-5.0 l30.0,125.0 15.0,160.0 l-215.0,0.0 m-105.0,-135.0 l145.0,-10.0 25.0,15.0 m-205.0,-70.0 l-370.0,25.0 -355.0,0.0 l-80.0,15.0 m5.0,15.0 l35.0,125.0 25.0,10.0 l220.0,-20.0 380.0,10.0 l165.0,-15.0 m375.0,-190.0 l-25.0,-10.0 185.0,-25.0 l140.0,10.0 30.0,120.0 l5.0,110.0 -105.0,-30.0 l-355.0,0.0 m-895.0,65.0 l0.0,325.0 25.0,310.0 l25.0,40.0 m1200.0,-720.0 l30.0,20.0 5.0,25.0 l30.0,745.0 " fill="none" stroke="black" stroke-width="1" /></svg>