<?xml version="1.0" encoding="utf-8" ?>
<svg baseProfile="full" height="62.855902259470895" version="1.1" width="77.52264442387968" xmlns="http://www.w3.org/2000/svg" xmlns:ev="http://www.w3.org/2001/xml-events" xmlns:xlink="http://www.w3.org/1999/xlink"><defs /><rect fill="white" height="62.855902259470895" width="77.52264442387968" x="0" y="0" /><path d="M35.92429110431112,32.93603411875665 m-0.20002206787467003,2.9598677158355713 l-0.636545717716217,1.42661452293396 m0.81008180975914,-4.054925739765167 l2.3403355479240417,0.01803418737836182 0.4585471376776695,0.42852599173784256 l0.017536074155941606,4.015213847160339 -2.1021056175231934,0.1265376154333353 l-2.161986380815506,-0.016612132312729955 m2.3500102758407593,-1.471615880727768 l3.0720093846321106,0.44558439403772354 2.993423342704773,-0.18526677042245865 m-6.156706809997559,-0.854145884513855 l1.3506071269512177,-0.10662976652383804 3.0735749006271362,-0.675257220864296 l4.260011315345764,-0.7511400431394577 3.681154251098633,-0.7399062067270279 l1.7986197769641876,-0.636836439371109 1.0236501693725586,-0.7184620946645737 l0.6235131621360779,-1.1002755910158157 0.002645638305693865,-1.6883428394794464 l-1.1196127533912659,-1.4423877000808716 -2.4515479803085327,-1.4059971272945404 l-4.750977158546448,-1.1903709918260574 -5.3844839334487915,-0.3182399645447731 l-5.5683833360672,0.3159569948911667 -4.683736264705658,1.1225978285074234 l-1.7841999232769012,0.7718288153409958 -1.1798977851867676,0.9884244948625565 l-0.554104782640934,1.0807643830776215 -0.045700506307184696,1.213693842291832 l0.4229031503200531,0.9978814423084259 0.9406069666147232,0.9356817603111267 l1.3721154630184174,0.7143770158290863 2.7313652634620667,0.6609383225440979 l4.943802654743195,-0.008701133192516863 m0.8658779412508011,-0.8612971752882004 l0.010995729826390743,3.0260542035102844 1.956944316625595,0.17040742561221123 " fill="none" stroke="black" stroke-width="1" /></svg>