<?xml version="1.0" encoding="utf-8" ?>
<svg baseProfile="full" height="80.42944531654939" version="1.1" width="112.66580974683166" xmlns="http://www.w3.org/2000/svg" xmlns:ev="http://www.w3.org/2001/xml-events" xmlns:xlink="http://www.w3.org/1999/xlink"><defs /><rect fill="white" height="80.42944531654939" width="112.66580974683166" x="0" y="0" /><path d="M25,35.629271059297025 m1.297278255224228,-1.255519539117813 l8.481258153915405,-4.647884964942932 5.081414580345154,-2.0862415432929993 l5.503493547439575,-1.388486921787262 6.088825464248657,-0.7031369209289551 l9.230620861053467,-0.018321597017347813 8.326062560081482,0.012074047699570656 l12.17998743057251,-0.5417536199092865 4.518009722232819,0.2641862630844116 l0.9763556718826294,2.197839319705963 0.718018114566803,6.034504175186157 l0.2644853852689266,6.411728262901306 -0.14487344771623611,4.282272756099701 l-0.45492224395275116,0.7280423492193222 -1.6724933683872223,0.9561332315206528 l-5.5929213762283325,1.2866763770580292 -7.09972083568573,0.8793686330318451 l-8.258013725280762,0.63841812312603 -18.03633451461792,0.46730536967515945 l-6.906735897064209,-0.19491996616125107 -10.926082134246826,-0.43925322592258453 l-1.075076386332512,-0.5833261087536812 -0.48180006444454193,-0.9061137586832047 l-0.6788492202758789,-8.20146918296814 -0.18849309533834457,-5.482316017150879 m19.93664860725403,5.532722473144531 l-0.7609691470861435,3.336804211139679 -0.30352940782904625,3.818122148513794 l0.8038324862718582,0.6494536995887756 5.824697017669678,-0.06576706189662218 l4.345963895320892,-0.521593876183033 0.45681167393922806,-4.02112603187561 l-0.6293962150812149,-3.5646408796310425 -6.836967468261719,-0.21260354667901993 l-3.731088936328888,0.4706558585166931 m21.356632709503174,-0.7635499536991119 l-0.5926406756043434,3.981175720691681 -0.04212884698063135,3.5151970386505127 l0.4509793594479561,0.4404390975832939 4.8925769329071045,-0.020117552485316992 l4.062108099460602,-0.49895599484443665 0.5726761743426323,-0.34778017550706863 l0.28396347537636757,-1.9384486973285675 -0.08243483491241932,-3.970508873462677 l-0.9525681287050247,-2.033688724040985 -0.712047815322876,-0.44141970574855804 l-2.035174071788788,-0.16920870169997215 -6.618528962135315,1.0503026843070984 l-1.9672903418540955,0.4944020137190819 m-14.605706930160522,8.844066858291626 l-0.6854665279388428,2.9811891913414 -0.2354743890464306,3.1343495845794678 l0.3755539283156395,1.208118125796318 0.940939262509346,0.7417622208595276 l2.3182785511016846,0.46101756393909454 2.795577049255371,-0.4691382870078087 l1.3806021213531494,-1.0026729106903076 0.7232467085123062,-1.3631169497966766 l0.1394870225340128,-2.323112040758133 -0.8333199471235275,-2.204623818397522 l-1.1327967047691345,-1.1186080425977707 -2.355765700340271,-0.8639107644557953 l-3.0544117093086243,0.0002767365185718518 m-4.9804991483688354,0.42313817888498306 l-1.6988962888717651,0.5194306746125221 -1.3854868710041046,1.2491416931152344 l-0.9735780954360962,2.2327685356140137 -5.441600478661712e-05,2.246347963809967 l0.7841814309358597,1.1785228550434113 1.261650174856186,0.6310679018497467 l4.007510840892792,-0.006351052434183657 1.7043091356754303,-1.0225695371627808 l1.0818513482809067,-2.1552322804927826 -0.002492766361683607,-1.831589937210083 l-1.2042363733053207,-1.9089087843894958 -1.5023767948150635,-0.9455177187919617 m18.439451456069946,0.15101340599358082 l-4.789292812347412,0.8049174398183823 -1.9306419789791107,1.0496646910905838 l-0.9052423387765884,1.1376963555812836 -0.33995889127254486,2.045954018831253 l0.5801747366786003,1.3067664206027985 1.2866488099098206,0.8472885936498642 l4.540358185768127,0.5075474083423615 1.953059434890747,-2.611468732357025 l0.0036512973019853234,-2.9908061027526855 " fill="none" stroke="black" stroke-width="1" /></svg>