<?xml version="1.0" encoding="utf-8" ?>
<svg baseProfile="full" height="1700.0" version="1.1" width="3290.0" xmlns="http://www.w3.org/2000/svg" xmlns:ev="http://www.w3.org/2001/xml-events" xmlns:xlink="http://www.w3.org/1999/xlink"><defs /><rect fill="white" height="1700.0" width="3290.0" x="0" y="0" /><path d="M25,605.0 m65.0,-70.0 l425.0,-270.0 145.0,-65.0 l315.0,-75.0 155.0,-20.0 l640.0,0.0 445.0,-50.0 l655.0,-30.0 120.0,40.0 l100.0,130.0 0.0,210.0 l25.0,170.0 15.0,295.0 l0.0,230.0 -25.0,15.0 l-265.0,0.0 -100.0,20.0 l-285.0,15.0 -590.0,0.0 l-280.0,15.0 -975.0,120.0 l-320.0,-5.0 -95.0,-210.0 l-55.0,-290.0 -15.0,-170.0 m810.0,-470.0 l-35.0,60.0 -290.0,335.0 l-390.0,365.0 m400.0,410.0 l-35.0,-15.0 -95.0,5.0 l-145.0,205.0 -15.0,60.0 l50.0,110.0 135.0,-5.0 l80.0,-40.0 125.0,-100.0 l65.0,-85.0 15.0,-120.0 l-45.0,-35.0 -135.0,-45.0 l-45.0,0.0 -100.0,55.0 m485.0,-10.0 l-30.0,-20.0 -55.0,5.0 l-95.0,90.0 -25.0,55.0 l-25.0,145.0 75.0,40.0 l70.0,0.0 160.0,-100.0 l25.0,-55.0 0.0,-110.0 l-235.0,-70.0 m2020.0,-145.0 l-25.0,-30.0 -110.0,-25.0 l-50.0,5.0 -45.0,45.0 l-100.0,290.0 5.0,55.0 l90.0,60.0 65.0,0.0 l75.0,-25.0 165.0,-205.0 l20.0,-65.0 -25.0,-155.0 l-115.0,-30.0 -120.0,70.0 m430.0,-45.0 l-60.0,15.0 -100.0,95.0 l-40.0,130.0 35.0,90.0 l120.0,5.0 135.0,-90.0 l65.0,-85.0 5.0,-35.0 l-70.0,-65.0 -130.0,-15.0 " fill="none" stroke="black" stroke-width="1" /></svg>