<?xml version="1.0" encoding="utf-8" ?>
<svg baseProfile="full" height="68.86243283748627" version="1.1" width="70.92319077710272" xmlns="http://www.w3.org/2000/svg" xmlns:ev="http://www.w3.org/2001/xml-events" xmlns:xlink="http://www.w3.org/1999/xlink"><defs /><rect fill="white" height="68.86243283748627" width="70.92319077710272" x="0" y="0" /><path d="M34.56215199912549,31.70741644978989 m1.7661719024181366,-0.09143640287220478 l6.514478921890259,1.9967290759086609 1.9881296157836914,1.30142480134964 l0.8335020393133163,1.1996468901634216 0.258756298571825,1.7784243822097778 l-0.35749997943639755,1.1909741908311844 -1.440727710723877,1.4365987479686737 l-1.4571937918663025,0.6753236055374146 -3.758629262447357,0.38564562797546387 l-1.823311448097229,-0.4166152700781822 -1.6767951846122742,-1.346634030342102 m0.001850734552135691,-7.658676505088806 l-0.5254342034459114,-0.9459199756383896 -1.0248800367116928,-1.0689564049243927 l-1.0409267991781235,-0.5274166166782379 -2.04250767827034,0.1542132906615734 l-0.5238322541117668,0.7592431455850601 0.18829543143510818,9.213548302650452 l0.6879479438066483,3.0863165855407715 1.0717029869556427,1.0321751236915588 l1.998455822467804,0.00040782324504107237 1.2365590035915375,-3.4567710757255554 m-1.0837224870920181,-8.049325942993164 l-0.8218202739953995,-0.949321836233139 -1.115555688738823,-1.564781665802002 l-2.1446482837200165,-2.9028338193893433 -1.1391793936491013,-1.1348912119865417 l-1.4113809168338776,-0.8045072853565216 -1.0118550807237625,0.0002602122367534321 l-1.1798624694347382,1.065148264169693 -0.5282397568225861,1.5615147352218628 l0.15031712129712105,2.8313416242599487 1.6979619860649109,3.256123661994934 l3.013157844543457,1.9047610461711884 2.785089612007141,0.913301557302475 " fill="none" stroke="black" stroke-width="1" /></svg>