<?xml version="1.0" encoding="utf-8" ?>
<svg baseProfile="full" height="1190.0" version="1.1" width="1135.0" xmlns="http://www.w3.org/2000/svg" xmlns:ev="http://www.w3.org/2001/xml-events" xmlns:xlink="http://www.w3.org/1999/xlink"><defs /><rect fill="white" height="1190.0" width="1135.0" x="0" y="0" /><path d="M560.0,400.0 m90.0,-5.0 l290.0,95.0 115.0,75.0 l55.0,85.0 0.0,75.0 l-70.0,75.0 -40.0,20.0 l-135.0,15.0 -165.0,45.0 l-90.0,0.0 m25.0,-505.0 l-20.0,-30.0 -20.0,-225.0 l-35.0,-90.0 -80.0,-5.0 l-90.0,80.0 -15.0,120.0 l20.0,95.0 m300.0,580.0 l-20.0,30.0 -10.0,120.0 l-50.0,105.0 -55.0,10.0 l-60.0,-45.0 -80.0,-125.0 l-65.0,-210.0 -10.0,-100.0 l-230.0,-15.0 -75.0,-60.0 l-15.0,-30.0 10.0,-110.0 l60.0,-75.0 185.0,-75.0 l80.0,0.0 " fill="none" stroke="black" stroke-width="1" /></svg>