<?xml version="1.0" encoding="utf-8" ?>
<svg baseProfile="full" height="102.82702140073525" version="1.1" width="99.72883890382946" xmlns="http://www.w3.org/2000/svg" xmlns:ev="http://www.w3.org/2001/xml-events" xmlns:xlink="http://www.w3.org/1999/xlink"><defs /><rect fill="white" height="102.82702140073525" width="99.72883890382946" x="0" y="0" /><path d="M27.260209247469902,45.643892884254456 m-1.5552261471748352,-7.146763801574707 l-0.7049831002950668,-5.897769927978516 0.12205005623400211,-6.98633074760437 l0.6128625571727753,-0.6130284070968628 3.533320128917694,0.9906282275915146 l4.1609302163124084,3.137524425983429 4.9173784255981445,6.401610970497131 l2.1189604699611664,2.6918187737464905 1.027122363448143,1.9389519095420837 l1.2396442145109177,-0.16819244250655174 3.088657557964325,-0.9568728506565094 l2.4177514016628265,-0.4796293377876282 3.0635815858840942,-0.09103483520448208 l3.100074827671051,0.731268972158432 2.5950053334236145,1.677989512681961 l2.9459887742996216,-7.589676380157471 1.8949410319328308,-2.697117030620575 l2.6354798674583435,-2.553146779537201 1.8043865263462067,-1.0466502606868744 l0.49978040158748627,0.4931406304240227 0.7510729134082794,7.073860764503479 l0.8728837221860886,5.470324158668518 0.7017409801483154,4.223509430885315 l0.5326651781797409,5.443612337112427 0.05332255735993385,6.072781682014465 l-0.6392073631286621,6.164762377738953 -1.524517685174942,4.783834517002106 l-1.3496983051300049,2.4727800488471985 -2.7457138895988464,3.141435980796814 l-3.521425724029541,2.505745589733124 -4.577520787715912,1.9214804470539093 l-5.456923842430115,1.0719987750053406 -5.807514786720276,0.0002817859058268368 l-4.527661204338074,-1.2592127919197083 -3.0339086055755615,-1.5468190610408783 l-2.423069179058075,-1.8542073667049408 -1.9213415682315826,-2.1615032851696014 l-2.1632254123687744,-3.917187452316284 -1.6075365245342255,-5.416498780250549 l-0.5391343310475349,-6.814660429954529 0.2953708544373512,-6.2373387813568115 l0.6006628274917603,-4.150605201721191 0.5502679571509361,-0.8090934902429581 m13.955289125442505,15.951802730560303 l-5.055938363075256,1.006021574139595 -2.643100917339325,1.3318800926208496 l-1.6993418335914612,1.4036087691783905 -1.8441563844680786,2.46714785695076 l-1.1520615965127945,2.7312910556793213 -0.453115850687027,3.0114081501960754 l0.36223743110895157,1.7527975142002106 m16.521005630493164,-10.634399652481079 l-1.1424674093723297,0.172354094684124 -3.8667339086532593,3.3140188455581665 l-3.9543071389198303,4.698342978954315 -2.8796368837356567,4.388819336891174 l-0.9724606573581696,2.2821490466594696 m22.795429229736328,-20.380733013153076 l7.2721803188323975,-0.7199651002883911 7.866851091384888,0.44143129140138626 l2.1048277616500854,0.7417600601911545 m-18.034764528274536,4.594472050666809 l4.819692969322205,1.2381993234157562 8.85301411151886,3.4971916675567627 l4.578893184661865,2.435467392206192 m-19.480912685394287,-2.069234997034073 l7.671957612037659,5.198726058006287 4.679861664772034,3.5587209463119507 l1.5000344812870026,1.5126077830791473 m-27.674498558044434,-24.920074939727783 l-1.1603773385286331,0.01275993650779128 -1.133984550833702,0.9165406972169876 l-0.6360699236392975,1.27129465341568 -0.006034497637301683,1.1221293359994888 l0.6841671466827393,0.8271800726652145 1.9215908646583557,0.6643569469451904 l2.392151653766632,-0.2943190559744835 1.1972765624523163,-1.0393471270799637 l0.4432212561368942,-1.2233231961727142 -0.26898207142949104,-1.8747560679912567 l-0.8723197132349014,-1.1121834814548492 -1.2744617462158203,-0.6093243509531021 m10.45404314994812,1.5335851907730103 l-0.7245189696550369,-0.07228543050587177 -1.4471790194511414,0.9805069118738174 l-0.7235319912433624,1.356831043958664 -0.10616048239171505,1.2895147502422333 l0.586223229765892,0.8880756050348282 1.1513221263885498,0.4842573031783104 l1.9277375936508179,-0.1254703290760517 1.1691027134656906,-0.8867896348237991 l0.6179602816700935,-1.2563766539096832 -0.00018093884136760607,-1.7733292281627655 l-0.6635585427284241,-1.0963073372840881 -1.086195707321167,-0.6461187452077866 " fill="none" stroke="black" stroke-width="1" /></svg>