<?xml version="1.0" encoding="utf-8" ?>
<svg baseProfile="full" height="3070.0" version="1.1" width="2270.0" xmlns="http://www.w3.org/2000/svg" xmlns:ev="http://www.w3.org/2001/xml-events" xmlns:xlink="http://www.w3.org/1999/xlink"><defs /><rect fill="white" height="3070.0" width="2270.0" x="0" y="0" /><path d="M145.0,1095.0 m-80.0,-350.0 l-35.0,-305.0 -5.0,-400.0 l25.0,-15.0 180.0,140.0 l150.0,170.0 260.0,465.0 l70.0,165.0 50.0,-5.0 l200.0,-85.0 125.0,-30.0 l185.0,0.0 105.0,20.0 l105.0,25.0 125.0,65.0 l20.0,-30.0 0.0,-145.0 l25.0,-125.0 80.0,-175.0 l450.0,-420.0 20.0,210.0 l-100.0,450.0 -50.0,155.0 l-110.0,215.0 170.0,220.0 l80.0,180.0 25.0,100.0 l30.0,255.0 0.0,215.0 l-55.0,280.0 -65.0,100.0 l-170.0,175.0 -100.0,80.0 l-125.0,-25.0 -450.0,-10.0 l-125.0,45.0 -265.0,20.0 l-210.0,40.0 -320.0,-155.0 l-85.0,-60.0 -50.0,-75.0 l-50.0,-185.0 5.0,-240.0 l75.0,-385.0 -5.0,-325.0 l-50.0,-365.0 -25.0,10.0 l5.0,40.0 m615.0,1220.0 l-465.0,340.0 -160.0,95.0 m715.0,-315.0 l-20.0,75.0 -65.0,110.0 l-295.0,390.0 30.0,-55.0 m495.0,-490.0 l-50.0,170.0 -255.0,460.0 l-25.0,20.0 m610.0,-625.0 l25.0,10.0 60.0,80.0 l120.0,80.0 175.0,75.0 l350.0,115.0 120.0,30.0 l-10.0,-20.0 m-715.0,-470.0 l565.0,275.0 105.0,25.0 m-540.0,-395.0 l305.0,65.0 150.0,15.0 l140.0,0.0 50.0,-30.0 l-15.0,-25.0 m-610.0,-860.0 l-155.0,35.0 -155.0,95.0 l-20.0,50.0 20.0,75.0 l155.0,90.0 145.0,25.0 l180.0,-20.0 55.0,-25.0 l40.0,-55.0 25.0,-125.0 l-15.0,-50.0 -50.0,-45.0 l-75.0,-35.0 -130.0,-5.0 l-60.0,55.0 m20.0,-35.0 l-95.0,155.0 -25.0,80.0 l0.0,50.0 65.0,75.0 " fill="none" stroke="black" stroke-width="1" /></svg>