<?xml version="1.0" encoding="utf-8" ?>
<svg baseProfile="full" height="1800.0" version="1.1" width="3390.0" xmlns="http://www.w3.org/2000/svg" xmlns:ev="http://www.w3.org/2001/xml-events" xmlns:xlink="http://www.w3.org/1999/xlink"><defs /><rect fill="white" height="1800.0" width="3390.0" x="0" y="0" /><path d="M245.0,1030.0 m270.0,30.0 l35.0,-55.0 30.0,-95.0 l0.0,-145.0 -45.0,-270.0 l0.0,-195.0 10.0,-110.0 l25.0,-10.0 895.0,-15.0 l1000.0,-75.0 630.0,-65.0 l155.0,0.0 25.0,15.0 l25.0,515.0 65.0,530.0 l-55.0,25.0 -105.0,5.0 l-150.0,50.0 -290.0,55.0 l-195.0,0.0 -85.0,-50.0 l-165.0,-25.0 -350.0,0.0 l-160.0,20.0 -255.0,120.0 l-30.0,0.0 -110.0,-70.0 l-285.0,5.0 -95.0,15.0 l-125.0,90.0 -150.0,80.0 m160.0,-110.0 l-15.0,170.0 55.0,115.0 l80.0,130.0 60.0,40.0 l70.0,0.0 25.0,-15.0 l50.0,-115.0 75.0,-330.0 l0.0,-30.0 -105.0,-50.0 l-290.0,-5.0 m1275.0,30.0 l-25.0,0.0 -50.0,50.0 l-70.0,125.0 15.0,55.0 l115.0,140.0 265.0,135.0 l120.0,35.0 155.0,-5.0 l50.0,-195.0 0.0,-85.0 l-15.0,-25.0 -55.0,-40.0 l-115.0,-30.0 -160.0,15.0 m-2090.0,-1315.0 l-225.0,315.0 -65.0,195.0 l-25.0,350.0 15.0,140.0 l420.0,30.0 630.0,125.0 l380.0,35.0 -245.0,-175.0 " fill="none" stroke="black" stroke-width="1" /></svg>