<?xml version="1.0" encoding="utf-8" ?>
<svg baseProfile="full" height="78.24360229074955" version="1.1" width="121.59319349564612" xmlns="http://www.w3.org/2000/svg" xmlns:ev="http://www.w3.org/2001/xml-events" xmlns:xlink="http://www.w3.org/1999/xlink"><defs /><rect fill="white" height="78.24360229074955" width="121.59319349564612" x="0" y="0" /><path d="M25,38.26892098411918 m5.653677582740784,0.7071276009082794 l4.2348504066467285,-0.09616436436772346 -0.12355026789009571,-1.3165417313575745 l-0.23897776380181313,-4.193090796470642 -1.2489742785692215,-4.311001896858215 l-0.3221694752573967,-1.6402339935302734 0.11513825505971909,-0.9305635839700699 l0.9018495678901672,-0.7927227020263672 5.715531706809998,-0.5867483466863632 l30.073962211608887,-0.09547540917992592 18.426620960235596,0.2286781184375286 l6.079918146133423,-0.2421838790178299 0.780380591750145,1.9147373735904694 l0.7600944489240646,7.8905171155929565 0.7848414033651352,7.58674681186676 l-0.13620671816170216,4.963241517543793 -0.5996482446789742,0.49040537327528 l-1.3508878648281097,0.2817806601524353 -4.452925622463226,0.10119934566318989 l-10.082184076309204,0.09104776196181774 -11.264379024505615,0.10542749427258968 l-12.02267050743103,0.23886771872639656 -11.648486852645874,0.08095747791230679 l-9.541674852371216,-0.3086874261498451 -6.6710615158081055,-0.7066948711872101 l-1.9883576035499573,-0.5731670930981636 -0.5400450527667999,-0.6877444684505463 l0.015760959358885884,-1.265239268541336 0.6256270408630371,-1.4491739869117737 m9.127140641212463,2.1522264182567596 l-0.9418054670095444,0.7664115726947784 -0.5501263216137886,1.4343315362930298 l-0.02755469875410199,2.371697723865509 0.5924832820892334,1.2073154002428055 l1.4767426252365112,1.123722717165947 1.990225911140442,0.4336753860116005 l2.1415071189403534,-0.27921922504901886 1.6808061301708221,-1.1981448531150818 l0.9152144938707352,-1.7213694751262665 0.1670001819729805,-1.2683375179767609 l-0.3692971169948578,-1.6748738288879395 -1.2454429268836975,-1.3770030438899994 l-1.7695122957229614,-0.7643351703882217 -2.0470136404037476,-0.0835925992578268 l-1.0717949271202087,0.40352925658226013 -0.6473413109779358,0.8088141679763794 m46.333370208740234,0.6766623258590698 l-1.291067898273468,0.5079501867294312 -0.7956640422344208,0.9882161021232605 l-0.36757685244083405,1.352483332157135 0.13095718808472157,1.3390131294727325 l0.6478388607501984,1.0105091333389282 1.1449408531188965,0.7702392339706421 l1.9948302209377289,0.40596581995487213 2.1626296639442444,-0.21221823990345 l1.648375689983368,-0.992567241191864 1.0294629633426666,-1.5611252188682556 l0.1681068353354931,-1.9000977277755737 -0.7352721691131592,-1.6029424965381622 l-1.6302640736103058,-1.2921243906021118 -2.1111348271369934,-0.6242930889129639 l-2.3467542231082916,-0.0408262200653553 -1.163843348622322,0.3978509455919266 l-0.9296547621488571,0.809079185128212 m-28.931405544281006,-14.683668613433838 l-0.04446675069630146,4.855416119098663 0.028984914533793926,5.036210417747498 l2.1678127348423004,-0.2584541402757168 " fill="none" stroke="black" stroke-width="1" /></svg>