<?xml version="1.0" encoding="utf-8" ?>
<svg baseProfile="full" height="88.3998728916049" version="1.1" width="85.89334084652364" xmlns="http://www.w3.org/2000/svg" xmlns:ev="http://www.w3.org/2001/xml-events" xmlns:xlink="http://www.w3.org/1999/xlink"><defs /><rect fill="white" height="88.3998728916049" width="85.89334084652364" x="0" y="0" /><path d="M25.97896526567638,29.29146833717823 m3.2505589723587036,-2.7321651577949524 l2.752513885498047,-1.1537329852581024 2.747083008289337,-0.4055701941251755 l5.627012848854065,0.6202039867639542 5.377603769302368,1.832282841205597 l6.514458656311035,3.5432544350624084 3.771880567073822,3.1405404210090637 l2.662982940673828,3.429790437221527 1.599595695734024,3.794935941696167 l0.6106852367520332,4.258815348148346 -0.275933463126421,4.128035008907318 l-1.3852307200431824,4.083842039108276 -1.5090285241603851,2.6082026958465576 l-2.037608325481415,2.3368465900421143 -2.4714887142181396,1.9113731384277344 l-2.8390008211135864,1.4085403084754944 -3.233720362186432,0.9245256334543228 l-3.3767765760421753,0.37868406623601913 -4.942825436592102,-0.2680655010044575 l-3.3045145869255066,-0.9061545878648758 -3.104729652404785,-1.5142478048801422 l-2.6638057827949524,-2.033548057079315 -2.0929577946662903,-2.5119927525520325 l-1.4296028017997742,-2.938910722732544 -1.0884790867567062,-4.800782799720764 l-0.13763819821178913,-3.4570449590682983 0.7547087222337723,-4.927996098995209 l1.2740753591060638,-3.1197556853294373 2.26032555103302,-3.578546643257141 l1.9255919754505157,-1.8040448427200317 2.1172578632831573,-1.047503650188446 m5.4262953996658325,12.318633794784546 l-0.11571859009563923,0.2805980108678341 0.49443986266851425,0.9039297699928284 l0.4803144186735153,0.35066232085227966 0.17872614786028862,-0.9826622903347015 l-0.379532128572464,-0.4240170866250992 -0.15436068177223206,0.5501659587025642 l0.31380023807287216,-0.15823131427168846 -0.17669571563601494,-0.13084569945931435 l-0.12398085556924343,0.46492092311382294 0.3675907477736473,-0.1781374216079712 l-0.11235366575419903,-0.18789246678352356 -0.09458174929022789,0.3069564886391163 l0.3569342568516731,-0.1641894318163395 -0.15619898214936256,-0.1823623664677143 l-0.10908601805567741,0.5313409492373466 0.4670511558651924,-0.3213696554303169 l-0.18085354939103127,-0.045735496096313 -0.014701796462759376,0.4410095512866974 l0.5614320561289787,-0.41605956852436066 -0.26017121970653534,-0.0324721890501678 l0.006491534295491874,0.45213520526885986 0.5971091985702515,-0.5175173282623291 l-0.2897103503346443,0.06437454838305712 0.03205297747626901,0.4618155211210251 l0.6722612679004669,-0.42452841997146606 -0.32373514026403427,-0.03964399453252554 l-0.06371850613504648,0.5794095993041992 0.7299703359603882,-0.5137186124920845 l-0.2747729420661926,-0.026318326126784086 -0.047646486200392246,0.5691340938210487 l0.6379562616348267,-0.4927016422152519 -0.35041172057390213,0.09772856719791889 l0.027900421991944313,0.43958205729722977 0.5962210521101952,-0.4408562183380127 l-0.21018456667661667,0.019173253094777465 -0.05140072200447321,0.41789866983890533 l0.48568882048130035,-0.3489609807729721 -0.20557884126901627,-0.08693504147231579 l-0.00462429306935519,0.6456544250249863 " fill="none" stroke="black" stroke-width="1" /></svg>