<?xml version="1.0" encoding="utf-8" ?>
<svg baseProfile="full" height="2980.0" version="1.1" width="1815.0" xmlns="http://www.w3.org/2000/svg" xmlns:ev="http://www.w3.org/2001/xml-events" xmlns:xlink="http://www.w3.org/1999/xlink"><defs /><rect fill="white" height="2980.0" width="1815.0" x="0" y="0" /><path d="M90.0,895.0 m160.0,-135.0 l130.0,-60.0 205.0,-10.0 l200.0,40.0 240.0,75.0 l465.0,220.0 165.0,125.0 l65.0,85.0 40.0,85.0 l30.0,195.0 -10.0,165.0 l-85.0,275.0 -160.0,285.0 l-115.0,130.0 -275.0,230.0 l-170.0,80.0 -110.0,10.0 l-85.0,-15.0 -215.0,-65.0 l-195.0,-155.0 -190.0,-235.0 l-105.0,-245.0 -50.0,-230.0 l0.0,-150.0 20.0,-200.0 l70.0,-330.0 -20.0,-155.0 m430.0,1685.0 l0.0,35.0 -105.0,210.0 l-40.0,115.0 m655.0,-300.0 l70.0,95.0 95.0,190.0 m-350.0,-1160.0 l55.0,-155.0 10.0,-295.0 l35.0,-240.0 -115.0,200.0 l40.0,-65.0 30.0,-130.0 l25.0,5.0 25.0,60.0 l55.0,340.0 m-385.0,-815.0 l30.0,-135.0 0.0,-160.0 l25.0,-60.0 105.0,-25.0 l130.0,0.0 110.0,20.0 l75.0,25.0 10.0,25.0 l10.0,270.0 -15.0,140.0 m-535.0,-760.0 l95.0,0.0 315.0,120.0 l25.0,20.0 -60.0,25.0 l180.0,40.0 -50.0,-30.0 m-720.0,130.0 l55.0,-30.0 -25.0,-5.0 l-80.0,30.0 85.0,-5.0 l-60.0,70.0 20.0,35.0 l165.0,45.0 " fill="none" stroke="black" stroke-width="1" /></svg>