<?xml version="1.0" encoding="utf-8" ?>
<svg baseProfile="full" height="950.0" version="1.1" width="3580.0" xmlns="http://www.w3.org/2000/svg" xmlns:ev="http://www.w3.org/2001/xml-events" xmlns:xlink="http://www.w3.org/1999/xlink"><defs /><rect fill="white" height="950.0" width="3580.0" x="0" y="0" /><path d="M25,215.0 m35.0,490.0 l30.0,185.0 m0.0,-685.0 l55.0,15.0 425.0,0.0 l1300.0,75.0 m-1785.0,605.0 l40.0,-15.0 135.0,0.0 l325.0,40.0 375.0,0.0 l525.0,-50.0 360.0,-5.0 l75.0,-160.0 20.0,-95.0 l0.0,-125.0 -30.0,-200.0 m-50.0,5.0 l30.0,-10.0 395.0,10.0 l75.0,15.0 10.0,25.0 l-25.0,425.0 -50.0,-20.0 l-120.0,0.0 -190.0,15.0 l-35.0,15.0 m-1610.0,-265.0 l-20.0,-30.0 -15.0,30.0 l25.0,-5.0 m470.0,40.0 l-25.0,-15.0 -55.0,0.0 l55.0,-15.0 m385.0,-35.0 l-35.0,0.0 45.0,10.0 m300.0,45.0 l-30.0,-15.0 -30.0,10.0 l-5.0,25.0 70.0,-5.0 m215.0,25.0 l-10.0,25.0 30.0,10.0 l5.0,-25.0 m635.0,-130.0 l440.0,-10.0 50.0,20.0 l5.0,35.0 -45.0,50.0 l-55.0,25.0 -90.0,0.0 l-140.0,-35.0 -255.0,-15.0 m700.0,-410.0 l-10.0,510.0 -55.0,230.0 l580.0,-10.0 50.0,-10.0 l25.0,-70.0 5.0,-235.0 l-100.0,-500.0 -40.0,20.0 l-320.0,35.0 -175.0,40.0 l45.0,-25.0 " fill="none" stroke="black" stroke-width="1" /></svg>