<?xml version="1.0" encoding="utf-8" ?>
<svg baseProfile="full" height="68.88956106617115" version="1.1" width="100.3285276889801" xmlns="http://www.w3.org/2000/svg" xmlns:ev="http://www.w3.org/2001/xml-events" xmlns:xlink="http://www.w3.org/1999/xlink"><defs /><rect fill="white" height="68.88956106617115" width="100.3285276889801" x="0" y="0" /><path d="M25,29.784199664136395 m0.6227561831474304,10.15657901763916 l0.11260643601417542,3.9487823843955994 m-0.620577372610569,-14.570156335830688 l5.876160264015198,-0.05858967546373606 5.058820843696594,-0.2177596464753151 l6.206905841827393,-0.20573457702994347 7.376255989074707,-0.30691031366586685 l15.111652612686157,-0.4320704936981201 4.165457785129547,-0.407516211271286 m-42.02659606933594,14.524575471878052 l1.7555513978004456,0.2647281624376774 5.032016634941101,0.049821874126791954 l6.736314296722412,-0.3155696764588356 18.818273544311523,-0.7805393636226654 l5.722251534461975,-0.5085179582238197 5.018031597137451,-0.13942464254796505 l3.163500130176544,-0.4474262520670891 1.225147321820259,-0.5891269072890282 l0.6242752820253372,-0.9218762069940567 0.3497234359383583,-2.1429115533828735 l-0.30002787709236145,-3.9958372712135315 -0.9120634198188782,-5.108972787857056 m-43.69942665100098,11.110026836395264 l-0.35099659115076065,0.13918153010308743 -0.11722197756171227,0.9610854089260101 l0.29101109132170677,1.2829259037971497 0.8053725212812424,0.9596586227416992 l1.236037239432335,0.5331234261393547 1.845993995666504,-0.035601817071437836 l1.394619643688202,-1.0061568021774292 0.8146169036626816,-1.7448215186595917 l-0.011658441508188844,-1.9110170006752014 -0.8271836489439011,-1.037844717502594 l-1.4626596868038177,-0.5777817219495773 -2.0204591751098633,0.0498307915404439 l-0.9652629494667053,0.557316467165947 -0.4819441959261894,0.9368866682052612 l0.0871217530220747,1.1162222921848297 m29.63003635406494,0.04206023644655943 l-0.9156988561153412,0.23923270404338837 -0.5590501055121422,0.8247014880180359 l-0.0803256593644619,1.1745094507932663 0.4622012749314308,0.9224552661180496 l0.9863773733377457,0.7684043794870377 1.8680378794670105,0.40000416338443756 l1.9311735033988953,-0.39327044039964676 1.433975100517273,-1.271083950996399 l0.646812915802002,-1.7872558534145355 -0.21902553737163544,-1.7959189414978027 l-1.1510512232780457,-1.1340293288230896 -1.796160340309143,-0.5131806805729866 l-2.1569469571113586,0.13342424295842648 -1.0616589337587357,0.5611700564622879 l-0.6785339117050171,0.917450487613678 -0.10686749592423439,1.1069759726524353 m-21.214559078216553,-11.18515133857727 l-0.04498782567679882,2.668960392475128 2.2455987334251404,0.7430054992437363 l4.2580342292785645,-0.015595763688907027 0.16861556097865105,-4.266250431537628 l-3.633970022201538,0.15439576469361782 -3.0458995699882507,0.6274854391813278 m12.605212926864624,-1.3647401332855225 l-0.1668236218392849,2.5787675380706787 0.13881443068385124,1.562781035900116 l3.9532268047332764,0.07068139035254717 5.314419269561768,-0.3379896283149719 l0.014889102894812822,-5.344780087471008 -6.184027194976807,0.805247575044632 " fill="none" stroke="black" stroke-width="1" /></svg>