<?xml version="1.0" encoding="utf-8" ?>
<svg baseProfile="full" height="80.8972498960793" version="1.1" width="95.16731839627028" xmlns="http://www.w3.org/2000/svg" xmlns:ev="http://www.w3.org/2001/xml-events" xmlns:xlink="http://www.w3.org/1999/xlink"><defs /><rect fill="white" height="80.8972498960793" width="95.16731839627028" x="0" y="0" /><path d="M54.25939757376909,27.14442213997245 m-2.0316387712955475,-0.12741569429636002 l-5.468171834945679,0.7252031564712524 -6.763642430305481,1.7940400540828705 l-4.23591822385788,1.6271723806858063 -3.636135160923004,1.9711710512638092 l-2.9726341366767883,2.3392610251903534 -2.249549478292465,2.7029746770858765 l-1.385965645313263,2.893823981285095 -0.5157418921589851,3.179914653301239 l0.38127411156892776,2.9855936765670776 1.54166579246521,2.4978357553482056 l2.745709717273712,2.2556374967098236 5.279136300086975,2.3276405036449432 l9.039483666419983,1.4933232963085175 6.6357022523880005,0.0866517424583435 l5.702188014984131,-0.792764276266098 5.42237401008606,-1.7489837110042572 l3.1089571118354797,-1.7232932150363922 2.3646225035190582,-2.076885998249054 l1.7376857995986938,-2.5319671630859375 0.9759547561407089,-3.0031627416610718 l0.23256435990333557,-3.2863035798072815 -0.5004844069480896,-3.10248464345932 l-1.9319058954715729,-4.124540090560913 -2.663375735282898,-3.441861569881439 l-3.441556692123413,-2.689148485660553 -2.6668789982795715,-1.305651068687439 l-2.9779669642448425,-0.8137323707342148 -3.036569058895111,-0.2564709819853306 l-2.937360405921936,0.1918019913136959 m-3.205712139606476,12.913963794708252 l-0.1042530033737421,-0.4928252846002579 0.06339722778648138,-4.240569472312927 l-0.0714187603443861,-4.779619574546814 -0.014686217764392495,-3.4298092126846313 m0.19393889233469963,13.365310430526733 l4.088394045829773,-0.057949540205299854 8.834254741668701,-0.5397222191095352 l3.694937527179718,-0.38424231112003326 3.2444998621940613,-0.09645240381360054 " fill="none" stroke="black" stroke-width="1" /></svg>