<?xml version="1.0" encoding="utf-8" ?>
<svg baseProfile="full" height="1485.0" version="1.1" width="2000.0" xmlns="http://www.w3.org/2000/svg" xmlns:ev="http://www.w3.org/2001/xml-events" xmlns:xlink="http://www.w3.org/1999/xlink"><defs /><rect fill="white" height="1485.0" width="2000.0" x="0" y="0" /><path d="M1475.0,195.0 m-100.0,-5.0 l-390.0,-115.0 -290.0,0.0 l-175.0,80.0 -150.0,95.0 l-120.0,100.0 -175.0,295.0 l-50.0,215.0 5.0,200.0 l95.0,130.0 120.0,90.0 l280.0,140.0 220.0,40.0 l215.0,0.0 170.0,-30.0 l255.0,-80.0 180.0,-115.0 l170.0,-205.0 135.0,-205.0 l105.0,-270.0 -5.0,-155.0 l-165.0,-345.0 -90.0,-30.0 l-120.0,0.0 -185.0,85.0 l-120.0,30.0 m-425.0,80.0 l0.0,140.0 m110.0,-195.0 l25.0,0.0 40.0,30.0 l35.0,75.0 0.0,60.0 l-75.0,30.0 -5.0,-25.0 l175.0,-20.0 m350.0,105.0 l-15.0,115.0 m-530.0,-40.0 l-10.0,385.0 475.0,0.0 " fill="none" stroke="black" stroke-width="1" /></svg>