<?xml version="1.0" encoding="utf-8" ?>
<svg baseProfile="full" height="75.00873629267517" version="1.1" width="128.6673074029386" xmlns="http://www.w3.org/2000/svg" xmlns:ev="http://www.w3.org/2001/xml-events" xmlns:xlink="http://www.w3.org/1999/xlink"><defs /><rect fill="white" height="75.00873629267517" width="128.6673074029386" x="0" y="0" /><path d="M39.92326907813549,27.5575693231076 m-3.456195294857025,0.3570592403411865 l-3.2230958342552185,0.789775624871254 -6.777858734130859,0.6001266092061996 l-1.1030536144971848,0.4416024312376976 -0.36306560039520264,0.7384643703699112 l0.23821307346224785,1.0719221830368042 1.250571608543396,1.2540878355503082 l3.9220231771469116,2.044464647769928 10.485970973968506,2.8406161069869995 l14.40299391746521,2.137446701526642 17.768826484680176,1.4935161173343658 l21.51355743408203,0.11505045928061008 6.277298331260681,-1.0465743392705917 l2.0857106149196625,-1.0712065547704697 0.7221417874097824,-1.295897513628006 l-0.28170913457870483,-2.3125363886356354 -1.4274418354034424,-1.9475235044956207 l-3.752431571483612,-2.823706567287445 -3.6210843920707703,-1.8000414967536926 l-4.0398019552230835,-1.3907110691070557 -7.165365815162659,-1.5721949934959412 l-8.420247435569763,-1.1813092231750488 -12.374221086502075,0.00022594149413635023 l-16.05018138885498,0.2548687160015106 -5.509217381477356,0.4362821951508522 l-3.2682931423187256,0.5641496181488037 -1.6887785494327545,0.6219596788287163 m16.193021535873413,5.944173336029053 l0.1332210749387741,3.140239715576172 0.08302203379571438,6.712239980697632 l0.35278983414173126,4.968240261077881 0.8266289532184601,2.36635684967041 l13.346714973449707,-0.4143444076180458 0.7823219895362854,-4.789529740810394 l-0.03290517721325159,-7.679842114448547 -3.8093259930610657,-2.416246682405472 l-8.06578516960144,-0.7394328713417053 -2.6818788051605225,0.07307224906980991 m0.35101987421512604,-3.9561504125595093 l0.5413499101996422,0.9836503863334656 0.7890807837247849,2.837398946285248 l0.9035422652959824,2.813713550567627 0.5581818148493767,1.191846951842308 l9.71842646598816,-0.2867249399423599 5.199717283248901,-0.16879430040717125 l-0.0016604544362053275,-3.3057603240013123 -0.9971614927053452,-3.809138834476471 m-20.719990730285645,1.903870552778244 l-0.1349360216408968,0.5095324292778969 -0.11513496749103069,1.828864961862564 l0.41449688374996185,1.5532892942428589 4.804437458515167,0.5724546685814857 l4.662897288799286,-0.31784214079380035 1.5750186145305634,-0.7256121933460236 l0.1043703593313694,-2.528393566608429 -0.6415490061044693,-0.7391350716352463 l-1.8553602695465088,-0.7631504535675049 -6.7536211013793945,-0.28839651495218277 l-2.350824475288391,0.4060029610991478 -1.1024108529090881,0.6130742281675339 l-0.5447986349463463,1.079173982143402 " fill="none" stroke="black" stroke-width="1" /></svg>