<?xml version="1.0" encoding="utf-8" ?>
<svg baseProfile="full" height="1480.0" version="1.1" width="4465.0" xmlns="http://www.w3.org/2000/svg" xmlns:ev="http://www.w3.org/2001/xml-events" xmlns:xlink="http://www.w3.org/1999/xlink"><defs /><rect fill="white" height="1480.0" width="4465.0" x="0" y="0" /><path d="M730.0,740.0 m-175.0,20.0 l-165.0,45.0 -275.0,25.0 l-75.0,35.0 -15.0,25.0 l30.0,80.0 160.0,105.0 l345.0,150.0 455.0,160.0 l235.0,45.0 1435.0,25.0 l1120.0,-45.0 100.0,-25.0 l75.0,-45.0 0.0,-25.0 l-120.0,-140.0 -265.0,-140.0 l-200.0,-85.0 -425.0,-120.0 l-355.0,-70.0 -490.0,-65.0 l-490.0,-5.0 -310.0,30.0 l-245.0,85.0 -90.0,0.0 l-105.0,-25.0 -140.0,5.0 m3080.0,410.0 l425.0,-280.0 190.0,-60.0 l-10.0,55.0 -95.0,150.0 l-195.0,240.0 -50.0,40.0 l-130.0,35.0 m-2340.0,-690.0 l0.0,-75.0 105.0,-275.0 l105.0,-185.0 115.0,-125.0 l20.0,100.0 -40.0,235.0 l0.0,275.0 m-205.0,365.0 l410.0,15.0 175.0,-20.0 l200.0,0.0 150.0,55.0 l20.0,25.0 0.0,50.0 l-35.0,50.0 -50.0,25.0 l-215.0,-20.0 -130.0,-30.0 l-355.0,-10.0 -175.0,-40.0 l-5.0,-25.0 55.0,-70.0 " fill="none" stroke="black" stroke-width="1" /></svg>