<?xml version="1.0" encoding="utf-8" ?>
<svg baseProfile="full" height="1155.0" version="1.1" width="1050.0" xmlns="http://www.w3.org/2000/svg" xmlns:ev="http://www.w3.org/2001/xml-events" xmlns:xlink="http://www.w3.org/1999/xlink"><defs /><rect fill="white" height="1155.0" width="1050.0" x="0" y="0" /><path d="M570.0,60.0 m-95.0,-20.0 l-60.0,0.0 -95.0,25.0 l-85.0,40.0 -90.0,85.0 l-100.0,175.0 -20.0,180.0 l35.0,275.0 70.0,155.0 l105.0,85.0 80.0,35.0 l195.0,35.0 130.0,0.0 l110.0,-30.0 135.0,-110.0 l55.0,-95.0 65.0,-160.0 l20.0,-165.0 -5.0,-105.0 l-25.0,-90.0 -60.0,-115.0 l-95.0,-95.0 -165.0,-115.0 l-90.0,-25.0 -55.0,10.0 m-35.0,610.0 l40.0,5.0 -20.0,30.0 l-30.0,15.0 -5.0,-20.0 l30.0,-45.0 m-5.0,-10.0 l0.0,-135.0 65.0,-275.0 l120.0,225.0 -110.0,-270.0 l-25.0,-10.0 -35.0,20.0 l-80.0,90.0 m95.0,445.0 l205.0,175.0 " fill="none" stroke="black" stroke-width="1" /></svg>