<?xml version="1.0" encoding="utf-8" ?>
<svg baseProfile="full" height="72.14081982498101" version="1.1" width="68.42031739775848" xmlns="http://www.w3.org/2000/svg" xmlns:ev="http://www.w3.org/2001/xml-events" xmlns:xlink="http://www.w3.org/1999/xlink"><defs /><rect fill="white" height="72.14081982498101" width="68.42031739775848" x="0" y="0" /><path d="M35.49170158803463,25.414051041007042 m-1.9424071907997131,-0.41405104100704193 l-1.2199579179286957,0.023491480387747288 -1.6293977200984955,0.41051845997571945 l-1.980440765619278,1.1496257781982422 -1.83776393532753,1.9827668368816376 l-1.0892554372549057,2.0815934240818024 -0.792478621006012,3.716723322868347 l0.2389371022582054,4.873988926410675 1.5271711349487305,3.5752299427986145 l1.719392091035843,2.176755517721176 1.88796728849411,1.399577111005783 l2.1241076290607452,0.7502482831478119 3.448626399040222,0.000300741503451718 l2.475605010986328,-0.9107789397239685 1.9962599873542786,-1.4452777802944183 l1.4998573064804077,-1.8168443441390991 0.9686344116926193,-2.032262086868286 l0.5336127057671547,-2.349582761526108 0.0001463306398363784,-3.4383738040924072 l-0.5214537680149078,-2.7677908539772034 -0.9530775994062424,-2.3831862211227417 l-1.292727142572403,-1.9785574078559875 -1.5377968549728394,-1.4069616794586182 l-1.7469018697738647,-0.8697699010372162 -2.672036588191986,-0.36290492862463 m-1.2555626034736633,10.166387557983398 l-0.14629236422479153,-0.5566418915987015 8.171232366294134e-05,-1.072443276643753 l0.1952030509710312,-0.7727350294589996 0.7775583118200302,-2.234504371881485 l-0.2947104908525944,-0.8739252388477325 -1.380792111158371,-1.2251991033554077 m0.8184365928173065,7.150129675865173 l2.5094717741012573,0.6153862550854683 2.19601109623909,0.5547086149454117 l0.9615450352430344,0.576021745800972 0.2723701670765877,0.7599227130413055 l-0.6127394363284111,0.8553699404001236 m-6.96501612663269,-7.499361634254456 l-1.0683546960353851,0.02173280343413353 -3.3596912026405334,0.046327635645866394 " fill="none" stroke="black" stroke-width="1" /></svg>