<?xml version="1.0" encoding="utf-8" ?>
<svg baseProfile="full" height="89.52115025371313" version="1.1" width="107.95999520458281" xmlns="http://www.w3.org/2000/svg" xmlns:ev="http://www.w3.org/2001/xml-events" xmlns:xlink="http://www.w3.org/1999/xlink"><defs /><rect fill="white" height="89.52115025371313" width="107.95999520458281" x="0" y="0" /><path d="M26.763665648177266,34.41837064921856 m1.083139181137085,-2.193804383277893 l2.338380366563797,-1.9289261102676392 2.6101166009902954,-1.7049764096736908 l3.5037481784820557,-1.4723938703536987 6.637287139892578,-1.4397309720516205 l8.890018463134766,-0.678538903594017 13.020855188369751,0.4173247143626213 l6.842398047447205,1.1592473834753036 5.37347674369812,1.6063874959945679 l2.426614761352539,1.0759726911783218 1.4728578925132751,1.1212106049060822 l1.4630195498466492,2.0701907575130463 0.5344174429774284,1.7211955785751343 l-0.05716301500797272,1.4069239795207977 -0.6861939281225204,1.011299043893814 m-55.43666362762451,-4.606132805347443 l-0.08049723692238331,3.588544726371765 0.5077958479523659,4.450778663158417 l0.9259581565856934,2.5701507925987244 1.4229509234428406,2.0498692989349365 l1.961672455072403,1.6368469595909119 2.685546576976776,1.284978836774826 l3.5114508867263794,0.8964503556489944 6.7235565185546875,0.7924007624387741 l12.016184329986572,0.05798134487122297 8.43130886554718,-0.8188430219888687 l7.58757472038269,-1.5875299274921417 6.2669068574905396,-2.1237018704414368 m-51.5986967086792,-9.074633717536926 l1.734391301870346,5.794948935508728 1.915440708398819,8.077942132949829 l1.2695582211017609,6.255468130111694 m25.544133186340332,-20.739567279815674 l0.5745797604322433,2.2252681851387024 0.5018062144517899,11.727651357650757 l0.5902192741632462,6.3880544900894165 0.8265289664268494,3.6888372898101807 m-32.58075475692749,-10.187528133392334 l1.9248278439044952,0.8035066723823547 4.013630747795105,0.8882612735033035 l6.645143032073975,1.0498543083667755 11.600728034973145,1.0495897382497787 l11.141175031661987,0.1495983637869358 5.91636061668396,-0.6248223036527634 l3.0848416686058044,-0.7429718226194382 1.9085593521595001,-0.8255298435688019 l0.9981539100408554,-0.9116148948669434 m-49.751009941101074,1.6903644800186157 l0.5714472383260727,1.1155373603105545 1.585274487733841,1.5028016269207 l3.971356451511383,2.3065049946308136 5.717909932136536,1.93791463971138 l7.320399880409241,1.382887214422226 7.6897889375686646,0.6376246362924576 l7.186036109924316,-0.06896970327943563 6.6637736558914185,-0.8982303738594055 l3.8416916131973267,-1.001279503107071 4.476425647735596,-1.8830692768096924 l2.5758570432662964,-1.670820415019989 1.545092612504959,-1.6528545320034027 l0.8283064514398575,-1.6978317499160767 0.15177233144640923,-1.6095653176307678 m-47.706308364868164,-3.8967955112457275 l0.068322136066854,2.8959164023399353 1.224513053894043,6.574578285217285 l1.2639005482196808,3.0441373586654663 1.5500518679618835,2.014656215906143 l2.1539323031902313,1.5494701266288757 2.8638955950737,1.1525709927082062 l3.531041443347931,0.728614404797554 9.836233854293823,0.5931286513805389 l18.727378845214844,-1.3845966756343842 3.506721258163452,-1.038883849978447 l2.104896754026413,-1.4231054484844208 1.2224873155355453,-1.775880604982376 m-32.76740550994873,-19.214378595352173 l0.6433321535587311,-2.5320714712142944 m6.191211938858032,3.091062307357788 l0.16063667833805084,-2.747206389904022 " fill="none" stroke="black" stroke-width="1" /></svg>