<?xml version="1.0" encoding="utf-8" ?>
<svg baseProfile="full" height="2225.0" version="1.1" width="2885.0" xmlns="http://www.w3.org/2000/svg" xmlns:ev="http://www.w3.org/2001/xml-events" xmlns:xlink="http://www.w3.org/1999/xlink"><defs /><rect fill="white" height="2225.0" width="2885.0" x="0" y="0" /><path d="M45.0,750.0 m55.0,-110.0 l105.0,-105.0 125.0,-80.0 l215.0,-105.0 265.0,-55.0 l585.0,-30.0 565.0,70.0 l380.0,110.0 220.0,95.0 l135.0,85.0 50.0,85.0 l5.0,50.0 -20.0,15.0 m-2705.0,-145.0 l45.0,30.0 80.0,140.0 l50.0,50.0 230.0,115.0 l200.0,55.0 435.0,85.0 l305.0,35.0 345.0,-5.0 l255.0,-25.0 400.0,-70.0 l90.0,-50.0 105.0,-90.0 l245.0,-125.0 50.0,-40.0 m-2730.0,-30.0 l0.0,470.0 60.0,455.0 m2485.0,-775.0 l0.0,145.0 -80.0,495.0 l-10.0,295.0 15.0,110.0 m-2475.0,-380.0 l75.0,155.0 105.0,155.0 l195.0,110.0 380.0,100.0 l750.0,135.0 385.0,25.0 l130.0,0.0 130.0,-25.0 l230.0,-105.0 85.0,-55.0 l80.0,-80.0 45.0,-100.0 m-2635.0,-775.0 l125.0,80.0 315.0,105.0 l775.0,160.0 180.0,20.0 l440.0,-5.0 160.0,-35.0 l225.0,-90.0 320.0,-60.0 m-2505.0,50.0 l205.0,75.0 155.0,35.0 l175.0,80.0 300.0,95.0 l570.0,135.0 185.0,25.0 l250.0,25.0 365.0,-5.0 l290.0,-110.0 25.0,-15.0 l-15.0,-10.0 m-2090.0,-985.0 l35.0,-75.0 30.0,-440.0 m530.0,525.0 l35.0,-100.0 60.0,-425.0 l30.0,-90.0 " fill="none" stroke="black" stroke-width="1" /></svg>