<?xml version="1.0" encoding="utf-8" ?>
<svg baseProfile="full" height="95.72271076962352" version="1.1" width="97.61808021692559" xmlns="http://www.w3.org/2000/svg" xmlns:ev="http://www.w3.org/2001/xml-events" xmlns:xlink="http://www.w3.org/1999/xlink"><defs /><rect fill="white" height="95.72271076962352" width="97.61808021692559" x="0" y="0" /><path d="M25.08107300993288,45.94368224912614 m0.002470629697199911,1.444249004125595 l0.6489694863557816,3.360334634780884 0.61451256275177,4.899055659770966 l0.52227433770895,4.2325276136398315 0.4857673868536949,0.395682193338871 l9.588966965675354,-1.769128441810608 6.186904311180115,-0.7908526808023453 l4.891911149024963,-0.4278523474931717 4.66569721698761,-0.22332118824124336 l4.910278916358948,0.02291677286848426 4.295420944690704,0.05229667294770479 l4.130700528621674,0.13619947247207165 0.5007559433579445,-0.37520967423915863 l0.26695674285292625,-3.111157715320587 0.042756106704473495,-6.869149804115295 l-0.22416124120354652,-4.044732749462128 -0.9373363852500916,-0.5245880410075188 l-3.056359887123108,-0.15739642083644867 -17.694499492645264,0.8947215229272842 l-13.84922981262207,0.9789389371871948 -3.5312196612358093,0.6987655907869339 l-1.5586057305335999,0.6724583357572556 -0.6096190586686134,0.7597451657056808 m1.2039706110954285,9.239758253097534 l6.398564577102661,0.7398556172847748 10.7913339138031,0.5661148950457573 l11.19720458984375,0.18751934170722961 7.6168811321258545,-0.5419714376330376 l2.736300528049469,-0.6009168550372124 1.740185171365738,-0.741485208272934 m-42.05882549285889,2.276637703180313 l0.924711674451828,0.7545483112335205 2.965954840183258,1.114860326051712 l4.5211416482925415,0.8475831151008606 10.19484281539917,0.6736908853054047 l7.592676281929016,0.24975808337330818 6.379424333572388,-0.4678131639957428 l5.319643616676331,-1.206885352730751 3.0086609721183777,-1.1030104756355286 l3.0476537346839905,-1.8674099445343018 1.430613100528717,-1.4997011423110962 l0.5500205233693123,-1.390036940574646 -0.19265295937657356,-1.1844577640295029 m-42.88238525390625,1.444195955991745 l-0.3255421668291092,2.608700394630432 -0.03229162888601422,4.780550003051758 l0.7445189356803894,3.7952107191085815 1.0642747581005096,2.081485837697983 l1.4793789386749268,1.4575161039829254 2.0980171859264374,1.0929586738348007 l2.665248215198517,0.7026373594999313 5.2164024114608765,0.5142593756318092 l9.326708316802979,0.0003733374614967033 9.667744636535645,-0.9572572261095047 l5.770573616027832,-1.3776576519012451 2.754099667072296,-1.2351296097040176 l1.8827402591705322,-1.45265132188797 1.1742658913135529,-1.6115403175354004 l0.8886506408452988,-2.965606451034546 0.3829852119088173,-4.970327317714691 l-0.5563212186098099,-3.455691933631897 -1.2632544338703156,-2.5088664889335632 m-22.979273796081543,-2.0730891823768616 l-1.404852271080017,-7.642760872840881 -0.8477314561605453,-5.349777936935425 m8.009197115898132,12.763851881027222 l-0.21820880472660065,-6.024725437164307 -0.36826927214860916,-6.112238764762878 m7.258443236351013,11.730380058288574 l-0.3270001709461212,-5.419079065322876 -0.6885163486003876,-5.762832164764404 l-0.3738308697938919,-3.769332468509674 -0.10567981749773026,-2.5966256856918335 l-0.0037965193041600287,-2.1843133866786957 0.236629880964756,-1.375613957643509 l0.5553628504276276,-1.201135516166687 0.3258439898490906,-0.17068995162844658 l0.2856557257473469,0.7055459171533585 m-15.358846187591553,14.993005990982056 l-1.128387302160263,-2.074158489704132 -0.990874320268631,-2.8005197644233704 l-1.6526804864406586,-5.327529311180115 " fill="none" stroke="black" stroke-width="1" /></svg>