<?xml version="1.0" encoding="utf-8" ?>
<svg baseProfile="full" height="2445.0" version="1.1" width="3000.0" xmlns="http://www.w3.org/2000/svg" xmlns:ev="http://www.w3.org/2001/xml-events" xmlns:xlink="http://www.w3.org/1999/xlink"><defs /><rect fill="white" height="2445.0" width="3000.0" x="0" y="0" /><path d="M330.0,1030.0 m-5.0,70.0 l45.0,195.0 25.0,210.0 l-20.0,285.0 m35.0,-800.0 l55.0,0.0 345.0,125.0 l265.0,60.0 305.0,40.0 l320.0,5.0 300.0,-85.0 l170.0,-80.0 220.0,-135.0 l35.0,-60.0 -10.0,-75.0 l-35.0,-40.0 -135.0,-60.0 l-410.0,-65.0 -760.0,-10.0 l-310.0,30.0 -180.0,60.0 l-85.0,65.0 -30.0,45.0 l-20.0,45.0 -5.0,100.0 m1985.0,-45.0 l20.0,140.0 5.0,285.0 l-65.0,295.0 -10.0,140.0 m-1870.0,45.0 l-15.0,-30.0 240.0,95.0 l350.0,95.0 200.0,40.0 l445.0,50.0 225.0,0.0 l115.0,-30.0 200.0,-80.0 l170.0,-100.0 m-2110.0,-320.0 l-40.0,-10.0 -45.0,20.0 l-110.0,90.0 -90.0,125.0 l-20.0,60.0 0.0,115.0 l105.0,100.0 175.0,95.0 l475.0,165.0 425.0,90.0 l295.0,30.0 570.0,5.0 l270.0,-20.0 345.0,-125.0 l160.0,-100.0 90.0,-100.0 l40.0,-105.0 -5.0,-125.0 l-30.0,-70.0 -40.0,-65.0 l-110.0,-85.0 -255.0,-20.0 m-1405.0,-760.0 l-15.0,-25.0 -45.0,-595.0 m470.0,645.0 l-35.0,-545.0 m510.0,530.0 l-35.0,-20.0 -20.0,-80.0 l-35.0,-370.0 -25.0,-95.0 l-90.0,-95.0 0.0,-115.0 l35.0,-55.0 30.0,20.0 l75.0,155.0 0.0,55.0 l-35.0,60.0 " fill="none" stroke="black" stroke-width="1" /></svg>