<?xml version="1.0" encoding="utf-8" ?>
<svg baseProfile="full" height="75.0690494326409" version="1.1" width="96.80955044925213" xmlns="http://www.w3.org/2000/svg" xmlns:ev="http://www.w3.org/2001/xml-events" xmlns:xlink="http://www.w3.org/1999/xlink"><defs /><rect fill="white" height="75.0690494326409" width="96.80955044925213" x="0" y="0" /><path d="M26.710446635261178,27.18641998595558 m0.41991572827100754,0.7317923009395599 l-0.09798092767596245,4.479061961174011 -0.07099746260792017,10.484998226165771 l0.03636117558926344,6.6509997844696045 0.43031658977270126,0.40173593908548355 l2.8666141629219055,0.13404123485088348 5.325445532798767,-0.2745014987885952 l6.624730229377747,-0.18567558377981186 15.739514827728271,0.016399325104430318 l7.175772786140442,0.06255768705159426 1.2713398039340973,-0.7933244854211807 l0.6281182914972305,-1.2418611347675323 0.6306006014347076,-4.166249632835388 l0.24987183511257172,-8.953287601470947 -0.2292194962501526,-6.832533478736877 l-0.5561018735170364,-0.4302232339978218 -20.5942702293396,-0.2288142405450344 l-9.929559826850891,0.1704205572605133 -7.736836671829224,0.3911774978041649 l-3.894081711769104,0.0882147066295147 m0.22141657769680023,11.33543610572815 l3.977735936641693,0.10685919784009457 14.928466081619263,0.8433286845684052 l14.350652694702148,0.5963166430592537 8.121989965438843,0.24556191638112068 l2.8311118483543396,-0.22998321801424026 m-39.610092639923096,-4.4343021512031555 l9.896246790885925,0.831562802195549 16.400171518325806,0.862944945693016 l11.881228685379028,0.5494331195950508 3.810622990131378,0.3908991068601608 m-37.039451599121094,-4.588373005390167 l-0.0556199811398983,-4.537757635116577 0.3345910832285881,-1.7354588210582733 l0.5988652259111404,-1.3382072746753693 0.9972832351922989,-0.9118515253067017 l1.8477341532707214,-0.6042155995965004 2.1113555133342743,-0.07354160770773888 l1.6732926666736603,0.4286903515458107 1.6551056504249573,1.1059001088142395 l2.6220962405204773,3.5059669613838196 1.4923350512981415,3.218175172805786 l0.9690908342599869,3.0271759629249573 0.033766874112188816,1.312350183725357 l-0.30469395220279694,0.5295785143971443 -1.2939555943012238,0.40388528257608414 l-2.3886701464653015,0.052707428112626076 -2.497985363006592,-0.5061125382781029 l-2.296854853630066,-0.9764400124549866 -1.3733594119548798,-0.9904319047927856 l-0.8988930284976959,-1.2498871237039566 -0.39805464446544647,-2.139812707901001 l0.3738990053534508,-2.079367935657501 1.2242916226387024,-1.7632132768630981 l2.5144824385643005,-1.5340912342071533 2.384898215532303,-0.5001557618379593 l2.3403970897197723,0.0618088711053133 1.9506396353244781,0.7128026336431503 l1.9187858700752258,1.2915530800819397 1.5302293002605438,1.6807009279727936 l0.9651023149490356,1.9024226069450378 0.3766414523124695,1.9539648294448853 l-0.24995701387524605,1.5609583258628845 " fill="none" stroke="black" stroke-width="1" /></svg>