<?xml version="1.0" encoding="utf-8" ?>
<svg baseProfile="full" height="2145.0" version="1.1" width="2960.0" xmlns="http://www.w3.org/2000/svg" xmlns:ev="http://www.w3.org/2001/xml-events" xmlns:xlink="http://www.w3.org/1999/xlink"><defs /><rect fill="white" height="2145.0" width="2960.0" x="0" y="0" /><path d="M540.0,1005.0 m20.0,35.0 l-15.0,250.0 -110.0,530.0 l5.0,75.0 30.0,20.0 l315.0,10.0 265.0,-20.0 l405.0,0.0 585.0,-130.0 l285.0,-5.0 210.0,30.0 l5.0,-430.0 -15.0,-345.0 l-20.0,-165.0 -35.0,-15.0 l-280.0,-5.0 -1380.0,115.0 l-230.0,50.0 -105.0,60.0 m5.0,730.0 l-160.0,-5.0 -95.0,35.0 l-115.0,75.0 -55.0,65.0 l-30.0,90.0 0.0,50.0 l65.0,15.0 260.0,0.0 l265.0,-35.0 360.0,-15.0 l505.0,0.0 245.0,40.0 l245.0,0.0 495.0,-45.0 l290.0,-50.0 90.0,-40.0 l90.0,-65.0 0.0,-60.0 l-35.0,-40.0 -60.0,-50.0 l-145.0,-75.0 -215.0,-35.0 l-135.0,10.0 m-920.0,-1345.0 l-5.0,300.0 -45.0,250.0 m305.0,-530.0 l-5.0,200.0 -75.0,325.0 m-195.0,-545.0 l-130.0,55.0 -60.0,-10.0 l-20.0,-115.0 35.0,-65.0 l105.0,-90.0 70.0,-30.0 l245.0,-35.0 35.0,10.0 l15.0,25.0 15.0,165.0 l-35.0,50.0 -80.0,50.0 " fill="none" stroke="black" stroke-width="1" /></svg>