<?xml version="1.0" encoding="utf-8" ?>
<svg baseProfile="full" height="2415.0" version="1.1" width="3185.0" xmlns="http://www.w3.org/2000/svg" xmlns:ev="http://www.w3.org/2001/xml-events" xmlns:xlink="http://www.w3.org/1999/xlink"><defs /><rect fill="white" height="2415.0" width="3185.0" x="0" y="0" /><path d="M1470.0,420.0 m-120.0,-5.0 l-145.0,30.0 -120.0,80.0 l-80.0,105.0 -75.0,200.0 l-10.0,310.0 90.0,140.0 l105.0,100.0 265.0,120.0 l470.0,130.0 440.0,65.0 l420.0,10.0 45.0,-15.0 l55.0,-50.0 25.0,-150.0 l0.0,-270.0 -40.0,-110.0 l-125.0,-150.0 -175.0,-90.0 l-705.0,-280.0 -195.0,-125.0 l-185.0,-40.0 m-120.0,0.0 l-60.0,-395.0 35.0,-5.0 l140.0,85.0 30.0,35.0 l65.0,100.0 60.0,185.0 l170.0,65.0 m215.0,155.0 l80.0,-25.0 290.0,-145.0 l450.0,-265.0 -40.0,285.0 l-65.0,175.0 -20.0,110.0 l-60.0,105.0 m-1235.0,-140.0 l55.0,20.0 85.0,0.0 l15.0,-30.0 -125.0,-55.0 l-65.0,65.0 m700.0,50.0 l-60.0,20.0 -30.0,50.0 l0.0,50.0 55.0,20.0 l20.0,-50.0 -5.0,-70.0 m-425.0,180.0 l-50.0,0.0 -20.0,25.0 l5.0,25.0 65.0,35.0 l25.0,0.0 20.0,-60.0 l-40.0,-25.0 m0.0,0.0 l55.0,20.0 50.0,60.0 l60.0,150.0 m-110.0,-165.0 l0.0,30.0 65.0,140.0 m-120.0,-130.0 l25.0,5.0 50.0,110.0 m-145.0,-275.0 l-50.0,-30.0 -55.0,0.0 l0.0,15.0 m130.0,130.0 l-135.0,5.0 m110.0,10.0 l-120.0,0.0 m-25.0,205.0 l0.0,105.0 20.0,25.0 l60.0,40.0 95.0,25.0 l205.0,30.0 185.0,0.0 l135.0,-65.0 m-860.0,-35.0 l-165.0,355.0 -170.0,260.0 l-75.0,75.0 -305.0,65.0 l-455.0,55.0 m2015.0,-595.0 l-65.0,195.0 -20.0,120.0 l0.0,150.0 5.0,35.0 l55.0,90.0 85.0,80.0 l170.0,70.0 215.0,30.0 l675.0,0.0 " fill="none" stroke="black" stroke-width="1" /></svg>