<?xml version="1.0" encoding="utf-8" ?>
<svg baseProfile="full" height="84.58566181361675" version="1.1" width="92.65032294031698" xmlns="http://www.w3.org/2000/svg" xmlns:ev="http://www.w3.org/2001/xml-events" xmlns:xlink="http://www.w3.org/1999/xlink"><defs /><rect fill="white" height="84.58566181361675" width="92.65032294031698" x="0" y="0" /><path d="M36.95974973263219,33.812455792940455 m-2.345975488424301,-0.0984802283346653 l-2.9179218411445618,0.6907977163791656 -1.8824578821659088,1.1032875627279282 l-1.9289092719554901,2.0738500356674194 -2.8541213274002075,6.096115708351135 l-0.03036392154172063,3.6964446306228638 1.847386211156845,3.086480498313904 l2.6801708340644836,2.391747236251831 7.07125723361969,3.685668408870697 l6.455134749412537,1.9235363602638245 7.0103853940963745,1.1235519498586655 l6.29034698009491,0.0002061417035292834 2.85820335149765,-0.6676957011222839 l1.784052848815918,-1.1336340755224228 0.8967582136392593,-1.494743525981903 l-0.24566013365983963,-7.992507219314575 -2.6381829380989075,-4.154484868049622 l-3.936713933944702,-3.5713741183280945 -5.077664256095886,-2.8958964347839355 l-4.703629016876221,-2.0361198484897614 -4.373607039451599,-1.2616527080535889 l-6.189360022544861,-1.1830953508615494 m-5.010954141616821,0.2633330225944519 l-0.8187008649110794,-1.3563916087150574 -1.054641231894493,-4.590280055999756 l0.6602208316326141,-2.128298431634903 0.8643463253974915,-0.38282088935375214 l3.3990156650543213,0.7527853548526764 5.374619364738464,3.511973023414612 l2.2783295810222626,2.196558266878128 0.7946516573429108,0.5529734492301941 m7.52760648727417,2.2408217191696167 l6.1418575048446655,-4.4797757267951965 3.4853938221931458,-1.4915108680725098 l0.35946428775787354,0.6827966123819351 -0.2720981277525425,2.1222200989723206 l-2.4193482100963593,5.661593675613403 -1.054283156991005,3.3228787779808044 m-15.6947922706604,1.1867831647396088 l-0.27853894978761673,1.3880681991577148 0.4881621152162552,0.43430883437395096 l0.4469144716858864,-1.2594680488109589 -0.5053849518299103,-0.4240795969963074 l-0.5879731476306915,0.5322806909680367 m8.165143132209778,0.1696190983057022 l-0.6269446015357971,1.045510247349739 0.21427033469080925,0.3470650315284729 l0.3963760659098625,-1.3401280343532562 -0.7459753751754761,0.013243415160104632 l-0.3897474706172943,0.7238217443227768 m-4.420031309127808,2.6490843296051025 l-0.1891697384417057,1.105065569281578 -0.007326441700570285,0.2441997453570366 l0.14449914917349815,-0.3059333562850952 -0.060279215686023235,-0.5763613060116768 l-0.4123116284608841,0.013674449874088168 m-0.947100892663002,-0.14280698262155056 l-0.3567272052168846,3.1524646282196045 -0.6600682437419891,0.5231637135148048 l-1.157333180308342,-0.3149813786149025 -0.92464879155159,-1.4083231985569 l-0.041813990101218224,-1.2632645666599274 m2.396823763847351,0.41890382766723633 l0.5697047337889671,2.8030017018318176 0.3600180894136429,0.5768768861889839 l0.8247753977775574,0.17311709001660347 0.7268495857715607,-0.5267537757754326 m-1.715911626815796,-6.100090146064758 l3.0452564358711243,-0.5830498784780502 m-0.891435518860817,1.19150310754776 l1.989084780216217,0.1286587119102478 m-2.238468676805496,0.6122925132513046 l1.8166328966617584,0.4627394303679466 2.0166100561618805,0.5775303021073341 m-6.880217790603638,-1.5650029480457306 l-4.37387615442276,-0.24169327691197395 -5.110400319099426,-0.2289382368326187 l-2.1796202659606934,0.3233843296766281 -1.1435247212648392,0.6126144900918007 m11.762892007827759,1.1034435033798218 l-2.1703749895095825,0.23212499916553497 -3.1765323877334595,1.2762121856212616 l-3.641004264354706,2.2602230310440063 -1.4310327172279358,1.4869844913482666 m12.302709817886353,-3.697236180305481 l-1.6466215252876282,0.3595579043030739 -3.1469833850860596,2.1520626544952393 l-3.198312819004059,3.11064749956131 -1.2392890453338623,1.928180754184723 l-0.8243367820978165,2.7786359190940857 m19.423247575759888,-13.665467500686646 l1.0979603230953217,-0.4748617112636566 2.0340515673160553,-0.19167831167578697 l3.8259783387184143,0.27847442775964737 6.459193229675293,2.2594401240348816 l2.1486324071884155,1.3395561277866364 2.150222957134247,2.2763454914093018 l0.8740658313035965,1.6538649797439575 m-16.98466658592224,-3.5668936371803284 l1.307789832353592,0.5228260904550552 6.106956601142883,3.782561719417572 l4.393962025642395,3.1944769620895386 2.121797800064087,1.7908744513988495 " fill="none" stroke="black" stroke-width="1" /></svg>