<?xml version="1.0" encoding="utf-8" ?>
<svg baseProfile="full" height="2155.0" version="1.1" width="3865.0" xmlns="http://www.w3.org/2000/svg" xmlns:ev="http://www.w3.org/2001/xml-events" xmlns:xlink="http://www.w3.org/1999/xlink"><defs /><rect fill="white" height="2155.0" width="3865.0" x="0" y="0" /><path d="M1945.0,350.0 m-75.0,615.0 l-5.0,415.0 110.0,605.0 l30.0,80.0 50.0,50.0 l40.0,15.0 50.0,0.0 l115.0,-45.0 50.0,-40.0 l90.0,-160.0 85.0,-330.0 l45.0,-445.0 0.0,-270.0 l-60.0,-435.0 -25.0,-75.0 l-45.0,-50.0 -75.0,-15.0 l-50.0,5.0 -300.0,105.0 m100.0,10.0 l-35.0,-35.0 -105.0,-230.0 l-65.0,-75.0 -40.0,-20.0 l-50.0,0.0 -70.0,25.0 l-35.0,35.0 m635.0,180.0 l120.0,-145.0 65.0,-40.0 l60.0,-15.0 60.0,30.0 l70.0,135.0 m-880.0,430.0 l-175.0,-90.0 -220.0,-80.0 l-650.0,-130.0 -210.0,-5.0 l-145.0,35.0 -65.0,35.0 l-150.0,130.0 -105.0,150.0 l-30.0,80.0 -20.0,75.0 l-10.0,170.0 45.0,170.0 l65.0,135.0 70.0,75.0 l95.0,45.0 110.0,20.0 l135.0,0.0 490.0,-100.0 l-85.0,-10.0 -60.0,10.0 l-195.0,70.0 -145.0,110.0 l-45.0,105.0 15.0,115.0 l85.0,120.0 200.0,130.0 l140.0,45.0 150.0,25.0 l265.0,-10.0 285.0,-90.0 l85.0,-45.0 180.0,-160.0 m495.0,-995.0 l545.0,-295.0 220.0,-90.0 l140.0,-25.0 125.0,10.0 l145.0,75.0 60.0,90.0 l10.0,70.0 -60.0,240.0 l-115.0,165.0 -85.0,60.0 l-325.0,150.0 350.0,-75.0 l100.0,-10.0 130.0,10.0 l130.0,60.0 55.0,90.0 l10.0,65.0 -10.0,70.0 l-55.0,130.0 -120.0,180.0 l-120.0,110.0 -225.0,105.0 l-245.0,20.0 -295.0,-55.0 l-65.0,-20.0 -95.0,-60.0 l-45.0,-110.0 " fill="none" stroke="black" stroke-width="1" /></svg>