<?xml version="1.0" encoding="utf-8" ?>
<svg baseProfile="full" height="94.84679520130157" version="1.1" width="111.36957290116698" xmlns="http://www.w3.org/2000/svg" xmlns:ev="http://www.w3.org/2001/xml-events" xmlns:xlink="http://www.w3.org/1999/xlink"><defs /><rect fill="white" height="94.84679520130157" width="111.36957290116698" x="0" y="0" /><path d="M45.42320687207393,35.631009300559526 m-1.3359397649765015,11.958761215209961 l0.06077855825424194,7.834950685501099 1.3386401534080505,11.225278377532959 l0.5810989812016487,1.6768836975097656 0.8878078311681747,1.0514016449451447 l1.1941716820001602,0.46830132603645325 1.5980906784534454,0.00020895400666631758 l1.491861641407013,-0.8673191070556641 1.3697025179862976,-1.6845488548278809 l1.1000707745552063,-2.5437000393867493 1.1095934361219406,-5.28764009475708 l0.3459412604570389,-6.854742765426636 -0.9323877096176147,-9.779187440872192 l-1.1846031248569489,-3.5425782203674316 -1.9794489443302155,-3.2534700632095337 l-1.5719042718410492,-1.4461542665958405 -1.4716033637523651,-0.5822654813528061 l-2.088116407394409,0.1591937430202961 -1.0496995598077774,0.7588161528110504 m4.6229323744773865,1.3646554946899414 l2.3645393550395966,-3.615521490573883 3.2841524481773376,-3.267562985420227 l3.48744660615921,-2.12831512093544 2.5001421570777893,-0.8000952005386353 l2.8308165073394775,-0.13251116499304771 2.3662641644477844,0.9191315621137619 l2.0070429146289825,2.0590978860855103 0.6537953019142151,1.6730502247810364 m-23.251938819885254,7.3363471031188965 l-2.597649097442627,-2.4914193153381348 -3.2090014219284058,-2.1630512177944183 l-2.5562426447868347,-0.8963065594434738 -3.643166720867157,-0.4541483148932457 l-3.733358085155487,0.5652843043208122 -1.9901387393474579,1.0600322484970093 l-1.2242966145277023,1.3429565727710724 -0.86921826004982,2.448527216911316 l0.08264646865427494,1.926320195198059 0.8739236742258072,1.562713086605072 l1.555144339799881,1.3304321467876434 2.106133848428726,0.936446487903595 l5.87437629699707,0.995929166674614 2.174905687570572,0.6350186467170715 l-0.012291603488847613,0.5427106469869614 -6.0189056396484375,1.710367202758789 l-3.8780057430267334,1.9269642233848572 -1.9412168860435486,1.6970384120941162 l-1.1151337623596191,1.8159130215644836 -0.6309593468904495,2.9301664233207703 l0.27512645348906517,2.282631993293762 1.0867856442928314,1.8586371839046478 l1.8234089016914368,1.5292580425739288 4.108164012432098,1.6810707747936249 l5.6935131549835205,0.7434269785881042 6.16901159286499,-0.45676372945308685 l3.33578884601593,-1.048913449048996 m8.84676992893219,-24.898288249969482 l0.8088172972202301,-1.2217846512794495 2.182708829641342,-1.679849773645401 l4.46241021156311,-2.2238625586032867 5.52901566028595,-1.5765950083732605 l5.46673059463501,-0.5604531243443489 3.040896952152252,0.32254524528980255 l3.33185613155365,1.3336142897605896 1.7782637476921082,1.2951602041721344 l1.073921024799347,1.361793726682663 0.8764255791902542,2.6746410131454468 l-0.04145467188209295,1.9886992871761322 -0.6653128564357758,1.7568868398666382 l-1.2390635162591934,1.6517555713653564 -2.886975407600403,2.3205094039440155 l-4.361568987369537,2.1694010496139526 -5.3891754150390625,1.5616883337497711 l-1.9468221068382263,0.35048115998506546 5.137166976928711,-0.17696715891361237 l4.8437634110450745,0.8229486644268036 2.702976167201996,1.2581957876682281 l2.7803492546081543,2.237856239080429 1.3466697931289673,1.8078230321407318 l1.1200927942991257,2.896135151386261 0.07931290194392204,3.1503844261169434 l-0.7254624366760254,1.901133805513382 -1.2375002354383469,1.547645926475525 l-3.0604198575019836,1.9550906121730804 -4.77826714515686,1.4410847425460815 l-5.90695858001709,0.5422722175717354 -6.1890870332717896,-0.39036259055137634 l-5.396102666854858,-1.5711280703544617 -2.746695578098297,-1.4753778278827667 l-1.6064713895320892,-1.4988228678703308 m-4.1367074847221375,-28.19014072418213 l-0.8356921374797821,-2.106809765100479 -1.4849519729614258,-2.6692011952400208 l-1.4335492253303528,-1.9174651801586151 -2.523195445537567,-2.3280616104602814 l-2.088562250137329,-1.2052938342094421 " fill="none" stroke="black" stroke-width="1" /></svg>