<?xml version="1.0" encoding="utf-8" ?>
<svg baseProfile="full" height="110.57633085059933" version="1.1" width="95.95840284251608" xmlns="http://www.w3.org/2000/svg" xmlns:ev="http://www.w3.org/2001/xml-events" xmlns:xlink="http://www.w3.org/1999/xlink"><defs /><rect fill="white" height="110.57633085059933" width="95.95840284251608" x="0" y="0" /><path d="M52.57503549568355,52.687307939631864 m-3.515874445438385,-3.686491847038269 l-2.604435682296753,-1.820501685142517 -2.8064945340156555,-1.1750394105911255 l-3.053494095802307,-0.5350316315889359 -3.013223111629486,0.04207831807434559 l-2.9020118713378906,0.8958648890256882 -2.9368534684181213,1.750381588935852 l-2.5582554936408997,2.4752800166606903 -1.9746798276901245,2.98450767993927 l-1.372160166501999,3.38405579328537 -0.7158734649419785,3.7548616528511047 l-0.12167933396995068,4.951536953449249 0.5806616321206093,3.2698464393615723 l1.29521906375885,3.362950384616852 1.7842140793800354,3.050757348537445 l2.263418287038803,2.741779386997223 3.7795591354370117,3.1547215580940247 l4.39984917640686,2.349940687417984 4.850931763648987,1.458541601896286 l3.8594114780426025,0.47898318618535995 5.374345183372498,-0.09867717511951923 l4.58170086145401,-1.1390846222639084 3.337411880493164,-1.5117818117141724 l2.880561053752899,-1.9995130598545074 3.22070449590683,-3.4683993458747864 l1.892039030790329,-3.1785592436790466 1.2655571103096008,-3.55639785528183 l0.5808626487851143,-3.7564069032669067 0.011955961817875504,-3.5450294613838196 l-1.03877954185009,-4.523747563362122 -2.0351414382457733,-4.392008483409882 l-1.9985702633857727,-2.8171584010124207 -2.3341621458530426,-2.211601287126541 l-2.511897385120392,-1.5827657282352448 -2.9027989506721497,-1.0922695696353912 l-3.1896281242370605,-0.5234931781888008 -3.1601503491401672,-0.01498074154369533 l-2.724965810775757,0.7211224734783173 -2.8875812888145447,1.8913975358009338 l-1.5146178007125854,1.8621598184108734 m1.4898498356342316,-0.33815808594226837 l-0.5066113919019699,-0.8763329684734344 -1.127614974975586,-5.381526947021484 l-0.9930798411369324,-5.2878910303115845 -0.9037929028272629,-4.5149827003479 l-0.692906454205513,-2.7607297897338867 -0.8945281803607941,-2.565605342388153 l-1.2755759060382843,-2.13624969124794 -1.2641245126724243,-1.1745093762874603 l-1.5451395511627197,-0.6031503155827522 -1.9362470507621765,0.04760634619742632 l-1.2045612931251526,0.6851837784051895 -0.7808178663253784,1.1654087156057358 l-0.3528539836406708,2.3166263103485107 0.4276614636182785,4.12030965089798 l1.2001749128103256,2.7484935522079468 1.6169686615467072,2.4402664601802826 l2.5863102078437805,2.9344329237937927 2.6811280846595764,2.460346072912216 l2.580127716064453,1.902138590812683 1.7703765630722046,0.9430116415023804 l1.6778329014778137,0.38878876715898514 " fill="none" stroke="black" stroke-width="1" /></svg>