<?xml version="1.0" encoding="utf-8" ?>
<svg baseProfile="full" height="2460.0" version="1.1" width="2680.0" xmlns="http://www.w3.org/2000/svg" xmlns:ev="http://www.w3.org/2001/xml-events" xmlns:xlink="http://www.w3.org/1999/xlink"><defs /><rect fill="white" height="2460.0" width="2680.0" x="0" y="0" /><path d="M1290.0,1035.0 m-170.0,-180.0 l-95.0,-75.0 -180.0,-70.0 l-160.0,-25.0 -200.0,30.0 l-130.0,50.0 -110.0,90.0 l-100.0,135.0 -45.0,85.0 l-50.0,165.0 -25.0,200.0 l20.0,200.0 40.0,185.0 l110.0,215.0 170.0,195.0 l225.0,150.0 125.0,45.0 l120.0,0.0 100.0,-20.0 l205.0,-80.0 265.0,-185.0 l25.0,0.0 80.0,145.0 l135.0,100.0 180.0,45.0 l215.0,-15.0 255.0,-95.0 l120.0,-90.0 130.0,-145.0 l60.0,-125.0 20.0,-85.0 l25.0,-255.0 5.0,-270.0 l-30.0,-125.0 -40.0,-50.0 l-315.0,-240.0 -155.0,-80.0 l-220.0,-60.0 -160.0,0.0 l-105.0,30.0 -135.0,80.0 l-85.0,100.0 -75.0,10.0 l50.0,-85.0 45.0,-200.0 l-25.0,-160.0 -75.0,-150.0 l-80.0,-90.0 -90.0,-55.0 l-110.0,-25.0 m300.0,110.0 l25.0,-70.0 55.0,-65.0 l130.0,-110.0 185.0,-85.0 l60.0,-10.0 50.0,20.0 l-15.0,90.0 -90.0,110.0 l-265.0,195.0 -105.0,40.0 " fill="none" stroke="black" stroke-width="1" /></svg>