<?xml version="1.0" encoding="utf-8" ?>
<svg baseProfile="full" height="86.38382142909904" version="1.1" width="94.48220715858042" xmlns="http://www.w3.org/2000/svg" xmlns:ev="http://www.w3.org/2001/xml-events" xmlns:xlink="http://www.w3.org/1999/xlink"><defs /><rect fill="white" height="86.38382142909904" width="94.48220715858042" x="0" y="0" /><path d="M48.893817835487425,36.620295350548986 m0.8013492077589035,-1.8841788172721863 l2.6896798610687256,-2.90578156709671 2.669273614883423,-1.448914110660553 l1.6516607999801636,-0.16970988363027573 1.651557981967926,0.9063921123743057 l1.2359637767076492,2.2330601513385773 0.1952570118010044,2.986088991165161 m-10.087591409683228,-0.5795083940029144 l-1.4774194359779358,-0.4279203340411186 -2.1046513319015503,0.012398354010656476 l-3.032057285308838,1.0030486434698105 -2.030477374792099,1.3431669771671295 l-2.470080703496933,2.7656367421150208 -1.2681330740451813,2.3959583044052124 l-1.0856248438358307,4.053717851638794 -0.236999299377203,4.476635754108429 l0.5643896386027336,2.743021249771118 1.1196978390216827,2.273287773132324 l1.590466946363449,1.837707757949829 1.9082728028297424,1.3397139310836792 l3.5257282853126526,1.2864169478416443 4.6546003222465515,0.5230619758367538 l4.451054632663727,0.0002256678453704808 2.76460200548172,-0.5612173303961754 l2.080274522304535,-0.9866269677877426 2.6603415608406067,-2.4510402977466583 l1.5050528943538666,-2.4127097427845 1.260381042957306,-4.213065505027771 l0.29398970305919647,-5.180050730705261 -0.9555133432149887,-4.926430583000183 l-1.4082063734531403,-3.0065807700157166 -1.690903753042221,-2.012653350830078 l-2.0530301332473755,-1.3265113532543182 -3.3685752749443054,-0.8436771482229233 l-3.5189175605773926,0.000316308178298641 m-5.065310001373291,0.2058776095509529 l-1.3827517628669739,-0.34229010343551636 -2.1771471202373505,-0.30918801203370094 l-3.383583426475525,0.08854600600898266 -3.6958518624305725,1.2063942104578018 l-2.1767300367355347,1.489703357219696 -2.5492066144943237,3.1282436847686768 l-1.0652012377977371,2.421836256980896 -0.774645060300827,4.140295684337616 l0.13940442353487015,4.69833105802536 0.9008224308490753,2.927629053592682 l2.3646478354930878,3.6161652207374573 2.2083964943885803,1.9882532954216003 l2.3328797519207,1.2245216220617294 3.8149818778038025,0.7785005122423172 l4.768010079860687,0.00028156804546597414 2.8252416849136353,-0.9302472323179245 l2.312469631433487,-1.5172985196113586 2.869505286216736,-3.3192139863967896 l1.5709669888019562,-3.0029135942459106 1.107010543346405,-4.632496535778046 l0.06863865535706282,-4.943995773792267 -1.0604503750801086,-4.279840290546417 l-1.3607662916183472,-2.5019681453704834 -1.64694145321846,-1.7879670858383179 l-1.9531355798244476,-1.2964828312397003 -3.3398792147636414,-1.029248759150505 l-3.505679965019226,0.00037383280869107693 -1.8056286871433258,0.6867016106843948 m-0.9645207971334457,5.24457573890686 l-0.3962225094437599,-1.1922069638967514 -0.544428788125515,-4.320098459720612 l-0.8721393346786499,-5.98420262336731 0.576256588101387,-0.6844474375247955 l1.892232745885849,-0.2356979250907898 1.5426979959011078,0.35783376544713974 l1.9354966282844543,1.6428622603416443 1.7397087812423706,3.367305099964142 l0.8892687410116196,4.318788945674896 0.14517275616526604,4.1896092891693115 l-0.32924458384513855,2.6826924085617065 m-7.2700172662734985,-3.2130208611488342 l-1.246674433350563,-0.3746674582362175 -2.9893076419830322,-1.5481826663017273 l-3.154565393924713,-1.6649909317493439 -2.5657621026039124,-1.5591484308242798 l-2.15014711022377,-1.6970011591911316 -1.6562607884407043,-1.7681513726711273 l-1.3008415699005127,-1.6921207308769226 0.9017199277877808,7.8370726108551025 l1.2237925082445145,6.718651652336121 1.027095764875412,5.374396443367004 l1.0406820476055145,4.328747987747192 1.0321874171495438,2.306160479784012 l1.2642094492912292,1.500311940908432 m22.478291988372803,-15.735543966293335 l2.355489283800125,-1.1511030048131943 3.936817944049835,-1.7687006294727325 l5.627632141113281,-2.648351490497589 3.4681034088134766,-1.4344531297683716 l0.12618527747690678,2.060946226119995 -1.9094431400299072,5.343533158302307 l-2.6492884755134583,4.397298693656921 -4.432694315910339,5.271348357200623 l-5.732438564300537,4.898775815963745 -3.9597266912460327,2.4538257718086243 l-3.449442982673645,1.4237050712108612 " fill="none" stroke="black" stroke-width="1" /></svg>