<?xml version="1.0" encoding="utf-8" ?>
<svg baseProfile="full" height="2460.0" version="1.1" width="2320.0" xmlns="http://www.w3.org/2000/svg" xmlns:ev="http://www.w3.org/2001/xml-events" xmlns:xlink="http://www.w3.org/1999/xlink"><defs /><rect fill="white" height="2460.0" width="2320.0" x="0" y="0" /><path d="M925.0,820.0 m40.0,-95.0 l120.0,-110.0 145.0,-90.0 l120.0,-20.0 20.0,40.0 l0.0,115.0 -65.0,255.0 l-5.0,75.0 m-25.0,-130.0 l70.0,-50.0 150.0,-70.0 l400.0,-110.0 245.0,-15.0 l60.0,10.0 75.0,55.0 l20.0,60.0 0.0,45.0 l-20.0,40.0 -155.0,155.0 l-255.0,170.0 -260.0,100.0 l305.0,85.0 80.0,45.0 l125.0,125.0 70.0,155.0 l45.0,170.0 30.0,290.0 l-10.0,125.0 -60.0,70.0 l-180.0,90.0 -160.0,30.0 l-255.0,-20.0 -165.0,-60.0 l-195.0,-115.0 -115.0,-115.0 l-85.0,-120.0 m-20.0,-1215.0 l-105.0,-140.0 -220.0,-205.0 l-165.0,-100.0 -180.0,-35.0 l-150.0,20.0 -110.0,70.0 l-50.0,80.0 -10.0,85.0 l10.0,50.0 80.0,75.0 l220.0,90.0 230.0,55.0 l155.0,70.0 -195.0,10.0 l-165.0,45.0 -100.0,115.0 l-95.0,155.0 -50.0,205.0 l0.0,465.0 55.0,150.0 l115.0,125.0 165.0,70.0 l230.0,0.0 120.0,-50.0 l210.0,-160.0 175.0,-180.0 l15.0,-25.0 -30.0,-45.0 m15.0,-1215.0 l20.0,-195.0 -5.0,-125.0 l-100.0,-175.0 -100.0,-50.0 l-35.0,0.0 -25.0,10.0 l5.0,45.0 m465.0,370.0 l-35.0,45.0 40.0,-85.0 l70.0,-95.0 160.0,-155.0 l60.0,-45.0 100.0,-35.0 l25.0,0.0 -25.0,245.0 m-705.0,45.0 l-85.0,130.0 -150.0,445.0 l-45.0,170.0 -75.0,570.0 l25.0,470.0 25.0,90.0 l135.0,115.0 75.0,-5.0 l155.0,-170.0 145.0,-355.0 l170.0,-620.0 25.0,-190.0 l15.0,-165.0 -5.0,-410.0 l-60.0,70.0 " fill="none" stroke="black" stroke-width="1" /></svg>