<?xml version="1.0" encoding="utf-8" ?>
<svg baseProfile="full" height="1875.0" version="1.1" width="1565.0" xmlns="http://www.w3.org/2000/svg" xmlns:ev="http://www.w3.org/2001/xml-events" xmlns:xlink="http://www.w3.org/1999/xlink"><defs /><rect fill="white" height="1875.0" width="1565.0" x="0" y="0" /><path d="M595.0,505.0 m-80.0,65.0 l-95.0,145.0 -15.0,115.0 l15.0,55.0 35.0,50.0 l180.0,45.0 85.0,0.0 l70.0,-20.0 120.0,-75.0 l85.0,-115.0 15.0,-45.0 l0.0,-40.0 -55.0,-110.0 l-100.0,-95.0 -130.0,-20.0 l-140.0,0.0 -40.0,15.0 m195.0,-435.0 l-205.0,10.0 -130.0,65.0 l-25.0,20.0 -5.0,50.0 l65.0,40.0 265.0,80.0 l165.0,-5.0 145.0,-55.0 l60.0,-60.0 15.0,-35.0 l0.0,-30.0 -30.0,-30.0 l-220.0,-60.0 -65.0,-5.0 l-50.0,10.0 m-65.0,620.0 l-5.0,25.0 45.0,15.0 l75.0,-15.0 5.0,-25.0 l-55.0,-40.0 m180.0,55.0 l0.0,65.0 50.0,-15.0 l15.0,-25.0 -60.0,-25.0 m-305.0,135.0 l120.0,70.0 70.0,-20.0 m-275.0,160.0 l0.0,0.0 m345.0,-20.0 l0.0,20.0 70.0,60.0 l85.0,0.0 285.0,-260.0 l80.0,-40.0 80.0,-10.0 l45.0,20.0 30.0,80.0 l0.0,220.0 -75.0,185.0 l-75.0,90.0 -65.0,45.0 l-565.0,15.0 m-320.0,-550.0 l-25.0,-10.0 -120.0,-175.0 l-105.0,-35.0 -80.0,10.0 l-25.0,10.0 -55.0,100.0 l-5.0,145.0 15.0,105.0 l55.0,145.0 65.0,75.0 l230.0,145.0 165.0,0.0 m-55.0,15.0 l-135.0,160.0 -45.0,125.0 l10.0,90.0 30.0,40.0 l90.0,30.0 185.0,5.0 l105.0,-20.0 45.0,-20.0 l65.0,-70.0 15.0,-115.0 l-10.0,-130.0 -30.0,-95.0 l-35.0,-60.0 -50.0,-40.0 m-500.0,-565.0 l-20.0,45.0 10.0,90.0 l60.0,100.0 75.0,65.0 m-295.0,-155.0 l40.0,110.0 60.0,80.0 l90.0,60.0 85.0,35.0 m-165.0,-50.0 l240.0,125.0 m910.0,-360.0 l-190.0,275.0 -150.0,125.0 m385.0,-245.0 l0.0,25.0 -50.0,70.0 l-90.0,75.0 " fill="none" stroke="black" stroke-width="1" /></svg>