<?xml version="1.0" encoding="utf-8" ?>
<svg baseProfile="full" height="95.39348635822535" version="1.1" width="95.00048351939768" xmlns="http://www.w3.org/2000/svg" xmlns:ev="http://www.w3.org/2001/xml-events" xmlns:xlink="http://www.w3.org/1999/xlink"><defs /><rect fill="white" height="95.39348635822535" width="95.00048351939768" x="0" y="0" /><path d="M45.79939175979234,31.08355175005272 m-1.6006512939929962,1.3209983706474304 l-1.0360904037952423,1.6840460896492004 -0.5900362506508827,2.7170297503471375 l0.11746884323656559,2.7061930298805237 0.6111995503306389,1.2004193663597107 l1.6726486384868622,1.312316358089447 2.428736537694931,0.5569750443100929 l3.5896340012550354,-0.4619491845369339 2.5321578979492188,-1.9232162833213806 l1.0871194303035736,-2.020367980003357 0.27386026456952095,-2.501343786716461 l-0.5442611500620842,-2.1515366435050964 -1.461930125951767,-1.8607425689697266 l-2.0345723628997803,-1.160813495516777 -2.4758844077587128,-0.4677090048789978 l-2.38967701792717,0.16706140711903572 -0.9824658185243607,0.5155669525265694 m0.7320555299520493,11.934226751327515 l-0.5137405544519424,2.101272791624069 -2.176208198070526,5.725464820861816 l-3.4814760088920593,9.356786608695984 -3.4797582030296326,8.291181325912476 l-0.19449105486273766,1.1969652026891708 0.5331277102231979,0.45289933681488037 l13.44943881034851,0.6015083566308022 9.422663450241089,0.016701992135494947 l0.34965433180332184,-0.46795327216386795 -0.23587048053741455,-1.4972157776355743 l-1.8866190314292908,-4.528966546058655 -5.3074222803115845,-10.747880935668945 l-2.7244529128074646,-7.403383255004883 -1.454136222600937,-3.9291447401046753 m1.963910162448883,4.634714722633362 l2.653370201587677,-2.626226544380188 2.2030365467071533,-2.913498878479004 l3.344954550266266,-4.823770821094513 2.198122888803482,-3.118162155151367 l2.6659023761749268,-3.6920514702796936 1.7651642858982086,-2.259726822376251 l1.679750233888626,-2.02021986246109 0.8127093315124512,0.6779361516237259 l0.6220122054219246,2.495364397764206 0.0019801303278654814,3.1239765882492065 l-0.8134135603904724,2.794267237186432 -1.3840310275554657,2.5660622119903564 l1.9273145496845245,0.022945597302168608 1.5123920142650604,0.3372969850897789 l0.7793277502059937,1.3473577797412872 0.03856790252029896,1.473795622587204 l-0.9734679758548737,1.9478124380111694 -1.699507236480713,1.9374415278434753 l1.4642700552940369,1.1985012888908386 0.7425308972597122,1.403065025806427 l-0.01989067066460848,1.1500894278287888 -0.6231287121772766,0.9690883010625839 l-1.7116738855838776,1.2876318395137787 -3.103066384792328,1.2376391887664795 l-1.1963099986314774,0.7016149908304214 -1.854943335056305,0.957748219370842 l-2.6605525612831116,0.7703575491905212 -2.9464444518089294,0.2128603495657444 l-1.9598248600959778,-0.35751335322856903 m-10.992249250411987,-6.748174428939819 l-1.444651186466217,-1.692861020565033 -1.8478386104106903,-2.8193429112434387 l-3.4789595007896423,-5.236690044403076 -2.956847846508026,-4.382385015487671 l-1.3081716001033783,-1.4414097368717194 -1.3610002398490906,-0.9276030957698822 l-1.588750034570694,-0.37533797323703766 -1.658744066953659,0.2791494131088257 l-0.995437353849411,0.8145380020141602 -0.7522345334291458,1.8972711265087128 l-0.07359017618000507,1.674305647611618 0.524970218539238,1.7700771987438202 l1.1369683593511581,1.6611814498901367 1.557849496603012,1.240643858909607 l-1.1904959380626678,1.6113650798797607 -0.7031270116567612,1.7927086353302002 l0.0766888028010726,1.3659949600696564 0.5986859276890755,0.9620263427495956 l1.1041400581598282,0.7633413374423981 1.902083158493042,0.5897041782736778 l0.3037116304039955,0.8768891543149948 0.42479030787944794,0.9306615591049194 l0.9538464248180389,0.9328994899988174 1.5068826079368591,0.6500685214996338 l2.1907179057598114,0.27036353945732117 0.7297729700803757,0.8607351034879684 l1.5863344073295593,1.092715561389923 1.479278802871704,0.25816382840275764 m6.215001940727234,-15.349801778793335 l-0.0376781914383173,-0.18690701574087143 0.160157922655344,-1.0638517886400223 l0.8829455822706223,-2.855497896671295 1.3918158411979675,-2.5554391741752625 l1.4198346436023712,-1.3303858041763306 1.7227396368980408,-0.7109943777322769 l1.9606316089630127,-0.05064648110419512 1.3274382054805756,0.6823018193244934 l1.0061874240636826,1.5108232200145721 0.3695002943277359,2.1504606306552887 l-0.30037445947527885,2.0674191415309906 -1.184748336672783,1.802440881729126 l-1.7649529874324799,1.2891259789466858 -2.1203385293483734,0.5616626143455505 l-2.1596889197826385,-0.09498343802988529 -1.1449270695447922,-0.5733587965369225 l-0.8493358641862869,-0.951092317700386 -0.469650998711586,-1.1681314557790756 l-0.10154216550290585,-1.1650053411722183 " fill="none" stroke="black" stroke-width="1" /></svg>