<?xml version="1.0" encoding="utf-8" ?>
<svg baseProfile="full" height="84.83933731913567" version="1.1" width="125.56529854424298" xmlns="http://www.w3.org/2000/svg" xmlns:ev="http://www.w3.org/2001/xml-events" xmlns:xlink="http://www.w3.org/1999/xlink"><defs /><rect fill="white" height="84.83933731913567" width="125.56529854424298" x="0" y="0" /><path d="M25,51.550971282810565 m11.795324087142944,-1.3063468039035797 l9.713228940963745,-0.3426946699619293 18.00292730331421,-0.4911778122186661 l15.753589868545532,-0.3701729327440262 13.330245018005371,-0.3284061700105667 m-67.6714038848877,4.642224907875061 l2.1139733493328094,0.5263997614383698 4.762432277202606,0.6109113246202469 l12.266258001327515,1.029353067278862 13.465595245361328,0.9074061363935471 l12.98234224319458,0.49307115375995636 11.610352993011475,0.26391036808490753 l8.526399731636047,-0.18178213387727737 6.603922247886658,-0.41566986590623856 m-11.147627830505371,-8.785802721977234 l-0.6710143387317657,3.452993631362915 -0.779375433921814,4.1351765394210815 l-0.4448305070400238,2.3195694386959076 -0.10036437772214413,1.0943852365016937 l0.22916514426469803,0.6425380706787109 5.208653211593628,0.014674728736281395 l5.924926400184631,-0.29797904193401337 3.123691976070404,-0.3470410034060478 l0.9668868780136108,-0.4132293537259102 -0.10749327018857002,-4.569546580314636 l-0.7046911120414734,-4.998100399971008 -1.591671109199524,-1.4131757616996765 l-3.9322054386138916,-0.06512332241982222 -4.343808889389038,0.4410954564809799 l-3.3724001049995422,0.4365185275673866 m1.9165025651454926,2.1296657621860504 l0.30648278072476387,-0.004388784582260996 0.34138284623622894,9.073885962607164e-06 l1.7838719487190247,0.30892472714185715 1.3177789747714996,-0.04430380184203386 l-0.1815326325595379,-1.2806205451488495 -0.8195497840642929,-0.4149642586708069 l-1.7513522505760193,0.20351871848106384 -1.219688430428505,0.6888366490602493 m-19.23540711402893,2.60858416557312 l-0.7252529263496399,0.18546497449278831 -0.908314660191536,0.812893733382225 l-0.34312352538108826,0.9217575937509537 0.2644767053425312,0.6919994950294495 l1.3599297404289246,0.645424947142601 2.1303752064704895,0.11067532002925873 l1.2489371746778488,-0.49910880625247955 0.6222973018884659,-0.834580734372139 l0.043827095068991184,-1.3427390158176422 -1.0774338990449905,-1.2965284287929535 l-1.5045444667339325,-0.564621202647686 m-20.16568422317505,1.6125336289405823 l-1.0852520167827606,0.06402325350791216 -1.1887872219085693,0.9227102249860764 l-0.5540334060788155,1.2080983817577362 0.02757371636107564,1.1613251268863678 l0.6639076769351959,0.8366118371486664 1.1070594191551208,0.4333701357245445 l1.9434639811515808,-0.10202834382653236 1.3047875463962555,-0.7483620196580887 l0.7268302887678146,-1.0507582128047943 0.19395165145397186,-1.8276704847812653 l-0.5758293718099594,-1.257406622171402 -1.0904806852340698,-0.800761878490448 l-2.1336299180984497,-0.39904866367578506 m-3.874984085559845,-0.7625820487737656 l-1.69321209192276,-0.2998008392751217 -1.6873171925544739,0.008998298435471952 l-2.347690314054489,0.5860451608896255 -1.4971937239170074,1.032741740345955 l-0.9002776443958282,1.330653429031372 -0.5608833208680153,2.4821697175502777 l0.2534487470984459,1.6713383793830872 0.8393783867359161,1.2383883446455002 l1.3133928179740906,0.8016356080770493 2.6472678780555725,0.4362625256180763 l3.2650861144065857,-0.6610313057899475 1.922234296798706,-1.4117613434791565 l1.0514362901449203,-1.6378284990787506 0.4589714854955673,-2.826637029647827 l-0.46603165566921234,-1.8786129355430603 -1.7228078842163086,-1.8874992430210114 l-1.8651118874549866,-0.9393231570720673 -1.9952550530433655,-0.2589111030101776 l-2.5326326489448547,0.6775135546922684 m32.29734182357788,1.739870011806488 l-0.7189086079597473,-0.7179492712020874 -2.625802457332611,-2.737102210521698 l-1.656280905008316,-1.8229979276657104 -1.865166574716568,-2.360932379961014 l-1.1889799684286118,-1.730467975139618 -0.7709649205207825,-1.466599553823471 l-0.8506827801465988,-2.001401335000992 -0.8716212958097458,-2.4269860982894897 l-0.7696107774972916,-2.5607576966285706 -0.5661996454000473,-2.601691782474518 l-0.07868284359574318,-1.7048586905002594 0.48075903207063675,-1.3130244612693787 l1.1910328269004822,-1.0737907886505127 1.8894171714782715,-0.7796837389469147 l3.4160083532333374,-0.45687235891819 3.806662857532501,0.4002014547586441 l3.443073332309723,1.5866847336292267 3.1398484110832214,2.7999338507652283 l2.3260580003261566,3.955993354320526 1.3017822802066803,4.924485385417938 " fill="none" stroke="black" stroke-width="1" /></svg>