<?xml version="1.0" encoding="utf-8" ?>
<svg baseProfile="full" height="1205.0" version="1.1" width="4090.0" xmlns="http://www.w3.org/2000/svg" xmlns:ev="http://www.w3.org/2001/xml-events" xmlns:xlink="http://www.w3.org/1999/xlink"><defs /><rect fill="white" height="1205.0" width="4090.0" x="0" y="0" /><path d="M90.0,540.0 m555.0,-65.0 l565.0,-25.0 855.0,0.0 l850.0,-30.0 1125.0,5.0 l25.0,20.0 m-4030.0,120.0 l-10.0,475.0 20.0,70.0 l30.0,40.0 115.0,20.0 l125.0,0.0 155.0,-5.0 l475.0,-60.0 795.0,15.0 l925.0,-35.0 1155.0,20.0 l45.0,-10.0 120.0,-280.0 l70.0,-320.0 m-615.0,235.0 l-35.0,-20.0 -50.0,5.0 l-100.0,50.0 -50.0,120.0 l70.0,25.0 85.0,-15.0 l60.0,-60.0 20.0,-95.0 l-65.0,-55.0 m-620.0,-35.0 l-60.0,0.0 -25.0,15.0 l-15.0,35.0 5.0,55.0 l25.0,30.0 85.0,25.0 l55.0,-15.0 15.0,-110.0 l-40.0,-55.0 -30.0,-10.0 m-2190.0,55.0 l-70.0,-55.0 -35.0,0.0 l-40.0,5.0 -65.0,55.0 l-30.0,85.0 0.0,50.0 l15.0,70.0 30.0,20.0 l95.0,-10.0 25.0,-25.0 l35.0,-90.0 5.0,-90.0 l-40.0,-45.0 -45.0,-20.0 m955.0,235.0 l-10.0,-55.0 -70.0,-25.0 l-60.0,10.0 -45.0,75.0 l10.0,100.0 30.0,20.0 l130.0,0.0 30.0,-35.0 l20.0,-70.0 -40.0,-90.0 l-45.0,-35.0 -120.0,-40.0 m465.0,395.0 l-15.0,-50.0 -135.0,-215.0 l-35.0,-145.0 -5.0,-280.0 l20.0,-95.0 40.0,-90.0 l155.0,-150.0 160.0,-50.0 l215.0,-10.0 85.0,35.0 l105.0,150.0 45.0,225.0 l-20.0,135.0 -85.0,300.0 l-80.0,170.0 -40.0,50.0 l-80.0,60.0 -55.0,20.0 l-140.0,10.0 -100.0,-50.0 l-70.0,-55.0 -35.0,-50.0 l-10.0,-80.0 " fill="none" stroke="black" stroke-width="1" /></svg>