<?xml version="1.0" encoding="utf-8" ?>
<svg baseProfile="full" height="79.95212120935321" version="1.1" width="79.81352474540472" xmlns="http://www.w3.org/2000/svg" xmlns:ev="http://www.w3.org/2001/xml-events" xmlns:xlink="http://www.w3.org/1999/xlink"><defs /><rect fill="white" height="79.95212120935321" width="79.81352474540472" x="0" y="0" /><path d="M51.870865523815155,28.167195226997137 m-2.963070571422577,-1.1277194321155548 l-4.240282475948334,-0.5829106271266937 -8.466876745223999,1.1203592270612717 l-5.2347540855407715,2.569342255592346 -2.916875183582306,2.698453366756439 l-1.9500371813774109,3.3685478568077087 -1.098969280719757,5.176260471343994 l1.4169526100158691,6.715415716171265 1.8288655579090118,2.5783172249794006 l3.421674966812134,2.647535800933838 2.863374650478363,1.1349725723266602 l3.288474678993225,0.48635154962539673 3.4184813499450684,-0.07991483435034752 l2.9067927598953247,-0.715319886803627 2.934151589870453,-1.4049957692623138 l2.624073028564453,-1.9729913771152496 2.072059214115143,-2.3944053053855896 l1.5957564115524292,-2.9460561275482178 1.0300315916538239,-3.474808931350708 l0.41283633559942245,-3.5845336318016052 -0.2148844115436077,-4.507491290569305 l-0.838286355137825,-2.7449095249176025 -1.3619625568389893,-2.441881448030472 l-1.6930103302001953,-1.8203872442245483 -1.8516905605793,-1.1804385483264923 l-2.12121844291687,-0.6839872896671295 m-9.653965830802917,2.0085127651691437 l0.049630990251898766,1.4050020277500153 -1.1234039813280106,2.7070391178131104 m6.389105916023254,-2.1002477407455444 l1.0543309152126312,-0.21135324612259865 0.7256763428449631,0.8469081670045853 l0.12026192620396614,1.0548252612352371 -0.7148166745901108,1.8067555129528046 l0.9376239031553268,0.36814652383327484 2.336072474718094,-0.14950508251786232 m2.0699426531791687,1.8150049448013306 l1.2647847831249237,0.07980970665812492 0.3109140880405903,0.9200409799814224 l-0.3509815037250519,0.9066785126924515 0.7399604469537735,1.044493094086647 l-0.16923680901527405,0.8536510914564133 -1.2189103662967682,0.7102188467979431 l-1.7233382165431976,0.16794171184301376 m-3.567974269390106,3.8795700669288635 l-0.5077610909938812,1.7540712654590607 0.11356772854924202,1.3097774982452393 l0.8408422768115997,0.6404133141040802 1.2538069486618042,-0.005341685609892011 l0.8380210399627686,-0.4690786078572273 0.5838340893387794,-1.191014051437378 l-0.20117616280913353,-1.4691916108131409 -0.7745350152254105,-0.47783181071281433 l-0.8201366662979126,0.1318228617310524 -0.3487742319703102,0.7806713879108429 m-3.5068663954734802,0.7951634377241135 l-0.6456206738948822,1.4707951247692108 -0.01372468308545649,1.4900390803813934 l0.24219535291194916,0.7046345621347427 0.7572261244058609,0.17211571335792542 l1.3060809671878815,-0.5694432556629181 0.621030181646347,-0.9948553889989853 l0.049665141850709915,-1.331758052110672 -0.49878593534231186,-0.6355836242437363 l-0.6733039766550064,-0.055498224683105946 -0.40217261761426926,0.5421198531985283 l-0.04649220500141382,1.0432550311088562 0.671612024307251,1.16037979722023 l1.2367898225784302,0.6505866348743439 " fill="none" stroke="black" stroke-width="1" /></svg>