<?xml version="1.0" encoding="utf-8" ?>
<svg baseProfile="full" height="2225.0" version="1.1" width="1745.0" xmlns="http://www.w3.org/2000/svg" xmlns:ev="http://www.w3.org/2001/xml-events" xmlns:xlink="http://www.w3.org/1999/xlink"><defs /><rect fill="white" height="2225.0" width="1745.0" x="0" y="0" /><path d="M1280.0,875.0 m-145.0,-55.0 l-215.0,-50.0 -305.0,-5.0 l-395.0,370.0 -130.0,165.0 l-65.0,200.0 0.0,150.0 l90.0,310.0 35.0,50.0 l105.0,50.0 290.0,30.0 l280.0,10.0 30.0,-10.0 l130.0,-95.0 145.0,-135.0 l95.0,-145.0 55.0,-110.0 l30.0,-115.0 0.0,-110.0 l95.0,-200.0 0.0,-75.0 l-80.0,-130.0 -100.0,-70.0 l-50.0,-80.0 -25.0,-75.0 l-25.0,-20.0 -155.0,65.0 m-30.0,15.0 l-25.0,-165.0 0.0,-115.0 l50.0,-190.0 -50.0,30.0 l-65.0,5.0 -225.0,-80.0 l-50.0,-25.0 0.0,-30.0 l25.0,-55.0 75.0,-85.0 l185.0,-75.0 105.0,0.0 l400.0,105.0 20.0,130.0 l-10.0,30.0 -80.0,55.0 l-135.0,10.0 -260.0,-55.0 l-80.0,15.0 -20.0,25.0 l20.0,25.0 180.0,55.0 m175.0,320.0 l75.0,45.0 190.0,-135.0 l75.0,-80.0 95.0,-145.0 l110.0,-115.0 m-1100.0,470.0 l-130.0,-130.0 -235.0,-165.0 l-15.0,-25.0 15.0,30.0 m-65.0,1620.0 l0.0,-55.0 -70.0,140.0 l20.0,-15.0 m755.0,-180.0 l65.0,145.0 45.0,55.0 " fill="none" stroke="black" stroke-width="1" /></svg>