<?xml version="1.0" encoding="utf-8" ?>
<svg baseProfile="full" height="2270.0" version="1.1" width="2210.0" xmlns="http://www.w3.org/2000/svg" xmlns:ev="http://www.w3.org/2001/xml-events" xmlns:xlink="http://www.w3.org/1999/xlink"><defs /><rect fill="white" height="2270.0" width="2210.0" x="0" y="0" /><path d="M1710.0,970.0 m-275.0,15.0 l-605.0,0.0 -435.0,100.0 l-260.0,90.0 -30.0,25.0 l-5.0,170.0 -65.0,255.0 l-10.0,435.0 135.0,55.0 l60.0,45.0 175.0,65.0 l325.0,20.0 365.0,-150.0 l135.0,-40.0 255.0,-40.0 l450.0,-105.0 135.0,-75.0 l95.0,-160.0 30.0,-160.0 l-5.0,-160.0 -75.0,-190.0 l-80.0,-115.0 -80.0,-70.0 l-265.0,-110.0 -125.0,-25.0 m-945.0,155.0 l35.0,-180.0 -15.0,-385.0 l30.0,0.0 175.0,65.0 l45.0,50.0 -5.0,90.0 l-115.0,380.0 m-120.0,-515.0 l5.0,-85.0 35.0,-125.0 l50.0,-60.0 50.0,-35.0 l25.0,0.0 20.0,65.0 l0.0,225.0 -10.0,115.0 l-15.0,25.0 m355.0,305.0 l15.0,-25.0 10.0,-190.0 l60.0,-225.0 25.0,-15.0 l185.0,-10.0 -60.0,235.0 l-15.0,255.0 m-200.0,-525.0 l10.0,-320.0 25.0,-85.0 l30.0,-5.0 80.0,165.0 l15.0,240.0 m210.0,390.0 l0.0,-175.0 -60.0,-245.0 l0.0,-80.0 135.0,10.0 l25.0,10.0 15.0,60.0 l-30.0,100.0 -15.0,340.0 m0.0,-460.0 l-10.0,-35.0 -90.0,-80.0 l-10.0,-25.0 20.0,-160.0 l45.0,-50.0 15.0,30.0 l5.0,390.0 " fill="none" stroke="black" stroke-width="1" /></svg>