<?xml version="1.0" encoding="utf-8" ?>
<svg baseProfile="full" height="79.25051171332598" version="1.1" width="97.54312978126109" xmlns="http://www.w3.org/2000/svg" xmlns:ev="http://www.w3.org/2001/xml-events" xmlns:xlink="http://www.w3.org/1999/xlink"><defs /><rect fill="white" height="79.25051171332598" width="97.54312978126109" x="0" y="0" /><path d="M56.49569800123572,26.740486100316048 m-5.603076219558716,0.3177594766020775 l-7.017524838447571,1.3606850802898407 -6.980630159378052,2.2013546526432037 l-5.301589369773865,2.5273889303207397 -3.0772265791893005,2.3155303299427032 l-2.189796566963196,2.6926830410957336 -1.1449592560529709,2.886105179786682 l-0.18089501187205315,3.1140175461769104 0.9529262781143188,2.561097741127014 l2.0064733922481537,2.374439984560013 4.2047119140625,2.480084151029587 l5.563454627990723,1.755301058292389 9.217872023582458,0.9235784411430359 l6.219561696052551,-0.1850467175245285 5.189400911331177,-1.0614769160747528 l3.472301661968231,-1.3028955459594727 2.791922092437744,-1.6175690293312073 l2.3237377405166626,-2.0907823741436005 1.607230305671692,-2.4395404756069183 l0.9797419607639313,-2.913142144680023 0.2856817841529846,-3.292073905467987 l-0.3322344273328781,-3.1067973375320435 -1.020936742424965,-2.6773327589035034 l-1.678052544593811,-2.564578354358673 -2.1557429432868958,-2.149207293987274 l-2.4992765486240387,-1.6658847033977509 -3.012761175632477,-1.2971054017543793 l-3.211587369441986,-0.6958804279565811 -3.3135786652565002,-0.19119832664728165 l-2.7493008971214294,0.29118791222572327 m-2.1022263169288635,3.8511863350868225 l-0.06552362814545631,2.816345691680908 -1.3258114457130432,6.008116006851196 l-0.16936814412474632,5.832968354225159 5.6396883726119995,0.5282324552536011 l9.470446109771729,0.04799134563654661 5.74337363243103,0.14357248321175575 m-23.827452659606934,-12.994296550750732 l-0.9403842687606812,-0.5679216608405113 -1.0124844312667847,-0.6687154620885849 l-1.3555695116519928,-0.8465650677680969 -2.1753504872322083,-0.8704616874456406 l-4.0096452832221985,-0.4849918559193611 -3.243579864501953,0.45402534306049347 l-2.193652093410492,1.1368545144796371 -1.4238949120044708,1.568070501089096 l-0.5537360161542892,1.9447281956672668 0.15952497720718384,1.3762171566486359 l1.2614202499389648,1.4288662374019623 2.24349245429039,0.937233567237854 l3.0854204297065735,0.3903404623270035 3.316766917705536,-0.18323291093111038 l2.5438889861106873,-0.8014505356550217 2.3642174899578094,-1.3992170989513397 l1.4828996360301971,-1.7277958989143372 0.6259191036224365,-1.9263194501399994 l-0.06670410744845867,-1.925474852323532 -0.7733333110809326,-1.2251836061477661 l-1.5531030297279358,-1.0907696932554245 -2.112881988286972,-0.6301994621753693 l-2.3307356238365173,-0.12271791696548462 -1.8356353044509888,0.4921286553144455 l-1.585860699415207,1.186768040060997 m35.52715539932251,0.27434615418314934 l-2.7250057458877563,-0.08786463178694248 -2.1183551847934723,0.35674992948770523 l-2.129848748445511,0.9478037059307098 -1.461578756570816,1.4687617123126984 l-0.5364151298999786,1.8585166335105896 0.34693364053964615,1.8116310238838196 l1.382507085800171,1.4701326191425323 2.1492800116539,0.9072992205619812 l2.9427215456962585,0.37178631871938705 3.6964496970176697,-0.39752282202243805 l2.347615659236908,-1.0852275043725967 " fill="none" stroke="black" stroke-width="1" /></svg>