<?xml version="1.0" encoding="utf-8" ?>
<svg baseProfile="full" height="1890.0" version="1.1" width="1540.0" xmlns="http://www.w3.org/2000/svg" xmlns:ev="http://www.w3.org/2001/xml-events" xmlns:xlink="http://www.w3.org/1999/xlink"><defs /><rect fill="white" height="1890.0" width="1540.0" x="0" y="0" /><path d="M325.0,600.0 m-70.0,350.0 l-190.0,705.0 -35.0,210.0 m300.0,-1295.0 l50.0,110.0 75.0,75.0 l245.0,110.0 100.0,20.0 l215.0,10.0 210.0,-55.0 l100.0,-65.0 120.0,-120.0 l50.0,-90.0 10.0,-110.0 l-210.0,-155.0 -145.0,-55.0 l-320.0,50.0 -290.0,80.0 l-210.0,135.0 -135.0,140.0 m1320.0,-155.0 l-85.0,960.0 -5.0,220.0 l-45.0,10.0 -285.0,-30.0 l-585.0,-10.0 -485.0,85.0 m790.0,-1305.0 l-30.0,90.0 m130.0,-105.0 l-85.0,365.0 m-30.0,-385.0 l-85.0,400.0 m335.0,-345.0 l-20.0,345.0 m-230.0,-425.0 l60.0,-180.0 5.0,-145.0 l-120.0,-15.0 -45.0,20.0 l-65.0,120.0 -5.0,125.0 l15.0,55.0 50.0,55.0 l40.0,20.0 160.0,15.0 m65.0,-115.0 l60.0,-195.0 -30.0,10.0 l-45.0,100.0 -10.0,150.0 l25.0,75.0 40.0,40.0 l25.0,5.0 30.0,-45.0 l5.0,-175.0 -50.0,-105.0 m60.0,200.0 l0.0,25.0 25.0,-40.0 l15.0,-115.0 -45.0,70.0 l-10.0,175.0 55.0,50.0 l45.0,0.0 50.0,-40.0 " fill="none" stroke="black" stroke-width="1" /></svg>