<?xml version="1.0" encoding="utf-8" ?>
<svg baseProfile="full" height="92.70024817032208" version="1.1" width="84.99041460454464" xmlns="http://www.w3.org/2000/svg" xmlns:ev="http://www.w3.org/2001/xml-events" xmlns:xlink="http://www.w3.org/1999/xlink"><defs /><rect fill="white" height="92.70024817032208" width="84.99041460454464" x="0" y="0" /><path d="M31.652280688285828,32.045090716010236 m-1.5493549406528473,6.858932971954346 l-4.126259684562683,14.196685552597046 -0.9766660630702972,4.994913935661316 l0.43154068291187286,0.1722692884504795 4.110308587551117,-2.0719164609909058 l3.6518898606300354,-2.0822125673294067 3.0928340554237366,-1.9034506380558014 l1.7037658393383026,-1.3956601917743683 2.5214868783950806,-3.029126822948456 l1.4069357514381409,-1.4370568096637726 2.4916061758995056,-2.243174761533737 l7.696128487586975,-0.31398363411426544 4.72039133310318,0.5365331098437309 l3.163526952266693,0.7343896478414536 -1.6277673840522766,0.163376834243536 l-2.7020588517189026,-0.1646362990140915 -11.452513933181763,-2.187727987766266 l-4.445616602897644,-1.2514300644397736 -5.954761505126953,-2.2528597712516785 l-3.741009831428528,-2.246590405702591 -0.48151466995477676,-1.1683085560798645 m8.75208854675293,9.682067036628723 l0.36210808902978897,11.483011245727539 -0.21762609481811523,7.2597527503967285 l-0.35431116819381714,3.3213600516319275 m9.953101873397827,-19.08992052078247 l0.7569567859172821,12.698646783828735 0.07346468977630138,6.116543412208557 m-11.71623945236206,-21.30525827407837 l0.1250932551920414,4.272107779979706 0.05532155279070139,6.412187814712524 m5.6513530015945435,-12.24827766418457 l0.26228057220578194,5.056477785110474 m-5.449360013008118,-9.454987049102783 l-0.2606284059584141,0.7719502598047256 m0.9815476834774017,-3.6257582902908325 l-0.44670164585113525,-0.9039516001939774 -0.05388988181948662,-1.7839673161506653 l0.41241317987442017,-1.76779106259346 1.2017161399126053,-1.8090873956680298 l1.1384786665439606,-0.7317516207695007 1.5106520056724548,-0.07423416711390018 l1.4780503511428833,1.0991179198026657 1.002185419201851,2.3890523612499237 l8.12196230981499e-05,2.294827550649643 -1.1073768138885498,1.9963298738002777 l-1.0238934308290482,0.674947053194046 -1.613985300064087,9.126434633799363e-05 m-1.9688577950000763,-7.376760840415955 l-1.1936965584754944,-0.3850419446825981 -0.7275594025850296,-0.5045314505696297 l-0.777680054306984,-1.3433896005153656 -0.15748629346489906,-1.7839604616165161 l0.6720184534788132,-1.2328291684389114 1.1928849667310715,-0.818166583776474 l2.0017486810684204,-0.242863018065691 1.852186769247055,0.904625877737999 l1.2006854265928268,1.986909955739975 0.19257668405771255,1.3742060959339142 l-0.6786771863698959,1.6767007112503052 -1.7673565447330475,1.2807710468769073 l-2.450210154056549,-0.12154685333371162 m0.014658499276265502,-2.7559632062911987 l-0.11880041100084782,0.5067931115627289 0.18936559557914734,1.597154289484024 l0.35184089094400406,1.0685564577579498 0.6267546117305756,0.6328825652599335 l1.051250696182251,-0.05460894666612148 " fill="none" stroke="black" stroke-width="1" /></svg>