<?xml version="1.0" encoding="utf-8" ?>
<svg baseProfile="full" height="830.0" version="1.1" width="1070.0" xmlns="http://www.w3.org/2000/svg" xmlns:ev="http://www.w3.org/2001/xml-events" xmlns:xlink="http://www.w3.org/1999/xlink"><defs /><rect fill="white" height="830.0" width="1070.0" x="0" y="0" /><path d="M380.0,660.0 m-160.0,-85.0 l-30.0,-50.0 30.0,-115.0 l130.0,-145.0 95.0,-60.0 l105.0,-35.0 125.0,-10.0 l105.0,15.0 105.0,50.0 l60.0,40.0 100.0,130.0 l-15.0,75.0 -55.0,80.0 l-130.0,80.0 -145.0,55.0 m-290.0,-105.0 l-30.0,75.0 -5.0,150.0 l50.0,-25.0 55.0,-5.0 l230.0,0.0 -15.0,-50.0 l30.0,-100.0 -25.0,-20.0 l-160.0,-10.0 -100.0,-40.0 l-45.0,10.0 m-40.0,150.0 l-145.0,-25.0 -150.0,-85.0 l-35.0,-145.0 50.0,-100.0 l185.0,-200.0 75.0,-60.0 l225.0,-75.0 225.0,40.0 " fill="none" stroke="black" stroke-width="1" /></svg>