<?xml version="1.0" encoding="utf-8" ?>
<svg baseProfile="full" height="62.895972770638764" version="1.1" width="63.86008456349373" xmlns="http://www.w3.org/2000/svg" xmlns:ev="http://www.w3.org/2001/xml-events" xmlns:xlink="http://www.w3.org/1999/xlink"><defs /><rect fill="white" height="62.895972770638764" width="63.86008456349373" x="0" y="0" /><path d="M29.441402591764927,36.576312482357025 m-3.248482644557953,-1.7672888934612274 l-1.0377609729766846,-1.8108227849006653 -0.15515897423028946,-1.7971253395080566 l1.1362503468990326,-2.8071829676628113 2.48317614197731,-2.264040559530258 l3.0669641494750977,-1.1298519372940063 2.901448607444763,0.020095971412956715 l1.5969537198543549,0.7518377900123596 1.5516860783100128,1.5621359646320343 l0.8857534825801849,2.025999575853348 0.2378520369529724,2.477143257856369 l-0.49794774502515793,2.2016125917434692 -1.3496863842010498,1.8592135608196259 l-1.953214854001999,1.3277149200439453 -2.4321015179157257,0.6702191382646561 l-2.5499647855758667,-0.02003988018259406 -1.1457779258489609,-0.4089733958244324 m-0.08449201472103596,-8.158016800880432 l-0.04508195910602808,-0.5239091068506241 0.2141951210796833,-0.8612356334924698 l0.8871845901012421,-1.2160856276750565 1.1056452989578247,-0.5675706639885902 l1.5661881864070892,-0.10995505377650261 1.0126470774412155,0.6194986030459404 l0.47306444495916367,0.8426715433597565 0.12772371992468834,1.4714495837688446 l-0.5536201596260071,1.3025230169296265 -1.3641595840454102,1.0284959524869919 l-1.5948331356048584,0.3371860086917877 -1.42051100730896,-0.3267582505941391 l-0.731780156493187,-0.7248441874980927 -0.3091142699122429,-1.0602115839719772 l0.151205537840724,-0.9661635756492615 1.1699636280536652,-1.020943969488144 l1.8423627316951752,-0.4614413157105446 1.541663408279419,0.1193354744464159 " fill="none" stroke="black" stroke-width="1" /></svg>