<?xml version="1.0" encoding="utf-8" ?>
<svg baseProfile="full" height="2385.0" version="1.1" width="2355.0" xmlns="http://www.w3.org/2000/svg" xmlns:ev="http://www.w3.org/2001/xml-events" xmlns:xlink="http://www.w3.org/1999/xlink"><defs /><rect fill="white" height="2385.0" width="2355.0" x="0" y="0" /><path d="M215.0,855.0 m390.0,-15.0 l245.0,35.0 255.0,5.0 l880.0,65.0 265.0,35.0 l50.0,30.0 30.0,45.0 l-30.0,75.0 -75.0,45.0 l-175.0,30.0 -1275.0,-10.0 l-600.0,-40.0 -130.0,-40.0 l-20.0,-25.0 0.0,-100.0 l20.0,-25.0 50.0,-20.0 l55.0,-5.0 205.0,-70.0 l350.0,-5.0 m-220.0,340.0 l-10.0,165.0 35.0,165.0 l0.0,720.0 10.0,100.0 l25.0,5.0 105.0,-110.0 l95.0,-55.0 165.0,-135.0 l60.0,-85.0 135.0,-135.0 l60.0,-125.0 60.0,-65.0 l65.0,-190.0 60.0,-115.0 l30.0,-110.0 40.0,-55.0 m-20.0,-300.0 l-65.0,-190.0 -60.0,-85.0 l-185.0,-150.0 -195.0,-90.0 l-50.0,-40.0 -55.0,-55.0 l-145.0,-245.0 -20.0,50.0 l-75.0,75.0 -45.0,175.0 l5.0,680.0 " fill="none" stroke="black" stroke-width="1" /></svg>