<?xml version="1.0" encoding="utf-8" ?>
<svg baseProfile="full" height="90.4245519824326" version="1.1" width="97.13954411447048" xmlns="http://www.w3.org/2000/svg" xmlns:ev="http://www.w3.org/2001/xml-events" xmlns:xlink="http://www.w3.org/1999/xlink"><defs /><rect fill="white" height="90.4245519824326" width="97.13954411447048" x="0" y="0" /><path d="M26.814491916447878,43.9653652603738 m7.460349798202515,-0.30856290832161903 l5.598672032356262,0.5275335162878036 3.912878632545471,-0.023133426439017057 l19.561275243759155,0.8168407529592514 6.152986288070679,1.03805311024189 l1.8339745700359344,0.7732628285884857 0.7179995626211166,0.7974132150411606 l0.08691607043147087,1.3507196307182312 -0.8004571497440338,1.0386481136083603 l-3.1255999207496643,1.4611060917377472 -9.924452900886536,1.7008234560489655 l-13.576326370239258,0.5832768976688385 -14.201503992080688,-0.5746584385633469 l-3.2100138068199158,-1.025245264172554 -1.3720668852329254,-1.1217688769102097 l-0.9291230887174606,-2.0742660760879517 0.8210118860006332,-3.117082118988037 m19.09840703010559,3.4469959139823914 l-2.014746516942978,0.8955096453428268 -1.565842628479004,1.2577852606773376 l-1.8496812880039215,2.3867028951644897 -1.551939696073532,3.2349565625190735 l-0.7837816327810287,3.356468379497528 0.00022905109290149994,2.6081135869026184 l0.6494579464197159,1.3800163567066193 1.0897781699895859,0.7641071826219559 l1.481456309556961,0.2855704352259636 1.5903003513813019,-0.45126233249902725 l1.504216194152832,-1.2438459694385529 1.3724349439144135,-1.8846383690834045 l1.5432748198509216,-3.783646821975708 0.8874450623989105,-4.673072397708893 l-0.00016780601072241552,-3.2950961589813232 m-4.193432629108429,-7.743837237358093 l-0.49554992467164993,-2.726694345474243 0.06464946083724499,-4.471398293972015 l0.8509904146194458,-4.8780593276023865 0.9306177496910095,-2.409917414188385 l1.0779336839914322,-1.5928655862808228 1.227431371808052,-0.9695746749639511 l1.2776856124401093,-0.30064305290579796 1.6050885617733002,0.686621367931366 l1.5940414369106293,2.308705449104309 1.0260216891765594,4.139049649238586 l0.07825605571269989,5.014762282371521 -0.8419808745384216,5.331231951713562 m-7.785362601280212,7.566401958465576 l-2.5202998518943787,7.7433013916015625 -1.6470561921596527,5.14567494392395 l-0.6167067214846611,1.8687382340431213 2.699301838874817,-5.433472394943237 " fill="none" stroke="black" stroke-width="1" /></svg>