<?xml version="1.0" encoding="utf-8" ?>
<svg baseProfile="full" height="68.69541991502047" version="1.1" width="77.79974699020386" xmlns="http://www.w3.org/2000/svg" xmlns:ev="http://www.w3.org/2001/xml-events" xmlns:xlink="http://www.w3.org/1999/xlink"><defs /><rect fill="white" height="68.69541991502047" width="77.79974699020386" x="0" y="0" /><path d="M36.34989373385906,26.59418551953422 m-5.991382002830505,-0.09287610650062561 l-1.5800075232982635,0.5390443280339241 -2.017064094543457,1.6989940404891968 l-1.2470178306102753,2.007121443748474 -0.514422282576561,3.4409871697425842 l0.7563915848731995,2.9730400443077087 2.343788594007492,2.6655229926109314 l2.5218138098716736,1.6726039350032806 3.7286242842674255,1.4418651163578033 l4.137223660945892,0.754479318857193 3.3853864669799805,0.0004521128357737325 l2.204289436340332,-0.5436302721500397 1.6730663180351257,-0.9396053105592728 l2.0771415531635284,-2.0724858343601227 1.5296928584575653,-3.1763988733291626 l0.6162301450967789,-5.701587796211243 m-19.51165199279785,-2.5436341762542725 l5.474101901054382,-1.8703693151474 7.378175258636475,-1.6802479326725006 l3.9684337377548218,-0.16746040433645248 2.4953681230545044,0.7783776521682739 l1.8968142569065094,1.7183469235897064 1.1248569935560226,2.7316221594810486 m-19.714317321777344,2.8286325931549072 l0.12860096991062164,-0.6780011206865311 0.27236333116889,-1.2457868456840515 l0.5332246050238609,-1.0257039219141006 1.3355857133865356,-1.1235593259334564 m5.093247294425964,3.1593936681747437 l2.25978821516037,-0.1053512655198574 1.179903894662857,0.11187956668436527 l0.960974246263504,0.573340617120266 0.43252598494291306,1.260174959897995 l-0.3828738257288933,1.761290282011032 -1.3730241358280182,1.547517329454422 l-1.8975238502025604,0.936751514673233 -2.0713576674461365,0.22868800908327103 m-6.917957663536072,-4.689996540546417 l-0.3667469322681427,-0.7064817845821381 -0.062482841312885284,-1.1957339942455292 l0.7278291881084442,-2.960014045238495 1.2310057878494263,-1.62761852145195 l1.4458099007606506,-0.8789504319429398 2.2324880957603455,-0.39179250597953796 l2.428133934736252,0.5821074545383453 2.0849427580833435,1.7309613525867462 l1.2799416482448578,2.4833911657333374 0.32558292150497437,2.66541063785553 l-0.6495022028684616,1.5202951431274414 -1.6257531940937042,1.4709100127220154 m-7.641891241073608,-4.683057963848114 l-0.5875434726476669,-1.7853717505931854 0.2665403299033642,-2.400273084640503 l1.2854522466659546,-1.287657916545868 1.5648040175437927,-0.5476072430610657 l1.9894549250602722,0.2266966924071312 1.6090822219848633,1.3948038220405579 l0.9904804080724716,2.3204301297664642 " fill="none" stroke="black" stroke-width="1" /></svg>