<?xml version="1.0" encoding="utf-8" ?>
<svg baseProfile="full" height="1335.0" version="1.1" width="1325.0" xmlns="http://www.w3.org/2000/svg" xmlns:ev="http://www.w3.org/2001/xml-events" xmlns:xlink="http://www.w3.org/1999/xlink"><defs /><rect fill="white" height="1335.0" width="1325.0" x="0" y="0" /><path d="M595.0,375.0 m-290.0,-5.0 l-80.0,25.0 -95.0,70.0 l-80.0,130.0 -25.0,100.0 l5.0,185.0 105.0,170.0 l175.0,155.0 100.0,55.0 l180.0,50.0 165.0,-5.0 l125.0,-30.0 190.0,-70.0 l55.0,-35.0 85.0,-95.0 l90.0,-155.0 -340.0,-555.0 l-365.0,-15.0 m-125.0,220.0 l25.0,85.0 115.0,160.0 l100.0,230.0 70.0,-75.0 l25.0,-55.0 20.0,-125.0 l65.0,-215.0 m-495.0,-225.0 l0.0,-75.0 m-120.0,10.0 l75.0,60.0 75.0,10.0 l30.0,-15.0 30.0,-60.0 l0.0,-65.0 -35.0,-10.0 l-100.0,5.0 -205.0,90.0 l45.0,75.0 120.0,-15.0 l55.0,-20.0 20.0,-30.0 m650.0,-20.0 l-100.0,0.0 -35.0,70.0 l30.0,35.0 190.0,75.0 l135.0,-10.0 15.0,-25.0 l5.0,-85.0 -10.0,-95.0 l-35.0,-20.0 -115.0,-5.0 m-630.0,-55.0 l15.0,-25.0 150.0,-105.0 l85.0,-20.0 145.0,0.0 l105.0,20.0 170.0,165.0 " fill="none" stroke="black" stroke-width="1" /></svg>