<?xml version="1.0" encoding="utf-8" ?>
<svg baseProfile="full" height="1435.0" version="1.1" width="1105.0" xmlns="http://www.w3.org/2000/svg" xmlns:ev="http://www.w3.org/2001/xml-events" xmlns:xlink="http://www.w3.org/1999/xlink"><defs /><rect fill="white" height="1435.0" width="1105.0" x="0" y="0" /><path d="M475.0,25 m-100.0,20.0 l-80.0,55.0 -130.0,175.0 l-90.0,175.0 -45.0,140.0 l-5.0,140.0 60.0,180.0 l105.0,210.0 75.0,105.0 l135.0,90.0 140.0,55.0 l185.0,40.0 245.0,-10.0 l50.0,-25.0 55.0,-80.0 l5.0,-230.0 -20.0,-80.0 l-265.0,-590.0 -160.0,-200.0 l-140.0,-120.0 -65.0,-35.0 m85.0,545.0 l-75.0,15.0 -25.0,75.0 l50.0,25.0 100.0,-45.0 l15.0,-25.0 -60.0,-80.0 m-30.0,40.0 l-25.0,-380.0 m-20.0,395.0 l-250.0,0.0 " fill="none" stroke="black" stroke-width="1" /></svg>