<?xml version="1.0" encoding="utf-8" ?>
<svg baseProfile="full" height="77.41407116875052" version="1.1" width="69.79264907538891" xmlns="http://www.w3.org/2000/svg" xmlns:ev="http://www.w3.org/2001/xml-events" xmlns:xlink="http://www.w3.org/1999/xlink"><defs /><rect fill="white" height="77.41407116875052" width="69.79264907538891" x="0" y="0" /><path d="M33.48923146400921,25 m-1.9904378056526184,0.3741099312901497 l-1.653405874967575,1.1695044487714767 -2.5687822699546814,2.9697448015213013 l-1.6028524935245514,3.246409595012665 -0.6733927875757217,2.9212024807929993 l-0.0003602323340601288,3.83527934551239 0.8931649476289749,3.617885410785675 l1.4123661816120148,2.717995047569275 1.8841296434402466,2.3130592703819275 l2.350068688392639,1.8457943201065063 3.7509459257125854,1.7625036835670471 l2.78945654630661,0.6400372087955475 3.647380769252777,0.0005456246435642242 l1.1273010075092316,-0.5293286591768265 0.9941935539245605,-1.1553852260112762 l0.9436418116092682,-2.9368188977241516 -0.49785152077674866,-10.250834226608276 l-1.8329693377017975,-4.348155856132507 -2.502715587615967,-3.621976375579834 l-4.786472022533417,-3.5415735840797424 -1.8460187315940857,-0.3683529421687126 m1.8022066354751587,11.836880445480347 l-0.43200794607400894,-0.021464426536113024 -0.6243770942091942,1.0009246319532394 l-0.3039556182920933,0.4796876758337021 0.09547947905957699,-0.37984203547239304 l0.048544215969741344,-1.1896401643753052 m0.3229038044810295,1.3464771211147308 l1.3549941778182983,-3.1176552176475525 2.235013246536255,-5.094740390777588 m-4.616420567035675,8.236446976661682 l-4.58258330821991,-0.4418817162513733 " fill="none" stroke="black" stroke-width="1" /></svg>