<?xml version="1.0" encoding="utf-8" ?>
<svg baseProfile="full" height="1955.0" version="1.1" width="1890.0" xmlns="http://www.w3.org/2000/svg" xmlns:ev="http://www.w3.org/2001/xml-events" xmlns:xlink="http://www.w3.org/1999/xlink"><defs /><rect fill="white" height="1955.0" width="1890.0" x="0" y="0" /><path d="M1225.0,465.0 m-10.0,-50.0 l-95.0,-30.0 -190.0,5.0 l-125.0,50.0 -55.0,40.0 l-10.0,35.0 0.0,190.0 l15.0,65.0 90.0,125.0 l110.0,95.0 55.0,25.0 l55.0,0.0 50.0,-25.0 l115.0,-130.0 40.0,-115.0 l0.0,-225.0 -40.0,-115.0 l-40.0,-30.0 m-165.0,545.0 l0.0,470.0 -105.0,155.0 l-75.0,80.0 -75.0,145.0 l-110.0,160.0 60.0,-35.0 l100.0,-120.0 135.0,-270.0 l50.0,-40.0 20.0,-60.0 l25.0,-15.0 110.0,135.0 l155.0,290.0 25.0,15.0 l20.0,-25.0 0.0,-30.0 m-485.0,-625.0 l325.0,5.0 m-185.0,125.0 l30.0,-50.0 135.0,-90.0 l70.0,-160.0 155.0,-250.0 l110.0,-220.0 60.0,-205.0 l25.0,20.0 10.0,145.0 l20.0,65.0 80.0,165.0 l55.0,5.0 20.0,-25.0 l50.0,-95.0 30.0,-100.0 l-65.0,265.0 -185.0,325.0 l-145.0,180.0 -175.0,115.0 l-120.0,120.0 -35.0,10.0 m-145.0,-250.0 l-30.0,0.0 -35.0,-25.0 l-340.0,-310.0 -260.0,-390.0 l-75.0,-60.0 -55.0,20.0 l0.0,120.0 20.0,55.0 l-25.0,20.0 -80.0,0.0 l-30.0,20.0 -45.0,80.0 l-15.0,90.0 5.0,135.0 l60.0,100.0 60.0,65.0 l75.0,55.0 130.0,60.0 l220.0,60.0 245.0,15.0 l135.0,60.0 140.0,0.0 m-55.0,-1060.0 l-40.0,-50.0 m70.0,-285.0 l-165.0,10.0 -45.0,80.0 l-5.0,65.0 10.0,25.0 l105.0,40.0 185.0,-5.0 l40.0,-45.0 0.0,-55.0 l-20.0,-25.0 -75.0,-40.0 l-130.0,0.0 " fill="none" stroke="black" stroke-width="1" /></svg>