<?xml version="1.0" encoding="utf-8" ?>
<svg baseProfile="full" height="85.11427898163674" version="1.1" width="86.74914194270968" xmlns="http://www.w3.org/2000/svg" xmlns:ev="http://www.w3.org/2001/xml-events" xmlns:xlink="http://www.w3.org/1999/xlink"><defs /><rect fill="white" height="85.11427898163674" width="86.74914194270968" x="0" y="0" /><path d="M49.39395467750728,28.255301266908646 m-0.18180126324295998,-1.0210801661014557 l-1.3619302213191986,-1.3333603739738464 -2.3452499508857727,-0.9008607268333435 l-2.511717677116394,0.09744102135300636 -1.8629063665866852,1.3700108230113983 l-1.600271761417389,2.550113797187805 -0.7366292178630829,3.118959963321686 l0.2765141986310482,4.003684818744659 1.1776760965585709,2.0483610033988953 l1.8494977056980133,1.4780640602111816 2.099592685699463,0.5277812480926514 l2.233717143535614,-0.18612073734402657 1.7971810698509216,-1.0947796702384949 l1.589643508195877,-1.9245229661464691 0.9866167604923248,-2.518211603164673 l0.25224966928362846,-2.7744123339653015 -0.37992000579833984,-2.5010013580322266 l-0.9373720735311508,-1.8836449086666107 -1.3551175594329834,-1.365801990032196 l-1.5360163152217865,-0.6319914013147354 -1.1984515935182571,0.0032131021725945175 m-3.726000189781189,11.394840478897095 l-0.2528183162212372,1.6039884090423584 -1.5653173625469208,4.128235876560211 l-4.158243536949158,8.559344410896301 -2.262437790632248,4.455656409263611 l-0.2738592028617859,1.1998940259218216 0.4479235038161278,1.2328626215457916 l1.7905667424201965,1.2891650199890137 1.8549758195877075,0.6354749947786331 l2.818704843521118,0.29767386615276337 5.528578162193298,-0.1082999911159277 l2.583296000957489,-0.6812341511249542 1.8658015131950378,-1.2600594758987427 l1.1884136497974396,-1.9264404475688934 0.5770081654191017,-2.787366807460785 l-0.09171984158456326,-4.630962014198303 -1.253693401813507,-4.397774636745453 l-1.9563984870910645,-4.169527590274811 -1.588275134563446,-2.1953028440475464 l-1.622765064239502,-1.4163120090961456 m3.0587169528007507,3.2508689165115356 l0.6341775506734848,-1.2312498688697815 1.8384882807731628,-1.7835985124111176 l2.350674420595169,-1.5516889095306396 2.42344006896019,-0.8692594617605209 l2.3060789704322815,-0.10813153348863125 1.5901263058185577,0.5776901543140411 l1.2596620619297028,1.2644697725772858 0.6806252896785736,1.7934153974056244 l0.054152458906173706,2.0725801587104797 -0.8002438396215439,1.7993779480457306 l-1.5207183361053467,1.7248812317848206 -2.5630682706832886,1.6536971926689148 l1.6003356873989105,0.3675232082605362 1.597735583782196,0.8362938463687897 l0.8707839250564575,0.9349855035543442 0.3550298511981964,1.0960759222507477 l-0.1555466465651989,1.6471752524375916 -0.6309086829423904,1.034863144159317 l-1.596747636795044,1.3258737325668335 -2.1377018094062805,0.9557300806045532 l-2.379486709833145,0.39995208382606506 -3.2836881279945374,-0.28600795194506645 l-2.161422520875931,-0.903431847691536 m-11.653165817260742,-11.975823640823364 l-1.4089305698871613,-1.5980954468250275 -1.8663990497589111,-1.1054297536611557 l-2.3150035738945007,-0.6935617327690125 -2.4356654286384583,-0.1011490635573864 l-1.8440324068069458,0.6664662808179855 -1.5989165008068085,1.4950600266456604 l-0.8213810622692108,2.000422775745392 0.009089538361877203,1.3089507818222046 l0.47413263469934464,0.8630432188510895 1.3966034352779388,0.8574346452951431 l2.067588120698929,0.29686322435736656 -2.4352091550827026,2.079930603504181 l-1.1924220621585846,1.9009710848331451 -0.22467190399765968,1.4042490720748901 l0.21553104743361473,1.1855842173099518 0.722576230764389,0.8883053809404373 l1.64313405752182,0.8216481655836105 2.4017609655857086,0.3233174607157707 l3.531336486339569,-0.24346137419342995 2.177409380674362,-0.8059490472078323 m4.675307273864746,-16.605838537216187 l-0.9202562272548676,-0.153170395642519 -0.6550045311450958,-0.9399044513702393 l-0.1827799715101719,-1.324731707572937 0.5017515271902084,-1.2319359183311462 l1.6149474680423737,-1.159524992108345 2.0461490750312805,-0.3102477826178074 l2.0443758368492126,0.29198281466960907 1.281372606754303,0.9954872727394104 l0.454816073179245,1.038546934723854 -0.08713175542652607,1.5781404078006744 l-1.1440954357385635,1.3497671484947205 -1.890341341495514,0.9211979061365128 l-2.158186435699463,0.2442450448870659 " fill="none" stroke="black" stroke-width="1" /></svg>