<?xml version="1.0" encoding="utf-8" ?>
<svg baseProfile="full" height="1590.0" version="1.1" width="2320.0" xmlns="http://www.w3.org/2000/svg" xmlns:ev="http://www.w3.org/2001/xml-events" xmlns:xlink="http://www.w3.org/1999/xlink"><defs /><rect fill="white" height="1590.0" width="2320.0" x="0" y="0" /><path d="M1080.0,685.0 m-35.0,-5.0 l-40.0,20.0 -40.0,110.0 l-30.0,420.0 0.0,155.0 l20.0,35.0 45.0,5.0 l70.0,-45.0 40.0,-45.0 l40.0,-125.0 15.0,-380.0 l-25.0,-95.0 m-195.0,85.0 l-105.0,-95.0 -235.0,-380.0 l-140.0,-180.0 -120.0,-110.0 l-115.0,-30.0 -85.0,25.0 l-100.0,165.0 -20.0,85.0 l0.0,165.0 105.0,225.0 l95.0,80.0 225.0,60.0 l-120.0,185.0 -80.0,230.0 l-30.0,120.0 5.0,165.0 l85.0,35.0 100.0,-20.0 l235.0,-175.0 215.0,-230.0 m350.0,-305.0 l5.0,-70.0 130.0,-195.0 l95.0,-110.0 185.0,-170.0 l215.0,-135.0 160.0,-90.0 l230.0,-35.0 50.0,15.0 l15.0,120.0 -105.0,190.0 l-235.0,245.0 -160.0,110.0 l-55.0,60.0 -135.0,100.0 l-105.0,45.0 -10.0,25.0 l50.0,90.0 90.0,75.0 l55.0,70.0 20.0,160.0 l-95.0,40.0 -210.0,-5.0 l-95.0,-30.0 -135.0,-95.0 " fill="none" stroke="black" stroke-width="1" /></svg>