<?xml version="1.0" encoding="utf-8" ?>
<svg baseProfile="full" height="77.93373413383961" version="1.1" width="92.1934369020164" xmlns="http://www.w3.org/2000/svg" xmlns:ev="http://www.w3.org/2001/xml-events" xmlns:xlink="http://www.w3.org/1999/xlink"><defs /><rect fill="white" height="77.93373413383961" width="92.1934369020164" x="0" y="0" /><path d="M45.51212095655501,30.56713285855949 m-0.6835599988698959,-0.04250052385032177 l-0.7961400598287582,0.6156520545482635 -0.6071208417415619,1.9292740523815155 l-0.7952233403921127,6.583448052406311 0.1232753787189722,3.8948869705200195 l0.3494536504149437,0.885789692401886 0.6438153982162476,0.3248007223010063 l0.6469616293907166,-0.42485497891902924 0.9054787456989288,-2.268456071615219 l0.44606201350688934,-2.707507312297821 -0.2676067687571049,-9.139461517333984 l-0.3738308325409889,-1.3186167180538177 m-1.7363730072975159,3.9928051829338074 l-2.809462249279022,-3.898537755012512 -2.685893177986145,-2.3347195982933044 l-2.5112229585647583,-1.1870944499969482 -2.435225695371628,-0.47204066067934036 l-3.0269819498062134,0.3197825700044632 -1.7189620435237885,0.8906172960996628 l-2.0558157563209534,2.1878618001937866 -0.8750083297491074,2.018619477748871 l-0.2487407624721527,3.2033470273017883 0.6917153298854828,2.188219279050827 l1.4055821299552917,1.7241713404655457 2.8717753291130066,1.7399737238883972 l3.7835025787353516,0.8682900667190552 -2.489858716726303,2.766835391521454 l-1.7664328217506409,3.2480785250663757 -0.5801314115524292,3.189072608947754 l0.46825461089611053,1.8130770325660706 1.3548606634140015,1.2051530182361603 l2.1738748252391815,0.5706349760293961 3.84333997964859,-0.5082638189196587 l2.8843724727630615,-1.5088875591754913 3.3707475662231445,-2.9237383604049683 m4.605706334114075,-16.166335344314575 l2.4904295802116394,-2.4319988489151 2.972913682460785,-1.8256722390651703 l4.352420270442963,-1.5400323271751404 4.138978123664856,-0.4654640331864357 l3.0800661444664,0.657985731959343 1.3361373543739319,0.8567432314157486 l1.0640598833560944,1.9683395326137543 0.1411229930818081,2.983233332633972 l-1.5783710777759552,3.062530755996704 -2.8616493940353394,2.6804858446121216 l-4.012959897518158,2.1919888257980347 -4.282478094100952,1.2479221820831299 l3.6950886249542236,0.5641606450080872 2.5261056423187256,1.3848114013671875 l1.1935856193304062,1.3010026514530182 0.6623508036136627,2.131185233592987 l-0.4078901559114456,2.502075731754303 -1.0713154077529907,1.3465505838394165 l-2.5429952144622803,1.3807162642478943 -3.8506093621253967,0.6756985187530518 l-4.39443975687027,-0.2874560281634331 -3.65683376789093,-1.2984472513198853 l-1.9534941017627716,-1.308116614818573 " fill="none" stroke="black" stroke-width="1" /></svg>