<?xml version="1.0" encoding="utf-8" ?>
<svg baseProfile="full" height="79.76156838798488" version="1.1" width="62.66877756603208" xmlns="http://www.w3.org/2000/svg" xmlns:ev="http://www.w3.org/2001/xml-events" xmlns:xlink="http://www.w3.org/1999/xlink"><defs /><rect fill="white" height="79.76156838798488" width="62.66877756603208" x="0" y="0" /><path d="M32.42769745327678,34.38388326771019 m-0.9757622331380844,-0.48707377165555954 l-1.2392295151948929,0.16442609950900078 -2.2612525522708893,2.4154092371463776 l-1.2776973843574524,3.106919229030609 -0.19894219934940338,3.5343387722969055 l0.7069402188062668,2.527877688407898 1.2097658216953278,1.9372133910655975 l1.5792886912822723,1.3881289958953857 1.82118758559227,0.7858679443597794 l2.4419640004634857,0.00023429276552633382 1.6635270416736603,-0.8947053551673889 l1.1633087694644928,-1.486274003982544 0.6079818680882454,-1.9628575444221497 l-0.11345222592353821,-5.0433725118637085 -1.676371693611145,-3.264695703983307 l-1.469225287437439,-1.5873616933822632 -2.082689106464386,-1.040937453508377 m-2.3076172173023224,15.118494033813477 l-1.7973068356513977,5.146350264549255 m7.444911599159241,-4.401094913482666 l1.0258842259645462,2.572433352470398 0.7497522979974747,1.848364770412445 m-5.984722375869751,-15.065916776657104 l-0.7903125882148743,-0.20770058035850525 -0.6580997258424759,0.1722637377679348 l-0.4762287437915802,0.6874306499958038 0.00034881140891229734,0.8491098135709763 l0.7737978547811508,0.8596915006637573 1.0861770808696747,0.00035243014281149954 l0.46931691467761993,-1.5614007413387299 -0.37042684853076935,-0.5729430913925171 l-0.6883751600980759,0.006053145043551922 m0.8952635526657104,0.35011012107133865 l0.26409320533275604,-1.5677237510681152 m0.23360207676887512,2.6356691122055054 l1.9832363724708557,-0.7185366004705429 0.3310847282409668,-0.19238322973251343 m-4.196473956108093,0.21956799551844597 l-0.09812211617827415,0.2243337407708168 0.1619606465101242,1.2505614757537842 m-0.6039552390575409,-3.4333470463752747 l-0.49437113106250763,-1.0229090601205826 m0.8945773541927338,1.0769275575876236 l-0.0267299497500062,-1.3070382177829742 1.0200264304876328,-4.020862579345703 m-0.5560760572552681,5.987840294837952 l2.654789686203003,0.04331553354859352 1.8852020800113678,-0.16456438228487968 m-6.334695816040039,-6.341054439544678 l-0.9766069054603577,-0.7567922025918961 -0.9052447229623795,-1.1314641684293747 l-1.1850044876337051,-2.37842857837677 -0.5653643608093262,-1.5716363489627838 l-0.18532993271946907,-1.099039912223816 0.41035864502191544,-0.7674279063940048 l0.8520235866308212,-0.24362588301301003 1.5813931822776794,0.6742843240499496 l2.4005259573459625,3.1228789687156677 0.8854073286056519,2.3393478989601135 m2.0307569205760956,0.7522428035736084 l2.108907252550125,-3.3187589049339294 1.4547204971313477,-1.2501204013824463 l0.5701369419693947,1.4729070663452148 " fill="none" stroke="black" stroke-width="1" /></svg>