<?xml version="1.0" encoding="utf-8" ?>
<svg baseProfile="full" height="1170.0" version="1.1" width="700.0" xmlns="http://www.w3.org/2000/svg" xmlns:ev="http://www.w3.org/2001/xml-events" xmlns:xlink="http://www.w3.org/1999/xlink"><defs /><rect fill="white" height="1170.0" width="700.0" x="0" y="0" /><path d="M375.0,190.0 m-50.0,-25.0 l-55.0,5.0 -120.0,125.0 l-50.0,125.0 -25.0,170.0 l50.0,185.0 60.0,85.0 l60.0,65.0 135.0,55.0 l90.0,0.0 110.0,-50.0 l60.0,-90.0 25.0,-125.0 l0.0,-105.0 -50.0,-180.0 l-120.0,-200.0 -50.0,-40.0 m-290.0,655.0 l-50.0,205.0 m350.0,-45.0 l30.0,140.0 m-125.0,-640.0 l-30.0,70.0 0.0,60.0 l35.0,45.0 55.0,0.0 l50.0,-30.0 -5.0,-80.0 l-55.0,-30.0 m-30.0,10.0 l55.0,35.0 20.0,55.0 l-25.0,5.0 -35.0,-55.0 l0.0,-25.0 20.0,10.0 m-15.0,-35.0 l160.0,-230.0 m-230.0,310.0 l-240.0,-135.0 -65.0,-20.0 m385.0,215.0 l-130.0,150.0 -20.0,55.0 m210.0,-230.0 l185.0,195.0 m-120.0,-230.0 l55.0,-10.0 85.0,-50.0 m-535.0,-280.0 l-25.0,-140.0 0.0,-25.0 l25.0,-25.0 115.0,-50.0 l50.0,-5.0 25.0,20.0 l25.0,105.0 m45.0,25.0 l35.0,-50.0 40.0,-110.0 l165.0,30.0 15.0,25.0 l-5.0,165.0 " fill="none" stroke="black" stroke-width="1" /></svg>