<?xml version="1.0" encoding="utf-8" ?>
<svg baseProfile="full" height="640.0" version="1.1" width="1480.0" xmlns="http://www.w3.org/2000/svg" xmlns:ev="http://www.w3.org/2001/xml-events" xmlns:xlink="http://www.w3.org/1999/xlink"><defs /><rect fill="white" height="640.0" width="1480.0" x="0" y="0" /><path d="M345.0,190.0 m-250.0,35.0 l-65.0,35.0 -5.0,60.0 l145.0,115.0 140.0,45.0 l160.0,-15.0 70.0,-30.0 l55.0,180.0 60.0,-80.0 l25.0,-110.0 25.0,-20.0 l100.0,-10.0 385.0,25.0 l85.0,-45.0 120.0,-95.0 l60.0,-70.0 -65.0,-5.0 l-345.0,60.0 115.0,-100.0 l175.0,-100.0 -290.0,30.0 l-75.0,45.0 -110.0,25.0 l-325.0,0.0 -40.0,-50.0 l-10.0,-90.0 -40.0,10.0 l-115.0,160.0 -30.0,-20.0 m-80.0,75.0 l0.0,25.0 25.0,20.0 l85.0,5.0 -25.0,-60.0 l-30.0,-20.0 -55.0,-5.0 " fill="none" stroke="black" stroke-width="1" /></svg>