<?xml version="1.0" encoding="utf-8" ?>
<svg baseProfile="full" height="64.87228205194697" version="1.1" width="77.21521906554699" xmlns="http://www.w3.org/2000/svg" xmlns:ev="http://www.w3.org/2001/xml-events" xmlns:xlink="http://www.w3.org/1999/xlink"><defs /><rect fill="white" height="64.87228205194697" width="77.21521906554699" x="0" y="0" /><path d="M31.538520179910847,33.39682018151507 m-5.3673142194747925,0.7675426453351974 l-1.1709138751029968,0.7940290868282318 -0.00029208533305791207,1.1240676790475845 l4.312775135040283,3.7898224592208862 3.1422877311706543,-0.1370565965771675 l1.5553119778633118,-0.6734919548034668 1.2974092364311218,-0.4952668026089668 l1.0659350454807281,-0.019632431212812662 1.1261699348688126,0.10752012021839619 l3.1866037845611572,0.23667419329285622 1.150505542755127,-0.641019269824028 l0.9694676846265793,-0.8640097826719284 6.270298361778259,0.09319285862147808 l2.732303738594055,-0.5483373627066612 0.4061508923768997,-3.3079349994659424 l-0.5765454843640327,-3.8409245014190674 -1.1314865201711655,-1.1472927778959274 l-8.108071088790894,0.8914993703365326 -4.473677277565002,0.9347254037857056 l-1.599191278219223,0.3096436895430088 -2.842550575733185,0.33058255910873413 l-1.1358088254928589,0.18898159265518188 -0.7978077232837677,0.07809908594936132 l-1.538352221250534,0.06795664317905903 -0.48630770295858383,0.16719385981559753 l-0.28478851541876793,0.7269345223903656 m6.340003609657288,-1.24526709318161 l0.09337243624031544,-3.5846027731895447 0.46402323991060257,-2.1753667294979095 l1.0584945976734161,-0.3250828757882118 2.4011991918087006,0.29576195403933525 l0.33769629895687103,0.4524318128824234 9.980862159864046e-05,1.9680511951446533 l-0.7469286024570465,2.1214932203292847 -0.8855856955051422,1.1314787715673447 " fill="none" stroke="black" stroke-width="1" /></svg>