<?xml version="1.0" encoding="utf-8" ?>
<svg baseProfile="full" height="1825.0" version="1.1" width="1425.0" xmlns="http://www.w3.org/2000/svg" xmlns:ev="http://www.w3.org/2001/xml-events" xmlns:xlink="http://www.w3.org/1999/xlink"><defs /><rect fill="white" height="1825.0" width="1425.0" x="0" y="0" /><path d="M555.0,555.0 m-25.0,25.0 l-235.0,70.0 -45.0,40.0 l-180.0,225.0 -40.0,110.0 l-5.0,500.0 130.0,175.0 l65.0,55.0 50.0,20.0 l200.0,25.0 375.0,0.0 l80.0,-25.0 95.0,-75.0 l155.0,-170.0 120.0,-85.0 l45.0,-60.0 55.0,-175.0 l5.0,-405.0 -170.0,-235.0 l-55.0,-35.0 -75.0,-5.0 l-135.0,-55.0 -85.0,-20.0 l-165.0,0.0 -135.0,60.0 l-15.0,90.0 m0.0,105.0 l90.0,-215.0 60.0,-50.0 l85.0,-50.0 210.0,-35.0 m0.0,0.0 l0.0,0.0 m0.0,0.0 l60.0,-55.0 125.0,-170.0 l185.0,-110.0 m-795.0,680.0 l-20.0,180.0 " fill="none" stroke="black" stroke-width="1" /></svg>