<?xml version="1.0" encoding="utf-8" ?>
<svg baseProfile="full" height="82.48838058345427" version="1.1" width="77.12490007281303" xmlns="http://www.w3.org/2000/svg" xmlns:ev="http://www.w3.org/2001/xml-events" xmlns:xlink="http://www.w3.org/1999/xlink"><defs /><rect fill="white" height="82.48838058345427" width="77.12490007281303" x="0" y="0" /><path d="M35.35829269327223,33.727753503699205 m-0.4490583762526512,0.4825851321220398 l-4.935111999511719,1.3032618165016174 -1.4725728332996368,0.9362293779850006 l-1.8833264708518982,2.626274824142456 -1.5173806250095367,5.454372763633728 l-0.10084238834679127,6.346743702888489 1.366269439458847,3.6907178163528442 l0.8826089650392532,1.101425439119339 3.1827592849731445,1.6186095774173737 l1.4390173554420471,0.20040662959218025 7.3735809326171875,-1.52863010764122 l2.9785412549972534,-0.19885707646608353 4.833680987358093,-1.0012011975049973 l2.0676633715629578,-1.316971331834793 1.811572015285492,-2.70953506231308 l1.1892064660787582,-4.158082008361816 -0.00026924766643787734,-4.880548715591431 l-1.087750717997551,-3.363730013370514 -1.8874412775039673,-2.9999694228172302 l-2.5354784727096558,-2.1862027049064636 -2.11237370967865,-0.9359481930732727 l-3.2149294018745422,0.0004269308556104079 -1.6104036569595337,0.6428679823875427 l-1.935938447713852,1.5907466411590576 -1.3330943882465363,0.3594701364636421 m-0.36606937646865845,-0.7243816554546356 l0.4507630690932274,-3.065541684627533 1.513582319021225,-3.1736642122268677 l1.4402216672897339,-1.5528176724910736 2.421015650033951,-1.2858112156391144 m-4.347279071807861,7.211069464683533 l4.725906848907471,-2.3324567079544067 3.1243792176246643,-1.2418505549430847 l2.667889893054962,-0.6676242500543594 m-10.401207208633423,4.485858082771301 l4.257851243019104,-0.941925048828125 2.1570569276809692,-0.6844750046730042 m-5.615711212158203,1.275564283132553 l0.00031619827495887876,-0.000400285680370871 " fill="none" stroke="black" stroke-width="1" /></svg>