<?xml version="1.0" encoding="utf-8" ?>
<svg baseProfile="full" height="85.04292447119951" version="1.1" width="87.42869634181261" xmlns="http://www.w3.org/2000/svg" xmlns:ev="http://www.w3.org/2001/xml-events" xmlns:xlink="http://www.w3.org/1999/xlink"><defs /><rect fill="white" height="85.04292447119951" width="87.42869634181261" x="0" y="0" /><path d="M40.27945302426815,39.11739107221365 m-0.5147899314761162,0.5404175817966461 l-0.8701161295175552,2.482549548149109 -0.8555139601230621,4.822991788387299 l-0.7388332486152649,5.689820647239685 -0.39798974990844727,4.237858355045319 l0.2598808705806732,2.1735815703868866 1.1636382341384888,0.9783139079809189 l13.143824338912964,-0.5237551778554916 0.3763394057750702,-0.804324746131897 l-0.964471697807312,-8.42810869216919 -3.691692054271698,-7.698459029197693 l-3.814583122730255,-3.2321742177009583 -1.835303008556366,-0.5418377742171288 m-1.6793662309646606,-3.7935486435890198 l-0.9225314110517502,-0.6118504330515862 -1.1215861141681671,-0.9208494424819946 l-1.3393783569335938,-1.3329756259918213 -0.6664662063121796,-1.1625605076551437 l-0.3932711109519005,-1.7948967218399048 0.43235965073108673,-1.5123313665390015 l1.312505304813385,-1.393159180879593 1.861833781003952,-0.9321378171443939 l2.033897787332535,-0.3599550947546959 1.89523383975029,0.225527323782444 l2.334336042404175,1.286124736070633 1.2129098176956177,1.301955133676529 l1.0166967660188675,2.2419600188732147 0.24303462356328964,2.6544615626335144 l-0.864056795835495,2.273057848215103 -1.03480763733387,0.9411019831895828 l-2.1460267901420593,0.6427940726280212 m-3.44663143157959,-0.19080324098467827 l2.959873080253601,-1.754629760980606 3.7667864561080933,-1.9523519277572632 l3.5258376598358154,-1.4529243111610413 3.379545211791992,-0.7980635017156601 l2.837340831756592,0.08133585564792156 2.4581117928028107,1.3059446215629578 l2.031707912683487,2.5513458251953125 1.2009648978710175,3.529370427131653 l-0.1295718178153038,10.066200494766235 -1.7314475774765015,3.5400283336639404 l-2.5211745500564575,2.628600001335144 -3.320074677467346,1.8473279476165771 l-3.9628425240516663,0.9892118722200394 -6.497065424919128,-1.2866316735744476 m-6.650063991546631,-20.50598382949829 l-4.178784191608429,-2.4863526225090027 -2.857413589954376,-0.8123139292001724 l-2.161647379398346,0.4764343798160553 -1.3697366416454315,1.1467209458351135 l-1.4042793214321136,2.6948189735412598 -0.6445946544408798,3.8604959845542908 l0.2531118132174015,2.496124505996704 1.4113163948059082,3.059740364551544 l1.5496519207954407,1.7932775616645813 2.5440648198127747,1.6482827067375183 l3.1904852390289307,0.9560855478048325 1.6694042086601257,0.5080863460898399 l1.7445828020572662,0.18418459221720695 1.8958780169487,-0.5277575924992561 l1.2495042383670807,-0.9938067942857742 0.6735121458768845,-1.1929871886968613 m1.1811070144176483,-13.030530214309692 l0.07483658380806446,0.8114335685968399 0.16315681859850883,3.5664749145507812 l0.06398324389010668,4.949007034301758 -0.17741164192557335,3.8903892040252686 l-0.23697450757026672,2.7925890684127808 -0.19417241215705872,1.7773398756980896 l0.16773071140050888,1.0760270059108734 0.6277387589216232,0.5696765333414078 " fill="none" stroke="black" stroke-width="1" /></svg>