<?xml version="1.0" encoding="utf-8" ?>
<svg baseProfile="full" height="2110.0" version="1.1" width="2015.0" xmlns="http://www.w3.org/2000/svg" xmlns:ev="http://www.w3.org/2001/xml-events" xmlns:xlink="http://www.w3.org/1999/xlink"><defs /><rect fill="white" height="2110.0" width="2015.0" x="0" y="0" /><path d="M740.0,440.0 m-25.0,30.0 l-40.0,125.0 -60.0,225.0 l-35.0,210.0 -110.0,360.0 l0.0,40.0 25.0,5.0 l730.0,0.0 225.0,-15.0 l15.0,-20.0 -25.0,-80.0 l-195.0,-345.0 -225.0,-470.0 m-45.0,-455.0 l-20.0,-20.0 -60.0,-5.0 l-70.0,25.0 -60.0,45.0 l-80.0,130.0 5.0,95.0 l50.0,75.0 125.0,65.0 l95.0,0.0 60.0,-20.0 l70.0,-60.0 15.0,-85.0 l-25.0,-140.0 -50.0,-55.0 l-75.0,-15.0 m-255.0,635.0 l-50.0,-45.0 -95.0,-140.0 l-125.0,-80.0 -85.0,15.0 l-40.0,40.0 -45.0,85.0 l-190.0,635.0 -40.0,180.0 l-5.0,130.0 10.0,20.0 l75.0,-50.0 260.0,-400.0 l80.0,-55.0 140.0,-15.0 m530.0,-230.0 l470.0,-375.0 95.0,-60.0 l65.0,-5.0 70.0,95.0 l60.0,145.0 110.0,380.0 l0.0,140.0 -55.0,225.0 l-35.0,40.0 -30.0,-5.0 l-70.0,-60.0 -175.0,-205.0 l-70.0,-30.0 -105.0,0.0 m-665.0,410.0 l-25.0,15.0 -25.0,130.0 l-60.0,135.0 -85.0,75.0 l30.0,20.0 420.0,170.0 l105.0,30.0 95.0,5.0 l85.0,-40.0 90.0,-85.0 l20.0,-85.0 -35.0,-95.0 " fill="none" stroke="black" stroke-width="1" /></svg>