<?xml version="1.0" encoding="utf-8" ?>
<svg baseProfile="full" height="1165.0" version="1.1" width="4535.0" xmlns="http://www.w3.org/2000/svg" xmlns:ev="http://www.w3.org/2001/xml-events" xmlns:xlink="http://www.w3.org/1999/xlink"><defs /><rect fill="white" height="1165.0" width="4535.0" x="0" y="0" /><path d="M25,615.0 m665.0,25.0 l185.0,15.0 285.0,50.0 l350.0,30.0 845.0,10.0 l55.0,15.0 20.0,-25.0 l-20.0,-195.0 305.0,-5.0 l85.0,15.0 80.0,20.0 l20.0,25.0 0.0,310.0 l-60.0,230.0 -70.0,5.0 l-265.0,-60.0 -255.0,-15.0 l-15.0,-25.0 10.0,-130.0 l20.0,-100.0 50.0,-120.0 m30.0,40.0 l-10.0,-25.0 65.0,-195.0 l15.0,-25.0 20.0,0.0 m-65.0,15.0 l160.0,-5.0 320.0,30.0 l25.0,20.0 -25.0,290.0 l25.0,20.0 630.0,-15.0 l170.0,35.0 155.0,-10.0 l170.0,65.0 215.0,-25.0 l225.0,-125.0 35.0,-50.0 l35.0,-125.0 0.0,-75.0 l-65.0,-100.0 -135.0,-90.0 l-290.0,-100.0 -200.0,-50.0 l-440.0,-55.0 -610.0,-40.0 l-430.0,-50.0 -360.0,0.0 l-185.0,-20.0 -560.0,15.0 l-155.0,65.0 -115.0,80.0 l-290.0,120.0 -370.0,65.0 l-80.0,70.0 " fill="none" stroke="black" stroke-width="1" /></svg>