<?xml version="1.0" encoding="utf-8" ?>
<svg baseProfile="full" height="79.90948777311132" version="1.1" width="136.18190695066005" xmlns="http://www.w3.org/2000/svg" xmlns:ev="http://www.w3.org/2001/xml-events" xmlns:xlink="http://www.w3.org/1999/xlink"><defs /><rect fill="white" height="79.90948777311132" width="136.18190695066005" x="0" y="0" /><path d="M25,43.56850038059747 m12.50330924987793,0.5197616666555405 l2.5843700766563416,0.3543926030397415 8.695282340049744,0.7344839721918106 l7.854258418083191,0.6261736154556274 11.163500547409058,0.3488342836499214 l4.182659983634949,0.05140284541994333 3.4505438804626465,0.1254685316234827 l0.30354566872119904,1.6106824576854706 0.12100446969270706,4.173903465270996 l-0.06521066185086966,2.4512894451618195 -0.2644195221364498,0.344468355178833 l-1.0683074593544006,0.00012615118066605646 -2.3702840507030487,-0.5624754354357719 l-2.252192497253418,-0.7188625633716583 -1.7423558235168457,-0.9297239035367966 l-1.3911308348178864,-2.0246082544326782 -0.4379850998520851,-4.239261150360107 l0.34918300807476044,-2.3627792298793793 0.8153462409973145,-0.9223826974630356 m3.843788504600525,3.8963961601257324 l3.9850270748138428,-0.1490939874202013 4.406079947948456,-0.38782965391874313 l4.20551061630249,-0.31132614240050316 3.1680333614349365,-0.19971387460827827 l2.602262496948242,-0.002392089372733608 2.5170761346817017,-0.07248751353472471 l2.4731940031051636,-0.1644306443631649 1.9359499216079712,-0.28996892273426056 l1.6567347943782806,-0.2589838206768036 m-15.916259288787842,0.5610010027885437 l2.1106047928333282,-0.25676993653178215 3.910362124443054,-0.42080745100975037 l4.816080927848816,-0.47272440046072006 4.208212196826935,-0.6128906831145287 l3.521786332130432,-0.5705684795975685 3.3748000860214233,-0.7660835981369019 l2.597038149833679,-0.5904972553253174 1.9530774652957916,-0.9226839989423752 l1.5839280188083649,-1.8336084485054016 0.7975013554096222,-2.6962101459503174 l-0.28952907770872116,-3.9391109347343445 -1.0846076905727386,-2.817845940589905 l-1.2152763456106186,-1.513008028268814 -2.7970966696739197,-1.541740596294403 l-2.902403771877289,-0.7825556397438049 -4.726489186286926,-0.4458469897508621 l-7.651858925819397,-0.4061060771346092 -5.960637331008911,-0.14222653582692146 l-16.311986446380615,-0.03927991259843111 -15.713937282562256,0.07329418323934078 l-12.409625053405762,0.502280592918396 -4.8928302526474,0.5957332625985146 l-3.3294016122817993,0.9547919034957886 -2.7128639817237854,1.2385018914937973 l-1.4998739957809448,1.2338532507419586 -0.9614968299865723,1.5235097706317902 l-1.0818111151456833,4.760814309120178 0.09069365449249744,5.168989896774292 " fill="none" stroke="black" stroke-width="1" /></svg>