<?xml version="1.0" encoding="utf-8" ?>
<svg baseProfile="full" height="1400.0" version="1.1" width="1800.0" xmlns="http://www.w3.org/2000/svg" xmlns:ev="http://www.w3.org/2001/xml-events" xmlns:xlink="http://www.w3.org/1999/xlink"><defs /><rect fill="white" height="1400.0" width="1800.0" x="0" y="0" /><path d="M500.0,450.0 m-110.0,70.0 l-50.0,60.0 -35.0,80.0 l-15.0,95.0 10.0,125.0 l30.0,100.0 35.0,80.0 l75.0,105.0 140.0,105.0 l140.0,60.0 280.0,45.0 l280.0,-25.0 225.0,-130.0 l50.0,-65.0 60.0,-165.0 l-35.0,-235.0 -95.0,-155.0 l-250.0,-195.0 -140.0,-55.0 l-100.0,-20.0 -95.0,10.0 l-90.0,-20.0 -90.0,15.0 l-130.0,45.0 -65.0,60.0 l-40.0,15.0 m385.0,-355.0 l-70.0,35.0 -550.0,385.0 l-185.0,195.0 -25.0,10.0 m710.0,-575.0 l30.0,-25.0 -35.0,-60.0 l-80.0,-35.0 -95.0,-5.0 l-130.0,25.0 -145.0,60.0 l-155.0,105.0 -55.0,65.0 l-25.0,60.0 -25.0,85.0 l-10.0,125.0 45.0,110.0 l95.0,40.0 m980.0,-445.0 l530.0,460.0 75.0,45.0 l25.0,-15.0 m-510.0,-550.0 l20.0,-30.0 125.0,-55.0 l95.0,-15.0 180.0,0.0 l75.0,15.0 " fill="none" stroke="black" stroke-width="1" /></svg>