<?xml version="1.0" encoding="utf-8" ?>
<svg baseProfile="full" height="80.27538277208805" version="1.1" width="77.21290122717619" xmlns="http://www.w3.org/2000/svg" xmlns:ev="http://www.w3.org/2001/xml-events" xmlns:xlink="http://www.w3.org/1999/xlink"><defs /><rect fill="white" height="80.27538277208805" width="77.21290122717619" x="0" y="0" /><path d="M29.972626799717546,37.43896648287773 m-2.2629591822624207,1.3046818971633911 l-1.2365521490573883,1.3265538215637207 -0.7770270854234695,1.399083286523819 l-0.59744693338871,2.3178215324878693 -0.09864144958555698,2.5614476203918457 l0.3304858133196831,1.4629320800304413 0.7593140006065369,1.44865021109581 l1.6512522101402283,1.834537833929062 2.3892387747764587,1.6534456610679626 l3.0019086599349976,1.332758516073227 6.48248553276062,1.194503828883171 l4.518824815750122,-0.14610446989536285 2.5670382380485535,-0.7699785381555557 l2.280392199754715,-1.3693742454051971 1.6823381185531616,-1.8052446842193604 l1.130209043622017,-2.3674118518829346 0.41941381990909576,-2.831845283508301 l-0.1911953091621399,-2.8737011551856995 -0.9488918632268906,-2.3305493593215942 l-1.6798341274261475,-2.1051859855651855 -2.346564531326294,-1.7253655195236206 l-2.8867045044898987,-1.2504713237285614 -3.4065526723861694,-0.7447843253612518 l-3.7175023555755615,-0.21639272570610046 -3.296414315700531,0.3442567214369774 l-2.9315146803855896,1.002398431301117 -2.016766220331192,1.3459214568138123 m5.037498474121094,-0.37072934210300446 l-0.04165063612163067,-0.5218805000185966 -0.8741870522499084,-3.1895703077316284 l-0.9897906333208084,-3.6396312713623047 -0.19793247804045677,-1.410365104675293 l0.22937018424272537,-1.2255771458148956 0.5640118569135666,-0.9058914333581924 l1.6753119230270386,-0.9363269805908203 2.258380651473999,-0.2315778285264969 l2.019520252943039,0.4754156246781349 1.2128540128469467,0.7819893211126328 l1.15824356675148,1.7035338282585144 0.5923455581068993,2.393215447664261 l-0.032921526581048965,2.439781278371811 -0.7122644782066345,1.8518224358558655 m-5.658972859382629,4.4094520807266235 l-1.1126935482025146,0.6513930112123489 -0.7358527928590775,1.2643159925937653 l-0.23310067132115364,1.3066613674163818 0.2828512527048588,1.1013355106115341 l1.218351200222969,1.0121901333332062 1.3626191020011902,0.36072250455617905 l2.0537057518959045,-0.1180292759090662 1.555030643939972,-0.9039512276649475 l1.076584905385971,-1.5106125175952911 0.2730839140713215,-1.8646171689033508 l-0.49468327313661575,-1.4868634939193726 -1.3701064884662628,-0.9846416115760803 l-2.046656757593155,-0.26743117719888687 " fill="none" stroke="black" stroke-width="1" /></svg>