<?xml version="1.0" encoding="utf-8" ?>
<svg baseProfile="full" height="1795.0" version="1.1" width="1140.0" xmlns="http://www.w3.org/2000/svg" xmlns:ev="http://www.w3.org/2001/xml-events" xmlns:xlink="http://www.w3.org/1999/xlink"><defs /><rect fill="white" height="1795.0" width="1140.0" x="0" y="0" /><path d="M610.0,870.0 m-10.0,-80.0 l-65.0,-115.0 -65.0,-60.0 l-100.0,-45.0 -60.0,5.0 l-225.0,185.0 -50.0,145.0 l-10.0,275.0 10.0,85.0 l50.0,165.0 90.0,160.0 l90.0,85.0 165.0,80.0 l185.0,15.0 275.0,-10.0 l45.0,-10.0 175.0,-305.0 l-55.0,-45.0 m-5.0,0.0 l-25.0,-35.0 m5.0,0.0 l-190.0,-110.0 -10.0,-25.0 l0.0,-55.0 30.0,-60.0 l130.0,-105.0 40.0,-55.0 l15.0,-70.0 -15.0,-125.0 l-60.0,-45.0 -75.0,-30.0 l-70.0,-15.0 -120.0,15.0 l-70.0,30.0 -20.0,25.0 l-15.0,30.0 -5.0,120.0 m325.0,-825.0 l-80.0,30.0 -90.0,65.0 l-70.0,135.0 0.0,80.0 l30.0,5.0 350.0,-65.0 l55.0,-50.0 0.0,-220.0 l-90.0,-20.0 -150.0,45.0 " fill="none" stroke="black" stroke-width="1" /></svg>