<?xml version="1.0" encoding="utf-8" ?>
<svg baseProfile="full" height="85.92241522856057" version="1.1" width="72.69800279289484" xmlns="http://www.w3.org/2000/svg" xmlns:ev="http://www.w3.org/2001/xml-events" xmlns:xlink="http://www.w3.org/1999/xlink"><defs /><rect fill="white" height="85.92241522856057" width="72.69800279289484" x="0" y="0" /><path d="M39.0513358078897,43.6101137008518 m-0.19242120906710625,-1.6634899377822876 l-1.279730349779129,-2.0756399631500244 -1.9041597843170166,-1.5874171257019043 l-2.261880189180374,-0.8902863413095474 -2.616043984889984,-0.1599648781120777 l-1.429460197687149,0.5131372064352036 -2.081793248653412,1.877652108669281 l-1.6030466556549072,2.987968325614929 -0.6828001886606216,3.6516088247299194 l0.2120235189795494,4.982457756996155 1.7120903730392456,4.09737765789032 l2.8658950328826904,3.1907013058662415 2.535843849182129,1.5050677955150604 l3.8106033205986023,0.8831287920475006 3.8760945200920105,-0.19651763141155243 l2.115861475467682,-0.887436643242836 2.1540988981723785,-1.6538822650909424 l1.7815473675727844,-2.3693151772022247 1.121039018034935,-2.8185194730758667 l0.5129054188728333,-3.3033227920532227 -0.15653520822525024,-4.4940367341041565 l-1.2437567859888077,-3.5571062564849854 -1.4534974098205566,-2.0881669223308563 l-1.8279308080673218,-1.4202533662319183 -2.127511203289032,-0.7882915437221527 l-2.2789746522903442,-0.11725525371730328 -1.6890405118465424,0.6813882291316986 l-1.5505652129650116,1.5641103684902191 -0.7185708731412888,1.8447186052799225 l-0.07733586244285107,-3.911903202533722 0.5284244567155838,-5.335561037063599 l0.9711474925279617,-3.0118942260742188 1.1216402798891068,-1.675506979227066 l1.9077575206756592,-1.5639390051364899 1.779041439294815,-0.6837429106235504 l1.8454208970069885,-0.1359810121357441 0.8437469601631165,0.3430984914302826 l0.4788561910390854,0.7983500510454178 0.08761780336499214,1.1744987219572067 l-0.46466249972581863,1.0924690216779709 -1.7272040247917175,1.7129257321357727 l-2.562090754508972,1.5227843821048737 -2.680470645427704,0.9777992218732834 l-2.4339017271995544,0.45293744653463364 -1.5916673839092255,0.03574545029550791 l-0.6107024103403091,-0.3310960903763771 -0.2509419247508049,-0.836021676659584 " fill="none" stroke="black" stroke-width="1" /></svg>