<?xml version="1.0" encoding="utf-8" ?>
<svg baseProfile="full" height="2130.0" version="1.1" width="3095.0" xmlns="http://www.w3.org/2000/svg" xmlns:ev="http://www.w3.org/2001/xml-events" xmlns:xlink="http://www.w3.org/1999/xlink"><defs /><rect fill="white" height="2130.0" width="3095.0" x="0" y="0" /><path d="M1640.0,590.0 m270.0,5.0 l570.0,-30.0 120.0,15.0 l100.0,40.0 95.0,65.0 l65.0,85.0 195.0,425.0 l15.0,95.0 -30.0,35.0 l-60.0,20.0 -675.0,55.0 l-490.0,0.0 -440.0,55.0 l-290.0,-20.0 -435.0,5.0 l-280.0,-40.0 -345.0,30.0 l45.0,-100.0 70.0,-95.0 l230.0,-260.0 325.0,-280.0 l125.0,-75.0 160.0,-60.0 l155.0,-20.0 255.0,30.0 l335.0,0.0 m-430.0,590.0 l-30.0,160.0 0.0,190.0 l30.0,230.0 55.0,210.0 l40.0,80.0 55.0,50.0 l55.0,25.0 145.0,-30.0 l75.0,-50.0 145.0,-155.0 l55.0,-95.0 35.0,-100.0 l25.0,-200.0 -15.0,-185.0 l-90.0,-325.0 m-370.0,-385.0 l-20.0,-35.0 5.0,-175.0 l50.0,-150.0 80.0,-125.0 l45.0,-40.0 90.0,-30.0 l95.0,20.0 55.0,30.0 l90.0,75.0 30.0,50.0 l20.0,170.0 -35.0,165.0 l25.0,80.0 " fill="none" stroke="black" stroke-width="1" /></svg>