<?xml version="1.0" encoding="utf-8" ?>
<svg baseProfile="full" height="84.81858125887811" version="1.1" width="80.2676249392971" xmlns="http://www.w3.org/2000/svg" xmlns:ev="http://www.w3.org/2001/xml-events" xmlns:xlink="http://www.w3.org/1999/xlink"><defs /><rect fill="white" height="84.81858125887811" width="80.2676249392971" x="0" y="0" /><path d="M28.631614008918405,35.84038738626987 m5.314722061157227,0.1505463756620884 l9.638680815696716,-0.35379834473133087 3.9450913667678833,-0.28618888929486275 l2.2435718774795532,-0.05435257684439421 1.444113701581955,0.25161365047097206 l1.6262100636959076,0.9144493192434311 1.3002806901931763,1.564897894859314 l0.7520734518766403,1.9919028878211975 0.07995902560651302,1.4917078614234924 l-0.40772419422864914,1.1106201261281967 -0.8956421166658401,0.9944311529397964 l-2.272935211658478,1.1815975606441498 -4.590825140476227,1.0221397131681442 l-8.445835709571838,0.33364187926054 -5.28415322303772,-0.48315737396478653 l-4.404187500476837,-1.1428918689489365 -2.148232012987137,-1.2038487941026688 l-1.044885665178299,-1.1614688485860825 -0.4818962886929512,-1.4281809329986572 l0.1258635800331831,-1.4170686900615692 1.4276181161403656,-1.7692483961582184 l1.4469622075557709,-0.8447501808404922 2.5433534383773804,-0.6308729201555252 m5.120949149131775,0.8156370371580124 l0.11935737915337086,1.200484186410904 0.014481404796242714,5.684710741043091 l-0.1202508807182312,10.997614860534668 0.0008216504647862166,5.048026442527771 l3.9491531252861023,-0.5715196207165718 5.335001349449158,-0.20139891654253006 l9.977055191993713,-0.45840974897146225 0.32725922763347626,-0.5527571961283684 l-0.053966082632541656,-1.7803756892681122 -1.090918406844139,-9.345394372940063 l-0.7128537446260452,-7.0671141147613525 -0.6837128102779388,-3.6536791920661926 m-14.858465194702148,1.1101379245519638 l-0.06109153386205435,-6.085493564605713 -0.9823146462440491,-4.994630813598633 l1.975170522928238,-0.4278549551963806 3.7885576486587524,0.07512485608458519 l-0.0956190750002861,9.057050943374634 -0.23843148723244667,3.0864661931991577 m0.27515165507793427,-7.992373108863831 l0.0906863808631897,-3.278155028820038 0.7329736649990082,-1.182715743780136 l0.880354717373848,-0.4906047508120537 1.1736547946929932,-0.0648843590170145 l0.8404967933893204,0.6718868017196655 0.3900056704878807,1.1632684618234634 l-0.016382274916395545,2.128556966781616 -0.7051701098680496,1.7516057193279266 l-1.2624900043010712,1.3536621630191803 -0.916939377784729,0.38023948669433594 l-1.1323853582143784,-0.14011050574481487 -0.6161751225590706,-0.6799732148647308 " fill="none" stroke="black" stroke-width="1" /></svg>