<?xml version="1.0" encoding="utf-8" ?>
<svg baseProfile="full" height="75.24549892172217" version="1.1" width="71.05681936256588" xmlns="http://www.w3.org/2000/svg" xmlns:ev="http://www.w3.org/2001/xml-events" xmlns:xlink="http://www.w3.org/1999/xlink"><defs /><rect fill="white" height="75.24549892172217" width="71.05681936256588" x="0" y="0" /><path d="M34.51532036066055,26.669620480388403 m-1.422225534915924,-0.20084813237190247 l-2.258589416742325,0.656866654753685 -2.4688009917736053,1.9726432859897614 l-1.6804848611354828,2.506266236305237 -1.1606694012880325,3.0537056922912598 l-0.5245501548051834,3.3748406171798706 0.12428353540599346,4.195044636726379 l0.8121568709611893,2.4691064655780792 1.3690733909606934,2.245483696460724 l1.7972299456596375,1.7182062566280365 2.156611382961273,1.0804833471775055 l2.560378611087799,0.5040796846151352 2.794107496738434,-0.025845002382993698 l2.3093444108963013,-0.7715599983930588 2.3687511682510376,-1.5022814273834229 l2.0278023183345795,-2.1358993649482727 1.5447106957435608,-2.7166539430618286 l0.9130089730024338,-3.1776246428489685 0.2793605625629425,-3.433700203895569 l-0.3151906654238701,-2.9424017667770386 -0.9564079344272614,-2.5266340374946594 l-1.6090397536754608,-2.436334937810898 -2.0219604671001434,-1.8249274790287018 l-2.3429544270038605,-1.20136559009552 -2.6592591404914856,-0.5502705276012421 l-2.7365803718566895,0.028118090704083443 -1.8879334628582,0.6665501743555069 m-0.8136935532093048,15.40810227394104 l-0.6716454029083252,0.3052770718932152 0.0719510018825531,0.7700636237859726 l0.803152471780777,-0.021748649887740612 0.2692529186606407,-1.175978034734726 l-0.7114697992801666,0.6396497786045074 0.3803328052163124,0.2328920178115368 l0.29439548030495644,-0.658346638083458 -0.27000660076737404,0.11378089897334576 l0.0930896494537592,0.48692774027585983 0.6333178281784058,-0.5747967958450317 l-0.27017462998628616,-0.094883032143116 -0.14245868660509586,0.6750147044658661 l0.633339136838913,-0.3413672000169754 -0.20097220316529274,-0.2581482566893101 l-0.17947116866707802,0.5370839685201645 0.48724979162216187,-0.11331136338412762 l-0.09519293904304504,-0.41176021099090576 -0.22935183718800545,0.45175541192293167 l0.4109015688300133,0.07449897471815348 0.11834387667477131,-0.4119528457522392 l-0.3661009296774864,0.23409981280565262 0.09503618814051151,0.39363257586956024 l0.5858279019594193,-0.4600101709365845 -0.20292507484555244,-0.26704076677560806 l-0.2549513801932335,0.6572210788726807 0.49812354147434235,-0.1401061750948429 l-0.09580500423908234,-0.32912835478782654 -0.2947247214615345,0.4448038712143898 l0.3117388114333153,0.1813868060708046 0.18669744953513145,-0.3845134377479553 l-0.27857743203639984,-0.04519917070865631 -0.15655821189284325,0.5950381606817245 l0.546523928642273,-0.2934585325419903 -0.1404393184930086,-0.3822597488760948 l-0.24074280634522438,0.4968685656785965 m0.18670044839382172,-0.847788080573082 l0.007972553721629083,-8.058483600616455 -0.2154223993420601,-3.4146848320961 " fill="none" stroke="black" stroke-width="1" /></svg>