<?xml version="1.0" encoding="utf-8" ?>
<svg baseProfile="full" height="2265.0" version="1.1" width="1490.0" xmlns="http://www.w3.org/2000/svg" xmlns:ev="http://www.w3.org/2001/xml-events" xmlns:xlink="http://www.w3.org/1999/xlink"><defs /><rect fill="white" height="2265.0" width="1490.0" x="0" y="0" /><path d="M975.0,825.0 m-70.0,-10.0 l-75.0,25.0 -145.0,105.0 l-70.0,90.0 -55.0,110.0 l-60.0,270.0 0.0,270.0 l70.0,190.0 50.0,60.0 l70.0,50.0 230.0,15.0 l125.0,-55.0 120.0,-85.0 l110.0,-95.0 85.0,-100.0 l60.0,-105.0 30.0,-90.0 l15.0,-275.0 -10.0,-90.0 l-30.0,-75.0 -80.0,-100.0 l-55.0,-35.0 -195.0,-80.0 l-110.0,-15.0 -120.0,0.0 l-60.0,55.0 m-310.0,925.0 l-20.0,235.0 m765.0,-130.0 l-10.0,145.0 40.0,210.0 m-375.0,-890.0 l5.0,-25.0 10.0,40.0 l0.0,35.0 -10.0,-15.0 m-15.0,-70.0 l-5.0,-185.0 30.0,-140.0 l50.0,-100.0 m-35.0,475.0 l145.0,50.0 310.0,20.0 m-735.0,-500.0 l-55.0,-35.0 -50.0,-75.0 l-20.0,-70.0 0.0,-140.0 l75.0,-80.0 105.0,-45.0 l175.0,-15.0 75.0,80.0 l45.0,130.0 5.0,80.0 m-645.0,-185.0 l-15.0,-30.0 -10.0,-170.0 l-70.0,-80.0 -90.0,-5.0 l-50.0,15.0 -95.0,70.0 l5.0,-45.0 205.0,-280.0 l-175.0,90.0 125.0,-120.0 " fill="none" stroke="black" stroke-width="1" /></svg>