<?xml version="1.0" encoding="utf-8" ?>
<svg baseProfile="full" height="92.99056109040976" version="1.1" width="91.20364207774401" xmlns="http://www.w3.org/2000/svg" xmlns:ev="http://www.w3.org/2001/xml-events" xmlns:xlink="http://www.w3.org/1999/xlink"><defs /><rect fill="white" height="92.99056109040976" width="91.20364207774401" x="0" y="0" /><path d="M46.45017471164465,29.315712824463844 m0.25021176785230637,-0.544641874730587 l-0.5910445749759674,-1.087496429681778 -1.812412589788437,-1.612342894077301 l-1.5805982053279877,-0.7171780616044998 -2.7604591846466064,-0.3540535643696785 l-2.9357674717903137,0.4306096211075783 -3.228345513343811,1.5522463619709015 l-2.845129668712616,2.399149090051651 -2.3295538127422333,3.0141666531562805 l-1.8338115513324738,3.623667359352112 -1.205662414431572,4.083430171012878 l-0.5776014924049377,5.81850528717041 0.36056291311979294,5.514085292816162 l1.552819162607193,4.826537370681763 1.8341197073459625,3.251273036003113 l3.3414483070373535,3.681069314479828 4.061373174190521,2.652369439601898 l3.3049815893173218,1.311735063791275 5.023608207702637,0.8317170292139053 l3.706161081790924,-0.0728883920237422 4.366733729839325,-1.1163824796676636 l4.488128125667572,-2.25333571434021 2.8947731852531433,-2.2939594089984894 l2.336827665567398,-2.6918885111808777 1.8484599888324738,-3.174026310443878 l1.2965922057628632,-3.550078570842743 0.7870530337095261,-5.35932719707489 l-0.12235691770911217,-5.29992401599884 -1.238318383693695,-4.7758811712265015 l-2.1278776228427887,-4.335131347179413 -2.027590274810791,-2.6827362179756165 l-2.472109943628311,-2.199685126543045 -2.676999270915985,-1.5270020067691803 l-2.9856273531913757,-0.937640368938446 -3.0752238631248474,-0.2656053751707077 l-2.925420105457306,0.3376326709985733 -2.4436339735984802,1.0166822373867035 l-1.866471916437149,1.5304210782051086 m2.1448493003845215,1.0251504182815552 l-0.02559738466516137,1.4347119629383087 -0.025807777419686317,5.12511134147644 l-0.058862618170678616,7.8040361404418945 5.647730231285095,1.0895917564630508 l4.880339503288269,0.14710229821503162 3.40655654668808,-0.3081112168729305 l3.3352062106132507,-0.026933893095701933 " fill="none" stroke="black" stroke-width="1" /></svg>