<?xml version="1.0" encoding="utf-8" ?>
<svg baseProfile="full" height="2245.0" version="1.1" width="2030.0" xmlns="http://www.w3.org/2000/svg" xmlns:ev="http://www.w3.org/2001/xml-events" xmlns:xlink="http://www.w3.org/1999/xlink"><defs /><rect fill="white" height="2245.0" width="2030.0" x="0" y="0" /><path d="M1095.0,130.0 m10.0,-25.0 l-30.0,-35.0 -90.0,-30.0 l-210.0,-15.0 -225.0,30.0 l-70.0,20.0 -50.0,40.0 l-125.0,130.0 -90.0,120.0 l-55.0,95.0 -80.0,220.0 l-25.0,130.0 -30.0,335.0 l45.0,530.0 120.0,350.0 l155.0,165.0 95.0,20.0 l205.0,10.0 455.0,-10.0 l305.0,-80.0 210.0,-85.0 l150.0,-90.0 85.0,-135.0 l120.0,-340.0 35.0,-245.0 l0.0,-120.0 -25.0,-405.0 l-40.0,-165.0 -55.0,-125.0 l-45.0,-55.0 -310.0,-200.0 l-70.0,-25.0 -345.0,-20.0 m-160.0,225.0 l20.0,290.0 30.0,190.0 l-20.0,460.0 m20.0,5.0 l285.0,-80.0 410.0,-45.0 m-680.0,55.0 l-30.0,10.0 -15.0,55.0 l50.0,20.0 30.0,-30.0 " fill="none" stroke="black" stroke-width="1" /></svg>