<?xml version="1.0" encoding="utf-8" ?>
<svg baseProfile="full" height="130.302936732769" version="1.1" width="125.37993635982275" xmlns="http://www.w3.org/2000/svg" xmlns:ev="http://www.w3.org/2001/xml-events" xmlns:xlink="http://www.w3.org/1999/xlink"><defs /><rect fill="white" height="130.302936732769" width="125.37993635982275" x="0" y="0" /><path d="M27.55298059542838,74.0451297810796 m4.548338949680328,-3.5678568482398987 l2.8558772802352905,-0.9834381937980652 6.272529363632202,-0.3153357654809952 l6.636396646499634,-0.07117895409464836 9.901173710823059,-0.5497884377837181 l6.135718822479248,-0.8588606119155884 5.819237232208252,-1.2963195145130157 l5.266327261924744,-1.2113816291093826 4.911918044090271,-1.1342830210924149 l4.369381368160248,-0.6341556459665298 5.239042639732361,-0.1818295754492283 l3.5387006402015686,0.6185036897659302 2.890961468219757,1.3492077589035034 l2.3342524468898773,2.1353577077388763 1.5189734101295471,2.9720383882522583 l0.5879098549485207,3.7433448433876038 0.00021662453946191818,4.924447238445282 l-1.5297718346118927,4.5983463525772095 -1.259254515171051,1.9829922914505005 l-2.7177613973617554,2.3446354269981384 -4.387890994548798,2.153330147266388 l-5.947422385215759,1.6241396963596344 -11.250158548355103,1.31401926279068 l-7.4277085065841675,0.7432682067155838 -9.11356508731842,0.0002825172123266384 l-6.822940707206726,-0.27631210163235664 -6.2997037172317505,-0.5366923660039902 l-10.641273260116577,-1.5126073360443115 -3.687918484210968,-1.3691149652004242 l-1.8952050805091858,-1.3786400854587555 -1.7800313234329224,-2.6214182376861572 l-0.6193305179476738,-2.3122063279151917 0.39165616035461426,-8.986575603485107 l1.2744227051734924,-3.6288172006607056 0.7924754917621613,-0.6831052899360657 m30.049774646759033,12.53919243812561 l-0.2051091380417347,7.777376770973206 -0.14320801012217999,8.388810753822327 l-0.14464931562542915,4.326137006282806 0.015431795036420226,1.8322941660881042 l0.6078875064849854,-0.19558245316147804 3.2408827543258667,-3.8264575600624084 l4.763026833534241,-8.95355999469757 0.8121964335441589,-5.86617112159729 l-0.06952299736440182,-4.043235778808594 m-10.494842529296875,-8.064698576927185 l-0.5695826932787895,1.3238732516765594 -0.5149589851498604,4.710822701454163 l-0.35484679043293,5.665884017944336 -0.006494576227851212,3.0157074332237244 l0.0070860597770661116,1.1624087393283844 -0.22162020206451416,1.9130675494670868 l0.13901232741773129,0.13943595811724663 2.2826825082302094,-4.102015495300293 l3.2746341824531555,-8.9524507522583 0.1303315255790949,-3.123071789741516 m-2.567925751209259,-4.982463717460632 l-0.3318188712000847,0.6927759945392609 -0.4366263374686241,4.069830775260925 l-0.3907294198870659,5.421167016029358 -0.22553149610757828,3.1354865431785583 l-0.16230082139372826,0.6638447940349579 -1.2348563969135284,-0.582115575671196 l-1.0465238988399506,-1.8240948021411896 -1.2209127098321915,-6.318590044975281 l0.2358759194612503,-4.766097068786621 m7.024344205856323,1.162276715040207 l-0.08485005237162113,1.7455266416072845 -0.465790331363678,5.115034580230713 l-0.35160738974809647,4.53836977481842 -0.14918677508831024,-1.0961342602968216 l0.39139922708272934,-4.881688952445984 0.5870717018842697,-3.5100209712982178 m7.293152213096619,-4.977596402168274 l0.10589868761599064,2.525947391986847 -0.3203928843140602,5.642088055610657 l-0.4301183670759201,3.719857335090637 -0.11177130043506622,-2.037874460220337 l0.4377574101090431,-5.246507525444031 0.4958891496062279,-3.0723053216934204 m-0.822925940155983,-3.3297327160835266 l0.028687845915555954,1.866011917591095 -0.24079300463199615,4.324979782104492 l-0.703311413526535,3.5074371099472046 -1.0714946687221527,-0.19263673573732376 l-1.22195303440094,-2.49185711145401 0.1490933634340763,-4.754289388656616 m7.8831058740615845,-6.799611449241638 l0.8932627737522125,-2.1886080503463745 8.308727741241455,-17.290157079696655 l4.738377034664154,-10.8694589138031 2.7095261216163635,-8.025686740875244 l0.6067540869116783,0.4776974022388458 2.4836237728595734,11.102344989776611 l1.3199740648269653,12.614518404006958 0.7158512622117996,8.58817458152771 m-31.621804237365723,7.062476873397827 l-1.2464820593595505,-1.9525887072086334 -4.462186694145203,-14.239522218704224 l-4.398999810218811,-10.710302591323853 -1.5497836470603943,-3.179924190044403 " fill="none" stroke="black" stroke-width="1" /></svg>