<?xml version="1.0" encoding="utf-8" ?>
<svg baseProfile="full" height="3185.0" version="1.1" width="3935.0" xmlns="http://www.w3.org/2000/svg" xmlns:ev="http://www.w3.org/2001/xml-events" xmlns:xlink="http://www.w3.org/1999/xlink"><defs /><rect fill="white" height="3185.0" width="3935.0" x="0" y="0" /><path d="M365.0,1450.0 m230.0,-180.0 l135.0,-40.0 370.0,-10.0 l325.0,65.0 175.0,10.0 l215.0,-35.0 620.0,-165.0 l145.0,-25.0 520.0,-375.0 l125.0,-75.0 70.0,-25.0 l120.0,-15.0 160.0,0.0 l95.0,35.0 100.0,115.0 l50.0,90.0 40.0,120.0 l40.0,235.0 5.0,275.0 l-90.0,145.0 -115.0,100.0 l-120.0,70.0 -210.0,65.0 l-320.0,30.0 -255.0,150.0 l-315.0,70.0 -965.0,10.0 l-410.0,-75.0 -465.0,-135.0 l-120.0,-55.0 -110.0,-80.0 l-20.0,30.0 10.0,725.0 l-95.0,600.0 165.0,-125.0 l70.0,-85.0 120.0,-225.0 l75.0,-255.0 100.0,-635.0 l35.0,25.0 m1180.0,355.0 l0.0,460.0 10.0,-140.0 l95.0,-465.0 65.0,-460.0 m-1845.0,-140.0 l-35.0,-5.0 -70.0,-65.0 l-55.0,-70.0 -100.0,-190.0 l-30.0,-5.0 -60.0,470.0 l0.0,95.0 20.0,30.0 l95.0,35.0 370.0,15.0 l60.0,30.0 m3340.0,-610.0 l-10.0,35.0 -75.0,75.0 l-105.0,80.0 -85.0,40.0 l-45.0,-5.0 -85.0,-125.0 m-325.0,-555.0 l0.0,-320.0 30.0,-260.0 l30.0,-65.0 35.0,-15.0 l45.0,70.0 25.0,120.0 l30.0,440.0 m0.0,-320.0 l35.0,-80.0 45.0,-45.0 l65.0,380.0 m90.0,320.0 l5.0,25.0 -35.0,-55.0 l25.0,60.0 -15.0,-55.0 m-1285.0,1220.0 l0.0,75.0 65.0,335.0 l65.0,460.0 10.0,185.0 l-45.0,-145.0 -45.0,-350.0 l10.0,-690.0 m-1105.0,60.0 l-20.0,295.0 -175.0,645.0 l-55.0,140.0 -25.0,0.0 l-20.0,-65.0 -40.0,-230.0 l-20.0,-260.0 5.0,-315.0 " fill="none" stroke="black" stroke-width="1" /></svg>