<?xml version="1.0" encoding="utf-8" ?>
<svg baseProfile="full" height="74.61731147021055" version="1.1" width="78.6169958114624" xmlns="http://www.w3.org/2000/svg" xmlns:ev="http://www.w3.org/2001/xml-events" xmlns:xlink="http://www.w3.org/1999/xlink"><defs /><rect fill="white" height="74.61731147021055" width="78.6169958114624" x="0" y="0" /><path d="M33.455084217348485,31.900155693292618 m1.07579804956913,-4.730552434921265 l0.866752490401268,-2.169603258371353 1.0812529176473618,2.2329269349575043 l1.2011126428842545,2.3513679206371307 1.2372632324695587,0.9031152725219727 l2.4166008830070496,0.17246222123503685 3.093098998069763,-0.04277719184756279 l3.494620621204376,-1.9641950726509094 1.3373073935508728,-1.52512326836586 l0.9888938814401627,0.5349564552307129 1.9630442559719086,5.83256721496582 l0.528670959174633,3.6116334795951843 -0.2606599032878876,4.183766543865204 l-0.7846208661794662,2.1453961730003357 -1.8445907533168793,2.5769340991973877 l-2.6377302408218384,1.9534099102020264 -3.526005446910858,1.3050150871276855 l-2.46478408575058,0.3458556905388832 -3.218233585357666,-0.24268943816423416 l-3.2304972410202026,-1.2388335913419724 -1.94546639919281,-1.3881868124008179 l-1.4460690319538116,-1.6918900609016418 -1.2719625234603882,-3.0210089683532715 l-0.5446217581629753,-3.721317946910858 -0.0005463301931740716,-3.3825603127479553 l0.6738989800214767,-1.9418089091777802 1.509672850370407,-1.6575245559215546 m6.660019159317017,5.370774865150452 l-0.371524877846241,0.5333102494478226 -0.11979825794696808,0.6370972841978073 l0.41779372841119766,0.00027856838642037474 0.29730571433901787,-1.2539124488830566 l-0.48673491925001144,-0.29203394427895546 -0.33631157130002975,0.7910608500242233 m8.84401559829712,-0.3873969614505768 l-0.6958005577325821,0.4975663870573044 -0.21990392357110977,0.8792953938245773 l0.4732534661889076,0.32642245292663574 0.39303548634052277,-1.4373400807380676 l-1.0146448016166687,-0.27171745896339417 -0.43281085789203644,0.7388328015804291 m-4.9912229180336,4.241383075714111 l-0.3410455584526062,2.0497193932533264 -0.002321761130588129,0.6762564182281494 l0.310320220887661,0.4229913651943207 0.8748593181371689,-0.02496340312063694 l0.7014313340187073,-0.658281147480011 0.19672848284244537,-1.383620947599411 l-0.5640191957354546,-0.553237646818161 -0.7971145957708359,-0.030409430619329214 l-0.4488467797636986,0.44277649372816086 0.1553980726748705,0.6968080997467041 l0.6065147742629051,0.13101412914693356 -0.028492910787463188,-0.7248347997665405 l-0.5824672803282738,-0.11350461281836033 m1.4530563354492188,-1.599016785621643 l6.175721883773804,-2.0649774372577667 4.478567540645599,-1.128598004579544 m-9.81269657611847,4.2340949177742 l7.382907867431641,0.08309636265039444 3.694539964199066,0.17444223165512085 m-10.803263187408447,0.6470002233982086 l5.863973498344421,2.230091392993927 3.6502495408058167,1.518644541501999 m-15.790462493896484,-5.975603461265564 l-8.75879168510437,-0.7799255102872849 -2.7787014842033386,0.0716329226270318 m11.446173191070557,2.0375077426433563 l-7.16774582862854,1.7516545951366425 -2.944048047065735,1.2660105526447296 m10.334643125534058,-1.6188974678516388 l-6.392452716827393,3.879624605178833 -2.530440390110016,1.8609322607517242 m11.258563995361328,-10.876458883285522 l-4.227830767631531,1.5587109327316284 m8.278698325157166,-2.095545381307602 l0.2748245373368263,1.5277132391929626 " fill="none" stroke="black" stroke-width="1" /></svg>