<?xml version="1.0" encoding="utf-8" ?>
<svg baseProfile="full" height="1210.0" version="1.1" width="1505.0" xmlns="http://www.w3.org/2000/svg" xmlns:ev="http://www.w3.org/2001/xml-events" xmlns:xlink="http://www.w3.org/1999/xlink"><defs /><rect fill="white" height="1210.0" width="1505.0" x="0" y="0" /><path d="M250.0,375.0 m55.0,-235.0 l45.0,-105.0 35.0,105.0 l60.0,50.0 105.0,145.0 l75.0,-15.0 165.0,0.0 l55.0,10.0 90.0,75.0 l35.0,-120.0 205.0,-260.0 l10.0,250.0 70.0,235.0 l20.0,190.0 -25.0,100.0 l-50.0,95.0 -95.0,105.0 l-65.0,45.0 -160.0,65.0 l-165.0,-5.0 -170.0,-50.0 l-130.0,-90.0 -125.0,-180.0 l-65.0,-185.0 5.0,-115.0 l25.0,-60.0 35.0,-65.0 l35.0,-35.0 25.0,5.0 m310.0,345.0 l155.0,30.0 -50.0,140.0 l-30.0,40.0 -60.0,-115.0 l-30.0,-100.0 m-125.0,-185.0 l-25.0,35.0 50.0,10.0 l5.0,-30.0 -35.0,5.0 l-5.0,25.0 35.0,5.0 l-35.0,-25.0 -25.0,10.0 l5.0,10.0 m490.0,-35.0 l-30.0,20.0 5.0,45.0 l5.0,-30.0 -30.0,15.0 l20.0,10.0 m-240.0,310.0 l15.0,75.0 -30.0,25.0 l-150.0,15.0 -60.0,-25.0 l-40.0,-110.0 m285.0,-25.0 l30.0,85.0 70.0,35.0 l130.0,20.0 35.0,-155.0 m-400.0,-70.0 l-255.0,-5.0 -315.0,-60.0 m495.0,160.0 l-440.0,15.0 m535.0,0.0 l-440.0,180.0 m735.0,-310.0 l185.0,15.0 385.0,80.0 m-620.0,20.0 l445.0,85.0 m-540.0,-5.0 l120.0,30.0 355.0,245.0 " fill="none" stroke="black" stroke-width="1" /></svg>