<?xml version="1.0" encoding="utf-8" ?>
<svg baseProfile="full" height="76.86798185575753" version="1.1" width="82.11725205610946" xmlns="http://www.w3.org/2000/svg" xmlns:ev="http://www.w3.org/2001/xml-events" xmlns:xlink="http://www.w3.org/1999/xlink"><defs /><rect fill="white" height="76.86798185575753" width="82.11725205610946" x="0" y="0" /><path d="M27.177352131188286,34.08479074481875 m-0.020197276026010513,-0.5375879257917404 l0.9878438711166382,-1.091868281364441 2.196851372718811,-1.2882216274738312 l2.646230161190033,-0.9651461988687515 4.59702342748642,-0.8879457414150238 l7.199278473854065,-0.5264266952872276 5.611807107925415,0.4383277893066406 l3.6133769154548645,1.2885680794715881 2.3374925553798676,1.9074718654155731 l0.7701878249645233,1.3686613738536835 5.490856551659817e-06,2.1180936694145203 l-0.7182418555021286,1.4014159142971039 -2.218896597623825,1.8938927352428436 l-4.071896970272064,1.7926912009716034 -5.432330965995789,1.1141838133335114 l-8.949244618415833,0.1851596124470234 -4.369664490222931,-0.8312245458364487 l-3.5443297028541565,-1.6697634756565094 -1.611606478691101,-1.3842830061912537 l-1.2009964138269424,-2.259462922811508 -4.396270469442243e-05,-0.9493850916624069 l0.9569340199232101,-1.3259495794773102 m10.598689317703247,2.730957865715027 l0.09141210466623306,5.2010393142700195 -0.21365592256188393,7.8098320960998535 l-0.09761888533830643,2.250160872936249 10.295884609222412,-1.9064843654632568 l1.0069672763347626,-9.186084866523743 -0.29391732066869736,-4.725240468978882 m-8.566228747367859,-0.045040627010166645 l-0.2664128877222538,-5.391078591346741 m2.683122456073761,4.598503112792969 l0.0824390072375536,-3.2454264163970947 0.042105475440621376,-2.8365156054496765 l0.15052306465804577,-1.9400843977928162 m2.5056111812591553,8.042691946029663 l0.15864618122577667,-4.140159785747528 0.17260661348700523,-3.009812831878662 l0.2141876518726349,-1.8632380664348602 0.3508441895246506,-1.2148115783929825 m2.0322412252426147,9.547980427742004 l0.23241642862558365,-4.612623751163483 0.23019658401608467,-2.985658049583435 l0.3282763808965683,-1.954897940158844 m1.3745339214801788,9.086878299713135 l0.1116080954670906,-4.351277947425842 0.22048372775316238,-2.832486629486084 m-14.55721139907837,5.061134696006775 l-0.5655926838517189,-1.8386073410511017 -0.2433638647198677,-2.938835024833679 l0.3785371035337448,-1.2792961299419403 m2.554723620414734,5.653817653656006 l0.05662328563630581,-2.9825633764266968 0.10187247768044472,-2.289305478334427 m3.793169856071472,5.575466752052307 l0.11432738974690437,-3.199738562107086 " fill="none" stroke="black" stroke-width="1" /></svg>