<?xml version="1.0" encoding="utf-8" ?>
<svg baseProfile="full" height="1470.0" version="1.1" width="1525.0" xmlns="http://www.w3.org/2000/svg" xmlns:ev="http://www.w3.org/2001/xml-events" xmlns:xlink="http://www.w3.org/1999/xlink"><defs /><rect fill="white" height="1470.0" width="1525.0" x="0" y="0" /><path d="M65.0,850.0 m5.0,-30.0 l50.0,-50.0 90.0,-55.0 l110.0,-40.0 395.0,-95.0 l260.0,-10.0 175.0,50.0 l225.0,105.0 75.0,65.0 l50.0,170.0 0.0,50.0 l-70.0,85.0 -175.0,80.0 l-195.0,30.0 -405.0,0.0 l-240.0,-70.0 -290.0,-115.0 l-85.0,-60.0 -15.0,-50.0 l5.0,-55.0 10.0,585.0 l55.0,5.0 1290.0,-10.0 l50.0,-20.0 50.0,-300.0 l0.0,-170.0 -15.0,-65.0 m-1040.0,10.0 l0.0,-430.0 25.0,-180.0 m-75.0,20.0 l20.0,-15.0 m45.0,-35.0 l-35.0,-5.0 -55.0,-60.0 l5.0,-75.0 100.0,-85.0 l25.0,0.0 35.0,45.0 l-20.0,110.0 -60.0,50.0 m280.0,500.0 l50.0,325.0 -25.0,-50.0 m-65.0,-300.0 l-90.0,-95.0 0.0,-65.0 m15.0,-45.0 l100.0,-5.0 25.0,25.0 l15.0,50.0 -20.0,80.0 l-65.0,110.0 m360.0,125.0 l5.0,-225.0 m5.0,-60.0 l-95.0,-170.0 " fill="none" stroke="black" stroke-width="1" /></svg>