<?xml version="1.0" encoding="utf-8" ?>
<svg baseProfile="full" height="84.88289679400623" version="1.1" width="90.93792716274038" xmlns="http://www.w3.org/2000/svg" xmlns:ev="http://www.w3.org/2001/xml-events" xmlns:xlink="http://www.w3.org/1999/xlink"><defs /><rect fill="white" height="84.88289679400623" width="90.93792716274038" x="0" y="0" /><path d="M45.345061123371124,35.14167091809213 m-0.5615464225411415,-1.4136488735675812 l-1.0841459035873413,-1.0321847349405289 -2.5758564472198486,-1.1931101977825165 l-3.1597578525543213,-0.5248382687568665 -3.332701027393341,0.08972562849521637 l-2.948680818080902,0.9405521303415298 -2.829127311706543,1.8538746237754822 l-2.128216475248337,2.599477469921112 -1.3050924241542816,3.181692659854889 l-0.419936440885067,3.5033389925956726 0.45971788465976715,4.439830482006073 l1.2364701181650162,2.8390657901763916 1.9933539628982544,2.6857033371925354 l3.647671639919281,3.0063650012016296 4.457135498523712,2.13716983795166 l5.045954585075378,1.2225619703531265 5.815508961677551,0.4056500270962715 l6.95489227771759,-0.998745933175087 4.2187294363975525,-1.767091155052185 l2.7048271894454956,-1.9099707901477814 2.10052028298378,-2.356683164834976 l1.4890708029270172,-2.7964746952056885 0.7840795069932938,-3.073525130748749 l0.02999501535668969,-4.453732967376709 -0.9033425897359848,-2.841261327266693 l-1.6427282989025116,-2.5329172611236572 -3.2080626487731934,-2.7877962589263916 l-2.737264931201935,-1.3315106928348541 -3.06222140789032,-0.7007031887769699 l-3.133733868598938,-0.08239428512752056 -3.4686216711997986,0.8838839828968048 l-2.9298508167266846,1.7615579068660736 -0.12350892648100853,-4.621180593967438 l0.784049928188324,-5.274351239204407 " fill="none" stroke="black" stroke-width="1" /></svg>