<?xml version="1.0" encoding="utf-8" ?>
<svg baseProfile="full" height="1975.0" version="1.1" width="1830.0" xmlns="http://www.w3.org/2000/svg" xmlns:ev="http://www.w3.org/2001/xml-events" xmlns:xlink="http://www.w3.org/1999/xlink"><defs /><rect fill="white" height="1975.0" width="1830.0" x="0" y="0" /><path d="M980.0,700.0 m-30.0,-70.0 l-155.0,-145.0 -95.0,-45.0 l-110.0,0.0 -190.0,70.0 l-105.0,20.0 -85.0,50.0 l-130.0,150.0 -55.0,215.0 l0.0,180.0 20.0,50.0 l210.0,295.0 130.0,245.0 l95.0,105.0 140.0,80.0 l210.0,50.0 470.0,0.0 l90.0,-30.0 130.0,-200.0 l205.0,-205.0 80.0,-140.0 l0.0,-500.0 -60.0,-170.0 l-75.0,-125.0 -65.0,-65.0 l-145.0,-85.0 -150.0,0.0 l-340.0,210.0 5.0,-105.0 l70.0,-170.0 30.0,-120.0 l0.0,-110.0 -20.0,-30.0 l-10.0,-80.0 " fill="none" stroke="black" stroke-width="1" /></svg>