<?xml version="1.0" encoding="utf-8" ?>
<svg baseProfile="full" height="76.09771139919758" version="1.1" width="116.96589542552829" xmlns="http://www.w3.org/2000/svg" xmlns:ev="http://www.w3.org/2001/xml-events" xmlns:xlink="http://www.w3.org/1999/xlink"><defs /><rect fill="white" height="76.09771139919758" width="116.96589542552829" x="0" y="0" /><path d="M25,40.07485815323889 m8.715339303016663,4.353585243225098 l4.051292240619659,1.3123081624507904 10.333467721939087,1.7250150442123413 l7.105647325515747,0.4832877591252327 6.582231521606445,-0.029811980202794075 l8.313193917274475,-0.9374235570430756 8.161616921424866,-2.0885534584522247 l6.694875359535217,-2.9449424147605896 3.384014368057251,-2.4582432210445404 l1.541045606136322,-1.9333840906620026 0.7323366403579712,-2.098802328109741 l-0.0680204713717103,-3.006240129470825 -1.0736310482025146,-2.0038852095603943 l-2.054680734872818,-1.81650772690773 -2.8726428747177124,-1.497172862291336 l-5.40920615196228,-1.4405250549316406 -7.023515701293945,-0.6935623288154602 l-10.845732688903809,0.10117311030626297 -10.182255506515503,1.506878286600113 l-6.8347203731536865,1.9746673107147217 -7.63418436050415,3.4079569578170776 l-5.933102965354919,4.071337282657623 -1.8928109109401703,2.1835023164749146 l-0.5673445016145706,1.4456807076931 0.049895052798092365,1.408982276916504 l0.6509971618652344,1.089029386639595 1.8958933651447296,1.473299115896225 l3.0049103498458862,1.3678207993507385 5.301176309585571,1.6786518692970276 l12.48982310295105,2.9057571291923523 9.39705491065979,1.2052690982818604 l6.361725330352783,0.27770575135946274 5.5445897579193115,-0.3805156424641609 l5.218762159347534,-1.1129669100046158 4.625964462757111,-1.7102691531181335 l3.839106559753418,-2.3041926324367523 2.8942710161209106,-2.821652889251709 l1.8499906361103058,-3.249029219150543 0.6185226142406464,-2.714812159538269 l-0.010346026392653584,-2.3932744562625885 -1.2550486624240875,-2.8815406560897827 l-2.5634795427322388,-2.6006796956062317 -2.629435658454895,-1.5939408540725708 l-4.621203541755676,-1.4320439100265503 -6.00918173789978,-0.6379886716604233 l-6.4209818840026855,0.1656445860862732 -8.834441900253296,1.4714759588241577 l-8.681707382202148,2.524866461753845 -7.301052212715149,3.08669775724411 l-5.649006962776184,3.347005248069763 " fill="none" stroke="black" stroke-width="1" /></svg>