<?xml version="1.0" encoding="utf-8" ?>
<svg baseProfile="full" height="1450.0" version="1.1" width="3350.0" xmlns="http://www.w3.org/2000/svg" xmlns:ev="http://www.w3.org/2001/xml-events" xmlns:xlink="http://www.w3.org/1999/xlink"><defs /><rect fill="white" height="1450.0" width="3350.0" x="0" y="0" /><path d="M50.0,365.0 m430.0,215.0 l310.0,5.0 250.0,0.0 l260.0,-35.0 910.0,-30.0 l140.0,-25.0 285.0,5.0 l370.0,-120.0 85.0,-5.0 l160.0,105.0 75.0,330.0 l-30.0,55.0 -135.0,130.0 l-160.0,85.0 -180.0,30.0 l-625.0,15.0 -770.0,-115.0 l-350.0,-5.0 -325.0,-90.0 l-255.0,0.0 -50.0,60.0 l-170.0,105.0 -180.0,70.0 l-70.0,-275.0 0.0,-90.0 l50.0,-160.0 5.0,-210.0 l-25.0,-10.0 m905.0,150.0 l-235.0,-175.0 -505.0,-250.0 l-55.0,-40.0 -10.0,-50.0 l25.0,-15.0 145.0,0.0 l390.0,95.0 420.0,240.0 l250.0,120.0 195.0,70.0 m-625.0,420.0 l-75.0,45.0 -65.0,85.0 l-90.0,75.0 -290.0,235.0 l-25.0,5.0 25.0,10.0 l265.0,-85.0 520.0,-250.0 l405.0,-150.0 " fill="none" stroke="black" stroke-width="1" /></svg>