<?xml version="1.0" encoding="utf-8" ?>
<svg baseProfile="full" height="950.0" version="1.1" width="985.0" xmlns="http://www.w3.org/2000/svg" xmlns:ev="http://www.w3.org/2001/xml-events" xmlns:xlink="http://www.w3.org/1999/xlink"><defs /><rect fill="white" height="950.0" width="985.0" x="0" y="0" /><path d="M120.0,180.0 m445.0,5.0 l280.0,35.0 65.0,15.0 l45.0,40.0 -5.0,25.0 l-100.0,80.0 -85.0,35.0 l-80.0,15.0 -255.0,5.0 l-275.0,-75.0 -50.0,-45.0 l-20.0,-130.0 -10.0,250.0 l-50.0,195.0 0.0,140.0 l305.0,70.0 150.0,55.0 l380.0,30.0 40.0,-160.0 l15.0,-295.0 45.0,-145.0 m-885.0,190.0 l30.0,25.0 55.0,10.0 l510.0,40.0 215.0,35.0 m-690.0,-390.0 l60.0,-210.0 m55.0,0.0 l-25.0,235.0 -15.0,-70.0 " fill="none" stroke="black" stroke-width="1" /></svg>