<?xml version="1.0" encoding="utf-8" ?>
<svg baseProfile="full" height="73.87937992811203" version="1.1" width="71.35285265743732" xmlns="http://www.w3.org/2000/svg" xmlns:ev="http://www.w3.org/2001/xml-events" xmlns:xlink="http://www.w3.org/1999/xlink"><defs /><rect fill="white" height="73.87937992811203" width="71.35285265743732" x="0" y="0" /><path d="M27.98142045736313,31.540259532630444 m9.095911979675293,0.1768116094172001 l6.4944106340408325,-0.5187030136585236 1.795056015253067,0.08784638717770576 l0.6222554296255112,0.4450405016541481 0.3637981414794922,1.4640899002552032 l-0.16828369349241257,1.3135364651679993 -1.1227084696292877,1.5582554042339325 l-1.3897943496704102,0.9246744215488434 -3.9635786414146423,1.1387637257575989 l-7.034406065940857,0.37898678332567215 -4.004838168621063,-0.42054157704114914 l-2.3049724102020264,-0.8860958367586136 -0.9683101624250412,-0.8357512205839157 l-0.395960696041584,-1.160423383116722 0.2191884070634842,-1.172483041882515 l0.8970664441585541,-0.8769156783819199 2.271590530872345,-0.9105776995420456 l4.8768797516822815,-0.7275377959012985 m0.2616489492356777,5.498573184013367 l0.00655346317216754,6.877523064613342 0.05086398217827082,4.636699557304382 l0.5092793703079224,0.3473486378788948 7.601920962333679,-1.3492819666862488 l0.3824152797460556,-0.5099928379058838 -0.04256573040038347,-1.4262327551841736 l-1.6354289650917053,-5.806742906570435 -0.8005525916814804,-3.9618831872940063 m-5.150472521781921,-2.1033453941345215 l-0.032878105994313955,-5.151146650314331 -0.3157060593366623,-3.5707542300224304 l2.21092626452446,4.999342262744904 0.2376912161707878,2.0718419551849365 " fill="none" stroke="black" stroke-width="1" /></svg>