<?xml version="1.0" encoding="utf-8" ?>
<svg baseProfile="full" height="1775.0" version="1.1" width="1460.0" xmlns="http://www.w3.org/2000/svg" xmlns:ev="http://www.w3.org/2001/xml-events" xmlns:xlink="http://www.w3.org/1999/xlink"><defs /><rect fill="white" height="1775.0" width="1460.0" x="0" y="0" /><path d="M1210.0,610.0 m-155.0,-30.0 l-245.0,0.0 -190.0,55.0 l-260.0,145.0 -75.0,70.0 l-175.0,225.0 -75.0,150.0 l-10.0,190.0 15.0,55.0 l105.0,130.0 165.0,110.0 l105.0,25.0 115.0,15.0 l345.0,-15.0 100.0,-30.0 l130.0,-70.0 165.0,-130.0 l45.0,-55.0 80.0,-120.0 l40.0,-180.0 0.0,-325.0 l-35.0,-125.0 -50.0,-105.0 l-95.0,-105.0 -75.0,-30.0 l-150.0,-10.0 m-890.0,400.0 l0.0,-675.0 30.0,-85.0 l35.0,10.0 70.0,185.0 l65.0,255.0 60.0,165.0 l45.0,40.0 35.0,-30.0 m395.0,-105.0 l45.0,-45.0 80.0,-135.0 l150.0,-200.0 75.0,-145.0 l45.0,-60.0 25.0,5.0 l25.0,375.0 40.0,210.0 l55.0,145.0 m-725.0,120.0 l0.0,-25.0 -10.0,25.0 l20.0,10.0 " fill="none" stroke="black" stroke-width="1" /></svg>