<?xml version="1.0" encoding="utf-8" ?>
<svg baseProfile="full" height="78.50648019462824" version="1.1" width="78.39401569217443" xmlns="http://www.w3.org/2000/svg" xmlns:ev="http://www.w3.org/2001/xml-events" xmlns:xlink="http://www.w3.org/1999/xlink"><defs /><rect fill="white" height="78.50648019462824" width="78.39401569217443" x="0" y="0" /><path d="M47.791506573557854,27.04596335068345 m-3.1374797224998474,-0.5920311063528061 l-4.1806840896606445,-0.11298852041363716 -3.891662061214447,0.6857002526521683 l-3.7643858790397644,1.6984395682811737 -3.1657829880714417,2.459000051021576 l-2.3724988102912903,2.978528141975403 -1.5717613697052002,3.3497750759124756 l-0.7072516530752182,3.612319231033325 0.13944201171398163,3.3871790766716003 l1.1171861737966537,2.836522161960602 1.9781838357448578,2.463843673467636 l2.543090581893921,1.8465401232242584 4.070889353752136,1.4833201467990875 l4.42739337682724,0.3643689677119255 3.1954357028007507,-0.4171069338917732 l2.9836705327033997,-1.139778420329094 2.588045597076416,-1.7203086614608765 l2.1705281734466553,-2.2875744104385376 1.691036969423294,-2.759602665901184 l1.0504236072301865,-3.112456500530243 0.43868977576494217,-3.448345959186554 l-0.027705365791916847,-3.504680097103119 -0.6637882441282272,-2.7586251497268677 l-1.313188076019287,-2.6592957973480225 -1.711610108613968,-2.095647007226944 l-1.9786949455738068,-1.4622873067855835 -2.122422307729721,-0.8564251661300659 l-2.428819388151169,-0.2843461185693741 m-4.71992552280426,12.770363092422485 l-0.3441033139824867,0.4773007333278656 0.3014129213988781,0.8769681304693222 l0.7058228552341461,-0.12719233520328999 -0.005240816390141845,-1.1092060059309006 l-0.5077509209513664,-0.3352341428399086 -0.5578843504190445,0.2377176657319069 l-0.21441834047436714,0.8051231503486633 0.8655084669589996,-0.29869016259908676 l-0.11996000073850155,-0.3765113651752472 -0.20920975133776665,0.4303468391299248 l0.41042450815439224,-0.19603237509727478 -0.06019339431077242,-0.48045627772808075 l-0.22102104499936104,0.36208048462867737 0.28545621782541275,-0.027339092921465635 l0.13299377635121346,-0.44566959142684937 -0.2890782989561558,0.12698639184236526 l-0.008029600139707327,0.15360604040324688 0.45943234115839005,-0.5689702928066254 m-0.2837494760751724,-0.3196059539914131 l-0.03324376419186592,-7.923997640609741 -0.31392481178045273,-2.9006287455558777 " fill="none" stroke="black" stroke-width="1" /></svg>