<?xml version="1.0" encoding="utf-8" ?>
<svg baseProfile="full" height="87.85796593874693" version="1.1" width="87.37083126790822" xmlns="http://www.w3.org/2000/svg" xmlns:ev="http://www.w3.org/2001/xml-events" xmlns:xlink="http://www.w3.org/1999/xlink"><defs /><rect fill="white" height="87.85796593874693" width="87.37083126790822" x="0" y="0" /><path d="M48.296179473400116,26.691326312720776 m-4.618585109710693,-1.3298356533050537 l-3.840549886226654,-0.3614906594157219 -3.6301371455192566,0.5686165019869804 l-3.461470603942871,1.7042212188243866 -2.8300920128822327,2.4577216804027557 l-2.2775252163410187,3.226826786994934 -1.9574283063411713,5.168721675872803 l-0.6803911924362183,5.7571834325790405 0.4389442503452301,5.372280478477478 l1.1896291375160217,3.2899579405784607 2.6652559638023376,4.066945910453796 l2.5019314885139465,2.3532460629940033 4.222683608531952,2.397056818008423 l4.650744795799255,1.2874172627925873 4.98159795999527,0.20777016878128052 l4.485493004322052,-0.8332619071006775 3.160545825958252,-1.340426653623581 l2.8261667490005493,-1.928139328956604 2.3726291954517365,-2.4423086643218994 l1.853993684053421,-2.943721115589142 1.2839396297931671,-3.4152647852897644 l0.6439979374408722,-3.8076135516166687 0.09327803738415241,-3.7970253825187683 l-0.5318526178598404,-3.4762156009674072 -1.1870694905519485,-3.120812177658081 l-1.7444498836994171,-2.9712235927581787 -2.2372761368751526,-2.5375908613204956 l-3.549704849720001,-2.535075843334198 -2.9139581322669983,-1.314917504787445 l-3.0343076586723328,-0.781601071357727 -2.8788796067237854,-0.2359120175242424 l-2.3532387614250183,0.3033827431499958 m-1.478743553161621,3.895132839679718 l0.060221306048333645,5.378343462944031 0.0004262413131073117,8.040607571601868 m5.8703190088272095,-2.5050780177116394 l3.357459604740143,-0.4964471235871315 5.157530903816223,-0.3689121827483177 l1.4552617073059082,0.40213413536548615 0.7609625905752182,0.742933377623558 l0.2170356549322605,0.9831004589796066 -0.4426509141921997,1.7286594212055206 l-0.9866628050804138,1.2708747386932373 -1.9101302325725555,1.2983250617980957 " fill="none" stroke="black" stroke-width="1" /></svg>