<?xml version="1.0" encoding="utf-8" ?>
<svg baseProfile="full" height="2740.0" version="1.1" width="2175.0" xmlns="http://www.w3.org/2000/svg" xmlns:ev="http://www.w3.org/2001/xml-events" xmlns:xlink="http://www.w3.org/1999/xlink"><defs /><rect fill="white" height="2740.0" width="2175.0" x="0" y="0" /><path d="M1090.0,905.0 m-240.0,-65.0 l-190.0,0.0 -345.0,80.0 l-50.0,45.0 -105.0,225.0 l-110.0,150.0 -25.0,450.0 l0.0,165.0 10.0,50.0 l110.0,155.0 100.0,185.0 l90.0,70.0 70.0,20.0 l145.0,90.0 145.0,120.0 l285.0,60.0 385.0,10.0 l310.0,-90.0 125.0,-100.0 l190.0,-225.0 160.0,-430.0 l-45.0,-585.0 -180.0,-185.0 l-50.0,-40.0 -140.0,-60.0 l-370.0,-105.0 -320.0,-20.0 l-10.0,-25.0 25.0,-225.0 l45.0,-140.0 30.0,-30.0 l150.0,-70.0 150.0,-140.0 l70.0,-30.0 190.0,-25.0 m-520.0,210.0 l-60.0,-85.0 -90.0,-85.0 l-65.0,-205.0 -30.0,65.0 l-50.0,45.0 -10.0,40.0 l-10.0,205.0 " fill="none" stroke="black" stroke-width="1" /></svg>