<?xml version="1.0" encoding="utf-8" ?>
<svg baseProfile="full" height="69.43281242623925" version="1.1" width="68.7003341417585" xmlns="http://www.w3.org/2000/svg" xmlns:ev="http://www.w3.org/2001/xml-events" xmlns:xlink="http://www.w3.org/1999/xlink"><defs /><rect fill="white" height="69.43281242623925" width="68.7003341417585" x="0" y="0" /><path d="M31.99126899242401,30.388154709144146 m-0.5051154643297195,-0.41860751807689667 l-1.7531810700893402,-0.3727872669696808 -1.3876278698444366,0.2813180908560753 l-2.2561150789260864,2.0629531145095825 -0.3580246865749359,1.2905032932758331 l2.1367844939231873,1.4577695727348328 1.4440542459487915,0.34432902932167053 l-3.763236403465271,3.542580306529999 -0.5488071590662003,1.7804262042045593 l0.15289458446204662,1.3741229474544525 0.7877014577388763,1.052783653140068 l1.949826180934906,1.0784604400396347 2.502032518386841,0.0003874561662087217 l1.484781950712204,-0.7315284758806229 0.8904032409191132,-1.0376013815402985 m0.7832035422325134,-13.397378921508789 l-0.2653628773987293,1.2373532354831696 -0.28913212940096855,5.6378209590911865 l-0.05628420040011406,5.134986639022827 0.3511335328221321,3.0439990758895874 l0.36327991634607315,0.6824071705341339 0.5798036977648735,0.0003600928175728768 l1.0432063788175583,-1.2195251137018204 0.6871356815099716,-2.073885202407837 l0.41495077311992645,-3.959072232246399 -9.331779438070953e-05,-4.95785266160965 l-0.7509565353393555,-3.902762234210968 -0.6325805187225342,-0.7874475419521332 l-1.069757416844368,0.2066311240196228 m2.650521397590637,2.342025190591812 l1.2348340451717377,-1.6841499507427216 1.630081981420517,-1.0628876090049744 l1.6014973819255829,-0.35694580525159836 1.1992911249399185,0.29519567266106606 l1.0614514350891113,1.3142354786396027 0.3964703157544136,2.187638580799103 l-0.7485221326351166,2.386808842420578 -1.7909345030784607,1.8170735239982605 l-2.329854369163513,1.0854873061180115 2.574493885040283,0.6052270904183388 l0.950317457318306,0.7085580378770828 0.8654266595840454,1.5917937457561493 l0.16688110306859016,2.07614928483963 -0.4725011810660362,1.2019169330596924 l-1.5563684701919556,1.1680548638105392 -1.5155121684074402,0.3723518177866936 l-2.1196775138378143,-0.3386801481246948 -0.5968478322029114,-0.6102192774415016 m-3.1711220741271973,-14.34762716293335 l-0.6954522430896759,-1.4726360142230988 -1.0140535235404968,-1.3004101812839508 l-1.0687422007322311,-0.5956383422017097 m3.909255862236023,3.5940057039260864 l-0.08142245002090931,-1.094801127910614 0.6082576885819435,-1.313173919916153 l1.0201028734445572,-0.945153534412384 1.0865387320518494,-0.36309756338596344 l0.8561178296804428,0.21043483167886734 0.6427855044603348,1.0167581588029861 " fill="none" stroke="black" stroke-width="1" /></svg>