<?xml version="1.0" encoding="utf-8" ?>
<svg baseProfile="full" height="1160.0" version="1.1" width="1015.0" xmlns="http://www.w3.org/2000/svg" xmlns:ev="http://www.w3.org/2001/xml-events" xmlns:xlink="http://www.w3.org/1999/xlink"><defs /><rect fill="white" height="1160.0" width="1015.0" x="0" y="0" /><path d="M375.0,355.0 m-25.0,-20.0 l-90.0,-20.0 -85.0,0.0 l-90.0,60.0 -15.0,155.0 l50.0,35.0 135.0,35.0 l-100.0,35.0 -120.0,105.0 l-10.0,175.0 35.0,70.0 l85.0,35.0 165.0,0.0 l95.0,-45.0 10.0,-25.0 m-40.0,-620.0 l-20.0,220.0 15.0,425.0 l30.0,135.0 30.0,25.0 l25.0,0.0 35.0,-25.0 l30.0,-70.0 35.0,-185.0 l15.0,-200.0 -10.0,-365.0 l-40.0,-60.0 -85.0,-20.0 l-20.0,25.0 -25.0,150.0 m175.0,60.0 l175.0,-80.0 75.0,-10.0 l5.0,90.0 -20.0,50.0 l-45.0,60.0 -135.0,100.0 l135.0,-40.0 165.0,-5.0 l50.0,50.0 20.0,115.0 l-5.0,25.0 -95.0,75.0 l-110.0,55.0 -110.0,30.0 l-100.0,0.0 -15.0,-90.0 m-140.0,-680.0 l-30.0,-105.0 -35.0,-35.0 l-70.0,-25.0 -60.0,0.0 l-25.0,20.0 -30.0,40.0 l-5.0,80.0 m285.0,35.0 l60.0,-80.0 105.0,-70.0 l60.0,-10.0 15.0,50.0 " fill="none" stroke="black" stroke-width="1" /></svg>