<?xml version="1.0" encoding="utf-8" ?>
<svg baseProfile="full" height="77.60657370090485" version="1.1" width="81.76085129558487" xmlns="http://www.w3.org/2000/svg" xmlns:ev="http://www.w3.org/2001/xml-events" xmlns:xlink="http://www.w3.org/1999/xlink"><defs /><rect fill="white" height="77.60657370090485" width="81.76085129558487" x="0" y="0" /><path d="M42.261951826512814,26.172771949568414 m-1.2719660997390747,-0.4018917679786682 l-3.99649977684021,0.0005589065767708234 -2.9835429787635803,0.5370466783642769 l-2.1338023245334625,0.8064679801464081 -2.4182280898094177,1.540047824382782 l-1.5764380991458893,1.613261103630066 -2.3485520482063293,4.333321154117584 l-0.5329224094748497,4.332947731018066 0.6226075068116188,4.302420914173126 l1.8229199945926666,3.614627718925476 1.0431037098169327,1.2875251471996307 l3.3194178342819214,2.3551899194717407 1.5740257501602173,0.6077003479003906 l6.524116396903992,0.996217280626297 3.0113431811332703,0.5079586431384087 l3.1694722175598145,0.0004021696440759115 2.171304225921631,-0.5908204615116119 l3.119203746318817,-1.8846376240253448 2.8781646490097046,-3.2292690873146057 l1.5165619552135468,-3.0003908276557922 0.9885197877883911,-4.701963663101196 l9.034007234731689e-05,-5.007659196853638 -1.6546531021595001,-3.7136587500572205 l-2.6652926206588745,-2.903875410556793 -2.2866789996623993,-1.4587831497192383 l-3.516668677330017,-1.1155155301094055 -3.5540395975112915,0.0007523861131630838 l-2.158665955066681,0.8300518244504929 m-1.535549908876419,2.5211352109909058 l-0.031001567840576172,3.052707314491272 0.21039268001914024,3.5274025797843933 m2.511061429977417,-5.801814794540405 l0.9694821387529373,-0.39188191294670105 0.8811420202255249,0.16898032277822495 l1.5232044458389282,3.2543811202049255 -0.32309141010046005,2.243076264858246 m-1.865699589252472,6.418473720550537 l-0.5772921442985535,2.529282867908478 -0.7601058483123779,2.915809750556946 l4.746516048908234,-0.2528492175042629 " fill="none" stroke="black" stroke-width="1" /></svg>