<?xml version="1.0" encoding="utf-8" ?>
<svg baseProfile="full" height="1455.0" version="1.1" width="1645.0" xmlns="http://www.w3.org/2000/svg" xmlns:ev="http://www.w3.org/2001/xml-events" xmlns:xlink="http://www.w3.org/1999/xlink"><defs /><rect fill="white" height="1455.0" width="1645.0" x="0" y="0" /><path d="M1005.0,50.0 m-60.0,-25.0 l-215.0,0.0 -130.0,25.0 l-105.0,40.0 -40.0,0.0 l-220.0,110.0 -135.0,120.0 l-65.0,110.0 -10.0,345.0 l40.0,150.0 80.0,205.0 l50.0,80.0 120.0,135.0 l145.0,60.0 160.0,25.0 l410.0,0.0 60.0,-15.0 l125.0,-65.0 205.0,-160.0 l75.0,-125.0 65.0,-150.0 l55.0,-315.0 5.0,-165.0 l-15.0,-75.0 -55.0,-130.0 l-40.0,-55.0 -180.0,-125.0 l-195.0,-10.0 m-335.0,150.0 l-15.0,55.0 -15.0,525.0 l90.0,30.0 275.0,-10.0 l125.0,30.0 m155.0,-60.0 l-15.0,25.0 25.0,-5.0 m-580.0,-620.0 l0.0,-30.0 -40.0,-55.0 " fill="none" stroke="black" stroke-width="1" /></svg>