<?xml version="1.0" encoding="utf-8" ?>
<svg baseProfile="full" height="90.48605021089315" version="1.1" width="92.91889786720276" xmlns="http://www.w3.org/2000/svg" xmlns:ev="http://www.w3.org/2001/xml-events" xmlns:xlink="http://www.w3.org/1999/xlink"><defs /><rect fill="white" height="90.48605021089315" width="92.91889786720276" x="0" y="0" /><path d="M25.079479413107038,40.33380909182597 m-0.07947941310703754,4.075751900672913 l1.1212937533855438,4.632091224193573 2.4670392274856567,5.951821208000183 l2.1923430263996124,3.065848648548126 3.591262698173523,3.2571566104888916 l3.1683120131492615,1.8569570779800415 4.503992199897766,1.6479717195034027 l3.5756728053092957,0.6640651077032089 3.6527007818222046,0.0005776219768449664 l3.1055793166160583,-0.6155784800648689 2.9685571789741516,-1.2295350432395935 l2.745889723300934,-1.7570222914218903 2.525399625301361,-2.357446104288101 l3.2734352350234985,-4.44513738155365 1.886480301618576,-3.809386193752289 l1.5629543364048004,-5.6259602308273315 0.5779856443405151,-5.890148282051086 l-0.7119804620742798,-7.4949222803115845 -1.8565274775028229,-4.713800847530365 l-1.1849551647901535,-1.24767504632473 -2.61891633272171,-1.0432890802621841 l-3.770572543144226,-0.25614894926548004 -4.463474750518799,1.0195959359407425 l-4.754729270935059,2.398359179496765 -4.193742573261261,3.395738899707794 l-3.0082550644874573,3.9741715788841248 -2.0978108048439026,1.4708450436592102 l-4.917501509189606,0.6630570441484451 -2.3158226907253265,-0.19098926335573196 l-1.8314355611801147,-0.6773629784584045 -1.8766555190086365,-0.8303887397050858 l-0.5802479758858681,-0.19489871338009834 m14.972654581069946,13.97229790687561 l-0.28937555849552155,4.504543244838715 -0.27340302243828773,2.6282867789268494 l-0.17762597650289536,0.7635696232318878 -0.8393728733062744,0.3921106457710266 l-5.046800971031189,-0.6168971955776215 -1.2439887970685959,-1.2981927394866943 m11.55030608177185,-5.074136853218079 l1.0398728400468826,3.7562501430511475 1.4090724289417267,2.83223420381546 l1.1725504696369171,1.0352655500173569 1.825367957353592,0.0004327140050008893 l1.2811709940433502,-0.9462719410657883 m-8.804943561553955,-12.123997211456299 l0.3525380417704582,1.4853756129741669 m3.241163492202759,-1.0777142643928528 l0.18146051093935966,1.5672405064105988 m-4.289765655994415,-0.3239709883928299 l0.1836291141808033,1.4894448220729828 0.046826950274407864,0.6302865594625473 l-0.04150255583226681,0.331474207341671 -0.047022183425724506,-0.23118851706385612 l0.17418257892131805,-1.0938066989183426 -0.06563602015376091,-0.15173230320215225 l-0.10812156833708286,0.5016915500164032 -0.19132081419229507,-0.2751579135656357 l-0.08655410259962082,-0.20616652444005013 m1.2375935167074203,-0.8632916957139969 l5.088348388671875,-2.8185829520225525 3.5721662640571594,-2.013864666223526 l3.5368412733078003,-1.5154464542865753 m-10.499340295791626,7.330374717712402 l5.452902317047119,-0.47762520611286163 5.185152888298035,-0.48734918236732483 m-10.241950750350952,2.6770713925361633 l5.9488749504089355,1.0484114289283752 4.698207676410675,0.799420177936554 m-17.851561307907104,-4.3802061676979065 l-6.670785546302795,-0.7664429396390915 -3.3640098571777344,-0.09573099203407764 m10.278699398040771,2.787618935108185 l-6.075519919395447,1.5503929555416107 -3.2215294241905212,1.4619271457195282 m9.823381304740906,-0.9880860894918442 l-3.2429584860801697,1.3257886469364166 -2.6570293307304382,1.8264128267765045 l-2.227027118206024,2.330920398235321 m9.829322099685669,-14.623528718948364 l-1.2741774320602417,-0.0787690281867981 m6.891565322875977,-0.5490567535161972 l2.6448301468917634e-05,0.0006625512469327077 " fill="none" stroke="black" stroke-width="1" /></svg>