<?xml version="1.0" encoding="utf-8" ?>
<svg baseProfile="full" height="2170.0" version="1.1" width="2305.0" xmlns="http://www.w3.org/2000/svg" xmlns:ev="http://www.w3.org/2001/xml-events" xmlns:xlink="http://www.w3.org/1999/xlink"><defs /><rect fill="white" height="2170.0" width="2305.0" x="0" y="0" /><path d="M45.0,870.0 m0.0,200.0 l50.0,245.0 100.0,245.0 l120.0,190.0 215.0,175.0 l210.0,130.0 160.0,65.0 l155.0,25.0 180.0,0.0 l300.0,-40.0 200.0,-80.0 l135.0,-100.0 110.0,-120.0 l120.0,-210.0 160.0,-520.0 l20.0,-105.0 0.0,-120.0 l-65.0,-220.0 25.0,-285.0 l0.0,-160.0 -55.0,-160.0 l-80.0,35.0 -80.0,55.0 l-465.0,390.0 -210.0,235.0 l-50.0,5.0 -175.0,-20.0 l-300.0,0.0 -45.0,-15.0 l-535.0,-575.0 -115.0,-65.0 l-100.0,285.0 -5.0,60.0 l0.0,320.0 25.0,115.0 m940.0,550.0 l125.0,-10.0 180.0,-45.0 m-300.0,0.0 l65.0,95.0 85.0,165.0 l25.0,20.0 60.0,-45.0 l45.0,-205.0 m-65.0,245.0 l-5.0,95.0 25.0,140.0 l35.0,10.0 150.0,-105.0 l115.0,-115.0 30.0,-60.0 m-255.0,40.0 l-55.0,75.0 0.0,70.0 l-20.0,75.0 m-90.0,-170.0 l-25.0,0.0 m60.0,-100.0 l20.0,220.0 -40.0,150.0 l-25.0,45.0 -30.0,20.0 l-120.0,-15.0 -150.0,-75.0 l-60.0,-70.0 m590.0,-480.0 l190.0,-80.0 220.0,-40.0 m-845.0,145.0 l-120.0,30.0 -280.0,120.0 m350.0,85.0 l-235.0,105.0 m680.0,-220.0 l60.0,25.0 100.0,10.0 l250.0,-10.0 m-320.0,-140.0 l220.0,95.0 m-850.0,65.0 l0.0,0.0 m280.0,-125.0 l-160.0,60.0 -205.0,105.0 " fill="none" stroke="black" stroke-width="1" /></svg>