<?xml version="1.0" encoding="utf-8" ?>
<svg baseProfile="full" height="109.9276078864932" version="1.1" width="92.14983164332807" xmlns="http://www.w3.org/2000/svg" xmlns:ev="http://www.w3.org/2001/xml-events" xmlns:xlink="http://www.w3.org/1999/xlink"><defs /><rect fill="white" height="109.9276078864932" width="92.14983164332807" x="0" y="0" /><path d="M38.652235167101026,42.14346885681152 m-0.6390964984893799,-4.122040271759033 l-1.1909909546375275,-2.6288586854934692 -1.4686527848243713,-1.7645065486431122 l-1.8209552764892578,-1.134684532880783 -2.2244608402252197,-0.49870945513248444 l-2.156682461500168,0.267721451818943 -1.4002178609371185,0.9019651263952255 l-1.6893908381462097,2.4671219289302826 -0.9508609771728516,3.2805222272872925 l-0.1109266746789217,3.5702458024024963 1.0988646000623703,4.484898149967194 l4.8511722683906555,9.036954641342163 3.8916948437690735,3.9179006218910217 l2.2418928146362305,3.2953307032585144 0.9218490868806839,3.631126284599304 l-0.3053057938814163,5.080779790878296 -1.3707095384597778,4.946986138820648 l-0.2613190747797489,2.401456981897354 0.23723220452666283,2.4116572737693787 l0.9010899811983109,1.6710205376148224 1.4742298424243927,1.1205042153596878 l2.0564715564250946,0.4467466473579407 2.4722540378570557,-0.20969681441783905 l2.360248565673828,-1.261885166168213 2.0575205981731415,-2.142139822244644 l1.6542159020900726,-3.020998537540436 0.9147647768259048,-3.4881454706192017 l0.3431928902864456,-5.069461464881897 -0.5471190810203552,-5.114414691925049 l-1.4270584285259247,-4.639481604099274 -0.6729709357023239,-4.889093637466431 l-0.3038073517382145,-5.705550909042358 -0.14970234595239162,-6.388528347015381 l-0.2395188994705677,-5.478506088256836 -0.46137016266584396,-4.5156461000442505 l-0.4904678463935852,-3.217623233795166 -0.49413781613111496,-1.8696494400501251 l-0.776238813996315,-1.4061714708805084 -1.1932211369276047,-1.0256096720695496 l-1.8826322257518768,-0.4850054159760475 -1.6103984415531158,0.23260431364178658 l-1.2526248395442963,0.9099633991718292 -1.3831283152103424,2.3888446390628815 l-0.8119915425777435,3.2851698994636536 -0.292265173047781,5.228700637817383 l0.5930039286613464,4.896372556686401 2.969229221343994,11.55319333076477 l3.3006441593170166,10.552232265472412 3.517136871814728,8.216134905815125 l2.1133194863796234,3.612193465232849 1.0662035644054413,0.9147732704877853 l1.3817818462848663,0.3453533351421356 1.6726364195346832,-0.543399341404438 l1.2607890367507935,-1.3921642303466797 1.1199067533016205,-2.9539215564727783 l0.43982405215501785,-3.837423026561737 -0.10752398520708084,-4.072937965393066 l-1.1017642170190811,-5.47814667224884 -2.7357670664787292,-7.206946015357971 l-4.383085072040558,-9.784576296806335 -2.26454958319664,-3.8677367568016052 l-2.103545218706131,-2.6159214973449707 -2.1262508630752563,-1.885150969028473 l-1.6838893294334412,-0.9481729567050934 -1.7987458407878876,-0.40936071425676346 l-1.609835922718048,0.30592523515224457 -0.9735152870416641,0.78635573387146 m8.861426711082458,2.2977085411548615 l0.48698462545871735,-1.500914841890335 2.6726549863815308,-3.169170916080475 l3.5087820887565613,-2.7194005250930786 3.9877870678901672,-1.8700654804706573 l4.182216823101044,-0.9391489624977112 2.806534767150879,-0.04883864428848028 l1.9644936919212341,0.6438829004764557 1.9194623827934265,1.5057139098644257 l1.2535105645656586,2.143242657184601 0.4092687740921974,2.7390864491462708 l-0.44393714517354965,2.928931713104248 -1.4718253910541534,2.8319865465164185 l-3.2492265105247498,3.742581009864807 -5.654783844947815,4.102282822132111 l1.6811969876289368,0.5389920994639397 2.395685464143753,1.257353127002716 l1.9784197211265564,1.7658773064613342 1.8650245666503906,3.268684148788452 l0.7768934965133667,4.012548327445984 -0.38565661758184433,3.7986785173416138 " fill="none" stroke="black" stroke-width="1" /></svg>