<?xml version="1.0" encoding="utf-8" ?>
<svg baseProfile="full" height="2435.0" version="1.1" width="3450.0" xmlns="http://www.w3.org/2000/svg" xmlns:ev="http://www.w3.org/2001/xml-events" xmlns:xlink="http://www.w3.org/1999/xlink"><defs /><rect fill="white" height="2435.0" width="3450.0" x="0" y="0" /><path d="M585.0,1080.0 m-35.0,-205.0 l-30.0,-70.0 -45.0,-55.0 l-95.0,-60.0 -120.0,-5.0 l-65.0,35.0 -135.0,150.0 l-35.0,135.0 5.0,175.0 l80.0,165.0 15.0,115.0 l50.0,165.0 15.0,145.0 l175.0,90.0 130.0,35.0 l170.0,10.0 70.0,-60.0 l40.0,-85.0 15.0,-75.0 l0.0,-180.0 -45.0,-115.0 l-30.0,-175.0 290.0,65.0 l345.0,0.0 170.0,55.0 l185.0,35.0 265.0,0.0 l45.0,-15.0 m-1460.0,-375.0 l325.0,-10.0 365.0,45.0 l350.0,5.0 120.0,25.0 l240.0,0.0 585.0,-60.0 l225.0,0.0 455.0,75.0 l180.0,60.0 25.0,50.0 l0.0,55.0 -45.0,85.0 l-70.0,50.0 -60.0,15.0 l-275.0,45.0 -200.0,5.0 l-350.0,-75.0 -145.0,-15.0 l-265.0,5.0 m-445.0,-380.0 l-25.0,-90.0 0.0,-345.0 l-15.0,-70.0 -50.0,-110.0 l-135.0,-175.0 -35.0,-80.0 m610.0,960.0 l15.0,-75.0 -110.0,-425.0 l-150.0,-405.0 -75.0,-75.0 l-135.0,-45.0 -135.0,0.0 l-15.0,75.0 m605.0,1165.0 l-30.0,680.0 -35.0,195.0 l-65.0,80.0 -160.0,125.0 l-95.0,50.0 -85.0,15.0 l-30.0,-5.0 -45.0,-60.0 l-25.0,-75.0 0.0,-60.0 l75.0,-275.0 45.0,-345.0 l95.0,-285.0 45.0,-70.0 m1405.0,-160.0 l-5.0,150.0 m0.0,-5.0 l20.0,50.0 10.0,150.0 " fill="none" stroke="black" stroke-width="1" /></svg>