<?xml version="1.0" encoding="utf-8" ?>
<svg baseProfile="full" height="1325.0" version="1.1" width="1630.0" xmlns="http://www.w3.org/2000/svg" xmlns:ev="http://www.w3.org/2001/xml-events" xmlns:xlink="http://www.w3.org/1999/xlink"><defs /><rect fill="white" height="1325.0" width="1630.0" x="0" y="0" /><path d="M555.0,300.0 m-10.0,825.0 l25.0,90.0 25.0,30.0 l55.0,10.0 80.0,0.0 l25.0,-20.0 40.0,-50.0 l50.0,-155.0 10.0,-675.0 l-20.0,-75.0 -60.0,-55.0 l-120.0,-5.0 -30.0,20.0 l-30.0,65.0 m275.0,-40.0 l25.0,-70.0 145.0,-110.0 l215.0,-60.0 90.0,0.0 l75.0,25.0 55.0,45.0 l45.0,80.0 -5.0,115.0 l-85.0,75.0 -230.0,150.0 l35.0,15.0 165.0,0.0 l50.0,15.0 100.0,70.0 l50.0,100.0 5.0,150.0 l-45.0,70.0 -155.0,115.0 l-215.0,95.0 -150.0,40.0 l-115.0,10.0 -30.0,-15.0 l-115.0,-145.0 m-220.0,-680.0 l-40.0,-15.0 -110.0,-175.0 l-120.0,-85.0 -135.0,-15.0 l-55.0,25.0 -45.0,50.0 l-30.0,90.0 0.0,110.0 l15.0,100.0 45.0,65.0 l225.0,95.0 125.0,15.0 l-40.0,-5.0 -110.0,40.0 l-120.0,60.0 -50.0,45.0 l-30.0,90.0 5.0,245.0 l95.0,115.0 125.0,65.0 l115.0,30.0 175.0,-20.0 l155.0,-70.0 25.0,-25.0 " fill="none" stroke="black" stroke-width="1" /></svg>