<?xml version="1.0" encoding="utf-8" ?>
<svg baseProfile="full" height="75.10698768659495" version="1.1" width="85.7029614970088" xmlns="http://www.w3.org/2000/svg" xmlns:ev="http://www.w3.org/2001/xml-events" xmlns:xlink="http://www.w3.org/1999/xlink"><defs /><rect fill="white" height="75.10698768659495" width="85.7029614970088" x="0" y="0" /><path d="M41.35122623294592,29.732808837434277 m-0.39150621742010117,15.601484775543213 l0.358116514980793,2.656823694705963 0.5989678204059601,1.4241880178451538 l0.7647076994180679,0.6300026923418045 1.0021589696407318,0.061679668724536896 l1.1120997369289398,-0.9308940917253494 0.8890809863805771,-2.330459803342819 l0.4262836277484894,-3.5213428735733032 -0.04789315164089203,-5.3731876611709595 l-1.4324334263801575,-6.985287070274353 -0.9017424285411835,-1.7310018837451935 l-1.2919262051582336,-0.9629487246274948 -1.1018934100866318,-0.05231412127614021 l-0.7494377344846725,0.45940782874822617 -0.6149334833025932,1.0212638974189758 m4.535249471664429,0.9599698334932327 l0.8644526451826096,-1.362549215555191 2.2635897994041443,-1.8708330392837524 l3.368183970451355,-1.6580767929553986 3.446355164051056,-0.7508028298616409 l3.156764507293701,-0.017931138863787055 1.6543467342853546,0.6781887263059616 l1.0876443982124329,1.3732582330703735 0.3554992750287056,2.1761082112789154 l-0.5327017605304718,2.3440125584602356 -1.5963105857372284,2.3566819727420807 l-3.2448649406433105,2.8220394253730774 1.8188118934631348,0.7863529771566391 l1.7464232444763184,1.2921759486198425 1.259412169456482,1.900772899389267 l0.5157835781574249,2.366267144680023 -0.16887344419956207,2.297409027814865 l-1.063207983970642,1.9416838884353638 -1.7604663968086243,1.5188181400299072 l-2.413920909166336,0.9592780470848083 -2.83633291721344,0.27365777641534805 l-2.6557809114456177,-0.4220467060804367 -2.3275084793567657,-1.0973979532718658 l-1.7123666405677795,-1.5598443150520325 m-6.435776948928833,-16.054965257644653 l-1.5015162527561188,-1.9996452331542969 -1.8095725774765015,-1.463308185338974 l-2.2091789543628693,-1.0082492232322693 -2.4118109047412872,-0.3900814428925514 l-2.4050424993038177,0.3131489083170891 -2.115546613931656,1.2571440637111664 l-1.3885080814361572,1.9457773864269257 -0.45410457998514175,2.3957519233226776 l0.2412506751716137,1.4470243453979492 1.210019364953041,1.6307725012302399 l1.9425462186336517,1.3245503604412079 2.53230482339859,0.8601953089237213 l3.657175600528717,0.20141888409852982 -3.826690912246704,2.462659478187561 l-1.747029572725296,2.3893913626670837 -0.5333402752876282,2.413751631975174 l0.2601576969027519,2.327781915664673 0.6880732625722885,1.114427000284195 l1.0967619717121124,0.8352233469486237 2.089996635913849,0.5476719886064529 l2.800579071044922,-0.15047752298414707 3.302602171897888,-1.5053412318229675 l1.9304519891738892,-1.7131011188030243 " fill="none" stroke="black" stroke-width="1" /></svg>