<?xml version="1.0" encoding="utf-8" ?>
<svg baseProfile="full" height="2080.0" version="1.1" width="2255.0" xmlns="http://www.w3.org/2000/svg" xmlns:ev="http://www.w3.org/2001/xml-events" xmlns:xlink="http://www.w3.org/1999/xlink"><defs /><rect fill="white" height="2080.0" width="2255.0" x="0" y="0" /><path d="M1025.0,350.0 m-45.0,-45.0 l-35.0,115.0 -80.0,585.0 l-5.0,780.0 35.0,180.0 l40.0,55.0 45.0,30.0 l145.0,5.0 75.0,-25.0 l135.0,-115.0 90.0,-165.0 l60.0,-240.0 15.0,-355.0 l-10.0,-80.0 -120.0,-420.0 l-90.0,-190.0 -45.0,-65.0 l-45.0,-35.0 -105.0,-30.0 l-65.0,45.0 -30.0,50.0 m-15.0,-50.0 l-35.0,-25.0 -65.0,-110.0 l-130.0,-150.0 m0.0,0.0 l-10.0,30.0 30.0,5.0 l0.0,-30.0 -15.0,-5.0 m375.0,200.0 l20.0,-35.0 175.0,-155.0 m40.0,-75.0 l-35.0,-5.0 -30.0,40.0 l-5.0,65.0 50.0,20.0 l10.0,-85.0 -35.0,-25.0 l-30.0,0.0 -5.0,15.0 m-385.0,565.0 l-100.0,-70.0 -130.0,-50.0 l-140.0,-15.0 -160.0,5.0 l-85.0,30.0 -170.0,125.0 l-55.0,85.0 -25.0,65.0 l-5.0,70.0 5.0,75.0 l35.0,65.0 105.0,90.0 l65.0,30.0 70.0,20.0 l295.0,10.0 110.0,-40.0 l-60.0,0.0 -245.0,95.0 l-130.0,80.0 -110.0,110.0 l-55.0,105.0 -5.0,165.0 l45.0,100.0 75.0,110.0 l145.0,115.0 130.0,20.0 l140.0,-15.0 220.0,-95.0 m600.0,-1285.0 l-5.0,-60.0 50.0,-70.0 l55.0,-50.0 115.0,-65.0 l135.0,-30.0 130.0,0.0 l55.0,15.0 45.0,40.0 l25.0,60.0 5.0,70.0 l0.0,85.0 -25.0,80.0 l-110.0,160.0 -245.0,230.0 l175.0,-25.0 215.0,0.0 l100.0,75.0 35.0,70.0 l15.0,160.0 -15.0,90.0 l-50.0,105.0 -110.0,155.0 l-120.0,100.0 -135.0,30.0 l-155.0,-10.0 -120.0,-45.0 l-125.0,-90.0 " fill="none" stroke="black" stroke-width="1" /></svg>