<?xml version="1.0" encoding="utf-8" ?>
<svg baseProfile="full" height="88.12348692677915" version="1.1" width="65.53594592958689" xmlns="http://www.w3.org/2000/svg" xmlns:ev="http://www.w3.org/2001/xml-events" xmlns:xlink="http://www.w3.org/1999/xlink"><defs /><rect fill="white" height="88.12348692677915" width="65.53594592958689" x="0" y="0" /><path d="M31.181483790278435,28.895708480849862 m-0.8511324971914291,-0.8855082839727402 l-1.7789798974990845,0.16430800780653954 -3.551371395587921,10.817890167236328 l1.3224196434020996,12.365128993988037 1.64136603474617,5.22172212600708 l1.4046944677829742,2.98313707113266 1.4351464807987213,1.9724264740943909 l1.5041029453277588,1.1389122903347015 1.6783730685710907,0.44976159930229187 l1.8285201489925385,-0.2886092849075794 1.6289746761322021,-1.4876215159893036 l1.3817696273326874,-2.566034495830536 1.0327065736055374,-3.5961100459098816 l0.5409630388021469,-4.02665376663208 0.13690922409296036,-5.701002478599548 l-0.633794367313385,-5.538161396980286 -1.5003560483455658,-5.054457187652588 l-1.9850857555866241,-4.224977493286133 -1.6138997673988342,-2.0288214087486267 l-1.8034286797046661,-1.1942090094089508 -2.0992274582386017,-0.4133320227265358 l-1.4588682353496552,0.1564921997487545 -0.9590177983045578,0.6918726116418839 m2.739914059638977,4.260419011116028 l-0.36053311079740524,-0.18050175160169601 -0.15112778171896935,-0.6540089845657349 l-0.03677545813843608,-2.048994153738022 0.4596610367298126,-1.679048240184784 l1.1073943227529526,-1.5070872008800507 1.650237888097763,-0.9107834845781326 l1.9810496270656586,-0.13185682706534863 1.490473598241806,0.6696430593729019 l0.8295143395662308,0.9615770727396011 0.550655759871006,1.8712037801742554 l-0.0498124398291111,2.2244010865688324 -0.79325370490551,1.9167929887771606 l-1.378990262746811,1.610754281282425 -1.6948257386684418,0.9795296937227249 l-2.004043608903885,0.28427520766854286 -1.2898190319538116,-0.2786065824329853 l-1.451829969882965,-1.3840042054653168 -0.6439437717199326,-1.355290710926056 l-0.13645052909851074,-1.8376369774341583 0.3185197710990906,-1.258067935705185 l1.2468799203634262,-1.415284425020218 2.0290011167526245,-0.7921420037746429 l2.0987434685230255,0.09232187643647194 1.0557150840759277,0.7044430822134018 l0.6589128077030182,1.1020337790250778 0.34471120685338974,2.0958006381988525 l-0.2669234946370125,1.9347810745239258 -0.961020365357399,1.804870218038559 l-1.3452889025211334,1.2916851043701172 -1.6872267425060272,0.7447672635316849 l-1.9122123718261719,0.06335313897579908 -1.1405882984399796,-0.6176287308335304 l-0.8893818408250809,-1.2890556454658508 -0.4334618151187897,-1.602160632610321 l-0.05024314858019352,-1.725955307483673 0.7165961712598801,-1.8913981318473816 l1.6079963743686676,-1.6326841711997986 1.4540836215019226,-0.610533207654953 l1.9508284330368042,0.03595055313780904 0.9869829565286636,0.6740820407867432 l0.9882080554962158,1.8032360076904297 0.33445384353399277,2.2284220159053802 l-0.22863278165459633,2.0007923245429993 -0.8771717548370361,1.80792436003685 l-1.2532250583171844,1.381048560142517 -1.658494770526886,0.8837087452411652 l-1.8611732125282288,0.15176882036030293 -1.1692550778388977,-0.593559592962265 l-0.9075459837913513,-1.3056100904941559 -0.4903941974043846,-2.2818152606487274 l0.24192975834012032,-2.2932149469852448 1.1726251989603043,-1.9335362315177917 l1.8734882771968842,-1.3300196826457977 2.170805037021637,-0.47013677656650543 l1.954643428325653,0.316002257168293 1.0666489601135254,0.8007001876831055 l1.022641584277153,1.8246479332447052 0.43143130838871,2.3599612712860107 l-0.06786800920963287,2.3646610975265503 -0.643647089600563,2.0948898792266846 l-1.0706554353237152,1.9866910576820374 -1.2880438566207886,1.5009921789169312 l-1.6537381708621979,1.0500222444534302 -2.001665234565735,0.38870062679052353 l-2.0066408812999725,-0.36631669849157333 -1.2963560223579407,-0.986425131559372 l-1.0967475175857544,-2.0996177196502686 -0.2675931714475155,-2.5597381591796875 l0.4681053012609482,-2.2442565858364105 1.3685214519500732,-1.9831259548664093 l2.033829391002655,-1.372811198234558 2.2891899943351746,-0.5694746971130371 l2.0519307255744934,0.05439740139991045 1.656302958726883,0.7500887662172318 l1.4324744045734406,1.4864926040172577 0.9685372561216354,2.0697522163391113 l0.47728173434734344,2.4436241388320923 0.06563485600054264,2.298397570848465 l-0.27173787355422974,2.213841676712036 " fill="none" stroke="black" stroke-width="1" /></svg>