<?xml version="1.0" encoding="utf-8" ?>
<svg baseProfile="full" height="66.94078598171473" version="1.1" width="112.99295650795102" xmlns="http://www.w3.org/2000/svg" xmlns:ev="http://www.w3.org/2001/xml-events" xmlns:xlink="http://www.w3.org/1999/xlink"><defs /><rect fill="white" height="66.94078598171473" width="112.99295650795102" x="0" y="0" /><path d="M87.99295650795102,40.59308130177669 m-6.952871084213257,0.6333387643098831 l-13.704460859298706,-0.015236603794619441 -13.460317850112915,-0.5375128239393234 l-11.204475164413452,-1.402578353881836 -8.55697214603424,-1.8281930685043335 l-4.465265274047852,-1.6453728079795837 -1.6279445588588715,-0.9047951549291611 l-1.0506945848464966,-0.921400785446167 -0.63848577439785,-1.0306359827518463 l-0.11935523711144924,-1.1232539266347885 0.5793518200516701,-1.2618595361709595 l1.3855083286762238,-1.1206471174955368 4.600750207901001,-2.033633142709732 l13.999179601669312,-2.185775488615036 10.886973142623901,-0.21552527323365211 l9.33060884475708,1.0064413398504257 6.34446918964386,1.511438637971878 l5.065860152244568,1.8760228157043457 3.8081401586532593,2.235005795955658 l1.8172076344490051,1.7882907390594482 0.8829502016305923,1.844366043806076 l0.11211254633963108,2.053537219762802 -0.7306748628616333,1.5971145033836365 l-1.6200630366802216,1.5063337981700897 -2.361946552991867,1.077292487025261 l-2.7338260412216187,0.4449426010251045 -4.3869248032569885,-0.007715315441600978 l-7.399385571479797,-0.9942575544118881 -8.209182024002075,-0.5916593968868256 l-11.788475513458252,-1.0748930275440216 -11.526572704315186,-1.803211122751236 l-6.294282674789429,-1.8588374555110931 -1.621023416519165,-0.8933056145906448 l-0.9386752545833588,-1.0467533022165298 -0.4141933470964432,-1.2976182997226715 l0.18990637734532356,-1.3796204328536987 0.9144814312458038,-1.0912028700113297 l1.5576863288879395,-0.777309462428093 2.9574227333068848,-0.6849761307239532 l6.984496116638184,-0.41911937296390533 7.4927204847335815,0.5846031382679939 l7.601134181022644,1.9012154638767242 4.625616371631622,1.8471240997314453 l5.654895305633545,2.941371202468872 3.3020153641700745,2.1485546231269836 l1.746254563331604,1.5113873779773712 " fill="none" stroke="black" stroke-width="1" /></svg>