<?xml version="1.0" encoding="utf-8" ?>
<svg baseProfile="full" height="885.0" version="1.1" width="3815.0" xmlns="http://www.w3.org/2000/svg" xmlns:ev="http://www.w3.org/2001/xml-events" xmlns:xlink="http://www.w3.org/1999/xlink"><defs /><rect fill="white" height="885.0" width="3815.0" x="0" y="0" /><path d="M3530.0,335.0 m-350.0,35.0 l-455.0,0.0 -450.0,20.0 l-1305.0,-20.0 -415.0,-55.0 l-230.0,-60.0 -75.0,-45.0 l-60.0,-100.0 -5.0,-50.0 l70.0,-35.0 m1400.0,375.0 l-5.0,335.0 20.0,75.0 l55.0,50.0 740.0,-5.0 l35.0,-65.0 15.0,-90.0 l15.0,-255.0 m-625.0,-90.0 l-40.0,160.0 10.0,130.0 l65.0,65.0 255.0,95.0 m355.0,50.0 l25.0,-20.0 m-130.0,0.0 l665.0,-30.0 395.0,-45.0 l285.0,5.0 -10.0,-170.0 l-60.0,-105.0 -60.0,-175.0 l-50.0,-30.0 -75.0,-5.0 l-140.0,50.0 -45.0,0.0 m-1705.0,515.0 l-830.0,-25.0 -255.0,-30.0 l-125.0,-30.0 -75.0,-60.0 l-175.0,-90.0 -135.0,-90.0 l-20.0,-25.0 -5.0,-100.0 " fill="none" stroke="black" stroke-width="1" /></svg>