<?xml version="1.0" encoding="utf-8" ?>
<svg baseProfile="full" height="75.72785197120538" version="1.1" width="72.88898173719645" xmlns="http://www.w3.org/2000/svg" xmlns:ev="http://www.w3.org/2001/xml-events" xmlns:xlink="http://www.w3.org/1999/xlink"><defs /><rect fill="white" height="75.72785197120538" width="72.88898173719645" x="0" y="0" /><path d="M36.28354943051818,25 m-4.906980097293854,2.342013120651245 l-2.867891788482666,2.703525424003601 -1.255813091993332,2.0031386613845825 l-1.565466970205307,3.858533799648285 -0.6870707124471664,2.946634888648987 l-0.000326770095853135,3.440016508102417 0.3732769936323166,1.540229171514511 l1.9037739932537079,3.3323487639427185 1.2429303675889969,1.2205002456903458 l2.684694230556488,1.5656086802482605 2.648988962173462,0.7748501747846603 l4.511393308639526,0.00045253258576849476 3.9716491103172302,-1.2557534873485565 l2.3116110265254974,-1.4595630764961243 1.603345274925232,-1.8036197125911713 l1.4042451977729797,-3.530750274658203 0.23307327181100845,-4.415177404880524 l-1.8697425723075867,-6.5145474672317505 -2.721068561077118,-3.328278660774231 l-3.4141355752944946,-1.8435083329677582 -4.807216227054596,-0.8805166184902191 m1.1713255196809769,3.726271092891693 l-0.8540264517068863,8.877524137496948 -0.4541533440351486,2.7076658606529236 l0.4112117737531662,0.360213965177536 3.924744725227356,-0.30096646398305893 l3.50009024143219,0.08995446376502514 " fill="none" stroke="black" stroke-width="1" /></svg>