<?xml version="1.0" encoding="utf-8" ?>
<svg baseProfile="full" height="2345.0" version="1.1" width="2395.0" xmlns="http://www.w3.org/2000/svg" xmlns:ev="http://www.w3.org/2001/xml-events" xmlns:xlink="http://www.w3.org/1999/xlink"><defs /><rect fill="white" height="2345.0" width="2395.0" x="0" y="0" /><path d="M1015.0,1020.0 m-105.0,-70.0 l-130.0,-60.0 -205.0,-55.0 l-175.0,10.0 -215.0,100.0 l-50.0,50.0 -80.0,170.0 l-30.0,120.0 20.0,120.0 l-5.0,315.0 20.0,50.0 l25.0,15.0 75.0,110.0 l115.0,230.0 105.0,55.0 l60.0,5.0 85.0,50.0 l220.0,45.0 360.0,5.0 l240.0,35.0 285.0,-30.0 l120.0,-45.0 275.0,-55.0 l25.0,25.0 30.0,0.0 l50.0,-30.0 20.0,-165.0 l175.0,-365.0 35.0,-145.0 l10.0,-325.0 -45.0,-90.0 l-165.0,-145.0 -105.0,-45.0 l-410.0,-70.0 -110.0,15.0 l-160.0,65.0 -205.0,115.0 l-60.0,55.0 m-120.0,-80.0 l75.0,50.0 m0.0,-10.0 l40.0,50.0 20.0,-20.0 m-75.0,-25.0 l-25.0,-285.0 50.0,-170.0 l45.0,-240.0 80.0,-215.0 l10.0,-115.0 105.0,45.0 l20.0,25.0 -10.0,210.0 l-40.0,85.0 -120.0,155.0 l-75.0,135.0 -70.0,190.0 l-30.0,185.0 " fill="none" stroke="black" stroke-width="1" /></svg>