<?xml version="1.0" encoding="utf-8" ?>
<svg baseProfile="full" height="73.44472514465451" version="1.1" width="84.95651187375188" xmlns="http://www.w3.org/2000/svg" xmlns:ev="http://www.w3.org/2001/xml-events" xmlns:xlink="http://www.w3.org/1999/xlink"><defs /><rect fill="white" height="73.44472514465451" width="84.95651187375188" x="0" y="0" /><path d="M47.983190435916185,27.981228823773563 m-2.055722326040268,-1.3605177402496338 l-2.988327443599701,-1.043294221162796 -3.5587960481643677,-0.5078210681676865 l-3.501051366329193,0.10720024816691875 -3.023310601711273,0.8169577270746231 l-2.8834274411201477,1.4893153309822083 -2.3187775909900665,2.0213107764720917 l-1.5932588279247284,2.389625310897827 -0.9078493714332581,2.786363661289215 l-0.15266941860318184,2.9306000471115112 0.7019984722137451,2.3825787007808685 l1.6089199483394623,2.3968611657619476 2.353060692548752,2.089439481496811 l2.881370782852173,1.6913853585720062 3.3503934741020203,1.2843070924282074 l5.165302157402039,0.9292573481798172 5.551254749298096,0.059927101247012615 l4.710356295108795,-0.9365944564342499 3.147195279598236,-1.2989208102226257 l2.5151363015174866,-1.7427852749824524 1.7851877212524414,-2.2009919583797455 l1.0185614973306656,-2.741610109806061 0.1677745021879673,-3.0050188302993774 l-0.5333738774061203,-2.6761412620544434 -1.2721432745456696,-2.475627064704895 l-1.9452857971191406,-2.2187381982803345 -2.449348419904709,-1.8124981224536896 l-2.759843170642853,-1.315375417470932 -2.9884451627731323,-0.7576964050531387 l-3.0425602197647095,-0.2627272345125675 -2.7019277215003967,0.2290065586566925 m-7.781274318695068,10.511927604675293 l-0.5868985876441002,-0.06838710978627205 0.01010681502521038,0.2203446440398693 l0.9627261757850647,0.19794194027781487 0.3588061034679413,-0.6455367803573608 l-0.6634188443422318,0.02662317594513297 -0.36726750433444977,0.6446168571710587 l0.32858557999134064,0.6280257552862167 0.5653876811265945,-0.008184847538359463 l0.1772685907781124,-1.2133491039276123 -0.5531783401966095,0.12726358138024807 l0.06722013931721449,0.46205542981624603 0.7031124830245972,-0.5130072310566902 l-0.2016802690923214,-0.4208588972687721 -0.25861507281661034,0.5039181932806969 l0.5558813363313675,-0.14280473813414574 0.007690694183111191,-0.5350825563073158 l-0.31743038445711136,0.26231179013848305 0.20612448453903198,0.21079430356621742 l0.390813909471035,-0.4811331257224083 -0.09125800803303719,-0.2676716633141041 l-0.16330761834979057,0.44274695217609406 0.49002397805452347,-0.25883737951517105 l-0.11173764243721962,-0.460813008248806 -0.18363894894719124,0.3936297073960304 l0.3242618590593338,0.1413570810109377 " fill="none" stroke="black" stroke-width="1" /></svg>