<?xml version="1.0" encoding="utf-8" ?>
<svg baseProfile="full" height="83.28964226870085" version="1.1" width="822.7346886182204" xmlns="http://www.w3.org/2000/svg" xmlns:ev="http://www.w3.org/2001/xml-events" xmlns:xlink="http://www.w3.org/1999/xlink"><defs /><rect fill="white" height="83.28964226870085" width="822.7346886182204" x="0" y="0" /><path d="M25,25 m0.0,0.0 m37.75036592360266,20.901338951571233 l-1.6180256009101868,0.5269202962517738 -0.8651867508888245,0.916508212685585 l-1.1795658618211746,2.2021812200546265 -0.29379628598690033,2.091507315635681 l0.2442919835448265,2.0277029275894165 0.7182738929986954,1.5108709037303925 l1.1029277741909027,1.2765759229660034 1.513219028711319,1.0205905139446259 l2.5696611404418945,0.8154460042715073 2.538640797138214,-0.00041122912080027163 l1.8218439817428589,-0.6402944773435593 1.4562533795833588,-1.144304946064949 l1.5927767753601074,-2.2775062918663025 0.7049372792243958,-2.20597505569458 l0.0005301438795868307,-2.906792461872101 -0.5851975083351135,-1.7970281839370728 l-1.4765599370002747,-1.8673917651176453 -2.058980315923691,-0.6864214688539505 l-1.8484853208065033,-0.00050826547521865 -1.3151349127292633,0.8421870321035385 l0.17747040838003159,-2.464860677719116 -0.3341926261782646,-0.3761361539363861 l-0.5516894534230232,2.8020620346069336 -0.07459792774170637,1.4335067570209503 m-0.34408990293741226,2.010986804962158 l0.0023829384008422494,-0.33938586711883545 0.5259113386273384,-0.40657661855220795 l0.1931663602590561,0.28563542291522026 -0.1775677129626274,1.1883969604969025 l-0.3493567928671837,0.12435469776391983 m0.8508703857660294,1.6163353621959686 l0.0006734878843417391,1.13703191280365 -0.38068488240242004,0.7536875456571579 l-0.82097128033638,0.016407729126513004 -0.7390039414167404,-0.5682767927646637 m1.0367758572101593,-0.7289692759513855 l0.3149706870317459,1.5190216898918152 0.246806051582098,0.8107272535562515 l0.9916715323925018,1.5183314681053162 0.3809794411063194,0.06646428722888231 m-1.8960678577423096,-4.008951783180237 l2.5974279642105103,-0.13425947166979313 2.8044897317886353,-0.46071451157331467 m-4.860677719116211,1.3018372654914856 l3.408437967300415,0.7762034237384796 2.574220299720764,0.6802418082952499 m-7.547842860221863,-2.3823943734169006 l1.435018628835678,1.2977039813995361 2.051902562379837,1.019447222352028 m-5.5733925104141235,-2.52269446849823 l-5.127686858177185,-0.07711288519203663 -2.7666231989860535,0.1474643126130104 m7.019807696342468,1.2973621487617493 l-5.41403591632843,0.9054278582334518 -1.7204903066158295,0.8783230930566788 m6.2362295389175415,-0.6176378950476646 l-4.333935976028442,1.3964878022670746 -1.7680948972702026,1.1786171048879623 m7.715977430343628,-6.617261171340942 l-2.0956990122795105,0.9773708879947662 m3.641441762447357,-1.2043701112270355 l-0.0013992865569889545,-0.0008037046791287139 m-0.19031943753361702,-0.2894097939133644 l-0.0017066948930732906,-0.002392767200944945 m-0.2619585767388344,0.04612888675183058 l-0.0005208298534853384,-0.0012116024299757555 0.07551667746156454,0.08477888070046902 m1.7200466990470886,0.17445063218474388 l-0.003725726855918765,-0.002602792519610375 m77.79782304834953,-3.1824153673915134 l-1.5118388831615448,-0.2569977752864361 -0.8436065167188644,0.37490155547857285 l-1.3595610857009888,1.9603683054447174 -0.2991662546992302,1.8259327113628387 l0.27562327682971954,2.0455950498580933 1.0877826809883118,1.7021480202674866 l1.3363544642925262,1.219133734703064 1.6268377006053925,0.8968829363584518 l2.560279369354248,0.6665483862161636 2.410481423139572,-0.00045228567614685744 l1.2419497966766357,-0.47597751021385193 1.9150909781455994,-1.55392125248909 l1.2210740149021149,-1.8194547295570374 0.8022128790616989,-2.8168556094169617 l0.0005222105755819939,-2.2387920320034027 -0.6170788407325745,-1.071491688489914 l-1.641976684331894,-1.252567172050476 -2.1292269229888916,-0.4286091774702072 l-1.8950220942497253,-0.0004030349009553902 -0.09370053187012672,-2.192654311656952 l-0.33097319304943085,-0.9021810442209244 -0.8486111462116241,2.375582605600357 l-0.4398169741034508,1.8024922907352448 -0.2535165473818779,0.38778115063905716 m-0.39480477571487427,1.2811408936977386 l-0.4457422345876694,0.27089478448033333 8.809634891804308e-05,-0.002496872330084443 l0.1908043585717678,-0.6656426191329956 -0.093699274584651,0.03181609092280269 l0.14805082231760025,0.878462940454483 m2.4963179230690002,2.14895099401474 l0.08505970239639282,0.043523418717086315 -0.15015499666333199,0.6644156575202942 l-0.5831025540828705,0.41258078068494797 -0.3763047233223915,-0.22718334570527077 l0.33816706389188766,-0.4861106351017952 m-0.5696721002459526,0.46080082654953003 l-0.5601593106985092,3.27037513256073 -0.8466094732284546,1.1401841789484024 l-3.060673475265503,0.11323558166623116 m4.135294854640961,-3.506695330142975 l0.5023100599646568,2.183229774236679 0.9169023483991623,1.5552446246147156 l1.0942468047142029,0.6465110927820206 1.8123134970664978,0.02149967011064291 m-2.9950159788131714,-5.994117856025696 l3.8404157757759094,-0.4497190937399864 2.5781765580177307,-0.4832011088728905 m-5.63224196434021,2.0615671575069427 l4.608158469200134,0.6434639543294907 m-4.77208286523819,0.3839002549648285 l2.4414056539535522,1.2484203279018402 1.8583716452121735,0.8454357832670212 m-9.25178050994873,-4.010884463787079 l-4.65636819601059,-0.3809690847992897 -1.8194539844989777,0.24156810715794563 m5.9974342584609985,1.5707454085350037 l-5.075427889823914,0.7700042426586151 -1.601974368095398,0.9131212532520294 m5.61015784740448,-0.35154934972524643 l-4.391353726387024,1.4215509593486786 -1.5518321096897125,1.2787970900535583 m7.529499530792236,-6.506177186965942 l-2.0386236906051636,0.9593862295150757 m3.584170937538147,-1.1530878394842148 l-0.0015115721907932311,-0.0006752301123924553 0.8572804927825928,0.6652350723743439 m0.8533235639333725,-0.6308284401893616 l-0.002929371257778257,-0.0019016848818864673 m0.36369945853948593,0.21762076765298843 l-0.001902424410218373,-0.0018138416635338217 m75.51376395935222,-4.252321760468476 l-1.3479489088058472,-1.0495387762784958 -0.8586543798446655,-0.11488024145364761 l-1.4450299739837646,1.4023859798908234 -0.359785296022892,1.8300609290599823 l0.3531656041741371,2.0054297149181366 1.160503700375557,1.6883261501789093 l1.3825684785842896,1.1857639253139496 2.2756606340408325,1.1175009608268738 l2.1150484681129456,0.4454538971185684 2.5483983755111694,-0.00046700803068233654 l1.8127809464931488,-0.6749946624040604 1.376815140247345,-1.1584684997797012 l1.3217461109161377,-2.2416219115257263 0.6632521748542786,-2.894565761089325 l0.0007587889558635652,-2.0345665514469147 -0.5158019438385963,-1.2986315786838531 l-1.4861032366752625,-1.4044645428657532 -1.0347476601600647,-0.2425204962491989 l-2.5453755259513855,0.8172264695167542 -1.300729513168335,1.0899043083190918 l-1.033623069524765,-2.383183389902115 -0.9509027004241943,-0.5558864399790764 l-1.0552601516246796,1.5465274453163147 -0.4920296370983124,1.994108259677887 l0.06484542973339558,0.9864799678325653 m2.018726021051407,1.6637115180492401 l-0.03778182668611407,0.6121459975838661 0.1532223355025053,0.3307274356484413 l0.11968079954385757,-0.6928059458732605 -0.39499014616012573,-0.3014899604022503 l-0.19479462876915932,0.6012298539280891 m3.5140591859817505,-0.00194920867215842 l0.04013939294964075,0.6394927948713303 -0.09003675542771816,0.19795529544353485 l-0.06149946711957455,-0.6780791282653809 -0.37770960479974747,-0.0234047113917768 m-1.6765473783016205,2.8274136781692505 l-0.1439062412828207,2.53531813621521 -0.40843043476343155,0.8925660699605942 l-1.8390391767024994,1.0104694962501526 -1.21615931391716,-0.13640464283525944 l-0.7704740017652512,-1.119539961218834 m4.889698922634125,-2.3341675102710724 l1.0057493299245834,2.3828983306884766 0.9355194866657257,0.6714203208684921 l1.8099188804626465,0.2488696575164795 2.079475075006485,-0.8057109266519547 m-5.687574744224548,-4.927497506141663 l2.98366516828537,-0.20746003836393356 m-0.9622663259506226,0.8663313835859299 l2.9133224487304688,0.33705390989780426 m-3.031371831893921,0.5626646056771278 l2.771153748035431,1.1269311606884003 1.7223536968231201,0.9705562889575958 m-9.51754629611969,-2.866094410419464 l-4.633969366550446,-0.13057011179625988 -1.838032305240631,0.28369011357426643 m6.011719107627869,1.2600134313106537 l-4.688937664031982,0.9519631415605545 -1.6072279214859009,1.022687405347824 m5.878774523735046,-0.8491748571395874 l-3.8852235674858093,1.6687725484371185 -1.697572022676468,1.4330106973648071 m7.2523462772369385,-6.45440936088562 l1.0571732372045517,0.6008177250623703 m1.1859533935785294,-1.0298062860965729 l-0.00306786474538967,-0.0017628876958042383 m-1.3722361624240875,0.2549351751804352 l-0.0013335622497834265,-0.0023459468502551317 0.27567511424422264,-0.025660386309027672 m0.9134981781244278,0.1460277196019888 l-0.003076327557209879,-0.0018723691755440086 m77.8446999417065,-2.505722962850996 l-1.1891953647136688,-1.8757836520671844 -0.8168553560972214,-0.6671256572008133 l-1.4169290661811829,0.8143609017133713 -0.39740316569805145,1.7029061913490295 l0.49563389271497726,1.9961149990558624 1.4515835046768188,1.734442412853241 l1.506955325603485,1.0862578451633453 2.9545149207115173,1.125781387090683 l2.4304169416427612,-0.00034029737435048446 1.1913266777992249,-0.32819025218486786 l1.9189472496509552,-1.1778362840414047 1.339602768421173,-1.481071561574936 l1.0235882550477982,-2.2619326412677765 0.0003262614336563274,-1.9543763995170593 l-0.6042137742042542,-0.8563236147165298 -2.3368068039417267,-1.3304489850997925 l-1.9993312656879425,-0.06306182127445936 -1.3621021807193756,-0.9094524383544922 l-2.222645729780197,-1.2215439975261688 -0.6168137490749359,-0.14041176065802574 l-0.8704607933759689,0.9891273826360703 -0.5690272152423859,2.2024473547935486 l0.045687006786465645,1.2003887444734573 m2.580004334449768,0.5062782764434814 l-0.047886911779642105,0.33227838575839996 0.009075337438844144,1.0147465765476227 l0.24162832647562027,0.4939284548163414 0.5467500165104866,-0.016217516968026757 l0.23841511458158493,-1.2551826238632202 -0.5199013277888298,-0.36950040608644485 l-0.5040253698825836,0.5609332397580147 m0.7335241883993149,1.3446004688739777 l-0.0881417840719223,2.5308287143707275 -0.176712516695261,0.8973250538110733 l-0.39355479180812836,0.5719582363963127 -1.0321299731731415,0.320187546312809 l-0.8988711982965469,-0.46847444027662277 m2.6047897338867188,-2.8692221641540527 l0.5548517033457756,2.1301905810832977 0.9694485366344452,1.0609906911849976 l1.6828273236751556,0.5319870263338089 1.961207538843155,-0.4427764192223549 m-4.0756261348724365,-5.450876355171204 l2.424204498529434,-0.24744795635342598 2.033751606941223,-0.48336993902921677 l1.7162396013736725,-0.2050403319299221 m-5.297299027442932,1.9278381764888763 l3.5631170868873596,0.749012902379036 2.0873387157917023,0.6623139977455139 m-5.243448615074158,-0.09558558464050293 l2.811013162136078,2.1953071653842926 1.5658755600452423,1.3754479587078094 m-11.153271198272705,-5.792940258979797 l-5.006766319274902,-0.5292735993862152 -1.830015480518341,0.08454601280391216 m6.383336782455444,1.9024814665317535 l-5.19228994846344,0.9785830974578857 -1.478748470544815,0.929766446352005 m5.693652629852295,-0.2167687565088272 l-4.7347018122673035,1.6842667758464813 -1.5683776140213013,1.3532672822475433 m5.926438570022583,-1.834215521812439 l-2.903764247894287,1.6178858280181885 -1.3984066247940063,1.5804986655712128 m7.367695569992065,-8.219155669212341 l1.7668233811855316,0.2704991586506367 1.2083932012319565,0.044268365018069744 m-1.4144143462181091,-0.30676471069455147 l1.877126395702362,0.9492632746696472 m-1.2685807049274445,-0.3733021393418312 l1.448112428188324,1.1029776185750961 0.788394883275032,0.6970462948083878 m-4.261809289455414,-2.4282900989055634 l1.6262716054916382,1.3545678555965424 m76.7126623175136,-0.9858927273489826 l-0.9788014739751816,-2.8490903973579407 -0.7249394804239273,-1.4886479079723358 l-1.219305545091629,0.2623058669269085 -0.31685974448919296,1.3897150754928589 l0.7711938768625259,2.056630551815033 1.8664699792861938,1.7764872312545776 l2.203102260828018,1.1541647464036942 2.650003135204315,0.7452620565891266 l2.7651432156562805,-0.00021734185793320648 1.196606382727623,-0.3756141662597656 l1.7241944372653961,-1.189691573381424 1.561400145292282,-2.0577633380889893 l0.5831516906619072,-1.7810539901256561 0.0007800308958394453,-1.8654006719589233 l-0.6563561409711838,-0.7612495869398117 -2.492401897907257,-0.9400064498186111 l-1.7442388832569122,0.059457761235535145 -2.8873932361602783,1.6211487352848053 l-1.3331258296966553,0.5007077008485794 -0.9569529443979263,0.37855684757232666 l-1.2139664590358734,0.7493282854557037 -0.6905783712863922,-0.5742153152823448 l-1.1568083614110947,-1.5464195609092712 -0.20135650411248207,1.1954879015684128 l0.3155437856912613,2.542864680290222 m5.197542309761047,1.6636459529399872 l-0.18315458670258522,0.8130370825529099 -0.039703031070530415,1.0800601541996002 l0.4005131870508194,0.4773341491818428 0.617043562233448,-1.6419555246829987 l-0.46676553785800934,-0.4917064681649208 m0.6096980348229408,-0.3912479802966118 l0.027657647151499987,1.2565149366855621 0.044109527952969074,0.6493741273880005 l0.13995861634612083,0.2833455055952072 0.2291085198521614,-0.35483241081237793 l0.07975145243108273,-1.1356928199529648 m-0.8455190807580948,-1.429177075624466 l0.07147337775677443,1.5376436710357666 0.0639840355142951,0.7647493481636047 l0.07160469423979521,0.4017915204167366 0.13299589976668358,-0.2559153735637665 m-0.1557033695280552,-1.9592955708503723 l0.2575116418302059,1.5083970129489899 0.38588203489780426,0.9539024531841278 l0.6721191108226776,0.5890227109193802 m-0.8692079037427902,-2.802046835422516 l3.0528005957603455,0.025934623554348946 2.81938374042511,-0.34267622977495193 m-5.238956809043884,1.0049036890268326 l4.777701795101166,0.7922027260065079 2.6486366987228394,0.7891614735126495 m-7.492796778678894,-0.6555373966693878 l3.283359110355377,2.299010455608368 2.3199348151683807,1.4013423025608063 m-11.227483749389648,-6.05069100856781 l-6.349019408226013,-0.5124517157673836 -2.439291626214981,0.15444714576005936 m8.42785358428955,2.1744419634342194 l-5.557403564453125,0.9562182426452637 -1.8452683091163635,1.0119520872831345 m7.017706036567688,-0.5651158466935158 l-4.495684206485748,1.6903294622898102 -1.8693339824676514,1.6214336454868317 m8.035909533500671,-8.210175633430481 l-0.7169901579618454,0.4100440442562103 -0.832710936665535,1.576845794916153 l0.3418884426355362,0.45972440391778946 m3.852226436138153,-2.9236996173858643 l0.5088145285844803,1.1985508352518082 m-1.5565623342990875,1.0599129647016525 l1.9686515629291534,0.45006774365901947 1.192583367228508,0.16272064298391342 m72.72254839073867,1.19610367808491 l-0.8212129026651382,-4.079567492008209 -0.6762199848890305,-2.3544730246067047 l-0.9375650435686111,-0.15641085803508759 -0.14440237544476986,1.4945346117019653 l1.1810074001550674,1.8029366433620453 2.1760475635528564,1.3458356261253357 l2.9996657371520996,0.8945989608764648 3.0753353238105774,0.44301848858594894 l2.8834259510040283,-0.19336534664034843 2.307922840118408,-0.7067566365003586 l1.772841066122055,-1.1644923686981201 0.8480881899595261,-1.142120435833931 l0.5837178230285645,-2.5962623953819275 -0.252721831202507,-1.6722109913825989 l-1.216871365904808,-1.6295906901359558 -1.9636793434619904,0.8793438971042633 l-1.7005924880504608,2.2885997593402863 -1.3081322610378265,1.679736077785492 l-1.628589779138565,-0.16266997903585434 -1.7260396480560303,-0.18038658425211906 l-1.6168539226055145,-0.07164970505982637 -1.4140528440475464,0.29636938124895096 l-1.790386140346527,1.2150529026985168 -0.7354386895895004,1.0107287019491196 l-0.3007965162396431,1.4530827105045319 m5.110117793083191,0.1707674004137516 l-0.4263107106089592,1.453891545534134 -0.07437093649059534,1.5499570965766907 l0.5170931294560432,0.7205643504858017 1.2308742851018906,0.21590720862150192 l0.8492083847522736,-2.4025356769561768 -0.30108800157904625,-1.2347180396318436 m2.5221019983291626,0.6490613520145416 l-0.05900296848267317,1.7793242633342743 0.511716790497303,0.9341622889041901 l1.2182150036096573,0.4091504216194153 0.49422282725572586,-0.49719732254743576 l0.25328779593110085,-1.6195385158061981 -0.5501098558306694,-1.318361610174179 m-4.193514585494995,-1.202046051621437 l-0.13818467035889626,1.4747695624828339 0.13143077492713928,0.7329419255256653 l0.4185183346271515,0.32730937004089355 0.47445785254240036,-1.733715683221817 m0.5586915090680122,-0.42539525777101517 l0.17323952168226242,1.6587789356708527 0.1470895204693079,0.2584991231560707 l0.18163980916142464,-1.3080793619155884 m-2.553289532661438,-0.9071850031614304 l1.8781255185604095,0.15946798026561737 1.9877514243125916,-0.2618463709950447 m-3.044588565826416,0.5311072990298271 l3.353085517883301,0.83060622215271 2.2355131804943085,0.4780833423137665 m-5.829169154167175,-0.8649992197751999 l2.9048767685890198,1.8919743597507477 2.423545718193054,1.3670383393764496 m-8.673933148384094,-4.479716122150421 l-6.654177904129028,-0.1927957497537136 -4.088193774223328,0.4535701498389244 m9.892175793647766,1.056705266237259 l-5.998699069023132,1.1945642530918121 -2.220364809036255,1.291007548570633 m8.158679604530334,-1.2499736994504929 l-3.625519275665283,1.7548464238643646 -2.0660214126110077,1.9145771861076355 m9.853301048278809,-7.929550409317017 l2.97105610370636,-0.4685455933213234 2.497843950986862,-0.3264376148581505 l1.1581870168447495,0.10552813299000263 m-5.859283804893494,1.6019436717033386 l3.663964569568634,1.2685580551624298 2.155326008796692,1.0561108589172363 m62.86554237594828,-2.9399064936001196 l-0.5958437547087669,-5.233592391014099 -0.6275292485952377,-3.338285982608795 l-0.7567435503005981,-0.8696149289608002 0.2529635466635227,0.7971464842557907 l1.7754468321800232,1.9678393006324768 3.0155223608016968,1.2055910378694534 l3.874952495098114,0.70600226521492 3.3202582597732544,0.054131667129695415 l3.0309367179870605,-0.49555037170648575 2.940765917301178,-2.455991506576538 l1.3816764950752258,-1.0098259896039963 0.31677231192588806,1.4077919721603394 l-0.07498366758227348,3.4472012519836426 -0.5910838395357132,2.9896220564842224 l-1.3909880816936493,2.5035259127616882 -1.2934264540672302,1.1590137332677841 l-3.601978123188019,1.540379524230957 -2.758869230747223,0.5868292227387428 l-2.7785199880599976,1.1303141036478337e-05 -2.263220250606537,-0.8332063257694244 l-1.6862738132476807,-1.298927366733551 -1.0475322604179382,-1.6008937358856201 l-0.5415255948901176,-2.208779603242874 m5.616777539253235,-1.704074889421463 l-0.44617909938097,0.477839894592762 -0.16673611477017403,1.1911746114492416 l0.5626948550343513,0.36961305886507034 0.4067683592438698,-0.4614385962486267 l-0.08595574647188187,-1.2249166518449783 -0.4897739365696907,-0.2624094486236572 l-0.2920207567512989,0.6161271035671234 m7.845510244369507,-0.642717182636261 l-0.6577527523040771,0.7099317014217377 0.23808421567082405,0.9752751886844635 l1.2371515482664108,-0.045852973125874996 -0.028333242516964674,-1.541537195444107 l-0.6185619533061981,-0.28732873499393463 -0.5723239108920097,0.5481929704546928 m-5.393088459968567,2.741791307926178 l-0.1927480287849903,2.602185308933258 0.05332747008651495,1.2552639842033386 l0.2736024931073189,0.4646299406886101 0.7176152616739273,-0.1029044296592474 l1.1900392919778824,-1.2047050893306732 0.4297322407364845,-1.9206656515598297 m-1.0667476803064346,0.33989280462265015 l-0.42429063469171524,4.343839585781097 -0.5943465232849121,1.8398606777191162 l-0.40262769907712936,0.3318207710981369 m2.100108563899994,-5.6807941198349 l0.8163786679506302,2.8514522314071655 1.0356905311346054,2.3025448620319366 m-3.3225229382514954,-6.149995923042297 l3.963647782802582,-0.6410379707813263 3.5634776949882507,-0.924270898103714 m-6.785929203033447,1.9266603887081146 l3.9391958713531494,0.47270484268665314 3.2315102219581604,0.2663126029074192 m-10.792005062103271,-1.8859681487083435 l-5.175560116767883,0.036818336229771376 -3.959677219390869,0.20348604768514633 m9.574639201164246,1.0959215462207794 l-4.025045037269592,1.0639644414186478 -2.139369696378708,1.3041652739048004 m6.621638536453247,-1.383279263973236 l-1.7841829359531403,1.6758272051811218 -0.9850881993770599,1.4582471549510956 l-0.49531668424606323,1.8308278918266296 m8.75869333744049,-7.956254482269287 l4.694930911064148,-0.10416609235107899 2.566531002521515,0.17815491184592247 l2.126399129629135,0.7498273998498917 m59.28937029646477,1.5136464630927549 l-0.38786716759204865,-6.401978135108948 -0.6565659493207932,-4.426605701446533 l0.0029181494028307498,-0.49622103571891785 0.4732472822070122,-0.4439721629023552 l4.369955658912659,0.7022581994533539 4.182268977165222,0.6954192370176315 l4.392888247966766,0.3337366506457329 3.152158558368683,-0.22079000249505043 l2.601708471775055,-0.7181181758642197 0.5168740451335907,0.18573671579360962 l0.5641468614339828,1.9557926058769226 0.38858626037836075,4.724797308444977 l-0.17191458493471146,4.172030091285706 -1.1393199861049652,2.1793562173843384 l-1.8716439604759216,0.8051598072052002 -4.200877547264099,0.10501562617719173 l-3.112132251262665,-0.32352305948734283 -4.7324904799461365,-0.40050268173217773 l-1.9843421876430511,-0.2230655588209629 -1.401478350162506,-0.3267150744795799 l-0.8151806890964508,-0.450831800699234 m4.857533574104309,-8.33015501499176 l-0.8133785426616669,0.2652663551270962 -0.5802849307656288,0.6430044025182724 l-0.38440022617578506,1.3691729307174683 0.6953111290931702,1.3727647066116333 l1.8855728209018707,0.04184349440038204 0.49723628908395767,-0.6265134364366531 l0.09363388642668724,-1.5576542913913727 -1.1605608463287354,-0.8801291137933731 l-1.0044224560260773,0.038314624689519405 m8.601806163787842,-0.3118858113884926 l-1.001683697104454,1.042366772890091 -0.044014896266162395,2.2145862877368927 l0.493243969976902,0.4608679562807083 1.1531590670347214,-0.04269053228199482 l0.6091271713376045,-2.4110546708106995 -0.42915310710668564,-0.6054834276437759 l-1.092182844877243,-0.09970501065254211 m-5.416609048843384,0.6502508372068405 l0.1283575501292944,1.4269721508026123 0.5607973411679268,1.5508034825325012 l0.7186082005500793,0.4441617429256439 1.8393711745738983,-0.5344028025865555 l0.2336467243731022,-2.2390757501125336 -0.6234416738152504,-0.4863998293876648 m-3.1738168001174927,0.3771151229739189 l-0.08942595683038235,2.936539649963379 m2.234969288110733,-2.9924798011779785 l0.11258249171078205,2.4854205548763275 0.5156376212835312,1.365877240896225 m-2.8967267274856567,-2.8160253167152405 l5.031230449676514,0.22540699690580368 3.6724239587783813,-0.23428568616509438 m-8.584523797035217,-0.5784269794821739 l4.8725199699401855,0.4891427606344223 3.598317503929138,0.08486604318022728 l3.0480605363845825,-0.22021230310201645 1.5364499390125275,-0.37442445755004883 m-13.623677492141724,0.3575615957379341 l2.1401654183864594,0.3200032562017441 3.7068113684654236,0.5582290887832642 l3.405468761920929,0.4550810903310776 4.157199561595917,0.37599723786115646 m-13.702185153961182,-2.7172186970710754 l-2.8833886981010437,1.9541415572166443 -4.38610315322876,2.336217015981674 l-1.622728854417801,0.9630019962787628 m80.67556130234152,1.597527062476729 l-0.2466079220175743,-7.240357398986816 -0.8008485287427902,-6.502595543861389 l0.04851854406297207,-0.5945925787091255 0.6043127179145813,-0.408746600151062 l7.229463458061218,0.04314385820180178 4.893210530281067,0.2902118116617203 l4.757418632507324,-0.0011359033669577911 3.3124348521232605,-0.2941739931702614 l2.399454116821289,-0.2588210999965668 0.4300117865204811,0.586845651268959 l0.15992239117622375,5.73123037815094 -0.00258995481999591,5.694428086280823 l-0.3097056970000267,2.7330535650253296 -0.9468071162700653,0.9787943214178085 l-3.0434536933898926,0.3733442723751068 -3.6061593890190125,-0.12544884346425533 l-3.384612202644348,-0.24529676884412766 -2.8671151399612427,-0.14716779813170433 l-5.457768440246582,-0.06937993690371513 -2.9302579164505005,-0.049019455909729004 l-0.94481460750103,-0.08163308724761009 m5.946460962295532,-7.256591320037842 l-0.8413688838481903,1.0886041074991226 -0.1235970389097929,2.8044477105140686 l0.6122670695185661,1.1957616358995438 0.9839216619729996,0.4489380493760109 l1.5668196976184845,-0.2964163199067116 0.8194057643413544,-1.0325834900140762 l0.27817560359835625,-2.002454549074173 -0.6971750408411026,-1.8181666731834412 l-1.0172377526760101,-0.7379630208015442 m8.031437397003174,0.4997662082314491 l-1.0332083702087402,1.682797521352768 -0.009022628655657172,3.1495338678359985 l0.45644938945770264,0.5663823336362839 1.216113343834877,0.1445530727505684 l0.9464956074953079,-0.6195228174328804 0.7172995805740356,-1.7564460635185242 l-0.11170118115842342,-2.2210998833179474 -0.6997275352478027,-1.0544631630182266 m-9.773700833320618,-1.9883295893669128 l-0.4368371143937111,1.7268557846546173 0.18284769728779793,3.2218360900878906 l0.7788870483636856,1.0712985694408417 1.9375695288181305,0.00011013234143320005 l0.8488670736551285,-3.596145212650299 -0.6131382659077644,-2.5264745950698853 m4.381780028343201,0.8995859324932098 l-0.13607623055577278,3.2054856419563293 0.5943163484334946,1.990772783756256 l4.232155680656433,-0.5537375062704086 0.07462904322892427,-2.96056866645813 l-4.087884724140167,-1.9415004551410675 m-9.565337896347046,1.3338129222393036 l0.02167618367820978,2.6730599999427795 0.44800516217947006,2.403239905834198 l6.118295788764954,-0.5656235665082932 0.23932134732604027,-3.1018468737602234 l-0.8022532612085342,-2.4233947694301605 m-4.634953439235687,1.1170106381177902 l0.8593141287565231,4.444985389709473 0.6231853738427162,1.5025582909584045 l6.412291526794434,-0.7818697392940521 0.28522228822112083,-3.2097595930099487 l-0.5999554693698883,-2.792063057422638 m65.58742497611092,8.618936134780597 l-0.07351863663643599,-7.759280204772949 -0.8763411641120911,-7.483259439468384 l0.07465391885489225,-0.8083365857601166 0.5162419006228447,-0.21257389336824417 l9.923614859580994,-0.6029538437724113 5.923748016357422,-0.08302510716021061 l4.829675853252411,-0.026468071155250072 3.143622875213623,-0.05143254995346069 l0.5117262154817581,0.5567186325788498 0.3193727135658264,2.929088771343231 l0.23119889199733734,7.379177212715149 0.01575210248120129,4.106800854206085 l-0.43544765561819077,0.47019146382808685 -3.236316442489624,0.393778495490551 l-3.8518020510673523,0.20688261836767197 -7.99704909324646,0.31025655567646027 l-5.4895853996276855,0.4953997954726219 -3.361230194568634,0.28223084285855293 l-1.2449836730957031,0.1178604457527399 m5.696516036987305,-8.473684191703796 l-0.977315753698349,0.3614233434200287 -0.7768277823925018,1.0308558493852615 l-0.5215709283947945,2.0623305439949036 0.20287802442908287,1.3656647503376007 l0.7889410108327866,0.7740756124258041 1.7315788567066193,0.32571252435445786 l1.8609610199928284,-0.7760467380285263 0.8257891237735748,-1.2606757879257202 l0.11414227075874805,-2.0358802378177643 -2.7250510454177856,-1.927131563425064 l-1.4168256521224976,0.196889229118824 m13.121610879898071,-0.19298169761896133 l-1.2881194055080414,1.6080337762832642 -0.20571060478687286,3.6972159147262573 l1.2423188239336014,1.1925941705703735 2.025931626558304,-0.6080891564488411 l1.0016261041164398,-1.4732982218265533 0.2600327506661415,-2.2853992879390717 l-0.48815712332725525,-1.2536044418811798 -1.4427109062671661,-1.0934063792228699 m-10.668234825134277,-2.4912741780281067 l-0.23507310077548027,0.6733250617980957 0.11742069385945797,3.694855570793152 l0.8221544325351715,1.7856994271278381 3.231881260871887,-0.2016131766140461 l0.6006431952118874,-3.435087502002716 -0.7336186617612839,-2.9330751299858093 l-3.6766597628593445,-0.0752722704783082 m7.279367446899414,1.0630209743976593 l0.043981499038636684,3.45287024974823 0.5680494010448456,3.0932360887527466 l4.149752855300903,-1.1589883267879486 0.23401860147714615,-3.283436596393585 l-0.7858163863420486,-2.9752808809280396 -3.950127363204956,0.1387411542236805 m-8.35466980934143,2.3549970984458923 l1.1255370080471039,4.1303518414497375 0.9750779718160629,2.643117606639862 l0.8496315032243729,0.9189693629741669 7.2155702114105225,-0.9147297590970993 l0.6609708070755005,-3.552355170249939 -0.16200121492147446,-4.029053151607513 " fill="none" stroke="black" stroke-width="1" /></svg>