<?xml version="1.0" encoding="utf-8" ?>
<svg baseProfile="full" height="91.76091006025672" version="1.1" width="824.1498384950683" xmlns="http://www.w3.org/2000/svg" xmlns:ev="http://www.w3.org/2001/xml-events" xmlns:xlink="http://www.w3.org/1999/xlink"><defs /><rect fill="white" height="91.76091006025672" width="824.1498384950683" x="0" y="0" /><path d="M25,25 m0.0,0.0 m38.89065979747102,16.134455408900976 l-1.5727116167545319,-1.6642862558364868 -4.515973925590515,-2.490614950656891 l-1.479395478963852,-0.542692206799984 -2.39766001701355,-0.3400760889053345 l-1.8485742807388306,0.6730178743600845 -1.0431379824876785,1.1924747377634048 l-0.72883740067482,2.48836949467659 0.7457840442657471,3.8564395904541016 l2.4809956550598145,3.331310749053955 3.1828340888023376,2.741446793079376 l1.175723671913147,1.8475541472434998 0.1414004433900118,1.7766883969306946 l-1.0390231013298035,2.350401282310486 -1.1759641021490097,2.2907988727092743 l-0.8637713640928268,3.000834882259369 0.0604306859895587,1.9602935016155243 l0.7947072386741638,1.384754627943039 1.941123902797699,1.369546800851822 l1.9217532873153687,0.40019240230321884 1.491120308637619,-0.3848535567522049 l1.0675109922885895,-1.0116809606552124 0.9418416768312454,-2.534506320953369 m-0.9367679804563522,-24.897561073303223 l-0.4965200647711754,6.133957505226135 -0.1747637242078781,9.48313593864441 l0.6307771801948547,6.3037556409835815 0.9153057634830475,2.9014992713928223 l1.1415702849626541,0.7090764492750168 1.3014130294322968,-1.0312053561210632 l0.7540491223335266,-2.070985585451126 0.41218020021915436,-2.836044728755951 l-0.12400811538100243,-7.885075807571411 -1.0812323540449142,-5.95994234085083 l-1.0586758702993393,-3.127443790435791 -1.116182953119278,-1.4947858452796936 l-1.2212569266557693,-0.5241050571203232 m3.578152060508728,2.4570010602474213 l1.187361404299736,-2.2293706238269806 1.8038690090179443,-1.6826003789901733 l2.046739161014557,-0.9732405096292496 1.759713739156723,-0.19031397998332977 l1.854511797428131,0.7150629162788391 1.7154023051261902,1.9939859211444855 l0.4877340793609619,2.194838374853134 -0.5831574276089668,2.688330113887787 l-1.895873099565506,2.463415563106537 -4.07245397567749,2.819071114063263 l4.078070223331451,0.7304665446281433 1.517414152622223,1.6228201985359192 l0.832824632525444,2.646059989929199 -0.17009176313877106,2.9550841450691223 l-1.430167555809021,2.335391789674759 -2.46932715177536,1.5921933948993683 l-3.1630581617355347,0.5725127086043358 -3.5142025351524353,-1.9024664163589478 m-3.6419677734375,-20.74472427368164 l-2.088996171951294,-5.426631569862366 -1.707558035850525,-2.2124235332012177 m5.449995994567871,7.214343547821045 l0.6709103286266327,-2.4002425372600555 1.269596517086029,-2.2544479370117188 l2.2291412949562073,-2.184112071990967 2.5013568997383118,-1.423630565404892 m72.4404739610327,12.988730487413704 l-1.6511552035808563,-1.948075145483017 -4.411168694496155,-3.135828673839569 l-1.2882013618946075,-0.6213995441794395 -2.0241351425647736,-0.39451949298381805 l-1.691996157169342,0.5547662824392319 -1.036418080329895,1.179891899228096 l-0.7011087983846664,2.4610263109207153 0.25878386572003365,3.5175159573554993 l2.2823764383792877,3.5726386308670044 3.363446891307831,2.9096615314483643 l1.2216029316186905,1.7095169425010681 0.4128320887684822,1.6255995631217957 l-0.627499595284462,1.8822042644023895 -1.2475039064884186,2.059992700815201 l-1.0592029988765717,2.8856346011161804 -0.12902787886559963,2.0194920897483826 l0.538659542798996,1.6347149014472961 1.1360565572977066,1.1201449483633041 l1.522183120250702,0.5471523478627205 2.451530247926712,-0.09650762192904949 l1.574796885251999,-0.9180071949958801 1.0020742565393448,-1.3439558446407318 m-1.0136283934116364,-26.147358417510986 l-0.3303910419344902,7.160904407501221 -0.1373899821192026,9.908249378204346 l0.6835546344518661,5.77888548374176 0.9265847504138947,2.9381954669952393 l0.6208233162760735,0.6172370165586472 0.8416064828634262,0.11105619370937347 l0.793730616569519,-0.7931602001190186 0.6244915351271629,-1.878814697265625 l0.4544544219970703,-4.543737769126892 -0.582503192126751,-9.285886883735657 l-0.8047623187303543,-4.508787393569946 -1.005781888961792,-2.4013006687164307 l-1.2397784739732742,-1.255757361650467 -1.1259596049785614,-0.06919184699654579 m3.5467585921287537,1.8077902495861053 l0.9562886506319046,-2.0582474768161774 1.5798112750053406,-1.6180755198001862 l1.8444958329200745,-0.9844023734331131 2.4841363728046417,-0.3727332130074501 l1.565060019493103,0.44900137931108475 1.443832665681839,1.6596128046512604 l0.7236620783805847,2.7850642800331116 -0.00022758700652047992,3.0520763993263245 l-1.1234545707702637,2.759276032447815 -3.1302350759506226,3.533425033092499 l3.7028026580810547,1.037219911813736 1.2525340914726257,1.7798909544944763 l0.44815611094236374,2.6590490341186523 -4.772655367851257,4.207249581813812 l-4.288097620010376,0.7134410738945007 -1.4681921899318695,-0.8548040688037872 m-4.430288076400757,-21.558945178985596 l-0.581427812576294,-2.1796567738056183 -2.1961262822151184,-4.327408969402313 l-1.5381111204624176,-1.6526953876018524 m6.502452492713928,8.10171663761139 l1.040399819612503,-5.078803896903992 1.3535811007022858,-2.6635313034057617 l1.3735416531562805,-1.3224776089191437 m74.39217032617307,14.001273182220757 l-1.7195914685726166,-2.2293467819690704 -4.841077625751495,-4.445675611495972 l-1.037335842847824,-0.6512705981731415 -1.7981888353824615,-0.31347282230854034 l-1.4864565432071686,0.6743147969245911 -0.9125939756631851,1.2749192118644714 l-0.549737885594368,2.6050934195518494 0.3765031695365906,2.410080134868622 l1.9361358880996704,3.5577771067619324 4.384807348251343,4.474515318870544 l0.8673939108848572,1.9221188127994537 -0.10477234609425068,1.2901738286018372 l-1.0471515357494354,2.558770477771759 -0.906984806060791,2.254553586244583 l-0.29212748631834984,1.8663592636585236 0.32191120088100433,2.4309758841991425 l0.9119095653295517,1.440899819135666 1.282227337360382,0.8361535519361496 l1.585359275341034,0.28226880356669426 1.3507288694381714,-0.3583637997508049 l1.0622750967741013,-0.9577664732933044 0.9849262237548828,-2.3134367167949677 m-1.2044378370046616,-23.59421968460083 l-0.04258509259670973,6.705687642097473 0.09884856641292572,8.778526186943054 l0.6009567528963089,5.715380907058716 0.8982895314693451,3.0486181378364563 l0.607345923781395,0.6934638321399689 0.8676422387361526,0.21427083760499954 l0.7916968315839767,-0.6002873554825783 0.6682182103395462,-1.6521969437599182 l0.40178269147872925,-2.6165488362312317 -0.1418660394847393,-7.773317098617554 l-1.6584907472133636,-8.870792388916016 -0.9995008260011673,-2.855920195579529 l-0.8280470222234726,-0.7123945653438568 -1.0903629660606384,-0.08819598704576492 m3.2292169332504272,2.5157713890075684 l1.036820039153099,-2.1800582110881805 1.7115946114063263,-1.713845431804657 l1.944388747215271,-1.0114656388759613 1.8243387341499329,-0.281638503074646 l2.136865109205246,0.6212523579597473 1.0320039838552475,1.3098174333572388 l0.5381397157907486,2.447708547115326 -0.5343726277351379,3.0046653747558594 l-2.852557599544525,4.016657769680023 3.5456815361976624,1.5537171065807343 l1.291576325893402,1.9991819560527802 0.49249012023210526,2.7825194597244263 l-0.6939074397087097,2.815714478492737 -1.935141384601593,2.4239547550678253 l-2.8935226798057556,1.7384254932403564 m-11.083735227584839,-21.151180267333984 l-2.24165216088295,-3.893345594406128 -1.833772361278534,-1.7871050536632538 m6.845675706863403,5.370657444000244 l1.1101547628641129,-4.993092715740204 1.1870899051427841,-2.4662916362285614 l1.238587275147438,-1.2748537957668304 1.8937641382217407,-0.7982739061117172 m72.04141234982671,12.93997351768212 l-1.740635484457016,-2.458556443452835 -4.0318551659584045,-4.372664093971252 l-0.8895628154277802,-0.6757669895887375 -1.2024909257888794,-0.3464630991220474 l-1.0140460729599,0.3833099827170372 -0.7554567605257034,1.1601054668426514 l-0.3946705535054207,2.586641311645508 0.8209238201379776,3.443916440010071 l2.3831847310066223,3.649645149707794 2.8137558698654175,2.8054583072662354 l0.5970705673098564,1.459234356880188 -0.24453919380903244,1.4333640038967133 l-1.2552325427532196,1.7603832483291626 -1.3060177862644196,2.409767210483551 l-0.6694881618022919,2.817430794239044 0.1433975901454687,1.88312828540802 l0.7946345210075378,1.4234961569309235 1.323954164981842,0.9720433503389359 l2.2966134548187256,0.6165745481848717 2.1428877115249634,6.936035333637847e-05 l1.3316085934638977,-0.6043648347258568 0.894128680229187,-1.0236772894859314 m-1.5171265602111816,-22.84787654876709 l0.31452301889657974,5.4801952838897705 0.2265694923698902,7.5182801485061646 l0.6886681914329529,5.121576189994812 0.8924669027328491,3.2953310012817383 l0.9711116552352905,1.314263492822647 0.6759624183177948,0.2294638752937317 l0.6939932703971863,-0.4931449145078659 0.6008898466825485,-1.4757359027862549 l0.40397610515356064,-2.4931006133556366 -0.5995636060833931,-11.940546035766602 l-0.9096182882785797,-3.8172751665115356 -1.1035944521427155,-2.140442281961441 l-1.2087197601795197,-0.9225970506668091 -1.3636630773544312,0.24169141426682472 m3.449035882949829,1.4440153539180756 l2.4725258350372314,-3.9561820030212402 2.06368088722229,-1.7205041646957397 l1.8186374008655548,-0.6686083227396011 2.202639728784561,0.06797110196202993 l1.1867836862802505,0.9003544598817825 0.918920710682869,2.149164080619812 l-0.00023916920326882973,2.8444212675094604 -1.3378959894180298,3.0155470967292786 l-3.7555772066116333,3.971494138240814 3.9008286595344543,1.1242272704839706 m-5.528460144996643,2.500421106815338 l3.8276395201683044,-0.7769569009542465 2.1317391097545624,0.4288472980260849 l1.483219861984253,1.7099323868751526 0.0003882505916408263,2.0485199987888336 l-1.5099841356277466,2.412458211183548 -4.27021324634552,2.957468032836914 l-4.740000665187836,0.4305548593401909 m-5.0442421436309814,-20.469534397125244 l-2.4746912717819214,-4.919617176055908 -1.858578622341156,-2.0740197598934174 m7.371864914894104,6.536339521408081 l1.27427339553833,-4.794901013374329 1.497422605752945,-2.6554545760154724 m72.00341067818954,10.769098838082982 l-1.7181861400604248,-2.577604055404663 -4.147267639636993,-5.463201999664307 l-0.6840033084154129,-0.6551786512136459 -0.8026088774204254,-0.2886579744517803 l-0.7056763768196106,0.4530378431081772 -0.5445638671517372,1.2958618998527527 l-0.020193171221762896,2.6411327719688416 1.3159088790416718,3.54464054107666 l3.907032608985901,5.359489321708679 0.8069396764039993,2.1054786443710327 l0.06502015981823206,1.1823195964097977 -0.554368793964386,1.4305078983306885 l-1.0060900449752808,1.7219001054763794 -0.8445767313241959,2.3631806671619415 l-0.045795454643666744,1.744978427886963 0.6601526588201523,1.3022547960281372 l1.2072809040546417,0.8555106818675995 2.1393144130706787,0.48843488097190857 l2.2535482048988342,3.768738451981335e-05 1.3939829170703888,-0.5917074531316757 l0.8823461085557938,-0.9828229248523712 m-1.962907463312149,-20.09598970413208 l0.0011522494605742395,0.4184567555785179 0.783948227763176,1.4853012561798096 l1.229729875922203,5.0726014375686646 0.7546807825565338,5.280771255493164 l0.6939375400543213,4.692036211490631 0.4908040910959244,3.648498058319092 l0.6171528995037079,2.061300128698349 0.8361633121967316,0.7418359816074371 l1.1600536853075027,0.025947056710720062 0.9061717242002487,-0.8542493730783463 l0.6599786877632141,-1.792590171098709 0.35531874746084213,-6.385197639465332 l-1.4386680722236633,-8.948832750320435 -1.4383140206336975,-3.583451807498932 l-1.8492898344993591,-1.7246527969837189 -1.9255372881889343,-0.35264022648334503 l-1.7581194639205933,1.0996516048908234 m5.588829517364502,0.7351768761873245 l2.4902190268039703,-3.3581551909446716 2.00107678771019,-1.5686215460300446 l2.478228509426117,-1.008991301059723 m-5.848535895347595,7.0966291427612305 l2.6766330003738403,-2.1707233786582947 2.2170165181159973,-0.850059911608696 l2.5825145840644836,-0.16159597784280777 1.2685379385948181,0.5991971492767334 l1.0998791456222534,1.725451797246933 0.2733999118208885,2.5730249285697937 l-1.0949032008647919,2.7333617210388184 -3.719729781150818,3.8860923051834106 l-2.2393974661827087,1.216430887579918 m-9.06460702419281,-9.860425591468811 l-3.9363127946853638,-1.8403851985931396 -4.345027804374695,-0.9335620701313019 l-1.3669075071811676,0.7783175259828568 -0.5220773071050644,1.283571720123291 m10.074023008346558,2.0835745334625244 l2.5630751252174377,-1.116979941725731 2.9510611295700073,-1.1006799340248108 m72.14712141620112,3.5684210403474026 l-1.6515451669692993,-2.643660008907318 -3.1038036942481995,-4.987460076808929 l-0.5543475225567818,-0.6234876066446304 -0.5419017374515533,-0.2485554851591587 l-0.6045932322740555,0.47618888318538666 -0.4682612419128418,1.681734025478363 l0.3043973445892334,2.861907482147217 1.7490597069263458,3.521777093410492 l2.7844661474227905,2.728257179260254 0.9327989816665649,1.4916029572486877 l0.3220995143055916,0.7495816797018051 -0.9630557149648666,2.0877908170223236 l-0.9138099849224091,1.9238634407520294 -0.9007778018712997,3.617669939994812 l0.17215069383382797,1.7902760207653046 0.8245943486690521,1.1535252630710602 l1.273764967918396,0.6781195849180222 2.152414321899414,3.760694880838855e-05 l1.5975205600261688,-0.7564803957939148 1.1508284509181976,-1.1996428668498993 l1.0118737816810608,-2.37434059381485 0.31551871448755264,-1.6961245238780975 l-0.4071570187807083,-5.420190691947937 -0.20725399255752563,-2.3693571984767914 l-0.27281245216727257,-3.6227020621299744 0.41632167994976044,-0.8209322392940521 l1.1546356230974197,-0.18412992358207703 1.4861412346363068,8.367002606391907 l0.355561226606369,5.831719636917114 -0.0969260185956955,2.857399880886078 l-0.674600824713707,1.246994212269783 -0.8667993545532227,0.47345995903015137 l-1.555464267730713,-0.16120810061693192 m1.0593828558921814,-16.653777360916138 l2.7353262901306152,-0.8158712834119797 3.0783599615097046,-0.4240889847278595 l2.747514545917511,0.45085761696100235 2.3761045932769775,1.5559330582618713 l1.0695721209049225,1.404745727777481 0.5657673254609108,2.3396791517734528 l-0.41132666170597076,2.703745663166046 -1.79291233420372,2.609597146511078 l-2.7854984998703003,2.063484340906143 -5.399041771888733,2.3230357468128204 m-4.23498809337616,-14.59208607673645 l1.8321651220321655,-0.8300904184579849 2.3628583550453186,-0.8280817419290543 l2.2351303696632385,-0.2295840159058571 m-5.383483171463013,1.8881569802761078 l0.8719082921743393,-1.0443631559610367 3.0081576108932495,-2.7600303292274475 l1.8570490181446075,-1.0811495035886765 1.25126451253891,-0.2483229897916317 m-8.531166315078735,8.037981390953064 l-3.274588882923126,-2.147580236196518 -2.4530714750289917,-1.234758272767067 l-2.5413545966148376,-0.9284338355064392 -2.2013352811336517,-0.4190712422132492 m89.44891843944788,0.2548881805716974 l-1.546531766653061,-2.578360140323639 -2.4580003321170807,-4.841897785663605 l-0.34826040267944336,-0.6998597830533981 -0.18210802227258682,-0.27392202988266945 l0.10333321057260036,0.4841628670692444 1.1634409427642822,2.743089199066162 l1.7733000218868256,3.3077794313430786 1.8792255222797394,2.818724811077118 l1.056157425045967,1.371423453092575 1.3424456119537354,0.512174516916275 l0.9115412086248398,-0.03579818643629551 0.9622813761234283,-0.028745699673891068 l1.7698165774345398,0.37499915808439255 -0.2507944591343403,-1.7497307062149048 l0.02448722254484892,-1.1028404533863068 0.1457323506474495,-3.193223774433136 l0.7876965403556824,-0.8209366351366043 1.5165980160236359,-0.08606373332440853 l1.5805882215499878,1.2122220546007156 1.1804967373609543,2.6010990142822266 l0.3171413764357567,3.3086249232292175 -0.03886748570948839,3.578805923461914 l-0.33187516033649445,4.1989898681640625 -0.6269343197345734,4.07065212726593 l-1.1108841001987457,3.1931349635124207 -0.9576497972011566,1.244903951883316 l-1.9145767390727997,0.9681008756160736 -2.7715450525283813,0.3849085792899132 l-2.32077956199646,-0.973338857293129 -1.5170922875404358,-1.5551960468292236 l-1.397562325000763,-3.2024332880973816 -0.5370656400918961,-4.89381343126297 l0.6261563301086426,-5.225744843482971 m7.951681017875671,2.638271152973175 l4.002272188663483,-1.0144233703613281 2.5857114791870117,-0.6791878491640091 l2.3624351620674133,-0.2900562807917595 m-9.213623404502869,3.733411133289337 l2.8994065523147583,0.5051395297050476 2.747597396373749,0.5703737214207649 l2.5583213567733765,0.5882355570793152 1.2782952189445496,0.2509937807917595 m-13.77770185470581,-3.627886176109314 l1.7681391537189484,0.5877659097313881 2.480291575193405,0.8953099697828293 l2.7034157514572144,0.7197602838277817 2.449389696121216,0.3918478637933731 m-9.750401973724365,-5.093756318092346 l-3.2875457406044006,-1.292131394147873 -4.228362739086151,-1.9962358474731445 l-1.7799091339111328,-0.5726246163249016 -1.678907424211502,-0.13173507526516914 m11.647740602493286,6.328549385070801 l-2.545062005519867,0.5288276076316833 -1.9713342189788818,1.4436382055282593 l-1.071339175105095,1.5225818753242493 -0.8779832720756531,2.7794966101646423 m85.71641548012849,-12.017878780898172 l-1.408945769071579,-2.3996348679065704 -1.784752905368805,-4.512056410312653 l-0.08543762378394604,-0.5875837430357933 0.32415900379419327,-0.18695415928959846 l1.107223555445671,0.6423293054103851 2.6039505004882812,3.1664085388183594 l1.918330192565918,2.9758253693580627 1.0982904583215714,1.0294537246227264 m1.0473532974720001,-0.024877898395061493 l1.1799988895654678,-0.8496715873479843 1.8217776715755463,-0.5439676716923714 l2.601003348827362,-0.006384563748724759 1.6664029657840729,0.6725266575813293 l1.7026667296886444,1.649773120880127 1.1841986328363419,2.534542977809906 l0.3284965455532074,3.038613200187683 0.0005030963802710176,2.656960189342499 l-0.4044901207089424,1.70391246676445 -1.0879779607057571,2.0705319941043854 l-1.0977642238140106,1.1776097118854523 -2.1156075596809387,1.2323267757892609 l-3.0228808522224426,0.6992094963788986 -2.930396795272827,-0.0007287051994353533 l-2.967351973056793,-1.0447635501623154 -1.887102872133255,-1.4405886828899384 l-1.8611904978752136,-2.819291651248932 -1.0008766502141953,-4.122892618179321 l0.2912973426282406,-3.964250683784485 0.8678716421127319,-1.7611926794052124 m5.365917682647705,6.24667763710022 l0.7849585264921188,3.3133506774902344 0.831713005900383,2.709774374961853 l0.8086606860160828,2.0471033453941345 1.0410451143980026,1.059214249253273 l1.5176397562026978,0.49039803445339203 m-3.407197594642639,-10.663989782333374 l3.9216348528862,-1.9869579374790192 2.5888434052467346,-0.7405513525009155 l2.506723403930664,-0.22076543420553207 m-8.331452012062073,4.2885008454322815 l3.8374289870262146,-0.40735285729169846 3.181290626525879,-0.3704981133341789 l2.4695436656475067,-0.14391091652214527 m-12.141560316085815,0.3989468142390251 l1.4573344588279724,0.1426298636943102 4.0715572237968445,1.2748482823371887 l2.6878631114959717,1.1711247265338898 2.0445862412452698,1.2741366028785706 m-12.581510543823242,-5.139674544334412 l-4.399964511394501,-0.6065419688820839 -2.549740970134735,-0.07500026375055313 l-3.7743133306503296,0.6136076524853706 -1.7450782656669617,0.9090927988290787 m13.00359845161438,1.0985160619020462 l-4.48881208896637,3.486921489238739 -1.8504923582077026,2.256423681974411 m80.88509858236648,-12.044156873889733 l-1.235334500670433,-2.1061307191848755 -1.1500836163759232,-3.905920386314392 l0.26483839377760887,-0.42855989187955856 1.063653975725174,0.13822401873767376 l1.8851856887340546,1.2994281947612762 1.9945667684078217,2.384025454521179 l1.5501327812671661,2.009150981903076 3.0600693821907043,-0.05616790149360895 m1.2913993000984192,-0.08728540502488613 l1.262519210577011,-1.2893551588058472 1.9322742521762848,-0.9650378674268723 l1.8006615340709686,-0.3399006649851799 2.252737730741501,0.3530764952301979 l2.148371934890747,1.5298709273338318 1.470356285572052,2.4671240150928497 l0.4045696556568146,1.862240582704544 0.0004999747034162283,2.1445994079113007 l-0.7822596281766891,2.6933681964874268 -1.0375546663999557,1.6349796950817108 l-2.0446480810642242,1.8003059923648834 -2.997375726699829,1.3787287473678589 l-2.2354917228221893,0.4023619741201401 -3.1797298789024353,-0.24387596175074577 l-5.005553364753723,-2.7402499318122864 -1.8567496538162231,-2.4747762084007263 l-1.0580295324325562,-3.4224024415016174 0.22774066776037216,-3.142455518245697 l0.8663687109947205,-1.7084896564483643 m5.912991166114807,6.016313433647156 l0.38449812680482864,3.1965574622154236 0.514102578163147,2.689703404903412 l0.7572107017040253,1.8000882863998413 1.182388961315155,0.569450631737709 l3.1572136282920837,-0.4323531314730644 m-5.066360831260681,-8.817132711410522 l0.8061619848012924,2.065996825695038 1.1030159890651703,2.2598429024219513 l1.1189842969179153,1.7229995131492615 m-4.071120023727417,-6.430447101593018 l3.5170382261276245,-2.199276089668274 2.7171632647514343,-0.9952718019485474 m-4.720293581485748,3.5708406567573547 l3.8430804014205933,-0.9252306073904037 3.6044344305992126,-0.993521586060524 l3.0890586972236633,-0.7264209538698196 m-12.463912963867188,3.204624056816101 l1.6786639392375946,0.23924876004457474 3.0182069540023804,0.0948805920779705 l5.420891642570496,-0.03056611167266965 2.2562386095523834,0.057520694099366665 m-14.637514352798462,-1.395224928855896 l-5.53507387638092,-0.3269609808921814 -3.2732978463172913,0.19091308116912842 l-2.924340069293976,0.8098374307155609 m85.20139657950494,-4.266691645316314 l-1.0423461347818375,-1.7396509647369385 -0.5501295253634453,-3.0556529760360718 l0.3627879172563553,-0.7383792102336884 1.646575778722763,1.3652832806110382 l2.213207483291626,2.5557565689086914 1.5914499759674072,1.3650183379650116 l2.635025382041931,0.48612501472234726 3.079656660556793,0.17492210492491722 l2.1977071464061737,-0.12590324506163597 0.5015116930007935,-2.420593649148941 l1.1649487912654877,-4.302669167518616 0.5539325252175331,-0.3620206192135811 l0.4169340804219246,0.37325210869312286 1.5739534795284271,4.9907004833221436 l1.3170301914215088,1.9055312871932983 2.3678280413150787,-0.3874918818473816 l2.0036780834198,0.01648966339416802 2.003716826438904,0.7231955230236053 l0.001621492556296289,2.7379444241523743 0.001612938940525055,3.340676724910736 l-0.42431097477674484,1.4880652725696564 -1.37494295835495,1.6487778723239899 l-2.826436161994934,1.5405875444412231 -2.3223964869976044,0.5264095962047577 l-6.073655486106873,-0.11386215686798096 -6.897684335708618,-2.8324490785598755 l-2.1095599234104156,-2.064298987388611 -1.271422952413559,-2.844291031360626 l0.07575732655823231,-2.7111265063285828 0.9088597446680069,-1.3645322620868683 m7.835491299629211,6.4089274406433105 l1.4918257296085358,-0.002880528918467462 2.6010581851005554,-0.2744930237531662 l2.5457292795181274,-0.5128436535596848 m-5.249149799346924,0.641341432929039 l3.427874445915222,-0.019288079347461462 3.6326196789741516,-0.2555759809911251 m-6.648598909378052,1.059698686003685 l4.148791134357452,0.9797970205545425 3.075527548789978,0.8266597241163254 m-10.795100927352905,-3.2590779662132263 l1.5310311317443848,1.1221510171890259 2.3371466994285583,1.1857131123542786 l2.749566435813904,1.0987745225429535 m-7.600759267807007,-4.455945193767548 l-4.1974687576293945,-0.28479503467679024 -4.830790758132935,-0.515814833343029 l-2.052372694015503,0.09546032175421715 -2.070997506380081,0.7301988452672958 m13.002015352249146,1.5825577080249786 l-3.544098436832428,1.0126172751188278 -2.3484493792057037,2.1207483112812042 l-1.05756476521492,1.9125483930110931 -0.47366004437208176,2.9036155343055725 " fill="none" stroke="black" stroke-width="1" /></svg>