<?xml version="1.0" encoding="utf-8" ?>
<svg baseProfile="full" height="88.77418940886855" version="1.1" width="827.5664595758008" xmlns="http://www.w3.org/2000/svg" xmlns:ev="http://www.w3.org/2001/xml-events" xmlns:xlink="http://www.w3.org/1999/xlink"><defs /><rect fill="white" height="88.77418940886855" width="827.5664595758008" x="0" y="0" /><path d="M25,25 m0.0,0.0 m28.552713840626893,18.590728395065526 l-2.3094482719898224,0.964353159070015 -2.699318826198578,2.443491518497467 l-0.9551913291215897,3.8192549347877502 -0.00013813144505547825,2.287740558385849 l1.0334181040525436,2.0091991126537323 1.4264987409114838,1.39690101146698 l1.9719654321670532,1.1119958013296127 3.6569902300834656,1.061830222606659 l4.801202118396759,-0.00033193864510394633 1.6895851492881775,-0.4195617511868477 l2.5809645652770996,-1.4883320033550262 1.3662497699260712,-1.6764923930168152 l0.6294620037078857,-1.821441799402237 0.0007014890434220433,-2.902393639087677 l-1.5418387949466705,-2.769724428653717 -1.7176932096481323,-1.6611649096012115 l-3.1528276205062866,-1.6116128861904144 -6.732567548751831,-0.9374193102121353 m-3.915477693080902,1.6228654980659485 l0.10934003628790379,-1.5483646094799042 1.04273222386837,-4.965923428535461 l1.7954359948635101,0.9433648735284805 2.9140573740005493,3.933233916759491 l2.0083698630332947,0.7008996605873108 m7.021377086639404,-0.2744101546704769 l5.586271286010742,-4.423893690109253 2.2986821830272675,-1.230274811387062 l0.048446496948599815,2.821960747241974 -0.8370058983564377,4.585321545600891 l-0.4553137347102165,2.5996655225753784 m-15.33595323562622,5.5174320936203 l0.0213271239772439,0.6410800665616989 -0.06839622277766466,1.9506891071796417 l0.17487859353423119,1.9820386171340942 0.5964770913124084,1.4933669567108154 l1.7553779482841492,1.86025932431221 2.1962735056877136,1.1500973999500275 l3.881142735481262,0.9124379605054855 4.4471365213394165,0.10532315820455551 l2.492409199476242,-0.6347039341926575 1.7325833439826965,-1.1064007878303528 l1.1332233995199203,-1.5499071776866913 0.5153000727295876,-1.7632393538951874 l-0.24973275139927864,-2.639411985874176 -0.9993548691272736,-1.6832146048545837 l-2.41189107298851,-1.9051320850849152 m-15.798370838165283,3.370039463043213 l6.619371175765991,1.371086835861206 17.871522903442383,1.571117788553238 l7.24859356880188,0.18174286931753159 m-29.344639778137207,-1.850828230381012 l14.560356140136719,3.026384711265564 10.062280893325806,1.6215915977954865 l6.653859615325928,0.7904736697673798 m-33.069233894348145,-7.549157738685608 l11.26179814338684,2.652476131916046 9.524476528167725,1.7000502347946167 m-24.03566598892212,-4.773680567741394 l-7.058711647987366,-0.26329969987273216 -9.184395670890808,0.05270867608487606 m16.243919134140015,1.8971702456474304 l-5.327094197273254,1.3022395968437195 -3.954840302467346,1.3672126829624176 m10.08225679397583,-1.1688722670078278 l-3.7215998768806458,5.054898262023926 m8.033996820449829,-11.575214862823486 l4.607442021369934,0.2526010386645794 m-1.0459183156490326,-0.20262738689780235 l3.689635694026947,1.30608469247818 m-2.6898446679115295,-0.4893512651324272 l3.413293957710266,1.706845462322235 m63.14121045437787,-14.451167343613633 l-2.2343823313713074,0.9448575973510742 -2.650950253009796,2.03707218170166 l-1.320853978395462,3.651612102985382 -0.00020263003534637392,2.5229990482330322 l0.39552561938762665,0.9906619787216187 2.025158107280731,2.3577111959457397 l1.2970173358917236,0.8848556131124496 4.204550385475159,1.636701375246048 l2.977961003780365,0.48540446907281876 4.640190899372101,-0.00032086627470562235 l1.6062942147254944,-0.40013447403907776 2.3908205330371857,-1.4262114465236664 l1.3390222191810608,-1.7089489102363586 0.6621181219816208,-1.8676075339317322 l0.0006467560160672292,-2.6488909125328064 -1.0887598246335983,-3.0004534125328064 l-1.3992533087730408,-1.8957385420799255 -1.796250194311142,-1.3792406022548676 l-7.231703996658325,-1.6780659556388855 -4.170191287994385,0.10559519752860069 l-1.3833670318126678,0.624261349439621 m-0.5766667798161507,4.414835870265961 l0.14901368878781796,2.115478664636612 0.4743722453713417,2.463448941707611 l0.9176667779684067,1.5415039658546448 1.2974363565444946,0.7713004946708679 m5.103940963745117,-7.1280646324157715 l0.7870535552501678,3.0872762203216553 1.0561154037714005,2.5795549154281616 l0.9059301018714905,1.3139492273330688 m-9.279085993766785,-2.417498677968979 l0.5162730067968369,0.34036990255117416 3.4274515509605408,2.3430144786834717 l4.097900986671448,1.3892121613025665 4.368745684623718,0.6564293056726456 l4.056527614593506,-0.27661290019750595 2.176978886127472,-0.8113352209329605 l1.3804958760738373,-1.0277478396892548 0.7399004697799683,-1.2077631801366806 l0.2703050710260868,-2.064686417579651 -0.5049102008342743,-1.5094241499900818 l-1.1042491346597672,-1.0977277159690857 -2.7334314584732056,-1.083986684679985 l-3.459676504135132,-0.12374933809041977 -7.367043495178223,0.9392967075109482 l-2.7336278557777405,1.0773257911205292 m0.25829602032899857,4.797448515892029 l1.92734494805336,0.9257050603628159 6.310949325561523,1.368599385023117 l8.127866387367249,0.9257999062538147 5.956564545631409,0.04107413813471794 l4.446924030780792,-0.842924639582634 2.133573591709137,-0.9498398005962372 m-30.495750904083252,-0.5121664702892303 l11.28141164779663,2.3405271768569946 10.189085006713867,1.5434461832046509 l6.668565273284912,0.9837043285369873 4.937701523303986,0.44080108404159546 m-35.07427930831909,-7.656790018081665 l0.3107614256441593,5.413989424705505 0.362044982612133,4.917027056217194 l0.3495022654533386,3.3411234617233276 m8.743192553520203,-13.046213388442993 l0.002899730170611292,6.94226861000061 0.029320844914764166,5.430839657783508 m7.485644221305847,-12.555301189422607 l0.22367218509316444,6.853246688842773 m5.313234925270081,-6.927069425582886 l0.3468472883105278,5.187956690788269 m4.035074412822723,-5.541564226150513 l0.3506191447377205,3.619924783706665 m3.1316810846328735,-3.9229097962379456 l0.2788563445210457,2.7946853637695312 m-23.507838249206543,-4.119133949279785 l-0.5064923316240311,0.8604472875595093 m2.1465766429901123,-0.6188067048788071 l0.0013102150114718825,-0.002175600820919499 m2.1227149665355682,-0.09780940599739552 l-0.0015471770893782377,-0.00207520613912493 m75.6419663264387,-5.640948655268403 l-2.0924700796604156,0.8760519325733185 -2.5434625148773193,1.5882495045661926 l-1.7606782913208008,2.8578442335128784 -0.5188225954771042,3.218284249305725 l0.22087113931775093,0.9482529759407043 0.5296952649950981,0.7052858173847198 l3.006821870803833,2.1683402359485626 3.76555472612381,1.8582002818584442 l2.915363609790802,0.8377770334482193 4.297574162483215,0.531633235514164 l3.5386329889297485,1.9354188225406688e-05 1.438247412443161,-0.3643937408924103 l2.161012589931488,-1.4309266209602356 1.2626494467258453,-1.738773137331009 l0.8749645948410034,-3.108014762401581 0.000724254859960638,-2.5684627890586853 l-0.609082505106926,-1.975538432598114 -1.1166789382696152,-1.6764283180236816 l-1.6748760640621185,-1.3860109448432922 -3.3977320790290833,-1.472776085138321 l-4.484695196151733,-0.8398061245679855 -4.478211402893066,-0.0007305797043954954 l-1.6849136352539062,0.9530854225158691 m-1.0048368573188782,7.372074127197266 l-0.12510571628808975,3.2433727383613586 -0.015197122702375054,3.1600698828697205 l0.47651980072259903,1.7675015330314636 0.6294386088848114,0.5070743709802628 l2.772417962551117,0.32014690339565277 m6.988922357559204,-8.458763360977173 l0.48100724816322327,3.9329925179481506 0.6545510143041611,3.584446907043457 l0.6866926699876785,1.9059142470359802 0.8397740870714188,0.7195385545492172 l1.508719027042389,0.2762758918106556 m-14.089727401733398,-8.686992526054382 l0.4345075786113739,0.3655705973505974 1.9817641377449036,1.4536333084106445 l3.5069701075553894,1.2092653661966324 3.9240360260009766,0.434633307158947 l4.114573299884796,-0.3473209962248802 2.0656874775886536,-0.8212077617645264 l1.1538294702768326,-0.9764876961708069 0.4790560156106949,-1.08330599963665 l-0.10292645543813705,-1.7609618604183197 m-17.932322025299072,-0.21992821246385574 l-0.17543692141771317,0.5359858274459839 0.45630834996700287,1.8795894086360931 l1.351352483034134,1.6943012177944183 1.9040925800800323,1.0533633083105087 l2.4398069083690643,0.5239240825176239 6.335820555686951,-0.0004921487925457768 l4.805358648300171,-1.1168662458658218 2.0218387246131897,-1.0599634796380997 l1.0704661905765533,-1.1861524730920792 0.6639435887336731,-1.999712884426117 l-0.13042313046753407,-1.4545945823192596 m-21.437020301818848,1.818140596151352 l-0.7772690057754517,3.1713736057281494 -0.41583627462387085,3.4226733446121216 l0.3212844580411911,0.8310849964618683 1.0184313356876373,0.580827035009861 l9.613864421844482,0.7215195149183273 10.028157234191895,0.0634507043287158 l4.993388652801514,-0.5568374320864677 0.281036663800478,-3.070124089717865 l-0.4199327528476715,-4.101606607437134 m-23.520162105560303,0.8940544724464417 l-0.49943894147872925,3.1926164031028748 m9.085078835487366,-3.253318965435028 l-0.04198014736175537,4.11620020866394 m-7.172316908836365,-0.9175928682088852 l-0.257522277534008,2.950197458267212 m6.394514441490173,-3.164624273777008 l-0.08191299624741077,3.8276460766792297 m-5.587473511695862,-3.5601800680160522 l-0.14134353026747704,2.542446553707123 m0.375213623046875,-1.907678097486496 l-0.1087246835231781,1.8827955424785614 m-0.4502856358885765,-2.458355873823166 l-0.12604144401848316,1.9287127256393433 m2.5994953513145447,-2.24432036280632 l-0.10932473465800285,2.2063910961151123 m-0.7930313795804977,-2.4475309252738953 l0.009563821949996054,1.2145183980464935 m-3.733479678630829,-1.719457358121872 l-0.003244105610065162,-0.0012977093865629286 m1.5754647552967072,0.7354413717985153 l-0.0018403588910587132,-0.0011991851351922378 m86.26406805884471,-16.6981401766634 l-1.8880391120910645,0.7867877930402756 -2.2717851400375366,1.1306826770305634 l-1.5826448798179626,1.5402153134346008 -2.7242764830589294,4.607993066310883 l-0.05825205706059933,0.877903550863266 0.38555894047021866,0.7116744667291641 l2.59123295545578,1.927361786365509 2.364480495452881,1.057157814502716 l5.0284188985824585,1.4591783285140991 4.888455271720886,0.8899152278900146 l4.0694379806518555,5.5154337132989895e-05 1.5213097631931305,-0.27614183723926544 l2.2638122737407684,-1.10470712184906 1.4460496604442596,-1.3780070841312408 l0.90666763484478,-1.6576161980628967 0.0005970477650407702,-2.6523444056510925 l-0.5797282233834267,-1.6439120471477509 -1.6989728808403015,-2.500130832195282 l-1.8595488369464874,-1.7369960248470306 -2.18421071767807,-1.2870049476623535 l-3.857566714286804,-1.22087761759758 -4.251817464828491,-0.49381546676158905 l-3.987920582294464,0.4437125474214554 -1.4719343185424805,0.7645948976278305 m-0.15005574561655521,10.40480375289917 l-0.4305126890540123,4.391212165355682 -0.38512546569108963,3.950785994529724 l0.12752417474985123,2.7351558208465576 0.6054410338401794,1.8223237991333008 l0.6373629719018936,0.5703907459974289 1.6780208051204681,0.420871339738369 l6.163803339004517,0.09093639440834522 6.604437828063965,-0.20178377628326416 l3.9269104599952698,-0.6005582958459854 1.4367394149303436,-0.6875386089086533 l0.7092022150754929,-0.9832840412855148 0.46508003026247025,-8.13392460346222 l-0.3540463373064995,-4.149935245513916 m-19.576278924942017,4.096628725528717 l0.34142158925533295,2.8272706270217896 0.6072377040982246,1.473219096660614 l0.960245355963707,0.7467453181743622 1.8083421885967255,0.28900329023599625 l1.2736599147319794,-0.4992896318435669 0.6814855337142944,-1.0616032034158707 l0.5738311260938644,-2.0130351185798645 0.19640769809484482,-0.7198773324489594 m5.778604745864868,0.12891926802694798 l0.151743208989501,2.784428894519806 0.5711319297552109,0.7405197620391846 l1.0202214121818542,0.3119572252035141 1.7022614181041718,-0.4041606932878494 l0.9583541750907898,-1.0251501947641373 0.3341902419924736,-1.2758517265319824 l-0.24880249053239822,-1.0969922691583633 m-15.969195365905762,-0.9883145242929459 l-0.4008552059531212,2.3288466036319733 0.060023898258805275,1.6292645037174225 l0.5946255847811699,0.8911381661891937 1.2115627527236938,0.49671683460474014 l2.3896238207817078,-0.060483827255666256 1.5444384515285492,-0.7986781746149063 l0.8575484156608582,-1.2461155652999878 0.41231848299503326,-2.1638913452625275 m-4.948522448539734,-2.6994487643241882 l-0.12308506295084953,3.016580641269684 -0.024327565915882587,1.6616190969944 l0.34067485481500626,0.8875464648008347 1.2377024441957474,0.5644391477108002 l2.7565446496009827,-0.09278007782995701 3.4821149706840515,-1.3678088784217834 l1.46772101521492,-1.345343440771103 m-9.78983223438263,-3.7838611006736755 l10.777974128723145,0.37913911044597626 m-7.737693190574646,-0.550052747130394 l11.025196313858032,0.46047285199165344 m-13.213351964950562,-0.5424922332167625 l8.578837513923645,0.8188656717538834 8.538390398025513,0.5136889591813087 m-17.635544538497925,-3.6470142006874084 l-8.677533864974976,-0.8360908925533295 -10.172253847122192,-0.6769374758005142 m17.66801357269287,2.7380388975143433 l-5.667741298675537,0.6597854197025299 -5.099927186965942,0.8585995435714722 m12.365623712539673,-0.15025888569653034 l-3.444267511367798,1.410449594259262 -4.241110682487488,1.7956255376338959 m13.910267353057861,-8.518945574760437 l8.236387968063354,-0.6197543069720268 6.204960346221924,-0.6653647124767303 m-14.22296404838562,3.1959733366966248 l9.90211308002472,1.3018172979354858 m-9.366156458854675,0.4828904941678047 l7.384262681007385,1.8993538618087769 m-16.448956727981567,-8.552377223968506 l-0.008439626544713974,-0.0037961630732752383 m2.9904478788375854,-0.25247545912861824 l-0.0006067787398933433,-0.00173594118678011 m78.66709931917285,-2.793876523514882 l-1.644422560930252,0.653846338391304 -1.773570477962494,0.7033885270357132 l-1.1492730677127838,0.7489660382270813 -5.665724277496338,4.391762018203735 l-0.4554268717765808,0.6731191277503967 -0.0013472686987370253,1.1176879703998566 l1.2539510428905487,2.0548151433467865 2.521161437034607,2.093189060688019 l2.3878127336502075,1.2917070090770721 5.549935698509216,1.926572471857071 l3.443344831466675,0.6262489408254623 4.895198047161102,-6.594460955966497e-05 l1.8016579747200012,-0.3172975778579712 2.6980921626091003,-1.239098310470581 l1.7100277543067932,-1.5145890414714813 1.0654164105653763,-1.7765747010707855 l0.5273623391985893,-1.9757585227489471 0.0007856713637011126,-2.540842890739441 l-0.6079325079917908,-2.0740102231502533 -1.1262626945972443,-1.848815530538559 l-1.6537204384803772,-1.6284744441509247 -2.1492837369441986,-1.2869445979595184 l-3.789409101009369,-1.1872673779726028 -4.637320637702942,-0.5206386744976044 l-4.092579483985901,-0.0009822998254094273 -3.270077109336853,0.9268137812614441 m0.2772616222500801,11.820002794265747 l-0.4460391402244568,4.3889424204826355 -0.3044290281832218,3.260757029056549 l0.07255621254444122,2.1311725676059723 0.44099263846874237,0.7080617547035217 l1.4588330686092377,0.7161945849657059 6.131187677383423,0.8028469979763031 l6.354299783706665,0.2873297594487667 4.403118789196014,-0.30204227194190025 l1.6283757984638214,-0.5847888812422752 0.8623843640089035,-0.918181762099266 l0.6464133411645889,-2.252790480852127 -0.10453364811837673,-5.5764806270599365 l-0.8500515669584274,-3.330236077308655 m-17.32597589492798,1.4124967157840729 l-0.26704203337430954,2.214309126138687 0.2456609345972538,1.0866566747426987 l0.5679089576005936,0.40070198476314545 1.2248755246400833,-0.20687732845544815 l0.6049535796046257,-1.7937245965003967 -0.4824637994170189,-1.16240493953228 l-1.259247213602066,-0.3015291504561901 m8.356536626815796,0.71089006960392 l-0.5581118538975716,2.413736879825592 0.37365205585956573,0.6446049362421036 l0.9537581354379654,0.26209723204374313 1.5543833374977112,-0.5574943497776985 l0.3215078264474869,-0.669168084859848 -0.24726437404751778,-1.314038634300232 l-0.7744893431663513,-0.8302898705005646 m-9.175796508789062,1.406872570514679 l-0.05524120759218931,3.489471971988678 0.5070657655596733,0.5940089002251625 l1.4874964952468872,0.18384117633104324 1.1964848637580872,-0.5647256970405579 l0.6571266800165176,-1.0785796493291855 0.08731183595955372,-1.7405657470226288 l-0.5399113893508911,-1.0121125727891922 m-6.208564043045044,0.1416495069861412 l-0.06892798468470573,3.7484419345855713 0.03200938692316413,1.443425863981247 l0.298372320830822,0.6747950613498688 0.9036014229059219,0.27277499437332153 l2.0609192550182343,-0.4900667071342468 1.3939331471920013,-1.1119785904884338 l0.6270851194858551,-1.382923573255539 m-2.4572329223155975,-4.718323647975922 l7.66587495803833,0.3735416382551193 7.1868860721588135,-0.10256434790790081 l7.010908722877502,-0.1834389567375183 m-17.532182931900024,0.8237818628549576 l10.998135805130005,1.027994230389595 8.2125985622406,0.7047104090452194 l6.128597259521484,0.7571513205766678 m-30.40306568145752,-3.639518618583679 l8.62031638622284,1.2727124989032745 9.155963063240051,1.0560231655836105 l7.843694686889648,1.0161656141281128 m-31.103198528289795,-3.750757575035095 l-8.245533108711243,-0.5038963630795479 -10.152074098587036,-0.3093218430876732 l-3.1825923919677734,0.11210130527615547 m20.024781227111816,2.5002747774124146 l-7.208695411682129,1.1168982833623886 -4.764070510864258,1.2444103509187698 l-2.5399070978164673,1.1713343858718872 m14.69856858253479,-1.4994622766971588 l-4.5827516913414,1.714569330215454 -3.919881284236908,2.0032887160778046 l-1.7700648307800293,1.4489448070526123 m17.497246265411377,-11.596037149429321 l5.598349571228027,-0.01564244506880641 m-1.593765765428543,0.11193912476301193 l5.059359073638916,0.712929368019104 m-3.962126672267914,0.1615900732576847 l3.9964404702186584,1.487625539302826 m-3.579433262348175,-0.6571103632450104 l3.083827495574951,1.5505565702915192 m-3.6033740639686584,-0.9347323328256607 l2.878504991531372,1.7303206026554108 m72.60877698776312,-11.498010486793646 l-1.3492515683174133,0.5194588005542755 -1.460266262292862,0.33284489065408707 l-0.9767889976501465,0.3977019712328911 -7.880945205688477,2.7730950713157654 l-3.418836295604706,1.567552387714386 -0.3028811700642109,0.5496319755911827 l0.20785832777619362,0.85344597697258 2.2577883303165436,2.6005107164382935 l2.8702756762504578,2.38270565867424 2.479676604270935,1.4665433764457703 l3.946036696434021,1.6623574495315552 4.80794370174408,1.293269693851471 l5.238827466964722,0.6825191527605057 3.843371272087097,0.00028191036108182743 l2.411571741104126,-0.6359820067882538 1.8472670018672943,-1.138983741402626 l1.3328537344932556,-1.5523716807365417 1.1769603937864304,-2.9667839407920837 l0.3294103592634201,-2.5161772966384888 -0.15356948599219322,-2.354627549648285 l-0.6979666650295258,-2.182515859603882 -1.1887768656015396,-1.9906075298786163 l-1.6698132455348969,-1.7454443871974945 -2.1302473545074463,-1.3686209917068481 l-2.556597590446472,-0.9198565781116486 -4.273277819156647,-0.6519973278045654 l-4.679010808467865,-0.0009785210568225011 -2.96749085187912,0.908365473151207 l-1.3568799197673798,0.9667859226465225 m1.1281132698059082,12.921931743621826 l-0.5816668272018433,3.6243578791618347 -0.45801278203725815,2.218964248895645 l0.20517278462648392,1.2557883560657501 0.7509909570217133,0.812988355755806 l1.8258212506771088,0.646330863237381 2.8005164861679077,-0.0409587612375617 l1.6508518159389496,-0.7374919205904007 1.0006165504455566,-1.2201500684022903 l0.6116968020796776,-2.4636100232601166 0.0009995570871978998,-2.8289705514907837 m1.9696217775344849,1.560390442609787 l0.40220238268375397,2.9051294922828674 0.873958095908165,1.4793173968791962 l1.7231853306293488,0.9595207124948502 2.1443234384059906,0.25402361527085304 l1.1965658515691757,-0.5420533195137978 1.09052874147892,-1.6801717877388 l0.40141258388757706,-2.5899681448936462 m-14.116342067718506,-6.9178348779678345 l-0.6777624040842056,1.830889880657196 -0.4472796618938446,0.8031871914863586 l-0.4197004437446594,0.732409879565239 -0.32083384692668915,0.5857761204242706 l-0.1979028806090355,0.36266040056943893 0.10806608945131302,0.07699843496084213 l0.7078347355127335,-0.4883718490600586 m7.926347255706787,-2.593470513820648 l-0.16257751733064651,2.499336898326874 0.4408859834074974,0.7465812563896179 l0.7774385809898376,0.19048741087317467 0.4852720722556114,-1.3838770985603333 l-0.6510179489850998,-0.7973575592041016 m-8.946537375450134,-3.376593291759491 l-0.2562030591070652,2.1526502072811127 0.4057623818516731,0.616074725985527 l1.387411653995514,0.2219536155462265 0.46338506042957306,-0.5499197542667389 l-0.03583355573937297,-1.0557316988706589 -0.5988519638776779,-0.9100666642189026 m5.236351490020752,0.43008964508771896 l-0.16266494989395142,1.687348186969757 0.5879523977637291,0.46552248299121857 l1.6410437226295471,-0.0003089826350333169 0.3418932110071182,-1.1500662565231323 l-0.6128324195742607,-0.48409704118967056 m-7.633048892021179,-1.789337694644928 l-3.7224984169006348,-0.5346548184752464 -7.244330048561096,-1.1414002627134323 l-7.629024982452393,-1.3861629366874695 -5.7723987102508545,-1.1650403589010239 l-1.8431822955608368,-0.1874368079006672 -1.9646991789340973,0.2985773980617523 m20.99703311920166,5.00307023525238 l-4.545077383518219,0.7187014073133469 -8.888429999351501,1.6601836681365967 l-3.185754120349884,1.0896765440702438 -1.408102810382843,0.9410207718610764 m19.871000051498413,-2.475229799747467 l-3.0569666624069214,1.4543357491493225 -2.3837365210056305,1.5564309060573578 l-3.0220744013786316,2.5740066170692444 -1.3063330948352814,1.711449921131134 m25.957372188568115,-11.841729879379272 l11.32455587387085,-0.5276358872652054 6.265639066696167,-0.39804354310035706 l2.557615637779236,0.05397895351052284 m-19.739989042282104,4.08430814743042 l6.017445921897888,0.44321246445178986 6.823038458824158,0.6634245067834854 l4.915761947631836,0.8433037996292114 m-18.099350929260254,0.5455556884407997 l10.42751431465149,3.303709030151367 4.693119823932648,1.8642902374267578 m-22.735702991485596,-11.485307216644287 l7.258199453353882,1.9492805004119873 4.9891117215156555,1.1939510703086853 m-10.462589263916016,-2.3040299117565155 l5.324032306671143,2.246576100587845 m-3.8766372203826904,-1.3393084704875946 l2.2822174429893494,0.736948773264885 m-1.7565597593784332,-0.2683287300169468 l1.9004607200622559,0.5794666334986687 m76.9536857393905,-6.444823316851398 l-1.0495894402265549,0.3577512130141258 -1.136394813656807,-0.014122555730864406 l-0.932471826672554,0.07428084500133991 -9.986644387245178,0.7337051630020142 l-5.2893513441085815,1.00557841360569 -0.6638314574956894,0.433451309800148 l-0.32515037804841995,1.8751774728298187 0.5328749865293503,2.9292622208595276 l1.5774686634540558,2.6446372270584106 2.3286548256874084,2.3865583539009094 l2.2240157425403595,1.5832149982452393 3.7693434953689575,1.8305109441280365 l4.846794605255127,1.4702042937278748 5.816914439201355,0.9179742634296417 l5.236862897872925,0.00041134331695502624 1.8005608022212982,-0.4514307901263237 l2.5838589668273926,-1.520947515964508 1.6681572794914246,-1.8910583853721619 l1.00881926715374,-2.1454961597919464 0.570531077682972,-3.454269766807556 l0.0004686136162490584,-2.992728054523468 -0.5275440961122513,-2.361293286085129 l-0.9845000505447388,-2.085082232952118 -1.4007607102394104,-1.787262111902237 l-1.8462300300598145,-1.4760984480381012 -2.3484094440937042,-1.0865253955125809 l-3.9864522218704224,-0.8354644477367401 -4.225843846797943,-0.0009970769315259531 l-3.8478392362594604,0.9636091440916061 -1.7256750166416168,1.0177425295114517 m-0.3447432816028595,13.452448844909668 l-0.5487192794680595,2.9256874322891235 -0.27676546946167946,1.813075691461563 l0.350845530629158,0.6393249332904816 1.257590651512146,0.48526275902986526 l2.217424213886261,-0.12158163823187351 1.2741048634052277,-0.7979580014944077 l0.519307404756546,-1.2012981623411179 -0.058687212876975536,-1.2552079558372498 l-0.9636083990335464,-1.522877812385559 m7.679751515388489,0.4136921837925911 l-0.044869715347886086,2.5986248254776 0.5162132903933525,0.8032093942165375 l1.5776459872722626,0.5331197753548622 1.9899533689022064,-0.39279352873563766 l0.9331421554088593,-1.0437032580375671 0.3078252635896206,-1.853223443031311 l-0.47703027725219727,-1.2665191292762756 m-12.93948769569397,-5.065582990646362 l-0.5101215466856956,2.1445800364017487 -0.30982039868831635,1.0913791507482529 l0.12892256490886211,0.6406570225954056 0.6058281660079956,0.22106945514678955 l1.264265924692154,-0.4359573870897293 0.45456379652023315,-1.8572601675987244 l-0.7622094452381134,-1.0532385855913162 m6.142658591270447,0.5364153906702995 l-0.3453710675239563,2.3611341416835785 0.605425201356411,0.8389756083488464 l1.09344020485878,0.22744262591004372 0.8629981428384781,-0.4937349259853363 l0.40736865252256393,-1.0197124630212784 -0.165583286434412,-1.0458669811487198 m-9.061623215675354,-3.0858728289604187 l-0.4296853393316269,2.204228788614273 0.012670221040025353,0.9000036120414734 l0.4277898371219635,0.41684340685606003 1.111687794327736,-0.0736076571047306 l0.5408207327127457,-1.6547791659832 -0.7197292894124985,-0.8769427984952927 l-1.4422285556793213,-0.1306718122214079 m-0.5260797217488289,-2.0942139625549316 l-3.0762243270874023,0.04656601697206497 -3.873215615749359,0.35806700587272644 l-3.2484853267669678,0.28496067970991135 -1.6036705672740936,0.4783306270837784 l-0.7513254880905151,0.7319558411836624 -0.057968078181147575,0.9102582186460495 l0.8385683596134186,0.8934328705072403 1.7940202355384827,0.6175655871629715 l3.9762964844703674,0.2525767683982849 5.605369210243225,-0.2849777415394783 l5.949594974517822,-0.807979479432106 4.729165136814117,-0.8828806132078171 l1.5893006324768066,-0.7911722362041473 m-16.105459928512573,-1.0576751828193665 l2.4664777517318726,0.41173044592142105 4.963540732860565,0.29946157708764076 l6.267397403717041,-0.09575864300131798 5.137163996696472,-0.41265878826379776 m-16.25654697418213,-2.3358045518398285 l3.8856086134910583,0.2674862742424011 6.183736324310303,0.19037656486034393 l6.160102486610413,0.06390360649675131 m-18.282793760299683,-1.3766252994537354 l4.480663239955902,0.4391033574938774 5.73427140712738,0.3463248535990715 l5.954389572143555,0.15497668646275997 m-16.42246723175049,-1.6853214800357819 l-5.902745723724365,-0.2598981559276581 -6.605216860771179,-0.06101176608353853 l-2.5608909130096436,0.20492080599069595 m14.468315839767456,0.983840748667717 l-4.9295759201049805,1.0880684107542038 -3.3136147260665894,1.077742651104927 m9.31974470615387,-0.938514769077301 l-2.7195921540260315,1.3298018276691437 -2.739081382751465,1.6486991941928864 l-1.414271891117096,1.2614627182483673 m12.17373251914978,-9.36074435710907 l5.519539713859558,-0.2936127595603466 4.1784995794296265,-0.35554103553295135 m-8.157624006271362,1.4463701844215393 l6.016908884048462,0.9139512479305267 m-5.14052152633667,0.23445842787623405 l4.7297826409339905,1.6991177201271057 m79.11791540846025,-1.8790702041223994 l-0.7034586369991302,0.2081526629626751 -0.7721684128046036,-0.326969213783741 l-0.8846602588891983,-0.31439412385225296 -9.84326720237732,-1.3487237691879272 l-8.347977995872498,-0.1792236976325512 -1.0054755210876465,0.35547904670238495 l-1.1587801575660706,1.8402226269245148 -0.4040173068642616,2.770405411720276 l0.6270883977413177,3.007621467113495 1.6402919590473175,2.7314385771751404 l1.7625847458839417,1.868935078382492 3.3394813537597656,2.3711851239204407 l4.406485557556152,2.0797814428806305 5.0855642557144165,1.5496131777763367 l7.574750185012817,1.085187867283821 2.076076865196228,-0.10603293776512146 l3.067304491996765,-0.9652800858020782 2.1235890686511993,-1.418076753616333 l1.5883025527000427,-1.7911511659622192 1.0421652346849442,-2.1100731194019318 l0.6897134333848953,-3.5031157732009888 0.0004425808947416954,-3.207639455795288 l-0.5718379467725754,-2.3819155991077423 -1.0189058631658554,-2.1210408210754395 l-1.3763755559921265,-1.8185119330883026 -1.797964721918106,-1.4974337816238403 l-2.1877768635749817,-1.06465645134449 -2.628343403339386,-0.6727639585733414 l-4.0898120403289795,-0.23464685305953026 -4.122207462787628,0.7585077732801437 l-2.0349645614624023,1.0065101087093353 m-1.459278166294098,13.537412881851196 l-0.5559143424034119,2.5341632962226868 -0.19319528713822365,1.4123329520225525 l0.4395492747426033,0.48445772379636765 1.343877911567688,0.050415731966495514 l1.0613388568162918,-2.1313896775245667 -0.09043846279382706,-1.4842849969863892 l-1.2209605425596237,-0.4001675546169281 m9.19137418270111,0.9774863719940186 l-0.33663272857666016,2.1323570609092712 0.5942656099796295,1.4364524185657501 l1.1177106946706772,0.5807390809059143 1.6375155746936798,-0.178549624979496 l0.899360403418541,-0.8929207921028137 0.2879692427814007,-1.1999290436506271 l-0.3480474278330803,-1.1392339318990707 -1.354774385690689,-1.2100540846586227 m-9.413673877716064,-4.461816251277924 l-0.4080912470817566,2.043737918138504 -0.08292353712022305,0.7388581335544586 l0.16645487397909164,0.5108201503753662 0.6006991490721703,0.08510980755090714 l0.4898609593510628,-1.8838192522525787 -0.7251380383968353,-0.5919181182980537 m5.057235956192017,0.12171334587037563 l-0.414380244910717,2.002968192100525 0.281227994710207,0.5453497171401978 l1.1426123976707458,-0.00020492429030127823 0.37459731101989746,-1.4313368499279022 l-0.597732700407505,-0.5107786878943443 m-7.613668441772461,-2.3703061044216156 l-0.6380440294742584,0.4195268824696541 -0.3963366523385048,1.1556165665388107 l0.4285649210214615,0.44411834329366684 0.978090688586235,6.975376891205087e-05 l0.32460611313581467,-1.1307558417320251 -0.585392601788044,-0.39936602115631104 m0.9417232125997543,-0.9323497861623764 l-0.10904698632657528,1.2806233763694763 0.13752318918704987,0.3885035216808319 l0.6419720500707626,-0.00020573568690451793 0.16074145212769508,-0.8804086595773697 l-0.5707409605383873,-0.3412378951907158 m-2.6529473066329956,-1.3098838925361633 l-2.95903742313385,-0.5496334657073021 -5.676552057266235,-0.6487064063549042 l-5.590702295303345,-0.5087601765990257 -2.24423885345459,0.05776864476501942 l-1.3590063154697418,0.42256448417901993 -0.8443757146596909,0.7977096736431122 l-0.34249715507030487,1.065993681550026 0.3300980105996132,1.0902267694473267 l1.160876676440239,0.9237212687730789 1.906195878982544,0.650583952665329 l4.22406405210495,0.4554952308535576 8.765950798988342,-0.9116765111684799 l6.6770583391189575,-0.49938634037971497 5.9954833984375,-0.2083572931587696 l5.154012441635132,-0.23731132969260216 3.683769702911377,-0.2596728317439556 l2.9612529277801514,-0.44993504881858826 m-27.050912380218506,-0.151048693805933 l2.8556928038597107,0.16049284487962723 5.379862189292908,0.15338446013629436 l5.673905611038208,0.07722238078713417 4.357459545135498,-0.11133254505693913 l3.2996350526809692,-0.3057517297565937 m-22.031466960906982,-2.404213845729828 l-0.8256082981824875,0.6750441342592239 -1.2009699642658234,1.6739335656166077 l-0.80584816634655,1.5481308102607727 m7.352297306060791,-3.8422423601150513 l0.3639109805226326,2.346656620502472 0.2596478909254074,1.4710113406181335 m4.6489909291267395,-4.243587255477905 l0.481799952685833,3.062902092933655 m-7.120686173439026,-3.728501796722412 l-0.25487935170531273,1.1639449745416641 -0.26467639952898026,1.030312404036522 m3.128330707550049,-2.464592009782791 l0.24134837090969086,2.0740512013435364 m91.79815038425659,-1.6391380644495257 l-0.4132494330406189,0.055518862791359425 -0.4496702551841736,-0.6554339081048965 l-0.702449232339859,-0.7039805501699448 -7.407739162445068,-5.011411905288696 l-10.935479402542114,-1.7107702791690826 -3.031257688999176,0.6196610629558563 l-1.6722959280014038,1.0692384839057922 -1.1087218672037125,1.3483403623104095 l-0.8524942398071289,2.5582608580589294 -0.0005952119317953475,2.9536184668540955 l1.4511480927467346,3.3224469423294067 1.808227151632309,2.371954470872879 l3.344385027885437,2.982245981693268 4.527106285095215,2.819150686264038 l5.132474899291992,2.221459299325943 5.402761697769165,1.3643504679203033 l4.002980589866638,2.7139417397847865e-05 2.775106132030487,-0.6870110332965851 l2.197604924440384,-1.2030121684074402 1.750633716583252,-1.657564640045166 l1.8867775797843933,-3.197490870952606 0.7514621317386627,-2.8657397627830505 l0.0002882358785427641,-3.2111889123916626 -0.5733682215213776,-2.563888728618622 l-1.0504107177257538,-2.2205914556980133 -1.4453327655792236,-1.9405780732631683 l-1.7636530101299286,-1.521407812833786 -2.1516624093055725,-1.1414218693971634 l-2.4323993921279907,-0.6978638470172882 -3.766236901283264,-0.2577074430882931 l-3.829478621482849,0.6501032412052155 -1.7366844415664673,0.8384431898593903 m-1.2603110074996948,12.854998111724854 l-0.3875880315899849,1.8600285053253174 -0.2970616891980171,0.662568062543869 l-0.170843917876482,0.44143911451101303 0.025988901033997536,-0.009684287942945957 l0.2818681299686432,-0.8186327666044235 0.10177114978432655,-0.7405494898557663 l-0.23379094898700714,0.18052194267511368 m5.055805444717407,-0.11036817915737629 l0.19803497940301895,1.2171872705221176 0.23176509886980057,0.30347054824233055 l0.28296560049057007,-0.9326880425214767 -0.43652579188346863,-0.4105471819639206 l-0.6100898236036301,0.2652622386813164 m-3.1588003039360046,-6.035348176956177 l0.0006548430246766657,1.0813888907432556 0.02783674979582429,0.38723472505807877 l0.13588282279670238,-0.5642502009868622 -0.2540207467973232,-0.3577807545661926 l-0.31533561646938324,0.23726798593997955 -0.014177788980305195,-0.0941680371761322 m0.46940717846155167,-2.660699188709259 l0.3569134324789047,1.36636421084404 0.184075478464365,-0.016970550641417503 l-0.00800776353571564,-0.3570517525076866 -0.22328974679112434,-0.05282482132315636 l-0.13968822546303272,0.09242945350706577 m-0.06856326945126057,-2.505834400653839 l2.786194086074829,-0.6000035256147385 2.7568089962005615,-0.547604002058506 l3.6024627089500427,-0.42562898248434067 1.353626698255539,0.11886286549270153 l1.1925043910741806,0.5557261407375336 1.0192379355430603,1.1336153745651245 l0.5532936006784439,1.4687548577785492 -0.24642076343297958,1.4996372163295746 l-0.9949079155921936,0.8270108699798584 -4.188420474529266,1.2391536682844162 l-8.216619491577148,0.1471192017197609 -2.573397159576416,-0.6509160995483398 m-0.7705849409103394,-5.280874967575073 l-4.594550430774689,-0.9559401869773865 -4.627120792865753,-0.7019028067588806 l-3.0640336871147156,0.1934969797730446 -1.4310471713542938,0.6867337226867676 l-1.1482714861631393,1.5481546521186829 -0.1987227238714695,1.2832285463809967 l0.6766419112682343,1.0172764956951141 1.6016501188278198,0.8179859071969986 l3.6106833815574646,0.6204111129045486 4.154792129993439,0.32494258135557175 l3.7104520201683044,0.08259334601461887 3.194724917411804,-0.04795225802809 l2.463860362768173,-0.20008495077490807 m-3.9816728234291077,-4.876803159713745 l-1.0145201534032822,-0.1149513479322195 -2.8045809268951416,-0.130490493029356 l-1.3394474983215332,0.14215347357094288 -1.2092110514640808,0.5540673807263374 l-0.5515005066990852,0.827450156211853 0.1586253009736538,0.8411362022161484 l0.9564921259880066,0.6732595711946487 2.514747977256775,0.42807314544916153 m7.299437522888184,-2.5393998622894287 l4.107556045055389,-1.024988368153572 3.0607467889785767,-0.7544875890016556 l2.091529965400696,-0.11970610357820988 1.7154239118099213,0.5446857586503029 m-8.616473078727722,2.3060546815395355 l5.719975829124451,-0.2622970752418041 3.1499075889587402,0.024931556545197964 m-8.776586651802063,1.5055698156356812 l5.2689290046691895,0.59445820748806 3.426576554775238,0.5549695715308189 m-18.58862280845642,-5.626667141914368 l-3.777998387813568,-0.46730712056159973 -2.083747535943985,0.09785116650164127 l-2.0999327301979065,0.6123579666018486 m100.46673741542918,4.746752174855828 l-0.09726409800350666,-0.09641259908676147 -0.023003623355180025,-1.1852873116731644 l-1.6655129194259644,-6.253331303596497 -7.605820298194885,-2.7257689833641052 l-4.958455860614777,-0.07344150450080633 -3.8906672596931458,0.7581155002117157 l-1.3682490587234497,0.6567683070898056 -2.462688237428665,2.728119194507599 l-0.7291990518569946,1.9327598810195923 -3.1008733003545785e-05,2.9914793372154236 l1.4624567329883575,3.5269683599472046 2.730073630809784,3.488903045654297 l2.3808425664901733,2.1050623059272766 5.8931344747543335,3.463601768016815 l3.289232850074768,1.2413407862186432 7.1208256483078,1.2480517476797104 l4.253228306770325,7.328825176955434e-05 2.6400506496429443,-0.7277391105890274 l1.9403918087482452,-1.2404657900333405 1.530277580022812,-1.7513267695903778 l1.4100012183189392,-3.2050448656082153 0.506930872797966,-4.051858186721802 l0.00011734723557310645,-3.2418614625930786 -0.5523280426859856,-2.4596166610717773 l-1.0012014955282211,-2.1136850118637085 -1.388416737318039,-1.8130028247833252 l-1.8382468819618225,-1.4948108792304993 -2.2655263543128967,-1.1008692532777786 l-2.4446718394756317,-0.6346531212329865 -3.7846192717552185,-0.12035148218274117 l-3.872824013233185,0.825890526175499 -1.7397494614124298,0.8826616406440735 m-1.465897560119629,13.99770736694336 l-0.4574315994977951,0.1908964291214943 -0.47377970069646835,0.6182222068309784 l0.2070276439189911,0.21611209958791733 0.3260112553834915,-1.0146022588014603 l-0.5520418658852577,-0.06420999299734831 -0.21708356216549873,0.8552674204111099 l0.466393381357193,-0.6713338941335678 -0.28888944536447525,-0.26769476011395454 m5.245105624198914,0.30023425817489624 l0.14476435258984566,0.8268426358699799 0.1524585671722889,-0.0046342844143509865 l-0.1556428149342537,-0.6628954410552979 -0.6278221309185028,-0.17692366614937782 m-2.449682205915451,-4.995527267456055 l0.000161364132509334,0.4796994477510452 -0.05313626956194639,-0.043296702206134796 l-0.1902819611132145,-0.1611301675438881 -0.1639612764120102,0.22231122478842735 l-0.10830365121364594,-0.12833349406719208 0.0010855716391233727,0.11848635040223598 l0.1549240294843912,0.18670592457056046 0.05270884372293949,0.04036060534417629 l-0.0007011409616097808,-0.6778156012296677 -0.21353879943490028,0.4716538265347481 m0.4409162327647209,-0.4947356507182121 l2.4395330250263214,-1.4834043383598328 2.6186683773994446,-1.2067249417304993 l2.465524822473526,-0.6336990743875504 1.207992434501648,0.07314125541597605 m-9.040655493736267,3.240959048271179 l0.17649266868829727,-0.1886228285729885 1.530061960220337,0.47905292361974716 l4.7462791204452515,2.0243296027183533 2.5763562321662903,1.1740820854902267 l1.8727031350135803,1.2353423982858658 0.8790819346904755,0.8252616971731186 l0.4236777126789093,0.8682554960250854 -0.37187378853559494,0.9697459638118744 l-1.7752255499362946,1.0682787001132965 -3.41825008392334,0.8042532205581665 l-4.355924725532532,-0.0004822537812287919 -2.895500659942627,-1.0791993886232376 l-1.7090530693531036,-1.2921008467674255 -0.7546065747737885,-1.3054029643535614 l-0.02750847488641739,-1.3397923111915588 m-0.46672746539115906,-6.764615774154663 l-4.032769501209259,-1.025092452764511 -2.224787622690201,-0.45614808797836304 l-2.255750000476837,-0.15348886139690876 -2.248588502407074,0.41555408388376236 l-1.152956262230873,0.8417583256959915 -0.4194197803735733,0.9979821741580963 l0.3132966533303261,0.9634581953287125 1.1773508787155151,0.7619337737560272 l4.378812611103058,0.9711761027574539 3.0093342065811157,0.3118687681853771 l2.8758504986763,-0.37592098116874695 1.2827849388122559,-0.7457472383975983 m0.30754828825592995,-5.896369814872742 l-3.0367156863212585,-1.630350798368454 -1.6636762022972107,-0.701432004570961 l-1.6280949115753174,-0.7318296283483505 -1.7060568928718567,-0.7243883609771729 l-1.8412244319915771,-0.6098630651831627 m13.687149286270142,4.373806416988373 l3.7782898545265198,-2.191176414489746 3.274446129798889,-1.4227120578289032 l1.9044975936412811,-0.3973495215177536 m-5.3458088636398315,4.5086869597435 l1.050475463271141,-0.40389284491539 3.326171636581421,-0.6622378528118134 l2.8712815046310425,-0.1976928859949112 " fill="none" stroke="black" stroke-width="1" /></svg>