<?xml version="1.0" encoding="utf-8" ?>
<svg baseProfile="full" height="90.20452218130231" version="1.1" width="818.5271335346624" xmlns="http://www.w3.org/2000/svg" xmlns:ev="http://www.w3.org/2001/xml-events" xmlns:xlink="http://www.w3.org/1999/xlink"><defs /><rect fill="white" height="90.20452218130231" width="818.5271335346624" x="0" y="0" /><path d="M25,25 m0.0,0.0 m21.221574323717505,17.900827086996287 l6.8112969398498535,-0.05507445428520441 14.018620252609253,0.40993664413690567 l-0.33265504986047745,1.4748652279376984 -0.04036355298012495,5.296044945716858 l0.3229442238807678,4.564721584320068 0.7135148346424103,3.6592072248458862 l9.767723083496094,0.16453271731734276 6.380890607833862,-0.07218271493911743 l6.592755913734436,-0.17109254375100136 0.1334210392087698,-3.3638113737106323 l-0.7643184810876846,-8.498955965042114 -1.0294274240732193,-4.317740499973297 l-11.204471588134766,-0.662970170378685 -13.123141527175903,0.5871889367699623 l-8.73835027217865,0.5918170139193535 -1.7003054916858673,0.21035999059677124 m11.635175943374634,8.03555428981781 l5.087430477142334,-0.17883481457829475 8.574522733688354,-0.20863613113760948 l7.980532646179199,-0.14895888976752758 m-21.675992012023926,-0.2469330094754696 l6.306441426277161,0.04501836374402046 9.09380853176117,0.015121479518711567 l9.342668652534485,-0.12308265082538128 m-25.10908603668213,-2.131255865097046 l-1.504281610250473,2.4824492633342743 -1.2785360217094421,5.022559762001038 l-0.3938068076968193,3.2808679342269897 17.092370986938477,-0.4487698897719383 m-6.421816945075989,-14.367804527282715 l-1.7290128767490387,3.884754478931427 -1.1754388362169266,5.447021126747131 l-0.6611523032188416,3.064712882041931 8.106141686439514,-1.4064033329486847 l-1.106833592057228,-6.283599138259888 -6.75462543964386,-2.712351083755493 m-4.642006456851959,2.1418635547161102 l-6.6893720626831055,-2.0044811069965363 m65.74152874061838,-5.441555205907207 l4.251324236392975,-0.2862833999097347 9.392126202583313,0.38743022829294205 l-0.4592231288552284,2.0646777749061584 -0.1835336722433567,5.427558422088623 l0.2802702598273754,5.168277025222778 0.4217967763543129,3.8758912682533264 l1.2043172866106033,0.5603105947375298 8.440426588058472,0.1782129518687725 l9.713892340660095,0.291767455637455 7.148561477661133,0.20070763304829597 l-1.5731173753738403,-7.837018966674805 -1.2037066370248795,-5.632464289665222 l-9.863821268081665,-2.207857519388199 -12.983976602554321,-0.9516271948814392 l-8.002341389656067,-0.05745284724980593 -1.8595053255558014,0.23083530366420746 m10.53681492805481,9.02664303779602 l2.0271702110767365,-0.21092796698212624 7.33953058719635,-0.2707498148083687 l7.8277504444122314,-0.10449993424117565 6.529399752616882,-0.07227119989693165 m-22.936108112335205,-0.7155488431453705 l5.873732566833496,-0.0006144220242276788 16.309152841567993,-0.26397764682769775 l8.323653936386108,-0.06608232390135527 m-31.741976737976074,-1.2998375296592712 l-1.3655956089496613,2.100130170583725 -1.4921185374259949,5.339709520339966 l-0.5532857403159142,3.9689168334007263 9.010102152824402,-0.5675015598535538 l15.224285125732422,-1.3309505581855774 -0.45580293983221054,-5.243663787841797 l-1.2796474993228912,-4.989376366138458 -11.179991960525513,-0.03408381948247552 m-0.9419923275709152,1.8965806066989899 l-0.2784162759780884,3.216487467288971 -0.4074918106198311,4.1790154576301575 l6.4917802810668945,-1.103544756770134 m66.26557298470289,-16.208976363705005 l1.9804489612579346,-0.5181720107793808 3.8657596707344055,0.48803839832544327 l-0.10129597038030624,3.362572193145752 -0.5967342481017113,4.755750894546509 l-0.2087453007698059,3.899947702884674 -0.07738972548395395,3.3392348885536194 l0.46212539076805115,0.7925258576869965 5.742006897926331,0.7605906575918198 l10.126699209213257,1.1681842803955078 8.553033471107483,0.8631198108196259 l0.24796370416879654,-2.688165307044983 -3.488743007183075,-6.7513322830200195 l-8.682562112808228,-3.310060203075409 -9.946711659431458,-1.496402770280838 l-6.639866232872009,-1.2455204874277115 -4.621589779853821,-0.7473893463611603 l-0.8147354423999786,-0.4434894025325775 m16.281977891921997,6.422182321548462 l2.7473559975624084,-0.25614814832806587 6.810072660446167,-0.34400302916765213 l7.632753252983093,-0.07614861708134413 5.836504697799683,0.16643138602375984 m-24.073972702026367,1.983153373003006 l4.618965983390808,0.015435109380632639 8.689324855804443,0.2486724592745304 l9.125001430511475,0.4669782519340515 7.144147753715515,0.5144605785608292 m-29.852004051208496,-3.196050524711609 l-1.2932944297790527,0.8313296735286713 -7.320435047149658,6.240196228027344 l-10.334200859069824,3.952041268348694 -6.661997437477112,1.924983561038971 l-3.753151297569275,0.1733376644551754 -1.7706289887428284,-1.8297672271728516 l-1.6737346351146698,-10.295618772506714 2.8220847249031067,-3.3287572860717773 l8.833801746368408,-1.8546085059642792 m21.27960205078125,0.4277338832616806 l0.6066698953509331,2.7833032608032227 0.9273184090852737,3.539201021194458 l1.1077241599559784,1.722751259803772 m62.775510963983834,-13.748893415322527 l0.23982834070920944,-0.6297361850738525 0.29535485431551933,0.23773768916726112 l-1.3239306211471558,2.2490599751472473 -3.539065420627594,6.958209276199341 l-0.5595158785581589,2.887517809867859 -0.037040323950350285,2.600308060646057 l0.2373717539012432,2.764456868171692 0.47198720276355743,2.7203285694122314 l0.8804675191640854,2.3478667438030243 19.475674629211426,1.506175696849823 l6.83211624622345,0.11953845620155334 0.5136476084589958,-0.48768576234579086 l-0.11326046660542488,-6.48004412651062 -1.4256967604160309,-7.867586016654968 l-1.5276426076889038,-6.56632661819458 -8.012226819992065,-1.3426956534385681 l-9.066835641860962,-0.36768481135368347 -2.2002652287483215,0.2423987165093422 m7.498570680618286,3.1165337562561035 l2.7492350339889526,-0.0932434480637312 5.885329246520996,-0.15169521793723106 l5.513584613800049,0.16950951889157295 5.158718824386597,0.3782976418733597 l3.9363649487495422,0.6708323210477829 3.2352545857429504,0.9143100678920746 l1.926722526550293,1.1480425298213959 m-32.2447395324707,1.1726737022399902 l6.7111968994140625,0.049874139949679375 21.485013961791992,0.168940257281065 l7.906187176704407,0.30490878969430923 m-39.72137928009033,-2.809537649154663 l-5.696185827255249,-1.4577284455299377 -8.722335696220398,-2.671254575252533 l-2.9344025254249573,-1.0428954660892487 -2.2577297687530518,-1.018219068646431 l1.6390116512775421,3.9939850568771362 1.735156923532486,4.487864375114441 l2.1205636858940125,3.282792568206787 1.1179303377866745,0.5708378180861473 l7.788024544715881,0.6951972097158432 m15.900492668151855,-7.525036334991455 l1.0107045620679855,2.061111629009247 1.2527766823768616,2.563178241252899 l1.2674029171466827,1.8177291750907898 m69.3770551495254,-10.487390151247382 l-1.2648193538188934,-0.8324655890464783 -1.0193315893411636,0.14636049047112465 l-6.038227677345276,2.6258236169815063 -3.2981282472610474,2.9212069511413574 l-0.8721707761287689,1.8514899909496307 -0.1822408102452755,5.27021050453186 l0.5972655862569809,3.0683672428131104 0.7536923140287399,2.4875696003437042 l0.796063095331192,2.406129688024521 0.7821288704872131,1.8877431750297546 l3.470534086227417,3.1577247381210327 21.547882556915283,1.2085042148828506 l4.754922688007355,-0.663912370800972 0.4007788375020027,-0.6017030403017998 l-1.8503661453723907,-7.449347376823425 -4.883002936840057,-7.16797947883606 l-5.2165549993515015,-4.725867509841919 -2.3879115283489227,-1.596592664718628 l-4.8050349950790405,-1.581856608390808 m-8.819888234138489,2.496461570262909 l0.3247349336743355,-0.128640653565526 2.3914769291877747,-0.18040603026747704 l4.251047670841217,-0.02666049636900425 9.230092763900757,0.23044541478157043 l4.857329726219177,0.25315050035715103 3.8534319400787354,0.4371277242898941 l2.877274453639984,0.6854254752397537 m-25.041022300720215,1.6927982866764069 l3.8941359519958496,0.19435834139585495 16.027919054031372,-0.07816191762685776 l7.447406053543091,0.17902694642543793 m-27.59606122970581,-0.49266546964645386 l0.12800139375030994,-0.23220747709274292 0.8671890944242477,-0.9310546517372131 l7.283029556274414,-6.820479035377502 7.006872296333313,-5.565235018730164 l1.1188285797834396,7.643254995346069 0.8149638772010803,4.606821835041046 l0.22633401677012444,2.387773096561432 -0.43873682618141174,1.0380079597234726 m-15.112829208374023,-0.5400298908352852 l-1.5207701921463013,-2.6086419820785522 -4.194185733795166,-3.4123167395591736 l-0.5202842131257057,3.864133059978485 0.571540929377079,3.0606451630592346 m88.50693291420612,-10.38947254884988 l-2.6904332637786865,-1.002623736858368 -2.4144214391708374,0.0711594196036458 l-7.095264196395874,2.2208891808986664 -2.373354882001877,1.751374751329422 l-1.0435736924409866,1.585693359375 -0.6736231595277786,3.963315784931183 l0.0004623944914783351,4.757279753684998 0.3591534495353699,2.7920493483543396 l0.42217832058668137,2.315627783536911 0.4598839208483696,1.9032908976078033 l1.1503604799509048,1.1927742511034012 19.38058853149414,1.9918754696846008 l8.86086106300354,0.17471708357334137 0.46827685087919235,-0.5159757658839226 l-1.0314443707466125,-6.3427746295928955 -4.27965372800827,-6.959174871444702 l-5.0944143533706665,-4.9478912353515625 -2.0441311597824097,-1.485879123210907 m-13.63721489906311,1.8637114763259888 l-0.5180223658680916,-0.18736997619271278 -1.1360471695661545,-0.1703263446688652 l-1.138448715209961,-0.16281981021165848 -2.666296660900116,0.18674926832318306 l-1.4291021227836609,0.47648705542087555 -1.559840738773346,1.2158400565385818 l-0.6361342221498489,1.3154898583889008 0.03384428797289729,1.4283040165901184 l0.9165330231189728,1.3146336376667023 1.8498069047927856,1.0784389823675156 l8.186922669410706,1.3801249861717224 10.03819227218628,1.0166219621896744 m-2.6952674984931946,-6.213587522506714 l10.941886901855469,-0.6971557438373566 7.005491852760315,-0.17313335090875626 l5.6829071044921875,0.2509758435189724 m-26.06724739074707,2.9757654666900635 l10.848473310470581,-1.6980835795402527 6.716043949127197,-0.6850461661815643 l4.868665337562561,-0.2850460819900036 3.456893563270569,-0.25116341188549995 l2.291366755962372,-0.26646049693226814 1.3074058294296265,-0.5807721614837646 l2.9501786828041077,-4.396073222160339 -0.3403244912624359,-2.2574299573898315 l-1.5764804184436798,-2.171735465526581 -1.7016135156154633,-1.0567810386419296 l-12.893542051315308,0.06434321869164705 -8.602978587150574,1.3455268740653992 m86.20574778697119,1.8250314709985105 l-4.168441593647003,-1.138516515493393 -4.118208289146423,-0.01711204880848527 l-5.609709024429321,1.3065876066684723 -3.103649318218231,1.7455247044563293 l-1.6008895635604858,1.6842451691627502 -1.3545022904872894,2.920685112476349 l-0.46559911221265793,3.6929935216903687 -0.00027585478164837696,4.032444357872009 l0.3537629544734955,1.0731136053800583 1.5716169774532318,1.6819752752780914 l7.947676181793213,3.4495529532432556 7.63120174407959,1.4988517761230469 l6.238319277763367,-0.0005552071161218919 -0.5154827982187271,-4.3128833174705505 l-1.8509511649608612,-2.0825164020061493 -4.349650740623474,-2.988712191581726 l-2.708333432674408,-1.614239513874054 m-8.308355212211609,-7.618405222892761 l-0.6067770719528198,0.05207355134189129 -2.0588870346546173,1.1046114563941956 l-1.7433245480060577,1.1689544469118118 -2.0065678656101227,2.1641452610492706 l-0.7297108322381973,1.8434955179691315 -0.044459966011345387,2.487824559211731 l0.46140365302562714,0.8986815065145493 1.9888371229171753,1.393968015909195 l4.34702068567276,1.3797397911548615 8.448591828346252,-0.00032719872251618654 l6.581171154975891,-0.5899618566036224 2.569376230239868,-0.7590712606906891 l1.2936152517795563,-1.0385474562644958 0.8184979856014252,-2.047775983810425 l-0.3304446116089821,-3.9499369263648987 -7.493680715560913,-2.7653667330741882 m-14.363768100738525,-1.404920220375061 l9.585260152816772,-2.2591349482536316 10.98012089729309,-2.6618820428848267 m-18.786559104919434,4.6374353766441345 l5.64753532409668,-1.2285667657852173 4.325318336486816,-0.7400312274694443 l4.309137165546417,-0.35147763788700104 2.9468342661857605,0.02182132564485073 l2.6506468653678894,0.47110069543123245 2.0720432698726654,1.0573040693998337 l1.5557542443275452,1.780700534582138 0.12595359236001968,2.6611104607582092 l-1.1262363195419312,2.010660320520401 -2.3173750936985016,1.6910824179649353 l-10.955662727355957,0.7010340690612793 -3.7272286415100098,-0.37053637206554413 l-1.9904251396656036,-0.7833703607320786 m88.61679153109435,-5.338774476640538 l-5.730761885643005,-1.221836656332016 -6.01157546043396,-0.08194305934011936 l-5.108320116996765,1.1112261563539505 -3.1698039174079895,1.667862981557846 l-1.6263969242572784,1.5110097825527191 -1.5104763209819794,2.72752583026886 l-0.5731527507305145,3.3262616395950317 -0.00023145752493292093,3.4527036547660828 l0.38664206862449646,1.105366125702858 1.6678443551063538,1.7641155421733856 l5.507022142410278,2.7502277493476868 8.475063443183899,1.6599462926387787 l6.31371796131134,0.6195537745952606 -0.7998969405889511,-2.1484586596488953 l-2.0159870386123657,-1.4610907435417175 -5.124388337135315,-2.420470118522644 l-2.486080676317215,-1.0399573296308517 -2.3340104520320892,-0.49758080393075943 m1.1402713507413864,-8.390163779258728 l0.6534694135189056,0.10752996429800987 2.7511602640151978,1.5127837657928467 l3.4980040788650513,1.5933290123939514 3.796374499797821,1.4762315154075623 l3.5313886404037476,1.1474478244781494 3.240668475627899,0.8460692316293716 l3.064582645893097,0.5178089067339897 2.6507338881492615,0.012542600743472576 l1.263137012720108,-0.41824832558631897 1.6819845139980316,-1.9915278255939484 l0.41863635182380676,-1.842254400253296 -0.5551484599709511,-2.6160800457000732 l-1.390206515789032,-1.8604680895805359 -1.9864369928836823,-1.3245083391666412 l-6.334563493728638,-2.100408673286438 -11.8783700466156,-1.238606572151184 m-4.848484396934509,5.410673022270203 l0.2266457863152027,-2.5466689467430115 1.9321802258491516,-6.650660037994385 l2.1371906995773315,-3.8661855459213257 1.4388415217399597,0.9150496125221252 l2.338685691356659,5.775927305221558 1.740199625492096,4.116978049278259 m-1.6527536511421204,3.3975008130073547 l6.0064297914505005,-0.11698274873197079 3.917582631111145,-0.3435204178094864 l3.657819628715515,-0.26689985767006874 2.4286648631095886,-0.1131946686655283 l1.8009813129901886,0.01776132732629776 1.3448084890842438,0.2818949334323406 l-8.247689038398676e-05,0.9323420375585556 -1.17513008415699,1.5185251832008362 l-1.516408771276474,0.9044249355792999 -5.109816193580627,1.292547732591629 l-8.607081770896912,0.42171720415353775 m83.12105804927342,-8.874508533772314 l-7.401004433631897,-1.2234076112508774 -8.575214147567749,-0.17274774610996246 l-4.285011291503906,0.9775810688734055 -2.8115683794021606,1.4674043655395508 l-1.6002598404884338,1.438375860452652 -1.0532157868146896,1.7470014095306396 l-0.7368621975183487,2.847490608692169 -0.00027038506232202053,3.845617175102234 l0.8088643848896027,2.9215019941329956 1.1508628726005554,1.6718128323554993 l1.7890101671218872,1.1510029435157776 11.266396045684814,2.2575363516807556 l7.136247158050537,0.5936848744750023 0.12382170185446739,-0.8581001311540604 l-4.059727191925049,-2.1843664348125458 -2.4907073378562927,-1.0858281701803207 l-2.8984642028808594,-0.6924835592508316 -2.7301108837127686,-0.01026927842758596 l-2.1953748166561127,0.7865838706493378 -0.9184866398572922,0.9558863937854767 l-0.39332740008831024,1.9903115928173065 0.541127398610115,1.2770885229110718 l1.1939451098442078,0.8820393681526184 2.6745808124542236,0.7031083106994629 l4.541716575622559,0.00022219624952413142 2.1270722150802612,-0.7211992889642715 l1.1397717893123627,-1.040998175740242 m5.3126221895217896,-2.666063606739044 l2.367473989725113,0.11514328420162201 3.073110282421112,0.1593117043375969 l3.191797137260437,0.15287283807992935 2.5714650750160217,-0.140009056776762 l1.7597521841526031,-0.5778219178318977 0.9086017310619354,-0.9076333045959473 l0.5648056045174599,-1.9122245907783508 -0.350099615752697,-2.767794132232666 l-1.6293889284133911,-2.7775999903678894 -1.663338840007782,-1.4423947036266327 m-20.15739917755127,-5.63407301902771 l-0.08247743360698223,-5.1809316873550415 0.5341622233390808,-4.509242475032806 l1.3242387771606445,-1.7533081769943237 1.6372980177402496,-0.7878132909536362 l1.7876595258712769,-0.11565935797989368 2.4657119810581207,0.9288233518600464 l2.581642270088196,2.3571553826332092 1.924111396074295,3.5598698258399963 l1.3662393391132355,6.1373937129974365 m-12.83927321434021,4.035722315311432 l-0.29440533369779587,2.1137583255767822 -0.051862080581486225,1.949654221534729 l0.5290107429027557,1.161145567893982 1.079280525445938,0.6755208969116211 l2.976801097393036,-0.0004021064887638204 1.265210509300232,-1.9188977777957916 l0.07740742992609739,-1.8476781249046326 -0.5833426490426064,-1.3886657357215881 l-1.7149917781352997,-1.3880686461925507 m90.97074587392854,-6.455426779893969 l-9.000651836395264,-1.1571388691663742 -10.86581826210022,-0.15364191494882107 l-3.5470223426818848,0.7696785032749176 -2.4041159451007843,1.3435646891593933 l-1.5365102887153625,1.4078129827976227 -1.4684377610683441,2.4270425736904144 l-0.735873281955719,2.876608371734619 -0.0003666899283416569,2.800317108631134 l0.748225748538971,1.7305663228034973 1.4151006937026978,1.3459156453609467 l9.564558863639832,3.3105862140655518 5.296511650085449,0.8980081975460052 l3.035469949245453,0.31483884900808334 -1.1296653002500534,-1.771993637084961 l-1.8564574420452118,-1.1083652079105377 -1.914525032043457,-0.6333152204751968 l-4.3250879645347595,-0.17467018216848373 -1.5561522543430328,0.5793023109436035 l-1.2988266348838806,1.7042683064937592 -0.25573331862688065,1.5520985424518585 l0.44980112463235855,1.2618915736675262 1.1050277948379517,0.9632981568574905 l2.669000029563904,0.9448101371526718 3.7221312522888184,0.11931860819458961 l1.8687106668949127,-0.6546656787395477 1.197199523448944,-1.0511383414268494 l0.9976188093423843,-2.026282697916031 m-1.5660683810710907,-14.09685730934143 l1.9272935390472412,-0.7218912243843079 3.4587275981903076,-1.0069365054368973 l3.9843127131462097,-0.5131606385111809 3.4596258401870728,0.00022169288058648817 l1.671450436115265,0.5591724440455437 1.627052128314972,1.4859242737293243 l0.6522015482187271,1.3318352401256561 0.10806716047227383,2.1272820234298706 l-1.4706099033355713,2.3495034873485565 -2.772780954837799,1.917201280593872 l-3.688913583755493,1.1519726365804672 -3.7506186962127686,-0.000483899493701756 l-1.8874330818653107,-0.5760971456766129 m-4.323081374168396,-11.844607591629028 l0.23514196276664734,-3.0558788776397705 0.9394962340593338,-2.0090967416763306 l2.221052646636963,-2.071743607521057 2.03060120344162,-0.8662787079811096 l2.6910051703453064,-0.3294306620955467 2.859448790550232,0.5384035035967827 l2.4734964966773987,1.5980549156665802 1.6773808002471924,2.463141083717346 l0.6355594843626022,2.8563743829727173 -1.1611513793468475,1.998106986284256 l-1.1907309293746948,0.7984015345573425 m-10.657122135162354,-2.721436023712158 l-0.7796401530504227,-0.09379138238728046 -0.8865483105182648,0.2918202802538872 l-1.0516596585512161,1.0968805104494095 -0.2768639102578163,1.231430321931839 l0.5880378931760788,1.0142793506383896 1.3601545989513397,0.7253914326429367 l2.8173571825027466,0.4167688265442848 2.934124767780304,-0.47875605523586273 " fill="none" stroke="black" stroke-width="1" /></svg>