<?xml version="1.0" encoding="utf-8" ?>
<svg baseProfile="full" height="89.19086966863688" version="1.1" width="820.249580622185" xmlns="http://www.w3.org/2000/svg" xmlns:ev="http://www.w3.org/2001/xml-events" xmlns:xlink="http://www.w3.org/1999/xlink"><defs /><rect fill="white" height="89.19086966863688" width="820.249580622185" x="0" y="0" /><path d="M25,25 m0.0,0.0 m32.81823908910155,35.20457820035517 l4.789962470531464,2.475326806306839 8.015727996826172,0.1624145358800888 l4.212146699428558,-0.4292916879057884 3.5766437649726868,-0.8827226608991623 l4.640450179576874,-2.0131915807724 2.8950822353363037,-2.033357471227646 l1.609409898519516,-2.022671699523926 0.5456214025616646,-2.059992104768753 l-0.6979610025882721,-3.143269419670105 -2.9170995950698853,-3.530816435813904 l-3.1127089262008667,-2.171163111925125 -3.4977036714553833,-1.4854064583778381 l-3.8248905539512634,-0.7987529784440994 -5.806747078895569,-0.16334986314177513 l-5.332837700843811,1.069716289639473 -4.686703979969025,2.20178484916687 l-3.5836344957351685,2.8641173243522644 -1.6301831603050232,2.091016173362732 l-1.3420149683952332,3.3092424273490906 -0.19415739923715591,2.388189136981964 l0.584358461201191,2.1167178452014923 1.2834398448467255,1.761268526315689 l1.8677972257137299,1.4082691073417664 2.234344333410263,0.8824028074741364 l3.7652242183685303,0.5094383284449577 4.600304663181305,-0.29219044372439384 m0.9257113933563232,-11.80040955543518 l0.11569362133741379,2.1497444808483124 0.5652539059519768,2.9748576879501343 l0.9420385956764221,2.695434093475342 1.1486700177192688,1.4313539862632751 l1.554112434387207,0.8014488965272903 3.0459463596343994,0.42102284729480743 l3.621165454387665,-0.5604979395866394 2.1732279658317566,-1.0977043211460114 l1.3240107893943787,-1.3402368128299713 0.5792614817619324,-1.5271487832069397 l-0.13344529084861279,-2.5659900903701782 -0.9555307030677795,-1.8771331012248993 l-1.4401257038116455,-1.3326795399188995 -1.9645905494689941,-0.8871593326330185 l-3.7127506732940674,-0.6017433106899261 -5.4928672313690186,1.0662959516048431 m0.4122190549969673,0.7667397707700729 l1.0237905383110046,-0.46462349593639374 2.7862730622291565,-0.6389798223972321 l3.0464589595794678,-0.4175588861107826 2.8094482421875,0.16018880531191826 l1.5805064141750336,0.6067057326436043 1.4721736311912537,1.3201628625392914 l0.6340083479881287,1.201629564166069 0.10980713181197643,1.0633780807256699 l-0.4549749940633774,0.8661533147096634 -1.7477098107337952,1.2319567054510117 l-2.020217180252075,0.6733765453100204 -3.3276021480560303,0.34715622663497925 l-3.7769469618797302,-0.44701967388391495 -1.697789877653122,-0.9697334468364716 l-0.7644287496805191,-1.1583700776100159 0.021093597169965506,-1.331985592842102 l1.0475697368383408,-1.2902460992336273 m70.95152042427799,5.539132179692388 l4.459829926490784,2.0186424255371094 6.235590577125549,-0.1873178593814373 l3.4557372331619263,-0.622081346809864 2.7875298261642456,-0.9322966635227203 l3.5713323950767517,-1.9613245129585266 2.1605227887630463,-1.9380372762680054 l1.4066170156002045,-2.8612080216407776 0.00039013713831081986,-2.778420150279999 l-2.833057940006256,-2.6409223675727844 -3.173680305480957,-1.4921209216117859 l-3.591628074645996,-0.9467078000307083 -5.49608588218689,-0.49346692860126495 l-4.237906038761139,0.6637220829725266 -4.236895143985748,1.8396680057048798 l-2.1006491780281067,1.4828316867351532 -2.468658983707428,2.68070250749588 l-1.0587049275636673,2.15732142329216 -0.4643559455871582,3.085107207298279 l0.4376044124364853,2.309799939393997 1.1380283534526825,1.8210849165916443 l1.6549356281757355,1.3379324972629547 2.1185414493083954,0.9169167280197144 l3.711943030357361,0.5610721185803413 4.031427800655365,-0.00027647518436424434 l4.34950053691864,-0.9428670257329941 2.4765075743198395,-1.1184602975845337 m-8.112812042236328,-10.715006589889526 l-0.13166489079594612,2.5617793202400208 0.19454363733530045,3.1327518820762634 l0.7008793205022812,2.8950130939483643 1.05654776096344,1.6263285279273987 l1.470499187707901,1.0514430701732635 1.8709363043308258,0.5418765544891357 l3.004767894744873,0.0025242066476494074 2.0795385539531708,-0.7385700941085815 l1.4763964712619781,-1.207549199461937 0.9442471712827682,-1.5867342054843903 l0.5019813403487206,-2.885414958000183 -0.4239530488848686,-2.1377646923065186 l-1.5934085845947266,-2.441042512655258 -1.8711230158805847,-1.3696064054965973 l-2.106553465127945,-0.6917218118906021 -3.367365002632141,-0.15510313212871552 l-3.6772167682647705,1.984485387802124 m1.743980050086975,0.9109000116586685 l-0.2670719660818577,-0.218635406345129 -0.09094769135117531,-0.17157809808850288 l0.5118958652019501,-0.3487926721572876 1.7472979426383972,-0.4563532769680023 l3.0584999918937683,-0.16614263877272606 1.9641828536987305,0.38656286895275116 l1.9320444762706757,1.1685751378536224 0.8425541967153549,1.0927745699882507 l0.19500302150845528,0.978158563375473 -0.32275471836328506,0.8382609486579895 l-1.4514841139316559,1.1543218046426773 -1.609841138124466,0.5791192501783371 l-2.8124547004699707,0.21847624331712723 -2.054847925901413,-0.5383529886603355 l-1.261206567287445,-0.9287808835506439 -0.5391501635313034,-1.1445609480142593 l0.2073853462934494,-1.24918133020401 1.1258485913276672,-1.0597354173660278 m74.54622254706919,1.5040389584100922 l3.9500918984413147,1.4458270370960236 4.159533679485321,-0.41051365435123444 l2.7344802021980286,-0.6389868259429932 2.037091702222824,-0.9471917152404785 l2.5528484582901,-1.9536317884922028 2.11647167801857,-2.8476640582084656 l0.49005813896656036,-2.020760029554367 -0.72195865213871,-2.57159024477005 l-1.509559452533722,-1.1609581857919693 -6.1113440990448,-1.7952266335487366 l-5.082928538322449,-0.20040081813931465 -3.762688636779785,0.7890785485506058 l-3.522677421569824,1.797187328338623 -1.7968763411045074,1.574016511440277 l-1.7315998673439026,2.65116810798645 -0.6319238245487213,2.210872173309326 l-0.06762715987861156,2.135518044233322 0.6300508230924606,1.9424904882907867 l1.236121952533722,1.607595980167389 1.8116569519042969,1.3377133011817932 l2.1571482717990875,0.8504670113325119 3.576432466506958,0.5152178183197975 l3.5213756561279297,-0.0002702751226024702 2.422879636287689,-0.5144185200333595 l1.8501588702201843,-0.8874812722206116 1.4329995214939117,-1.2165894359350204 l0.9609183669090271,-1.4921177923679352 0.5946261435747147,-2.5544512271881104 l-0.3446974605321884,-2.910749912261963 -1.0232844948768616,-1.644817590713501 l-1.4009597897529602,-0.9552880376577377 m-10.637738704681396,7.61499285697937 l-0.26323238387703896,4.280272126197815 0.09317629039287567,3.9606380462646484 l0.7166164368391037,2.3749397695064545 1.1428729444742203,1.2446585297584534 l1.5271581709384918,0.6604937463998795 2.5635358691215515,0.11894893832504749 l1.8764519691467285,-0.6557204574346542 1.360270380973816,-1.065671220421791 l0.8864103257656097,-1.4196069538593292 0.5305588245391846,-2.759288251399994 l-0.6627406924962997,-5.2077049016952515 -1.3217322528362274,-1.9998720288276672 m-6.665332317352295,-2.3211197555065155 l-2.3262399435043335,-0.9971558302640915 -1.781049519777298,-0.5529499426484108 l-1.9608275592327118,-0.2596311457455158 -1.9207820296287537,0.3201160579919815 l-1.1390464007854462,0.7823685556650162 -0.6382571905851364,1.1341936141252518 l-0.10509130544960499,1.283772736787796 0.47940652817487717,1.2813913822174072 l1.0616061836481094,1.0326796770095825 1.5334293246269226,0.7125435769557953 l2.592736780643463,0.37116486579179764 1.3449528813362122,-0.06802358664572239 l1.4820559322834015,-0.5662667378783226 0.935082882642746,-0.8777187019586563 l0.4362912103533745,-0.9795696288347244 0.023800660856068134,-0.8982040733098984 l-0.48701222985982895,-1.019541546702385 -0.5915190652012825,-0.6589046865701675 l-0.9342343360185623,-0.4872593283653259 -1.3511493802070618,-0.10078568011522293 m83.68739330675453,2.02228275838479 l3.2873883843421936,0.984315425157547 3.027370870113373,-0.6811616569757462 l1.899106204509735,-0.6936343759298325 1.3107410073280334,-0.9515644609928131 l1.374029517173767,-1.9027511775493622 1.096246913075447,-3.8414832949638367 l-0.5611270666122437,-0.9436582773923874 -6.49630069732666,-2.4494701623916626 l-3.8389962911605835,-0.13984124176204205 -2.1137887239456177,0.5106354877352715 l-2.6490429043769836,1.6307418048381805 -1.4253956079483032,1.53916135430336 l-1.1773377656936646,2.6167169213294983 -0.27923665940761566,2.1695178747177124 l0.3646346554160118,1.9612646102905273 1.0329674184322357,1.6805467009544373 l1.5368041396141052,1.3535843789577484 2.914206385612488,1.3545413315296173 l2.542913556098938,0.514092706143856 2.795746922492981,-0.00014085281691222917 l3.2637211680412292,-0.9309713542461395 2.115112692117691,-1.229402795433998 l1.466793715953827,-1.4745236933231354 0.8457019925117493,-1.7255982756614685 l0.32271910458803177,-2.5985553860664368 -0.3561078757047653,-1.923176497220993 l-0.9351308643817902,-1.4343903958797455 -1.4211010932922363,-0.9724607318639755 l-1.8290990591049194,-0.48038218170404434 -3.042055368423462,0.26737548410892487 l-1.740807443857193,0.7974828779697418 -1.9266566634178162,1.772429496049881 m-1.3816054165363312,6.7092204093933105 l-0.2046072855591774,4.314315319061279 0.23346373811364174,3.2769596576690674 l0.9224984049797058,1.773461401462555 1.2831592559814453,0.8469855040311813 l2.3355183005332947,0.41492126882076263 3.2585743069648743,-0.761168897151947 l1.5945100784301758,-1.1051949113607407 0.8833866566419601,-1.329219937324524 l0.4309115931391716,-2.5050148367881775 -0.5027613416314125,-2.9869669675827026 l-0.9886027872562408,-1.5972816944122314 m-7.8589701652526855,-3.031691312789917 l-0.631684884428978,-0.4189790412783623 -1.1248068511486053,-0.5202610045671463 l-1.58529132604599,-0.5431769043207169 -1.93557009100914,-0.27931150048971176 l-2.026747614145279,0.21289357915520668 -1.2707485258579254,0.7309088855981827 l-0.7490246742963791,1.0920752584934235 -0.25291308760643005,1.339339017868042 l0.3639582544565201,1.2849603593349457 1.4674574136734009,1.6396662592887878 l1.7785707116127014,0.9304171800613403 1.9747838377952576,0.40614306926727295 l1.6450567543506622,-0.0006125590152805671 1.1615253239870071,-0.38958705961704254 l1.3148187100887299,-1.1188758164644241 0.7199489325284958,-1.254756599664688 l0.18209584057331085,-1.1283940076828003 -0.20637888461351395,-0.8439868688583374 l-0.6622035801410675,-0.9219526499509811 -1.2916766107082367,-0.887257531285286 l-0.8212970942258835,0.05788004957139492 m78.99074315326288,3.8749814254515513 l2.522440552711487,0.5152097716927528 1.914249062538147,-0.912938192486763 l1.0886700451374054,-0.8381492644548416 0.4944824054837227,-1.0012563318014145 l-0.11752676218748093,-2.598176896572113 -0.7748950272798538,-0.9725021570920944 l-3.2899844646453857,-1.6035515069961548 -4.254380464553833,0.25962647050619125 l-2.4105292558670044,2.6629698276519775 -0.5060639977455139,1.8633826076984406 l0.12690686620771885,1.6595689952373505 0.8069422841072083,1.477540135383606 l3.354957699775696,2.5486478209495544 2.3305954039096832,0.8147487789392471 l1.7932581901550293,-1.4411020856641699e-05 2.333143502473831,-0.8353427052497864 l1.5293385088443756,-1.2331435829401016 1.0496120154857635,-1.48886039853096 l0.5875326693058014,-1.7143650352954865 0.10297495871782303,-2.538857161998749 l-0.5058464035391808,-1.8340860307216644 -0.9810031205415726,-1.304720938205719 l-1.4561064541339874,-0.8762934803962708 -2.9485851526260376,-0.4868590459227562 l-2.48205229640007,0.9378292411565781 -1.567039042711258,1.276634931564331 l-1.44286647439003,2.382611483335495 -0.45096904039382935,1.9621467590332031 l0.09520372375845909,1.8143028020858765 0.7305964082479477,1.5564781427383423 l1.2363683432340622,1.095573753118515 2.5382426381111145,0.994713082909584 l3.1541571021080017,0.25485625490546227 m-2.572534680366516,-7.995908856391907 l0.6729234755039215,4.215341806411743 0.7208495587110519,3.9193621277809143 l0.6932715326547623,2.1354305744171143 0.7682404667139053,0.9299046546220779 l0.8793693035840988,0.3573507070541382 1.3203312456607819,-0.2858528308570385 l0.9595610201358795,-0.8443382382392883 0.8515236526727676,-2.0297569036483765 l0.050777983851730824,-1.9970525801181793 -1.3673999905586243,-3.8872388005256653 l-1.5561488270759583,-1.7701417207717896 m-3.483462333679199,-2.431625574827194 l0.7957659661769867,-2.2636771202087402 1.4476118981838226,-1.6161046922206879 l1.7045477032661438,-0.9074713289737701 1.8421730399131775,-0.32886337488889694 l1.4321684837341309,0.24213934317231178 0.9527256339788437,0.7357724010944366 l0.6769872456789017,1.494690626859665 -0.03012745175510645,1.1326368153095245 l-0.9828747808933258,1.4535300433635712 -1.3240323960781097,0.883682370185852 l-2.229900062084198,0.6570371240377426 -0.7950719445943832,-0.037814220413565636 l-0.5350979045033455,-0.4224245250225067 -0.24038145318627357,-0.813668891787529 l0.30172016471624374,-0.6583589315414429 1.28342404961586,-0.5683534219861031 l1.3903258740901947,0.028884373605251312 1.3847005367279053,0.8283444494009018 l0.3526370972394943,0.8030377328395844 -0.40472928434610367,0.657435953617096 l-1.104186773300171,0.41370920836925507 m70.26609157095663,4.057327136397362 l1.7615419626235962,0.04359366372227669 0.928662046790123,-1.0585101693868637 l0.33473800867795944,-0.9873587638139725 -0.2844247594475746,-1.0390453785657883 l-2.1181318163871765,-1.9910290837287903 -3.5051068663597107,-0.8063856512308121 l-1.9382600486278534,1.0415901243686676 -0.7199882715940475,1.3558956980705261 l-0.010261664865538478,2.1679385006427765 0.8105617016553879,1.4033840596675873 l3.132188618183136,1.9395071268081665 1.7533542215824127,0.23780906572937965 l1.2537024915218353,-0.3656897693872452 1.21058389544487,-1.0854008048772812 l0.6590205430984497,-1.2219107896089554 0.23789897561073303,-1.8253543972969055 l-0.006195420864969492,-1.271047592163086 -0.15496415086090565,-1.5160520374774933 l-0.16676349565386772,-1.7593230307102203 0.15497645363211632,-1.255982667207718 l0.5445121601223946,-0.8868686854839325 1.359567642211914,-0.7698166370391846 l1.628938615322113,-0.1585686393082142 2.347950041294098,0.8024588972330093 l2.2727812826633453,2.118547707796097 1.4763492345809937,2.952166199684143 l0.5658916756510735,3.4506940841674805 -0.40809087455272675,3.1681430339813232 l-0.8425720781087875,1.541963666677475 -1.9197449088096619,1.6451603174209595 l-1.6674254834651947,0.619574561715126 -2.6166170835494995,0.13863258995115757 l-2.9718831181526184,-0.7999353110790253 -0.7619228959083557,-0.7682895660400391 l-0.5455409362912178,-1.891675442457199 m2.3455168306827545,-8.155670166015625 l0.5066307634115219,1.4844532310962677 0.6696535646915436,2.6040375232696533 l0.6963112205266953,2.1994617581367493 0.6029043346643448,1.4192385971546173 l0.6457669287919998,0.6905547529459 1.0493078827857971,0.29017308726906776 l1.4436385035514832,-0.5282212048768997 1.494329422712326,-1.6137336194515228 m-7.415475845336914,-7.903653383255005 l-0.981435626745224,-1.1321119219064713 -1.1872536689043045,-1.190994530916214 l-1.6121423244476318,-1.2219520658254623 -1.2458527088165283,-0.6707531958818436 l-1.5890252590179443,-0.4246831685304642 -1.825411468744278,0.13910725712776184 l-1.0744089633226395,0.7001566141843796 -0.6394872069358826,1.0753177106380463 l-0.11945152655243874,1.264956146478653 0.4876163601875305,1.1870311945676804 l1.086931899189949,0.9554240852594376 2.079017758369446,0.794990286231041 l0.72567418217659,0.4763563722372055 0.7465741038322449,0.4236343875527382 l1.0074854642152786,0.29537469148635864 2.090522199869156,-0.07158658001571894 l0.5135519057512283,-0.07521999999880791 0.4348793998360634,-0.22324437275528908 l0.40806036442518234,-0.5397428572177887 0.744740292429924,-0.3816075250506401 l0.8763986825942993,-0.4377812147140503 0.7637826353311539,-0.42074989527463913 m72.41845495425878,2.247954453341663 l0.962359681725502,-0.3582071512937546 0.0935995951294899,-1.1823365092277527 l-0.5030037462711334,-1.0399680584669113 -1.6081629693508148,-0.94886414706707 l-3.329055607318878,-0.4359551891684532 -1.6499574482440948,0.9635444730520248 l-0.41517045348882675,1.06632761657238 0.5399688333272934,1.6680388152599335 l3.1135621666908264,0.7979679107666016 1.1989250034093857,-0.044129155576229095 l-1.2715838849544525,0.15474037267267704 -1.6191813349723816,0.9637651592493057 l-0.9220346063375473,1.1869627982378006 -0.5657573416829109,1.9983412325382233 l0.14426176436245441,1.4832617342472076 0.6950495392084122,1.104774922132492 l1.1959006637334824,0.744849368929863 2.3092588782310486,0.39198797196149826 l1.8872123956680298,-0.3141680732369423 1.5331007540225983,-0.8094649016857147 l1.6309204697608948,-1.7202848196029663 0.8442287892103195,-1.7577175796031952 l0.36448925733566284,-2.6030343770980835 -0.000149829029396642,-2.661571502685547 l-0.20661555230617523,-1.5132027864456177 -0.07048711646348238,-0.9313595294952393 l0.21121088415384293,-0.8857405185699463 0.7661877572536469,-0.7918671518564224 l1.0310457646846771,-0.11055892333388329 1.4029620587825775,0.8574320375919342 l1.3116779923439026,2.2697103023529053 0.03583902958780527,4.46053147315979 l-1.359143853187561,2.8935444355010986 -1.045122891664505,0.8248705416917801 l-2.7399608492851257,0.3246377408504486 -1.0308566689491272,-0.9375043213367462 m2.7857905626296997,-9.14658784866333 l3.1009921431541443,-1.6182690858840942 2.6482489705085754,-0.8701879531145096 l1.5409186482429504,0.07282721344381571 1.3803723454475403,0.9683573991060257 l0.8428122848272324,1.9364605844020844 -0.2955424599349499,2.2185006737709045 l-0.902545154094696,1.07249915599823 -3.1643450260162354,1.5015782415866852 l-1.8543067574501038,0.28904130682349205 m0.19525518640875816,0.5589709803462029 l1.8631982803344727,-0.28533071279525757 2.1044139564037323,-0.10378466919064522 l1.2107785791158676,0.2988129295408726 1.0659468919038773,0.9973139315843582 l0.5958229303359985,1.752161979675293 -0.1076264213770628,1.1146018654108047 l-1.0151922702789307,1.3566771149635315 -1.197163239121437,0.6815733015537262 l-2.1092338860034943,0.38560230284929276 -2.5493568181991577,-0.2890379913151264 l-1.6630007326602936,-0.7605133205652237 -0.9487029910087585,-0.970374345779419 l-0.36759156733751297,-1.091807782649994 0.2382049337029457,-1.0860403627157211 l0.8057230710983276,-0.8748429268598557 1.1107485741376877,-0.4523327574133873 l0.9816958010196686,0.06215085741132498 0.8943925052881241,0.7286795228719711 l0.07099977694451809,0.7446549087762833 m71.41869169470738,-5.343762991033145 l0.3224434331059456,-0.8070067316293716 -0.6289823353290558,-1.333031952381134 l-0.8432857692241669,-0.7432279735803604 -2.1739286184310913,-0.5799546092748642 l-3.3385372161865234,0.42746584862470627 -1.1243155598640442,0.8299823105335236 l-0.38250554352998734,0.999642014503479 1.2103768438100815,2.2252269089221954 l2.3280803859233856,0.6868425756692886 0.5966776609420776,-0.11681310832500458 l-1.771778017282486,0.5257910862565041 -1.3108272850513458,1.3235005736351013 l-0.5838901922106743,1.2805108726024628 -0.07198222447186708,1.2308816611766815 l0.44747810810804367,0.9900966286659241 0.9215400367975235,0.6894546747207642 l1.9131986796855927,0.5405449494719505 1.9942869246006012,0.00011550182534847409 l2.365759313106537,-0.7870892435312271 1.3328146934509277,-1.0217540711164474 l0.7913354784250259,-1.2119920551776886 0.3336053341627121,-1.382189393043518 l-0.0002188927828683518,-2.058059871196747 -0.00037418576539494097,-2.149081826210022 l0.13272901065647602,-2.0429153740406036 0.5013428255915642,-1.0791819542646408 l1.1845900863409042,-0.8113738149404526 1.210452988743782,0.044108894653618336 l1.3854782283306122,1.2409663945436478 0.5170224234461784,4.785715937614441 l-0.6508848071098328,3.3782729506492615 -0.7839790731668472,1.0911210626363754 l-1.5598227083683014,0.5894239991903305 -1.441153883934021,-0.7388276606798172 m2.0024582743644714,-9.862034320831299 l2.3826856911182404,-1.425841897726059 2.4565067887306213,-0.9651150554418564 l1.5698949992656708,0.016207038424909115 0.8597280085086823,0.7156498730182648 l0.47541458159685135,1.7196464538574219 -0.6835821270942688,2.1517951786518097 l-1.9615231454372406,1.8637430667877197 -3.9382901787757874,1.7828172445297241 l3.2846787571907043,-0.06306558381766081 m-2.0038998126983643,1.7028965055942535 l1.9707179069519043,0.010979402577504516 1.5809161961078644,0.078187370672822 l1.3681554794311523,0.5321796610951424 0.8871566504240036,1.1448649317026138 l0.18761858344078064,1.7423436045646667 -0.539291687309742,0.9721028804779053 l-1.6011880338191986,0.9767775982618332 -1.6071850061416626,0.30244776979088783 l-2.216542065143585,-0.3956634923815727 -1.4220096170902252,-0.8494428545236588 l-0.7229820638895035,-1.0730606317520142 -0.13272817246615887,-1.1377782374620438 l0.4853436350822449,-1.0501109808683395 0.9644763171672821,-0.7191834598779678 l1.4766956865787506,-0.43864160776138306 0.9177572280168533,0.10259863920509815 l0.5234678462147713,0.6768178194761276 -0.2261323481798172,1.3681955635547638 l-0.7947413623332977,0.8531448245048523 -1.6576872766017914,0.6293971836566925 m74.06343981287137,-8.735050153336488 l-0.23802654817700386,-1.2109602987766266 -1.2386471778154373,-1.34979709982872 l-1.905726045370102,-0.8232351392507553 -2.3638635873794556,-0.03638943890109658 l-2.454237937927246,1.3235032558441162 -0.7309048622846603,1.1493416130542755 l-0.00047452493163291365,1.2503768503665924 0.7977467775344849,0.7570042461156845 l2.907673716545105,0.7800198346376419 -0.252152755856514,0.16774887219071388 l-1.4414195716381073,0.7667939364910126 -1.077430620789528,1.5129604935646057 l-0.34804314374923706,1.2872041761875153 0.16844747588038445,1.065329685807228 l0.6433757394552231,0.7751774787902832 1.0836246609687805,0.47282714396715164 l1.9803225994110107,0.12924542650580406 1.4519625902175903,-0.43038759380578995 l1.1282480508089066,-0.8109338581562042 0.563192144036293,0.09054833091795444 l1.1760364472866058,1.461828351020813 1.4109757542610168,0.926688015460968 l1.5185794234275818,0.24172447621822357 1.4306993782520294,-0.7368949055671692 l0.7464934140443802,-1.2652818858623505 0.3133309632539749,-3.7992599606513977 l-0.9679807722568512,-2.2634707391262054 -1.2721338868141174,-1.2727420032024384 l-1.161157637834549,-0.3869330883026123 -0.6994762271642685,0.5264919623732567 l-0.0847270805388689,2.7597999572753906 m2.7897384762763977,-2.7844256162643433 l0.2779206447303295,-1.0193421691656113 1.4364095032215118,-2.1555300056934357 l1.5365742146968842,-1.0949493199586868 1.3024301826953888,-0.19039934501051903 l0.8666142076253891,0.62730573117733 0.5863530933856964,5.216144323348999 l-2.4395394325256348,4.875336289405823 -1.5605433285236359,1.0151983052492142 l-1.0441817343235016,-0.5138608068227768 m-0.28379321098327637,-9.4663804769516 l1.9552941620349884,-0.9507250040769577 1.8386279046535492,-0.8698984235525131 l1.1906524002552032,-0.16334569081664085 1.0773511230945587,0.527426078915596 l0.7448455691337585,1.4896133542060852 -0.07764860522001982,2.2334015369415283 l-1.3979601860046387,2.0342938601970673 -2.208753377199173,1.4015384018421173 l-0.8918735384941101,0.04678891971707344 -0.9142512828111649,-0.4306597635149956 l-0.8859069645404816,-1.0811303555965424 -0.49547161906957626,-0.8817744255065918 l0.02748151309788227,-0.9792657941579819 0.8356618136167526,-0.978238582611084 l1.2318164110183716,-0.37849657237529755 1.6008570790290833,0.3847960755228996 l1.2561340630054474,1.431746482849121 0.19460735842585564,1.0637374222278595 l-0.4668848589062691,0.7492409646511078 -1.7461152374744415,0.7160608470439911 l-1.7654338479042053,-0.24789433926343918 m73.7924601729901,-2.4729077890515327 l-0.7958103716373444,-1.5788272023200989 -1.9071590900421143,-1.4239037036895752 l-2.6181894540786743,-0.6415995955467224 -2.5308752059936523,0.2791590802371502 l-1.2989862263202667,0.7772497087717056 -0.6859053671360016,1.135237067937851 l-0.0004386027285363525,1.9187580049037933 0.821024626493454,0.957835242152214 l2.6837414503097534,0.9660671651363373 -0.3882904350757599,0.17767095938324928 l-1.4523012936115265,0.82370825111866 -0.939847007393837,1.591341495513916 l-0.24533472955226898,1.3481298089027405 0.2813173457980156,1.0063255578279495 l0.7604128122329712,0.6844804435968399 1.1831141263246536,0.3513704985380173 l1.9276028871536255,-0.08908171206712723 0.680316686630249,0.11507601477205753 l1.1434707790613174,-0.1681160181760788 1.3947072625160217,-0.7984592020511627 l0.5307049676775932,-0.1279120985418558 0.7669780403375626,0.34117065370082855 l1.1559994518756866,0.9774813801050186 1.222388967871666,0.5169447138905525 l0.6926288455724716,-3.758353888988495 -0.16738824546337128,-2.982964813709259 l-0.6643276661634445,-1.5015669167041779 -0.7666116952896118,-0.7635355740785599 l0.0239074369892478,1.8728221952915192 0.37455305457115173,3.257746398448944 l0.47659363597631454,1.158987432718277 0.35855673253536224,-0.8213327825069427 m0.04772416315972805,-6.07670783996582 l0.33224597573280334,2.4328406155109406 0.5518456920981407,3.57473224401474 l0.7892460376024246,1.005982905626297 0.5708835646510124,-2.193012535572052 l-0.21965740248560905,-3.5198387503623962 -0.7464402168989182,-1.4992906153202057 m0.5845505744218826,1.0253987461328506 l2.340722978115082,-3.625943660736084 1.7559458315372467,-1.523486077785492 l1.388106346130371,-0.4218136891722679 1.2507005035877228,0.41455838829278946 l0.8909500390291214,1.4478620886802673 -2.893667221069336,5.365131497383118 l-1.6021806001663208,0.8351696282625198 2.2657719254493713,-0.40654417127370834 m-2.2285883128643036,2.8888463973999023 l1.9884762167930603,-0.8014579862356186 1.6708149015903473,-0.35470645874738693 l0.9018014371395111,0.21021388471126556 0.5976115167140961,0.9197854250669479 l-0.148063525557518,1.5970255434513092 -0.753847286105156,0.9205972403287888 l-1.7621833086013794,0.9152478724718094 -2.358182966709137,0.4061226174235344 l-1.114504113793373,-0.47995008528232574 -0.6144727021455765,-0.7914485782384872 l-0.13396447524428368,-0.9199228137731552 0.49836669117212296,-1.400386393070221 l0.9044965356588364,-0.9052806347608566 " fill="none" stroke="black" stroke-width="1" /></svg>