<?xml version="1.0" encoding="utf-8" ?>
<svg baseProfile="full" height="82.02022921293974" version="1.1" width="892.8409504890442" xmlns="http://www.w3.org/2000/svg" xmlns:ev="http://www.w3.org/2001/xml-events" xmlns:xlink="http://www.w3.org/1999/xlink"><defs /><rect fill="white" height="82.02022921293974" width="892.8409504890442" x="0" y="0" /><path d="M25,25 m0.0,0.0 m28.34580595837906,26.12898704741383 l0.4091208055615425,-0.6074023991823196 2.4016661942005157,-1.049150824546814 l1.2491321563720703,-0.0031485004001297057 0.500650480389595,0.4515724629163742 l0.3787821903824806,1.4626535773277283 -0.22146601229906082,2.080855071544647 l-0.9611819684505463,0.7282034307718277 -3.7975767254829407,-0.43532196432352066 l-0.9804834425449371,-1.392662674188614 0.04748613107949495,-1.3199453055858612 m12.826107740402222,-0.05546102300286293 l2.90155827999115,-0.45207202434539795 3.216928541660309,-0.5263736099004745 l2.2527463734149933,0.016064667142927647 -2.443629503250122,1.8678954243659973 l-4.958692789077759,0.6540784239768982 -1.3779817521572113,-0.3081129863858223 m-6.403396725654602,-1.853748857975006 l-0.5013811215758324,-0.6950174272060394 -1.3489793241024017,-4.652957320213318 l0.7580408453941345,-1.09060600399971 4.635298252105713,-0.5222569033503532 l5.3417158126831055,-0.04233783110976219 0.39107900112867355,2.828648090362549 l-0.24626221507787704,4.3306586146354675 m-8.386913537979126,-1.2079906463623047 l-0.45875225216150284,1.6603921353816986 -0.32860763370990753,2.79209166765213 l0.3145204111933708,1.6139264404773712 10.224552154541016,-0.4301127418875694 l0.14501587487757206,-3.9964866638183594 -0.8588412404060364,-2.9390698671340942 l-6.55051589012146,0.3586864098906517 -3.4035518765449524,0.5736305564641953 m3.0366766452789307,0.06759012117981911 l2.5143685936927795,-0.08821784518659115 3.8960951566696167,-0.3151722252368927 l4.1573914885520935,-0.29167553409934044 2.7254417538642883,-0.2907267212867737 l1.3472718000411987,-0.206065122038126 2.3174065351486206,-0.8469813317060471 l0.38714680820703506,-0.24545414373278618 -1.6242776811122894,-0.7748453319072723 l-12.249667644500732,0.128882247954607 -6.538823246955872,0.5681202560663223 l-1.554189771413803,0.7132425904273987 m5.511865019798279,0.41641801595687866 l-0.07830745540559292,1.3141612708568573 0.36223936825990677,1.251487284898758 l4.046317934989929,-0.44471375644207 -0.3325452655553818,-2.1900618076324463 l-1.9781593978404999,-0.3963591530919075 m5.972579121589661,0.05324044730514288 l-0.38480155169963837,1.6295653581619263 0.5532729625701904,0.9975537657737732 l2.2698259353637695,-0.28138570487499237 0.15077360905706882,-2.1917273104190826 l-1.618465632200241,-0.42566966265439987 -1.4624831080436707,0.32239262014627457 m63.94529322278686,0.15532658202573657 l2.3121602833271027,-0.5361294373869896 6.517384052276611,-1.4802363514900208 l2.234203517436981,0.4166598618030548 0.9005934000015259,1.7801353335380554 l0.2885301411151886,1.6391868889331818 -0.44898204505443573,0.704520121216774 l-1.5062955021858215,0.5497482791543007 -7.304971814155579,-0.7104587554931641 l-3.7522703409194946,-1.6212375462055206 -0.15406510792672634,-0.9926566481590271 m14.808626174926758,0.8799096196889877 l6.366887092590332,-0.7588248699903488 5.435791015625,-0.6900683790445328 l4.077843129634857,-0.3208846226334572 m-10.244580507278442,1.727747917175293 l6.072196364402771,-0.6864771991968155 4.344243407249451,-0.2761695347726345 l4.374797940254211,-0.346856489777565 2.8395208716392517,-0.21108152344822884 m-25.489087104797363,2.3843301832675934 l4.343929886817932,-1.4351405203342438 5.9389036893844604,-0.9776169806718826 l4.916197657585144,-0.41988104581832886 3.8071858882904053,-0.05950822029262781 l2.738937735557556,0.4570314660668373 -2.3534585535526276,3.653702437877655 l-10.388823747634888,1.6604448854923248 -9.052966237068176,0.17271103337407112 l-2.3880401253700256,-0.1890328712761402 m1.552741527557373,-4.4091275334358215 l-0.5566755682229996,0.8034917712211609 -0.5894285812973976,2.9071027040481567 l0.06712810602039099,1.7795418202877045 0.5462304502725601,0.35516440868377686 m3.5703694820404053,-6.491785049438477 l0.14713766984641552,4.007284939289093 0.03692906117066741,2.022768408060074 l-0.27414584532380104,0.11346478015184402 m-4.113505780696869,-5.362615585327148 l-0.3924327716231346,0.3998596966266632 -0.7033952325582504,1.866716891527176 l-0.17747338861227036,1.4557407796382904 0.26037422940135,0.5293117836117744 l1.494833081960678,0.08580544032156467 0.9401223063468933,-2.284533679485321 l-0.4084102436900139,-1.8147529661655426 -1.2263228744268417,-0.3758654370903969 l-2.376963496208191,0.8227916806936264 m-1.305164098739624,-0.8107639849185944 l-3.7160661816596985,-0.1047181524336338 -3.843751847743988,0.12527896091341972 l-3.741888701915741,0.29726799577474594 -2.5512591004371643,0.31750962138175964 l-1.3791416585445404,0.308133102953434 m86.15821836399846,-1.7418977641500533 l5.276649594306946,-0.3766467049717903 12.575902938842773,-1.711449772119522 l3.546339273452759,0.4532840847969055 1.9933493435382843,1.1407419294118881 l0.7863476127386093,2.3047417402267456 0.1720884069800377,1.4286479353904724 l-0.511694997549057,0.0755939818918705 -12.124859094619751,-0.609840527176857 l-10.145204067230225,-0.7216448336839676 -1.5192204713821411,-0.5641934275627136 m18.98593306541443,-2.0495451986789703 l7.486934661865234,-0.4800466448068619 7.81705915927887,-0.5358606204390526 l5.890598297119141,-0.4088788107037544 m-22.22470760345459,3.690238893032074 l5.38510262966156,-0.37879928946495056 7.493886351585388,-0.5059151351451874 l6.43121063709259,-0.5231228470802307 m-23.464219570159912,-0.09019091725349426 l2.652774453163147,-0.21753663197159767 6.208296418190002,-0.44855475425720215 l5.838290452957153,-0.332338847219944 4.471555650234222,-0.21690454334020615 m-16.65211796760559,-0.11875138618052006 l-1.227588951587677,1.3261988759040833 -1.0180530697107315,2.613036632537842 l-0.16273241490125656,2.1611440181732178 0.6103625521063805,0.44196318835020065 l9.438722729682922,-1.05519138276577 -0.1854553446173668,-4.033452570438385 l-4.693758189678192,-1.4765359461307526 m-6.869915723800659,2.8040722012519836 l-0.5710706487298012,1.68113112449646 -0.21638041362166405,2.069489508867264 l4.581761956214905,-0.5710802972316742 0.16962310299277306,-2.8675657510757446 l-1.318172961473465,-1.5006059408187866 -3.3853521943092346,0.5133387818932533 m-2.4755293130874634,1.9206686317920685 l-2.5690945982933044,0.27016105130314827 -2.416546940803528,1.4516349136829376 l-0.6824201345443726,1.1941522359848022 0.08460834622383118,1.0357344150543213 l0.8331451565027237,0.6802047789096832 2.2198426723480225,0.44912688434123993 l4.034232795238495,-0.8258693665266037 0.7653501629829407,-2.4786241352558136 l-0.864373967051506,-1.5886829793453217 m69.84496608376503,-2.0991005073301494 l9.795544147491455,-0.3049848973751068 19.787726402282715,-1.7457923293113708 l5.321385860443115,0.36383360624313354 2.480311691761017,1.0144031792879105 l2.7894577383995056,1.1665011942386627 1.8564708530902863,0.20500408485531807 l4.212991893291473,-0.057416181080043316 m-46.37896537780762,2.5290361046791077 l2.0300833880901337,-0.3722553700208664 11.799615621566772,-0.6369132548570633 l26.883411407470703,-0.9134601056575775 8.281822800636292,-0.2796284295618534 m-36.63242816925049,-2.1196283400058746 l-0.5661427974700928,0.7830709218978882 -0.33416856080293655,4.2506930232048035 l0.20804191008210182,2.222370058298111 m14.67197299003601,-7.7553510665893555 l-0.33984385430812836,4.531991481781006 0.017719687893986702,3.298431634902954 m9.749045968055725,-8.1577867269516 l-0.030925371684134007,4.068427383899689 0.05297029856592417,3.4640973806381226 m-15.964009761810303,-4.074931740760803 l-0.8281444758176804,0.3046788088977337 -1.963169276714325,1.8687878549098969 l-4.080395400524139,1.3538366556167603 -3.2999715209007263,0.04406710620969534 l-2.950747013092041,-1.3046817481517792 -0.8469919115304947,-1.2764863669872284 l0.8572577685117722,-1.74025759100914 1.7580103874206543,-1.0777097195386887 l2.9105135798454285,-0.7337350398302078 m12.37237811088562,0.4098951444029808 l1.9581462442874908,-0.1006979588419199 4.020001292228699,-0.2336263656616211 l3.6609679460525513,-0.12616131454706192 2.7612781524658203,0.2545177564024925 l1.4511243999004364,0.43160758912563324 -0.00020648503777920268,1.2108095735311508 l-0.9441731125116348,1.4259277284145355 -9.059016704559326,0.7254446297883987 l-5.154141783714294,-0.47703906893730164 -1.3562789559364319,-0.5557584017515182 m62.29384727927027,-2.2573764133267105 l17.175875902175903,-0.2357235923409462 24.625916481018066,-1.6248619556427002 l8.19334328174591,0.2662527933716774 4.603540599346161,0.8092550188302994 l4.678578078746796,0.7867878675460815 m-61.57382011413574,5.106501579284668 l12.44290828704834,-0.39648301899433136 14.531807899475098,-0.7834755629301071 l16.15126609802246,-0.5828830227255821 12.241121530532837,-0.2542814612388611 m-40.76671123504639,-2.776356041431427 l0.08821054361760616,2.4353624880313873 0.07566885091364384,3.5774946212768555 m16.332976818084717,-6.845369935035706 l0.016645615687593818,4.889526665210724 0.049840728752315044,2.443951964378357 m13.219475746154785,-8.007473945617676 l0.09301905520260334,5.524369478225708 0.04382201470434666,2.5441333651542664 m-23.147993087768555,-4.732741713523865 l-0.7645460963249207,1.334368884563446 -0.44695086777210236,2.412285655736923 l6.653329133987427,-0.6903358548879623 0.2877184562385082,-2.17898428440094 l-1.2801092863082886,-1.7650984227657318 -4.563491344451904,0.29938142746686935 m0.5651994049549103,0.5185709521174431 l0.11634328402578831,1.5412236750125885 0.5521392077207565,1.7039424180984497 l5.933098793029785,-0.8505657315254211 0.03624553792178631,-2.217559367418289 l-1.3854818046092987,-1.4362946152687073 -4.07310426235199,0.22799577564001083 l-1.2267430126667023,0.8526390790939331 -0.4506097361445427,1.3438816368579865 l0.8520151674747467,0.6367231160402298 3.3248496055603027,-0.3315751254558563 m57.30212426860817,-3.147542820079252 l24.568486213684082,-0.23050425574183464 28.929729461669922,-1.6127902269363403 l10.955103635787964,0.24111036211252213 6.280462741851807,0.6932692229747772 m-71.17717266082764,7.350865006446838 l12.823742628097534,-0.34549109637737274 15.472362041473389,-0.7470525056123734 l18.327383995056152,-0.5422528088092804 15.162749290466309,-0.1143760047852993 l9.851413369178772,-0.013139835791662335 m-50.410733222961426,-5.755844712257385 l-0.22547410801053047,4.505393803119659 m12.418962717056274,-5.484088659286499 l0.13261036947369576,5.128949284553528 0.04001285880804062,2.0680031180381775 m14.144068956375122,-7.833024859428406 l0.1388944312930107,5.410134792327881 0.08859211578965187,2.624669075012207 m-19.49832797050476,-4.820941686630249 l-0.7820761948823929,2.076161801815033 -0.1977909542620182,2.6594629883766174 l6.9538915157318115,-0.43354757130146027 0.4350317269563675,-2.2732260823249817 l-1.0223381966352463,-2.443486601114273 -4.2693352699279785,-0.26628628373146057 l-1.710750162601471,0.7047993689775467 m-4.145457744598389,1.961773931980133 l-0.25407440960407257,2.2033101320266724 0.46561405062675476,1.815464049577713 l0.6032115593552589,0.396156869828701 1.5830673277378082,-0.04974536597728729 l3.3076518774032593,-1.538192629814148 0.05668395198881626,-2.2113223373889923 l-1.4955615997314453,-1.651572585105896 -2.379176914691925,-0.16960680484771729 l-2.611404061317444,1.118636503815651 m50.59927026741207,-3.291244462598115 l29.382171630859375,-0.277533158659935 44.2811393737793,-1.4695173501968384 l10.482542514801025,0.21697092801332474 6.941207647323608,0.70024773478508 m-88.11452865600586,7.6412129402160645 l14.517720937728882,-0.6708148121833801 33.646652698516846,-0.7238514721393585 l16.821779012680054,-0.17368586733937263 12.750414609909058,0.023311239201575518 m-57.18289375305176,-6.045641899108887 l-0.1460966281592846,4.986734986305237 0.12543742544949055,3.876273036003113 m17.172679901123047,-10.023900270462036 l-0.10331032797694206,6.373564004898071 0.07882772944867611,3.7891241908073425 m15.77296257019043,-10.567395687103271 l0.16180569306015968,6.5814948081970215 0.10302921757102013,3.5823947191238403 m-21.070775985717773,-5.8503735065460205 l2.016664445400238,-0.29073985293507576 4.689589440822601,-0.5886288732290268 l3.455730676651001,-0.08789224550127983 2.7676811814308167,0.18385989591479301 l1.983468383550644,0.2288089506328106 0.00030292203518911265,0.6281479448080063 l-2.8373345732688904,3.7960386276245117 -8.72169017791748,0.24512194097042084 l-3.2104331254959106,-0.36093082278966904 -1.8489857017993927,-0.5685970187187195 l-0.8132531493902206,-0.8035767078399658 2.7319975970385713e-06,-1.7728742957115173 l1.1284320056438446,-1.4241589605808258 m49.11448743797962,-2.176916263997555 l35.775556564331055,-0.3531681001186371 29.83644962310791,-1.1643800139427185 l20.49060821533203,0.19265897572040558 9.76819097995758,0.571715235710144 m-91.58610343933105,7.547881603240967 l13.60564112663269,-0.6175448000431061 35.03988027572632,-1.1257921904325485 l18.583792448043823,-0.21453438326716423 14.806320667266846,-0.025335606187582016 m-59.802589416503906,-5.1394641399383545 l-0.029617655090987682,5.528675317764282 0.15536095947027206,4.351512789726257 m17.371894121170044,-10.962526798248291 l0.0961300078779459,7.440283894538879 0.16901008784770966,3.756938874721527 m15.138094425201416,-11.800072193145752 l0.3541512042284012,6.068423390388489 0.21471796557307243,4.22101765871048 m-22.580370903015137,-6.258242726325989 l-0.780007541179657,1.571006178855896 -0.1819860376417637,2.8405624628067017 l1.0848817974328995,0.4820770397782326 4.276394248008728,-0.7104435563087463 l0.827881321310997,-2.2453725337982178 -0.7260044664144516,-1.9523385167121887 l-1.1233319342136383,-0.951247438788414 -1.3935862481594086,-0.4017050564289093 l-2.077232152223587,0.19157173112034798 -2.0783473551273346,1.111723929643631 l-0.7957473397254944,1.0446680337190628 m33.1130243325606,-2.4358941335231066 l34.829955101013184,-0.2003779262304306 50.93700885772705,-0.8281236886978149 l15.98711371421814,0.18252091482281685 10.3197181224823,0.5393834039568901 m-100.98939895629883,6.742649674415588 l15.372734069824219,-0.2683625556528568 30.978682041168213,-0.5181858688592911 l19.89851474761963,-0.27822984382510185 16.719319820404053,-0.0818513985723257 m-60.594167709350586,-6.355341076850891 l0.11093081906437874,6.365818977355957 0.11629750020802021,4.231110215187073 m18.069119453430176,-11.962817907333374 l0.047465311363339424,7.376209497451782 0.21097609773278236,4.712231457233429 m14.163377285003662,-12.359228134155273 l0.26860881596803665,6.021020412445068 0.19785255193710327,3.990095853805542 m-21.41148567199707,-6.01101815700531 l-0.982096940279007,-0.17635144293308258 -1.1148770898580551,0.4896124452352524 l-1.284218430519104,1.693069338798523 -0.39264705032110214,1.515834778547287 l0.26199692860245705,1.3238376379013062 1.018078625202179,0.9378009289503098 l1.4950884878635406,0.4989617317914963 3.795546293258667,-0.34135911613702774 l1.6475827991962433,-1.0684558004140854 1.0826798528432846,-2.180088758468628 l-0.06324643734842539,-1.6550274193286896 -0.7736855745315552,-1.0436378419399261 m37.260213368572295,-1.926645883359015 l33.279030323028564,-0.07899750024080276 49.65321063995361,-0.5634886026382446 l19.47481393814087,0.17713263630867004 m-99.12384033203125,9.4078129529953 l15.095093250274658,-0.3907785937190056 36.10003709793091,-1.099964752793312 l17.636308670043945,-0.32585714012384415 15.137232542037964,-0.03432625439018011 l12.330296039581299,0.07166862487792969 m-65.54862022399902,-7.815709114074707 l0.025479779578745365,6.86988890171051 0.1595749892294407,5.115191340446472 m17.055351734161377,-13.636585474014282 l-0.12546160258352757,7.564710974693298 0.2667047828435898,5.30069887638092 m13.367716073989868,-13.42727780342102 l0.37067994475364685,5.9907954931259155 0.1705612801015377,4.418361485004425 m-19.965273141860962,-4.029141366481781 l-0.5118352919816971,0.39805084466934204 -0.5015771836042404,1.5684008598327637 l0.036243912763893604,1.4372049272060394 0.6779302656650543,1.0608075559139252 l1.2045451998710632,0.5945198237895966 2.265302985906601,0.05836124066263437 l2.410888969898224,-1.087920069694519 1.0262515395879745,-1.3448072969913483 l0.3169015422463417,-2.2060418128967285 -0.9672753512859344,-2.0925021171569824 l-1.3860048353672028,-0.9848245233297348 -2.7400708198547363,-0.6349198520183563 " fill="none" stroke="black" stroke-width="1" /></svg>