<?xml version="1.0" encoding="utf-8" ?>
<svg baseProfile="full" height="83.95111180841923" version="1.1" width="818.6850687672097" xmlns="http://www.w3.org/2000/svg" xmlns:ev="http://www.w3.org/2001/xml-events" xmlns:xlink="http://www.w3.org/1999/xlink"><defs /><rect fill="white" height="83.95111180841923" width="818.6850687672097" x="0" y="0" /><path d="M25,25 m0.0,0.0 m30.655607068911195,22.313591614365578 l0.3950783610343933,0.8754010498523712 3.934217095375061,1.9765940308570862 l5.41010320186615,1.5548813343048096 3.0498644709587097,0.2668706141412258 l0.4482285678386688,-0.2815293148159981 m-12.29114294052124,-4.768153727054596 l0.22790206596255302,-0.4908432811498642 1.1217697709798813,-0.6434226036071777 l1.5791350603103638,-0.3161012753844261 2.182817906141281,0.2769702300429344 l2.2017934918403625,1.1957653611898422 0.9139937162399292,1.0366881638765335 l0.5392856523394585,1.6183929145336151 -0.01684451592154801,0.9910455346107483 m-9.441878199577332,-2.0428718626499176 l0.03664570162072778,1.2794657051563263 0.6257651746273041,3.176594078540802 l1.3575835525989532,2.272236943244934 1.442299634218216,0.9719381481409073 l3.162769079208374,-7.794097655278165e-05 3.717014491558075,-1.0312867909669876 l1.4823614060878754,-1.0252879559993744 1.0463254153728485,-1.8676412105560303 m-11.435726881027222,-2.6574811339378357 l0.5678361281752586,0.9103411436080933 1.2722064554691315,2.9291129112243652 l1.5645235776901245,1.6705851256847382 m2.4939629435539246,-4.827818274497986 l1.401246190071106,2.095278650522232 1.582009643316269,2.134605497121811 m-7.282811403274536,-3.521052598953247 l4.223322868347168,-1.5980368852615356 3.3932462334632874,-1.1424912512302399 l2.6553156971931458,-0.676073431968689 2.1579065918922424,-0.2600885182619095 l1.8374785780906677,0.2642941288650036 1.6690140962600708,1.0585811734199524 m62.05446231062524,-2.09659535839819 l0.15136881731450558,0.5701946094632149 2.3461560904979706,1.432664394378662 l4.253571331501007,1.564202606678009 3.4055769443511963,0.752885639667511 l1.7734812200069427,-4.562182766676415e-05 0.08300383575260639,-1.2728922069072723 m-11.456303596496582,-3.194614350795746 l-0.6518293172121048,0.3823506087064743 -0.4454692453145981,1.456315815448761 l0.11173920705914497,1.4684760570526123 0.6739707291126251,1.1414548754692078 l1.1615532636642456,0.854823961853981 2.32618510723114,0.6489155441522598 l2.9234230518341064,-0.0003602004289859906 1.7392049729824066,-0.6207558140158653 l1.2188706547021866,-1.0064586251974106 0.8820950984954834,-1.7945753037929535 l0.16008935868740082,-2.0197339355945587 m-10.64255952835083,1.3269148766994476 l0.8417761325836182,1.6045638918876648 1.356697529554367,2.8065571188926697 m3.5488659143447876,-4.373923242092133 l0.6095783412456512,2.0273110270500183 1.0446955263614655,2.6920878887176514 l1.0685060918331146,1.5968726575374603 m-7.6570165157318115,-4.072206914424896 l6.933688521385193,-1.3418464362621307 4.384247660636902,-1.0468723624944687 l2.480170726776123,-0.7136908173561096 m-11.404521465301514,4.098043441772461 l4.423375725746155,0.4711873084306717 3.9339494705200195,0.053514144383370876 l2.9064127802848816,-0.034801019355654716 2.489250600337982,-0.4780140891671181 m64.68616757541895,-6.0639906896903994 l-0.20276444032788277,0.2705054357647896 1.406184583902359,1.1043386906385422 l2.446663975715637,1.4401011168956757 3.848077654838562,1.364949345588684 l1.8533167243003845,0.39561938494443893 1.7866720259189606,-0.11789057403802872 l-0.1543866377323866,-1.2644796073436737 -0.7837501168251038,-0.6401784718036652 l-2.5977420806884766,-0.8438084274530411 m-8.430773615837097,-1.2865512073040009 l-0.07616214454174042,2.392231673002243 0.33146411180496216,2.90764719247818 l0.7690602540969849,1.6347159445285797 1.2233585864305496,1.1369521170854568 l1.6976943612098694,0.7024812698364258 2.733578085899353,-0.00042075735109392554 l1.8919456005096436,-0.6365253031253815 1.3738542795181274,-1.0798943042755127 l1.2530210614204407,-1.9742000102996826 0.5962877348065376,-2.608080804347992 l-0.17856260761618614,-2.1707741916179657 m-11.644068956375122,2.278316766023636 l0.9730337560176849,2.291772961616516 m4.930169880390167,-2.463340610265732 l0.6034372746944427,1.977435052394867 0.8742945641279221,2.019331008195877 m-6.291742920875549,-2.7637887001037598 l6.727399230003357,-0.20761793479323387 3.832278847694397,-0.3363455459475517 l2.517974376678467,-0.421278215944767 m-11.48989200592041,0.8214271813631058 l1.919044852256775,2.9706645011901855 3.8293564319610596,1.3847386837005615 l3.7591707706451416,0.2109367586672306 m65.44399802573025,-8.735391148584313 l-0.5809321999549866,-0.011249921517446637 0.5561745166778564,0.7480809837579727 l0.7881125807762146,0.8856054395437241 2.5827556848526,2.5020793080329895 l3.9776694774627686,1.8313688039779663 1.5545910596847534,-0.09800231084227562 l0.17347130924463272,-1.002097800374031 -0.515415295958519,-1.6722556948661804 l-1.201871857047081,-1.1541768908500671 -1.4619158208370209,-0.4454781487584114 l-1.1921028792858124,0.15583395957946777 -1.1295292526483536,0.9932680428028107 l-0.40073834359645844,1.1974073946475983 0.968119278550148,2.051314115524292 l1.3942022621631622,0.9812604635953903 2.0869621634483337,0.5034872889518738 l2.2075745463371277,-0.2733166143298149 1.0806310921907425,-0.8039805293083191 m-8.685320615768433,-3.4961500763893127 l1.045321673154831,3.60535591840744 1.6208536922931671,2.9093262553215027 m0.5844973027706146,-6.077513098716736 l1.5561315417289734,4.001840949058533 m-1.219460740685463,-1.9785302877426147 l6.191418170928955,-1.1684571206569672 3.428359031677246,-1.0822831094264984 m-8.414590954780579,2.525917887687683 l4.390644431114197,0.03059521084651351 3.7948077917099,-0.0713501637801528 l2.8356441855430603,-0.504949614405632 m-10.114703178405762,-1.232898235321045 l7.051234245300293,0.8391232788562775 3.7341681122779846,0.2256581373512745 m64.17411107569933,-7.535008892482438 l-0.9555055946111679,-0.3061015158891678 -0.1326570939272642,0.40141407400369644 l-0.19620003178715706,0.6945313513278961 -0.4138776659965515,3.4107279777526855 l1.4753809571266174,2.472691237926483 5.536318421363831,1.4744868874549866 l2.0534363389015198,-8.586641342844814e-05 0.918038934469223,-0.4675805941224098 l0.49457255750894547,-0.7057414948940277 0.1701197773218155,-0.8912783861160278 l-0.20209452137351036,-0.9952741116285324 -0.6527211517095566,-0.9143857657909393 l-1.6446340084075928,-0.999637171626091 -2.5714486837387085,-0.988723412156105 l-1.0150016844272614,-0.11826291680335999 m-3.9703014492988586,0.8805906027555466 l0.987028032541275,5.884601473808289 1.2394063919782639,3.8610422611236572 l1.9490821659564972,1.491621732711792 3.641924262046814,0.16854217275977135 l2.626790702342987,-1.0264653712511063 1.2641124427318573,-1.1726953089237213 l1.0368458926677704,-2.17600479722023 m-10.231733322143555,-6.528778672218323 l1.3061068952083588,3.748123049736023 m3.1681716442108154,-3.477924168109894 l0.8286051452159882,2.7231186628341675 m-4.781437814235687,-0.7186612486839294 l5.300188660621643,-0.6486456841230392 3.2752516865730286,-0.7271828502416611 l2.829408347606659,-0.872429683804512 m70.43197739636526,-3.430494866115623 l-1.3740043342113495,-0.5937972292304039 -0.7057444751262665,0.13276242651045322 l-0.9054649621248245,0.4317142069339752 -2.0996704697608948,2.6194068789482117 l-0.21172812208533287,3.0160030722618103 1.9173908233642578,2.395758777856827 l3.6834079027175903,1.5910404920578003 2.7435103058815002,0.6610874831676483 l2.102017402648926,-0.00025205510610248893 1.0738050192594528,-0.4737364500761032 l0.6640936434268951,-0.7716389000415802 0.38003064692020416,-1.0224997252225876 l0.06367670837789774,-1.2648074328899384 -0.3881538286805153,-1.334511637687683 l-1.361316293478012,-1.844446063041687 -2.0319488644599915,-1.6530132293701172 l-1.723598837852478,-0.7363339513540268 m-5.469789505004883,1.8929179012775421 l1.4191001653671265,4.0899717807769775 1.713353544473648,4.803403317928314 l1.8620286881923676,2.0361779630184174 5.920443534851074,-0.3696475550532341 m-8.61368715763092,-9.376965165138245 l1.3368633389472961,3.2427093386650085 m-2.1385669708251953,-1.7778284847736359 l4.92565780878067,-0.6589043885469437 m-4.987090229988098,-0.6707054376602173 l4.24445778131485,-0.6621520966291428 3.2338184118270874,-0.6058014184236526 l3.291351795196533,-0.5937346443533897 m-8.556150794029236,2.753247618675232 m82.08023483624856,-4.6128763015804 l-1.7212752997875214,-0.8391861617565155 -1.2167881429195404,-0.07224210537970066 l-1.086573749780655,0.17179301008582115 -3.458089232444763,2.148166298866272 l-1.2199074774980545,2.355589270591736 0.12421847321093082,3.2487374544143677 l1.9307510554790497,2.511064112186432 3.183929920196533,1.954309493303299 l2.4268005788326263,0.7788990437984467 2.8483963012695312,0.2598321996629238 l2.3097366094589233,-0.0003664952964754775 0.8480923622846603,-0.2787872217595577 l0.7781211286783218,-0.6321729719638824 0.9449241310358047,-1.6118773818016052 l0.4059944674372673,-1.7858567833900452 0.000736927759135142,-2.622479200363159 l-0.5939758196473122,-1.9303405284881592 -1.7016217112541199,-2.2529922425746918 l-2.799992859363556,-1.3813237845897675 -2.6561924815177917,-0.5705760419368744 m-3.0795133113861084,7.311477065086365 l0.841248631477356,1.7029757797718048 1.0864970088005066,2.6433515548706055 m-1.7160089313983917,-5.427259802818298 l8.200553059577942,-0.7591401040554047 m-7.422606348991394,0.6259734928607941 l6.739989519119263,-0.056402613408863544 m-7.943739891052246,-2.3120883107185364 l4.418286085128784,0.03737966064363718 3.117712140083313,-0.1342275459319353 m-5.828971862792969,0.8116763085126877 l5.734191536903381,0.5905690044164658 m78.10437061816629,-5.678036763492855 l-1.9792000949382782,-1.0376963764429092 -1.6711121797561646,-0.26711074635386467 l-1.5020185708999634,0.07397789973765612 -2.8769248723983765,1.0667722672224045 l-2.4775293469429016,2.2573278844356537 -1.0491810739040375,3.375515937805176 l0.46497542411088943,3.059379458427429 1.9085772335529327,2.5868934392929077 l2.1029891073703766,1.6627521812915802 3.209264874458313,1.5385445952415466 l2.579490840435028,0.5840891227126122 2.94533908367157,-0.00046230590669438243 l1.1658214777708054,-0.27662862092256546 1.081131026148796,-0.678514763712883 l1.3381381332874298,-1.5826210379600525 0.7298177480697632,-1.7314967513084412 l0.26838501915335655,-1.9433607161045074 -0.3044193610548973,-2.914106249809265 l-1.7099300026893616,-2.9725944995880127 -2.3317883908748627,-1.9976207613945007 l-2.265653759241104,-0.834352895617485 m-4.852913320064545,5.782067775726318 l0.6217058748006821,0.6851901859045029 3.985831141471863,2.8491374850273132 m-4.726547300815582,-4.580299556255341 l1.2514497339725494,1.6137145459651947 m-0.2339760586619377,-0.3463977575302124 l5.826175212860107,-1.194797158241272 m-7.569284439086914,-1.2218419462442398 l5.158395767211914,-0.35239145159721375 6.578352451324463,-0.9449069947004318 m-9.4929838180542,1.4156429469585419 l1.4532899856567383,2.4436411261558533 m84.37279411469717,-7.057075950142462 l-2.208217680454254,-1.213376522064209 -2.157716155052185,-0.4548083618283272 l-1.861501932144165,-0.03406344214454293 -3.4402093291282654,0.88941290974617 l-2.9760733246803284,2.0181070268154144 -1.8563896417617798,2.757701873779297 l-0.4272802919149399,3.286578357219696 0.7544098049402237,2.7217313647270203 l1.4673373103141785,2.0966434478759766 3.587392270565033,2.852413058280945 l2.820168435573578,1.3045766949653625 2.6377499103546143,0.6008695438504219 l3.0454301834106445,-0.0006257241329876706 1.4218400418758392,-0.3067830577492714 l1.4128181338310242,-0.7330719381570816 1.2267185002565384,-1.1414895206689835 l0.9246828407049179,-1.5278977155685425 0.7829616218805313,-2.890503704547882 l0.0003068545993301086,-3.3220651745796204 -1.0276706516742706,-3.3836081624031067 l-1.253172755241394,-1.999708116054535 -1.4127212762832642,-1.1822348833084106 l-2.610059976577759,-0.9711301326751709 m-5.024421811103821,6.560121178627014 l0.12868675403296947,0.935889407992363 m1.4578752219676971,-1.3779473304748535 l6.291414499282837,-2.3866477608680725 m-8.913953304290771,4.495742917060852 l6.385148763656616,1.3394594192504883 m-7.634192705154419,-4.190451800823212 l0.6383650004863739,-0.02809575293213129 3.529442548751831,0.33345337957143784 m-2.6060310006141663,0.720212385058403 l5.986022353172302,-0.6313534826040268 m82.98532959914041,-6.021005742616836 l-2.3719319701194763,-1.3442277908325195 -2.639963924884796,-0.6362368166446686 l-2.9822415113449097,-2.0865688554749795e-06 -3.326030671596527,0.692715048789978 l-3.1304526329040527,1.6816073656082153 -2.319162040948868,2.432258576154709 l-1.0619913041591644,2.2779418528079987 -0.3499101847410202,3.241588771343231 l0.8954957127571106,3.011409342288971 1.669926643371582,2.3859302699565887 l3.1202489137649536,2.4201600253582 2.913142442703247,1.413540542125702 l3.8318461179733276,1.0335274040699005 3.0424675345420837,-0.0004987118882127106 l1.5446627140045166,-0.31792663037776947 1.5786939859390259,-0.753014013171196 l1.416168212890625,-1.2233292311429977 1.0932441800832748,-1.6654376685619354 l1.008078008890152,-3.032410442829132 2.7007738481188426e-05,-3.56650710105896 l-1.0384853929281235,-3.214915692806244 -1.2528632581233978,-2.0963509380817413 l-2.1922242641448975,-2.175237536430359 -1.7443589866161346,-0.8509824424982071 m-5.91246485710144,7.313588261604309 l-0.17485057935118675,-0.9653715789318085 m1.8413923680782318,1.1445959657430649 l4.805749356746674,-3.108597993850708 m-8.485506772994995,4.191075563430786 l4.857631027698517,2.119879871606827 m-4.509594440460205,-4.190022051334381 l0.1828104630112648,0.9668882936239243 3.0477654933929443,4.819895923137665 m-3.7751340866088867,-8.634028434753418 l4.8744988441467285,-1.7220719158649445 " fill="none" stroke="black" stroke-width="1" /></svg>