<?xml version="1.0" encoding="utf-8" ?>
<svg baseProfile="full" height="88.55509846995119" version="1.1" width="821.5736767852832" xmlns="http://www.w3.org/2000/svg" xmlns:ev="http://www.w3.org/2001/xml-events" xmlns:xlink="http://www.w3.org/1999/xlink"><defs /><rect fill="white" height="88.55509846995119" width="821.5736767852832" x="0" y="0" /><path d="M25,25 m0.0,0.0 m34.83935660225143,16.91503952781204 l-1.7400877177715302,-0.06886596791446209 -3.1216847896575928,0.4204796999692917 l-2.01634481549263,1.0952149331569672 -0.39136648178100586,0.6631527841091156 l1.065242886543274,4.712285697460175 1.172671988606453,1.459164172410965 l1.1335055530071259,0.9211575984954834 1.587100774049759,0.6503648310899734 l0.5768485367298126,-0.0800142902880907 0.01892116735689342,-1.486995369195938 l-0.7529550790786743,-0.7767768204212189 -4.58046555519104,-1.3051748275756836 l-2.3470529913902283,1.5244533121585846 -1.0158278048038483,1.8386231362819672 l-0.48898767679929733,3.1901904940605164 0.6052842363715172,3.7220004200935364 l1.2615934014320374,2.0383818447589874 1.762128621339798,1.44995778799057 l3.312201201915741,1.2822742760181427 3.6850103735923767,0.39018522948026657 l3.9696934819221497,-0.4281507059931755 1.4520125091075897,-0.8186102658510208 m2.0571094751358032,-20.086779594421387 l2.8006920218467712,-0.6000823155045509 4.070521891117096,0.6587757170200348 l1.6208502650260925,1.0273013263940811 2.044808715581894,3.0593720078468323 l0.0001691769102762919,1.809290200471878 -0.7207014411687851,1.1082229763269424 l-3.261687755584717,1.779637485742569 -1.2483623623847961,0.8952906727790833 l3.415849506855011,2.0354852080345154 1.03752963244915,2.1645833551883698 l-0.5351031199097633,2.452474534511566 -1.9527588784694672,1.9568879902362823 l-2.880830764770508,1.3031668961048126 -3.6603671312332153,0.5487356707453728 l-3.0112850666046143,-0.00042979721911251545 -0.6930302828550339,-0.47631915658712387 m-0.8299458026885986,-21.648921966552734 l-0.9860432893037796,-1.086723878979683 -1.7146636545658112,-1.3268736004829407 l-2.1281996369361877,-1.0535014420747757 -2.064008116722107,-0.5207601934671402 l-0.40473539382219315,0.5848800390958786 0.23120051249861717,0.9272163361310959 l1.9079479575157166,1.4677196741104126 1.8691368401050568,0.7910725474357605 m83.08398128033332,-0.8398433862021193 l-1.8682889640331268,-0.2119460329413414 -3.5552629828453064,0.28363820165395737 l-2.773732542991638,1.0869427770376205 -1.105850636959076,1.5025079250335693 l-0.11572180315852165,2.357020527124405 0.8639100939035416,2.2438012063503265 l1.4602763950824738,1.6945774853229523 1.2838156521320343,1.0763204097747803 l1.704511046409607,0.716879665851593 -0.4844202846288681,0.12587972916662693 l-2.690317928791046,1.1835884302854538 -1.4807583391666412,1.6985198855400085 l-0.8707988262176514,2.7023914456367493 0.09693427011370659,1.835537850856781 l0.8403491228818893,1.3626043498516083 1.5760359168052673,1.0778002440929413 l2.0799200236797333,0.5755602568387985 5.079365968704224,-0.07720167748630047 l2.072223722934723,-0.9413543343544006 3.09276282787323,-3.509780466556549 l0.8981508761644363,-2.584475576877594 -0.1260724849998951,-8.341019749641418 l-1.3774660229682922,-4.08689945936203 -1.794070154428482,-1.8200479447841644 l-1.3718602061271667,0.08193373680114746 -0.7956229895353317,1.1749205738306046 l-0.5941623821854591,2.6987773180007935 -0.0007774146070005372,3.37169349193573 l0.3270343318581581,3.669009506702423 0.5104787275195122,3.0858632922172546 l0.5881711095571518,2.1781569719314575 0.4008051007986069,1.2674221396446228 l1.750246286392212,2.7351966500282288 6.206507682800293,0.6930439174175262 l-0.4256002977490425,-3.5162273049354553 -3.1644484400749207,-5.761160254478455 l-2.1991245448589325,-4.563232362270355 -0.7840371131896973,-1.4963643252849579 l-0.9401170164346695,-0.6598842889070511 m0.7827499508857727,-2.506779730319977 l-3.4097039699554443,-0.4946357011795044 -1.7037440836429596,0.2794650010764599 l-0.7189188897609711,0.6388282030820847 -0.0701274024322629,1.2780112028121948 l0.8754923194646835,0.8520089834928513 6.292961239814758,0.06103845313191414 l0.6798030436038971,-1.3281543552875519 -0.8911101520061493,-1.0472948104143143 l-2.1499036252498627,-0.33838406205177307 m78.53115134048494,-3.3462571213021874 l-1.9628696143627167,-0.3255164250731468 -3.841221034526825,0.1417195238173008 l-3.4018367528915405,0.974753126502037 -1.5838466584682465,1.2825168669223785 l-0.7325407117605209,1.3780122995376587 -0.00023304006390389986,3.2974931597709656 l0.7858408987522125,2.4637219309806824 1.0919570922851562,1.8774998188018799 l1.09128899872303,1.3385440409183502 2.210661768913269,1.4269660413265228 l-0.1133565790951252,0.2928578108549118 -1.9661571085453033,1.3169096410274506 l-1.1364591121673584,1.6802527010440826 -0.37389472126960754,1.5182679891586304 l0.4017501696944237,2.103932648897171 1.123795136809349,1.247813105583191 l1.686146855354309,0.805337205529213 4.8409950733184814,0.46129193156957626 l2.4156947433948517,-0.5586255341768265 2.454618066549301,-1.8734893202781677 l2.7759715914726257,-5.356964468955994 0.5791463330388069,-3.1807246804237366 l-0.3644760698080063,-5.453888773918152 -1.1709117889404297,-2.8836417198181152 l-1.6052845120429993,-1.6538682579994202 -1.6412325203418732,-0.5386601015925407 l-0.9817428141832352,0.3085635229945183 -0.9212110191583633,1.5067458152770996 l-0.4944775253534317,3.8336318731307983 -0.15063929371535778,3.6273637413978577 l-0.23954084143042564,3.634927272796631 -0.1520710438489914,2.7702271938323975 l-0.11399597860872746,1.7407821118831635 -0.2528115175664425,1.126069724559784 l8.239545822143555,0.6648874282836914 3.736783266067505,0.2501535043120384 l0.2304019220173359,-0.5712629482150078 -3.113524317741394,-5.823200345039368 l-1.4934808015823364,-2.518099844455719 -1.3030430674552917,-1.8774500489234924 m-2.581614851951599,-5.885937213897705 l-3.2272282242774963,-0.729806199669838 -1.3983024656772614,-0.1437562145292759 l-0.9772380441427231,0.31023815274238586 -0.6522481888532639,0.9951432049274445 l0.15937911346554756,0.9220637381076813 1.0043685138225555,0.646878257393837 l2.861822545528412,1.5266633681676467e-05 0.9538912028074265,-1.155821830034256 m80.58821117704156,-0.36985658995149606 l-2.0067186653614044,-0.4420606791973114 -3.9322632551193237,0.021188873797655106 l-3.90347957611084,0.9327834844589233 -2.0161408185958862,1.2753312289714813 l-1.0688798874616623,1.2664686143398285 -0.8781859278678894,2.398010790348053 l1.9061581042478792e-05,3.271123468875885 0.7648313045501709,2.428767830133438 l1.1937996000051498,1.965280920267105 1.1253830045461655,1.365562528371811 l1.0602543503046036,1.175755336880684 1.6222704946994781,1.0446414351463318 l2.163006514310837,0.5989189445972443 1.3938671350479126,0.00017534437574795447 l0.289971437305212,-0.2402842789888382 -0.4706546664237976,-1.5071530640125275 l-0.7828524708747864,-0.9624386578798294 -2.852739095687866,-3.5305219888687134 l-1.0257037729024887,-1.534743756055832 -1.3048839569091797,-3.007214367389679 l-0.7197542488574982,-3.192841112613678 -0.01334578962996602,-3.1351780891418457 l0.7308529317378998,-1.702180802822113 3.307090401649475,-2.669740319252014 l4.08117413520813,-1.360253244638443 4.333084225654602,-0.021359219681471586 l3.42850923538208,1.4205990731716156 2.7665185928344727,2.4836786091327667 l1.9348765909671783,3.388924300670624 0.8688047528266907,3.968712091445923 l0.000937917284318246,5.030256509780884 -1.4271633327007294,3.6568433046340942 l-2.0841264724731445,2.2373592853546143 -2.698800265789032,1.2748733162879944 l-3.134733736515045,0.2964232861995697 -1.6202028095722198,-0.5626021325588226 l-1.7205095291137695,-1.6855460405349731 m0.3618151694536209,-10.741018056869507 l-0.7161716371774673,1.8304187059402466 -0.4951275885105133,1.8819135427474976 l0.19177788868546486,1.246691346168518 0.6822279095649719,0.6403518468141556 l2.959492802619934,-0.3666689246892929 -0.029728033114224672,-2.387462556362152 l-1.7115315794944763,-1.1849962919950485 -1.5114203095436096,-0.2705033868551254 m-0.8004990965127945,-4.535643756389618 l-0.29291242361068726,-0.11731761507689953 -0.6033049896359444,-0.5069727450609207 l-2.264983206987381,-2.550225555896759 m90.51873794424864,-1.233591218165202 l-1.9928033649921417,-0.5304067581892014 -3.833376169204712,-0.06597449537366629 l-4.523868262767792,0.8694973587989807 -2.3861023783683777,1.279674917459488 l-1.3525037467479706,1.2681616842746735 -0.9576734155416489,1.6456888616085052 l-0.7870028167963028,3.936769664287567 4.988999535271432e-05,2.93415367603302 l0.7264258712530136,2.3192182183265686 0.6271097809076309,1.103491559624672 l1.4464601874351501,1.4650356769561768 2.1845293045043945,1.331845372915268 l1.7968891561031342,0.5533414706587791 1.6597270965576172,0.00019432161934673786 l2.0426103472709656,7.603766334796092e-05 0.8063825964927673,0.4102088138461113 l1.9209933280944824,0.6540299952030182 3.05370956659317,0.0514962337911129 l1.1016035825014114,-0.6157125905156136 2.2079627215862274,-3.65493506193161 l1.0182974487543106,-4.860021471977234 0.0007489392737625167,-4.968985617160797 l-1.0944364964962006,-3.200247287750244 -1.2425675988197327,-1.9522005319595337 l-1.5631155669689178,-1.3253261148929596 -1.8522657454013824,-0.7226487994194031 l-2.8925642371177673,-0.0009440004942007363 -3.2385805249214172,1.2726598978042603 l-2.920365333557129,2.411170154809952 -1.195410043001175,1.868913620710373 l-0.843900516629219,3.154200315475464 -0.5634529888629913,5.423644185066223 l-0.12906698510050774,3.9620643854141235 0.2555985376238823,2.1002130210399628 l0.5105986818671227,0.9213544428348541 9.057089686393738,0.16041776165366173 l4.1005319356918335,-0.1262223720550537 1.6297315061092377,-0.09687578305602074 l-0.004269860510248691,-3.477622866630554 -0.7339085638523102,-4.807014167308807 m-8.244128227233887,-6.078065037727356 l-0.6828261166810989,-0.7767347991466522 -0.5836870893836021,-0.7569613307714462 l-0.6516572833061218,-0.46608448028564453 -0.4392571747303009,-0.1576032117009163 l-0.15637312084436417,0.39320990443229675 0.6371036916971207,1.1630334705114365 m3.0447974801063538,1.0984642803668976 l-0.014191048685461283,-1.4054995775222778 0.2875122241675854,-1.2203782051801682 l0.6237895786762238,0.023497079964727163 0.07813191972672939,1.9862964749336243 m85.87415158866406,-5.920280976693562 l-1.959221065044403,-0.6066730245947838 -3.698921501636505,-0.14980411157011986 l-4.897966086864471,0.7465682923793793 -2.7411705255508423,1.2193326652050018 l-1.9495482742786407,1.647437959909439 -1.0948925465345383,1.5640248358249664 l-0.9341637790203094,2.7908295392990112 -1.9990848159068264e-05,3.227590322494507 l0.530792847275734,2.7160492539405823 0.5146270245313644,1.2943464517593384 l1.2708494067192078,1.8900515139102936 1.4097905158996582,1.3533028960227966 l2.192068248987198,1.3517233729362488 1.915530413389206,0.6448482722043991 l2.4783308804035187,0.3118368238210678 2.3083622753620148,-7.81061714860698e-06 l1.7123615741729736,-0.4634477198123932 1.512620449066162,-0.9147972613573074 l2.0322126150131226,-2.3609760403633118 1.1600188910961151,-2.5482794642448425 l0.881066620349884,-6.286047101020813 0.000815942621557042,-4.100992381572723 l-0.9310107678174973,-3.200812339782715 -1.1550132930278778,-1.8989908695220947 l-1.5146133303642273,-1.2741447985172272 -1.880611926317215,-0.7091058790683746 l-3.2524502277374268,-0.09738949127495289 -3.5807961225509644,1.199953779578209 l-1.845257580280304,1.3184736669063568 -1.861301213502884,2.5567805767059326 m3.1765711307525635,15.360318422317505 l-1.1692334711551666,3.333578109741211 -0.7913370430469513,2.3494350910186768 l-0.13677402399480343,1.099390834569931 0.465787872672081,0.3380182757973671 l7.403990626335144,-0.5816340819001198 0.8352474868297577,-1.5779361128807068 l0.0873410515487194,-2.3707039654254913 -0.4449804127216339,-1.6914117336273193 l-0.600019134581089,-1.0828222334384918 -1.352670043706894,-0.5671241134405136 l-1.449522078037262,-0.08993597701191902 m-0.7656588405370712,-12.925755977630615 l-0.10102786123752594,-0.7256896048784256 0.09752861224114895,-4.375350177288055 l0.9713977575302124,1.117682158946991 m0.8697280287742615,3.7296676635742188 l1.9281838834285736,-0.9220661222934723 1.8761058151721954,-0.5762134119868279 l0.9055387228727341,0.22743532434105873 0.0008801525109447539,0.866568312048912 l-3.008970022201538,1.5135617554187775 m84.95475996938694,-4.536108592419623 l-1.8918481469154358,-0.6547663360834122 -3.4971338510513306,-0.22243622690439224 l-5.36474883556366,0.6468664854764938 -3.0050498247146606,1.1791541427373886 l-2.2635814547538757,1.6653841733932495 -1.3394711911678314,1.5545061230659485 l-1.262073665857315,2.674500346183777 -0.5465317144989967,3.320440351963043 l0.00011342501238686964,3.1194880604743958 0.3189364820718765,1.5240783989429474 l1.0743803530931473,2.4080319702625275 1.6030828654766083,2.04505518078804 l1.5299366414546967,1.2650932371616364 2.3137129843235016,1.2491228431463242 l2.0285238325595856,0.6174779683351517 2.5480714440345764,-0.00013013288480578922 l3.0253157019615173,0.00011053216439904645 2.170567661523819,-0.5578955262899399 l2.7761968970298767,-1.7156113684177399 1.7377197742462158,-2.078120708465576 l1.114172637462616,-2.429725080728531 0.8510106056928635,-5.948580503463745 l0.0008067599992500618,-3.711157441139221 -0.606035590171814,-2.63624370098114 l-0.9698228538036346,-1.980050802230835 -1.3586020469665527,-1.4968237280845642 l-1.723315566778183,-1.0285590589046478 -2.929648458957672,-0.7272334396839142 l-3.56704980134964,0.15979111194610596 -1.761246919631958,0.7741379737854004 m-2.420955002307892,17.912226915359497 l-1.3289150595664978,2.305794507265091 -1.1094748973846436,2.299311012029648 l-0.3710266575217247,1.4541944861412048 0.42884398251771927,0.616326592862606 l7.643895149230957,-0.44793665409088135 0.8722825348377228,-1.4728085696697235 l0.24677405133843422,-2.358800321817398 -0.10214529000222683,-1.5085503458976746 l-0.7271102070808411,-1.3360056281089783 -1.3802456855773926,-0.547238402068615 m-1.1669236421585083,-13.381627798080444 l0.04688860848546028,-1.245029792189598 0.9371912479400635,-3.425980806350708 l0.9252694994211197,0.5619014799594879 0.8407335728406906,2.710460126399994 m-2.4659597873687744,-0.18311750143766403 l1.8407158553600311,-0.42280256748199463 1.681382805109024,-0.024612597189843655 l-0.06616347935050726,0.5198348313570023 -2.56637841463089,1.2496870756149292 l-0.8696595579385757,0.41997142136096954 m88.95073612366104,-1.7456990360625468 l-1.7987613379955292,-0.6942487508058548 -3.231087625026703,-0.28354451060295105 l-5.480462908744812,0.48708342015743256 -3.1881847977638245,1.1026668548583984 l-2.522735297679901,1.6318406164646149 -1.5286217629909515,1.5331855416297913 l-1.5304888784885406,2.660260796546936 -0.7034935802221298,2.3331470787525177 l0.0001628292739042081,3.4549111127853394 0.29715459793806076,1.646171659231186 l1.0354593396186829,2.727940082550049 1.1897850781679153,1.9033540785312653 l1.362222135066986,1.4637809991836548 1.617322564125061,1.16654634475708 l2.6333096623420715,1.1914262920618057 2.25084587931633,0.48248879611492157 l3.1970635056495667,6.581784077752673e-06 2.3346051573753357,-0.6488063186407089 l3.167257010936737,-1.9343940913677216 1.972549557685852,-2.2002537548542023 l1.2549206614494324,-2.4219098687171936 0.8997146785259247,-3.9053356647491455 l0.0008562478615203872,-3.8322603702545166 -0.5991365015506744,-2.7113986015319824 l-0.9449272602796555,-2.1605774760246277 -1.3047386705875397,-1.7446605861186981 l-1.5950171649456024,-1.2298636883497238 -2.7628320455551147,-1.077776774764061 l-2.2743619978427887,-0.20811162889003754 -2.878665030002594,0.6883449107408524 m-3.969603180885315,15.303168296813965 l-1.849018633365631,2.644365429878235 -1.7602185904979706,2.7135059237480164 l-0.6538470089435577,1.4733147621154785 4.9948278069496155,-0.3944214805960655 l3.7171700596809387,-0.541236437857151 1.0735350847244263,-1.418384462594986 l0.47006234526634216,-1.9910533726215363 -0.24937111884355545,-3.3220162987709045 l-0.12631739489734173,-0.1413773838430643 -0.5942466482520103,1.4479321241378784 m-2.459048628807068,-12.788970470428467 l-0.2863618731498718,-2.5188496708869934 0.3750910982489586,-1.0716426372528076 l2.7056968212127686,-2.147597372531891 m-0.5133108794689178,5.295795798301697 l3.1911545991897583,-0.33746980130672455 2.1350109577178955,0.03970467485487461 l-0.12170142494142056,0.19446026533842087 -1.1236203461885452,0.5616400763392448 l-2.7989965677261353,0.8841780573129654 m0.4481644928455353,-0.7072293013334274 l0.06845199968665838,1.0167692601680756 -0.03351079532876611,0.7825743407011032 m86.95734429159359,-6.1011406022407755 l-1.6964167356491089,-0.7055481523275375 -2.910425364971161,-0.31402889639139175 l-5.548067092895508,0.4015158489346504 -3.379218280315399,1.0944750905036926 l-2.720154821872711,1.6305303573608398 -1.6821697354316711,1.5510578453540802 l-1.7870330810546875,2.702375054359436 -0.8278141915798187,2.235313206911087 l0.00011745842130039819,3.388368785381317 -8.23282618966914e-06,3.609440326690674 l0.3160972148180008,1.5855106711387634 1.0926403105258942,2.4956555664539337 l0.8804478496313095,1.1938346922397614 2.0271165668964386,1.72387033700943 l2.04055979847908,1.0071156173944473 2.3085586726665497,0.563925988972187 l4.448782503604889,-9.400075214216486e-05 2.0506559312343597,-0.5445969477295876 l3.2991182804107666,-1.732107549905777 2.2023767232894897,-1.9838328659534454 l1.5738989412784576,-2.209174335002899 1.39402374625206,-3.6401793360710144 l0.42250461876392365,-2.9831039905548096 0.0009432664955966175,-3.467213809490204 l-0.5956416577100754,-2.673165798187256 -1.017344817519188,-2.227943241596222 l-1.3701105117797852,-1.7710582911968231 -1.7135217785835266,-1.3172924518585205 l-1.87563955783844,-0.7164911180734634 -3.0367493629455566,-0.2014683187007904 l-1.5268267691135406,0.4763701558113098 m-5.847261548042297,14.436391592025757 l-1.3696596026420593,-0.7740842550992966 -4.607976973056793,-5.909200310707092 l-1.5361914038658142,-3.2627376914024353 0.27167413383722305,-0.863126814365387 l0.9848478436470032,-0.3004661574959755 4.005791246891022,0.9708141535520554 l3.6275774240493774,2.4665111303329468 1.1905156075954437,0.8067813515663147 m6.613972783088684,1.1336080729961395 l1.5914100408554077,-2.660767138004303 1.620558649301529,-1.4096221327781677 l1.9705039262771606,-0.8705491572618484 0.3119073249399662,2.0338381826877594 l-0.6803296506404877,4.085132479667664 -1.107008159160614,2.1874909102916718 m-8.767833709716797,1.5250995755195618 l-0.208782646805048,0.8924362808465958 m2.3118773102760315,-0.9653838723897934 l-0.04742777906358242,0.5187693238258362 -0.33593177795410156,0.6822527945041656 l-0.01620664494112134,0.2605108357965946 0.5237975716590881,-0.4861927032470703 l0.11982392519712448,0.040212967433035374 m86.48819573287255,-13.192043525533563 l-1.5677089989185333,-0.7068280875682831 -2.5567972660064697,-0.3346925601363182 l-5.573264956474304,0.35027869045734406 -3.6714914441108704,1.1197429150342941 l-2.3756182193756104,1.2425174564123154 -2.3785920441150665,2.092260867357254 l-1.4017799496650696,1.9305519759654999 -1.2725412845611572,3.216884434223175 l-0.435355044901371,2.617654502391815 0.00032832427677931264,3.5258227586746216 l0.4003680497407913,1.6149041056632996 1.2836241722106934,2.5562134385108948 l0.9795454144477844,1.2582065165042877 2.1800652146339417,1.7800204455852509 l2.15632900595665,1.054123267531395 4.825866520404816,0.8896121382713318 l3.5572239756584167,-3.4144775327149546e-05 2.6571497321128845,-0.7179057598114014 l2.3222897946834564,-1.362348198890686 2.92962908744812,-2.892705798149109 l1.6275064647197723,-2.7728894352912903 0.9301110357046127,-2.801714539527893 l0.4318104311823845,-3.9665794372558594 0.0009243452223017812,-3.329571485519409 l-0.5268310382962227,-2.467234879732132 -0.9715446084737778,-2.0639491081237793 l-1.3763995468616486,-1.679602712392807 -1.7380483448505402,-1.2120337039232254 l-2.0257243514060974,-0.7197479903697968 -3.257409930229187,-0.27566058561205864 l-3.359876573085785,0.7610861957073212 m-5.824862122535706,10.56267261505127 l-0.5993079021573067,-3.6345037817955017 -0.7447571307420731,-7.9483044147491455 l0.9832873195409775,0.6026154011487961 2.2765378654003143,3.9074626564979553 l2.180708199739456,2.1028831601142883 m7.623790502548218,-0.8861079812049866 l0.09249947033822536,-0.862952321767807 1.4376917481422424,-2.3652631044387817 l2.272460013628006,-2.571086287498474 0.5417938530445099,0.2174508385360241 l0.08848829194903374,7.665923237800598 -0.3831801190972328,2.714647352695465 m-10.054007768630981,2.709297835826874 l-0.3182803839445114,0.47183606773614883 -0.13320502825081348,0.12594794854521751 l-0.14464493840932846,-0.8108026534318924 m4.301299452781677,-0.026970654726028442 l-0.008232903783209622,0.6109602004289627 -0.19114093855023384,-0.00886627531144768 l-0.38442462682724,-0.6387957185506821 m-3.632460832595825,3.321879506111145 l-0.1363032590597868,2.320828288793564 -0.509253703057766,0.5523799359798431 l-1.7725546658039093,-0.41613880544900894 " fill="none" stroke="black" stroke-width="1" /></svg>