<?xml version="1.0" encoding="utf-8" ?>
<svg baseProfile="full" height="98.27296293340623" version="1.1" width="816.8463306408376" xmlns="http://www.w3.org/2000/svg" xmlns:ev="http://www.w3.org/2001/xml-events" xmlns:xlink="http://www.w3.org/1999/xlink"><defs /><rect fill="white" height="98.27296293340623" width="816.8463306408376" x="0" y="0" /><path d="M25,25 m0.0,0.0 m34.87080128863454,23.66700758564548 l0.595378577709198,2.232142686843872 5.613358020782471,15.414652824401855 l0.42942509055137634,3.4754136204719543 -0.23783735930919647,1.4617051184177399 l-1.0439444333314896,0.4934065043926239 -2.2305382788181305,-0.12213567271828651 l-3.3854255080223083,-1.1331138014793396 -5.797439813613892,-4.011031091213226 l-5.116641521453857,-4.9433571100234985 -1.6739602386951447,-2.6682472229003906 l-0.6272158026695251,-2.4952124059200287 0.30108511447906494,-4.1182079911231995 l1.2396743148565292,-3.0302059650421143 2.9532918334007263,-3.6542972922325134 l2.6421618461608887,-1.9021932780742645 7.041791677474976,-2.8856277465820312 l5.192594528198242,-1.419781744480133 5.128806829452515,-0.5300215259194374 l3.9802351593971252,0.26205863803625107 3.512979745864868,1.2240759283304214 l1.5034782886505127,1.1450280249118805 1.338711827993393,2.2126348316669464 l0.6600645929574966,3.078347146511078 -0.2036895975470543,1.951027661561966 l-1.3194404542446136,2.296672612428665 -1.5491627156734467,1.3225901126861572 l-4.855022132396698,1.989142894744873 -3.1953760981559753,0.8591385185718536 l2.221931368112564,-0.7668863236904144 3.668113946914673,-0.22428372874855995 l5.934600234031677,0.8386678248643875 3.3507126569747925,1.7074482142925262 l2.2043856978416443,2.3881004750728607 0.9314362704753876,2.813161611557007 l-0.3658202663064003,2.864977717399597 -1.0177423059940338,1.5219371020793915 l-2.6873034238815308,1.7977678775787354 -4.500030279159546,1.3313372433185577 l-5.420951843261719,0.3702383488416672 -8.369638919830322,-1.660788208246231 l-3.3127161860466003,-1.459670066833496 -1.7972791194915771,-1.4949001371860504 l-0.9928680211305618,-1.6310656070709229 m-1.8887153267860413,-17.670810222625732 l-1.1357676982879639,-2.4457018077373505 -1.8830417096614838,-3.136019706726074 l-1.6860927641391754,-1.8574677407741547 -2.90873646736145,-1.9613271951675415 l-2.4275797605514526,-0.7245609164237976 -3.2864442467689514,-0.0007117048517102376 l-1.1503956466913223,0.5789363756775856 -1.4631769061088562,1.9302494823932648 l-0.6735918670892715,2.1564671397209167 0.038783003110438585,3.5685738921165466 l0.8734173327684402,2.2307799756526947 3.5700976848602295,4.264022409915924 l2.2759415209293365,1.6428859531879425 3.225349187850952,1.3816849887371063 l1.5280884504318237,0.3700205683708191 1.740649789571762,-0.1392299309372902 m4.344863295555115,-11.715511083602905 l1.4357949793338776,-3.5594114661216736 1.4776970446109772,-2.129157781600952 l1.9767110049724579,-1.9317907094955444 2.44564026594162,-1.3740912079811096 l1.7045575380325317,-0.32552648335695267 1.8840442597866058,0.5461522564291954 l1.8228782713413239,1.8195956945419312 1.1772894859313965,2.9629647731781006 l-0.03250006819143891,3.1890299916267395 -1.4343798160552979,2.753620445728302 l-2.286202162504196,2.1845002472400665 -3.0839788913726807,1.529756337404251 m-8.243773579597473,-8.757442831993103 l-1.1465666443109512,-0.38481421768665314 -1.4960050582885742,-0.17379155382514 l-1.9544215500354767,0.35911280661821365 -1.2538492679595947,0.9179080277681351 l-0.5845902487635612,1.1562708020210266 0.1312386617064476,1.0925206542015076 l0.8948632329702377,0.7644104957580566 2.5295796990394592,0.00010979852959280834 l1.053474023938179,-0.6319557130336761 0.7524340599775314,-1.0436691343784332 l0.18070250749588013,-1.1644517630338669 -0.7258980721235275,-1.358148604631424 m0.11113421991467476,2.8390875458717346 l-1.5627796947956085,0.22093236446380615 -1.185600757598877,0.9252484887838364 l-0.5210152268409729,1.0776352882385254 0.12385311536490917,0.9719648957252502 l0.8520679920911789,0.6400361657142639 2.0693479478359222,0.20618848502635956 l1.485871970653534,-0.6489969044923782 0.8421164751052856,-1.0462337732315063 l0.1400512084364891,-1.1253789067268372 -0.8606022596359253,-1.3478340208530426 l-1.4790096879005432,-0.7011345773935318 m87.45539431460202,6.612133484813967 l0.6030566245317459,2.211843580007553 4.255062937736511,16.806892156600952 l0.32529551535844803,3.614482581615448 -0.046621859073638916,1.9287942349910736 l-0.3455791622400284,0.7430291920900345 -0.9682183712720871,0.5194876343011856 l-2.1040019392967224,-0.0044870798592455685 -3.010552227497101,-1.1573415994644165 l-3.731943368911743,-2.856396436691284 -4.822571277618408,-6.5983182191848755 l-2.0497989654541016,-5.64761757850647 -0.49793634563684464,-5.657793283462524 l0.61392892152071,-3.062770962715149 1.3768628239631653,-2.2243960201740265 l1.9860386848449707,-1.747509390115738 3.967045247554779,-1.91351518034935 l5.055308938026428,-1.603562980890274 4.955831170082092,-1.0511086136102676 l4.532839357852936,-0.21389657631516457 3.4032922983169556,0.7152225077152252 l2.6772263646125793,1.7176751792430878 1.2240377068519592,1.5724822878837585 l0.6192885339260101,2.3853033781051636 -0.464993454515934,2.817738652229309 l-2.0535124838352203,2.687506377696991 -3.2891258597373962,2.2249284386634827 l-4.28633987903595,1.5630163252353668 -2.348655015230179,0.2563067898154259 l1.9242462515830994,-1.28996342420578 3.6452800035476685,-0.9108357131481171 l6.027952432632446,0.07001627702265978 2.9378733038902283,1.3306300342082977 l1.301141381263733,1.2009735405445099 0.9667416661977768,2.1733269095420837 l-0.13321330770850182,2.8155434131622314 -0.9032835066318512,1.4014141261577606 l-2.4865402281284332,1.764242947101593 -4.223996698856354,1.4092239737510681 l-5.218144655227661,0.5120675265789032 -4.92520272731781,-0.5895016714930534 l-1.3988295197486877,-0.7042784988880157 -1.5712937712669373,-1.8391838669776917 m-4.842060804367065,-16.600838899612427 l-1.378365308046341,-2.5952446460723877 -2.113381326198578,-2.801547348499298 l-3.03259015083313,-2.5463080406188965 -2.416299879550934,-1.016102358698845 l-3.380136787891388,-0.37711288779973984 -1.2636688351631165,0.4105331376194954 l-1.7104239761829376,1.6857397556304932 -0.9155724942684174,1.9076639413833618 l-0.44626619666814804,3.2942843437194824 0.5266574025154114,2.350091189146042 l1.2560614943504333,1.8455834686756134 2.7696186304092407,2.0530498027801514 l4.056139588356018,1.495818942785263 1.2160801142454147,0.47336094081401825 l2.3591625690460205,1.5390516817569733 1.268761307001114,0.8968872576951981 m4.5304617285728455,-13.775718212127686 l-2.7837002277374268,-4.314922392368317 -1.6846860945224762,-1.9019708037376404 l-1.9264976680278778,-1.5842406451702118 -2.206432521343231,-1.1019043624401093 l-1.515749990940094,-0.31723521649837494 -1.8345290422439575,0.479741171002388 l-1.1201106756925583,1.0986068099737167 -0.6351282447576523,1.3962195813655853 l-0.0913363229483366,2.5441592931747437 1.2322577089071274,3.3162394165992737 l1.5366731584072113,1.8996672332286835 1.613001674413681,1.0136421769857407 m8.745990991592407,-5.2339500188827515 l2.311241924762726,-2.8886860609054565 1.7370979487895966,-1.3049495220184326 l1.4769037067890167,-0.38521096110343933 1.767144501209259,0.3770633786916733 l1.6105477511882782,1.512610912322998 0.5639428645372391,1.3207876682281494 l0.03793446347117424,2.0712104439735413 -1.0160727053880692,2.1294794976711273 l-1.0855067521333694,0.9982051700353622 -1.9895131886005402,0.7750334590673447 l-2.8792011737823486,0.09808367118239403 -0.9216852486133575,-0.602530799806118 l-0.42299922555685043,-1.101071536540985 m-1.2800639867782593,-3.8662993907928467 l-0.5861794576048851,-0.11257195845246315 -0.7700490206480026,0.15197529457509518 l-0.8544151484966278,0.7502667605876923 -0.31669657677412033,0.9463781863451004 l0.4009615257382393,0.7007092237472534 1.4201880991458893,-0.00047866102249827236 l0.5983619019389153,-1.3187691569328308 -0.4390984773635864,-0.5566718056797981 m87.19914221670479,9.161944918814697 l0.41570574045181274,2.2213996946811676 2.9024824500083923,16.876652240753174 l0.4051133617758751,3.978496491909027 0.09655187837779522,1.5693053603172302 l-0.08987531065940857,0.7753483951091766 -0.30520979315042496,0.6477764993906021 l-0.6808239221572876,0.33927615731954575 -4.043704867362976,-1.9510670006275177 l-3.0944105982780457,-2.798745334148407 -4.268304109573364,-6.7085182666778564 l-2.025277763605118,-6.077951788902283 -0.4921850189566612,-5.541083812713623 l0.5686341971158981,-3.1616589426994324 1.3624350726604462,-2.359001338481903 l3.1430694460868835,-2.7346718311309814 4.691080152988434,-2.1527203917503357 l4.8164257407188416,-1.0861412435770035 4.417818784713745,-0.043054502457380295 l1.8011607229709625,0.7377146184444427 1.653909683227539,1.8451619148254395 l0.6536899507045746,1.681349277496338 -0.021371315233409405,2.5194770097732544 l-0.7703680545091629,1.6179753839969635 -2.055313140153885,1.9559769332408905 l-3.5462459921836853,1.8359391391277313 -4.066984951496124,0.9572006016969681 l3.0612054467201233,-1.4853128790855408 4.341575801372528,-0.9424051642417908 l2.5547730922698975,0.05888447165489197 2.568502724170685,0.9824508428573608 l2.1668875217437744,2.1311624348163605 0.7600143551826477,1.6347973048686981 l0.10143529623746872,2.578219771385193 -1.570952981710434,2.9032546281814575 l-1.6722890734672546,1.4142338931560516 -3.465786576271057,1.5778964757919312 l-4.574829041957855,0.8116647601127625 -4.723737835884094,-0.18134312704205513 l-1.2412165105342865,-0.545709915459156 m-5.067705512046814,-15.656723976135254 l-1.5380588173866272,-2.453346848487854 -2.32512503862381,-2.6275992393493652 l-2.303384840488434,-1.3958647847175598 -3.3258968591690063,-0.8505841344594955 l-3.421337604522705,0.29175492003560066 -1.890830546617508,0.8768694847822189 l-1.2979225814342499,1.2301072478294373 -1.1850637942552567,2.601032257080078 l-0.20545018836855888,2.1919184923171997 0.5444638431072235,1.8224924802780151 l1.2642359733581543,1.4979144930839539 4.614397883415222,2.5049489736557007 l1.9305884838104248,1.031002253293991 2.299520820379257,1.0300330072641373 l-0.23948319256305695,2.8026679158210754 -0.13668910600245,2.50428169965744 l0.5463627353310585,2.0275241136550903 1.2133945524692535,1.4764517545700073 m5.731835961341858,-23.14105987548828 l-0.16578206792473793,-4.1633084416389465 -0.7993963360786438,-2.591027617454529 l-1.1537638306617737,-1.3825365900993347 -1.4950485527515411,-0.5707312002778053 l-1.0517891496419907,0.16295172274112701 -1.389017105102539,1.2086869776248932 l-0.74250228703022,1.470053642988205 -0.10567359626293182,1.1364132165908813 l0.7950838655233383,1.4655785262584686 1.2690755724906921,0.7371331751346588 m6.806440949440002,1.0010267049074173 l-0.2881287783384323,-1.08468659222126 0.5506505072116852,-2.309555262327194 l1.1199203133583069,-1.6656504571437836 1.2961135804653168,-0.8437324315309525 l1.3051053881645203,-0.17832983285188675 1.0840418934822083,0.5166414752602577 l1.0556518286466599,1.74398273229599 0.2183263748884201,1.4820420742034912 l-0.6034711003303528,1.917346566915512 -0.9715388715267181,0.9428560733795166 l-1.8011066317558289,0.6535058468580246 m-5.518814921379089,-0.5555541813373566 l-0.6884939968585968,-0.4127712547779083 -0.7351603358983994,-0.7904766499996185 l-1.2855035066604614,-2.2094668447971344 -0.4043188691139221,-1.5391747653484344 l0.1838318444788456,-1.6796430945396423 0.7777047902345657,-1.05791874229908 l1.840343177318573,-0.7445754110813141 1.5674366056919098,0.12401814572513103 l1.7169243097305298,1.3753460347652435 m80.6093674711883,7.546217821072787 l0.34904729574918747,2.015089839696884 1.7957715690135956,16.215145587921143 l0.2937651425600052,4.241175353527069 0.21672023460268974,1.8674468994140625 l0.1926388032734394,0.9669661521911621 0.2010258473455906,0.5168817564845085 l0.585726723074913,0.13135037384927273 1.8917928636074066,-1.6215629875659943 l3.188301920890808,-7.069645524024963 0.9515349566936493,-9.340131878852844 l-1.0485311597585678,-4.192419946193695 -1.8610911071300507,-2.6307937502861023 l-2.865852415561676,-1.9501058757305145 -2.5890371203422546,-0.7597606629133224 l-2.226439118385315,-0.028026136569678783 -2.6213648915290833,0.7921616733074188 l-1.5861919522285461,1.020803451538086 -1.650724709033966,1.9734187424182892 l-0.7078807055950165,1.761418730020523 -0.08248157799243927,2.4223066866397858 l0.5022724345326424,0.7328056544065475 2.660250663757324,0.8021222800016403 l2.913713753223419,-0.5712641030550003 1.9861122965812683,-1.1876750737428665 l1.7682527005672455,-2.041657418012619 0.5760231986641884,-1.6950498521327972 l-0.3330468013882637,-2.1740275621414185 -1.2213578820228577,-1.4125491678714752 l-1.8166443705558777,-0.8305955678224564 -3.166579008102417,-0.30854087322950363 l-3.425564765930176,0.9026093780994415 -1.926521360874176,1.1797533184289932 l-1.1323311179876328,1.2809298932552338 -0.6917117536067963,2.096051275730133 l0.20673269405961037,1.6002492606639862 1.013561338186264,1.063840091228485 l2.9689258337020874,0.9294059127569199 4.821089506149292,-0.4766552150249481 l2.24173441529274,-1.1739032715559006 1.7871572077274323,-1.9691534340381622 l0.4709957167506218,-1.540871113538742 -0.5004794895648956,-1.8339355289936066 l-1.2968513369560242,-1.0163085907697678 -2.699034810066223,-0.5924062430858612 l-3.201739490032196,0.4217452183365822 m1.129651814699173,5.545372366905212 l1.5463599562644958,-2.9852598905563354 m0.9451217204332352,2.877499759197235 l2.5148215889930725,-2.6090559363365173 2.1799851953983307,-1.6241024434566498 m-6.246895790100098,1.7967364192008972 l-1.956523209810257,-1.741124540567398 -1.9578246772289276,-1.1473316699266434 l-2.6209890842437744,-0.8207191526889801 -2.97649085521698,-0.15476839616894722 l-1.1133397370576859,0.40310606360435486 -1.4856401085853577,1.4629566669464111 l-0.7600940018892288,1.6805513203144073 -0.18399853259325027,1.694231629371643 l0.39073534309864044,1.4398160576820374 1.0272124409675598,1.2596653401851654 l1.4858514070510864,0.8532894402742386 3.902353048324585,0.7651647180318832 l0.8525577932596207,0.21314909681677818 0.6701125949621201,0.22014254704117775 l1.0000158846378326,0.3863081708550453 1.5332920849323273,0.07131763268262148 l1.5896733105182648,-0.3118455410003662 m7.577008605003357,-2.9413461685180664 l3.2071152329444885,-3.2743334770202637 2.41727352142334,-1.3008840382099152 l1.753116101026535,-0.1675952598452568 1.1833266913890839,0.5484028533101082 l1.1283733695745468,1.7140866816043854 0.5363116040825844,2.881419062614441 l-0.3285115212202072,1.7486779391765594 -1.3279171288013458,2.1025116741657257 l-2.4317973852157593,2.054658979177475 -3.112439215183258,1.4105664193630219 m68.91019182279706,-11.360804096329957 l0.2610478922724724,1.7244614660739899 0.8032940328121185,14.796890020370483 l0.2844271995127201,4.001480937004089 0.3291193023324013,2.1409115195274353 l0.47389544546604156,1.242089420557022 0.6218107789754868,0.7177209109067917 l1.268189698457718,0.2854720875620842 1.9345425069332123,-1.1017972975969315 l2.8182265162467957,-5.591986179351807 1.0062950104475021,-8.872491121292114 l-1.0091300308704376,-4.294016361236572 -1.6603760421276093,-3.1112700700759888 l-1.735130101442337,-1.8067918717861176 -1.8903245031833649,-1.0130273550748825 l-2.1743272244930267,-0.18453462049365044 -1.7754043638706207,0.6777451187372208 l-1.1753495782613754,1.0746047645807266 -1.1059325188398361,2.1236325800418854 l-0.2608889155089855,1.721787452697754 0.4484148323535919,1.179693341255188 l1.104462519288063,0.6599166989326477 2.5139811635017395,0.05285329185426235 l4.805391430854797,-2.627154588699341 1.2682566046714783,-1.7166768014431 l0.32359372824430466,-2.144099324941635 -0.5964209139347076,-1.3722272217273712 l-1.45437091588974,-0.9457878023386002 -3.0762070417404175,-0.5509974434971809 l-1.2812510132789612,0.3479365259408951 -1.7581859230995178,1.4364585280418396 l-0.9134837985038757,1.5337131917476654 -0.2866043336689472,2.148955762386322 l0.5882223695516586,1.3289889693260193 2.0205245912075043,1.1261672526597977 m1.641334891319275,-3.211822509765625 l2.783750593662262,-2.7892664074897766 2.4832898378372192,-1.6741451621055603 l2.768940031528473,-1.1660831421613693 2.59912371635437,-0.3313129395246506 l2.0521770417690277,0.6718543171882629 1.5065330266952515,1.8197691440582275 l0.5501178279519081,2.62606143951416 -1.0428662598133087,2.5486886501312256 l-2.456297427415848,2.2118040919303894 -3.4109005331993103,1.6378946602344513 m-11.066197156906128,-4.521195292472839 l-3.1815260648727417,-4.244050085544586 -2.2337962687015533,-1.47324800491333 l-1.6581355035305023,0.2157013863325119 -1.742609590291977,1.599627137184143 l-0.8620374649763107,1.7524710297584534 -0.4061654582619667,2.9020702838897705 l0.4370895028114319,1.9417102634906769 1.0167259722948074,1.327773928642273 l2.091909945011139,1.1748173832893372 2.7278780937194824,0.40522079914808273 m5.391796827316284,-6.75915002822876 l-0.31883496791124344,-3.2298827171325684 -0.7739388197660446,-2.000250965356827 l-1.196030154824257,-0.728815346956253 -1.3592565059661865,0.25998545810580254 l-0.9731665253639221,0.9728124737739563 -0.9769445657730103,2.2024865448474884 l-0.1397109031677246,1.7551310360431671 0.5026981979608536,1.1981873959302902 l1.0024651885032654,0.6721518188714981 1.8489886820316315,0.15533538535237312 m7.433696985244751,-2.4139201641082764 l0.7485968619585037,-2.3937764763832092 1.3446751236915588,-1.6346730291843414 l1.4048857986927032,-0.6466115266084671 1.8055342137813568,0.16129199415445328 l1.0727518051862717,0.9027595072984695 0.8417847007513046,2.132585495710373 l-0.0706028426066041,2.8681528568267822 m66.4427926717326,0.6889693078119308 l0.16990019008517265,1.4099213480949402 0.05136201158165932,12.988075017929077 l0.12951979413628578,4.110906720161438 0.35133037716150284,2.3872923851013184 l0.6252717971801758,1.510803997516632 0.8868924528360367,0.8369496464729309 l1.1446204781532288,0.23552313446998596 3.8804641366004944,-3.37402880191803 l1.263059377670288,-2.976844608783722 0.6337781250476837,-4.772420823574066 l-0.7326468080282211,-7.473142147064209 -1.4431563019752502,-3.239496648311615 l-1.4683975279331207,-1.7987142503261566 -1.588485836982727,-0.9722931683063507 l-1.699739247560501,-0.34113649278879166 -2.2762608528137207,0.457877553999424 l-1.3430231809616089,0.9036345779895782 -0.797259733080864,1.1248578131198883 l-0.3081122972071171,1.2655964493751526 m8.137938976287842,-1.9322970509529114 l1.888958066701889,-2.725045680999756 1.9625617563724518,-1.5730760991573334 l2.126786857843399,-0.922306552529335 2.8402915596961975,-0.34842051565647125 l1.673898845911026,0.4900626093149185 1.6088183224201202,1.6503486037254333 l0.6120382621884346,1.5518595278263092 -0.16719551756978035,2.443995326757431 l-1.6340053081512451,2.808806300163269 -2.7186432480812073,2.4080930650234222 l-3.4373652935028076,1.6437824070453644 -3.4264737367630005,0.736285075545311 l-1.2155656516551971,-0.022835556883364916 m-6.617593765258789,-7.3410362005233765 l-1.2526984512805939,-2.0456190407276154 -2.0616234838962555,-1.9761373102664948 l-1.8764403462409973,-0.8777844905853271 -2.5103822350502014,-0.2718701586127281 l-0.943986251950264,0.4800083488225937 -1.0930152982473373,1.6729442775249481 l-0.439164862036705,1.8739673495292664 0.274150799959898,3.2007062435150146 l1.030437871813774,1.9774317741394043 1.4433762431144714,1.2879279255867004 l2.350553721189499,0.9362354874610901 m5.190744996070862,-8.21237564086914 l-0.08403652347624302,-4.264605641365051 0.36550670862197876,-1.9009459018707275 l0.860188901424408,-1.2029070407152176 1.145065799355507,-0.48467911779880524 l1.5613776445388794,0.31802084296941757 0.940285250544548,1.0295018553733826 l0.7754407078027725,2.3497924208641052 -0.11109154671430588,3.6009639501571655 m-5.220679044723511,-1.6236020624637604 l1.0643859952688217,-2.518220543861389 1.3944952189922333,-1.577962338924408 l1.3481971621513367,-0.5583428591489792 1.1934829503297806,0.12513138353824615 l1.2587857246398926,1.155753955245018 0.5011080577969551,1.2585219740867615 l-0.2862183190882206,3.099926710128784 -1.815595030784607,1.9944147765636444 m-6.450496315956116,4.242852032184601 l-1.2370999902486801,1.3938528299331665 -1.4372098445892334,2.7138078212738037 m86.93180353729986,-8.902680044120643 l0.04335903562605381,1.0516908764839172 -0.5711839720606804,10.429105758666992 l-0.059986808337271214,4.00369256734848 0.2577565051615238,2.8412029147148132 l0.6018725410103798,1.8180610239505768 0.9209959208965302,1.0770433396100998 l1.2157923728227615,0.39564065635204315 3.917618691921234,-2.4754248559474945 l1.4837373793125153,-2.5335708260536194 0.736304447054863,-2.7498996257781982 l-0.011435839114710689,-6.36770486831665 -1.0743147879838943,-3.765806257724762 l-1.7855200171470642,-3.037998080253601 -1.5586015582084656,-1.3712887465953827 l-1.665545403957367,-0.58570247143507 -2.250673919916153,0.15546557493507862 l-1.2438154220581055,0.7850480079650879 -0.7411692291498184,1.0960327088832855 m5.776989459991455,-0.3929877281188965 l0.9229805320501328,-2.812245786190033 1.3559629023075104,-1.9241075217723846 l1.682673692703247,-1.337571144104004 1.8898972868919373,-0.6935953348875046 l1.658029556274414,-0.005845445557497442 1.722477525472641,0.9786445647478104 l1.2310221046209335,2.274234890937805 0.10944345965981483,1.6838540136814117 l-1.0947613418102264,2.5510576367378235 -2.3835252225399017,2.4488957226276398 l-2.9864609241485596,1.6462050378322601 -1.8871645629405975,0.31928636133670807 m-7.9504430294036865,-4.115822613239288 l-1.2514325976371765,-1.9863386452198029 -2.0202049612998962,-1.8869200348854065 l-2.445702850818634,-1.2173424661159515 -2.2363339364528656,-0.2101367898285389 l-0.7711920887231827,0.5417200922966003 -0.7777301222085953,1.881168931722641 l-0.15723148360848427,3.2006114721298218 0.6856293231248856,1.966717690229416 l1.1166363209486008,1.273665577173233 2.11037278175354,1.0493789613246918 m6.579827070236206,-3.9990171790122986 l-0.25566358119249344,-4.413778781890869 0.42214978486299515,-1.365913599729538 l0.8767390251159668,-0.7531453669071198 1.0923074930906296,-0.1248024683445692 l0.8843035250902176,0.5175932869315147 0.9547285735607147,1.7861515283584595 l0.18130486831068993,3.4259817004203796 m-3.954971432685852,2.9355815052986145 l2.1497249603271484,-2.251703143119812 2.1621108055114746,-1.3516400754451752 l1.440567523241043,-0.24899542331695557 1.495429277420044,0.5784349143505096 l1.2346026301383972,1.7829576134681702 0.4335474967956543,2.691408693790436 l-0.7685449719429016,2.7381813526153564 m72.17595834888925,-7.660905891789298 l-0.1380723249167204,0.7297082245349884 -1.1258290708065033,6.364641785621643 l-0.4659932479262352,3.6177048087120056 -0.09629412554204464,4.252317547798157 l0.5928197503089905,2.489619553089142 0.9656033664941788,1.375005692243576 l1.2766318023204803,0.5732327327132225 2.179189920425415,-0.00032247895433101803 l2.630614936351776,-2.0117437839508057 1.3744407892227173,-2.4473032355308533 l0.8764515072107315,-4.161445796489716 0.001065752949216403,-4.264976978302002 l-1.0934944450855255,-3.716818690299988 -2.627348303794861,-3.6313095688819885 l-1.261536329984665,-0.6453593075275421 -1.4347678422927856,-0.0831042043864727 l-1.0432808846235275,0.5789858102798462 -1.0660915821790695,1.6211026906967163 m2.450886070728302,-0.8562364429235458 l-3.0438190698623657,-2.5422602891921997 -1.7449182271957397,-1.2032458931207657 l-1.8424788117408752,-0.9627176821231842 -1.2699206173419952,-0.3936401754617691 l-1.4010366797447205,0.04732651636004448 -1.4173990488052368,0.8292488753795624 l-0.7882862538099289,1.2694868445396423 -0.36066967993974686,2.2988036274909973 l0.4251956567168236,1.7654739320278168 1.0220929235219955,1.2787003815174103 l2.029463052749634,1.1281511932611465 m12.291018962860107,-2.5266769528388977 l2.8905493021011353,-4.265202879905701 1.5821486711502075,-1.2925052642822266 l1.1911434680223465,-0.2524244226515293 0.8641783893108368,0.46249739825725555 l0.8353300392627716,1.7366614937782288 0.18174558877944946,2.7656522393226624 l-0.894029438495636,2.583213448524475 m-11.178348064422607,-0.5549916252493858 l-0.4327590763568878,-0.9089341014623642 -0.39416760206222534,-3.1083208322525024 l0.303195808082819,-1.899498850107193 0.776149109005928,-1.0138151049613953 l1.130734458565712,-0.42421162128448486 1.0747309029102325,0.2564093843102455 l1.2874646484851837,1.457371711730957 0.9587420523166656,2.775160074234009 m-4.659237265586853,9.36326265335083 l-0.4659298434853554,2.296876460313797 -0.24042140692472458,2.9095682501792908 l0.23235496133565903,1.2685367465019226 m2.622256577014923,-6.809480786323547 l1.1236868798732758,1.605324149131775 2.2241565585136414,3.4411174058914185 m73.42114810831845,-14.627856478982721 l-0.3396128863096237,0.47255948185920715 -1.6887187957763672,4.24267053604126 l-0.8510145545005798,2.957853376865387 -0.3571377694606781,4.203634858131409 l0.42857982218265533,3.0633586645126343 0.9536036849021912,1.6994701325893402 l1.270824819803238,0.9187879413366318 2.1743428707122803,-0.0005341703945305198 l2.4893897771835327,-1.4520569145679474 1.5722550451755524,-1.9846297800540924 l1.247609481215477,-3.574592173099518 0.1496672909706831,-4.2450156807899475 l-1.4559352397918701,-3.2945603132247925 -2.0886658132076263,-2.01456218957901 l-2.0868995785713196,-0.7192984223365784 -1.3710932433605194,-0.000525920077052433 l-1.2881839275360107,0.8310218900442123 m-0.9458717703819275,2.0894862711429596 l-1.7070059478282928,-2.910153865814209 -1.1197979003190994,-1.6918735206127167 l-1.019158735871315,-1.6124092042446136 -0.666290819644928,-0.8812423795461655 l-0.7008097320795059,-0.5669146776199341 -0.8118686079978943,0.044542644172906876 l-0.8203672617673874,1.2914739549160004 -0.5625268816947937,2.8494027256965637 l0.18841838464140892,3.2733821868896484 0.7457621395587921,1.7687676846981049 m14.02163028717041,-3.556664288043976 l2.332494705915451,-3.6440399289131165 1.5153148770332336,-1.2465748190879822 l1.2132421135902405,-0.2208920381963253 1.1417925357818604,0.7588682323694229 l0.5353163927793503,1.476021409034729 -0.1549085695296526,2.5117772817611694 l-1.228569895029068,2.3980343341827393 m-10.594459772109985,1.9791129231452942 l-0.2235649898648262,-1.5928496420383453 0.23359175771474838,-1.7659653723239899 l0.748709961771965,-1.142762005329132 1.0480214655399323,-0.47568898648023605 l1.5280690789222717,0.29436416923999786 1.3291601836681366,1.5178953111171722 m-4.493646025657654,12.518635988235474 l-0.721968412399292,3.4694862365722656 -0.328875333070755,2.847609221935272 l5.28761625289917,-1.5015889704227448 m74.76979083803599,-17.989405205935327 l-0.5700544640421867,0.1736651174724102 -2.272229939699173,2.6472723484039307 l-1.1579026281833649,2.2064530849456787 -0.7392691820859909,2.7919813990592957 l0.012684009270742536,4.011617004871368 1.0788778215646744,2.3949582874774933 l1.3835088908672333,1.4026853442192078 1.6061796247959137,0.6467411667108536 l2.454725503921509,-0.0004144227204960771 1.9316008687019348,-1.076679676771164 l1.9904795289039612,-2.672363817691803 0.9626666456460953,-3.806934654712677 l0.0010776000272016972,-3.6874285340309143 -1.6236133873462677,-2.8434452414512634 l-2.2705578804016113,-1.523810476064682 -2.2273212671279907,-0.29469288885593414 l-1.2623962759971619,0.544683001935482 m-2.29915589094162,2.6645413041114807 l-0.9905783087015152,-1.0642436146736145 -0.8317878097295761,-1.3157658278942108 l-0.6166569143533707,-1.521192491054535 -0.25305548682808876,-1.4860551059246063 l0.2150041051208973,-0.7232992351055145 0.9686253219842911,-0.05943959578871727 l2.544403076171875,1.790057122707367 m5.943701863288879,2.3371857404708862 l1.778615117073059,-3.409123420715332 1.3437728583812714,-1.2615768611431122 l0.9712635725736618,-0.11048641055822372 0.788620263338089,0.9169624000787735 l0.2787640318274498,2.150965631008148 -1.163293793797493,2.8187647461891174 m-8.240119218826294,5.2378761768341064 l-1.1769239604473114,-0.27156542986631393 -0.6407235562801361,-0.010470859706401825 l-0.8740068227052689,0.3971104696393013 -0.8170019835233688,1.2435480207204819 l-0.015366891166195273,1.5893277525901794 0.7534317672252655,1.4102557301521301 m4.557260274887085,-4.358657002449036 l1.3078610599040985,-0.16211379319429398 4.134902060031891,-0.36189161241054535 m-7.015807032585144,3.63689124584198 l6.048499345779419,-1.648956686258316 " fill="none" stroke="black" stroke-width="1" /></svg>