<?xml version="1.0" encoding="utf-8" ?>
<svg baseProfile="full" height="90.53296200931072" version="1.1" width="817.9114936478436" xmlns="http://www.w3.org/2000/svg" xmlns:ev="http://www.w3.org/2001/xml-events" xmlns:xlink="http://www.w3.org/1999/xlink"><defs /><rect fill="white" height="90.53296200931072" width="817.9114936478436" x="0" y="0" /><path d="M25,25 m0.0,0.0 m37.11826127691893,15.82333166117678 l-4.452337324619293,0.04356596618890762 -1.7867375910282135,0.363190732896328 l-1.8462635576725006,1.1699249595403671 -2.3757708072662354,2.643764913082123 l-1.5771973133087158,2.759197950363159 -1.3572227954864502,4.255494475364685 l-0.21785877645015717,4.516931176185608 0.4234752431511879,1.4807327091693878 l2.560131251811981,3.371170163154602 2.393050491809845,1.7076647281646729 l5.21059513092041,1.774415522813797 4.305000305175781,0.35979267209768295 l2.9091113805770874,-0.0002225498974439688 1.0914988070726395,-0.35904619842767715 l0.99699467420578,-0.7793702930212021 1.3911724090576172,-2.04948827624321 l0.8669019490480423,-2.2653037309646606 0.6327047199010849,-3.6082684993743896 l0.00039487407775595784,-4.015267193317413 -0.8883275091648102,-3.172236382961273 l-1.7040184140205383,-3.180098831653595 -2.223135530948639,-2.4489958584308624 l-2.3850275576114655,-1.4657407999038696 -1.867125928401947,-0.5842840299010277 l-1.3154637813568115,0.0010317581472918391 m1.3331706821918488,0.8026818186044693 l5.521274209022522,-4.010879695415497 5.454613566398621,-3.315734565258026 l-1.52902752161026,10.742076635360718 -0.9361249208450317,3.8985130190849304 m-14.38886284828186,-4.4249871373176575 l-4.444224238395691,-3.3998826146125793 -4.030163288116455,-2.50173419713974 l1.3194483518600464,8.29064130783081 1.567172110080719,4.464534223079681 m10.373979806900024,5.940144658088684 l-1.062697097659111,3.9187633991241455 m3.2233452796936035,-2.7889373898506165 l0.5589525774121284,3.3749890327453613 m-3.405940532684326,-3.735823333263397 l3.4956595301628113,0.11008467525243759 m-3.8505062460899353,-0.4575379192829132 l2.9518747329711914,0.30604828149080276 m-4.011062979698181,-0.35034287720918655 l-4.524224102497101,-0.1283425558358431 m4.386409223079681,1.3183346390724182 l-3.019493520259857,0.6559552997350693 m87.07928516034372,-18.326240453711762 l-5.1477402448654175,0.17790980637073517 -1.9220185279846191,0.5078019201755524 l-1.768522560596466,1.201488971710205 -2.2666916251182556,2.6560476422309875 l-1.5481364727020264,2.766677141189575 -1.3426226377487183,4.085881412029266 l-0.2548365294933319,4.038447439670563 0.3818684443831444,1.5856316685676575 l1.665937751531601,2.577124834060669 3.1479471921920776,2.2088389098644257 l2.7757692337036133,1.1013354361057281 5.539589524269104,0.901537761092186 l3.297969102859497,2.8071422093489673e-05 1.2757465243339539,-0.3851313143968582 l1.210017278790474,-0.7944919168949127 1.036250814795494,-1.2028121948242188 l1.2555891275405884,-2.5660881400108337 0.4009174183011055,-1.55472069978714 l0.2862381748855114,-3.042779266834259 0.0004889989577350207,-3.856496810913086 l-0.5453882366418839,-2.522297203540802 -1.4589212834835052,-3.1255221366882324 l-2.2745756804943085,-2.514585554599762 -2.382863610982895,-1.46153062582016 l-2.019139528274536,-0.44992852956056595 m-1.510678380727768,0.5415700003504753 l3.13440203666687,-3.48033607006073 4.501015245914459,-4.294953942298889 l-1.177428588271141,10.871875286102295 -0.5730164423584938,3.0780571699142456 m-9.193112254142761,-1.0737201571464539 l1.922370195388794,-2.598634958267212 7.019955515861511,-7.968139052391052 m-6.897936463356018,13.88301968574524 l-1.518080234527588,4.029481410980225 -1.9077390432357788,3.330807685852051 m5.965681672096252,-6.073383092880249 l4.203915596008301,2.476999908685684 2.9921647906303406,1.5458086133003235 m-8.716471791267395,-4.69155341386795 l4.395443797111511,1.5280711650848389 m-6.841333508491516,-1.6590514779090881 l0.7340192049741745,1.6085121035575867 m-0.7347267866134644,-1.916109323501587 l-5.374847650527954,-0.10675648227334023 m5.024006962776184,1.5986162424087524 l-4.270671010017395,0.2818986400961876 -2.2542446851730347,0.29022982344031334 m7.764500975608826,-3.8200461864471436 l-2.5647392868995667,0.8131469786167145 m87.61767067879191,-10.770322496110225 l-5.697963833808899,0.3341454640030861 -2.0378896594047546,0.6558789312839508 l-1.6893979907035828,1.2467405200004578 -2.2097334265708923,2.594578266143799 l-1.5164363384246826,2.682059407234192 -1.2554478645324707,3.778170347213745 l-0.2583683468401432,3.764221966266632 0.8120673894882202,2.5557971000671387 l1.360926628112793,1.8291141092777252 3.57189804315567,2.3583483695983887 l2.640106976032257,0.8923919498920441 3.807891011238098,0.5247275158762932 l3.4819507598876953,9.333753610007989e-06 1.3969123363494873,-0.37740249186754227 l2.0628277957439423,-1.1927511543035507 1.465807855129242,-1.4351828396320343 l1.0077796131372452,-1.7050692439079285 0.8580311387777328,-2.962794601917267 l0.00047479887143708766,-3.3603307604789734 -0.6875334680080414,-2.9544025659561157 l-1.0130412876605988,-2.189035713672638 -1.9376085698604584,-2.6322907209396362 l-1.9679078459739685,-2.1136459708213806 -1.8140681087970734,-1.410336196422577 l-1.625189632177353,-0.5374672263860703 m-1.7041882872581482,0.8656886219978333 l2.4386079609394073,-2.722386121749878 0.6445171684026718,0.9108872711658478 m-3.8027402758598328,8.026846647262573 l3.573012351989746,-0.8236506581306458 4.15944367647171,-0.7380600273609161 m-7.87550151348114,6.494969129562378 l4.988064467906952,1.4648069441318512 m-6.444016098976135,-1.3704583048820496 l2.8585726022720337,1.7738942801952362 4.95919942855835,4.006430804729462 m-8.977306485176086,-9.715319871902466 l-6.192891001701355,-0.9749641269445419 -4.675540030002594,-0.7722576707601547 m10.76649785041809,4.537648856639862 l-4.200859069824219,2.2034333646297455 -2.5177600979804993,1.4595979452133179 m10.260188579559326,-9.87305223941803 l2.6531127095222473,-1.4867134392261505 m-0.10884388349950314,2.22185879945755 l2.3485085368156433,-1.192629337310791 m-1.7799805104732513,2.5123369693756104 l2.2200779616832733,0.003379655536264181 1.29309743642807,-0.05501020234078169 m-6.591686010360718,-2.587863802909851 l1.8072324991226196,-0.267021544277668 m79.23491536072106,-3.6604039032636138 l-6.058949828147888,0.46492818742990494 -2.131424993276596,0.7869931310415268 l-1.367296427488327,1.0042860358953476 -2.157028913497925,2.5152748823165894 l-1.5444816648960114,2.708900570869446 -1.0111650079488754,3.0038145184516907 l0.0003478017606539652,3.488980233669281 0.8990468829870224,2.5756871700286865 l1.4171619713306427,1.821628361940384 1.8769344687461853,1.342637687921524 l4.671201407909393,1.5747687220573425 3.7116923928260803,0.2911941893398762 l2.7950745820999146,-6.731382200086955e-05 1.9600392878055573,-0.466737300157547 l1.5711358189582825,-0.8531678467988968 1.200244054198265,-1.1549719423055649 l0.9314486384391785,-1.5415707230567932 0.8669201284646988,-2.8118598461151123 l0.2439216710627079,-2.5010839104652405 0.0006647993723163381,-3.222675323486328 l-0.5365648120641708,-2.2718146443367004 -1.4125052094459534,-2.721787691116333 l-2.2956743836402893,-2.321687936782837 -2.3399752378463745,-1.2910877168178558 l-1.8451671302318573,-0.4245202988386154 m-2.884233295917511,0.4810246452689171 l0.04826858174055815,0.943719819188118 0.04018465522676706,2.5885045528411865 m1.0885180532932281,3.0914315581321716 l4.053592681884766,-1.181439384818077 m-7.2285521030426025,3.7362807989120483 l4.709500670433044,0.41205476969480515 m-6.09007716178894,-1.384892761707306 l3.595435917377472,1.213492974638939 3.1014075875282288,0.7245764136314392 m-5.371435284614563,-6.883725523948669 l2.9346799850463867,-1.3191239535808563 1.9730408489704132,-0.47981560230255127 m-2.588278353214264,4.182077348232269 l2.559630274772644,-0.5086170136928558 5.049152374267578,-0.46108428388834 m-10.017271041870117,-0.3918195515871048 l-3.1947460770606995,0.5041529610753059 m4.79262113571167,-1.6733145713806152 l-3.2262253761291504,0.44233929365873337 -3.6071190237998962,0.7779832184314728 m5.718231797218323,-2.960548996925354 l-1.9772712886333466,0.6560385227203369 m3.9122697710990906,-1.6766881942749023 l-0.20549675449728966,-1.6161605715751648 m1.2769009172916412,1.864142268896103 l2.9203927516937256,-1.6957464814186096 m79.7448129577424,0.6154607691178171 l-6.131721138954163,0.5904902145266533 -2.2006724774837494,0.8935046195983887 l-1.5585187077522278,1.1732485890388489 -1.947140097618103,2.4147969484329224 l-1.3278625905513763,2.5111210346221924 -0.8269266039133072,2.681380808353424 l-0.1545142475515604,3.5863712430000305 0.9743741899728775,2.3715993762016296 l1.5074077248573303,1.670680046081543 1.9628311693668365,1.250992864370346 l4.523645341396332,1.3690181076526642 3.6576667428016663,0.17941512167453766 l1.7134635150432587,-0.25087328627705574 1.7742329835891724,-0.6957099586725235 l1.582084745168686,-1.0602754354476929 1.2608906626701355,-1.3453814387321472 l0.8999473601579666,-1.6328537464141846 0.7502505928277969,-2.8190505504608154 l0.00044331722165225074,-2.94556587934494 -0.7671256363391876,-3.045891225337982 l-1.03351429104805,-2.0223209261894226 -1.8880991637706757,-2.292216271162033 l-2.075481414794922,-1.5734533965587616 -1.8961119651794434,-0.6516488641500473 l-1.2050817906856537,0.026424021925777197 m-0.9742119908332825,1.0717300325632095 l0.28204260393977165,1.7396099865436554 m2.8521940112113953,-0.8632360398769379 l0.2461845427751541,1.3366913795471191 m-4.402791261672974,5.595446228981018 l0.2564642205834389,0.9073557704687119 m-1.80968776345253,1.5095417201519012 l0.5090228840708733,0.4971039667725563 3.0451667308807373,1.674269437789917 m-4.047325253486633,-5.533199310302734 l4.907744228839874,-0.6301799416542053 m-4.440116584300995,-2.4684496223926544 l3.463146686553955,-1.4047808945178986 5.409579873085022,-1.564309448003769 m-7.581591606140137,2.010209560394287 l2.9866614937782288,-0.7116950303316116 4.655306041240692,-1.0619495809078217 m-8.22941780090332,0.9358895570039749 l1.5586355328559875,-0.5114026740193367 3.763505220413208,-0.9490574896335602 m-5.81332802772522,1.9508381187915802 l0.2126356028020382,-0.5213845521211624 -0.1495581865310669,-2.6966693997383118 m0.9966262429952621,5.804590582847595 l-1.4213216304779053,-1.318458616733551 m2.0473770797252655,2.4222010374069214 l-1.4931085705757141,-0.20648060366511345 m0.863778293132782,-3.638596832752228 l2.231554090976715,-1.063939854502678 m82.28885301811715,-1.4358978698192004 l-5.968632698059082,0.6953292340040207 -2.3716889321804047,1.0194286704063416 l-1.5098968148231506,1.1682530492544174 -1.8105432391166687,2.3067913949489594 l-1.1540158838033676,2.3355764150619507 -0.6985833495855331,2.6001232862472534 l0.0002300040978298057,3.0716562271118164 1.1272800713777542,2.289506047964096 l1.6342759132385254,1.619088351726532 2.066686600446701,1.1387544870376587 l3.3445024490356445,0.6724622845649719 3.770546019077301,-9.474143553234171e-05 l2.5425809621810913,-0.4984556883573532 1.361680030822754,-0.5607740208506584 l1.9299644231796265,-1.377071589231491 1.2617182731628418,-1.5654218196868896 l0.7208216190338135,-1.7356839776039124 0.2875290997326374,-1.943109780550003 l0.0006339863466564566,-2.5971686840057373 -0.5357509851455688,-1.9996552169322968 l-1.5313135087490082,-2.701982855796814 -2.058073878288269,-2.1519088745117188 l-1.7012788355350494,-0.9939318895339966 -2.24006786942482,-0.45669976621866226 m-3.2356372475624084,6.9179171323776245 l-0.0009232579031959176,-0.0005005127968615852 m1.3266678154468536,-0.12288683094084263 l1.5294449031352997,-1.1668036878108978 m-0.42995311319828033,1.7682553827762604 l2.3135095834732056,-0.5393937230110168 m-4.839640259742737,0.3867657110095024 l2.016243189573288,0.15777582302689552 2.573700249195099,0.07801605388522148 m-6.011537313461304,-1.7838604748249054 l-0.7980654388666153,0.8038165420293808 m1.9919048249721527,-0.7751520723104477 l2.124229669570923,-0.5067050084471703 m-3.431786298751831,-0.7207510620355606 l2.2568292915821075,-1.0315991938114166 1.949056088924408,-0.48312991857528687 l3.214731216430664,-0.170476995408535 m-7.2839659452438354,0.21966682747006416 l2.097408175468445,-1.529199630022049 1.964617669582367,-0.8942917734384537 l3.8645139336586,-1.1189508438110352 m-8.792621493339539,4.94643360376358 l1.9349400699138641,-0.3565188869833946 2.921797037124634,-0.16971522942185402 m-4.636512398719788,0.024959691800177097 l-1.0687746107578278,-0.3249601274728775 -4.03022438287735,-2.254890501499176 m6.550915837287903,3.569091260433197 l1.8160165846347809,-0.9959547966718674 m-2.9782941937446594,-1.6341808438301086 l0.12823757715523243,-0.49611788243055344 m1.1730697005987167,0.6682857125997543 l2.446778118610382,-1.3596537709236145 m82.52523649792238,0.12690928658685152 l-5.579239130020142,0.807783380150795 -2.343292385339737,1.1392097175121307 l-1.4302939176559448,1.13967627286911 -1.410638839006424,1.7617994546890259 l-1.0885365307331085,2.2126546502113342 -0.7368099689483643,3.2634738087654114 l0.23748209699988365,2.9746323823928833 0.7015901803970337,1.3220895826816559 l1.448437124490738,1.3392780721187592 3.9293134212493896,1.6118140518665314 l3.4324273467063904,0.37331409752368927 2.6504039764404297,-0.0001937070192070678 l2.212493419647217,-0.521671362221241 1.9014628231525421,-0.9512468427419662 l1.5013879537582397,-1.2677901983261108 1.0609785467386246,-1.5546301007270813 l0.6006750464439392,-1.8165899813175201 0.0004532858292805031,-2.7109071612358093 l-0.9439828246831894,-2.77202308177948 -1.2165993452072144,-1.9177532196044922 l-2.1548746526241302,-2.102050632238388 -1.821737289428711,-1.004505529999733 l-2.474142611026764,-0.5772944167256355 m-3.0447685718536377,6.296582818031311 l-0.0008578413689974695,-0.000989490217762068 m1.8796245753765106,0.10452767834067345 l1.3325560092926025,-1.0732579231262207 m-0.12715532444417477,1.8928860127925873 l1.7935816943645477,-0.26707351207733154 1.1238311976194382,-0.2464759722352028 m-6.00308895111084,0.24685455486178398 l2.2035034000873566,0.026334375143051147 m-3.3396360278129578,-0.8520646393299103 l-0.20896140486001968,0.2280159294605255 m0.6029407680034637,-1.552003175020218 l1.426963210105896,-1.024034544825554 m-1.9215692579746246,0.20083503797650337 l2.271835505962372,-1.199318915605545 1.947176456451416,-0.4650267958641052 l2.2007614374160767,0.06662199273705482 m-6.108617186546326,2.290315628051758 l2.811952531337738,-0.5158614739775658 2.4439261853694916,-0.5711472406983376 l3.6716249585151672,-0.930560827255249 1.7424125969409943,-0.3173418343067169 m-11.503340005874634,2.2869428992271423 l-1.0010313987731934,-0.17109189182519913 -1.8973498046398163,-0.75684554874897 l-1.063123568892479,-0.7941810041666031 -1.442023515701294,-2.5791898369789124 l-0.545727089047432,-3.1872665882110596 m7.860490083694458,7.272678017616272 l3.4850701689720154,-1.2870408594608307 2.7300667762756348,-1.414567083120346 m-7.447574138641357,2.940703332424164 l0.906597226858139,1.340264230966568 m1.2301055341959,-0.3847172483801842 l2.672412097454071,0.09613674134016037 m80.83798339945133,-5.348025981738829 l-4.997617602348328,0.8756184577941895 -2.3852960765361786,1.2256336957216263 l-1.339958906173706,1.1052379757165909 -1.2427273392677307,1.654498130083084 l-0.8953917026519775,2.0900440216064453 -0.4411923512816429,3.1251290440559387 l0.6380479037761688,2.545407712459564 0.9048700332641602,1.184113621711731 l1.6148696839809418,1.086759865283966 3.18719744682312,0.7739122211933136 l4.072110056877136,-9.599241820978932e-05 1.9413785636425018,-0.37184111773967743 l2.025194466114044,-0.8196380734443665 1.693357676267624,-1.165587604045868 l1.2138671427965164,-1.428135633468628 0.9807417541742325,-2.418641448020935 l0.00036105582694290206,-2.3292212188243866 -1.0775978863239288,-2.4482063949108124 l-1.7536947131156921,-2.0988479256629944 -1.7317259311676025,-1.2333612143993378 l-1.7470687627792358,-0.6233155727386475 -2.417510151863098,-0.14998400583863258 m-2.5023943185806274,6.3663023710250854 l-0.0005188719660509378,-0.0009353791392641142 m1.642596423625946,0.03285106737166643 l1.1241529136896133,-1.0552596300840378 0.015355610521510243,0.20900961011648178 m-0.2914697863161564,1.2259984761476517 l2.393881231546402,-0.9593337029218674 m-2.21371591091156,1.8107247352600098 l2.3015159368515015,0.38511641323566437 m-6.711748838424683,-3.1045129895210266 l-0.565270446240902,-0.4351717606186867 m0.7936758548021317,-0.8017700165510178 l1.1540033668279648,-0.8283303678035736 1.6234815120697021,-0.44075731188058853 m-0.43889105319976807,0.3949904814362526 l2.2655263543128967,-1.0656870901584625 1.8722665309906006,-0.38149990141391754 l1.7234118282794952,0.27183109894394875 m-8.651676774024963,0.7424332946538925 l1.1003772914409637,-1.4361268281936646 1.6111242771148682,-1.0196734964847565 l2.4527399241924286,-0.7860822230577469 1.7604303359985352,0.057180686853826046 l1.8634510040283203,0.9332267940044403 1.5645697712898254,2.062833309173584 l0.6781969219446182,2.5681671500205994 -0.7113268971443176,1.3065871596336365 m-10.342378616333008,-1.9784989953041077 l-1.0544826090335846,-1.9114069640636444 -1.0784068703651428,-1.578589528799057 l-1.0807506740093231,-1.5856881439685822 -1.0342513024806976,-1.4784832298755646 m7.679292559623718,6.055383682250977 l2.740565836429596,-2.239665389060974 m-5.0830477476119995,5.1016318798065186 l3.143477737903595,-0.1299832109361887 2.010454386472702,-0.22329973056912422 m79.2893805757376,-5.090885250638166 l-4.274935722351074,0.9189225733280182 -2.4353767931461334,1.255592554807663 l-1.2618975341320038,1.0378501564264297 -1.0569699108600616,1.484973430633545 l-0.6905250996351242,1.9124461710453033 -0.00014393244782695547,2.9697489738464355 l1.1612571775913239,2.2031699120998383 1.542656123638153,1.3414674997329712 l1.8989914655685425,0.8449455350637436 3.1641483306884766,0.2804451994597912 l4.163390100002289,-0.5651654675602913 2.593403160572052,-1.0333552956581116 l1.8215999007225037,-1.248800978064537 1.1461514234542847,-1.4190387725830078 l0.5618916451931,-1.6038267314434052 0.0005964041338302195,-2.151036858558655 l-0.8997179567813873,-2.4337540566921234 -1.2353943288326263,-1.647104024887085 l-1.528361737728119,-1.1371436715126038 -2.6327043771743774,-0.9010600298643112 l-2.3212552070617676,-0.0004622769120032899 m-3.086901307106018,6.772812008857727 l0.0007434737199218944,-0.0006813905929448083 m2.218177169561386,-0.10247777216136456 l0.3738126903772354,-0.12123559601604939 0.0219371123239398,-0.16445089131593704 m0.5322469770908356,0.43419040739536285 l1.7772455513477325,-1.320190280675888 m-1.882937103509903,2.1924473345279694 l2.4377821385860443,-0.19310509786009789 m-6.46506130695343,-2.9925575852394104 l0.47183625400066376,-0.30423641204833984 1.920480877161026,-0.5018054693937302 m-1.6733169555664062,-0.5835923552513123 l0.9186343848705292,-0.47489382326602936 1.6057893633842468,-0.629141554236412 m-3.289957642555237,0.16683848574757576 l1.3599413633346558,-0.8507486432790756 1.707320213317871,-0.40668729692697525 l1.1098454892635345,0.20664172247052193 0.8490333706140518,0.9135323762893677 l-0.07208310533314943,1.3316534459590912 m-6.149752140045166,-0.711086243391037 l0.7240650802850723,-1.6191403567790985 2.1323657035827637,-2.4088655412197113 l1.6816778481006622,-0.94559445977211 1.5998667478561401,-0.2134663239121437 l1.8619787693023682,0.6032563000917435 1.7554497718811035,1.7457355558872223 l1.0275518149137497,2.5169745087623596 0.019681169651448727,2.3771855235099792 l-0.6534780561923981,1.1313202232122421 m-10.825154781341553,-2.2836124897003174 l-0.9230328351259232,-2.899995744228363 -0.9511838853359222,-1.9461295008659363 l-1.0206281393766403,-1.641596406698227 -0.6236480176448822,-0.7279971241950989 m8.614412546157837,6.078600883483887 l2.5019127130508423,-3.038940727710724 2.220386564731598,-1.5317310392856598 m-2.5260552763938904,4.87522155046463 l3.344361186027527,-0.11966139078140259 m75.54828362281796,-0.07681682156544412 l-3.4354782104492188,0.9319572895765305 -2.3355531692504883,1.34467214345932 l-1.0784510523080826,0.9307952970266342 -0.8033693581819534,1.2592926621437073 l-0.5154662951827049,2.207973748445511 0.4541316628456116,2.6085394620895386 l1.7340262234210968,1.8111231923103333 1.2880294024944305,0.6731565296649933 l3.618917465209961,0.7300784438848495 3.2730329036712646,-0.00023340762709267437 l2.5440365076065063,-0.710391029715538 2.982243597507477,-1.7655019462108612 l1.547340303659439,-1.7795899510383606 0.6411340832710266,-1.7504331469535828 l0.0007056417234707624,-1.9492588937282562 -1.464972347021103,-2.138609141111374 l-2.4375712871551514,-1.541782170534134 -3.125840127468109,-0.9361472725868225 l-2.21367284655571,-0.0004901967258774675 -2.0745112001895905,0.7484511286020279 m-0.5947959423065186,5.830910801887512 l-2.8019937872159062e-05,0.0005841544771101326 m2.1420562267303467,-0.2656840905547142 l0.3398953750729561,-0.19225366413593292 0.08756754919886589,-0.1481566485017538 m0.3479393199086189,0.5182798579335213 l1.7961293458938599,-1.5012778341770172 m-4.678474068641663,-0.14758617617189884 l1.5083448588848114,-0.47905921936035156 1.4751480519771576,-0.5804630741477013 m-3.2059791684150696,-0.07384880911558867 l1.4702393114566803,-0.3844327852129936 1.7229704558849335,-0.44871482998132706 m-2.9682430624961853,-0.41765645146369934 l1.200610175728798,-0.48765115439891815 1.4596225321292877,-0.45494697988033295 m-3.380228281021118,-0.5471773818135262 l1.152670532464981,-1.1057892441749573 1.6268795728683472,-0.7119165360927582 l1.3815410435199738,-0.08535569533705711 1.3461917638778687,0.6294860690832138 l1.1000372469425201,1.5962877869606018 0.38148701190948486,2.039315700531006 l-0.582214780151844,1.8786261975765228 -0.9089381992816925,0.8219173550605774 m-8.18179190158844,-4.947232902050018 l-1.0167478770017624,-1.2994030117988586 -1.1347157508134842,-1.5379975736141205 l-1.2526428699493408,-1.6482539474964142 -0.7730862498283386,-1.066802591085434 l-0.7993136346340179,-1.0495902597904205 -0.469418540596962,-0.6615137308835983 l-0.33868685364723206,-0.5137351155281067 0.04544246941804886,-0.28592657297849655 l0.8333925157785416,0.18214279785752296 2.0843271911144257,1.1593378335237503 l2.8168728947639465,2.876955270767212 m7.937185168266296,4.54520046710968 l4.2368534207344055,-3.34187775850296 2.384137660264969,-1.1655419319868088 l1.4408957958221436,-0.09969472885131836 0.9148366004228592,0.5833859369158745 m-11.799330711364746,9.002941250801086 l4.183437824249268,-0.11224774643778801 " fill="none" stroke="black" stroke-width="1" /></svg>