<?xml version="1.0" encoding="utf-8" ?>
<svg baseProfile="full" height="65.99893471226096" version="1.1" width="94.67627242207527" xmlns="http://www.w3.org/2000/svg" xmlns:ev="http://www.w3.org/2001/xml-events" xmlns:xlink="http://www.w3.org/1999/xlink"><defs /><rect fill="white" height="65.99893471226096" width="94.67627242207527" x="0" y="0" /><path d="M35.26346765458584,37.67840106040239 m0.30186669901013374,-0.5031111836433411 l2.0124447345733643,-0.9056001156568527 1.1068445444107056,0.0 l0.8049778640270233,0.9056001156568527 0.10062223300337791,2.716800272464752 l-1.207466796040535,0.8049778640270233 -1.1068445444107056,0.30186669901013374 l-2.0124447345733643,-0.8049778640270233 -0.40248893201351166,-1.3080890476703644 l0.20124446600675583,-1.6099557280540466 m24.853692054748535,-2.918044626712799 l0.10062223300337791,2.0124447345733643 -1.0062223672866821,1.6099557280540466 l-1.0062223672866821,0.30186669901013374 -2.6161780953407288,-0.6037333980202675 l-0.40248893201351166,-1.71057790517807 0.8049778640270233,-1.3080890476703644 l1.4087112247943878,-0.8049778640270233 2.41493359208107,0.20124446600675583 m-18.112001419067383,3.8236448168754578 l6.741689443588257,-0.7043556123971939 6.037334203720093,0.20124446600675583 m6.23857855796814,-1.6099557280540466 l5.2323561906814575,-2.0124447345733643 3.8236448168754578,-0.20124446600675583 l0.10062223300337791,-1.3080890476703644 -1.8112002313137054,-6.84231162071228 l-4.528000354766846,-0.40248893201351166 -20.124447345733643,0.10062223300337791 l-16.60266876220703,2.918044626712799 -1.6099557280540466,0.6037333980202675 l1.4087112247943878,8.552889823913574 0.5031111836433411,1.5093335509300232 l1.5093335509300232,0.0 2.8174224495887756,0.6037333980202675 l1.4087112247943878,0.0 1.71057790517807,-0.5031111836433411 m-1.3080890476703644,-11.77280068397522 l0.0,1.6099557280540466 -0.8049778640270233,2.918044626712799 l-0.8049778640270233,1.0062223672866821 -5.131734013557434,1.1068445444107056 m12.376534938812256,-5.131734013557434 l0.7043556123971939,-0.5031111836433411 4.226133823394775,1.3080890476703644 l-0.30186669901013374,1.207466796040535 -1.1068445444107056,0.9056001156568527 l-5.433600544929504,-0.9056001156568527 -0.40248893201351166,-1.207466796040535 l1.3080890476703644,-0.9056001156568527 1.8112002313137054,-0.10062223300337791 m10.263468027114868,-0.10062223300337791 l0.5031111836433411,0.7043556123971939 0.10062223300337791,1.1068445444107056 l-1.71057790517807,0.30186669901013374 -1.0062223672866821,-1.5093335509300232 l0.10062223300337791,-0.5031111836433411 1.1068445444107056,-0.30186669901013374 " fill="none" stroke="black" stroke-width="1" /></svg>