<?xml version="1.0" encoding="utf-8" ?>
<svg baseProfile="full" height="82.60160371661186" version="1.1" width="103.32978522405028" xmlns="http://www.w3.org/2000/svg" xmlns:ev="http://www.w3.org/2001/xml-events" xmlns:xlink="http://www.w3.org/1999/xlink"><defs /><rect fill="white" height="82.60160371661186" width="103.32978522405028" x="0" y="0" /><path d="M33.75413576141,31.942934095859528 m-2.3143114149570465,1.0062223672866821 l-2.6161780953407288,2.8174224495887756 -0.9056001156568527,2.716800272464752 l0.20124446600675583,3.5217782855033875 1.0062223672866821,1.4087112247943878 l2.8174224495887756,2.41493359208107 2.3143114149570465,1.0062223672866821 l2.0124447345733643,0.40248893201351166 3.924266993999481,-0.10062223300337791 l2.6161780953407288,-0.7043556123971939 3.42115581035614,-2.0124447345733643 l0.30186669901013374,-0.6037333980202675 -0.20124446600675583,-3.622400462627411 l-0.8049778640270233,-2.3143114149570465 -1.5093335509300232,-2.1130669116973877 l-3.924266993999481,-3.42115581035614 -3.2199114561080933,-0.6037333980202675 l-2.8174224495887756,0.10062223300337791 m-2.8174224495887756,0.20124446600675583 l-0.30186669901013374,-0.6037333980202675 -0.8049778640270233,-6.4398229122161865 l0.20124446600675583,0.5031111836433411 6.037334203720093,5.936712026596069 m3.7230226397514343,0.10062223300337791 l2.8174224495887756,-3.3205336332321167 2.1130669116973877,-1.207466796040535 l0.5031111836433411,5.534222722053528 0.0,5.433600544929504 m1.207466796040535,-0.10062223300337791 l3.11928927898407,-0.8049778640270233 4.930489361286163,-2.0124447345733643 l2.918044626712799,-0.6037333980202675 2.6161780953407288,0.0 l2.5155559182167053,0.30186669901013374 2.213689088821411,0.9056001156568527 l1.1068445444107056,1.3080890476703644 4.82986718416214,1.9118224084377289 l4.82986718416214,3.924266993999481 2.0124447345733643,3.0186671018600464 l0.5031111836433411,1.8112002313137054 0.0,1.0062223672866821 l-0.5031111836433411,0.20124446600675583 -4.0248894691467285,0.40248893201351166 l0.20124446600675583,4.528000354766846 m-28.1742262840271,-8.552889823913574 l2.5155559182167053,1.207466796040535 2.213689088821411,0.6037333980202675 l13.08089017868042,1.0062223672866821 2.918044626712799,0.5031111836433411 l2.918044626712799,1.0062223672866821 5.031111836433411,0.7043556123971939 l1.71057790517807,-0.10062223300337791 m-27.469868659973145,-3.3205336332321167 l2.3143114149570465,9.96160089969635 m22.338135242462158,-6.942933797836304 l0.10062223300337791,4.82986718416214 0.40248893201351166,2.918044626712799 m-41.65760517120361,-16.60266876220703 l-7.244800925254822,0.0 m7.747911810874939,-0.20124446600675583 l-0.40248893201351166,0.5031111836433411 -6.641067266464233,3.0186671018600464 m16.200180053710938,-4.628622829914093 l8.351645469665527,0.20124446600675583 m-7.747911810874939,1.3080890476703644 l7.747911810874939,1.207466796040535 m-17.005157470703125,-5.433600544929504 l0.0,0.0 m0.9056001156568527,-0.7043556123971939 l-0.20124446600675583,0.5031111836433411 " fill="none" stroke="black" stroke-width="1" /></svg>