<?xml version="1.0" encoding="utf-8" ?>
<svg baseProfile="full" height="95.48124969005585" version="1.1" width="111.4801842533052" xmlns="http://www.w3.org/2000/svg" xmlns:ev="http://www.w3.org/2001/xml-events" xmlns:xlink="http://www.w3.org/1999/xlink"><defs /><rect fill="white" height="95.48124969005585" width="111.4801842533052" x="0" y="0" /><path d="M58.809069972485304,47.136891540139914 m0.8049778640270233,2.213689088821411 l7.949156165122986,14.69084620475769 0.8049778640270233,3.924266993999481 l0.0,1.8112002313137054 -0.5031111836433411,0.40248893201351166 l-1.8112002313137054,0.30186669901013374 -2.6161780953407288,-0.20124446600675583 l-3.924266993999481,-2.3143114149570465 -3.11928927898407,-3.7230226397514343 l-5.634844899177551,-10.867201089859009 m7.546667456626892,-6.339200735092163 l10.062223672866821,-5.131734013557434 4.7292450070381165,-1.71057790517807 l2.918044626712799,-1.6099557280540466 1.5093335509300232,-1.4087112247943878 l1.4087112247943878,-0.30186669901013374 3.5217782855033875,-3.622400462627411 l3.3205336332321167,-2.716800272464752 0.7043556123971939,-1.5093335509300232 l-0.10062223300337791,-0.6037333980202675 -1.6099557280540466,-1.4087112247943878 l-2.3143114149570465,-0.6037333980202675 -1.4087112247943878,0.0 l-3.7230226397514343,0.5031111836433411 -1.8112002313137054,0.8049778640270233 l-1.6099557280540466,0.20124446600675583 -6.641067266464233,4.326756000518799 l-4.7292450070381165,2.1130669116973877 -6.741689443588257,4.125511646270752 l-4.82986718416214,1.8112002313137054 -3.622400462627411,2.41493359208107 l-5.2323561906814575,6.741689443588257 -1.4087112247943878,1.3080890476703644 l-0.5031111836433411,0.10062223300337791 -2.41493359208107,3.3205336332321167 l-1.9118224084377289,3.5217782855033875 -1.1068445444107056,1.207466796040535 l-2.5155559182167053,2.6161780953407288 -5.534222722053528,4.226133823394775 l-1.71057790517807,0.9056001156568527 3.8236448168754578,-0.6037333980202675 l11.974046230316162,-3.7230226397514343 3.8236448168754578,-2.716800272464752 l4.930489361286163,-4.628622829914093 2.1130669116973877,-1.1068445444107056 l0.40248893201351166,-0.5031111836433411 m0.0,-14.892090559005737 l-4.930489361286163,-5.936712026596069 -4.125511646270752,-3.8236448168754578 l-2.0124447345733643,-2.8174224495887756 -2.1130669116973877,-0.9056001156568527 l-0.40248893201351166,0.7043556123971939 -0.30186669901013374,5.131734013557434 l0.10062223300337791,5.031111836433411 2.213689088821411,4.326756000518799 l4.125511646270752,4.427378177642822 m31.192891597747803,-15.596445798873901 l-1.0062223672866821,1.1068445444107056 -1.6099557280540466,2.918044626712799 l-0.20124446600675583,2.41493359208107 0.6037333980202675,1.71057790517807 l0.8049778640270233,0.6037333980202675 1.6099557280540466,0.20124446600675583 l2.1130669116973877,-1.9118224084377289 1.9118224084377289,-3.8236448168754578 l0.10062223300337791,-2.213689088821411 -0.6037333980202675,-1.3080890476703644 l-1.4087112247943878,-0.6037333980202675 -2.6161780953407288,-0.10062223300337791 m-10.967823266983032,7.446045279502869 l-0.9056001156568527,0.30186669901013374 -0.5031111836433411,0.6037333980202675 l-0.10062223300337791,2.6161780953407288 0.40248893201351166,1.3080890476703644 l0.6037333980202675,0.6037333980202675 0.7043556123971939,0.10062223300337791 l0.7043556123971939,-0.7043556123971939 0.7043556123971939,-1.4087112247943878 l-0.20124446600675583,-1.4087112247943878 -1.1068445444107056,-0.7043556123971939 l-1.5093335509300232,0.30186669901013374 m-5.534222722053528,9.458490014076233 l0.5031111836433411,0.0 1.207466796040535,-0.9056001156568527 l1.0062223672866821,-2.0124447345733643 -0.10062223300337791,-0.9056001156568527 l-0.9056001156568527,-0.9056001156568527 -1.6099557280540466,-0.40248893201351166 l-1.4087112247943878,0.20124446600675583 -1.0062223672866821,0.7043556123971939 " fill="none" stroke="black" stroke-width="1" /></svg>