<?xml version="1.0" encoding="utf-8" ?>
<svg baseProfile="full" height="86.22400406748056" version="1.1" width="85.92213712632656" xmlns="http://www.w3.org/2000/svg" xmlns:ev="http://www.w3.org/2001/xml-events" xmlns:xlink="http://www.w3.org/1999/xlink"><defs /><rect fill="white" height="86.22400406748056" width="85.92213712632656" x="0" y="0" /><path d="M33.85475665330887,25.100622233003378 m-2.0124447345733643,-0.10062223300337791 l-3.5217782855033875,0.5031111836433411 -3.3205336332321167,1.1068445444107056 l0.8049778640270233,2.8174224495887756 0.5031111836433411,4.326756000518799 l0.6037333980202675,1.207466796040535 0.6037333980202675,0.30186669901013374 l3.0186671018600464,-0.9056001156568527 2.213689088821411,-0.30186669901013374 l2.3143114149570465,0.5031111836433411 0.5031111836433411,-0.20124446600675583 l0.6037333980202675,-3.11928927898407 0.10062223300337791,-3.2199114561080933 l-0.40248893201351166,-1.6099557280540466 -1.5093335509300232,-1.1068445444107056 m1.71057790517807,10.867201089859009 l-0.9056001156568527,-0.8049778640270233 -0.30186669901013374,0.5031111836433411 l1.71057790517807,9.257245659828186 2.41493359208107,5.332978367805481 l2.6161780953407288,4.0248894691467285 3.42115581035614,3.3205336332321167 l3.3205336332321167,2.1130669116973877 2.5155559182167053,0.9056001156568527 l3.3205336332321167,0.40248893201351166 4.125511646270752,-0.7043556123971939 l2.213689088821411,-1.8112002313137054 0.40248893201351166,-2.1130669116973877 l-1.9118224084377289,-3.3205336332321167 -2.716800272464752,-3.0186671018600464 l-5.2323561906814575,-4.628622829914093 -3.3205336332321167,-3.622400462627411 l-3.2199114561080933,-2.6161780953407288 -4.930489361286163,-3.3205336332321167 l-1.4087112247943878,-1.4087112247943878 -1.9118224084377289,-0.9056001156568527 l-1.207466796040535,0.0 -0.7043556123971939,1.207466796040535 l0.5031111836433411,1.3080890476703644 m-2.716800272464752,-8.955378532409668 l-2.0124447345733643,0.20124446600675583 1.5093335509300232,4.0248894691467285 l1.9118224084377289,0.0 0.30186669901013374,-1.0062223672866821 l-0.8049778640270233,-2.41493359208107 -0.5031111836433411,-0.6037333980202675 " fill="none" stroke="black" stroke-width="1" /></svg>