<?xml version="1.0" encoding="utf-8" ?>
<svg baseProfile="full" height="86.6264926083386" version="1.1" width="82.90347056463361" xmlns="http://www.w3.org/2000/svg" xmlns:ev="http://www.w3.org/2001/xml-events" xmlns:xlink="http://www.w3.org/1999/xlink"><defs /><rect fill="white" height="86.6264926083386" width="82.90347056463361" x="0" y="0" /><path d="M38.58400143682957,33.754134345799685 m-1.71057790517807,-1.6099557280540466 l-4.125511646270752,-2.41493359208107 -2.0124447345733643,-0.7043556123971939 l-2.918044626712799,-0.10062223300337791 -1.6099557280540466,0.8049778640270233 l-0.6037333980202675,0.8049778640270233 -0.6037333980202675,1.9118224084377289 l0.0,2.716800272464752 2.5155559182167053,4.326756000518799 l3.8236448168754578,3.42115581035614 1.0062223672866821,1.6099557280540466 l-0.20124446600675583,3.924266993999481 -1.9118224084377289,4.528000354766846 l-0.5031111836433411,2.3143114149570465 0.0,3.8236448168754578 l0.8049778640270233,1.5093335509300232 1.8112002313137054,0.9056001156568527 l3.0186671018600464,0.10062223300337791 1.71057790517807,-1.3080890476703644 l1.207466796040535,-1.5093335509300232 1.1068445444107056,-3.0186671018600464 l0.5031111836433411,-6.741689443588257 0.9056001156568527,-3.11928927898407 m-2.0124447345733643,-12.77902364730835 l0.10062223300337791,6.339200735092163 1.1068445444107056,6.137956380844116 l0.8049778640270233,2.918044626712799 0.9056001156568527,1.8112002313137054 l0.8049778640270233,0.5031111836433411 0.5031111836433411,-0.5031111836433411 l0.30186669901013374,-5.634844899177551 -2.8174224495887756,-8.955378532409668 l-0.8049778640270233,-2.213689088821411 -0.7043556123971939,-0.8049778640270233 m2.3143114149570465,1.8112002313137054 l0.5031111836433411,-2.41493359208107 2.5155559182167053,-5.2323561906814575 l1.3080890476703644,-1.4087112247943878 2.3143114149570465,-0.30186669901013374 l1.6099557280540466,2.0124447345733643 0.20124446600675583,3.3205336332321167 l-1.8112002313137054,4.0248894691467285 -3.0186671018600464,4.628622829914093 l0.6037333980202675,0.40248893201351166 3.924266993999481,0.8049778640270233 l4.226133823394775,1.71057790517807 3.11928927898407,2.213689088821411 l1.0062223672866821,1.9118224084377289 0.10062223300337791,2.918044626712799 l-0.8049778640270233,0.9056001156568527 -1.5093335509300232,0.8049778640270233 l-3.622400462627411,1.1068445444107056 -1.71057790517807,0.20124446600675583 l-3.924266993999481,-0.20124446600675583 m-7.446045279502869,-17.307024002075195 l-0.6037333980202675,-4.0248894691467285 -2.6161780953407288,-3.5217782855033875 m5.2323561906814575,5.534222722053528 l-0.9056001156568527,-0.40248893201351166 -0.20124446600675583,-1.207466796040535 l0.0,-3.924266993999481 0.8049778640270233,-2.1130669116973877 " fill="none" stroke="black" stroke-width="1" /></svg>