<?xml version="1.0" encoding="utf-8" ?>
<svg baseProfile="full" height="81.99787009507418" version="1.1" width="75.8599141985178" xmlns="http://www.w3.org/2000/svg" xmlns:ev="http://www.w3.org/2001/xml-events" xmlns:xlink="http://www.w3.org/1999/xlink"><defs /><rect fill="white" height="81.99787009507418" width="75.8599141985178" x="0" y="0" /><path d="M40.09333508089185,32.24480094388127 m-4.528000354766846,0.0 l-1.71057790517807,0.30186669901013374 -1.6099557280540466,0.9056001156568527 l-2.8174224495887756,3.622400462627411 -2.0124447345733643,4.528000354766846 l-0.9056001156568527,3.3205336332321167 -0.30186669901013374,3.3205336332321167 l1.0062223672866821,2.8174224495887756 1.207466796040535,1.207466796040535 l6.942933797836304,3.7230226397514343 1.6099557280540466,0.5031111836433411 l4.226133823394775,0.5031111836433411 3.0186671018600464,-0.20124446600675583 l1.3080890476703644,-0.40248893201351166 0.5031111836433411,-0.30186669901013374 l2.1130669116973877,-3.2199114561080933 2.3143114149570465,-5.735467076301575 l0.40248893201351166,-2.3143114149570465 -0.10062223300337791,-2.1130669116973877 l-1.4087112247943878,-3.2199114561080933 -1.207466796040535,-1.6099557280540466 l-3.7230226397514343,-3.7230226397514343 -2.1130669116973877,-1.5093335509300232 l-1.9118224084377289,-0.30186669901013374 m-0.40248893201351166,-0.20124446600675583 l5.534222722053528,-4.7292450070381165 3.7230226397514343,-2.41493359208107 l0.30186669901013374,0.5031111836433411 0.20124446600675583,2.1130669116973877 l0.0,4.226133823394775 -1.5093335509300232,6.942933797836304 m-14.489601850509644,-6.4398229122161865 l-8.754134178161621,-3.42115581035614 1.8112002313137054,9.156623482704163 l0.5031111836433411,0.7043556123971939 m13.08089017868042,9.760356545448303 l5.634844899177551,-2.1130669116973877 m-4.326756000518799,4.628622829914093 l6.54044508934021,-0.8049778640270233 m-5.936712026596069,1.8112002313137054 l2.1130669116973877,1.5093335509300232 1.3080890476703644,1.4087112247943878 m-10.263468027114868,-5.735467076301575 l-9.96160089969635,-4.528000354766846 m4.82986718416214,4.125511646270752 l-5.2323561906814575,0.30186669901013374 0.20124446600675583,0.20124446600675583 m7.144178748130798,1.0062223672866821 " fill="none" stroke="black" stroke-width="1" /></svg>