<?xml version="1.0" encoding="utf-8" ?>
<svg baseProfile="full" height="66.90453497692943" version="1.1" width="75.85991449654102" xmlns="http://www.w3.org/2000/svg" xmlns:ev="http://www.w3.org/2001/xml-events" xmlns:xlink="http://www.w3.org/1999/xlink"><defs /><rect fill="white" height="66.90453497692943" width="75.85991449654102" x="0" y="0" /><path d="M25,31.23857829719782 m0.6037333980202675,0.8049778640270233 l3.42115581035614,1.8112002313137054 7.546667456626892,2.1130669116973877 l2.3143114149570465,0.20124446600675583 0.10062223300337791,-0.20124446600675583 m-11.47093415260315,-4.326756000518799 l-0.9056001156568527,-0.30186669901013374 -0.30186669901013374,-0.40248893201351166 l0.9056001156568527,-0.9056001156568527 1.8112002313137054,-0.9056001156568527 l2.6161780953407288,-0.5031111836433411 3.5217782855033875,0.40248893201351166 l2.6161780953407288,1.0062223672866821 3.11928927898407,0.20124446600675583 m-7.345423102378845,2.41493359208107 l1.1068445444107056,6.641067266464233 0.5031111836433411,1.3080890476703644 l1.1068445444107056,1.3080890476703644 0.40248893201351166,-1.3080890476703644 l0.5031111836433411,-4.82986718416214 0.40248893201351166,-0.8049778640270233 m0.8049778640270233,1.8112002313137054 l3.622400462627411,0.8049778640270233 4.82986718416214,-0.10062223300337791 l1.3080890476703644,-0.40248893201351166 2.716800272464752,-2.213689088821411 m-12.879645824432373,-5.735467076301575 l5.332978367805481,2.0124447345733643 3.7230226397514343,0.8049778640270233 l2.3143114149570465,1.1068445444107056 1.207466796040535,1.0062223672866821 m-8.15040111541748,-3.5217782855033875 l2.41493359208107,-1.4087112247943878 4.930489361286163,-4.125511646270752 l0.40248893201351166,0.20124446600675583 0.20124446600675583,1.207466796040535 l-0.7043556123971939,5.2323561906814575 0.20124446600675583,2.6161780953407288 " fill="none" stroke="black" stroke-width="1" /></svg>