<?xml version="1.0" encoding="utf-8" ?>
<svg baseProfile="full" height="78.1742256321013" version="1.1" width="87.63271544128656" xmlns="http://www.w3.org/2000/svg" xmlns:ev="http://www.w3.org/2001/xml-events" xmlns:xlink="http://www.w3.org/1999/xlink"><defs /><rect fill="white" height="78.1742256321013" width="87.63271544128656" x="0" y="0" /><path d="M30.534223057329655,43.01137989386916 m5.2323561906814575,2.41493359208107 l7.949156165122986,0.30186669901013374 4.82986718416214,-0.40248893201351166 l3.622400462627411,-0.8049778640270233 5.936712026596069,-2.6161780953407288 l3.42115581035614,-3.5217782855033875 1.1068445444107056,-3.3205336332321167 l-0.40248893201351166,-2.41493359208107 -2.1130669116973877,-2.8174224495887756 l-1.8112002313137054,-1.5093335509300232 -5.031111836433411,-2.3143114149570465 l-6.137956380844116,-1.0062223672866821 -5.735467076301575,0.0 l-6.339200735092163,1.1068445444107056 -1.8112002313137054,0.7043556123971939 l-3.8236448168754578,2.41493359208107 -1.71057790517807,2.6161780953407288 l-1.1068445444107056,2.5155559182167053 -0.20124446600675583,2.716800272464752 l0.30186669901013374,1.4087112247943878 1.9118224084377289,3.0186671018600464 m-1.8112002313137054,-4.125511646270752 l-1.5093335509300232,5.031111836433411 -0.30186669901013374,2.1130669116973877 l0.7043556123971939,1.9118224084377289 1.0062223672866821,1.0062223672866821 l1.3080890476703644,0.8049778640270233 6.339200735092163,1.8112002313137054 l6.23857855796814,0.30186669901013374 5.2323561906814575,-0.7043556123971939 l7.446045279502869,-1.6099557280540466 3.5217782855033875,-2.1130669116973877 l3.11928927898407,-2.6161780953407288 0.9056001156568527,-1.207466796040535 l1.5093335509300232,-3.2199114561080933 0.20124446600675583,-2.5155559182167053 l-0.30186669901013374,-0.7043556123971939 -0.8049778640270233,-0.6037333980202675 m-19.01760220527649,10.565334558486938 l-3.11928927898407,-0.6037333980202675 -1.207466796040535,0.5031111836433411 l-0.8049778640270233,0.7043556123971939 -0.40248893201351166,0.9056001156568527 l-0.40248893201351166,2.5155559182167053 0.30186669901013374,0.7043556123971939 l1.207466796040535,1.1068445444107056 1.71057790517807,1.0062223672866821 l1.9118224084377289,0.7043556123971939 1.3080890476703644,-0.10062223300337791 l1.3080890476703644,-0.5031111836433411 1.0062223672866821,-0.9056001156568527 l1.3080890476703644,-1.9118224084377289 0.40248893201351166,-2.213689088821411 l-0.6037333980202675,-1.8112002313137054 -1.5093335509300232,-1.3080890476703644 l-1.5093335509300232,-0.30186669901013374 -1.9118224084377289,0.5031111836433411 l-3.3205336332321167,2.41493359208107 " fill="none" stroke="black" stroke-width="1" /></svg>