<?xml version="1.0" encoding="utf-8" ?>
<svg baseProfile="full" height="73.94809156656265" version="1.1" width="119.63058724999428" xmlns="http://www.w3.org/2000/svg" xmlns:ev="http://www.w3.org/2001/xml-events" xmlns:xlink="http://www.w3.org/1999/xlink"><defs /><rect fill="white" height="73.94809156656265" width="119.63058724999428" x="0" y="0" /><path d="M26.30808800458908,31.741689797490835 m6.137956380844116,-0.10062223300337791 l12.376534938812256,0.5031111836433411 0.40248893201351166,0.8049778640270233 l0.0,3.3205336332321167 -1.0062223672866821,7.144178748130798 l1.6099557280540466,0.7043556123971939 6.23857855796814,1.6099557280540466 l4.930489361286163,0.6037333980202675 10.364090204238892,0.40248893201351166 l5.031111836433411,0.0 0.10062223300337791,-3.7230226397514343 l-0.9056001156568527,-6.137956380844116 -0.10062223300337791,-4.628622829914093 l-15.797690153121948,-0.9056001156568527 -5.131734013557434,0.0 l-6.84231162071228,0.5031111836433411 m0.7043556123971939,10.967823266983032 l-2.6161780953407288,0.40248893201351166 -1.207466796040535,-0.20124446600675583 l-8.049778938293457,-4.226133823394775 -7.546667456626892,-2.213689088821411 m47.29245185852051,8.351645469665527 l5.836089253425598,-1.8112002313137054 15.093334913253784,-6.641067266464233 l1.4087112247943878,-0.9056001156568527 m-22.841246128082275,-3.5217782855033875 l2.716800272464752,-1.5093335509300232 10.665956735610962,-2.6161780953407288 l8.45226764678955,-2.918044626712799 m-40.45013904571533,7.446045279502869 l-1.3080890476703644,3.11928927898407 -1.4087112247943878,4.82986718416214 l-0.7043556123971939,3.0186671018600464 -0.20124446600675583,3.11928927898407 m17.206401824951172,-12.77902364730835 l-2.213689088821411,5.031111836433411 -1.4087112247943878,5.735467076301575 l-0.10062223300337791,4.427378177642822 0.5031111836433411,-0.40248893201351166 " fill="none" stroke="black" stroke-width="1" /></svg>