<?xml version="1.0" encoding="utf-8" ?>
<svg baseProfile="full" height="69.82257965952158" version="1.1" width="68.71573494747281" xmlns="http://www.w3.org/2000/svg" xmlns:ev="http://www.w3.org/2001/xml-events" xmlns:xlink="http://www.w3.org/1999/xlink"><defs /><rect fill="white" height="69.82257965952158" width="68.71573494747281" x="0" y="0" /><path d="M33.3516451343894,32.24480111151934 m-1.6099557280540466,0.5031111836433411 l-0.8049778640270233,0.9056001156568527 -1.1068445444107056,2.213689088821411 l-0.20124446600675583,1.71057790517807 0.10062223300337791,2.213689088821411 l0.6037333980202675,1.207466796040535 1.4087112247943878,1.8112002313137054 l1.4087112247943878,0.8049778640270233 1.1068445444107056,0.5031111836433411 l3.42115581035614,-0.10062223300337791 2.6161780953407288,-1.0062223672866821 l1.3080890476703644,-0.9056001156568527 1.207466796040535,-1.9118224084377289 l0.8049778640270233,-2.0124447345733643 0.0,-1.4087112247943878 l-0.6037333980202675,-1.207466796040535 -2.6161780953407288,-3.0186671018600464 l-0.10062223300337791,-6.23857855796814 -0.8049778640270233,1.1068445444107056 l-0.40248893201351166,2.3143114149570465 -1.3080890476703644,1.71057790517807 l-1.0062223672866821,0.30186669901013374 -1.1068445444107056,-1.3080890476703644 l-0.10062223300337791,-2.8174224495887756 -1.207466796040535,-2.6161780953407288 l-0.6037333980202675,0.7043556123971939 0.0,6.741689443588257 m0.0,3.0186671018600464 l-0.5031111836433411,-0.20124446600675583 0.7043556123971939,-0.10062223300337791 m5.433600544929504,0.5031111836433411 l-0.5031111836433411,0.0 0.5031111836433411,-0.40248893201351166 l-0.5031111836433411,0.30186669901013374 0.6037333980202675,-0.30186669901013374 m-4.125511646270752,3.42115581035614 l-0.6037333980202675,0.10062223300337791 -0.5031111836433411,1.1068445444107056 l0.5031111836433411,0.20124446600675583 0.7043556123971939,-0.20124446600675583 m0.9056001156568527,-1.9118224084377289 l1.0062223672866821,0.40248893201351166 0.40248893201351166,0.5031111836433411 l-0.20124446600675583,0.5031111836433411 -1.5093335509300232,0.5031111836433411 m2.1130669116973877,-1.3080890476703644 l2.1130669116973877,0.0 3.2199114561080933,1.1068445444107056 m-5.433600544929504,1.0062223672866821 l3.622400462627411,0.10062223300337791 2.0124447345733643,0.6037333980202675 m-5.836089253425598,1.0062223672866821 l4.125511646270752,0.5031111836433411 m-12.577779293060303,-4.628622829914093 l-0.30186669901013374,0.0 m0.0,0.0 l0.0,0.0 m4.628622829914093,0.7043556123971939 l-1.5093335509300232,0.40248893201351166 -4.427378177642822,0.0 l-2.8174224495887756,0.40248893201351166 m9.860978722572327,1.207466796040535 l-3.42115581035614,0.0 m-0.6037333980202675,0.0 l-1.5093335509300232,0.0 -1.3080890476703644,0.40248893201351166 m5.433600544929504,0.5031111836433411 l-0.6037333980202675,0.10062223300337791 -4.528000354766846,2.8174224495887756 " fill="none" stroke="black" stroke-width="1" /></svg>