<?xml version="1.0" encoding="utf-8" ?>
<svg baseProfile="full" height="83.10471514239907" version="1.1" width="75.4574248380959" xmlns="http://www.w3.org/2000/svg" xmlns:ev="http://www.w3.org/2001/xml-events" xmlns:xlink="http://www.w3.org/1999/xlink"><defs /><rect fill="white" height="83.10471514239907" width="75.4574248380959" x="0" y="0" /><path d="M45.92942476272583,33.4522676281631 m-1.5093335509300232,-0.7043556123971939 l-2.918044626712799,-0.40248893201351166 -5.031111836433411,0.20124446600675583 l-4.0248894691467285,0.8049778640270233 -2.6161780953407288,1.71057790517807 l-1.6099557280540466,1.8112002313137054 -1.3080890476703644,2.1130669116973877 l-1.4087112247943878,3.5217782855033875 -0.5031111836433411,3.5217782855033875 l0.10062223300337791,1.3080890476703644 1.207466796040535,3.2199114561080933 l2.3143114149570465,3.5217782855033875 0.8049778640270233,1.0062223672866821 l2.3143114149570465,1.71057790517807 2.213689088821411,0.9056001156568527 l3.924266993999481,0.40248893201351166 2.5155559182167053,-0.5031111836433411 l2.213689088821411,-0.9056001156568527 4.125511646270752,-3.7230226397514343 l2.41493359208107,-5.131734013557434 0.7043556123971939,-3.0186671018600464 l0.10062223300337791,-2.6161780953407288 -0.30186669901013374,-2.5155559182167053 l-1.1068445444107056,-2.213689088821411 -1.0062223672866821,-1.71057790517807 l-2.5155559182167053,-2.1130669116973877 -1.5093335509300232,-0.8049778640270233 l-2.5155559182167053,-0.6037333980202675 -2.0124447345733643,0.30186669901013374 l-2.1130669116973877,1.1068445444107056 m-8.45226764678955,3.3205336332321167 l-0.6037333980202675,-1.3080890476703644 -0.10062223300337791,-4.82986718416214 l-0.5031111836433411,-2.5155559182167053 3.11928927898407,3.3205336332321167 l1.71057790517807,1.207466796040535 m12.678401470184326,1.0062223672866821 l0.30186669901013374,-1.207466796040535 4.0248894691467285,-4.930489361286163 l1.4087112247943878,-2.716800272464752 -0.8049778640270233,2.0124447345733643 l-1.0062223672866821,4.226133823394775 -0.40248893201351166,2.5155559182167053 l0.10062223300337791,1.71057790517807 m-14.08711314201355,4.125511646270752 l1.4087112247943878,-1.5093335509300232 -0.6037333980202675,0.0 m5.836089253425598,0.9056001156568527 l1.1068445444107056,0.0 0.40248893201351166,-0.30186669901013374 m-4.125511646270752,4.930489361286163 l-1.8112002313137054,3.11928927898407 0.5031111836433411,0.30186669901013374 l0.8049778640270233,-0.10062223300337791 1.0062223672866821,-0.5031111836433411 " fill="none" stroke="black" stroke-width="1" /></svg>