<?xml version="1.0" encoding="utf-8" ?>
<svg baseProfile="full" height="74.04871325939894" version="1.1" width="80.28729259967804" xmlns="http://www.w3.org/2000/svg" xmlns:ev="http://www.w3.org/2001/xml-events" xmlns:xlink="http://www.w3.org/1999/xlink"><defs /><rect fill="white" height="74.04871325939894" width="80.28729259967804" x="0" y="0" /><path d="M30.33297836780548,42.91075758635998 m0.0,-7.848533987998962 l-0.7043556123971939,-6.037334203720093 0.0,-3.622400462627411 l0.7043556123971939,-0.40248893201351166 4.82986718416214,1.1068445444107056 l5.534222722053528,0.0 5.332978367805481,-0.6037333980202675 l4.427378177642822,0.10062223300337791 1.71057790517807,0.5031111836433411 l0.5031111836433411,1.9118224084377289 0.0,11.068445444107056 l-0.40248893201351166,2.918044626712799 -0.5031111836433411,1.3080890476703644 l-1.8112002313137054,0.20124446600675583 -3.622400462627411,-1.0062223672866821 l-4.427378177642822,-0.10062223300337791 -3.7230226397514343,0.6037333980202675 l-3.11928927898407,0.0 -3.8236448168754578,-0.6037333980202675 m1.9118224084377289,-9.056000709533691 l-0.9056001156568527,-3.622400462627411 0.10062223300337791,-0.5031111836433411 l0.9056001156568527,-0.10062223300337791 3.2199114561080933,0.8049778640270233 l1.9118224084377289,0.10062223300337791 0.10062223300337791,2.3143114149570465 l-0.20124446600675583,0.7043556123971939 -1.4087112247943878,0.8049778640270233 l-3.11928927898407,0.10062223300337791 -1.4087112247943878,-0.7043556123971939 m9.860978722572327,0.6037333980202675 l-0.7043556123971939,-3.0186671018600464 4.125511646270752,0.20124446600675583 l0.0,3.2199114561080933 -1.207466796040535,0.9056001156568527 l-1.4087112247943878,0.0 -0.6037333980202675,-0.30186669901013374 m5.332978367805481,7.6472896337509155 l0.5031111836433411,-3.924266993999481 -0.20124446600675583,-8.351645469665527 l6.137956380844116,1.6099557280540466 -1.3080890476703644,6.84231162071228 l-1.5093335509300232,4.326756000518799 m-19.520713090896606,0.20124446600675583 l-0.10062223300337791,1.3080890476703644 0.30186669901013374,0.9056001156568527 l1.207466796040535,1.6099557280540466 1.5093335509300232,1.0062223672866821 l0.9056001156568527,0.10062223300337791 1.8112002313137054,0.0 l1.4087112247943878,-1.4087112247943878 2.3143114149570465,-3.3205336332321167 m5.131734013557434,-0.5031111836433411 l2.5155559182167053,4.82986718416214 1.207466796040535,1.207466796040535 l1.5093335509300232,0.10062223300337791 0.6037333980202675,-0.40248893201351166 l3.11928927898407,-3.7230226397514343 m-24.45120334625244,-5.534222722053528 l-5.836089253425598,0.0 1.71057790517807,4.930489361286163 l0.30186669901013374,0.5031111836433411 6.4398229122161865,-0.10062223300337791 " fill="none" stroke="black" stroke-width="1" /></svg>