<?xml version="1.0" encoding="utf-8" ?>
<svg baseProfile="full" height="68.71573546901345" version="1.1" width="71.231291256845" xmlns="http://www.w3.org/2000/svg" xmlns:ev="http://www.w3.org/2001/xml-events" xmlns:xlink="http://www.w3.org/1999/xlink"><defs /><rect fill="white" height="68.71573546901345" width="71.231291256845" x="0" y="0" /><path d="M36.06844585388899,33.049778677523136 m-0.9056001156568527,-1.6099557280540466 l-1.8112002313137054,-1.5093335509300232 -2.5155559182167053,-0.6037333980202675 l-3.5217782855033875,0.0 -1.71057790517807,0.9056001156568527 l-0.6037333980202675,1.0062223672866821 0.0,0.5031111836433411 l1.4087112247943878,1.3080890476703644 2.3143114149570465,1.0062223672866821 l-1.4087112247943878,2.1130669116973877 -0.40248893201351166,2.213689088821411 l0.40248893201351166,1.0062223672866821 0.5031111836433411,0.40248893201351166 l1.1068445444107056,-0.10062223300337791 0.20124446600675583,0.5031111836433411 l-0.40248893201351166,1.6099557280540466 0.10062223300337791,1.207466796040535 l1.6099557280540466,0.7043556123971939 1.1068445444107056,0.0 l3.11928927898407,-0.9056001156568527 1.4087112247943878,-1.1068445444107056 l0.20124446600675583,-2.213689088821411 -0.9056001156568527,-6.037334203720093 l0.9056001156568527,-2.0124447345733643 0.5031111836433411,-0.10062223300337791 l1.3080890476703644,3.924266993999481 0.5031111836433411,5.031111836433411 l-0.9056001156568527,0.8049778640270233 -1.207466796040535,0.0 l-0.5031111836433411,-0.30186669901013374 m1.5093335509300232,-11.068445444107056 l0.9056001156568527,-2.5155559182167053 0.9056001156568527,-1.207466796040535 l1.0062223672866821,-0.7043556123971939 0.5031111836433411,0.20124446600675583 l0.30186669901013374,0.6037333980202675 -0.30186669901013374,0.10062223300337791 m-4.427378177642822,4.82986718416214 l-0.5031111836433411,-1.71057790517807 -2.1130669116973877,-3.5217782855033875 l-1.0062223672866821,-0.8049778640270233 -1.0062223672866821,1.71057790517807 m5.2323561906814575,4.82986718416214 l3.8236448168754578,-3.2199114561080933 3.2199114561080933,-0.30186669901013374 l0.5031111836433411,0.10062223300337791 0.8049778640270233,0.9056001156568527 l0.10062223300337791,1.1068445444107056 -0.5031111836433411,1.3080890476703644 l-2.1130669116973877,1.4087112247943878 2.918044626712799,0.8049778640270233 l0.5031111836433411,0.40248893201351166 -0.10062223300337791,1.1068445444107056 l-0.7043556123971939,1.0062223672866821 -2.213689088821411,0.6037333980202675 l1.9118224084377289,1.71057790517807 0.20124446600675583,1.0062223672866821 l-1.5093335509300232,0.8049778640270233 -1.71057790517807,0.10062223300337791 l-3.622400462627411,-1.5093335509300232 " fill="none" stroke="black" stroke-width="1" /></svg>