<?xml version="1.0" encoding="utf-8" ?>
<svg baseProfile="full" height="85.72089338675141" version="1.1" width="87.23022686317563" xmlns="http://www.w3.org/2000/svg" xmlns:ev="http://www.w3.org/2001/xml-events" xmlns:xlink="http://www.w3.org/1999/xlink"><defs /><rect fill="white" height="85.72089338675141" width="87.23022686317563" x="0" y="0" /><path d="M61.324625592678785,46.43253620713949 m0.0,-0.20124446600675583 m-0.10062223300337791,-1.5093335509300232 l-0.10062223300337791,-0.5031111836433411 -2.5155559182167053,-1.8112002313137054 l-11.47093415260315,-5.131734013557434 -8.854756355285645,-2.1130669116973877 l-4.326756000518799,-0.6037333980202675 -3.11928927898407,-0.10062223300337791 l-3.8236448168754578,1.1068445444107056 -1.71057790517807,2.5155559182167053 l-0.30186669901013374,2.0124447345733643 0.20124446600675583,2.41493359208107 l1.1068445444107056,3.0186671018600464 4.125511646270752,6.641067266464233 l2.8174224495887756,3.11928927898407 3.42115581035614,2.3143114149570465 l4.326756000518799,2.0124447345733643 4.226133823394775,0.9056001156568527 l4.326756000518799,0.20124446600675583 3.7230226397514343,-0.40248893201351166 l2.8174224495887756,-1.1068445444107056 2.5155559182167053,-1.4087112247943878 l1.5093335509300232,-1.3080890476703644 1.5093335509300232,-3.3205336332321167 l0.40248893201351166,-2.213689088821411 0.0,-4.326756000518799 l-0.30186669901013374,-2.0124447345733643 -0.8049778640270233,-2.0124447345733643 l-1.0062223672866821,-1.6099557280540466 -2.5155559182167053,-2.1130669116973877 l-1.4087112247943878,-0.5031111836433411 -2.213689088821411,-0.20124446600675583 l-0.7043556123971939,0.20124446600675583 -0.40248893201351166,0.7043556123971939 m-8.955378532409668,1.207466796040535 l0.5031111836433411,3.2199114561080933 m9.056000709533691,-1.0062223672866821 l0.6037333980202675,-0.40248893201351166 -0.5031111836433411,0.6037333980202675 l-1.8112002313137054,1.4087112247943878 -0.6037333980202675,1.3080890476703644 l0.8049778640270233,0.20124446600675583 3.11928927898407,-0.30186669901013374 l0.10062223300337791,0.40248893201351166 m1.9118224084377289,1.71057790517807 l3.0186671018600464,0.0 -0.40248893201351166,0.6037333980202675 l-2.3143114149570465,1.1068445444107056 1.9118224084377289,1.1068445444107056 l0.5031111836433411,0.7043556123971939 -0.9056001156568527,1.0062223672866821 l-2.918044626712799,0.6037333980202675 m-7.949156165122986,-0.10062223300337791 l-0.5031111836433411,0.40248893201351166 0.6037333980202675,0.30186669901013374 l4.7292450070381165,0.40248893201351166 0.20124446600675583,-1.1068445444107056 l0.10062223300337791,4.628622829914093 -0.30186669901013374,-0.30186669901013374 m-9.65973436832428,-3.11928927898407 l-2.8174224495887756,-0.8049778640270233 -0.40248893201351166,1.1068445444107056 l3.3205336332321167,0.5031111836433411 0.40248893201351166,0.6037333980202675 l-1.3080890476703644,1.207466796040535 -1.4087112247943878,-0.30186669901013374 m-4.125511646270752,-7.446045279502869 l-1.4087112247943878,0.0 -1.5093335509300232,1.5093335509300232 l0.40248893201351166,0.7043556123971939 2.716800272464752,0.6037333980202675 l0.7043556123971939,0.0 0.6037333980202675,-0.40248893201351166 l0.10062223300337791,-0.6037333980202675 -0.5031111836433411,-0.30186669901013374 l-0.6037333980202675,0.10062223300337791 -1.0062223672866821,1.71057790517807 m-5.131734013557434,-12.980268001556396 l1.207466796040535,-1.0062223672866821 0.6037333980202675,0.20124446600675583 l0.20124446600675583,0.5031111836433411 -0.8049778640270233,1.71057790517807 l-2.3143114149570465,2.6161780953407288 0.7043556123971939,-0.5031111836433411 m8.15040111541748,-7.043556571006775 l-0.8049778640270233,0.10062223300337791 -1.8112002313137054,1.1068445444107056 l1.4087112247943878,1.0062223672866821 0.5031111836433411,1.207466796040535 l-0.5031111836433411,1.3080890476703644 -0.6037333980202675,0.30186669901013374 l-2.0124447345733643,-0.10062223300337791 0.40248893201351166,-0.7043556123971939 l5.2323561906814575,-3.2199114561080933 -0.40248893201351166,-0.5031111836433411 l-2.0124447345733643,-0.40248893201351166 m7.546667456626892,0.30186669901013374 l1.3080890476703644,-1.0062223672866821 1.6099557280540466,-2.0124447345733643 l2.5155559182167053,-5.2323561906814575 0.6037333980202675,-2.5155559182167053 m-5.836089253425598,10.967823266983032 l8.754134178161621,-4.528000354766846 7.043556571006775,-4.7292450070381165 l0.5031111836433411,-0.6037333980202675 " fill="none" stroke="black" stroke-width="1" /></svg>