<?xml version="1.0" encoding="utf-8" ?>
<svg baseProfile="full" height="79.18044865131378" version="1.1" width="68.9169798232615" xmlns="http://www.w3.org/2000/svg" xmlns:ev="http://www.w3.org/2001/xml-events" xmlns:xlink="http://www.w3.org/1999/xlink"><defs /><rect fill="white" height="79.18044865131378" width="68.9169798232615" x="0" y="0" /><path d="M30.131733939051628,33.150401040911674 m-0.5031111836433411,0.20124446600675583 l-2.41493359208107,2.716800272464752 -1.3080890476703644,2.41493359208107 l-0.9056001156568527,2.918044626712799 0.0,4.125511646270752 l1.1068445444107056,2.3143114149570465 2.0124447345733643,1.71057790517807 l1.207466796040535,0.30186669901013374 2.716800272464752,-0.20124446600675583 l3.11928927898407,-2.0124447345733643 1.8112002313137054,-2.5155559182167053 l0.20124446600675583,-3.924266993999481 -0.30186669901013374,-2.8174224495887756 l-1.3080890476703644,-3.5217782855033875 -1.8112002313137054,-1.8112002313137054 l-2.0124447345733643,-0.30186669901013374 -2.3143114149570465,0.6037333980202675 m-1.4087112247943878,2.41493359208107 l-1.6099557280540466,-2.213689088821411 -0.5031111836433411,-1.4087112247943878 l0.0,-1.5093335509300232 0.8049778640270233,-0.9056001156568527 l1.6099557280540466,-0.10062223300337791 1.5093335509300232,0.7043556123971939 l1.71057790517807,2.918044626712799 0.8049778640270233,0.10062223300337791 m-5.131734013557434,-4.326756000518799 l-1.71057790517807,-1.3080890476703644 m8.754134178161621,5.131734013557434 l-0.10062223300337791,-0.7043556123971939 0.30186669901013374,-0.6037333980202675 l1.4087112247943878,-1.5093335509300232 1.5093335509300232,-1.1068445444107056 l2.213689088821411,-0.5031111836433411 0.5031111836433411,1.71057790517807 l-0.20124446600675583,2.0124447345733643 -3.2199114561080933,5.2323561906814575 m4.0248894691467285,-8.754134178161621 l0.9056001156568527,-2.3143114149570465 1.8112002313137054,-1.3080890476703644 l0.5031111836433411,0.0 m-9.760356545448303,24.048714637756348 l4.82986718416214,5.131734013557434 " fill="none" stroke="black" stroke-width="1" /></svg>