<?xml version="1.0" encoding="utf-8" ?>
<svg baseProfile="full" height="70.22506892681122" version="1.1" width="88.13582608476281" xmlns="http://www.w3.org/2000/svg" xmlns:ev="http://www.w3.org/2001/xml-events" xmlns:xlink="http://www.w3.org/1999/xlink"><defs /><rect fill="white" height="70.22506892681122" width="88.13582608476281" x="0" y="0" /><path d="M54.88480357453227,26.408711280673742 m-9.257245659828186,-1.3080890476703644 l-10.867201089859009,-0.10062223300337791 -2.41493359208107,0.8049778640270233 l-1.5093335509300232,0.9056001156568527 -3.0186671018600464,2.1130669116973877 l-2.3143114149570465,2.41493359208107 -0.40248893201351166,1.1068445444107056 l-0.10062223300337791,4.0248894691467285 0.8049778640270233,2.213689088821411 l3.3205336332321167,3.924266993999481 2.918044626712799,1.5093335509300232 l5.031111836433411,1.207466796040535 2.918044626712799,0.0 l3.11928927898407,-1.9118224084377289 m0.10062223300337791,0.0 l-3.11928927898407,-2.41493359208107 -4.528000354766846,0.10062223300337791 l-1.5093335509300232,-0.8049778640270233 -1.8112002313137054,-0.40248893201351166 l-1.0062223672866821,-0.8049778640270233 -0.5031111836433411,-0.7043556123971939 l-0.7043556123971939,-2.3143114149570465 0.10062223300337791,-2.5155559182167053 l0.8049778640270233,-1.71057790517807 1.9118224084377289,-1.6099557280540466 l3.2199114561080933,-1.0062223672866821 4.326756000518799,0.0 l5.131734013557434,0.8049778640270233 7.6472896337509155,0.30186669901013374 l1.6099557280540466,1.207466796040535 1.3080890476703644,2.1130669116973877 l0.40248893201351166,1.3080890476703644 -0.10062223300337791,4.125511646270752 l-0.9056001156568527,1.207466796040535 -0.7043556123971939,0.10062223300337791 l-1.1068445444107056,0.0 -4.326756000518799,-1.207466796040535 m-10.162845849990845,1.8112002313137054 l1.207466796040535,1.207466796040535 0.9056001156568527,1.6099557280540466 l0.20124446600675583,-0.5031111836433411 -1.207466796040535,-2.41493359208107 l1.4087112247943878,1.5093335509300232 m7.446045279502869,-3.42115581035614 l0.0,3.622400462627411 0.5031111836433411,0.30186669901013374 l2.41493359208107,0.8049778640270233 3.5217782855033875,0.6037333980202675 l3.8236448168754578,0.10062223300337791 0.8049778640270233,-0.7043556123971939 l1.8112002313137054,-2.8174224495887756 0.7043556123971939,-2.0124447345733643 l0.30186669901013374,-1.5093335509300232 0.10062223300337791,-5.031111836433411 l-0.5031111836433411,-1.3080890476703644 -2.3143114149570465,-2.1130669116973877 l-3.8236448168754578,-2.0124447345733643 -2.41493359208107,-0.5031111836433411 l-1.0062223672866821,0.30186669901013374 " fill="none" stroke="black" stroke-width="1" /></svg>