<?xml version="1.0" encoding="utf-8" ?>
<svg baseProfile="full" height="74.35058031231165" version="1.1" width="99.20427206903696" xmlns="http://www.w3.org/2000/svg" xmlns:ev="http://www.w3.org/2001/xml-events" xmlns:xlink="http://www.w3.org/1999/xlink"><defs /><rect fill="white" height="74.35058031231165" width="99.20427206903696" x="0" y="0" /><path d="M26.8112001568079,30.332978311926126 m-1.1068445444107056,-1.6099557280540466 l-0.7043556123971939,-3.3205336332321167 0.5031111836433411,-0.10062223300337791 l1.9118224084377289,1.4087112247943878 3.5217782855033875,1.8112002313137054 l1.4087112247943878,0.30186669901013374 m-0.30186669901013374,-0.40248893201351166 l4.528000354766846,-0.5031111836433411 5.534222722053528,0.0 l2.41493359208107,0.9056001156568527 1.1068445444107056,1.4087112247943878 l0.5031111836433411,-0.10062223300337791 0.20124446600675583,-1.0062223672866821 l2.0124447345733643,-2.41493359208107 2.0124447345733643,-1.71057790517807 l0.5031111836433411,0.5031111836433411 0.7043556123971939,4.125511646270752 l-0.20124446600675583,3.2199114561080933 0.40248893201351166,2.1130669116973877 l-0.10062223300337791,3.2199114561080933 -3.11928927898407,4.628622829914093 l-3.2199114561080933,2.716800272464752 -1.8112002313137054,0.6037333980202675 l-5.031111836433411,0.30186669901013374 -4.226133823394775,-0.40248893201351166 l-2.0124447345733643,-0.7043556123971939 -3.42115581035614,-2.918044626712799 l-2.8174224495887756,-4.628622829914093 -0.10062223300337791,-6.137956380844116 l0.30186669901013374,-1.8112002313137054 m8.754134178161621,4.427378177642822 l0.10062223300337791,0.10062223300337791 m7.043556571006775,0.30186669901013374 l-0.5031111836433411,0.10062223300337791 0.5031111836433411,0.10062223300337791 l-0.20124446600675583,-0.30186669901013374 m-3.5217782855033875,2.213689088821411 l-0.30186669901013374,2.8174224495887756 -0.8049778640270233,0.40248893201351166 l-1.1068445444107056,0.0 -2.3143114149570465,-0.7043556123971939 m3.5217782855033875,0.40248893201351166 l3.0186671018600464,0.40248893201351166 2.8174224495887756,-0.20124446600675583 m1.207466796040535,-0.20124446600675583 l12.376534938812256,-2.5155559182167053 9.860978722572327,-0.9056001156568527 l7.546667456626892,-1.4087112247943878 m-29.281070232391357,6.339200735092163 l4.427378177642822,2.6161780953407288 6.037334203720093,2.5155559182167053 l4.125511646270752,2.8174224495887756 0.8049778640270233,0.20124446600675583 " fill="none" stroke="black" stroke-width="1" /></svg>