<?xml version="1.0" encoding="utf-8" ?>
<svg baseProfile="full" height="71.53315821662545" version="1.1" width="74.04871374368668" xmlns="http://www.w3.org/2000/svg" xmlns:ev="http://www.w3.org/2001/xml-events" xmlns:xlink="http://www.w3.org/1999/xlink"><defs /><rect fill="white" height="71.53315821662545" width="74.04871374368668" x="0" y="0" /><path d="M43.41386845335364,27.213689293712378 m-2.41493359208107,-1.4087112247943878 l-2.918044626712799,-0.8049778640270233 -3.2199114561080933,0.10062223300337791 l-3.42115581035614,0.7043556123971939 -2.0124447345733643,1.0062223672866821 l-3.3205336332321167,2.918044626712799 -1.0062223672866821,2.3143114149570465 l-0.10062223300337791,3.0186671018600464 1.0062223672866821,2.918044626712799 l1.6099557280540466,2.6161780953407288 3.7230226397514343,3.5217782855033875 l2.1130669116973877,1.5093335509300232 2.41493359208107,0.6037333980202675 l4.326756000518799,0.30186669901013374 1.8112002313137054,-0.30186669901013374 l1.6099557280540466,-0.7043556123971939 1.4087112247943878,-0.9056001156568527 l1.8112002313137054,-2.6161780953407288 1.71057790517807,-3.7230226397514343 l0.5031111836433411,-1.6099557280540466 0.0,-1.5093335509300232 l-0.10062223300337791,-2.6161780953407288 -1.5093335509300232,-5.131734013557434 l-1.5093335509300232,-1.0062223672866821 -2.8174224495887756,-0.5031111836433411 m-5.936712026596069,-0.9056001156568527 l0.30186669901013374,2.8174224495887756 m-11.77280068397522,9.156623482704163 l3.42115581035614,-0.30186669901013374 m8.854756355285645,9.156623482704163 l-0.10062223300337791,-3.2199114561080933 m7.043556571006775,-8.251023292541504 l2.5155559182167053,0.40248893201351166 1.3080890476703644,-0.10062223300337791 m-11.974046230316162,-5.433600544929504 l0.10062223300337791,1.6099557280540466 " fill="none" stroke="black" stroke-width="1" /></svg>