<?xml version="1.0" encoding="utf-8" ?>
<svg baseProfile="full" height="62.9802680015564" version="1.1" width="162.6969015598297" xmlns="http://www.w3.org/2000/svg" xmlns:ev="http://www.w3.org/2001/xml-events" xmlns:xlink="http://www.w3.org/1999/xlink"><defs /><rect fill="white" height="62.9802680015564" width="162.6969015598297" x="0" y="0" /><path d="M25,26.509333550930023 m60.67520618438721,0.0 l32.702226638793945,-1.5093335509300232 10.464712381362915,0.0 m-99.31414604187012,12.980268001556396 l36.8277382850647,-0.30186669901013374 48.701162338256836,-3.924266993999481 l13.584001064300537,-0.5031111836433411 9.056000709533691,0.0 l0.0,0.5031111836433411 m-70.13369560241699,-7.144178748130798 l0.0,10.162845849990845 0.5031111836433411,0.10062223300337791 m16.502046585083008,-9.458490014076233 l0.0,8.552889823913574 m-7.546667456626892,-4.82986718416214 l-1.6099557280540466,0.0 -0.40248893201351166,0.6037333980202675 l-0.10062223300337791,2.6161780953407288 0.6037333980202675,0.40248893201351166 l2.6161780953407288,-0.30186669901013374 3.0186671018600464,-1.8112002313137054 l0.5031111836433411,-1.5093335509300232 -0.9056001156568527,-0.9056001156568527 l-2.716800272464752,-0.10062223300337791 -2.716800272464752,1.0062223672866821 l-1.4087112247943878,1.207466796040535 " fill="none" stroke="black" stroke-width="1" /></svg>