<?xml version="1.0" encoding="utf-8" ?>
<svg baseProfile="full" height="67.5082690641284" version="1.1" width="71.43253607675433" xmlns="http://www.w3.org/2000/svg" xmlns:ev="http://www.w3.org/2001/xml-events" xmlns:xlink="http://www.w3.org/1999/xlink"><defs /><rect fill="white" height="67.5082690641284" width="71.43253607675433" x="0" y="0" /><path d="M33.15040096640587,30.332978777587414 m-3.5217782855033875,0.9056001156568527 l-2.213689088821411,1.3080890476703644 -0.9056001156568527,0.9056001156568527 l-0.7043556123971939,0.9056001156568527 -0.8049778640270233,2.213689088821411 l0.40248893201351166,2.6161780953407288 2.0124447345733643,2.1130669116973877 l1.5093335509300232,0.7043556123971939 3.5217782855033875,0.5031111836433411 l3.924266993999481,0.0 1.71057790517807,-0.40248893201351166 l3.622400462627411,-2.0124447345733643 1.5093335509300232,-2.0124447345733643 l0.30186669901013374,-2.8174224495887756 -0.40248893201351166,-1.71057790517807 l-0.8049778640270233,-1.71057790517807 -1.207466796040535,-1.4087112247943878 l-1.8112002313137054,-0.9056001156568527 -3.622400462627411,-0.30186669901013374 l-1.71057790517807,0.8049778640270233 m-0.30186669901013374,5.836089253425598 l-0.10062223300337791,-0.20124446600675583 m0.40248893201351166,-0.9056001156568527 l-0.10062223300337791,-1.4087112247943878 0.5031111836433411,-1.71057790517807 m-0.9056001156568527,0.30186669901013374 l0.0,0.0 m0.30186669901013374,3.8236448168754578 l0.8049778640270233,-0.30186669901013374 4.528000354766846,0.10062223300337791 m0.40248893201351166,-1.4087112247943878 l0.6037333980202675,0.30186669901013374 0.20124446600675583,0.6037333980202675 l-1.1068445444107056,0.40248893201351166 m-2.716800272464752,-4.628622829914093 l0.0,0.0 m-10.967823266983032,1.71057790517807 l0.10062223300337791,-1.8112002313137054 0.8049778640270233,-2.1130669116973877 l1.8112002313137054,-2.0124447345733643 1.71057790517807,-1.0062223672866821 l1.6099557280540466,-0.10062223300337791 0.8049778640270233,0.40248893201351166 l0.5031111836433411,1.4087112247943878 0.0,2.5155559182167053 m-5.2323561906814575,-3.0186671018600464 l0.0,-0.9056001156568527 0.7043556123971939,-0.7043556123971939 l1.3080890476703644,-0.20124446600675583 -1.1068445444107056,0.10062223300337791 m10.364090204238892,4.125511646270752 l0.0,-0.5031111836433411 0.8049778640270233,-0.8049778640270233 l1.8112002313137054,-1.1068445444107056 2.5155559182167053,-0.8049778640270233 l1.71057790517807,0.0 0.6037333980202675,0.7043556123971939 l0.10062223300337791,2.3143114149570465 -0.9056001156568527,2.6161780953407288 m-1.3080890476703644,-5.131734013557434 l1.1068445444107056,-0.6037333980202675 0.8049778640270233,0.0 l0.10062223300337791,0.40248893201351166 m-15.395201444625854,15.294579267501831 " fill="none" stroke="black" stroke-width="1" /></svg>