<?xml version="1.0" encoding="utf-8" ?>
<svg baseProfile="full" height="1835.0" version="1.1" width="1960.0" xmlns="http://www.w3.org/2000/svg" xmlns:ev="http://www.w3.org/2001/xml-events" xmlns:xlink="http://www.w3.org/1999/xlink"><defs /><rect fill="white" height="1835.0" width="1960.0" x="0" y="0" /><path d="M820.0,615.0 m-20.0,-65.0 l-35.0,-35.0 -140.0,-85.0 l-55.0,-15.0 -165.0,0.0 l-80.0,25.0 -125.0,100.0 l-100.0,120.0 -75.0,205.0 l0.0,170.0 45.0,135.0 l100.0,175.0 115.0,140.0 l125.0,105.0 125.0,70.0 l110.0,30.0 385.0,50.0 l165.0,-5.0 195.0,-50.0 l220.0,-100.0 180.0,-125.0 l75.0,-120.0 65.0,-215.0 l5.0,-205.0 -60.0,-220.0 l-125.0,-190.0 -95.0,-95.0 l-150.0,-90.0 -130.0,-40.0 l-125.0,10.0 -135.0,55.0 l-160.0,135.0 -105.0,170.0 l-15.0,-30.0 -15.0,-215.0 l0.0,-130.0 20.0,-110.0 l60.0,-120.0 130.0,35.0 l-85.0,110.0 -35.0,85.0 l0.0,380.0 -25.0,-150.0 l10.0,-360.0 -30.0,335.0 l0.0,140.0 20.0,-35.0 l30.0,-175.0 20.0,-185.0 l0.0,-150.0 -15.0,-55.0 l-40.0,80.0 -50.0,280.0 l0.0,125.0 45.0,225.0 m15.0,975.0 l-80.0,45.0 10.0,-25.0 l30.0,0.0 35.0,80.0 l5.0,-65.0 " fill="none" stroke="black" stroke-width="1" /></svg>