<?xml version="1.0" encoding="utf-8" ?>
<svg baseProfile="full" height="88.31127623096108" version="1.1" width="85.28453353620762" xmlns="http://www.w3.org/2000/svg" xmlns:ev="http://www.w3.org/2001/xml-events" xmlns:xlink="http://www.w3.org/1999/xlink"><defs /><rect fill="white" height="88.31127623096108" width="85.28453353620762" x="0" y="0" /><path d="M40.39036733783803,40.38559499254916 m-0.42260322719812393,-1.301756203174591 l-0.7434238493442535,-0.7520675659179688 -2.672555446624756,-1.1817342042922974 l-2.9347997903823853,-0.3095756657421589 -2.7412614226341248,0.5441460758447647 l-1.8444323539733887,1.0087079554796219 -2.103506326675415,2.0577065646648407 l-1.177082285284996,2.0620132982730865 -0.7506942003965378,3.3248594403266907 l-8.435324048150505e-06,3.9486759901046753 1.2588432431221008,3.920104503631592 l1.6335771977901459,2.746279239654541 2.0074665546417236,2.1714170277118683 l4.5537179708480835,2.9627418518066406 3.164089024066925,1.1707860976457596 l3.1202399730682373,0.5529537796974182 4.290564954280853,0.000423052697442472 l3.3091366291046143,-0.8097226172685623 4.420790374279022,-2.1981169283390045 l2.863406240940094,-2.3433494567871094 2.0979559421539307,-2.6361221075057983 l1.9247202575206757,-4.197209179401398 0.6399877369403839,-3.346148729324341 l3.743745082829264e-05,-3.431229889392853 -1.1228833347558975,-3.7360048294067383 l-1.4430251717567444,-2.4258051812648773 -2.626912295818329,-2.557128667831421 l-2.3178502917289734,-1.2517154216766357 -2.558824121952057,-0.5950727313756943 l-3.5911542177200317,0.1765325665473938 -3.403046429157257,1.4491595327854156 l-1.6873864829540253,1.4651094377040863 -1.4720505475997925,2.4589650332927704 l-0.7744447886943817,-4.321481287479401 -0.4672708362340927,-4.734318256378174 l-0.08418967016041279,-5.016768574714661 0.7011786103248596,-0.260848943144083 l1.7400385439395905,0.6728694587945938 1.1226006597280502,1.1816690117120743 l0.4232320934534073,5.556248426437378 -0.04639540798962116,4.028998613357544 l-0.08358241990208626,1.8999257683753967 -0.15819856896996498,0.8254502713680267 l-0.30742956325411797,-0.1212397962808609 -1.3192123174667358,-4.960129261016846 l-0.8732084929943085,-4.7497206926345825 0.24311330169439316,-0.6000431627035141 l0.8316366374492645,0.0046321688569150865 3.7396609783172607,3.9560404419898987 l0.8858618885278702,3.6120331287384033 -0.1477388571947813,2.0843014121055603 l-0.7476212829351425,1.4417153596878052 m-3.59689861536026,6.706538200378418 l-0.9064164757728577,1.8718516826629639 -1.4688441157341003,3.2252517342567444 l-1.1520667374134064,4.2016443610191345 -0.36483198404312134,2.293330430984497 l0.24487387388944626,0.9183403849601746 0.6840500980615616,0.3683771565556526 l2.4453218281269073,-0.518370047211647 0.5261389166116714,-7.71917998790741 l-0.917755737900734,-4.03145432472229 " fill="none" stroke="black" stroke-width="1" /></svg>