<?xml version="1.0" encoding="utf-8" ?>
<svg baseProfile="full" height="85.75671689777664" version="1.1" width="84.70347695052624" xmlns="http://www.w3.org/2000/svg" xmlns:ev="http://www.w3.org/2001/xml-events" xmlns:xlink="http://www.w3.org/1999/xlink"><defs /><rect fill="white" height="85.75671689777664" width="84.70347695052624" x="0" y="0" /><path d="M41.20342159941629,33.88953943107481 m-0.2579794265329838,-1.3365694880485535 l-1.4334394037723541,-1.4590023458003998 -1.2300955504179,-0.685407742857933 l-3.199072480201721,-0.5659815669059753 -3.3300992846488953,0.4301716387271881 l-2.7476227283477783,1.5931899845600128 -1.6225861012935638,1.7632034420967102 l-1.652390956878662,3.3995774388313293 -0.7300889492034912,4.296915233135223 l-4.671811893786071e-05,4.714023768901825 1.3062290847301483,4.389188885688782 l1.6034239530563354,2.9463332891464233 1.8846805393695831,2.2976264357566833 l2.2145864367485046,1.790989339351654 5.1132988929748535,2.4932780861854553 l3.239195942878723,0.7991980016231537 4.70435231924057,0.0004430663102539256 l5.347296595573425,-1.9828033447265625 3.37869793176651,-2.351142019033432 l3.354143798351288,-3.941310942173004 1.7203931510448456,-3.5495880246162415 l0.8371783047914505,-3.398810029029846 -0.0002787226185319014,-4.207364022731781 l-0.6545644998550415,-2.769376039505005 -1.1826560646295547,-2.4316953122615814 l-2.3142166435718536,-2.785942554473877 -2.1667014062404633,-1.5267179906368256 l-3.5049861669540405,-1.2418555468320847 -3.9160126447677612,0.0002948175460915081 l-3.388690948486328,1.2348287552595139 -1.331496238708496,1.0928329080343246 l-0.7624317705631256,1.479755938053131 m0.6325394660234451,-1.8216629326343536 l0.0299699604511261,-2.6961728930473328 0.6632678955793381,-1.926095336675644 l1.328078806400299,-1.6917987167835236 1.8196113407611847,-1.0614316165447235 l1.6276802122592926,-0.18066199496388435 -2.1168866753578186,3.0618157982826233 l-1.127861812710762,1.8077102303504944 -0.7282635569572449,1.493367999792099 l-0.3251233324408531,1.0917337238788605 " fill="none" stroke="black" stroke-width="1" /></svg>