<?xml version="1.0" encoding="utf-8" ?>
<svg baseProfile="full" height="1850.0" version="1.1" width="1920.0" xmlns="http://www.w3.org/2000/svg" xmlns:ev="http://www.w3.org/2001/xml-events" xmlns:xlink="http://www.w3.org/1999/xlink"><defs /><rect fill="white" height="1850.0" width="1920.0" x="0" y="0" /><path d="M860.0,535.0 m-15.0,-70.0 l-80.0,-70.0 -130.0,-60.0 l-95.0,-20.0 -90.0,0.0 l-145.0,45.0 -130.0,105.0 l-100.0,190.0 -50.0,215.0 l5.0,380.0 15.0,70.0 l80.0,155.0 70.0,90.0 l210.0,145.0 160.0,70.0 l185.0,45.0 515.0,-5.0 l150.0,-60.0 190.0,-145.0 l155.0,-195.0 80.0,-180.0 l35.0,-135.0 20.0,-440.0 l-15.0,-85.0 -45.0,-115.0 l-65.0,-75.0 -200.0,-135.0 l-85.0,-40.0 -165.0,-15.0 l-235.0,120.0 -160.0,135.0 l-25.0,40.0 m-115.0,-145.0 l160.0,-260.0 45.0,-55.0 l50.0,-10.0 20.0,75.0 l-95.0,95.0 -55.0,85.0 l-25.0,75.0 0.0,80.0 l10.0,-5.0 " fill="none" stroke="black" stroke-width="1" /></svg>