<?xml version="1.0" encoding="utf-8" ?>
<svg baseProfile="full" height="69.9412503419444" version="1.1" width="74.16041951626539" xmlns="http://www.w3.org/2000/svg" xmlns:ev="http://www.w3.org/2001/xml-events" xmlns:xlink="http://www.w3.org/1999/xlink"><defs /><rect fill="white" height="69.9412503419444" width="74.16041951626539" x="0" y="0" /><path d="M26.4084801543504,30.293043181300163 m-1.2561996281147003,-0.4925946146249771 l-0.15228052623569965,-0.4871155321598053 0.7941583544015884,-1.032036617398262 l5.493721961975098,-2.654793858528137 4.3408191204071045,-0.6265025585889816 l4.406797289848328,0.23494411259889603 3.718641698360443,1.3368931412696838 l2.260274440050125,1.4827625453472137 1.6592812538146973,1.8199965357780457 l1.027173325419426,2.160293608903885 0.4595520719885826,2.548198103904724 l-0.09197487495839596,2.424769103527069 -0.8520114421844482,2.3317813873291016 l-1.490854024887085,2.050730735063553 -2.025444209575653,1.6547870635986328 l-2.5091031193733215,1.2081999331712723 -2.817157506942749,0.6234368309378624 l-3.0765116214752197,0.06445724051445723 -2.832244336605072,-0.5918148159980774 l-2.6402541995048523,-1.2655933201313019 -2.147059738636017,-1.8236461281776428 l-1.4879846572875977,-2.228465974330902 -0.7225227355957031,-2.4669793248176575 l-0.01704429858364165,-3.830115795135498 0.8307716250419617,-2.074734717607498 l0.9227728098630905,-1.0596182942390442 m5.808420777320862,6.581258773803711 l-0.3668396919965744,0.00269119133008644 0.14167515560984612,-0.028838878497481346 l0.5561945214867592,0.23412488400936127 -0.06605719216167927,0.1982513628900051 l-0.5415709689259529,0.18029456958174706 0.1799440011382103,-0.3435084596276283 l0.4785997048020363,0.10645067319273949 -0.066465949639678,0.4521307349205017 l-0.14226116240024567,-0.2738935500383377 0.22156953811645508,-0.26385098695755005 l0.30410241335630417,0.548056997358799 -0.20863894373178482,0.6246680393815041 l-0.06067502312362194,-0.6412383168935776 0.37088721990585327,-0.11387655511498451 l0.06180559750646353,0.5004226043820381 -0.44431034475564957,0.3135162219405174 l0.06436691619455814,-0.8366540819406509 0.5839839950203896,0.1714378409087658 l-0.14822695404291153,0.8930471539497375 -0.8098423480987549,-0.0393361272290349 l0.14386966824531555,-1.0329187661409378 0.8104760944843292,0.4377404600381851 l-0.047216927632689476,0.9411436319351196 -0.7022611051797867,0.06458635907620192 l-0.547231025993824,-0.6145080178976059 0.005671204417012632,-0.7718415558338165 l0.5172103270888329,-0.42196057736873627 0.39217129349708557,0.15758907422423363 l-0.012833571527153254,0.6234363839030266 -0.5337080359458923,0.5621001124382019 l-0.18568506464362144,-0.8750023692846298 0.6056368350982666,-0.32882489264011383 l0.25531306862831116,0.4951096326112747 -0.288254264742136,0.7208667695522308 l-0.6625763326883316,-0.024040199350565672 -0.3320985287427902,-0.6681233644485474 l0.15526183880865574,-0.6863616406917572 0.598350316286087,-0.3265726938843727 l0.30977219343185425,0.2328970655798912 0.023149417247623205,0.8440409600734711 l-0.5054213479161263,0.5777529627084732 -0.8196057379245758,-0.030846770387142897 l-0.35159215331077576,-0.7242385298013687 0.16485627740621567,-0.7442042976617813 l0.5558481439948082,-0.3519890457391739 0.2887970767915249,0.19437938928604126 l0.08134184405207634,0.9048104286193848 -0.4982615262269974,0.46771716326475143 l-0.5296291783452034,-0.052585117518901825 -0.2430213801562786,-0.6753355264663696 l0.15790745615959167,-0.37478361278772354 0.26892902329564095,-0.007168708252720535 l0.3606952726840973,0.6730537116527557 -0.12085682712495327,0.6191357225179672 l-0.5225851759314537,0.30316727235913277 -0.6769772619009018,-0.2943539060652256 l-0.2089533396065235,-0.7909346371889114 0.2185082994401455,-0.6629663705825806 l0.5971101671457291,-0.2660158835351467 0.29080767184495926,0.29035668820142746 l0.027804358396679163,0.849277451634407 -0.45049332082271576,0.6774600595235825 l-0.7638776302337646,-0.007248967885971069 -0.42996086180210114,-0.7652087509632111 l0.0722147012129426,-0.8071823418140411 0.4830051586031914,-0.5182361602783203 l0.6945965439081192,0.05576154217123985 0.45255210250616074,0.7624717801809311 l-0.08060687221586704,0.9673039615154266 -0.5785464122891426,0.5200232565402985 l-0.842345580458641,-0.15456280671060085 -0.36006420850753784,-0.8239369839429855 l0.10841131210327148,-0.838271901011467 0.521807000041008,-0.4592564329504967 l0.7288773357868195,0.1360501255840063 0.46130236238241196,0.8345700055360794 l-0.05250696558505297,0.9629768133163452 -0.52280493080616,0.5403631925582886 l-0.8379805088043213,-0.1467236876487732 -0.36509521305561066,-0.8918809145689011 l0.12418407946825027,-0.8668340742588043 0.5211631208658218,-0.43355923146009445 l0.7223492860794067,0.1414890494197607 0.42708467692136765,0.8110033720731735 l-0.06781148258596659,0.832860916852951 -0.4988725110888481,0.4976996034383774 l-0.8051430433988571,-0.08917756378650665 -0.3918647766113281,-0.7495298236608505 l0.09334816597402096,-0.7533877342939377 0.960414856672287,-0.49115125089883804 l0.9042742103338242,0.18564138561487198 0.44538065791130066,0.7528112828731537 l0.0014469222514890134,0.8655186742544174 " fill="none" stroke="black" stroke-width="1" /></svg>