<?xml version="1.0" encoding="utf-8" ?>
<svg baseProfile="full" height="2120.0" version="1.1" width="1785.0" xmlns="http://www.w3.org/2000/svg" xmlns:ev="http://www.w3.org/2001/xml-events" xmlns:xlink="http://www.w3.org/1999/xlink"><defs /><rect fill="white" height="2120.0" width="1785.0" x="0" y="0" /><path d="M535.0,540.0 m-60.0,-25.0 l0.0,-30.0 135.0,-85.0 l255.0,-60.0 205.0,-5.0 l140.0,35.0 130.0,60.0 l175.0,145.0 95.0,120.0 l70.0,135.0 55.0,155.0 l25.0,155.0 0.0,260.0 l-45.0,155.0 -125.0,225.0 l-115.0,125.0 -145.0,90.0 l-165.0,55.0 -165.0,30.0 l-170.0,15.0 -175.0,0.0 l-80.0,-15.0 -155.0,-55.0 l-140.0,-85.0 -65.0,-55.0 l-100.0,-140.0 -60.0,-155.0 l-30.0,-165.0 5.0,-265.0 l45.0,-165.0 125.0,-225.0 l90.0,-100.0 150.0,-105.0 l200.0,-75.0 m155.0,105.0 l30.0,-70.0 35.0,-15.0 l35.0,15.0 15.0,170.0 m320.0,-40.0 l50.0,-30.0 35.0,0.0 l15.0,55.0 -25.0,65.0 l60.0,20.0 m65.0,340.0 l5.0,-30.0 70.0,-15.0 l5.0,105.0 65.0,25.0 l5.0,80.0 -15.0,35.0 m-120.0,350.0 l-45.0,10.0 -160.0,-10.0 l-20.0,-30.0 -5.0,-65.0 l30.0,-15.0 50.0,195.0 m-625.0,-25.0 l0.0,55.0 35.0,40.0 l100.0,25.0 25.0,35.0 l25.0,85.0 -10.0,40.0 m-165.0,-220.0 l265.0,-105.0 m-690.0,-50.0 l-5.0,95.0 30.0,105.0 l35.0,25.0 35.0,-20.0 l0.0,-60.0 -60.0,-10.0 l-50.0,20.0 m-95.0,-525.0 l25.0,-20.0 50.0,15.0 l35.0,75.0 5.0,80.0 l-15.0,35.0 m-135.0,-5.0 l250.0,-130.0 m-40.0,-515.0 l-15.0,30.0 0.0,115.0 l30.0,30.0 25.0,0.0 l40.0,-65.0 -40.0,5.0 l-35.0,35.0 -20.0,50.0 m400.0,-595.0 l-105.0,-60.0 -115.0,-40.0 l-30.0,-30.0 -5.0,-75.0 l30.0,-25.0 90.0,-30.0 l90.0,0.0 65.0,75.0 l100.0,180.0 25.0,-10.0 l150.0,-250.0 100.0,-80.0 l95.0,-20.0 30.0,0.0 l40.0,60.0 0.0,90.0 l-30.0,50.0 -145.0,120.0 l-145.0,35.0 " fill="none" stroke="black" stroke-width="1" /></svg>