<?xml version="1.0" encoding="utf-8" ?>
<svg baseProfile="full" height="1610.0" version="1.1" width="1115.0" xmlns="http://www.w3.org/2000/svg" xmlns:ev="http://www.w3.org/2001/xml-events" xmlns:xlink="http://www.w3.org/1999/xlink"><defs /><rect fill="white" height="1610.0" width="1115.0" x="0" y="0" /><path d="M525.0,420.0 m-20.0,50.0 l20.0,1110.0 m0.0,-1095.0 l-10.0,-40.0 35.0,-35.0 l105.0,-70.0 160.0,-70.0 l185.0,-5.0 65.0,65.0 l15.0,90.0 -15.0,105.0 l-30.0,65.0 -95.0,125.0 l-115.0,60.0 -90.0,15.0 l-120.0,-5.0 -5.0,-35.0 l160.0,10.0 230.0,115.0 l60.0,70.0 30.0,85.0 l0.0,75.0 -70.0,125.0 l-235.0,250.0 -145.0,90.0 l-50.0,15.0 m-105.0,-1055.0 l-210.0,-200.0 -105.0,-15.0 l-100.0,75.0 -45.0,135.0 l0.0,85.0 10.0,50.0 l50.0,85.0 105.0,105.0 l175.0,85.0 140.0,0.0 l-25.0,-35.0 -165.0,-65.0 l-185.0,-5.0 -55.0,85.0 l-10.0,200.0 25.0,100.0 l100.0,120.0 180.0,100.0 l115.0,90.0 35.0,0.0 m-20.0,-1155.0 l-75.0,40.0 10.0,-145.0 l45.0,-110.0 m-120.0,-70.0 l-110.0,-25.0 -20.0,-35.0 m265.0,70.0 l85.0,-40.0 " fill="none" stroke="black" stroke-width="1" /></svg>