<?xml version="1.0" encoding="utf-8" ?>
<svg baseProfile="full" height="71.1477050371468" version="1.1" width="74.06062980764546" xmlns="http://www.w3.org/2000/svg" xmlns:ev="http://www.w3.org/2001/xml-events" xmlns:xlink="http://www.w3.org/1999/xlink"><defs /><rect fill="white" height="71.1477050371468" width="74.06062980764546" x="0" y="0" /><path d="M35.460901121841744,26.70654685702175 m-0.37135839462280273,1.060040146112442 l-0.052527706138789654,9.396948218345642 0.10715565644204617,4.970836937427521 m0.8740461617708206,-14.925048351287842 l3.602427840232849,-0.45459263026714325 4.154930114746094,-0.06222815718501806 l1.5365391969680786,0.3913920000195503 1.2767140567302704,0.9675807505846024 l0.7305075973272324,1.5237019956111908 0.1379833184182644,2.0934320986270905 l-0.5591654032468796,1.9431626796722412 -0.9193558245897293,1.2658436596393585 l-2.6791980862617493,1.6801992058753967 -0.1455017365515232,0.2805427275598049 l3.4148216247558594,1.1092934757471085 1.675875186920166,1.1838068068027496 l0.6712716817855835,1.055152416229248 0.14456340111792088,1.72816202044487 l-0.6878706067800522,1.5263152122497559 -1.6437073051929474,1.3909827172756195 l-2.3840492963790894,0.9506862610578537 -2.9215994477272034,0.36494798958301544 l-3.614703118801117,-0.23996075615286827 -1.9167564809322357,-0.7838756591081619 m-1.5996181964874268,-16.016417741775513 l-2.662990987300873,-0.2559485472738743 -1.6013732552528381,0.25617867708206177 l-2.40369513630867,1.165698692202568 -1.752634197473526,1.7396393418312073 l-0.8649870753288269,2.0597808063030243 -0.0066447036806494,1.344955563545227 l0.5113569274544716,0.7076822221279144 1.1396130174398422,0.4547503590583801 l2.4145999550819397,0.10330637916922569 -2.3060959577560425,2.0337964594364166 l-1.290600299835205,2.1681877970695496 -0.2607531473040581,1.5601205825805664 l0.28541112318634987,1.1857957392930984 0.8294636756181717,0.8424467593431473 l1.9681259989738464,0.8332308381795883 2.6883071660995483,0.21824853494763374 l2.3629748821258545,-0.4110971838235855 2.168235033750534,-0.9738731384277344 m-0.06891962606459856,-16.704944372177124 l-0.4267823323607445,-0.4868342727422714 -1.5949392318725586,-0.8474113792181015 l-2.7982795238494873,-0.8789356797933578 -2.1285581588745117,-0.22222505882382393 l-1.7286628484725952,0.17741864547133446 -1.0478157550096512,0.5767389759421349 l-0.4276439920067787,0.8298847079277039 0.2417869120836258,0.8716830611228943 l1.044212207198143,0.5191203206777573 2.3564352095127106,0.2350810170173645 l1.7668117582798004,-0.4251096397638321 0.6727934628725052,-0.7254844903945923 " fill="none" stroke="black" stroke-width="1" /></svg>