<?xml version="1.0" encoding="utf-8" ?>
<svg baseProfile="full" height="86.22700338206414" version="1.1" width="83.37399996817112" xmlns="http://www.w3.org/2000/svg" xmlns:ev="http://www.w3.org/2001/xml-events" xmlns:xlink="http://www.w3.org/1999/xlink"><defs /><rect fill="white" height="86.22700338206414" width="83.37399996817112" x="0" y="0" /><path d="M41.162787631074025,34.22322045234068 m-1.4539264142513275,-1.227647066116333 l-1.9833160936832428,-0.8715430647134781 -1.6854442656040192,-0.2616397850215435 l-2.102919965982437,0.00014446476598095614 -2.022385895252228,0.8095993846654892 l-1.6313351690769196,1.165933609008789 -1.5052719414234161,1.6339999437332153 l-1.8330971896648407,3.2096579670906067 -0.9582720696926117,2.70169198513031 l-0.9865699708461761,6.4216148853302 -0.0002486555968062021,4.8348987102508545 l1.1226475983858109,3.4680727124214172 1.889653354883194,2.4455606937408447 l1.7971734702587128,1.387639343738556 3.5784995555877686,1.2857991456985474 l2.1129433810710907,-0.19714459776878357 2.315486967563629,-0.500943660736084 l2.1937498450279236,0.4065825790166855 2.566162645816803,0.1325454656034708 l5.826250314712524,-0.3781737759709358 1.8279075622558594,-0.6050577014684677 l2.7439281344413757,-1.8252204358577728 1.9460637867450714,-2.1396829187870026 l1.9299839437007904,-3.6550450325012207 1.0108841955661774,-3.3353182673454285 l0.5126652121543884,-4.517926275730133 -0.0002273247628181707,-4.364177882671356 l-1.063893660902977,-3.79894882440567 -1.1435065418481827,-1.577819287776947 l-2.43825301527977,-1.8556438386440277 -3.5964086651802063,-1.3060422241687775 l-3.8843178749084473,0.0002928362118836958 -2.836197018623352,0.9994704276323318 l-2.9149606823921204,1.160176768898964 -0.7770401984453201,-0.1273530162870884 m0.7852397114038467,-0.13702991418540478 l0.30954331159591675,-2.4158236384391785 0.6140394508838654,-2.566484212875366 l1.0915791988372803,-2.175363600254059 1.4837287366390228,-1.446872353553772 l0.3005654364824295,2.04598069190979 -0.5012736096978188,4.502446353435516 m-0.916425958275795,-3.087378740310669 l0.17048968002200127,-0.7430732995271683 1.1048940569162369,-0.897117555141449 l1.9252187013626099,-0.6198088824748993 0.38884494453668594,1.2377368658781052 l-0.9615396708250046,2.220635861158371 -1.4371468126773834,1.1778240650892258 l-1.0222986340522766,0.25880929082632065 m-2.7169406414031982,8.248802423477173 l-0.19231654703617096,3.065580725669861 -0.07711786311119795,2.711321711540222 l0.06442018784582615,1.3179771602153778 0.2227453887462616,0.27306536212563515 " fill="none" stroke="black" stroke-width="1" /></svg>