<?xml version="1.0" encoding="utf-8" ?>
<svg baseProfile="full" height="1655.0" version="1.1" width="1810.0" xmlns="http://www.w3.org/2000/svg" xmlns:ev="http://www.w3.org/2001/xml-events" xmlns:xlink="http://www.w3.org/1999/xlink"><defs /><rect fill="white" height="1655.0" width="1810.0" x="0" y="0" /><path d="M815.0,385.0 m-70.0,-60.0 l-100.0,-40.0 -85.0,-20.0 l-145.0,0.0 -95.0,50.0 l-80.0,75.0 -65.0,85.0 l-50.0,105.0 -75.0,275.0 l-25.0,140.0 10.0,280.0 l50.0,115.0 80.0,80.0 l140.0,70.0 155.0,35.0 l100.0,0.0 265.0,-105.0 l75.0,0.0 200.0,140.0 l70.0,20.0 210.0,-10.0 l60.0,-30.0 55.0,-55.0 l195.0,-290.0 75.0,-220.0 l20.0,-155.0 0.0,-195.0 l-75.0,-210.0 -95.0,-110.0 l-85.0,-50.0 -75.0,-15.0 l-125.0,5.0 -155.0,45.0 l-375.0,0.0 -10.0,-35.0 m85.0,5.0 l-35.0,-5.0 50.0,-160.0 l45.0,-70.0 50.0,-50.0 l25.0,0.0 45.0,250.0 l40.0,80.0 m-75.0,-250.0 l-70.0,225.0 25.0,-180.0 l-5.0,-30.0 -25.0,0.0 l-20.0,25.0 -45.0,205.0 l-5.0,75.0 30.0,-30.0 l135.0,-230.0 -50.0,140.0 " fill="none" stroke="black" stroke-width="1" /></svg>