<?xml version="1.0" encoding="utf-8" ?>
<svg baseProfile="full" height="1170.0" version="1.1" width="1390.0" xmlns="http://www.w3.org/2000/svg" xmlns:ev="http://www.w3.org/2001/xml-events" xmlns:xlink="http://www.w3.org/1999/xlink"><defs /><rect fill="white" height="1170.0" width="1390.0" x="0" y="0" /><path d="M25,1035.0 m315.0,15.0 l640.0,95.0 115.0,-5.0 l160.0,-40.0 110.0,0.0 l-35.0,-340.0 -5.0,-25.0 l-25.0,-5.0 -690.0,-5.0 l-220.0,40.0 -125.0,40.0 l-140.0,0.0 -5.0,165.0 m480.0,-275.0 l15.0,-165.0 35.0,-90.0 l30.0,15.0 340.0,10.0 l40.0,265.0 m-435.0,-325.0 l-105.0,30.0 -190.0,100.0 l-200.0,60.0 -50.0,0.0 l50.0,20.0 85.0,105.0 l30.0,85.0 m295.0,-410.0 l-10.0,-90.0 15.0,-75.0 l25.0,-10.0 160.0,20.0 l0.0,165.0 m-70.0,-200.0 l-10.0,-95.0 m0.0,-85.0 l-45.0,60.0 " fill="none" stroke="black" stroke-width="1" /></svg>