<?xml version="1.0" encoding="utf-8" ?>
<svg baseProfile="full" height="79.54104479402304" version="1.1" width="80.46045501716435" xmlns="http://www.w3.org/2000/svg" xmlns:ev="http://www.w3.org/2001/xml-events" xmlns:xlink="http://www.w3.org/1999/xlink"><defs /><rect fill="white" height="79.54104479402304" width="80.46045501716435" x="0" y="0" /><path d="M30.162940369918942,39.1074839560315 m6.680096983909607,0.45586638152599335 l7.6444995403289795,-0.5294213443994522 7.4229896068573,0.14184101484715939 l1.6109977662563324,0.30100295320153236 1.2823881208896637,0.7734790444374084 l0.6565426290035248,1.3445296883583069 -0.04146725870668888,1.1135978996753693 l-0.6501387059688568,0.8288080245256424 -1.3361294567584991,0.6633719801902771 l-3.1589755415916443,0.5833965912461281 -12.958495616912842,0.031502353958785534 l-9.578193426132202,-1.0924579948186874 -1.6179348528385162,-0.39676111191511154 l-0.8698376268148422,-0.6283366680145264 -0.24928253144025803,-0.9544773399829865 l0.3490527719259262,-1.0892964899539948 1.0848644375801086,-0.8397127687931061 l2.458159327507019,-0.7583855837583542 5.227685570716858,-0.5313888564705849 m3.3364927768707275,2.424456477165222 l-0.03775086021050811,2.5791627168655396 0.10125117376446724,8.02257239818573 l0.7375258952379227,2.705821394920349 0.5100683867931366,0.28439007699489594 l1.2556633353233337,-0.4334830120205879 1.0901620984077454,-1.2161719053983688 l1.362205445766449,-3.623541295528412 0.5365324765443802,-4.612480103969574 l-0.27588240802288055,-3.5243457555770874 m-5.261507630348206,-4.679907858371735 l0.8550576120615005,-4.504289925098419 1.0282176733016968,-4.399142265319824 l1.031702384352684,-1.8819573521614075 0.8238526433706284,-0.6657253205776215 l0.932696983218193,0.017936016665771604 0.7742290198802948,0.8166319131851196 l0.6006431579589844,1.5435981750488281 0.3789844736456871,4.247107803821564 l-0.09872803464531898,5.569139719009399 " fill="none" stroke="black" stroke-width="1" /></svg>