<?xml version="1.0" encoding="utf-8" ?>
<svg baseProfile="full" height="1435.0" version="1.1" width="1240.0" xmlns="http://www.w3.org/2000/svg" xmlns:ev="http://www.w3.org/2001/xml-events" xmlns:xlink="http://www.w3.org/1999/xlink"><defs /><rect fill="white" height="1435.0" width="1240.0" x="0" y="0" /><path d="M1150.0,550.0 m-95.0,-165.0 l-85.0,-80.0 -130.0,-50.0 l-300.0,-10.0 -190.0,70.0 l-130.0,90.0 -80.0,110.0 l-40.0,180.0 0.0,205.0 l25.0,135.0 50.0,135.0 l70.0,95.0 65.0,50.0 l195.0,85.0 295.0,10.0 l180.0,-70.0 85.0,-50.0 l105.0,-110.0 35.0,-70.0 l10.0,-235.0 -65.0,-410.0 m-615.0,255.0 l25.0,25.0 25.0,0.0 l0.0,-65.0 25.0,60.0 l-30.0,0.0 -5.0,25.0 l15.0,10.0 m20.0,-170.0 l-25.0,30.0 0.0,25.0 l-5.0,-140.0 0.0,-180.0 l25.0,-25.0 m-30.0,415.0 l410.0,270.0 m-600.0,-760.0 l-30.0,-100.0 -40.0,-55.0 l-50.0,-30.0 -150.0,-30.0 l-80.0,60.0 -10.0,245.0 l85.0,100.0 70.0,40.0 " fill="none" stroke="black" stroke-width="1" /></svg>