<?xml version="1.0" encoding="utf-8" ?>
<svg baseProfile="full" height="73.25254626386595" version="1.1" width="72.96325042843819" xmlns="http://www.w3.org/2000/svg" xmlns:ev="http://www.w3.org/2001/xml-events" xmlns:xlink="http://www.w3.org/1999/xlink"><defs /><rect fill="white" height="73.25254626386595" width="72.96325042843819" x="0" y="0" /><path d="M45.843843035399914,31.24400201253593 m-1.949368566274643,-3.375379741191864 l-1.6096757352352142,-1.7371439933776855 -2.14491069316864,-1.0332462191581726 l-6.831862926483154,-0.09823205880820751 -2.854906916618347,1.287531703710556 l-1.964976191520691,1.5292070806026459 -2.124372273683548,2.7476486563682556 l-0.9590600430965424,2.4598385393619537 -0.40470968931913376,3.4397077560424805 l0.49115516245365143,3.618600368499756 0.7190145552158356,1.6359901428222656 l1.2736444175243378,1.8039628863334656 2.674115002155304,2.343667447566986 l2.7996227145195007,1.4222460985183716 4.103986620903015,0.9635444730520248 l3.6927729845046997,0.0006011109871906228 2.4811455607414246,-0.9552326053380966 l2.640942931175232,-2.339607924222946 1.3377134501934052,-2.3278264701366425 l0.7491370290517807,-3.8190168142318726 -1.238190084695816,-8.426965475082397 m-10.17777681350708,3.9495551586151123 l-0.43649550527334213,0.6486103683710098 0.017182098235934973,0.3756771981716156 l0.14367271214723587,-0.5231164023280144 -0.2921525575220585,-0.49897339195013046 l-0.277838334441185,0.4342508688569069 0.30858665704727173,-0.3503204509615898 l-0.1393221877515316,-0.21020328626036644 -0.17421266064047813,0.43691132217645645 l0.13003421016037464,-0.8912999182939529 m0.8981581032276154,0.716027170419693 l-0.12025201693177223,-5.478678345680237 -0.32427437603473663,-1.3634328544139862 m0.8684749901294708,7.849646806716919 l3.692953586578369,1.8137018382549286 3.3169326186180115,1.6901016235351562 m-8.942349553108215,-8.20999562740326 l-1.7217031121253967,-0.10802761651575565 -1.4190642535686493,-0.10382914915680885 l-3.762255907058716,-0.6648308783769608 -1.0022227466106415,-0.4786311462521553 l-1.56527578830719,-3.2776442170143127 2.7756622433662415,2.2938966751098633 l2.464315891265869,3.207126259803772 2.1301260590553284,2.6582852005958557 " fill="none" stroke="black" stroke-width="1" /></svg>