<?xml version="1.0" encoding="utf-8" ?>
<svg baseProfile="full" height="67.26592031038308" version="1.1" width="77.6213061902672" xmlns="http://www.w3.org/2000/svg" xmlns:ev="http://www.w3.org/2001/xml-events" xmlns:xlink="http://www.w3.org/1999/xlink"><defs /><rect fill="white" height="67.26592031038308" width="77.6213061902672" x="0" y="0" /><path d="M26.77475355133538,40.754484950666665 m0.07340848445892334,1.5114353597164154 l1.9254614412784576,-0.24392439052462578 0.9787487983703613,-0.867966040968895 l0.2519950270652771,-1.409045159816742 -0.00032363652280764654,-1.4459283649921417 l-0.536266453564167,-0.5373160168528557 -1.1264240741729736,0.000549504256923683 l-1.627877652645111,0.9084301441907883 -0.5456813424825668,0.9447134286165237 l0.05170176271349192,0.8108904957771301 m8.262197375297546,-0.987960621714592 l0.04120729397982359,1.0309785604476929 0.7855457812547684,1.340743750333786 l0.6218527257442474,0.2837681397795677 1.0104772448539734,-0.332072377204895 l0.5805093050003052,-0.9972488135099411 -0.00013690771993424278,-1.105530858039856 l-0.6428724527359009,-0.48047516494989395 -1.4908482134342194,-0.11159234680235386 l-0.7629818469285965,0.8309964090585709 m7.232903838157654,-0.33828169107437134 l-0.22489342838525772,1.0523100942373276 0.6376289576292038,1.1377780139446259 l1.0386231541633606,0.4360930621623993 0.5044784024357796,-0.34834466874599457 l0.2652820758521557,-0.8661238849163055 -0.21310633048415184,-0.9964355081319809 l-0.6375258415937424,-0.4719160869717598 -1.0391713678836823,0.16214488074183464 l-0.48370886594057083,0.7899731397628784 m5.7053691148757935,-0.6159419193863869 l-0.27393873780965805,0.3292788565158844 0.4911027103662491,1.2407965958118439 l1.2805061042308807,0.1400451920926571 0.45747004449367523,-0.520520880818367 l-0.0002459434290358331,-1.209936961531639 -1.1791152507066727,-0.511549636721611 l-1.175449937582016,0.49702152609825134 -0.43694276362657547,0.7009298354387283 m-18.660829067230225,-1.6709034144878387 l3.2255512475967407,-0.04590504802763462 5.635265111923218,-0.38260478526353836 l7.376614809036255,-0.36256931722164154 5.2028292417526245,-0.21413972601294518 l3.187427818775177,-0.1325645763427019 0.08073488250374794,-4.233640432357788 l-0.740492194890976,-4.999816715717316 -10.375539064407349,0.0027251962455920875 l-10.95140814781189,0.6874208152294159 -4.653887450695038,1.1476415395736694 l-0.8499041944742203,0.7702869176864624 -0.05007513798773289,6.095461845397949 l0.47822121530771255,2.941991090774536 0.7351022213697433,1.0361167788505554 m8.493428826332092,-8.963000178337097 l-0.6847017258405685,-0.9604179859161377 -1.8997922539710999,-6.221332550048828 " fill="none" stroke="black" stroke-width="1" /></svg>