<?xml version="1.0" encoding="utf-8" ?>
<svg baseProfile="full" height="935.0" version="1.1" width="1760.0" xmlns="http://www.w3.org/2000/svg" xmlns:ev="http://www.w3.org/2001/xml-events" xmlns:xlink="http://www.w3.org/1999/xlink"><defs /><rect fill="white" height="935.0" width="1760.0" x="0" y="0" /><path d="M255.0,810.0 m5.0,75.0 l75.0,5.0 45.0,-40.0 l55.0,-115.0 5.0,-70.0 l-25.0,-35.0 -80.0,-45.0 l-65.0,5.0 -65.0,135.0 l-5.0,25.0 25.0,25.0 m415.0,-65.0 l-30.0,40.0 0.0,90.0 l30.0,15.0 85.0,0.0 l25.0,-45.0 5.0,-75.0 l-60.0,-30.0 -80.0,5.0 m330.0,10.0 l-15.0,50.0 10.0,105.0 l60.0,35.0 100.0,-5.0 l35.0,-75.0 0.0,-90.0 l-15.0,-35.0 -50.0,-25.0 l-80.0,5.0 -5.0,15.0 m455.0,5.0 l-40.0,65.0 0.0,80.0 l35.0,30.0 50.0,10.0 l60.0,0.0 40.0,-70.0 l5.0,-65.0 -35.0,-60.0 l-45.0,-30.0 -70.0,0.0 l-25.0,35.0 m150.0,-20.0 l-870.0,0.0 -310.0,10.0 l-75.0,20.0 -235.0,-5.0 l-50.0,-590.0 145.0,0.0 l470.0,-55.0 480.0,-35.0 l615.0,10.0 -25.0,15.0 l-20.0,70.0 -55.0,375.0 l-10.0,210.0 " fill="none" stroke="black" stroke-width="1" /></svg>