<?xml version="1.0" encoding="utf-8" ?>
<svg baseProfile="full" height="3135.0" version="1.1" width="3200.0" xmlns="http://www.w3.org/2000/svg" xmlns:ev="http://www.w3.org/2001/xml-events" xmlns:xlink="http://www.w3.org/1999/xlink"><defs /><rect fill="white" height="3135.0" width="3200.0" x="0" y="0" /><path d="M170.0,1295.0 m75.0,-25.0 l560.0,-10.0 590.0,-85.0 l1155.0,0.0 480.0,145.0 l95.0,135.0 40.0,95.0 l10.0,85.0 -80.0,110.0 l-75.0,55.0 -95.0,40.0 l-255.0,40.0 -435.0,0.0 l-60.0,15.0 -320.0,10.0 l-985.0,5.0 -680.0,0.0 l-90.0,-35.0 -50.0,-90.0 l-25.0,-175.0 0.0,-130.0 l80.0,-130.0 95.0,-20.0 m955.0,-260.0 l225.0,-285.0 250.0,-195.0 l100.0,-110.0 140.0,-115.0 l195.0,-150.0 110.0,-65.0 l140.0,235.0 60.0,225.0 l10.0,390.0 -10.0,80.0 l-45.0,115.0 -5.0,-60.0 l25.0,-170.0 0.0,-695.0 l20.0,-190.0 -245.0,-55.0 l-85.0,5.0 -80.0,50.0 l-65.0,75.0 -70.0,130.0 l-70.0,435.0 -100.0,360.0 m-35.0,830.0 l-260.0,430.0 -125.0,420.0 l-20.0,145.0 5.0,140.0 l65.0,65.0 70.0,0.0 l255.0,-90.0 290.0,-170.0 l55.0,-65.0 70.0,-110.0 l125.0,-335.0 60.0,-440.0 " fill="none" stroke="black" stroke-width="1" /></svg>