<?xml version="1.0" encoding="utf-8" ?>
<svg baseProfile="full" height="119.31771442294121" version="1.1" width="120.16433468088508" xmlns="http://www.w3.org/2000/svg" xmlns:ev="http://www.w3.org/2001/xml-events" xmlns:xlink="http://www.w3.org/1999/xlink"><defs /><rect fill="white" height="119.31771442294121" width="120.16433468088508" x="0" y="0" /><path d="M30.42387882247567,54.583296653054276 m1.657189130783081,-0.6085729598999023 l12.07756757736206,-0.12495200149714947 12.292089462280273,-1.1032771319150925 l31.693148612976074,-0.1734529435634613 5.940513014793396,0.9995659440755844 l0.6211456656455994,0.6374974548816681 0.45880239456892014,1.7701758444309235 l-0.07996974512934685,3.004691004753113 -0.6339747458696365,1.9291587173938751 l-1.7345082759857178,2.5457963347434998 -1.7171895503997803,1.4675384759902954 l-2.328803688287735,1.163170263171196 -8.195342421531677,1.8338243663311005 l-7.977824807167053,0.778627023100853 -13.513883352279663,0.00021901150830672123 l-19.767731428146362,-0.6649915874004364 -5.624372959136963,-0.918542742729187 l-6.486312747001648,-2.3271535336971283 -1.649562269449234,-1.9533757865428925 l-0.4548586905002594,-1.738438904285431 0.3672920912504196,-1.7579440772533417 l1.2137292325496674,-1.5904946625232697 2.6610812544822693,-1.7457154393196106 m22.696847915649414,-3.5481715202331543 l-1.1451095342636108,-6.452003717422485 -0.48375051468610764,-5.957571864128113 l0.06735243368893862,-5.146394371986389 0.9514822065830231,-4.405357837677002 l1.1561866849660873,-2.433473765850067 1.3762985169887543,-1.6466382145881653 l1.6132424771785736,-1.0179458558559418 1.716010570526123,-0.3990921750664711 l2.6393520832061768,0.42247213423252106 1.8018577992916107,1.251453161239624 l2.215070277452469,2.8612223267555237 1.7337077856063843,4.374173879623413 l0.8786169439554214,5.125244855880737 0.08837487548589706,8.456826210021973 l-0.08612752892076969,4.515251815319061 m-11.392077207565308,14.88911509513855 l-0.8859743922948837,5.475392937660217 -0.9733759611845016,8.272356986999512 l0.0001518181488791015,6.180326342582703 0.608135461807251,2.8414353728294373 l0.9772439301013947,2.0501796901226044 1.2353648245334625,1.4304399490356445 l1.4697514474391937,0.8402359485626221 2.616943120956421,0.3315877169370651 l2.133604884147644,-0.8172410726547241 1.9143076241016388,-1.8279297649860382 l2.418873608112335,-4.285958707332611 1.7873787879943848,-6.31352424621582 l0.7423935830593109,-6.827152967453003 -0.1650342345237732,-5.211595892906189 l-0.9740559011697769,-3.644309341907501 " fill="none" stroke="black" stroke-width="1" /></svg>