<?xml version="1.0" encoding="utf-8" ?>
<svg baseProfile="full" height="70.74145086109638" version="1.1" width="81.17275273427367" xmlns="http://www.w3.org/2000/svg" xmlns:ev="http://www.w3.org/2001/xml-events" xmlns:xlink="http://www.w3.org/1999/xlink"><defs /><rect fill="white" height="70.74145086109638" width="81.17275273427367" x="0" y="0" /><path d="M51.52601420879364,26.075735026970506 m-4.598655700683594,-0.14544703997671604 l-6.49542510509491,0.8578071743249893 -9.015599489212036,2.952609062194824 l-3.3109277486801147,1.89226433634758 -2.197757810354233,2.2676655650138855 l-0.907648354768753,2.4435916543006897 0.15818703919649124,3.5895320773124695 l1.4317385852336884,2.108849287033081 2.6457521319389343,1.7705783247947693 l4.85759824514389,1.5752778947353363 7.838025689125061,0.35298749804496765 l4.593618214130402,-0.8291369676589966 4.302420914173126,-1.755068451166153 l2.427420914173126,-1.764584481716156 1.666950136423111,-2.102898210287094 l0.9883853048086166,-2.5265783071517944 0.2626555599272251,-2.9023897647857666 l-0.45698024332523346,-2.622798979282379 -1.189405396580696,-2.2827012836933136 l-1.7659388482570648,-1.9285176694393158 -2.101445645093918,-1.3153621554374695 l-2.2685332596302032,-0.7114145904779434 m-10.525267124176025,8.676599860191345 l-0.21348940208554268,0.2800106629729271 0.2854701317846775,0.5035791173577309 l0.4954005032777786,-0.15778377652168274 -0.23769715800881386,-0.556303970515728 l-0.33496785908937454,0.38600776344537735 0.2116292342543602,-0.338662751019001 l-0.21830763667821884,0.0013679952826350927 -0.11700754053890705,0.3416752442717552 l0.3207022696733475,-0.42976249009370804 -0.15978679060935974,0.02687090542167425 l-0.14804516918957233,0.27357397601008415 0.24884536862373352,-0.3806479275226593 l-0.058507006615400314,0.04667552188038826 -0.09224966168403625,0.17593741416931152 m0.055203442461788654,-0.29328014701604843 l-0.04675314296036959,-5.593641996383667 -0.35326603800058365,-2.5267335772514343 " fill="none" stroke="black" stroke-width="1" /></svg>