<?xml version="1.0" encoding="utf-8" ?>
<svg baseProfile="full" height="1570.0" version="1.1" width="1395.0" xmlns="http://www.w3.org/2000/svg" xmlns:ev="http://www.w3.org/2001/xml-events" xmlns:xlink="http://www.w3.org/1999/xlink"><defs /><rect fill="white" height="1570.0" width="1395.0" x="0" y="0" /><path d="M1290.0,470.0 m-230.0,-5.0 l-270.0,100.0 -395.0,200.0 l-125.0,85.0 -165.0,180.0 l-65.0,120.0 -15.0,125.0 l25.0,20.0 250.0,-135.0 l380.0,-155.0 415.0,-235.0 l215.0,-140.0 50.0,-65.0 l10.0,-75.0 -45.0,-85.0 l-35.0,-20.0 -45.0,0.0 m-650.0,280.0 l-45.0,-80.0 -20.0,-150.0 l15.0,-410.0 255.0,225.0 l60.0,70.0 40.0,140.0 l5.0,145.0 m-275.0,355.0 l30.0,240.0 50.0,215.0 l65.0,105.0 55.0,25.0 l-5.0,-300.0 15.0,-125.0 l105.0,-235.0 m215.0,-340.0 l-55.0,10.0 -35.0,45.0 l5.0,85.0 30.0,5.0 l20.0,-35.0 0.0,-40.0 " fill="none" stroke="black" stroke-width="1" /></svg>