<?xml version="1.0" encoding="utf-8" ?>
<svg baseProfile="full" height="65.81677913665771" version="1.1" width="84.47666250169277" xmlns="http://www.w3.org/2000/svg" xmlns:ev="http://www.w3.org/2001/xml-events" xmlns:xlink="http://www.w3.org/1999/xlink"><defs /><rect fill="white" height="65.81677913665771" width="84.47666250169277" x="0" y="0" /><path d="M39.16324603604153,27.70764615153894 m0.8455859869718552,0.4857882857322693 l4.972783029079437,0.7889944314956665 0.5141351372003555,0.19146651029586792 l0.06380065809935331,0.4112411290407181 -0.7535888999700546,0.6180921941995621 l-1.9537235796451569,0.7602997124195099 -2.8800636529922485,-0.11974090710282326 m1.0533593595027924,0.5215445160865784 l-0.03369848942384124,4.736149907112122 m1.4817433059215546,-4.7366416454315186 l0.12574522756040096,2.1170681715011597 0.17310192808508873,2.770514488220215 l-0.039440859109163284,2.1064692735671997 -0.31979601830244064,1.2587246298789978 l-0.4307425394654274,0.5038375779986382 -1.4360566437244415,0.18177291378378868 l-1.0234951972961426,-0.9705214947462082 m3.3954089879989624,-5.072681307792664 l0.6639030575752258,0.958750918507576 1.1193516105413437,1.9997420907020569 l0.5536932870745659,1.5137283504009247 -0.3186867758631706,0.6308943033218384 l-1.2887018918991089,0.4617055878043175 -2.284739464521408,0.025239812675863504 m-0.1669692061841488,-7.204887866973877 l-3.2702961564064026,-3.0536052584648132 -2.462446242570877,-2.121259719133377 l-1.67758509516716,-1.1002267152071 -2.2263461351394653,-0.9608210623264313 l-2.2509929537773132,-0.4092849791049957 -2.183426320552826,0.43355025351047516 l-1.2959949672222137,0.969758927822113 -0.6568574160337448,1.3376452028751373 l-0.14733318239450455,2.6136431097984314 0.8407913148403168,1.9575811922550201 l2.560555338859558,2.563970685005188 6.031431555747986,3.1552213430404663 l3.30016165971756,0.806688666343689 m5.728175044059753,-4.7745490074157715 l1.8859151005744934,-2.224855422973633 2.175661474466324,-1.796199232339859 l3.008122742176056,-1.8120291829109192 2.9770761728286743,-1.064024195075035 l2.4518902599811554,-0.1797877624630928 1.8611697852611542,0.7916554808616638 l1.2930233776569366,1.9632743299007416 0.33781275153160095,2.8089314699172974 l-1.0143669694662094,3.0240949988365173 -1.2348809838294983,1.588137447834015 l-2.6251184940338135,1.8383724987506866 -3.61592561006546,1.3004858791828156 l-4.105648398399353,0.5152124539017677 -2.3653391003608704,-0.3236909583210945 l-2.2185488045215607,-1.1766515672206879 -1.383671909570694,-0.9732463955879211 m-1.3876637816429138,-8.551575541496277 l-4.134051203727722,-0.8677411079406738 -4.8475682735443115,-0.8257114142179489 l-3.177582621574402,-0.22087909281253815 -2.366296350955963,0.3978632763028145 " fill="none" stroke="black" stroke-width="1" /></svg>