<?xml version="1.0" encoding="utf-8" ?>
<svg baseProfile="full" height="1125.0" version="1.1" width="1370.0" xmlns="http://www.w3.org/2000/svg" xmlns:ev="http://www.w3.org/2001/xml-events" xmlns:xlink="http://www.w3.org/1999/xlink"><defs /><rect fill="white" height="1125.0" width="1370.0" x="0" y="0" /><path d="M225.0,390.0 m40.0,20.0 l245.0,45.0 55.0,25.0 l5.0,30.0 -110.0,75.0 l-95.0,120.0 -30.0,65.0 m160.0,15.0 l0.0,0.0 m0.0,-20.0 l10.0,55.0 30.0,0.0 m460.0,-360.0 l-150.0,85.0 -90.0,125.0 l-25.0,165.0 10.0,35.0 l30.0,0.0 135.0,-85.0 l85.0,-115.0 5.0,-130.0 l-40.0,-70.0 -30.0,-5.0 m265.0,135.0 l-50.0,20.0 -15.0,35.0 l-45.0,210.0 -5.0,175.0 l10.0,35.0 30.0,25.0 l40.0,0.0 40.0,-95.0 l10.0,-485.0 m-130.0,-285.0 l-235.0,-100.0 -210.0,-30.0 l-250.0,10.0 -95.0,30.0 l-105.0,60.0 -80.0,80.0 l-20.0,40.0 -55.0,210.0 l5.0,160.0 105.0,180.0 l85.0,65.0 100.0,50.0 l220.0,35.0 590.0,5.0 l80.0,-30.0 70.0,-55.0 l60.0,-115.0 5.0,-210.0 l-85.0,-360.0 -180.0,-215.0 l-55.0,-20.0 -75.0,0.0 l-55.0,30.0 " fill="none" stroke="black" stroke-width="1" /></svg>