<?xml version="1.0" encoding="utf-8" ?>
<svg baseProfile="full" height="935.0" version="1.1" width="1000.0" xmlns="http://www.w3.org/2000/svg" xmlns:ev="http://www.w3.org/2001/xml-events" xmlns:xlink="http://www.w3.org/1999/xlink"><defs /><rect fill="white" height="935.0" width="1000.0" x="0" y="0" /><path d="M630.0,180.0 m-155.0,-35.0 l-140.0,20.0 -75.0,35.0 l-150.0,130.0 -65.0,90.0 l-20.0,90.0 45.0,180.0 l65.0,85.0 125.0,95.0 l150.0,40.0 220.0,-10.0 l150.0,-70.0 125.0,-155.0 l30.0,-130.0 -5.0,-85.0 l-40.0,-120.0 -50.0,-70.0 l-75.0,-60.0 -130.0,-40.0 m-270.0,-30.0 l-50.0,-90.0 -40.0,-20.0 l-145.0,15.0 -10.0,45.0 l30.0,65.0 25.0,15.0 l150.0,5.0 40.0,-30.0 l-10.0,-80.0 m100.0,20.0 l25.0,15.0 120.0,10.0 l-15.0,-25.0 -35.0,-5.0 l-120.0,5.0 m355.0,-30.0 l-70.0,-10.0 -20.0,20.0 l-5.0,45.0 25.0,45.0 l115.0,25.0 145.0,-20.0 l-20.0,-5.0 -30.0,-75.0 l-50.0,-40.0 -60.0,-15.0 l-25.0,10.0 m-230.0,300.0 l-5.0,230.0 m45.0,-245.0 l-50.0,30.0 m15.0,0.0 l-15.0,5.0 m10.0,215.0 l240.0,5.0 " fill="none" stroke="black" stroke-width="1" /></svg>