<?xml version="1.0" encoding="utf-8" ?>
<svg baseProfile="full" height="69.38285486306995" version="1.1" width="70.17341022845358" xmlns="http://www.w3.org/2000/svg" xmlns:ev="http://www.w3.org/2001/xml-events" xmlns:xlink="http://www.w3.org/1999/xlink"><defs /><rect fill="white" height="69.38285486306995" width="70.17341022845358" x="0" y="0" /><path d="M36.97935089468956,27.05307547468692 m-3.1664088368415833,-0.7282254844903946 l-3.1925684213638306,0.12141291983425617 -1.6800564527511597,0.6370685249567032 l-2.1732814610004425,1.8781432509422302 -1.024285927414894,1.6414222121238708 l-0.7427497953176498,3.0246570706367493 0.24301841855049133,4.219072163105011 l1.7279371619224548,3.1163352727890015 2.2074702382087708,1.8716336786746979 l2.663463056087494,1.1193951964378357 3.0203527212142944,0.42886458337306976 l3.9941924810409546,-0.2916381135582924 2.2503098845481873,-0.996830090880394 l1.9335296750068665,-1.6844725608825684 1.3980735838413239,-2.295907288789749 l0.6843849271535873,-2.8281116485595703 0.05067808087915182,-3.0198505520820618 l-0.667119175195694,-2.4931758642196655 -1.3252010941505432,-2.230883687734604 l-1.7643636465072632,-1.7453670501708984 -2.1077923476696014,-1.1790227144956589 l-2.391710579395294,-0.5852912738919258 -2.4983884394168854,-0.032304017804563046 l-2.0503386855125427,0.6026330962777138 m1.3016709685325623,1.9648565351963043 l-0.06363523192703724,1.782534420490265 0.04690368194133043,3.645504415035248 l2.5730815529823303,0.20535925403237343 2.638026177883148,-0.4698091372847557 m-7.4456024169921875,-3.6742225289344788 l-0.04733712412416935,-0.6840693950653076 0.5597953125834465,-1.0987645387649536 l0.7681379467248917,-0.7638665288686752 1.5575456619262695,-0.444701723754406 l1.7411693930625916,0.20111681893467903 1.2123291194438934,0.9814774990081787 l0.6727391481399536,1.2861301004886627 0.255795381963253,1.5620015561580658 l-0.2562371455132961,1.484963744878769 -1.053166463971138,1.1282236874103546 l-1.7552749812602997,0.6492525339126587 -2.7154016494750977,-0.03028251463547349 l-1.7743198573589325,-0.7744175940752029 -1.1274517327547073,-1.2903867661952972 l-0.23954598233103752,-1.5214172005653381 0.7765168696641922,-1.3150376081466675 l1.741155982017517,-0.9564802795648575 2.154393494129181,-0.25827331468462944 m-1.3352295756340027,3.895479142665863 l-0.08173312060534954,0.7440271228551865 0.027311528101563454,1.245148852467537 l0.5540810897946358,0.26217587292194366 0.4504789412021637,-1.0402252525091171 l-0.17880162224173546,-0.49472320824861526 " fill="none" stroke="black" stroke-width="1" /></svg>