<?xml version="1.0" encoding="utf-8" ?>
<svg baseProfile="full" height="84.79426933452487" version="1.1" width="86.44969049841166" xmlns="http://www.w3.org/2000/svg" xmlns:ev="http://www.w3.org/2001/xml-events" xmlns:xlink="http://www.w3.org/1999/xlink"><defs /><rect fill="white" height="84.79426933452487" width="86.44969049841166" x="0" y="0" /><path d="M25.325778275728226,59.17227408848703 m0.34688837826251984,-6.731358170509338 l-0.6726666539907455,-7.569628953933716 3.696986436843872,-0.07561608217656612 l17.506755590438843,0.6307481229305267 14.364726543426514,0.20107485353946686 l0.38944151252508163,7.1529221534729 0.4917804151773453,6.744241714477539 l-5.263105630874634,0.14467572793364525 -10.678753852844238,0.08682264015078545 l-16.328293085098267,-0.0712692178785801 -3.4123316407203674,0.10938245803117752 m5.103492736816406,-16.03035569190979 l-0.013368717627599835,-1.9398380815982819 0.3180122375488281,-4.780404269695282 l9.971844553947449,-0.688110813498497 12.69494891166687,-0.607522539794445 l0.13025700114667416,7.993625998497009 -0.1010277308523655,2.6124170422554016 m-18.57842206954956,-10.525428056716919 l-0.06176659371703863,-4.004618525505066 -0.30996792018413544,-3.318069577217102 l8.583916425704956,0.2942613512277603 6.647197604179382,0.35195741802453995 l-0.008458615047857165,7.609350085258484 -0.17584353685379028,1.4809751510620117 m-10.569206476211548,-9.735110998153687 l-0.06713469512760639,-3.3713632822036743 3.085838556289673,-0.136034544557333 l4.427341818809509,0.4532848298549652 0.031188884750008583,5.466657876968384 l-0.08328818716108799,0.7100339978933334 m-7.709856629371643,-2.4172329902648926 l-0.032950472086668015,-2.314831465482712 0.44345442205667496,-1.2995952367782593 l2.009858191013336,0.2519064396619797 0.5054397508502007,0.36376308649778366 l-0.08093495853245258,4.641128778457642 m-5.690222382545471,2.490422874689102 l-0.1259253453463316,-0.33736974000930786 0.5077642574906349,-0.7393015176057816 l0.8888900279998779,-0.500909797847271 0.7737709581851959,0.8951006829738617 l0.3724304214119911,0.7245323807001114 0.44022995978593826,0.900980606675148 l0.6154533475637436,0.7977770268917084 1.031341701745987,0.5028083920478821 l1.4659498631954193,-0.034765738528221846 1.6884253919124603,-1.0600627958774567 l1.2545482814311981,0.41758764535188675 1.1129452288150787,0.16237320378422737 l1.1493787914514542,0.07572265807539225 1.3983899354934692,-0.1788974553346634 l1.3610795140266418,-0.07150569930672646 0.6598339974880219,-0.31775880604982376 m-16.57911777496338,4.7453755140304565 l2.8323933482170105,-0.2652537263929844 3.026181161403656,-0.3333773836493492 l3.0524468421936035,0.23022986948490143 2.8617697954177856,-0.19249284639954567 l2.3240722715854645,-0.18079068511724472 2.1971122920513153,-0.14201344922184944 l2.1806009113788605,-0.2556817792356014 2.3056037724018097,0.07679445669054985 m-18.187389373779297,2.4888600409030914 l3.617607057094574,-0.45944441109895706 3.9546382427215576,-0.25506511330604553 l3.9114215970039368,-0.20987654104828835 " fill="none" stroke="black" stroke-width="1" /></svg>