<?xml version="1.0" encoding="utf-8" ?>
<svg baseProfile="full" height="2450.0" version="1.1" width="2055.0" xmlns="http://www.w3.org/2000/svg" xmlns:ev="http://www.w3.org/2001/xml-events" xmlns:xlink="http://www.w3.org/1999/xlink"><defs /><rect fill="white" height="2450.0" width="2055.0" x="0" y="0" /><path d="M30.0,2270.0 m10.0,-325.0 l-15.0,-260.0 35.0,-15.0 l1350.0,-5.0 220.0,15.0 l215.0,25.0 60.0,25.0 l45.0,55.0 45.0,270.0 l35.0,370.0 m-1685.0,-760.0 l-25.0,-75.0 25.0,-240.0 l0.0,-185.0 40.0,-45.0 l665.0,-30.0 415.0,20.0 l55.0,25.0 35.0,60.0 l20.0,325.0 0.0,120.0 l-20.0,105.0 m-950.0,-635.0 l5.0,-175.0 50.0,-230.0 l30.0,-50.0 50.0,-25.0 l475.0,40.0 60.0,35.0 l20.0,25.0 35.0,210.0 l10.0,130.0 -15.0,35.0 m-495.0,-550.0 l0.0,-80.0 35.0,-45.0 l315.0,25.0 50.0,40.0 l5.0,25.0 -35.0,130.0 m-225.0,-215.0 l-35.0,-170.0 m-15.0,5.0 l-70.0,-35.0 -25.0,-35.0 l0.0,-65.0 75.0,-20.0 l55.0,25.0 55.0,55.0 l-30.0,80.0 m185.0,170.0 l15.0,-100.0 -10.0,-50.0 m-15.0,-10.0 l-35.0,-20.0 -35.0,-55.0 l-15.0,-65.0 25.0,-65.0 l20.0,-30.0 55.0,-25.0 l60.0,15.0 20.0,25.0 l35.0,55.0 -5.0,45.0 l-105.0,150.0 " fill="none" stroke="black" stroke-width="1" /></svg>