<?xml version="1.0" encoding="utf-8" ?>
<svg baseProfile="full" height="1850.0" version="1.1" width="1955.0" xmlns="http://www.w3.org/2000/svg" xmlns:ev="http://www.w3.org/2001/xml-events" xmlns:xlink="http://www.w3.org/1999/xlink"><defs /><rect fill="white" height="1850.0" width="1955.0" x="0" y="0" /><path d="M780.0,740.0 m-300.0,80.0 l-195.0,105.0 -140.0,145.0 l-25.0,45.0 -20.0,105.0 l15.0,75.0 135.0,90.0 l115.0,40.0 330.0,65.0 l635.0,-15.0 320.0,-50.0 l165.0,-75.0 25.0,-25.0 l35.0,-90.0 5.0,-90.0 l-45.0,-75.0 -75.0,-70.0 l-165.0,-85.0 -230.0,-55.0 l-245.0,-90.0 -260.0,-70.0 l-105.0,0.0 m-670.0,565.0 l-60.0,560.0 m0.0,0.0 l1880.0,-5.0 25.0,-240.0 l-15.0,-375.0 m-1445.0,60.0 l-10.0,-605.0 -10.0,-80.0 l-45.0,-130.0 25.0,-30.0 l75.0,-15.0 35.0,40.0 l20.0,115.0 0.0,495.0 l20.0,140.0 m325.0,40.0 l95.0,0.0 -20.0,-285.0 l60.0,-275.0 5.0,-90.0 l0.0,-195.0 -25.0,-5.0 l-75.0,40.0 -60.0,80.0 l5.0,415.0 25.0,210.0 l-10.0,60.0 m-455.0,-800.0 l-20.0,-25.0 -40.0,-180.0 l10.0,-130.0 35.0,65.0 l0.0,140.0 45.0,175.0 m440.0,15.0 l40.0,-270.0 70.0,-155.0 l15.0,25.0 0.0,55.0 l-55.0,185.0 -10.0,100.0 " fill="none" stroke="black" stroke-width="1" /></svg>