<?xml version="1.0" encoding="utf-8" ?>
<svg baseProfile="full" height="78.37727872654796" version="1.1" width="87.16492142528296" xmlns="http://www.w3.org/2000/svg" xmlns:ev="http://www.w3.org/2001/xml-events" xmlns:xlink="http://www.w3.org/1999/xlink"><defs /><rect fill="white" height="78.37727872654796" width="87.16492142528296" x="0" y="0" /><path d="M39.25363313406706,27.333241370506585 m-5.8633047342300415,1.6059912741184235 l-3.914198577404022,1.744430959224701 -2.6826998591423035,2.0251163840293884 l-1.4639177918434143,2.2365519404411316 -0.32951217144727707,1.6731290519237518 l0.2267906442284584,1.3244269788265228 1.5835011005401611,1.7143824696540833 l4.13817822933197,1.6807657480239868 5.97851037979126,0.9361704438924789 l13.648130893707275,0.05265170242637396 5.033325552940369,-0.8374758064746857 l4.020772874355316,-1.522001326084137 1.6517235338687897,-1.3999205827713013 l0.8839882165193558,-1.8509365618228912 -0.009422610164619982,-2.317712754011154 l-1.1095743626356125,-1.96053147315979 -2.192317098379135,-1.9200702011585236 l-2.923142910003662,-1.5690304338932037 -3.524029850959778,-1.1862105131149292 l-5.517416000366211,-0.8743015676736832 -8.321612477302551,-0.20726390182971954 l-3.5219794511795044,0.5115783214569092 m-6.145497560501099,9.529196619987488 l0.00760630879085511,8.32324743270874 0.04880696069449186,6.7728859186172485 l0.5161299929022789,0.3806007280945778 4.139933884143829,0.48914264887571335 l15.482490062713623,0.6892238557338715 9.819021821022034,-0.0783604197204113 l1.1002518236637115,-0.7435999065637589 0.676373615860939,-1.322452574968338 l0.7209391891956329,-3.942294716835022 0.2346329391002655,-5.199759602546692 l-0.5144235119223595,-4.45629358291626 -0.7466921955347061,-1.7265786230564117 m-27.05369234085083,0.4917946457862854 l-0.12910970486700535,-6.13376259803772 -0.7577845454216003,-4.41268116235733 l1.6092777252197266,-0.562717542052269 m6.052150130271912,11.558388471603394 l-0.081659946590662,-7.018584609031677 -0.005334903835318983,-4.634238183498383 m7.612662315368652,12.321621179580688 l0.1552774477750063,-8.759695887565613 -0.11489879339933395,-3.7580636143684387 m6.464519500732422,12.520208358764648 l0.328863188624382,-3.406638503074646 -0.10940316133201122,-7.165302038192749 m-22.904770374298096,7.7610063552856445 l-0.7147962599992752,-1.9543297588825226 -0.056855008006095886,-1.780838817358017 m-0.6148470938205719,2.983783781528473 l-0.1793915033340454,-2.0262444019317627 0.2795645035803318,-1.7757703363895416 m5.421167016029358,3.990234136581421 l0.08732977323234081,-2.2238540649414062 0.48604920506477356,-1.6586783528327942 m4.928501844406128,3.4398123621940613 l0.35786643624305725,-1.8042902648448944 0.6805869191884995,-1.3951963186264038 m4.302534461021423,2.9985758662223816 l0.3409905359148979,-2.0756125450134277 0.6347593665122986,-1.214667186141014 " fill="none" stroke="black" stroke-width="1" /></svg>