<?xml version="1.0" encoding="utf-8" ?>
<svg baseProfile="full" height="92.96916489923433" version="1.1" width="826.0930224321783" xmlns="http://www.w3.org/2000/svg" xmlns:ev="http://www.w3.org/2001/xml-events" xmlns:xlink="http://www.w3.org/1999/xlink"><defs /><rect fill="white" height="92.96916489923433" width="826.0930224321783" x="0" y="0" /><path d="M25,25 m0.0,0.0 m38.50309934001416,14.02620849898085 l-5.993063449859619,-0.014318954199552536 -1.3791140913963318,0.6851369142532349 l-0.5838000029325485,1.3151036202907562 -0.13290164060890675,2.760256826877594 l0.4116906598210335,2.0435552299022675 0.7982054352760315,1.5259581804275513 l1.1153406649827957,1.2305179238319397 2.079616039991379,1.3760647177696228 l2.790129780769348,0.9860274940729141 3.152898848056793,0.24753103032708168 l0.9140795469284058,-0.32532792538404465 1.6936178505420685,-2.3905768990516663 l-0.24966148659586906,-8.322739601135254 -1.7626087367534637,-1.343718022108078 l-4.1159385442733765,-0.7751946151256561 -1.4844073355197906,0.2818475477397442 m-3.4997066855430603,0.37037793546915054 l0.02509427722543478,-3.0291730165481567 1.0626816749572754,-0.7199930399656296 l1.1688952147960663,1.6165538132190704 0.9707994759082794,1.8444207310676575 m5.33990204334259,0.14145759865641594 l1.076347455382347,-2.996738851070404 0.6584572046995163,-0.5243863165378571 l0.8930261433124542,1.5475806593894958 0.1556927151978016,3.1245359778404236 l-0.5412425473332405,1.3191549479961395 m-8.057381510734558,3.849441409111023 l0.055600651539862156,1.3294586539268494 0.07653753273189068,0.3506351262331009 l0.2754727751016617,-1.0856935381889343 -0.20414603874087334,-0.1972772739827633 l-0.3046860732138157,0.1805054023861885 m2.0810888707637787,0.024720286019146442 l3.475947678089142,-0.5447311699390411 2.2076158225536346,-0.5037785694003105 l2.3119722306728363,-0.18947303295135498 m-8.455995917320251,2.1611785888671875 l4.491035044193268,1.2279631942510605 3.766446113586426,0.9275265038013458 m-12.283167839050293,-2.6602810621261597 l-7.236504554748535,-0.20927540957927704 -3.741796612739563,0.21813590079545975 l-3.211721181869507,0.9329961240291595 m14.644055366516113,0.6808660924434662 l-2.309303730726242,0.18923357129096985 -3.546311855316162,1.0106218606233597 l-4.455822110176086,2.144155353307724 -2.2086790204048157,1.747509390115738 l-1.2431402504444122,1.6237148642539978 -1.0052208602428436,2.7404803037643433 l-0.04423776175826788,1.8321877717971802 0.6478693336248398,1.5951162576675415 l1.4595803618431091,1.4816118776798248 2.1242672204971313,1.1864415556192398 l4.384677410125732,1.3008365035057068 5.840745568275452,0.6988693028688431 l9.494407176971436,-0.5507379397749901 3.528026044368744,-1.1053330451250076 l2.11577370762825,-1.3668744266033173 2.1289530396461487,-2.8694096207618713 m72.20164125543306,-15.471542032100842 l-6.573004722595215,-0.03886234946548939 -1.8848523497581482,0.7441414892673492 l-0.9794390201568604,1.3176143169403076 -0.5056868121027946,2.3672330379486084 l-0.00021687234038836323,2.19222754240036 0.5440592393279076,1.699419766664505 l1.0240407288074493,1.6209782660007477 2.061946392059326,2.016166001558304 l2.041875720024109,1.2696647644042969 3.0091163516044617,1.04684978723526 l3.291183114051819,-0.0005907369632041082 1.0232379287481308,-0.440395288169384 l1.4654558897018433,-1.6286791861057281 1.2949813902378082,-4.7751641273498535 l-2.344812899827957,-5.78441321849823 -3.094751238822937,-1.8938790261745453 l-1.9205577671527863,-0.27636704966425896 m-6.024055480957031,-0.4574505239725113 l-0.568966418504715,-2.088431864976883 -0.4869985952973366,-1.3655799627304077 l-0.8181893080472946,-2.1236522495746613 1.3464760780334473,0.8100173622369766 l2.2090159356594086,3.071756362915039 1.244397908449173,1.2285762280225754 m5.378103256225586,0.18574781715869904 l1.2615567445755005,-3.117797374725342 1.2542960047721863,-1.4977611601352692 l0.83920918405056,1.9110842049121857 0.10346558876335621,3.9845475554466248 l-0.17594225704669952,1.7450453341007233 m-7.942255735397339,3.5552310943603516 l-0.06511686369776726,0.41498813778162 0.14868141151964664,-0.09392873384058475 l-0.15804767608642578,-0.4028970003128052 -0.1446470245718956,0.02773656975477934 m3.1915664672851562,0.48598218709230423 l0.017356646712869406,0.4555808752775192 -0.13009740971028805,-0.5148160830140114 l-0.578995905816555,-0.17639903351664543 m-2.3846301436424255,2.852916717529297 l4.381670355796814,0.29116909950971603 2.3450948297977448,-0.13374392874538898 m-6.104689836502075,-0.5127182602882385 l4.636522531509399,0.6343165785074234 4.13947731256485,0.8160414546728134 m-10.11683702468872,-1.467183530330658 l-6.396251916885376,-0.23383976891636848 -7.534090280532837,0.01556066912598908 l-5.386996865272522,0.5024167522788048 -2.145151048898697,0.6429656594991684 l-1.1623066663742065,0.7999587059020996 -0.992322713136673,1.7150704562664032 l-0.11139048263430595,1.4474216103553772 0.68984754383564,1.3210903108119965 l1.6213618218898773,1.1850544810295105 4.173544943332672,1.574162244796753 l9.731101989746094,1.7201581597328186 11.985750198364258,0.5172624066472054 l5.296182036399841,-0.05404403433203697 2.6550057530403137,-0.44787559658288956 l1.5541131794452667,-0.7895922660827637 1.5177823603153229,-1.9696581363677979 l0.4448739066720009,-1.8920256197452545 m67.20548328150471,-14.849614783961442 l-6.833410859107971,-0.04570258781313896 -2.44282990694046,0.8066423237323761 l-1.4694389700889587,1.3590356707572937 -0.8129795640707016,1.6910061240196228 l-6.218120688572526e-05,2.2917717695236206 0.4307614639401436,2.5297418236732483 l0.9343581646680832,1.963265985250473 1.4307543635368347,1.7952071130275726 l2.6283273100852966,2.1102917194366455 3.3872944116592407,1.6481660306453705 l3.428957462310791,0.8281144499778748 2.431178539991379,-0.0007038230978650972 l1.0023470968008041,-0.4742738604545593 2.0357725024223328,-2.8950437903404236 l0.8522742241621017,-4.457633793354034 0.0005153875827090815,-3.7490954995155334 l-3.7735414505004883,-4.514203071594238 -2.3387011885643005,-0.851147472858429 l-1.7726010084152222,-0.08281872607767582 m-6.644564270973206,0.2636396139860153 l0.932682603597641,-2.8301894664764404 1.001267358660698,-0.5140357092022896 l0.9622884541749954,1.7572756111621857 0.48568151891231537,1.53874471783638 m4.854423105716705,0.18421370536088943 l1.0327518731355667,-2.5855079293251038 1.231658086180687,-0.45029547065496445 l0.4290268197655678,0.5578478053212166 -0.0894695520401001,3.9709988236427307 l-0.41095681488513947,1.5477733314037323 m-7.32157289981842,3.1906774640083313 l0.08111598901450634,0.9288186579942703 0.3094583563506603,-0.1451308000832796 l0.033342684619128704,-0.7405161112546921 -0.5246540158987045,0.1021487545222044 m3.4331420063972473,0.38746319711208344 l0.0008973450167104602,0.48068784177303314 0.09142821654677391,-0.48192352056503296 l-0.5208473280072212,-0.3185925632715225 m-2.4672335386276245,2.5028422474861145 l3.3333659172058105,-0.10259889997541904 1.8542629480361938,-0.4203885793685913 l1.7762745916843414,-0.6193716451525688 m-6.241329312324524,1.59708172082901 l5.240991711616516,0.4574398323893547 4.195247292518616,0.3936424106359482 m-10.19307017326355,0.27436500415205956 l3.8420355319976807,1.5277987718582153 4.584469497203827,1.5878233313560486 m-11.883978843688965,-5.071195960044861 l-7.975130081176758,-0.9184981137514114 -3.700207471847534,-0.2595209889113903 l-3.130294680595398,0.28754645958542824 -1.7723645269870758,0.6239045783877373 l-1.1246252804994583,0.8330947160720825 -0.4766395688056946,0.912327766418457 l0.10235102847218513,0.956093892455101 0.8860213309526443,0.8100854605436325 l3.13493549823761,1.1583485454320908 8.59860360622406,1.3177011907100677 l6.544091105461121,0.9863348305225372 5.585123300552368,0.8572796732187271 l7.307572960853577,0.7425308972597122 3.312586545944214,0.12774593196809292 l1.2316733598709106,-0.3352806344628334 m65.98078168783104,-20.60858725453727 l-6.668077111244202,-0.04365772474557161 -3.1363630294799805,0.8558644354343414 l-2.071789801120758,1.757349669933319 -1.0484156012535095,1.7001673579216003 l-0.472719706594944,1.7818069458007812 -0.00020059575035702437,2.3001591861248016 l0.9790653735399246,2.7677953243255615 1.496482789516449,2.1683181822299957 l2.6965534687042236,2.5262051820755005 2.6465612649917603,1.610759049654007 l4.56020325422287,1.5497688949108124 2.7359339594841003,0.30942071229219437 l1.1718368530273438,-0.2037891000509262 1.9204998016357422,-1.2157241255044937 l1.3383546471595764,-1.7073939740657806 1.1255821585655212,-3.304804563522339 l0.0006757509981980547,-4.263939559459686 -3.077813684940338,-6.199547052383423 l-2.1296468377113342,-1.6081465780735016 -2.120106816291809,-0.622166320681572 m-8.359491229057312,0.4841778427362442 l0.6956719607114792,-3.6653688549995422 1.094023510813713,-0.4755842685699463 l0.5535997822880745,0.4043169319629669 0.7789787650108337,2.856023609638214 l0.3964679688215256,1.0316374897956848 m5.355887413024902,0.24630041792988777 l2.558455169200897,-3.6424943804740906 0.8979210257530212,0.8852154761552811 l0.11077316477894783,3.9051681756973267 -0.3680139034986496,1.7781847715377808 m-8.771942257881165,3.1765946745872498 l-0.11228978633880615,0.25922132655978203 0.1881987601518631,-0.007746904157102108 l0.08130802772939205,-0.4141911119222641 -0.31846843659877777,0.048812530003488064 m5.004634261131287,0.40095333009958267 l-0.28971707448363304,0.157978143543005 0.018387765157967806,-0.36026686429977417 l-0.3720484673976898,-0.11751585640013218 -0.018270299769937992,0.20471660420298576 m-3.7291985750198364,4.483879804611206 l1.0405152291059494,0.2057594247162342 1.7596843838691711,-0.24186057969927788 l0.24999063462018967,-0.12593109160661697 m-2.8165793418884277,-0.8287195861339569 l2.9965296387672424,-0.9968847781419754 3.124106526374817,-0.9093718975782394 m-6.132033467292786,2.483917325735092 l5.537651777267456,0.25244858115911484 4.522078037261963,0.35181842744350433 m-11.984299421310425,-1.2546902894973755 l-7.187978625297546,-0.37293948233127594 -6.654219627380371,0.02862532390281558 l-2.496466487646103,0.4552290216088295 m16.229466199874878,1.2697014212608337 l-2.5242379307746887,0.24764467030763626 -8.5122811794281,2.220829874277115 l-3.7265613675117493,1.689462810754776 -1.8694765865802765,1.420300155878067 l-0.9096439927816391,1.2769018113613129 -0.22807732224464417,1.2088926881551743 l0.4710646718740463,1.0557148605585098 1.2080524861812592,0.9576566517353058 l3.595879077911377,1.3420259952545166 5.74250340461731,0.9641886502504349 l10.478402376174927,0.40387943387031555 7.533299922943115,-0.5111048743128777 l6.0051363706588745,-1.3616248965263367 5.112505555152893,-2.199854403734207 m67.95015912633971,-25.93842073559472 l-6.291435360908508,-0.05439062137156725 -3.86074036359787,0.8682405948638916 l-2.701718807220459,1.768098771572113 -1.4287449419498444,1.6772152483463287 l-0.7512053847312927,1.693010926246643 -0.2548287622630596,1.9361868500709534 l0.3550712764263153,2.123921513557434 1.897851973772049,3.6210429668426514 l3.019210696220398,3.273676037788391 2.793431580066681,1.999962031841278 l2.7591508626937866,1.297718733549118 3.5644301772117615,0.89942567050457 l3.1195485591888428,-0.0008250410610344261 1.3802221417427063,-0.42308930307626724 l2.1672479808330536,-1.5006966888904572 1.3780134916305542,-1.939793974161148 l1.3463681936264038,-5.1157450675964355 0.0007080249633872882,-3.54900062084198 l-1.6032958030700684,-3.4678688645362854 -2.5685915350914,-2.5587785243988037 l-3.8478222489356995,-2.2796891629695892 -1.818849891424179,-0.4051745682954788 m-6.599099040031433,2.087996006011963 l0.6747487187385559,-3.80597323179245 1.0604513436555862,-0.3694469854235649 l0.5379514396190643,0.4619526118040085 0.69032222032547,2.663724422454834 m4.835166931152344,0.31165387481451035 l1.110188439488411,-2.693721354007721 1.173500046133995,-0.08584817871451378 l0.4179149493575096,0.6369641423225403 0.3101501613855362,2.6296409964561462 l-0.3005268983542919,2.1867290139198303 m-7.850635647773743,3.6375826597213745 l0.18268002197146416,0.835806354880333 0.3969676047563553,0.02851614961400628 l0.20628834143280983,-0.7822165638208389 -0.29118239879608154,3.131508947262773e-05 m2.8305453062057495,0.3235120326280594 l0.15194548293948174,0.37172723561525345 0.16738032922148705,-0.4292513430118561 l-0.42307235300540924,-0.28138503432273865 m-3.022794723510742,2.9987645149230957 l-0.000506033975398168,1.0315072536468506 -0.0692540081217885,0.1099545881152153 l0.09230712428689003,-0.8111730217933655 m0.537666566669941,0.2953018993139267 l3.291724920272827,-0.9984675794839859 2.606722414493561,-1.2632064521312714 m-5.779351592063904,2.9738473892211914 l5.712456703186035,0.03638273337855935 4.381664395332336,-0.1322836522012949 m-10.324277877807617,1.6143473982810974 l5.672131180763245,1.3479863107204437 5.01433253288269,1.3363152742385864 m-14.428746700286865,-5.290996432304382 l-7.611716985702515,-1.0303699970245361 -3.9764827489852905,-0.30706964433193207 l-3.818041980266571,0.31303349882364273 m15.0136137008667,2.923040986061096 l-5.6386154890060425,0.7476011663675308 -4.1503602266311646,0.9781334549188614 l-3.1961169838905334,1.3233168423175812 -1.871143877506256,1.2896688282489777 m16.22780680656433,-2.3650673031806946 l-2.2477760910987854,1.484607756137848 -3.740232288837433,3.217591345310211 l-3.408781886100769,3.587696850299835 -2.3473571240901947,3.32489937543869 l-1.4068080484867096,3.134995698928833 -0.2491375431418419,1.8447509407997131 l0.5588233470916748,1.4152871072292328 1.5517701208591461,1.1012955754995346 m93.21850332176837,-30.441496479008947 l-5.68658173084259,-0.06299291271716356 -4.60728257894516,0.8609097450971603 l-3.481968641281128,1.8672101199626923 -1.7542003095149994,1.6122469305992126 l-1.0475079715251923,1.6481541097164154 -0.5078235268592834,1.9333456456661224 l0.19203899428248405,3.3176907896995544 1.6094040870666504,3.2838264107704163 l2.96843558549881,3.413338363170624 2.7670851349830627,2.1151375770568848 l3.767576515674591,2.0135879516601562 3.122881054878235,1.0027168691158295 l3.8056927919387817,0.45555274933576584 1.717018336057663,-0.1907353289425373 l1.7470437288284302,-0.7809772342443466 2.2414132952690125,-2.0498400926589966 l1.3441011309623718,-2.3210544884204865 0.967019572854042,-3.944702446460724 l0.0006627665425185114,-4.324019551277161 -1.4879229664802551,-3.483903408050537 l-2.5245988368988037,-2.9160532355308533 -2.8062528371810913,-1.7273402214050293 l-2.58628249168396,-0.6173928081989288 m-8.78232717514038,1.589113026857376 l0.6405994296073914,-4.502098262310028 1.3546817004680634,-0.5663631483912468 l0.5890300869941711,0.46616047620773315 0.8058618754148483,3.3187299966812134 m5.575664639472961,0.3915833681821823 l1.0304959863424301,-2.6958534121513367 1.2439678609371185,-1.335596740245819 l0.5864241719245911,0.21113036200404167 0.8239483833312988,2.2524364292621613 l0.11953297071158886,3.7804868817329407 m-9.223346710205078,4.430455267429352 l0.2637331373989582,0.8092758059501648 0.6127414852380753,-0.09748253040015697 l0.15485046431422234,-0.7889635860919952 -0.527072437107563,-0.2701481617987156 m3.948015570640564,0.8211520314216614 l0.04196188412606716,0.3050863929092884 0.29961105436086655,-0.2655249461531639 l-0.3032488003373146,-0.4761694371700287 m-4.2102473974227905,3.4262019395828247 l0.04073895048350096,2.0174039900302887 0.06250672973692417,0.2269940823316574 l0.050640557892620564,-0.4815056174993515 0.22380324080586433,-0.9098862111568451 m0.4035528376698494,0.41054848581552505 l2.817150354385376,-0.790446326136589 2.376769781112671,-1.2210744619369507 l1.4540709555149078,-0.6043144315481186 m-6.276959180831909,3.368731439113617 l5.618063807487488,-0.21762019023299217 4.343419373035431,-0.14145484194159508 m-10.047451257705688,1.9377228617668152 l6.122027635574341,1.1553288251161575 4.570824205875397,1.002097949385643 m-15.371686220169067,-5.251517295837402 l-8.344515562057495,-1.3171540200710297 -4.279923737049103,-0.4235539212822914 l-3.611961603164673,0.13785005547106266 m15.610759258270264,3.5586583614349365 l-6.087444424629211,0.526462085545063 -4.514514803886414,1.0973000526428223 l-2.363842725753784,1.0533595830202103 m13.911341428756714,-0.5663034319877625 l-3.7125542759895325,1.5918426215648651 -4.809926450252533,2.871108055114746 l-3.8757511973381042,3.014603853225708 -1.5440239012241364,1.7859944701194763 l-0.677701011300087,1.4538268744945526 m23.359224796295166,-15.69705843925476 l5.119295120239258,-0.5800335854291916 3.6047083139419556,0.04770501051098108 l7.509890794754028,0.8906543254852295 5.419111847877502,1.7897820472717285 m58.02530560744344,-13.182205051271012 l-4.974015057086945,-0.049622249789536 -5.4068440198898315,0.8202460408210754 l-4.35528963804245,1.791546642780304 -2.4260015785694122,1.895083338022232 l-1.2127719074487686,1.6300596296787262 -0.6196467205882072,1.7848804593086243 l-0.06011106539517641,2.9246848821640015 1.3453878462314606,3.558506965637207 l2.8735455870628357,3.7886834144592285 2.927035093307495,2.540866434574127 l4.14030522108078,2.513914108276367 3.2778823375701904,1.267084777355194 l3.9974623918533325,0.7332049310207367 2.8565597534179688,-0.0007996222120709717 l2.2163504362106323,-0.639001727104187 1.877451241016388,-1.1888691782951355 l1.5024170279502869,-1.6927486658096313 1.6646823287010193,-3.3239391446113586 l0.8595949411392212,-4.463984668254852 0.0006764507998013869,-3.6500686407089233 l-0.6530728936195374,-2.659534513950348 -1.6512252390384674,-3.0850332975387573 l-2.4990257620811462,-2.6219505071640015 -3.2662805914878845,-1.3397979736328125 l-2.4757716059684753,-0.18942659720778465 m-8.838990926742554,3.186897039413452 l0.5066270381212234,-4.0303996205329895 1.0251299291849136,-0.7785319536924362 l1.0363481938838959,1.7854323983192444 0.6734978407621384,1.724909245967865 m6.252207159996033,0.17880277708172798 l1.2183655798435211,-2.5110051035881042 1.1814535409212112,-0.4096795618534088 l0.4331829771399498,0.5886971578001976 -0.030674112495034933,4.459892511367798 l-0.2260996215045452,1.816774159669876 m-9.078020453453064,2.1105994284152985 l-0.002323220978723839,-0.00018732149328570813 m2.91766494512558,-0.11730045080184937 l0.05511081777513027,-0.17071764916181564 0.13897370547056198,-0.023090909235179424 l-0.014617713168263435,0.1063535176217556 -0.00028062939236406237,0.3250332549214363 l-0.0005046944716013968,0.006918405997566879 -0.036455688532441854,-0.3488706424832344 m-2.2427494823932648,3.2021230459213257 l3.094557821750641,-0.6290178000926971 1.850757896900177,-0.703502744436264 l0.9270429611206055,-0.22043012082576752 m-4.957689642906189,2.0464281737804413 l3.6262115836143494,-0.3715570643544197 3.106619417667389,-0.43908875435590744 l3.146286904811859,-0.3622058033943176 m-9.710005521774292,2.5143516063690186 l5.111281871795654,0.8723729848861694 4.20518696308136,0.8160494267940521 m-12.968884706497192,-4.005011022090912 l-5.782648324966431,-0.3790399432182312 -6.378891468048096,-0.4673576354980469 l-2.340233623981476,0.021465113386511803 m13.84442925453186,2.878756523132324 l-5.95730185508728,0.9113761782646179 -3.726837635040283,1.237412616610527 l-2.032109797000885,1.1295384913682938 m12.726188898086548,-1.271243691444397 l-3.2868221402168274,1.5887102484703064 -2.472023069858551,1.813027709722519 l-3.0121105909347534,2.8932085633277893 m15.865395069122314,-12.510757446289062 l7.6995062828063965,-2.8164950013160706 3.9304596185684204,-0.8141158521175385 l4.207485020160675,-0.3158451244235039 2.3489561676979065,0.25806669145822525 l2.617270350456238,1.1166305840015411 m-20.774106979370117,6.331963539123535 l10.711387395858765,1.0845082998275757 6.810269355773926,0.9674534201622009 m69.69647222213098,-15.901801989457454 l-4.1504427790641785,-0.05348874721676111 -6.0708266496658325,0.7735951244831085 l-5.28974175453186,1.7796583473682404 -2.9322731494903564,1.8087179958820343 l-1.5095162391662598,1.543525606393814 -0.8733202517032623,1.7033231258392334 l-0.3751770779490471,2.860478460788727 1.1144334822893143,3.813745081424713 l2.976737320423126,4.279540479183197 3.958303928375244,3.519238531589508 l3.3720633387565613,2.05520823597908 4.27707701921463,1.756874918937683 l3.2620665431022644,0.685458779335022 3.3052054047584534,-0.0007953333260957152 l2.553038001060486,-0.6095794215798378 2.153499722480774,-1.1217008531093597 l1.8261726200580597,-1.5652519464492798 1.4399947226047516,-2.0565782487392426 l1.3637994229793549,-3.7467914819717407 0.5401861667633057,-4.585467875003815 l-0.4452381283044815,-4.485168159008026 -1.713298112154007,-3.1894221901893616 l-2.6025453209877014,-2.548174560070038 -3.0277246236801147,-1.4926102757453918 l-2.9893720149993896,-0.6176687404513359 -2.6873034238815308,-0.0004148819425608963 m-7.622999548912048,4.5668986439704895 l-0.001519723009550944,-2.3385055363178253 0.9424733370542526,-1.5396948158740997 l1.0224217176437378,0.5133562535047531 0.840727910399437,1.8291160464286804 m6.324480772018433,0.005145199247635901 l1.266888678073883,-2.195233106613159 1.147882342338562,-0.0689893588423729 l0.4429817572236061,3.033648133277893 -0.33808130770921707,1.7471206188201904 m-8.031225204467773,3.2907909154891968 l0.1340486854314804,-0.3789788484573364 0.40563590824604034,-0.2812886983156204 l0.3531699627637863,0.3091910295188427 -0.4812639579176903,0.4111700877547264 l-0.10464329272508621,-0.279237050563097 m0.27487894520163536,0.47862932085990906 l2.2765107452869415,-1.4577610790729523 0.4594869911670685,0.49335233867168427 l-0.5944141000509262,0.5615876615047455 -0.7007834315299988,-0.08859758265316486 m0.33045217394828796,0.4720381274819374 l3.6461082100868225,-1.7887195944786072 2.66175240278244,-1.4168992638587952 m-5.795366168022156,4.3568044900894165 l4.942499101161957,0.44419173151254654 3.2063335180282593,0.5211924389004707 l2.8231966495513916,0.6929077953100204 m-11.171735525131226,0.19092857837677002 l4.623135626316071,1.7251428961753845 4.053371846675873,1.7302833497524261 l1.8317244946956635,0.7388617843389511 m-17.86686420440674,-8.296395540237427 l-5.898540019989014,-1.8318405747413635 -5.779569149017334,-1.8658904731273651 l-2.3741093277931213,-0.5741753056645393 m12.975881099700928,6.346223950386047 l-5.980598330497742,0.6073517724871635 -3.299280107021332,0.9036357700824738 l-1.8508453667163849,0.9614810347557068 m12.631584405899048,0.8189068734645844 l-4.314261376857758,1.7822247743606567 -2.461932897567749,1.6577336192131042 l-2.5356343388557434,2.517983913421631 m16.663284301757812,-12.696056365966797 l6.893321871757507,-2.2232119739055634 3.7726929783821106,-0.673072412610054 l3.896024227142334,-0.13779125176370144 m-14.57332730293274,5.857420563697815 l8.999078273773193,0.21070988848805428 5.74093759059906,0.5243144556879997 m69.73385312980099,-10.727940064862196 l-3.2630687952041626,-0.0556778023019433 -6.290903091430664,0.7125124335289001 l-6.038900017738342,1.5978902578353882 -3.5892897844314575,1.8228314816951752 l-1.7710259556770325,1.4983737468719482 -1.0770057141780853,1.6784566640853882 l-0.5436563864350319,2.764940857887268 0.9422361850738525,4.107577800750732 l3.079662024974823,4.495915174484253 4.062504172325134,3.669702410697937 l3.4551480412483215,2.159351259469986 4.640197455883026,1.96955144405365 l3.464958369731903,0.7688800245523453 3.7667933106422424,-0.0008290239929920062 l2.8262731432914734,-0.5890542641282082 2.366260290145874,-1.0937312245368958 l2.0088566839694977,-1.5395249426364899 1.6082093119621277,-1.992805153131485 l1.6290506720542908,-3.602086901664734 0.8668596297502518,-4.662219285964966 l0.000670652007102035,-3.9152657985687256 -0.6851531565189362,-2.8582271933555603 l-1.7229017615318298,-3.2373663783073425 -1.7767280340194702,-1.9624626636505127 l-2.930247187614441,-1.7586588859558105 -3.9595362544059753,-0.59300497174263 l-2.6228293776512146,0.3966302052140236 m-9.970532059669495,5.344138741493225 l0.7769124209880829,-3.7476682662963867 1.0938622802495956,-1.6025926172733307 l0.9443198144435883,1.0576905310153961 1.0587244480848312,2.1080638468265533 m7.473236322402954,0.10099774226546288 l1.4526410400867462,-2.3629382252693176 1.3955402374267578,-0.36352820694446564 l0.8405181765556335,2.196461260318756 -0.061164614744484425,3.0159991979599 m-9.873546957969666,4.097211956977844 l0.08190813474357128,0.755549892783165 0.33492743968963623,0.14157540164887905 l0.2437237650156021,-0.7926961779594421 -0.3072923794388771,0.001749666262185201 l0.02070282818749547,0.3936600312590599 m-0.35612795501947403,-0.36661870777606964 l1.8143612146377563,-1.3173101842403412 0.3306842967867851,0.21443955600261688 l-0.7563894987106323,0.6781701743602753 -0.47924675047397614,0.046195234172046185 m-1.5905824303627014,0.829308032989502 l2.7439603209495544,-1.4376935362815857 2.453281283378601,-1.458974927663803 l1.587623506784439,-0.6050634756684303 m-6.160593032836914,3.9939704537391663 l4.127033054828644,-0.13731814920902252 4.08457487821579,-0.15387419611215591 l2.053394913673401,0.17139459028840065 m-10.260276794433594,1.6995090246200562 l4.813579618930817,0.9920539706945419 4.488866329193115,1.0497651249170303 l3.8058283925056458,1.2487950176000595 m-17.858824729919434,-7.124230265617371 l-6.111104488372803,-1.1496159434318542 -6.6460394859313965,-1.2293151766061783 l-2.4286314845085144,-0.30931655317544937 m14.47805643081665,5.077767968177795 l-6.17281436920166,0.6506335735321045 -3.9927083253860474,0.9893582761287689 l-2.047298699617386,0.9231866896152496 m13.510479927062988,0.6807273626327515 l-4.136101305484772,1.4832927286624908 -3.9921385049819946,2.298312336206436 l-1.886240690946579,1.6417326033115387 m17.12488293647766,-12.618597745895386 l7.921580672264099,-2.4775229394435883 m-7.449506521224976,5.180044770240784 l7.779058218002319,-0.0066867569694295526 m74.4853324641008,-9.294838939440524 l-2.35846608877182,-0.04280146211385727 -6.343806982040405,0.6174476817250252 l-6.922982931137085,1.3967089354991913 -4.040373265743256,1.5574485063552856 l-2.107715457677841,1.4143475890159607 -1.298052966594696,1.624244749546051 l-0.8292984962463379,2.8544053435325623 0.6914041191339493,4.596730172634125 l3.1030842661857605,4.790172278881073 3.2023078203201294,3.065865933895111 l4.833324551582336,3.1620246171951294 5.1958441734313965,2.1171538531780243 l3.695002794265747,0.7525783032178879 3.640112578868866,-0.000727843726053834 l2.858627140522003,-0.5821095407009125 2.527918815612793,-1.1205675452947617 l2.159564346075058,-1.5717227756977081 1.8591131269931793,-2.0310017466545105 l1.9618423283100128,-3.6170387268066406 0.8515726029872894,-3.0994489789009094 l0.3232583776116371,-4.409915208816528 -0.6484685093164444,-4.233519732952118 l-1.114693507552147,-2.6438724994659424 -1.5119005739688873,-2.1291278302669525 l-2.8191614151000977,-2.2457820177078247 -2.5120902061462402,-1.0810932517051697 l-3.3860185742378235,-0.0005855143172084354 -1.6922983527183533,0.6162388622760773 m-11.884615421295166,5.848431587219238 l0.6664222478866577,-2.7262362837791443 1.4404450356960297,-3.972691595554352 l1.0604150593280792,0.5928587168455124 1.6741684079170227,3.1169790029525757 m9.5511394739151,0.3711772710084915 l1.6267681121826172,-2.496321052312851 2.3810258507728577,-2.369556874036789 l0.7146234810352325,2.522771656513214 -0.030648750253021717,4.743565022945404 m-14.018709659576416,5.0092726945877075 l0.06339217536151409,0.6174753978848457 0.4502638056874275,0.14813702553510666 l0.28563976287841797,-0.8419743925333023 -0.29896123334765434,-0.22251874208450317 l-0.39756637066602707,0.6382379680871964 0.3087698295712471,-0.2336006984114647 m7.271300554275513,-0.4255771264433861 l-0.0921837892383337,0.6952355802059174 0.22658081725239754,-0.34831445664167404 l-0.30330151319503784,-0.6080490723252296 -0.2051323838531971,0.17736846581101418 m-6.179342269897461,5.186834931373596 l0.22945567965507507,0.2131638489663601 1.0832833498716354,0.04876164719462395 l0.3151301294565201,-0.17676973715424538 -0.6782100349664688,-0.14504993334412575 l-0.5318696796894073,0.13700212351977825 -0.2544765919446945,0.2554028108716011 m0.8135990053415298,-0.3597426787018776 l5.491291880607605,-3.5254624485969543 4.862264692783356,-2.9050469398498535 l4.7774845361709595,-2.220213860273361 m-14.546383619308472,8.932705521583557 l6.703321933746338,-0.45061253011226654 3.230292499065399,0.2199450321495533 m-10.375823974609375,1.816428154706955 l5.587295293807983,1.6910441219806671 5.354979634284973,1.3537873327732086 m-16.736916303634644,-7.594769597053528 l-8.059666156768799,-1.429375410079956 -4.175991714000702,-0.6234920024871826 m12.878119945526123,4.481889307498932 l-6.406432390213013,0.722147524356842 -3.7961795926094055,1.01747065782547 m11.616744995117188,0.5041248723864555 l-4.82374906539917,3.5275548696517944 " fill="none" stroke="black" stroke-width="1" /></svg>