<?xml version="1.0" encoding="utf-8" ?>
<svg baseProfile="full" height="104.51921203639358" version="1.1" width="851.9002785719931" xmlns="http://www.w3.org/2000/svg" xmlns:ev="http://www.w3.org/2001/xml-events" xmlns:xlink="http://www.w3.org/1999/xlink"><defs /><rect fill="white" height="104.51921203639358" width="851.9002785719931" x="0" y="0" /><path d="M25,43.765403903089464 m0.0,0.0 m38.29902356490493,25.39939587652043 l6.036444306373596,0.06919089239090681 1.324697881937027,-0.37604328244924545 l3.732147514820099,-1.196758970618248 1.321626752614975,-1.1319183558225632 l0.31459253281354904,-1.136898621916771 -0.6329181045293808,-0.8604689687490463 l-2.2557254135608673,-1.1432433128356934 -2.8808435797691345,-0.6673596799373627 l-4.695490598678589,-0.0007472298602806404 -3.596350848674774,0.8848752826452255 l-1.7824414372444153,0.9453805536031723 -1.640838086605072,1.7151521146297455 l-0.5225885659456253,1.4416517317295074 0.25595109909772873,1.1507099866867065 l1.0391660034656525,0.7795225828886032 1.635877788066864,0.4062913730740547 m4.863416850566864,-3.4637147188186646 l2.3158740997314453,-0.33016595989465714 4.784398972988129,-0.7517837733030319 l4.3425968289375305,-0.48867929726839066 3.0090826749801636,0.14332222752273083 l2.190099209547043,0.835660919547081 0.9818918257951736,0.9002811461687088 l0.6118614226579666,1.7152918875217438 -0.14707261696457863,1.3121657073497772 l-1.3733312487602234,1.9012415409088135 -1.6279393434524536,1.155698373913765 l-3.4163808822631836,1.264871060848236 -4.806304574012756,0.7103123515844345 l-5.264971852302551,-0.00016811858586152084 -3.006555736064911,-0.6898537278175354 l-1.8314781785011292,-0.9725063294172287 -0.9510233998298645,-1.138695478439331 l-0.6337481737136841,-2.2400222718715668 0.34661706537008286,-2.6910385489463806 l1.0074535757303238,-1.257738173007965 m9.30146038532257,4.957361817359924 l0.5560126155614853,2.896457612514496 m3.1731322407722473,-3.458547294139862 l0.5073566362261772,3.7070250511169434 m63.81213244050741,-2.6587530845245055 l5.900511145591736,-1.0764341801404953 1.7724041640758514,-0.7781635969877243 l9.434710144996643,-2.5495967268943787 1.9356107711791992,-0.5780224874615669 l0.6488510221242905,-0.19984988495707512 0.12268374674022198,-0.2382390759885311 l-1.0230623930692673,-0.2695687487721443 -3.7858453392982483,0.04110842011868954 l-8.681377172470093,1.117262989282608 -3.9996185898780823,0.8757080882787704 l-3.703521192073822,1.1609341949224472 -1.622181087732315,1.0494691878557205 l-0.6052286922931671,0.9045582264661789 0.19948629662394524,1.3294649124145508 l1.064949557185173,0.860462486743927 m10.027850866317749,-4.399827420711517 l0.2202407643198967,-0.6863357871770859 1.3078573346138,-2.398788332939148 l3.0799859762191772,-3.398713767528534 4.3456462025642395,-2.879188060760498 l2.8203806281089783,-0.9206318855285645 2.123441994190216,-0.16756849363446236 l2.1187441051006317,0.7301929593086243 1.2042541056871414,1.0018880665302277 l0.9410028904676437,1.902794986963272 0.165485218167305,2.5609350204467773 l-1.2184596806764603,2.7673783898353577 -2.542177438735962,2.5676000118255615 l-3.685961365699768,2.041979134082794 -4.373440146446228,1.1872011423110962 l-3.528003692626953,0.5509376525878906 -3.865540027618408,-0.043367925100028515 l-2.158545106649399,-0.6931492686271667 -1.2751859426498413,-1.0485990345478058 l-0.4906574636697769,-1.2973672151565552 0.2759980596601963,-2.233276665210724 m8.410212993621826,1.890198439359665 l0.39379414170980453,3.882718086242676 0.35066045820713043,3.209477961063385 m3.977789282798767,-7.854558825492859 l0.8397436887025833,4.90220308303833 m57.51278238138184,-7.629414753537276 l5.8552926778793335,-2.4655330181121826 2.2051171958446503,-1.220845803618431 l15.951817035675049,-3.52053701877594 2.135986089706421,-0.453302301466465 l1.2181013822555542,0.151953911408782 1.0082824528217316,0.8718425035476685 l0.24277132004499435,0.9496260434389114 -0.6221378967165947,0.98761186003685 l-4.355432987213135,2.5175827741622925 -12.529252767562866,2.930063009262085 l-5.082030892372131,0.8208503574132919 -4.764002859592438,-0.0006382483843481168 l-1.7279662191867828,-0.6235303357243538 -0.5628850311040878,-0.8904338628053665 l0.2647017315030098,-1.0461048781871796 1.1499930173158646,-0.9887938946485519 l3.097158968448639,-1.129746288061142 m10.923947095870972,-0.35356197506189346 l3.404529392719269,-2.233979254961014 4.805664420127869,-2.7572664618492126 l4.4598037004470825,-2.108764201402664 2.526848614215851,-0.687251091003418 l2.3216605186462402,-0.10085329413414001 1.2034205347299576,0.5805223435163498 l0.8757565915584564,1.5547402203083038 0.06341325584799051,2.5038331747055054 l-0.7686743885278702,1.6114351153373718 -2.2349296510219574,2.151735872030258 l-3.7254631519317627,2.001345008611679 -4.58233505487442,1.3381683826446533 l-4.956532716751099,0.6191706284880638 -2.9451069235801697,0.038806600496172905 l-2.1450088918209076,-0.4091716930270195 -2.215719521045685,-1.235971748828888 l-1.7558294534683228,-2.264726907014847 -0.4371090605854988,-1.979304701089859 l0.46483535319566727,-1.4759579300880432 1.1619968712329865,-0.9583722800016403 m8.479810953140259,6.065658330917358 l0.7148069143295288,5.056271553039551 0.7017944753170013,4.666861295700073 l0.6794655323028564,2.2459812462329865 m-3.0696597695350647,-11.593142747879028 l1.171685978770256,4.161050617694855 m-2.3258325457572937,-4.881194531917572 l3.9967086911201477,-0.36867935210466385 m57.47639747103676,0.9220808604732156 l5.205546021461487,-4.2574480175971985 2.3742173612117767,-1.9995661079883575 l23.185255527496338,-4.352574050426483 3.841451108455658,-0.23875245824456215 l1.4428520202636719,0.4617154970765114 1.3365738093852997,1.3726560771465302 l0.518559105694294,1.3186779618263245 -0.25144411250948906,1.2265272438526154 l-1.0638409107923508,1.0069114714860916 -5.153141021728516,2.1518474817276 l-17.5113582611084,2.810525894165039 -12.970365285873413,1.4280059933662415 l-2.251439094543457,-0.13804985210299492 -0.3743145987391472,-0.41181042790412903 l0.2624580077826977,-1.330035775899887 1.1425108462572098,-1.3721348345279694 l1.7200976610183716,-0.9145060181617737 m14.7337806224823,-2.2217585146427155 l2.0352305471897125,-2.8996670246124268 3.5680848360061646,-3.828708827495575 l2.6353323459625244,-1.87770277261734 3.6354681849479675,-1.5678541362285614 l2.4048012495040894,-0.4650970548391342 2.1746598184108734,0.2979508228600025 l1.95644810795784,1.3372863829135895 1.3458603620529175,2.3751752078533173 l0.19558608531951904,2.844611704349518 -0.5998703092336655,1.4748306572437286 l-2.017131894826889,1.9410483539104462 -3.5583123564720154,1.6493162512779236 l-4.638411700725555,0.9416063874959946 -4.764384329319,0.21326163783669472 m-7.584506869316101,2.68052875995636 l-0.8276496827602386,5.332769751548767 -0.6070984899997711,4.402762949466705 l-0.06373804528266191,3.0890437960624695 0.3980092331767082,0.8178093284368515 l1.290840059518814,0.6245103105902672 2.557551860809326,-0.03980854991823435 l1.9573339819908142,-0.9683231264352798 1.6095441579818726,-1.6503353416919708 l1.6244851052761078,-3.296695351600647 1.271899938583374,-6.670399308204651 l-0.2673765830695629,-1.9379960000514984 m-6.26886248588562,-5.319888591766357 l-1.149897277355194,-0.9719518572092056 m0.046132649295032024,1.5846113860607147 l-1.6336138546466827,-0.716945007443428 m4.1242265701293945,2.11510568857193 l6.813327670097351,-1.6297324001789093 m50.212417179718614,8.682412430644035 l4.0751007199287415,-6.709147095680237 1.9494915008544922,-2.978157699108124 l29.16269302368164,-4.3602100014686584 7.376717925071716,-0.49743298441171646 l2.0904484391212463,0.37815842777490616 2.0639586448669434,1.2942007184028625 l1.0094688087701797,1.3017086684703827 0.7216833531856537,2.555164396762848 l-0.20921332761645317,4.53682005405426 -1.3322807848453522,2.5410619378089905 l-1.5962143242359161,1.0459908843040466 -21.570134162902832,1.2584011256694794 l-16.808301210403442,0.7555879652500153 -8.149908185005188,0.19459407776594162 l-1.3885265588760376,-0.3755515068769455 m15.498827695846558,-9.549187421798706 l-1.2140746414661407,-0.7241860032081604 -1.2361056357622147,-1.347157061100006 l-1.29465252161026,-2.327882945537567 -0.4589475318789482,-1.882135272026062 l0.11334999464452267,-2.597191631793976 0.8564258366823196,-1.7793713510036469 l1.501438319683075,-1.423972100019455 2.012036293745041,-1.0287196934223175 l2.2728902101516724,-0.5430512502789497 3.160789906978607,0.15068364329636097 l3.3135730028152466,1.4170917868614197 2.9539182782173157,2.5591853260993958 l2.111068069934845,3.3978044986724854 0.8876612782478333,3.440679907798767 l-0.09273401461541653,1.5847495198249817 m-11.036771535873413,6.425560116767883 l-0.4435858875513077,3.002060353755951 -0.20615991204977036,3.431510329246521 l0.5799006670713425,2.9265964031219482 1.0071972012519836,1.5300320088863373 l1.4071613550186157,0.8893626183271408 2.659018635749817,0.4819966107606888 l1.9689284265041351,-0.41195929050445557 1.5471412241458893,-1.117771491408348 l1.129002869129181,-1.65604829788208 0.7575696706771851,-3.0853870511054993 l-0.18618090078234673,-3.528355062007904 -0.7855687290430069,-1.8693161010742188 l-1.0874897241592407,-1.0734403133392334 m-8.816389441490173,-5.090232491493225 l-6.360465884208679,-2.895360589027405 -8.561572432518005,-3.915945291519165 m18.414151668548584,7.865120768547058 l-1.8353559076786041,-1.3249845802783966 -4.896208941936493,-4.659537672996521 m13.510311841964722,6.376063823699951 l9.179582595825195,-1.5343984961509705 m40.528060384094715,8.328103389358148 l2.898899018764496,-9.350305795669556 1.3857153058052063,-5.279971361160278 l32.20818281173706,-3.0553361773490906 10.84262728691101,-0.2794080786406994 l5.412363409996033,0.32068558037281036 0.6612228602170944,0.5023890733718872 l0.3447076678276062,1.7837069928646088 0.6170941516757011,8.655939102172852 l0.6576962023973465,6.337043642997742 -0.1724572293460369,1.6602927446365356 l-0.601215586066246,0.34439224749803543 -22.708122730255127,-0.09284649975597858 l-18.889492750167847,0.4008747264742851 -12.417296171188354,0.43166588991880417 l-4.281741380691528,0.034848698414862156 m14.007829427719116,-12.781490087509155 l-0.451764240860939,-0.5610673502087593 -0.40787506848573685,-1.8587391078472137 l0.18025804311037064,-3.299945592880249 0.8829616010189056,-2.096078395843506 l1.446104347705841,-1.587822288274765 1.8592499196529388,-1.0690022259950638 l2.1040070056915283,-0.5498027056455612 2.973611056804657,0.017147610196843743 l1.9816111028194427,0.6679089367389679 2.2045691311359406,1.780594140291214 l1.8371856212615967,2.995370924472809 0.9229137748479843,3.439214527606964 l-0.23803450167179108,2.612762451171875 m6.005595326423645,-4.126895070075989 l-1.3828492164611816,-0.6519635766744614 -1.1206799745559692,-1.2907935678958893 l-0.9452825784683228,-2.349703758955002 -0.014027421129867435,-1.8308848142623901 l0.7685548812150955,-1.4406472444534302 1.4399459958076477,-1.0575002431869507 l2.6921501755714417,-0.6910649687051773 1.8940840661525726,0.17430057749152184 l1.9227579236030579,1.303926408290863 1.4492911100387573,2.5740280747413635 l0.3170348331332207,3.0118709802627563 -0.8750326186418533,2.417663335800171 l-1.8757323920726776,1.7228123545646667 m-19.236459732055664,3.2842251658439636 l-1.4236663281917572,0.37340234965085983 -6.066237688064575,4.273258447647095 l-5.598365068435669,2.998175621032715 -3.1513625383377075,1.7125779390335083 l-1.3083341717720032,0.8242969214916229 -0.9851609170436859,0.7485796511173248 l-1.1521720886230469,2.107784003019333 -0.10366152040660381,1.195029765367508 l0.7288213819265366,0.5781986191868782 m38.26842784881592,-22.009577751159668 l9.671886563301086,-1.8143364787101746 m-7.686050534248352,4.902521967887878 l9.609270095825195,-1.220986768603325 m25.122837208909914,14.660317517882504 l1.663251668214798,-13.495047092437744 0.786498412489891,-6.660457253456116 l34.826951026916504,-1.9142358005046844 13.50861668586731,-0.2359808050096035 l8.087435364723206,0.19486425444483757 5.329834818840027,0.2212972193956375 l0.523601621389389,0.6580694019794464 0.12133471667766571,9.308926463127136 l0.40851928293704987,8.950912952423096 0.25703923776745796,4.622146785259247 l-0.40781814604997635,0.4309774562716484 -19.807932376861572,-0.5804003775119781 l-19.714632034301758,-0.6541230529546738 -16.97304129600525,0.011276190634816885 l-10.06013035774231,0.065475651063025 m9.827927350997925,-3.3432894945144653 l-0.37616461515426636,-2.5951871275901794 0.403018482029438,-2.451731562614441 l1.0653360933065414,-1.6777150332927704 1.5662340819835663,-1.0572326183319092 l1.844475120306015,-0.4288788512349129 1.8771903216838837,0.18648529425263405 l2.2458340227603912,1.3226628303527832 1.2487903237342834,1.5320587158203125 l1.05192631483078,2.913466691970825 0.051519558764994144,3.4307479858398438 l-0.6925871968269348,1.5953576564788818 -1.0835549235343933,0.9923670440912247 l-2.50460147857666,0.718928724527359 m21.623644828796387,-4.44480836391449 l-1.535506397485733,-0.5292949825525284 -1.8852928280830383,-2.3099948465824127 l-0.39544034749269485,-2.158648669719696 0.4433750733733177,-1.5794605016708374 l1.2323122471570969,-1.2384441494941711 1.7335143685340881,-0.6842818856239319 l1.788335144519806,-0.016846739454194903 2.2665391862392426,1.2092603743076324 l1.9729295372962952,2.8925400972366333 0.5691801011562347,3.4544438123703003 l-0.4269315302371979,1.65466770529747 -0.868166983127594,0.9529337286949158 m-17.0987069606781,-14.404979944229126 l-0.3818967193365097,-1.8837065994739532 0.11548779904842377,-6.840726733207703 l0.7622146606445312,-2.3659999668598175 1.375313252210617,-1.5929906070232391 l1.768827885389328,-0.8814933896064758 4.8588985204696655,-0.0008739511395106092 l6.829909682273865,0.7120539247989655 5.939532518386841,1.0108671337366104 l0.6112109869718552,0.648823156952858 0.6674620509147644,9.04941737651825 l-0.0804415624588728,6.378039717674255 m-24.49573516845703,-10.950149297714233 l-0.9769267588853836,1.2752079963684082 -0.8418932557106018,6.790517568588257 m10.303813219070435,-8.76561164855957 l-0.29871800914406776,7.163620591163635 m42.230499177239835,17.69413845573581 l0.6661515682935715,-16.023428440093994 0.17561186105012894,-10.14980435371399 l32.91485548019409,-0.6845889985561371 16.826680898666382,0.2335960604250431 l12.748188972473145,-0.04213821608573198 6.869487166404724,0.12025951407849789 l0.31072141602635384,4.918060302734375 0.6065712869167328,10.101944208145142 l0.7815394550561905,7.889760732650757 0.43526843190193176,4.164012372493744 l-0.3520362079143524,0.45028597116470337 m-63.066182136535645,-15.153309106826782 l0.9715884923934937,-0.20185120403766632 5.867108106613159,-0.3755509480834007 l18.868438005447388,0.25163160637021065 9.268738627433777,0.04824488889425993 l8.287193179130554,0.11938200332224369 6.0470205545425415,0.08317825384438038 l4.50897604227066,0.185023695230484 3.320939838886261,0.10142307728528976 m-44.44859981536865,-8.11381220817566 l-0.7656719535589218,-1.8296422064304352 -0.6873670965433121,-2.3073112964630127 l-0.23750737309455872,-2.9545527696609497 0.46860232949256897,-1.7985531687736511 l0.9609108418226242,-1.1902427673339844 1.2735190987586975,-0.5977154150605202 l2.131427824497223,-0.10849887505173683 1.3799621164798737,0.6121239811182022 l1.3365714251995087,2.0143339037895203 0.2874331921339035,5.602858662605286 l-0.4927514120936394,3.8682541251182556 m4.080467522144318,-5.886209607124329 l-0.5972791463136673,-3.390052616596222 0.1647811383008957,-2.74428129196167 l0.9623540192842484,-2.515685558319092 1.0939078032970428,-1.0505052655935287 l1.2501132488250732,-0.3836509585380554 1.5377715229988098,0.37750065326690674 l1.5086773037910461,1.8015649914741516 0.3069721721112728,5.3631919622421265 l-0.7041683793067932,4.00476336479187 m6.739804148674011,-2.088114768266678 l-1.3588488101959229,-3.0383452773094177 -0.5784105882048607,-3.0012905597686768 l1.08431875705719,-2.42961123585701 1.5177462995052338,-1.2096261978149414 l1.474461853504181,-0.3031558729708195 1.5355157852172852,0.7128378748893738 l1.173723265528679,2.2960208356380463 -0.1890341006219387,4.644388556480408 l-1.1837011575698853,2.8977593779563904 m-19.722450971603394,14.5325767993927 l-2.421530932188034,-0.6212268397212029 -5.715088248252869,-2.3385433852672577 l-6.95732057094574,-3.8918128609657288 -3.993772566318512,-2.9191625118255615 l-2.4830275774002075,-3.050174117088318 m38.97765874862671,17.072564363479614 l1.2909933924674988,-0.6091490387916565 9.119174480438232,-3.2650548219680786 l20.4606294631958,-5.825636982917786 m-45.631537437438965,13.097732067108154 l14.868935346603394,-1.0763957351446152 21.993846893310547,-1.8937195837497711 m8.480084686307237,6.749458377016708 l-0.3677360340952873,-17.227773666381836 -0.6438522040843964,-11.187350749969482 l35.08577346801758,-0.18252026289701462 16.754133701324463,0.10194560512900352 l13.001171350479126,0.2368985302746296 10.43163776397705,0.23939602077007294 l8.828285336494446,0.05932364147156477 -0.03520099213346839,7.061085104942322 l0.44210080057382584,11.601576805114746 0.6716589629650116,8.65207314491272 l0.3815053775906563,4.626938700675964 -0.3419223427772522,0.41355252265930176 m-71.21714115142822,-21.440811157226562 l0.5147561058402061,-1.4861468970775604 1.8033701181411743,-5.43096661567688 l1.0489364713430405,-2.3911209404468536 1.2566882371902466,-1.694227010011673 l1.4716851711273193,-1.0350465029478073 1.8054687976837158,-0.5477667599916458 l1.8923035264015198,-0.06415522191673517 2.6147887110710144,0.8159307390451431 l3.2018226385116577,2.2712361812591553 1.6465426981449127,1.822940856218338 l1.6501763463020325,3.195415735244751 m10.041407346725464,0.42150016874074936 l3.829323649406433,-4.148844480514526 2.3340509831905365,-2.1790608763694763 l1.8676921725273132,-1.0352081805467606 3.592189848423004,-0.6236423552036285 l2.2036269307136536,0.336260050535202 3.8453978300094604,2.729952037334442 l2.536696493625641,3.277263641357422 0.8552058041095734,3.3966076374053955 m-26.536986827850342,-5.18387496471405 l-0.8830807358026505,-4.6457526087760925 -0.9438421577215195,-7.759698033332825 l0.2903957851231098,-1.4156478643417358 0.5583708360791206,-0.16414109617471695 l3.5119950771331787,2.283637225627899 1.1502093076705933,5.813016891479492 l0.2499547228217125,4.662143886089325 m4.75776344537735,-4.42042350769043 l-0.3953137993812561,-5.402819514274597 0.3187688812613487,-3.269769549369812 l0.8687546849250793,-1.3939458131790161 1.6721759736537933,-1.0516408830881119 l0.8774550259113312,1.0386766493320465 0.3457299992442131,5.100994110107422 l-0.33804967999458313,4.060985743999481 m5.637220740318298,-1.7499063909053802 l-2.0327281951904297,-3.17589670419693 -0.7664491981267929,-2.7142414450645447 l0.03806681139394641,-1.7404042184352875 0.9727108478546143,-1.839989721775055 l1.1670078337192535,-0.48741020262241364 0.7852445542812347,1.0397017002105713 l0.12490699999034405,3.539760410785675 -0.4997478052973747,3.052634298801422 m-21.13682985305786,19.617208242416382 l-3.194754123687744,2.8335896134376526 -2.690003216266632,5.253872275352478 l-1.7154213786125183,6.652246117591858 0.07880911231040955,4.35856819152832 l0.48680055886507034,1.2931394577026367 1.2192866206169128,0.8689019829034805 l30.57706594467163,0.03656164510175586 26.5582013130188,-1.5979130566120148 l-0.7087618857622147,-8.374270796775818 -2.669716775417328,-9.838060140609741 l-3.170996606349945,-8.703776001930237 m2.342142566340044,22.633444025414065 l-1.4635126292705536,-17.58775234222412 -1.136009842157364,-11.085352897644043 l31.400070190429688,-0.6796866655349731 30.22522211074829,0.47434285283088684 l11.483577489852905,0.3524816408753395 10.344973802566528,0.15923487022519112 l0.5724113434553146,5.984703302383423 0.5148819461464882,11.34286880493164 l0.9676599502563477,9.184224605560303 0.8195502310991287,5.890147686004639 l0.399235337972641,3.3899450302124023 m-73.80283832550049,-23.52187156677246 l1.3202016055583954,-0.10001705959439278 5.724191665649414,-0.5166760459542274 l8.9558607339859,-0.1272298488765955 9.625750184059143,0.16709143295884132 l10.18970012664795,0.33151451498270035 8.549924492835999,0.4146955907344818 l7.261829376220703,0.31418945640325546 5.96396803855896,0.28040697798132896 l4.883434176445007,0.343993604183197 m-45.785675048828125,-6.692646741867065 l-0.1343340240418911,-4.155338406562805 0.4383482411503792,-4.759053587913513 l0.7837271690368652,-2.376968413591385 0.6264903396368027,-0.3881648927927017 l1.12312413752079,0.37164926528930664 0.5578638240695,5.55347204208374 l-0.0055958295706659555,4.639645218849182 m4.953797459602356,-3.33652526140213 l-0.46279195696115494,-3.4907180070877075 0.5224255844950676,-3.7790605425834656 l1.0346724838018417,-1.4538383483886719 1.0118067264556885,0.6551378220319748 l0.5304373800754547,4.478709697723389 0.0923210009932518,3.561844527721405 m5.116860270500183,-1.5094766020774841 l-0.48051003366708755,-3.1235837936401367 0.4870279133319855,-4.000954329967499 l1.0361865907907486,-1.721605360507965 0.9083724021911621,1.0016971826553345 l0.454716794192791,4.418908655643463 -0.07006487809121609,3.0330634117126465 m7.894717454910278,1.0623974353075027 l-0.36302443593740463,-4.79107528924942 0.5461806431412697,-3.87115478515625 l0.9760060906410217,-1.7099158465862274 1.2099465727806091,0.6800636649131775 l0.5088187754154205,4.232270121574402 -0.22491805255413055,3.9031732082366943 l-0.625014528632164,1.8102918565273285 m-21.58048391342163,13.809146881103516 l-1.0258310288190842,-3.011186718940735 -1.1825469881296158,-6.968870162963867 l-0.17614193260669708,-4.546009004116058 0.9365145862102509,-3.5455256700515747 l1.3443848490715027,-1.7367605865001678 1.7087037861347198,-0.9848606586456299 l14.838674068450928,0.5932347849011421 6.808221936225891,1.0467104613780975 l0.6722724437713623,0.6840324401855469 0.5840060114860535,8.75381350517273 l0.08195747621357441,7.590912580490112 -0.10996950790286064,3.848417103290558 m-26.403305530548096,-15.102299451828003 l-0.8834383636713028,-0.9226609766483307 -1.9110529124736786,-8.85174572467804 l-1.138768270611763,-8.839992880821228 " fill="none" stroke="black" stroke-width="1" /></svg>