<?xml version="1.0" encoding="utf-8" ?>
<svg baseProfile="full" height="104.51402274891734" version="1.1" width="838.9986701961607" xmlns="http://www.w3.org/2000/svg" xmlns:ev="http://www.w3.org/2001/xml-events" xmlns:xlink="http://www.w3.org/1999/xlink"><defs /><rect fill="white" height="104.51402274891734" width="838.9986701961607" x="0" y="0" /><path d="M25,25 m0.0,0.0 m39.59009168705961,30.750789307057858 l0.11861281469464302,8.249902725219727 0.6022056564688683,1.2509414553642273 l1.3833843171596527,-0.47191523015499115 0.8692491054534912,-3.436157703399658 l-0.3114989772439003,-7.975553870201111 -0.904059112071991,-0.42535338550806046 l-1.2917423248291016,0.5685251578688622 -0.6951186060905457,1.4054067432880402 l-0.01987507101148367,2.031324803829193 0.676262304186821,1.085963249206543 m1.7365936934947968,-3.725050389766693 l2.2736969590187073,-2.2670307755470276 1.9830584526062012,-0.957518145442009 l2.1510399878025055,-0.24651257321238518 1.616290807723999,0.840776190161705 l1.0297709703445435,1.8605658411979675 0.0006595483137061819,1.8403269350528717 l-1.4121288061141968,1.9501063227653503 -3.411112427711487,1.885528415441513 l2.024448961019516,0.3808945044875145 1.047714427113533,1.3224001228809357 l-0.09266620501875877,2.560904622077942 -1.687304824590683,1.3133811950683594 l-2.573312520980835,0.5117308348417282 -1.8342123925685883,-0.8979602158069611 l-0.5655044689774513,-0.8898115158081055 m-3.0391451716423035,-8.290337324142456 l-0.8554709702730179,-1.578347235918045 -1.4796222746372223,-1.8189695477485657 l-1.8168221414089203,-1.1542398482561111 -2.257135510444641,-0.5757280439138412 l-2.206025570631027,0.29752666130661964 -0.6420008838176727,0.5187086760997772 l-0.5797180160880089,2.3230059444904327 0.27590980753302574,1.5818899869918823 l1.405855417251587,1.6927790641784668 1.2068814784288406,0.5393040552735329 l3.1724241375923157,0.16991252079606056 -4.51634019613266,2.3033706843852997 l-1.1200004070997238,1.742940992116928 -0.28657056391239166,2.2542299330234528 l2.3426496982574463,2.5240978598594666 1.2198016047477722,0.35407382994890213 l3.372414708137512,-0.7615150511264801 2.5272172689437866,-2.5211572647094727 l1.497943103313446,-2.534279525279999 m79.15582568035461,-1.667029970412841 l0.20234636962413788,12.007116079330444 0.5861779674887657,0.890749990940094 l1.0061781108379364,-0.6066800653934479 0.9687749296426773,-4.1178542375564575 l-0.17520131543278694,-7.604687213897705 -1.222996935248375,-0.9044112265110016 l-1.2938882410526276,0.3925188258290291 -0.26788629591464996,1.3799619674682617 l0.5418186634778976,1.6146983206272125 m2.2452260553836823,-2.2984610497951508 l2.7318421006202698,-1.7146298289299011 2.0793551206588745,-0.5755259469151497 l1.4047817885875702,0.132047850638628 1.416698843240738,1.0089144855737686 l0.8785232901573181,1.904224157333374 0.00043101957999169827,1.6252195835113525 l-1.98036789894104,2.4826599657535553 1.4599314332008362,0.7998848706483841 l0.7861873507499695,1.2446845322847366 -1.7368914186954498,3.4906017780303955 l-1.5529030561447144,0.755079835653305 -2.3113639652729034,-0.0006091770774219185 l-1.8714800477027893,-1.0932444036006927 -1.1613158881664276,-1.5047723054885864 m-3.7795233726501465,-7.44927704334259 l-0.9796703606843948,-1.397196650505066 -2.025744467973709,-1.6532988846302032 l-2.9413190484046936,-1.050812229514122 -1.611045002937317,0.37762686610221863 l-0.8741645514965057,0.9290201216936111 -0.5432631075382233,1.8549127876758575 l0.32807856798171997,2.2494032979011536 1.0522262006998062,1.1173349618911743 l3.0838727951049805,0.9258546680212021 -0.7812713086605072,-0.24576392024755478 l-2.610420882701874,0.9065639972686768 -0.9901873022317886,1.5762123465538025 l-0.3900160640478134,2.31072336435318 1.5448874235153198,2.910771071910858 l0.9037356078624725,0.5751004815101624 2.7834326028823853,0.10945728048682213 l2.068840265274048,-1.7010553181171417 1.518143117427826,-1.8604275584220886 l0.7838140428066254,-1.5906541049480438 -0.011445252457633615,-0.7194947451353073 l-1.8617802858352661,-3.640286922454834 -0.5425262451171875,-2.122851610183716 l-0.4331805184483528,-3.7299567461013794 -0.18116401508450508,-5.162961483001709 m82.79669434179596,5.350742464179348 l0.27327999472618103,15.177624225616455 0.5535969883203506,0.6463833898305893 l0.5694296583533287,-0.8334004133939743 1.0714439302682877,-3.8462531566619873 l0.5859287828207016,-7.735920548439026 -1.465924233198166,-1.5584547817707062 l-1.457485854625702,-0.46355031430721283 -0.6490948796272278,0.5376700684428215 m4.084077775478363,1.3736546039581299 l2.9128411412239075,-1.3556712865829468 2.6837891340255737,-0.9412901103496552 l1.7883916199207306,-0.12448607012629509 1.6865213215351105,0.6170918047428131 l1.3685405254364014,1.5816569328308105 0.00015644591258023866,1.4606563746929169 l-1.2845739722251892,1.8549379706382751 -3.557485044002533,2.158677726984024 l2.2576196491718292,0.3389051929116249 1.1551009118556976,1.1900966614484787 l-0.23129712790250778,1.9904489815235138 -1.6938498616218567,1.8524245917797089 l-2.5234198570251465,1.098814457654953 -2.8786730766296387,-0.0006517176370834932 l-0.8627472817897797,-0.6729549914598465 m-5.702152848243713,-9.735268354415894 l-0.9533312916755676,-1.229943037033081 -1.7958840727806091,-1.3843749463558197 l-2.99772709608078,-1.0651928931474686 -2.3002372682094574,0.6000025197863579 l-1.0114684700965881,1.0823100060224533 -0.5314906314015388,1.91611647605896 l0.3183142840862274,1.303461343050003 1.5599288046360016,0.8357957750558853 l1.036359816789627,-0.011522911954671144 -2.2785039246082306,2.5239580869674683 l-0.5666838213801384,1.6211524605751038 -0.0005793502350570634,1.8255047500133514 l2.049870193004608,1.7860238254070282 2.585512101650238,0.03245037281885743 l1.4604045450687408,-0.8935743570327759 1.1077506095170975,-0.7266280055046082 l2.4231919646263123,-2.4227140843868256 0.8476657420396805,-1.028301864862442 l-0.15696218237280846,2.09033340215683 0.1718822494149208,2.3939241468906403 l0.9429723024368286,0.5367501452565193 1.688639521598816,-3.0303093791007996 l0.5600519105792046,-2.8213974833488464 -0.3368619456887245,-6.268633008003235 l-0.5396660044789314,-1.4149872958660126 -2.370714545249939,-0.5181330442428589 l-1.4546014368534088,0.7015225291252136 -1.4635077118873596,2.2725705802440643 l-0.4484115168452263,2.788260579109192 m83.46798516118724,-1.8158515978211653 l0.2847188152372837,17.694724798202515 0.4944104701280594,0.43556932359933853 l0.5735405161976814,-0.23762119933962822 1.0325607657432556,-3.6439234018325806 l1.0640334337949753,-10.432125329971313 0.23681463673710823,-0.4311029613018036 l0.49633536487817764,0.5657074227929115 1.5837156772613525,3.769490122795105 l-0.40558047592639923,1.1398769915103912 -3.171246647834778,0.194378774613142 l-1.1467309296131134,-0.14653392136096954 -0.41708357632160187,-0.34575577825307846 l0.5501995980739594,-1.5874627232551575 1.0741060972213745,-0.49632228910923004 l1.978505700826645,0.13069558888673782 1.7849062383174896,0.6504488736391068 l-0.9639637172222137,1.3409382104873657 -2.1896956861019135,0.6356319785118103 l-0.7666583359241486,-0.26319919154047966 m1.1326691508293152,-3.751831352710724 l4.488678574562073,0.8019561320543289 2.505604326725006,0.19396137446165085 l1.8479503691196442,-0.0676506944000721 1.1259356886148453,-0.18721429631114006 l2.4161043763160706,-1.4254513382911682 -1.7652152478694916,1.907726377248764 l-1.8696482479572296,1.1282774806022644 -3.5411304235458374,1.0295387357473373 l-1.6313950717449188,0.19827265292406082 -2.83512145280838,-0.502651184797287 l-1.0979003459215164,-0.29726605862379074 -0.2643788605928421,0.9493820369243622 l-0.7271527498960495,0.9864385426044464 -1.0886494815349579,0.6561660766601562 l-0.9593728184700012,-0.16354212537407875 -0.941413938999176,-1.2285317480564117 m2.2643469274044037,-5.102381706237793 l-2.922721207141876,-1.9996483623981476 -2.275867611169815,-1.7107905447483063 l-2.304450571537018,-1.7259284853935242 -2.3073750734329224,-1.460345983505249 l-2.0732004940509796,0.30650604516267776 -1.1525927484035492,2.4809956550598145 l0.25490302592515945,2.5179868936538696 0.8345046639442444,2.0478595793247223 l0.1685304380953312,1.7230324447154999 -0.1838364452123642,1.2478913366794586 l-0.7707294821739197,2.726217806339264 0.9590797871351242,1.4431904256343842 l2.788175046443939,0.42514488101005554 1.6304193437099457,-0.7462324947118759 l1.3137082755565643,-0.7268711924552917 1.5234805643558502,1.214953064918518 l1.9366861879825592,0.8565998822450638 2.161981165409088,-1.4092530310153961 l1.2910431623458862,-2.084091007709503 0.7011117041110992,-1.2866446375846863 m2.00285941362381,-5.352045297622681 l3.865399956703186,-4.540471732616425 2.1017158031463623,-1.735529899597168 l3.0251455307006836,-1.819441318511963 -2.7044087648391724,6.605960726737976 l-3.5026440024375916,3.8791564106941223 m66.26166529254988,-7.82072445981612 l0.3230256959795952,19.793214797973633 0.35003863275051117,0.26491161435842514 l0.41505705565214157,-0.31759459525346756 0.9076154232025146,-6.742468476295471 l1.0718974471092224,-2.598980665206909 1.7661550641059875,0.3084317035973072 l5.60823380947113,1.2830300629138947 -1.2250003963708878,1.8289534747600555 l-0.6074656173586845,2.125147581100464 -0.03131547709926963,0.8560500293970108 l0.4163883253931999,1.2955446541309357 0.25532880797982216,-0.04545917268842459 l0.5896807834506035,-3.319585621356964 -0.03368708770722151,-1.5897735953330994 l-0.6502985209226608,-1.0313576459884644 -2.9944220185279846,-0.38756202906370163 m7.658560872077942,0.6334085017442703 l2.7747246623039246,0.49132879823446274 2.5655031204223633,0.37700384855270386 l2.416946589946747,0.19164275377988815 1.3666653633117676,-0.0017455728084314615 l1.6925649344921112,-0.5975792557001114 -1.1591489613056183,-1.9448165595531464 l-2.2878535091876984,-0.7798846065998077 -2.0131665468215942,-0.02770598279312253 l-4.5960670709609985,0.30400484800338745 -1.3858576118946075,0.26247331872582436 l-3.4146493673324585,0.3855542466044426 -3.9155709743499756,0.5274853482842445 l-4.14752870798111,0.05738306324928999 m2.908601462841034,-3.0060094594955444 l-0.5911818146705627,-0.6690499186515808 -1.2028253823518753,-1.5391846001148224 l-1.1635972559452057,-1.0598576813936234 -1.9747474789619446,-1.6727861762046814 l-1.171628162264824,-0.6217335164546967 -2.0816053450107574,-0.5837693810462952 l-2.3652081191539764,0.49429822713136673 -0.9503979980945587,1.026725098490715 l-1.5076902508735657,6.183251738548279 0.48535145819187164,3.5195165872573853 l1.0251633822917938,1.4744313061237335 1.2815693020820618,0.6770139932632446 l2.391844689846039,-6.959319875932124e-06 1.4880207180976868,-2.0751939713954926 l0.9629862755537033,-2.57557213306427 0.5748110637068748,-1.2553457915782928 l0.398915633559227,-2.0135903358459473 0.4229244962334633,-0.5310798808932304 l1.5145386755466461,-0.28567856177687645 2.8500771522521973,0.46615928411483765 m3.93523246049881,-3.0288919806480408 l-0.36943256855010986,2.2910891473293304 -0.2496699057519436,3.8879770040512085 l0.33982619643211365,2.4712003767490387 5.732269287109375,0.13196022249758244 l2.7872666716575623,-0.4917866364121437 0.18329814076423645,-3.560234010219574 l-0.5758093297481537,-4.568179547786713 -1.0883384943008423,-1.4884555339813232 l-4.7006747126579285,0.2622878737747669 -1.850157380104065,0.560285747051239 l-1.0514335334300995,0.4363022744655609 -1.269986480474472,1.2377513945102692 m68.22293968296435,-6.956391614264135 l0.30125873163342476,19.782862663269043 0.18358830362558365,0.1980847492814064 l0.1483487617224455,-0.2962077036499977 0.0003100593312410638,-3.2360589504241943 l1.402776688337326,-5.698030591011047 1.261933147907257,-1.2489425390958786 l8.923481702804565,1.5599556267261505 -0.1554280798882246,5.002962350845337 l0.1729273796081543,2.2654004395008087 0.30753541737794876,0.8548226207494736 l0.4898611083626747,-0.00020526389562292024 1.0497292876243591,-1.4766168594360352 l0.5344350263476372,-2.8342533111572266 -0.024868405889719725,-1.481732577085495 l-0.43285902589559555,-1.1627112329006195 -1.0117784142494202,-0.7329364120960236 l-1.7528697848320007,-0.18689299002289772 m10.809262990951538,1.9219531118869781 l2.5017672777175903,0.3184112533926964 3.135836124420166,0.33496253192424774 l2.664455771446228,0.2299591712653637 1.8258470296859741,0.1501786895096302 l1.1862550675868988,0.16040463000535965 1.746125966310501,0.6953192502260208 l-1.3750958442687988,-0.6816630810499191 -2.401236891746521,-0.539981834590435 l-5.685035586357117,-0.5278132483363152 -1.5363611280918121,-0.12247977778315544 l-3.534916937351227,-0.4482639953494072 -1.2264414876699448,-0.11432474479079247 l-1.2862956523895264,-0.08353100158274174 m5.835139155387878,0.5409951135516167 l-0.32736416906118393,-0.5376803502440453 -0.7419818639755249,-1.3978242874145508 l-1.6905412077903748,-3.7218156456947327 -0.8133605867624283,-1.392897218465805 l-1.1403220891952515,-1.0645509511232376 -2.910178005695343,-0.0007336743146879598 l-7.017343044281006,1.2332868576049805 -6.890544295310974,0.9419529139995575 l-5.325267910957336,0.5896785110235214 -3.2904350757598877,0.12867006473243237 l-0.7886605709791183,-0.016938972985371947 -1.6196662187576294,0.6887000799179077 l-0.45618776232004166,0.6845542043447495 -0.220243688672781,3.5437634587287903 l0.3991619497537613,2.4576854705810547 0.6298985332250595,1.3283270597457886 l0.7226359099149704,0.6034433096647263 2.325645387172699,0.25534410029649734 l3.392728269100189,-0.42725659906864166 0.8692486584186554,-2.9691675305366516 l0.6336808204650879,-2.816096246242523 0.4756714403629303,-1.4564776420593262 l0.32304074615240097,-2.0287364721298218 m5.422918796539307,-0.26872187852859497 l-0.31052660197019577,2.7294671535491943 0.2511214464902878,3.5639604926109314 l0.4936254397034645,0.5406595766544342 2.2504007816314697,-2.3236864308273653e-05 l3.074203133583069,-0.6000751256942749 0.19023971632122993,-3.640926778316498 l-0.6876689195632935,-3.2532697916030884 -3.4159106016159058,-0.05698349792510271 l-2.1278485655784607,0.6010578200221062 -0.4385985806584358,0.29290709644556046 m13.20985198020935,-0.7047127187252045 l-0.18214603886008263,3.506835401058197 0.28329266235232353,3.3832737803459167 l5.720447897911072,-0.9500952810049057 0.0765399681404233,-3.2771018147468567 l-0.5890675261616707,-3.751455843448639 -3.5678187012672424,0.4495196044445038 l-2.457553595304489,1.1791208386421204 m60.741171583067626,-7.508775014846378 l0.2756809815764427,19.365320205688477 -0.02854712540283799,0.11554556898772717 l-0.20075613632798195,-0.27366572991013527 -1.714906394481659,-3.9227455854415894 l-0.6558733433485031,-2.784334421157837 2.8134509921073914,2.1348008513450623 l1.6415287554264069,2.2047430276870728 7.922722697257996,-0.1775779388844967 l3.3831626176834106,-0.3164426237344742 0.16120225191116333,-1.6725094616413116 l0.6869038939476013,-1.834416687488556 0.9443050622940063,-0.8557607978582382 l1.4889372885227203,-0.3587185963988304 1.6638188064098358,0.5598880350589752 l1.3658368587493896,1.773349642753601 0.6337303668260574,2.2714288532733917 l5.156230330467224,0.11011150665581226 3.1324508786201477,-0.0023376110766548663 l0.20513581112027168,-2.2914719581604004 0.9179357439279556,-2.7614453434944153 l1.1539039015769958,-1.6423213481903076 0.7522990554571152,-0.5524417012929916 l2.087612897157669,-0.3376985341310501 m-36.11855983734131,6.0126447677612305 l-0.531594343483448,0.05231389310210943 -1.18647500872612,0.6348232179880142 l-0.7624898105859756,1.2761054933071136 0.0002690975998120848,1.7162083089351654 l0.828738808631897,1.057274267077446 1.8799692392349243,0.7790520787239075 l2.3076438903808594,-0.12618180364370346 1.139330342411995,-0.9753039479255676 l0.600099228322506,-2.0303896069526672 -0.2801705524325371,-1.4238241314888 l-1.4313502609729767,-1.3849568367004395 -1.5780729055404663,-0.5074286833405495 m27.561805248260498,1.6629984974861145 l-0.9528981894254684,-0.1424534060060978 -1.5043066442012787,0.995907336473465 l-0.6440235674381256,1.3510948419570923 0.0010107241541845724,1.3501136004924774 l0.7270821928977966,0.9147324413061142 1.8335981667041779,0.6692603230476379 l2.654430866241455,-3.2872816920280457 -0.7559897005558014,-2.1123388409614563 l-1.5666764974594116,-0.714941993355751 -1.9600148499011993,0.00044341941247694194 m-22.988574504852295,-9.403271675109863 l-0.330621674656868,1.6109153628349304 0.052051842212677,2.6508140563964844 l1.1592339724302292,0.6088289991021156 4.166985750198364,-0.1765892468392849 l0.4283957928419113,-3.157845437526703 -0.7196923345327377,-2.8513681888580322 l-1.7595352232456207,-0.2669929340481758 -3.420606255531311,1.0500544309616089 l-0.9740930050611496,0.741870179772377 -0.09150221943855286,0.6740628927946091 l-0.00035182758438168094,1.0617019981145859 0.9286779165267944,1.729312688112259 l7.225503921508789,-0.7324716448783875 -0.06562594324350357,-2.4245263636112213 l-0.9047869592905045,-1.7806166410446167 -3.8017624616622925,0.40949802845716476 l-1.2072256952524185,1.6049408912658691 0.2845701202750206,2.0380307734012604 m17.21901535987854,-3.1931650638580322 l-0.2234116569161415,3.547525107860565 0.8204156160354614,1.387123018503189 l6.121212840080261,-1.2243619561195374 -0.3001697361469269,-3.557281196117401 l-3.5335177183151245,-1.0266707092523575 -1.6263338923454285,0.00010360515261709224 l-1.8763245642185211,1.4428156614303589 0.03880372503772378,1.7058205604553223 m-9.53086793422699,-2.1446339786052704 l0.90413399040699,0.43451283127069473 0.7999664545059204,1.671469658613205 l0.5126205086708069,0.5889445543289185 m64.25443389578504,-5.988413430559376 l0.18643910065293312,18.064420223236084 -0.21601587533950806,0.035557260271161795 l-0.9854203462600708,-0.9047930687665939 -4.647036492824554,-1.835513412952423 l-2.1063625812530518,-1.0659587383270264 3.1530937552452087,1.9139471650123596 l5.914131999015808,1.1588598042726517 4.8357391357421875,0.3052110783755779 l0.47478701919317245,-1.1800545454025269 0.9085484594106674,-1.2938851118087769 l1.394224613904953,-0.5046090856194496 1.9270400702953339,0.2557223103940487 l1.0953427851200104,2.469421625137329 0.6021290272474289,1.2199097126722336 l10.071054697036743,0.21142363548278809 5.4369741678237915,0.3875531628727913 l0.5182440206408501,-2.381984293460846 1.4280325174331665,-2.0473164319992065 l1.5361036360263824,-0.6236365437507629 1.552915871143341,0.12701907195150852 l1.7137689888477325,1.2350500375032425 1.2953858077526093,2.343481034040451 l0.672115758061409,1.527048498392105 1.1274780333042145,0.3148869052529335 l3.867737650871277,-0.15431237407028675 3.1709566712379456,-0.03621190320700407 l0.4186374694108963,-4.213647842407227 -0.5968016758561134,-8.139740824699402 m-44.213809967041016,5.614349842071533 l-1.0024765878915787,0.17856843769550323 -1.1038754880428314,0.7246068120002747 l-0.5573461949825287,1.1540789157152176 0.01248723710887134,2.063916027545929 l0.4889009892940521,0.5273851379752159 1.462218463420868,0.2590091712772846 l1.9650660455226898,-0.7648783922195435 0.4189720004796982,-2.7196907997131348 l-1.3342247903347015,-0.947568491101265 -1.356566846370697,0.17010189592838287 m19.380595684051514,0.5625718086957932 l-1.7677396535873413,0.4706628993153572 -1.1454235762357712,1.1672788858413696 l-0.555342398583889,2.074013650417328 1.4966322481632233,1.475343257188797 l2.9497095942497253,-0.11039379984140396 1.0148129612207413,-2.5093865394592285 l-0.7129083573818207,-1.8933650851249695 -1.539091169834137,-0.6288362294435501 l-1.5776652097702026,0.00019317842088639736 m16.02709650993347,0.40388841181993484 l-1.5669026970863342,0.16938772052526474 -1.14691860973835,1.4063483476638794 l0.38796477019786835,2.98994779586792 2.9699891805648804,1.1413564532995224 l1.8516050279140472,-0.8089448511600494 0.4997839406132698,-0.8628813922405243 l-0.1109727006405592,-2.778993546962738 -1.7364433407783508,-1.1970709264278412 l-1.7984449863433838,0.012043489841744304 m-28.360624313354492,-6.542158126831055 l-0.16869103536009789,-0.571814775466919 0.47384269535541534,-4.679797887802124 l1.5486210584640503,-3.2095399498939514 1.5134383738040924,-1.2277789413928986 l11.625174283981323,0.12748791836202145 5.5942583084106445,0.5100597813725471 l0.47974843531847,3.16092312335968 0.28235791251063347,5.957675576210022 l-0.014429333386942744,2.203807085752487 -0.44178538024425507,0.926872044801712 l-3.281489908695221,0.0004784200791618787 -9.771067500114441,-0.6037398055195808 l-5.7718634605407715,-0.5880388617515564 -1.4386069774627686,-0.4150940105319023 l-0.6525178998708725,-0.5318547412753105 -0.5496567860245705,-2.31289342045784 m4.618779122829437,-2.8124618530273438 l0.4058590531349182,1.912945955991745 0.3681957721710205,2.6883095502853394 l0.4616887494921684,0.977926179766655 5.616703629493713,-0.561407059431076 l-0.09240071289241314,-3.899531066417694 -0.8950695395469666,-2.1098461747169495 l-5.145403146743774,0.3808065876364708 m70.4315207246691,-10.71203484574653 l0.03391566453501582,15.404788255691528 -0.4526272788643837,-0.024374588392674923 l-5.992290377616882,-1.7897003889083862 -2.2172753512859344,-0.3274353966116905 l-1.2354516237974167,4.042877554893494 0.5710528418421745,3.1218796968460083 l8.71314823627472,0.4077102243900299 1.6292080283164978,-1.508258432149887 l1.3718627393245697,-1.2127646803855896 1.707710176706314,-0.13114250265061855 l1.5457217395305634,0.5388663336634636 1.0477527230978012,2.5970321893692017 l0.5745337158441544,0.5136359483003616 11.733019351959229,0.3349035978317261 l6.380535364151001,0.22276820614933968 5.747154355049133,0.30603496357798576 l0.7363855093717575,-2.1589618921279907 1.2446704506874084,-1.9836966693401337 l1.4263305068016052,-0.8090431243181229 1.5561053156852722,-0.043033878318965435 l1.3270798325538635,0.6176481023430824 1.4195062220096588,1.8085123598575592 l0.8831877261400223,2.178073078393936 0.5654546245932579,0.3449000045657158 l4.080258309841156,-0.10960408486425877 3.7879925966262817,-0.05473191384226084 l0.3803734853863716,-3.5929086804389954 -0.5429349839687347,-8.313813209533691 l-0.992925688624382,-6.476444602012634 -13.030197620391846,-0.5636891722679138 l-17.18344211578369,0.29309092089533806 -12.16928482055664,0.21099017933011055 m-2.735671103000641,15.770456790924072 l-1.1478645354509354,0.08730113506317139 -0.9570138901472092,1.1672481894493103 l-0.16907056793570518,1.2733693420886993 0.5395783483982086,1.039118468761444 l1.1991728842258453,0.5577624589204788 1.9125857949256897,-0.13780627399683 l1.0876499116420746,-0.90572789311409 0.3659799322485924,-1.2839025259017944 l-0.5129881575703621,-1.838691085577011 -0.9030754119157791,-0.5544593930244446 m23.37078332901001,1.3881750404834747 l-1.4685535430908203,0.5830086395144463 -0.8423288911581039,1.1517801880836487 l-0.04417113959789276,1.0941054672002792 0.7587897777557373,0.7847671955823898 l1.9871260225772858,0.5862507596611977 2.2432856261730194,-0.44583719223737717 l0.9927998483181,-1.0641799122095108 -0.0009847850014921278,-1.6121847927570343 l-1.784646064043045,-1.0865653306245804 -1.8733769655227661,-0.12654628604650497 m-22.371151447296143,-11.784369945526123 l0.16297493129968643,1.8432417511940002 0.4832810163497925,2.115522623062134 l8.851266503334045,-0.14970927499234676 -0.09964322671294212,-3.070022761821747 l-1.2287022173404694,-2.3727746307849884 -6.20785653591156,0.49732599407434464 l-1.6491608321666718,0.7227374613285065 m17.671780586242676,-0.40685925632715225 l-0.17930667847394943,3.7449347972869873 6.1771732568740845,-0.04198737442493439 l0.20917415618896484,-2.346930056810379 -0.6644339859485626,-2.0040422677993774 l-3.787718415260315,0.08791884407401085 -1.935805231332779,0.6985779851675034 l-0.23831641301512718,0.459633469581604 m12.37108588218689,-0.9123015403747559 l0.058588762767612934,3.1629109382629395 0.6826552003622055,2.020154148340225 l5.547494888305664,-0.790666788816452 0.13115688227117062,-2.8100886940956116 l-0.8279455453157425,-2.3632048070430756 -4.305664598941803,0.3343259170651436 l-2.370355576276779,0.914340540766716 -0.5120433866977692,0.3894191235303879 m-17.776849269866943,3.4848088026046753 l0.8279771357774734,2.048986256122589 0.7474102079868317,2.0079898834228516 l5.785315036773682,-0.8016166836023331 0.1498686522245407,-2.7773651480674744 l-0.8212261646986008,-2.1743573248386383 -5.1193612813949585,0.4804537445306778 l-1.7017947137355804,0.8314754813909531 m12.12282657623291,-0.5311126634478569 l0.2233446016907692,3.421972393989563 0.7265875488519669,2.0232675969600677 l6.886243224143982,-1.0055746883153915 m51.080748319946,-20.872928362805396 l-0.11260940693318844,12.30715036392212 -0.7223150879144669,0.0034675607457756996 l-8.805347681045532,-1.5234223008155823 -5.919644832611084,0.17243044450879097 l-0.11124863289296627,5.7071346044540405 0.78532874584198,3.1876835227012634 l1.3279743492603302,1.3937576115131378 5.950716137886047,0.4863649234175682 l5.33749520778656,-0.23652847856283188 5.257135033607483,-0.21428152918815613 l4.80548769235611,-0.13005293905735016 4.568193554878235,-0.021049499046057463 l4.514756500720978,0.34046102315187454 4.512204527854919,0.5025595426559448 l4.668535590171814,0.5063271149992943 0.7672416418790817,-1.5647539496421814 l0.913156121969223,-1.5829916298389435 1.4820171892642975,-0.6639254093170166 l1.4697223901748657,0.19852612167596817 1.6209803521633148,1.2604373693466187 l1.3034923374652863,2.0687824487686157 1.7473946511745453,0.43262816965579987 l5.906470417976379,-0.04609388764947653 0.7267337292432785,-2.5659748911857605 l0.4458742216229439,-4.161466360092163 0.1116488128900528,-5.464914441108704 l-10.94976544380188,-2.8112176060676575 -15.753096342086792,-1.4163829386234283 l-13.328098058700562,-0.6373506039381027 -8.117846250534058,-0.0662299245595932 m2.671099305152893,16.744868755340576 l-0.7804355025291443,0.18052717670798302 -0.9682723879814148,1.221633031964302 l-0.2539844438433647,1.4165835082530975 0.4916640371084213,1.0884912312030792 l1.1283475905656815,0.6844296306371689 2.0994821190834045,0.2452419139444828 l1.4216409623622894,-0.5741921067237854 0.7903718948364258,-1.153130903840065 l0.13656238093972206,-2.1289950609207153 -0.744074136018753,-1.2113437801599503 l-1.1746790260076523,-0.6437814235687256 m25.824384689331055,2.0024456083774567 l-0.9966789186000824,1.0636748373508453 -0.2087017521262169,1.506315916776657 l0.7280810922384262,1.1070199310779572 1.4030137658119202,0.588405542075634 l2.2313787043094635,-0.07455787155777216 1.2480446696281433,-2.508312463760376 l-0.6836149096488953,-1.718234270811081 -1.8115980923175812,-0.8054068684577942 m-29.78438138961792,-12.330293655395508 l0.3074311278760433,2.652398943901062 1.4631213247776031,0.6692393124103546 l5.8825743198394775,-0.07983664982020855 0.19829349592328072,-2.8899145126342773 l-1.2541508674621582,-2.3068565130233765 -6.03239893913269,0.1634276658296585 l-1.5336747467517853,1.0229979455471039 m17.635247707366943,-0.31670060008764267 l-0.15205186791718006,3.266853988170624 7.433478832244873,0.42147211730480194 l0.20788809284567833,-2.4422872066497803 -0.8580180257558823,-2.106558531522751 l-4.596592485904694,-0.01718520070426166 -2.0460930466651917,0.664190948009491 m14.992355108261108,-0.17433065921068192 l-0.07380015682429075,3.1240862607955933 0.5253314599394798,2.080809324979782 l6.035005450248718,-0.5073001235723495 0.3274836763739586,-2.60357528924942 l-0.574406124651432,-2.4747546017169952 -4.675621688365936,0.078186159953475 l-2.5058799982070923,0.7285746932029724 m-16.22105836868286,4.193102419376373 l0.7244802266359329,2.0283478498458862 0.8642853796482086,1.7385849356651306 l5.425645709037781,-0.8048262447118759 0.3781886026263237,-2.4516579508781433 l-0.6781921535730362,-1.9354292750358582 -4.915176033973694,0.132030276581645 l-1.5359695255756378,0.7018682360649109 m-8.003634214401245,1.2362118065357208 l1.3058136403560638,1.8469585478305817 3.642006516456604,0.07514568045735359 l0.3445127606391907,-2.3050734400749207 -0.8240064978599548,-1.7920947074890137 l-3.6892446875572205,0.2837340347468853 -1.1785876750946045,0.9238189458847046 m12.687650918960571,-0.4251909628510475 l0.44527411460876465,2.707710862159729 0.9296964854001999,1.6042010486125946 l8.200016021728516,-0.4384438693523407 -0.08446403779089451,-3.0619871616363525 l-1.1978396028280258,-1.8398524820804596 " fill="none" stroke="black" stroke-width="1" /></svg>