<?xml version="1.0" encoding="utf-8" ?>
<svg baseProfile="full" height="84.84527185634761" version="1.1" width="823.452611900866" xmlns="http://www.w3.org/2000/svg" xmlns:ev="http://www.w3.org/2001/xml-events" xmlns:xlink="http://www.w3.org/1999/xlink"><defs /><rect fill="white" height="84.84527185634761" width="823.452611900866" x="0" y="0" /><path d="M25,25 m0.0,0.0 m28.789339481154457,31.12837392865913 l-3.087807297706604,-4.682268500328064 -1.4393728971481323,-4.497808218002319 l-0.014763426734134555,-2.7286717295646667 0.7775276899337769,-2.4807868897914886 l1.4969070255756378,-2.209748774766922 2.1637462079524994,-1.8854421377182007 l2.739587426185608,-1.2939782440662384 4.586465358734131,-0.7443569600582123 l3.304372727870941,0.3337502107024193 3.3858835697174072,1.552799940109253 l2.1841174364089966,1.8744251132011414 1.4693297445774078,2.162724882364273 l1.1083921790122986,3.301195204257965 0.203139279037714,3.695972263813019 l-0.49744710326194763,2.9365354776382446 -0.8541177958250046,1.9093094766139984 l-1.2358331680297852,1.63484588265419 -2.4607856571674347,1.999082863330841 l-2.056419253349304,1.041129231452942 -3.4318581223487854,0.8177784085273743 l-4.155113101005554,-0.0092391885118559 -2.775558829307556,-1.1834976822137833 l-0.7811746746301651,-0.8948568999767303 m2.4469253420829773,-7.883655428886414 l-0.8460100740194321,2.903538942337036 -0.182627085596323,1.8716299533843994 l0.6879664957523346,0.7447106391191483 1.3557069003582,-0.00037351856008172035 l1.03793203830719,-0.834895595908165 0.4748362675309181,-1.2344753742218018 l-0.12445613741874695,-1.8473036587238312 -0.6459265202283859,-0.5436241254210472 m7.760329842567444,-0.5583640933036804 l-0.10412401519715786,2.7389031648635864 0.8934222906827927,1.7267504334449768 l0.7268227636814117,0.3204486519098282 1.0661236196756363,-0.46320050954818726 l0.6161035597324371,-1.1698926985263824 0.09535196237266064,-1.416754126548767 l-0.4368361830711365,-1.2518437206745148 -1.3277862966060638,-1.3338297605514526 m-11.257981061935425,-5.942850708961487 l-0.5542951077222824,-0.37372350692749023 -0.7469712197780609,-0.528637133538723 l-1.518290787935257,-1.4050950109958649 -1.515079289674759,-1.822594553232193 l-1.2120118737220764,-2.052057981491089 -0.5213377997279167,-1.4604614675045013 l-0.04088073503226042,-1.0182088613510132 0.8239439874887466,-1.117967739701271 l2.2215616703033447,-0.9888306260108948 2.0990023016929626,-0.06400767248123884 l2.462114095687866,1.0722532123327255 2.0560885965824127,2.308361679315567 l1.1497961729764938,2.8964948654174805 m3.813725709915161,-0.23308776319026947 l3.347316086292267,-2.8873059153556824 2.2275087237358093,-1.0123874247074127 l1.4588350057601929,0.006494986591860652 1.3619796931743622,1.0911883413791656 l1.0096538066864014,2.3783905804157257 -0.008486179285682738,2.763557732105255 l-0.6515165418386459,1.3257642090320587 -1.4966762065887451,1.1250894516706467 m-12.416582107543945,-0.375530906021595 l-0.4317506030201912,0.1771257445216179 m4.661669135093689,-0.21487055346369743 l0.08608887903392315,-0.44255033135414124 0.02136465860530734,-0.05135140847414732 l-0.3383060544729233,0.24176785722374916 0.35059671849012375,0.12014971114695072 l0.45763105154037476,0.21477026864886284 0.2132783643901348,0.1227139588445425 m-4.519422948360443,0.7399987429380417 l1.9871102273464203,-1.6142192482948303 2.0515260100364685,-1.6273809969425201 l1.286708116531372,-0.5966364219784737 m-4.192444086074829,4.326174259185791 l3.5913899540901184,0.6008517369627953 3.07817280292511,0.5775971338152885 m-7.935313582420349,-3.941323161125183 l-1.6242806613445282,-0.28585147112607956 -2.9873856902122498,-0.7133447378873825 m7.701820731163025,1.7954778671264648 l1.2432218343019485,-0.6487733125686646 2.5923126935958862,-0.9814015030860901 m-6.9703978300094604,2.9470551013946533 l-0.9643925726413727,0.09612799622118473 -1.3201916217803955,-0.17898229882121086 m2.9001545906066895,-4.598468244075775 l-0.4540564864873886,-0.6940948218107224 m0.27790410444140434,1.4243312180042267 l0.12266222387552261,-0.4535914957523346 m1.4489749073982239,0.36181434988975525 l4.02976930141449,-1.3612833619117737 m66.99724976031575,15.217387370103097 l-2.7645161747932434,-3.9655789732933044 -1.123826578259468,-3.957972228527069 l0.20321043208241463,-2.4618016183376312 1.0792117565870285,-2.102346271276474 l1.7857353389263153,-1.8391866981983185 2.514670193195343,-1.5036165714263916 l3.1564071774482727,-0.9489647299051285 3.4035304188728333,-0.23568492382764816 l4.299437403678894,0.8367036283016205 2.64097660779953,1.3942345976829529 l2.424304187297821,2.4430546164512634 1.1863002926111221,2.3330198228359222 l0.6581294536590576,3.2136422395706177 -0.17832770943641663,3.3298268914222717 l-0.6548817455768585,1.9407229125499725 -1.6752098500728607,2.3877866566181183 l-1.6420510411262512,1.399192214012146 -2.953270375728607,1.422533392906189 l-3.9236479997634888,0.7067075371742249 -4.046999514102936,-0.0008262838673545048 l-2.5417405366897583,-1.2551511824131012 -1.5555858612060547,-1.5283600986003876 m3.6822548508644104,-7.277891635894775 l-0.10772868059575558,1.6568952798843384 0.14136121608316898,1.964363157749176 l0.460963174700737,0.7980442047119141 1.4504441618919373,-0.00024051769287325442 l0.9751799702644348,-0.8207890391349792 0.3825804591178894,-1.1208639293909073 l-0.2764827199280262,-1.5785394608974457 -1.296619474887848,-0.5908520892262459 m7.145301103591919,0.38319945335388184 l-0.14044389128684998,2.1431224048137665 0.8785339444875717,1.4501354098320007 l0.707799419760704,0.25342894718050957 0.9723484516143799,-0.5472816899418831 l0.5096998438239098,-1.1595316231250763 -0.021387329325079918,-1.2573252618312836 l-0.8644441515207291,-1.5595246851444244 -1.1854209005832672,-0.7708624750375748 m-9.475045204162598,-3.63118052482605 l-0.7008544355630875,-1.3037994503974915 -0.7442643493413925,-1.2320883572101593 l-0.581713505089283,-1.4846697449684143 -0.10343136265873909,-1.0675935447216034 l0.8239105343818665,-1.719440519809723 1.3617417216300964,-0.9064675867557526 l1.381242424249649,-0.12982122600078583 1.7501439154148102,0.9814280271530151 l1.5917111933231354,2.285248339176178 0.5885461717844009,2.2000999748706818 m3.8651981949806213,-0.33470988273620605 l2.9618829488754272,-2.5095322728157043 2.072461247444153,-0.8690882474184036 l1.8345558643341064,0.15095696784555912 0.8675016462802887,0.9741664677858353 l0.42914319783449173,2.0534437894821167 -0.5727234855294228,2.7253207564353943 l-1.5162870287895203,1.7376968264579773 m-13.056899309158325,1.7858418822288513 l-0.9350991994142532,0.24008909240365028 -0.708521232008934,0.5674372985959053 l-1.016341969370842,1.5736500918865204 0.2589191682636738,0.4517024755477905 m6.1786627769470215,-2.654333710670471 l0.5182206630706787,1.250956654548645 m-3.700752854347229,-1.486867219209671 l-0.19590161740779877,-0.1607261225581169 m0.26745425537228584,-1.3194231688976288 l1.6967804729938507,-1.3871918618679047 0.19641432911157608,0.2732587419450283 l-0.43764498084783554,0.8020222932100296 m-1.7575176060199738,-0.8220884203910828 l2.0228740572929382,-1.6100634634494781 3.574397563934326,-1.9443842768669128 m-5.102423429489136,4.246942102909088 l2.989455461502075,-0.09253958240151405 m-4.555838704109192,0.25215091183781624 l1.8476073443889618,-0.062340814620256424 m-1.537131518125534,-1.8439443409442902 l0.15282202512025833,-0.4446275904774666 m1.443079262971878,0.3097711317241192 l-1.685459315776825,-0.5662378296256065 m74.73370680585504,9.464906318789872 l-2.463417500257492,-3.1519153714179993 -0.8041873574256897,-3.2812312245368958 l0.44816523790359497,-2.1247398853302 1.3214614987373352,-1.7826056480407715 l2.1008528769016266,-1.514344960451126 2.7748948335647583,-1.0772787034511566 l4.551049470901489,-0.557398833334446 3.5403871536254883,0.3049975633621216 l3.814379572868347,1.4756757020950317 2.297229766845703,1.7451271414756775 l1.7776085436344147,2.612013816833496 0.7091308385133743,2.494232803583145 l0.08167511783540249,3.109356462955475 -0.5063027516007423,1.8884502351284027 l-0.9418117254972458,1.491667926311493 -2.266187071800232,1.9063590466976166 l-3.4756943583488464,1.4344051480293274 -7.537482380867004,-0.09855538606643677 l-2.8022435307502747,-1.3933239877223969 -1.5182702243328094,-1.5947368741035461 l-1.0866212099790573,-2.609628438949585 m5.285930037498474,-1.7643344402313232 l-0.20138412714004517,2.1077653765678406 0.01633732463233173,2.009951025247574 l0.6280919164419174,0.9734617918729782 1.623283326625824,-0.00017535938241053373 l1.0720118880271912,-0.8694132417440414 0.4907524585723877,-1.298268437385559 l-0.1507731806486845,-1.8315750360488892 -0.538518875837326,-0.5455013737082481 m6.239250302314758,0.4364883527159691 l-0.09022983722388744,2.0943549275398254 0.7654374837875366,1.6829612851142883 l1.078321784734726,0.5870665609836578 1.447288691997528,-0.22522417828440666 l0.8823941648006439,-1.0159815847873688 0.3132970258593559,-1.3184022903442383 l-0.41016850620508194,-1.8951641023159027 -0.9143267571926117,-1.2198663502931595 l-1.192919760942459,-0.6377554684877396 m-10.297455787658691,-4.28150087594986 l-0.3348447382450104,-0.8462009578943253 -0.2924558147788048,-2.7023273706436157 l0.804513543844223,-1.3117831945419312 1.2652552127838135,-0.5610324442386627 l1.8247099220752716,0.30077170580625534 1.7893919348716736,1.606348603963852 l0.8331543207168579,2.4488113820552826 m2.686258852481842,-0.6314461678266525 l2.167833000421524,-2.189466208219528 0.9109977632761002,-0.17806721851229668 l1.2887877225875854,1.1244767904281616 0.16654003411531448,2.6980507373809814 l-1.0449155420064926,1.426217406988144 m-10.419816970825195,1.2528102099895477 l-1.3034111261367798,0.4254547879099846 m5.3703367710113525,-0.12227864004671574 l0.16297271475195885,-0.4358823597431183 m-3.6169758439064026,2.427205890417099 l-0.8832096308469772,-0.4344002529978752 -2.2045017778873444,-1.1992216110229492 m4.281361997127533,1.9802628457546234 l2.17872753739357,-0.8468989282846451 2.871587574481964,-1.1738859862089157 m-5.346912741661072,2.4512505531311035 l3.307604491710663,0.0618889182806015 m-4.492180943489075,-3.021130859851837 l1.8762537837028503,-0.2529849670827389 m-1.5162482857704163,-0.7935242354869843 l1.4642564952373505,-0.737084373831749 m69.80332304374315,4.883476097675157 l-2.1332471072673798,-2.312273681163788 -0.4891788214445114,-2.5474298000335693 l0.7246392965316772,-1.659858524799347 1.5645553171634674,-1.3328838348388672 l2.384660094976425,-1.0551796108484268 3.10153067111969,-0.5852755904197693 l5.280628204345703,-0.0005913636414334178 4.594444632530212,1.2297037243843079 l3.3081093430519104,2.0219624042510986 1.580089032649994,1.9593478739261627 l0.7450709491968155,2.05758199095726 0.18383095040917397,2.8392186760902405 l-0.41632477194070816,1.7817506194114685 -0.8838700503110886,1.3836346566677094 l-2.309616506099701,1.7689640820026398 -3.6572489142417908,1.2777142226696014 l-8.032656908035278,-0.6414656341075897 -2.82041996717453,-1.7366667091846466 l-2.10012748837471,-2.701895833015442 -1.0998313874006271,-3.2827791571617126 m6.886280179023743,2.647807002067566 l-0.3652137517929077,1.9215486943721771 -0.07875612005591393,2.052142769098282 l0.6757941842079163,0.9275063872337341 1.4891114830970764,-6.86702423990937e-05 l0.943748727440834,-0.8056172728538513 0.4078226536512375,-1.1787784844636917 l0.0001061952661984833,-1.3158591091632843 -0.8461254090070724,-1.3341648876667023 m6.803401708602905,0.6226960569620132 l-0.1927512139081955,1.8021532893180847 0.6910380721092224,1.9066084921360016 l0.6375841051340103,0.4398537427186966 1.0466636717319489,-0.14361129142343998 l0.7710256427526474,-0.8688981831073761 0.31475067138671875,-1.3075937330722809 l-0.35577643662691116,-1.925918459892273 -0.8650664985179901,-1.1517264693975449 m-9.45692241191864,-6.012847423553467 l-0.40625855326652527,-0.5555195733904839 -3.4245290407852735e-05,-1.5120963752269745 l0.9414324909448624,-0.9257257729768753 0.9583192318677902,0.6533174216747284 l0.4943384602665901,1.7612873017787933 -0.21995238959789276,0.8184894919395447 m0.6135185807943344,0.9657972306013107 l2.235037237405777,-2.035732716321945 m-4.100892245769501,3.01061749458313 l2.117360234260559,0.04576256964355707 2.181578576564789,-0.021494508255273104 m-5.275030136108398,0.2140490524470806 l1.500135064125061,0.3010969050228596 m-1.0108944028615952,-0.43821346014738083 l0.41291147470474243,-0.059361192397773266 m0.7751237601041794,-0.8950147032737732 l0.2030608244240284,-0.46365879476070404 m-1.3701996207237244,-0.6009990349411964 l1.1277854442596436,-1.3444013893604279 m-0.13467145152390003,0.735468789935112 l-1.340460628271103,-0.3842969238758087 m72.7972346584329,4.1583672320575715 l-1.77317276597023,-1.4607344567775726 -0.23593507707118988,-1.6867363452911377 l1.0209416598081589,-1.1892124265432358 1.837385892868042,-0.8358050882816315 l2.586335241794586,-0.4783361777663231 5.719471573829651,0.35427387803792953 l4.2342618107795715,1.0688245296478271 3.543557822704315,1.7605975270271301 l1.6242165863513947,1.411302536725998 0.8430394530296326,1.3846129179000854 l0.4894721880555153,2.2625304758548737 -0.3075157105922699,2.5583162903785706 l-0.9633644670248032,1.4100909233093262 -2.5790640711784363,1.5745775401592255 l-9.839969277381897,0.2193942479789257 -4.698385000228882,-3.1147828698158264 l-1.4164242148399353,-2.2360701858997345 -0.744786262512207,-3.080134391784668 l0.6501777470111847,-2.152370661497116 m7.784998416900635,5.035955309867859 l-0.4201699420809746,3.9012742042541504 0.407087504863739,0.6067361310124397 l1.5370646119117737,-0.0001839361539168749 0.5498837679624557,-0.5264308303594589 l0.34288689494132996,-1.5578162670135498 0.00019701768906088546,-1.3432767987251282 l-0.4976345971226692,-0.7467228174209595 -1.1915013194084167,-0.0004110224836040288 l-0.9346025437116623,0.655728206038475 m4.321826696395874,0.4231547936797142 l-0.015063398750498891,1.6224752366542816 0.5509183555841446,1.1789698153734207 l0.8754210919141769,0.48280462622642517 1.242009773850441,-0.22039400413632393 l0.6349822878837585,-0.8852830529212952 0.005877265357412398,-1.1405259370803833 l-0.9080377221107483,-1.373227834701538 m-6.438302993774414,-4.445972144603729 l-0.5461592227220535,-0.04602734465152025 -2.1424728631973267,-0.8862034976482391 l-1.2234678864479065,-0.9855351597070694 m6.9724732637405396,2.3290179669857025 l2.596495747566223,-1.4172406494617462 m-5.467689037322998,3.441454768180847 l3.5410818457603455,0.4521368443965912 m-3.488926589488983,-1.3397277891635895 l2.313176840543747,0.25944922119379044 m-2.557906210422516,-1.6493061184883118 l1.2397735565900803,-0.31281325966119766 m-1.10822893679142,-0.6080356240272522 l0.8105472475290298,-1.1299817264080048 m68.79008776752016,0.1656225796068611 l-1.3842058181762695,-0.6584138423204422 0.0056536810006946325,-0.8864416182041168 l1.5872593224048615,-0.9086813032627106 2.6740893721580505,-0.00759891583584249 l3.461316227912903,0.5926646292209625 3.98135244846344,1.5062829852104187 l4.386098682880402,1.1677854508161545 3.4336555004119873,0.738806277513504 l2.622910737991333,0.2408081479370594 1.2558147311210632,-0.8055740594863892 l2.8849217295646667,-4.007080793380737 -0.27785129845142365,6.549835801124573 l-1.0018013417720795,3.722149431705475 -1.7785057425498962,2.6066842675209045 l-1.656612604856491,1.0541566461324692 -10.332342386245728,-0.13048838824033737 l-6.584529876708984,-2.470676153898239 -2.1714013814926147,-2.13006854057312 l-1.2997451424598694,-2.910033166408539 m8.12451958656311,3.3338889479637146 l-0.8366090804338455,1.9164708256721497 -0.094393789768219,1.4897021651268005 l0.5430591478943825,0.8730137348175049 1.0068202763795853,0.4119856655597687 l1.5813574194908142,-0.2311025746166706 0.8508036285638809,-0.8734186738729477 l0.33424612134695053,-1.2048868089914322 -0.24695802479982376,-1.057092398405075 l-1.18927001953125,-1.0484135150909424 m6.687310338020325,0.8544949442148209 l-0.6486858427524567,1.8222831189632416 0.30285047367215157,1.6775666177272797 l0.9507867693901062,0.6863429397344589 1.4955414831638336,-0.06427674554288387 l0.8474481850862503,-0.8781713247299194 0.35170599818229675,-1.8680047988891602 l-0.4165976122021675,-1.19145929813385 m-8.297941088676453,-4.771649241447449 l0.0008121215068968013,-0.0012588333629537374 m4.780873954296112,0.12453035451471806 l-0.00030358220101334155,-0.002026875881711021 m-4.21946108341217,1.3256168365478516 l3.2070857286453247,-0.5981110781431198 m-4.348781406879425,-0.09556152857840061 l1.823318600654602,-0.39311520755290985 m0.074425651691854,1.076347753405571 l-2.3963436484336853,1.1550555378198624 m70.03478950653516,-5.4852410111925565 l-0.9872258454561234,0.13665338978171349 0.12861400842666626,-0.17276858910918236 l1.7046360671520233,0.07012650836259127 2.6509976387023926,0.8854727447032928 l3.5291725397109985,1.0909530520439148 4.482316076755524,1.0451209545135498 l4.389340877532959,0.633833035826683 3.674987554550171,-0.010531102307140827 l2.7098122239112854,-0.5134120211005211 0.9801621735095978,-1.1370189487934113 l1.8260599672794342,-5.2449387311935425 -0.9507914632558823,7.193620204925537 l-1.0160524398088455,4.073210656642914 -1.6804887354373932,2.048664838075638 l-11.375104188919067,0.5466341972351074 -4.219355583190918,-0.6554584950208664 l-4.578791260719299,-2.48762845993042 -1.210169643163681,-1.895538568496704 m7.264383435249329,1.5947531163692474 l-1.0837437957525253,2.102932780981064 -0.13171441853046417,1.5415860712528229 l0.5513878539204597,1.0097228735685349 1.084362268447876,0.5284516140818596 l1.8157005310058594,-0.015103515470400453 1.0704214870929718,-0.7768655568361282 l0.5034442245960236,-1.1930091679096222 -0.12153033167123795,-1.8019810318946838 l-0.7616499811410904,-0.5806988477706909 m4.169973134994507,1.5167923271656036 l-0.1803872361779213,1.9467902183532715 0.15119425021111965,1.4212089776992798 l0.6862360239028931,0.2973256818950176 2.042407840490341,-1.131303310394287 m-5.402123928070068,-7.299030423164368 l-0.4039425775408745,2.2219431400299072 m3.4816819429397583,-1.9155353307724 l0.15485791489481926,2.336842715740204 m-5.356992483139038,-2.791728973388672 l-1.5072163939476013,0.9530068188905716 m2.21749946475029,-0.9220025688409805 l-1.341397613286972,0.6448182463645935 m71.40068595297635,-7.251449262103051 l-0.6006081029772758,0.955742597579956 0.33645063638687134,0.5004054680466652 l2.0881569385528564,1.0592593252658844 2.535068392753601,1.371559202671051 l3.0731958150863647,1.1164996027946472 4.161604344844818,0.6764943897724152 l4.5709919929504395,-0.0002923637111962307 4.272528886795044,-0.49249865114688873 l3.965129554271698,-1.9313973188400269 0.34965749830007553,-1.6698218882083893 l-1.0298782587051392,-0.2035774290561676 -5.999595522880554,1.824188232421875 l-5.009207725524902,2.1302689611911774 -6.206781268119812,0.23906707763671875 l-3.424869477748871,-1.4824560284614563 m8.033117651939392,-0.6928430497646332 l-0.6078098714351654,2.957829236984253 -0.27941010892391205,4.207241535186768 l0.3434380888938904,2.5874891877174377 0.46033482998609543,0.7167279720306396 l1.3992735743522644,0.7058510184288025 2.431616485118866,0.00016671983757987618 l1.289822906255722,-0.8276867121458054 0.762554407119751,-1.3480645418167114 l0.0004095449185115285,-4.2132484912872314 -1.7788387835025787,-3.9488092064857483 m-4.8511821031570435,-0.7119380682706833 l-0.31906746327877045,1.9487744569778442 -0.2235332690179348,1.381114423274994 m3.325503170490265,-2.894478142261505 l0.047052730806171894,2.458401769399643 m-2.4992941319942474,-0.5183598399162292 l1.9128532707691193,0.25623003020882607 m-2.696426808834076,-1.9192543625831604 l1.3749158382415771,-0.014792073052376509 m68.52633994956705,-2.6161845291699137 l-0.25025786831974983,1.8978993594646454 0.4942683130502701,1.2071694433689117 l2.136671543121338,2.145446091890335 1.7679348587989807,1.0352379083633423 l3.6212924122810364,0.9380671381950378 4.274841547012329,0.55658970028162 l5.052433013916016,0.13960108160972595 4.4909751415252686,-0.4767005890607834 l2.9886797070503235,-1.1059284955263138 1.0586602985858917,-5.7103753089904785 l-1.6035373508930206,-0.0023053641780279577 -9.04184103012085,-0.167129747569561 l-6.722425222396851,-0.1030807662755251 -4.605456590652466,0.04749747924506664 l-1.3910238444805145,0.03576109418645501 m7.402925491333008,6.876698136329651 l-0.04326169844716787,3.7902814149856567 0.6651782244443893,1.531357616186142 l0.9939861297607422,0.7717361301183701 1.777738332748413,0.4384301230311394 l0.5934333801269531,-0.3233776241540909 0.9888098388910294,-2.279820293188095 l0.00016793688701000065,-2.5969234108924866 -1.601463109254837,-1.0320954769849777 l-2.970670163631439,-0.3668877109885216 m-0.2654225006699562,-1.755717545747757 l-0.5169538781046867,3.8336393237113953 m3.5939455032348633,-3.007430136203766 l0.2138618379831314,3.3683395385742188 m-5.080050826072693,-3.4099701046943665 l2.4917082488536835,-0.026342510245740414 m69.05493286823912,-4.412868890967729 l0.07981402799487114,2.8835350275039673 0.6135178729891777,2.0268747210502625 l2.1597646176815033,2.684646248817444 1.7787396907806396,1.1378530412912369 l2.2318296134471893,0.6641180068254471 4.960133731365204,0.5302115902304649 l5.527905821800232,0.13000918552279472 4.70476359128952,-0.47323189675807953 l4.768940806388855,-1.8025186657905579 -0.43040111660957336,-7.617497444152832 l-3.9106205105781555,-0.8765271306037903 -9.194386601448059,0.04619731102138758 l-5.714643597602844,0.5506094917654991 -3.09855192899704,0.3175358846783638 l-1.6567686200141907,0.2797110751271248 m5.904739499092102,7.408936619758606 l-0.03851910587400198,3.4788277745246887 0.3747144341468811,1.1817282438278198 l0.7751168310642242,0.6597986072301865 1.919243037700653,0.00012864975360571407 l0.5107072368264198,-0.5749699473381042 0.4207376390695572,-2.6919373869895935 l-2.6090988516807556,-1.9191710650920868 m-1.0481257736682892,-3.1499671936035156 l-0.32302387058734894,3.8380223512649536 m1.3782766461372375,-2.499847412109375 l3.057037889957428,0.5978739261627197 " fill="none" stroke="black" stroke-width="1" /></svg>