<?xml version="1.0" encoding="utf-8" ?>
<svg baseProfile="full" height="92.60020635912042" version="1.1" width="825.2836721308995" xmlns="http://www.w3.org/2000/svg" xmlns:ev="http://www.w3.org/2001/xml-events" xmlns:xlink="http://www.w3.org/1999/xlink"><defs /><rect fill="white" height="92.60020635912042" width="825.2836721308995" x="0" y="0" /><path d="M25,25 m0.0,0.0 m38.16938625066541,15.199792361072468 l-0.391494445502758,-0.48596344888210297 -1.6144023835659027,-0.4917273670434952 l-4.139629006385803,-0.1437737327069044 -3.3685854077339172,1.0150907933712006 l-2.7475547790527344,2.148599922657013 -1.5532825887203217,2.366815358400345 l-1.539406180381775,6.1310964822769165 0.36300551146268845,6.261253356933594 l1.8060775101184845,4.122927188873291 2.429855167865753,2.801457941532135 l1.951361894607544,1.3401931524276733 2.728174328804016,0.9374565631151199 l3.095056712627411,0.11109292507171631 1.8329951167106628,-0.9071548283100128 l1.4916521310806274,-0.3838032856583595 1.5637809038162231,0.7040185481309891 l2.360895872116089,0.9244154393672943 3.3952596783638,-0.00011058375093853101 l2.285391241312027,-0.6105590984225273 5.420886874198914,-2.4726276099681854 l1.8679498136043549,-2.7025896310806274 0.9876833111047745,-3.9554455876350403 l0.006922122556716204,-6.661849021911621 -1.3776777684688568,-3.9228129386901855 l-2.0491622388362885,-3.1852591037750244 -2.5819265842437744,-2.103823721408844 l-2.716924548149109,-1.061319261789322 -2.506822943687439,-0.09322007186710835 l-1.8651588261127472,0.5175873637199402 -1.3367438316345215,0.6152540817856789 l-0.87513267993927,0.30416084453463554 -0.7982571423053741,-0.3713291510939598 l-0.9414249658584595,-1.095467135310173 -1.3123661279678345,-2.8889644145965576 l-1.4827552437782288,-4.051902592182159 m3.3339717984199524,6.567351222038269 l0.8373119682073593,-2.548159658908844 1.3126564025878906,-2.1653208136558533 l1.507110595703125,-1.4242702722549438 1.5399035811424255,-0.775206983089447 l1.3551560044288635,-0.18961749970912933 1.4611510932445526,0.5506501719355583 l0.5616356432437897,0.8444835990667343 0.027652436401695013,1.6650117933750153 l-1.3488949835300446,2.429315894842148 m69.17768740906013,4.98583694030458 l-0.196100864559412,-0.7095200568437576 -1.465020477771759,-0.5736794695258141 l-3.5971522331237793,-0.2676011249423027 -2.7966883778572083,0.8319886773824692 l-2.4238908290863037,1.9744876027107239 -1.272304356098175,2.1686510741710663 l-1.0044343769550323,6.133890748023987 0.9693559259176254,5.330330729484558 l2.1927927434444427,4.292326867580414 2.4365234375,2.7622181177139282 l2.2745122015476227,1.453876942396164 1.7866460978984833,0.5090340971946716 l3.089909851551056,-0.4878848046064377 1.1590922623872757,-0.5608105286955833 l1.067979782819748,0.03675203304737806 3.013916015625,0.9567323327064514 l1.7081190645694733,0.3889918327331543 2.851404845714569,-0.00023752683773636818 l2.1780698001384735,-0.7011877745389938 4.381492435932159,-2.679934799671173 l1.7367447912693024,-2.392134517431259 1.626448631286621,-5.995191335678101 l3.601898242777679e-05,-5.366073846817017 -1.2871891260147095,-3.6401429772377014 l-1.4714044332504272,-2.2515928745269775 -2.567753791809082,-2.1885770559310913 l-2.7893567085266113,-1.0183877497911453 -2.6724973320961,-0.10903038084506989 l-1.9584551453590393,0.6070179864764214 -1.5022201836109161,1.0372526943683624 l-1.4182573556900024,0.9063593298196793 -0.9444628655910492,0.50399549305439 l-0.811200737953186,-0.1675877720117569 -0.8681856840848923,-0.8570303022861481 l-0.9635628014802933,-1.351686269044876 -1.9203303754329681,-5.2863335609436035 l-0.967915877699852,-3.2098084688186646 -0.38628511130809784,-1.4414668083190918 m3.8030824065208435,7.989599704742432 l0.5842692404985428,-2.7424708008766174 1.191900596022606,-2.2542019188404083 l1.3508138060569763,-1.3222245872020721 1.4534085988998413,-0.6522619724273682 l1.2803806364536285,-0.0659374101087451 1.3194194436073303,0.8006295561790466 l0.4908568039536476,0.9393701702356339 -0.14635968022048473,1.6188554465770721 l-1.1264198273420334,1.7589093744754791 m71.32742681528498,6.124896271080615 l-0.03240248188376427,-0.9510482102632523 -1.287410706281662,-0.6356075406074524 l-2.8088828921318054,-0.2761704660952091 -2.5467178225517273,0.7283471524715424 l-1.5071310102939606,1.2256202101707458 -1.383858472108841,2.7607983350753784 l-0.09400101378560066,5.647898316383362 2.7889975905418396,6.922712922096252 l2.044053375720978,2.9665616154670715 1.8813543021678925,1.7982301115989685 l1.622820496559143,1.1364489793777466 2.0994922518730164,0.6486169248819351 l1.3591006398200989,-1.0614348948001862 1.0451005399227142,-1.1252038925886154 l1.0005470365285873,0.6453479081392288 1.7941467463970184,1.5708862245082855 l2.395162433385849,0.6605936586856842 2.5129765272140503,5.7942074818129186e-05 l3.7923985719680786,-1.660291850566864 1.8645274639129639,-1.8486885726451874 l2.289271801710129,-4.852160811424255 0.6857799738645554,-4.386947154998779 l2.9285597520356532e-05,-4.651118814945221 -0.9320653229951859,-4.045617580413818 l-1.7275579273700714,-3.3337193727493286 -1.6689606010913849,-1.7694230377674103 l-1.7857855558395386,-1.0052092373371124 -1.9762857258319855,-0.4226766899228096 l-2.337206155061722,0.48645615577697754 -1.4502324163913727,0.9982688724994659 l-1.5312577784061432,2.0864546298980713 -1.2654376029968262,1.1136633902788162 l-1.0863874852657318,0.5457060039043427 -1.2590929865837097,0.032578776590526104 l-1.3509970903396606,-0.5611623078584671 -1.2547558546066284,-0.9849677234888077 l-1.077808290719986,-0.9290781617164612 -1.4919249713420868,-1.9982321560382843 l-1.1429137736558914,-2.241814136505127 m7.420750856399536,5.531367659568787 l0.345088355243206,-3.5155045986175537 1.2750229239463806,-4.326375722885132 l1.1830499768257141,-1.775684803724289 1.238199695944786,-0.8432697504758835 l1.7343203723430634,-0.23946905508637428 1.1235881596803665,0.5619777366518974 l0.850505456328392,1.7464639246463776 -0.4304303601384163,2.762850522994995 l-1.2291990965604782,1.7042921483516693 -1.4352606236934662,1.0743369162082672 l-1.1570288240909576,0.21274300292134285 -1.2494423985481262,-0.6035833433270454 m71.19135970008983,7.444509576371274 l0.14128084294497967,-1.1666425317525864 -1.0736088454723358,-0.6474889069795609 l-2.15219184756279,-0.33426839858293533 -1.891845464706421,0.5660952255129814 l-1.0492641478776932,1.1473221331834793 -0.6701009720563889,2.5857359170913696 l2.4919861555099487,7.528244853019714 2.3284123837947845,3.369288444519043 l1.3611871004104614,3.3300024271011353 1.0894814133644104,2.0890288054943085 l1.1822567135095596,1.3427899777889252 2.4756011366844177,1.13601416349411 l1.2929297983646393,-0.00012596849046531133 1.5154452621936798,-1.178760603070259 l1.1242708563804626,-1.027800813317299 0.8545893430709839,-0.5320044606924057 l2.086164653301239,-0.30860239639878273 1.4760509133338928,0.25296762585639954 l4.108407199382782,0.9890086203813553 2.4263206124305725,-0.9218323975801468 l1.4004796743392944,-1.6474685072898865 1.3292434811592102,-3.3236607909202576 l0.9765324741601944,-6.662222146987915 -0.44846978038549423,-4.000773131847382 l-1.3410769402980804,-3.8026821613311768 -1.4382393658161163,-2.341262400150299 l-1.623106300830841,-1.601458489894867 -1.8377381563186646,-0.9953834116458893 l-2.9227539896965027,-0.5963056907057762 -2.296016812324524,0.42679909616708755 l-2.505021095275879,1.6280607879161835 -1.3447880744934082,1.5809756517410278 l-1.3435828685760498,1.363728940486908 -0.8844820410013199,0.9119521081447601 l-1.0047100484371185,0.5965437367558479 -0.9839087724685669,0.08534494787454605 l-1.0906844586133957,-0.5898025631904602 -1.0763471573591232,-1.2543265521526337 l-1.426089107990265,-3.456374406814575 -0.9305395185947418,-3.3155548572540283 l-0.5384598299860954,-2.7640610933303833 -0.08914162404835224,-2.141919881105423 l0.6298042088747025,-1.9351249933242798 1.0320796072483063,-0.9715715795755386 m2.4065157771110535,8.992226719856262 l0.5355271324515343,-3.2631686329841614 1.0977810621261597,-2.3883120715618134 l1.7344218492507935,-1.8034951388835907 1.332276612520218,-0.4696861281991005 m-3.4543606638908386,5.965071320533752 l0.10559430345892906,-0.5181515589356422 1.013110727071762,-1.0018633306026459 l1.2581923604011536,-0.6084242463111877 0.9696348756551743,0.0387640786357224 l0.7706411927938461,0.8524665236473083 5.965764557913644e-05,1.139066368341446 l-0.6242135912179947,0.6945803761482239 -2.3537439107894897,0.6752794235944748 l-0.9683467447757721,-0.3348774090409279 m79.21333620612586,9.689918384601697 l0.3077308461070061,-1.3733349740505219 -0.9028416126966476,-0.6776045262813568 l-1.3756746053695679,-0.38727670907974243 -1.2078291177749634,0.28724048286676407 l-0.5376654490828514,1.2054161727428436 0.8338157832622528,3.044945001602173 l3.7996044754981995,5.3397417068481445 2.166670113801956,3.337966203689575 l1.0631032288074493,1.7000319063663483 0.7574617862701416,1.5292814373970032 l0.4769255965948105,1.1569185554981232 0.5695774406194687,2.291240394115448 l0.7551995664834976,1.0056710243225098 2.6249247789382935,0.6785967200994492 l1.4651188254356384,-1.9081796705722809 1.2947669625282288,-2.082931399345398 l0.9952167421579361,-1.8698415160179138 1.2230978906154633,-3.6233553290367126 l1.1924789100885391,-2.351590543985367 3.816077709197998,-1.3374850153923035 l2.038918286561966,-1.54121533036232 1.5598288178443909,-2.490125000476837 l0.4977821558713913,-2.2630475461483 -0.14055602252483368,-3.0637288093566895 l-1.2680518627166748,-3.2126501202583313 -1.5732315182685852,-2.092772275209427 l-1.7845124006271362,-1.36794775724411 -2.1334321796894073,-0.8110795170068741 l-2.1047908067703247,-0.22558771073818207 -2.837386131286621,0.7074613124132156 l-1.9072932004928589,1.3781188428401947 -1.868186891078949,2.640489637851715 l-1.4015679061412811,1.9973699748516083 -1.011253371834755,1.1728528141975403 l-0.9871821105480194,0.8343281596899033 -1.1571433395147324,0.5134119465947151 l-1.3043513894081116,0.1447976939380169 -1.2976737320423126,-0.13682489283382893 l-1.3121093809604645,-0.405648909509182 -2.055525630712509,-1.2498262524604797 l-1.1327600479125977,-0.5151810869574547 -1.6309191286563873,-0.5917388573288918 l-2.059773951768875,-0.37944409996271133 -2.4725396931171417,0.4303091764450073 l-1.0778307169675827,1.0451653599739075 -0.6432754546403885,2.500777840614319 l1.2300126254558563,4.2937880754470825 1.9613514840602875,2.871139347553253 l1.6723325848579407,1.5777227282524109 m7.724096179008484,-16.350775957107544 l0.7621356099843979,-4.6668365597724915 0.5676136165857315,-1.9435344636440277 m-0.3210492432117462,-0.7091082632541656 l-0.0368439732119441,-0.5568695068359375 0.7619091123342514,-0.8210345357656479 l0.704883486032486,-0.0155152368824929 0.13582799583673477,1.4079254865646362 l-0.7684724777936935,0.8774595707654953 -0.5768908187747002,-0.26883209124207497 l-0.0637268228456378,-1.1772995442152023 0.6343996524810791,-0.17791466787457466 l-0.006649877177551389,0.6908031553030014 -0.7589571177959442,0.3644336387515068 m0.3431622311472893,4.985217452049255 l0.45729853212833405,-3.3048391342163086 0.5409527197480202,-0.674627348780632 l1.0394024103879929,-0.04830271005630493 -0.05732812453061342,2.2009214758872986 m73.87680237618042,7.422460261150263 l0.4589317739009857,-1.554182916879654 -0.5935580655932426,-0.6384940445423126 l-0.5267162621021271,-0.6965147703886032 -0.28859496116638184,-0.3757341578602791 l0.8226159960031509,0.0351490150205791 6.247442960739136,2.7368244528770447 l1.545800119638443,1.1705264449119568 1.202334240078926,1.1278405040502548 l2.4334895610809326,-1.4087371528148651 1.4437289535999298,-1.4664451777935028 l1.4043442904949188,-0.8356516808271408 2.403743863105774,-0.6618045270442963 l1.4701597392559052,0.2556910738348961 1.5431831777095795,1.4721392095088959 l1.2266261875629425,3.0444255471229553 0.00022012885892763734,4.924696683883667 l-0.9009851515293121,5.118116140365601 -1.1995237320661545,4.224385619163513 l-1.6103731095790863,3.3832499384880066 -2.001366764307022,2.445862889289856 l-1.4563962817192078,1.0230056941509247 -2.069353610277176,0.6040441244840622 l-2.523690164089203,-0.19424989819526672 -1.065194457769394,-0.6988322734832764 l-1.5389582514762878,-2.9815196990966797 -1.374569982290268,0.3445177525281906 l-1.577167809009552,1.4284056425094604 -1.7014135420322418,1.007099524140358 l-1.5841180086135864,0.1136179268360138 -1.8452657759189606,-0.7565262913703918 l-1.3396474719047546,-1.2650208175182343 -1.0127043724060059,-1.7408578097820282 l-0.6603771448135376,-2.149358093738556 -0.30717337504029274,-2.372993677854538 l0.11479555629193783,-3.8613495230674744 0.9765730798244476,-4.541313946247101 l1.0929437726736069,-2.652059495449066 1.8351085484027863,-2.7516087889671326 l1.6353189945220947,-1.477683186531067 1.6224132478237152,-0.7959996163845062 l1.262943297624588,-0.10855821892619133 1.2281188368797302,0.5949065089225769 l1.5591627359390259,2.6345324516296387 -0.3683919459581375,0.06845915224403143 l-1.5599463880062103,-1.524980068206787 -0.872734859585762,-1.7179685831069946 l-0.7676851004362106,-6.305896639823914 0.9147829562425613,-0.19365208223462105 l2.851954400539398,1.260385811328888 1.0765674710273743,3.909115195274353 m-2.4566908180713654,-1.9022001326084137 l-1.5353934466838837,-4.031656086444855 -1.1832931637763977,-1.7655803263187408 l-1.8768413364887238,-0.8337970077991486 m4.597290754318237,4.542587399482727 l0.04399946890771389,-2.0476868748664856 0.5694537237286568,-1.6203148663043976 l1.2040485441684723,-1.458062082529068 1.1465122550725937,-0.4910508170723915 l0.8961982280015945,0.18462570384144783 1.073184683918953,1.6440783441066742 l-0.4251841828227043,2.347765266895294 -0.9175939857959747,0.9112483263015747 m-4.638782441616058,0.21815558895468712 l-0.8496467024087906,-0.3944483771920204 -0.8556891977787018,-0.35207733511924744 l-0.7030507177114487,-0.3353779762983322 -0.40683336555957794,-0.06888629402965307 l0.07276352029293776,0.356157124042511 0.8218527585268021,0.8628028631210327 l0.7636763900518417,0.24262569844722748 m80.8248188129437,12.379220470320433 l0.5447567626833916,-1.6920791566371918 -0.30595842748880386,-0.5599410831928253 l0.2544827573001385,-0.6663572788238525 1.8231740593910217,-1.2057960033416748 l3.838549256324768,-0.46304967254400253 3.364737629890442,0.33174745738506317 l3.213658332824707,-0.03513983450829983 0.7261432707309723,0.2729654312133789 l1.0435675829648972,1.334158480167389 0.8083254098892212,3.143802285194397 l0.0003549673783709295,3.691151440143585 -0.54152000695467,3.7100932002067566 l-0.9692973643541336,3.1752657890319824 -0.9229422360658646,2.6627716422080994 l-1.1450274288654327,2.0200909674167633 -1.6179516911506653,1.4438842236995697 l-2.0067861676216125,0.7232405990362167 -2.3089753091335297,-0.19429942592978477 l-0.9902468323707581,-0.8697331696748734 -1.0698594152927399,-3.4053385257720947 l-1.0765597969293594,0.12754596769809723 -1.4843975007534027,2.18227818608284 l-1.5848107635974884,1.6217203438282013 -1.4726431667804718,0.39773624390363693 l-1.8742072582244873,-0.5331204459071159 -1.3250380754470825,-1.2875448167324066 l-0.8809521049261093,-1.7793720960617065 -0.41319791227579117,-2.093944102525711 l0.04742325283586979,-3.5177525877952576 -0.3103836625814438,-2.613091766834259 l-0.2697295509278774,-3.300829231739044 0.020013058092445135,-2.3448312282562256 l0.5010441318154335,-2.884909510612488 0.8671095967292786,-1.8720711767673492 l1.9227153062820435,-2.1363094449043274 1.8178585171699524,-1.0097118467092514 l2.6303458213806152,-0.4032401740550995 1.5379798412322998,0.837540328502655 l1.4854514598846436,2.2582440078258514 0.6484336405992508,2.6332494616508484 l-0.0488963071256876,0.4371105134487152 -1.245741993188858,-0.5525895580649376 l-1.9543075561523438,-2.776835560798645 -0.5778183043003082,-2.205149382352829 l0.11040684767067432,-4.220452606678009 1.2493204325437546,-2.9446840286254883 l1.2808868288993835,-1.066964641213417 1.9136925041675568,-0.2863394469022751 l1.2085487693548203,0.6528568267822266 2.327641248703003,6.5340059995651245 l0.033348246943205595,4.498289227485657 -0.6505052745342255,2.711919844150543 m-4.654043912887573,-10.47787070274353 l-0.7707145065069199,-1.361885666847229 -1.948770433664322,-2.258611023426056 l-1.7420022189617157,-0.9175106883049011 m6.157106161117554,3.5850080847740173 l-0.2104199305176735,-0.5714540183544159 0.23125486448407173,-2.0316264033317566 l0.5372718721628189,-1.126987487077713 1.0719458758831024,-0.957842692732811 l0.9840504825115204,-0.17864029854536057 1.0651243478059769,0.6429101526737213 l-0.2910701371729374,2.1537986397743225 -1.4578106999397278,1.227712258696556 m-4.10341203212738,-1.109049990773201 l-0.9625935554504395,-0.3670789301395416 -1.2035177648067474,-0.7683823257684708 l-0.4541586712002754,-0.004025457601528615 -0.011137925321236253,0.6540460884571075 l0.8823465555906296,0.8005660027265549 1.3066412508487701,-0.00021171073967707343 m1.8254661560058594,3.7743985652923584 l-0.29679901897907257,-0.7805389910936356 0.09250786155462265,-0.9159651398658752 l0.47964267432689667,-0.035238200798630714 -0.14551852829754353,0.8966022729873657 l-0.8930222690105438,0.3188852593302727 m80.22383743294085,8.359028193972335 l0.6250090897083282,-1.7482291162014008 -0.0578401330858469,-0.44934697449207306 l1.019338145852089,-0.692371279001236 3.3186516165733337,-0.8592861890792847 l4.163356721401215,-0.5632784590125084 2.8206682205200195,-0.08656994439661503 l1.4825381338596344,0.4154584929347038 1.829831749200821,1.531326174736023 l0.55307786911726,1.4578072726726532 8.478548807033803e-05,2.193719297647476 l-0.9922416508197784,2.5091132521629333 -1.9320280849933624,2.272856831550598 l-2.3610936105251312,1.4641700685024261 -0.36037586629390717,0.4524281248450279 l0.13879896141588688,1.2628212571144104 0.8941478282213211,6.094241738319397 l-0.8524290472269058,3.3112046122550964 -0.936523973941803,1.0997314006090164 l-1.729200929403305,0.61576709151268 -2.381879687309265,-0.2643965743482113 l-1.3848069310188293,-1.1677035689353943 -0.8275021612644196,-1.7123770713806152 l-0.5779529735445976,-5.291127562522888 -1.032090038061142,-0.8382652699947357 l-1.1870977282524109,-0.3220885619521141 -2.2121046483516693,0.6811220943927765 l-2.0995840430259705,2.106652557849884 -1.814517229795456,1.5954680740833282 l-1.749684363603592,0.7953257113695145 -2.035735100507736,0.09692073799669743 l-2.1713152527809143,-0.9896732121706009 -1.4455759525299072,-1.4796142280101776 l-0.9045488387346268,-1.8684285879135132 -0.7559449225664139,-5.137794613838196 l0.382678285241127,-4.071386754512787 0.971805602312088,-2.4006396532058716 l1.2593115866184235,-1.5899023413658142 1.4972873032093048,-0.9372565150260925 l2.3885932564735413,-0.4158713296055794 1.8117895722389221,0.42154572904109955 l2.1065835654735565,1.580769121646881 0.635504350066185,-0.8474305272102356 l1.1095987260341644,-3.97683322429657 1.4728958904743195,-6.114950180053711 l0.930265337228775,-1.7559579014778137 1.1012593656778336,-0.7624082267284393 l1.0834406316280365,0.004710833018179983 1.4049924910068512,1.145123839378357 l1.3526815176010132,2.609991729259491 0.44653013348579407,5.54584264755249 l-0.28687166050076485,3.9230877161026 m-4.517132639884949,-8.254851698875427 l-0.5918077379465103,-0.8549264073371887 -1.6826391220092773,-2.214353084564209 l-1.0118425637483597,-0.8583690971136093 -1.2689006328582764,-0.49843963235616684 l-1.5723240375518799,0.07797585800290108 -1.815115511417389,0.9971287846565247 l-0.9033574163913727,1.2088388949632645 -0.25894491001963615,1.1751414090394974 m6.3258689641952515,-0.8005231618881226 l-0.20211467519402504,0.39539575576782227 -0.0520618399605155,0.8224251866340637 l0.36290470510721207,0.37745151668787 0.2493908442556858,-1.3681389391422272 m5.0529080629348755,-0.3217199072241783 l-0.33975809812545776,0.1783796213567257 -0.023060671519488096,-0.27579450979828835 l-0.07783194538205862,-0.22681625559926033 m-3.3205872774124146,5.572367906570435 l0.10561676695942879,0.0924474187195301 0.07072008680552244,0.25989003479480743 l-0.38511764258146286,0.15295601449906826 -0.20167572423815727,-0.10793053545057774 l0.23512579500675201,-0.49428321421146393 m0.08329150266945362,4.449947476387024 l1.4090928435325623,-1.6836357116699219 0.21884886547923088,-0.7348781079053879 l-0.6364984065294266,-2.2257928550243378 -0.7867041975259781,-0.9303461760282516 l-0.7923438400030136,-0.04508516751229763 -0.5341912806034088,0.7308178395032883 m0.4955298453569412,7.760751843452454 l-1.3488106429576874,0.05531808827072382 -1.372504085302353,-0.015297034988179803 l-4.079848825931549,-0.8062926679849625 m86.86664594482863,0.5747820413671434 l0.6561882048845291,-1.7292089760303497 0.13581400737166405,-0.31491000205278397 l1.879161149263382,-0.6654417514801025 4.402950406074524,-0.9118682891130447 l3.7584003806114197,-0.6610845029354095 2.6479917764663696,-0.42020630091428757 l1.3923148810863495,0.1573413424193859 1.5448032319545746,0.971391424536705 l0.9869930148124695,1.856069564819336 -7.997092325240374e-05,2.2480419278144836 l-0.59134092181921,1.4572197198867798 -1.6926036775112152,1.7213945090770721 l-3.7146341800689697,1.8551130592823029 -1.124304160475731,0.4930809885263443 l-1.5721559524536133,0.19230343401432037 -0.5552897602319717,-0.0047295630793087184 l-0.5407142639160156,0.7663511484861374 -1.0655713081359863,5.705252289772034 l-1.262906789779663,3.552526831626892 -1.5226049721240997,2.034175544977188 l-1.1737895011901855,0.5773154646158218 -1.731482446193695,-0.09580687619745731 l-1.8792316317558289,-1.3724446296691895 -1.108483299612999,-1.8584910035133362 l-0.4383539780974388,-2.162450850009918 0.2946511097252369,-5.264655947685242 l-0.40699388831853867,-1.633925586938858 -2.3263654112815857,-1.1902254819869995 l-1.5346920490264893,-0.532117486000061 -1.7047256231307983,-0.397680327296257 l-2.6863428950309753,-0.6465276330709457 -1.1936355382204056,-1.1079180240631104 l-0.9510567784309387,-2.3912374675273895 -0.291114654392004,-3.6080926656723022 l0.792868435382843,-3.2514378428459167 1.168772578239441,-1.7426945269107819 l1.3778117299079895,-0.8226749300956726 2.255684584379196,-0.07966541685163975 l2.6723632216453552,1.3204644620418549 2.569296360015869,2.7275463938713074 l1.6106879711151123,2.718031406402588 1.0129538178443909,2.0449472963809967 l0.7419417053461075,1.5534183382987976 0.7342888414859772,2.1854744851589203 l0.2923611178994179,1.767597645521164 m-0.5851944163441658,-11.969970464706421 l-0.4433981701731682,-1.7126177251338959 -0.758170560002327,-5.178458094596863 l0.4391228035092354,-0.6555914878845215 2.1044260263442993,-0.48530571162700653 l1.9056402146816254,0.3908195346593857 1.5544527769088745,1.5942390263080597 l0.20985197275877,4.6085017919540405 -0.8744750916957855,2.6927459239959717 l-0.9656550735235214,1.5101714432239532 m-3.142612874507904,-6.508498191833496 l-0.8584235608577728,-0.717722475528717 -2.1866603195667267,-2.1290649473667145 l-0.9916239976882935,-0.7469729334115982 -1.0340194404125214,-0.4791867733001709 l-1.154465675354004,-0.02107836538925767 -1.3303764164447784,0.6612295657396317 l-1.3797110319137573,1.6594724357128143 -0.8968356996774673,2.3051640391349792 l0.022677367087453604,1.5509453415870667 m8.286036849021912,-1.0676073282957077 l-0.59581208974123,1.0393406450748444 -0.43467067182064056,1.200917735695839 l0.027342657558619976,0.7881565392017365 0.5667496845126152,0.0004489648199523799 m4.665697813034058,-3.2856041193008423 l-0.1586206629872322,1.5804626047611237 0.07535268552601337,0.8119458705186844 m-2.587495744228363,2.527855336666107 l-0.11854256503283978,0.9845325350761414 -0.1680121012032032,0.44361408799886703 l-0.4785645380616188,-0.19706524908542633 m-0.26328254491090775,-1.6051842272281647 l0.675286129117012,-1.1135171353816986 0.11638735421001911,-0.04907171241939068 l-0.49914613366127014,0.8415795117616653 -0.23011546581983566,0.33498503267765045 m-0.34200236201286316,1.0431377589702606 l1.005241572856903,-1.534246802330017 0.2734401077032089,-0.5320966988801956 l-0.2283218502998352,-1.295522004365921 -1.3654674589633942,-1.2590555846691132 l-0.7877396047115326,-0.5721348896622658 -1.428360790014267,-0.03576500806957483 m82.32493357994827,9.222321063462005 l0.6073806062340736,-1.6442647576332092 0.2663798816502094,-0.23167213425040245 l4.048056602478027,-0.6957508623600006 4.286234974861145,-0.7845967262983322 l3.3583781123161316,-0.6619175523519516 1.789088398218155,-0.09601214900612831 l1.0647615790367126,0.22542346268892288 0.899321660399437,0.7221679389476776 l0.5009003356099129,1.4342576265335083 -0.21154092624783516,2.1391184628009796 l-1.4371860027313232,2.2082914412021637 -2.423686534166336,1.8544021248817444 l-3.238281011581421,1.2199943512678146 -1.7360348999500275,0.3301176428794861 l-2.7324265241622925,-0.5469774454832077 -0.8063565194606781,-0.26830172166228294 l-1.0176485031843185,-0.21441176533699036 -2.5587740540504456,-0.056657399982213974 l-1.0121513158082962,0.1326368097215891 -2.268776148557663,1.5572185814380646 l-1.4966222643852234,5.4168736934661865 -1.1419245600700378,3.261532187461853 l-1.2366220355033875,2.016191929578781 -1.232786625623703,0.6222383305430412 l-1.6802704334259033,-0.240129716694355 -0.6292971968650818,-0.7903984189033508 l-0.4634105786681175,-2.4027301371097565 0.6090333312749863,-7.0489078760147095 l0.7057944685220718,-3.6434054374694824 0.43214909732341766,-2.1844184398651123 l1.0770263522863388,-3.2982581853866577 1.1001496762037277,-1.6014866530895233 l1.2972542643547058,-0.814167931675911 1.3351310789585114,-0.13657830655574799 l1.6593775153160095,0.8740747720003128 1.6416656970977783,2.3968763649463654 l0.8995711803436279,3.404211699962616 0.1660427451133728,2.5985917448997498 l-0.3183848038315773,1.958300769329071 -0.6213019788265228,1.2446435540914536 l-1.301548331975937,0.8816857635974884 -2.0179760456085205,0.2931208349764347 l-0.8752137422561646,-1.170482113957405 -0.6845352798700333,-4.449353814125061 m6.032090783119202,-9.811879396438599 l-0.5387383326888084,0.028942665085196495 -1.9478040933609009,-0.9660689532756805 l-1.6868777573108673,-1.7403396964073181 -1.1355159431695938,-2.214162200689316 l-0.5344536900520325,-2.3214711248874664 3.056393563747406,3.742992579936981 l2.042323797941208,2.1851882338523865 0.9776419401168823,1.2030880898237228 m-0.7414586842060089,1.8060259521007538 l-0.2900351397693157,-1.107042208313942 0.1761695183813572,-3.705492913722992 l0.6972775608301163,-0.059416634030640125 1.2401164323091507,3.8661426305770874 l0.05481255240738392,1.5968480706214905 m-2.3389898240566254,1.8963982164859772 l-0.5310375243425369,-0.48396095633506775 -0.994720458984375,-1.4650636911392212 l-1.2238731235265732,-1.2510836124420166 -0.9969863295555115,0.018252055160701275 l-1.1860299855470657,1.0165925323963165 -1.1571385711431503,2.086039185523987 l-0.25466691702604294,1.5191811323165894 m5.378884673118591,0.18093017861247063 l-1.3899581134319305,1.29962757229805 -1.2040843069553375,1.7214572429656982 l-0.03800331614911556,1.027289479970932 0.9241253882646561,0.8669931441545486 m4.1824257373809814,-5.7986801862716675 l0.051520480774343014,1.7021124064922333 0.3185998648405075,2.232309877872467 m-0.5820123851299286,-2.4436938762664795 l0.09105131030082703,1.5365250408649445 0.016189210582524538,1.1544659733772278 m-1.371002048254013,-2.9688045382499695 l0.7087729126214981,0.007082766387611628 0.6404700130224228,0.8164659887552261 l-0.217035673558712,0.6078843399882317 -0.7866204530000687,-0.16587752848863602 m-1.5843650698661804,-2.0227551460266113 l-2.3223213851451874,-0.41007038205862045 -2.9177668690681458,-0.5849770084023476 l-1.8557928502559662,-0.4852874204516411 -1.677653193473816,-0.46813830733299255 l-1.653394103050232,-0.4751574993133545 -0.4615134373307228,0.3855343535542488 l-0.102038299664855,4.180036783218384 " fill="none" stroke="black" stroke-width="1" /></svg>