<?xml version="1.0" encoding="utf-8" ?>
<svg baseProfile="full" height="94.80012366781011" version="1.1" width="819.7998998546973" xmlns="http://www.w3.org/2000/svg" xmlns:ev="http://www.w3.org/2001/xml-events" xmlns:xlink="http://www.w3.org/1999/xlink"><defs /><rect fill="white" height="94.80012366781011" width="819.7998998546973" x="0" y="0" /><path d="M25,25 m0.0,0.0 m38.349882700167655,5.626404869217367 l-0.7622654736042023,-0.27900051325559616 -1.6550379991531372,1.865556240081787 l-1.5314343571662903,2.5115054845809937 -0.7986012846231461,2.3861712217330933 l0.00026421559596201405,3.0334636569023132 0.5433374270796776,1.1022669076919556 l1.1469108611345291,0.9278556704521179 1.582152098417282,0.5005744099617004 l2.451556622982025,-0.0005202990359975956 2.077076733112335,-0.6215918436646461 l1.8390347063541412,-1.0687169432640076 1.4912766218185425,-1.382668912410736 l1.4174948632717133,-2.4939091503620148 0.39185497909784317,-2.1715717017650604 l-0.4620174691081047,-2.570697069168091 -1.0326151549816132,-1.2142252177000046 l-1.5567773580551147,-0.8774210512638092 -1.9498060643672943,-0.3758908063173294 l-2.9277122020721436,0.3459644317626953 -1.5236103534698486,0.8131524920463562 m-0.5157218873500824,11.856319904327393 l-1.3038337230682373,3.604886531829834 -3.260445296764374,8.52663278579712 l-3.247745931148529,8.06399941444397 -2.37702339887619,6.435873508453369 l11.934961080551147,-0.4490210488438606 9.237706661224365,-0.4032755643129349 l6.299288272857666,-0.3084888122975826 0.3831379860639572,-0.41861679404973984 l-0.8819680660963058,-2.223510295152664 -3.853568136692047,-6.895332336425781 l-2.318554073572159,-4.891680479049683 -1.68178990483284,-4.42594438791275 l-1.2881465256214142,-3.5711848735809326 -1.0603511333465576,-2.6411378383636475 m-7.732870578765869,-3.282136619091034 l-1.4840233325958252,-1.586601585149765 -2.8064823150634766,-2.2526857256889343 l-3.889119327068329,-2.431298643350601 -2.8910818696022034,-1.0878093540668488 l-2.4639809131622314,-0.3320833295583725 -2.9275137186050415,0.5087969452142715 l-1.7093013226985931,1.0645116865634918 -1.5875495970249176,2.263764590024948 l-0.46669289469718933,1.8948787450790405 0.3769294172525406,2.7194279432296753 l1.14167720079422,1.673559993505478 2.4965260922908783,1.724902093410492 l3.5673177242279053,1.0201150178909302 0.9030567854642868,0.39914127439260483 l0.2995673567056656,1.465076357126236 0.22060338407754898,1.505075842142105 l0.7344894856214523,2.049541175365448 1.3274291157722473,1.4564336836338043 l1.7678257822990417,0.9005427360534668 2.874717116355896,0.5178406462073326 l3.266482651233673,-0.14273623004555702 m10.221563577651978,-12.671451568603516 l1.2028546631336212,-1.1227191239595413 2.3397165536880493,-1.5947172045707703 l2.5852757692337036,-1.2523312866687775 3.3166703581809998,-1.028292253613472 l3.522407114505768,-0.38037512451410294 1.8892298638820648,0.3925936669111252 l1.8404307961463928,1.3044644892215729 0.8232519030570984,1.2104891240596771 l0.3859018534421921,2.1351443231105804 -0.7090406864881516,2.549391984939575 l-1.990182101726532,2.2570979595184326 -2.8989607095718384,1.7439952492713928 l2.398008853197098,0.02190826227888465 1.8842490017414093,0.8593001961708069 l1.6322363913059235,1.923644244670868 0.6586454063653946,2.467541992664337 l-0.2606424503028393,1.3622629642486572 -1.3589845597743988,1.646496057510376 l-1.647661030292511,0.985434278845787 -2.977108955383301,0.8203795552253723 l-4.002836346626282,0.20464295521378517 -3.192344009876251,-0.8246663957834244 l-2.528664469718933,-1.293674260377884 m-10.277955532073975,-20.05810022354126 l-0.3020489402115345,-0.2977866679430008 -0.8118101209402084,-0.38262300193309784 l-0.9700135886669159,-0.17190003767609596 -1.1108126491308212,0.19430216401815414 l-1.2589071691036224,0.8727174997329712 -0.5406345427036285,1.142580658197403 l0.2709934487938881,1.0108622163534164 1.116553395986557,0.6848102807998657 l2.702811360359192,0.38765426725149155 3.4760913252830505,-0.6327614933252335 l1.612698882818222,-1.017392948269844 0.5132785066962242,-1.0112754255533218 l-0.7742945849895477,-1.9239017367362976 m76.12713797432662,-3.1089815866289428 l-1.5504656732082367,-0.38748398423194885 -2.494308054447174,1.6785117983818054 l-2.1534600853919983,2.7482515573501587 -1.0316663980484009,2.254779189825058 l0.000659248762531206,2.466423660516739 0.44039495289325714,1.0861872136592865 l1.0746609419584274,0.9723066538572311 1.6279798746109009,0.6255611777305603 l2.6286250352859497,-0.0004696301039075479 2.3311781883239746,-0.5860558897256851 l2.087603509426117,-1.0334832966327667 1.7466865479946136,-1.3692641258239746 l1.2584665417671204,-1.578804850578308 0.6419210880994797,-1.7991052567958832 l0.0007668254693271592,-2.1453309059143066 -0.7656989991664886,-1.5247711539268494 l-1.3471999764442444,-1.1584033817052841 -1.8409651517868042,-0.6496811658143997 l-2.538171112537384,-0.0009146671800408512 -2.733016312122345,1.0508183389902115 m-1.3243229687213898,10.817369222640991 l-1.5082429349422455,3.4177353978157043 -3.9514178037643433,8.588230013847351 l-3.569214344024658,8.053776025772095 -2.6307401061058044,6.5621113777160645 l13.636627197265625,-0.457862913608551 9.821256399154663,-0.40247995406389236 l5.543052554130554,-0.3604871407151222 3.1957846879959106,-0.48384469002485275 l0.2458707056939602,-0.5387872457504272 -6.862330436706543,-10.725301504135132 l-2.56526917219162,-4.6069541573524475 -2.5673192739486694,-4.125278890132904 l-1.6285750269889832,-3.0847838521003723 -1.0960715264081955,-2.4347594380378723 m1.5226049721240997,3.672919273376465 l3.824853301048279,-4.515734612941742 2.77384489774704,-2.493032068014145 l4.021439850330353,-2.90625661611557 4.099280834197998,-2.171703726053238 l3.6019518971443176,-1.1832589656114578 2.128448486328125,-0.00015427889593411237 l1.9249288737773895,1.0651638358831406 1.5623478591442108,2.4887488782405853 l0.4285752400755882,1.9864918291568756 -0.4761975258588791,2.5419417023658752 l-1.7929396033287048,2.702825963497162 -2.6776525378227234,2.3155787587165833 l-3.1835585832595825,1.601119339466095 3.150307834148407,0.40241241455078125 l1.860479861497879,1.3261093199253082 1.0239136964082718,2.2140783071517944 l-0.12267719954252243,2.6186618208885193 -2.6103374361991882,1.7186202108860016 l-4.0187302231788635,1.0223763436079025 -4.7485291957855225,0.2039496973156929 l-3.2702162861824036,-0.682503879070282 -2.3784691095352173,-0.9969910979270935 m-17.040443420410156,-8.063889741897583 l-1.2085986882448196,-1.4054110646247864 -2.492607980966568,-2.3770615458488464 l-3.222021758556366,-2.3840264976024628 -3.2680273056030273,-1.8980173766613007 l-2.173483818769455,-0.7035817950963974 -2.3497293889522552,-0.004935035249218345 l-0.8658755570650101,0.4866180568933487 -1.0006172209978104,1.6988611221313477 l-0.42167186737060547,2.99173504114151 0.5354541912674904,2.0474742352962494 l1.939912587404251,2.496928423643112 3.067469894886017,2.1518999338150024 l0.8548323810100555,1.0401328653097153 1.1120115965604782,2.107374668121338 l1.418198049068451,1.521245539188385 1.6612794995307922,0.8515733480453491 l2.4633246660232544,0.38849372416734695 2.8905701637268066,-0.4952884837985039 l1.7084093391895294,-0.9766929596662521 m3.9323535561561584,-16.857008934020996 l-0.5973879992961884,-0.27004750445485115 -0.8158063888549805,0.1257228385657072 l-1.2142334133386612,0.9353194385766983 -0.6035419180989265,1.3020211458206177 l0.12176497839391232,1.222107633948326 0.8847998082637787,0.9154187142848969 l1.4554241299629211,0.49392133951187134 2.686188817024231,0.024007391184568405 l1.8274389207363129,-0.6775911897420883 1.1698977649211884,-1.0119643807411194 l0.4266825318336487,-1.129692941904068 -0.33257611095905304,-1.6493020951747894 l-1.0781698673963547,-1.0649055242538452 -1.606069952249527,-0.5750024318695068 l-2.717340588569641,0.025877635926008224 m83.76717517152429,-2.615171056058898 l-2.39249125123024,-0.4998544231057167 -3.533409535884857,1.5893135964870453 l-2.4310800433158875,2.431357651948929 -1.328742802143097,2.1974411606788635 l-0.5074993148446083,1.8923662602901459 0.12441166676580906,1.6592992842197418 l0.8634496480226517,1.1477383226156235 1.5130196511745453,0.8080630004405975 l2.06786572933197,0.4192327708005905 3.056325614452362,-0.00036435270885704085 l2.6230108737945557,-0.6155862659215927 2.3091506958007812,-1.0404318571090698 l1.902134120464325,-1.3631543517112732 1.2552301585674286,-1.5995866060256958 l0.5328450351953506,-1.7502407729625702 -0.2553103305399418,-2.431378662586212 l-1.991313248872757,-1.941259354352951 -2.2103214263916016,-0.9609638154506683 l-2.3216797411441803,-0.3280781954526901 -3.1624233722686768,0.43423041701316833 l-1.5114660561084747,0.8018025010824203 m-1.186584159731865,11.26929521560669 l-1.4551517367362976,3.8817384839057922 -3.7181639671325684,8.999446630477905 l-3.711133599281311,8.205243945121765 11.85608983039856,0.08220016956329346 l9.56508755683899,-0.2566685900092125 6.2221139669418335,-0.3766835108399391 l-4.413559436798096,-9.418758153915405 -3.6047106981277466,-8.246333599090576 l-1.8664395809173584,-3.5007870197296143 -1.484849900007248,-2.0922784507274628 m2.168020009994507,4.722298681735992 l1.8286794424057007,-2.344263941049576 2.527906894683838,-2.579464614391327 l6.746529936790466,-5.790942311286926 5.1839470863342285,-3.1763753294944763 l2.8580212593078613,-0.9861963242292404 1.6829384863376617,0.021944544278085232 l1.7284111678600311,1.2134626507759094 0.9277681261301041,1.4344832301139832 l0.5906983837485313,2.6176750659942627 -0.4442557319998741,3.361065983772278 l-1.7515943944454193,3.3359798789024353 -2.5020596385002136,2.7819111943244934 l-3.0990803241729736,2.099137306213379 -5.098623037338257,2.0317621529102325 l3.2091116905212402,0.007701555732637644 2.2071366012096405,0.7160893082618713 l1.6717661917209625,1.6589024662971497 0.7245025038719177,2.3044298589229584 l-0.3280479460954666,1.266637146472931 -1.7736412584781647,1.505722552537918 l-2.002934217453003,0.749339759349823 -5.550135970115662,0.46634092926979065 l-3.927418887615204,-1.020490750670433 -2.7014094591140747,-1.5646898746490479 m-14.949380159378052,-9.812272787094116 l-1.2313485145568848,-1.7900924384593964 -2.662735879421234,-2.8038159012794495 l-3.3181828260421753,-2.518700063228607 -3.3737781643867493,-1.8452975153923035 l-1.230449303984642,-0.18573706969618797 -1.58045694231987,0.7573433965444565 l-1.7186585068702698,2.269867956638336 -0.9754675626754761,3.344143033027649 l0.10676252655684948,2.2694824635982513 0.8806366473436356,1.782526671886444 l2.1123941242694855,1.9436535239219666 3.2626843452453613,1.590796411037445 l0.9490170329809189,0.8762664347887039 1.1900317668914795,2.857959568500519 l1.6370007395744324,1.8187810480594635 1.705872267484665,0.8464549481868744 l2.4740107357501984,0.269950944930315 1.6995644569396973,-0.45038118958473206 l1.1687763780355453,-0.9175017476081848 m3.6733919382095337,-23.5666823387146 l-1.035192757844925,-0.19185632467269897 -0.7947910577058792,0.1823093742132187 l-0.7968857139348984,0.862351804971695 -0.2030198648571968,1.166999563574791 l0.5389101058244705,1.0170463472604752 1.260102093219757,0.6829475611448288 l2.6829156279563904,0.39664674550294876 1.942809820175171,-0.28808342292904854 l1.3625477254390717,-0.7106509059667587 0.6946153193712234,-0.9767636656761169 l0.07261387538164854,-1.0897575318813324 -0.6670514494180679,-1.0053125768899918 l-1.2598703801631927,-0.6864342838525772 -2.489970326423645,-0.00029080161766614765 l-2.0566442608833313,0.8667729794979095 m98.15805396734504,-2.27377006689494 l-3.272853195667267,-0.5807764083147049 -4.8853737115859985,1.4998501539230347 l-2.608659267425537,2.1375544369220734 -1.5189585089683533,2.054385095834732 l-0.7158742100000381,1.868852972984314 -0.04819184076040983,1.638963222503662 l0.7046885788440704,1.167302057147026 1.4072348177433014,0.8689285069704056 l2.0428627729415894,0.49972735345363617 3.6690694093704224,-0.0003615605237428099 l3.033033013343811,-0.5864974111318588 2.643997073173523,-0.9724204242229462 l2.0801497995853424,-1.244337484240532 1.435045301914215,-1.4759232103824615 l0.6605395674705505,-1.6046497225761414 0.000851864751894027,-1.8812508881092072 l-0.9409066289663315,-1.196264773607254 -2.5371748208999634,-1.3701021671295166 l-2.516602575778961,-0.5146709084510803 -3.3541223406791687,0.09659605100750923 m-5.931060314178467,9.907642006874084 l-1.6983307898044586,3.675905764102936 -3.806484639644623,7.253987193107605 l-4.074034094810486,7.759068012237549 -3.352508544921875,6.429216265678406 l15.662583112716675,-0.18104588612914085 10.819017887115479,-0.33649012446403503 l6.611981987953186,-0.45114118605852127 -4.278592765331268,-10.10474681854248 l-3.595415949821472,-9.056093096733093 -3.3012154698371887,-6.716141104698181 l-1.2553349137306213,-1.7881713807582855 m-9.450507164001465,1.0395888984203339 l-4.7433802485466,-2.924031615257263 -3.7761011719703674,-2.023601680994034 l-4.30929958820343,-1.88697949051857 -3.967599868774414,-1.2628582119941711 l-3.6410588026046753,-0.637737587094307 -2.995034158229828,0.13813848607242107 l-2.8263697028160095,1.1105526238679886 -2.4950510263442993,2.233646512031555 l-1.0694245994091034,2.0713672041893005 -0.49826204776763916,3.1488507986068726 l0.38884833455085754,2.2420084476470947 1.5768429636955261,3.026406466960907 l1.808197945356369,1.9189375638961792 2.172683924436569,1.2190264463424683 l5.581008195877075,1.4607323706150055 3.3815282583236694,0.8174096792936325 l5.579546689987183,0.6684063374996185 3.4045055508613586,0.1611861027777195 l3.000606596469879,-0.23067837581038475 m12.786844968795776,-9.599040746688843 l0.21585259586572647,-1.2726332247257233 1.3398852944374084,-1.9761505722999573 l2.9849374294281006,-3.1791067123413086 2.4827662110328674,-1.731017827987671 l3.268073797225952,-1.3894154131412506 2.1392004191875458,-0.30082473531365395 l2.298014312982559,0.5013077333569527 2.411341965198517,1.715022325515747 l1.8630971014499664,2.8883561491966248 0.6475211679935455,2.0510555803775787 l0.16199830919504166,2.612627148628235 -0.7114020735025406,2.6479026675224304 l-1.6071408987045288,2.3593978583812714 -2.34451562166214,1.925252377986908 l-3.0029740929603577,1.2805770337581635 -2.13179349899292,0.2704397216439247 l-2.62113094329834,-0.5056979134678841 -1.634262502193451,-0.5885838717222214 l-0.9488066285848618,-0.7861646264791489 m-10.337966680526733,-11.846023797988892 l-0.4835763946175575,-0.23200355470180511 -0.2271927334368229,-0.19933072850108147 l0.15927018597722054,-0.2893950790166855 0.9020090848207474,-0.2772992290556431 l0.8543096482753754,0.08216949179768562 0.5607423186302185,0.6335192918777466 l-0.43282702565193176,0.6617515534162521 -0.5687926709651947,-0.22231018170714378 l-0.17397085204720497,-1.1211085319519043 0.5469176173210144,0.253023486584425 m-2.433740198612213,2.0316973328590393 l0.7129636406898499,-2.067517936229706 0.8437603712081909,-1.1965635418891907 l1.9629354774951935,-1.6644090414047241 2.4044865369796753,-1.1450329422950745 l1.6838957369327545,-0.15560251660645008 1.7950864136219025,0.7531169056892395 l1.6702291369438171,1.9965115189552307 0.8922769129276276,2.8553932905197144 l-1.3294963538646698,2.611042559146881 m81.05111068660335,-6.354861268282548 l-4.154574871063232,-0.6507749110460281 -6.446228623390198,1.4205914735794067 l-2.665148675441742,1.8469150364398956 -1.7534120380878448,1.947205513715744 l-0.8484550565481186,1.7463357746601105 -0.15043391846120358,1.5872152149677277 l0.5434989556670189,1.1537189036607742 1.343061625957489,0.8927945792675018 l2.068880796432495,0.5550436303019524 4.2579445242881775,-0.00017397538613295183 l3.456427752971649,-0.593511201441288 3.0056196451187134,-0.9616602957248688 l2.297767847776413,-1.180327907204628 1.418524980545044,-1.3529367744922638 l0.594915933907032,-1.456916332244873 0.0007974150503287092,-1.7374102771282196 l-0.7921741902828217,-1.2764573097229004 -1.523105651140213,-0.973140075802803 l-3.2929083704948425,-0.7922888547182083 -3.252061605453491,-0.0007855858711991459 m-9.464951157569885,8.17796766757965 l-1.513163447380066,3.9354613423347473 -3.1597277522087097,8.834906816482544 l-2.342051714658737,7.4441105127334595 -1.362217366695404,3.901568651199341 l16.866565942764282,0.3406541794538498 10.9799063205719,-0.2982650697231293 l5.142584443092346,-0.5777417868375778 -4.145481884479523,-13.043265342712402 l-3.633805513381958,-8.166337013244629 -1.9336271286010742,-2.485504001379013 m-14.329205751419067,4.470743238925934 l-4.026740193367004,-3.04861843585968 -3.3131352066993713,-2.5715291500091553 l-3.7459641695022583,-2.7333101630210876 -3.2176709175109863,-2.2079896926879883 l-1.8623639643192291,-1.065353974699974 -2.142096310853958,-0.8557335287332535 l-2.4798960983753204,-0.42299818247556686 -2.4641893804073334,0.3953683376312256 l-2.4533960223197937,1.4967748522758484 -1.240035891532898,1.7085866630077362 l-0.92386893928051,3.266964554786682 -0.04701665136963129,4.17645663022995 l0.8315571397542953,2.6503705978393555 2.1717533469200134,3.307148516178131 l2.1868209540843964,1.9278919696807861 3.6098960041999817,1.8649639189243317 l4.658806622028351,1.2051667273044586 4.682232439517975,0.23214146494865417 l3.7435880303382874,-0.28527814894914627 m16.579078435897827,-8.850522637367249 l0.03562943544238806,-0.9522749483585358 1.8845392763614655,-2.9739636182785034 l3.1714940071105957,-3.6835449934005737 2.3458097875118256,-1.716858297586441 l1.9195230305194855,-0.6920944154262543 1.6091427206993103,0.004271717043593526 l1.7817842960357666,0.9933750331401825 1.7775079607963562,2.4770966172218323 l1.028745248913765,3.557213544845581 0.029761239420622587,3.403339385986328 l-0.94825379550457,2.9951247572898865 -1.6594533622264862,2.411559522151947 l-1.5070141851902008,1.1525415629148483 -2.322663813829422,0.8283979445695877 l-3.0051469802856445,0.1586814969778061 -1.0205244272947311,-0.4646497219800949 m-10.286788940429688,-15.790672302246094 l-0.41180387139320374,-0.1383951585739851 -0.4388432204723358,-0.08937892504036427 l-0.6917931139469147,-0.05737744737416506 -0.6862489134073257,0.26922082528471947 l-0.4549136385321617,0.8651573210954666 0.22657552734017372,0.8487964421510696 l0.9501451253890991,0.5634662136435509 1.7012310028076172,-9.774548743735068e-05 l0.5515114217996597,-0.5223794654011726 0.22038515657186508,-1.1612504720687866 l-0.631888210773468,-0.5514632537961006 -1.1514180898666382,0.2645215019583702 m-1.2378690391778946,0.9846577048301697 l0.27203407138586044,0.6867796927690506 0.8273953199386597,0.8193614333868027 l1.5472954511642456,0.5358738824725151 2.034699469804764,-0.3030134551227093 l1.1554130911827087,-0.8575154840946198 0.8348418027162552,-1.6753216087818146 l-0.049123638309538364,-1.363750547170639 m82.21567785716616,-0.9756515732897242 l-5.017814636230469,-0.678144246339798 -7.9535973072052,1.2200414389371872 l-2.7722543478012085,1.6215839982032776 -1.8629731237888336,1.7829455435276031 l-1.0187017172574997,1.680387407541275 -0.31689416617155075,1.5246008336544037 l0.4091781750321388,1.084902584552765 1.193595826625824,0.831587091088295 l2.0357367396354675,0.5829617008566856 5.207923054695129,-0.00012759343917423394 l3.9631387591362,-0.6009916961193085 3.425053656101227,-0.9593349695205688 l2.5091657042503357,-1.142008900642395 1.4741699397563934,-1.2940455973148346 l0.5102691054344177,-1.3621269166469574 -0.23342851549386978,-1.270907074213028 l-1.0274870693683624,-1.0528938472270966 -1.7280346155166626,-0.7294055819511414 l-3.4201660752296448,-0.5034014210104942 -4.246447384357452,0.2356662042438984 m-9.997086524963379,6.078680157661438 l-0.6916336715221405,5.747874975204468 -1.4084137976169586,11.007272005081177 l-0.8568825572729111,6.271403431892395 -0.36399606615304947,3.4249746799468994 l19.164106845855713,-0.7158638536930084 8.697035312652588,-0.562494583427906 l-0.6220200285315514,-13.297269344329834 -1.7331551015377045,-9.029790163040161 l-1.7372481524944305,-2.7160775661468506 m-20.115385055541992,10.067129135131836 l-2.637784481048584,-1.0664986073970795 -2.4961984157562256,-1.0911203920841217 l-3.067978620529175,-1.572171002626419 -3.177022635936737,-1.7482736706733704 l-2.84728080034256,-1.8718640506267548 -2.5192534923553467,-2.1778135001659393 l-2.0679374039173126,-2.57562518119812 -1.4159098267555237,-3.0089616775512695 l-0.7830114662647247,-3.3701393008232117 0.07769906893372536,-3.278285264968872 l1.1678947508335114,-0.8728687465190887 2.9450780153274536,-0.5021791532635689 l4.391689300537109,0.6595537811517715 4.514337480068207,1.900157630443573 l4.515014886856079,2.876139283180237 3.7070855498313904,3.2586535811424255 l2.6086899638175964,3.5567212104797363 1.4669114351272583,3.300493359565735 m10.46307921409607,2.2820281982421875 l0.41710350662469864,-1.296120434999466 1.681767851114273,-2.8781431913375854 l3.8710513710975647,-5.477257966995239 2.0343445241451263,-1.799897849559784 l1.7004930973052979,-0.6712048500776291 1.4122386276721954,0.0813404843211174 l1.775353103876114,1.141805723309517 1.6897685825824738,2.592986822128296 l0.8125819265842438,3.5460221767425537 -0.19725246354937553,3.7001827359199524 l-1.3160179555416107,3.1091198325157166 -1.9397461414337158,2.435295134782791 l-2.5774872303009033,1.794908344745636 -1.913667619228363,0.6031931564211845 m-13.63257646560669,-14.215567111968994 l0.21813524886965752,-1.9741430878639221 0.39249006658792496,-1.8178264796733856 l0.8524120599031448,-0.8870168030261993 1.565428376197815,-0.43540675193071365 l1.1753463745117188,0.3797398880124092 1.2318458408117294,1.506085991859436 l-0.03623229917138815,2.2872306406497955 -0.7641492784023285,1.0922331362962723 l-1.5464496612548828,0.8508041501045227 m-2.4531088769435883,-7.442166209220886 l-0.9218050539493561,-0.6139033660292625 -0.7429328560829163,-0.8674273639917374 l-0.5702513828873634,-1.2554581463336945 0.15537304803729057,-1.0243917256593704 l0.9010119736194611,-0.782625675201416 2.1400004625320435,-0.5224061384797096 l1.6178368031978607,0.29024628922343254 1.5420913696289062,1.2574835121631622 l0.9924743324518204,2.1543096005916595 -0.0938999094069004,1.202104613184929 m77.02555259456858,5.64483642578125 l-5.812366008758545,-0.6898850202560425 -9.443122744560242,1.0027440637350082 l-2.8846782445907593,1.448570191860199 -1.8888668715953827,1.5978161990642548 l-1.075674369931221,1.5096624195575714 -0.3661571815609932,1.4374686777591705 l0.28826797381043434,1.054816022515297 1.1054840683937073,0.8241483569145203 l2.0974715054035187,0.6034717708826065 6.418547034263611,0.4158872738480568 l6.415860652923584,-0.5595847591757774 3.4317949414253235,-0.8688180893659592 l2.2317615151405334,-1.028091236948967 1.2020259350538254,-1.165684536099434 l0.35742685198783875,-1.2959015369415283 -0.4017360508441925,-1.143336296081543 l-1.178295612335205,-0.9551470726728439 -1.9663901627063751,-0.7073311507701874 l-3.681638538837433,-0.4313262924551964 m-17.147297859191895,4.742074012756348 l-0.44474493712186813,4.861269295215607 -0.7315758615732193,9.453086853027344 l-0.445932000875473,7.696261405944824 0.5191058292984962,0.6346997618675232 l19.195667505264282,-0.16834681853652 8.995033502578735,-0.5832592025399208 l-0.024051156360656023,-15.102946758270264 -1.0600104182958603,-4.750978648662567 l-1.0898172855377197,-2.778119146823883 m-23.775627613067627,12.0392906665802 l-0.9249236434698105,0.6516057252883911 -1.753249317407608,2.210868149995804 l-0.8032315224409103,1.846933513879776 -0.19026048481464386,2.4314141273498535 l0.5712093412876129,1.4863355457782745 1.4589810371398926,1.1578575521707535 l2.3276732861995697,0.8458206802606583 20.917232036590576,-0.21433180198073387 l5.752124786376953,-1.194206103682518 2.0666489005088806,-1.092200055718422 l1.0203999280929565,-1.3496094942092896 0.49800410866737366,-2.577494978904724 l-0.59300247579813,-2.9494041204452515 -1.7184998095035553,-2.663557529449463 l-1.6172656416893005,-1.2215002626180649 m-19.009956121444702,-6.935167908668518 l-0.8633612841367722,-6.569635272026062 -0.16029365360736847,-2.9966121912002563 l0.6001164019107819,-1.9237224757671356 0.8215524256229401,-1.1005055904388428 l1.0007859021425247,-0.4035741090774536 1.3218654692173004,0.30339423567056656 l1.2864772975444794,1.6193416714668274 0.10795881040394306,6.0462504625320435 l-0.544896274805069,3.550366759300232 -0.6279135495424271,1.5044315159320831 m2.399927079677582,-8.529281616210938 l-1.123904064297676,-1.6759185492992401 -0.57022575289011,-2.4018752574920654 l0.9484728425741196,-2.878285050392151 1.1388381570577621,-1.2321259081363678 l0.635245069861412,0.033308304846286774 0.7606282085180283,1.0088279098272324 l0.49201764166355133,2.4490948021411896 -0.20791200920939445,3.6028897762298584 l-0.6849762797355652,2.1237176656723022 m-1.110709086060524,2.2397924959659576 l-0.2188335731625557,-3.1234025955200195 0.6339795887470245,-2.5358641147613525 l1.0525373369455338,-1.6329577565193176 1.0484876483678818,-0.08667123503983021 l1.1603211611509323,1.0490171611309052 0.7860416173934937,2.4730706214904785 l-0.3739277645945549,3.0420485138893127 -0.8051022887229919,1.3839522004127502 l-1.5236739814281464,1.0758031159639359 -1.2712572515010834,0.2377163991332054 m86.98680701199919,-2.162802259936143 l-6.554568409919739,-0.718109980225563 -10.811887979507446,0.7255443930625916 l-2.898586392402649,1.2530790269374847 -1.8949910998344421,1.4274023473262787 l-1.0837927460670471,1.410657912492752 -0.40893319994211197,1.3704629242420197 l0.2523164451122284,1.0305719077587128 1.0618354380130768,0.7547971606254578 l2.1337302029132843,0.5768507346510887 7.071848511695862,-5.4767788242315874e-05 l8.086260557174683,-0.6791761517524719 3.80697101354599,-0.7495207339525223 l2.0309361815452576,-0.8620700985193253 0.8983132988214493,-1.0059450566768646 l0.17025191336870193,-1.6124774515628815 -0.9672519564628601,-1.0192736238241196 l-2.7928760647773743,-1.142110675573349 -2.8083381056785583,-0.41423868387937546 m-19.29669976234436,4.187644422054291 l-0.4863124340772629,4.71496194601059 -0.6981564313173294,8.78269910812378 l-0.3024713881313801,7.381287217140198 0.5317172035574913,0.5961440876126289 l21.315975189208984,0.1480216532945633 8.635987043380737,-0.3709964454174042 l0.5167204141616821,-13.177067041397095 -0.6748504936695099,-5.582600235939026 l-0.8892522007226944,-3.2993683218955994 m-25.612993240356445,10.140706300735474 l-1.7874424159526825,2.407187670469284 -0.9379780292510986,2.2719214856624603 l-0.13392056338489056,1.594073474407196 0.6690721958875656,1.1956873536109924 l1.5385167300701141,0.9583413600921631 18.93868088722229,0.5387385562062263 l7.075841426849365,-0.7330037653446198 2.362840324640274,-0.8128614723682404 l1.975886970758438,-1.8666468560695648 1.0506275296211243,-2.986983060836792 l-0.03569095395505428,-3.2784080505371094 -1.0881586372852325,-2.739657759666443 m-20.49647808074951,-5.656225085258484 l-0.8297773450613022,-7.197933197021484 -0.22113030776381493,-2.6964735984802246 l0.6117239966988564,-1.704711765050888 0.8333396166563034,-0.9298021346330643 l0.7116909325122833,0.31332019716501236 0.2473113127052784,4.320379197597504 l-0.4096547141671181,3.787524402141571 -0.5973194167017937,2.080215662717819 m5.097671151161194,-2.737508714199066 l-0.3870480880141258,-1.0815806686878204 -0.23315945640206337,-5.406826734542847 l0.7651199400424957,-2.475399821996689 0.5876554548740387,-0.3614868223667145 l0.9475952386856079,0.46537846326828003 0.8452019840478897,1.8815484642982483 l0.05659275222569704,4.675445258617401 -0.41527438908815384,2.9654353857040405 m3.1584426760673523,-3.9082443714141846 l-0.43497443199157715,-0.7983609288930893 -0.1241862028837204,-2.63842910528183 l0.7624034583568573,-3.11574250459671 1.0502318292856216,-1.1666636914014816 l0.9079720079898834,0.768347829580307 0.6305339932441711,3.884557783603668 l-0.22596485912799835,2.8657564520835876 -0.6479623913764954,1.318453997373581 l-0.8346319943666458,0.5173870176076889 m81.5980703891546,0.3266167075980775 l-7.068524956703186,-0.6795958429574966 -11.747188568115234,0.40389832109212875 l-2.89218008518219,1.045842245221138 -1.9291818141937256,1.2709279358386993 l-1.1235391348600388,1.3075649738311768 -0.605814978480339,1.7146965861320496 l0.21928999572992325,0.6774381548166275 0.980411022901535,0.5899280309677124 l3.8856831192970276,0.5557685345411301 8.49962294101715,0.00014931488294678275 l8.159348368644714,-0.6296315789222717 3.5625916719436646,-0.7311557233333588 l1.7556732892990112,-0.8667224645614624 0.5221234261989594,-0.9270047396421432 l-0.7047401368618011,-0.9300541132688522 -3.047567903995514,-1.2953585386276245 l-2.8962382674217224,-0.5796870961785316 -3.7683790922164917,-0.07640342693775892 m-18.19504737854004,3.3323854207992554 l0.01830102293752134,6.379262208938599 0.10513334535062313,9.21558678150177 l0.27628218755126,6.363967061042786 0.5372508987784386,0.5047406628727913 l21.73409938812256,-0.15348299406468868 7.895883321762085,-0.579293817281723 l0.3452930226922035,-12.861032485961914 0.004226925957482308,-5.22077739238739 l-0.36582186818122864,-5.6913381814956665 m-25.74777841567993,9.839590787887573 l-0.8600723743438721,1.004902422428131 -0.6307512521743774,3.325260877609253 l0.4944905638694763,2.720993757247925 1.1224638670682907,1.4330700039863586 l1.7087359726428986,0.936959907412529 17.607455253601074,-0.12503228150308132 l5.279614329338074,-0.9184581786394119 1.9683976471424103,-0.9695932269096375 l1.430353969335556,-2.0891308784484863 0.6001261621713638,-3.1877705454826355 l-0.20376257598400116,-3.3956196904182434 m-18.677479028701782,-6.852505207061768 l-0.8642339706420898,-8.586717247962952 -0.13639015145599842,-2.505130171775818 l0.5145469307899475,-1.246936246752739 0.5391440168023109,-0.26952192187309265 l0.30398521572351456,0.6139601022005081 -0.14596736058592796,4.816719591617584 l-0.43012283742427826,2.901071310043335 -0.40994271636009216,0.827249065041542 m4.976114630699158,-0.9161429107189178 l-0.2754593454301357,-4.422312378883362 0.22312860935926437,-2.667008936405182 l0.5950251966714859,-1.2131909281015396 0.6159346923232079,0.3178926929831505 l0.4392840713262558,4.031156003475189 -0.2552466094493866,3.024149239063263 l-0.4877166077494621,1.5210466086864471 m0.20853206515312195,-1.791878491640091 l-0.2402697131037712,-3.995741903781891 0.3704848885536194,-2.337930202484131 l0.6950613111257553,-0.5227289348840714 0.6884156912565231,0.6907130777835846 l0.33288653939962387,3.6998841166496277 -0.2657766081392765,2.4631768465042114 l-0.610453337430954,1.417965143918991 m85.60192991935764,3.9663640852086246 l-7.404916286468506,-0.6475957483053207 -12.899730205535889,0.12013079598546028 l-2.852618098258972,0.9029179811477661 -1.8501192331314087,1.0780434310436249 l-1.0365209728479385,1.1195524781942368 -0.6265804171562195,1.5322354435920715 l0.16984868794679642,0.6114843487739563 1.0287798196077347,0.5705171078443527 l4.163570702075958,0.5777230486273766 16.579488515853882,0.02324389759451151 l5.7107967138290405,-0.6238565593957901 2.44873583316803,-0.6589575111865997 l1.1861802637577057,-0.8355075120925903 0.23939235135912895,-0.9246889501810074 l-0.9582821279764175,-0.7953910529613495 -2.815803587436676,-0.960952416062355 l-4.742713570594788,-0.5900995060801506 m-23.736493587493896,3.2491546869277954 l0.14856251887977123,5.6446027755737305 -0.15627969056367874,9.940163493156433 l0.07281043566763401,5.848230719566345 0.5416763946413994,0.5403091758489609 l20.68699598312378,-0.20005175843834877 8.9112389087677,-0.3303385153412819 l4.196910560131073,-0.6333021819591522 -0.024226466193795204,-13.518762588500977 l-0.4301914945244789,-5.458989143371582 m-25.77993631362915,1.9856467843055725 l-0.9298967570066452,-3.056706190109253 -0.6653882563114166,-3.034081757068634 l-0.5897539854049683,-6.120296120643616 0.6317619234323502,-1.101122424006462 l0.5526294559240341,0.023388969711959362 10.22946834564209,0.5257401987910271 l0.48657525330781937,0.6597293168306351 0.16119029372930527,7.673232555389404 l0.29429512098431587,4.465084969997406 m-6.626666784286499,-12.999775409698486 l-0.35707078874111176,-4.09639298915863 0.10139642283320427,-2.8814661502838135 l0.785059854388237,-0.9817440807819366 0.8035342395305634,0.5990194156765938 l0.4673011228442192,4.517695605754852 0.04576961975544691,3.5831907391548157 m1.1660678684711456,-4.7975388169288635 l-0.2953614667057991,-3.440999686717987 0.14900349080562592,-1.5700200200080872 l0.857945904135704,-0.32357707619667053 0.6036172434687614,1.1527328938245773 l0.08131681941449642,3.5791683197021484 -0.3586600348353386,2.009572386741638 m-1.443629264831543,-1.7236889898777008 l-0.3384031355381012,-3.5288995504379272 0.4479582607746124,-1.6157282888889313 l0.8108284324407578,-0.2561592496931553 0.6515631824731827,1.053687334060669 l0.01800512778572738,3.328010141849518 -0.61429712921381,1.8943378329277039 " fill="none" stroke="black" stroke-width="1" /></svg>