<?xml version="1.0" encoding="utf-8" ?>
<svg baseProfile="full" height="84.65315556153655" version="1.1" width="833.7556352093816" xmlns="http://www.w3.org/2000/svg" xmlns:ev="http://www.w3.org/2001/xml-events" xmlns:xlink="http://www.w3.org/1999/xlink"><defs /><rect fill="white" height="84.65315556153655" width="833.7556352093816" x="0" y="0" /><path d="M25,25 m0.0,0.0 m16.743865101598203,22.233405525330454 l1.4574314653873444,-3.0426105856895447 3.1900227069854736,-1.2877409160137177 l6.4941370487213135,-0.773407369852066 10.347590446472168,-0.02744416007772088 l12.802056074142456,-0.17515966668725014 3.4757256507873535,0.10961560532450676 l2.3577073216438293,-0.07214684039354324 0.5254750698804855,-1.1253125220537186 l1.1312860250473022,-6.5775758028030396 1.295878142118454,0.21764207631349564 l2.338447868824005,1.2241052836179733 1.772863119840622,5.615673661231995 l0.7263989746570587,5.167516469955444 0.05468134768307209,3.177264630794525 l-0.7515939325094223,2.0121313631534576 -1.084858477115631,0.9390600025653839 l-3.504894971847534,0.8640790730714798 -4.329952597618103,0.2653949148952961 l-3.920060396194458,-0.15567278489470482 -3.483700454235077,-0.2064962312579155 l-3.1770557165145874,-0.1997387781739235 -9.713203310966492,0.04663943313062191 l-8.449597358703613,0.07932600565254688 -6.072630286216736,-0.5584071949124336 l-1.1557447165250778,-2.717587649822235 -0.35823971033096313,-3.3221760392189026 l0.07853295654058456,-2.912774085998535 0.6170229613780975,-1.738208830356598 m17.346524000167847,3.9911872148513794 l-0.4057410731911659,0.3333142399787903 -1.0283485800027847,2.0735082030296326 l-0.8453502506017685,3.819015324115753 0.029599564149975777,3.417765498161316 l0.8720766752958298,2.4409127235412598 1.1339882761240005,1.0251084715127945 l3.407146632671356,0.49294929951429367 3.3099302649497986,-1.4888817071914673 l1.5887893736362457,-1.8453574180603027 1.9960775971412659,-4.998736679553986 l0.3807630017399788,-2.654317021369934 -0.44936634600162506,-2.567359209060669 l-1.3298796117305756,-2.162308096885681 -1.7522308230400085,-0.8533807098865509 m57.18694719020277,5.412053920445032 l3.098340630531311,-2.9276636242866516 6.074165105819702,-1.4997181296348572 l7.592758536338806,-0.574335977435112 11.138057708740234,0.06086586508899927 l8.020431399345398,0.2724575251340866 3.4239462018013,0.1933249831199646 l0.23079022765159607,-1.346970945596695 0.0889302883297205,-7.867057919502258 l0.9237249195575714,0.908411294221878 1.3903601467609406,5.680865049362183 l0.8544516563415527,4.917899072170258 0.37698492407798767,2.648274600505829 l-0.2049863152205944,1.8930898606777191 -1.063598394393921,1.3869461417198181 l-1.4303262531757355,0.6798206269741058 -2.7187851071357727,0.2182317152619362 l-3.513694703578949,-0.15814565122127533 -3.7574198842048645,-0.01110814162530005 l-9.242361187934875,0.3521062806248665 -8.147497177124023,0.5536269769072533 l-6.013515591621399,0.029282430186867714 -4.40224677324295,-0.581584982573986 l-1.0058839619159698,-2.326708734035492 -0.4259193688631058,-3.1955307722091675 l0.12308348901569843,-3.0073943734169006 0.6041370704770088,-1.3912075757980347 m14.916738271713257,5.062488913536072 l-0.2853810600936413,0.8488298207521439 -0.19642189145088196,3.088720738887787 l0.3231256827712059,3.2460978627204895 1.1801307648420334,2.3014140129089355 l1.3572876155376434,0.9938932955265045 3.6795535683631897,0.3948134556412697 l3.2586663961410522,-1.4001111686229706 1.4064253866672516,-1.6144584119319916 l0.9434348344802856,-2.724420130252838 0.05364553537219763,-3.2911837100982666 l-0.9003699570894241,-2.6087507605552673 -1.1043642461299896,-1.2560397386550903 l-5.068656802177429,-0.26527779176831245 -2.4521566927433014,0.40571585297584534 l-3.480736017227173,0.3507614880800247 -1.0457327961921692,0.00735921785235405 m68.84771302022273,-1.1751347914105281 l4.9422818422317505,-2.7167534828186035 8.742696642875671,-1.4862114191055298 l7.754282355308533,-0.4558773711323738 9.908007979393005,0.14572864398360252 l6.7463237047195435,0.40840234607458115 2.8139910101890564,0.08466453291475773 l0.008782116346992552,-0.011247616494074464 -1.5767844021320343,0.8522743731737137 l-0.8877801895141602,6.285392642021179 0.005965945892967284,3.63830029964447 l-0.3758634626865387,1.3602866232395172 -1.0640745609998703,0.1255637500435114 l-3.117898106575012,-1.3493219017982483 -2.6915207505226135,-0.8465602993965149 l-2.2304511070251465,-1.7725196480751038 -1.0026229172945023,-1.3228651881217957 l-1.144445464015007,-1.8604402244091034 -2.6149067282676697,3.888922333717346 l-1.292334496974945,2.4511979520320892 -8.262683749198914,0.10323982685804367 l-7.984247207641602,-1.1754357069730759 -4.323757886886597,-0.9879633039236069 l-1.089887097477913,-0.8667176961898804 -0.8855663239955902,-2.8768786787986755 l0.013223511632531881,-3.420550525188446 0.4664144292473793,-2.1038857102394104 m12.360742092132568,7.546482682228088 l0.45059993863105774,-0.3291301801800728 2.2156868875026703,-0.14413445256650448 l4.112330377101898,0.12155486270785332 4.041375815868378,0.29611244797706604 l3.5561859607696533,0.11619306169450283 2.690388262271881,0.015210479032248259 l2.2457456588745117,-0.2242770604789257 1.4957574009895325,-0.47085002064704895 l-0.00019591632735682651,-1.1298123747110367 -2.042224258184433,-5.8421629667282104 l-2.5649413466453552,-1.244686096906662 -8.355684876441956,0.12492621317505836 l-5.358548164367676,0.8141276985406876 -1.9077496230602264,0.8927130699157715 l-0.7575197517871857,0.9658711403608322 -0.5572519451379776,2.832275927066803 l0.5579620227217674,2.395828664302826 m67.34442470198701,-3.408380540786311 l7.2789037227630615,-2.361081540584564 10.498286485671997,-1.4763619005680084 l6.781556606292725,-0.3507727384567261 8.80207359790802,0.24996675550937653 l5.591599345207214,0.3317471966147423 0.30609898269176483,0.6258946657180786 l-0.8985072374343872,5.030648112297058 -0.4670606926083565,4.311685264110565 l-2.8138893842697144,0.197030957788229 -3.5058870911598206,-0.3332909196615219 l-2.5227606296539307,-0.3433476388454437 -2.004196047782898,-0.37475060671567917 l-1.4204329252243042,-0.15926241874694824 -2.7507925033569336,0.6539073586463928 l-6.734981536865234,0.6612605601549149 -6.1404335498809814,-0.11090814135968685 l-1.2530270218849182,-1.1750031262636185 -1.1169274896383286,-2.444259524345398 l-0.747547522187233,-2.133866399526596 -0.8761651068925858,-2.7316761016845703 l-0.06576883140951395,-0.9677156060934067 m8.116481900215149,8.055976629257202 l0.14752859249711037,-0.20560920238494873 1.0954462736845016,0.3920646011829376 l4.032646417617798,2.000388354063034 3.9395955204963684,1.3645505905151367 l3.5621285438537598,0.3868989273905754 2.786911427974701,-0.3715977817773819 l1.276441067457199,-0.7553917169570923 1.0881448537111282,-1.7314380407333374 l0.46615999191999435,-2.700072228908539 -0.5106751248240471,-2.7282440662384033 l-0.9792903065681458,-1.40729159116745 -1.4396609365940094,-0.8227445930242538 l-2.984156012535095,-0.49157362431287766 -8.381084203720093,0.6722496449947357 l-2.1786849200725555,0.633963942527771 -1.6173449158668518,1.2636326253414154 l-0.5182308331131935,1.1204001307487488 0.1248676236718893,2.498447149991989 l1.0656977444887161,1.1320976167917252 1.3134992122650146,0.42083028703927994 l2.263203263282776,-0.00025248509700759314 2.957322597503662,-0.9345687180757523 l0.46040821820497513,-1.9210979342460632 m62.116155026014894,-5.503665100495709 l9.71261203289032,-2.0736567676067352 11.430846452713013,-1.5197083353996277 l4.463136792182922,-0.2644939348101616 8.104537725448608,0.37176724523305893 l4.658674895763397,0.4191945120692253 0.02580242697149515,2.257023900747299 l-0.5402509495615959,6.001582145690918 -0.797014907002449,2.8216999769210815 l-1.4277122914791107,0.13185139745473862 -9.928363561630249,-1.21078722178936 l-2.843445837497711,-0.46393830329179764 -5.94571053981781,-0.23119276389479637 l-4.944272041320801,0.053591388277709484 -3.6541903018951416,0.16699181869626045 l-2.4233806133270264,-0.2354029379785061 -1.886865496635437,-0.6898069381713867 l-0.6212419643998146,-2.988874614238739 0.010835843859240413,-2.751688063144684 l0.2925361692905426,-1.7367902398109436 m6.964579224586487,8.99381399154663 l-0.9180141240358353,-0.1173336710780859 -1.1111260205507278,0.9695685654878616 l-0.6213997676968575,1.4162397384643555 -0.10584802366793156,2.454700917005539 l0.7317162305116653,1.4485225081443787 1.2593366205692291,0.8552270382642746 l2.288895398378372,0.32490991055965424 1.705494374036789,-0.5569947883486748 l1.2573638558387756,-1.2579666078090668 0.6022324785590172,-1.5555080771446228 l-0.1073160208761692,-2.2206826508045197 -0.8690744638442993,-1.2538209557533264 l-1.3143406808376312,-0.690271258354187 m19.850411415100098,-0.08243042044341564 l-0.7461545616388321,-0.3083116374909878 -2.2545816004276276,0.4944368079304695 l-0.8750453591346741,1.3577863574028015 -0.1963282749056816,1.4581634104251862 l0.3907385468482971,1.2425138056278229 1.0060472041368484,0.8977086842060089 l2.2251522541046143,0.6708955764770508 2.5584322214126587,-0.28446322306990623 l1.3444453477859497,-0.9775815159082413 0.6458549946546555,-1.3026535511016846 l0.027321025263518095,-2.0201298594474792 -1.1424211412668228,-1.7539232969284058 l-1.4245256781578064,-0.81572026014328 m47.750897746300325,-5.0801525777205825 l11.941584348678589,-1.7179222404956818 11.839966773986816,-1.4759540557861328 l3.6978837847709656,-0.2250003069639206 6.04674756526947,0.5784598365426064 l3.952295184135437,0.9231168031692505 -0.6277389079332352,8.704572319984436 l-0.7516922801733017,1.923307627439499 -0.9116793423891068,0.5268466472625732 l-10.423880815505981,-0.5991339683532715 -3.8721999526023865,-0.5502881109714508 l-6.819810271263123,-0.662069246172905 -4.624495506286621,-0.23078421130776405 l-3.5689836740493774,-0.07591076660901308 -2.011629045009613,-0.4798385500907898 l-0.32668285071849823,-0.5388150736689568 0.07625980768352747,-4.467661678791046 l0.33202070742845535,-1.9979894161224365 0.624721497297287,-0.9108597785234451 m5.390762686729431,10.106945037841797 l-0.9633670002222061,-0.041933064348995686 -0.9896980971097946,0.9844645857810974 l-0.4864748939871788,1.332598328590393 0.07762160152196884,1.304841786623001 l0.7102314382791519,0.932447537779808 1.2431032955646515,0.5642183497548103 l2.168545573949814,0.038233003579080105 1.3977351784706116,-0.7699306309223175 l0.791751965880394,-1.2209145724773407 -0.00012616896128747612,-1.9530634582042694 l-0.8163360506296158,-1.1929931491613388 -1.2257234752178192,-0.5964672565460205 m19.076521396636963,-0.3776543214917183 l-1.533057987689972,0.5114104598760605 -1.051921471953392,1.24769888818264 l-0.5686800926923752,1.9831100106239319 0.27337340638041496,1.2713532149791718 l0.9026740491390228,0.7349400222301483 1.9673997163772583,0.36430682986974716 l1.5093348920345306,-0.44713128358125687 1.0079140216112137,-1.0395359992980957 l0.6158819794654846,-2.017737627029419 0.000253511007031193,-1.6279298067092896 l-0.5377880483865738,-1.0704970359802246 -1.6093915700912476,-0.9643257409334183 l-1.601601392030716,-0.21423541009426117 m-14.460151195526123,-6.29173219203949 l-0.18631547689437866,-0.020609067287296057 0.17424028366804123,0.5106683820486069 l2.6540938019752502,3.0855166912078857 4.213035702705383,-0.28573624789714813 l-0.034875532146543264,-2.6561808586120605 -4.019385576248169,-0.8520293980836868 m65.98684651778967,0.0895377219421789 l13.730369806289673,-1.2033924460411072 11.137306690216064,-1.4121019840240479 l2.7580147981643677,-0.08753673173487186 4.089272320270538,0.9208843111991882 l1.803441047668457,7.802302241325378 -0.17913922667503357,2.664075195789337 l-0.6901378929615021,0.18912792205810547 -10.974652767181396,-0.48378191888332367 l-4.409323334693909,-0.27462102472782135 -7.979527115821838,-0.16015946865081787 l-4.112445712089539,-0.22084319964051247 -2.189694792032242,-0.760568231344223 l-1.2043829262256622,-1.5091431140899658 0.000272341858362779,-2.7053293585777283 l0.8335662633180618,-3.0426356196403503 0.663074254989624,-1.4224447309970856 m4.0733954310417175,10.721396207809448 l-1.0082489252090454,-0.006777480011805892 -1.029941737651825,1.1938822269439697 l-0.3678348660469055,1.3789677619934082 0.2177022397518158,1.2440195679664612 l0.805075615644455,0.7867036759853363 1.2881644070148468,0.35741865634918213 l2.0262157917022705,-0.3771280124783516 1.1567584425210953,-1.0774267464876175 l0.42184192687273026,-1.3173626363277435 -0.3072265349328518,-1.8628409504890442 l-0.8738047629594803,-0.6849519163370132 -1.9530196487903595,-0.3660602867603302 m19.2619526386261,0.06246553733944893 l-0.8349680155515671,-0.02989416942000389 -1.4974172413349152,0.985824465751648 l-0.7801854610443115,1.2752269208431244 -0.15841515734791756,1.1837323009967804 l0.47379396855831146,0.8996766060590744 1.0254085063934326,0.4504513368010521 l1.798151582479477,-0.08616783656179905 1.2381675094366074,-0.8306846022605896 l0.6238259747624397,-1.2144844233989716 -0.00012850525308749638,-1.5253011882305145 l-0.6825022399425507,-0.9677706658840179 -1.104988381266594,-0.5041754245758057 m-16.67829155921936,-7.325270771980286 l-0.5426095053553581,0.21221650764346123 -0.32356560230255127,0.9921832382678986 l0.552465170621872,2.3563112318515778 1.4905302226543427,0.5162608996033669 l3.609611690044403,-0.4606585204601288 0.4310169443488121,-2.327907532453537 l-1.0777395218610764,-1.7168918251991272 -3.4307965636253357,0.08733642287552357 l-1.388213038444519,0.7184109091758728 m74.82012258527902,-0.1964939764002338 l14.641709327697754,-0.7406322658061981 10.175681114196777,-1.266891211271286 l0.8100873976945877,0.3864911198616028 1.3453775644302368,2.0375187695026398 l1.11058808863163,6.496157646179199 -0.29078248888254166,2.4293726682662964 l-0.7898397743701935,0.23976903408765793 -13.62727165222168,-0.14080168679356575 l-8.6899334192276,-0.22673970088362694 -1.8945138156414032,-0.3655225411057472 l-1.8424656987190247,-0.8991368860006332 -1.01252980530262,-2.016104906797409 l0.0001851622982940171,-3.6919310688972473 0.7631455361843109,-2.9061707854270935 l0.5481116101145744,-0.434507392346859 m4.666067957878113,9.296929240226746 l-0.852949395775795,-0.05089656915515661 -0.9073244780302048,0.9738757461309433 l-0.38529541343450546,1.2745554745197296 0.22517403587698936,1.1213226616382599 l0.8694400638341904,0.7012521475553513 1.7243649065494537,0.3054109402000904 l0.7645262777805328,-0.37806227803230286 0.5604494363069534,-0.9668033570051193 l0.00017389183994964696,-1.7433324456214905 -1.473289579153061,-1.0904638469219208 l-1.262034922838211,0.07195136975497007 m16.696162223815918,-0.505855567753315 l-1.3009755313396454,0.678800418972969 -0.8095872402191162,1.1634183675050735 l-0.23861631751060486,1.1725414544343948 0.4139702767133713,0.8072752505540848 l1.0007955878973007,0.381258986890316 1.6539478302001953,-0.2637290209531784 l0.9648746252059937,-0.9655147790908813 0.3088502772152424,-1.1218775063753128 l-0.442277267575264,-1.4405766129493713 -0.9922457486391068,-0.7743370532989502 m-14.019712209701538,-6.89281702041626 l-0.29532793909311295,0.909263864159584 0.029138531535863876,1.1050698161125183 l0.5188120529055595,0.8253773301839828 1.994907557964325,0.3298311308026314 l3.156595230102539,-0.4998169466853142 0.1478626113384962,-2.1034659445285797 l-1.2158171832561493,-1.2416437268257141 -3.824774920940399,0.20527195185422897 l-0.9456644207239151,0.6918226927518845 m10.879745483398438,-0.7242870330810547 l-0.058810957707464695,2.3814135789871216 0.734097808599472,1.1504687368869781 l3.2685309648513794,-0.20536314696073532 0.5115524306893349,-2.262677699327469 l-0.825464203953743,-1.4185135066509247 -2.0247161388397217,-0.24249568581581116 l-1.9550848007202148,0.5554166063666344 m63.607765001761436,-0.027739417273551226 l14.347070455551147,-0.25301549583673477 8.449832201004028,-1.04635588824749 l0.4835546761751175,0.43227609246969223 0.36552194505929947,5.860083699226379 l0.10692381300032139,3.941960334777832 -0.7718626409769058,1.1650928109884262 l-11.299160718917847,0.5914179235696793 -9.694319367408752,0.11872058734297752 l-1.8789197504520416,-0.37809498608112335 -0.5024439096450806,-0.690486878156662 l-0.15959829092025757,-3.4280824661254883 0.5793418735265732,-4.822066426277161 l0.6529506295919418,-2.087111324071884 0.8509457856416702,-0.7992617785930634 m2.7808955311775208,10.292361974716187 l-0.7158424705266953,0.08176169358193874 -0.8684665709733963,1.027236431837082 l-0.30782265588641167,1.228327825665474 0.347299762070179,0.9558362513780594 l1.0045018047094345,0.5290951207280159 1.4490748941898346,-0.0005743874862673692 l0.9564182907342911,-0.7079268246889114 0.4295673593878746,-1.0897847265005112 l-0.26216236874461174,-1.5269401669502258 -0.7588501274585724,-0.4895174875855446 m12.469573020935059,-0.25723161175847054 l-1.1905795335769653,0.7536371797323227 -0.6531358510255814,1.1644714325666428 l-0.08822050876915455,1.082937866449356 0.5476261302828789,0.7028601318597794 l1.006559357047081,0.26757756248116493 1.5368898212909698,-0.45874226838350296 l0.7332940399646759,-0.9868908673524857 -0.00022535756215802394,-1.361893117427826 l-0.6294586509466171,-0.8828358352184296 m-11.424336433410645,-6.159578561782837 l-0.6721000373363495,0.5059945955872536 -0.3958144411444664,0.9093030542135239 l0.07851890288293362,0.9505695104598999 0.6736667454242706,0.6650166213512421 l2.1990227699279785,-0.00032859872590051964 0.715414360165596,-1.9214051961898804 l-0.980960801243782,-1.2294770777225494 -1.570221483707428,-0.029856122564524412 m9.411749243736267,-0.13713390566408634 l-0.5844184756278992,1.729249358177185 0.4883459210395813,1.8688441812992096 l0.5864442139863968,0.3426746279001236 1.8606461584568024,-0.0002880507963709533 l0.541575625538826,-0.47880832105875015 -0.00010607495823933277,-1.8651852011680603 l-1.6068626940250397,-1.2021318823099136 -1.8970820307731628,-0.03747181035578251 m64.81502947673107,-2.203088231617585 l12.535666227340698,0.23489810526371002 6.658475995063782,-0.7687884569168091 l0.25888971984386444,0.5111685022711754 -0.314500629901886,2.9918935894966125 l-0.5439102649688721,5.938275456428528 -0.9889744222164154,1.9226117432117462 l-10.382087230682373,0.6735126674175262 -8.11920166015625,0.059434911236166954 l-0.9707992523908615,-0.479002445936203 -1.1204645037651062,-2.545383870601654 l0.16000071540474892,-4.821828007698059 0.8751960843801498,-3.6054328083992004 l0.5521890893578529,-0.4387500509619713 m4.096111953258514,7.831562757492065 l0.16843922436237335,-0.16667848452925682 0.8720511943101883,0.426095649600029 l0.7396440207958221,1.4517977833747864 -0.2775457687675953,0.5844255164265633 l-1.3199611008167267,-0.6525994837284088 -0.4526299610733986,-1.4082494378089905 l0.9159388393163681,-0.5386399105191231 1.2349915504455566,0.04823025781661272 m6.6523391008377075,0.4803629592061043 l0.26777127757668495,0.26933513581752777 0.06739049684256315,1.5989479422569275 l-0.4555489495396614,0.5772703886032104 -0.9155020862817764,-0.7110176980495453 l-0.2405346743762493,-1.4889001846313477 0.9923791885375977,-0.38070082664489746 l1.1860642582178116,0.2518359571695328 m-5.372977256774902,-0.5628525093197823 l0.2730994485318661,1.0454604774713516 0.2995789982378483,1.1839855462312698 l0.1839623972773552,1.0075508803129196 0.09822220541536808,0.6183919683098793 l-0.0046799154370091856,0.1425594463944435 -0.19934449344873428,-0.5645269155502319 l-0.5230805650353432,-1.5698213875293732 -0.4661577194929123,-1.2047823518514633 m-0.8255507051944733,-2.642630934715271 l0.22389445453882217,2.0294685661792755 0.4112239181995392,1.5998061001300812 l0.48639729619026184,0.5954666435718536 1.4831706881523132,-0.00011478468877612613 l2.5870338082313538,-0.7307153195142746 0.20631073042750359,-2.3145076632499695 l-3.809497356414795,-1.4052420854568481 -1.9108574092388153,0.12259708717465401 m0.22901151329278946,-0.9604085236787796 l2.2875936329364777,0.10495216585695744 3.518158495426178,0.162927508354187 l2.9525962471961975,0.04644575994461775 1.4541777968406677,0.21352054551243782 l-7.571253263449762e-05,0.19410885870456696 -7.49566376209259,0.2715950645506382 l-3.1434524059295654,-0.0337021192535758 -0.8814804255962372,-0.08580961264669895 " fill="none" stroke="black" stroke-width="1" /></svg>