<?xml version="1.0" encoding="utf-8" ?>
<svg baseProfile="full" height="84.55177354626358" version="1.1" width="820.426860768348" xmlns="http://www.w3.org/2000/svg" xmlns:ev="http://www.w3.org/2001/xml-events" xmlns:xlink="http://www.w3.org/1999/xlink"><defs /><rect fill="white" height="84.55177354626358" width="820.426860768348" x="0" y="0" /><path d="M25,25 m0.0,0.0 m36.06382757425308,17.40213074554049 l-1.4481139183044434,0.05447011906653643 -1.7667053639888763,0.7579798996448517 l-2.0511938631534576,2.3129835724830627 -1.1734508723020554,2.416037768125534 l-0.613337866961956,3.5656574368476868 0.3309638798236847,3.0551111698150635 l1.1737589538097382,1.9984149932861328 3.3557119965553284,2.0317937433719635 l7.352766394615173,0.36011945456266403 2.2588397562503815,-0.7105781137943268 l1.8782158195972443,-1.2320297956466675 1.3600845634937286,-1.5079590678215027 l0.9101326763629913,-1.7522859573364258 0.4612467437982559,-1.971781849861145 l-0.00022892756533110514,-2.6736581325531006 -0.5339185148477554,-2.163872569799423 l-1.0048802942037582,-1.9012241065502167 -1.376841813325882,-1.5661577880382538 l-1.636778563261032,-1.167847141623497 -1.8667779862880707,-0.7192323356866837 l-2.8452083468437195,-0.3655311092734337 -1.9759741425514221,-0.00047562309191562235 l-2.068762332201004,0.7235122472047806 -0.8659140765666962,0.852615013718605 m4.793231189250946,6.533966064453125 l-1.0556983202695847,-2.696349322795868 -1.3992397487163544,-5.481567978858948 m3.1167367100715637,8.651967644691467 l-1.3413910567760468,4.117144048213959 m79.37654344746988,-11.10987660176761 l-1.7326116561889648,-0.01744706998579204 -2.399839460849762,0.6822476536035538 l-2.306700199842453,2.0325033366680145 -1.439938098192215,2.171529233455658 l-0.8253764361143112,2.4131260812282562 -0.07196913938969374,3.19186270236969 l1.3545487821102142,2.148214727640152 2.136075496673584,1.4317716658115387 l8.085758090019226,1.2337909638881683 2.460244446992874,-0.5384480208158493 l2.0658762753009796,-1.0927852243185043 1.610686480998993,-1.4937539398670197 l1.0274998843669891,-1.6946640610694885 0.5316698178648949,-1.910286545753479 l-0.00038165391742950305,-2.4168264865875244 -0.5268805474042892,-2.0485077798366547 l-1.0298269242048264,-1.785939633846283 -1.377197504043579,-1.4369170367717743 l-1.6982671618461609,-1.0442586243152618 -1.8956583738327026,-0.6120522320270538 l-1.9028235971927643,-0.16260599717497826 -2.4537812173366547,0.4256809875369072 l-1.8953494727611542,1.1369847506284714 m3.157813549041748,5.503594279289246 l-1.2639203667640686,-2.7280470728874207 -2.0300528407096863,-3.7601232528686523 m4.250430464744568,6.685128808021545 l-0.9159175306558609,4.803071022033691 m80.58250229598343,-10.547818766208366 l-1.9925956428050995,-0.09447453543543816 -3.0542412400245667,0.6055420264601707 l-2.640427052974701,1.8282745778560638 -1.7025615274906158,2.00484037399292 l-1.0193268209695816,2.1529507637023926 -0.28317688032984734,2.1890024840831757 l0.9759178757667542,2.329762428998947 3.063862919807434,2.0638923346996307 l7.149437665939331,1.142372190952301 2.640746235847473,-0.37744052708148956 l2.292049080133438,-0.9406817704439163 1.7481127381324768,-1.3510696589946747 l1.1238721758127213,-1.5624454617500305 0.5969541519880295,-1.7958855628967285 l-0.00038580728869419545,-2.288086712360382 -0.5634041503071785,-1.922457367181778 l-1.063184142112732,-1.6509364545345306 -1.4294904470443726,-1.339828073978424 l-1.7275121808052063,-0.9452517330646515 -1.89854234457016,-0.49291670322418213 l-2.4899499118328094,-0.025448501110076904 -1.515570729970932,0.5984929203987122 l-0.6467955559492111,0.7453428208827972 m1.6519752144813538,5.1915717124938965 l-1.3184510171413422,-3.2295194268226624 -2.1622857451438904,-4.011715650558472 m4.420219361782074,7.305582165718079 l-1.1346828937530518,4.5173341035842896 m82.2169980569015,-10.280630495399237 l-2.2573839128017426,-0.1623004674911499 -3.801831007003784,0.5037086829543114 l-2.814875543117523,1.554505079984665 -1.906302273273468,1.7397260665893555 l-1.2222814559936523,1.9377054274082184 -0.4522436484694481,1.941259354352951 l0.7191260904073715,2.1874088048934937 2.77100533246994,1.876324713230133 l5.9390997886657715,1.0779833793640137 5.231993198394775,-0.31236670911312103 l2.1186472475528717,-0.6690172106027603 1.6596214473247528,-1.119665503501892 l1.0931209474802017,-1.3862304389476776 0.578816831111908,-1.6224071383476257 l-0.00020132987629040144,-2.206568568944931 -0.5556591972708702,-1.780920922756195 l-1.0523629933595657,-1.5788182616233826 -1.4496183395385742,-1.2640053033828735 l-1.7084217071533203,-0.8204545825719833 -1.8639014661312103,-0.37413470447063446 l-2.465788573026657,0.12195378541946411 -2.0416852831840515,0.826619490981102 m1.110823079943657,4.364401698112488 l-0.9401077032089233,-2.9140010476112366 -1.306634247303009,-0.9822259098291397 m3.032011389732361,3.8437169790267944 l-0.7864972203969955,5.680227875709534 m83.64855785510372,-7.3790074698626995 l-2.478675991296768,-0.22259365767240524 -4.603023529052734,0.41657131165266037 l-3.005501627922058,1.337662935256958 -2.5562578439712524,1.9557197391986847 l-1.2681588530540466,1.7048195004463196 -0.42328260838985443,1.5916666388511658 l0.3118393011391163,1.4095650613307953 1.4847180247306824,1.296248584985733 l8.1199049949646,2.0216691493988037 5.0849610567092896,-0.2499866858124733 l2.184378504753113,-0.588344894349575 1.8072259426116943,-0.999373272061348 l1.215284839272499,-1.2601926922798157 0.6664446741342545,-1.5046627819538116 l-9.331090950581711e-05,-1.9782476127147675 -0.5979079380631447,-1.7329294979572296 l-1.1105941981077194,-1.4673645794391632 -1.5568231046199799,-1.1415044218301773 l-1.7695733904838562,-0.682409480214119 -2.584719657897949,-0.3264385461807251 l-2.3473963141441345,0.368560291826725 -0.8857551962137222,0.5663800984621048 m0.37601999938488007,3.8108155131340027 l-0.904521644115448,-1.7901331186294556 -1.8285095691680908,-8.156194686889648 m3.6412200331687927,10.469003915786743 l-0.16031723469495773,3.976920247077942 m84.92678059900754,-9.557472628358425 l-2.651166617870331,-0.28002308681607246 -5.422236919403076,0.3000725246965885 l-3.2981574535369873,1.1469010263681412 -2.831813097000122,1.6732652485370636 l-1.4404301345348358,1.4397093653678894 -0.6143258884549141,1.393032968044281 l0.13743369840085506,1.269456297159195 1.255183219909668,1.072121411561966 l5.801993012428284,1.7413783073425293 6.821521520614624,0.30868222936987877 l2.485540509223938,-0.40932197123765945 2.1857748925685883,-0.9191456437110901 l1.462693065404892,-1.248655766248703 0.7507635653018951,-1.4673955738544464 l-1.7550369193486404e-05,-1.7245019972324371 -0.6165880337357521,-1.5237227082252502 l-1.1534631997346878,-1.2866675853729248 -1.5369601547718048,-0.9186757355928421 l-1.7194539308547974,-0.5004467442631721 -1.9863779842853546,-1.943853078500979e-06 l-1.8213056027889252,0.6080492213368416 m-2.3086948692798615,2.8139451146125793 l-0.66811203956604,-2.4457819759845734 -0.6195627152919769,-4.45854514837265 l0.44326819479465485,5.393770337104797 0.42553748935461044,2.6868125796318054 m0.20242851227521896,4.008215665817261 l-0.0647162739187479,1.9840101897716522 m88.0579930218255,-10.09635598398745 l-2.782079577445984,-0.32786332070827484 -6.404560804367065,0.20466966554522514 l-3.5859355330467224,0.8773648738861084 -3.118048906326294,1.390693485736847 l-1.5697665512561798,1.1739464849233627 -0.6853678077459335,1.183195412158966 l0.056108892895281315,1.1643211543560028 1.8193495273590088,1.1804597079753876 l4.090265333652496,0.9151914715766907 7.983824014663696,0.377076230943203 l4.7165027260780334,-0.6111752614378929 1.6046547889709473,-0.5996575206518173 l1.0720813274383545,-0.9414812177419662 0.5175473168492317,-1.2354779988527298 l0.0005053021595813334,-1.6418859362602234 -0.6801933795213699,-1.379915326833725 l-1.25038281083107,-1.1185536533594131 -2.448708564043045,-1.0069721937179565 l-2.3273126780986786,-0.279313288629055 -2.14091956615448,0.4238491505384445 m-3.518756926059723,2.4639546871185303 l-0.45553863048553467,-1.123475357890129 -0.3903597593307495,-3.2674673199653625 l-0.29312293976545334,-4.1995978355407715 1.5273325145244598,6.18996262550354 l0.8164244890213013,2.772628664970398 m-1.9060568511486053,5.579192042350769 l-0.14247826300561428,4.065254032611847 -0.06334280129522085,0.17341317608952522 m91.0478756939483,-13.265528371557593 l-2.84338116645813,-0.3570292517542839 -7.313610911369324,0.052497824653983116 l-4.053857624530792,0.7045406103134155 -3.4136316180229187,1.116497591137886 l-2.2459708154201508,1.3286416232585907 -0.7564724981784821,1.0352008789777756 l0.12172535993158817,0.5832887068390846 1.08760304749012,0.6106110289692879 l4.125923216342926,0.8865994960069656 7.947330474853516,0.5769536271691322 l5.8607494831085205,-0.34441348165273666 2.7249720692634583,-0.7689407467842102 l1.3865596055984497,-0.9580633789300919 0.46602118760347366,-1.0838084667921066 l0.0006033601675881073,-1.2595690786838531 -0.7287188619375229,-1.1335016787052155 l-2.0601101219654083,-1.2535502016544342 -2.038476914167404,-0.467633381485939 m-8.228346109390259,1.9607159495353699 l-0.5899445712566376,-0.764942541718483 -0.9140440076589584,-2.1677637100219727 l-0.8721920847892761,-2.4907682836055756 -0.6754603236913681,-1.8682287633419037 l1.057073026895523,0.14333663508296013 2.0423568785190582,1.3484229147434235 l2.049480974674225,4.023128151893616 0.9444595128297806,2.4245910346508026 m-4.052078425884247,4.417771100997925 l-0.14180841855704784,7.460355758666992 0.1328889187425375,-0.19992172718048096 l0.7937279343605042,-2.3988887667655945 m91.80883306835312,-7.127092997543514 l-2.8452342748641968,-0.39204537868499756 -8.271039724349976,-0.07011213339865208 l-4.495168030261993,0.42929038405418396 -3.932589888572693,0.8499439060688019 l-2.514635920524597,1.0538439452648163 -0.8717239648103714,0.8102507889270782 l-0.040440051816403866,0.7287681847810745 0.6698388606309891,0.40889695286750793 l3.0771520733833313,0.7692141085863113 8.114702701568604,0.6722693890333176 l7.161193490028381,-0.20535385236144066 3.818317949771881,-0.7076892256736755 l1.6956855356693268,-0.8289193361997604 0.6235546618700027,-0.8936849981546402 l0.0007434661529259756,-1.0849397629499435 -1.9645975530147552,-1.2247371673583984 l-2.5394469499588013,-0.6266773492097855 m-10.262534618377686,1.4016951620578766 l-0.3311645984649658,0.020767017267644405 -0.5672653391957283,0.5053471401333809 l-2.306831479072571,3.6913353204727173 -0.36312833428382874,2.429363429546356 l0.7155008614063263,1.014595702290535 0.6920306384563446,0.21902119740843773 l2.400571256875992,-0.8654420077800751 1.2332785874605179,-1.348908394575119 l1.3913483917713165,-3.8349509239196777 0.33913593739271164,-1.9528828561306 m-4.814310073852539,-2.3941266536712646 l-0.7188691198825836,-2.288324236869812 -0.612979382276535,-5.692082643508911 l2.017572373151779,9.417940974235535 0.9007851034402847,1.0853195190429688 m93.89296482600912,-2.167915697805256 l-2.7826669812202454,-0.40083009749650955 -8.877527713775635,-0.20707963034510612 l-5.080336928367615,0.12547777965664864 -4.312306344509125,0.5543629080057144 l-2.8033649921417236,0.7738051563501358 -0.9732580929994583,0.6138079613447189 l-0.00015430003259098157,0.5796608328819275 1.6996783018112183,0.733511671423912 l4.673627316951752,0.723925456404686 6.207611560821533,0.2106214128434658 l6.29414439201355,-0.14056188985705376 5.229180455207825,-0.5475717037916183 l1.7943260073661804,-0.6415248662233353 0.5204874649643898,-0.7255183905363083 l-0.7464317232370377,-1.0537835210561752 -2.7934274077415466,-0.8042192459106445 m-13.679929971694946,1.27231165766716 l-0.10498387739062309,1.7617997527122498 0.14597146771848202,3.6545446515083313 l0.6207643076777458,1.9012390077114105 1.1314866691827774,0.6716938316822052 l2.5995177030563354,-0.00011634893780865241 0.6634166836738586,-0.5569614842534065 l0.8912268280982971,-2.9188495874404907 0.1434724871069193,-4.814034104347229 l-0.7794336974620819,-0.706474557518959 m-5.60752809047699,-1.5966947376728058 l-0.9582912176847458,-3.8153627514839172 0.08709757588803768,-2.0143932104110718 l1.146143525838852,0.05525416228920221 3.296874165534973,2.057226002216339 l1.549573540687561,2.9608234763145447 0.4751839116215706,1.8845434486865997 m-6.732621192932129,2.1837016940116882 l-0.5870067700743675,1.6513846814632416 -0.19584868103265762,1.2100909650325775 " fill="none" stroke="black" stroke-width="1" /></svg>