<?xml version="1.0" encoding="utf-8" ?>
<svg baseProfile="full" height="87.79020840134308" version="1.1" width="820.8055748543484" xmlns="http://www.w3.org/2000/svg" xmlns:ev="http://www.w3.org/2001/xml-events" xmlns:xlink="http://www.w3.org/1999/xlink"><defs /><rect fill="white" height="87.79020840134308" width="820.8055748543484" x="0" y="0" /><path d="M25,25 m0.0,0.0 m36.94026702083647,18.789744233804413 l-0.7362820953130722,-2.7423790097236633 -1.3702231645584106,-2.516709864139557 l-2.0736753940582275,-1.2425555288791656 -2.606126070022583,0.8136198669672012 l1.5807753801345825,4.0410736203193665 2.83827006816864,0.6443691998720169 m0.9635858237743378,0.0006237027264432982 l-1.1051369458436966,-2.6234742999076843 -0.7990452647209167,-2.999091148376465 l-0.6629473716020584,-2.7316027879714966 -0.28040483593940735,-1.2276273965835571 l-0.10546695441007614,-0.8865278214216232 0.5017775297164917,-0.594429187476635 l2.3327089846134186,0.40711890906095505 2.1299847960472107,6.164805293083191 l0.36443494260311127,3.2737770676612854 -0.05879497155547142,1.919047087430954 m-4.034295976161957,-0.6523078680038452 l-1.4622746407985687,6.477524042129517 -1.3250340521335602,5.78687846660614 l-0.2952513284981251,3.8699477910995483 0.7299923896789551,2.1556806564331055 l1.2232031673192978,1.081085205078125 1.567678153514862,0.5815061926841736 l3.138693869113922,0.0001119788703363156 1.8690511584281921,-0.9236356616020203 l1.2440542876720428,-1.4379037916660309 1.0946561396121979,-3.0209168791770935 l0.2719246596097946,-4.256310164928436 -1.5950597822666168,-6.188033819198608 l-1.2861937284469604,-2.3775681853294373 -1.591729074716568,-1.6868264973163605 m-3.4788379073143005,1.9488106667995453 l-5.372278690338135,-2.708677351474762 -3.559309244155884,-1.0545647889375687 l-2.8774860501289368,-0.06002351175993681 -1.5411944687366486,0.5608286336064339 l-1.7686101794242859,1.5433244407176971 -0.7265160232782364,1.4359809458255768 l-0.1423812098801136,2.1918772161006927 0.6721702963113785,1.3801662623882294 l1.26892551779747,1.0073050111532211 2.9469525814056396,0.9994146972894669 l2.3203860223293304,0.8403179049491882 3.887244462966919,0.9521987289190292 l0.47932762652635574,0.6806167215108871 -0.5317450314760208,1.8204551935195923 l-0.14208687469363213,1.8218636512756348 0.5094974488019943,0.5888266488909721 l1.9795061647891998,0.49750711768865585 4.387858510017395,-0.2042124792933464 m4.523437917232513,-12.57824420928955 l8.774542808532715,-2.739335000514984 5.574461817741394,-1.096901297569275 l2.6058465242385864,0.11404197663068771 1.5662193298339844,0.6496891379356384 l1.445353478193283,1.6762590408325195 0.3865313157439232,1.2388058751821518 l-0.26787715032696724,1.0363305360078812 -1.6434277594089508,1.4552581310272217 l-3.384093940258026,1.4327837526798248 -2.913346588611603,1.0968370735645294 l3.3806246519088745,1.2681634724140167 1.5215900540351868,1.69459268450737 l0.39472848176956177,1.4491891860961914 -0.702056884765625,1.8775469064712524 l-1.3894689083099365,1.0719699412584305 -5.6337738037109375,1.4979161322116852 m70.28111028703279,-11.972523148356231 l-0.9213355183601379,-2.8120464086532593 -1.8352030217647552,-3.2141825556755066 l-2.242944985628128,-1.7053128778934479 -2.6064619421958923,-0.7139778882265091 l-0.014730342663824558,0.7691119611263275 3.002822697162628,4.6060678362846375 m2.8012067079544067,1.7046356201171875 l-1.1330470442771912,-3.6722201108932495 -0.2399294637143612,-2.2334596514701843 l0.3043489158153534,-2.4689045548439026 0.8765885978937149,-1.280210167169571 l1.1775442212820053,-0.44711943715810776 1.7192469537258148,0.5056094750761986 l1.5728124976158142,2.086116373538971 0.4444486275315285,5.008091330528259 l-0.7718071341514587,3.5856521129608154 -1.219957023859024,2.843748927116394 l-1.1504551023244858,2.761698067188263 -1.0021409392356873,2.0324768126010895 l-0.8955764770507812,1.6076664626598358 -0.6636366248130798,1.069173887372017 m2.376824915409088,-15.593035221099854 l0.282658115029335,-0.6375399231910706 2.454228550195694,-1.937018632888794 l2.6840928196907043,-1.1233890801668167 3.6235612630844116,-0.5564041808247566 l3.704073131084442,0.4026647284626961 1.639101356267929,0.6961254775524139 l1.5596386790275574,1.618451178073883 0.8206948637962341,2.4571363627910614 l0.0004731609078589827,1.8740037083625793 -0.6921195238828659,1.2736040353775024 l-3.4078174829483032,2.3526446521282196 -4.13446307182312,1.3197293877601624 l4.20971006155014,0.5939985066652298 2.153816521167755,1.311485916376114 l1.0159417986869812,1.252860426902771 0.6264294683933258,2.211882174015045 l-0.46164315193891525,2.3588211834430695 -1.034778356552124,1.2385278195142746 l-2.719380557537079,1.363474279642105 -4.241563081741333,0.7060687988996506 l-7.245885133743286,-1.311916559934616 -1.010824739933014,-0.7473111152648926 m-3.8875019550323486,-16.6720974445343 l-5.232556462287903,-1.541944444179535 -6.35141134262085,-0.17396502196788788 l-1.1472690105438232,0.5241207778453827 -1.1651960760354996,1.551634818315506 l-0.28032245114445686,1.5496879816055298 0.4567538946866989,1.3176791369915009 l1.205221265554428,1.0267559438943863 2.802956700325012,1.0633119195699692 l3.867286443710327,0.5227266624569893 0.30536070466041565,0.3597370535135269 l-3.6386024951934814,2.051432281732559 -1.401820033788681,1.6490553319454193 l-0.5026925355195999,1.4612434804439545 0.17021659761667252,1.4877115190029144 l0.9632875025272369,1.2935404479503632 1.6575784981250763,1.0071498900651932 l3.3482107520103455,0.8961337804794312 3.415531814098358,0.00017383719750796445 l2.502552568912506,-0.6273771077394485 2.987338602542877,-1.672404706478119 l1.7199939489364624,-1.647171676158905 m75.95540034584701,-5.012824175901187 l-1.0973327606916428,-2.7240946888923645 -2.3006053268909454,-3.807213008403778 l-2.200232595205307,-2.1373650431632996 -1.4722059667110443,-0.9604059159755707 l-0.912996456027031,-0.9461838006973267 1.7269949615001678,1.9470423460006714 l2.2888104617595673,2.3617778718471527 m2.0385703444480896,3.6197519302368164 l-1.6055165231227875,-4.23158586025238 -1.2488147616386414,-2.461421936750412 l-1.1943410336971283,-1.3089805841445923 -1.1069376766681671,-0.1677345484495163 l-1.6023607552051544,0.9046448022127151 -0.8297263830900192,1.5038613975048065 l-0.39876699447631836,2.988502085208893 0.5983880534768105,5.418437123298645 l1.0117267817258835,3.258701264858246 0.4023442789912224,2.2379928827285767 l0.4630250483751297,1.6613852977752686 1.0297277569770813,0.7854441553354263 l1.8889175355434418,-0.0002735895031946711 1.2547717988491058,-0.9862688928842545 m3.63072007894516,-11.841245889663696 l4.485215246677399,-4.000166058540344 2.8775063157081604,-1.3963395357131958 l2.2392871975898743,-0.3609463572502136 1.5535256266593933,0.31931713223457336 l1.5795452892780304,1.2849032878875732 1.0951931774616241,2.2865381836891174 l0.09684805758297443,1.55475914478302 -1.0626869648694992,2.1332302689552307 l-2.487470805644989,2.026149034500122 -3.306768238544464,1.2545044720172882 l3.4362035989761353,0.4535401239991188 2.048993855714798,1.4099040627479553 l1.0238688439130783,1.3601693511009216 0.34311484545469284,1.169719398021698 l-0.3263086825609207,1.7842954397201538 -0.8817706257104874,1.1724065989255905 l-2.227923423051834,1.2288834899663925 -3.9963969588279724,0.802190974354744 l-4.138895273208618,-0.0003837035910692066 -2.318800836801529,-0.8821375668048859 m-4.488247036933899,-16.307554244995117 l-1.0785889625549316,0.0744485529139638 -3.1135129928588867,1.2119634449481964 l-1.625504195690155,1.4028652012348175 -0.7311242073774338,1.490514874458313 l-0.12969112023711205,2.2312551736831665 0.7369198650121689,1.5154947340488434 l1.2605641782283783,0.9277520328760147 3.8191038370132446,0.8173239976167679 l0.365326888859272,-0.0687709404155612 -1.2356510758399963,-0.840662270784378 l-1.8862751126289368,0.07268611341714859 -2.2195452451705933,1.2235026061534882 l-0.95418781042099,1.3500577211380005 -0.3816169872879982,2.155802547931671 l0.548974871635437,1.487027108669281 1.264740377664566,1.0363350063562393 l2.8966614603996277,0.9166346490383148 2.90073424577713,0.00025917994207702577 l2.0806188881397247,-0.7001909613609314 2.2890688478946686,-1.7721520364284515 l1.112794578075409,-1.7042753100395203 m77.36847132560797,-1.497104236859741 l-1.2583333253860474,-2.5890299677848816 -2.7666175365448,-4.327942430973053 l-2.181153893470764,-2.4489131569862366 -1.265864223241806,-1.5259259939193726 l-0.997413843870163,-1.5940691530704498 1.05921171605587,-0.15513140708208084 l1.851046085357666,1.144724190235138 m3.168945610523224,8.151758909225464 l-1.0648297518491745,-4.315682649612427 -0.09385873563587666,-2.6098811626434326 l0.5251165106892586,-2.703350782394409 0.9735680371522903,-1.4221015572547913 l1.3223034143447876,-0.6189095601439476 1.315777450799942,0.15384391881525517 l1.5889492630958557,1.5326952934265137 1.101473867893219,4.71649557352066 l-0.013396384892985225,4.348413646221161 -0.6609801203012466,3.0859342217445374 l-0.9087439626455307,2.73845374584198 -1.0051804780960083,1.8130601942539215 l-0.9007163345813751,0.6795201450586319 -2.354983538389206,0.3953162208199501 l-1.1930710077285767,-0.6082919985055923 -1.1570446193218231,-1.7339898645877838 m5.85654616355896,-11.012804508209229 l2.062980532646179,-1.3493125140666962 3.6913329362869263,-1.3333690166473389 l3.9321839809417725,-0.2730148658156395 3.2111775875091553,0.8077467978000641 l1.3911499083042145,0.8606287091970444 1.1596904695034027,1.7543761432170868 l0.2565847709774971,1.3357582688331604 -0.6716795265674591,1.9032977521419525 l-2.0826178789138794,1.8670134246349335 -3.129662573337555,1.3186734914779663 l3.2441848516464233,0.790289044380188 1.4747068285942078,1.5382453799247742 l0.5180564150214195,1.3199177384376526 -0.05126927513629198,1.1097278445959091 l-1.0337060689926147,1.5667235851287842 -2.576684355735779,1.631648987531662 l-2.248503714799881,0.5899666994810104 -5.544046759605408,0.05645183380693197 l-1.1693644523620605,-0.42755555361509323 m-7.242339253425598,-15.77978253364563 l-1.1311361193656921,-0.29381994158029556 -3.6501455307006836,-0.04207087680697441 l-2.930634319782257,2.0533975958824158 -0.756119042634964,1.5521875023841858 l0.03079078160226345,1.4146515727043152 0.7443886250257492,0.9968560189008713 l2.130751758813858,0.9274231642484665 1.2215222418308258,0.487675778567791 l2.240283042192459,0.29339956119656563 -0.3398200124502182,-0.05358177702873945 l-2.651653289794922,1.4133523404598236 -0.9361535310745239,1.3255296647548676 l-0.24860022589564323,1.2510287761688232 0.3923390060663223,1.0776971280574799 l1.0675916820764542,0.828709751367569 2.4160942435264587,0.7142002880573273 l2.3904292285442352,0.00021804851712659 1.8269546329975128,-0.5972154438495636 l1.2936124205589294,-1.0042674839496613 m80.57681750273332,-0.765620372549165 l-1.3912379741668701,-2.3259611427783966 -3.172355592250824,-4.537433981895447 l-2.1349257230758667,-2.798031270503998 -1.0513245314359665,-1.6019530594348907 l-0.4984083026647568,-1.2016268819570541 -0.04133228678256273,-1.6076909005641937 l1.3694044947624207,-2.5888797640800476 1.460704654455185,1.6121552884578705 m3.529951572418213,10.559879541397095 l-0.9215697646141052,-3.262457549571991 -0.9584193676710129,-2.704949378967285 l-0.9468097239732742,-2.8537723422050476 -1.115914136171341,-2.298213094472885 l-0.9878632426261902,-1.0543446987867355 -1.0604728013277054,-0.11675802059471607 l-1.632276028394699,1.083991378545761 -0.8592299371957779,1.7455857992172241 l-0.3647584095597267,3.171233832836151 1.2441616505384445,5.152297019958496 l0.43007470667362213,3.2710427045822144 0.8121689409017563,2.3300115764141083 l1.1758500337600708,1.8372580409049988 1.9350463151931763,1.4496169984340668 l1.8090233206748962,0.546153262257576 2.4038241803646088,-0.308787077665329 l1.2547309696674347,-1.0198447108268738 1.507466435432434,-3.447601795196533 m-0.977228432893753,-7.560139298439026 l5.347273349761963,-2.3721501231193542 3.005414307117462,-0.4746498167514801 l3.1943872570991516,0.34610990434885025 1.4831538498401642,0.9094242006540298 l1.11000157892704,1.6916492581367493 0.2227810025215149,1.2775465846061707 l-0.739697590470314,1.730666309595108 -1.1958377808332443,1.0374949127435684 l-2.4079786241054535,0.905279815196991 -1.360085904598236,0.44095374643802643 l2.267974764108658,1.590704321861267 0.598289743065834,2.1605023741722107 l-0.5538832768797874,2.2569726407527924 -0.9661980718374252,1.050095185637474 l-2.2751879692077637,0.9365528076887131 -3.6482152342796326,-0.00017461647075833753 l-2.668343186378479,-1.0662111639976501 m-4.760889112949371,-14.107245206832886 l0.282403863966465,-0.22069761529564857 0.8548181504011154,0.08016564883291721 l2.7503415942192078,0.9342965483665466 1.8303345143795013,0.7731886953115463 l1.482073813676834,0.8238844573497772 1.1210482567548752,0.8294267952442169 l0.7461812347173691,0.8218937367200851 0.25439614430069923,0.7748528569936752 l-0.4806116223335266,0.7811537384986877 -1.6419710218906403,0.8062368631362915 l-2.6347696781158447,0.42254727333784103 -2.029091715812683,-0.3043478913605213 l-1.562437266111374,-0.9600397199392319 -0.7352013140916824,-1.115199699997902 l-0.11516020633280277,-1.2179340422153473 0.5891485139727592,-0.9917008131742477 m85.65793897796539,9.909835171893064 l-1.5214285254478455,-2.03621968626976 -3.4805917739868164,-4.554989039897919 l-2.117665559053421,-2.8039228916168213 -1.1048290878534317,-1.8220938742160797 l-0.520629957318306,-1.4367708563804626 -0.007045429083518684,-2.0914268493652344 l1.3186818361282349,-3.3121153712272644 1.4295202493667603,-1.1712361872196198 l0.8486190438270569,3.5932353138923645 0.6140556186437607,3.0993998050689697 m2.080233097076416,5.541601181030273 l-0.15537739731371403,-2.1170157194137573 0.8791454881429672,-3.2383766770362854 l1.9775621592998505,-3.119000792503357 1.75129234790802,-1.3612183928489685 l2.527397871017456,-0.7141372561454773 1.5893414616584778,0.29600026085972786 l1.881047785282135,1.5444540977478027 1.4806100726127625,2.9916730523109436 l0.0008383193926420063,2.317630350589752 -0.7267960906028748,1.473442167043686 l-2.9125425219535828,2.389591783285141 3.594561219215393,1.0456737130880356 l1.5900179743766785,1.5747496485710144 0.95747210085392,2.418892979621887 l0.02171499188989401,2.4715714156627655 -0.6118731573224068,1.267230212688446 l-1.8220482766628265,1.3536332547664642 -1.8200816214084625,0.5221701413393021 l-4.698401093482971,-0.21862799301743507 -2.6194846630096436,-1.1913623660802841 l-0.7314082235097885,-0.7883956283330917 m-5.272475481033325,-12.507426738739014 l-1.5580932796001434,-0.7384071499109268 -2.582155168056488,-0.3083309717476368 l-4.064283967018127,1.6102181375026703 -1.331421285867691,1.4486248791217804 l-0.4159749299287796,1.3568945229053497 0.24033455178141594,1.1947465687990189 l0.8954840153455734,0.9263060241937637 2.1111880242824554,0.911400243639946 l0.9521009027957916,0.5844574421644211 1.604055017232895,1.3391315937042236 l0.527905747294426,0.823889896273613 0.6426549702882767,2.2263556718826294 l1.2620529532432556,1.085927039384842 1.4763522148132324,0.4165096953511238 l1.9074815511703491,-0.30912313610315323 m1.2607677280902863,-16.098039150238037 l-0.47864366322755814,-0.3911440446972847 -0.5678930133581161,-0.4009993374347687 l-0.5693966895341873,-0.3620007261633873 -0.5311670899391174,-0.20192310214042664 l-0.4384050518274307,0.07857684977352619 -0.09338324889540672,0.5247470363974571 l0.6444597989320755,1.0611438751220703 1.1225928366184235,0.6366783380508423 l1.476428210735321,-0.00034598309866851196 1.0051817446947098,-0.640006810426712 l0.42081765830516815,-0.9571588784456253 -0.5359924957156181,-0.5726355686783791 l-1.2234869599342346,-0.05925904028117657 m79.20996690818356,15.940008411671442 l-1.617085486650467,-1.667763590812683 -3.743129074573517,-4.4302502274513245 l-2.1178926527500153,-2.864578664302826 -1.03250153362751,-1.937505304813385 l-0.422365665435791,-1.6276118159294128 0.1203110720962286,-1.4944392442703247 l0.6851267069578171,-1.1421293020248413 2.421085685491562,-1.5544645488262177 l-0.23029083386063576,0.5768300965428352 -1.5715350210666656,4.533725678920746 m5.9260934591293335,5.360639691352844 l-0.08833322674036026,-4.035007357597351 0.9991703927516937,-4.145108461380005 l1.3446976244449615,-2.1722814440727234 2.4292808771133423,-1.8180248141288757 l2.022596597671509,-0.5648474395275116 1.596812754869461,0.29723912477493286 l1.8399815261363983,1.6295503079891205 0.8854338526725769,1.5550124645233154 l0.47023821622133255,2.834829092025757 -0.5765004083514214,3.146044611930847 l-1.5052318572998047,2.6072943210601807 3.2178130745887756,0.9042702615261078 l1.6857323050498962,1.6326554119586945 1.0946932435035706,2.4519458413124084 l-0.00044159958633827046,1.9764915108680725 -1.1469641327857971,1.8523070216178894 l-1.3411906361579895,0.9037275612354279 -4.1025689244270325,0.7191184163093567 l-3.5375943779945374,-0.0001605368743184954 -2.5713783502578735,-1.089092418551445 l-0.7261151075363159,-0.7862881571054459 -0.45557864010334015,-1.6510795056819916 m-3.421527147293091,-10.872330665588379 l-1.014486700296402,-0.2387884072959423 -3.2069048285484314,0.13878434896469116 l-2.558686137199402,1.7296427488327026 -0.813671424984932,1.4576829969882965 l-0.07782126776874065,1.3256622850894928 0.6361948698759079,1.0587209463119507 l1.165250539779663,0.6939493119716644 3.2919034361839294,0.45994706451892853 l0.39639540016651154,-0.0852498784661293 -0.39151478558778763,-0.49686238169670105 l-3.1497550010681152,-1.1201485991477966 -0.7267062366008759,0.5646879971027374 l-0.057956031523644924,0.935971811413765 0.8651049435138702,1.6113117337226868 l1.3240595161914825,0.8905468136072159 2.159382700920105,0.5137991905212402 l2.2193440794944763,-0.31427882611751556 1.226840764284134,-0.8338788896799088 l0.6399735808372498,-1.064257100224495 0.5307680368423462,-1.0174597799777985 l0.4394897073507309,-0.6949499994516373 0.1489252783358097,-0.962291955947876 l-0.4177567735314369,-1.2277156859636307 m79.62085524835857,5.849068570096279 l-1.71030193567276,-1.2686742842197418 -3.9031925797462463,-3.9786240458488464 l-2.144220322370529,-2.867993116378784 -0.9857042878866196,-2.041694223880768 l-0.3690287843346596,-1.8348859250545502 0.18332721665501595,-1.6348057985305786 l1.197878047823906,-2.1281149983406067 1.446116864681244,-1.1083269864320755 l2.0927543938159943,-0.35492081195116043 -0.49296610057353973,1.2277473509311676 l-3.0920517444610596,6.493732929229736 1.6629146039485931,-1.1669670045375824 m6.033464670181274,3.7670356035232544 l0.4099995642900467,-1.4992596209049225 2.0374035835266113,-3.052288293838501 l3.1789323687553406,-2.8793320059776306 2.458765208721161,-1.1625474691390991 l1.9643387198448181,-0.17319105565547943 2.0195768773555756,0.9434977918863297 l1.1364759504795074,1.21803417801857 0.934474915266037,2.434408664703369 l0.00038850896089570597,2.7085626125335693 -2.0179390907287598,4.358478784561157 l-1.4505404233932495,1.4637856185436249 -3.4508103132247925,1.526392251253128 l-1.154358834028244,0.519685298204422 -1.8770401179790497,0.4727979749441147 l-0.9363023936748505,0.3861609101295471 -2.1898508071899414,1.4092181622982025 l-1.7200267314910889,1.2475579977035522 -1.4663445949554443,1.1853651702404022 l-1.5067893266677856,0.8928270637989044 -2.489921599626541,0.852184072136879 l-0.9290806949138641,-0.4056737944483757 -0.7987678050994873,-1.455855816602707 m6.97970986366272,-13.37544322013855 l0.13747175224125385,2.3586781322956085 0.38177743554115295,1.7894211411476135 l0.6461335718631744,1.0381530970335007 1.1706040799617767,3.8197013054741547e-05 l0.8003682643175125,-0.7344649732112885 0.5947154760360718,-1.8979263305664062 l-0.0002225867319793906,-1.7471054196357727 m-4.497912228107452,-3.998357355594635 l-0.7888896763324738,0.16799870878458023 -0.6567433476448059,0.6417123973369598 l-0.16455454751849174,0.829755887389183 0.4590482637286186,0.6088705360889435 l1.1550252139568329,9.485353984928224e-05 0.5706879124045372,-0.41433531790971756 l0.31174687668681145,-0.80032579600811 -0.7656174153089523,-0.526411235332489 l-0.7906357944011688,0.175232645124197 -0.257711298763752,0.5532130599021912 l0.32809704542160034,0.9611948579549789 0.9110545367002487,0.37746526300907135 l0.4003845527768135,-1.068158745765686 m80.91213169940602,16.64132239116043 l-1.7291849851608276,-0.8291436731815338 -3.986107110977173,-3.374963104724884 l-2.0924605429172516,-2.7667301893234253 -0.9597901999950409,-2.244063764810562 l-0.3025500662624836,-2.055194079875946 0.24331199005246162,-1.9374260306358337 l0.8389455080032349,-1.568956971168518 1.2587088346481323,-1.0282953828573227 l2.1031366288661957,-0.5115066096186638 0.0676536001265049,-0.7792550325393677 l0.005320691270753741,-3.8083335757255554 2.1612249314785004,2.0240914821624756 l2.194311022758484,4.124855101108551 2.02051043510437,1.8173196911811829 l1.7635905742645264,-1.5069103240966797 4.927114546298981,-4.537225067615509 l0.7635700702667236,3.4134188294410706 -0.006484030745923519,4.0781912207603455 l-0.2801947109401226,1.6726358234882355 3.1807538866996765,0.07478703279048204 l1.9913582503795624,0.697547122836113 -0.5352315306663513,5.753747820854187 l-1.5856842696666718,1.2234971672296524 -2.6837384700775146,0.8017563819885254 l-2.7601230144500732,-0.0004358887963462621 -2.0798638463020325,-0.2905378118157387 l-1.700923889875412,-0.25847287848591805 -1.5868096053600311,-0.04431354347616434 l-1.4009836316108704,0.05095989443361759 -1.0747697204351425,-0.012706636916846037 l-1.7137323319911957,-0.3673902899026871 -0.5684966593980789,-0.3582162410020828 l-0.17615683376789093,-1.186152845621109 0.9066587686538696,-0.9455354511737823 l2.822163999080658,-0.6078122928738594 m4.313340187072754,-2.0225563645362854 l0.15837909653782845,1.6388124227523804 0.3652197867631912,1.9917087256908417 l0.3136660158634186,0.8696030080318451 0.8706951141357422,0.7384327054023743 l1.1785992234945297,0.0677912961691618 1.7668130993843079,-1.5056678652763367 l0.019031785195693374,-2.864188253879547 m-6.204153299331665,-3.018762767314911 l-0.689714103937149,0.023719810415059328 -0.5754770711064339,0.32372351735830307 l-0.3397141396999359,0.7424925267696381 0.24479126557707787,0.6471450626850128 l0.7462781667709351,0.00012526278624136467 0.5351993441581726,-1.1068616807460785 l-0.2806803956627846,-0.531294159591198 -0.6650717556476593,0.21202880889177322 l-0.2692398428916931,0.7936356961727142 0.7159283757209778,0.05479217041283846 l0.07125912234187126,-0.6822254508733749 -0.5305878818035126,-0.16826430335640907 m77.15706131970364,5.995476065099865 l-1.754891574382782,-0.43651431798934937 -3.848516345024109,-2.664114236831665 l-2.0776695013046265,-2.528938949108124 -0.9697911143302917,-2.1995916962623596 l-0.3156529739499092,-2.11532324552536 0.2665744721889496,-2.022886574268341 l1.2840946018695831,-2.6125752925872803 1.422906070947647,-1.4269514381885529 l1.5202607214450836,-0.6367065012454987 4.007930755615234,0.4041977599263191 l0.3851209208369255,0.41257958859205246 0.000679573931847699,1.681104302406311 l-1.7575766146183014,7.176288962364197 5.058029294013977,-2.3779432475566864 l4.023566842079163,-1.1994925141334534 5.502638220787048,-2.250938266515732 l3.1909865140914917,-0.9831251949071884 0.2157214842736721,1.6858983039855957 l-0.8144185692071915,7.105070352554321 -0.9187353402376175,2.129456400871277 l-1.7408649623394012,1.7792657017707825 -1.621001660823822,1.1467239260673523 l-3.259311318397522,1.1511008441448212 -1.9490380585193634,0.509975329041481 l-1.6789630055427551,0.12688844464719296 -1.6993246972560883,0.016608203295618296 l-1.592409759759903,-0.14581206254661083 -1.3662958145141602,-0.1890815980732441 l-1.0708257555961609,-0.27990153059363365 -2.7739351987838745,-1.2594994902610779 m6.96471631526947,-7.3727476596832275 l0.010758873540908098,2.245810180902481 0.2037901058793068,2.948615849018097 l0.5196411162614822,1.8909333646297455 0.7095593214035034,0.7303575426340103 l1.2487340718507767,0.2457774430513382 2.239740490913391,-0.9250956028699875 l0.4671798646450043,-3.155328929424286 0.000740022660465911,-2.980600595474243 m-5.137766003608704,-3.374631702899933 l-0.22460777312517166,0.3060426190495491 0.0002872793447750155,-0.07419516798108816 l0.25844648480415344,-0.8471506834030151 -0.07134751882404089,-0.19812492653727531 l-0.506763756275177,0.41469134390354156 -0.02897686092182994,0.4113505408167839 l-0.0004962234015692957,0.10046358220279217 0.042792013846337795,-0.6496120989322662 l-0.33791355788707733,-0.08216251619160175 -0.1620173640549183,0.5577139183878899 l0.38125474005937576,-0.4600294306874275 -0.2473485842347145,-0.15270662494003773 l-0.27020784094929695,0.5809013918042183 " fill="none" stroke="black" stroke-width="1" /></svg>