<?xml version="1.0" encoding="utf-8" ?>
<svg baseProfile="full" height="81.19869262401608" version="1.1" width="824.4513169269158" xmlns="http://www.w3.org/2000/svg" xmlns:ev="http://www.w3.org/2001/xml-events" xmlns:xlink="http://www.w3.org/1999/xlink"><defs /><rect fill="white" height="81.19869262401608" width="824.4513169269158" x="0" y="0" /><path d="M25,25 m0.0,0.0 m42.400550719085004,18.78668337660656 l-1.406894028186798,-2.6845476031303406 -1.8026304244995117,-1.955086588859558 l-2.245955169200897,-0.714658573269844 -1.6158603131771088,-0.0001784416235750541 l-0.9493862837553024,0.6235963851213455 -0.7147462666034698,1.4694951474666595 l0.00018598957467474975,1.725454181432724 0.368473157286644,0.5735472962260246 l1.5113525092601776,0.7079505920410156 -1.4691105484962463,0.052841734141111374 l-1.966715157032013,0.48474494367837906 -1.5399016439914703,1.2568822503089905 l-1.0976334661245346,2.097681313753128 -0.17558589577674866,1.6025607287883759 l0.5544306337833405,1.243518590927124 1.8901580572128296,1.384926587343216 l3.005143105983734,0.8084067702293396 2.410678416490555,6.577843123523053e-05 l1.0213946551084518,-2.5899738073349 0.45629382133483887,-2.715979218482971 l0.4977293685078621,-0.8088554441928864 0.3146834298968315,-0.17912304028868675 l1.0290532559156418,1.6907328367233276 -0.026940018869936466,4.690038859844208 l-0.542658157646656,1.730075180530548 -0.4035206139087677,-2.1160292625427246 l-0.38638390600681305,-7.174431085586548 0.5422834679484367,-1.0159556567668915 l4.191269278526306,-1.1182335019111633 2.4265991151332855,0.7219727337360382 l-0.9668365120887756,5.684002637863159 -1.8046797811985016,1.300697773694992 l-1.9068998098373413,0.4331330955028534 2.9689407348632812,-0.2806100435554981 l1.6978991031646729,0.34712228924036026 1.2864027917385101,1.1247391998767853 l0.3388851508498192,0.8776459097862244 -0.3272845968604088,1.1956136673688889 l-1.397733986377716,1.2178142368793488 -2.1497145295143127,0.7204107940196991 l-1.047210469841957,-0.00024714985556784086 -1.1095701903104782,-0.5235155671834946 l-0.8512488752603531,-0.7985161244869232 -0.6825011223554611,-0.8738593757152557 l-0.3054747171700001,-1.4084316790103912 m84.31399832914394,-8.291968335850584 l-1.2399815022945404,-3.5542485117912292 -1.7562475800514221,-2.3341789841651917 l-2.309095561504364,-1.1048033833503723 -2.2741393744945526,-0.07531775161623955 l-1.1433197557926178,0.5380791425704956 -0.6855311989784241,0.9125939756631851 l-0.3614795580506325,1.6810707747936249 0.34594833850860596,1.2362294644117355 l0.18991298973560333,0.7386131584644318 0.5036323145031929,1.6824379563331604 l-0.1917930692434311,0.43117742985486984 -3.5917305946350098,0.794912576675415 l-1.6988079249858856,0.8276798576116562 -1.2960149347782135,1.49040088057518 l-0.35230740904808044,1.3280929625034332 0.3693109005689621,1.1335046589374542 l1.1304513365030289,0.860775038599968 4.197697043418884,1.1781157553195953 l3.537057340145111,4.821637276108959e-06 1.07261560857296,-2.0881710946559906 l0.5115053430199623,-2.345404475927353 m4.797435104846954,-6.0978007316589355 l-0.36177195608615875,-0.07460842374712229 -0.005008737207390368,0.3634830564260483 l1.1402536928653717,3.9887401461601257 0.9336324781179428,3.9165395498275757 l0.3078570030629635,2.537209391593933 0.033501433208584785,1.3577066361904144 l-0.2581900544464588,0.7933457940816879 -0.9109052270650864,0.720597505569458 l-2.3708564043045044,0.5189656466245651 -1.16036556661129,-0.575290359556675 l-0.7037709653377533,-1.4249518513679504 0.00019322735170135275,-3.065207600593567 l0.47098588198423386,-3.116733133792877 0.6454996764659882,-2.7323737740516663 l0.5338287353515625,-1.971428543329239 0.7341360300779343,-0.9332071244716644 l2.90334552526474,-0.6619127094745636 1.7881648242473602,0.5270581692457199 l0.7823588699102402,0.7521692663431168 0.45632828027009964,1.4035160839557648 l-0.37191517651081085,1.682301014661789 -0.8763469010591507,0.8118833601474762 l-2.565530836582184,0.7069194316864014 -0.23341184481978416,-0.21591858938336372 l2.1302133798599243,0.3855682909488678 1.1315611749887466,0.9718825668096542 l0.35528555512428284,1.5346553921699524 -1.4797410368919373,0.7394071668386459 l-2.7377909421920776,0.24135557934641838 m78.00238080790223,-5.727732620292159 l-1.1092114448547363,-4.602440893650055 -1.5744134783744812,-2.5580132007598877 l-2.4154947698116302,-1.4363372325897217 -2.6724067330360413,-0.30010469257831573 l-1.8417377769947052,0.47992125153541565 -1.0560976713895798,0.8267565816640854 l-0.5635619163513184,1.1370594799518585 -0.0859016552567482,1.2643252313137054 l0.47785844653844833,1.0615748912096024 1.3840579986572266,1.1345868557691574 l-0.9689805656671524,0.45853760093450546 -3.784708082675934,1.3616712391376495 l-1.4445053040981293,1.1870771646499634 -0.5303919315338135,1.1523856967687607 l0.21034598350524902,1.7205317318439484 1.0160152614116669,1.0457537323236465 l5.898131728172302,1.6398036479949951 2.2257666289806366,0.05210177041590214 l0.29131535440683365,-0.21202228963375092 -0.666462704539299,-1.489255428314209 l-0.5175643041729927,-1.329677551984787 -0.0008275785512523726,-2.08446204662323 l1.349957138299942,-0.27724994346499443 1.0858158767223358,2.3736774921417236 l0.6536605954170227,2.71770179271698 -0.11013396084308624,0.5174947902560234 l-0.16166970133781433,-1.770603060722351 0.3168600797653198,-2.649964392185211 l0.6691409647464752,-1.3078449666500092 m3.3871132135391235,-1.4901132881641388 l4.204114675521851,-1.4349979162216187 3.1431904435157776,-0.27949731796979904 l1.33853480219841,0.5626186355948448 1.014527603983879,1.3832172751426697 l-0.00041730058001121506,1.5237008035182953 -1.3336840271949768,1.6622479259967804 l-2.378450185060501,1.1192206293344498 2.1121472120285034,0.8626901358366013 l0.8074011653661728,1.3287019729614258 0.16755085438489914,1.7754939198493958 l-0.45786820352077484,1.0008538514375687 -1.3335005939006805,0.9803895652294159 l-2.156127691268921,0.6047883257269859 -1.7242218554019928,-0.00014260180250857957 l-1.9260704517364502,-0.6671145558357239 -0.8887176215648651,-0.7217419147491455 l-0.7211620360612869,-1.5345901250839233 -0.36673910915851593,-0.5002378299832344 l-0.0002546028554206714,-0.5278803035616875 0.8964988589286804,-0.8035908639431 l0.035580964758992195,-0.6307730078697205 -0.417926087975502,-0.9714607894420624 l-0.48212379217147827,-1.1782515794038773 -0.3602316975593567,-1.2180767208337784 l0.3808172792196274,-1.0282451659440994 m80.73252552365375,0.5199697894022393 l-0.8983464539051056,-5.474628806114197 -1.4205823838710785,-2.6985198259353638 l-1.4530281722545624,-1.2529094517230988 -3.137626051902771,-0.8538571000099182 l-2.749718129634857,-0.0006877352279843763 -1.5089929103851318,0.5166381970047951 l-1.0166606307029724,0.9214102476835251 -0.5813678354024887,1.2978042662143707 l-0.02050209091976285,2.0080189406871796 0.6490110605955124,1.2419316172599792 l2.350539118051529,1.6263116896152496 -0.9165418148040771,0.3470718115568161 l-4.109257459640503,0.9408008307218552 -1.5787404775619507,1.0752607882022858 l-0.6559815257787704,1.11192986369133 0.005235257558524609,1.0795824974775314 l0.7604739814996719,0.8825711160898209 3.60255628824234,1.6330507397651672 l3.8754117488861084,0.5242913216352463 2.919248938560486,-0.024106795899569988 l1.2827500700950623,-0.43945953249931335 m4.0236687660217285,-9.487497806549072 l-1.6281990706920624,3.365156054496765 -1.2744730710983276,4.0502676367759705 l-0.44711295515298843,3.04208904504776 0.29797865077853203,2.048085629940033 l0.4969698190689087,0.6241041421890259 1.3509264588356018,0.3465932607650757 l1.8731138110160828,-6.321739874692867e-05 1.3887330889701843,-0.6969669461250305 l1.0496452450752258,-1.2546545267105103 0.601477138698101,-1.6827544569969177 l0.0005649342710967176,-3.2453030347824097 -0.8183355629444122,-2.7651524543762207 l-1.0483729839324951,-2.0119689404964447 -1.055290773510933,-1.0866621136665344 l-1.0440729558467865,-0.31995702534914017 -0.7123191654682159,0.3410492464900017 m3.688223659992218,1.164323315024376 l1.5728524327278137,-1.9173020124435425 1.794051080942154,-1.0879609733819962 l1.5928755700588226,-0.3520004451274872 1.8459348380565643,0.265998188406229 l1.509796530008316,1.139555275440216 0.4951244220137596,0.9294973313808441 l-0.11666032485663891,1.419651061296463 -0.687410905957222,0.818428099155426 l-2.52434641122818,0.9717012196779251 1.861618310213089,0.5331988260149956 l0.8500128239393234,1.117551252245903 0.1354948990046978,0.8868484944105148 l-0.4932280257344246,1.1131029576063156 -1.39887273311615,1.0853636264801025 l-2.035529613494873,0.674869641661644 -0.5695001780986786,0.06336289457976818 l-0.5146845430135727,-0.28657441958785057 -0.7346022129058838,-1.0866732895374298 l-0.7884713262319565,-0.6650245189666748 -0.7424384355545044,-0.7613588124513626 l-0.8678186684846878,-1.2758788466453552 -0.5132142081856728,-1.326657384634018 m78.45030573274926,1.771267504759635 l-0.6802479922771454,-6.232345104217529 -1.2491758912801743,-2.740897536277771 l-1.3802510499954224,-1.3739250600337982 -3.17012220621109,-1.125531792640686 l-3.368275761604309,-0.0009412862709723413 -1.7634528875350952,0.4748721420764923 l-1.2520535290241241,0.8652248978614807 -1.182623952627182,1.7564493417739868 l-0.3984472528100014,1.5647514164447784 0.1801733300089836,1.3102024793624878 l1.3099071383476257,1.6152319312095642 0.8646044135093689,0.8340706676244736 l2.53640353679657,1.4198549091815948 -0.6939749419689178,0.27237022295594215 l-4.359701871871948,0.8904160559177399 -1.7567403614521027,0.9963514655828476 l-0.6446793675422668,0.9797580540180206 0.08173087611794472,0.9355991333723068 l0.9328435361385345,0.8001139014959335 4.177342057228088,1.1712070554494858 l4.397900104522705,-0.031399496365338564 3.114548921585083,-0.5982808023691177 m3.082968592643738,-9.425274133682251 l-1.411481350660324,2.6255354285240173 -1.2213128805160522,3.6727091670036316 l-0.18540754914283752,2.5008246302604675 0.47621119767427444,1.8984392285346985 l0.963350310921669,0.9160576015710831 1.2513266503810883,0.30914707109332085 l1.1589262634515762,-0.3616209700703621 1.0169915854930878,-1.0792550444602966 l0.7201537489891052,-1.6342879831790924 0.3510228544473648,-2.928283214569092 l0.00043735817598644644,-2.655491828918457 -0.5049006640911102,-1.5999418497085571 l-0.9457492828369141,-1.0392731428146362 -1.3347595930099487,-0.48692669719457626 l-1.0810911655426025,0.4328899085521698 -0.4546789079904556,0.8713606745004654 m3.9836254715919495,0.2978293411433697 l2.9544010758399963,-2.907266616821289 2.010006904602051,-0.9460657835006714 l1.5411034226417542,-0.12111666612327099 1.519155353307724,0.656622052192688 l0.6079553812742233,0.7299477607011795 0.18308239057660103,1.4145711064338684 l-0.9592444449663162,1.604575365781784 -1.228472888469696,0.8041664212942123 l1.7361266911029816,0.2918696962296963 0.792948305606842,0.9832745045423508 l0.10570934042334557,0.809912383556366 -0.5808402597904205,1.1014334112405777 l-1.5640506148338318,1.086958572268486 -2.2157038748264313,0.6016963720321655 l0.8550854027271271,0.5132190138101578 0.7131282985210419,1.0365395247936249 l-0.6835384666919708,0.9960693866014481 -1.7945469915866852,0.973314568400383 l-1.46613210439682,0.16902972012758255 -1.7852148413658142,-0.4498925432562828 l-0.9125285595655441,-0.941494032740593 -0.4795699939131737,-1.7530332505702972 l-0.02498084446415305,-1.2229947000741959 0.5181511864066124,-0.8243165910243988 l0.8250052481889725,-0.3823256865143776 0.7064686715602875,0.07907410152256489 l0.4244159162044525,0.6190695986151695 m78.078186386374,-1.008987647946924 l-0.5110245943069458,-6.776547431945801 -1.0437685996294022,-2.619355320930481 l-1.3698609173297882,-1.5179666876792908 -1.4655894041061401,-0.8415494114160538 l-3.2577291131019592,-0.7666048407554626 -4.618201553821564,-0.0007980840746313334 l-2.60562926530838,1.1556322127580643 -1.357041746377945,1.269877403974533 l-0.6464376300573349,1.3860319554805756 -0.10571183636784554,2.000479996204376 l0.5882205814123154,1.4257203042507172 1.1369217932224274,1.0920622199773788 l3.4266287088394165,1.4158429205417633 1.0643242299556732,0.5053152516484261 l0.4165130853652954,0.8668425679206848 -2.0479753613471985,2.3631322383880615 l-2.1039672195911407,1.3532580435276031 -1.7711235582828522,1.3668885827064514 l-1.0241720080375671,1.1735568940639496 -0.014915962237864733,0.7276222854852676 l0.9206076711416245,0.46736940741539 2.7835315465927124,0.17167577520012856 l5.505023002624512,-0.783265084028244 3.751649260520935,-0.7608757168054581 m3.0935269594192505,-10.75178861618042 l-0.6672736257314682,-0.4442936182022095 -0.7981869578361511,-0.5745468661189079 l-1.1654002964496613,-0.648384764790535 -1.565423309803009,-0.5571172386407852 l-1.838596910238266,-0.21305043250322342 -1.214885413646698,0.3565189987421036 l-1.176624521613121,1.2199538201093674 -0.44443491846323013,1.3432356715202332 l0.1890278048813343,1.1278428137302399 0.8610896021127701,0.8579307049512863 l2.0690278708934784,0.7727201282978058 1.6442909836769104,0.0002197248068114277 l1.183672696352005,-0.5727257207036018 0.6769794970750809,-0.9891713410615921 l0.11720001697540283,-1.1349951475858688 -0.4435519874095917,-0.950026661157608 l-0.8434678614139557,-0.6362204998731613 m2.663068175315857,3.8495010137557983 l4.0407246351242065,-2.090284377336502 2.475634813308716,-0.4696061834692955 l2.166590541601181,0.4044434428215027 1.4420205354690552,1.3360032439231873 l0.47426894307136536,1.0788969695568085 -0.16280608251690865,1.523786336183548 l-0.7366958260536194,0.8251140266656876 -2.5179004669189453,0.890362486243248 l-0.4468761757016182,-0.0581588177010417 0.7546976953744888,0.980081781744957 l0.0003963616836699657,1.1420553922653198 -0.7675601541996002,1.2914270162582397 l-1.0376670211553574,0.5519583821296692 -1.6184858977794647,0.16049101948738098 l-1.9763794541358948,-0.6203214079141617 -0.7473891973495483,-0.9577415883541107 l-0.10764099657535553,-1.1173196136951447 -0.0651988061144948,-0.3061571903526783 l0.1516315620392561,-0.085312370210886 0.18458006903529167,0.20923545584082603 l-0.06765066646039486,0.3645237907767296 -0.6280214339494705,0.24770934134721756 l-0.6006111949682236,-0.7871013879776001 -0.12752734124660492,-0.8319038897752762 l0.18428901210427284,-0.39488863199949265 m-2.5124552845954895,-6.310397386550903 l0.0015108556544873863,0.23149780929088593 -0.0005668834273819812,0.32942701131105423 l-0.05332860164344311,0.6620851904153824 0.044491300359368324,0.49247756600379944 l-0.09893330745398998,-0.00032805004593683407 -0.4390416294336319,-0.4542512819170952 l-0.3058214858174324,-0.3516576439142227 0.0004034597077406943,-0.24005092680454254 m87.6988013934897,6.618250848532625 l-0.29576603323221207,-7.070785164833069 -0.8829586207866669,-2.4510525166988373 l-2.1926824748516083,-2.2231325507164 -1.4671231806278229,-0.8107831329107285 l-3.163813352584839,-0.7808903604745865 -4.5384544134140015,-0.0008002244430826977 l-2.1768829226493835,0.5914445221424103 -2.4835893511772156,1.5944412350654602 l-1.1260834336280823,1.5000268816947937 -0.5470793694257736,2.217435836791992 l0.21419886499643326,1.6542869806289673 0.8789324015378952,1.2231073528528214 l5.268911719322205,2.6950591802597046 1.8200114369392395,0.6121426820755005 l0.48072967678308487,0.2602156810462475 -1.1812546849250793,0.5774501711130142 l-3.9993005990982056,1.2490800768136978 -2.421298623085022,1.3829734921455383 l-0.5448838323354721,0.9150880575180054 0.31411387026309967,0.6811036169528961 l1.2818138301372528,0.5169647186994553 4.61983859539032,0.12266882695257664 l4.686996936798096,-0.6412039697170258 m5.6279730796813965,-9.580187797546387 l-0.5827945470809937,-0.4589470103383064 -1.3065825402736664,-0.9625259786844254 l-1.1837288737297058,-0.41921719908714294 -1.4731870591640472,0.029807034879922867 l-1.8461422622203827,0.9013151377439499 -0.9217341244220734,1.1919016391038895 l-0.29303330928087234,1.2049593031406403 0.2726404741406441,1.0600049048662186 l0.8973923325538635,0.8163980394601822 2.025989145040512,0.6468190252780914 l2.083503156900406,0.0001693798003543634 1.3470125198364258,-0.5729861930012703 l0.8457298576831818,-0.9646359086036682 0.4014095291495323,-1.7957796156406403 l-0.3379284590482712,-1.4055709540843964 -0.8547662943601608,-0.9138098359107971 m-1.3510830700397491,5.063731670379639 l0.17826730385422707,-0.46253103762865067 1.2308162450790405,-0.7419190555810928 l2.3400698602199554,-0.8063223958015442 2.6384037733078003,-0.19911248236894608 l1.4908841252326965,0.5474057421088219 1.2910009920597076,1.4952097833156586 l0.3358856216073036,1.122473031282425 -0.3615519776940346,1.4920981228351593 l-0.9100047498941422,0.802547037601471 -2.8049972653388977,0.8291435241699219 l-1.1780204623937607,-0.15862250700592995 -1.2365753203630447,-0.8587575703859329 l-0.6220114231109619,-0.9746348112821579 -0.19066797569394112,-1.966802328824997 m-3.75813364982605,-2.013121098279953 l-0.737830251455307,-0.4947167634963989 -1.1921849846839905,-0.45071564614772797 l-1.141093522310257,0.03507719375193119 -1.2391290813684464,0.80619215965271 l-0.5859023332595825,1.1426834017038345 0.04600725136697292,1.0782456398010254 l0.6802625954151154,0.8073105663061142 1.7701449990272522,0.7044453173875809 l1.7297793924808502,-6.678692898276495e-05 1.182837188243866,-0.6066511198878288 l0.6794500350952148,-0.9805640578269958 0.1372283324599266,-1.1765480041503906 l-0.4652457684278488,-1.0352572053670883 -0.9934226423501968,-0.7078884541988373 l-1.264902949333191,-0.23252498358488083 -1.4602839946746826,0.4970870539546013 l-0.6074507161974907,0.7602923363447189 -0.0157401105388999,0.7840611785650253 l0.5701079219579697,0.5712281167507172 1.3356542587280273,0.28327854350209236 l0.5159895494580269,-0.4296413064002991 0.10068261995911598,-1.1736547201871872 l-0.9098219126462936,-0.34834057092666626 -0.7172176241874695,0.694037601351738 m1.1421066522598267,1.9013187289237976 l0.1784532330930233,0.21344004198908806 0.36135341972112656,1.0330631583929062 l0.2850642614066601,0.6974110752344131 -0.022007746156305075,0.09013381786644459 m89.32806590717519,-0.7298887918662444 l-0.07087745703756809,-7.033752202987671 -0.706414133310318,-2.317139357328415 l-1.2461444735527039,-1.7400234937667847 -1.3662737607955933,-1.0129216313362122 l-2.2879356145858765,-0.7596743851900101 -6.089380979537964,-0.0009019094432005659 l-4.345380365848541,0.8999951928853989 -3.0373987555503845,1.4586932957172394 l-1.2949010729789734,1.301649659872055 -0.836251825094223,2.068852335214615 l0.00028885144274681807,2.438194453716278 0.8342316001653671,1.4638824760913849 l1.4215095341205597,1.0909009724855423 8.023067116737366,2.0942698419094086 l4.208983480930328,0.27537470683455467 1.3215237855911255,-0.19809583202004433 m-3.649035692214966,-2.3492038249969482 l-2.107260078191757,0.04434193018823862 -1.974339634180069,0.5304171517491341 l-2.1652832627296448,1.396860033273697 -0.9253539890050888,1.4187759160995483 l-0.23053688928484917,1.319333016872406 0.39254307746887207,1.1028724908828735 l0.972222313284874,0.8216496556997299 2.450384795665741,0.7434694468975067 l3.052821457386017,3.510768351588922e-06 1.9392335414886475,-0.6728237867355347 l1.3127265870571136,-1.0762033611536026 0.7473643124103546,-1.3594600558280945 l0.20035462453961372,-2.1377994120121 -0.5174455046653748,-1.401636153459549 l-1.050235852599144,-0.8882363140583038 m6.854600310325623,1.6486053168773651 l-1.3023695349693298,-0.2519661374390125 -1.527605950832367,0.42631085962057114 l-1.6358095407485962,1.5672343969345093 -0.5437232553958893,1.4942938089370728 l0.11968961916863918,1.3062280416488647 0.7893241941928864,0.8766191452741623 l1.325044333934784,0.47571349889039993 2.331865280866623,-0.12418071739375591 l1.551888883113861,-0.8441610634326935 0.8945059776306152,-1.1812251806259155 l0.36373015493154526,-2.814973294734955 -0.5855720862746239,-0.8885174989700317 l-1.5976406633853912,-0.8270984143018723 m-10.369616746902466,-4.87444669008255 l-1.0423192381858826,-1.4449968934059143 -1.0321056842803955,-0.7881784439086914 l-1.2720414996147156,-0.6514506042003632 -1.5726764500141144,-0.2308671921491623 l-1.7452827095985413,0.48445630818605423 -0.982905924320221,0.9926720708608627 l-0.7440939545631409,2.0026467740535736 0.048819477669894695,1.5733377635478973 l0.6904882192611694,1.0610519349575043 1.1748582869768143,0.6164762005209923 l1.9254536926746368,0.07614139001816511 1.1456416547298431,-0.6721425801515579 l1.008453518152237,-1.7704808712005615 0.17448587343096733,-1.547836810350418 l-0.40750060230493546,-1.096615195274353 m3.4480029344558716,-0.9269802272319794 l-1.3413502275943756,-0.4066352918744087 -1.1055081337690353,0.48201918601989746 l-0.6835969537496567,1.1127117276191711 -0.15115316957235336,1.2701240181922913 l0.4936109855771065,0.9725325554609299 0.9871244430541992,0.5105888098478317 l1.3355019688606262,-0.00014344826013257261 0.997667983174324,-0.6683232635259628 l0.5179691687226295,-1.089904084801674 0.008165616309270263,-1.0773885250091553 l-0.5300121381878853,-0.8172839879989624 -1.5092718601226807,-0.68741574883461 m7.93185830116272,0.4861500859260559 l-1.176222413778305,-0.1194879412651062 -1.0572896897792816,1.0546620190143585 l-0.4269425943493843,1.311655044555664 0.14152645133435726,1.092582643032074 l0.7286490499973297,0.7250335067510605 1.136246845126152,0.2611234597861767 l1.0373666882514954,-0.3280572220683098 0.774260014295578,-0.8882459998130798 l0.3297854959964752,-1.1907760053873062 -0.1803949661552906,-1.0989750176668167 l-0.7573220133781433,-0.7705558836460114 -1.200101226568222,-0.34566253423690796 m84.62002699894583,10.405784537146872 l0.11962210759520531,-6.700935959815979 -0.4876171424984932,-1.9195285439491272 l-1.2283246219158173,-2.1058489382267 -1.283600926399231,-1.1288895457983017 l-3.2346177101135254,-1.3226677477359772 -9.570344686508179,-0.5423622578382492 l-3.997247815132141,0.9017905592918396 -2.03276664018631,1.0647013783454895 l-1.9079005718231201,2.009136527776718 -1.1435706168413162,2.6704543828964233 l0.0004143613114138134,2.602272629737854 0.9017162770032883,1.5926666557788849 l1.5774287283420563,1.1983826011419296 6.079468131065369,1.86471626162529 l8.011730909347534,0.46901408582925797 3.9916270971298218,-0.5500725656747818 m-6.387321352958679,-3.6320456862449646 l-1.1579123884439468,-0.2903026342391968 -1.7803004384040833,0.11589759029448032 l-2.237478941679001,1.0150467604398727 -1.1378835141658783,1.2253036350011826 l-0.43899059295654297,1.3152475655078888 0.09080535732209682,1.299663484096527 l0.6994593888521194,0.9982987493276596 1.27640038728714,0.7043304294347763 l2.600020468235016,0.3913038596510887 1.8780696392059326,-0.360039584338665 l1.3837973773479462,-0.8848414570093155 0.8514970541000366,-1.2023171037435532 l0.3644983470439911,-2.0935948193073273 -0.38554586470127106,-1.4585895836353302 l-0.942099392414093,-0.9143286198377609 m9.129329323768616,0.8890045434236526 l-2.0157451927661896,-0.3632848337292671 -1.8806825578212738,0.6186066567897797 l-1.1022985726594925,1.1341065913438797 -0.7062975317239761,2.2303274273872375 l0.22033460438251495,1.5244069695472717 0.9267967939376831,0.9512107074260712 l1.3873803615570068,0.5030222237110138 2.2956326603889465,-0.10694490745663643 l1.4810186624526978,-0.8983657509088516 0.8343549072742462,-1.2546786665916443 l0.29889099299907684,-2.1332108974456787 -0.39423637092113495,-1.4329622685909271 l-0.8537490665912628,-0.9569461643695831 m-9.727075695991516,-4.272306561470032 l-1.2239968031644821,-1.1238642781972885 -1.0200722515583038,-0.532025620341301 l-1.735716313123703,-0.6050905957818031 -1.813780665397644,-0.07570030633360147 l-1.6840364038944244,0.7239370048046112 -0.8787695318460464,1.1887259036302567 l-0.2538318373262882,1.3312409818172455 0.5211421102285385,1.842135488986969 l1.1518491804599762,1.013675257563591 1.3816866278648376,0.38231968879699707 l1.662866324186325,-0.3530370071530342 0.9851131588220596,-0.9215056896209717 l0.5943971872329712,-1.8186044692993164 -0.12532133609056473,-1.3752341270446777 m1.01991206407547,-2.0227056741714478 l-0.9379921853542328,-0.6402938812971115 -0.852978453040123,-0.16334136947989464 l-1.0092997550964355,0.43624628335237503 -0.9459191560745239,1.470314860343933 l-0.18699729815125465,1.3408485054969788 0.5164409428834915,0.83558090031147 l1.0040385276079178,0.3488479182124138 1.558409184217453,-0.4118667170405388 l0.8887948840856552,-0.980653315782547 0.2957894466817379,-1.0979671031236649 l-0.4713115468621254,-1.400376707315445 m6.443502902984619,0.0688804779201746 l-1.18868850171566,-0.11945826932787895 -1.0207480192184448,0.8612178266048431 l-0.5014238879084587,1.2677335739135742 0.07842453196644783,1.1316818743944168 l0.6831309199333191,0.7361522316932678 1.6082359850406647,0.40894411504268646 l1.2640471756458282,-0.3458387032151222 0.8552784472703934,-0.8353834599256516 l0.3608439862728119,-1.0931943356990814 -0.16756748780608177,-1.0194238275289536 l-0.7076597213745117,-0.7665110379457474 -1.1284452676773071,-0.39209481328725815 m7.235900163650513,0.16742881387472153 l-1.3433454930782318,-0.12720433063805103 -1.148081049323082,1.0382440686225891 l-0.4990280419588089,1.3864701986312866 0.16417579725384712,1.1472690105438232 l0.8085548877716064,0.7338663190603256 1.2246747314929962,-0.00018894479580922052 l0.9603588283061981,-0.7105480879545212 0.509134940803051,-1.1237328499555588 l-0.10537892580032349,-1.7072688043117523 -0.6825233995914459,-0.5567600950598717 m80.21003241665312,12.405571672534279 l0.31893275678157806,-6.154935359954834 -0.30385857447981834,-1.720614731311798 l-1.3537576794624329,-2.827676832675934 -1.1382019519805908,-1.1496996134519577 l-2.0067106187343597,-0.9092281758785248 -9.94710087776184,-0.680755004286766 l-7.860569953918457,1.26800537109375 -2.9334571957588196,1.6233983635902405 l-1.329319179058075,1.5363708138465881 -0.8335334807634354,2.4535229802131653 l0.0005168399002286606,3.43059241771698 1.7009316384792328,2.940562665462494 l2.0119351148605347,1.5415120124816895 13.869774341583252,0.5928029119968414 l4.995422661304474,-0.304457638412714 3.6689433455467224,-0.5055024474859238 l2.0172443985939026,-0.5779337137937546 m-16.092361211776733,-3.5168009996414185 l-0.9621669352054596,-0.14206445775926113 -1.4815950393676758,0.49566060304641724 l-1.1178434640169144,1.0397922992706299 -0.5763529986143112,1.3147418200969696 l-0.009674995671957731,1.3034027814865112 0.5853807553648949,0.9749115258455276 l1.1173711717128754,0.6254342198371887 2.224542051553726,0.19355885684490204 l1.637941151857376,-0.5770949274301529 1.0856794565916061,-1.0407742857933044 l0.4773499071598053,-1.2579572200775146 -0.24183575063943863,-1.829235702753067 l-0.8821077644824982,-1.0828980058431625 -1.3271476328372955,-0.592060461640358 l-2.1901777386665344,0.02385757165029645 m13.047269582748413,0.7752147316932678 l-2.1320249140262604,-0.19249649718403816 -1.6834239661693573,1.110314503312111 l-0.8777559548616409,1.4483743906021118 -0.23672755807638168,1.4683234691619873 l0.3930704668164253,1.1883778870105743 1.0079365223646164,0.7652043551206589 l2.0888470113277435,0.38264185190200806 2.503981590270996,-0.7110084593296051 l1.3084118068218231,-1.2392079085111618 0.5556342005729675,-1.3726551830768585 l-0.21219126880168915,-1.8883612751960754 -0.8586502820253372,-1.1381907016038895 l-1.1808528751134872,-0.6389308720827103 m-10.354949235916138,-3.8966575264930725 l-1.006862297654152,-1.251450777053833 -1.032646894454956,-2.0063237845897675 l-0.719657763838768,-2.597810924053192 -0.12816554866731167,-1.5110497176647186 l0.38006551563739777,-1.3871248066425323 0.8495205640792847,-0.7668168842792511 l2.5589895248413086,-0.6947766989469528 3.3622336387634277,0.19917115569114685 l0.6132765114307404,0.5140050500631332 0.6635361909866333,2.747584879398346 l0.018231538124382496,4.534986615180969 -0.3239224851131439,2.3580658435821533 m-4.996699392795563,-3.2020068168640137 l-0.607079342007637,-0.38479097187519073 -0.6127861887216568,0.322532020509243 l0.09414957836270332,2.0375779271125793 0.9508483856916428,0.7866300642490387 l1.1164873838424683,-0.00044026364776073024 0.7113663107156754,-0.6761621683835983 l0.17975812777876854,-0.9635262936353683 -0.6331111490726471,-1.2275529652833939 l-1.072348728775978,-0.5718256533145905 m6.085740923881531,0.5906851962208748 l-0.8106556534767151,0.5800226703286171 -0.4226812720298767,1.0554079711437225 l0.1183355413377285,0.8356835693120956 0.6978980451822281,0.46949468553066254 l1.2190498411655426,-0.0002495838998584077 0.8297399431467056,-0.603971965610981 l0.3365558013319969,-0.9314630180597305 -0.3792841359972954,-1.2559802830219269 l-0.9567791223526001,-0.7061015069484711 m5.745815634727478,0.4195037856698036 l-0.7782702893018723,-0.2174484170973301 -1.2095214426517487,0.9526596963405609 l-0.5387332662940025,1.2273357808589935 0.07732904050499201,1.054975986480713 l0.7054340094327927,0.6247425824403763 1.186932548880577,-0.00010841231414815411 l0.9007759392261505,-0.673149973154068 0.598897896707058,-1.6055436432361603 l-0.1631700061261654,-1.2494822591543198 -0.7212761789560318,-0.7064995914697647 l-1.1378096044063568,-0.2579366974532604 m-7.804855108261108,1.2229933589696884 l-0.6008473411202431,0.9423331171274185 -0.16757244244217873,1.294495314359665 l0.41481170803308487,0.8083975315093994 1.178797110915184,0.4579247161746025 l1.5104231238365173,-0.4156070202589035 0.7410313934087753,-1.019056960940361 l0.05950195714831352,-1.1614114791154861 -0.6196612864732742,-0.8169446140527725 " fill="none" stroke="black" stroke-width="1" /></svg>