<?xml version="1.0" encoding="utf-8" ?>
<svg baseProfile="full" height="70.828802511096" version="1.1" width="74.65244691818953" xmlns="http://www.w3.org/2000/svg" xmlns:ev="http://www.w3.org/2001/xml-events" xmlns:xlink="http://www.w3.org/1999/xlink"><defs /><rect fill="white" height="70.828802511096" width="74.65244691818953" x="0" y="0" /><path d="M39.08711273223162,30.534222926944494 m-1.5093335509300232,-2.6161780953407288 l-1.8112002313137054,-1.8112002313137054 -1.71057790517807,-1.0062223672866821 l-1.71057790517807,-0.10062223300337791 -1.207466796040535,1.3080890476703644 l-0.5031111836433411,1.207466796040535 -0.10062223300337791,1.8112002313137054 l0.30186669901013374,1.0062223672866821 -1.3080890476703644,-0.40248893201351166 l-1.0062223672866821,0.0 -0.9056001156568527,0.40248893201351166 l-2.1130669116973877,3.5217782855033875 -0.5031111836433411,1.8112002313137054 l0.20124446600675583,1.0062223672866821 0.6037333980202675,0.6037333980202675 l6.54044508934021,4.427378177642822 1.1068445444107056,-0.30186669901013374 l4.930489361286163,-4.326756000518799 0.30186669901013374,-0.8049778640270233 m1.0062223672866821,-5.2323561906814575 l-1.0062223672866821,4.7292450070381165 -1.3080890476703644,3.0186671018600464 l-0.6037333980202675,2.716800272464752 1.1068445444107056,1.9118224084377289 l1.8112002313137054,1.4087112247943878 1.8112002313137054,0.9056001156568527 l1.0062223672866821,0.10062223300337791 1.9118224084377289,-1.0062223672866821 l1.0062223672866821,-1.6099557280540466 0.0,-1.6099557280540466 l-0.30186669901013374,-0.5031111836433411 -2.0124447345733643,-1.0062223672866821 l6.54044508934021,-4.326756000518799 -0.20124446600675583,-1.0062223672866821 l-0.6037333980202675,-1.6099557280540466 -0.9056001156568527,-1.3080890476703644 l-1.9118224084377289,-1.1068445444107056 -2.5155559182167053,-0.40248893201351166 l-3.8236448168754578,0.40248893201351166 0.20124446600675583,-2.1130669116973877 l0.6037333980202675,-1.3080890476703644 1.0062223672866821,0.6037333980202675 l0.5031111836433411,1.0062223672866821 0.0,0.8049778640270233 l-1.71057790517807,0.9056001156568527 " fill="none" stroke="black" stroke-width="1" /></svg>