<?xml version="1.0" encoding="utf-8" ?>
<svg baseProfile="full" height="67.81013544648886" version="1.1" width="69.21884646639228" xmlns="http://www.w3.org/2000/svg" xmlns:ev="http://www.w3.org/2001/xml-events" xmlns:xlink="http://www.w3.org/1999/xlink"><defs /><rect fill="white" height="67.81013544648886" width="69.21884646639228" x="0" y="0" /><path d="M32.34542302787304,26.7105782777071 m-1.5093335509300232,0.0 l-1.9118224084377289,0.7043556123971939 -2.1130669116973877,2.213689088821411 l-1.4087112247943878,3.3205336332321167 -0.40248893201351166,2.41493359208107 l0.20124446600675583,3.11928927898407 2.3143114149570465,1.9118224084377289 l4.326756000518799,2.213689088821411 4.528000354766846,0.20124446600675583 l2.716800272464752,-0.9056001156568527 1.4087112247943878,-0.8049778640270233 l2.0124447345733643,-2.1130669116973877 1.0062223672866821,-1.9118224084377289 l0.6037333980202675,-1.6099557280540466 0.10062223300337791,-4.0248894691467285 l-0.7043556123971939,-1.9118224084377289 -1.0062223672866821,-1.3080890476703644 l-1.6099557280540466,-1.8112002313137054 -1.3080890476703644,-0.7043556123971939 l-1.4087112247943878,-0.5031111836433411 -3.3205336332321167,-0.20124446600675583 l-2.716800272464752,0.5031111836433411 -0.5031111836433411,0.40248893201351166 l0.0,0.6037333980202675 m2.3143114149570465,7.848533987998962 l-0.7043556123971939,-2.41493359208107 -1.1068445444107056,-2.213689088821411 m1.8112002313137054,4.628622829914093 l-3.622400462627411,3.7230226397514343 " fill="none" stroke="black" stroke-width="1" /></svg>