<?xml version="1.0" encoding="utf-8" ?>
<svg baseProfile="full" height="70.32569140195847" version="1.1" width="96.0849834792316" xmlns="http://www.w3.org/2000/svg" xmlns:ev="http://www.w3.org/2001/xml-events" xmlns:xlink="http://www.w3.org/1999/xlink"><defs /><rect fill="white" height="70.32569140195847" width="96.0849834792316" x="0" y="0" /><path d="M25.20124478265643,40.29457984492183 m1.5093335509300232,-3.0186671018600464 l3.2199114561080933,-1.0062223672866821 5.332978367805481,-0.20124446600675583 l12.678401470184326,0.6037333980202675 7.144178748130798,-0.30186669901013374 l2.5155559182167053,-0.6037333980202675 1.6099557280540466,-0.7043556123971939 l0.8049778640270233,-1.0062223672866821 4.0248894691467285,-8.15040111541748 l4.528000354766846,-0.9056001156568527 -0.7043556123971939,0.8049778640270233 l-0.40248893201351166,3.0186671018600464 -1.8112002313137054,6.54044508934021 l2.41493359208107,2.3143114149570465 1.1068445444107056,1.5093335509300232 l1.207466796040535,2.6161780953407288 0.7043556123971939,3.5217782855033875 l-0.10062223300337791,-0.5031111836433411 -2.0124447345733643,-0.20124446600675583 l-1.1068445444107056,-0.6037333980202675 -12.275912761688232,-0.7043556123971939 l-16.200180053710938,0.40248893201351166 -4.528000354766846,0.6037333980202675 l-2.716800272464752,0.0 -3.7230226397514343,-0.9056001156568527 l-1.0062223672866821,-0.8049778640270233 -1.71057790517807,-0.5031111836433411 l-0.7043556123971939,-0.9056001156568527 m12.577779293060303,-0.8049778640270233 l8.251023292541504,-5.634844899177551 5.433600544929504,-5.534222722053528 l2.6161780953407288,-1.4087112247943878 2.8174224495887756,-0.8049778640270233 l1.0062223672866821,-0.7043556123971939 0.0,1.0062223672866821 l1.4087112247943878,2.6161780953407288 -0.7043556123971939,1.0062223672866821 l-9.860978722572327,8.15040111541748 -5.031111836433411,3.11928927898407 l-3.3205336332321167,2.6161780953407288 0.30186669901013374,-1.0062223672866821 l2.41493359208107,-1.8112002313137054 -0.7043556123971939,0.10062223300337791 " fill="none" stroke="black" stroke-width="1" /></svg>