<?xml version="1.0" encoding="utf-8" ?>
<svg baseProfile="full" height="61.873423624783754" version="1.1" width="77.97298096120358" xmlns="http://www.w3.org/2000/svg" xmlns:ev="http://www.w3.org/2001/xml-events" xmlns:xlink="http://www.w3.org/1999/xlink"><defs /><rect fill="white" height="61.873423624783754" width="77.97298096120358" x="0" y="0" /><path d="M36.37031305581331,34.156623128801584 m5.534222722053528,0.10062223300337791 l1.5093335509300232,-0.30186669901013374 3.3205336332321167,-1.3080890476703644 l1.207466796040535,-0.9056001156568527 0.20124446600675583,-0.6037333980202675 l-2.3143114149570465,-1.5093335509300232 -3.0186671018600464,-0.9056001156568527 l-3.0186671018600464,-0.30186669901013374 -3.8236448168754578,0.10062223300337791 l-3.8236448168754578,1.0062223672866821 -1.71057790517807,1.0062223672866821 l-0.6037333980202675,1.1068445444107056 3.924266993999481,1.8112002313137054 l3.5217782855033875,0.6037333980202675 m-1.3080890476703644,2.41493359208107 l1.207466796040535,0.40248893201351166 6.741689443588257,-0.10062223300337791 l2.8174224495887756,-0.6037333980202675 3.924266993999481,-1.71057790517807 l1.207466796040535,-0.9056001156568527 0.9056001156568527,-1.207466796040535 l0.20124446600675583,-2.1130669116973877 -0.40248893201351166,-0.7043556123971939 l-3.0186671018600464,-1.9118224084377289 -3.11928927898407,-1.4087112247943878 l-3.5217782855033875,-0.8049778640270233 -7.848533987998962,-0.40248893201351166 l-4.0248894691467285,1.3080890476703644 -3.42115581035614,1.9118224084377289 l-1.5093335509300232,1.207466796040535 -1.1068445444107056,1.8112002313137054 l0.0,2.5155559182167053 1.0062223672866821,1.1068445444107056 l2.5155559182167053,1.207466796040535 2.213689088821411,0.5031111836433411 l6.037334203720093,0.30186669901013374 m0.40248893201351166,-3.5217782855033875 l-0.6037333980202675,3.2199114561080933 m4.7292450070381165,-2.918044626712799 l-0.40248893201351166,3.2199114561080933 " fill="none" stroke="black" stroke-width="1" /></svg>