<?xml version="1.0" encoding="utf-8" ?>
<svg baseProfile="full" height="78.37546991184354" version="1.1" width="90.24889305233955" xmlns="http://www.w3.org/2000/svg" xmlns:ev="http://www.w3.org/2001/xml-events" xmlns:xlink="http://www.w3.org/1999/xlink"><defs /><rect fill="white" height="78.37546991184354" width="90.24889305233955" x="0" y="0" /><path d="M41.2001789547503,31.94293461740017 m-0.8049778640270233,-2.6161780953407288 l-1.3080890476703644,-2.5155559182167053 -2.213689088821411,-1.3080890476703644 l-1.1068445444107056,0.0 m8.15040111541748,5.836089253425598 l0.7043556123971939,-5.131734013557434 0.30186669901013374,-0.6037333980202675 l1.5093335509300232,-0.6037333980202675 m-3.924266993999481,7.043556571006775 l-1.5093335509300232,0.30186669901013374 -0.6037333980202675,1.0062223672866821 l-0.30186669901013374,4.125511646270752 0.10062223300337791,8.754134178161621 l0.20124446600675583,3.3205336332321167 0.6037333980202675,1.9118224084377289 l2.3143114149570465,1.9118224084377289 1.1068445444107056,-0.40248893201351166 l1.8112002313137054,-2.8174224495887756 0.20124446600675583,-5.836089253425598 l-0.30186669901013374,-6.942933797836304 -0.5031111836433411,-4.0248894691467285 l-0.8049778640270233,-0.9056001156568527 -1.71057790517807,-0.20124446600675583 m-3.5217782855033875,3.8236448168754578 l-1.1068445444107056,-0.40248893201351166 -3.7230226397514343,-0.40248893201351166 l-5.735467076301575,0.40248893201351166 -1.6099557280540466,0.30186669901013374 l-1.207466796040535,0.7043556123971939 -1.1068445444107056,1.6099557280540466 l-0.10062223300337791,1.71057790517807 0.8049778640270233,0.7043556123971939 l2.5155559182167053,0.5031111836433411 9.96160089969635,-0.20124446600675583 l-8.351645469665527,0.20124446600675583 -2.0124447345733643,0.6037333980202675 l-1.0062223672866821,0.9056001156568527 -0.9056001156568527,2.0124447345733643 l-0.20124446600675583,2.41493359208107 0.9056001156568527,1.71057790517807 l0.6037333980202675,0.5031111836433411 2.3143114149570465,0.40248893201351166 l3.11928927898407,-0.30186669901013374 4.427378177642822,-1.207466796040535 l4.226133823394775,-1.6099557280540466 m5.433600544929504,-10.464712381362915 l3.7230226397514343,-2.213689088821411 2.3143114149570465,-0.9056001156568527 l4.7292450070381165,-0.20124446600675583 3.42115581035614,0.5031111836433411 l2.5155559182167053,1.1068445444107056 1.3080890476703644,1.71057790517807 l0.40248893201351166,1.3080890476703644 -0.40248893201351166,1.1068445444107056 l-2.8174224495887756,0.6037333980202675 -14.08711314201355,0.40248893201351166 l8.552889823913574,0.10062223300337791 3.7230226397514343,1.0062223672866821 l1.71057790517807,2.1130669116973877 0.20124446600675583,1.9118224084377289 l-0.20124446600675583,3.0186671018600464 -1.71057790517807,1.207466796040535 l-7.345423102378845,0.20124446600675583 -3.42115581035614,-0.20124446600675583 l-3.0186671018600464,-0.6037333980202675 " fill="none" stroke="black" stroke-width="1" /></svg>