<?xml version="1.0" encoding="utf-8" ?>
<svg baseProfile="full" height="80.48853686079383" version="1.1" width="103.02791714668274" xmlns="http://www.w3.org/2000/svg" xmlns:ev="http://www.w3.org/2001/xml-events" xmlns:xlink="http://www.w3.org/1999/xlink"><defs /><rect fill="white" height="80.48853686079383" width="103.02791714668274" x="0" y="0" /><path d="M35.464712139219046,29.9304891936481 m-6.137956380844116,0.10062223300337791 l-1.4087112247943878,0.6037333980202675 -0.40248893201351166,1.3080890476703644 l0.10062223300337791,2.716800272464752 0.40248893201351166,2.0124447345733643 l0.8049778640270233,1.9118224084377289 0.9056001156568527,1.207466796040535 l1.71057790517807,1.3080890476703644 3.3205336332321167,0.9056001156568527 l4.326756000518799,0.0 1.207466796040535,-0.5031111836433411 l0.9056001156568527,-0.9056001156568527 0.10062223300337791,-3.622400462627411 l-1.71057790517807,-6.641067266464233 -2.213689088821411,-3.42115581035614 l-0.7043556123971939,0.8049778640270233 m1.4087112247943878,-1.6099557280540466 l2.0124447345733643,-1.1068445444107056 0.5031111836433411,0.0 l0.20124446600675583,0.6037333980202675 -1.71057790517807,4.930489361286163 m-8.955378532409668,-1.71057790517807 l-0.40248893201351166,-0.7043556123971939 -2.3143114149570465,-1.71057790517807 l-1.3080890476703644,-0.5031111836433411 -1.0062223672866821,0.40248893201351166 l-0.10062223300337791,2.0124447345733643 2.213689088821411,3.924266993999481 m4.0248894691467285,1.3080890476703644 l0.0,0.0 m6.037334203720093,-0.30186669901013374 l-1.1068445444107056,0.30186669901013374 -0.20124446600675583,0.5031111836433411 l0.5031111836433411,0.40248893201351166 0.40248893201351166,-0.40248893201351166 m-6.137956380844116,-0.10062223300337791 l0.5031111836433411,0.40248893201351166 0.40248893201351166,-0.8049778640270233 m0.6037333980202675,4.125511646270752 l2.8174224495887756,0.30186669901013374 1.0062223672866821,-1.207466796040535 m6.037334203720093,2.716800272464752 l4.226133823394775,-0.20124446600675583 2.3143114149570465,0.30186669901013374 l26.16178035736084,4.226133823394775 2.3143114149570465,1.207466796040535 l0.9056001156568527,2.716800272464752 -0.10062223300337791,1.3080890476703644 l-0.6037333980202675,1.0062223672866821 -3.0186671018600464,2.716800272464752 l-4.82986718416214,2.3143114149570465 -3.5217782855033875,0.40248893201351166 l-2.716800272464752,0.0 -1.3080890476703644,-0.40248893201351166 l-4.628622829914093,-2.8174224495887756 -5.2323561906814575,-2.0124447345733643 l-4.427378177642822,-1.1068445444107056 -4.7292450070381165,-0.30186669901013374 " fill="none" stroke="black" stroke-width="1" /></svg>