<?xml version="1.0" encoding="utf-8" ?>
<svg baseProfile="full" height="70.52693592384458" version="1.1" width="70.82880249246955" xmlns="http://www.w3.org/2000/svg" xmlns:ev="http://www.w3.org/2001/xml-events" xmlns:xlink="http://www.w3.org/1999/xlink"><defs /><rect fill="white" height="70.52693592384458" width="70.82880249246955" x="0" y="0" /><path d="M34.65973490849137,30.53422212600708 m0.0,8.15040111541748 l0.5031111836433411,1.0062223672866821 1.3080890476703644,0.20124446600675583 l1.207466796040535,-4.226133823394775 0.0,-5.836089253425598 l-1.5093335509300232,-0.6037333980202675 -1.207466796040535,0.9056001156568527 l-0.40248893201351166,1.1068445444107056 m2.918044626712799,-1.3080890476703644 l1.5093335509300232,-0.6037333980202675 2.1130669116973877,-1.5093335509300232 l2.716800272464752,-2.716800272464752 0.20124446600675583,0.5031111836433411 l-0.20124446600675583,6.137956380844116 -0.7043556123971939,1.5093335509300232 l-2.5155559182167053,1.71057790517807 3.924266993999481,1.5093335509300232 l1.1068445444107056,0.8049778640270233 0.20124446600675583,5.2323561906814575 l-0.6037333980202675,-0.20124446600675583 -3.42115581035614,-3.2199114561080933 l-1.8112002313137054,-0.7043556123971939 -1.3080890476703644,-0.10062223300337791 m-3.5217782855033875,-7.244800925254822 l-1.207466796040535,-0.30186669901013374 -1.8112002313137054,-1.71057790517807 l-0.9056001156568527,-1.6099557280540466 -0.30186669901013374,-2.41493359208107 l-0.5031111836433411,0.30186669901013374 -2.0124447345733643,3.11928927898407 l-0.6037333980202675,2.0124447345733643 -0.10062223300337791,1.8112002313137054 l0.30186669901013374,0.8049778640270233 1.0062223672866821,1.1068445444107056 l1.8112002313137054,1.0062223672866821 -3.0186671018600464,2.5155559182167053 l-0.8049778640270233,1.1068445444107056 -1.207466796040535,2.6161780953407288 l-0.8049778640270233,3.622400462627411 0.0,0.5031111836433411 l1.1068445444107056,-0.30186669901013374 3.7230226397514343,-3.5217782855033875 l3.8236448168754578,-2.716800272464752 1.207466796040535,-0.5031111836433411 " fill="none" stroke="black" stroke-width="1" /></svg>