<?xml version="1.0" encoding="utf-8" ?>
<svg baseProfile="full" height="91.15449281409383" version="1.1" width="82.80284814536572" xmlns="http://www.w3.org/2000/svg" xmlns:ev="http://www.w3.org/2001/xml-events" xmlns:xlink="http://www.w3.org/1999/xlink"><defs /><rect fill="white" height="91.15449281409383" width="82.80284814536572" x="0" y="0" /><path d="M39.18773487210274,34.659734312444925 m-0.40248893201351166,-0.5031111836433411 l-1.5093335509300232,-0.6037333980202675 -4.427378177642822,-0.5031111836433411 l-1.8112002313137054,0.6037333980202675 -3.8236448168754578,2.41493359208107 l-1.0062223672866821,1.8112002313137054 -1.207466796040535,5.332978367805481 l0.0,6.942933797836304 1.5093335509300232,5.332978367805481 l3.2199114561080933,5.735467076301575 0.7043556123971939,0.30186669901013374 l2.1130669116973877,2.1130669116973877 1.1068445444107056,0.7043556123971939 l1.6099557280540466,0.20124446600675583 4.226133823394775,1.3080890476703644 l6.137956380844116,0.30186669901013374 3.42115581035614,-1.71057790517807 l2.41493359208107,-0.20124446600675583 1.6099557280540466,-1.1068445444107056 l2.0124447345733643,-2.716800272464752 1.71057790517807,-4.528000354766846 l1.0062223672866821,-4.226133823394775 0.0,-4.930489361286163 l-3.5217782855033875,1.0062223672866821 -2.0124447345733643,0.0 l-1.0062223672866821,-0.40248893201351166 -1.207466796040535,-1.71057790517807 l-1.207466796040535,-6.942933797836304 0.0,-1.71057790517807 l0.40248893201351166,-1.1068445444107056 3.924266993999481,-2.1130669116973877 l-1.1068445444107056,-1.3080890476703644 -1.0062223672866821,-0.40248893201351166 l-2.41493359208107,-0.5031111836433411 -3.622400462627411,-0.20124446600675583 l-2.8174224495887756,0.10062223300337791 -2.918044626712799,1.4087112247943878 l-0.5031111836433411,0.7043556123971939 m-0.5031111836433411,-1.4087112247943878 l-0.20124446600675583,-2.5155559182167053 0.9056001156568527,-1.4087112247943878 l1.1068445444107056,-0.9056001156568527 0.40248893201351166,-1.0062223672866821 l0.5031111836433411,-0.40248893201351166 2.1130669116973877,-0.9056001156568527 " fill="none" stroke="black" stroke-width="1" /></svg>