<?xml version="1.0" encoding="utf-8" ?>
<svg baseProfile="full" height="100.61298232525587" version="1.1" width="103.93351655453444" xmlns="http://www.w3.org/2000/svg" xmlns:ev="http://www.w3.org/2001/xml-events" xmlns:xlink="http://www.w3.org/1999/xlink"><defs /><rect fill="white" height="100.61298232525587" width="103.93351655453444" x="0" y="0" /><path d="M51.46364828571677,32.14417718350887 m-0.7043556123971939,-0.30186669901013374 l-1.6099557280540466,1.9118224084377289 -1.6099557280540466,2.918044626712799 l-1.1068445444107056,3.0186671018600464 0.0,1.4087112247943878 l0.5031111836433411,1.0062223672866821 2.213689088821411,2.0124447345733643 l2.0124447345733643,0.8049778640270233 1.1068445444107056,0.0 l2.213689088821411,-0.6037333980202675 1.8112002313137054,-1.6099557280540466 l1.1068445444107056,-1.5093335509300232 1.1068445444107056,-1.71057790517807 l0.7043556123971939,-1.8112002313137054 -0.10062223300337791,-2.8174224495887756 l-1.6099557280540466,-2.0124447345733643 -2.6161780953407288,-1.4087112247943878 l-3.0186671018600464,-0.10062223300337791 -2.5155559182167053,0.5031111836433411 l-0.6037333980202675,0.5031111836433411 m-2.5155559182167053,9.96160089969635 l-1.4087112247943878,6.23857855796814 -4.82986718416214,14.69084620475769 l-5.2323561906814575,12.376534938812256 3.11928927898407,-1.8112002313137054 l5.332978367805481,-2.3143114149570465 10.665956735610962,-3.42115581035614 l5.735467076301575,-1.207466796040535 4.7292450070381165,0.0 l4.7292450070381165,-0.5031111836433411 -0.20124446600675583,-1.1068445444107056 l-4.528000354766846,-10.766578912734985 -1.8112002313137054,-2.918044626712799 l-1.9118224084377289,-1.3080890476703644 -2.41493359208107,-3.3205336332321167 l-0.10062223300337791,-1.8112002313137054 -0.8049778640270233,-2.8174224495887756 m-12.074668407440186,-0.10062223300337791 l-1.3080890476703644,-1.3080890476703644 -2.0124447345733643,-1.207466796040535 l-6.54044508934021,-1.207466796040535 -0.9056001156568527,-0.30186669901013374 l-0.8049778640270233,-0.8049778640270233 -1.207466796040535,0.0 l-5.936712026596069,3.0186671018600464 -1.207466796040535,1.0062223672866821 l-0.30186669901013374,1.0062223672866821 5.2323561906814575,7.747911810874939 l-1.4087112247943878,1.71057790517807 -0.10062223300337791,1.4087112247943878 l1.8112002313137054,1.9118224084377289 3.11928927898407,1.4087112247943878 l0.30186669901013374,0.5031111836433411 -0.9056001156568527,2.213689088821411 l-0.10062223300337791,1.9118224084377289 1.0062223672866821,0.5031111836433411 l3.42115581035614,0.30186669901013374 3.8236448168754578,0.0 l0.10062223300337791,-0.5031111836433411 m17.810134887695312,-19.31946873664856 l0.0,-0.6037333980202675 0.5031111836433411,-0.8049778640270233 l2.213689088821411,-2.1130669116973877 5.534222722053528,-2.1130669116973877 l1.9118224084377289,-0.20124446600675583 2.5155559182167053,0.10062223300337791 l2.3143114149570465,0.9056001156568527 1.9118224084377289,1.1068445444107056 l1.9118224084377289,2.0124447345733643 0.0,0.5031111836433411 l-1.1068445444107056,1.5093335509300232 1.71057790517807,1.3080890476703644 l0.40248893201351166,0.8049778640270233 0.0,2.0124447345733643 l-0.10062223300337791,1.0062223672866821 -1.4087112247943878,2.5155559182167053 l-3.11928927898407,3.5217782855033875 -2.41493359208107,-0.10062223300337791 l-1.4087112247943878,2.0124447345733643 -1.3080890476703644,1.0062223672866821 l-2.0124447345733643,1.207466796040535 -2.0124447345733643,0.30186669901013374 m-14.892090559005737,-30.589158535003662 l0.5031111836433411,1.1068445444107056 1.207466796040535,1.1068445444107056 l3.11928927898407,0.7043556123971939 2.918044626712799,-0.20124446600675583 l2.1130669116973877,-0.6037333980202675 1.5093335509300232,-1.1068445444107056 l0.10062223300337791,-1.0062223672866821 -0.6037333980202675,-0.9056001156568527 l-1.6099557280540466,-1.1068445444107056 -2.3143114149570465,-0.5031111836433411 l-2.8174224495887756,0.0 -3.3205336332321167,0.5031111836433411 " fill="none" stroke="black" stroke-width="1" /></svg>