<?xml version="1.0" encoding="utf-8" ?>
<svg baseProfile="full" height="88.03520381450653" version="1.1" width="76.26240303739905" xmlns="http://www.w3.org/2000/svg" xmlns:ev="http://www.w3.org/2001/xml-events" xmlns:xlink="http://www.w3.org/1999/xlink"><defs /><rect fill="white" height="88.03520381450653" width="76.26240303739905" x="0" y="0" /><path d="M30.131733939051628,56.19289210066199 m-3.11928927898407,-4.427378177642822 l-1.6099557280540466,-5.031111836433411 -0.40248893201351166,-2.41493359208107 l0.0,-3.2199114561080933 1.3080890476703644,-2.41493359208107 l3.0186671018600464,-2.213689088821411 3.622400462627411,-1.71057790517807 l2.918044626712799,-0.5031111836433411 3.622400462627411,0.10062223300337791 l3.0186671018600464,1.207466796040535 3.11928927898407,2.8174224495887756 l1.8112002313137054,2.918044626712799 1.1068445444107056,2.6161780953407288 l0.5031111836433411,2.3143114149570465 0.0,3.42115581035614 l-0.7043556123971939,1.71057790517807 -3.42115581035614,2.8174224495887756 l-3.5217782855033875,1.5093335509300232 -3.924266993999481,1.1068445444107056 l-2.0124447345733643,0.20124446600675583 -1.71057790517807,0.0 l-2.8174224495887756,-1.71057790517807 m-1.6099557280540466,0.7043556123971939 l-3.2199114561080933,4.125511646270752 -0.9056001156568527,2.0124447345733643 l2.0124447345733643,0.0 2.8174224495887756,0.9056001156568527 l1.1068445444107056,0.0 0.40248893201351166,-0.6037333980202675 l0.30186669901013374,-2.213689088821411 1.3080890476703644,-3.8236448168754578 m8.955378532409668,-0.5031111836433411 l2.41493359208107,2.8174224495887756 2.8174224495887756,1.8112002313137054 l1.1068445444107056,0.30186669901013374 0.20124446600675583,-1.0062223672866821 l1.8112002313137054,-1.4087112247943878 0.8049778640270233,-1.1068445444107056 l-0.10062223300337791,-1.0062223672866821 -1.1068445444107056,-2.1130669116973877 l-2.0124447345733643,-1.71057790517807 m-13.885867595672607,-8.754134178161621 l0.30186669901013374,1.9118224084377289 0.6037333980202675,0.40248893201351166 l0.5031111836433411,-0.20124446600675583 0.20124446600675583,-1.0062223672866821 l0.10062223300337791,0.5031111836433411 -0.7043556123971939,0.20124446600675583 l0.20124446600675583,-1.3080890476703644 0.40248893201351166,0.6037333980202675 l-0.7043556123971939,0.10062223300337791 0.0,-0.6037333980202675 l0.6037333980202675,-1.207466796040535 0.6037333980202675,0.0 l-0.20124446600675583,0.8049778640270233 -1.1068445444107056,0.30186669901013374 l0.30186669901013374,-1.1068445444107056 0.20124446600675583,0.10062223300337791 m-0.6037333980202675,0.40248893201351166 l0.8049778640270233,-4.427378177642822 1.3080890476703644,-3.622400462627411 l0.10062223300337791,0.30186669901013374 m-1.1068445444107056,0.5031111836433411 l-0.9056001156568527,-0.10062223300337791 -4.326756000518799,4.0248894691467285 m4.326756000518799,-3.42115581035614 l2.716800272464752,1.71057790517807 1.71057790517807,1.6099557280540466 m-3.3205336332321167,4.0248894691467285 l0.9056001156568527,1.3080890476703644 3.7230226397514343,2.0124447345733643 l-0.20124446600675583,-0.5031111836433411 -7.244800925254822,0.0 m6.339200735092163,0.30186669901013374 l0.0,-2.5155559182167053 -0.5031111836433411,-2.1130669116973877 m-11.672178506851196,-4.82986718416214 l-1.9118224084377289,-3.0186671018600464 -0.10062223300337791,-1.8112002313137054 l0.7043556123971939,-2.213689088821411 2.213689088821411,-2.41493359208107 l3.3205336332321167,-2.3143114149570465 2.1130669116973877,-0.8049778640270233 l2.5155559182167053,-0.30186669901013374 4.0248894691467285,1.8112002313137054 l3.924266993999481,2.213689088821411 1.5093335509300232,2.6161780953407288 l0.0,7.546667456626892 m-14.590224027633667,-8.552889823913574 l0.5031111836433411,0.30186669901013374 m7.345423102378845,-0.6037333980202675 l0.0,0.0 m0.5031111836433411,0.7043556123971939 l0.0,0.0 m-9.156623482704163,2.6161780953407288 l-0.20124446600675583,-0.5031111836433411 " fill="none" stroke="black" stroke-width="1" /></svg>