<?xml version="1.0" encoding="utf-8" ?>
<svg baseProfile="full" height="113.29138532280922" version="1.1" width="134.82454024255276" xmlns="http://www.w3.org/2000/svg" xmlns:ev="http://www.w3.org/2001/xml-events" xmlns:xlink="http://www.w3.org/1999/xlink"><defs /><rect fill="white" height="113.29138532280922" width="134.82454024255276" x="0" y="0" /><path d="M27.41493359208107,88.29138470813632 m-1.3080890476703644,-22.539379596710205 l-1.1068445444107056,-10.665956735610962 19.62133526802063,1.207466796040535 l55.24160385131836,7.043556571006775 2.1130669116973877,0.20124446600675583 l3.3205336332321167,-0.20124446600675583 0.5031111836433411,0.20124446600675583 l0.40248893201351166,0.7043556123971939 0.9056001156568527,4.528000354766846 l1.8112002313137054,12.77902364730835 0.5031111836433411,6.641067266464233 l0.40248893201351166,0.10062223300337791 m-69.52996253967285,-33.004093170166016 l-0.5031111836433411,-7.446045279502869 -0.7043556123971939,-4.628622829914093 l0.5031111836433411,-0.5031111836433411 12.77902364730835,-2.6161780953407288 l5.534222722053528,-0.6037333980202675 9.559112191200256,0.0 l7.043556571006775,1.3080890476703644 5.634844899177551,0.30186669901013374 l1.6099557280540466,-0.30186669901013374 0.6037333980202675,0.20124446600675583 l0.6037333980202675,0.7043556123971939 1.207466796040535,3.0186671018600464 l3.5217782855033875,14.08711314201355 0.9056001156568527,2.3143114149570465 m-36.62649393081665,-21.130669116973877 l-0.9056001156568527,-2.5155559182167053 m16.30080223083496,2.6161780953407288 l-0.7043556123971939,-1.5093335509300232 0.0,-2.1130669116973877 m-16.502046585083008,0.6037333980202675 l-2.5155559182167053,-3.11928927898407 -1.0062223672866821,-2.3143114149570465 l0.5031111836433411,-3.11928927898407 0.30186669901013374,-0.5031111836433411 l1.0062223672866821,-0.40248893201351166 1.5093335509300232,0.6037333980202675 l1.5093335509300232,2.5155559182167053 0.30186669901013374,3.5217782855033875 l-0.10062223300337791,1.207466796040535 -0.7043556123971939,1.5093335509300232 m16.30080223083496,-0.5031111836433411 l-1.1068445444107056,-7.043556571006775 0.20124446600675583,-2.3143114149570465 l1.1068445444107056,-1.71057790517807 0.5031111836433411,-0.40248893201351166 l0.5031111836433411,0.30186669901013374 -0.7043556123971939,2.1130669116973877 l0.10062223300337791,6.339200735092163 -0.30186669901013374,1.71057790517807 m-12.879645824432373,49.405517578125 l-2.918044626712799,-6.54044508934021 -4.528000354766846,-12.47715711593628 l-3.3205336332321167,-11.47093415260315 -0.40248893201351166,-2.3143114149570465 l0.5031111836433411,-0.10062223300337791 1.6099557280540466,1.1068445444107056 l4.226133823394775,3.7230226397514343 7.848533987998962,9.257245659828186 l6.54044508934021,10.364090204238892 2.213689088821411,4.528000354766846 l0.10062223300337791,1.0062223672866821 m-18.816357851028442,-13.584001064300537 l0.0,0.0 " fill="none" stroke="black" stroke-width="1" /></svg>