<?xml version="1.0" encoding="utf-8" ?>
<svg baseProfile="full" height="69.21884631738067" version="1.1" width="77.06738026812673" xmlns="http://www.w3.org/2000/svg" xmlns:ev="http://www.w3.org/2001/xml-events" xmlns:xlink="http://www.w3.org/1999/xlink"><defs /><rect fill="white" height="69.21884631738067" width="77.06738026812673" x="0" y="0" /><path d="M50.55804681032896,32.043556571006775 m-2.716800272464752,-0.40248893201351166 l-8.955378532409668,-0.30186669901013374 -4.427378177642822,0.40248893201351166 l-4.82986718416214,0.0 -4.427378177642822,1.207466796040535 l-0.20124446600675583,0.40248893201351166 0.6037333980202675,0.8049778640270233 l1.4087112247943878,0.30186669901013374 5.735467076301575,0.20124446600675583 l4.930489361286163,1.207466796040535 5.735467076301575,0.7043556123971939 l4.326756000518799,-0.7043556123971939 3.0186671018600464,-1.6099557280540466 l1.207466796040535,-1.0062223672866821 0.10062223300337791,-0.8049778640270233 l-4.326756000518799,-1.5093335509300232 m-12.47715711593628,0.9056001156568527 l0.0,-1.207466796040535 1.1068445444107056,-2.5155559182167053 l1.8112002313137054,-2.5155559182167053 1.0062223672866821,-0.6037333980202675 l0.9056001156568527,0.30186669901013374 0.40248893201351166,1.6099557280540466 l-1.3080890476703644,4.427378177642822 m-5.031111836433411,3.8236448168754578 l-0.10062223300337791,1.4087112247943878 -1.1068445444107056,4.326756000518799 l0.20124446600675583,2.716800272464752 0.6037333980202675,0.6037333980202675 l1.0062223672866821,-0.7043556123971939 1.6099557280540466,-2.0124447345733643 l1.9118224084377289,-4.82986718416214 m-8.251023292541504,-4.226133823394775 l3.924266993999481,-0.30186669901013374 0.10062223300337791,0.40248893201351166 l-1.71057790517807,-0.10062223300337791 " fill="none" stroke="black" stroke-width="1" /></svg>