<?xml version="1.0" encoding="utf-8" ?>
<svg baseProfile="full" height="94.57564868032932" version="1.1" width="94.27378378808498" xmlns="http://www.w3.org/2000/svg" xmlns:ev="http://www.w3.org/2001/xml-events" xmlns:xlink="http://www.w3.org/1999/xlink"><defs /><rect fill="white" height="94.57564868032932" width="94.27378378808498" x="0" y="0" /><path d="M57.90347097441554,45.42631182819605 m-7.446045279502869,-0.6037333980202675 l-14.489601850509644,0.0 -2.41493359208107,0.9056001156568527 l-1.3080890476703644,0.9056001156568527 -2.0124447345733643,1.8112002313137054 l-0.6037333980202675,1.0062223672866821 0.10062223300337791,1.5093335509300232 l1.1068445444107056,0.9056001156568527 3.0186671018600464,1.1068445444107056 l20.526936054229736,0.20124446600675583 3.0186671018600464,-0.40248893201351166 l1.1068445444107056,-0.40248893201351166 1.6099557280540466,-1.207466796040535 l1.1068445444107056,-1.6099557280540466 0.0,-1.1068445444107056 l-0.5031111836433411,-1.207466796040535 -2.918044626712799,-1.4087112247943878 m-27.972981929779053,6.037334203720093 l-2.1130669116973877,8.251023292541504 -2.716800272464752,8.049778938293457 l7.244800925254822,0.8049778640270233 20.124447345733643,0.0 l6.037334203720093,0.40248893201351166 10.464712381362915,0.20124446600675583 l0.40248893201351166,-0.40248893201351166 0.0,-4.226133823394775 l-2.213689088821411,-9.65973436832428 -4.82986718416214,-4.0248894691467285 m-20.828802585601807,-18.112001419067383 l-0.40248893201351166,4.125511646270752 0.0,8.15040111541748 l-0.9056001156568527,6.037334203720093 m0.8049778640270233,-18.71573567390442 l-0.6037333980202675,-1.8112002313137054 0.0,-3.11928927898407 l0.40248893201351166,-1.0062223672866821 0.5031111836433411,-0.40248893201351166 l1.0062223672866821,0.0 0.7043556123971939,1.207466796040535 l0.0,0.9056001156568527 -1.3080890476703644,2.6161780953407288 l0.0,1.5093335509300232 m6.4398229122161865,17.307024002075195 l0.20124446600675583,-7.446045279502869 0.8049778640270233,-3.8236448168754578 l0.6037333980202675,-7.546667456626892 m0.0,1.0062223672866821 l-0.8049778640270233,-1.8112002313137054 0.0,-2.213689088821411 l1.207466796040535,-2.716800272464752 0.40248893201351166,-0.40248893201351166 l1.207466796040535,0.30186669901013374 0.5031111836433411,1.207466796040535 l0.0,2.6161780953407288 0.0,1.1068445444107056 l-0.30186669901013374,0.40248893201351166 -1.9118224084377289,0.9056001156568527 " fill="none" stroke="black" stroke-width="1" /></svg>