<?xml version="1.0" encoding="utf-8" ?>
<svg baseProfile="full" height="77.46986957266927" version="1.1" width="80.28729202225804" xmlns="http://www.w3.org/2000/svg" xmlns:ev="http://www.w3.org/2001/xml-events" xmlns:xlink="http://www.w3.org/1999/xlink"><defs /><rect fill="white" height="77.46986957266927" width="80.28729202225804" x="0" y="0" /><path d="M36.06844559311867,52.46986957266927 m-1.8112002313137054,-0.6037333980202675 l-4.427378177642822,-3.2199114561080933 -2.3143114149570465,-2.1130669116973877 l-1.4087112247943878,-2.1130669116973877 -1.1068445444107056,-3.3205336332321167 l0.10062223300337791,-2.213689088821411 1.1068445444107056,-1.9118224084377289 l2.41493359208107,-1.8112002313137054 1.8112002313137054,-0.40248893201351166 l0.20124446600675583,-0.6037333980202675 -1.4087112247943878,-4.528000354766846 l0.0,-3.8236448168754578 3.2199114561080933,5.332978367805481 l3.42115581035614,4.226133823394775 3.3205336332321167,-0.10062223300337791 l4.0248894691467285,0.7043556123971939 0.9056001156568527,-0.6037333980202675 l5.735467076301575,-10.364090204238892 -0.7043556123971939,3.5217782855033875 l0.0,10.766578912734985 0.5031111836433411,0.30186669901013374 l1.6099557280540466,-0.10062223300337791 3.2199114561080933,0.9056001156568527 l0.8049778640270233,1.0062223672866821 -0.10062223300337791,1.207466796040535 l-1.5093335509300232,2.213689088821411 -5.936712026596069,4.0248894691467285 l-2.716800272464752,1.1068445444107056 -2.213689088821411,0.7043556123971939 l-3.622400462627411,-0.10062223300337791 -2.1130669116973877,-0.6037333980202675 l-2.1130669116973877,-1.3080890476703644 m0.20124446600675583,-8.955378532409668 l-0.8049778640270233,2.213689088821411 0.6037333980202675,0.10062223300337791 l0.0,-1.5093335509300232 -0.5031111836433411,-0.40248893201351166 l-0.20124446600675583,1.8112002313137054 0.6037333980202675,0.40248893201351166 l1.1068445444107056,-1.1068445444107056 0.10062223300337791,-0.6037333980202675 m7.747911810874939,0.6037333980202675 l-1.0062223672866821,-0.30186669901013374 -0.5031111836433411,0.20124446600675583 l0.0,0.5031111836433411 0.20124446600675583,0.7043556123971939 l0.5031111836433411,0.40248893201351166 1.0062223672866821,0.20124446600675583 l0.40248893201351166,-1.3080890476703644 -0.6037333980202675,-0.40248893201351166 l-0.5031111836433411,0.0 -0.6037333980202675,0.5031111836433411 l0.0,0.6037333980202675 " fill="none" stroke="black" stroke-width="1" /></svg>