<?xml version="1.0" encoding="utf-8" ?>
<svg baseProfile="full" height="81.9978703185916" version="1.1" width="124.05796157196164" xmlns="http://www.w3.org/2000/svg" xmlns:ev="http://www.w3.org/2001/xml-events" xmlns:xlink="http://www.w3.org/1999/xlink"><defs /><rect fill="white" height="81.9978703185916" width="124.05796157196164" x="0" y="0" /><path d="M34.961601197719574,30.433600284159184 m0.10062223300337791,10.967823266983032 l-0.8049778640270233,0.40248893201351166 -8.351645469665527,0.0 l-0.6037333980202675,0.10062223300337791 -0.30186669901013374,0.6037333980202675 l0.20124446600675583,9.35786783695221 0.7043556123971939,0.40248893201351166 l6.137956380844116,0.10062223300337791 3.0186671018600464,-0.6037333980202675 l11.571556329727173,0.0 2.0124447345733643,0.30186669901013374 l-0.40248893201351166,-0.8049778640270233 0.0,-1.4087112247943878 l0.10062223300337791,-0.8049778640270233 0.5031111836433411,-0.7043556123971939 l1.71057790517807,-0.9056001156568527 2.0124447345733643,0.0 l1.207466796040535,1.1068445444107056 1.0062223672866821,2.213689088821411 l0.8049778640270233,0.5031111836433411 14.489601850509644,0.40248893201351166 l16.502046585083008,2.5155559182167053 4.125511646270752,0.0 l-0.5031111836433411,-2.918044626712799 0.10062223300337791,-2.3143114149570465 l1.207466796040535,-0.8049778640270233 1.6099557280540466,-0.10062223300337791 l1.6099557280540466,1.3080890476703644 1.71057790517807,3.5217782855033875 m-48.19805145263672,-0.7043556123971939 l0.7043556123971939,2.3143114149570465 1.9118224084377289,2.0124447345733643 l1.8112002313137054,0.5031111836433411 2.3143114149570465,0.0 l0.9056001156568527,-0.7043556123971939 0.30186669901013374,-1.6099557280540466 l0.0,-2.3143114149570465 -1.0062223672866821,-1.4087112247943878 m35.922136306762695,3.2199114561080933 l1.207466796040535,1.6099557280540466 1.0062223672866821,0.30186669901013374 l2.3143114149570465,-0.10062223300337791 2.1130669116973877,-0.5031111836433411 l0.6037333980202675,-0.7043556123971939 0.10062223300337791,-0.7043556123971939 l-0.30186669901013374,-1.5093335509300232 -2.213689088821411,-1.8112002313137054 m1.4087112247943878,0.7043556123971939 l1.3080890476703644,-0.20124446600675583 0.40248893201351166,-0.7043556123971939 l0.0,-2.0124447345733643 -0.7043556123971939,-6.54044508934021 l-1.0062223672866821,-5.2323561906814575 -0.20124446600675583,-8.45226764678955 l-0.5031111836433411,-0.40248893201351166 -17.70951271057129,-2.716800272464752 l-10.665956735610962,-0.20124446600675583 -17.70951271057129,1.1068445444107056 l-12.678401470184326,1.9118224084377289 -2.6161780953407288,1.207466796040535 m-0.6037333980202675,11.47093415260315 l6.54044508934021,0.20124446600675583 0.6037333980202675,-0.40248893201351166 l0.5031111836433411,-0.9056001156568527 0.5031111836433411,-3.0186671018600464 l0.0,-4.326756000518799 -0.8049778640270233,-4.226133823394775 m10.364090204238892,3.924266993999481 l-0.10062223300337791,4.0248894691467285 0.5031111836433411,0.40248893201351166 l6.137956380844116,0.20124446600675583 0.30186669901013374,-1.71057790517807 l-0.20124446600675583,-4.226133823394775 -1.6099557280540466,-0.20124446600675583 l-4.0248894691467285,0.30186669901013374 m14.187735319137573,0.0 l-0.40248893201351166,0.8049778640270233 -0.20124446600675583,3.924266993999481 l6.54044508934021,0.30186669901013374 0.20124446600675583,-0.6037333980202675 l-0.9056001156568527,-2.1130669116973877 -0.30186669901013374,-2.213689088821411 l-1.0062223672866821,-0.6037333980202675 -3.0186671018600464,-0.20124446600675583 m11.672178506851196,1.4087112247943878 l0.10062223300337791,4.628622829914093 5.2323561906814575,0.0 l0.10062223300337791,-3.8236448168754578 -1.8112002313137054,-0.9056001156568527 l-2.6161780953407288,-0.30186669901013374 m9.96160089969635,0.20124446600675583 l0.30186669901013374,4.125511646270752 1.0062223672866821,0.0 " fill="none" stroke="black" stroke-width="1" /></svg>