<?xml version="1.0" encoding="utf-8" ?>
<svg baseProfile="full" height="65.59644613415003" version="1.1" width="71.13066930323839" xmlns="http://www.w3.org/2000/svg" xmlns:ev="http://www.w3.org/2001/xml-events" xmlns:xlink="http://www.w3.org/1999/xlink"><defs /><rect fill="white" height="65.59644613415003" width="71.13066930323839" x="0" y="0" /><path d="M29.930489845573902,25.503111127763987 m10.967823266983032,0.30186669901013374 l5.2323561906814575,-0.6037333980202675 -0.30186669901013374,0.7043556123971939 l-0.30186669901013374,4.125511646270752 0.10062223300337791,4.82986718416214 l-0.40248893201351166,0.5031111836433411 -9.257245659828186,1.71057790517807 l-7.848533987998962,-1.3080890476703644 -2.41493359208107,-1.1068445444107056 l0.7043556123971939,-4.226133823394775 -0.5031111836433411,-3.8236448168754578 l0.10062223300337791,-1.207466796040535 1.1068445444107056,-0.40248893201351166 l1.5093335509300232,0.0 6.23857855796814,0.5031111836433411 m-5.936712026596069,4.125511646270752 l0.30186669901013374,0.6037333980202675 0.7043556123971939,3.7230226397514343 l0.5031111836433411,0.10062223300337791 2.918044626712799,-1.207466796040535 l-1.207466796040535,-0.9056001156568527 -0.5031111836433411,-2.1130669116973877 l-0.40248893201351166,-0.30186669901013374 -2.0124447345733643,1.0062223672866821 m5.031111836433411,-2.1130669116973877 l-0.30186669901013374,2.5155559182167053 0.40248893201351166,1.6099557280540466 l1.71057790517807,0.9056001156568527 2.213689088821411,-1.0062223672866821 l0.40248893201351166,-0.6037333980202675 -0.20124446600675583,-0.8049778640270233 l-0.40248893201351166,-0.30186669901013374 -3.7230226397514343,-1.0062223672866821 l-0.40248893201351166,-0.30186669901013374 0.10062223300337791,-0.40248893201351166 m5.131734013557434,2.213689088821411 l0.10062223300337791,1.4087112247943878 0.8049778640270233,0.9056001156568527 l1.4087112247943878,-1.0062223672866821 0.20124446600675583,-1.71057790517807 l-1.0062223672866821,-0.5031111836433411 -2.716800272464752,-0.20124446600675583 m4.427378177642822,8.653512001037598 l-0.6037333980202675,-0.40248893201351166 -0.6037333980202675,0.10062223300337791 l-0.5031111836433411,0.7043556123971939 0.30186669901013374,1.1068445444107056 l0.40248893201351166,0.30186669901013374 2.716800272464752,-1.1068445444107056 l0.10062223300337791,-1.71057790517807 -1.4087112247943878,-1.207466796040535 l-2.0124447345733643,0.10062223300337791 m-15.093334913253784,-1.5093335509300232 l-0.7043556123971939,1.1068445444107056 2.5155559182167053,2.716800272464752 l2.0124447345733643,-0.5031111836433411 0.5031111836433411,-2.41493359208107 l-0.30186669901013374,-0.7043556123971939 -1.6099557280540466,-0.7043556123971939 " fill="none" stroke="black" stroke-width="1" /></svg>