<?xml version="1.0" encoding="utf-8" ?>
<svg baseProfile="full" height="67.4076460301876" version="1.1" width="80.99164865911007" xmlns="http://www.w3.org/2000/svg" xmlns:ev="http://www.w3.org/2001/xml-events" xmlns:xlink="http://www.w3.org/1999/xlink"><defs /><rect fill="white" height="67.4076460301876" width="80.99164865911007" x="0" y="0" /><path d="M55.18667021766305,37.47715709730983 m0.30186669901013374,-6.137956380844116 l-0.30186669901013374,-1.5093335509300232 -2.0124447345733643,-2.5155559182167053 l-2.1130669116973877,-1.207466796040535 -1.5093335509300232,-0.5031111836433411 l-3.11928927898407,-0.30186669901013374 -7.345423102378845,0.5031111836433411 l-12.879645824432373,-0.6037333980202675 -0.9056001156568527,0.7043556123971939 l-0.30186669901013374,3.3205336332321167 0.40248893201351166,6.84231162071228 l1.1068445444107056,2.1130669116973877 2.41493359208107,1.6099557280540466 l2.41493359208107,0.5031111836433411 2.716800272464752,0.0 l13.282134532928467,-2.1130669116973877 6.942933797836304,0.20124446600675583 l0.5031111836433411,0.20124446600675583 m-8.552889823913574,-1.1068445444107056 l1.3080890476703644,-0.7043556123971939 1.8112002313137054,-0.20124446600675583 l2.8174224495887756,0.7043556123971939 0.10062223300337791,0.8049778640270233 l-1.9118224084377289,1.6099557280540466 -0.7043556123971939,0.20124446600675583 l-2.1130669116973877,0.0 -2.3143114149570465,-1.1068445444107056 l-1.0062223672866821,-1.71057790517807 0.0,-1.4087112247943878 l1.1068445444107056,-0.5031111836433411 0.7043556123971939,0.20124446600675583 m-18.112001419067383,3.2199114561080933 l0.6037333980202675,-1.1068445444107056 0.7043556123971939,-0.5031111836433411 l0.9056001156568527,-0.40248893201351166 1.71057790517807,0.10062223300337791 l1.207466796040535,0.8049778640270233 1.1068445444107056,1.207466796040535 l0.40248893201351166,0.7043556123971939 0.10062223300337791,1.5093335509300232 l-0.8049778640270233,1.4087112247943878 -1.71057790517807,0.10062223300337791 l-0.8049778640270233,-0.30186669901013374 -2.3143114149570465,-2.213689088821411 l-0.7043556123971939,-2.1130669116973877 0.0,-1.0062223672866821 m23.8474702835083,-9.96160089969635 l-1.0062223672866821,0.10062223300337791 -1.0062223672866821,0.9056001156568527 l-0.20124446600675583,0.8049778640270233 0.20124446600675583,0.7043556123971939 l2.3143114149570465,1.8112002313137054 3.11928927898407,1.1068445444107056 l0.40248893201351166,0.5031111836433411 m-8.955378532409668,-4.628622829914093 l-1.207466796040535,2.6161780953407288 -0.9056001156568527,0.5031111836433411 l-0.9056001156568527,-0.40248893201351166 -0.40248893201351166,-0.7043556123971939 l-0.6037333980202675,-1.71057790517807 0.5031111836433411,-1.3080890476703644 l0.5031111836433411,-0.30186669901013374 1.207466796040535,0.20124446600675583 l0.30186669901013374,0.7043556123971939 m-6.23857855796814,-0.20124446600675583 l0.40248893201351166,-0.20124446600675583 1.6099557280540466,1.1068445444107056 l0.6037333980202675,1.4087112247943878 -0.9056001156568527,1.8112002313137054 l-0.9056001156568527,0.40248893201351166 -0.40248893201351166,-0.10062223300337791 l-1.0062223672866821,-1.4087112247943878 -0.7043556123971939,-2.1130669116973877 l0.0,-1.5093335509300232 0.40248893201351166,-0.20124446600675583 l0.6037333980202675,0.8049778640270233 m-5.836089253425598,1.3080890476703644 l0.8049778640270233,-0.40248893201351166 2.3143114149570465,0.20124446600675583 l0.6037333980202675,0.40248893201351166 0.5031111836433411,1.207466796040535 l0.0,1.3080890476703644 -0.5031111836433411,0.40248893201351166 l-1.1068445444107056,0.0 -1.4087112247943878,-1.207466796040535 l-0.6037333980202675,-1.1068445444107056 -0.5031111836433411,-1.207466796040535 l-0.10062223300337791,-1.3080890476703644 m-4.326756000518799,1.3080890476703644 l1.4087112247943878,0.5031111836433411 1.1068445444107056,1.0062223672866821 l0.40248893201351166,1.207466796040535 -0.20124446600675583,0.5031111836433411 l-1.4087112247943878,0.40248893201351166 -2.41493359208107,-1.6099557280540466 l-0.9056001156568527,-2.8174224495887756 0.30186669901013374,-2.6161780953407288 " fill="none" stroke="black" stroke-width="1" /></svg>