<?xml version="1.0" encoding="utf-8" ?>
<svg baseProfile="full" height="87.43147056549788" version="1.1" width="92.46258346363902" xmlns="http://www.w3.org/2000/svg" xmlns:ev="http://www.w3.org/2001/xml-events" xmlns:xlink="http://www.w3.org/1999/xlink"><defs /><rect fill="white" height="87.43147056549788" width="92.46258346363902" x="0" y="0" /><path d="M49.95431460440159,33.85475667193532 m-2.41493359208107,-0.10062223300337791 l-5.936712026596069,0.5031111836433411 -8.049778938293457,1.6099557280540466 l-4.0248894691467285,1.5093335509300232 -1.6099557280540466,1.0062223672866821 l-2.0124447345733643,1.9118224084377289 -0.9056001156568527,2.918044626712799 l0.9056001156568527,4.125511646270752 2.1130669116973877,3.42115581035614 l4.82986718416214,4.528000354766846 5.332978367805481,3.42115581035614 l3.924266993999481,1.6099557280540466 3.622400462627411,1.3080890476703644 l4.628622829914093,0.8049778640270233 1.9118224084377289,-0.20124446600675583 l3.3205336332321167,-1.207466796040535 3.7230226397514343,-2.918044626712799 l3.0186671018600464,-4.125511646270752 1.1068445444107056,-2.918044626712799 l0.40248893201351166,-3.11928927898407 -0.10062223300337791,-2.1130669116973877 l-0.7043556123971939,-2.8174224495887756 -2.0124447345733643,-4.125511646270752 l-2.213689088821411,-2.1130669116973877 -3.3205336332321167,-1.1068445444107056 l-3.8236448168754578,-0.40248893201351166 m-11.068445444107056,-1.6099557280540466 l-0.20124446600675583,-1.6099557280540466 0.6037333980202675,-4.528000354766846 l0.8049778640270233,-1.5093335509300232 1.0062223672866821,-1.0062223672866821 l0.40248893201351166,0.5031111836433411 0.0,3.622400462627411 l0.7043556123971939,3.924266993999481 m11.974046230316162,1.9118224084377289 l-0.10062223300337791,-1.1068445444107056 0.5031111836433411,-2.213689088821411 l1.8112002313137054,-2.3143114149570465 0.7043556123971939,7.144178748130798 m-11.672178506851196,12.980268001556396 l-1.5093335509300232,2.5155559182167053 -1.207466796040535,0.7043556123971939 l-1.5093335509300232,-0.7043556123971939 -0.7043556123971939,-0.9056001156568527 l0.30186669901013374,-0.5031111836433411 m5.031111836433411,-0.9056001156568527 l0.10062223300337791,2.41493359208107 0.7043556123971939,1.0062223672866821 l1.5093335509300232,-0.10062223300337791 1.4087112247943878,-0.9056001156568527 l0.30186669901013374,-0.5031111836433411 -0.6037333980202675,-0.8049778640270233 m-6.641067266464233,1.5093335509300232 l1.3080890476703644,2.716800272464752 1.0062223672866821,0.6037333980202675 l1.6099557280540466,-0.8049778640270233 0.7043556123971939,-1.6099557280540466 m-8.552889823913574,-10.766578912734985 l-0.20124446600675583,1.1068445444107056 1.3080890476703644,-2.3143114149570465 m6.84231162071228,1.1068445444107056 l-0.8049778640270233,1.8112002313137054 1.207466796040535,-3.11928927898407 l0.0,0.9056001156568527 m2.8174224495887756,6.741689443588257 l10.967823266983032,-2.716800272464752 m-7.345423102378845,4.326756000518799 l0.8049778640270233,0.30186669901013374 2.6161780953407288,0.0 l8.854756355285645,-0.40248893201351166 m-23.54560136795044,-2.213689088821411 l-7.848533987998962,-2.8174224495887756 m4.628622829914093,3.7230226397514343 l-12.074668407440186,0.8049778640270233 " fill="none" stroke="black" stroke-width="1" /></svg>