<?xml version="1.0" encoding="utf-8" ?>
<svg baseProfile="full" height="68.3132466673851" version="1.1" width="90.6513817422092" xmlns="http://www.w3.org/2000/svg" xmlns:ev="http://www.w3.org/2001/xml-events" xmlns:xlink="http://www.w3.org/1999/xlink"><defs /><rect fill="white" height="68.3132466673851" width="90.6513817422092" x="0" y="0" /><path d="M28.32053303718567,28.82364496588707 m0.10062223300337791,2.8174224495887756 l0.9056001156568527,1.9118224084377289 2.41493359208107,2.3143114149570465 l2.213689088821411,1.207466796040535 1.9118224084377289,0.7043556123971939 l2.41493359208107,0.40248893201351166 6.23857855796814,0.0 l2.213689088821411,-0.40248893201351166 m18.916980028152466,-12.77902364730835 l-0.20124446600675583,4.628622829914093 -1.0062223672866821,2.0124447345733643 l-1.3080890476703644,1.4087112247943878 -5.433600544929504,3.42115581035614 l-4.326756000518799,2.0124447345733643 -1.71057790517807,0.30186669901013374 l-2.918044626712799,0.0 -0.9056001156568527,-0.30186669901013374 m0.9056001156568527,0.8049778640270233 l0.30186669901013374,4.0248894691467285 -3.42115581035614,-0.20124446600675583 l-0.6037333980202675,-1.71057790517807 0.0,-3.2199114561080933 l3.2199114561080933,0.40248893201351166 m-3.42115581035614,1.8112002313137054 l1.6099557280540466,0.10062223300337791 m-21.432535648345947,-11.169067621231079 l0.0,4.0248894691467285 " fill="none" stroke="black" stroke-width="1" /></svg>