<?xml version="1.0" encoding="utf-8" ?>
<svg baseProfile="full" height="85.82151493057609" version="1.1" width="87.9345827922225" xmlns="http://www.w3.org/2000/svg" xmlns:ev="http://www.w3.org/2001/xml-events" xmlns:xlink="http://www.w3.org/1999/xlink"><defs /><rect fill="white" height="85.82151493057609" width="87.9345827922225" x="0" y="0" /><path d="M45.32569196075201,38.382756393402815 m0.6037333980202675,-1.71057790517807 l0.6037333980202675,-0.30186669901013374 4.326756000518799,-0.20124446600675583 l4.628622829914093,-2.3143114149570465 3.3205336332321167,0.40248893201351166 l1.3080890476703644,-0.10062223300337791 0.9056001156568527,-0.20124446600675583 l1.1068445444107056,-1.1068445444107056 0.8049778640270233,0.40248893201351166 l-0.40248893201351166,1.8112002313137054 -1.5093335509300232,2.213689088821411 l-4.125511646270752,4.427378177642822 -2.5155559182167053,1.1068445444107056 l-3.5217782855033875,0.9056001156568527 -2.213689088821411,0.30186669901013374 l-2.5155559182167053,-0.10062223300337791 -0.5031111836433411,-0.30186669901013374 l-0.6037333980202675,-1.71057790517807 0.5031111836433411,-2.41493359208107 l-0.20124446600675583,-1.9118224084377289 -0.7043556123971939,5.2323561906814575 l0.0,7.144178748130798 -1.1068445444107056,2.3143114149570465 l-1.0062223672866821,0.8049778640270233 -0.8049778640270233,0.40248893201351166 l-2.0124447345733643,0.10062223300337791 -0.40248893201351166,-0.20124446600675583 l-1.1068445444107056,-1.4087112247943878 -0.20124446600675583,-0.7043556123971939 l0.0,-11.571556329727173 0.20124446600675583,-3.11928927898407 l0.8049778640270233,-2.41493359208107 0.40248893201351166,-0.6037333980202675 l1.0062223672866821,-0.6037333980202675 1.3080890476703644,0.0 l1.71057790517807,0.30186669901013374 1.4087112247943878,0.9056001156568527 l1.207466796040535,3.0186671018600464 -0.40248893201351166,4.125511646270752 m-9.156623482704163,-1.8112002313137054 l0.20124446600675583,-1.71057790517807 -2.1130669116973877,-0.9056001156568527 l-2.8174224495887756,-4.326756000518799 -4.0248894691467285,-2.213689088821411 l-1.5093335509300232,-0.10062223300337791 -1.207466796040535,0.9056001156568527 l0.20124446600675583,2.213689088821411 0.8049778640270233,3.42115581035614 l2.918044626712799,2.8174224495887756 5.836089253425598,4.326756000518799 l3.3205336332321167,1.207466796040535 1.71057790517807,-1.1068445444107056 m4.528000354766846,-12.577779293060303 l-1.1068445444107056,0.0 -3.42115581035614,-1.5093335509300232 l-1.1068445444107056,-1.207466796040535 -0.5031111836433411,-1.5093335509300232 l1.5093335509300232,-2.1130669116973877 1.0062223672866821,-0.10062223300337791 l4.326756000518799,2.5155559182167053 -0.10062223300337791,1.6099557280540466 m-0.20124446600675583,-1.0062223672866821 l0.6037333980202675,1.71057790517807 -1.207466796040535,1.4087112247943878 l-1.1068445444107056,0.40248893201351166 -1.207466796040535,-0.5031111836433411 l0.6037333980202675,-1.5093335509300232 m0.40248893201351166,7.546667456626892 l0.40248893201351166,-0.30186669901013374 m-3.2199114561080933,0.20124446600675583 l0.40248893201351166,0.0 0.30186669901013374,0.7043556123971939 l0.30186669901013374,-0.6037333980202675 m0.30186669901013374,4.7292450070381165 l-0.7043556123971939,-0.30186669901013374 -0.30186669901013374,-0.7043556123971939 l0.8049778640270233,-1.71057790517807 1.4087112247943878,0.8049778640270233 l0.8049778640270233,1.0062223672866821 -0.30186669901013374,1.207466796040535 l-0.40248893201351166,0.30186669901013374 m2.716800272464752,8.854756355285645 l-0.20124446600675583,2.0124447345733643 0.7043556123971939,7.446045279502869 l-0.9056001156568527,-3.622400462627411 -1.71057790517807,-3.8236448168754578 m-3.2199114561080933,-0.8049778640270233 l-0.40248893201351166,1.5093335509300232 -0.7043556123971939,5.634844899177551 l-0.8049778640270233,-2.0124447345733643 -0.30186669901013374,-6.137956380844116 " fill="none" stroke="black" stroke-width="1" /></svg>