<?xml version="1.0" encoding="utf-8" ?>
<svg baseProfile="full" height="83.09648767113686" version="1.1" width="820.9798532351851" xmlns="http://www.w3.org/2000/svg" xmlns:ev="http://www.w3.org/2001/xml-events" xmlns:xlink="http://www.w3.org/1999/xlink"><defs /><rect fill="white" height="83.09648767113686" width="820.9798532351851" x="0" y="0" /><path d="M25,25 m0.0,0.0 m51.337696965783834,21.19595322292298 l29.45810556411743,-0.1376095786690712 7.031747102737427,-1.1278873682022095 m-36.475462913513184,3.31684410572052 l-0.26342522352933884,4.513317048549652 0.3577759489417076,0.7726367563009262 l0.9976683557033539,0.6381724774837494 6.1706554889678955,0.5647578835487366 l7.856687903404236,0.058140018954873085 8.50382149219513,-0.23978682234883308 l7.00865626335144,-0.8718598634004593 4.611595869064331,-1.1068906635046005 l0.7503926008939743,-3.629107177257538 0.0802781991660595,-3.4696170687675476 m-21.332099437713623,2.088996320962906 l-0.060831885784864426,3.2928118109703064 m5.245676040649414,-3.7941864132881165 l0.1693703606724739,4.206563234329224 m-3.8021907210350037,-1.84860959649086 l-0.8106232434511185,2.2193266451358795 -0.5585137754678726,1.4142847061157227 l-0.1726067066192627,-0.0751172611489892 -0.2120920643210411,-1.5749695897102356 l-0.06250253412872553,-1.7319639027118683 -0.10252876207232475,-0.21588372066617012 m62.34034753870219,-2.7447127015329897 l23.563690185546875,-0.3680027648806572 5.6594318151474,-1.3096323609352112 m-31.27312421798706,3.4547415375709534 l-0.09549980983138084,4.542637765407562 0.3967975825071335,0.7659345865249634 l1.0619371384382248,0.6283827126026154 6.158275008201599,0.5306238308548927 l7.4098241329193115,-0.023800539784133434 7.98004686832428,-0.4821142181754112 l6.672998666763306,-0.6873473525047302 4.608600437641144,-0.9226682782173157 l0.8050256967544556,-3.6714792251586914 0.1896820403635502,-3.831423819065094 l-0.7863251119852066,-1.0337477177381516 m-22.21869468688965,3.319409489631653 l0.38046929985284805,3.799796998500824 m5.025115609169006,-4.830808341503143 l0.19656436517834663,4.364350140094757 0.018079206347465515,2.121955454349518 m-3.346271812915802,-3.297213912010193 l-0.5026786401867867,2.564610242843628 -0.40088705718517303,1.4178316295146942 m-1.565171480178833,-3.249242603778839 l-1.1013953387737274,0.2836006134748459 -2.0731674134731293,0.453227236866951 l-1.9737198948860168,0.16099896281957626 -1.4243923127651215,0.03650326980277896 l-1.002165600657463,-0.05586276762187481 m71.5257298305005,-4.409146588295698 l14.887032508850098,-0.5343933403491974 3.9869102835655212,-1.277250498533249 m-21.63132667541504,3.930351138114929 l1.6240675747394562,5.1550668478012085 0.6162841245532036,0.5591484904289246 l6.258835196495056,0.1462770253419876 6.655604243278503,-0.3802283853292465 l6.158765554428101,-0.5248742923140526 5.271298885345459,-0.4925936087965965 l4.151583015918732,-0.8012188225984573 0.6389892846345901,-2.7275264263153076 l0.0006590389966731891,-3.894816040992737 -0.7702447474002838,-2.177361398935318 l-9.44089949131012,0.6031663715839386 -9.634183049201965,0.9443248063325882 m5.301571488380432,1.4167514443397522 l0.4638243094086647,5.943289399147034 m2.611956000328064,-6.939365863800049 l0.44180329889059067,3.801104426383972 0.30824892222881317,3.0924785137176514 m-5.669512152671814,-2.31036975979805 l4.140296280384064,-0.27124036103487015 3.466986119747162,-0.3179967403411865 l2.4684540927410126,-0.32677989453077316 0.9463642537593842,-0.16469739377498627 m-10.15513300895691,-1.5856008231639862 l-1.0581408441066742,1.290368139743805 -0.7448852807283401,1.7749017477035522 l-0.09883332066237926,0.5402379482984543 0.054043722338974476,0.00013223420864960644 l0.31941384077072144,-1.9930167496204376 m55.087430408348155,-3.825782565772897 l7.605738639831543,-0.7350122183561325 m3.1322914361953735,-1.8705375492572784 l1.3145293295383453,3.4075289964675903 1.6763399541378021,2.2416092455387115 l8.323724269866943,-2.2716842591762543 0.8022899180650711,-2.469135671854019 l0.7101390510797501,-0.7186577469110489 2.979612350463867,-0.08844743482768536 l6.812430024147034,1.2150044739246368 1.6431324183940887,6.472817659378052 l0.09830474853515625,2.5192025303840637 -0.4792894795536995,0.5685493722558022 l-3.083708882331848,0.7806449383497238 -16.362944841384888,0.8072388917207718 l-10.79325556755066,-0.5687220394611359 -0.7986870408058167,-0.5891064926981926 l-0.694974809885025,-2.9232731461524963 0.001468694390496239,-3.887825608253479 m15.22157907485962,0.07590772584080696 l1.0347934812307358,4.662113189697266 m4.818218648433685,-5.168299078941345 l0.5577557533979416,3.025558888912201 0.5617636069655418,2.202340066432953 m-6.427779197692871,-1.700958013534546 l3.5571306943893433,-0.3586307540535927 3.117275834083557,-0.5900759994983673 l2.7111324667930603,-0.3019264154136181 1.4049692451953888,-0.2418837510049343 m-10.599443912506104,-1.4718303084373474 l-0.5838025733828545,0.9674802422523499 -0.5171562731266022,1.6525737941265106 m-0.5573737993836403,-1.6409340500831604 l-0.821780264377594,0.6391431391239166 -2.118324935436249,0.540524385869503 l-2.0973746478557587,-0.0035629162448458374 -0.8451618254184723,-0.3610467165708542 m68.17578474190668,-2.984880516596604 l4.093228578567505,-1.0825109481811523 m2.2940465807914734,-2.2922301292419434 l1.3921944797039032,3.319663405418396 2.7566781640052795,2.2974635660648346 l8.659135103225708,-2.68742173910141 0.6587903946638107,-2.955339550971985 l0.768476128578186,-1.1024057120084763 1.220228299498558,1.8159838020801544 l1.604890376329422,3.822597861289978 1.2967535853385925,2.9128381609916687 l4.108971357345581,0.13074678368866444 3.5691219568252563,0.07255578879266977 l-1.8907515704631805,2.4431301653385162 -4.324078261852264,1.601637452840805 l-12.797284126281738,1.1010324954986572 -10.826300382614136,-0.39036430418491364 l-2.212127149105072,-1.1226140707731247 -0.7939976453781128,-1.2794828414916992 l0.001362788025289774,-3.195558786392212 1.9184933602809906,-2.2630535066127777 m17.489120960235596,2.5534188747406006 l0.8302423357963562,3.3052632212638855 m2.4389712512493134,-4.035030901432037 l0.49912963062524796,2.048266977071762 0.4688680171966553,1.8756240606307983 l0.0921068899333477,0.6745333969593048 -0.1901252381503582,0.5944258719682693 m-8.513596653938293,-4.948224127292633 l0.7411201298236847,0.5713646113872528 2.6307743787765503,-0.045128450728952885 l2.7990734577178955,-0.5840593576431274 2.1219564974308014,-1.0956871509552002 m-6.6299015283584595,-0.9530621021986008 l2.7503982186317444,-1.7808927595615387 m-0.7311113923788071,1.8071012198925018 l1.5978516638278961,-1.099802851676941 2.2309698164463043,-1.017000749707222 l3.2898104190826416,-1.0282743722200394 -0.21072357892990112,0.6312974542379379 m-12.240073680877686,2.7821084856987 l-2.64896422624588,0.03974611405283213 -3.3715999126434326,0.36453600972890854 l-2.0472322404384613,0.3808283060789108 m75.61691752402112,-2.8337297501275316 l2.0906880497932434,-1.5126913785934448 m1.2548166513442993,-2.835424840450287 l0.9362084418535233,2.381395846605301 2.573501765727997,2.3777474462985992 l8.957666158676147,-2.0985904335975647 0.9830759465694427,-2.9212218523025513 l1.4187711477279663,-1.1497250944375992 2.5239580869674683,3.734799325466156 l1.8183481693267822,2.6691192388534546 3.3952388167381287,0.004912397125735879 l3.0359509587287903,0.054448023438453674 0.08792445994913578,4.841557741165161 l-0.7837304472923279,2.5324174761772156 -1.1531828343868256,1.2763723731040955 l-3.003738522529602,1.4335720241069794 -15.942871570587158,0.29584160074591637 l-4.230346083641052,-1.0988366603851318 -3.3634930849075317,-1.9253791868686676 l-1.9977933168411255,-2.547094225883484 -0.7053611427545547,-3.0527013540267944 l1.2810666859149933,-2.665158212184906 m13.636459112167358,4.721558690071106 l2.773374617099762,-0.41249264031648636 4.130348861217499,-0.6135697290301323 l3.0498847365379333,-0.46297378838062286 2.3151254653930664,-0.27876511216163635 m-12.879154682159424,1.5264944732189178 l4.214925169944763,0.023456132039427757 3.0605435371398926,0.10720433667302132 l2.506571412086487,-0.01156893209554255 m-11.01345419883728,-2.266901880502701 l1.2507115304470062,0.04934643395245075 1.7342965304851532,0.08551453240215778 l2.8672203421592712,0.3273781016469002 1.6738063097000122,0.11949366889894009 m-7.739554047584534,-0.8181776106357574 l0.46399056911468506,-0.5576854944229126 1.7390020191669464,-1.1378375440835953 m-3.2557114958763123,2.1132755279541016 l-2.669747471809387,-0.9672882407903671 -3.6865174770355225,-1.3472776114940643 m7.057032585144043,2.612069845199585 l-2.0365335047245026,0.8277248591184616 -1.6067947447299957,1.0283716768026352 l-2.4671384692192078,2.2803644835948944 -0.7616625726222992,1.3398192822933197 m8.974384665489197,-5.406830310821533 l1.0261102765798569,3.285124897956848 1.5029822289943695,2.4154414236545563 m65.72826412972063,-9.304295831243508 l0.7133565098047256,-1.8054485321044922 0.19803056493401527,-2.484148293733597 m2.4219435453414917,-1.1793037503957748 l2.3417843878269196,3.288201689720154 1.7413491010665894,1.8710541725158691 l8.194306492805481,-1.3233096897602081 3.9904847741127014,-1.31281778216362 l2.10567370057106,-0.5903024598956108 3.202444911003113,-0.5358505249023438 l1.0142496973276138,1.6300122439861298 0.42029302567243576,3.7837114930152893 l-0.2307879738509655,4.126092195510864 -1.3671208918094635,3.4279364347457886 l-1.4286935329437256,1.507510393857956 -3.230181932449341,1.5118041634559631 l-14.051494598388672,0.14959631487727165 -1.805540919303894,-0.6390901654958725 l-3.468487858772278,-2.872752547264099 -1.1698614060878754,-2.0990529656410217 l-0.9312265366315842,-4.753003120422363 1.0116484016180038,-2.7966272830963135 m7.7367013692855835,4.658454060554504 l2.1728211641311646,-0.24762829765677452 4.043426513671875,-0.32456405460834503 l3.817269206047058,-0.1879056915640831 3.0908429622650146,-0.4588624835014343 l2.108026444911957,-0.4143546521663666 m-15.13131856918335,0.32544609159231186 l0.041194530203938484,-0.006906492635607719 1.0551845282316208,0.5408552289009094 l1.442897617816925,0.4620959237217903 1.7102490365505219,0.03992687910795212 l1.938132494688034,-0.7624489068984985 1.727367341518402,-1.1923885345458984 m-6.732203960418701,-1.0085827857255936 l-0.22102832794189453,-0.1225981954485178 -0.16666600480675697,-0.1772538386285305 l-0.596197172999382,-1.1402639746665955 m4.25507128238678,0.5802465230226517 l2.4399568140506744,-1.7503474652767181 0.4512944445014,-0.5253876745700836 m-5.14728307723999,4.767815172672272 l3.2358887791633606,-0.05958094261586666 3.212977945804596,-0.3832787647843361 m-7.301016449928284,-0.8101025223731995 l2.1338963508605957,-0.22661661729216576 2.8974705934524536,-0.27411147952079773 l4.385557174682617,-0.34374281764030457 m-10.221682786941528,1.2666228413581848 l-4.297900199890137,0.02230907091870904 -4.920785129070282,0.4707213118672371 l-2.4900414049625397,0.617808997631073 m82.5799818521773,-1.3117850408889353 l-0.35258688032627106,-2.283836007118225 -0.5109413713216782,-2.9135477542877197 l0.7876385003328323,-2.2764302790164948 m5.61332643032074,6.094598174095154 l2.659519612789154,-2.324567437171936 2.7246862649917603,-1.152399331331253 l3.5828474164009094,-0.554780587553978 3.635040819644928,0.4092036187648773 l3.290030360221863,1.5228936076164246 2.532742917537689,2.482563853263855 l0.9831820428371429,1.987098753452301 0.0005092624633107334,1.7079101502895355 l-0.9944803267717361,2.612876296043396 -1.34759321808815,1.751319169998169 l-4.940624833106995,3.115224242210388 -10.75653076171875,1.0791444033384323 l-6.649536490440369,-2.0228633284568787 -1.7768160998821259,-2.305050790309906 l-0.693541020154953,-2.125224620103836 -0.02307474846020341,-3.180064857006073 l0.8005737513303757,-2.0075005292892456 1.305793821811676,-1.3329049944877625 m8.474566340446472,3.7761536240577698 l0.24434396997094154,0.21290304139256477 1.8784333765506744,0.903555303812027 l2.9546061158180237,0.19941596314311028 2.7337294816970825,-0.9070390462875366 l1.1434677243232727,-0.9718356281518936 0.693875178694725,-1.5402287244796753 m-10.732039213180542,0.8697948604822159 l-0.3708123415708542,-0.19252127036452293 -0.2541577070951462,-0.3558957576751709 l-1.1288396269083023,-2.5370600819587708 -0.6312677264213562,-1.483856588602066 l-0.37785131484270096,-1.5643183887004852 0.06669675465673208,-1.5867003798484802 l1.9825422763824463,0.6699226796627045 2.9167452454566956,3.228018283843994 l1.861514300107956,1.7106035351753235 m1.0814250260591507,1.7615480720996857 l4.640990793704987,-2.329588383436203 3.2342422008514404,-1.146797314286232 l1.5097667276859283,-0.018534503178671002 1.0401580482721329,0.8522631973028183 l0.7496744394302368,2.7705425024032593 -1.0147300362586975,1.624632477760315 m-15.333173274993896,0.9462988376617432 l-0.0026992219500243664,-0.0017881483654491603 m4.724633097648621,-0.4558968171477318 l-0.0010314189421478659,-0.0024971089442260563 m-3.5760104656219482,1.7015749216079712 l1.4943647384643555,-0.012844231678172946 m-0.23596208542585373,0.9722472727298737 l2.256111204624176,-0.42119041085243225 2.504829466342926,-0.6844629347324371 l2.6451972126960754,-0.6328728049993515 2.314981520175934,-0.38470558822155 m-8.714560866355896,2.3749472200870514 l3.917747437953949,0.09353082627058029 3.554738163948059,0.1920819841325283 m60.55753111970262,-5.363902319222689 l-1.416284441947937,-2.7509325742721558 -1.1671310663223267,-3.328939974308014 l0.11782689020037651,-2.708043158054352 4.596328139305115,4.754721522331238 l3.2493725419044495,-0.11088200844824314 4.227339923381805,-2.7732688188552856 l2.3273587226867676,-0.8272247761487961 2.590082883834839,-0.09542218409478664 l2.311820089817047,0.9684908390045166 2.73756206035614,3.0333226919174194 l1.4038018882274628,-2.098688632249832 4.232043921947479,-3.4999683499336243 l0.6078078597784042,6.776989102363586 -0.000824193557491526,4.508485496044159 l-0.563097782433033,3.535681962966919 -1.4756397902965546,2.660711109638214 l-1.6880305111408234,1.4007458090782166 -3.634805679321289,1.545720398426056 l-11.9743013381958,0.1962808147072792 -3.784058392047882,-1.3809356093406677 l-2.144416868686676,-1.5242238342761993 -1.9404098391532898,-2.6971435546875 l-0.9840249270200729,-3.40681791305542 0.000579264342377428,-3.0256208777427673 m8.25211226940155,5.279058218002319 l0.7127756625413895,-0.04876697901636362 2.6863259077072144,-0.06499296519905329 l3.3855992555618286,-0.036717678885906935 3.144412636756897,-0.36367110908031464 l3.012973368167877,-0.7283744215965271 1.46320641040802,-0.6353286653757095 l1.3148003816604614,-1.054595708847046 1.1207444220781326,-1.6513341665267944 l0.21514292806386948,-1.1822985857725143 -0.5497530475258827,-1.3465702533721924 l-1.220240667462349,-0.8880481123924255 -1.656518578529358,-0.4025609791278839 l-6.555730700492859,1.6274052858352661 -5.569090247154236,2.75004506111145 l-1.675165444612503,1.523769050836563 -0.9233657270669937,1.7805474996566772 m4.947254657745361,-1.0066329687833786 l1.726561039686203,0.02980027813464403 2.3747631907463074,-0.4082924500107765 l1.2372985482215881,-0.5993854627013206 0.8706927299499512,-1.0015203803777695 m-7.1001458168029785,0.4437762498855591 l2.2301873564720154,-0.614679791033268 2.497660219669342,-1.0029298067092896 l1.273176521062851,-0.43017342686653137 m-3.8559764623641968,1.5862944722175598 l2.8848153352737427,-0.661727637052536 2.9533690214157104,-0.8830509334802628 m-4.871800541877747,1.8049517273902893 l3.804374933242798,-0.34898437559604645 2.9835662245750427,-0.4585219547152519 m-6.922244429588318,1.0412807017564774 l3.3913931250572205,0.26717303320765495 2.946854829788208,0.24064220488071442 m-10.024199485778809,-0.9004482626914978 l-3.626348376274109,-0.25803085416555405 -2.5146862864494324,-0.026666412595659494 m6.559606194496155,1.0397547483444214 l-2.2354131937026978,0.707341805100441 -1.921822875738144,1.5452924370765686 m8.654589653015137,-5.2404457330703735 l4.342202842235565,-0.9197141975164413 4.460741877555847,-1.1287228018045425 m59.922171161269944,4.999192445538938 l-2.6461806893348694,-3.3733007311820984 -1.7451734840869904,-3.6346563696861267 l-0.6230892241001129,-3.1483083963394165 4.221794009208679,4.103042781352997 l3.9554569125175476,1.0511810332536697 3.5440966486930847,-1.7538337409496307 l2.1313124895095825,-0.7571055740118027 2.560666501522064,-0.2574020065367222 l3.449186086654663,0.7506583631038666 2.0762531459331512,-3.88875812292099 l1.626255363225937,-1.834377497434616 0.935150608420372,1.483963429927826 l1.4848390221595764,5.025496482849121 1.0385822504758835,3.3974674344062805 l0.22847481071949005,3.187502920627594 -0.850304514169693,3.5211843252182007 l-1.166713535785675,1.729213148355484 -4.812619388103485,3.1805598735809326 l-10.460872650146484,1.41418918967247 -3.701343834400177,-0.7498521357774734 l-2.3223985731601715,-1.362922042608261 -1.3917940855026245,-1.640695333480835 l-1.1081575602293015,-2.9824134707450867 -0.2588237076997757,-3.777047097682953 l0.5993089079856873,-2.0686163008213043 m7.8680384159088135,4.793638288974762 l0.7844314724206924,-0.047712866216897964 2.4745169281959534,0.44930025935173035 l3.3216887712478638,0.32207436859607697 3.0399519205093384,-0.06409019231796265 l3.021249771118164,-0.8101445436477661 1.5855717658996582,-0.923263356089592 l0.8731861412525177,-1.0425757616758347 0.571569949388504,-1.7629778385162354 l-0.1388096623122692,-1.3889099657535553 -0.8150862902402878,-1.0836979746818542 l-1.482527107000351,-0.709029957652092 -3.1617021560668945,-0.384158156812191 l-5.951436161994934,1.603572815656662 -2.4288132786750793,1.6553711891174316 l-0.9115007519721985,1.4253519475460052 -0.2728443965315819,2.065916955471039 l0.5691049247980118,1.2467970699071884 1.1931654810905457,0.7958521693944931 l1.6358394920825958,0.3339831903576851 2.557533085346222,-0.5060416460037231 l1.567404717206955,-1.0813095420598984 0.7862883061170578,-1.2385155260562897 m-5.67887008190155,-0.9020450711250305 l-0.0012095508282072842,-0.0008953599171945825 m2.9149410128593445,-0.25269895792007446 l-0.0012387226161081344,-0.0011722051567630842 m-3.7303203344345093,1.6610457003116608 l0.42922094464302063,0.10857369750738144 1.5268340706825256,-0.43121304363012314 l0.304969884455204,-0.2067168429493904 -0.5375077202916145,-0.06424765568226576 l-0.5142635852098465,0.08841795846819878 m0.8833421021699905,1.1520542204380035 l3.900936543941498,-2.149500995874405 3.86759877204895,-2.4421007931232452 l2.410886138677597,-1.1326178163290024 m-8.807643055915833,5.55063009262085 l5.970134139060974,-0.9863556176424026 3.09680312871933,-0.3115391544997692 m-8.513633012771606,2.5687015056610107 l5.911666750907898,-0.30012575909495354 4.689781367778778,-0.2807953581213951 m-16.99653387069702,-1.2903699278831482 l3.5094478726387024,-0.36473348736763 4.736241102218628,0.15729404985904694 m-10.053036212921143,0.3839876502752304 l1.9130966067314148,-0.7523054629564285 5.26364803314209,-1.2691019475460052 m-5.802552103996277,1.4126870036125183 l2.067931890487671,-0.9017103165388107 2.7681180834770203,-0.920812115073204 " fill="none" stroke="black" stroke-width="1" /></svg>