<?xml version="1.0" encoding="utf-8" ?>
<svg baseProfile="full" height="102.48454278334975" version="1.1" width="817.26466855318" xmlns="http://www.w3.org/2000/svg" xmlns:ev="http://www.w3.org/2001/xml-events" xmlns:xlink="http://www.w3.org/1999/xlink"><defs /><rect fill="white" height="102.48454278334975" width="817.26466855318" x="0" y="0" /><path d="M28.366912974088336,25 m0.0,0.0 m67.1458488720964,9.108762723388715 l-9.40247118473053,6.27757728099823 -4.332306385040283,2.3814933001995087 l-3.9354899525642395,2.0599400997161865 -4.550795257091522,1.8304120004177094 l-5.129278302192688,1.2931333482265472 -4.897251725196838,0.7178965955972672 l-4.488741457462311,0.256265327334404 -3.6786022782325745,-0.03445223905146122 l-3.6822283267974854,-0.2002376690506935 -3.096080720424652,-0.34736547619104385 l-2.5423070788383484,-0.3527194634079933 -4.490921497344971,-0.772964358329773 l-2.077302485704422,-0.3122071921825409 -2.262057512998581,-0.06086949724704027 l-6.445797681808472,0.46875137835741043 -1.3673780858516693,0.6479950994253159 l-3.475337028503418,4.6217963099479675 -0.6584148854017258,6.124047040939331 l0.8043783158063889,4.673212766647339 1.6848984360694885,3.307431936264038 l1.8549677729606628,1.6673165559768677 2.178291976451874,0.9564968198537827 l6.156659722328186,7.823611980484202e-08 7.274252772331238,-0.980398878455162 l6.390302777290344,-1.2601540982723236 5.973897576332092,-1.0355868935585022 l5.536854863166809,-0.9886184334754944 4.654863178730011,-0.7794028520584106 l4.719097018241882,-0.7006392627954483 4.96867448091507,-0.7774557173252106 l4.718388617038727,-0.8713237941265106 4.192143678665161,-0.8361322432756424 l3.561277389526367,-1.0954853147268295 1.6641134023666382,-1.1213234812021255 l0.9321357309818268,-1.3296213746070862 0.662824884057045,-2.859807014465332 l0.0008609854558017105,-6.4406949281692505 -1.5621718764305115,-7.760854959487915 l-0.6841135025024414,-2.5448626279830933 -0.8388178050518036,-1.3397645950317383 l-2.1004530787467957,-0.9630271792411804 -2.147541046142578,-0.4364747926592827 l-2.412143349647522,-0.11947254650294781 -2.4693799018859863,0.4179145023226738 l-2.493439167737961,0.6312158703804016 -1.9465947151184082,0.6329883635044098 l-1.870688647031784,0.797521248459816 -1.9011877477169037,0.8331525325775146 l-2.154339551925659,0.8167687058448792 -4.238419532775879,2.5393548607826233 l-2.6116859912872314,1.6505937278270721 -2.1694299578666687,1.453569084405899 l-1.7275966703891754,1.561758667230606 -2.8954413533210754,4.590911865234375 m6.219995021820068,12.104020118713379 l0.14782077632844448,5.318771004676819 0.5873865634202957,5.3016358613967896 l0.8029715716838837,2.8182342648506165 1.1636941134929657,0.9455203264951706 l4.253113865852356,-0.4177067428827286 1.352090835571289,-2.695305049419403 l0.48304956406354904,-2.6626700162887573 -0.2746422775089741,-6.184238791465759 l-1.2287485599517822,-4.2860934138298035 -1.0487502068281174,-1.4522340893745422 l-1.5761266648769379,-0.5430861935019493 -1.803937554359436,0.10684924200177193 l-1.5251699090003967,0.6325268745422363 m96.10340914870903,-16.01289306068793 l-9.107999205589294,5.9267789125442505 -3.829682171344757,2.040446698665619 l-3.599104881286621,1.9814161956310272 -3.7867391109466553,1.7287717759609222 l-4.013240337371826,1.2200145423412323 -4.079777300357819,0.6883546710014343 l-7.458705306053162,0.003160338383167982 -3.539986312389374,0.08629154413938522 l-2.780991792678833,0.06182172801345587 -1.9016580283641815,0.3513101488351822 l-1.797061413526535,0.955069288611412 -1.6807207465171814,2.1513521671295166 l-0.4290241375565529,4.728087484836578 0.7372564077377319,4.041354954242706 l1.6292862594127655,3.2080426812171936 8.564035296440125,-0.8608443289995193 l5.027121901512146,-1.1416902393102646 4.859709143638611,-1.0445387661457062 l3.8664308190345764,-0.7677414268255234 3.5050544142723083,-0.7393157482147217 l3.2310202717781067,-0.6559754908084869 3.849252462387085,-0.4306970536708832 l3.826044499874115,-0.48604536801576614 3.7440982460975647,-0.5840969458222389 l4.132986068725586,-0.9926334768533707 3.599185347557068,-1.1401455849409103 l1.6101709008216858,-1.1679624766111374 0.8858485519886017,-1.5002968907356262 l0.7365164905786514,-4.884047508239746 -0.5099614709615707,-7.855728268623352 l-0.746377483010292,-2.590419054031372 -1.9461503624916077,-4.074309766292572 l-1.4416953921318054,-1.7427819967269897 -1.6920773684978485,-0.9716185927391052 l-4.603205919265747,-0.7994825392961502 -3.238265812397003,0.2000981755554676 l-5.936260223388672,1.8176387250423431 -2.8326764702796936,1.386914849281311 l-1.9587814807891846,1.3929776847362518 -1.9320912659168243,2.4152226746082306 l-0.7797926664352417,1.9254034757614136 -0.5937609821557999,4.780862033367157 l-0.18372662365436554,3.977920114994049 -0.04885909613221884,3.5800540447235107 l0.05156612489372492,3.2507294416427612 0.15472856350243092,2.5722765922546387 l0.3243161737918854,2.3659826815128326 0.572025291621685,1.6702020168304443 l9.669201374053955,-0.43551668524742126 5.391142964363098,-0.6316527724266052 l-0.005796459154225886,-3.663196861743927 -1.5462088584899902,-8.252894878387451 l-3.257501721382141,-4.13036435842514 -1.8810558319091797,-0.952175036072731 m-7.211472392082214,-2.248035818338394 l-2.497546374797821,-1.822865903377533 -1.5350063145160675,-1.1001458019018173 l-2.5395652651786804,-1.916450709104538 -0.8999764919281006,-0.42023494839668274 l-0.9678322076797485,-0.07025384344160557 -1.8417200446128845,1.202811822295189 l-0.7708416134119034,1.5199057757854462 -0.21444732323288918,2.6741838455200195 l1.8611487746238708,3.3457285165786743 3.9395514130592346,1.7396613955497742 m101.1320507212804,-11.32604582584463 l-8.812342286109924,5.384517312049866 -3.40616911649704,1.8581850826740265 l-3.1377768516540527,1.8571926653385162 -3.4444111585617065,1.9027167558670044 l-3.1487062573432922,1.5141196548938751 -5.932994484901428,1.2407220155000687 l-2.7407103776931763,0.3882894292473793 -2.1210533380508423,0.1818443089723587 l-1.5909183025360107,0.14475546777248383 -4.152690172195435,0.6289958208799362 l-1.796230673789978,0.9880288690328598 -1.9889451563358307,3.0957835912704468 l0.35019073635339737,4.604371786117554 1.9073045253753662,3.681773543357849 l8.956347703933716,0.0144848448690027 5.287943482398987,-0.9954499453306198 l4.925861954689026,-1.1825872957706451 2.2772158682346344,-1.1556950956583023 l1.702987551689148,-0.9177906066179276 1.6824738681316376,-0.5891167372465134 l3.4809815883636475,-1.3344582915306091 2.2361326217651367,-0.16847319900989532 l3.7130531668663025,-0.0950407050549984 4.41826194524765,-0.5311693623661995 l3.9737513661384583,-1.1265408247709274 3.4122663736343384,-1.523781567811966 l1.6756516695022583,-1.5601146221160889 1.565871685743332,-2.959451377391815 l0.8000722527503967,-3.9380958676338196 0.0006689770088996738,-5.406835079193115 l-1.190899983048439,-3.8873490691184998 -1.2993469834327698,-2.06129252910614 l-1.6281954944133759,-1.2345124781131744 -2.0270565152168274,-0.655440166592598 l-5.011418461799622,0.10612284764647484 -3.2062742114067078,1.0383940488100052 l-5.355049967765808,3.3518004417419434 -2.0562076568603516,1.5059740841388702 l-1.3940030336380005,0.8353225141763687 -1.4838212728500366,0.6272191554307938 l-1.7605656385421753,0.6953546404838562 -1.4794255793094635,0.5663899332284927 l-5.200386643409729,2.3792828619480133 -1.8542560935020447,1.5333838760852814 l-0.7629929482936859,1.4589442312717438 -0.6671568006277084,8.322182297706604 l0.5556795746088028,4.344211518764496 m17.141077518463135,-17.318458557128906 l0.6159136071801186,1.996963918209076 0.7851728051900864,3.606061339378357 l0.5648273602128029,3.21276992559433 0.35597875714302063,2.2356881201267242 l0.23391442373394966,0.9501810371875763 0.8979564905166626,1.5073676407337189 l2.3214855790138245,-0.15688911080360413 1.6829678416252136,-1.2289658933877945 l-1.7214863002300262,-9.210053086280823 -2.6655036211013794,-3.603034019470215 l-1.7523136734962463,-0.5645900964736938 m79.4091030263371,-3.0996644822880626 l-7.580223083496094,4.471081793308258 -3.029490113258362,1.650959998369217 l-2.812569737434387,1.8776661157608032 -2.7869266271591187,1.8534067273139954 l-2.646799683570862,1.504351645708084 -2.399415671825409,1.2190288305282593 l-1.9664593040943146,1.0887444019317627 -3.324846923351288,1.402151733636856 l-1.4424039423465729,1.601259708404541 -0.7376837730407715,5.320424437522888 l4.1263410449028015,2.468792647123337 5.7796430587768555,-0.10205603204667568 l4.3425121903419495,-1.1594390124082565 3.8044166564941406,-1.6335998475551605 l1.8555870652198792,-1.342390924692154 1.3469983637332916,-0.49426332116127014 l1.6128748655319214,-0.44735729694366455 3.4879356622695923,-0.8684931695461273 l3.454960584640503,-0.626613050699234 3.834834098815918,-0.7026296108961105 l3.7408897280693054,-1.0468050837516785 2.989824414253235,-1.5909188985824585 l1.5045064687728882,-1.6017526388168335 1.1459272354841232,-2.8470897674560547 l0.4281551390886307,-3.8966622948646545 -0.6601112335920334,-3.9415746927261353 l-1.8997731804847717,-3.7695127725601196 -1.8290764093399048,-1.9283673167228699 l-2.0439912378787994,-1.1223657429218292 -2.305604964494705,-0.4814391955733299 l-5.103906989097595,0.5719070136547089 -2.78603732585907,1.3072280585765839 l-1.591494381427765,1.3098002970218658 -2.0419640839099884,3.5076141357421875 l-1.0948263853788376,1.7394909262657166 -0.00019391440218896605,0.4028818756341934 l1.3341709971427917,-0.6255991011857986 7.861793041229248,-5.898642539978027 l0.5711732059717178,-2.0503538846969604 -2.1211056411266327,1.223904937505722 l-5.102113485336304,3.13637912273407 -2.131160944700241,2.229810208082199 l-1.1652077734470367,2.304605543613434 m1.1534947156906128,10.838276147842407 l0.139066269621253,2.8496673703193665 0.3785405680537224,2.80843585729599 l0.3268725425004959,1.8879710137844086 0.5347651615738869,0.46694278717041016 l3.5359564423561096,-1.2735286355018616 0.8598002046346664,-3.391542136669159 l0.06620872300118208,-3.6018848419189453 -2.553553283214569,-2.1190793812274933 l-2.8073418140411377,-0.8122798800468445 m-1.1144808679819107,-5.834537744522095 l-1.9141779839992523,-2.6127520203590393 -1.83162122964859,-3.4579604864120483 m85.67335219961024,1.960496953688562 l-7.600625157356262,4.097374081611633 -2.6395273208618164,1.3855689764022827 l-2.566448450088501,1.8900103867053986 -1.5183930099010468,1.5405680239200592 l-1.757630705833435,2.363955080509186 -1.33927121758461,2.6915520429611206 l-0.9072072058916092,2.382025718688965 -0.19506147131323814,1.953081637620926 l2.6862511038780212,1.7461597919464111 8.27526867389679,-1.3772830367088318 l1.8524211645126343,-2.096209079027176 1.4261752367019653,-1.0953740775585175 l2.068965584039688,3.7051624059677124 1.8799655139446259,1.8979783356189728 l1.108112782239914,0.36788277328014374 3.192621171474457,-0.5307536199688911 l1.9967304170131683,-1.1714217066764832 2.493830770254135,-2.4847541749477386 l1.3901592791080475,-2.3022454977035522 1.4481183886528015,-1.8599332869052887 l0.9289253503084183,-1.774120032787323 1.2189798802137375,-3.7579521536827087 l0.2785979397594929,-2.371108829975128 -0.43529316782951355,-2.935851514339447 l-1.0114465653896332,-2.063530385494232 -1.4686378836631775,-1.5069440007209778 l-3.1748655438423157,-1.5409058332443237 -3.6151713132858276,-0.5157613009214401 l-3.0758607387542725,0.3469430282711983 -2.521798610687256,0.9277565777301788 l-2.5463303923606873,1.7553938925266266 -1.9806274771690369,2.327607274055481 l-1.1972154676914215,1.538711041212082 -1.0445646196603775,1.8614152073860168 l-0.4649187996983528,1.4014005661010742 -0.4862178862094879,4.138433039188385 l0.5512472242116928,1.5722362697124481 0.6203985959291458,0.20124003291130066 m16.18227243423462,-13.550020456314087 l3.071008622646332,-2.873343825340271 2.9055386781692505,-2.6159843802452087 l0.32457612454891205,0.6900588423013687 -0.4807378351688385,3.971342146396637 l-0.9470944106578827,2.674705684185028 -1.217576041817665,1.640743464231491 m-14.76925015449524,-2.5170260667800903 l-2.7602005004882812,-2.581619620323181 -1.811152696609497,-1.1818673461675644 l-1.9403992593288422,-0.6623008102178574 0.9727910906076431,4.7896504402160645 l1.3360503315925598,2.9893824458122253 m83.52782672410285,-0.6088457349687815 l-6.993112564086914,3.749432861804962 -2.2897516191005707,1.2458653002977371 l-2.095697969198227,1.8075856566429138 -1.2319396436214447,1.670350581407547 l-1.614789366722107,3.378567099571228 -1.0038208961486816,2.870892584323883 l-0.0939716212451458,2.468785047531128 1.137145534157753,1.3321071863174438 l7.260204553604126,-0.784214437007904 2.0363955199718475,-1.74675852060318 l1.5773332118988037,-0.9003165364265442 2.165278047323227,3.9742109179496765 l1.8756623566150665,1.9221815466880798 1.0503758490085602,0.26768850162625313 l3.1416797637939453,-0.9467772394418716 1.9107604026794434,-1.3348808884620667 l1.3716889917850494,-1.6920830309391022 1.6276201605796814,-1.4138643443584442 l4.981584548950195,-1.6744568943977356 2.9003483057022095,-1.7224571108818054 l1.3424217700958252,-1.6842035949230194 0.7848409563302994,-2.753041684627533 l0.00012160931873950176,-3.402394950389862 -0.7851113379001617,-2.1667827665805817 l-1.9654610753059387,-2.5033575296401978 -2.1451954543590546,-1.5266591310501099 l-2.3329003155231476,-0.8744818717241287 -3.629879355430603,-0.38690660148859024 l-2.963751256465912,0.36680690944194794 -2.5500312447547913,0.9203203767538071 l-1.9165995717048645,0.9316426515579224 -3.400803804397583,0.7917415350675583 l-1.4245279133319855,0.4038136824965477 -2.239256352186203,0.07086195051670074 l-1.9997674226760864,-0.26552293449640274 -0.6379467248916626,-0.1347094587981701 m11.565650701522827,0.5858147144317627 l0.6463496387004852,-2.5404733419418335 2.9163867235183716,-6.5792107582092285 l2.266921252012253,-3.21835458278656 1.5722686052322388,-1.0839739441871643 l0.3182883560657501,2.4979960918426514 -0.6642637401819229,5.961251854896545 l-0.802568793296814,3.9659157395362854 m-7.725636959075928,5.768980979919434 l-0.3119897283613682,0.7259425520896912 -0.5215948820114136,1.026962623000145 l-0.2453862503170967,0.38292955607175827 m80.8853592439209,-9.833501390849051 l-6.650210618972778,3.370029032230377 -1.8968987464904785,1.181899681687355 l-1.5403193235397339,1.4670097827911377 -1.4969906210899353,2.2354115545749664 l-0.6554517894983292,2.009415626525879 -0.0006613488949369639,4.038677513599396 l1.0764633864164352,4.856646358966827 0.5239137634634972,0.5425363779067993 l5.919026732444763,-1.7542250454425812 1.7349864542484283,-1.8136318027973175 l1.5102986991405487,-0.5428458377718925 2.3709194362163544,4.304356873035431 l1.018064245581627,0.6399837136268616 2.7721458673477173,-0.00026976742447004654 l2.1154920756816864,-1.0126439481973648 1.4920492470264435,-1.3824355602264404 l1.4318199455738068,-1.2264181673526764 1.485087275505066,-1.2420986592769623 l1.6138273477554321,-2.2545024752616882 0.7312460988759995,-2.0400571823120117 l0.3909619525074959,-4.3821123242378235 -0.7852315157651901,-2.9512691497802734 l-1.8083485960960388,-2.7058756351470947 -1.724492758512497,-1.467408835887909 l-1.9818764925003052,-0.9132819622755051 -3.2237011194229126,-0.5235745385289192 l-2.6791149377822876,0.31830746680498123 -2.157807797193527,0.7716251164674759 l-2.0733749866485596,1.4872725307941437 -2.8431999683380127,1.1677580326795578 l-1.191369891166687,0.3953612223267555 -1.7079128324985504,0.5168449506163597 l-1.8682649731636047,0.041654761880636215 -0.5720843374729156,-0.26451481506228447 m13.069536685943604,-1.3453483581542969 l1.7932504415512085,-4.278119504451752 2.3198650777339935,-3.6988458037376404 l1.5520475804805756,-1.27182275056839 2.0255860686302185,-0.7269251346588135 l1.335471272468567,0.1930849440395832 -2.1923501789569855,7.625188231468201 m-9.735699892044067,3.905034065246582 l-0.6087016314268112,-0.36540400236845016 -1.4128045737743378,-0.928334966301918 l-0.9369546175003052,-0.41923340409994125 m4.7134411334991455,1.6106180846691132 l-0.2022193744778633,0.1893821731209755 m79.2104422301054,-3.646569033153355 l-6.459786891937256,3.114800751209259 -1.616414338350296,1.0852626711130142 l-1.312379240989685,1.4680023491382599 -0.8461124449968338,1.7984062433242798 l-0.5465953797101974,3.0691269040107727 0.26560261845588684,3.9828383922576904 l1.9663062691688538,4.0689146518707275 0.7401980459690094,0.4638546332716942 l4.692363440990448,-1.2657880783081055 1.8290835618972778,-2.1235357224941254 l1.2008638679981232,-0.8265745639801025 2.287226766347885,3.972160220146179 l1.0677236318588257,0.6914960592985153 2.5561434030532837,-0.00025311017452622764 l1.7773076891899109,-0.8004043996334076 1.4561226963996887,-1.2692685425281525 l1.0665930062532425,-1.6270001232624054 0.9238794445991516,-2.838980257511139 l0.8955489099025726,-3.0991527438163757 0.40389813482761383,-3.339211642742157 l-0.3559323027729988,-3.053489327430725 -0.8564247190952301,-1.9568732380867004 l-1.1959729343652725,-1.3704918324947357 -1.6537050902843475,-0.9802838414907455 l-3.039674162864685,-0.7055540382862091 -3.078010380268097,-0.000753490676288493 l-2.4018703401088715,0.6323467195034027 -1.7246454954147339,0.7914000749588013 l-1.2263955920934677,0.7889135926961899 -1.9380557537078857,0.5316349491477013 l-2.0115701854228973,0.16686497256159782 -1.4411439001560211,-0.2754903957247734 m11.638554334640503,-0.57321947067976 l1.7217114567756653,-4.13444846868515 1.6239199042320251,-1.923365741968155 l2.2288867831230164,-1.4884558320045471 1.4924803376197815,-0.32168108969926834 m-6.336521506309509,6.248311400413513 l1.5606807172298431,-1.1214367300271988 1.6082549095153809,-1.0940365493297577 m-6.63019061088562,6.24613881111145 l-1.9623011350631714,-0.9750214219093323 -1.4669184386730194,-0.4750609025359154 m82.53179929011822,-0.06957016060823662 l-6.2993305921554565,2.9211339354515076 -1.3763265311717987,0.9703251719474792 l-1.0918958485126495,1.5744230151176453 -0.5906056240200996,1.9359564781188965 l-0.00048431360482936725,4.031690359115601 0.8077025413513184,3.227028250694275 l1.634698212146759,2.3061589896678925 3.376152515411377,0.3355574607849121 l1.991552859544754,-2.08713099360466 1.4638903737068176,-1.3647980988025665 l1.122584268450737,0.6487200409173965 1.8441872298717499,1.9954052567481995 l2.1721909940242767,0.4170404374599457 2.4674926698207855,9.385742487211246e-05 l1.5982764959335327,-0.6650335341691971 1.2783823907375336,-1.2218720465898514 l1.3615131378173828,-2.5508880615234375 0.6168028712272644,-2.4159421026706696 l-4.2018659769382793e-05,-3.8250359892845154 -0.6429765373468399,-2.6066026091575623 l-1.2263822555541992,-2.252403199672699 -1.4581352472305298,-1.4705295860767365 l-1.7652729153633118,-0.8816562592983246 -2.59497731924057,-0.000584690751566086 l-2.1768219769001007,0.5885462090373039 -1.8074165284633636,0.7860762625932693 l-1.2493401020765305,0.45140713453292847 -1.0513541847467422,0.11791096068918705 l-0.9871574491262436,-0.13098257593810558 -2.6798704266548157,-1.4067250490188599 l-1.3930420577526093,-1.1679160594940186 m9.561834931373596,2.842857539653778 l1.6289232671260834,-5.433520078659058 1.3894569873809814,-2.3021741211414337 l2.0738287270069122,-1.7275752127170563 m-3.7530532479286194,7.5027114152908325 l2.719891369342804,-1.0534973442554474 1.718767136335373,-0.8054041117429733 m-4.499432742595673,2.862953543663025 l-0.6844104081392288,0.06271593738347292 m76.93494723382628,-0.6896084275695102 l-5.972307920455933,2.650458812713623 -1.1700349301099777,0.8838042616844177 l-0.9102186560630798,1.6084115207195282 -0.4161568358540535,2.9268887639045715 l0.19020387902855873,3.41838002204895 1.2301327288150787,2.9492446780204773 l1.9741865992546082,1.9290558993816376 4.435024559497833,-0.5392392724752426 l1.3222528994083405,-1.7113496363162994 0.9554476290941238,-0.6742657721042633 l0.8109661936759949,0.873405784368515 1.5815362334251404,1.5205462276935577 l2.207304537296295,0.23972708731889725 1.8974000215530396,-1.012512445449829 l1.311858743429184,-1.4066161215305328 1.2358653545379639,-2.510543167591095 l0.5052600800991058,-2.2721344232559204 0.08268753997981548,-3.0982378125190735 l-0.6425827741622925,-3.187635838985443 -1.4933376014232635,-2.7435868978500366 l-1.459069848060608,-1.414455771446228 -1.6108524799346924,-0.7257500290870667 l-2.209974229335785,-0.03857441246509552 -1.9881390035152435,0.6270730495452881 l-1.539400964975357,0.9676355123519897 -1.1157000809907913,1.0142379254102707 l-0.7703173905611038,0.5500103533267975 -1.5622958540916443,-0.09151628240942955 l-1.6039957106113434,-0.9863235801458359 m7.011510133743286,0.8235049247741699 l1.1894182860851288,-5.163857340812683 1.2400491535663605,-2.4098096787929535 m-1.884264051914215,6.156315207481384 l2.3946435749530792,-2.2620339691638947 2.0113492012023926,-1.0581355541944504 m-4.335635006427765,3.75668466091156 l-0.0009850993956206366,-0.0019673693168442696 " fill="none" stroke="black" stroke-width="1" /></svg>