<?xml version="1.0" encoding="utf-8" ?>
<svg baseProfile="full" height="109.6562098312279" version="1.1" width="841.6281684860587" xmlns="http://www.w3.org/2000/svg" xmlns:ev="http://www.w3.org/2001/xml-events" xmlns:xlink="http://www.w3.org/1999/xlink"><defs /><rect fill="white" height="109.6562098312279" width="841.6281684860587" x="0" y="0" /><path d="M25,25 m0.0,0.0 m8.182992404326797,39.03567627305165 l-0.26935940608382225,-0.5409543961286545 -0.1877589337527752,-6.002684235572815 l-0.09721768088638783,-2.321028858423233 0.0351078063249588,-1.0433511435985565 m1.2983597815036774,5.369978547096252 l0.5574418231844902,-0.858398899435997 4.256516098976135,-2.4583472311496735 l6.587201356887817,-2.615404725074768 9.212674498558044,-2.181069701910019 l12.146667242050171,-1.6507847607135773 12.772095203399658,-0.9476525336503983 l9.82079029083252,-0.12444211170077324 m-58.22091102600098,12.003732919692993 l2.7714964747428894,-0.13468023389577866 6.6913944482803345,-0.7643647491931915 l9.438406825065613,-0.8736272901296616 9.518038630485535,-0.7525811344385147 l8.67430567741394,-0.6505965441465378 8.23633074760437,-0.6457577645778656 l6.935749053955078,-0.39194662123918533 5.160427093505859,-0.07281104568392038 l4.473717212677002,-0.137175302952528 3.2681941986083984,-0.2209448255598545 l2.104021906852722,-0.34428738057613373 m-53.14322471618652,-6.904873847961426 l0.21864444017410278,-3.5235267877578735 0.30513884499669075,-8.312135934829712 l0.9543184190988541,-1.5125903487205505 0.7114985585212708,0.00788541219662875 l0.6857689470052719,6.856797933578491 0.38548506796360016,4.740167260169983 m3.9593693614006042,-5.49929678440094 l0.39224646985530853,-1.6274377703666687 0.6690850108861923,-2.8053614497184753 l0.9684265404939651,-0.7262735068798065 0.6136254593729973,1.5261295437812805 l0.19318319857120514,3.797939717769623 m4.587404429912567,-1.8147194385528564 l0.45181818306446075,0.09314657188951969 m2.519245445728302,-0.49197621643543243 l0.48934776335954666,-0.7360316812992096 m2.3320284485816956,0.7319032400846481 l0.5342472717165947,-0.8821556717157364 m2.48905211687088,0.3890537843108177 l0.4846295714378357,-0.3177430108189583 m-12.316617965698242,4.024721086025238 l0.5327393859624863,0.005550875794142485 0.4842262715101242,-0.617716833949089 l0.6387264281511307,-0.6568378955125809 1.0087021440267563,-1.1548778414726257 l0.5451807379722595,0.12452839873731136 0.4682687297463417,1.306145340204239 l0.2709326148033142,0.7956138253211975 -0.05288357846438885,0.6330378353595734 l-0.43772127479314804,0.3438909351825714 -0.6996822357177734,-0.29979778453707695 l-0.5514298751950264,-0.8612190932035446 0.6529699265956879,-0.9233268350362778 m4.584011435508728,0.45579586178064346 l0.645655021071434,0.23325812071561813 0.34619349986314774,-0.38847777992486954 l0.3034435957670212,-0.6100304797291756 0.27907872572541237,0.11198817752301693 l-0.06944706197828054,0.21968429908156395 -0.08375802077353,0.11989154852926731 l0.26775969192385674,-0.11286141350865364 m-14.43910002708435,8.540000319480896 l0.5453026294708252,4.652415215969086 m3.5609281063079834,-4.883206784725189 l0.1674056425690651,3.269146978855133 m4.1380444169044495,-3.9936602115631104 l0.2511444501578808,2.833194136619568 m3.970194160938263,-3.581629693508148 l0.29434723779559135,2.8197744488716125 m3.362770974636078,-3.5941699147224426 l0.34678470343351364,2.649911344051361 m-14.212762117385864,3.2741397619247437 l0.2371532842516899,3.136928081512451 m3.4096840023994446,-3.913193941116333 l0.06171263288706541,2.9190227389335632 0.32836727797985077,2.3801961541175842 m4.2718347907066345,-6.029399037361145 l0.1905740238726139,3.6890247464179993 0.4248935356736183,2.571667730808258 m4.3865785002708435,-7.380565404891968 l0.24245750159025192,4.34818834066391 0.35904016345739365,2.9759275913238525 m4.0610939264297485,-8.515651226043701 l0.24397682398557663,4.335895776748657 0.336984284222126,3.3518877625465393 m3.2442229986190796,-9.35859739780426 l0.30955366790294647,3.8035494089126587 0.4469519853591919,3.855607807636261 m2.93878436088562,-9.186749458312988 l0.35269107669591904,3.748652935028076 0.40602028369903564,3.4572061896324158 m2.4289798736572266,-8.99087905883789 l0.3122423030436039,3.582327663898468 0.4255533590912819,3.4680405259132385 m1.9660606980323792,-8.683656454086304 l0.2790495753288269,3.3941853046417236 0.2663353271782398,3.5497981309890747 l0.11073869653046131,2.012051045894623 m1.4070835709571838,-10.251682996749878 l0.32787274569272995,3.581310510635376 0.2899571508169174,4.057652056217194 m22.587576946243644,12.59940863636075 l-0.037255967035889626,0.08114133030176163 0.20672636106610298,-3.0302122235298157 l0.28574831783771515,-2.4011653661727905 m-1.1565030366182327,1.7129914462566376 l0.5608305335044861,-3.5259324312210083 1.0806450247764587,-2.1438170969486237 l1.436493992805481,-1.4826180040836334 3.06228905916214,-1.742274910211563 l20.48272132873535,-2.7513524889945984 12.123935222625732,-1.240653246641159 l10.072047710418701,-0.000225820822379319 7.180519700050354,0.07422852329909801 l5.326603651046753,0.38459479808807373 0.34548114985227585,0.526927150785923 m-61.529717445373535,11.865663528442383 l1.827177256345749,0.09540255181491375 6.407002210617065,-0.4732000455260277 l8.829160332679749,-0.8520606905221939 9.473426938056946,-0.874074399471283 l9.264653325080872,-0.7969570904970169 8.247145414352417,-0.5570236593484879 l8.012466430664062,-0.2228490635752678 6.431658864021301,-0.0423103291541338 l4.652945697307587,-0.033646777737885714 3.918076753616333,-0.01907185767777264 l2.8755849599838257,-0.10529979132115841 -0.9874254465103149,-6.865508556365967 l-1.284535676240921,-2.0440582931041718 m-49.510111808776855,4.165126383304596 l-0.10993295349180698,-0.6416109949350357 0.4178614914417267,-3.9170730113983154 l1.252136081457138,-8.291844725608826 m6.579616069793701,10.020065307617188 l0.38558095693588257,-3.1658563017845154 0.7823123037815094,-5.357514023780823 m5.880546569824219,8.761167526245117 l0.5815503746271133,-3.9982369542121887 0.8985766768455505,-3.0698010325431824 m5.196012258529663,7.015947699546814 l0.7084079831838608,-3.432452082633972 1.0632628202438354,-3.0034253001213074 l1.355358064174652,-2.765192985534668 m3.9317771792411804,9.15088415145874 l0.7817241549491882,-2.4362485110759735 1.1280441284179688,-2.4971097707748413 l1.5483152866363525,-2.47443288564682 1.2433317303657532,-1.15273617208004 l1.1644374579191208,-0.3690122812986374 m0.6745760887861252,9.749277234077454 l0.677417665719986,-1.3133853673934937 1.2511950731277466,-1.4320731163024902 l3.021322786808014,-2.401329129934311 1.9221681356430054,-0.7980653643608093 l2.0509640872478485,-0.10972365736961365 1.8902382254600525,0.9678522497415543 l1.7421725392341614,2.330036908388138 0.8893091976642609,3.0906230211257935 l-0.09688881225883961,3.070690929889679 -0.7986714690923691,2.0111946761608124 l-1.03638656437397,1.0705120116472244 -2.2829504311084747,1.007411703467369 l-2.8518369793891907,0.31607527285814285 -1.3493739068508148,-0.47773052006959915 m1.9123956561088562,-7.615844011306763 l0.23063817992806435,1.1834295094013214 m1.4196331799030304,-1.1819585412740707 l0.24841370061039925,0.6814418733119965 m1.3832290470600128,-0.44415175914764404 l-0.002518466499168426,-0.003139587352052331 m0.3810492530465126,-0.004648917238228023 l-0.001999603846343234,-0.0026257449644617736 m0.7410968095064163,-0.32660819590091705 l-0.0010272301005898044,-0.0020419950305949897 m-18.516504764556885,4.412413835525513 l0.07625315338373184,1.7664504051208496 0.14883168041706085,1.8547680974006653 l0.28846805915236473,2.1270006895065308 0.27414288371801376,1.7521470785140991 l0.49667835235595703,1.767287254333496 0.7080919295549393,1.0011791437864304 l1.54628187417984,0.8518409729003906 2.8725260496139526,0.4038618505001068 l1.9025245308876038,-0.3709164634346962 1.30568727850914,-0.894252136349678 l1.4279580116271973,-2.387816458940506 0.8451524376869202,-3.9955848455429077 l-0.26166779920458794,-6.002564430236816 -0.8640064299106598,-0.844649150967598 l-2.317073792219162,-0.509943999350071 -2.4589115381240845,0.5182424187660217 m-21.34807825088501,9.710810780525208 l-0.20363500341773033,4.891417324542999 m5.174567699432373,-6.058298945426941 l0.2821185626089573,4.603536427021027 m5.110076069831848,-5.785995125770569 l0.3336760029196739,4.617306590080261 m6.339253187179565,-5.788752436637878 l0.3989088535308838,3.8776937127113342 0.1534124743193388,2.9880592226982117 m6.549019813537598,-8.10567557811737 l0.38500498980283737,4.565226435661316 0.21600840613245964,3.3069318532943726 l0.21324345842003822,1.3816581666469574 m29.71465619841183,0.9088336069544312 l0.18504314124584198,0.7428686320781708 0.5772193521261215,-1.6648292541503906 l0.6469278037548065,-1.3839234411716461 m-1.2875497341156006,-0.6761378049850464 l0.7135158032178879,-0.6938448548316956 3.2041162252426147,-1.5549398958683014 l2.4537789821624756,-0.6887663900852203 8.760581612586975,-2.0113107562065125 l9.657374024391174,-1.1511164158582687 20.412468910217285,-1.7381832003593445 l7.881332635879517,-0.32389000058174133 5.747106075286865,-0.0006105565262259915 l-0.3028994984924793,5.066344738006592 -0.15180694870650768,6.017168164253235 l-0.21521829068660736,4.1833412647247314 -1.2293212860822678,0.8413572609424591 l-17.3279070854187,0.011286120861768723 -18.30593466758728,0.08537039160728455 l-13.845082521438599,0.058497264981269836 -6.788751482963562,0.00955377530772239 l-1.0008102655410767,-0.3620234504342079 m10.731641054153442,-12.124950885772705 l-0.048207170329988,-3.0766066908836365 0.5396009609103203,-8.487459421157837 l1.5782566368579865,-2.457689791917801 0.8517388999462128,-0.38392670452594757 l12.25212812423706,0.2503295987844467 6.594434976577759,0.31696587800979614 l6.019918322563171,0.2851676009595394 0.6710214167833328,0.5234015733003616 l1.1931780725717545,7.147135138511658 0.7257907837629318,6.093356609344482 m-25.464842319488525,-15.708022117614746 l0.8899974822998047,-2.192876487970352 1.6298578679561615,-3.7579920887947083 l1.033337414264679,-0.5681994557380676 9.479144811630249,-0.36030691117048264 l4.553893804550171,0.4845310002565384 3.643307685852051,0.7891037315130234 l0.49107108265161514,0.6120556965470314 0.04655267111957073,5.5008238554000854 m-16.986552476882935,-8.104453682899475 l0.40668681263923645,-0.7326540350914001 m3.121737539768219,-0.04613529425114393 l0.40144260972738266,0.2554348483681679 0.43206479400396347,1.2613047659397125 l0.20056705921888351,1.2294504791498184 0.21429965272545815,0.5479184538125992 m3.3210623264312744,-3.5307037830352783 l-0.1353667862713337,1.5478910505771637 0.21198712289333344,1.0185286402702332 l0.49855098128318787,0.09115185588598251 0.5123333260416985,-1.4480561017990112 l-0.09127498604357243,-1.0122396051883698 -0.7655761390924454,-0.1916937530040741 l-0.4804813489317894,0.7516487687826157 m-7.310248613357544,8.544418215751648 l0.016024198848754168,1.2510223686695099 0.34857887774705887,0.683286190032959 l0.9998341649770737,0.19373977556824684 0.5563360825181007,-1.496429592370987 l-0.3824198991060257,-0.9450717270374298 -0.8545099943876266,-0.0075609429040923715 l-0.41366249322891235,0.9666508436203003 0.25801315903663635,0.819782093167305 m-1.942126303911209,3.1650885939598083 l-0.06982116028666496,1.9665603339672089 0.08599062450230122,1.2154074013233185 l0.29339393600821495,0.6993051618337631 0.7936298102140427,0.19530927762389183 l1.317518800497055,-0.9762195497751236 0.6271972507238388,-1.4299622178077698 l-0.2534629590809345,-1.9281144440174103 -1.0809815675020218,-0.4968130588531494 l-1.0069707781076431,0.6495817005634308 m-3.057643473148346,12.208014726638794 l-0.5201524496078491,2.6784315705299377 m8.23637306690216,-3.9186498522758484 l0.7287441939115524,5.32154381275177 m-3.9861679077148438,-5.0990283489227295 l-0.15579355880618095,2.7155399322509766 m-2.6284438371658325,-4.2909157276153564 l-0.27685999870300293,2.1493634581565857 m2.1660426259040833,-4.153009653091431 l0.273020938038826,0.42428746819496155 0.4687177762389183,1.8972678482532501 l0.7105403393507004,2.0896315574645996 1.1395014077425003,1.3348539173603058 l3.9089244604110718,1.6357128322124481 11.47001028060913,-1.374557763338089 l4.83826756477356,-2.162557989358902 1.7314909398555756,-1.60062775015831 l1.1053542792797089,-2.460787445306778 m-28.474950790405273,8.670269250869751 l-0.5872185528278351,-0.1764862798154354 -1.917443871498108,-1.4635619521141052 l-6.17490291595459,-10.052413940429688 m72.08221173612401,14.450290118111297 l0.3857818618416786,1.532173752784729 0.79502172768116,-0.34055981785058975 l0.9807693213224411,-0.3216695040464401 1.3822507858276367,2.2494153678417206 m-3.1009840965270996,-4.726533889770508 l3.484397232532501,-0.4996584728360176 4.661778211593628,-0.8943965286016464 l5.887013077735901,-1.0301262140274048 7.0390355587005615,-1.054328829050064 l9.352216720581055,-1.1415418237447739 9.729702472686768,-0.8190246671438217 l9.295251965522766,-0.6026459485292435 6.342786550521851,-0.0022787792840972543 l0.28734922409057617,4.559924900531769 -0.1592176966369152,5.765470266342163 l-4.844160676002502,3.0447757244110107 -17.256958484649658,1.0096876323223114 l-14.853458404541016,0.2556154318153858 -10.875077247619629,0.15197498723864555 l-5.643736720085144,-0.2782103046774864 -1.2114402651786804,-0.48669297248125076 l-1.3019591569900513,-2.2847984731197357 m12.69060730934143,-8.304707407951355 l-0.14903848059475422,-3.83402556180954 0.3428672254085541,-5.705897808074951 l0.8541387319564819,-4.201330244541168 0.657544806599617,-0.7286830991506577 l12.927660942077637,-0.07880464196205139 5.676793456077576,0.4573328047990799 l6.263976693153381,0.5297623574733734 0.5773261934518814,0.5863877013325691 l0.507659912109375,7.452569603919983 0.314163900911808,6.2341612577438354 m-22.51758575439453,-14.822402000427246 l0.7336421310901642,-2.216731905937195 1.9854333996772766,-6.79897665977478 l1.0512316972017288,-0.7952699810266495 9.02328908443451,0.21868394687771797 l3.943015933036804,0.5488712713122368 0.4362024739384651,0.6137251481413841 l-0.40564846247434616,6.556790471076965 -0.038380175828933716,4.511437118053436 m-13.401322364807129,-13.663803339004517 l0.3871007636189461,-0.8911556005477905 0.30868953093886375,-2.1318602561950684 l0.9336698055267334,-0.8439742773771286 6.408917307853699,-0.8914360404014587 l3.1045767664909363,0.08788308128714561 0.43185602873563766,0.49059614539146423 l-0.1208875235170126,2.5981032848358154 -0.22929362952709198,2.8700411319732666 m-9.243470430374146,-2.8293099999427795 l0.050903307273983955,-0.5005133897066116 0.42833808809518814,-2.382250428199768 l0.9091660380363464,-0.4820684343576431 0.7298052310943604,1.0247749090194702 l-0.01768376212567091,1.848725825548172 -0.6191851943731308,0.9607373923063278 m3.17219614982605,-1.1548741906881332 l-0.06585875991731882,-0.9716186672449112 0.5170435458421707,-1.3106410205364227 l0.6269800662994385,0.18185030668973923 -0.2917965315282345,1.6625969111919403 l-0.9716880321502686,0.9363283216953278 m-7.399910092353821,11.670202016830444 l-0.649866983294487,0.6283260136842728 0.0007955136970849708,3.3594539761543274 l0.2697736769914627,3.8281339406967163 0.4831206426024437,3.2471609115600586 l0.7620836794376373,2.848774790763855 1.1364515870809555,2.300233095884323 l1.3144704699516296,1.2711310386657715 1.5147848427295685,0.5764375999569893 l13.622760772705078,-1.9454827904701233 3.8128143548965454,-1.4975082874298096 l1.3697999715805054,-1.366930603981018 0.9344165027141571,-2.715282142162323 l0.18628232181072235,-6.703364253044128 -1.3102032244205475,-6.72660231590271 m-21.175758838653564,8.160547018051147 l-0.5448654666543007,1.4108604192733765 -0.8255741000175476,3.573961853981018 m11.698144674301147,-4.917671084403992 l-0.4811682924628258,3.222843110561371 m-8.567330241203308,-3.2198861241340637 l-0.8974990248680115,0.38414929062128067 -0.9059671312570572,0.308873075991869 l-3.333234488964081,0.1042565330862999 -0.8691737055778503,-0.320122092962265 l-1.1491253972053528,-3.1675508618354797 0.5247233435511589,-1.4443595707416534 m63.77085082574922,14.285529137123376 l0.617101639509201,2.387787401676178 1.0059113800525665,0.6764926016330719 l1.3774029910564423,2.6307564973831177 0.6438571959733963,1.397794932126999 l2.1094125509262085,-5.3313106298446655 1.7094849050045013,-3.2039639353752136 l1.4542408287525177,-1.056496500968933 2.3588110506534576,-0.3764982521533966 l4.236038625240326,1.2548011541366577 1.6230633854866028,3.918945789337158 l1.0112156718969345,2.7126309275627136 16.657243967056274,-1.3262003660202026 l7.845441102981567,-0.6099765375256538 0.973222479224205,-2.9146093130111694 l1.679152399301529,-3.002249002456665 1.5205137431621552,-1.2110229581594467 l2.507835626602173,-0.518205501139164 1.532442420721054,0.42032651603221893 l4.599351584911346,5.506220459938049 0.779527872800827,-0.27306683361530304 l2.5814616680145264,-6.489751935005188 -3.05930495262146,-7.525826096534729 l-16.57310724258423,-1.5925119817256927 -19.012893438339233,0.5036886036396027 l-15.435296297073364,1.3999198377132416 -7.683162689208984,1.8340161442756653 l-1.427915096282959,1.2975043058395386 -0.2742454782128334,6.299303770065308 l0.5930427834391594,5.303817391395569 m8.660172820091248,-9.66177225112915 l-0.16975993290543556,-1.5963417291641235 0.24252958595752716,-6.309109926223755 l1.360364705324173,-2.316608875989914 0.8192752301692963,-0.3241114318370819 l1.5031111240386963,0.4059336706995964 0.9738084673881531,6.505486369132996 l0.035590981133282185,4.57002192735672 m4.571961462497711,-5.492983460426331 l0.031821008305996656,-1.9220733642578125 1.3946862518787384,-5.206537246704102 l1.502852588891983,-1.0187463462352753 3.8147661089897156,-0.06926075555384159 l0.5293335765600204,0.5260345339775085 0.23101605474948883,2.9491010308265686 l-0.5060746148228645,5.181362628936768 -0.6383799761533737,2.531808614730835 m8.388350009918213,-6.45254373550415 l-0.34674257040023804,-0.29881618916988373 -0.5655207857489586,-0.9486808627843857 l-1.235170140862465,-4.990012943744659 -0.13609910383820534,-1.9166664779186249 l0.48590682446956635,-1.02058507502079 1.6576993465423584,-0.7603103667497635 l3.9298221468925476,0.02516895066946745 1.2085822224617004,7.021217346191406 l-0.30149025842547417,3.1450220942497253 -0.9128254652023315,1.257961392402649 m8.699111938476562,-5.797128677368164 l-0.6129151955246925,0.2460881881415844 -1.3085925579071045,1.150025799870491 l-2.559320628643036,3.8378629088401794 -0.5597411096096039,1.6868431866168976 l0.040237330831587315,1.7686499655246735 0.6576620042324066,1.0124965757131577 l4.9196657538414,1.378733366727829 4.071443676948547,-0.7517966628074646 l1.3958930969238281,-1.3153354823589325 0.5891134962439537,-1.5327493846416473 l-1.3298827409744263,-6.5586793422698975 -4.131940007209778,-1.5859879553318024 l-2.895526885986328,0.303096529096365 m-20.06523847579956,17.156649827957153 l-0.5205947160720825,2.9621130228042603 -0.0718541257083416,4.142737984657288 l0.9861090034246445,2.7615445852279663 1.1828486621379852,1.1714551597833633 l12.052857875823975,-1.8612498044967651 0.7240743935108185,-4.501859545707703 l-0.3299630433320999,-4.603070020675659 -1.0583298653364182,-2.6054003834724426 m11.396383047103882,3.113884925842285 l-0.43835312128067017,2.436085194349289 0.17776362597942352,3.957274556159973 l2.314205914735794,0.4314463585615158 3.618413507938385,-1.2867708504199982 l0.06985019892454147,-7.562158107757568 -1.2013506144285202,-0.8195243775844574 m35.54121339926496,8.525648762006313 l0.7951275259256363,3.3793905377388 1.155763864517212,1.6011631488800049 l1.6524489223957062,3.3425772190093994 0.7677911221981049,1.4032933115959167 l3.5704204440116882,-1.762399822473526 1.086837649345398,-3.2711657881736755 l1.1632825434207916,-2.674531042575836 2.3318034410476685,1.9163073599338531 l1.6152951121330261,2.8316953778266907 0.7307944446802139,0.4784628003835678 l16.97213888168335,-1.3784435391426086 8.496404886245728,-0.5474795401096344 l1.0022269189357758,-1.756715327501297 1.4324159920215607,-2.2661902010440826 l2.881810963153839,-2.8843191266059875 1.809515804052353,-0.811128243803978 l2.153177857398987,0.0934224296361208 5.5738747119903564,3.968719244003296 l0.2620795927941799,-0.16970569267868996 -1.1380623281002045,-5.950942635536194 l-2.044782042503357,-9.3768310546875 -2.1461622416973114,-7.964722514152527 l-21.278738975524902,0.26543598622083664 -18.550642728805542,1.5975788235664368 l-11.31439208984375,1.724172830581665 -6.275673508644104,2.3862703144550323 l-0.6897936761379242,0.8130721002817154 -0.5979453772306442,7.550530433654785 l0.054816664196550846,6.326468586921692 0.43342798948287964,3.859778642654419 m14.478766918182373,-18.693115711212158 l-0.7834608107805252,-0.06785478442907333 -0.8467365056276321,0.04185249097645283 l-3.156868815422058,0.5784519389271736 -0.9752697497606277,0.979112833738327 l-0.8747529983520508,2.0969171822071075 -0.11905304156243801,1.832069307565689 l0.5691658705472946,1.2704408168792725 1.129915937781334,0.765124186873436 l3.4764492511749268,0.22692305967211723 0.9172246605157852,-0.6021497026085854 l1.2628890573978424,-3.1877198815345764 -0.3130519390106201,-3.1693705916404724 l-1.2956787645816803,-1.0270122438669205 m20.203073024749756,0.9803266823291779 l-1.6724011301994324,0.1560886949300766 -1.3133572041988373,1.15806445479393 l-1.2520451843738556,2.708635926246643 -0.00027249832783127204,2.5625836849212646 l0.5388357117772102,0.7316077500581741 2.806975245475769,0.7297152280807495 l2.9424649477005005,-1.4324426651000977 1.211589127779007,-1.7361988127231598 l0.34163612872362137,-2.4815694987773895 -0.5347810685634613,-1.420733481645584 l-1.0425348579883575,-0.8654629439115524 m-10.978529453277588,0.5105625465512276 l-0.8763144910335541,-1.9503578543663025 -1.5827053785324097,-6.259527802467346 l-1.0748276859521866,-7.960057854652405 0.3916887193918228,-0.8764883130788803 l12.008109092712402,0.49147214740514755 6.33546769618988,0.13487827964127064 l5.739554762840271,0.23526344448328018 0.5056272819638252,0.621761865913868 l-0.09339638985693455,8.780596256256104 -0.0016761300503276289,8.766779899597168 l-0.2076146937906742,3.7730470299720764 -0.5639682337641716,1.8396705389022827 m-21.205992698669434,-16.42410635948181 l0.0005880748722120188,1.553444266319275 0.187407024204731,4.3788281083106995 l0.46580664813518524,3.086499273777008 0.5706033110618591,0.9407876431941986 l7.776530981063843,-1.4775627851486206 0.1336436439305544,-4.302626252174377 l-0.936330258846283,-5.143983960151672 -5.298126935958862,0.08819893002510071 l-3.767978250980377,1.3942822813987732 m64.40670641903125,16.471823477186263 l0.9542121738195419,4.621245563030243 1.3518467545509338,2.624039351940155 l1.5674768388271332,3.7079188227653503 1.0360810905694962,1.747245341539383 l1.0321838408708572,-0.07813557982444763 3.336978852748871,-1.2563252449035645 l1.464645117521286,-2.9010620713233948 1.241454854607582,-2.616834342479706 l1.4427784085273743,-0.9397453814744949 3.827880322933197,-0.10471244342625141 l5.699053406715393,2.5731831789016724 2.1350130438804626,3.183259963989258 l15.438737869262695,0.429556742310524 1.2751328945159912,-3.4967076778411865 l1.2989018857479095,-3.4074917435646057 2.43368461728096,-3.5419899225234985 l1.5837036073207855,-1.0508990287780762 3.6196747422218323,-0.39696309715509415 l1.1355653405189514,2.6770469546318054 0.21426770836114883,4.227975606918335 l-1.674228459596634,-2.55412220954895 -3.998161554336548,-2.0763903856277466 l-6.36044442653656,-2.530585825443268 -6.090248227119446,-1.036902666091919 l-16.531567573547363,-0.9520208090543747 -11.489696502685547,-0.8472667634487152 l-6.734373569488525,0.37385761737823486 -3.1879422068595886,1.1725568026304245 m22.63709783554077,3.6714160442352295 l-0.5025817453861237,-1.5272122621536255 -0.5576867982745171,-6.331082582473755 l-0.7749799638986588,-7.903716564178467 0.8366580307483673,-3.6854898929595947 l0.7211610674858093,-0.83796426653862 4.569334089756012,-0.1662834733724594 l5.0561100244522095,0.4146479442715645 5.199114680290222,0.9767279773950577 l5.001947283744812,1.0384780168533325 4.040982127189636,1.1024100333452225 l0.5515627190470695,0.7043632119894028 0.4130129888653755,7.301903963088989 l0.08639629930257797,7.651278972625732 -0.27342265471816063,5.211123824119568 l-0.6495170295238495,2.357102781534195 -1.167813241481781,1.1779267340898514 l-2.3861783742904663,0.7324882596731186 -4.143572747707367,0.049492972902953625 l-3.1567931175231934,-0.5897349119186401 -2.8570759296417236,-1.0025180876255035 m-3.2644200325012207,-20.199527740478516 l-0.8714389801025391,0.6422078609466553 -0.7739213109016418,0.9980158507823944 l-1.9241900742053986,5.203699469566345 -0.15190345235168934,4.01539534330368 l0.8246726542711258,2.582182288169861 1.115640252828598,1.194654107093811 l1.3668754696846008,0.5548905581235886 8.328909873962402,-1.9277448952198029 l0.546213909983635,-3.870604932308197 -0.4170854017138481,-5.474839806556702 l-2.983388602733612,-3.371244966983795 -4.297282099723816,-0.510784313082695 l-1.7267139256000519,0.4639337584376335 m-2.7640318870544434,1.691402643918991 l-0.07445870898663998,3.136856257915497 -0.20204812288284302,5.328890681266785 l0.25362528860569,3.9228272438049316 5.532526969909668,-0.764789879322052 l4.099218547344208,-1.2431993335485458 -0.9370604902505875,-10.37981629371643 l-3.848428428173065,-2.2941869497299194 -6.032293438911438,0.5895971134305 l-1.7153164744377136,1.115906462073326 m60.81489724572748,15.07586341125716 l1.1349662393331528,6.136341691017151 1.5521261096000671,4.196960926055908 l1.5246360003948212,3.836478888988495 1.3161113858222961,1.8244647979736328 l1.318318098783493,0.35805583000183105 2.503003180027008,-0.00030750888981856406 l3.0171680450439453,-1.127433031797409 3.0381745100021362,-1.4428356289863586 l3.1938672065734863,-1.208222284913063 1.0213486850261688,-2.685476839542389 l1.1576500535011292,-2.345079332590103 3.7901970744132996,-6.143400073051453 l1.6125009953975677,-0.05798432044684887 17.958648204803467,2.9761314392089844 l7.473162412643433,0.8523224294185638 4.225646555423737,-0.09716909378767014 l-0.8951323479413986,-3.929574191570282 -2.9141539335250854,-7.820806503295898 l-2.978300452232361,-7.793429493904114 -1.4957913756370544,-2.4213366210460663 l-1.4101850986480713,-1.148936003446579 -1.8269334733486176,-0.501956045627594 l-14.423495531082153,0.68553626537323 -13.611575365066528,1.2632128596305847 l-9.599365592002869,1.3517747819423676 -6.462734937667847,1.617005467414856 l-3.8617107272148132,1.9465109705924988 -1.3225401937961578,1.5950380265712738 l-1.435852199792862,4.785639643669128 -0.09381628595292568,5.267488360404968 l0.5839576572179794,3.4791788458824158 m14.83511209487915,-12.69985318183899 l-0.9279915690422058,-0.6904788315296173 -1.0988323390483856,-1.1976078897714615 l-2.1451251208782196,-3.6425435543060303 -0.796382948756218,-2.1814927458763123 l-0.7815414667129517,-4.631190001964569 -0.018961905734613538,-1.976875215768814 l0.7462697476148605,-2.213028371334076 1.271633803844452,-1.3800714910030365 l1.7919616401195526,-0.9153452515602112 3.106984496116638,-0.5213175341486931 l3.528555929660797,0.47068383544683456 3.194175958633423,1.6749955713748932 l2.670312821865082,2.683602273464203 1.791924238204956,3.6999863386154175 l0.7116983085870743,4.174385368824005 -0.02776031382381916,3.6957815289497375 l-0.6369372457265854,2.4168138206005096 -1.4438644051551819,1.892475038766861 l-2.506811022758484,1.2734508514404297 -3.4151288866996765,0.2112063392996788 m0.5751282721757889,-5.597714185714722 l-1.183759942650795,1.551196575164795 -4.067739844322205,8.691447973251343 l-1.630987673997879,6.381698250770569 -0.19844146445393562,3.2224202156066895 l0.7133683562278748,1.9372399151325226 10.65040111541748,-0.5865654721856117 l6.444796919822693,-1.1677776277065277 4.456762969493866,-1.4297455549240112 l0.18493207171559334,-9.613725543022156 -0.5669698491692543,-3.5174015164375305 l-1.8922746181488037,-5.53051233291626 -1.9944794476032257,-1.6659963130950928 l-3.5103657841682434,-0.41451942175626755 -8.507277965545654,0.7930082082748413 m77.2039055544883,6.535626159929961 l1.3102857768535614,7.815753817558289 1.7610928416252136,6.095154881477356 l1.5305836498737335,3.7450256943702698 1.4981448650360107,2.202751189470291 l0.776936486363411,0.4031035676598549 2.2692224383354187,-0.00033177399018313736 l3.0572396516799927,-0.762408897280693 3.2446885108947754,-1.006888598203659 l2.998419404029846,-0.8098849654197693 3.3625030517578125,-0.7569046318531036 l4.400365352630615,-0.5395247787237167 10.223958492279053,-0.9564263373613358 l0.30214278027415276,-7.706060409545898 -0.8779597282409668,-9.211612343788147 l-0.5065453797578812,-2.5922173261642456 -3.6376023292541504,-1.2513218820095062 l-9.199979901313782,-0.42002495378255844 -8.442282676696777,-0.1426354330033064 l-7.079870700836182,-0.009791810298338532 -2.370171546936035,-0.0036607374204322696 l-4.771822690963745,-0.11521299369633198 -1.6874031722545624,0.13599499128758907 l-2.587347626686096,0.4864640533924103 -1.1896226555109024,0.6775327026844025 l-1.8291804194450378,2.530123293399811 -0.8081940561532974,3.377027213573456 l-0.021453413646668196,3.542236089706421 0.5169657617807388,2.8627508878707886 l0.718730166554451,2.577541172504425 1.0279083997011185,1.384463608264923 l14.162744283676147,-0.7918576896190643 7.106665372848511,-0.9244952350854874 l6.098037958145142,-0.61423409730196 5.217514634132385,-0.4646468162536621 l3.5281485319137573,-0.6083104014396667 2.5331202149391174,-0.8891229331493378 l0.007618018426001072,-6.33810818195343 -0.4902297258377075,-4.340272545814514 l-1.281147301197052,-6.165813207626343 -1.0704351216554642,-1.9434545934200287 l-6.942186951637268,-0.40118392556905746 -7.431557774543762,0.9709411114454269 l-6.410336494445801,1.3164962828159332 -5.212215781211853,0.9410030394792557 l-3.543882966041565,0.5759932845830917 -1.511097401380539,0.3704938665032387 l-2.4345603585243225,1.2852874398231506 -1.2645730376243591,0.9351898729801178 l-2.018541693687439,2.8912413120269775 -0.9501557797193527,3.9803197979927063 l-0.272535290569067,3.064313232898712 0.10771646164357662,2.6906949281692505 l0.541771836578846,2.756267488002777 0.6249698251485825,2.541781961917877 l0.672985315322876,2.3409676551818848 0.9428814053535461,1.9578653573989868 l2.9617494344711304,-1.689712107181549 1.816786676645279,-4.0560489892959595 l1.9812506437301636,-8.591681718826294 0.3038408234715462,-4.4366613030433655 l-0.7924583554267883,-6.5569669008255005 -2.0889465510845184,-6.870474815368652 m78.49654480698518,20.03311049516924 l1.4639517664909363,9.653685092926025 2.1496637165546417,8.086509704589844 l1.4330706000328064,3.593158721923828 1.5340112149715424,2.297101616859436 l0.889456644654274,0.6356683373451233 1.935724914073944,0.4287033900618553 l2.967679798603058,-0.0003281973476987332 1.8858858942985535,-0.761064738035202 l3.1139174103736877,-3.2146701216697693 1.258644312620163,-2.4582459032535553 l1.2259282171726227,-5.316413640975952 0.7572761923074722,-2.2194895148277283 l10.019848346710205,0.040017939172685146 6.637306213378906,0.24247469380497932 l6.273152828216553,-0.17949789762496948 3.6239928007125854,-1.0345684736967087 l-0.6306905299425125,-6.283531188964844 -2.7068141102790833,-7.60570764541626 l-3.298535943031311,-7.398552894592285 -1.6863013803958893,-1.6466093063354492 l-2.488372176885605,-1.070510372519493 -4.190896153450012,-0.3412267565727234 l-3.891765773296356,0.2211720123887062 -3.5958802700042725,0.4275152087211609 l-7.946900129318237,1.055598184466362 -7.539817690849304,0.9914609044790268 l-2.691808044910431,0.12111406773328781 -5.154446363449097,0.47331731766462326 l-1.8632906675338745,0.4095581918954849 -2.697595953941345,1.1773908138275146 l-3.978140652179718,1.2282630056142807 -1.8497782945632935,0.8512484282255173 l-2.542150914669037,2.181599587202072 -1.1349710077047348,2.1303483843803406 l-0.4402773827314377,5.374562740325928 0.6225984171032906,4.086006581783295 l1.0202667117118835,2.4243387579917908 2.1080537140369415,0.49725204706192017 l3.4800583124160767,-0.6388989835977554 4.165022671222687,-1.3713593780994415 l3.054119646549225,-1.3493791222572327 2.6751118898391724,-1.2944014370441437 l7.098070979118347,-5.21417498588562 6.305986046791077,-7.071067690849304 l4.9956172704696655,-7.089850306510925 2.258951812982559,-4.000292420387268 l-0.10437442921102047,-1.7905354499816895 -2.6834961771965027,-3.1991809606552124 l-2.9303431510925293,-1.2476495653390884 -3.6340397596359253,-0.14108139090240002 l-3.6341455578804016,0.8341752737760544 -6.53103768825531,3.429103195667267 l-3.6467504501342773,2.6551946997642517 -3.365424871444702,3.868263065814972 l-3.640722632408142,7.324850559234619 -1.208755448460579,4.586429297924042 l-0.5405529960989952,3.743428587913513 0.00166229423484765,3.5183891654014587 " fill="none" stroke="black" stroke-width="1" /></svg>