<?xml version="1.0" encoding="utf-8" ?>
<svg baseProfile="full" height="90.86217690259218" version="1.1" width="844.8029068810865" xmlns="http://www.w3.org/2000/svg" xmlns:ev="http://www.w3.org/2001/xml-events" xmlns:xlink="http://www.w3.org/1999/xlink"><defs /><rect fill="white" height="90.86217690259218" width="844.8029068810865" x="0" y="0" /><path d="M25,25 m0.0,0.0 m16.261684614000842,40.86217690259218 l-0.40629565715789795,-1.7159968614578247 -0.33572711050510406,-2.752409279346466 l0.6877664476633072,-18.50888729095459 1.3298487663269043,-8.55114221572876 l0.7276413589715958,-0.9935186803340912 5.245026350021362,-0.6341099739074707 l9.360514879226685,-0.28428636491298676 11.930912733078003,0.007063393713906407 l13.323525190353394,0.242017712444067 10.363690853118896,0.47250356525182724 l0.5146531015634537,4.136335551738739 0.24502677842974663,9.465450048446655 l-0.011632171226665378,7.437793612480164 -4.522920846939087,2.9455482959747314 l-6.305928826332092,0.7142757624387741 -14.963763952255249,0.24906272068619728 l-6.255253553390503,0.03799997270107269 -11.200770139694214,-0.0031588246929459274 l-3.981136381626129,0.13459181413054466 -5.82275927066803,0.2822338789701462 l-1.6561691462993622,0.22086283192038536 m9.640107154846191,-1.5239422023296356 l-0.9127466380596161,0.8809956908226013 -0.12971059419214725,2.4276696145534515 l1.351361721754074,0.8279220014810562 2.6925981044769287,6.358741757139796e-05 l0.5356873571872711,-2.682231366634369 -0.7561159878969193,-0.42704440653324127 m16.889379024505615,-0.6153245642781258 l-1.2130986899137497,2.356134057044983 m9.93289828300476,-3.3115389943122864 l-0.5142973363399506,2.273019105195999 0.3152654320001602,1.6683045029640198 l1.2812535464763641,0.18158208578824997 1.1334676295518875,-2.081012725830078 l-0.41027162224054337,-1.5378665924072266 m-17.95689582824707,-10.967711210250854 l-0.8715374767780304,2.401290088891983 -0.35507064312696457,3.0743256211280823 l0.9353476017713547,0.5929440632462502 4.528195559978485,-0.026679581496864557 l1.1210303008556366,-2.364821285009384 -0.3831537812948227,-3.342753052711487 l-4.268047511577606,-0.8064009249210358 -2.313755750656128,0.23690937086939812 m15.830684900283813,0.36318153142929077 l-0.7582675665616989,2.801637351512909 -0.2338135614991188,3.4256017208099365 l0.42203769087791443,0.6310073286294937 5.305456519126892,0.07088282145559788 l3.9819738268852234,-0.5125543847680092 0.46453721821308136,-0.4908391088247299 l-0.26011407375335693,-2.3263761401176453 -1.2860651314258575,-3.168981373310089 l-0.8351957052946091,-0.4867101088166237 -8.297606706619263,0.34216389060020447 l-2.194336950778961,0.3545321524143219 m-14.25596833229065,2.7892830967903137 l2.6852425932884216,0.00033392832847312093 8.680116534233093,-0.003483604232314974 l11.025577783584595,-0.1746012642979622 8.941562175750732,-0.1444917544722557 l6.233801245689392,-0.22178348153829575 m-40.569233894348145,0.20139846950769424 l-3.325203061103821,0.3433545306324959 -9.456453323364258,1.0341387242078781 l-7.9605937004089355,1.2031152844429016 m85.97592690959573,8.75289054537916 l0.0418526865541935,-1.6712158918380737 0.1505916751921177,-2.5994229316711426 l2.4837282299995422,-17.011555433273315 1.2072397768497467,-3.477706015110016 l0.8022730797529221,-0.6660345941781998 6.782821416854858,-0.6561343371868134 l10.949454307556152,-0.2353634126484394 21.612350940704346,0.008759668562561274 l7.447701692581177,0.3610197827219963 0.5095154047012329,0.730559453368187 l0.49143116921186447,13.836406469345093 0.15271145850419998,6.446006894111633 l-0.7033900916576385,2.590741217136383 -0.8475258201360703,0.28427116572856903 l-16.894807815551758,-0.41555825620889664 -7.174350023269653,-0.1367458701133728 l-14.540709257125854,0.3486732393503189 -10.633267164230347,0.0874944869428873 l-2.74350643157959,0.1414334587752819 -1.4698602259159088,0.1928422413766384 m8.850296139717102,-1.1006136238574982 l-1.0495280474424362,0.7861480861902237 -0.304433386772871,2.4715228378772736 l1.4455966651439667,1.095592975616455 2.790662944316864,-0.00015805608200025745 l0.8262566477060318,-2.507641911506653 -1.2596586346626282,-1.555487960577011 m16.75438404083252,0.02082509221509099 l-1.1707285791635513,1.903616040945053 0.11242292821407318,1.822487860918045 l1.7706374824047089,0.1599978469312191 1.080034300684929,-2.5393423438072205 l-0.7659105211496353,-1.2012019008398056 m12.1755051612854,-0.7093483209609985 l-0.9209905564785004,2.2515200078487396 0.2730267122387886,1.551903635263443 l0.6442312896251678,0.36210082471370697 1.515047550201416,-0.0003216621553292498 l0.7174838334321976,-2.226595878601074 -0.834602490067482,-1.497081071138382 m-29.003596305847168,-12.713704109191895 l-0.8338945358991623,1.2360543012619019 -0.670786052942276,3.290219008922577 l0.2604914829134941,2.684065103530884 0.5539044365286827,0.6227679923176765 l12.430598735809326,-0.02174811903387308 0.7340722531080246,-3.3142641186714172 l-0.7116097211837769,-3.857789635658264 -6.823579668998718,-0.922689288854599 l-3.20943683385849,0.2571842819452286 -1.7087943851947784,0.5772880092263222 m22.969143390655518,0.10573902167379856 l-0.3801767900586128,3.8301602005958557 0.1654360629618168,3.9203453063964844 l8.861251473426819,-0.25446539744734764 3.760998845100403,-0.5994124338030815 l0.13104272074997425,-3.7201178073883057 -1.2451519072055817,-3.591708540916443 l-7.736863493919373,0.17460361123085022 -5.803873538970947,0.6391672044992447 m-11.960062980651855,3.022593855857849 l8.19952130317688,-0.05296667572110891 m53.505662562092766,9.361370068563701 l0.4720015823841095,-1.6383083164691925 0.6412442773580551,-2.399318665266037 l4.324241578578949,-15.734955072402954 0.942220464348793,-2.7312299609184265 l0.8569925278425217,-0.48940353095531464 8.38555634021759,-0.0003683255272335373 l11.714951992034912,0.2627013437449932 11.423790454864502,0.3440084308385849 l9.612394571304321,0.3461122140288353 0.20319128409028053,4.036158621311188 l0.06051358301192522,9.912805557250977 -0.025389434304088354,5.913700461387634 l-5.515013933181763,0.9430280327796936 -15.769343376159668,0.14735888689756393 l-13.885228633880615,-0.13526984490454197 -8.737844228744507,-0.0373991415835917 l-4.6365490555763245,-0.06399905309081078 -1.1051750928163528,0.053505273535847664 m7.714400291442871,-1.2063925713300705 l-0.8916506916284561,1.1171811819076538 -0.025012369733303785,2.462040036916733 l1.56953364610672,1.2129611521959305 2.31772243976593,-0.00024385670258197933 l1.1813084781169891,-2.466663271188736 -0.9605193883180618,-1.9406652450561523 l-1.9533845782279968,-0.5739803984761238 m22.704880237579346,0.3016052767634392 l-1.1678459495306015,1.9165006279945374 0.24412872269749641,2.025114595890045 l0.6144486367702484,0.3895151987671852 2.5000977516174316,-0.2540758065879345 l0.7717425376176834,-2.4105937778949738 -1.035575196146965,-1.500435322523117 m-19.12428855895996,-11.046744585037231 l-0.4776935279369354,1.8974725902080536 -0.14833510853350163,3.0816614627838135 l8.267090320587158,0.6658332049846649 4.460814595222473,-0.2002798579633236 l-0.06093102507293224,-3.6224809288978577 -1.3770587742328644,-2.7022358775138855 l-8.770116567611694,0.04925637040287256 -4.352031350135803,0.5901820957660675 m17.144064903259277,-0.24381065741181374 l0.008172467933036387,3.8664814829826355 0.40916822850704193,2.926105260848999 l7.833881378173828,-0.4137130454182625 4.044474959373474,-0.4399651661515236 l-0.0786258839070797,-3.4376978874206543 -1.216159537434578,-3.0029839277267456 l-7.590985894203186,0.044946083799004555 -4.237801432609558,0.441165529191494 m-12.786738872528076,5.830396413803101 l5.137903690338135,-0.0942039955407381 8.166404366493225,-0.37039972841739655 l8.350566625595093,-0.33634334802627563 7.504029870033264,-0.30785616487264633 m32.387512340792455,4.165552728009061 l0.9412794560194016,-1.553175151348114 1.1685805767774582,-2.115381211042404 l5.942754745483398,-13.435074090957642 1.0380508750677109,-0.5310370773077011 l11.16495132446289,0.055311294272542 7.1287137269973755,0.3266669437289238 l8.613209128379822,0.36778897047042847 7.917565703392029,0.16087288036942482 l1.390349119901657,11.059850454330444 0.5679500848054886,6.15048885345459 l-3.3138027787208557,2.0988263189792633 -16.706572771072388,0.022568788845092058 l-14.030873775482178,-0.3766224905848503 -8.355071544647217,-0.27954908087849617 l-3.6575505137443542,-0.3894149139523506 -0.6570734083652496,-0.22527502849698067 m7.596114873886108,-0.5860963091254234 l-0.7733719795942307,0.8287493884563446 -0.3711949661374092,1.4034128189086914 l0.38535166531801224,2.0904672145843506 1.1050469428300858,1.0661301016807556 l2.311052232980728,0.7040924578905106 2.538554072380066,-0.4446551203727722 l1.1401422321796417,-1.2110807746648788 0.21349409595131874,-1.4993861317634583 l-0.9974981099367142,-1.8960517644882202 m23.81763219833374,-1.0794014483690262 l-0.992157831788063,2.4642139673233032 0.4038955271244049,2.5669121742248535 l1.950543224811554,0.5989127233624458 2.8317320346832275,0.000163793647516286 l1.2641516327857971,-5.708987712860107 -0.6919042021036148,-0.26983993127942085 m-28.84976863861084,-12.610088586807251 l-0.4363108053803444,2.146492898464203 -0.11126041412353516,3.4836044907569885 l10.307042598724365,0.07891233079135418 0.28808705508708954,-3.16331684589386 l-0.925971195101738,-3.445793092250824 -6.731933355331421,0.03791689872741699 l-3.714422881603241,0.5881206691265106 m18.2977032661438,-0.011596853146329522 l-0.08154934272170067,4.442628622055054 0.4024426266551018,2.7424004673957825 l8.726775050163269,-0.27533819898962975 0.6311588734388351,-3.1302663683891296 l-0.4048565775156021,-3.5523828864097595 -6.058393120765686,-0.27951471507549286 l-4.470142126083374,0.5103389918804169 m13.181822299957275,0.5323429778218269 l0.50922691822052,4.020432531833649 10.946987867355347,0.18266120925545692 l4.914774298667908,-0.630473867058754 m26.73629249446094,7.18100619773395 l1.5521621704101562,-1.572469025850296 1.7731212079524994,-1.8481780588626862 l7.940391302108765,-10.530756711959839 0.9018691629171371,-0.3124896436929703 l12.512319087982178,1.1194195598363876 5.791230201721191,0.84742471575737 l6.330441236495972,0.6972725689411163 6.649479866027832,0.3033646009862423 l0.5652625486254692,10.235587358474731 0.32000936567783356,5.494868159294128 l-5.023921728134155,0.5752202123403549 -17.4807071685791,-0.5343610420823097 l-13.318953514099121,-0.3726896643638611 -5.883966088294983,-0.3589271381497383 l-2.2368593513965607,-0.5719162151217461 m10.050705671310425,-7.226355671882629 l-0.5132552608847618,1.8712538480758667 0.15489881858229637,3.1141290068626404 l0.5399574339389801,0.670158639550209 1.8837693333625793,0.547211691737175 l4.8290711641311646,-0.05026010796427727 1.0635943710803986,-2.6109620928764343 l-0.48163753002882004,-3.0412164330482483 -4.707738161087036,-0.8044550567865372 l-3.287128508090973,0.46923454850912094 m19.905741214752197,-0.12415358796715736 l-0.31556446105241776,3.8395220041275024 0.6389064341783524,3.036918342113495 l7.5231146812438965,0.03390929661691189 0.5863535776734352,-3.1170564889907837 l-0.5581698566675186,-3.382674753665924 -5.458493232727051,-0.6013325974345207 l-3.813043236732483,0.30090801417827606 m-16.307053565979004,3.95754337310791 l7.132325768470764,0.12242547236382961 6.965920329093933,0.023824484087526798 l6.893026232719421,-0.12281155213713646 5.707370638847351,-0.1376683171838522 l5.086916089057922,-0.11730168014764786 m-32.372636795043945,-1.6685019433498383 l5.595837235450745,0.00512440106831491 14.851948022842407,0.13839622028172016 l7.045857310295105,0.12091624550521374 4.85107034444809,0.10262938216328621 l3.3829540014266968,0.308447927236557 1.9378097355365753,0.4265272617340088 l-5.50905168056488,1.6010506451129913 m-29.681880474090576,-4.04127836227417 l-2.074698656797409,2.0970046520233154 m68.8049558212515,-3.7350025981868384 l2.160288393497467,-1.5259505808353424 2.3699863255023956,-1.5420220792293549 l11.386427879333496,-5.7116323709487915 5.2458930015563965,-0.9095877408981323 l6.131632924079895,-0.0007432723214151338 5.8554887771606445,1.279793381690979 l2.092774659395218,7.668062448501587 0.69939024746418,4.729521572589874 l4.344862401485443,-0.7559581845998764 3.093319833278656,-0.5943941697478294 l-3.659088611602783,1.190418154001236 -15.531071424484253,0.38894172757864 l-12.649013996124268,0.013270203489810228 -7.992010712623596,-0.20908715203404427 l-2.7073192596435547,-0.8172447234392166 -0.41679713875055313,-1.399780511856079 m9.845257997512817,-0.8458837121725082 l-0.47025930136442184,3.3479830622673035 0.1316775381565094,3.085169792175293 l1.0128775238990784,1.960938423871994 1.3992489874362946,0.8215811848640442 l4.347468316555023,-0.0003572019704733975 1.4697951078414917,-3.031899333000183 l0.2260025590658188,-4.474510848522186 -3.1080687046051025,-1.5070170164108276 l-4.474898278713226,0.1313851960003376 m17.77851939201355,1.0409746319055557 l-0.015011974610388279,3.7360069155693054 0.7046645879745483,3.355504274368286 l0.6481589376926422,0.48192936927080154 7.664921283721924,-0.9830253571271896 l0.02718642121180892,-3.33578884601593 -4.150594770908356,-3.0878692865371704 l-4.8002758622169495,-0.11890054680407047 m-11.27346396446228,-1.4044001698493958 l6.769616007804871,0.10341771878302097 8.52199375629425,-0.027231182903051376 l8.560356497764587,-0.342489629983902 7.660475969314575,-0.3622497245669365 m-30.542078018188477,1.5005239844322205 l6.971954703330994,-0.0985631812363863 7.761412858963013,-0.19005849957466125 l8.037861585617065,0.04243016708642244 6.115456819534302,0.10422226041555405 m27.810319507261738,-4.0625371411806555 l2.8294625878334045,-1.4256572723388672 3.0603942275047302,-1.2718996405601501 l13.798828125,-4.056069552898407 5.5992591381073,-0.3904462605714798 l4.527097642421722,-0.0008875071216607466 1.0334090143442154,7.287358641624451 l0.8588404208421707,3.9131981134414673 6.907984018325806,-0.7719502598047256 l5.054972171783447,-0.4144999012351036 -1.5897084772586823,-0.9476972371339798 l-11.674233675003052,-1.6376495361328125 -14.991761445999146,-0.2781418152153492 l-7.250756621360779,-0.14726565219461918 -1.9452287256717682,-0.4172038286924362 m11.888017654418945,2.2450433671474457 l-0.30480336397886276,4.330560863018036 0.1845381036400795,3.438218832015991 l0.882212296128273,2.151612639427185 1.2456761300563812,0.9365982562303543 l3.635261356830597,-0.00022025540602044202 3.428703546524048,-0.7622552663087845 l0.5925043672323227,-0.6089842319488525 0.32705865800380707,-3.218061923980713 l-0.700230598449707,-5.875691175460815 -3.550538122653961,-0.5164429917931557 l-4.339815080165863,0.3401434049010277 m9.506339430809021,2.3386940360069275 l5.979131460189819,-0.15993071720004082 6.889671683311462,-0.3548988327383995 l7.0373910665512085,-0.5528975650668144 5.402716398239136,-0.40581900626420975 m-30.73453664779663,2.159080356359482 l7.307651042938232,0.04473652224987745 7.783417105674744,0.04706548526883125 l9.133263230323792,-0.03299988806247711 6.355808973312378,0.0628187321126461 l3.5553857684135437,0.0026491994503885508 m-35.4008150100708,-1.9605281949043274 l-1.80211141705513,2.424495816230774 -1.125197410583496,4.05680239200592 l8.901461958885193,0.358315072953701 0.32854773104190826,-3.5457539558410645 m50.58165770024061,-7.693077457424806 l3.6734607815742493,-1.355995088815689 3.724556267261505,-0.9725914150476456 l10.46470046043396,-1.726984679698944 8.145331144332886,-0.6888391077518463 l1.049271896481514,2.4012427031993866 0.7249835133552551,4.588335156440735 l0.6693337857723236,3.51902574300766 7.158904075622559,-1.1776547878980637 l4.727597236633301,-0.5015825852751732 -2.7723053097724915,-4.776495099067688 l-9.50387179851532,-1.8988844752311707 -10.311682224273682,0.03827287349849939 l-5.225362181663513,0.3307519108057022 m9.245814681053162,1.6340930759906769 l2.78042733669281,0.23436341434717178 4.999195337295532,0.23910121992230415 l4.967674016952515,0.5353186279535294 4.499015510082245,0.49180056899785995 l3.770431876182556,0.426911860704422 3.5526952147483826,0.5892947688698769 l2.8859204053878784,0.487273707985878 2.3424415290355682,0.5352599546313286 l2.0139263570308685,0.5935630947351456 1.9989700615406036,0.5241237208247185 l1.7023366689682007,0.5174640193581581 2.86976158618927,0.6646663695573807 l-5.570244789123535,-2.0872406661510468 m-35.25813817977905,-3.0029255151748657 l-0.6309963762760162,3.3268076181411743 -0.6441770493984222,4.652065932750702 l0.0791369378566742,3.235182762145996 m16.121985912322998,-12.607561349868774 l-0.040532578714191914,5.905188322067261 0.09889787063002586,6.256296634674072 l0.0029050378361716866,1.9714237749576569 -0.05025537218898535,-0.33886637538671494 l-0.008134811650961637,-5.231717228889465 m-8.284921646118164,-7.919820547103882 l12.700592279434204,-1.8914996087551117 9.810211658477783,-1.046270877122879 m27.2078198910458,3.5063570088823326 l4.533919095993042,-1.309412568807602 4.980473518371582,-0.7835447043180466 l11.130475997924805,-0.8647963404655457 6.4183104038238525,-0.28086571022868156 l1.1779695004224777,3.0082207918167114 0.5774713680148125,4.57114189863205 m-25.523133277893066,-1.9188505411148071 l7.663777470588684,-0.3502703085541725 8.344776034355164,-0.24328945204615593 l7.487621903419495,-0.16661416739225388 5.566056966781616,-0.08748624473810196 l4.599171876907349,0.06312550976872444 3.8968023657798767,0.06468435283750296 l2.860243022441864,0.17604878172278404 -1.40504851937294,2.170935869216919 l-0.8348532766103745,3.223174214363098 -0.6941109895706177,1.5208376944065094 l-10.435779094696045,-0.00826023577246815 -3.3440428972244263,-0.5712753161787987 l-0.447315014898777,-0.7152674347162247 0.14644155278801918,-3.321697413921356 l0.8273728936910629,-3.4867295622825623 m4.772096574306488,1.4038480818271637 l5.269078612327576,0.17539268359541893 7.0789676904678345,0.10701017454266548 l6.446447372436523,-0.1024825032800436 5.687358379364014,-0.06821788381785154 l5.264348983764648,0.07484730333089828 m-29.528675079345703,2.910900115966797 l8.13245713710785,0.1815604418516159 19.432497024536133,0.893900990486145 l6.8843090534210205,0.21979259327054024 3.911578357219696,0.07003916893154383 m-42.909607887268066,-3.976253569126129 l-1.9542953372001648,2.9615017771720886 -0.7678407430648804,3.7085869908332825 l0.4302578791975975,2.2797007858753204 m59.978128555230796,-11.541593295696657 l5.453000068664551,-1.224135234951973 5.461955666542053,-0.4926758259534836 l11.19466781616211,-0.5132220312952995 5.6168025732040405,-0.04599737003445625 l4.700153470039368,0.15630057081580162 -0.14659928157925606,6.420482397079468 m-29.27823781967163,-0.9885283559560776 l0.7251084595918655,3.6891773343086243 0.9284020215272903,3.2294297218322754 l0.639309361577034,0.5303849279880524 11.95410966873169,-1.0797544568777084 l5.5234503746032715,-0.5404849350452423 5.321210622787476,-0.22289663553237915 l4.131960868835449,-0.13234497979283333 3.5684701800346375,-0.15095039270818233 l3.014497458934784,-0.09025727398693562 2.7163726091384888,-0.1779364049434662 l0.10760807432234287,-3.743644952774048 -0.29115626588463783,-4.408324062824249 l-0.7750006765127182,-0.9548600018024445 -9.03419554233551,0.24272197857499123 l-7.505716681480408,0.2903670072555542 m5.790278911590576,2.2660961747169495 l5.846801400184631,0.07621025666594505 6.948885917663574,-0.016427135560661554 l6.968761086463928,-0.20659837871789932 6.5910738706588745,-0.24272067472338676 m-29.425456523895264,5.043730735778809 l9.976952075958252,-0.15308670699596405 10.568448305130005,-0.23893404752016068 l9.00092363357544,-0.22103030234575272 5.408714413642883,-0.18893219530582428 " fill="none" stroke="black" stroke-width="1" /></svg>