<?xml version="1.0" encoding="utf-8" ?>
<svg baseProfile="full" height="83.66398340091109" version="1.1" width="834.4594921341923" xmlns="http://www.w3.org/2000/svg" xmlns:ev="http://www.w3.org/2001/xml-events" xmlns:xlink="http://www.w3.org/1999/xlink"><defs /><rect fill="white" height="83.66398340091109" width="834.4594921341923" x="0" y="0" /><path d="M25,25 m0.0,0.0 m33.22776078013703,26.438014013692737 l1.7045040428638458,0.4044711962342262 6.709362268447876,0.1293769385665655 l2.827824354171753,-1.2366598099470139 4.47831928730011,-1.3445296883583069 l2.2327545285224915,-0.43467819690704346 m-18.913474082946777,2.8284454345703125 l-0.038568354211747646,0.5682368203997612 0.2523801848292351,1.55049666762352 l1.0384373366832733,0.9047689288854599 1.599421203136444,0.5509159341454506 l5.205584168434143,0.29932431876659393 4.831563830375671,-0.32837793231010437 l3.6519911885261536,-0.8383820950984955 1.259496957063675,-0.8413117378950119 m-16.758347749710083,-1.1859112977981567 l0.5853484198451042,2.6522767543792725 0.9343931823968887,2.049492597579956 l1.508183479309082,1.1200957745313644 5.58499276638031,0.3779187798500061 l4.763513803482056,-0.6729411333799362 2.9256901144981384,-1.0036057233810425 l0.9599129110574722,-0.9539636224508286 0.3614981845021248,-3.8064873218536377 m-14.251575469970703,0.6632271409034729 l-0.3759659081697464,-0.608171634376049 0.0004754606925416738,-1.7706102132797241 l1.068676933646202,-4.080237150192261 1.0304499417543411,-0.4866601526737213 l7.237614989280701,0.4107118770480156 0.4901711270213127,0.5782630667090416 l0.08438876830041409,4.836454093456268 -0.4127828776836395,2.04690620303154 m-6.216750144958496,-8.080267906188965 l-0.7297000288963318,-2.2870835661888123 0.11609243229031563,-1.3045583665370941 m3.4736883640289307,3.3838292956352234 l-0.1359137613326311,-2.1968306601047516 m2.8806015849113464,2.1715743839740753 l-0.1290464773774147,-1.403595209121704 m68.26316472717735,4.519509649835527 l1.8448959290981293,0.3298637643456459 6.688750386238098,0.17185447737574577 l3.325392007827759,-0.9566757827997208 5.060081481933594,-0.927758514881134 m-18.46872568130493,2.1815572679042816 l0.5215714871883392,0.37108756601810455 3.735319674015045,0.8707418292760849 l4.5205289125442505,0.4076465591788292 3.970217704772949,-0.09894733317196369 l3.2292360067367554,-0.6930678337812424 1.264909952878952,-0.743647888302803 m-15.596016645431519,0.08495368994772434 l0.15224052593111992,3.322910964488983 0.7240822166204453,2.092638462781906 l0.6426773965358734,0.5037380754947662 5.891578793525696,0.33929601311683655 l5.057126879692078,-0.2828388847410679 3.487175405025482,-0.745362713932991 l0.6886981427669525,-2.813504636287689 0.0009244098328053951,-3.2346007227897644 l-0.5365898832678795,-1.8556858599185944 m-13.928661346435547,3.759886920452118 l-0.07807590067386627,0.32920338213443756 0.0006427338666981086,0.5904307216405869 l1.0211430490016937,2.701292335987091 1.5026283264160156,1.1040490120649338 l8.836773037910461,-0.11347698979079723 3.2024914026260376,-0.7901907712221146 l1.1776664108037949,-0.9191476553678513 0.6481394916772842,-1.679675430059433 l0.00031049443350639194,-2.0228539407253265 -0.48064645379781723,-1.2648390233516693 m-11.69066309928894,-0.2407662384212017 l-0.6627783179283142,-3.613467514514923 m4.459444880485535,3.7919726967811584 l-0.30161555856466293,-3.128085732460022 m4.503752589225769,3.1459346413612366 l-0.1511055137962103,-2.8085869550704956 m65.6595545361779,1.2982764502521604 l1.8683908879756927,0.27752863243222237 6.65837287902832,0.19002167508006096 l4.096636176109314,-0.6094997376203537 5.836355090141296,-0.6245176494121552 m-19.681144952774048,1.8084445595741272 l0.13033222407102585,2.5662118196487427 0.5614117160439491,0.45582719147205353 l5.212990641593933,0.5346884578466415 4.712405502796173,0.019992461893707514 l4.071924090385437,-0.3941010683774948 2.9901349544525146,-0.4180964455008507 l1.0846073180437088,-0.6049150228500366 m-14.837383031845093,-1.6292822360992432 l0.220857672393322,2.179150879383087 0.613839402794838,2.0784877240657806 l0.9560637921094894,1.1503931134939194 4.559226036071777,0.17398826777935028 l3.7921634316444397,-0.7906221598386765 0.4590190201997757,-0.5339493602514267 l0.16689857468008995,-4.366500973701477 -0.485788993537426,-1.507759541273117 l-5.743774175643921,0.20667476579546928 -3.7538379430770874,0.5945459008216858 m6.155915856361389,1.2810559570789337 l0.04256308078765869,1.318577378988266 0.6162717565894127,2.2405004501342773 l1.2906686961650848,1.2133204936981201 3.437500298023224,-0.20809758454561234 l0.6232163682579994,-2.7957770228385925 -0.38853779435157776,-2.279011160135269 l-3.2587766647338867,-0.18783483654260635 -1.9144022464752197,0.5998459085822105 m-3.981318473815918,0.4398764297366142 l6.4789265394210815,-2.086946666240692 m-2.6634275913238525,1.5482741594314575 l5.428889989852905,-1.4155752956867218 3.054344356060028,-0.7125571370124817 m56.49061517775408,0.09358306298963726 l2.1342122554779053,0.17069904133677483 6.4502644538879395,0.18920151516795158 l4.9191513657569885,-0.36793213337659836 6.344130039215088,-0.2552308700978756 m-20.554404258728027,2.2548414766788483 l0.7104320824146271,0.3557831048965454 4.202530384063721,0.774495005607605 l4.910860359668732,0.32991543412208557 4.190627634525299,-0.04583298694342375 l3.2908347249031067,-0.4414144530892372 2.3732200264930725,-0.5276504531502724 m-13.304959535598755,-2.1477340161800385 l-0.06012583617120981,2.651178240776062 0.5065632984042168,2.389158755540848 l1.1389414966106415,1.2176711112260818 1.4090260863304138,0.48667386174201965 l4.2322152853012085,-0.3330438956618309 0.5979415774345398,-0.5543513596057892 l0.4136890172958374,-1.7354407906532288 0.0013410908286459744,-3.4067383408546448 l-3.609524965286255,-1.198001354932785 -3.7709319591522217,0.15800638124346733 m5.994159579277039,2.007189244031906 l2.8636497259140015,-0.48796992748975754 3.9751774072647095,-0.8063158392906189 l3.7344229221343994,-0.6970684230327606 3.0445149540901184,-0.3350396081805229 l2.534395456314087,-0.11656577698886395 -0.12101976200938225,0.6420876085758209 l-2.6228129863739014,4.227882027626038 -1.511366367340088,1.2500771880149841 l-9.186137318611145,0.5305887013673782 m-5.793954133987427,-5.179902911186218 l1.211404800415039,1.9967278838157654 m2.3612016439437866,-2.5448161363601685 l0.5868867039680481,1.776951253414154 m62.51573609857587,-2.0867509278468788 l2.1722564101219177,0.1656862534582615 6.252985000610352,0.25826698169112206 l5.866084694862366,-0.0852811150252819 6.221746206283569,-0.0547207472845912 m-21.541662216186523,2.4049897491931915 l1.1283298581838608,0.3409453481435776 4.447923004627228,0.9217304736375809 l5.065139532089233,0.3579932078719139 4.36279684305191,-0.253553856164217 l3.763551115989685,-0.4403304308652878 2.7093642950057983,-0.430065281689167 m-12.932494878768921,-2.4145637452602386 l-0.1623573713004589,2.657312750816345 0.14977989718317986,2.267244905233383 l0.4831353947520256,0.525369867682457 3.716212809085846,0.06179718300700188 l0.5651820451021194,-0.4592270404100418 0.3962888941168785,-1.5965653955936432 l0.0011351567809469998,-3.030295670032501 -2.305791825056076,-0.9079288691282272 l-2.042163461446762,0.07359352428466082 m5.884195566177368,1.3169987499713898 l2.710961401462555,-0.05571853369474411 3.98250013589859,-0.31948644667863846 l4.030129313468933,-0.26642758399248123 3.07471364736557,-0.324341244995594 l2.8979992866516113,-0.39381418377161026 2.294526547193527,-0.230174008756876 l2.029253840446472,-0.10263164527714252 1.6240788996219635,0.20422518253326416 l-3.867133855819702,3.385556638240814 m-19.298158884048462,-1.3045573234558105 l-0.1573248952627182,2.9112526774406433 m3.7155893445014954,-3.6271026730537415 l0.2562752179801464,2.6439157128334045 m60.85738539331942,-4.280591225542594 l2.2895407676696777,0.07946128956973553 6.115107536315918,0.22920353338122368 l6.963663697242737,0.25386182591319084 6.561172008514404,0.16413763165473938 m-22.167837619781494,2.0848387479782104 l1.1695396155118942,0.3648702800273895 5.03143310546875,0.692378357052803 l5.141878128051758,0.3948357328772545 4.405815303325653,-0.10141012258827686 l3.570430874824524,-0.22536132484674454 m-9.41353976726532,-3.0293112993240356 l-0.14372387900948524,2.610779106616974 0.21932624280452728,2.3462940752506256 l0.496593713760376,0.4712621867656708 2.576160430908203,0.0001824580249376595 l3.0389204621315002,-0.5249511823058128 0.4577504098415375,-0.519542321562767 l0.0006809907790739089,-2.7771157026290894 0.0014790093700867146,-2.200699597597122 l-0.43384432792663574,-0.3915657103061676 -5.403181314468384,0.18975207582116127 l-1.1298809945583344,0.3461547940969467 m7.016565799713135,0.9739097952842712 l3.6059796810150146,-0.02697755116969347 4.109271168708801,-0.22041196003556252 l4.2090097069740295,-0.2782864309847355 3.3574482798576355,-0.2834618464112282 l2.966673970222473,-0.3579910099506378 2.7081504464149475,-0.17284750938415527 l2.2646842896938324,0.042276112362742424 m-23.27786684036255,3.2308781147003174 l4.781666100025177,-0.012440746650099754 10.87390661239624,-0.11977570131421089 m-17.77966856956482,-2.998723089694977 l-1.2983272969722748,2.9300978779792786 m63.825180528801866,-3.9312353683635592 l2.4975430965423584,-0.010795368580147624 5.920809507369995,0.2644204720854759 l8.208519220352173,0.5681297555565834 6.586248874664307,0.21233629435300827 m-22.93548583984375,2.0270612835884094 l5.641044974327087,0.5516412481665611 5.130488872528076,0.46609167009592056 l5.066686272621155,0.16823992133140564 3.7632039189338684,-0.072926701977849 l2.946077883243561,-0.1485371869057417 m-5.975514054298401,-2.698024809360504 l-0.2148512564599514,2.730330228805542 0.1274610124528408,2.259589731693268 l0.7551403343677521,1.0937505960464478 3.7365418672561646,0.21101431921124458 l0.62717005610466,-0.5141061171889305 0.39925716817379,-1.1710728704929352 l0.019165148260071874,-3.1824231147766113 -1.196405217051506,-1.1736540496349335 l-1.9657230377197266,-0.45829299837350845 -1.3946488499641418,0.07800860796123743 m4.369936287403107,1.3472604751586914 l3.8637524843215942,0.04718281328678131 3.769436776638031,-0.11611438356339931 l4.183785915374756,-0.30064862221479416 3.3127963542938232,-0.3905484825372696 l3.1616538763046265,-0.42867306619882584 2.6325723528862,-0.4177071899175644 l3.028303384780884,-0.26075899600982666 m-26.79795503616333,3.5501715540885925 l6.312340497970581,0.004112317692488432 7.1636635065078735,-0.20006734877824783 m-15.588303804397583,-3.3381298184394836 l-0.6571313738822937,4.326186180114746 m63.4324184594152,-4.681650430447917 l2.6133614778518677,-0.08577250875532627 5.656148791313171,0.2719430439174175 l9.315791726112366,1.006123498082161 6.428908109664917,0.30483026057481766 m-23.646655082702637,2.522326409816742 l5.724166631698608,0.34692544490098953 5.6538403034210205,0.5479704216122627 l5.091332197189331,0.2496669813990593 3.5594072937965393,-0.0034142498043365777 l3.047718107700348,-0.2421894483268261 m-4.272386133670807,-3.3518844842910767 l-0.41881877928972244,2.7020621299743652 0.04438469186425209,2.107705771923065 l0.4831191524863243,0.48774708062410355 2.3159240186214447,0.0005121346111991443 l2.7983716130256653,-0.5213344842195511 0.4578098654747009,-0.5330735445022583 l0.000987950770650059,-2.535736560821533 -0.7152380794286728,-2.3729948699474335 l-0.6314171850681305,-0.380251482129097 -3.4274259209632874,0.26496490463614464 l-1.0118760913610458,0.4108257219195366 m4.8968759179115295,0.9490153938531876 l4.371859431266785,0.04996406380087137 4.422029256820679,-0.2680625393986702 l4.2491090297698975,-0.22440925240516663 3.670225739479065,-0.29702406376600266 l3.0349838733673096,-0.2246328815817833 2.634146809577942,-0.31754758208990097 m-21.620569229125977,3.483934998512268 l8.516069650650024,0.10278415866196156 7.655671834945679,-0.2536323852837086 m-21.908254623413086,-2.8683459758758545 l-0.07115209009498358,4.424409866333008 m60.97441849622555,-6.010264640408423 l2.758404016494751,-0.15897409990429878 5.619685649871826,0.19663209095597267 l10.081819295883179,1.3465845584869385 6.866284012794495,0.4095141962170601 m-24.263601303100586,3.0153873562812805 l6.051396131515503,0.39301659911870956 6.173915266990662,0.34088611602783203 l4.8271772265434265,0.07157009094953537 3.565284311771393,0.07519867271184921 l2.9718106985092163,-0.02975363051518798 m-4.964864552021027,-3.4637466073036194 l-0.49485307186841965,2.446574568748474 0.12108885683119297,2.1142414212226868 l0.5092247202992439,0.4747949540615082 2.4424901604652405,0.0005189216608414426 l2.7061626315116882,-0.37303607910871506 0.49337513744831085,-0.5002335831522942 l0.0009093144763028249,-2.6016965508461 -0.6267865747213364,-0.9250791370868683 l-1.46621972322464,-0.7241154462099075 -2.171952724456787,-0.1475146971642971 l-1.097155511379242,0.3015303239226341 m5.018490552902222,0.9198934584856033 l4.7968485951423645,0.04896802827715874 4.485490322113037,-0.42781081050634384 l4.4941821694374084,-0.3423864394426346 3.678530752658844,-0.39675626903772354 l3.578859269618988,-0.3208570182323456 m-23.46313238143921,3.9586567878723145 l7.841809988021851,0.015646552201360464 8.490867018699646,-0.25919729843735695 m-20.99562168121338,-3.099478781223297 l0.9366563707590103,4.94608998298645 m61.08725439033151,-7.626425279431714 l2.958405017852783,-0.22247152402997017 5.412709712982178,0.21901169791817665 l11.721789836883545,1.7676855623722076 6.380583643913269,0.43436549603939056 m-24.219110012054443,3.278578519821167 l6.168183088302612,0.37638068199157715 6.317538022994995,0.28997212648391724 l5.344737768173218,0.005589997745119035 3.8919490575790405,-0.007549189613200724 m-3.743988871574402,-3.388271927833557 l-0.5632344633340836,2.2638238966464996 -0.04542497452348471,2.3224084079265594 l0.47974053770303726,0.5442369729280472 2.252541333436966,0.0005241843246039934 l3.125338554382324,-0.3442808613181114 0.538967065513134,-0.5075347423553467 l0.0007311362423934042,-2.344210296869278 -0.6335385143756866,-1.337146908044815 l-1.0053743422031403,-0.7234442234039307 -2.016882002353668,-0.2123790606856346 l-1.306692659854889,0.27840565890073776 m4.776442348957062,1.1610506474971771 l4.067175090312958,0.1735212467610836 3.7654000520706177,-0.16418201848864555 l4.407204985618591,-0.2764332480728626 3.7245842814445496,-0.35742610692977905 l3.456776738166809,-0.4713132604956627 m-25.0941801071167,2.551732659339905 l9.958693981170654,0.022747195325791836 9.47062075138092,-0.25862209498882294 m-22.23170280456543,-1.1434614658355713 l8.892425894737244,0.2452407404780388 " fill="none" stroke="black" stroke-width="1" /></svg>