<?xml version="1.0" encoding="utf-8" ?>
<svg baseProfile="full" height="89.39704571850598" version="1.1" width="824.5921837823698" xmlns="http://www.w3.org/2000/svg" xmlns:ev="http://www.w3.org/2001/xml-events" xmlns:xlink="http://www.w3.org/1999/xlink"><defs /><rect fill="white" height="89.39704571850598" width="824.5921837823698" x="0" y="0" /><path d="M25,25 m0.0,0.0 m38.49107777699828,25.252394829703917 l2.9521608352661133,0.45029599219560623 4.273191690444946,-0.3080914542078972 l7.804364562034607,-0.4765477776527405 6.226612329483032,-0.4940313845872879 l1.6517265141010284,-0.2776251919567585 m-20.98360538482666,0.9023419767618179 l-0.9090583771467209,-0.04269127268344164 -1.2991078197956085,0.0886854063719511 l-0.824882909655571,0.6085316464304924 -0.4875512793660164,1.3077281415462494 l0.8222247660160065,1.6594499349594116 1.356210857629776,0.7252351194620132 l3.624706268310547,-0.00021176378140808083 4.196345508098602,-0.9623569995164871 l0.8244491368532181,-1.8367809057235718 m3.401782512664795,-0.8851610124111176 l1.9536161422729492,-1.379808634519577 3.311487138271332,-1.3244880735874176 l3.61396461725235,-1.5019525587558746 -2.5629109144210815,2.00632244348526 l-7.05494225025177,1.7683538794517517 m-6.300666928291321,2.3449768126010895 l-7.882188558578491,-0.5254760757088661 -7.529269456863403,-0.9411866217851639 l-4.164548814296722,-0.609516017138958 m18.62534999847412,2.4894142150878906 l-2.914895713329315,-0.14104424975812435 -6.746451258659363,0.16213852912187576 m84.38239054754376,-2.225401180130575 l2.561209797859192,0.1984638161957264 2.770858407020569,-0.10977580212056637 l6.040162444114685,-0.3342250734567642 5.874558091163635,-0.5295168235898018 l2.34954297542572,-0.6056510657072067 m-18.516206741333008,0.5698591843247414 l-1.0618700087070465,-0.26267973706126213 -0.8367377519607544,-0.046934960409998894 l-1.4964620769023895,0.42509716004133224 -1.4415532350540161,1.258314847946167 l0.155770406126976,2.40398570895195 1.5942177176475525,1.5200400352478027 l1.7305003106594086,0.5725241079926491 4.701468646526337,-0.00016713123841327615 l4.37057763338089,-1.2563176453113556 1.5088868141174316,-1.1296936124563217 l0.7896476984024048,-1.6914743185043335 m-7.297821640968323,-1.3908721506595612 l-3.1505823135375977,-1.447274386882782 -4.061756134033203,-1.921001523733139 l-1.4529973268508911,-0.8361323922872543 -2.1434982120990753,-1.527733951807022 l-1.6794833540916443,-0.18840355798602104 -1.4855073392391205,1.5942507982254028 m20.11519432067871,6.275427937507629 l2.6516175270080566,-1.2327459454536438 3.7100279331207275,-1.2533603608608246 l2.8228378295898438,-0.7007433474063873 m-16.072229146957397,4.036852419376373 l-3.862820565700531,0.08781583048403263 -5.961839556694031,0.3442239761352539 m89.15004368405789,-2.5034896270335594 l2.2525690495967865,0.0834835134446621 1.8612128496170044,0.15769248828291893 l3.9977651834487915,-0.04821493290364742 5.1605260372161865,-0.84617018699646 l3.9576616883277893,-2.3237524926662445 -0.6724292039871216,-0.3203480690717697 l-10.707167387008667,0.8260251581668854 -6.160364151000977,1.026327759027481 l-1.0084716230630875,1.2942223250865936 m4.946017861366272,0.3512924164533615 l-0.22124268114566803,1.0387519747018814 0.30350299552083015,2.36341193318367 l1.1878754943609238,1.696556806564331 1.5339754521846771,0.772501677274704 l3.0546966195106506,-0.00018675551473279484 1.8187394738197327,-0.830562636256218 l1.1683402210474014,-1.294771283864975 0.7428661733865738,-2.219874858856201 l0.0006391014903783798,-2.119472920894623 -0.9643933176994324,-1.5498842298984528 m-5.57980477809906,-0.10784793645143509 l-4.8978206515312195,-2.38128200173378 -6.7246925830841064,-2.8344112634658813 l-2.0834670960903168,-0.6353002786636353 -1.8963433802127838,-0.30731987208127975 l-1.8309703469276428,0.30436666682362556 -1.8036174774169922,1.2202096730470657 l-0.6148769706487656,1.4190557599067688 0.578291043639183,3.61870676279068 l11.058725118637085,1.1956291645765305 m10.592809915542603,-1.5461406111717224 l2.8743383288383484,-1.3038811087608337 2.432668060064316,-0.871804803609848 l1.681753396987915,-0.37274815142154694 m59.33372762949148,7.988583849373754 l1.9255331158638,-0.09128102101385593 1.078362986445427,0.4597003757953644 l1.8523740768432617,0.28911979869008064 5.800604224205017,-1.5825866162776947 l0.36898624151945114,-2.655072808265686 -6.389174461364746,-0.7549666613340378 l-5.962744951248169,0.7824928313493729 -1.1941363662481308,1.8629088997840881 l0.379810631275177,2.4887779355049133 1.334395557641983,1.4811238646507263 m5.244964361190796,-3.4818175435066223 l2.1905119717121124,-0.3758736699819565 3.0935639142990112,-0.682930201292038 l1.6444440186023712,-0.24757051840424538 1.6096693277359009,-0.08232652209699154 l1.39922633767128,0.21499240770936012 1.2012775987386703,0.6599804759025574 l0.0005379183130571619,1.6369707882404327 -1.4496293663978577,1.9538801908493042 l-2.913554012775421,1.5461739897727966 -7.901938557624817,0.4591955989599228 l-0.9366243332624435,-0.552629753947258 m1.7879688739776611,-3.973207473754883 l-0.7693386822938919,-2.2903133928775787 -1.843995749950409,-5.272345542907715 l-1.4052391052246094,-3.158746361732483 -0.9089929610490799,-1.223493292927742 l-1.5064741671085358,-0.663616806268692 0.9659111499786377,7.814507484436035 l1.253809779882431,4.312023222446442 1.226273849606514,2.139219790697098 m4.334428310394287,0.08239245973527431 l2.817748785018921,-1.1980554461479187 5.017199516296387,-2.305319607257843 l-2.430337071418762,1.7893441021442413 -5.271285176277161,1.699439138174057 l-2.151547372341156,0.7531940937042236 m-1.2874110043048859,0.05421963520348072 l-5.133076310157776,-0.25778282433748245 m84.37159600201994,-2.189406892284751 l1.6438144445419312,-0.2903427742421627 0.438692644238472,0.7958308607339859 l0.39167914539575577,1.5319429337978363 0.5132416263222694,-0.4643258824944496 l5.136373043060303,-4.216662049293518 -0.035526787396520376,-1.0157040506601334 l-5.770270824432373,-0.4680982604622841 -4.299671053886414,0.8201543241739273 l-1.6476403176784515,1.842871606349945 0.0738306762650609,2.558196783065796 l1.3903489708900452,1.46474227309227 m5.485551953315735,-2.7338385581970215 l2.000921070575714,-0.231137927621603 2.9276105761528015,-0.592496357858181 l1.7461296916007996,-0.45761436223983765 1.7014741897583008,-0.6314747780561447 l1.620105355978012,-0.9647752344608307 1.32442906498909,-1.4127029478549957 l0.9114640206098557,-1.9247868657112122 0.21467085927724838,-2.2866730391979218 l-0.543915368616581,-0.7311709970235825 -5.343407988548279,-1.3004955649375916 l-7.328935861587524,1.0430724173784256 -4.917602241039276,2.5854268670082092 l-1.4686712622642517,1.513051986694336 -0.9156443178653717,2.266676127910614 l0.058222110383212566,1.5871678292751312 0.797533318400383,1.1365917325019836 l2.301664799451828,1.1251091957092285 m6.590566635131836,-2.8330132365226746 l-0.9957043826580048,-0.4778898134827614 -5.459068417549133,-3.8109037280082703 l-3.1380319595336914,-2.517862915992737 -1.8731598556041718,-1.9097724556922913 l-0.09882764890789986,-0.20902009680867195 1.362806111574173,0.9780335426330566 l3.200733959674835,2.4771618843078613 5.51694393157959,4.353912770748138 m2.8940993547439575,0.40006306022405624 l-0.8141051232814789,-1.4940956234931946 -1.3850100338459015,-4.037225842475891 l0.5304241180419922,-0.14658665284514427 2.941536009311676,1.1794117838144302 m73.54772911290638,7.403373554698192 l1.3774250447750092,-0.48724111169576645 -0.18145807087421417,1.27126082777977 l-0.6556049734354019,2.173790782690048 -0.46571381390094757,-0.07602888159453869 l-1.2111473828554153,-4.345546364784241 4.977140724658966,-3.370032012462616 l3.714992105960846,-1.0663101822137833 2.431824952363968,-0.006479019648395479 l-1.5460105240345001,4.6473029255867 -2.1976736187934875,2.4685032665729523 l-2.12415412068367,1.4253059029579163 -2.2704680263996124,0.6969195604324341 m-0.927535891532898,-5.416444540023804 l1.3031452894210815,-0.38178443908691406 2.370324432849884,-0.8589039742946625 l3.445844054222107,-1.0497363656759262 3.486553132534027,-0.899287536740303 l1.7960244417190552,-0.3203333914279938 1.7847102880477905,-0.13145976699888706 l1.6795358061790466,0.18432874232530594 1.5463325381278992,0.7722625136375427 l1.8585306406021118,2.4633918702602386 0.0006651354487985373,2.6704779267311096 l-2.533523440361023,2.3226656019687653 -3.821461498737335,1.338171809911728 l-7.269605398178101,0.7775925099849701 -3.1897348165512085,-0.25645559653639793 l-0.7599740475416183,-0.6188209727406502 m0.7334931194782257,-6.551640629768372 l-4.303478300571442,-2.7127525210380554 -2.485339790582657,-1.3784265518188477 l-2.3766835033893585,-1.1452469229698181 -2.2776682674884796,-0.7126431167125702 l-1.9973506033420563,-0.13998453505337238 -1.7922262847423553,0.710311159491539 l-1.5895180404186249,1.8827323615550995 -0.5116046965122223,1.8287788331508636 l0.34039467573165894,3.0110830068588257 1.2518788874149323,1.9199955463409424 l4.699824154376984,3.2951128482818604 4.773344993591309,0.8749615401029587 m5.732216835021973,-10.872735977172852 l-0.4643296077847481,-2.5200313329696655 -0.36928609013557434,-1.767439842224121 l-0.08344502188265324,-1.7505145072937012 0.5123194307088852,-1.5614214539527893 l1.0803091526031494,1.3287076354026794 m1.4752623438835144,5.089295506477356 l0.19579319283366203,0.7579480111598969 m76.23692571185529,7.882944401117129 l1.1835334450006485,-0.6935155391693115 -0.7589594274759293,1.8215814232826233 l-1.517932415008545,2.9032722115516663 -1.385774314403534,0.2356896549463272 l-2.8797712922096252,-2.05013707280159 -0.9839488565921783,-3.8587018847465515 l0.5370082706212997,-3.7108680605888367 1.4444884657859802,-1.8532298505306244 l3.1371766328811646,-1.8077363073825836 3.697642683982849,-0.631033256649971 l1.8287622928619385,0.412813164293766 1.7335884273052216,1.7055873572826385 l1.0078366845846176,3.0315878987312317 -1.1292387545108795,3.7644949555397034 l-1.2323474138975143,1.095062792301178 -2.120238244533539,0.8378154784440994 m-2.871660888195038,-4.820180833339691 l0.4929549992084503,-1.288885772228241 1.239570528268814,-1.4178584516048431 l4.261147975921631,-3.1354495882987976 2.7379608154296875,-1.0518411546945572 l3.355017602443695,-0.3650513291358948 2.8592830896377563,0.7474374771118164 l1.377464383840561,0.9587189555168152 1.1887171119451523,1.9730687141418457 l0.430481880903244,2.7889323234558105 -0.8188529312610626,2.838941514492035 l-2.147824764251709,2.5965455174446106 -3.1734824180603027,1.8886460363864899 l-4.048507511615753,1.1315035074949265 -3.8471031188964844,-0.00027517275157151744 l-0.9166653454303741,-0.5807828530669212 m-3.508121371269226,-8.534519672393799 l-1.3692009449005127,-1.8641285598278046 -2.3509004712104797,-2.100773900747299 l-4.581708908081055,-2.3202578723430634 -2.2819237411022186,0.06009573582559824 l-1.2399384379386902,0.7205402106046677 -1.2789230048656464,1.9999206066131592 l-0.6778993457555771,3.0980169773101807 0.3188367560505867,1.8927164375782013 l1.061442345380783,1.471012681722641 3.8379010558128357,2.505340874195099 l3.0124065279960632,1.024165078997612 2.537412643432617,0.3749292343854904 l2.364921271800995,-0.39404597133398056 m2.786676287651062,-11.891489028930664 l-0.8406119048595428,-1.8814972043037415 -1.049685925245285,-1.7974014580249786 l-2.1437858045101166,-1.7857521772384644 -1.3672998547554016,-0.36824844777584076 l-1.6965952515602112,0.47788310796022415 m8.403390645980835,5.585885047912598 l2.4756991863250732,-3.648683726787567 2.2174224257469177,-1.7537125945091248 m72.95165819115937,15.077549717152579 l0.9499280154705048,-0.9472877532243729 -1.3445770740509033,2.4109093844890594 l-2.204897403717041,3.6935654282569885 -1.985035240650177,0.6878082454204559 l-3.0681031942367554,-1.4364205300807953 -1.0857798904180527,-2.284642457962036 l-0.20218946039676666,-3.4508270025253296 1.3628661632537842,-3.786676824092865 l1.6105936467647552,-1.9551116228103638 2.911074459552765,-1.7549097537994385 l3.303905427455902,-0.649510845541954 1.8041421473026276,0.42731229215860367 l1.505763828754425,1.6692601144313812 0.9195278584957123,3.0506783723831177 l-0.7863663136959076,3.4654414653778076 -1.1041835695505142,1.2281689047813416 m-2.550150454044342,-4.478721916675568 l2.3522213101387024,-2.7499371767044067 2.5656679272651672,-1.9153018295764923 l3.684064745903015,-1.7468661069869995 3.918968141078949,-0.7895240932703018 l2.187606692314148,0.20284835249185562 2.1949727833271027,1.2041961401700974 l1.0404201596975327,1.1928217858076096 0.7550643384456635,2.279900163412094 l-0.2546342648565769,2.8771311044692993 -1.6528202593326569,2.9143399000167847 l-2.805914282798767,2.552517056465149 -3.4269821643829346,1.6928726434707642 l-5.522084832191467,1.2488623708486557 -2.084738612174988,0.10161374695599079 l-2.07846000790596,-0.6816024333238602 -0.6165633350610733,-0.7984220236539841 m-2.754644453525543,-8.576651811599731 l-0.9946389496326447,-1.594751626253128 -1.8340422213077545,-2.0638489723205566 l-2.3295341432094574,-1.6632197797298431 -2.9737651348114014,-1.1580035090446472 l-3.0180487036705017,-0.26311127468943596 -1.0304023325443268,0.47725148499011993 l-1.2145154178142548,1.6185729205608368 -0.844956710934639,3.0409422516822815 l0.22515278309583664,3.657449781894684 1.0349608212709427,2.2475332021713257 l1.4588193595409393,1.5121245384216309 4.118183851242065,2.0646142959594727 l2.8049126267433167,0.5425755307078362 2.7385684847831726,-0.3024686314165592 l1.3522982597351074,-0.7814477384090424 m2.4140921235084534,-13.384385108947754 l-0.4704625532031059,-2.030722349882126 -0.7016989588737488,-1.8424159288406372 l-1.1765491217374802,-1.5586306154727936 -1.2908460199832916,-0.6540222465991974 l-1.1944293230772018,0.2879784628748894 -0.6700363755226135,0.9755221754312515 l-0.35104796290397644,2.1659666299819946 1.062736064195633,3.032258152961731 m5.578905344009399,3.5246554017066956 l3.1697314977645874,-4.742061495780945 m75.2643333045944,12.342631695792079 l0.8434180170297623,-1.1734717339277267 -2.3580019176006317,4.366936683654785 l-2.8528839349746704,3.4544649720191956 -2.4756276607513428,1.0318144410848618 l-1.8108409643173218,-0.5280372872948647 -1.4314672350883484,-2.127576768398285 l-0.8691573143005371,-3.7025457620620728 0.00010486567589396145,-4.190594851970673 l1.3932868838310242,-3.964543640613556 1.652401089668274,-2.022949606180191 l2.8622856736183167,-1.7435793578624725 2.144291251897812,-0.39714671671390533 l2.5052115321159363,0.5391208827495575 1.2289942800998688,1.218179389834404 l0.8079660683870316,2.4515071511268616 -0.4296688362956047,3.13494473695755 l-1.4844021201133728,2.5097480416297913 m-0.33536601811647415,-2.1156246960163116 l3.63323837518692,-3.71451199054718 2.9532307386398315,-1.9460789859294891 l2.80824214220047,-1.024424135684967 3.53325217962265,-0.3557245433330536 l1.9615179300308228,0.5570496991276741 1.883457601070404,1.6140365600585938 l1.2181343883275986,2.7034077048301697 0.0004852625716011971,2.9856663942337036 l-0.6410586833953857,1.6795054078102112 -2.981747090816498,3.1655558943748474 l-3.6596566438674927,2.00397789478302 -3.821798861026764,1.0156696289777756 l-3.5464388132095337,0.025479458272457123 -1.0441847890615463,-0.08560904301702976 l-1.4982518553733826,-0.5185562372207642 -0.9563105553388596,-0.3987479582428932 l-0.9369677305221558,-0.8781693130731583 -0.7595179975032806,-1.838371753692627 m-0.7184772193431854,-7.325680255889893 l-0.29342159628868103,-1.7726708948612213 -0.45005619525909424,-3.2567304372787476 l-0.7383936643600464,-3.6346009373664856 -1.0811444371938705,-2.9748857021331787 l-0.8552154153585434,-0.926327183842659 -1.733432412147522,-0.5145256221294403 l-1.8389922380447388,0.856090858578682 -1.281585693359375,1.5305010974407196 l-1.1712761223316193,3.218376934528351 -0.26779912412166595,2.574298083782196 l0.5371227860450745,3.9409875869750977 1.2850768864154816,3.878984749317169 l1.4048655331134796,3.332168757915497 1.238628774881363,2.2034862637519836 l1.1856116354465485,1.4278842508792877 1.1958881467580795,0.4977830499410629 l1.5797039866447449,-0.3364146128296852 1.0213077813386917,-1.137300431728363 m0.6325589865446091,-16.58449411392212 l-0.34098539501428604,-1.9337309896945953 -0.7901214063167572,-2.1117235720157623 l-1.2188585102558136,-1.5287864208221436 -1.5232275426387787,-0.7494302839040756 l-1.321977972984314,0.19030151888728142 -0.8644533157348633,0.884416326880455 l-0.7426659762859344,2.0914728939533234 m7.231643199920654,1.766151636838913 l3.2160258293151855,-4.105396866798401 2.1749593317508698,-1.4538948237895966 m78.90550752112176,15.313269481994212 l0.7259898632764816,-1.418776959180832 -3.154301643371582,5.570741295814514 l-3.367840349674225,3.7494200468063354 -2.1824482083320618,1.0882634669542313 l-2.1489138901233673,-0.22360848262906075 -1.7918197810649872,-1.7156963050365448 l-0.9513922035694122,-2.100749909877777 -0.7816425710916519,-5.322930812835693 l0.2425176464021206,-2.8590860962867737 0.7828785479068756,-2.1740807592868805 l2.933378517627716,-3.809073269367218 2.183290123939514,-1.4020520448684692 l2.8695055842399597,-0.6288443505764008 1.523517370223999,0.3584650158882141 l1.4768102765083313,1.460007131099701 0.12776819057762623,2.351965755224228 l-0.8120190352201462,2.1719521284103394 -0.9524883329868317,1.2871477007865906 l-1.3000254333019257,1.063857525587082 -2.576417624950409,1.5864697098731995 l-1.2146370857954025,0.6406573206186295 -1.2972240149974823,0.8096387982368469 l-3.1123527884483337,4.315512478351593 0.45374777168035507,5.67848801612854 l1.3573339581489563,2.477465718984604 1.4120760560035706,1.0167484730482101 l2.5288861989974976,0.2366628497838974 2.840322256088257,-1.4615705609321594 l1.577494740486145,-1.9593705236911774 1.3878343999385834,-3.586888611316681 l0.7895849645137787,-6.9455379247665405 0.008348157862201333,-2.5411799550056458 l-0.6960054486989975,-2.5055336952209473 -1.0268324613571167,-1.2818606197834015 l-1.2435141205787659,-0.24814726784825325 -1.9290095567703247,0.9055661410093307 l-1.228395476937294,1.535428911447525 m7.039633393287659,0.6976886093616486 l-0.021968125365674496,-0.8640848100185394 1.2933100759983063,-2.2529342770576477 l1.884525865316391,-2.0094074308872223 1.9976437091827393,-1.187298372387886 l3.0081087350845337,-0.7400958985090256 1.9164824485778809,0.2804853394627571 l1.925184726715088,1.483367532491684 0.9447864443063736,1.4774972200393677 l0.6383071839809418,2.62517511844635 -0.29947152361273766,3.1146240234375 l-1.4760991930961609,2.913109064102173 -2.3108036816120148,2.321039140224457 l-2.83831924200058,1.5500295162200928 -2.8557220101356506,0.672065019607544 l-2.7268406748771667,-0.16364658251404762 -0.695941224694252,-0.4076087474822998 l-0.13856660574674606,-1.1974374204874039 1.1046522110700607,-3.481162190437317 l0.45075103640556335,-1.571260690689087 0.874948725104332,-2.4990689754486084 l1.3903538882732391,-4.18139785528183 1.0410486161708832,-3.260928690433502 l0.8038217574357986,-2.7366986870765686 0.5311232060194016,-1.2676921486854553 l0.4542858898639679,-0.5319875851273537 0.381377749145031,0.19668499007821083 l0.24247633293271065,1.764453500509262 -0.8814601600170135,6.774764657020569 l-1.395227462053299,6.020495891571045 -1.2246615439653397,3.9662539958953857 l-1.1231712996959686,2.1795041859149933 -1.2508989870548248,0.9216195344924927 m-1.4892512559890747,-17.6385498046875 l-1.9846293330192566,-3.6084088683128357 -1.3040375709533691,-2.054145336151123 l-1.1566805839538574,-0.84759421646595 " fill="none" stroke="black" stroke-width="1" /></svg>