<?xml version="1.0" encoding="utf-8" ?>
<svg baseProfile="full" height="93.69475925341249" version="1.1" width="857.0230042934418" xmlns="http://www.w3.org/2000/svg" xmlns:ev="http://www.w3.org/2001/xml-events" xmlns:xlink="http://www.w3.org/1999/xlink"><defs /><rect fill="white" height="93.69475925341249" width="857.0230042934418" x="0" y="0" /><path d="M25,25 m0.0,0.0 m36.122662837733515,9.283321658149362 l9.756720662117004,-0.3670048341155052 14.040323495864868,-1.0076642781496048 l9.922561049461365,-0.9328781068325043 4.130006730556488,-0.3080841340124607 l0.6265055388212204,0.3561796247959137 0.7016440480947495,2.280372381210327 l0.8726316690444946,6.110108494758606 1.0320232063531876,5.000100135803223 l6.662558913230896,-0.17846902832388878 3.5224688053131104,-0.0795529130846262 l3.196316957473755,0.10097832418978214 1.766255497932434,0.6005940586328506 l1.8242458999156952,1.5920552611351013 1.5697577595710754,2.770390212535858 l0.869920402765274,3.6817768216133118 0.0008817360503599048,3.31193745136261 l-0.6417465955018997,1.5924713015556335 -1.0526765137910843,0.9330814331769943 l-2.2477972507476807,0.8157279342412949 -3.501744866371155,0.27167003601789474 l-5.038585662841797,-0.1934501901268959 -1.4638957381248474,-0.30717166140675545 l-1.8249279260635376,-1.2626327574253082 -1.0314209014177322,-1.3472117483615875 l-0.9255283325910568,-1.7784465849399567 -0.4443134739995003,-0.9683951735496521 l-0.40887750685214996,-0.7933987677097321 -0.39575058966875076,-0.6133083626627922 l-0.9549199044704437,-0.9178496897220612 -1.7137086391448975,-0.7511109858751297 l-2.6884517073631287,-0.22513391450047493 -3.1297945976257324,0.9383883327245712 l-1.593121588230133,1.2727250158786774 -0.7452711462974548,1.4872835576534271 l-0.10623283684253693,2.9138103127479553 0.7262281328439713,1.6746141016483307 l1.355782002210617,1.0967923700809479 1.866256594657898,0.5859921872615814 l3.5185471177101135,-0.08100668899714947 1.0429229587316513,-0.6046421453356743 l0.6891258805990219,-1.131107583642006 0.10908182710409164,-1.3469170033931732 m-4.544383883476257,-1.0010361671447754 l-11.468093395233154,-0.5836697667837143 -16.9996178150177,-0.5396715924143791 l-14.35968279838562,-0.16994448378682137 -13.303077220916748,0.13372098095715046 l-3.5670864582061768,0.36282438784837723 -3.379463255405426,0.6567037850618362 l-2.7965041995048523,1.0020925849676132 -1.1901730298995972,0.8256591856479645 l-1.0111300647258759,1.5926554799079895 -0.501495711505413,2.5160735845565796 l0.3542109951376915,1.6968932747840881 1.0213539004325867,1.1989521980285645 l1.6723297536373138,0.8570660650730133 3.758305013179779,0.5750460550189018 l4.8901426792144775,-0.6189281493425369 2.9473206400871277,-1.3841019570827484 l1.8970146775245667,-1.6967353224754333 1.134529635310173,-1.9793765246868134 l0.6499306857585907,-3.188149631023407 -0.26327433064579964,-3.2951074838638306 l-1.2713028490543365,-2.907048463821411 -2.02561154961586,-2.4472828209400177 m15.348600149154663,-1.6663245856761932 l-1.4967994391918182,4.663358628749847 -1.227615475654602,7.312646508216858 l-0.38254663348197937,3.4994184970855713 0.2795516513288021,0.9811189770698547 l0.5946611240506172,0.1430894061923027 5.3325355052948,-2.0629243552684784 l7.690378427505493,-1.080455556511879 5.598081350326538,-0.28420329093933105 l-1.4043904840946198,-10.017197132110596 -5.9328693151474,-4.454529583454132 l-7.524670958518982,-0.5008490011096001 m11.588424444198608,2.2506292164325714 l0.14475920237600803,6.473569273948669 0.3015332482755184,3.8323840498924255 l7.682067155838013,-0.5891602113842964 0.3830578550696373,-4.008232355117798 l-0.6181599199771881,-4.664057195186615 -5.280883312225342,-0.8695351332426071 l-3.9315852522850037,0.18431905657052994 m14.621806144714355,1.0889989137649536 l-0.4553740471601486,4.368709921836853 0.06579046603292227,3.8691580295562744 l5.083168148994446,-0.38696102797985077 3.4215933084487915,-0.5713440850377083 l0.21541418507695198,-3.2897040247917175 -0.6179210171103477,-3.8296276330947876 l-0.5692076683044434,-0.5193924903869629 -6.686751842498779,0.26336681097745895 l-2.013278156518936,0.4392162337899208 m-14.219399690628052,3.5995465517044067 l-1.1510223150253296,3.6098429560661316 -0.21111713722348213,2.452108711004257 l0.3328525647521019,0.9652566164731979 0.7422713935375214,0.5296944826841354 l1.857907772064209,0.25057410821318626 3.801880180835724,-0.6125545874238014 l1.3667771220207214,-0.8583123236894608 0.8856910467147827,-1.7027847468852997 l0.19874965772032738,-2.376849055290222 -0.47109946608543396,-1.372438669204712 l-0.9427808225154877,-0.932135209441185 -2.2660061717033386,-0.8483406901359558 l-2.642808258533478,0.00018180267943535 -2.7299046516418457,0.8419609069824219 l-2.2471512854099274,1.4689967036247253 m60.989324051261065,-23.426896649543778 l8.243648409843445,-0.24459218606352806 10.244561433792114,-0.46093612909317017 l10.67875862121582,-0.6006959453225136 4.088480174541473,-0.12262580916285515 l0.6637025624513626,0.4005880281329155 0.6811917573213577,2.538851499557495 l0.7865294814109802,5.415616035461426 0.9592689573764801,4.350052773952484 l6.090717315673828,-0.6060094758868217 4.272034466266632,-0.23644374683499336 l3.6915212869644165,0.11507486924529076 1.8705923855304718,0.6782817095518112 l1.8956196308135986,1.7037954926490784 1.4514799416065216,2.6662954688072205 l0.7077593356370926,3.295849859714508 0.0009570863767294213,3.1026533246040344 l-0.600539967417717,1.485108882188797 -1.0770303755998611,0.9290494024753571 l-2.5692346692085266,0.9357085824012756 -4.1289785504341125,0.41294243186712265 l-5.024307370185852,-0.44464346021413803 -5.831813216209412,-0.6194834038615227 l-16.249535083770752,-1.7446236312389374 -12.324320077896118,-1.093551591038704 l-8.395700454711914,-0.5632109567523003 -0.8848364651203156,-0.47029662877321243 l-0.9401040524244308,-2.2053229808807373 -0.46882499009370804,-4.025470018386841 l0.3396758437156677,-4.661411345005035 1.2110842019319534,-3.468693792819977 l1.2466803193092346,-1.8805499374866486 1.5319828689098358,-1.1427898705005646 l1.657043844461441,-0.49002014100551605 m4.0991973876953125,20.77409267425537 l-1.522870808839798,-0.1612694002687931 -1.9111992418766022,0.8599743247032166 l-1.4026537537574768,1.4027337729930878 -0.8984296023845673,1.6402389109134674 l-0.45221421867609024,1.840677261352539 0.07550931069999933,1.7577925324440002 l0.6694906204938889,1.4494647085666656 1.23136967420578,1.2434154748916626 l1.6614457964897156,0.870688334107399 3.2621994614601135,0.6043001264333725 l2.545231580734253,-0.2771647088229656 2.021612673997879,-0.9737903624773026 l1.4420409500598907,-1.441151201725006 0.7516015321016312,-1.7761103808879852 l0.08594885468482971,-1.9127950072288513 -1.1138422042131424,-2.5211068987846375 l-1.760813146829605,-1.6375890374183655 -2.1264688670635223,-1.0091963410377502 l-2.2807152569293976,-0.3852914646267891 m37.73443937301636,1.8585723638534546 l-1.977560669183731,0.3556181862950325 -3.4141865372657776,2.1702735126018524 l-1.5291199088096619,1.84141144156456 -1.0194594413042068,2.999047636985779 l0.1442281436175108,1.9596780836582184 1.0196460038423538,1.241421103477478 l1.6780009865760803,0.7274198532104492 5.289127826690674,-0.17645446583628654 l3.9381143450737,-2.063523381948471 1.5498168766498566,-1.9513803720474243 l0.5388740077614784,-2.93792188167572 -0.8762721717357635,-2.806461453437805 l-2.1686305105686188,-2.2434408962726593 -3.216697871685028,-1.569397747516632 m-34.97244834899902,-18.589178323745728 l-1.1177405714988708,5.311331152915955 -0.7451275736093521,5.087347626686096 m11.331071853637695,-11.210318803787231 l-0.9449502825737,5.523667335510254 -0.6046847999095917,5.966598987579346 m11.604068279266357,-12.352254390716553 l-0.9213144332170486,4.419786334037781 -0.8467509597539902,5.55974006652832 l4.1514477133750916,-0.6186011433601379 5.848519206047058,-0.5793040245771408 l-1.1385643482208252,-6.402358412742615 -3.9513415098190308,-2.3139601945877075 l-2.5368431210517883,-0.07752725388854742 -1.8971280753612518,0.36346931010484695 m-8.728010654449463,2.0677021145820618 l-4.873839914798737,0.025529246777296066 -2.2008730471134186,0.6818041950464249 l-2.0731163024902344,1.4878657460212708 -0.7561967521905899,1.2737008929252625 l-0.2436915598809719,1.9166377186775208 0.4250982776284218,1.360016018152237 l1.0221504420042038,0.9344808757305145 1.5945298969745636,0.5947193503379822 l3.1398898363113403,0.2618786506354809 3.8987985253334045,-0.6211737543344498 l3.3678430318832397,-1.5100441873073578 1.3326618075370789,-1.3721643388271332 l0.5840596929192543,-2.085748463869095 -0.39441395550966263,-2.25552499294281 l-0.9847571700811386,-1.2190335988998413 -1.4974060654640198,-0.7420533895492554 l-3.069455325603485,-0.36188799887895584 -3.6096423864364624,0.5856988951563835 m66.18988749105483,-4.07112658155711 l6.6061705350875854,-0.07991289719939232 7.248789668083191,0.0741447089239955 l10.283125638961792,-0.13454653322696686 4.026117622852325,-0.09981648996472359 l0.909336507320404,0.2729448862373829 1.3444261252880096,2.0301495492458344 l1.1356890201568604,5.133752226829529 0.9573153406381607,3.739446997642517 l6.645047068595886,-0.3960977867245674 4.499693214893341,-0.06960893515497446 l3.915627598762512,0.20905820652842522 2.910850942134857,0.9696442633867264 l2.088736891746521,1.719643771648407 1.494031846523285,2.6047146320343018 l0.3611617162823677,1.7284402251243591 -0.3566763922572136,2.201879322528839 l-0.8842017501592636,1.2126030027866364 -1.3925684988498688,0.8699111640453339 l-3.193286955356598,0.8893512189388275 -9.420195817947388,-0.0001917520239658188 l-16.376729011535645,-1.3593599200248718 -13.98202896118164,-0.9651792049407959 l-10.33993124961853,-0.8462972939014435 -5.40565550327301,-1.255551427602768 l-0.6560824811458588,-0.6812994182109833 -0.494527667760849,-3.3815738558769226 l0.7473625987768173,-5.326995849609375 1.0400967299938202,-2.6433658599853516 l1.2864555418491364,-1.7212843894958496 1.5021365880966187,-0.9816423803567886 l1.7357978224754333,-0.440182127058506 2.5441378355026245,0.1478953193873167 m5.1006364822387695,19.09878969192505 l-1.7981989681720734,0.1415876392275095 -1.8381577730178833,1.2662209570407867 l-1.2399592995643616,1.6757641732692719 -0.6194748356938362,1.777464896440506 l-0.06280794739723206,1.7081810534000397 0.5933204293251038,1.554630845785141 l1.1584393680095673,1.2133311480283737 1.6496926546096802,0.834796279668808 l3.258694112300873,0.4704634100198746 3.694787919521332,-0.7156935334205627 l2.109917551279068,-1.4779703319072723 1.0361219197511673,-1.6730853915214539 l0.2801666222512722,-1.8111538887023926 -0.7857201248407364,-2.3510533571243286 l-1.4659586548805237,-1.4695508778095245 -1.9353128969669342,-0.9724397212266922 l-2.2197790443897247,-0.42615409940481186 m35.709030628204346,1.0699979215860367 l-2.4065440893173218,1.2951980531215668 -1.7654186487197876,1.9676706194877625 l-1.912209391593933,4.957503378391266 0.1016071904450655,2.1742668747901917 l1.002344861626625,1.205073818564415 4.454460442066193,1.1740050464868546 l5.615065097808838,-7.1256619691848755 -0.25408249348402023,-4.349215030670166 l-2.253997325897217,-1.887165904045105 m-32.64416217803955,-15.22321343421936 l-1.6551175713539124,3.6164066195487976 -1.0051395744085312,5.205103158950806 l12.661272287368774,-0.10793148539960384 -0.22592149674892426,-3.485119938850403 l-7.776067852973938,-3.7815892696380615 -2.690771520137787,0.17890332266688347 m16.469240188598633,0.8331885188817978 l-0.4942953959107399,3.734278976917267 -0.08545937947928905,3.634978234767914 l7.60783851146698,-0.716356560587883 0.2578284963965416,-3.7294623255729675 l-0.9326951950788498,-3.2027488946914673 -5.881327986717224,-0.06061021704226732 l-2.2373004257678986,0.4580323398113251 m-9.45985198020935,2.0110616087913513 l-4.515922367572784,0.5515169352293015 -4.4404336810112,1.2715983390808105 l-3.3312472701072693,1.3575372099876404 0.0008331300341524184,0.8917168527841568 l3.695928156375885,3.669481575489044 2.4542681872844696,0.466635525226593 l5.653707981109619,-0.5989496409893036 2.1055106818675995,-1.0309650748968124 l1.0623111575841904,-1.2281805276870728 0.43955978006124496,-1.9995783269405365 l-0.5893518030643463,-2.2203974425792694 -1.066916137933731,-1.1466126143932343 l-1.4601345360279083,-0.6855349987745285 -2.733732759952545,-0.31050896272063255 m-2.1525339782238007,0.28332628309726715 l-4.950255453586578,0.36061279475688934 -2.6419326663017273,0.9437668323516846 l-1.4659351110458374,1.1077818274497986 -1.0259749740362167,1.97604238986969 l-0.10253198444843292,1.5759462118148804 0.5759558081626892,1.216585487127304 l1.3045193254947662,0.9030675888061523 8.686419129371643,0.5833492428064346 l5.083727836608887,-0.8252894878387451 1.8484845757484436,-1.0580454021692276 l1.111876517534256,-1.9292600452899933 m58.34341395046067,-13.115735376641169 l5.2569252252578735,0.07794646080583334 4.69935268163681,0.4282507672905922 l9.853118658065796,0.34425415098667145 3.9197051525115967,0.19071366637945175 l0.9270661324262619,0.22477131336927414 2.253921329975128,2.7073022723197937 l1.560853123664856,3.3855491876602173 1.1086847633123398,2.8661957383155823 l0.9054990857839584,0.5390112474560738 9.100314378738403,-0.2159287966787815 l4.901686906814575,0.3128806874155998 0.641087144613266,0.5885809659957886 l0.5369881168007851,1.7311318218708038 0.1435536891222,4.171345233917236 l-0.6155332550406456,2.762105166912079 -1.5769204497337341,2.012430727481842 l-1.6925115883350372,0.9223691374063492 -6.068527698516846,1.0839209705591202 l-17.804664373397827,-0.10421006940305233 -14.258177280426025,-1.1562617123126984 l-4.53770637512207,-0.786353275179863 -1.1738895624876022,-0.6125441193580627 l-1.900688260793686,-2.892698049545288 -0.6321096420288086,-2.5624144077301025 l-0.1066344603896141,-6.209772229194641 0.648144856095314,-5.313689708709717 l0.8274269849061966,-2.15809628367424 1.2110034376382828,-1.2428531050682068 m10.924715995788574,17.97356367111206 l-1.2168006598949432,0.027751727029681206 -1.7609590291976929,1.041811928153038 l-1.2561996281147003,1.5467455983161926 -0.5646923929452896,1.6684456169605255 l0.12822634540498257,2.3994456231594086 1.0227321088314056,1.490422934293747 l1.5218929946422577,1.006220281124115 3.168151080608368,0.7601083070039749 l3.9648401737213135,-0.26099005714058876 2.1469318866729736,-1.1127358675003052 l1.2193828076124191,-1.4566859602928162 0.408119298517704,-1.6671699285507202 l-0.6380397826433182,-2.3847459256649017 -1.314866840839386,-1.4307112991809845 l-1.8476137518882751,-0.9567558765411377 -3.5374659299850464,-0.6958203017711639 m30.200605392456055,1.3317382335662842 l-1.7088325321674347,0.37313710898160934 -6.3739705085754395,2.606455087661743 l-2.1553148329257965,1.5508736670017242 -0.7660353183746338,1.2775664031505585 l0.35866983234882355,2.7573689818382263 0.8182622492313385,0.695599764585495 l8.690917491912842,0.22797569632530212 5.922048091888428,-1.6790305078029633 l1.8560561537742615,-1.428176760673523 1.3019053637981415,-3.5811328887939453 l0.0006987990491325036,-2.1224553883075714 -0.8859783411026001,-1.1950559169054031 m-30.96794366836548,-12.235575914382935 l-2.221757471561432,3.9386457204818726 m14.250246286392212,-3.837669789791107 l-0.6633446365594864,3.732006251811981 m-9.200363755226135,-5.250558853149414 l-1.387706845998764,1.5060476958751678 -1.2624810636043549,3.2936790585517883 l8.541657328605652,-0.049348785541951656 0.4300044849514961,-3.0274856090545654 l-1.542317271232605,-2.814513146877289 -6.08953595161438,-0.09904496371746063 l-1.8284839391708374,0.6066039949655533 m3.7146231532096863,2.228986769914627 l-5.135220885276794,0.44579409062862396 -6.216157674789429,1.258147954940796 l-2.0407788455486298,0.645693838596344 -1.6671866178512573,1.0573695600032806 l-1.2382772564888,1.6878777742385864 -0.2654869481921196,1.3228456676006317 l0.43859291821718216,1.0729682445526123 1.2230594456195831,0.7705412060022354 l5.879258513450623,1.156122088432312 14.773224592208862,-1.2689083814620972 l5.528607368469238,-1.1008784919977188 2.1191056072711945,-0.9668243676424026 l0.8399238437414169,-1.0541173815727234 0.17992490902543068,-1.7765671014785767 l-0.6242315098643303,-1.354893445968628 -1.3060379028320312,-1.0404355823993683 l-3.4281912446022034,-1.121816262602806 -10.210195779800415,-0.3536047413945198 l-6.584681868553162,0.11833500117063522 -2.191086709499359,0.5501508712768555 m94.19300097877567,-5.4082459397614 l4.110946953296661,0.23095324635505676 3.1464096903800964,0.863422304391861 l8.156880736351013,1.1536644399166107 3.820350766181946,0.5232492461800575 l3.6449775099754333,0.2746039256453514 1.1069481074810028,0.9232854843139648 l0.9935832023620605,2.98054575920105 0.9269177168607712,3.1748920679092407 l0.9234815835952759,0.531088262796402 5.0269317626953125,0.09100954979658127 l6.4524829387664795,0.22604025900363922 4.8863279819488525,0.820489376783371 l0.5317411944270134,0.6035419180989265 0.08804152719676495,1.5102612972259521 l-1.231154426932335,3.500874936580658 -2.1823200583457947,2.440534830093384 l-2.124512493610382,1.143820658326149 -17.631756067276,0.4420701041817665 l-7.109377980232239,-0.5198608711361885 -13.72591257095337,-1.0616499930620193 l-4.219847619533539,-1.028563678264618 -4.633248150348663,-2.353743463754654 l-1.6267216205596924,-1.612965166568756 -1.4152903854846954,-4.339814782142639 l0.6102189049124718,-4.83747273683548 1.3041320443153381,-2.337968796491623 l1.5658263862133026,-1.3590262830257416 1.9116689264774323,-0.7355307787656784 l3.180241584777832,-0.27636559680104256 m12.66655445098877,15.836937427520752 l-0.628938302397728,0.16194133087992668 -1.0460245609283447,1.4609088003635406 l-0.5370323732495308,1.723974198102951 0.42882848531007767,3.318258225917816 l0.7088333368301392,0.7703385502099991 2.0731131732463837,0.7947584241628647 l3.1011316180229187,-0.09947164915502071 1.644480675458908,-0.9752320498228073 l1.2630584836006165,-2.3024125397205353 0.00048743771912995726,-2.4950124323368073 l-0.8344444632530212,-1.393158882856369 -1.3184890151023865,-0.9394081681966782 l-2.6214957237243652,-0.6329596042633057 m1.0187648236751556,-2.9113292694091797 l6.527040004730225,0.3539017587900162 m-5.735073685646057,1.105159968137741 l13.729208707809448,0.7369361817836761 m-22.168610095977783,-1.573922336101532 l-8.449569344520569,0.4905981197953224 -13.38085412979126,0.38659416139125824 l-12.009258270263672,0.07802586536854506 -3.2224515080451965,0.14995591714978218 l-2.2586607933044434,0.04202882759273052 -1.8800319731235504,-0.033599077723920345 m44.148879051208496,-0.46174775809049606 l-2.8484660387039185,0.816710814833641 -4.767782390117645,1.2050464749336243 l-12.756001949310303,1.8133559823036194 -5.5790698528289795,0.740911215543747 l-9.902008175849915,1.0532110184431076 -8.650882840156555,0.49912892282009125 l-7.586888074874878,0.008565097814425826 -2.5759047269821167,-0.4706571623682976 l-1.4238201081752777,-0.6917688995599747 -0.6987090408802032,-0.8436919003725052 l-0.5333657935261726,-4.2684197425842285 0.4072216898202896,-2.1455582976341248 l0.8727003633975983,-1.282307207584381 2.5829321146011353,-1.4985504746437073 l7.974640130996704,-0.9205784648656845 8.919630646705627,-0.3396543487906456 m12.70533561706543,7.512626647949219 l0.815170407295227,4.901277124881744 0.6166359037160873,2.4955087900161743 l0.6788719445466995,0.9256064891815186 0.8974136412143707,0.29974138364195824 l1.706564873456955,-0.2449781633913517 2.1674534678459167,-1.2358664721250534 l0.9942428022623062,-1.4401987195014954 1.0256599634885788,-4.099671542644501 l-0.6586633622646332,-2.171657383441925 -1.4483432471752167,-1.4642414450645447 l-5.184007883071899,0.2075122483074665 m77.26955977206671,-13.212864830857143 l3.0818569660186768,0.3722245618700981 2.0888981223106384,1.3004212081432343 l6.091454029083252,1.824946254491806 3.853839933872223,1.1367526650428772 l3.2860788702964783,0.8334748446941376 3.1645190715789795,0.3941795229911804 l4.161570370197296,0.11736851185560226 3.777744770050049,0.15181368216872215 l1.0503191500902176,0.9274499118328094 0.6909414380788803,4.211490750312805 l-0.03305054735392332,4.4467902183532715 -1.2595650553703308,2.223554104566574 l-1.5900908410549164,0.9847843647003174 -14.32154655456543,0.2554060146212578 l-7.0802247524261475,-0.36752600222826004 -12.144614458084106,-0.793737918138504 l-4.088616371154785,-0.8159393817186356 -2.249463200569153,-0.9737060964107513 l-2.1185363829135895,-1.9931693375110626 -0.7297882437705994,-1.8096260726451874 l0.0014986741007305682,-3.1759658455848694 0.9424892067909241,-2.446746528148651 l1.490655392408371,-1.8958571553230286 2.878003418445587,-2.0313723385334015 l2.4381202459335327,-0.8656367659568787 5.859248638153076,-0.8824874460697174 m10.424193143844604,11.599409580230713 l4.91054892539978,0.30350562185049057 6.774253845214844,0.4762996733188629 l6.7155468463897705,0.5210262909531593 5.213040709495544,0.4373100772500038 l3.22206974029541,0.6765694916248322 2.5629469752311707,0.9176728874444962 l1.379884034395218,1.0711951553821564 0.6113364174962044,1.2728570401668549 l-1.9738316535949707,0.6623188406229019 -17.42537498474121,-0.16839755699038506 l-12.468986511230469,-1.4064544439315796 -4.19823944568634,-0.8619359135627747 l-2.286035865545273,-0.9518016874790192 m12.847046852111816,-1.4872318506240845 l-1.3732802867889404,2.95757919549942 m7.6216453313827515,-2.5512564182281494 l-0.03655210370197892,3.1011751294136047 m-9.063738584518433,-3.9521369338035583 l-1.3528338074684143,2.9453137516975403 -1.8989679217338562,2.5035780668258667 l-1.8843290209770203,1.784151941537857 -4.177161455154419,2.31613352894783 l-3.4060001373291016,0.46003326773643494 -7.377605438232422,-1.0712918639183044 l-3.3566269278526306,-1.5283039212226868 -1.4082145690917969,-1.4538820087909698 l-0.9156316518783569,-2.6838433742523193 0.006786066223867238,-3.3347398042678833 m33.27136993408203,-4.577570855617523 l-1.0686856508255005,4.357660412788391 -2.096457928419113,4.926944077014923 l-1.7890703678131104,2.4965758621692657 -1.4036662876605988,0.9807406365871429 l-6.922666430473328,1.7466749250888824 -8.54482889175415,0.0775152537971735 l-3.302876651287079,-0.7896208018064499 -2.725180685520172,-1.1959587037563324 l-1.8756946921348572,-1.543637216091156 -1.4021305739879608,-2.642313241958618 l-0.5099179595708847,-3.667271137237549 1.0330160707235336,-6.186220049858093 l1.3481512665748596,-2.297329306602478 1.6690672934055328,-1.1455580592155457 m25.66382884979248,6.710753440856934 l-1.2394063174724579,0.5391264706850052 -1.7181432247161865,1.1125848442316055 l-1.0414518415927887,1.1584413051605225 -0.7218541204929352,1.4181965589523315 l-0.003144667425658554,1.0655345767736435 0.690767839550972,0.6967887282371521 l3.613871932029724,0.754682794213295 4.711290895938873,-0.34510619938373566 l0.7909321784973145,-2.770930528640747 -1.1641301214694977,-2.2701655328273773 m67.54930506630444,-3.1874921172857285 l2.214975506067276,0.5414767935872078 1.0990340262651443,1.9094665348529816 l3.411117196083069,3.498091697692871 1.6391977667808533,0.9415287524461746 l3.8926294445991516,0.7697726041078568 4.502583146095276,0.5789726227521896 l5.172259211540222,0.473364032804966 5.523151159286499,0.14337637461721897 l4.658038020133972,-0.15464112162590027 0.46194296330213547,-0.9858665615320206 l0.022025818470865488,-6.005081534385681 -0.5436599627137184,-2.6398834586143494 l-0.9466183185577393,-1.5477560460567474 -1.6708433628082275,-1.1762894690036774 l-6.403768062591553,-1.9707773625850677 -14.777841567993164,-1.6330043971538544 l-5.971813201904297,0.02553742378950119 -8.475269079208374,1.1061690747737885 l-2.8541240096092224,1.2338356673717499 -1.3877962529659271,1.263459175825119 l-0.9064526110887527,2.2440458834171295 -2.7080850486527197e-05,3.9093291759490967 l0.5063716322183609,0.9395771473646164 1.2183267623186111,0.7893473654985428 l3.558550477027893,0.892193391919136 11.92336916923523,1.047542467713356 m7.682567238807678,-5.661805272102356 l0.12799875810742378,3.9954721927642822 0.0005978991248412058,4.544307589530945 l-0.2985477074980736,2.7198949456214905 -0.1320928893983364,0.6177700310945511 m9.388732314109802,-12.74170994758606 l0.24383984506130219,6.027749180793762 -0.1776585541665554,5.1551127433776855 l-0.5489811673760414,2.659631073474884 m-10.331016778945923,-9.165675044059753 l5.552493929862976,0.019400037126615644 9.561514258384705,-0.2459016628563404 l10.01806378364563,-0.24005062878131866 m-29.721531867980957,-1.0670282691717148 l-6.523868441581726,-0.2583898976445198 -11.831544637680054,-0.46455688774585724 l-12.649364471435547,-0.7046645134687424 -4.946114718914032,-0.1805400475859642 m41.104888916015625,3.3899161219596863 l-2.0977534353733063,0.19106769934296608 -12.568379640579224,0.22461842745542526 l-13.987348079681396,0.17688129097223282 -5.691779851913452,0.1753867045044899 l-3.942185640335083,0.2396450936794281 -2.5101539492607117,0.21620426326990128 m39.32924747467041,-4.953212141990662 l-1.19534432888031,0.2866438589990139 -8.750386834144592,1.0349435359239578 l-10.966565608978271,1.0482928901910782 -4.232742488384247,0.470663420855999 l-2.6359164714813232,0.3147922456264496 -4.906416833400726,0.5514230951666832 l-2.3253722488880157,0.18617091700434685 -1.0488595068454742,-0.042905393056571484 l-0.9339020401239395,-0.11943650431931019 -0.8846970647573471,-0.10975178331136703 l-2.2300784289836884,-0.3374879062175751 -1.0470594465732574,-0.404614582657814 l-0.7591374963521957,-0.5823425576090813 -0.4796970263123512,-0.9062252938747406 l0.1264376100152731,-1.4124652743339539 m34.46675777435303,0.5620580166578293 l1.459735482931137,4.163024127483368 1.6875594854354858,3.341892957687378 l1.7526397109031677,1.964886337518692 1.5501025319099426,0.6937916576862335 l1.7019383609294891,0.1152463536709547 m63.75143116340041,-13.456538018072024 l1.445678025484085,0.6637087464332581 0.27266252785921097,2.62774795293808 l1.4785243570804596,3.4050780534744263 0.8791749179363251,0.8528362214565277 l3.0108514428138733,1.5368455648422241 4.867925047874451,1.2070658802986145 l5.300976634025574,0.753505676984787 6.326865553855896,0.22129613906145096 l5.296726226806641,-0.5145040899515152 6.086808443069458,-2.4843481183052063 l0.09844024665653706,-2.7400925755500793 -1.321614682674408,-3.1311947107315063 l-2.3321621119976044,-2.687637209892273 -2.2951771318912506,-1.5007488429546356 l-4.6666184067726135,-1.7095081508159637 -12.374511957168579,-1.0828643292188644 l-5.169379711151123,0.1202162355184555 -4.327161014080048,0.9757053852081299 l-3.634057641029358,1.6805379092693329 -1.3445667922496796,1.225990206003189 l-0.6057894974946976,1.7868851125240326 m17.92167067527771,3.010985851287842 l3.4974148869514465,0.8422960340976715 9.907159209251404,1.0626991093158722 l9.094483852386475,0.8430535346269608 6.1078643798828125,0.5102473497390747 m-32.40697145462036,-3.1578296422958374 l0.4231669008731842,0.2737000584602356 2.6668134331703186,2.568037211894989 l2.7318495512008667,2.7658438682556152 1.596338003873825,1.3062044978141785 l4.001176357269287,2.00884148478508 3.785772919654846,1.3888926804065704 m-17.965104579925537,-11.78164005279541 l-8.126832246780396,-0.3180071711540222 -12.208222150802612,-0.16837980598211288 m20.626039505004883,2.531183362007141 l-4.811333119869232,0.5588895455002785 -12.884674072265625,0.940587967634201 l-10.732227563858032,0.6565117090940475 m31.728501319885254,-3.2064327597618103 l-1.7353849112987518,0.34117303788661957 -11.750421524047852,1.2397920340299606 l-13.35902214050293,1.0183250159025192 -10.980499982833862,0.7739333063364029 l-3.7430742383003235,0.4382588341832161 m42.80505657196045,-6.509131193161011 l-0.8012300729751587,0.2049323171377182 -8.442477583885193,1.1177939921617508 l-5.3474074602127075,0.9474208950996399 -4.003729224205017,0.9075794368982315 l-2.1080732345581055,0.9098449349403381 -2.238791733980179,1.8534798920154572 l-0.8385428786277771,1.5274840593338013 0.03712240373715758,1.2615400552749634 l0.8924049139022827,1.0690197348594666 1.885652244091034,0.8548916131258011 l2.769661247730255,0.45419666916131973 5.446205735206604,-0.14557388611137867 l9.485887885093689,-2.264767289161682 3.2644861936569214,-1.556009203195572 l1.603933572769165,-1.5974782407283783 m6.243188381195068,-7.066248655319214 l1.0884393006563187,3.5894107818603516 1.1660728603601456,4.329364597797394 l0.9116230905056,3.222401440143585 0.4715105891227722,1.216599941253662 m49.7614282486029,-11.821285942569375 l0.7455480843782425,0.8015457540750504 -0.5741832032799721,3.404380679130554 l0.5085304006934166,3.5668882727622986 0.6758871674537659,0.9605379402637482 l1.292601078748703,0.9686876833438873 1.9805140793323517,0.8664169907569885 l5.736331939697266,1.2574252486228943 8.770058155059814,0.6730344146490097 l7.9581379890441895,-0.34127429127693176 7.839972972869873,-2.2127464413642883 l0.5925425887107849,-0.7167079299688339 0.09262519888579845,-1.8832829594612122 l-1.8784534931182861,-4.4247013330459595 -1.8343265354633331,-2.06285297870636 l-2.222922146320343,-1.4513728022575378 -4.485142230987549,-1.6010308265686035 l-6.015220880508423,-1.062900722026825 -13.010501861572266,0.10181563906371593 l-3.7729623913764954,0.8195283263921738 -2.416352778673172,1.025974079966545 l-0.8715959638357162,0.84280826151371 m15.082446336746216,5.724316835403442 l3.44208687543869,0.43105557560920715 9.237379431724548,0.48594236373901367 l9.212647080421448,0.32384615391492844 5.898527503013611,0.12561255134642124 m-30.106751918792725,-2.7811121940612793 l8.03005039691925,0.36922700703144073 18.625762462615967,0.8930173516273499 l8.093135952949524,0.712963342666626 m-38.815038204193115,-2.5021162629127502 l-7.134663462638855,0.3203677013516426 -11.814491748809814,0.3730842098593712 l-11.744240522384644,0.34311894327402115 m35.24592161178589,2.85038024187088 l-4.4315773248672485,0.9973950684070587 -13.758643865585327,1.89618319272995 l-12.949409484863281,1.6417022049427032 -4.211593568325043,0.7084023207426071 m36.7402458190918,-9.31159496307373 l-1.7661672830581665,0.5133559554815292 -10.576740503311157,2.0762771368026733 l-5.12974739074707,1.3367532193660736 -8.022077083587646,2.8487810492515564 l-3.4437784552574158,1.387440711259842 -1.4748391509056091,1.0246162116527557 l-0.45923005789518356,0.9408095479011536 m35.80932378768921,-14.061682224273682 l0.12447397224605083,0.16747090965509415 0.5460328608751297,1.4451494812965393 l0.7003165781497955,3.7778446078300476 0.5589304491877556,3.839055597782135 l0.1838262937963009,2.59357750415802 0.003408852790016681,1.4695756137371063 m-4.690814018249512,-12.930577993392944 l3.968600630760193,-0.5125781521201134 5.5661749839782715,-0.37565264850854874 l5.723448991775513,0.11832922697067261 5.00122606754303,0.497642382979393 l0.5064471811056137,0.42797237634658813 -0.4328165575861931,4.0788644552230835 l-1.594758778810501,3.5731717944145203 -2.072606682777405,1.8394012749195099 m59.790078212172375,-11.131009426899254 l0.10545123368501663,0.9596864879131317 -1.4346058666706085,4.054874777793884 l0.057087684981524944,3.6257827281951904 0.49587182700634,1.1266645044088364 l1.0655181854963303,1.0672595351934433 1.651659607887268,0.9394858777523041 l2.6781514286994934,0.841321125626564 9.831159114837646,0.9023919701576233 l10.77267050743103,-0.2600320242345333 9.957574009895325,-2.319115549325943 l0.6907818466424942,-0.8242020756006241 0.0008469731983495876,-2.8729426860809326 l-0.9569177776575089,-1.9568878412246704 -2.391343116760254,-2.452748566865921 l-2.534201741218567,-1.545664519071579 -4.766169488430023,-1.7616288363933563 l-6.225866675376892,-1.2559916079044342 -12.902358770370483,-0.07360282819718122 l-3.992944061756134,0.6597777456045151 -2.0147094130516052,0.9046079218387604 m11.400483846664429,5.598934888839722 l-0.9938172996044159,4.467581808567047 -0.8432772755622864,4.353693127632141 l-0.41852444410324097,1.7893236875534058 m11.101300716400146,-11.684284210205078 l0.2664879336953163,6.00868284702301 -0.054300036281347275,4.659616947174072 m-7.05355703830719,-7.804122567176819 l3.6675408482551575,-0.00049355294322595 9.593602418899536,-0.31712349504232407 m-20.152528285980225,-0.9561146795749664 l7.467811703681946,-0.13416556641459465 20.919041633605957,-0.41869882494211197 l10.537445545196533,-0.0878610648214817 m-39.9687933921814,0.47022320330142975 l-7.590204477310181,-0.3171355277299881 -13.40794563293457,-0.37554990500211716 l-14.999836683273315,-0.34101586788892746 -3.863653838634491,0.05895724054425955 m43.40622425079346,3.842912018299103 l-2.672739028930664,0.21779300644993782 -13.816797733306885,0.7749607414007187 l-14.759347438812256,0.6679361313581467 -5.4810261726379395,0.481063574552536 l-9.80305552482605,0.758943185210228 -8.755333423614502,0.7909095287322998 m44.38626289367676,-6.202121376991272 l-1.1099383980035782,0.5202258750796318 -9.399014115333557,1.8959452211856842 l-4.917755126953125,0.9892918914556503 -9.49983298778534,1.3498938083648682 l-8.294060826301575,1.043720543384552 -6.098303198814392,0.5592389032244682 l-2.0956547558307648,0.04900762811303139 -3.228062093257904,0.11755915358662605 l-1.1401770263910294,-0.23328861221671104 -0.7260613888502121,-0.5689787864685059 " fill="none" stroke="black" stroke-width="1" /></svg>