<?xml version="1.0" encoding="utf-8" ?>
<svg baseProfile="full" height="113.42889675870538" version="1.1" width="824.4523950351709" xmlns="http://www.w3.org/2000/svg" xmlns:ev="http://www.w3.org/2001/xml-events" xmlns:xlink="http://www.w3.org/1999/xlink"><defs /><rect fill="white" height="113.42889675870538" width="824.4523950351709" x="0" y="0" /><path d="M25,25 m0.0,0.0 m36.4065918853521,31.086906921118498 l0.6364933401346207,21.401522159576416 -0.0192216201685369,4.924724698066711 l0.4085979238152504,4.570901989936829 0.6372138857841492,1.055518239736557 l2.277507483959198,0.38932275027036667 1.2191549688577652,-0.32777827233076096 l1.3923045992851257,-1.0422438383102417 1.3212326169013977,-1.7026673257350922 l1.5534071624279022,-3.523699641227722 0.8088506758213043,-3.3357274532318115 l0.4931839182972908,-5.01111626625061 0.00035685570765053853,-5.776380896568298 l-0.6299348920583725,-3.5007405281066895 -2.160516232252121,-5.583043098449707 l-1.7191727459430695,-2.3850661516189575 -1.7686498165130615,-1.2888318300247192 l-1.891459971666336,-0.5774538964033127 -2.163310796022415,0.6271587312221527 l-1.20497427880764,1.0428088903427124 m7.575478553771973,3.350784480571747 l2.7019986510276794,-1.3931696116924286 5.700745582580566,-0.9355106949806213 l5.717341303825378,0.31591109931468964 3.701331317424774,1.421465426683426 l1.5490899980068207,1.1159177869558334 0.6953385472297668,1.0477643460035324 l0.10377922095358372,1.907326579093933 -1.42926424741745,2.4525433778762817 l-4.761948883533478,3.632199466228485 -4.80886846780777,2.0235975086688995 l-7.602110505104065,1.3597667217254639 -2.7367037534713745,0.4649566486477852 m-8.111270666122437,-12.797127962112427 l-7.238926887512207,-0.8005639910697937 -3.6777201294898987,0.5833262205123901 l-3.1938889622688293,1.6290384531021118 -1.3054941594600677,1.3734714686870575 l-0.5463329330086708,1.3866391777992249 0.15353159978985786,1.4321842789649963 l0.973348543047905,1.366279423236847 3.0502012372016907,1.963014155626297 l4.8525166511535645,1.6218206286430359 8.782787322998047,1.2477526813745499 l3.1527507305145264,0.4364488273859024 m76.14190599415451,-23.5466378210549 l-0.10790642350912094,12.399104833602905 -0.601959191262722,4.662349224090576 l-0.640638917684555,6.379464268684387 1.5790383517742157,5.191936492919922 l0.7922554761171341,0.6525658071041107 2.174847573041916,-0.0002530292113078758 l1.202513724565506,-0.48335030674934387 1.3222861289978027,-1.0631481558084488 l1.2117857486009598,-1.65501207113266 1.4988820254802704,-3.5471343994140625 l1.0914595425128937,-5.037358403205872 0.4303673282265663,-5.800160765647888 l-0.4107636958360672,-5.151944160461426 -1.417548954486847,-4.11566436290741 l-1.5102076530456543,-2.270914316177368 -1.8189668655395508,-1.3737599551677704 l-2.027740925550461,-0.6798839569091797 -2.5782251358032227,-0.000675419214530848 l-1.420370638370514,0.6645117700099945 -1.710953414440155,1.8553663790225983 m9.383074641227722,2.35941544175148 l3.276289701461792,-1.291816383600235 5.893470644950867,-0.7075747102499008 l5.578826665878296,0.626298189163208 3.64489883184433,1.762363612651825 l1.494932472705841,1.2992331385612488 1.0191567987203598,2.1571406722068787 l0.09491556324064732,1.5819267928600311 -1.1216557770967484,2.1262887120246887 l-4.359017908573151,3.251311480998993 -4.657073020935059,1.8092195689678192 l-5.250778794288635,0.9470563381910324 -4.084717035293579,-2.9767065825581085e-05 m-11.592475175857544,-13.932913541793823 l-1.9056595861911774,-0.5508477240800858 -7.202622890472412,0.1207155454903841 l-2.73932546377182,1.282345950603485 -1.4434835314750671,1.3702385127544403 l-0.6929516792297363,1.4383141696453094 -0.1280320342630148,2.4550727009773254 l0.8455134183168411,1.7860525846481323 1.6939309239387512,1.5575399994850159 l3.7961533665657043,1.7477883398532867 5.997149348258972,1.1550786346197128 l4.28368479013443,0.45502159744501114 m81.40553368000838,-18.500670900680234 l-0.7018163055181503,6.213593482971191 -1.1463725566864014,3.7572166323661804 l-1.780690848827362,5.932084918022156 0.8028058707714081,7.225178480148315 l0.7020575553178787,0.8908498287200928 1.7549601197242737,0.9764585644006729 l2.6000848412513733,-0.00017584892702871002 1.2034117430448532,-0.42972635477781296 l1.368597149848938,-1.0064559429883957 1.9801817834377289,-2.5814583897590637 l1.3012051582336426,-2.858753204345703 1.0831699520349503,-4.8516276478767395 l0.29923561960458755,-7.657366991043091 -0.8977702260017395,-4.757761359214783 l-1.1186591535806656,-2.3810626566410065 -1.500353217124939,-1.5093852579593658 l-1.849089115858078,-0.7968614250421524 -2.805069386959076,-0.0007863428618293256 l-2.261952906847,1.435801088809967 -1.1950674653053284,1.5209214389324188 l-0.662430003285408,1.6766372323036194 m8.798663020133972,0.5059538781642914 l6.6681623458862305,-1.130714938044548 5.681548714637756,-0.12130521237850189 l4.103119373321533,1.252974420785904 1.7001348733901978,1.061464250087738 l1.6052789986133575,2.0188170671463013 0.7165414839982986,2.5723910331726074 l0.00016266269085463136,2.3365676403045654 -0.6602709740400314,1.4778484404087067 l-3.360510468482971,2.8778311610221863 -4.108299016952515,1.7866167426109314 l-7.914922833442688,1.334400624036789 -3.606633245944977,0.23204565048217773 l-0.9780372679233551,-0.3484147787094116 m-10.314115285873413,-15.97565770149231 l-1.9330768287181854,-0.7701100409030914 -3.3589395880699158,-0.32587435096502304 l-5.5706048011779785,1.3616253435611725 -2.068694978952408,1.3819143176078796 l-1.0799527913331985,1.5020455420017242 0.0005330170461093076,2.451234310865402 l1.0797235369682312,1.7101791501045227 2.9716679453849792,2.253715842962265 l4.522310197353363,1.7203746736049652 5.131810903549194,0.7715316861867905 m81.78108654818061,-15.758070096289885 l-1.274561583995819,2.975229322910309 -1.600087285041809,2.5785046815872192 l-3.1815406680107117,5.468090176582336 0.09952071122825146,6.432830095291138 l0.6165361404418945,1.1809240281581879 1.784316897392273,1.8017661571502686 l2.62417733669281,1.410292387008667 2.0039893686771393,0.357932448387146 l2.4033962190151215,-5.0360768000246026e-05 1.737130880355835,-0.7596921920776367 l2.9876255989074707,-3.4848937392234802 1.3300351798534393,-3.155888617038727 l0.8981786668300629,-4.964787065982819 0.0006113791459938511,-5.0825196504592896 l-1.0551021248102188,-4.15964663028717 -1.2439262866973877,-2.203911244869232 l-1.5479418635368347,-1.3545607030391693 -1.8800358474254608,-0.6870818138122559 l-3.3020147681236267,-0.0007563129474874586 -2.2859197854995728,1.5182583034038544 l-1.1679273843765259,1.6476540267467499 -0.8816009014844894,2.997373044490814 m4.122704267501831,3.53608101606369 l1.6841478645801544,0.13922463171184063 4.403557479381561,0.11059239506721497 l5.3487348556518555,0.3815332427620888 4.248838424682617,1.0097234696149826 l3.536849617958069,1.8322642147541046 1.5421588718891144,1.3871166110038757 l1.3417473435401917,2.4293850362300873 0.43503623455762863,2.8792667388916016 l-0.7669270038604736,2.741248607635498 -2.1831661462783813,2.4257299304008484 l-3.5047662258148193,1.8685521185398102 -4.649099707603455,1.029614582657814 l-5.085391998291016,0.09202436544001102 -3.3562669157981873,-0.7689344882965088 l-3.11707466840744,-1.7717301845550537 -1.446661800146103,-1.5748575329780579 m1.6872511804103851,-15.485748052597046 l-4.498408734798431,-1.6846765577793121 -2.5645866990089417,-0.5112946406006813 l-2.1925650537014008,0.07617088034749031 -1.9343768060207367,1.0460887104272842 l-0.8628717064857483,1.3434284925460815 -0.14805416576564312,1.569482535123825 l0.8146987110376358,1.616719514131546 2.947605550289154,2.423001080751419 m94.31157283950597,-14.175690537249466 l-1.8422093987464905,1.238481029868126 -2.010919749736786,1.511513590812683 l-5.090430974960327,4.928007423877716 -0.536535307765007,1.189345121383667 l0.8853321522474289,6.8414610624313354 0.8000965416431427,1.5317840874195099 l2.6873156428337097,2.787282168865204 1.2913896143436432,0.8149859309196472 l3.2120275497436523,0.7980397343635559 2.5976741313934326,-0.00024482707885908894 l1.8980862200260162,-0.8328263461589813 1.5649501979351044,-1.5452498197555542 l2.453516274690628,-5.664599537849426 0.7731959968805313,-5.583452582359314 l-0.23337986320257187,-5.011381506919861 -0.8346937596797943,-2.5508123636245728 l-1.8535515666007996,-2.481936663389206 -1.8246421217918396,-1.1224409192800522 l-2.918998897075653,0.10908733122050762 -2.281825691461563,1.3298089802265167 l-1.2797071039676666,1.403273195028305 m-1.6510871052742004,6.058598756790161 l-3.3298012614250183,0.3899344429373741 -3.183363676071167,1.5605613589286804 l-1.9247832894325256,1.7492344975471497 -1.8646006286144257,3.2598060369491577 l-0.8021388202905655,3.869403600692749 0.19796503707766533,2.6813673973083496 l0.9607779234647751,2.278594821691513 1.6276930272579193,1.9158980250358582 l3.309856951236725,2.125450223684311 4.498808681964874,1.4036208391189575 l7.616938948631287,0.4663919657468796 3.747166395187378,-0.953628271818161 l2.3145245015621185,-1.4223526418209076 2.342435270547867,-2.808825671672821 l1.0055146366357803,-2.470617890357971 0.3164050355553627,-3.640955686569214 l-0.8962424844503403,-3.7220636010169983 -2.1145370602607727,-3.064151108264923 l-3.0835124850273132,-2.2354675829410553 -3.679833710193634,-0.7864475250244141 l-2.988751530647278,0.035807518288493156 m-2.9679074883461,1.802971214056015 l0.05547503009438515,0.35940688103437424 -0.002620783925522119,2.2066155076026917 l0.34278444945812225,1.7242304980754852 m77.17276868381305,-11.943884568354406 l-2.495208978652954,-0.08808499202132225 -2.1025732159614563,0.5720429122447968 l-6.189765930175781,3.4229734539985657 -1.45464688539505,1.6950617730617523 l-0.4381183162331581,3.5851097106933594 1.0509424656629562,3.549625873565674 l2.231922596693039,3.4242281317710876 2.559097707271576,2.462911456823349 l1.112644299864769,0.6271055340766907 3.217531442642212,0.6506027281284332 l3.0987149477005005,-0.00035509739973349497 1.7744943499565125,-0.7846108824014664 l1.1921768635511398,-1.4097099006175995 1.7733465135097504,-5.644298195838928 l0.5596936866641045,-5.8026206493377686 -0.734873041510582,-7.031580805778503 l-1.5581269562244415,-2.029571384191513 -2.7176374197006226,-1.3744422793388367 l-2.301650792360306,-0.2539419196546078 -1.013837605714798,0.4520433396100998 l-1.461341679096222,1.873377114534378 -0.8481866121292114,2.0700059831142426 l-0.5692347139120102,3.8306045532226562 0.012912946986034513,5.573140382766724 l0.2804815396666527,5.479231476783752 0.6982143223285675,4.360922276973724 l0.7764210551977158,3.1005075573921204 1.236627772450447,1.8333007395267487 l1.4633223414421082,0.8705379813909531 4.524127840995789,-2.500909431546461e-05 l5.246965289115906,-0.9940177947282791 3.7580138444900513,-1.0158511996269226 l0.40853194892406464,-0.7468134164810181 -2.0129284262657166,-6.550722718238831 l-3.9593881368637085,-7.1405041217803955 -1.8258443474769592,-2.59115993976593 l-1.8678565323352814,-1.559271216392517 -1.7229217290878296,-0.8107089996337891 l-1.289917379617691,-0.519268661737442 -1.1027542501688004,-0.3006794676184654 m6.193441152572632,1.5859566628932953 l0.3642936795949936,-0.673389658331871 5.7072097063064575,-1.9004429876804352 l3.6808747053146362,-0.5885399878025055 2.381003648042679,0.41751597076654434 l1.5413005650043488,1.3627266883850098 0.5834882333874702,2.0235224068164825 l-7.813467979431152,2.6728031039237976 m68.2567061618829,-8.12007948313294 l-3.1175240874290466,-1.3241244852542877 -2.3112769424915314,-0.08734461851418018 l-7.171415686607361,1.864624172449112 -2.4375753104686737,2.055532783269882 l-0.9431904554367065,1.897110939025879 -8.663173503009602e-05,3.7081336975097656 l1.5074717998504639,3.677791655063629 2.416178733110428,3.4766986966133118 l2.6325419545173645,2.425290048122406 2.5241661071777344,1.3590244948863983 l2.760457992553711,0.5858735367655754 2.460804581642151,-0.0003444975664024241 l2.0923268795013428,-1.1517783254384995 1.0284622013568878,-1.5563362836837769 l1.075635850429535,-9.3995201587677 -0.6834051012992859,-3.945491313934326 l-0.9554173797369003,-2.813269793987274 -0.806863009929657,-1.7041538655757904 l-1.0969416052103043,-1.5562230348587036 -2.599404454231262,-2.3009802401065826 l-1.3721174001693726,-0.28528613969683647 0.24331826716661453,9.263401627540588 l0.8179937303066254,7.280094623565674 0.7094468176364899,5.89284360408783 l1.006857231259346,3.802085816860199 1.075930967926979,1.970374584197998 l1.5947321057319641,0.9228944778442383 3.55708509683609,-0.08728560991585255 l1.6114598512649536,-1.110343411564827 0.9644652903079987,-1.7321071028709412 l0.3864702954888344,-9.98234748840332 -2.642827033996582,-7.458189129829407 l-3.0383342504501343,-3.6658650636672974 -1.5639722347259521,-0.799066349864006 l-0.760532021522522,-0.0003690844459924847 m6.059059500694275,3.581308424472809 l3.769006133079529,-1.2147369235754013 4.812589883804321,-0.8422556519508362 l3.731122314929962,0.09937125258147717 2.446254789829254,1.0074645280838013 l1.0074949264526367,0.9345421195030212 0.6182169914245605,1.6893050074577332 l-0.4230976849794388,2.030009627342224 -1.044786348938942,1.1773154139518738 l-4.1101789474487305,1.9889883697032928 -4.669043719768524,0.9536251425743103 l-3.4647196531295776,0.320853516459465 -2.1411849558353424,0.12849860824644566 m73.45584399916333,-15.065566437533562 l-3.8814744353294373,-2.704285681247711 -2.492646723985672,-0.5744178220629692 l-8.258667588233948,0.8274967968463898 -2.6890164613723755,1.6110672056674957 l-1.50829017162323,1.7456842958927155 -1.1290451139211655,2.9359132051467896 l0.00034658540243981406,3.635348677635193 1.9378305971622467,3.4685224294662476 l2.259005606174469,2.2112534940242767 5.475751161575317,3.1162720918655396 l2.5401589274406433,0.8864538371562958 2.1238240599632263,-0.0002158849747502245 l-1.8487223982810974,1.59173384308815 -2.0205995440483093,2.3198753595352173 l-1.2910494208335876,2.539944648742676 -0.275347251445055,2.529977262020111 l1.8140661716461182,1.339763104915619 4.4381383061409,-0.38285501301288605 l2.3844893276691437,-1.5402333438396454 3.8702815771102905,-5.274848937988281 l1.36866495013237,-3.4345510601997375 1.1931382864713669,-6.739844083786011 l-0.0003095171268796548,-5.688421130180359 0.1659456267952919,-3.2491901516914368 l0.4091623052954674,-1.2188289314508438 2.637234628200531,-1.1266399919986725 l2.028236985206604,0.25398893281817436 2.1647217869758606,1.8568247556686401 l0.8101963996887207,13.414747714996338 -0.6928399950265884,4.503384232521057 l-1.3757991790771484,2.889983057975769 -1.1926188319921494,1.0666990280151367 l-1.3320674002170563,0.43461620807647705 -2.3050618171691895,-0.21630913019180298 l-0.7913470268249512,-0.6239596754312515 -0.657794401049614,-1.8167999386787415 l0.07610408589243889,-2.0216599106788635 m5.839794874191284,-16.13794207572937 l3.878050148487091,-1.6950829327106476 4.7873347997665405,-0.6023106351494789 l3.211417496204376,0.0004939544305671006 1.7770770192146301,0.62583789229393 l1.7214931547641754,1.5892541408538818 0.6660710275173187,1.301974356174469 l-0.03202543128281832,2.001662403345108 -1.5163865685462952,2.173939347267151 l-2.8722411394119263,1.926419585943222 -6.1571139097213745,2.043444812297821 l-2.6795953512191772,0.7320232689380646 m73.66105163031534,-13.168565986834437 l-4.722482264041901,-4.5681703090667725 -2.4545614421367645,-0.9687570482492447 l-6.672649383544922,-0.14631823636591434 -4.23931211233139,1.3978339731693268 l-2.70829975605011,2.088543325662613 -1.2089813500642776,1.9347774982452393 l-0.6787789613008499,3.0670639872550964 0.3381996601819992,2.4201110005378723 l2.1217764914035797,3.550283908843994 5.782046914100647,5.002485513687134 l3.3831337094306946,1.8475863337516785 1.8037314713001251,0.8476094156503677 l2.0275376737117767,0.6330598890781403 1.9653460383415222,0.09270044974982738 l-2.004513144493103,1.462731808423996 -2.597816586494446,2.219446897506714 l-1.733269840478897,2.513732612133026 -0.6645510345697403,2.601240575313568 l1.3981755077838898,1.4459228515625 3.1338435411453247,-0.0069120415719226 l2.088346630334854,-1.1296680569648743 3.979206383228302,-4.7528064250946045 l3.884258270263672,-8.547309637069702 0.7811855524778366,-5.6140148639678955 l0.00019313549273647368,-4.448425769805908 0.140639403834939,-2.6059305667877197 l0.6178966909646988,-0.9397801756858826 0.9569106251001358,-0.20063307136297226 l4.117163717746735,4.404406547546387 1.3714276254177094,12.42866039276123 l-0.05952914245426655,4.526656270027161 -0.9234494715929031,2.504817843437195 l-1.0418222099542618,0.9626495093107224 -1.977957934141159,0.45940790325403214 l-1.7327222228050232,-0.5156043171882629 -0.7109096646308899,-0.7559652626514435 l-0.7335429638624191,-2.180928885936737 -0.29695434495806694,-2.939673960208893 l0.18807446584105492,-3.08399498462677 0.4778590425848961,-2.643948793411255 l0.5948321148753166,-2.2513633966445923 0.8609575778245926,-1.3864512741565704 l1.8569162487983704,-1.2304288148880005 3.0562853813171387,-0.21817687898874283 l2.622580826282501,0.7564842700958252 2.014271169900894,1.6359400749206543 l-3.1492993235588074,4.124838411808014 -5.378246903419495,1.7029619216918945 m-6.349368095397949,-8.64514172077179 l-2.6115986704826355,-1.2460052967071533 m83.59642446501084,-5.020247500906407 l-5.779975056648254,-7.424801588058472 -2.5069567561149597,-1.354522556066513 l-6.635052561759949,-0.6174273788928986 -4.654881954193115,0.999651625752449 l-3.434835970401764,1.9742684066295624 -1.7160259187221527,1.8396390974521637 l-0.907711386680603,2.0730428397655487 -0.30521340668201447,3.1792542338371277 l0.8065633475780487,2.407687157392502 4.35382753610611,5.023478269577026 l5.011850595474243,3.385096490383148 3.505789041519165,1.7171446979045868 l1.745430827140808,0.9209414571523666 -1.9406373798847198,3.2969722151756287 l-1.260216385126114,2.5390300154685974 -0.43609295040369034,2.4758295714855194 l1.3513144850730896,1.7560464143753052 1.844036728143692,0.66940076649189 l3.57329785823822,0.00030055100069148466 1.8977299332618713,-0.8967338502407074 l3.0686932802200317,-3.7251263856887817 1.1251328140497208,-2.8861969709396362 l-5.488054284796817e-05,-6.5182191133499146 m-0.8308466523885727,-14.912266731262207 l0.22580819204449654,-1.82381272315979 1.1302267014980316,-1.8374082446098328 l1.7569862306118011,-1.4261621236801147 2.111855298280716,-0.789300948381424 l3.1103497743606567,-0.03205297980457544 3.1201955676078796,1.366073340177536 l2.7829697728157043,2.719767987728119 1.7874115705490112,3.847011923789978 l0.6231188774108887,4.238312542438507 -2.426298124191817e-05,4.131700098514557 l-1.0794392973184586,3.4100401401519775 -1.9346706569194794,2.44204118847847 l-2.589077651500702,1.6364941000938416 -3.0396482348442078,0.6713791936635971 l-1.767207384109497,-0.0005692329432349652 -0.579029768705368,-0.4423942416906357 l-0.3742624446749687,-2.051064819097519 0.2847079187631607,-0.004757141578011215 l2.2571323812007904,2.9790672659873962 0.45757316052913666,2.98048734664917 l-0.7627875357866287,1.4933842420578003 -2.050849348306656,0.9826181828975677 l-3.200770914554596,-0.00046788602048764005 -1.4766812324523926,-1.4283917844295502 m-2.4409012496471405,-25.944819450378418 l1.1835464835166931,-1.4797551929950714 " fill="none" stroke="black" stroke-width="1" /></svg>