<?xml version="1.0" encoding="utf-8" ?>
<svg baseProfile="full" height="85.77966019511223" version="1.1" width="816.9320762585994" xmlns="http://www.w3.org/2000/svg" xmlns:ev="http://www.w3.org/2001/xml-events" xmlns:xlink="http://www.w3.org/1999/xlink"><defs /><rect fill="white" height="85.77966019511223" width="816.9320762585994" x="0" y="0" /><path d="M25,25 m0.0,0.0 m30.441180753987283,18.536847047507763 l0.07699303328990936,0.0801145751029253 -0.19567595794796944,0.33069226890802383 l-0.41066721081733704,3.103640377521515 -0.031564857345074415,1.654341220855713 l1.5916010737419128,-1.7112165689468384 1.1044792830944061,-2.9738423228263855 l1.0326097160577774,-0.6443013995885849 1.5878495573997498,1.4812766015529633 l0.9129881858825684,2.517833709716797 0.8524845540523529,0.45293498784303665 l4.373848736286163,-1.433098167181015 5.301395058631897,-1.67121022939682 l0.9552792459726334,0.31177207827568054 2.072363942861557,3.662571907043457 l0.6515973806381226,3.1018561124801636 -0.4416802152991295,2.5737807154655457 l-0.9564559161663055,1.4043599367141724 -2.475879043340683,1.6351142525672913 l-4.140275716781616,1.212199330329895 -5.170251131057739,0.3934766352176666 l-8.4453946352005,-1.2864033877849579 -3.2380470633506775,-1.3171328604221344 l-1.7000280320644379,-1.453922688961029 -1.3623741269111633,-2.779814600944519 l-0.4045293852686882,-3.6337879300117493 0.6090283021330833,-2.103932946920395 l1.1659254878759384,-1.2680868804454803 1.5452569723129272,-0.6865682452917099 m14.178955554962158,6.008096933364868 l2.5296229124069214,-0.8810441195964813 8.384265899658203,-3.5284507274627686 l6.814269423484802,-3.237145245075226 3.001118004322052,-1.7098642885684967 l-3.7429246306419373,5.756364464759827 -2.3023203015327454,3.5486847162246704 l-2.5317054986953735,2.7394336462020874 -2.9544562101364136,1.8802914023399353 m-16.733429431915283,-4.167003929615021 l-4.482603371143341,-1.8618413805961609 -4.471557140350342,-2.512388229370117 l-2.4892912805080414,-1.7683471739292145 -0.5583056434988976,-0.12857538647949696 m13.552111387252808,5.9105002880096436 l-1.5570220351219177,-2.607133686542511 -0.9858857095241547,-1.7300577461719513 l-1.7117516696453094,-3.2510143518447876 m8.72596800327301,8.407286405563354 l2.9306119680404663,-3.5266703367233276 2.274486720561981,-1.6585741937160492 l2.603256404399872,-1.149318367242813 m-4.5133766531944275,6.105012893676758 l0.7746396213769913,-0.3833814710378647 2.1879471838474274,-0.9770406037569046 l2.0262376964092255,-0.8093179017305374 m68.05222673952812,-6.0893373331055045 l-0.1775655336678028,-0.1755916140973568 -0.3722686320543289,-0.12136822566390038 l-0.9278374165296555,0.1836293563246727 0.1865173690021038,4.0778157114982605 l1.7327260971069336,-1.3254207372665405 1.5006515383720398,-4.420727491378784 l0.9797702729701996,0.1233819779008627 1.1018174141645432,2.975868284702301 l0.9747462719678879,1.5800169110298157 1.7439526319503784,-0.3427378460764885 l5.706261396408081,-2.0029298961162567 4.030968546867371,-1.6786190867424011 l0.9766393899917603,0.3176870569586754 1.381179392337799,2.3936831951141357 l0.6967827677726746,3.7043824791908264 -0.3751712664961815,3.5966917872428894 l-0.9650638699531555,1.8928366899490356 -2.344750016927719,2.1658433973789215 l-3.8178086280822754,1.7915841937065125 -4.875082969665527,0.9571380168199539 l-8.946569561958313,-0.7730865478515625 -2.791162431240082,-1.6470430791378021 l-1.4537736773490906,-1.779094934463501 -1.4643608033657074,-4.747030735015869 l0.0007052472210489213,-3.325493633747101 1.3370591402053833,-2.668139636516571 l1.567363291978836,-1.1311240494251251 2.713637053966522,-0.6448331475257874 m9.422537684440613,10.302764177322388 l3.2975730299949646,-2.3880189657211304 4.155376553535461,-2.2971315681934357 l3.3395302295684814,-1.5455564856529236 4.265299439430237,-1.7786119878292084 l1.5614809095859528,-0.43509460985660553 m-14.973318576812744,8.619274497032166 l3.683527410030365,-1.5789246559143066 4.292838871479034,-1.4018622040748596 l3.7809738516807556,-0.9097232669591904 1.4228786528110504,-0.21130317822098732 m-21.517555713653564,3.224427103996277 l-5.810587406158447,-1.4228878915309906 -3.296310007572174,-1.0278545320034027 l-2.6717838644981384,-0.7603190094232559 -2.194407880306244,-0.4663662984967232 m11.596786975860596,3.8875821232795715 l-2.533355951309204,-0.08965498767793179 -2.5272145867347717,0.039191110990941525 l-4.264598190784454,0.664144977927208 m11.687692403793335,-6.4794862270355225 l-2.022290825843811,-0.37884727120399475 -1.828794777393341,-0.20287789404392242 l-1.6565434634685516,0.09759553708136082 m7.1981775760650635,0.7448866963386536 l3.032568395137787,-2.188858389854431 m75.20944849406078,0.2758238557726145 l-0.4397232085466385,-0.4585656523704529 -0.5338146910071373,-0.5130821838974953 l-0.7573433220386505,-0.6782396882772446 0.0009720418165670708,2.131178230047226 l2.3084373772144318,1.5265284478664398 1.7171688377857208,-4.324973523616791 l1.6387318074703217,-1.7463752627372742 1.7172233760356903,1.4894607663154602 l1.6022850573062897,1.908147931098938 1.281346082687378,1.128227710723877 l4.0827518701553345,-1.3256806135177612 4.23543781042099,-2.4334900081157684 l1.2568257749080658,4.349064528942108 0.4083521291613579,4.267134666442871 l-0.46476759016513824,3.17823588848114 -0.9100363403558731,1.7146693170070648 l-2.386586368083954,2.2847720980644226 -3.6206093430519104,1.8063852190971375 l-2.6397237181663513,0.5664267390966415 -3.9358872175216675,-0.03703479189425707 l-7.0490962266922,-2.9693827033042908 -2.027777135372162,-2.481992095708847 l-0.6960040330886841,-2.1125085651874542 0.09468910284340382,-3.154214322566986 l1.453368067741394,-3.179711103439331 1.431012898683548,-1.3091528415679932 m8.844553828239441,8.56390118598938 l1.5964490175247192,-0.47963719815015793 3.6688855290412903,-1.1972419917583466 l3.7070047855377197,-1.172611191868782 4.565233290195465,-1.4378990232944489 l2.1744664013385773,-1.0764744132757187 m-14.747731685638428,6.294264197349548 l3.945697844028473,-0.6984605640172958 4.093449711799622,-0.6358738988637924 l3.734659254550934,-0.6770145893096924 1.2071087956428528,-0.3650912269949913 m-18.71558427810669,0.9537015110254288 l-4.837244749069214,-1.5983538329601288 -3.0336949229240417,-0.9935115277767181 l-2.808164358139038,-0.6253127008676529 -2.3397691547870636,-0.1520335953682661 l-2.170701026916504,0.4381975159049034 m13.744969367980957,2.8914031386375427 l-5.1985859870910645,0.20044634118676186 -2.370269149541855,0.3950390964746475 l-2.354888767004013,1.0212116688489914 m12.541491985321045,-6.786820888519287 l-1.2333209067583084,-1.689508706331253 -0.5865185707807541,-1.4941684901714325 m5.325325131416321,2.8344061970710754 l0.5641689896583557,-2.7727150917053223 1.3306605815887451,-2.011992484331131 m68.47978439735016,4.81542345834896 l-0.690034031867981,-0.726512223482132 -0.7367804646492004,-0.8621053397655487 l-0.7859185338020325,-1.3825127482414246 0.05614710971713066,-0.038305066991597414 l2.2789843380451202,1.4266020059585571 2.1348239481449127,-0.45302022248506546 l1.419488936662674,-3.512832522392273 2.502475082874298,-2.142181396484375 l2.8955185413360596,3.19534569978714 1.7391514778137207,2.3273104429244995 l1.267596185207367,1.7862333357334137 1.3501472771167755,2.8119930624961853 l0.3253830596804619,3.3128517866134644 -0.9103433042764664,3.312847316265106 l-1.1999356746673584,1.6803140938282013 -2.7771928906440735,1.8265631794929504 l-4.134346842765808,1.0604757815599442 -7.861203551292419,-0.8844193816184998 l-1.3185542821884155,-0.7550901174545288 -1.7242485284805298,-2.0522283017635345 l-1.695050597190857,-5.455844402313232 0.001009356346912682,-3.628997802734375 l0.8602113276720047,-1.7483051121234894 2.147091180086136,-1.6978475451469421 m9.136555194854736,9.149126410484314 l2.468107044696808,-0.6452323496341705 3.74836802482605,-1.121300607919693 l5.012350678443909,-1.438663899898529 2.851537764072418,-0.7834494858980179 l2.3780643939971924,-0.6990371644496918 1.8102093040943146,-0.5470378696918488 m-20.628633499145508,6.321406960487366 l-0.21879173815250397,-0.33535346388816833 -0.19447045400738716,-0.5319324508309364 l-0.9695076197385788,-1.810721904039383 -1.4806212484836578,-1.294221580028534 l-1.581507921218872,-0.8077376335859299 -2.096635550260544,-0.4027455672621727 l-1.2722104787826538,0.26648951694369316 m8.694323897361755,4.289048612117767 l-2.2269973158836365,-0.28860338032245636 -3.9135047793388367,-0.49752291291952133 l-1.838017851114273,-0.11896084062755108 m8.657655119895935,2.5114071369171143 l-1.1244814097881317,0.43598219752311707 -4.872237145900726,2.957075834274292 m9.17747676372528,-9.969050288200378 l3.15758615732193,-2.77694433927536 2.4466003477573395,-1.2404541671276093 m-4.388968050479889,5.741490721702576 l3.094724416732788,-1.5775907039642334 2.368399500846863,-0.6601911783218384 m-4.541596472263336,2.9420074820518494 l2.946867346763611,-0.8688471466302872 m70.24152716077879,-4.075576467439532 l-0.976855456829071,-1.005031019449234 -0.9004426002502441,-1.294335424900055 l-0.5912207812070847,-1.4200256764888763 -0.8279141038656235,-4.900912046432495 l2.94730007648468,3.2864010334014893 1.9586087763309479,1.8284744024276733 l1.381487101316452,0.20111529156565666 4.92357075214386,-2.7843964099884033 l2.38315150141716,-0.7271428406238556 2.1778279542922974,0.014748871326446533 l2.6015377044677734,1.3874630630016327 0.3583510220050812,4.984358549118042 l-0.689191073179245,3.1631478667259216 -1.5997591614723206,3.2618549466133118 l-1.4640095829963684,1.6141679883003235 -4.233155846595764,2.4200014770030975 l-2.558719515800476,0.5426106601953506 -3.28063040971756,-0.20768431946635246 l-3.309902846813202,-1.3842648267745972 -2.6553481817245483,-2.3718930780887604 l-1.6068543493747711,-3.2239022850990295 0.0005230713213677518,-2.6362797617912292 m12.084845304489136,4.36027467250824 l0.6643937528133392,4.69180703163147 0.7651509344577789,2.9099243879318237 l0.8480583876371384,1.1233323812484741 2.650330066680908,1.1152633279561996 l4.995571672916412,-2.5109311938285828 0.05435938015580177,-3.7097159028053284 l-1.0493417084217072,-3.3373746275901794 -1.5811577439308167,-1.1010516434907913 m-8.307092189788818,-2.5556275248527527 l0.2536158822476864,-3.0443227291107178 0.7154220342636108,-2.4320295453071594 l0.9700857847929001,-0.04943951964378357 2.9268717765808105,1.6845838725566864 l1.156274676322937,2.4016351997852325 -0.046934070996940136,1.136801615357399 m-4.787948131561279,-1.9395634531974792 l-3.212086856365204,-1.9189007580280304 -2.5281423330307007,-1.6058538854122162 l-1.472022831439972,-0.2769760228693485 -0.31143710017204285,1.333480328321457 m10.318248271942139,4.206039905548096 l1.0947644710540771,-2.7608025074005127 m0.8309001475572586,3.0106988549232483 l1.8537257611751556,-1.7840981483459473 1.6603590548038483,-1.3950105011463165 m-7.534945011138916,2.7154719829559326 l1.3397172093391418,-1.02432481944561 m-2.8863942623138428,0.5257934704422951 l0.31049707904458046,-0.4492577537894249 m71.69141730593765,2.226721663028002 l-1.248142495751381,-1.274135261774063 -1.059497892856598,-1.7094653844833374 l-0.7195065170526505,-2.4286282062530518 -0.1309463568031788,-3.7745481729507446 l1.5151207149028778,-1.1590398102998734 7.039257287979126,0.8956636488437653 l1.557246446609497,2.452619820833206 0.8227435499429703,1.5660977363586426 l0.6473618745803833,0.48459842801094055 4.137523770332336,-2.4408364295959473 l4.46367621421814,-2.215932309627533 0.7186555862426758,0.33229753375053406 l-0.0770972715690732,8.233301043510437 -0.604935847222805,4.137681424617767 l-1.4030131697654724,3.8698574900627136 -1.330135017633438,1.7920280992984772 l-2.6685938239097595,1.7572061717510223 -3.846590518951416,1.0275673866271973 l-6.690197587013245,-1.2455659359693527 -1.2235282361507416,-1.0198691487312317 l-2.0118100941181183,-3.8940316438674927 -0.6314299255609512,-4.262750446796417 m8.47512423992157,2.377381920814514 l-0.5049974471330643,2.6520273089408875 -0.24136830121278763,2.032090574502945 l0.2558951824903488,1.0147323459386826 1.7837728559970856,1.163148507475853 l6.756759285926819,-1.3030694425106049 0.40043793618679047,-3.234080970287323 l-0.9384261816740036,-2.4750767648220062 m-7.8358471393585205,-2.835194170475006 l-1.0234390199184418,-0.7419474422931671 -1.156333088874817,-0.9759124368429184 l-1.9699563086032867,-2.3466652631759644 -0.6899520009756088,-1.2725339829921722 l-0.5641837045550346,-2.0771053433418274 1.824759691953659,-0.147292148321867 l1.8375074863433838,0.7812907546758652 2.434050738811493,3.1127914786338806 l1.1921342462301254,1.7775407433509827 m3.638118803501129,0.9243061393499374 l2.776350975036621,-3.2313886284828186 0.6950633972883224,0.4032604768872261 l-0.05660741124302149,2.5738441944122314 m-6.630019545555115,1.8540966510772705 l-0.0004754360270453617,-0.0016865624638739973 m2.378113269805908,-0.07957557216286659 l-0.0012276270717848092,-0.0025117816403508186 m-2.788200080394745,1.5810400247573853 l-0.0017058494267985225,-0.0019248599710408598 m-0.3899979591369629,0.5395812168717384 l0.5400551483035088,-1.138295903801918 m73.61837251177349,1.4102903348975815 l-1.5181171894073486,-1.556151956319809 -1.2442830950021744,-2.1215051412582397 l-0.5924778431653976,-2.110399156808853 -0.02360799117013812,-4.201042354106903 l1.6418027877807617,-2.4537867307662964 2.7932780981063843,-1.6210684180259705 l4.889631867408752,-0.2953150123357773 2.0605331659317017,0.9133078902959824 l2.981811761856079,3.642074167728424 0.8285414427518845,2.2079339623451233 l0.40421362966299057,3.2354089617729187 -0.5124828219413757,3.6887764930725098 l-0.9062124788761139,1.773202121257782 -3.19936066865921,2.952183485031128 l-1.9947916269302368,0.834265723824501 -3.1603699922561646,-0.0007966626435518265 l-4.687424302101135,-2.532213032245636 -1.208435669541359,-2.29427769780159 m6.173992156982422,-4.867088496685028 l-0.03590617561712861,7.56069540977478 -0.1807340793311596,5.126286149024963 l5.471142530441284,0.1944555900990963 4.9968260526657104,0.0062515935860574245 l2.375752180814743,-0.14447013847529888 -3.491521179676056,-6.625162363052368 l-1.4341594278812408,-2.278207242488861 -3.168412744998932,-2.2421808540821075 m-4.779130816459656,-2.993386387825012 l-0.9437902271747589,-0.8269738405942917 -0.9735690057277679,-1.1548124253749847 l-0.7332324236631393,-1.4489643275737762 -0.040745483711361885,-1.1153849959373474 l0.8912499994039536,-1.2389694154262543 1.3975787162780762,-0.569857619702816 l1.4231248199939728,0.15290667302906513 1.5667729079723358,1.2612539529800415 l0.6429243832826614,2.4609412252902985 m2.778168022632599,0.04214777145534754 l1.9781845808029175,-1.6281263530254364 1.6364993155002594,-0.7335005700588226 l2.2664661705493927,0.1324094645678997 0.34559033811092377,2.5822311639785767 l-1.2147720903158188,1.541636437177658 m-8.223295211791992,0.8117492496967316 l-0.002235345891676843,-0.0004587389048538171 m2.1445533633232117,0.17695888876914978 l-0.0019824833725579083,-0.0023667412460781634 m0.9335270524024963,0.7780078053474426 l-0.0028427434153854847,-0.002157957205781713 m-3.142038583755493,-1.2608584761619568 l-1.0396764427423477,-2.1126078069210052 m2.0967453718185425,2.408217340707779 l1.8797510862350464,-1.7185765504837036 m72.36465102032525,8.579365216537553 l-1.8112637102603912,-1.843465268611908 -1.3920482993125916,-2.601615786552429 l-0.5934871733188629,-2.489069551229477 0.07432227488607168,-4.687219262123108 l0.641724020242691,-1.2866850197315216 3.150216042995453,-2.166283130645752 l6.140853762626648,-0.43557990342378616 1.2362418323755264,0.5442469194531441 l1.8507391214370728,1.7494076490402222 1.6926708817481995,3.1484270095825195 l0.8540342003107071,3.7890323996543884 -0.1901623047888279,4.192929267883301 l-0.8228064328432083,1.8910546600818634 -2.006046324968338,2.134992331266403 l-3.118458092212677,1.6079138219356537 -3.7379691004753113,0.625554695725441 l-4.126839637756348,-1.3705968856811523 -0.514608696103096,-0.892069861292839 m5.091709494590759,-7.508590221405029 l-0.013468993129208684,7.48959481716156 -0.13656744733452797,4.477280378341675 l6.257452368736267,0.2976829931139946 4.4621968269348145,0.16627881675958633 l-3.357236087322235,-6.656995415687561 -2.177593559026718,-4.152173399925232 m-6.166357398033142,-3.3960291743278503 l-0.48971112817525864,-0.48590607941150665 -0.9198547899723053,-0.6854866445064545 l-0.8845116198062897,-0.39284683763980865 -0.9577840566635132,-0.11780901812016964 l-1.0308048874139786,0.37623774260282516 -1.0059240460395813,1.1912473291158676 l-0.3095305897295475,1.2244132161140442 0.3781510517001152,0.9594324231147766 l0.9395263344049454,0.5406000465154648 1.7787161469459534,-0.02926668617874384 m9.640109539031982,-3.2969802618026733 l2.157682776451111,-2.0590434968471527 1.8308146297931671,-0.6747207045555115 l1.199704185128212,0.2627234160900116 1.0009108483791351,1.3958966732025146 l-0.7228466123342514,2.2889211773872375 -1.1749226599931717,0.9706549346446991 m-7.779243588447571,0.7285600900650024 l-0.002576795523054898,-0.0015936826821416616 m1.511649340391159,-0.07871114648878574 l-0.0020531864720396698,-0.0020755133300554007 m0.7532922178506851,0.42138800024986267 l-0.0027731983573175967,-0.0018632803403306752 m0.4986896365880966,1.0003553330898285 l-0.0031738501274958253,-0.001854315196396783 m-2.644917666912079,-1.261853277683258 l-0.002627704234328121,-0.002008310257224366 m74.9297286336514,7.229786015232094 l-2.065887749195099,-2.124454379081726 -1.5449920296669006,-3.028276562690735 l-0.6058359518647194,-2.5659242272377014 0.12222477234899998,-5.06086528301239 l0.6948920339345932,-1.5566278994083405 3.204624354839325,-2.914777398109436 l2.812543511390686,-0.9440622478723526 4.235399961471558,-0.0007952767191454768 l3.3508697152137756,1.6602693498134613 2.407645434141159,2.8604015707969666 l1.2995575368404388,3.5865551233291626 0.0014340617053676397,3.8352739810943604 l-0.6510036438703537,2.0113830268383026 -1.7163652181625366,2.5213399529457092 l-2.728727161884308,2.2030462324619293 -3.441471755504608,1.3537859916687012 l-4.902138411998749,0.2919464744627476 m1.0239551216363907,-10.883057117462158 l-0.3024398349225521,6.391347646713257 -0.4719405621290207,5.3452640771865845 l6.43558144569397,1.1913973838090897 5.08291482925415,0.45670662075281143 l1.8245625495910645,0.07479091640561819 m-11.133875846862793,-12.615746259689331 l-0.8269504457712173,-0.4473743587732315 -0.9170195460319519,-0.5051633343100548 l-0.6416516005992889,-0.1745838299393654 -0.43952319771051407,0.28716400265693665 l-0.09697706438601017,0.9904240816831589 0.8893468230962753,0.7718964666128159 l1.0262048989534378,-0.00013740742360823788 0.4387110099196434,-1.2142527103424072 l-0.4481993243098259,-0.5300924926996231 -0.7249600440263748,0.2273004874587059 m1.6633374989032745,-3.908095955848694 l-0.06120593752712011,-2.546806037425995 0.4520997405052185,-0.6590820848941803 l1.1356844007968903,-0.27173951268196106 0.47711946070194244,1.479121595621109 l-0.37612512707710266,1.671397089958191 m-0.6635811179876328,1.2459942698478699 l1.9890521466732025,-1.71478733420372 m-2.721043825149536,1.718810647726059 l0.9572978317737579,-0.387939028441906 m-0.39903685450553894,1.9832149147987366 l0.599815733730793,-0.4999944195151329 m-1.522456556558609,-0.013372782850638032 l-1.129634529352188,-1.2129858881235123 m1.2514068186283112,1.6558466851711273 l-1.3553763926029205,-1.3229535520076752 m1.7159010469913483,2.0761241018772125 l2.443672865629196,-1.2204388529062271 m74.33952832405339,12.510362955599703 l-2.367490381002426,-2.4000492691993713 -1.7122405767440796,-3.5378509759902954 l-0.5840588733553886,-2.780918776988983 0.2666275016963482,-5.217618346214294 l1.1408394575119019,-2.7398744225502014 1.6894988715648651,-1.9596242904663086 l3.3622777462005615,-1.6340824961662292 4.4504114985466,-0.33463045954704285 l2.543567419052124,0.8220908790826797 2.6810774207115173,2.3690104484558105 l1.799437254667282,3.440714180469513 0.6638257950544357,4.088037312030792 l0.0015703141980338842,3.9564910531044006 -0.751568004488945,1.9908922910690308 l-2.0578868687152863,2.443709820508957 -3.149968683719635,1.9247134029865265 l-6.304931044578552,1.0847510397434235 -2.098192870616913,-0.3808562830090523 m3.563791513442993,-9.188889861106873 l-0.36355625838041306,6.394672393798828 -0.4521854594349861,4.068097472190857 m1.7320065200328827,-9.381253123283386 l0.671209990978241,-0.14208869077265263 3.2944169640541077,1.3083243370056152 l1.452948898077011,1.418205052614212 0.7167244702577591,1.8866632878780365 l-0.21456051617860794,1.8936683237552643 -1.399463713169098,1.54270738363266 l-1.2843254208564758,0.5856017023324966 -2.0135311782360077,0.14755026437342167 l-1.669297069311142,-0.9170796722173691 -0.8598970621824265,-1.2425953894853592 m-0.6815346330404282,-11.509922742843628 l0.12109126895666122,-0.7604950666427612 0.5867912992835045,-0.9159751981496811 l1.2243308126926422,-0.8790694177150726 1.1735894531011581,-0.06712475325912237 l0.7935722917318344,0.7257676869630814 0.342351496219635,1.5703096985816956 l-0.7158456742763519,1.515326052904129 -1.5248239040374756,0.9785211831331253 l-0.9927207231521606,-0.00016027030142140575 m0.4111649841070175,-4.864356517791748 l-0.001631488703424111,-0.0012467939814087003 m2.3259808123111725,0.2967267483472824 l-0.0017381909128744155,-0.0011367539991624653 m-1.4509283006191254,0.9891438484191895 l-0.0023127054737415165,-0.0013723822485189885 m0.2762208506464958,-0.5350455641746521 l-0.0030008089379407465,-0.001598926173755899 m1.1710162460803986,0.25491738691926 l-0.0033841095864772797,-0.0022806985361967236 m1.4664489030838013,0.41111525148153305 l-0.0027470782515592873,-0.0020861695520579815 " fill="none" stroke="black" stroke-width="1" /></svg>