<?xml version="1.0" encoding="utf-8" ?>
<svg baseProfile="full" height="87.31039447709918" version="1.1" width="833.6054284996135" xmlns="http://www.w3.org/2000/svg" xmlns:ev="http://www.w3.org/2001/xml-events" xmlns:xlink="http://www.w3.org/1999/xlink"><defs /><rect fill="white" height="87.31039447709918" width="833.6054284996135" x="0" y="0" /><path d="M25,25 m0.0,0.0 m32.39145806623128,18.736473402477145 l-0.22216441109776497,-3.4277254343032837 2.7295491099357605,1.5408667922019958 l0.9372113645076752,0.6836125999689102 3.769662082195282,-0.061510964296758175 l2.582342028617859,0.35331573337316513 2.760215103626251,-1.4784769713878632 l1.071024015545845,-0.3221886605024338 0.6721325218677521,1.6640181839466095 l1.1066441237926483,3.889951705932617 -0.5566126853227615,2.8600430488586426 l-3.4946686029434204,2.587675452232361 -2.8278258442878723,0.8097376674413681 l-3.2382741570472717,8.607277095507015e-06 -2.418191134929657,-1.1286650598049164 l-0.9890274703502655,-0.9058356285095215 -0.9487614780664444,-2.0814602077007294 l-0.0006212593143573031,-3.0857646465301514 0.4205239564180374,-2.05578550696373 l0.4762319475412369,-0.6676148623228073 m3.6744779348373413,3.9146775007247925 l-0.2370857074856758,0.4963590204715729 0.022925606463104486,-0.14993028715252876 l-0.14495235867798328,-0.523119643330574 -0.059670438058674335,0.09815226309001446 m4.612606465816498,0.08788680657744408 l-0.10111570358276367,0.32411959022283554 0.1669163629412651,-0.14068377204239368 l-0.33949457108974457,-0.2490096166729927 m-2.424638122320175,2.616431713104248 l-0.10874548926949501,0.8997969329357147 0.07343605626374483,-0.2217402681708336 l0.026361786294728518,-0.6270910799503326 -0.2776903100311756,0.1553918980062008 m-1.1702675372362137,-0.12249862775206566 l0.1527416706085205,0.24053387343883514 0.1470328215509653,0.2444755844771862 l0.05589341279119253,-0.00016442289052065462 -0.4500235989689827,-0.20491346716880798 l-0.264357291162014,-0.12550669722259045 m1.2380078434944153,0.0013520843640435487 l0.5594805255532265,0.44521577656269073 0.40083490312099457,0.016636884538456798 l0.11012355796992779,-0.4324037954211235 m-0.5948739498853683,-0.21369926631450653 l2.2027426958084106,-0.6215056777000427 1.3706208765506744,-0.49176257103681564 l1.1338778585195541,-0.15610159374773502 m-4.094107449054718,2.0090845227241516 l3.434356153011322,0.21124543622136116 1.8533454835414886,0.4094519466161728 m-8.48047137260437,-1.441245973110199 l1.2924595177173615,1.1600691825151443 1.1471519619226456,0.887194350361824 l1.363857239484787,0.674210712313652 m-4.883897006511688,-3.5480856895446777 l-2.1705394983291626,-0.29708975926041603 -1.700570434331894,-0.2786150760948658 m80.40487488131475,-4.184895853354007 l0.16094522550702095,-2.910616397857666 2.7566441893577576,1.2248426675796509 l1.1686568707227707,0.8142029494047165 4.1073077917099,-0.0351455039344728 l2.7187886834144592,0.1910029537975788 2.993627190589905,-1.2944234907627106 l1.0010061413049698,0.11147229000926018 1.4530295133590698,3.2601332664489746 l0.10415125638246536,2.608051300048828 -2.4329914152622223,3.300372064113617 l-1.696791648864746,0.885300487279892 -6.100809574127197,0.316559262573719 l-2.7707520127296448,-0.7527296245098114 -2.068723142147064,-1.4407247304916382 l-1.1170420795679092,-1.9671630859375 -0.2296181209385395,-2.963815927505493 l0.5386720970273018,-1.7955434322357178 0.8910944312810898,-0.8172119408845901 m4.106288254261017,4.1024249792099 l0.2467586286365986,-0.05662973504513502 0.2095526084303856,-0.007432718412019312 l-0.04983061924576759,-0.08406718261539936 -0.31039271503686905,-0.11673826724290848 m4.587030708789825,0.1933756098151207 l0.07712554186582565,0.05894052796065807 0.06993068382143974,-0.07057241164147854 l-0.2137545496225357,0.03494505072012544 m-3.5801175236701965,2.0339414477348328 l0.027484337333589792,1.7531095445156097 0.11810462921857834,0.14804204925894737 l0.25721047073602676,-0.6027409806847572 0.19576281309127808,-0.6186176836490631 m0.5837831273674965,0.18134493380784988 l0.30970780178904533,0.9651303291320801 0.21256878972053528,0.3237554058432579 l0.18257809802889824,1.2863414156072395e-06 0.1161678321659565,-0.7016444206237793 l-0.07561228238046169,-0.4854114353656769 m-1.5627087652683258,-1.4504845440387726 l0.14674020931124687,0.10112572461366653 0.12522715143859386,0.3290528804063797 l-0.10791095905005932,0.10988688096404076 -0.33721257001161575,-0.1616828888654709 m1.5071910619735718,-0.045790839940309525 l2.353847175836563,-0.8596809208393097 1.4789637923240662,-0.855599045753479 l1.2661361694335938,-0.49163229763507843 m-4.494042098522186,2.7935686707496643 l3.9449086785316467,0.24878500029444695 2.1845848858356476,0.2992323972284794 l1.7589235305786133,0.41146639734506607 m-7.628718614578247,0.07537518162280321 l3.1776514649391174,1.4450116455554962 1.5322762727737427,1.2760943174362183 l0.569036491215229,0.5331392213702202 m-11.155538558959961,-5.555649399757385 l-2.7113565802574158,-0.7813113182783127 -1.4107847213745117,-0.10335193946957588 m80.46037935419008,-2.3007035653915153 l0.5559877678751945,-2.43428573012352 2.444830685853958,0.7208286225795746 l1.6728848218917847,1.0387924313545227 4.628288745880127,0.028528119437396526 l2.7772849798202515,0.021891766227781773 3.3782392740249634,-1.2377085536718369 l0.8220361918210983,0.6781615316867828 1.174827441573143,4.576886296272278 l-0.12838957831263542,2.425229251384735 -4.043860137462616,2.067074775695801 l-3.565698266029358,0.5293773859739304 -6.183212399482727,-0.29946599155664444 l-2.4244795739650726,-0.952395424246788 -1.3508932292461395,-1.6466371715068817 l-0.44709227979183197,-2.1868564188480377 0.5463188514113426,-2.8671875596046448 l0.6658440083265305,-0.5746686458587646 1.3838256895542145,-0.25639502331614494 m3.5473963618278503,3.2181167602539062 l-0.12284242548048496,0.18256628885865211 0.019967705011367798,1.002989336848259 l0.12431063689291477,0.09917546063661575 0.21323613822460175,-1.061732918024063 m5.456522107124329,-0.20362189039587975 l0.04712861496955156,0.8528560400009155 0.283433273434639,-0.02016386017203331 l-0.0695908535271883,-0.7865206152200699 m-5.561633110046387,1.720169484615326 l-0.0220890948548913,1.8453603982925415 0.29966140165925026,-0.03106075106188655 l0.40380317717790604,-1.062871590256691 0.023204863537102938,-0.17825335264205933 m-0.974181517958641,-1.0625772178173065 l0.3288896009325981,1.4916518330574036 0.2019931562244892,0.29561933130025864 l0.2284032292664051,1.980435854420648e-05 0.026130529586225748,-0.5074400454759598 l-0.5262210220098495,-0.5953468382358551 m0.2425323985517025,-1.3625995814800262 l0.24643952026963234,1.2594926357269287 0.4609186202287674,0.38794972002506256 l0.5116956681013107,-5.275375769997481e-05 0.3105786442756653,-1.0546750575304031 l-0.36015722900629044,-0.42091168463230133 m-1.0523271560668945,-0.25405295193195343 l2.6167547702789307,-1.1081691086292267 2.150541841983795,-1.1223676055669785 l3.0529868602752686,-1.4246766269207 1.4517274498939514,-0.3198981285095215 l1.3462729752063751,0.14731604605913162 1.3737760484218597,0.7654916495084763 m-10.090008974075317,2.402985244989395 l3.956173360347748,0.35977236926555634 2.5542867183685303,0.4896758869290352 l0.8886653929948807,0.46623270958662033 m-6.770002841949463,-1.079792007803917 l2.5754815340042114,1.2527665495872498 1.3295724987983704,1.0847882181406021 l0.8758646994829178,1.0486946254968643 m66.85305346501991,-5.919538832597482 l0.9733947366476059,-1.9757454097270966 2.802039682865143,0.7860054820775986 l1.7488548159599304,0.21653134375810623 5.830472111701965,0.4091811180114746 l2.9163986444473267,0.23258302360773087 2.988811731338501,-1.1284299939870834 l0.5718158558011055,0.919148251414299 0.2334166131913662,4.3430837988853455 l-1.4757217466831207,3.701815903186798 -1.9703978300094604,0.5120694264769554 l-8.819354772567749,-0.07095664273947477 -3.1929922103881836,-0.4743349924683571 l-2.0563018321990967,-0.8543318510055542 -1.0022494941949844,-1.3915644586086273 l0.00017375503375660628,-3.1813007593154907 0.7958086580038071,-2.7469447255134583 l0.5738188326358795,-0.37583835422992706 m3.799353241920471,3.190390467643738 l-0.4639233648777008,0.6358513981103897 -0.0848112627863884,2.0233823359012604 l0.41065603494644165,1.1860039085149765 3.1821876764297485,-0.18307209014892578 l0.362018346786499,-2.639852464199066 -0.8857747167348862,-1.5704162418842316 m5.064682364463806,0.7137039303779602 l-0.04239686764776707,2.603292465209961 0.6870106607675552,1.0580745339393616 l1.5262149274349213,0.00019523244191077538 0.6361154466867447,-2.8955119848251343 l-0.7293041795492172,-1.3638228178024292 m-9.636484980583191,0.3204014524817467 l0.1439114660024643,1.914822906255722 m-0.06157821509987116,0.4410073906183243 l0.1771564595401287,0.06278499960899353 0.543866865336895,-0.39760470390319824 l0.2642662636935711,-0.2681864798069 -0.0941110122948885,0.047099823132157326 l-0.46498920768499374,0.42720116674900055 -0.18127590417861938,0.23793328553438187 l3.833060873148497e-05,0.11362675577402115 0.1966089941561222,-0.3601207584142685 m6.55403196811676,-1.1990820616483688 l-0.259026363492012,1.02336086332798 0.3840610384941101,0.18393505364656448 l0.3785954415798187,-0.8510646969079971 -0.4798760265111923,-0.19206641241908073 l-0.4289160296320915,0.4666079580783844 m-6.384771466255188,-0.17771610990166664 l0.8339965343475342,-0.42760301381349564 0.5507335066795349,-0.3839331492781639 l0.797513872385025,-0.6057544052600861 1.3447034358978271,-0.9229451417922974 l1.5104036033153534,-0.6558886170387268 m-4.777746200561523,3.735147714614868 l4.07230406999588,-0.16293615102767944 3.577994704246521,-0.3387821465730667 l3.4437838196754456,-0.2378174476325512 m-10.124859809875488,-0.3462415188550949 l3.4846562147140503,0.27365198358893394 2.937055230140686,0.2932414039969444 l2.6934444904327393,0.19298439845442772 m64.45498761467206,-3.5197507466909883 l1.4067493379116058,-1.6111156344413757 2.557094395160675,0.5197974666953087 l2.677434980869293,0.4923253133893013 4.666890799999237,0.43176740407943726 l4.797293543815613,-0.5639277026057243 2.825102210044861,-0.46465877443552017 l0.3163774684071541,1.40455961227417 -0.06961002480238676,4.646627604961395 l-3.7215656042099,2.1971333026885986 -4.402454495429993,0.33002641052007675 l-7.784223556518555,-0.28322597965598106 -2.320471405982971,-0.5778519809246063 l-1.1794313788414001,-0.9895704686641693 -0.19701844081282616,-1.6251128911972046 l0.763632282614708,-3.3537235856056213 0.9859973192214966,-1.6310009360313416 m4.7747111320495605,2.3005853593349457 l-0.38967620581388474,1.3444386422634125 -0.06267262157052755,2.8536462783813477 l0.5828475579619408,1.5232324600219727 7.79430091381073,-0.27256496250629425 l0.14707937836647034,-3.470025956630707 -0.8735808730125427,-2.9971858859062195 l-5.34085750579834,0.22879449650645256 -2.568943202495575,0.5887465551495552 m-0.7341055572032928,1.7973840236663818 l0.5434926599264145,2.325902581214905 m1.186281368136406,-3.036144971847534 l0.3294278308749199,1.7178690433502197 0.5291546508669853,1.182379275560379 l0.4849311336874962,0.27733052149415016 0.705682560801506,-0.41388921439647675 l0.35023462027311325,-1.8513396382331848 -0.47342199832201004,-0.7813596725463867 m3.5625049471855164,-0.36144357174634933 l0.010454098228365183,2.453753799200058 0.49278195947408676,0.5131701752543449 l1.440415382385254,0.0002481928822817281 0.5373609811067581,-2.0084647834300995 l-0.5941253527998924,-1.2151864171028137 -1.3170047104358673,-0.16694964841008186 m-9.370131492614746,2.6407840847969055 l0.17897218465805054,2.8121939301490784 0.4824596643447876,0.44910699129104614 l1.3266758620738983,-0.05428607575595379 0.9854288399219513,-0.7227080315351486 l0.44500213116407394,-1.0814594477415085 -0.10348026640713215,-1.0795032978057861 l-0.6294593214988708,-0.6530874222517014 m5.8449554443359375,0.29130881652235985 l0.19600056111812592,1.963517814874649 0.9213468432426453,1.2298370897769928 l1.2811313569545746,0.39918556809425354 1.074405461549759,-0.2945380285382271 l0.734424814581871,-0.836949422955513 0.40003929287195206,-1.6643041372299194 l-0.3054865822196007,-1.0988245904445648 m-11.785532236099243,-2.5434765219688416 l1.097572222352028,-0.38880035281181335 3.2039612531661987,-0.3045392222702503 l3.651389181613922,-0.20083600655198097 3.4208548069000244,-0.18081938847899437 m-11.153513193130493,1.5905539691448212 l4.77701336145401,-0.18075069412589073 3.4860068559646606,0.031179452780634165 m67.76794164441526,-1.8388152541956515 l1.8355043232440948,-1.239631325006485 2.6621708273887634,0.46678993850946426 l3.336348831653595,0.41922416538000107 5.2772921323776245,0.40114574134349823 l3.8765186071395874,0.06950290873646736 3.3958807587623596,-0.7368537038564682 l0.07844891399145126,0.2267007902264595 -1.9359894096851349,2.863854765892029 l-1.6682954132556915,2.5266116857528687 -10.092941522598267,0.5549213290214539 l-6.245853900909424,-0.33547814935445786 -1.5809637308120728,-0.7745962589979172 l-0.45776281505823135,-1.0913152247667313 6.356821359077003e-05,-2.436129152774811 l1.1193068325519562,-1.7465342581272125 3.011593520641327,-0.7520370185375214 m3.2384052872657776,1.9614386558532715 l-0.14101392589509487,2.8341951966285706 -0.19352547824382782,4.200925827026367 l0.036930718924850225,2.0056483149528503 8.863828182220459,-0.2847019210457802 l0.24165386334061623,-4.3256983160972595 -0.606178417801857,-5.338493585586548 l-4.220603704452515,-0.11773609556257725 -4.299330115318298,0.43222401291131973 m-0.8810856938362122,1.7700858414173126 l0.4443950206041336,1.676177978515625 0.5343977734446526,1.9677045941352844 l0.5277065560221672,0.9090200066566467 m2.465440481901169,-4.6963682770729065 l0.4136309400200844,2.7926623821258545 0.5715327337384224,1.7111453413963318 m2.4189139902591705,-4.873787462711334 l0.1724722422659397,2.001829296350479 0.5348150804638863,1.6742639243602753 l0.6626764684915543,0.49036093056201935 1.1089535057544708,-0.1619291864335537 l0.6714499741792679,-0.8074424415826797 0.515078641474247,-2.573789954185486 l-0.45178018510341644,-0.9890419989824295 -1.3945838809013367,-0.7177995145320892 m-13.266083002090454,1.0472925007343292 l0.6185737624764442,0.7726097851991653 1.0439980030059814,1.6522444784641266 l1.073734611272812,0.7849491387605667 1.593186855316162,0.24462681263685226 l1.8303333222866058,-0.6483951956033707 0.9580538421869278,-1.0118041932582855 l0.5085260048508644,-1.7886361479759216 -0.21824659779667854,-1.2066739052534103 l-0.71086086332798,-0.653718039393425 -1.6501778364181519,-0.23977022618055344 l-1.197546124458313,0.5550974979996681 -0.45867472887039185,0.8641645312309265 m-0.5992652475833893,-1.2303104251623154 l4.2301055788993835,-0.7703923434019089 3.347131907939911,-0.35374827682971954 l3.013758659362793,-0.08916248567402363 2.6316669583320618,0.08855277672410011 l2.3540417850017548,-0.0037847430212423205 m-14.391541481018066,0.8461197465658188 l4.890023469924927,-0.1206132024526596 2.855673134326935,0.04831469617784023 l2.637161612510681,0.05306993145495653 2.216598689556122,-0.023836558684706688 m64.35924173014428,5.171129491063766 l2.319522947072983,-0.9137435257434845 2.691422700881958,0.3810862824320793 l4.1516149044036865,0.3165408968925476 5.332368612289429,0.4694432392716408 l4.216746687889099,0.06830299273133278 2.893229126930237,-0.23259859532117844 l-0.20607389509677887,-0.21404821425676346 -3.9936810731887817,-1.0135949403047562 l-10.234391689300537,-0.2605569548904896 -6.667855978012085,0.17990732565522194 l-1.2227344512939453,0.2390804886817932 -0.33494941890239716,0.2092340961098671 l0.00021908444978180341,0.9133026003837585 0.31118033453822136,2.780240476131439 l0.38433749228715897,2.958190441131592 m11.589890718460083,-7.361942529678345 l0.7461816072463989,4.040168821811676 0.4604395851492882,4.810560941696167 l-0.08390545845031738,2.2640228271484375 -0.46355675905942917,0.4385817423462868 l-8.887688517570496,-0.5342774465680122 -5.751558542251587,-1.0367562621831894 l-1.1066652089357376,-0.6817349046468735 -0.8682698011398315,-2.805679440498352 m8.444004654884338,-6.782878041267395 l0.4930214211344719,-0.615454688668251 1.9882100820541382,-2.880086898803711 l3.388577103614807,-4.7406768798828125 0.9379927814006805,1.9878759980201721 l0.7629267126321793,4.437376260757446 0.4156613349914551,2.747598886489868 m-10.150842666625977,-3.460471034049988 l0.5342838913202286,-0.1301936898380518 m-1.8290111422538757,-0.17571397125720978 l0.44484708458185196,0.15569164417684078 2.3245394229888916,0.26871833950281143 l2.5581780076026917,0.20972125232219696 2.613559067249298,-0.07237752433866262 l2.6713818311691284,-0.19495749846100807 2.199186533689499,-0.16747219488024712 l1.765032410621643,-0.22973600775003433 m-14.895976781845093,4.35354620218277 l0.5368692800402641,0.32899633049964905 1.319953203201294,0.24425985291600227 l1.3545925915241241,-0.06076059304177761 1.2289965152740479,0.27037346735596657 l1.286655217409134,-0.0002604770634206943 1.4972838759422302,0.2757428400218487 l1.6617915034294128,-0.0003008228668477386 1.5618394315242767,0.2907962165772915 l1.7458392679691315,-0.35122811794281006 1.4316964149475098,0.3201927989721298 l1.5420272946357727,-0.3643672540783882 1.302502602338791,0.01399187371134758 l1.2148413062095642,-0.7280849665403366 1.0383746027946472,-0.16011202707886696 m-17.831878662109375,-1.6244681179523468 l0.2923496626317501,0.07656828965991735 2.8384172916412354,0.7094541937112808 l2.9117807745933533,0.38290511816740036 3.2147809863090515,0.0165902660228312 l2.966581881046295,-0.3560706600546837 2.330169528722763,-0.3992963582277298 l1.829485148191452,-0.303056538105011 m-14.277360439300537,-3.2416197657585144 l0.2403223142027855,-1.2757420539855957 0.7443840056657791,-0.7475534081459045 l0.8328726887702942,0.7458094507455826 m71.65471969165992,5.8745039824498235 l2.8433120250701904,-0.551084391772747 2.596551775932312,0.40190357714891434 l4.703141748905182,0.3342818468809128 5.538232326507568,0.354921817779541 l4.605463743209839,-0.07299718912690878 2.592717707157135,-0.42487818747758865 l-0.3733411803841591,-1.0741624981164932 -10.31992793083191,-1.4019796252250671 l-9.97572660446167,-0.6161154434084892 -2.281002402305603,0.2522979862987995 l-1.0002963244915009,0.5564266443252563 -0.5636300519108772,1.1342383176088333 l-0.020278911106288433,2.3042044043540955 0.46171896159648895,2.648301422595978 m9.303398132324219,-5.460696220397949 l0.7688520848751068,2.7250686287879944 0.5000769719481468,4.80372816324234 l0.3011210821568966,3.456745147705078 8.235929608345032,-1.4552797377109528 l5.179585814476013,-0.6290071457624435 -1.3938456773757935,-8.558814525604248 l-3.8322144746780396,-1.9097402691841125 -6.907947063446045,-0.046948823146522045 l-4.916222095489502,0.8493363857269287 m0.666128545999527,1.2316346913576126 l0.3524518758058548,-0.7557374238967896 1.9125135242938995,-3.64603191614151 l9.520875811576843,-2.1210724115371704 5.379790663719177,-0.2296251617372036 l0.12722344137728214,3.1413698196411133 -0.24161593988537788,3.7721404433250427 m-17.390131950378418,-2.267211824655533 l0.3463837504386902,-0.22884543985128403 1.6476526856422424,-0.9355942904949188 l4.243689179420471,-0.2537582069635391 4.505852162837982,0.13123619370162487 l3.549337387084961,0.4497523233294487 m-14.965565204620361,1.4030441641807556 l0.6095043569803238,0.009895837865769863 3.149319291114807,0.49027513712644577 l2.8011563420295715,0.3426947072148323 2.5589606165885925,0.16480246558785439 l2.6477766036987305,-0.01908713369630277 1.6138233244419098,-0.03981452900916338 l1.905646175146103,-0.20824609324336052 1.553487479686737,-0.19876284524798393 l1.5588362514972687,-0.3634015843272209 m-17.66223430633545,0.03892868058755994 l0.47318458557128906,0.0632253335788846 1.522929072380066,0.36354009062051773 l2.0316144824028015,0.41354086250066757 1.16896852850914,0.12713092379271984 l1.4645478129386902,0.12134866788983345 1.4699578285217285,0.335003025829792 l1.3177986443042755,-0.0001572200926602818 1.6105546057224274,0.13148991391062737 l1.586863398551941,0.3056260757148266 1.788540780544281,-0.11643919162452221 l1.6268523037433624,0.06748732179403305 1.4557574689388275,-0.018788306042551994 l1.4589285850524902,-0.13059505261480808 1.3474953174591064,-0.19389888271689415 m-18.726282119750977,-3.9621537923812866 l0.11586500331759453,-1.0437943041324615 0.6044834852218628,-1.2797503173351288 l1.0543056577444077,-0.26578471064567566 0.8482546359300613,2.301074117422104 l0.25051599368453026,1.5314775705337524 m4.568681120872498,-2.3762118816375732 l0.380849726498127,-0.012470872607082129 0.6946617364883423,-0.6159035488963127 m62.516139121726155,6.272819079495093 l3.4894785284996033,-0.21841470152139664 2.5491157174110413,0.34957781434059143 l5.726521015167236,0.36073993891477585 5.892772674560547,0.15303397551178932 l4.708811342716217,-0.1677093654870987 2.6263171434402466,-0.5336085334420204 l-0.7508499920368195,-1.5612581372261047 -11.165595054626465,-1.6121083498001099 l-9.91994559764862,-0.6354568898677826 -2.5935620069503784,0.3492472693324089 l-1.4318770170211792,0.920788124203682 -0.6105924397706985,1.6689391434192657 l0.3199010342359543,1.893133968114853 m6.094533801078796,-2.457759380340576 l0.165625661611557,0.782662034034729 -0.07971955463290215,5.027900338172913 l-0.06877548061311245,4.722711741924286 15.192310810089111,-0.7074710726737976 l6.068487763404846,-0.4733027145266533 -0.15686461701989174,-4.67220276594162 l-0.6456246227025986,-5.2728188037872314 -1.240852251648903,-1.6043378412723541 l-10.873901844024658,0.1808229647576809 -7.185303568840027,0.7558806240558624 m0.925648882985115,0.5274830758571625 l0.42383845895528793,0.10373380966484547 3.099980354309082,-1.3112328946590424 l14.320601224899292,-2.0513437688350677 4.8610007762908936,-0.5178883299231529 m-23.620827198028564,8.77721905708313 l0.8061164617538452,-0.3302478790283203 5.48919677734375,-0.11381568387150764 l5.815097093582153,0.1054023765027523 5.186912417411804,-0.008246857905760407 l3.7029922008514404,-0.09225952439010143 m-22.92855739593506,-3.3457794785499573 l0.5971219763159752,-1.525261402130127 1.5347856283187866,-1.5000730752944946 l1.5032634139060974,-0.22151188924908638 1.863960176706314,0.7190738618373871 l1.6252745687961578,1.1424994468688965 1.9170574843883514,2.2645559906959534 l1.1493579298257828,-0.3500441461801529 2.951686382293701,-0.6260736286640167 l1.9303993880748749,0.14041046611964703 1.7047782242298126,0.24070041254162788 l1.7749206721782684,-0.2653261460363865 1.7556513845920563,-0.06693226285278797 l1.5393559634685516,0.03596337977796793 1.4636655151844025,-0.1980898156762123 l1.4918674528598785,-0.26492977514863014 m-21.326780319213867,-1.4775612950325012 l0.5643286556005478,-0.2819816768169403 1.4067213237285614,-0.49672458320856094 l2.661895453929901,-0.6972247362136841 1.3749049603939056,0.554150864481926 l1.5315733850002289,0.913211777806282 2.3399096727371216,0.18638450652360916 l1.8949571251869202,-0.1531262043863535 1.8287931382656097,0.16845347359776497 l2.0838646590709686,0.17510008066892624 1.7600883543491364,0.16755137592554092 l1.6719546914100647,-0.04746966529637575 1.662544161081314,0.10683637112379074 m-19.304800033569336,-0.8681048452854156 l0.4162430763244629,0.1596929132938385 1.8920579552650452,0.2705489844083786 l1.150268092751503,0.21978236734867096 2.6572570204734802,0.9311126917600632 l7.022107839584351,0.008989619673229754 3.939647078514099,-0.1640649139881134 m53.296782189536316,6.522824578569271 l4.260009527206421,0.10755082592368126 2.512621581554413,0.2541772834956646 l6.142386794090271,0.2941088378429413 6.176587343215942,0.14616684056818485 l4.972757697105408,-0.35283543169498444 0.9863991290330887,-0.5414556711912155 l-1.1757593601942062,-1.776999980211258 -12.922145128250122,-1.624719649553299 l-9.518211483955383,-0.37164241075515747 -2.5792673230171204,0.45129891484975815 l-2.129189521074295,1.0967616736888885 -0.6899156421422958,0.8780759572982788 l0.00042100153223145753,1.4823776483535767 m6.225347518920898,-1.2919262051582336 l0.16335232183337212,1.3369612395763397 -0.1858028583228588,4.592255651950836 l-0.28277527540922165,4.6543774008750916 14.37028169631958,-1.0266590118408203 l8.68090033531189,-0.44221896678209305 0.17393305897712708,-10.745013952255249 l-0.9711550176143646,-2.309487760066986 -0.6675950437784195,-0.252376738935709 l-13.57426404953003,0.9923256188631058 -8.69345486164093,0.8043593168258667 m3.9096972346305847,0.2713583968579769 l0.25653112679719925,-0.6424824148416519 3.4215152263641357,-7.214759588241577 l14.70122218132019,-1.458972692489624 5.044010281562805,0.03383845090866089 l-0.2344931848347187,4.83144998550415 -0.38036949932575226,5.568379163742065 m-22.22724676132202,-6.39387845993042 l0.8227463066577911,-2.2732265293598175 1.7181101441383362,-3.8988545536994934 l1.7464891076087952,-0.24946756660938263 5.571224689483643,0.30546437948942184 l5.390220284461975,0.5534184351563454 3.510143458843231,0.7303759455680847 l2.344452887773514,0.9390107542276382 m-20.28810977935791,1.74112468957901 l0.9462408721446991,0.5659222602844238 2.9781195521354675,0.7838120311498642 l3.3956509828567505,0.6784413009881973 2.716377377510071,0.0474481750279665 l1.8794795870780945,-0.010507982224225998 1.7788268625736237,-0.07164445240050554 l2.175290882587433,-0.17718229442834854 1.9796358048915863,-0.3932230919599533 l1.5645037591457367,0.39720695465803146 1.9521600008010864,-0.0003358432513778098 l1.7756548523902893,-0.4145358130335808 1.5313495695590973,-0.5105786025524139 l1.271127611398697,-0.12588636949658394 m-24.400529861450195,1.7429153621196747 l1.0387463122606277,0.09662007912993431 2.4378685653209686,0.5303597450256348 l2.6111525297164917,0.5781659856438637 1.5409107506275177,0.13263084925711155 l1.6951783001422882,0.17542563378810883 1.4968858659267426,-2.5550839382049162e-05 l1.7621713876724243,0.42663633823394775 1.5408951044082642,-4.367037490737857e-05 l1.9115568697452545,0.2488255314528942 2.109874039888382,-0.2616328001022339 l1.7017431557178497,0.4518359526991844 2.0259572565555573,-0.2996823564171791 l1.6119076311588287,0.00683595659211278 1.7825151979923248,-0.5794468522071838 l1.3342545926570892,-0.24274751543998718 m-25.771946907043457,-4.009423553943634 l0.667714923620224,-1.0641837865114212 1.1212202161550522,-0.725700706243515 l2.946014404296875,-0.9541080892086029 9.821091294288635,-0.19296837970614433 l4.930881857872009,0.14212035574018955 " fill="none" stroke="black" stroke-width="1" /></svg>