<?xml version="1.0" encoding="utf-8" ?>
<svg baseProfile="full" height="97.29244992136955" version="1.1" width="126.47289594635367" xmlns="http://www.w3.org/2000/svg" xmlns:ev="http://www.w3.org/2001/xml-events" xmlns:xlink="http://www.w3.org/1999/xlink"><defs /><rect fill="white" height="97.29244992136955" width="126.47289594635367" x="0" y="0" /><path d="M31.33919669315219,72.29244992136955 m-0.30186669901013374,-0.6037333980202675 l-0.20124446600675583,-6.037334203720093 m-0.10062223300337791,3.11928927898407 l-0.20124446600675583,-1.207466796040535 0.40248893201351166,-4.125511646270752 l0.0,-5.131734013557434 -0.9056001156568527,-5.735467076301575 l8.653512001037598,0.10062223300337791 13.986490964889526,-0.7043556123971939 l20.426313877105713,-0.5031111836433411 10.967823266983032,0.0 l13.986490964889526,0.5031111836433411 3.42115581035614,0.40248893201351166 m-13.885867595672607,-0.8049778640270233 l0.0,-4.930489361286163 0.6037333980202675,-3.42115581035614 l0.5031111836433411,-0.5031111836433411 1.8112002313137054,0.20124446600675583 l5.836089253425598,1.4087112247943878 1.207466796040535,0.8049778640270233 l-0.10062223300337791,8.754134178161621 m-17.608890533447266,-12.376534938812256 l14.187735319137573,0.7043556123971939 7.446045279502869,1.3080890476703644 m-22.13689088821411,-3.5217782855033875 l6.641067266464233,-7.6472896337509155 2.1130669116973877,-3.42115581035614 l1.3080890476703644,-3.11928927898407 0.8049778640270233,-0.7043556123971939 l9.559112191200256,-0.10062223300337791 0.7043556123971939,2.213689088821411 l0.7043556123971939,4.125511646270752 0.30186669901013374,7.446045279502869 m-63.49262714385986,13.38275671005249 l-1.207466796040535,-11.269689798355103 29.180448055267334,-2.41493359208107 l8.049778938293457,0.0 0.40248893201351166,2.716800272464752 l0.40248893201351166,9.65973436832428 m-30.48853635787964,-6.84231162071228 l0.5031111836433411,4.0248894691467285 1.1068445444107056,2.0124447345733643 m2.8174224495887756,-6.641067266464233 l-0.20124446600675583,1.4087112247943878 0.40248893201351166,2.41493359208107 l0.8049778640270233,1.71057790517807 0.7043556123971939,0.5031111836433411 l1.1068445444107056,-0.10062223300337791 0.40248893201351166,-1.0062223672866821 l0.10062223300337791,-3.2199114561080933 -1.0062223672866821,-1.1068445444107056 l-1.8112002313137054,-0.40248893201351166 m6.4398229122161865,0.30186669901013374 l0.0,0.0 m-0.20124446600675583,3.3205336332321167 l0.0,0.0 m3.924266993999481,-2.918044626712799 l0.40248893201351166,-1.3080890476703644 m0.10062223300337791,0.6037333980202675 l-0.10062223300337791,-0.5031111836433411 1.9118224084377289,-1.4087112247943878 l0.6037333980202675,-0.10062223300337791 0.6037333980202675,0.9056001156568527 l-0.20124446600675583,1.8112002313137054 -2.1130669116973877,3.3205336332321167 l-0.20124446600675583,1.0062223672866821 2.213689088821411,0.0 l2.41493359208107,-1.0062223672866821 m2.918044626712799,-5.735467076301575 l-0.8049778640270233,0.10062223300337791 -0.8049778640270233,1.4087112247943878 l-0.20124446600675583,3.7230226397514343 0.7043556123971939,0.40248893201351166 l1.207466796040535,0.10062223300337791 1.1068445444107056,-1.6099557280540466 l0.20124446600675583,-4.0248894691467285 -1.0062223672866821,-1.0062223672866821 m-12.879645824432373,0.30186669901013374 l0.6037333980202675,2.213689088821411 m0.7043556123971939,2.5155559182167053 l0.40248893201351166,2.213689088821411 m-32.19911575317383,-7.848533987998962 l3.8236448168754578,2.3143114149570465 1.71057790517807,0.6037333980202675 m7.546667456626892,-11.873424053192139 l2.716800272464752,3.8236448168754578 1.9118224084377289,1.8112002313137054 m10.263468027114868,-7.546667456626892 l0.6037333980202675,2.6161780953407288 0.7043556123971939,1.5093335509300232 l1.3080890476703644,1.3080890476703644 m12.175290584564209,-7.345423102378845 l0.5031111836433411,4.528000354766846 m7.244800925254822,-3.2199114561080933 l-0.30186669901013374,6.137956380844116 m2.0124447345733643,-1.5093335509300232 l-0.7043556123971939,2.1130669116973877 m-31.897246837615967,4.0248894691467285 l0.5031111836433411,-2.918044626712799 0.7043556123971939,-0.5031111836433411 l3.5217782855033875,0.30186669901013374 0.30186669901013374,2.5155559182167053 m10.665956735610962,-0.6037333980202675 l-0.20124446600675583,-3.0186671018600464 0.40248893201351166,-1.0062223672866821 l0.7043556123971939,-0.10062223300337791 3.42115581035614,1.4087112247943878 l-0.10062223300337791,2.5155559182167053 0.40248893201351166,0.5031111836433411 " fill="none" stroke="black" stroke-width="1" /></svg>