<?xml version="1.0" encoding="utf-8" ?>
<svg baseProfile="full" height="93.06631609797478" version="1.1" width="101.6192052140832" xmlns="http://www.w3.org/2000/svg" xmlns:ev="http://www.w3.org/2001/xml-events" xmlns:xlink="http://www.w3.org/1999/xlink"><defs /><rect fill="white" height="93.06631609797478" width="101.6192052140832" x="0" y="0" /><path d="M42.40764617919922,32.14417949318886 m0.7043556123971939,22.13689088821411 l-0.10062223300337791,5.836089253425598 0.40248893201351166,4.0248894691467285 l0.8049778640270233,3.924266993999481 1.3080890476703644,-0.20124446600675583 l1.6099557280540466,-1.1068445444107056 2.5155559182167053,-1.9118224084377289 l1.1068445444107056,-1.3080890476703644 2.0124447345733643,-4.226133823394775 l0.20124446600675583,-3.42115581035614 -1.1068445444107056,-5.332978367805481 l-0.5031111836433411,-4.7292450070381165 0.0,-3.622400462627411 l-0.6037333980202675,-2.8174224495887756 0.40248893201351166,-4.628622829914093 l-1.3080890476703644,-9.156623482704163 -1.0062223672866821,-0.6037333980202675 l-2.1130669116973877,0.0 -1.5093335509300232,0.30186669901013374 l-1.0062223672866821,0.8049778640270233 -0.9056001156568527,3.3205336332321167 l0.0,3.3205336332321167 m7.6472896337509155,2.3143114149570465 l4.125511646270752,1.3080890476703644 6.137956380844116,0.7043556123971939 l11.370311975479126,-1.4087112247943878 2.6161780953407288,0.20124446600675583 l1.1068445444107056,0.5031111836433411 0.30186669901013374,0.5031111836433411 l-0.6037333980202675,1.6099557280540466 -2.5155559182167053,1.3080890476703644 l-11.47093415260315,1.6099557280540466 -4.7292450070381165,0.30186669901013374 l-6.339200735092163,1.3080890476703644 m-9.056000709533691,-6.641067266464233 l-2.0124447345733643,-0.40248893201351166 -3.5217782855033875,-0.10062223300337791 l-4.326756000518799,1.207466796040535 -3.42115581035614,1.9118224084377289 l-3.622400462627411,4.125511646270752 3.2199114561080933,0.30186669901013374 l7.446045279502869,1.4087112247943878 2.41493359208107,0.0 l2.5155559182167053,-0.5031111836433411 2.918044626712799,-1.207466796040535 " fill="none" stroke="black" stroke-width="1" /></svg>