<?xml version="1.0" encoding="utf-8" ?>
<svg baseProfile="full" height="91.85884928330779" version="1.1" width="119.93245206773281" xmlns="http://www.w3.org/2000/svg" xmlns:ev="http://www.w3.org/2001/xml-events" xmlns:xlink="http://www.w3.org/1999/xlink"><defs /><rect fill="white" height="91.85884928330779" width="119.93245206773281" x="0" y="0" /><path d="M36.5715572796762,27.515555787831545 m9.257245659828186,-0.20124446600675583 l13.68462324142456,-0.8049778640270233 11.269689798355103,-1.4087112247943878 l3.5217782855033875,-0.10062223300337791 1.6099557280540466,1.8112002313137054 l0.5031111836433411,1.8112002313137054 0.30186669901013374,4.628622829914093 l0.8049778640270233,2.3143114149570465 1.8112002313137054,0.9056001156568527 l3.2199114561080933,0.6037333980202675 7.546667456626892,0.10062223300337791 l0.6037333980202675,0.40248893201351166 0.8049778640270233,1.1068445444107056 l1.1068445444107056,2.8174224495887756 2.1130669116973877,10.464712381362915 l0.20124446600675583,4.528000354766846 -0.9056001156568527,1.6099557280540466 l-3.5217782855033875,0.20124446600675583 -3.3205336332321167,-0.30186669901013374 l-5.836089253425598,-1.1068445444107056 -15.898312330245972,-0.7043556123971939 l-0.9056001156568527,0.30186669901013374 -1.4087112247943878,1.6099557280540466 l-0.40248893201351166,2.3143114149570465 0.20124446600675583,2.41493359208107 l0.6037333980202675,1.0062223672866821 2.1130669116973877,1.6099557280540466 l2.6161780953407288,0.7043556123971939 3.3205336332321167,-0.10062223300337791 l2.5155559182167053,-2.213689088821411 0.6037333980202675,-1.6099557280540466 l0.0,-3.11928927898407 -1.4087112247943878,-2.918044626712799 l-1.3080890476703644,-1.0062223672866821 -1.71057790517807,-0.30186669901013374 m-35.922136306762695,1.207466796040535 l-0.9056001156568527,1.0062223672866821 -1.6099557280540466,2.8174224495887756 l-0.40248893201351166,1.207466796040535 0.0,2.213689088821411 l0.5031111836433411,0.9056001156568527 1.1068445444107056,0.9056001156568527 l2.716800272464752,1.3080890476703644 2.716800272464752,0.40248893201351166 l1.6099557280540466,-0.10062223300337791 1.71057790517807,-0.9056001156568527 l1.5093335509300232,-0.9056001156568527 1.3080890476703644,-1.3080890476703644 l1.6099557280540466,-2.8174224495887756 0.7043556123971939,-4.427378177642822 l0.0,-2.1130669116973877 -0.7043556123971939,-1.6099557280540466 l-0.9056001156568527,-0.7043556123971939 -1.0062223672866821,-0.30186669901013374 l-1.4087112247943878,0.0 -1.8112002313137054,0.7043556123971939 l-5.131734013557434,3.622400462627411 -2.5155559182167053,2.3143114149570465 m35.21778106689453,-0.40248893201351166 l-1.5093335509300232,-0.30186669901013374 -8.45226764678955,0.0 l-6.4398229122161865,0.5031111836433411 -13.483378887176514,0.0 l-11.873424053192139,-1.0062223672866821 m30.086047649383545,-31.09226942062378 l-2.41493359208107,-0.20124446600675583 -5.936712026596069,0.7043556123971939 l-14.08711314201355,3.11928927898407 -6.84231162071228,0.0 l-2.5155559182167053,-0.40248893201351166 -0.20124446600675583,-0.40248893201351166 m41.75822734832764,3.3205336332321167 l-0.40248893201351166,1.6099557280540466 0.10062223300337791,3.42115581035614 l1.0062223672866821,3.5217782855033875 1.207466796040535,0.9056001156568527 l2.918044626712799,-0.30186669901013374 5.031111836433411,-1.8112002313137054 l4.528000354766846,-2.1130669116973877 0.7043556123971939,-1.1068445444107056 l0.0,-0.6037333980202675 -1.4087112247943878,-1.3080890476703644 l-3.7230226397514343,-1.8112002313137054 m-3.11928927898407,-1.8112002313137054 l-3.5217782855033875,0.0 m-24.853692054748535,5.836089253425598 l0.40248893201351166,2.5155559182167053 1.1068445444107056,2.213689088821411 l1.0062223672866821,1.0062223672866821 3.5217782855033875,-0.20124446600675583 l5.534222722053528,-2.41493359208107 0.6037333980202675,-0.7043556123971939 l0.30186669901013374,-3.11928927898407 -0.10062223300337791,-2.716800272464752 l-0.7043556123971939,-0.8049778640270233 -2.5155559182167053,0.0 l-5.2323561906814575,2.3143114149570465 m-14.38897967338562,1.3080890476703644 l-0.30186669901013374,0.8049778640270233 0.30186669901013374,5.936712026596069 l0.7043556123971939,1.5093335509300232 0.5031111836433411,0.40248893201351166 l1.3080890476703644,0.20124446600675583 1.1068445444107056,-0.5031111836433411 l4.628622829914093,-3.42115581035614 0.5031111836433411,-0.7043556123971939 l0.10062223300337791,-2.0124447345733643 -0.30186669901013374,-1.3080890476703644 l-1.1068445444107056,-1.8112002313137054 -1.3080890476703644,-1.0062223672866821 l-1.3080890476703644,0.0 -4.528000354766846,1.71057790517807 " fill="none" stroke="black" stroke-width="1" /></svg>