<?xml version="1.0" encoding="utf-8" ?>
<svg baseProfile="full" height="56.54044520109892" version="1.1" width="89.14204865694046" xmlns="http://www.w3.org/2000/svg" xmlns:ev="http://www.w3.org/2001/xml-events" xmlns:xlink="http://www.w3.org/1999/xlink"><defs /><rect fill="white" height="56.54044520109892" width="89.14204865694046" x="0" y="0" /><path d="M36.26968950033188,27.41493359208107 m3.0186671018600464,0.5031111836433411 l3.42115581035614,0.0 8.351645469665527,-0.7043556123971939 l6.54044508934021,-1.207466796040535 2.1130669116973877,-1.0062223672866821 m-13.584001064300537,5.332978367805481 l-1.0062223672866821,-0.10062223300337791 -0.30186669901013374,-0.5031111836433411 l0.10062223300337791,-2.0124447345733643 6.137956380844116,-0.20124446600675583 l0.30186669901013374,0.5031111836433411 -0.30186669901013374,2.5155559182167053 l-3.8236448168754578,0.9056001156568527 -2.6161780953407288,0.10062223300337791 l-0.10062223300337791,-1.9118224084377289 m6.137956380844116,0.8049778640270233 l1.6099557280540466,0.10062223300337791 6.942933797836304,-2.41493359208107 l2.1130669116973877,-0.20124446600675583 2.5155559182167053,-1.1068445444107056 l0.30186669901013374,-0.40248893201351166 m-18.916980028152466,3.42115581035614 l-15.495823621749878,0.5031111836433411 -3.7230226397514343,-0.40248893201351166 l-1.0062223672866821,-0.6037333980202675 m10.967823266983032,-1.8112002313137054 l-4.528000354766846,-0.40248893201351166 -2.213689088821411,-1.1068445444107056 " fill="none" stroke="black" stroke-width="1" /></svg>