<?xml version="1.0" encoding="utf-8" ?>
<svg baseProfile="full" height="90.55075939744711" version="1.1" width="85.6202700547874" xmlns="http://www.w3.org/2000/svg" xmlns:ev="http://www.w3.org/2001/xml-events" xmlns:xlink="http://www.w3.org/1999/xlink"><defs /><rect fill="white" height="90.55075939744711" width="85.6202700547874" x="0" y="0" /><path d="M31.842311322689056,39.99271187931299 m0.0,0.0 m0.0,0.0 l-0.30186669901013374,0.7043556123971939 0.0,3.2199114561080933 l0.7043556123971939,5.634844899177551 -1.6099557280540466,-7.345423102378845 l-0.40248893201351166,-2.5155559182167053 0.20124446600675583,-0.5031111836433411 l1.5093335509300232,0.0 4.7292450070381165,-1.9118224084377289 l5.936712026596069,-1.4087112247943878 3.5217782855033875,-0.5031111836433411 l3.7230226397514343,0.0 0.9056001156568527,0.40248893201351166 l1.207466796040535,1.3080890476703644 0.40248893201351166,1.0062223672866821 l2.0124447345733643,7.546667456626892 0.8049778640270233,5.936712026596069 l-1.8112002313137054,0.10062223300337791 -3.42115581035614,-0.7043556123971939 l-8.351645469665527,0.0 -5.433600544929504,0.5031111836433411 l-4.0248894691467285,-1.9118224084377289 -1.207466796040535,-0.10062223300337791 l0.10062223300337791,-0.20124446600675583 m0.5031111836433411,0.20124446600675583 l-6.54044508934021,1.9118224084377289 0.9056001156568527,5.131734013557434 l0.20124446600675583,7.244800925254822 0.30186669901013374,1.3080890476703644 l0.6037333980202675,0.5031111836433411 3.924266993999481,-0.10062223300337791 l10.967823266983032,-1.9118224084377289 15.495823621749878,-4.326756000518799 l0.6037333980202675,-1.0062223672866821 1.3080890476703644,-7.446045279502869 l1.3080890476703644,-2.5155559182167053 -2.0124447345733643,0.30186669901013374 l-6.339200735092163,3.42115581035614 m-11.068445444107056,-15.898312330245972 l-0.7043556123971939,-1.4087112247943878 -1.4087112247943878,-5.332978367805481 m3.42115581035614,6.037334203720093 l-2.1130669116973877,-4.427378177642822 -0.30186669901013374,-1.71057790517807 m-0.10062223300337791,1.4087112247943878 l-1.3080890476703644,-1.6099557280540466 -0.10062223300337791,-1.9118224084377289 l0.5031111836433411,-0.5031111836433411 -0.8049778640270233,-0.7043556123971939 m2.918044626712799,5.433600544929504 l1.0062223672866821,-2.213689088821411 -0.10062223300337791,-2.6161780953407288 l-3.11928927898407,-1.5093335509300232 " fill="none" stroke="black" stroke-width="1" /></svg>