<?xml version="1.0" encoding="utf-8" ?>
<svg baseProfile="full" height="66.20017901062965" version="1.1" width="68.71573489159346" xmlns="http://www.w3.org/2000/svg" xmlns:ev="http://www.w3.org/2001/xml-events" xmlns:xlink="http://www.w3.org/1999/xlink"><defs /><rect fill="white" height="66.20017901062965" width="68.71573489159346" x="0" y="0" /><path d="M25,31.54044469818473 m1.8112002313137054,0.6037333980202675 l6.641067266464233,0.0 4.226133823394775,-1.0062223672866821 l2.1130669116973877,-1.6099557280540466 m-14.288357496261597,3.2199114561080933 l0.30186669901013374,0.6037333980202675 1.1068445444107056,0.6037333980202675 l4.628622829914093,0.9056001156568527 5.131734013557434,0.20124446600675583 l3.8236448168754578,-0.40248893201351166 1.1068445444107056,-0.7043556123971939 m-16.401424407958984,0.9056001156568527 l1.1068445444107056,1.0062223672866821 1.8112002313137054,0.8049778640270233 l9.65973436832428,1.4087112247943878 3.5217782855033875,-0.20124446600675583 l1.71057790517807,-0.7043556123971939 0.5031111836433411,-0.6037333980202675 m-18.41386914253235,-4.7292450070381165 l0.40248893201351166,3.8236448168754578 -0.40248893201351166,3.8236448168754578 l0.6037333980202675,0.40248893201351166 3.7230226397514343,0.30186669901013374 l1.8112002313137054,0.5031111836433411 11.873424053192139,0.5031111836433411 l0.5031111836433411,-0.10062223300337791 0.10062223300337791,-0.5031111836433411 l-3.8236448168754578,-7.747911810874939 -0.20124446600675583,-1.1068445444107056 l0.30186669901013374,-1.71057790517807 -0.40248893201351166,-0.40248893201351166 m-7.6472896337509155,2.0124447345733643 l-0.6037333980202675,-4.528000354766846 2.1130669116973877,0.10062223300337791 l0.40248893201351166,4.82986718416214 m-1.5093335509300232,-4.930489361286163 l0.0,-1.71057790517807 m0.0,0.0 l-1.1068445444107056,-0.40248893201351166 " fill="none" stroke="black" stroke-width="1" /></svg>