<?xml version="1.0" encoding="utf-8" ?>
<svg baseProfile="full" height="91.55698204413056" version="1.1" width="113.09014042839408" xmlns="http://www.w3.org/2000/svg" xmlns:ev="http://www.w3.org/2001/xml-events" xmlns:xlink="http://www.w3.org/1999/xlink"><defs /><rect fill="white" height="91.55698204413056" width="113.09014042839408" x="0" y="0" /><path d="M75.41173920035362,30.735467690974474 m-8.251023292541504,5.735467076301575 l-4.528000354766846,2.213689088821411 -4.628622829914093,2.6161780953407288 l-1.0062223672866821,0.9056001156568527 -2.716800272464752,0.9056001156568527 l-7.345423102378845,3.42115581035614 -5.332978367805481,1.71057790517807 l-2.0124447345733643,0.10062223300337791 -7.244800925254822,-6.942933797836304 l-2.918044626712799,0.5031111836433411 -2.6161780953407288,1.5093335509300232 l-0.9056001156568527,0.9056001156568527 -0.9056001156568527,2.716800272464752 l0.0,1.3080890476703644 0.7043556123971939,1.8112002313137054 l7.747911810874939,6.942933797836304 3.8236448168754578,1.3080890476703644 l1.6099557280540466,0.0 6.4398229122161865,-0.5031111836433411 l4.628622829914093,-1.0062223672866821 1.6099557280540466,-0.9056001156568527 l1.207466796040535,-1.5093335509300232 2.716800272464752,-1.71057790517807 l1.1068445444107056,-0.9056001156568527 0.6037333980202675,-1.0062223672866821 l1.8112002313137054,-1.207466796040535 14.69084620475769,-8.251023292541504 l2.213689088821411,-1.9118224084377289 2.5155559182167053,-2.8174224495887756 l4.0248894691467285,-2.6161780953407288 2.0124447345733643,-1.71057790517807 l2.213689088821411,-2.3143114149570465 1.1068445444107056,-1.9118224084377289 l0.30186669901013374,-2.41493359208107 -1.8112002313137054,-0.7043556123971939 l-5.433600544929504,1.3080890476703644 -4.125511646270752,1.71057790517807 l-3.11928927898407,3.7230226397514343 -2.918044626712799,2.716800272464752 l-0.6037333980202675,0.20124446600675583 -7.747911810874939,-1.5093335509300232 l-3.5217782855033875,-0.30186669901013374 -4.628622829914093,0.10062223300337791 l-3.42115581035614,0.40248893201351166 -11.873424053192139,3.42115581035614 l8.653512001037598,0.5031111836433411 5.534222722053528,0.8049778640270233 l7.747911810874939,2.5155559182167053 1.0062223672866821,0.8049778640270233 l1.5093335509300232,0.30186669901013374 m13.08089017868042,-2.1130669116973877 l-0.40248893201351166,1.6099557280540466 -0.5031111836433411,7.949156165122986 l-0.8049778640270233,4.82986718416214 -2.918044626712799,8.251023292541504 l-2.5155559182167053,4.326756000518799 -0.5031111836433411,-0.20124446600675583 l-0.8049778640270233,-1.3080890476703644 -1.5093335509300232,-3.5217782855033875 l-1.5093335509300232,-4.82986718416214 -1.6099557280540466,-2.8174224495887756 l-1.8112002313137054,-2.3143114149570465 -1.9118224084377289,-1.71057790517807 l-2.8174224495887756,-2.0124447345733643 -1.5093335509300232,-0.6037333980202675 " fill="none" stroke="black" stroke-width="1" /></svg>