<?xml version="1.0" encoding="utf-8" ?>
<svg baseProfile="full" height="64.38897952437401" version="1.1" width="65.09333489462733" xmlns="http://www.w3.org/2000/svg" xmlns:ev="http://www.w3.org/2001/xml-events" xmlns:xlink="http://www.w3.org/1999/xlink"><defs /><rect fill="white" height="64.38897952437401" width="65.09333489462733" x="0" y="0" /><path d="M25.201244466006756,28.823644742369652 m-0.20124446600675583,-3.2199114561080933 l2.1130669116973877,1.207466796040535 0.6037333980202675,1.0062223672866821 l2.1130669116973877,-0.5031111836433411 3.42115581035614,0.0 l3.7230226397514343,1.0062223672866821 0.7043556123971939,-1.1068445444107056 l2.3143114149570465,-2.213689088821411 -1.3080890476703644,4.226133823394775 l0.30186669901013374,1.207466796040535 1.1068445444107056,1.6099557280540466 l-0.20124446600675583,1.5093335509300232 -3.8236448168754578,4.628622829914093 l-2.918044626712799,1.207466796040535 -2.5155559182167053,0.0 l-1.9118224084377289,-1.207466796040535 -2.6161780953407288,-3.0186671018600464 l-0.40248893201351166,-1.71057790517807 0.0,-3.0186671018600464 l-0.30186669901013374,-1.3080890476703644 m0.0,0.0 l0.0,0.0 m4.0248894691467285,0.9056001156568527 l-0.5031111836433411,-0.30186669901013374 -0.40248893201351166,1.0062223672866821 l1.0062223672866821,0.5031111836433411 0.40248893201351166,-0.5031111836433411 l0.0,-1.0062223672866821 -0.9056001156568527,-0.30186669901013374 m5.735467076301575,2.0124447345733643 l0.6037333980202675,0.10062223300337791 0.40248893201351166,-0.5031111836433411 l-0.5031111836433411,-0.40248893201351166 -0.6037333980202675,0.20124446600675583 m-2.6161780953407288,2.6161780953407288 l0.5031111836433411,0.0 0.30186669901013374,0.5031111836433411 l-0.5031111836433411,1.0062223672866821 -0.5031111836433411,-0.20124446600675583 l-0.40248893201351166,-0.8049778640270233 m1.0062223672866821,1.71057790517807 l0.6037333980202675,0.40248893201351166 1.207466796040535,0.0 m-2.213689088821411,-0.8049778640270233 l0.0,0.5031111836433411 -0.5031111836433411,0.20124446600675583 l-1.9118224084377289,0.0 m4.82986718416214,-2.6161780953407288 l1.9118224084377289,-0.7043556123971939 2.0124447345733643,-0.10062223300337791 l0.9056001156568527,0.30186669901013374 m-3.924266993999481,1.1068445444107056 l3.2199114561080933,-0.10062223300337791 1.1068445444107056,0.5031111836433411 m-5.332978367805481,0.7043556123971939 l1.9118224084377289,0.40248893201351166 1.6099557280540466,1.0062223672866821 " fill="none" stroke="black" stroke-width="1" /></svg>