<?xml version="1.0" encoding="utf-8" ?>
<svg baseProfile="full" height="86.12338135018945" version="1.1" width="112.08391901105642" xmlns="http://www.w3.org/2000/svg" xmlns:ev="http://www.w3.org/2001/xml-events" xmlns:xlink="http://www.w3.org/1999/xlink"><defs /><rect fill="white" height="86.12338135018945" width="112.08391901105642" x="0" y="0" /><path d="M25.40248893201351,56.3941365480423 m-0.40248893201351166,-1.8112002313137054 l0.0,-3.2199114561080933 0.7043556123971939,-21.83502435684204 l0.6037333980202675,-3.2199114561080933 0.0,-1.3080890476703644 l3.7230226397514343,0.30186669901013374 6.641067266464233,1.6099557280540466 l8.653512001037598,0.5031111836433411 12.275912761688232,0.5031111836433411 l25.85991382598877,-0.30186669901013374 0.20124446600675583,0.7043556123971939 l0.10062223300337791,7.546667456626892 -0.9056001156568527,17.910757064819336 l-20.426313877105713,0.8049778640270233 -2.213689088821411,0.5031111836433411 l-7.144178748130798,0.5031111836433411 -6.942933797836304,-0.10062223300337791 l-4.326756000518799,-0.7043556123971939 -5.332978367805481,0.0 l-5.735467076301575,-1.207466796040535 -3.5217782855033875,0.20124446600675583 m4.7292450070381165,-0.9056001156568527 l-2.6161780953407288,0.6037333980202675 -2.213689088821411,3.11928927898407 l-0.30186669901013374,0.8049778640270233 0.20124446600675583,0.8049778640270233 l0.9056001156568527,0.7043556123971939 m3.7230226397514343,1.71057790517807 l0.40248893201351166,0.0 m3.3205336332321167,-2.0124447345733643 l1.1068445444107056,-0.7043556123971939 m1.0062223672866821,-3.7230226397514343 l-1.5093335509300232,-2.6161780953407288 -0.8049778640270233,-0.40248893201351166 l-1.207466796040535,0.10062223300337791 -3.42115581035614,2.0124447345733643 l-1.5093335509300232,2.3143114149570465 -0.40248893201351166,2.0124447345733643 m48.399295806884766,-3.7230226397514343 l-1.5093335509300232,0.10062223300337791 -2.41493359208107,1.3080890476703644 l-2.3143114149570465,1.9118224084377289 -0.5031111836433411,1.3080890476703644 l0.0,1.1068445444107056 0.5031111836433411,0.9056001156568527 l1.0062223672866821,0.40248893201351166 2.41493359208107,0.20124446600675583 l1.207466796040535,-0.5031111836433411 3.42115581035614,-2.716800272464752 l3.11928927898407,-4.226133823394775 -0.8049778640270233,-0.40248893201351166 l-3.3205336332321167,0.40248893201351166 -7.244800925254822,3.2199114561080933 l-0.20124446600675583,0.40248893201351166 m-43.36818218231201,-18.313246965408325 l0.5031111836433411,0.40248893201351166 2.213689088821411,0.30186669901013374 l8.854756355285645,0.40248893201351166 17.508268356323242,0.0 l10.062223672866821,0.30186669901013374 6.4398229122161865,0.0 l8.854756355285645,-0.6037333980202675 5.634844899177551,0.20124446600675583 m-15.294579267501831,0.0 l-1.4087112247943878,4.0248894691467285 -1.0062223672866821,4.226133823394775 l0.20124446600675583,4.427378177642822 " fill="none" stroke="black" stroke-width="1" /></svg>