<?xml version="1.0" encoding="utf-8" ?>
<svg baseProfile="full" height="83.70844900608063" version="1.1" width="82.80284820124507" xmlns="http://www.w3.org/2000/svg" xmlns:ev="http://www.w3.org/2001/xml-events" xmlns:xlink="http://www.w3.org/1999/xlink"><defs /><rect fill="white" height="83.70844900608063" width="82.80284820124507" x="0" y="0" /><path d="M27.414934188127518,49.551825281232595 m4.226133823394775,0.10062223300337791 l2.6161780953407288,0.5031111836433411 4.7292450070381165,0.30186669901013374 l4.628622829914093,0.0 8.955378532409668,-0.20124446600675583 l0.10062223300337791,-0.8049778640270233 -4.326756000518799,-2.213689088821411 l-4.326756000518799,-0.7043556123971939 -15.697067975997925,0.7043556123971939 l-1.3080890476703644,0.20124446600675583 -0.40248893201351166,0.8049778640270233 m2.3143114149570465,-1.0062223672866821 l-0.40248893201351166,-2.213689088821411 0.0,-10.364090204238892 l-0.6037333980202675,-8.15040111541748 1.5093335509300232,0.8049778640270233 l5.332978367805481,1.1068445444107056 19.822579622268677,2.213689088821411 l-1.207466796040535,1.6099557280540466 -1.5093335509300232,5.634844899177551 l-1.5093335509300232,9.96160089969635 m-20.828802585601807,-15.797690153121948 l0.10062223300337791,0.5031111836433411 11.47093415260315,2.213689088821411 l9.65973436832428,-0.10062223300337791 m-25.759291648864746,3.2199114561080933 l1.5093335509300232,-0.40248893201351166 3.42115581035614,-0.10062223300337791 l3.3205336332321167,0.9056001156568527 4.326756000518799,0.6037333980202675 l3.5217782855033875,0.0 4.82986718416214,-0.5031111836433411 l8.754134178161621,0.40248893201351166 m-27.67111301422119,2.5155559182167053 l1.1068445444107056,0.8049778640270233 5.534222722053528,1.4087112247943878 l6.84231162071228,0.30186669901013374 2.5155559182167053,-0.5031111836433411 l5.634844899177551,0.0 3.2199114561080933,0.6037333980202675 l0.5031111836433411,0.30186669901013374 0.20124446600675583,0.7043556123971939 m-24.249958992004395,-19.118224382400513 l0.6037333980202675,0.5031111836433411 2.1130669116973877,0.30186669901013374 l1.0062223672866821,-0.40248893201351166 0.5031111836433411,-1.207466796040535 l-0.20124446600675583,2.8174224495887756 0.20124446600675583,0.5031111836433411 l0.7043556123971939,0.40248893201351166 1.0062223672866821,-0.10062223300337791 l1.3080890476703644,-1.8112002313137054 0.7043556123971939,-0.20124446600675583 l2.1130669116973877,2.0124447345733643 1.71057790517807,0.20124446600675583 l2.0124447345733643,-2.6161780953407288 0.5031111836433411,-0.10062223300337791 l0.10062223300337791,1.3080890476703644 0.40248893201351166,0.5031111836433411 l1.5093335509300232,0.0 2.0124447345733643,-1.3080890476703644 l0.40248893201351166,2.5155559182167053 0.9056001156568527,0.20124446600675583 l2.716800272464752,-0.9056001156568527 0.7043556123971939,2.41493359208107 l3.0186671018600464,-0.7043556123971939 1.0062223672866821,1.3080890476703644 l1.5093335509300232,-0.40248893201351166 0.9056001156568527,-0.8049778640270233 m-13.181512355804443,28.47609281539917 l0.0,0.0 " fill="none" stroke="black" stroke-width="1" /></svg>