<?xml version="1.0" encoding="utf-8" ?>
<svg baseProfile="full" height="102.92729442939162" version="1.1" width="136.43449859693646" xmlns="http://www.w3.org/2000/svg" xmlns:ev="http://www.w3.org/2001/xml-events" xmlns:xlink="http://www.w3.org/1999/xlink"><defs /><rect fill="white" height="102.92729442939162" width="136.43449859693646" x="0" y="0" /><path d="M54.78418195620179,52.26862479001284 m1.6099557280540466,10.263468027114868 l1.8112002313137054,7.6472896337509155 1.1068445444107056,2.5155559182167053 l2.1130669116973877,3.2199114561080933 2.0124447345733643,1.71057790517807 l1.5093335509300232,0.30186669901013374 4.427378177642822,-0.10062223300337791 l2.1130669116973877,-0.9056001156568527 2.3143114149570465,-1.71057790517807 l0.8049778640270233,-1.0062223672866821 2.1130669116973877,-5.534222722053528 l0.6037333980202675,-4.528000354766846 0.0,-9.760356545448303 l-0.7043556123971939,-4.528000354766846 2.1130669116973877,0.7043556123971939 l5.735467076301575,0.6037333980202675 13.08089017868042,1.0062223672866821 l13.68462324142456,0.5031111836433411 0.20124446600675583,-7.848533987998962 l-0.40248893201351166,-0.7043556123971939 -1.207466796040535,-0.9056001156568527 l-2.8174224495887756,-0.9056001156568527 -5.634844899177551,0.0 l-10.464712381362915,1.207466796040535 -4.628622829914093,0.0 l-4.226133823394775,-0.5031111836433411 -8.049778938293457,0.20124446600675583 l-0.20124446600675583,-7.043556571006775 0.40248893201351166,-5.031111836433411 l0.0,-5.332978367805481 -0.5031111836433411,-0.6037333980202675 l-0.7043556123971939,-0.20124446600675583 -3.5217782855033875,0.30186669901013374 l-6.137956380844116,3.5217782855033875 -4.930489361286163,3.42115581035614 l-2.1130669116973877,2.8174224495887756 -0.9056001156568527,2.41493359208107 l0.0,6.741689443588257 -4.427378177642822,-1.1068445444107056 l-3.924266993999481,-1.4087112247943878 -13.282134532928467,-1.0062223672866821 l-4.0248894691467285,-1.1068445444107056 -0.10062223300337791,0.5031111836433411 l-0.40248893201351166,-8.15040111541748 -0.30186669901013374,-1.6099557280540466 l-0.5031111836433411,-0.10062223300337791 -0.6037333980202675,5.534222722053528 l-1.6099557280540466,4.7292450070381165 0.10062223300337791,5.735467076301575 l-1.3080890476703644,9.056000709533691 1.4087112247943878,-3.5217782855033875 l2.1130669116973877,-3.622400462627411 0.5031111836433411,-0.30186669901013374 l11.873424053192139,0.20124446600675583 2.0124447345733643,0.30186669901013374 l6.137956380844116,2.1130669116973877 3.2199114561080933,0.20124446600675583 " fill="none" stroke="black" stroke-width="1" /></svg>