<?xml version="1.0" encoding="utf-8" ?>
<svg baseProfile="full" height="77.97298053279519" version="1.1" width="73.44498056918383" xmlns="http://www.w3.org/2000/svg" xmlns:ev="http://www.w3.org/2001/xml-events" xmlns:xlink="http://www.w3.org/1999/xlink"><defs /><rect fill="white" height="77.97298053279519" width="73.44498056918383" x="0" y="0" /><path d="M33.55288952589035,36.672178860753775 m-5.836089253425598,2.6161780953407288 l-1.1068445444107056,0.9056001156568527 -0.9056001156568527,1.9118224084377289 l-0.7043556123971939,3.2199114561080933 0.30186669901013374,3.7230226397514343 l0.9056001156568527,0.8049778640270233 3.622400462627411,1.71057790517807 l1.0062223672866821,0.10062223300337791 1.6099557280540466,-0.7043556123971939 l3.11928927898407,-2.5155559182167053 0.9056001156568527,-1.6099557280540466 l-0.20124446600675583,2.8174224495887756 0.8049778640270233,2.3143114149570465 l0.5031111836433411,0.40248893201351166 2.213689088821411,0.5031111836433411 l2.41493359208107,0.10062223300337791 3.5217782855033875,-1.8112002313137054 l2.213689088821411,-1.71057790517807 0.40248893201351166,-1.0062223672866821 l0.10062223300337791,-4.82986718416214 -0.40248893201351166,-2.3143114149570465 l-0.6037333980202675,-1.5093335509300232 -2.0124447345733643,-2.918044626712799 l-1.0062223672866821,-0.9056001156568527 -2.5155559182167053,-1.71057790517807 l-1.5093335509300232,-0.40248893201351166 -1.207466796040535,0.10062223300337791 l-3.11928927898407,1.1068445444107056 -3.924266993999481,0.20124446600675583 l-0.40248893201351166,0.5031111836433411 m0.5031111836433411,1.9118224084377289 l0.7043556123971939,-2.41493359208107 1.0062223672866821,-1.9118224084377289 m7.848533987998962,-0.20124446600675583 l0.10062223300337791,-5.836089253425598 0.40248893201351166,-2.3143114149570465 m-0.10062223300337791,6.339200735092163 l-0.9056001156568527,3.11928927898407 " fill="none" stroke="black" stroke-width="1" /></svg>