<?xml version="1.0" encoding="utf-8" ?>
<svg baseProfile="full" height="80.68978145718575" version="1.1" width="82.50098118558526" xmlns="http://www.w3.org/2000/svg" xmlns:ev="http://www.w3.org/2001/xml-events" xmlns:xlink="http://www.w3.org/1999/xlink"><defs /><rect fill="white" height="80.68978145718575" width="82.50098118558526" x="0" y="0" /><path d="M36.26969017088413,45.828802194446325 m0.7043556123971939,-1.4087112247943878 l-2.6161780953407288,4.427378177642822 -3.0186671018600464,4.0248894691467285 l-1.71057790517807,1.6099557280540466 -2.213689088821411,0.10062223300337791 l-1.207466796040535,-0.7043556123971939 -1.207466796040535,-4.7292450070381165 l0.30186669901013374,-2.1130669116973877 2.213689088821411,-3.42115581035614 l3.0186671018600464,-3.11928927898407 0.10062223300337791,-0.6037333980202675 l-3.622400462627411,-3.7230226397514343 -0.7043556123971939,-2.8174224495887756 l-0.40248893201351166,-3.622400462627411 0.10062223300337791,-2.41493359208107 l0.30186669901013374,-1.3080890476703644 2.5155559182167053,-1.0062223672866821 l1.1068445444107056,0.20124446600675583 1.71057790517807,1.71057790517807 l4.528000354766846,6.037334203720093 1.1068445444107056,2.213689088821411 l0.30186669901013374,1.8112002313137054 0.0,-0.6037333980202675 m6.23857855796814,8.653512001037598 l0.20124446600675583,2.6161780953407288 1.9118224084377289,7.144178748130798 l0.40248893201351166,0.5031111836433411 1.0062223672866821,0.40248893201351166 l1.6099557280540466,-0.20124446600675583 2.8174224495887756,-2.213689088821411 l1.8112002313137054,-3.11928927898407 0.0,-3.7230226397514343 l-3.0186671018600464,-2.213689088821411 -2.41493359208107,-0.9056001156568527 l4.7292450070381165,-2.918044626712799 1.207466796040535,-1.6099557280540466 l2.716800272464752,-5.2323561906814575 0.5031111836433411,-1.4087112247943878 l0.20124446600675583,-2.0124447345733643 -0.40248893201351166,-1.6099557280540466 l-1.9118224084377289,-1.1068445444107056 -2.3143114149570465,-0.30186669901013374 l-2.0124447345733643,0.30186669901013374 -1.0062223672866821,0.6037333980202675 l-1.8112002313137054,2.213689088821411 -3.3205336332321167,4.82986718416214 l-0.6037333980202675,1.1068445444107056 0.40248893201351166,-0.20124446600675583 m-0.20124446600675583,0.0 l-0.9056001156568527,0.8049778640270233 0.10062223300337791,5.634844899177551 l-1.1068445444107056,3.0186671018600464 -0.30186669901013374,2.41493359208107 l-1.6099557280540466,3.5217782855033875 -1.1068445444107056,1.1068445444107056 l-1.5093335509300232,0.30186669901013374 -1.1068445444107056,-0.40248893201351166 l-1.0062223672866821,-1.3080890476703644 -0.5031111836433411,-3.5217782855033875 l0.0,-4.226133823394775 0.5031111836433411,-3.622400462627411 l1.71057790517807,-5.836089253425598 1.207466796040535,-1.1068445444107056 l1.4087112247943878,-0.6037333980202675 0.6037333980202675,0.30186669901013374 l0.9056001156568527,1.3080890476703644 0.20124446600675583,0.9056001156568527 l0.30186669901013374,4.930489361286163 m-0.7043556123971939,-5.534222722053528 l3.7230226397514343,-4.326756000518799 m-6.037334203720093,2.716800272464752 l-1.71057790517807,-1.9118224084377289 0.20124446600675583,-0.40248893201351166 " fill="none" stroke="black" stroke-width="1" /></svg>