<?xml version="1.0" encoding="utf-8" ?>
<svg baseProfile="full" height="56.43982280045748" version="1.1" width="105.74471799656749" xmlns="http://www.w3.org/2000/svg" xmlns:ev="http://www.w3.org/2001/xml-events" xmlns:xlink="http://www.w3.org/1999/xlink"><defs /><rect fill="white" height="56.43982280045748" width="105.74471799656749" x="0" y="0" /><path d="M29.02488872408867,25.301866699010134 m2.6161780953407288,-0.30186669901013374 l4.628622829914093,0.20124446600675583 11.873424053192139,2.8174224495887756 l2.3143114149570465,0.10062223300337791 m-25.457425117492676,0.6037333980202675 l17.10577964782715,0.40248893201351166 5.936712026596069,2.213689088821411 l1.1068445444107056,0.10062223300337791 3.11928927898407,-0.30186669901013374 l1.6099557280540466,-1.0062223672866821 m1.1068445444107056,-4.427378177642822 l-2.1130669116973877,0.10062223300337791 -1.1068445444107056,0.5031111836433411 l-0.6037333980202675,1.0062223672866821 0.0,2.8174224495887756 l0.30186669901013374,0.5031111836433411 1.5093335509300232,0.40248893201351166 l1.207466796040535,0.0 1.6099557280540466,-0.7043556123971939 l0.6037333980202675,-1.0062223672866821 0.20124446600675583,-1.5093335509300232 l-0.7043556123971939,-1.5093335509300232 -1.4087112247943878,-0.30186669901013374 m1.9118224084377289,-0.20124446600675583 l0.5031111836433411,0.5031111836433411 5.433600544929504,1.207466796040535 l5.433600544929504,0.5031111836433411 m-11.068445444107056,1.5093335509300232 l21.331913471221924,0.8049778640270233 m-10.665956735610962,-2.716800272464752 l6.23857855796814,-0.10062223300337791 7.144178748130798,0.40248893201351166 " fill="none" stroke="black" stroke-width="1" /></svg>