<?xml version="1.0" encoding="utf-8" ?>
<svg baseProfile="full" height="60.967823658138514" version="1.1" width="119.63058328256011" xmlns="http://www.w3.org/2000/svg" xmlns:ev="http://www.w3.org/2001/xml-events" xmlns:xlink="http://www.w3.org/1999/xlink"><defs /><rect fill="white" height="60.967823658138514" width="119.63058328256011" x="0" y="0" /><path d="M25.000000596046448,27.314311545342207 m5.836089253425598,-1.207466796040535 l5.2323561906814575,-0.6037333980202675 10.565334558486938,-0.30186669901013374 l7.949156165122986,0.6037333980202675 m-29.582936763763428,-0.30186669901013374 l1.71057790517807,8.854756355285645 2.1130669116973877,-0.20124446600675583 l6.84231162071228,-1.6099557280540466 5.332978367805481,-0.6037333980202675 l7.345423102378845,-0.10062223300337791 7.747911810874939,1.5093335509300232 m-1.5093335509300232,-8.15040111541748 l0.5031111836433411,6.037334203720093 1.0062223672866821,1.1068445444107056 l5.332978367805481,0.30186669901013374 4.7292450070381165,1.0062223672866821 l1.6099557280540466,-0.10062223300337791 0.5031111836433411,-2.1130669116973877 l-0.30186669901013374,-4.7292450070381165 -1.9118224084377289,-1.1068445444107056 l-2.1130669116973877,-0.6037333980202675 -5.332978367805481,0.10062223300337791 l-2.8174224495887756,0.30186669901013374 -1.8112002313137054,0.6037333980202675 m11.571556329727173,-1.0062223672866821 l14.99271273612976,1.3080890476703644 13.08089017868042,0.40248893201351166 m-28.1742262840271,7.144178748130798 l17.608890533447266,1.8112002313137054 6.54044508934021,0.30186669901013374 l4.628622829914093,-0.20124446600675583 0.40248893201351166,-1.6099557280540466 l-1.5093335509300232,-7.747911810874939 " fill="none" stroke="black" stroke-width="1" /></svg>