<?xml version="1.0" encoding="utf-8" ?>
<svg baseProfile="full" height="90.04764845594764" version="1.1" width="98.0974274687469" xmlns="http://www.w3.org/2000/svg" xmlns:ev="http://www.w3.org/2001/xml-events" xmlns:xlink="http://www.w3.org/1999/xlink"><defs /><rect fill="white" height="90.04764845594764" width="98.0974274687469" x="0" y="0" /><path d="M49.35058079659939,39.5902232080698 m-6.037334203720093,-7.546667456626892 l-2.5155559182167053,-1.5093335509300232 -6.23857855796814,0.30186669901013374 l-4.528000354766846,1.1068445444107056 -3.5217782855033875,2.41493359208107 l-1.1068445444107056,1.5093335509300232 -0.40248893201351166,1.5093335509300232 l0.30186669901013374,2.5155559182167053 0.8049778640270233,2.1130669116973877 l4.326756000518799,4.930489361286163 4.628622829914093,3.8236448168754578 l7.949156165122986,3.8236448168754578 1.0062223672866821,0.0 l-1.9118224084377289,2.0124447345733643 -2.5155559182167053,4.125511646270752 l0.0,2.6161780953407288 1.0062223672866821,1.5093335509300232 l1.5093335509300232,0.20124446600675583 2.5155559182167053,-2.41493359208107 l0.5031111836433411,-1.0062223672866821 0.7043556123971939,-3.5217782855033875 m8.552889823913574,-19.520713090896606 l0.0,-0.5031111836433411 1.6099557280540466,-2.8174224495887756 l1.1068445444107056,-2.8174224495887756 2.213689088821411,-3.924266993999481 l3.3205336332321167,-3.42115581035614 1.5093335509300232,-0.10062223300337791 l1.5093335509300232,0.7043556123971939 5.332978367805481,5.534222722053528 l1.5093335509300232,4.226133823394775 0.6037333980202675,4.930489361286163 l-0.20124446600675583,3.8236448168754578 -1.3080890476703644,5.031111836433411 l-1.1068445444107056,2.6161780953407288 -1.8112002313137054,2.1130669116973877 l-1.0062223672866821,0.5031111836433411 -2.5155559182167053,0.20124446600675583 l-3.0186671018600464,0.8049778640270233 -6.137956380844116,-0.30186669901013374 l2.5155559182167053,2.0124447345733643 2.5155559182167053,2.918044626712799 l1.0062223672866821,2.41493359208107 -0.30186669901013374,1.5093335509300232 l-1.5093335509300232,0.7043556123971939 -3.11928927898407,-0.5031111836433411 l-1.6099557280540466,-3.42115581035614 m-5.936712026596069,-17.508268356323242 " fill="none" stroke="black" stroke-width="1" /></svg>