<?xml version="1.0" encoding="utf-8" ?>
<svg baseProfile="full" height="67.10577884688973" version="1.1" width="152.23218793049455" xmlns="http://www.w3.org/2000/svg" xmlns:ev="http://www.w3.org/2001/xml-events" xmlns:xlink="http://www.w3.org/1999/xlink"><defs /><rect fill="white" height="67.10577884688973" width="152.23218793049455" x="0" y="0" /><path d="M62.532092817127705,25.804978236556053 m0.0,0.8049778640270233 l-1.3080890476703644,3.924266993999481 -0.40248893201351166,5.2323561906814575 l0.8049778640270233,1.4087112247943878 0.8049778640270233,0.7043556123971939 l0.9056001156568527,0.6037333980202675 1.5093335509300232,0.40248893201351166 l6.54044508934021,0.6037333980202675 29.884803295135498,0.7043556123971939 l2.716800272464752,-1.3080890476703644 0.8049778640270233,-1.207466796040535 l0.10062223300337791,-2.6161780953407288 -0.9056001156568527,-2.0124447345733643 l-0.8049778640270233,-1.207466796040535 -1.71057790517807,-1.3080890476703644 l-2.41493359208107,-0.8049778640270233 -10.263468027114868,-2.1130669116973877 l-13.986490964889526,-2.0124447345733643 -7.747911810874939,0.0 l-4.226133823394775,0.7043556123971939 m16.099557876586914,-1.3080890476703644 l-0.5031111836433411,0.0 -0.6037333980202675,3.0186671018600464 l-3.7230226397514343,10.967823266983032 m18.112001419067383,-9.156623482704163 l-1.8112002313137054,2.3143114149570465 -3.622400462627411,6.4398229122161865 l-1.6099557280540466,1.71057790517807 m-9.96160089969635,-5.936712026596069 l14.489601850509644,0.10062223300337791 m11.571556329727173,-4.226133823394775 l0.20124446600675583,-0.5031111836433411 4.326756000518799,0.0 l21.432535648345947,1.9118224084377289 m-26.46364688873291,3.42115581035614 l-1.9118224084377289,0.5031111836433411 -0.5031111836433411,0.8049778640270233 l-0.10062223300337791,1.207466796040535 3.924266993999481,0.20124446600675583 l7.546667456626892,1.1068445444107056 12.77902364730835,2.716800272464752 l3.7230226397514343,0.5031111836433411 m-60.97707271575928,-16.099557876586914 l-15.998934507369995,-0.10062223300337791 -8.049778938293457,0.6037333980202675 l-8.15040111541748,1.6099557280540466 -2.6161780953407288,0.8049778640270233 l-4.82986718416214,1.9118224084377289 -0.6037333980202675,0.9056001156568527 m35.82151412963867,5.936712026596069 l-1.6099557280540466,-0.8049778640270233 -4.7292450070381165,-0.8049778640270233 l-5.131734013557434,-0.40248893201351166 -5.735467076301575,0.0 l-5.836089253425598,0.40248893201351166 -12.678401470184326,2.1130669116973877 " fill="none" stroke="black" stroke-width="1" /></svg>