<?xml version="1.0" encoding="utf-8" ?>
<svg baseProfile="full" height="84.11093719303608" version="1.1" width="91.25511467456818" xmlns="http://www.w3.org/2000/svg" xmlns:ev="http://www.w3.org/2001/xml-events" xmlns:xlink="http://www.w3.org/1999/xlink"><defs /><rect fill="white" height="84.11093719303608" width="91.25511467456818" x="0" y="0" /><path d="M31.439822912216187,42.3070246912539 m-2.8174224495887756,-3.3205336332321167 l-2.1130669116973877,-4.0248894691467285 -1.5093335509300232,-4.7292450070381165 l9.559112191200256,7.949156165122986 0.5031111836433411,0.10062223300337791 l0.40248893201351166,-1.5093335509300232 3.3205336332321167,-0.9056001156568527 l3.8236448168754578,0.0 5.031111836433411,0.7043556123971939 l1.1068445444107056,-3.11928927898407 1.207466796040535,-2.213689088821411 l1.4087112247943878,-1.5093335509300232 6.942933797836304,-4.7292450070381165 l0.30186669901013374,0.5031111836433411 0.0,1.5093335509300232 l-0.40248893201351166,2.213689088821411 -2.5155559182167053,8.854756355285645 m-24.14933681488037,4.326756000518799 l-2.0124447345733643,3.7230226397514343 -1.1068445444107056,4.628622829914093 l1.4087112247943878,3.622400462627411 2.0124447345733643,2.3143114149570465 l1.4087112247943878,1.0062223672866821 2.918044626712799,1.0062223672866821 l9.056000709533691,0.40248893201351166 4.7292450070381165,-0.7043556123971939 l3.8236448168754578,-1.8112002313137054 3.3205336332321167,-3.0186671018600464 l1.6099557280540466,-2.1130669116973877 1.8112002313137054,-4.0248894691467285 l0.30186669901013374,-1.5093335509300232 -0.10062223300337791,-2.3143114149570465 l-0.8049778640270233,-2.5155559182167053 -1.3080890476703644,-1.71057790517807 l-2.6161780953407288,-1.4087112247943878 m-17.40764617919922,7.747911810874939 l-3.622400462627411,0.40248893201351166 -0.8049778640270233,-1.5093335509300232 l-0.10062223300337791,-1.0062223672866821 2.213689088821411,-1.4087112247943878 l1.5093335509300232,-0.6037333980202675 1.0062223672866821,0.0 l1.1068445444107056,1.4087112247943878 0.10062223300337791,1.0062223672866821 l-0.20124446600675583,0.5031111836433411 -1.9118224084377289,0.9056001156568527 m9.65973436832428,-1.5093335509300232 l-2.213689088821411,-1.8112002313137054 -0.7043556123971939,-1.0062223672866821 l2.0124447345733643,-0.8049778640270233 1.6099557280540466,-0.20124446600675583 l1.5093335509300232,0.30186669901013374 0.5031111836433411,0.20124446600675583 l0.30186669901013374,1.0062223672866821 -0.40248893201351166,1.0062223672866821 l-3.42115581035614,1.1068445444107056 m-8.049778938293457,-7.244800925254822 l1.207466796040535,2.41493359208107 m0.7043556123971939,-2.3143114149570465 l0.6037333980202675,2.1130669116973877 m-12.980268001556396,12.376534938812256 l4.628622829914093,-0.6037333980202675 5.332978367805481,-0.10062223300337791 m-7.144178748130798,2.716800272464752 l2.1130669116973877,-1.0062223672866821 5.936712026596069,-1.4087112247943878 m-3.8236448168754578,3.8236448168754578 l2.41493359208107,-2.5155559182167053 2.1130669116973877,-1.3080890476703644 m8.049778938293457,-3.5217782855033875 l1.9118224084377289,-0.5031111836433411 2.716800272464752,-0.20124446600675583 l9.65973436832428,0.20124446600675583 4.125511646270752,-0.40248893201351166 m-17.206401824951172,1.1068445444107056 l0.5031111836433411,0.0 " fill="none" stroke="black" stroke-width="1" /></svg>