<?xml version="1.0" encoding="utf-8" ?>
<svg baseProfile="full" height="81.49476017802954" version="1.1" width="73.04249100387096" xmlns="http://www.w3.org/2000/svg" xmlns:ev="http://www.w3.org/2001/xml-events" xmlns:xlink="http://www.w3.org/1999/xlink"><defs /><rect fill="white" height="81.49476017802954" width="73.04249100387096" x="0" y="0" /><path d="M29.62862266227603,48.04249241948128 m-2.41493359208107,-2.5155559182167053 l-1.71057790517807,-3.7230226397514343 -0.40248893201351166,-2.1130669116973877 l-0.10062223300337791,-5.534222722053528 1.1068445444107056,-2.918044626712799 l3.42115581035614,-4.427378177642822 2.213689088821411,-1.5093335509300232 l3.3205336332321167,-0.20124446600675583 2.5155559182167053,1.3080890476703644 l3.42115581035614,3.622400462627411 1.71057790517807,3.42115581035614 l0.7043556123971939,2.6161780953407288 0.0,2.6161780953407288 l-1.5093335509300232,2.918044626712799 -3.2199114561080933,4.125511646270752 l-3.924266993999481,2.213689088821411 -3.622400462627411,0.7043556123971939 m7.144178748130798,-3.11928927898407 l2.41493359208107,2.3143114149570465 5.634844899177551,2.6161780953407288 l1.71057790517807,0.20124446600675583 m-16.099557876586914,-2.716800272464752 l0.0,4.125511646270752 -0.8049778640270233,1.71057790517807 l-2.1130669116973877,2.1130669116973877 -1.71057790517807,0.6037333980202675 m5.634844899177551,-20.124447345733643 l0.40248893201351166,-0.5031111836433411 0.7043556123971939,0.20124446600675583 l0.40248893201351166,0.8049778640270233 0.10062223300337791,0.7043556123971939 l-0.5031111836433411,0.40248893201351166 -0.6037333980202675,0.0 l-0.10062223300337791,-1.207466796040535 0.5031111836433411,0.0 l0.40248893201351166,0.5031111836433411 -0.5031111836433411,0.40248893201351166 l-0.5031111836433411,0.0 0.0,-0.5031111836433411 m1.6099557280540466,-0.9056001156568527 l1.207466796040535,-3.7230226397514343 1.5093335509300232,-2.6161780953407288 m-3.42115581035614,6.54044508934021 l-0.30186669901013374,1.8112002313137054 m0.20124446600675583,-3.2199114561080933 l-1.0062223672866821,-10.062223672866821 m4.326756000518799,5.2323561906814575 l1.3080890476703644,-1.0062223672866821 m-6.23857855796814,-2.1130669116973877 l0.0,0.0 m-0.30186669901013374,-0.9056001156568527 l1.9118224084377289,2.6161780953407288 m2.918044626712799,-1.8112002313137054 " fill="none" stroke="black" stroke-width="1" /></svg>