<?xml version="1.0" encoding="utf-8" ?>
<svg baseProfile="full" height="2860.0" version="1.1" width="3075.0" xmlns="http://www.w3.org/2000/svg" xmlns:ev="http://www.w3.org/2001/xml-events" xmlns:xlink="http://www.w3.org/1999/xlink"><defs /><rect fill="white" height="2860.0" width="3075.0" x="0" y="0" /><path d="M1095.0,910.0 m-85.0,-75.0 l-215.0,-235.0 -105.0,-80.0 l-210.0,-120.0 -175.0,-40.0 l-135.0,0.0 -65.0,25.0 l-80.0,225.0 0.0,150.0 l10.0,50.0 80.0,115.0 l145.0,160.0 120.0,100.0 l225.0,140.0 400.0,170.0 l70.0,60.0 -90.0,75.0 l-115.0,225.0 -140.0,450.0 l-30.0,245.0 20.0,125.0 l45.0,80.0 60.0,30.0 l110.0,-15.0 105.0,-65.0 l130.0,-175.0 155.0,-265.0 l100.0,-265.0 25.0,-110.0 l0.0,-145.0 -15.0,555.0 l10.0,380.0 35.0,115.0 l55.0,40.0 35.0,0.0 l70.0,-50.0 45.0,-70.0 l75.0,-265.0 5.0,-220.0 l-55.0,-530.0 15.0,70.0 l135.0,295.0 65.0,110.0 l125.0,125.0 190.0,85.0 l85.0,15.0 175.0,-15.0 l175.0,-60.0 15.0,-30.0 l0.0,-90.0 -85.0,-230.0 l-270.0,-290.0 -365.0,-305.0 l115.0,-15.0 255.0,-155.0 l270.0,-215.0 140.0,-145.0 l105.0,-150.0 165.0,-305.0 l30.0,-170.0 -10.0,-40.0 l-45.0,-55.0 -155.0,-55.0 l-105.0,-5.0 -305.0,110.0 l-260.0,215.0 -280.0,285.0 l-55.0,125.0 -10.0,80.0 l-60.0,-370.0 -75.0,-285.0 l-140.0,-155.0 -110.0,-45.0 l-75.0,-5.0 -20.0,15.0 l-115.0,380.0 0.0,110.0 l50.0,190.0 0.0,90.0 l-40.0,30.0 -35.0,90.0 l-85.0,-45.0 -100.0,-25.0 " fill="none" stroke="black" stroke-width="1" /></svg>