<?xml version="1.0" encoding="utf-8" ?>
<svg baseProfile="full" height="76.03743863292038" version="1.1" width="84.05798073828919" xmlns="http://www.w3.org/2000/svg" xmlns:ev="http://www.w3.org/2001/xml-events" xmlns:xlink="http://www.w3.org/1999/xlink"><defs /><rect fill="white" height="76.03743863292038" width="84.05798073828919" x="0" y="0" /><path d="M45.95018617808819,29.658251453656703 m-1.6233359277248383,-1.531783640384674 l-2.100946605205536,-1.2725518643856049 -3.2547959685325623,-1.2193510681390762 l-3.466247320175171,-0.6024892255663872 -3.309318423271179,-0.032075655180960894 l-2.7952101826667786,0.6762541085481644 -2.55638986825943,1.348465234041214 l-1.198333352804184,1.1737687140703201 -0.6456085294485092,1.3411223888397217 l0.010613896884024143,2.1271613240242004 0.6313294917345047,1.1346116662025452 l1.8515928089618683,1.5584956109523773 2.988201379776001,1.360662430524826 l3.758077919483185,0.9449589252471924 7.700330018997192,0.7370702177286148 l7.544710636138916,-0.0900809746235609 4.259737432003021,-0.789283886551857 l2.4350637197494507,-1.0802961140871048 1.6222409904003143,-1.5143859386444092 l0.535789392888546,-1.7978183925151825 -0.4457926005125046,-2.086329162120819 l-1.601148098707199,-1.7968320846557617 -2.4211686849594116,-1.4751388132572174 l-2.917466461658478,-0.9480671584606171 -3.4341078996658325,-0.36537252366542816 l-3.777093291282654,0.08121037855744362 -3.288801610469818,0.6690485030412674 m-14.452016353607178,5.817080140113831 l0.031026452779769897,9.007883667945862 0.0016137349302880466,7.438339591026306 l0.5311369523406029,0.45560624450445175 3.891998827457428,0.619904175400734 l17.40671396255493,1.194385513663292 9.043201208114624,0.2950148470699787 l1.0825277864933014,-0.7010146230459213 0.5551889166235924,-1.2454406917095184 l0.5144802108407021,-4.221266508102417 -0.032123199198395014,-5.459538698196411 l-0.8861885219812393,-4.859071671962738 -0.8377705514431,-1.7452353239059448 m-27.477993965148926,1.8643417954444885 l-0.10807870887219906,-3.3119502663612366 -0.945415124297142,-4.909912943840027 l0.6879798322916031,-0.6259052455425262 1.2964196503162384,0.0010472153371665627 l0.01785220578312874,6.539684534072876 0.03331633983179927,2.5844788551330566 m4.600494801998138,-3.180573880672455 l0.08912128396332264,-4.580276310443878 1.4810603857040405,-0.7884109020233154 l0.5092726647853851,0.3648997098207474 0.41219312697649,1.5983499586582184 l-0.021760279778391123,4.789907932281494 0.42007461190223694,1.0697609186172485 m4.428429007530212,-1.095510795712471 l-0.2727719582617283,-2.1177825331687927 -0.057906266301870346,-4.38193291425705 l2.6594963669776917,0.34010808914899826 0.4281628131866455,0.5254923924803734 l-0.024237351026386023,6.5458619594573975 0.43571360409259796,1.5502171218395233 m2.260102331638336,-2.9818883538246155 l-0.030140148010104895,-3.3899039030075073 0.28487036004662514,-1.2587131559848785 l0.8186148107051849,-0.9308577328920364 1.3448511064052582,-0.26329265907406807 l0.4317597299814224,0.5227050185203552 0.15955787152051926,1.3200533390045166 l-0.6026219949126244,3.26567143201828 -0.033691118005663157,2.168779969215393 m-19.488883018493652,0.5037800967693329 l-0.5419150739908218,-1.3954345881938934 -0.08397763594985008,-1.5006570518016815 l0.6154884770512581,-1.5123412013053894 1.282278597354889,-0.8907189220190048 l1.5715031325817108,-0.03818742232397199 0.5151135101914406,0.5543909221887589 l0.27042537927627563,1.1655071377754211 -0.14609050936996937,2.2061850130558014 l-0.5368448793888092,1.0711736977100372 m-2.5666391849517822,5.9691184759140015 l-0.48576466739177704,-0.03678981214761734 0.013386571081355214,-0.754617229104042 l0.5202309787273407,-0.9554432332515717 1.4101913571357727,-0.8905297517776489 " fill="none" stroke="black" stroke-width="1" /></svg>