<?xml version="1.0" encoding="utf-8" ?>
<svg baseProfile="full" height="69.90040138363838" version="1.1" width="71.97007411450613" xmlns="http://www.w3.org/2000/svg" xmlns:ev="http://www.w3.org/2001/xml-events" xmlns:xlink="http://www.w3.org/1999/xlink"><defs /><rect fill="white" height="69.90040138363838" width="71.97007411450613" x="0" y="0" /><path d="M26.816547748749144,27.297536870464683 m2.4994301795959473,-1.4486491680145264 l4.11673903465271,-0.7215318828821182 9.521980881690979,-0.127355819568038 l2.382111996412277,0.5721252411603928 0.5298447981476784,0.676681250333786 l0.7432641088962555,6.010236740112305 0.3601553663611412,4.872108101844788 l-0.11020139791071415,4.013274013996124 -0.9746457636356354,2.20320463180542 l-1.0678628087043762,0.7980413734912872 -4.06444638967514,0.7547300308942795 l-7.2509050369262695,-0.42542900890111923 -3.2572004199028015,-1.1041033267974854 l-4.199678897857666,-2.6743996143341064 -1.0449349135160446,-2.1704384684562683 l-0.00019848637748509645,-3.889389932155609 0.716240182518959,-5.577895641326904 l0.8684085309505463,-2.542021870613098 m8.082162141799927,6.873453259468079 l-0.36761753261089325,-0.20459890365600586 5.7256406762462575e-05,0.5080552399158478 l0.1895589753985405,0.06095693912357092 0.058290986344218254,-0.24209998548030853 m2.3860546946525574,-0.2396669238805771 l-0.09344273246824741,0.15645092353224754 -0.5128992721438408,0.23703964427113533 l-0.07177560590207577,-0.16694169491529465 m-0.6430251896381378,-0.2919360063970089 l-0.045022694393992424,0.5585066601634026 -0.48097703605890274,0.05572307389229536 l-0.3562108799815178,-0.40722232311964035 0.20376648753881454,0.06182799115777016 m-0.2110610343515873,-1.387277990579605 l-0.0003441713852225803,0.20802263170480728 -0.49840305000543594,0.1175177376717329 m0.38673311471939087,-1.2434320896863937 l0.7263476401567459,-0.6108663976192474 -0.03376785898581147,0.26206284761428833 m-1.268622726202011,0.022048258688300848 l-2.6985925436019897,-0.9257630258798599 -1.525052934885025,-1.1529133468866348 l1.1168809980154037,-0.7714790850877762 1.7432308197021484,-0.11075557209551334 l1.5600627660751343,1.133802980184555 m1.5753582119941711,1.0021575540304184 l1.5700049698352814,-0.5390328913927078 0.6508133560419083,-0.25995412841439247 l0.30886024236679077,-0.10387739166617393 -0.3837030753493309,0.48347920179367065 l-1.792474389076233,0.6348535418510437 -0.5059384927153587,-0.04150728229433298 " fill="none" stroke="black" stroke-width="1" /></svg>