<?xml version="1.0" encoding="utf-8" ?>
<svg baseProfile="full" height="1130.0" version="1.1" width="1215.0" xmlns="http://www.w3.org/2000/svg" xmlns:ev="http://www.w3.org/2001/xml-events" xmlns:xlink="http://www.w3.org/1999/xlink"><defs /><rect fill="white" height="1130.0" width="1215.0" x="0" y="0" /><path d="M55.0,150.0 m120.0,-70.0 l195.0,-35.0 475.0,-20.0 l185.0,10.0 45.0,25.0 l50.0,185.0 20.0,165.0 l45.0,505.0 -5.0,105.0 l-55.0,80.0 -60.0,5.0 l-420.0,-70.0 -130.0,-45.0 l-305.0,-65.0 -50.0,-30.0 l-20.0,-30.0 -70.0,-275.0 l-50.0,-400.0 m265.0,50.0 l-20.0,50.0 15.0,-45.0 l-30.0,-10.0 -35.0,25.0 m455.0,-70.0 l-50.0,15.0 -10.0,-5.0 m375.0,-25.0 l-50.0,40.0 -5.0,20.0 l25.0,-5.0 -35.0,-5.0 m150.0,575.0 l-20.0,80.0 -25.0,-10.0 l-10.0,5.0 m-390.0,-20.0 l0.0,-55.0 -45.0,-25.0 l-15.0,20.0 25.0,40.0 m-360.0,-45.0 l45.0,-30.0 5.0,15.0 m270.0,-230.0 l10.0,-105.0 75.0,15.0 l90.0,45.0 15.0,20.0 l-40.0,155.0 -30.0,15.0 l-55.0,-45.0 " fill="none" stroke="black" stroke-width="1" /></svg>