<?xml version="1.0" encoding="utf-8" ?>
<svg baseProfile="full" height="1765.0" version="1.1" width="1095.0" xmlns="http://www.w3.org/2000/svg" xmlns:ev="http://www.w3.org/2001/xml-events" xmlns:xlink="http://www.w3.org/1999/xlink"><defs /><rect fill="white" height="1765.0" width="1095.0" x="0" y="0" /><path d="M500.0,405.0 m-70.0,-55.0 l-100.0,-5.0 -110.0,55.0 l-75.0,60.0 -100.0,155.0 l-20.0,135.0 15.0,65.0 l40.0,60.0 70.0,50.0 l140.0,30.0 155.0,-30.0 l120.0,-80.0 210.0,-180.0 l85.0,-90.0 65.0,-100.0 l30.0,-90.0 -25.0,-65.0 l-70.0,-40.0 -100.0,-15.0 l-270.0,-5.0 -120.0,20.0 l-230.0,70.0 -75.0,30.0 l-30.0,25.0 0.0,15.0 m115.0,115.0 l-50.0,65.0 -55.0,155.0 l0.0,145.0 80.0,795.0 l15.0,30.0 35.0,15.0 l515.0,-75.0 125.0,-35.0 l155.0,-65.0 0.0,-85.0 l-90.0,-540.0 -45.0,-360.0 m-675.0,675.0 l85.0,15.0 105.0,0.0 l310.0,-45.0 135.0,-50.0 l140.0,-80.0 20.0,-25.0 l-40.0,-25.0 m-850.0,485.0 l205.0,-50.0 410.0,-70.0 l200.0,-55.0 140.0,-65.0 l50.0,-35.0 m-775.0,-370.0 l0.0,-360.0 -10.0,-90.0 l-100.0,-335.0 m345.0,625.0 l-10.0,-135.0 10.0,-480.0 l-25.0,-85.0 m200.0,630.0 l35.0,-140.0 110.0,-260.0 l0.0,-145.0 10.0,-10.0 " fill="none" stroke="black" stroke-width="1" /></svg>