<?xml version="1.0" encoding="utf-8" ?>
<svg baseProfile="full" height="66.52773333713412" version="1.1" width="67.15718898223713" xmlns="http://www.w3.org/2000/svg" xmlns:ev="http://www.w3.org/2001/xml-events" xmlns:xlink="http://www.w3.org/1999/xlink"><defs /><rect fill="white" height="66.52773333713412" width="67.15718898223713" x="0" y="0" /><path d="M36.21516990708187,27.148298720130697 m-1.3570547103881836,-1.1593569070100784 l-2.3333126306533813,-0.7721497863531113 -2.650907039642334,0.019019091269001365 l-1.2970159947872162,0.6087611988186836 -1.7485584318637848,1.9650349020957947 l-1.0076174139976501,2.7267417311668396 -0.10847030207514763,3.148703873157501 l0.7758840173482895,2.533941864967346 2.3893673717975616,3.1847739219665527 l3.1324538588523865,1.742633581161499 2.6190027594566345,0.3813311457633972 l2.5929582118988037,-0.288153737783432 2.1153630316257477,-1.2369711697101593 l1.627955585718155,-1.9122858345508575 0.9720614552497864,-2.540806829929352 l0.21990930661559105,-2.9218634963035583 -0.47424089163541794,-2.4719852209091187 l-1.2550771236419678,-2.1860234439373016 -1.8014179170131683,-1.6799025237560272 l-2.0439065992832184,-0.9892448782920837 -2.117709517478943,-0.3004962019622326 l-1.954888105392456,0.3256511315703392 m-3.0928048491477966,10.514529943466187 l-0.4158485308289528,0.5153585597872734 0.3499797359108925,0.4576965793967247 l0.6188786402344704,-0.7146920263767242 -0.28420286253094673,-0.18365196883678436 l-0.07044493220746517,0.5830805003643036 0.7469248026609421,-0.5715826898813248 l-0.3360239788889885,0.17219074070453644 0.13511501252651215,0.31936198472976685 l0.42796339839696884,-0.6454318761825562 -0.32414596527814865,0.17908334732055664 l0.030246491078287363,0.29863253235816956 0.5632281303405762,-0.641128346323967 l-0.31944915652275085,0.20445585250854492 0.050832866691052914,0.21323472261428833 l0.514034740626812,-0.4925810545682907 m0.7615596055984497,0.017569538904353976 l1.9259090721607208,-1.5082831680774689 3.018878996372223,-2.0329685509204865 m-5.410881042480469,3.7673279643058777 l2.892758548259735,0.056436508893966675 3.7414246797561646,0.21519696339964867 m-8.297547101974487,-3.5470083355903625 l-1.4372144639492035,-0.08521050214767456 -3.2991206645965576,-1.1799045652151108 m4.802799820899963,2.581174671649933 l-4.63123083114624,1.3103574514389038 m6.250229477882385,-3.736216723918915 l-0.39174050092697144,0.5282730236649513 0.015184348449110985,0.6335525214672089 l0.5171917751431465,0.16975518316030502 -0.008108430192805827,-1.3471701741218567 l-0.543946735560894,-0.36662764847278595 -0.5282353237271309,0.2243010327219963 l-0.18588824197649956,0.8724024891853333 0.5358505994081497,0.1940627582371235 l0.1335900742560625,-0.9178917855024338 -0.6982680410146713,0.4258725047111511 l0.18572669476270676,0.4779200255870819 0.43175697326660156,-0.6765291094779968 l-0.35924114286899567,-0.021773050539195538 -0.16108911484479904,0.7101381570100784 l0.5931686609983444,-0.587402768433094 -0.38858450949192047,-0.007579621160402894 l-0.05180343519896269,0.6439870595932007 " fill="none" stroke="black" stroke-width="1" /></svg>