<?xml version="1.0" encoding="utf-8" ?>
<svg baseProfile="full" height="1450.0" version="1.1" width="1465.0" xmlns="http://www.w3.org/2000/svg" xmlns:ev="http://www.w3.org/2001/xml-events" xmlns:xlink="http://www.w3.org/1999/xlink"><defs /><rect fill="white" height="1450.0" width="1465.0" x="0" y="0" /><path d="M560.0,510.0 m-10.0,-95.0 l-35.0,-80.0 -105.0,-200.0 l-50.0,-55.0 -100.0,-30.0 l-115.0,0.0 -95.0,80.0 l-25.0,80.0 0.0,110.0 l35.0,170.0 80.0,135.0 l115.0,115.0 65.0,35.0 l-130.0,45.0 -75.0,90.0 l-65.0,195.0 -25.0,140.0 l0.0,105.0 45.0,35.0 l110.0,30.0 170.0,10.0 l70.0,-55.0 105.0,-140.0 l95.0,-235.0 m-25.0,-500.0 l-15.0,-30.0 0.0,-85.0 l40.0,-160.0 60.0,-70.0 l35.0,-15.0 65.0,10.0 l10.0,25.0 15.0,120.0 l10.0,575.0 35.0,360.0 l-55.0,50.0 -85.0,15.0 l-55.0,-80.0 -60.0,-200.0 l-25.0,-600.0 m300.0,15.0 l20.0,-95.0 50.0,-90.0 l135.0,-145.0 150.0,-65.0 l150.0,-5.0 25.0,15.0 l40.0,105.0 -5.0,205.0 l-155.0,310.0 -155.0,115.0 l125.0,10.0 30.0,30.0 l35.0,175.0 -5.0,65.0 l-135.0,150.0 -60.0,30.0 l-100.0,20.0 -105.0,-15.0 l-140.0,-120.0 -40.0,-65.0 m-165.0,-510.0 l215.0,10.0 " fill="none" stroke="black" stroke-width="1" /></svg>