<?xml version="1.0" encoding="utf-8" ?>
<svg baseProfile="full" height="78.51468414068222" version="1.1" width="77.30088997632265" xmlns="http://www.w3.org/2000/svg" xmlns:ev="http://www.w3.org/2001/xml-events" xmlns:xlink="http://www.w3.org/1999/xlink"><defs /><rect fill="white" height="78.51468414068222" width="77.30088997632265" x="0" y="0" /><path d="M35.18810842477251,36.33386734803935 m-0.16305634751915932,-1.8113386631011963 l-0.7170134782791138,-1.756540983915329 -1.407974362373352,-1.7342768609523773 l-1.7468109726905823,-1.1160293221473694 -2.2592882812023163,-0.3511923924088478 l-1.2687619030475616,0.28570976108312607 -0.9078115224838257,0.9113192558288574 l-0.7776594907045364,2.1249884366989136 -0.005304180667735636,2.9580414295196533 l0.8153460919857025,2.0267266035079956 2.9319629073143005,3.086981475353241 l0.13417827896773815,0.9693832695484161 -2.990178167819977,2.1093274652957916 l-1.2492820620536804,1.8253117799758911 -0.5470939353108406,1.7114084959030151 l-0.029360998887568712,2.476905733346939 0.6469125300645828,1.6575507819652557 l1.1505130678415298,1.1865625530481339 1.5073078870773315,0.6196195632219315 l2.347327172756195,0.0003584108708309941 1.6083599627017975,-0.7905763387680054 l1.7025156319141388,-2.0101967453956604 0.835813581943512,-2.011456936597824 l0.6239411234855652,-9.451387524604797 m1.4354375004768372,-3.983364701271057 l-0.47735996544361115,-1.5930987894535065 -0.27037546038627625,-4.580891132354736 l0.24687539786100388,-2.09133118391037 0.6542456895112991,-1.305847018957138 l1.0144878178834915,-0.6965337693691254 1.1623330414295197,0.07332650944590569 l0.8480320870876312,1.0665494948625565 0.8114966005086899,3.147400915622711 l0.29120849445462227,9.103874564170837 -0.455874428153038,7.190147042274475 l-0.8958437293767929,2.9103505611419678 -0.8623220771551132,0.8721392601728439 l-1.0952183604240417,0.0002669974128366448 -0.5079613626003265,-0.7247216254472733 l-0.45344095677137375,-2.395927459001541 -0.07547011598944664,-5.224369764328003 m4.21375960111618,-10.697814226150513 l1.6119380295276642,-2.0190998911857605 2.038312405347824,-1.4101050794124603 l2.897557318210602,-0.9357348829507828 1.9026961922645569,0.0007272381481016055 l1.745590716600418,1.113707572221756 1.0980945825576782,2.3529529571533203 l-0.07778582628816366,2.9199817776679993 -0.7965445518493652,1.6346940398216248 l-1.9491058588027954,1.8186497688293457 -4.585101008415222,1.9693657755851746 l3.6019206047058105,1.004713550209999 1.2122120708227158,0.8214391022920609 l1.2177714705467224,1.8805232644081116 0.47493964433670044,2.590699791908264 l-0.5387195199728012,2.4245646595954895 -1.0341759771108627,1.1663959920406342 l-2.429385781288147,0.9377486258745193 -6.288449764251709,-1.1966434866189957 l-0.7607056945562363,-0.9096060693264008 m-2.0453236997127533,-18.850088119506836 l0.7507912814617157,0.47620072960853577 " fill="none" stroke="black" stroke-width="1" /></svg>