<?xml version="1.0" encoding="utf-8" ?>
<svg baseProfile="full" height="73.42330778366886" version="1.1" width="88.67418291047215" xmlns="http://www.w3.org/2000/svg" xmlns:ev="http://www.w3.org/2001/xml-events" xmlns:xlink="http://www.w3.org/1999/xlink"><defs /><rect fill="white" height="73.42330778366886" width="88.67418291047215" x="0" y="0" /><path d="M53.381374664604664,30.216430489672348 m-0.4402308538556099,-0.5299879610538483 l-2.1976804733276367,-1.0163449496030807 -5.252181887626648,-1.3353802263736725 l-3.9618146419525146,-0.4660690575838089 -3.980349600315094,-0.024068360216915607 l-3.455045521259308,0.5728506669402122 -3.3401036262512207,1.2455763667821884 l-2.7468284964561462,1.7894265055656433 -1.3512901961803436,1.4066343009471893 l-1.2279415875673294,2.3492157459259033 -0.4279077798128128,2.765096426010132 l0.2865671180188656,2.764415740966797 0.7195473462343216,1.6360574960708618 l1.8753346800804138,2.1750174462795258 2.6765480637550354,1.8488232791423798 l3.33637535572052,1.443610042333603 5.546339750289917,1.2254548817873 l6.189085841178894,0.3565489500761032 5.94480037689209,-0.38084879517555237 l4.945193529129028,-1.2982667982578278 2.9709574580192566,-1.4446529746055603 l2.2447022795677185,-1.8675009906291962 1.402626633644104,-2.2713157534599304 l0.5361044779419899,-2.673569619655609 -0.2076994627714157,-2.683528959751129 l-1.031322404742241,-2.320704609155655 -1.7456267774105072,-2.2280769050121307 l-2.291686534881592,-1.8771593272686005 -2.5910142064094543,-1.4139045774936676 l-2.8945013880729675,-0.9687258303165436 -3.0138391256332397,-0.4333965480327606 l-2.885938584804535,-0.013471379643306136 m-7.783927321434021,7.968589663505554 l-0.1645098254084587,-0.18184373155236244 0.012827621540054679,0.22771300747990608 l0.010293405503034592,0.659824013710022 0.3812522813677788,-0.24678237736225128 l-0.06241857074201107,-0.6372101604938507 -0.1908663474023342,0.18511822447180748 l0.29820043593645096,0.05797145888209343 0.11613123118877411,-0.44335711747407913 l-0.202627032995224,0.10913772508502007 0.03386519616469741,0.16717446967959404 l0.39586786180734634,-0.5092548951506615 m0.5759669095277786,-0.19265707582235336 l0.06307692732661963,-5.326365232467651 0.009610954439267516,-3.386242687702179 " fill="none" stroke="black" stroke-width="1" /></svg>