<?xml version="1.0" encoding="utf-8" ?>
<svg baseProfile="full" height="1805.0" version="1.1" width="2245.0" xmlns="http://www.w3.org/2000/svg" xmlns:ev="http://www.w3.org/2001/xml-events" xmlns:xlink="http://www.w3.org/1999/xlink"><defs /><rect fill="white" height="1805.0" width="2245.0" x="0" y="0" /><path d="M1895.0,375.0 m-20.0,-25.0 l-135.0,-35.0 -160.0,-120.0 l-245.0,-105.0 -225.0,-55.0 l-275.0,-10.0 -170.0,40.0 l-170.0,120.0 -135.0,170.0 l-55.0,160.0 5.0,150.0 l40.0,70.0 60.0,70.0 l175.0,140.0 105.0,50.0 l235.0,70.0 130.0,15.0 l255.0,-10.0 110.0,-35.0 l200.0,-100.0 85.0,-55.0 l135.0,-135.0 75.0,-135.0 l25.0,-95.0 -10.0,-105.0 l-70.0,-90.0 -5.0,510.0 l-50.0,950.0 -125.0,-40.0 l-215.0,-40.0 -290.0,-105.0 l-190.0,-40.0 -710.0,-5.0 l-250.0,-65.0 155.0,-530.0 l30.0,-155.0 5.0,-200.0 m15.0,385.0 l305.0,40.0 395.0,130.0 l905.0,225.0 385.0,115.0 m-2125.0,-315.0 l355.0,85.0 640.0,75.0 l935.0,210.0 " fill="none" stroke="black" stroke-width="1" /></svg>