<?xml version="1.0" encoding="utf-8" ?>
<svg baseProfile="full" height="970.0" version="1.1" width="1640.0" xmlns="http://www.w3.org/2000/svg" xmlns:ev="http://www.w3.org/2001/xml-events" xmlns:xlink="http://www.w3.org/1999/xlink"><defs /><rect fill="white" height="970.0" width="1640.0" x="0" y="0" /><path d="M325.0,330.0 m335.0,-20.0 l205.0,15.0 250.0,-5.0 l270.0,-30.0 85.0,10.0 l105.0,40.0 40.0,120.0 l-20.0,50.0 -50.0,20.0 l-425.0,30.0 -200.0,385.0 l-200.0,-25.0 -5.0,-60.0 l105.0,-225.0 45.0,-205.0 l195.0,-25.0 75.0,5.0 l0.0,50.0 -55.0,135.0 m-290.0,-20.0 l-75.0,-5.0 m0.0,0.0 l-305.0,-35.0 -125.0,-5.0 l15.0,15.0 m0.0,0.0 l-125.0,-55.0 -75.0,-65.0 l-35.0,-70.0 -40.0,-160.0 l0.0,-170.0 205.0,10.0 l45.0,65.0 25.0,115.0 l30.0,30.0 " fill="none" stroke="black" stroke-width="1" /></svg>