<?xml version="1.0" encoding="utf-8" ?>
<svg baseProfile="full" height="62.24877927452326" version="1.1" width="73.03628792986274" xmlns="http://www.w3.org/2000/svg" xmlns:ev="http://www.w3.org/2001/xml-events" xmlns:xlink="http://www.w3.org/1999/xlink"><defs /><rect fill="white" height="62.24877927452326" width="73.03628792986274" x="0" y="0" /><path d="M25.264868385347654,26.00814755540341 m6.46260142326355,-0.37981145083904266 l4.334869980812073,0.4267223924398422 5.9643107652664185,-0.36443959921598434 l3.3078372478485107,-0.25702884420752525 2.22027450799942,0.040871710516512394 l0.48038050532341003,0.5466324090957642 0.001145114001701586,3.12392920255661 l-0.42528070509433746,4.711220860481262 -0.9126917272806168,2.9599404335021973 l-0.7589485496282578,0.4325946047902107 -5.763859152793884,-0.21984592080116272 l-7.093613147735596,-0.8795968443155289 -5.0738608837127686,-0.8351932466030121 l-2.3023150861263275,-1.0358372330665588 -0.31059199944138527,-0.7194416224956512 l0.38125429302453995,-5.47429084777832 m8.026225566864014,1.777016669511795 l-1.6327407956123352,-1.0646004229784012 -1.2041301280260086,-0.9711331129074097 l-1.844656616449356,-1.631578803062439 -2.247816175222397,-0.7235437631607056 l-1.8732628226280212,0.43518368154764175 m10.801610946655273,3.5822737216949463 l-1.8693244457244873,-1.505497545003891 -3.5838058590888977,-2.011856734752655 l-2.7311909198760986,-0.9708372503519058 m8.765291571617126,5.838439464569092 l-1.683548241853714,-0.773341953754425 -1.294686198234558,-0.6660313159227371 l-1.4298325777053833,-0.712449848651886 -1.4955666661262512,-0.6652819365262985 l-1.3875149190425873,-0.5307106301188469 -1.268906593322754,-0.2855389937758446 l-1.0978744179010391,0.10319684632122517 -0.9428995847702026,0.9054531902074814 " fill="none" stroke="black" stroke-width="1" /></svg>