<?xml version="1.0" encoding="utf-8" ?>
<svg baseProfile="full" height="1130.0" version="1.1" width="1025.0" xmlns="http://www.w3.org/2000/svg" xmlns:ev="http://www.w3.org/2001/xml-events" xmlns:xlink="http://www.w3.org/1999/xlink"><defs /><rect fill="white" height="1130.0" width="1025.0" x="0" y="0" /><path d="M45.0,1080.0 m-20.0,-80.0 l5.0,-230.0 400.0,-20.0 l540.0,30.0 30.0,70.0 l0.0,255.0 m-845.0,-325.0 l0.0,-100.0 45.0,-185.0 l520.0,-10.0 40.0,55.0 l35.0,115.0 20.0,155.0 m-465.0,-330.0 l0.0,-185.0 35.0,-45.0 l190.0,0.0 25.0,35.0 l30.0,230.0 m-195.0,-260.0 l0.0,-110.0 m95.0,85.0 l0.0,-115.0 m80.0,190.0 l20.0,-180.0 m-210.0,30.0 l-35.0,-35.0 10.0,-55.0 l50.0,-35.0 10.0,20.0 l-70.0,60.0 m135.0,30.0 l5.0,-100.0 -15.0,45.0 m150.0,65.0 l-20.0,-20.0 0.0,-105.0 l30.0,0.0 5.0,20.0 " fill="none" stroke="black" stroke-width="1" /></svg>