<?xml version="1.0" encoding="utf-8" ?>
<svg baseProfile="full" height="87.17287242412567" version="1.1" width="79.27799811586738" xmlns="http://www.w3.org/2000/svg" xmlns:ev="http://www.w3.org/2001/xml-events" xmlns:xlink="http://www.w3.org/1999/xlink"><defs /><rect fill="white" height="87.17287242412567" width="79.27799811586738" x="0" y="0" /><path d="M29.29774045944214,50.03766909241676 m-0.30461492016911507,-1.6811591386795044 l0.5316847562789917,-2.061283588409424 7.090932130813599,-7.943375110626221 l11.457716226577759,-2.7834931015968323 3.525383174419403,0.2731814421713352 l1.5327675640583038,0.8221983909606934 0.7562592625617981,0.9514843672513962 l0.3901294618844986,1.2088152766227722 -0.16435334458947182,2.1873673796653748 l-1.3049814105033875,2.2119587659835815 -2.4609827995300293,2.2805142402648926 l-4.6834588050842285,2.5665026903152466 -10.936706066131592,3.305538594722748 l-6.688934564590454,0.4003116115927696 -1.6043095290660858,-0.36068011075258255 l-0.9842441976070404,-0.8241560310125351 -0.4500273987650871,-1.2178638577461243 l0.08942079730331898,-1.376347690820694 0.7299321889877319,-1.1517249047756195 l1.3064530491828918,-0.8953426778316498 3.488633632659912,-1.1373276263475418 m8.222758173942566,-3.0960798263549805 l-0.07858735509216785,1.4872756600379944 -0.008881059475243092,7.403997778892517 l0.3596198931336403,9.119994044303894 0.6528685241937637,2.213718146085739 l0.5246715247631073,0.23117860779166222 1.238921731710434,-0.9140700846910477 l0.9530974924564362,-1.7110575735569 1.4272446930408478,-6.960331201553345 l0.24193454533815384,-8.035717606544495 -0.6416503340005875,-4.877738058567047 m-5.92521607875824,-0.7727240771055222 l-0.36604177206754684,-4.576837122440338 0.28719812631607056,-4.348909556865692 l1.0736900568008423,-3.1958475708961487 0.7634767144918442,-1.0665520280599594 l1.4727045595645905,-0.7130875438451767 1.8439316749572754,0.049167294055223465 l1.375899314880371,1.19721420109272 " fill="none" stroke="black" stroke-width="1" /></svg>