<?xml version="1.0" encoding="utf-8" ?>
<svg baseProfile="full" height="73.51195103488863" version="1.1" width="70.75054701301269" xmlns="http://www.w3.org/2000/svg" xmlns:ev="http://www.w3.org/2001/xml-events" xmlns:xlink="http://www.w3.org/1999/xlink"><defs /><rect fill="white" height="73.51195103488863" width="70.75054701301269" x="0" y="0" /><path d="M39.37402030453086,27.279901960864663 m-1.0767090320587158,-0.758180096745491 l-2.3333461582660675,-0.6915556639432907 -1.7433646321296692,-0.14887617900967598 l-2.2250302135944366,0.4325418919324875 -2.3345038294792175,1.2850338220596313 l-1.9704382121562958,1.9271697103977203 -1.4940214157104492,2.4774546921253204 l-0.9113858640193939,2.8868767619132996 -0.2852209471166134,3.245581090450287 l0.2556215785443783,2.8610602021217346 0.9920462965965271,2.5240033864974976 l1.567455679178238,2.1333013474941254 2.0290783047676086,1.6251347959041595 l2.3199518024921417,1.0236170142889023 2.6884952187538147,0.40888629853725433 l2.7630293369293213,-0.18853280693292618 2.328125089406967,-0.9987573325634003 l2.3355965316295624,-1.857692301273346 1.7546683549880981,-2.343878895044327 l1.177479475736618,-2.9034045338630676 0.5257728323340416,-3.1976035237312317 l0.013226511655375361,-3.1925970315933228 -0.5875275656580925,-2.5882351398468018 l-1.260235756635666,-2.455676794052124 -1.7539416253566742,-1.8676221370697021 l-2.1370184421539307,-1.285129338502884 -2.32355996966362,-0.6020908057689667 l-2.474743574857712,-0.030730394646525383 m-0.3629301115870476,2.860361635684967 l-0.0821856502443552,2.5233283638954163 0.06310912780463696,5.2752238512039185 m-0.30014680698513985,-0.6088381260633469 l1.4442023634910583,-0.6290686875581741 3.772895336151123,-0.36851026117801666 l3.157206177711487,-0.4364832490682602 m-9.981498718261719,-1.664196401834488 l-0.3028958663344383,0.5870766565203667 0.07011037785559893,1.0209116339683533 l0.6682837009429932,1.3974004983901978 1.1224334686994553,0.7022250443696976 l1.3940918445587158,-0.048673925921320915 0.9004829823970795,-0.8604143559932709 l0.3186831995844841,-1.5885187685489655 -0.5209008604288101,-1.5327496826648712 l-0.8212986588478088,-0.6613585352897644 -1.1654102802276611,-0.18838899210095406 l-1.4523762464523315,0.545908510684967 -0.7873792946338654,0.8181577175855637 m0.13089626096189022,-0.46580784022808075 l-0.0758846802636981,0.5778694152832031 0.046115671284496784,2.310534715652466 l0.5628519505262375,0.36533255130052567 0.9498599916696548,-0.23280056193470955 l0.7336591929197311,-0.8670860528945923 0.2244245447218418,-1.7000378668308258 l-0.3243452310562134,-0.7769201695919037 -0.8056121319532394,-0.43287593871355057 l-1.0577966272830963,0.03936808556318283 -0.7162397354841232,0.5273880064487457 l-0.4085596278309822,0.9623023122549057 0.0766865722835064,1.012703776359558 l0.9627484530210495,0.9503643214702606 " fill="none" stroke="black" stroke-width="1" /></svg>