<?xml version="1.0" encoding="utf-8" ?>
<svg baseProfile="full" height="1370.0" version="1.1" width="1390.0" xmlns="http://www.w3.org/2000/svg" xmlns:ev="http://www.w3.org/2001/xml-events" xmlns:xlink="http://www.w3.org/1999/xlink"><defs /><rect fill="white" height="1370.0" width="1390.0" x="0" y="0" /><path d="M935.0,440.0 m-55.0,-35.0 l-75.0,-20.0 -100.0,-10.0 l-80.0,10.0 -90.0,40.0 l-155.0,155.0 -65.0,95.0 l-70.0,185.0 -40.0,160.0 l25.0,150.0 55.0,90.0 l70.0,55.0 100.0,30.0 l185.0,0.0 135.0,-15.0 l260.0,-140.0 105.0,-110.0 l45.0,-80.0 20.0,-75.0 l0.0,-155.0 -20.0,-130.0 l-100.0,-160.0 -125.0,-85.0 l-80.0,-10.0 m55.0,-5.0 l35.0,-85.0 m25.0,-25.0 l-110.0,-15.0 -55.0,-25.0 l-65.0,-60.0 15.0,-45.0 l60.0,-45.0 95.0,-40.0 l65.0,0.0 110.0,45.0 l220.0,125.0 35.0,70.0 l-50.0,55.0 -45.0,15.0 l-295.0,-75.0 m-445.0,225.0 l-90.0,-100.0 -150.0,-110.0 m-5.0,25.0 l65.0,-65.0 105.0,-70.0 l25.0,-40.0 -5.0,-35.0 l-45.0,-65.0 -45.0,-15.0 l-95.0,0.0 -85.0,25.0 l-105.0,75.0 -60.0,65.0 l-15.0,70.0 20.0,75.0 l75.0,80.0 55.0,10.0 l85.0,-45.0 75.0,-85.0 m370.0,390.0 " fill="none" stroke="black" stroke-width="1" /></svg>