<?xml version="1.0" encoding="utf-8" ?>
<svg baseProfile="full" height="97.43960289284587" version="1.1" width="96.20473419316113" xmlns="http://www.w3.org/2000/svg" xmlns:ev="http://www.w3.org/2001/xml-events" xmlns:xlink="http://www.w3.org/1999/xlink"><defs /><rect fill="white" height="97.43960289284587" width="96.20473419316113" x="0" y="0" /><path d="M42.02959299007489,70.66050892695785 m-0.5523789674043655,-2.8990361094474792 l0.37203066051006317,-11.899816989898682 0.4323223978281021,-10.118166208267212 l0.6467787176370621,-4.777827560901642 1.0219644010066986,-3.5808318853378296 l1.3435682654380798,-2.429608702659607 1.3526730239391327,-1.0924620181322098 l1.6281814873218536,-0.20702093839645386 1.0142666101455688,0.4952996224164963 l0.9215115010738373,1.177554652094841 1.0733744502067566,2.7132922410964966 l0.6211132556200027,3.5753223299980164 -0.3697073459625244,12.592597007751465 l-2.3261526226997375,12.2097909450531 -1.480162888765335,4.047099053859711 l-0.9591111540794373,1.2984968721866608 -1.5394090116024017,0.6744116544723511 l-2.039636969566345,-0.1616138406097889 -1.0385775566101074,-0.7262152433395386 l-0.7131030410528183,-1.3239049911499023 -0.209841039031744,-1.8221496045589447 m7.47650146484375,-30.20808219909668 l-0.198877714574337,-1.1933336406946182 0.2990368753671646,-1.4399997889995575 l2.274662107229233,-4.21602338552475 2.647441327571869,-2.821163237094879 l2.9665720462799072,-1.9864179193973541 3.3531829714775085,-1.2121882289648056 l3.3363866806030273,-0.3285108134150505 2.1204297244548798,0.3384361043572426 l1.8947285413742065,1.0534362494945526 1.4132237434387207,1.7264354228973389 l0.7987894117832184,2.41129070520401 -0.00035901473893318325,2.902684509754181 l-1.1544422805309296,2.9736024141311646 -2.0224356651306152,2.846832275390625 l-2.5537368655204773,2.374567538499832 -3.8068166375160217,2.296503633260727 l2.6681065559387207,0.21934596821665764 2.6826515793800354,0.8274710923433304 l2.3258955776691437,1.377663016319275 1.6825219988822937,1.8247079849243164 l1.1919905990362167,2.374960035085678 0.5799840018153191,2.9088136553764343 l-0.13374731875956059,2.8506168723106384 -1.0943757742643356,2.679406702518463 l-1.8159890174865723,2.321295440196991 -2.4248138070106506,1.860688328742981 l-2.824900448322296,1.3117220997810364 -3.2055234909057617,0.720030814409256 l-3.211144208908081,0.1679246500134468 -2.3641909658908844,-0.41732504963874817 l-1.9576899707317352,-1.0328788310289383 m-6.2362730503082275,-28.002593517303467 l-1.7540796101093292,-2.392857074737549 -1.9723914563655853,-1.7253606021404266 l-2.4873921275138855,-1.3799335062503815 -2.7364882826805115,-0.7965501397848129 l-3.036084473133087,-0.1356873195618391 -2.669191062450409,0.6480172276496887 l-2.576964497566223,1.4922679960727692 -1.9799984991550446,2.151302248239517 l-1.2455552071332932,2.5437936186790466 -0.4779409244656563,2.8271448612213135 l0.15202388167381287,2.662712335586548 0.8748059719800949,2.0932739973068237 l1.5564645826816559,1.8717239797115326 2.131703794002533,1.4606229960918427 l2.5818130373954773,0.9468585252761841 2.916332483291626,0.3408094495534897 l2.4977150559425354,-0.1445565652102232 -3.1967395544052124,2.5640758872032166 l-1.134675070643425,1.5334399044513702 -1.1729438602924347,2.5691312551498413 l-0.4623722657561302,2.7579763531684875 0.11127420701086521,2.662026584148407 l0.8312661200761795,2.015935778617859 1.0635530948638916,1.2615486979484558 l1.8925565481185913,1.1816276609897614 2.573041021823883,0.6892307102680206 l3.156607449054718,0.1355395559221506 2.8359025716781616,-0.46735718846321106 " fill="none" stroke="black" stroke-width="1" /></svg>