<?xml version="1.0" encoding="utf-8" ?>
<svg baseProfile="full" height="2480.0" version="1.1" width="1865.0" xmlns="http://www.w3.org/2000/svg" xmlns:ev="http://www.w3.org/2001/xml-events" xmlns:xlink="http://www.w3.org/1999/xlink"><defs /><rect fill="white" height="2480.0" width="1865.0" x="0" y="0" /><path d="M915.0,2455.0 m-30.0,-145.0 l-10.0,-295.0 0.0,-710.0 l20.0,-375.0 60.0,-345.0 l65.0,-200.0 25.0,-50.0 l45.0,-15.0 20.0,55.0 l25.0,250.0 -10.0,580.0 l-145.0,1180.0 -15.0,45.0 l-25.0,20.0 -70.0,-15.0 l-40.0,-40.0 -25.0,-125.0 l15.0,-190.0 m300.0,-1445.0 l5.0,-30.0 80.0,-105.0 l135.0,-120.0 160.0,-70.0 l70.0,-15.0 130.0,15.0 l50.0,30.0 70.0,100.0 l20.0,60.0 0.0,155.0 l-35.0,85.0 -120.0,170.0 l-225.0,220.0 -10.0,30.0 l245.0,90.0 45.0,55.0 l25.0,70.0 30.0,195.0 l-10.0,180.0 -35.0,70.0 l-60.0,65.0 -95.0,60.0 l-225.0,80.0 -110.0,10.0 l-120.0,-10.0 -90.0,-60.0 l-100.0,-135.0 -15.0,-85.0 m-75.0,-1145.0 l-75.0,-75.0 -105.0,-60.0 l-75.0,-15.0 -160.0,5.0 l-80.0,35.0 -155.0,145.0 l-65.0,100.0 -60.0,115.0 l-60.0,225.0 0.0,100.0 l30.0,80.0 80.0,75.0 l100.0,40.0 205.0,30.0 l150.0,0.0 40.0,-10.0 l5.0,-25.0 -95.0,5.0 l-120.0,150.0 -100.0,220.0 l-55.0,280.0 0.0,110.0 l20.0,100.0 85.0,85.0 l95.0,25.0 135.0,-25.0 m245.0,-2290.0 l325.0,395.0 m75.0,-355.0 l-60.0,180.0 -160.0,250.0 " fill="none" stroke="black" stroke-width="1" /></svg>