<?xml version="1.0" encoding="utf-8" ?>
<svg baseProfile="full" height="3075.0" version="1.1" width="2655.0" xmlns="http://www.w3.org/2000/svg" xmlns:ev="http://www.w3.org/2001/xml-events" xmlns:xlink="http://www.w3.org/1999/xlink"><defs /><rect fill="white" height="3075.0" width="2655.0" x="0" y="0" /><path d="M915.0,1400.0 m-155.0,-240.0 l-45.0,-35.0 -60.0,-20.0 l-265.0,-10.0 -175.0,50.0 l-90.0,65.0 -65.0,110.0 l0.0,65.0 5.0,25.0 l85.0,50.0 15.0,25.0 l-5.0,100.0 -70.0,145.0 l-65.0,230.0 0.0,110.0 l80.0,225.0 40.0,70.0 l80.0,55.0 70.0,10.0 l125.0,-30.0 25.0,15.0 l10.0,70.0 35.0,25.0 l285.0,-190.0 250.0,-250.0 l110.0,-95.0 20.0,5.0 m-250.0,-515.0 l60.0,50.0 55.0,90.0 l30.0,10.0 m400.0,-140.0 l15.0,-40.0 345.0,-295.0 l125.0,-85.0 155.0,-75.0 l210.0,-60.0 160.0,-5.0 l100.0,20.0 35.0,20.0 l35.0,55.0 -5.0,70.0 l-50.0,40.0 -315.0,155.0 l105.0,75.0 5.0,115.0 l-130.0,260.0 25.0,325.0 l-90.0,165.0 -50.0,50.0 l-95.0,75.0 -60.0,25.0 l-150.0,0.0 -180.0,-185.0 l-80.0,-30.0 -55.0,-45.0 m-360.0,-165.0 l-20.0,280.0 -75.0,545.0 l-45.0,80.0 -55.0,-40.0 l-45.0,-5.0 -60.0,10.0 l-30.0,25.0 -30.0,95.0 l0.0,85.0 20.0,25.0 l85.0,5.0 60.0,-25.0 l120.0,-120.0 50.0,-110.0 l25.0,0.0 65.0,-110.0 l55.0,-175.0 40.0,-265.0 l-5.0,-160.0 30.0,65.0 l35.0,415.0 60.0,360.0 l40.0,95.0 35.0,25.0 l25.0,10.0 55.0,-45.0 l30.0,-50.0 10.0,-80.0 l-90.0,-85.0 -40.0,-115.0 l-5.0,-195.0 35.0,-290.0 l-10.0,-75.0 m-450.0,-500.0 l-25.0,-30.0 0.0,-60.0 l40.0,-310.0 0.0,-125.0 l70.0,-145.0 m335.0,575.0 l-25.0,-50.0 15.0,-435.0 m-205.0,-660.0 l-50.0,-35.0 -25.0,0.0 l-40.0,35.0 -95.0,140.0 l-30.0,160.0 0.0,75.0 l20.0,70.0 95.0,135.0 l130.0,95.0 130.0,30.0 l115.0,-5.0 95.0,-70.0 l80.0,-200.0 15.0,-230.0 l-5.0,-50.0 -45.0,-80.0 l-80.0,-65.0 -160.0,-45.0 l-195.0,5.0 -85.0,45.0 l-25.0,45.0 m340.0,-360.0 l-55.0,-30.0 -200.0,5.0 l-110.0,50.0 -75.0,55.0 l-25.0,50.0 5.0,35.0 l30.0,15.0 445.0,10.0 l365.0,40.0 180.0,-5.0 l50.0,-50.0 0.0,-95.0 l-30.0,-35.0 -130.0,-70.0 l-120.0,-20.0 -195.0,0.0 l-275.0,75.0 " fill="none" stroke="black" stroke-width="1" /></svg>