<?xml version="1.0" encoding="utf-8" ?>
<svg baseProfile="full" height="91.46236103959382" version="1.1" width="92.08020142279565" xmlns="http://www.w3.org/2000/svg" xmlns:ev="http://www.w3.org/2001/xml-events" xmlns:xlink="http://www.w3.org/1999/xlink"><defs /><rect fill="white" height="91.46236103959382" width="92.08020142279565" x="0" y="0" /><path d="M44.7202230617404,35.931217446923256 m-3.2397878170013428,-5.291734933853149 l-2.453724294900894,-2.2821496427059174 -2.657318413257599,-1.3389113545417786 l-2.8253552317619324,-0.5509088188409805 -2.778770327568054,0.14227458275854588 l-2.28037565946579,1.125507727265358 -1.8612758815288544,1.8854701519012451 l-1.2213938683271408,2.478739768266678 -0.40222156792879105,2.7804160118103027 l0.24743285030126572,2.688421308994293 0.9961056709289551,2.224690765142441 l1.5375590324401855,2.023102194070816 1.9066144526004791,1.609852910041809 l3.2327938079833984,1.5172602236270905 -1.7424063384532928,0.39493657648563385 l-2.2845637798309326,1.6812658309936523 -1.1855310946702957,1.595894694328308 l-1.0906078666448593,2.605166733264923 -0.4562477767467499,3.0259886384010315 l0.08491835556924343,2.894343137741089 0.6999912858009338,2.4310140311717987 l1.2545521557331085,2.291138768196106 1.6393356025218964,1.828172653913498 l2.137579470872879,1.4964190125465393 2.462926059961319,0.949934795498848 l2.799423336982727,0.324837826192379 2.803974151611328,-0.2834685333073139 l2.496868818998337,-1.1149532347917557 2.4508577585220337,-1.9054695963859558 l2.003493756055832,-2.474514991044998 1.4426138997077942,-2.941921651363373 l1.078036054968834,-4.707248210906982 0.17883474007248878,-3.5450375080108643 l-0.42930368334054947,-4.58263486623764 -1.092892810702324,-4.136508405208588 l-1.1691394448280334,-3.918088674545288 -0.8328010886907578,-3.241342604160309 l-0.29456689953804016,-1.8718774616718292 0.09923700243234634,-2.4804015457630157 l0.7696536928415298,-1.804361343383789 1.4424598217010498,-1.4494183659553528 l2.0548026263713837,-0.8642493933439255 2.4064333736896515,-0.1408646535128355 l1.8681029975414276,0.7437404990196228 1.7087167501449585,1.7037028074264526 l1.673251986503601,3.716849684715271 0.47396454960107803,3.2379543781280518 l-0.12867816723883152,6.891782283782959 -2.2845055162906647,10.339291095733643 l-1.7046365141868591,5.398356318473816 -1.5578433871269226,2.738941013813019 l-1.4612814784049988,1.1315573751926422 -1.84650257229805,0.20418420433998108 l-1.2282108515501022,-0.3775480389595032 -1.5623852610588074,-1.5529793500900269 l-1.1041732877492905,-2.6017090678215027 -0.2825797349214554,-2.2796721756458282 l0.3558117151260376,-3.0692607164382935 1.4746816456317902,-4.521376192569733 l1.8831489980220795,-4.368279278278351 1.4974209666252136,-2.6886752247810364 l1.449456512928009,-2.111702561378479 1.5009307861328125,-1.7114108800888062 l1.6274993121623993,-1.3607615232467651 1.8924973905086517,-1.034058928489685 l2.0607298612594604,-0.62458835542202 2.039443701505661,-0.17119407653808594 l1.712588220834732,0.35628393292427063 1.8618999421596527,1.1173677444458008 l1.3922451436519623,1.6786734759807587 0.765598863363266,2.352365553379059 l0.020477166399359703,2.751343846321106 -0.8423565328121185,2.65896737575531 l-1.5968379378318787,2.4464261531829834 -2.3108382523059845,2.066965699195862 l-2.7308091521263123,1.3954204320907593 -2.795952260494232,0.5396253615617752 l-2.7477967739105225,-0.16915198415517807 -1.4475437998771667,-0.5890465155243874 l-1.070033237338066,-0.8530493825674057 -0.6991907209157944,-1.531253606081009 l-0.1721535064280033,-1.4142192900180817 0.5540664121508598,-1.862078309059143 l1.5641947090625763,-1.968529224395752 2.2048191726207733,-1.3566702604293823 l2.5623971223831177,-0.7023515552282333 2.6392892003059387,-0.07024368271231651 l2.219831943511963,0.612366683781147 2.1295620501041412,1.2372834235429764 l1.627109944820404,1.6829957067966461 1.0009358823299408,2.1851785480976105 l0.24540042504668236,2.6448974013328552 -0.48618853092193604,2.344863712787628 l-1.363610029220581,2.3164650797843933 -2.124955803155899,1.9368141889572144 l-2.636948525905609,1.2619143724441528 -2.7165687084198,0.48978637903928757 l-2.739567458629608,-0.12982234358787537 -1.4519010484218597,-0.5265486612915993 l-1.697404831647873,-1.3879938423633575 -1.0313452780246735,-1.9825635850429535 l-0.24078771471977234,-2.3856692016124725 0.6593810766935349,-2.26171612739563 l1.586795598268509,-2.189624458551407 2.0166848599910736,-1.3724000751972198 l2.373473197221756,-0.6815763562917709 2.2843927145004272,-0.03826369997113943 l1.8756283819675446,0.6626088172197342 1.7449995875358582,1.3676664233207703 l1.1535967141389847,1.9642727077007294 0.3646579384803772,2.4418669939041138 l-0.3531982749700546,2.4400894343852997 -1.1938335746526718,2.3005706071853638 l-1.830124706029892,1.7839781939983368 -2.3106226325035095,1.0928867757320404 l-2.5984105467796326,0.356261245906353 -2.3582613468170166,-0.30876725912094116 l-1.9671007990837097,-1.1591030657291412 -1.3199855387210846,-1.7908290028572083 l-0.5485770478844643,-2.290939688682556 0.19773490726947784,-2.568904459476471 l0.6293299049139023,-1.4989034831523895 0.9913122653961182,-1.1832718551158905 l1.9536222517490387,-1.2150682508945465 2.257196605205536,-0.5091876164078712 l2.253072112798691,0.07780238054692745 1.8158239126205444,0.8436473459005356 l1.4849726855754852,1.5144310891628265 0.7501284778118134,2.040354460477829 l-0.017333811847493052,2.3840640485286713 -0.8977440744638443,1.9800198078155518 l-1.6834615170955658,1.6381417214870453 -2.204499691724777,0.8752339333295822 l-2.4861110746860504,0.1261521875858307 -1.9067172706127167,-0.6584783643484116 l-1.29277765750885,-0.9986912459135056 -1.0365236550569534,-1.8260034918785095 l-0.24249209091067314,-2.2373543679714203 0.6502029299736023,-1.990627944469452 l1.629556119441986,-1.8232536315917969 2.184983789920807,-1.109817549586296 l2.326919436454773,-0.35457544028759 1.9534246623516083,0.3198660910129547 l1.1777133494615555,0.7419901341199875 1.0000945627689362,1.653992384672165 l0.24712802842259407,2.2707127034664154 -0.5078784003853798,1.9987550377845764 l-1.163468211889267,1.7682555317878723 " fill="none" stroke="black" stroke-width="1" /></svg>