<?xml version="1.0" encoding="utf-8" ?>
<svg baseProfile="full" height="1850.0" version="1.1" width="1250.0" xmlns="http://www.w3.org/2000/svg" xmlns:ev="http://www.w3.org/2001/xml-events" xmlns:xlink="http://www.w3.org/1999/xlink"><defs /><rect fill="white" height="1850.0" width="1250.0" x="0" y="0" /><path d="M680.0,465.0 m-195.0,185.0 l-200.0,160.0 -120.0,140.0 l-140.0,130.0 70.0,5.0 l250.0,115.0 175.0,25.0 l60.0,-20.0 65.0,-75.0 l170.0,-105.0 410.0,-445.0 l0.0,-25.0 -20.0,-25.0 l-125.0,-55.0 -150.0,-40.0 l-230.0,-25.0 m0.0,0.0 l0.0,0.0 m-665.0,665.0 l0.0,650.0 0.0,30.0 l25.0,10.0 255.0,10.0 l155.0,50.0 15.0,-30.0 l5.0,-620.0 m710.0,-555.0 l-30.0,675.0 -65.0,50.0 l-40.0,75.0 -90.0,90.0 l-135.0,80.0 -270.0,100.0 l-45.0,30.0 m-160.0,-740.0 l0.0,-955.0 m230.0,825.0 l0.0,-605.0 m115.0,515.0 l15.0,-100.0 5.0,-325.0 m115.0,265.0 l10.0,-220.0 25.0,-105.0 m-45.0,-5.0 l0.0,-120.0 45.0,-90.0 l0.0,120.0 30.0,120.0 m-250.0,20.0 l0.0,-145.0 " fill="none" stroke="black" stroke-width="1" /></svg>