<?xml version="1.0" encoding="utf-8" ?>
<svg baseProfile="full" height="71.74415308982134" version="1.1" width="77.58554553613067" xmlns="http://www.w3.org/2000/svg" xmlns:ev="http://www.w3.org/2001/xml-events" xmlns:xlink="http://www.w3.org/1999/xlink"><defs /><rect fill="white" height="71.74415308982134" width="77.58554553613067" x="0" y="0" /><path d="M38.556378139182925,30.171825401484966 m-3.8565585017204285,3.7269526720046997 l-3.2215943932533264,4.655231833457947 -1.6358241438865662,3.1801143288612366 l-0.7497894763946533,2.8010407090187073 0.12496429495513439,1.2515833973884583 l0.7839016616344452,0.641639307141304 2.093367874622345,0.3157654404640198 l5.933350920677185,-1.310964822769165 7.19846248626709,-5.039082169532776 l1.8497493863105774,-4.260433316230774 0.22367428988218307,-2.666138708591461 l-0.6404293328523636,-2.10484117269516 -1.4635048806667328,-1.7081676423549652 l-1.9807638227939606,-0.9866649657487869 -2.4528469145298004,-0.26014644652605057 l-1.3361015915870667,0.21754905581474304 m0.9529020637273788,2.2987164556980133 l1.8435168266296387,-3.0590149760246277 1.3765563070774078,-1.4441834390163422 l1.8286964297294617,-1.0442063212394714 2.0838120579719543,-0.3765746206045151 l1.9274808466434479,0.2048909105360508 1.6474632918834686,1.003909483551979 l1.1011342704296112,1.52531236410141 0.3975474461913109,1.4572340250015259 l-0.16338197514414787,2.192060947418213 -1.191561371088028,1.9766834378242493 l-1.9291794300079346,1.5990042686462402 -2.365623414516449,0.956818014383316 l-2.6097670197486877,0.24619568139314651 -2.1743163466453552,-0.4546395316720009 l-1.162855178117752,-0.6759782880544662 -0.6364770233631134,-0.9657376259565353 m-1.483936756849289,0.17330121248960495 l-1.702042669057846,-1.8757131695747375 -2.1491724252700806,-1.6873621940612793 l-4.109451472759247,-1.532367318868637 -2.30230912566185,-0.12025192379951477 l-1.663188487291336,0.6903614103794098 -1.3873760402202606,1.6133509576320648 l-0.5549068003892899,2.231885641813278 0.16402006149291992,1.543801724910736 l1.1155842989683151,1.7293201386928558 2.6203280687332153,1.6952534019947052 l2.6179221272468567,0.7884025573730469 2.899106740951538,0.1836596243083477 m5.805913209915161,-2.7071911096572876 l0.15112527646124363,0.12244928628206253 0.02875066827982664,0.28719935566186905 l-0.05822011735290289,0.25913141667842865 0.18146192654967308,-0.2671273425221443 l0.08326806128025055,-0.05665336735546589 " fill="none" stroke="black" stroke-width="1" /></svg>