<?xml version="1.0" encoding="utf-8" ?>
<svg baseProfile="full" height="940.0" version="1.1" width="910.0" xmlns="http://www.w3.org/2000/svg" xmlns:ev="http://www.w3.org/2001/xml-events" xmlns:xlink="http://www.w3.org/1999/xlink"><defs /><rect fill="white" height="940.0" width="910.0" x="0" y="0" /><path d="M295.0,855.0 m-90.0,-60.0 l-70.0,-140.0 -50.0,-190.0 l0.0,-130.0 80.0,-110.0 l110.0,-80.0 130.0,-40.0 l70.0,20.0 60.0,60.0 l60.0,120.0 0.0,180.0 l-30.0,140.0 -80.0,210.0 l-60.0,40.0 -140.0,40.0 l-120.0,-50.0 m-70.0,-590.0 l0.0,-30.0 -70.0,-160.0 l30.0,-10.0 30.0,10.0 l10.0,30.0 40.0,20.0 m440.0,10.0 l30.0,-30.0 90.0,-40.0 l190.0,-50.0 -160.0,300.0 l-60.0,80.0 -70.0,60.0 m-380.0,170.0 l20.0,60.0 30.0,10.0 l120.0,-40.0 10.0,-60.0 m-170.0,-210.0 l0.0,0.0 m-50.0,0.0 l0.0,0.0 m210.0,-20.0 l-30.0,30.0 m-60.0,110.0 l0.0,-10.0 " fill="none" stroke="black" stroke-width="1" /></svg>