<?xml version="1.0" encoding="utf-8" ?>
<svg baseProfile="full" height="63.722199127078056" version="1.1" width="61.13011159468442" xmlns="http://www.w3.org/2000/svg" xmlns:ev="http://www.w3.org/2001/xml-events" xmlns:xlink="http://www.w3.org/1999/xlink"><defs /><rect fill="white" height="63.722199127078056" width="61.13011159468442" x="0" y="0" /><path d="M28.38694229722023,38.722199127078056 m-1.7924462258815765,-1.203649640083313 l-1.2158272415399551,-2.289634644985199 -0.3786688297986984,-1.876830905675888 l0.06827583536505699,-3.1817713379859924 1.3207298517227173,-2.7651411294937134 l1.7728370428085327,-1.614115685224533 2.708446979522705,-0.7910557836294174 l1.9696421921253204,0.1511720847338438 1.373077630996704,0.8446769416332245 l1.1989591270685196,1.620890498161316 0.6700950115919113,2.2821977734565735 l0.0480479234829545,2.647683620452881 -0.6709852814674377,2.2567100822925568 l-1.3184811174869537,1.7928789556026459 -1.7584751546382904,1.1578462272882462 l-2.0994198322296143,0.45867055654525757 -2.02168270945549,-0.27114370837807655 l-0.7642939686775208,-0.5504924803972244 m1.4264389872550964,-7.7758026123046875 l-0.4876018688082695,-0.2119642123579979 -0.11302221566438675,-0.5143079161643982 l0.23545589298009872,-1.0295649617910385 0.7350146025419235,-0.7138994336128235 l1.4174896478652954,-0.10865101590752602 0.5322281643748283,0.8885957300662994 l0.03014725400134921,1.4622707664966583 -0.4234664514660835,0.7473078370094299 l-1.1214964091777802,0.5620208010077477 -1.3500207662582397,-0.03861552570015192 l-0.6064265593886375,-0.5914115533232689 -0.19750971347093582,-0.9446791559457779 l0.2000628411769867,-0.8494997024536133 0.6892289221286774,-0.5374742299318314 l1.6306273639202118,0.047520510852336884 0.6348516047000885,0.5147543549537659 l0.24096278473734856,0.7047579437494278 -0.2539477311074734,1.0103581100702286 l-0.9998954832553864,0.6416556984186172 -1.1983957886695862,0.07314259186387062 l-0.5021918192505836,-0.4984712228178978 -0.1941768266260624,-1.0112907737493515 l0.22533735260367393,-0.8767877519130707 1.128176599740982,-0.7300844043493271 l1.6580794751644135,0.05033680237829685 " fill="none" stroke="black" stroke-width="1" /></svg>