<?xml version="1.0" encoding="utf-8" ?>
<svg baseProfile="full" height="66.25144778750837" version="1.1" width="65.43113276362419" xmlns="http://www.w3.org/2000/svg" xmlns:ev="http://www.w3.org/2001/xml-events" xmlns:xlink="http://www.w3.org/1999/xlink"><defs /><rect fill="white" height="66.25144778750837" width="65.43113276362419" x="0" y="0" /><path d="M27.06301929141773,29.876145618636656 m8.363093733787537,0.05563641898334026 l2.6215898990631104,1.401204913854599 0.2197558805346489,0.5639262869954109 l-2.1681734919548035,1.8096548318862915 -7.101148962974548,0.9677929431200027 l-3.5357609391212463,-0.10657612234354019 -0.4620068147778511,-0.6559081375598907 l-0.0003685959745780565,-0.21288901567459106 2.3194603621959686,-0.3108670376241207 l3.7768834829330444,0.21880589425563812 3.7881219387054443,0.2574514225125313 l3.2856684923171997,0.08987280540168285 2.260998487472534,-0.13231168501079082 m-11.507647037506104,-2.279268801212311 l0.9632670134305954,6.799556016921997 0.6856834888458252,2.4633659422397614 l0.4816647991538048,0.44557657092809677 1.4057838916778564,0.0002789211976050865 l1.0079919546842575,-0.6959766894578934 0.6324271112680435,-1.146644949913025 l0.38020558655261993,-2.414490580558777 0.31374309211969376,-3.712610900402069 l0.09036567062139511,-1.9177407026290894 m-4.06675398349762,-1.4930073916912079 l0.5119749158620834,-1.764586716890335 0.827711895108223,-2.280550003051758 l0.8190248161554337,-0.7337073981761932 1.2684811651706696,-0.0921324547380209 l1.2459321320056915,0.9645236283540726 m-3.726276457309723,6.753165125846863 l0.5556923523545265,-0.1593664102256298 2.0847463607788086,-0.37840384989976883 l0.44686805456876755,-0.45152347534894943 0.2833838574588299,-2.1009008586406708 l-0.18659859895706177,-1.1411458998918533 -1.4709359407424927,-0.2057754434645176 l-1.7992228269577026,0.7509655505418777 " fill="none" stroke="black" stroke-width="1" /></svg>