<?xml version="1.0" encoding="utf-8" ?>
<svg baseProfile="full" height="1095.0" version="1.1" width="685.0" xmlns="http://www.w3.org/2000/svg" xmlns:ev="http://www.w3.org/2001/xml-events" xmlns:xlink="http://www.w3.org/1999/xlink"><defs /><rect fill="white" height="1095.0" width="685.0" x="0" y="0" /><path d="M80.0,565.0 m385.0,5.0 l165.0,65.0 -25.0,30.0 l-330.0,40.0 -100.0,-5.0 l-100.0,-65.0 -30.0,0.0 l-20.0,150.0 10.0,205.0 l65.0,30.0 135.0,30.0 l180.0,20.0 205.0,0.0 l25.0,-25.0 15.0,-365.0 m-555.0,120.0 l5.0,60.0 25.0,20.0 l110.0,-20.0 105.0,10.0 l40.0,-50.0 85.0,40.0 l100.0,0.0 40.0,-30.0 m-430.0,-345.0 l-5.0,-150.0 65.0,0.0 l20.0,35.0 10.0,205.0 m-85.0,-265.0 l-35.0,-30.0 -35.0,-65.0 l0.0,-175.0 50.0,-15.0 l10.0,55.0 85.0,190.0 l0.0,30.0 -45.0,20.0 " fill="none" stroke="black" stroke-width="1" /></svg>