<?xml version="1.0" encoding="utf-8" ?>
<svg baseProfile="full" height="2205.0" version="1.1" width="2795.0" xmlns="http://www.w3.org/2000/svg" xmlns:ev="http://www.w3.org/2001/xml-events" xmlns:xlink="http://www.w3.org/1999/xlink"><defs /><rect fill="white" height="2205.0" width="2795.0" x="0" y="0" /><path d="M315.0,1105.0 m290.0,-30.0 l1190.0,-225.0 290.0,-80.0 l245.0,-105.0 50.0,-40.0 l5.0,-30.0 -45.0,-55.0 l-95.0,-50.0 -115.0,-35.0 l-360.0,-5.0 -245.0,40.0 l-635.0,130.0 -215.0,55.0 l-120.0,50.0 -115.0,60.0 l-145.0,105.0 -80.0,85.0 l-25.0,65.0 0.0,50.0 l20.0,30.0 45.0,20.0 l245.0,15.0 m1810.0,-500.0 l40.0,260.0 140.0,450.0 l55.0,240.0 5.0,100.0 l-25.0,35.0 m-2275.0,-735.0 l-5.0,285.0 30.0,285.0 l60.0,180.0 90.0,150.0 l45.0,40.0 m2040.0,-210.0 l20.0,-25.0 -85.0,-5.0 l-690.0,75.0 -625.0,20.0 l-550.0,150.0 m-365.0,-205.0 l-20.0,-25.0 -150.0,215.0 l-20.0,160.0 70.0,50.0 l250.0,35.0 535.0,0.0 l660.0,-70.0 255.0,-50.0 l275.0,-80.0 690.0,-275.0 l10.0,-105.0 -20.0,-60.0 l-75.0,-60.0 -125.0,-65.0 m-2025.0,-100.0 l-70.0,60.0 95.0,-5.0 l410.0,-160.0 350.0,-100.0 l445.0,-70.0 825.0,-175.0 l80.0,-5.0 m-285.0,385.0 l-500.0,25.0 -470.0,45.0 l-855.0,140.0 -95.0,30.0 l-85.0,50.0 m1760.0,-105.0 l-200.0,5.0 -665.0,155.0 l-485.0,75.0 -140.0,35.0 m55.0,-735.0 l-25.0,-130.0 -80.0,-235.0 l-10.0,-110.0 m155.0,-30.0 l50.0,195.0 15.0,190.0 m-25.0,-355.0 l-180.0,85.0 m0.0,-75.0 l-65.0,-25.0 -20.0,-80.0 l10.0,-75.0 60.0,-105.0 l20.0,-75.0 0.0,-65.0 l-30.0,-50.0 110.0,185.0 l15.0,70.0 -5.0,190.0 l-20.0,45.0 " fill="none" stroke="black" stroke-width="1" /></svg>