<?xml version="1.0" encoding="utf-8" ?>
<svg baseProfile="full" height="79.17921519489028" version="1.1" width="97.56365895387717" xmlns="http://www.w3.org/2000/svg" xmlns:ev="http://www.w3.org/2001/xml-events" xmlns:xlink="http://www.w3.org/1999/xlink"><defs /><rect fill="white" height="79.17921519489028" width="97.56365895387717" x="0" y="0" /><path d="M25,28.4806370845763 m5.804614424705505,-0.6173746287822723 l25.119099617004395,-1.2206600606441498 13.83047103881836,-0.5010553449392319 l0.27036476880311966,1.945132464170456 -0.11088087223470211,9.154753684997559 l-0.3535151481628418,7.23049521446228 -8.454848527908325,0.10558785870671272 l-13.514271974563599,-0.003784775617532432 -12.56358027458191,0.2834876626729965 l-7.691453695297241,0.03551095724105835 -0.13209614902734756,-7.3684245347976685 l-0.09628869593143463,-9.59788978099823 0.05271236412227154,-2.926415801048279 m6.026390194892883,16.520519256591797 l-0.0136493518948555,-0.03278886899352074 1.5211577713489532,-0.1101493276655674 l4.716706573963165,-0.4289228096604347 11.221923828125,0.018211245769634843 l10.78565239906311,-0.19174853339791298 7.331458330154419,-0.0639586802572012 l2.9079243540763855,-0.4899134486913681 m-36.43670320510864,-2.3686744272708893 l0.010377654107287526,2.5690725445747375 0.6486842781305313,1.6137434542179108 l0.9992368519306183,0.9264706820249557 1.9879694283008575,0.5093025788664818 l2.3991191387176514,-0.12955336831510067 1.8644803762435913,-0.9223271161317825 l1.3916315138339996,-1.660425215959549 0.46773407608270645,-2.0268860459327698 l-0.3705216944217682,-1.8229177594184875 -1.10050767660141,-1.2391316890716553 l-1.6861651837825775,-0.8204157650470734 -2.3638562858104706,-0.27024734765291214 l-1.4942647516727448,0.22068459540605545 -1.1318757385015488,0.650402307510376 l-0.6952550262212753,0.9323418885469437 -0.19989104941487312,1.1362790316343307 m16.16124987602234,-2.351372390985489 l-0.525725744664669,1.7344246804714203 0.13452071696519852,1.622794270515442 l0.8343431353569031,1.8126913905143738 0.9993011504411697,0.9608376771211624 l1.781938374042511,0.561179630458355 2.3362012207508087,-0.1875072903931141 l1.8088316917419434,-1.1598481237888336 1.246040165424347,-1.7859090864658356 l0.35951003432273865,-2.0865750312805176 -0.41312020272016525,-1.802799552679062 l-1.209534928202629,-1.3050654530525208 -1.8482530117034912,-0.8042766153812408 l-2.38820344209671,-0.1247455645352602 -1.9812485575675964,0.646565780043602 l-1.6843980550765991,1.3978175818920135 -0.8709191530942917,1.7465230822563171 m13.429776430130005,-2.5139686465263367 l-0.28334544971585274,1.694023609161377 0.3509601950645447,1.493765264749527 l1.0134205967187881,1.6427010297775269 1.4832448959350586,0.9798888117074966 l1.98541060090065,0.23001544177532196 1.7476534843444824,-0.6582292914390564 l1.4751428365707397,-1.5415997803211212 0.6727784126996994,-1.9328081607818604 l-0.15389269217848778,-1.9341060519218445 -1.0093669593334198,-1.3081839680671692 l-1.8155398964881897,-0.8913451433181763 -2.48348206281662,-0.21602343767881393 l-2.273225337266922,0.5446140840649605 -2.018260359764099,1.3769829273223877 m-27.671186923980713,13.713206052780151 l-0.5162662267684937,1.3855032622814178 0.07091174367815256,1.6765837371349335 l0.7028499990701675,1.9445201754570007 1.2744751572608948,1.3782115280628204 l1.9283747673034668,0.7217615842819214 2.298077791929245,-0.10401087813079357 l1.8483510613441467,-1.0848388820886612 1.3806383311748505,-1.752362698316574 l0.6453751027584076,-2.1982887387275696 -0.1031068991869688,-2.0328915119171143 l-0.8538677543401718,-1.324576884508133 -1.576586663722992,-1.0233859717845917 l-2.130550295114517,-0.34639280289411545 -2.3450806736946106,0.310332328081131 l-1.3281436264514923,0.7658033818006516 -0.8277136087417603,1.114337518811226 l-0.2675706520676613,1.3150602579116821 m16.33808732032776,-3.1780582666397095 l-1.0097523778676987,1.1152476072311401 -0.37164341658353806,1.395396739244461 l-0.03884157631546259,1.6352474689483643 0.6560128182172775,1.7279981076717377 l1.375528872013092,1.2959861755371094 1.9655400514602661,0.5040238425135612 l2.3744013905525208,-0.3225327655673027 1.7591430246829987,-1.2788911163806915 l1.1075475811958313,-1.798768937587738 0.3213178738951683,-2.1389712393283844 l-0.4469086229801178,-1.7191535234451294 -1.3134187459945679,-1.294836550951004 l-2.0090171694755554,-0.698312520980835 -2.4825365841388702,0.08383606560528278 " fill="none" stroke="black" stroke-width="1" /></svg>