<?xml version="1.0" encoding="utf-8" ?>
<svg baseProfile="full" height="95.78710394083828" version="1.1" width="125.7718899846077" xmlns="http://www.w3.org/2000/svg" xmlns:ev="http://www.w3.org/2001/xml-events" xmlns:xlink="http://www.w3.org/1999/xlink"><defs /><rect fill="white" height="95.78710394083828" width="125.7718899846077" x="0" y="0" /><path d="M31.19769014418125,42.51911675557494 m3.4774917364120483,0.9048355370759964 l9.44312870502472,0.29838792979717255 14.130795001983643,-0.7233965396881104 l8.94213318824768,-0.5795382708311081 9.060032963752747,-0.5131407454609871 l8.284334540367126,-0.2637098915874958 6.586039662361145,0.19626598805189133 l5.259832143783569,0.5863234028220177 4.051434099674225,0.9876055270433426 l0.33897779881954193,0.7320631295442581 -0.7958747446537018,1.9745473563671112 l-1.2267626076936722,0.8585906773805618 -4.926339089870453,1.3052523136138916 l-5.568059086799622,0.8380233496427536 -6.584009528160095,0.8966692537069321 l-6.355772614479065,0.689891055226326 -6.570443511009216,0.5625635012984276 l-7.076389193534851,0.4106348380446434 -7.292527556419373,0.21048253402113914 l-6.536055207252502,-0.0782054103910923 -12.58078932762146,-0.3840302303433418 l-4.861618876457214,-0.5761487036943436 -2.860599160194397,-0.8281765133142471 l-1.7045111954212189,-1.1904754489660263 -0.8321382850408554,-1.7334970831871033 l0.5523912608623505,-2.374669760465622 0.7608399540185928,-0.6520797312259674 l3.623601794242859,-1.0524126887321472 6.016861200332642,-0.8915118128061295 m24.295387268066406,-1.2922380864620209 l-0.8625060319900513,-3.9690878987312317 -1.5497255325317383,-7.4277812242507935 l0.2941783331334591,-3.3357900381088257 0.6103261187672615,-0.5998989939689636 l3.0048811435699463,-0.5054640769958496 3.9485999941825867,0.00028851964088971727 l0.8063354343175888,0.5480977892875671 1.547197699546814,3.4613576531410217 l0.9831178188323975,7.222117781639099 0.8265486359596252,4.287459552288055 l0.40604494512081146,2.8306683897972107 m-9.769855737686157,9.179344177246094 l-0.17642846331000328,6.187266707420349 0.02624568995088339,5.637997388839722 l0.7332780957221985,3.8654041290283203 1.2958955764770508,1.8288004398345947 l1.3541905581951141,0.7377356290817261 2.179792672395706,0.0005657835936290212 l2.3034052550792694,-1.6156278550624847 1.9727499783039093,-3.2858532667160034 l1.7598973214626312,-7.353379726409912 0.6225515529513359,-5.023167133331299 m-9.508364796638489,-7.563890814781189 l-0.002187668578699231,1.90561443567276 0.06798577960580587,0.761561393737793 l0.8934131264686584,0.00031542236683890224 0.4786098003387451,-1.7650964856147766 " fill="none" stroke="black" stroke-width="1" /></svg>