<?xml version="1.0" encoding="utf-8" ?>
<svg baseProfile="full" height="56.143301410775166" version="1.1" width="95.12510806322098" xmlns="http://www.w3.org/2000/svg" xmlns:ev="http://www.w3.org/2001/xml-events" xmlns:xlink="http://www.w3.org/1999/xlink"><defs /><rect fill="white" height="56.143301410775166" width="95.12510806322098" x="0" y="0" /><path d="M25,27.320107985287905 m7.297832369804382,-0.6817124783992767 l6.625279188156128,-0.916147455573082 7.887613773345947,-0.31019655987620354 l17.991946935653687,-0.4120514914393425 4.568626284599304,0.10882098227739334 m-41.0791015625,4.629089534282684 l1.0396397113800049,0.09860322810709476 2.7333226799964905,-0.3234899416565895 l5.481290221214294,-0.163897555321455 4.059382379055023,-0.4741920530796051 l5.210701823234558,-0.08517191745340824 8.982361555099487,0.19317492842674255 l3.927406072616577,-0.3464849293231964 4.194199442863464,-0.13357140123844147 l2.9954302310943604,-0.4294269159436226 3.2091769576072693,-0.0002567915362305939 m-28.57166290283203,-2.7567288279533386 l0.008928652387112379,2.775598168373108 0.09814570657908916,2.66670823097229 l0.47680750489234924,0.3333057463169098 3.683149516582489,0.05122092552483082 l3.786371648311615,-0.4355762153863907 0.3117183968424797,-0.49837782979011536 l-0.04884170833975077,-5.009286999702454 -5.280256271362305,-0.01694281934760511 l-2.7088767290115356,0.5192561075091362 m5.019647479057312,1.370130032300949 l-0.09321535006165504,3.263927698135376 3.017566502094269,-0.21729476749897003 l2.833910882472992,-0.3034118749201298 -0.02121071796864271,-3.1355199217796326 l-4.247128963470459,0.37496913224458694 -1.2546919286251068,0.4861937090754509 l0.15734735876321793,0.2467702142894268 " fill="none" stroke="black" stroke-width="1" /></svg>