<?xml version="1.0" encoding="utf-8" ?>
<svg baseProfile="full" height="425.0" version="1.1" width="1665.0" xmlns="http://www.w3.org/2000/svg" xmlns:ev="http://www.w3.org/2001/xml-events" xmlns:xlink="http://www.w3.org/1999/xlink"><defs /><rect fill="white" height="425.0" width="1665.0" x="0" y="0" /><path d="M135.0,65.0 m370.0,-40.0 l220.0,0.0 825.0,85.0 m-1525.0,290.0 l1175.0,-80.0 275.0,0.0 l165.0,25.0 m-865.0,-265.0 l-45.0,-30.0 -30.0,10.0 l-30.0,20.0 -45.0,80.0 l-15.0,110.0 5.0,105.0 l10.0,25.0 75.0,-5.0 m225.0,-315.0 l20.0,30.0 15.0,115.0 l0.0,70.0 -20.0,35.0 m155.0,-130.0 l0.0,0.0 m325.0,-10.0 l0.0,0.0 m145.0,40.0 l0.0,0.0 m-785.0,15.0 l-5.0,0.0 m-30.0,0.0 l-120.0,-10.0 190.0,-25.0 l-105.0,35.0 10.0,-20.0 " fill="none" stroke="black" stroke-width="1" /></svg>