<?xml version="1.0" encoding="utf-8" ?>
<svg baseProfile="full" height="1915.0" version="1.1" width="1760.0" xmlns="http://www.w3.org/2000/svg" xmlns:ev="http://www.w3.org/2001/xml-events" xmlns:xlink="http://www.w3.org/1999/xlink"><defs /><rect fill="white" height="1915.0" width="1760.0" x="0" y="0" /><path d="M805.0,985.0 m-25.0,-105.0 l-60.0,-95.0 -60.0,-55.0 l-130.0,-65.0 -125.0,0.0 l-115.0,45.0 -125.0,95.0 l-70.0,80.0 -60.0,125.0 l-10.0,135.0 65.0,170.0 l140.0,175.0 335.0,255.0 l280.0,145.0 m-20.0,-960.0 l10.0,-55.0 55.0,-85.0 l135.0,-90.0 105.0,-35.0 l185.0,0.0 170.0,60.0 l150.0,120.0 85.0,165.0 l15.0,145.0 -20.0,100.0 l-80.0,165.0 -125.0,140.0 l-150.0,115.0 -140.0,80.0 l-220.0,80.0 -145.0,25.0 l-120.0,-25.0 m25.0,-985.0 l15.0,-185.0 95.0,-310.0 l105.0,-185.0 145.0,-145.0 m-370.0,660.0 l-25.0,-150.0 -90.0,-180.0 l-40.0,-50.0 -95.0,-60.0 l-55.0,0.0 -25.0,25.0 l25.0,85.0 290.0,415.0 " fill="none" stroke="black" stroke-width="1" /></svg>