<?xml version="1.0" encoding="utf-8" ?>
<svg baseProfile="full" height="85.51367688924074" version="1.1" width="85.39582528173923" xmlns="http://www.w3.org/2000/svg" xmlns:ev="http://www.w3.org/2001/xml-events" xmlns:xlink="http://www.w3.org/1999/xlink"><defs /><rect fill="white" height="85.51367688924074" width="85.39582528173923" x="0" y="0" /><path d="M41.05906445533037,42.13859956711531 m-0.46154994517564774,-2.062736004590988 l-1.1115381866693497,-1.9141238927841187 -1.2547291815280914,-1.1219251155853271 l-1.8942493200302124,-0.814092606306076 -2.309330701828003,-0.34269247204065323 l-2.367212474346161,0.21553095430135727 -2.9866084456443787,1.2018271535634995 l-1.7451529204845428,1.4277507364749908 -1.160578727722168,1.7936564981937408 l-0.7681145519018173,3.255222737789154 0.34652654081583023,2.721559703350067 l3.713025450706482,5.661768317222595 4.3890345096588135,3.204159438610077 l4.230094850063324,1.486101746559143 5.12257993221283,0.23371849209070206 m0.8412249386310577,-15.561655759811401 l0.20796455442905426,-1.5327464044094086 1.214420273900032,-1.8322619795799255 l1.9675284624099731,-1.7773538827896118 2.3118656873703003,-1.168648898601532 l3.6668065190315247,-0.6348341703414917 3.5938647389411926,0.6483952701091766 l1.8573209643363953,1.5924642980098724 1.510414481163025,3.129628300666809 l0.4231533780694008,2.6838767528533936 -0.4418160766363144,4.124981164932251 l-1.1026537418365479,2.7088499069213867 -2.558574080467224,3.6502283811569214 l-3.4942811727523804,3.2117310166358948 -3.9730730652809143,2.3632319271564484 l-4.169594347476959,1.401049941778183 -3.9868944883346558,0.42241577059030533 l-0.852901041507721,-0.39206404238939285 m3.438398838043213,-20.217838287353516 l-0.167948417365551,-3.6647915840148926 0.1359945349395275,-7.164022922515869 l0.6571866571903229,-4.0749600529670715 m-0.8639910817146301,10.80981731414795 l0.1214043889194727,-1.4829760789871216 1.6335424780845642,-2.8463131189346313 l1.9141769409179688,-1.9721092283725739 2.929953932762146,-1.6853411495685577 l3.1989389657974243,-0.706821009516716 0.4110514000058174,0.9407473355531693 l-0.9844806790351868,2.20429927110672 -2.93935090303421,2.928888499736786 " fill="none" stroke="black" stroke-width="1" /></svg>