<?xml version="1.0" encoding="utf-8" ?>
<svg baseProfile="full" height="965.0" version="1.1" width="1640.0" xmlns="http://www.w3.org/2000/svg" xmlns:ev="http://www.w3.org/2001/xml-events" xmlns:xlink="http://www.w3.org/1999/xlink"><defs /><rect fill="white" height="965.0" width="1640.0" x="0" y="0" /><path d="M255.0,465.0 m-155.0,0.0 l-50.0,20.0 -25.0,50.0 l0.0,135.0 15.0,25.0 l400.0,50.0 440.0,20.0 l230.0,0.0 315.0,-50.0 l130.0,-65.0 55.0,-110.0 l5.0,-185.0 -40.0,-155.0 l-30.0,-50.0 -50.0,-30.0 l-60.0,-10.0 -370.0,0.0 l-170.0,-30.0 -405.0,5.0 l-50.0,20.0 -65.0,70.0 l-5.0,220.0 -50.0,30.0 l-75.0,5.0 -10.0,15.0 m170.0,-270.0 l25.0,0.0 15.0,25.0 l0.0,160.0 -5.0,25.0 l-25.0,15.0 -40.0,0.0 m355.0,-165.0 l0.0,100.0 175.0,5.0 l-35.0,-110.0 -25.0,-15.0 l-110.0,10.0 m185.0,5.0 l0.0,85.0 30.0,10.0 l115.0,-25.0 20.0,-25.0 l-50.0,-75.0 -55.0,-15.0 l-70.0,5.0 m230.0,30.0 l0.0,100.0 160.0,-15.0 l5.0,-25.0 -55.0,-80.0 l-25.0,-10.0 -85.0,35.0 m155.0,15.0 l0.0,115.0 25.0,15.0 l110.0,-15.0 25.0,-10.0 l5.0,-25.0 -30.0,-55.0 l-30.0,-20.0 -125.0,-10.0 m-915.0,430.0 l-30.0,-5.0 -15.0,50.0 l0.0,105.0 40.0,55.0 l50.0,20.0 105.0,0.0 l60.0,-30.0 20.0,-30.0 l5.0,-55.0 -65.0,-75.0 l-85.0,-25.0 -80.0,0.0 l-55.0,50.0 m965.0,-30.0 l-80.0,0.0 -35.0,90.0 l5.0,90.0 45.0,45.0 l60.0,20.0 60.0,0.0 l55.0,-55.0 30.0,-105.0 l-15.0,-30.0 -75.0,-45.0 l-130.0,-10.0 m245.0,-620.0 l10.0,-50.0 20.0,25.0 l-20.0,35.0 m-860.0,340.0 l-40.0,40.0 -5.0,50.0 l80.0,40.0 25.0,-10.0 l45.0,-75.0 -5.0,-25.0 " fill="none" stroke="black" stroke-width="1" /></svg>