<?xml version="1.0" encoding="utf-8" ?>
<svg baseProfile="full" height="59.91035711020231" version="1.1" width="81.63010742515326" xmlns="http://www.w3.org/2000/svg" xmlns:ev="http://www.w3.org/2001/xml-events" xmlns:xlink="http://www.w3.org/1999/xlink"><defs /><rect fill="white" height="59.91035711020231" width="81.63010742515326" x="0" y="0" /><path d="M29.362418744713068,28.16604807798285 m-3.1676650047302246,0.0032205897150561213 l-0.9668746590614319,0.5641314014792442 -0.22787908092141151,0.85145004093647 l0.535101480782032,2.879444658756256 2.1169069409370422,1.7743751406669617 l3.365184962749481,0.6716872006654739 14.462376832962036,-0.37616781890392303 l5.439034104347229,-0.7778164744377136 3.9980897307395935,-0.895429328083992 l0.9237880259752274,-0.5534998327493668 0.789625346660614,-1.4205524325370789 l-0.00017943180864676833,-2.2650964558124542 -0.6465497612953186,-0.9885517507791519 l-1.786389797925949,-1.2010788917541504 -3.098400831222534,-0.976119190454483 l-4.211142659187317,-0.4560449346899986 -4.705803990364075,0.00019376480850041844 l-3.5616472363471985,0.3450635075569153 -3.3909016847610474,0.6477395445108414 l-4.806928634643555,0.9722168743610382 -1.666133850812912,0.7732920348644257 l-0.7097163796424866,0.8855715394020081 m6.976068615913391,2.9376450181007385 l-0.311892069876194,1.5079063177108765 0.1785685308277607,1.3808342814445496 l0.5298375710844994,0.3806871175765991 1.258884221315384,-0.12529028579592705 l0.5430194735527039,-2.370269149541855 -0.609750971198082,-0.49808621406555176 l-1.3764677941799164,0.03641971619799733 m8.937363028526306,-0.5772389844059944 l-0.5788439139723778,1.8739697337150574 0.5244262516498566,1.2867483496665955 l0.6155280023813248,0.2360834926366806 1.1042888462543488,-0.40597274899482727 l0.7474749535322189,-1.4596714079380035 5.511029485205654e-05,-1.182420551776886 l-0.9000065922737122,-0.9893790632486343 m3.2875877618789673,0.24595286697149277 l-0.4808823764324188,1.855202466249466 0.4409068450331688,1.0627833008766174 l1.645132303237915,-0.17477693036198616 0.4184464365243912,-1.857195645570755 l-0.5040992423892021,-0.6072849407792091 -1.3207340240478516,-0.0816684402525425 m-12.879360914230347,-0.1664859987795353 l-0.26527905836701393,1.6494321823120117 0.4725711792707443,1.0226477682590485 l0.8986819535493851,0.4001091420650482 1.4589954912662506,-0.1596434973180294 l0.7661313563585281,-0.794762521982193 -7.361956249951618e-05,-1.4078715443611145 l-0.6116614490747452,-0.8475338667631149 -1.5307877957820892,-0.6446089595556259 m5.941648483276367,0.36625444889068604 l-0.5078693851828575,1.8320505321025848 0.26342907920479774,1.2408556789159775 l0.8575207740068436,0.6440936028957367 1.547820121049881,9.401066563441418e-05 l0.8829347044229507,-0.6868864595890045 0.5053028091788292,-1.542404592037201 l-0.00011973086657235399,-1.141500100493431 -0.554918460547924,-0.7790735363960266 l-1.5395250916481018,-0.6051694601774216 -1.7860488593578339,0.000489496705995407 m-9.34136688709259,-0.058546015061438084 l-0.40561147034168243,1.3028211891651154 0.31029975041747093,2.1793830394744873 l1.27881720662117,0.6019852310419083 2.0871879160404205,0.0004010425982414745 l0.53807083517313,-0.4229237884283066 0.2769196033477783,-1.326061338186264 l-0.4904460906982422,-1.6964000463485718 -0.8678466081619263,-0.5644964054226875 l-1.8494130671024323,-0.2478521503508091 m9.357923865318298,0.2272576093673706 l-0.6792590022087097,1.7464809119701385 0.29675809666514397,2.198713719844818 l0.5278031527996063,0.419672466814518 1.395992934703827,0.06997752469033003 l1.542714536190033,-0.9246086329221725 0.4995427280664444,-1.1427387595176697 l-0.2205251343548298,-1.5845288336277008 -0.8061166107654572,-0.8616230636835098 l-1.8874628841876984,-0.6039097905158997 m-11.344610452651978,0.2914455533027649 l-1.5400026738643646,0.8577112108469009 -0.8097582310438156,1.2511520087718964 l-0.10612068697810173,1.1104708909988403 0.597059577703476,0.7599476724863052 l1.116807535290718,0.37357132881879807 1.7903447151184082,-0.24737399071455002 l1.4539490640163422,-1.2893211841583252 -0.4760401323437691,-2.2587843239307404 l-0.8730705827474594,-0.4480472579598427 m10.967859029769897,0.42254041880369186 l-0.9031111001968384,1.3335877656936646 -0.08562777191400528,2.3275186121463776 l1.352207064628601,0.5580677837133408 3.0112338066101074,-0.8532018214464188 " fill="none" stroke="black" stroke-width="1" /></svg>