<?xml version="1.0" encoding="utf-8" ?>
<svg baseProfile="full" height="94.42841026932001" version="1.1" width="114.3469106964767" xmlns="http://www.w3.org/2000/svg" xmlns:ev="http://www.w3.org/2001/xml-events" xmlns:xlink="http://www.w3.org/1999/xlink"><defs /><rect fill="white" height="94.42841026932001" width="114.3469106964767" x="0" y="0" /><path d="M57.95842840336263,35.19892901238563 m-0.5330415815114975,-0.4218507185578346 l-2.458462119102478,-0.20863356068730354 -3.4444376826286316,0.5399150773882866 l-3.300020694732666,1.5443331003189087 -2.711581289768219,2.188867926597595 l-2.016044408082962,2.8109729290008545 -1.130935400724411,3.2179108262062073 l-0.14648587442934513,3.36268812417984 0.8798163384199142,2.6495593786239624 l2.0555204153060913,2.5223860144615173 4.191190004348755,2.564059793949127 l5.184108018875122,1.4012260735034943 7.677391171455383,0.011508545139804482 l4.186411798000336,-1.3344664871692657 2.8722625970840454,-1.5806025266647339 l2.228423058986664,-1.9978855550289154 1.5209881961345673,-2.44262158870697 l0.8055180311203003,-2.9502400755882263 0.13820821419358253,-3.123711347579956 l-0.6334317475557327,-2.7229583263397217 -1.3935862481594086,-2.593495547771454 l-2.0248793065547943,-2.2831788659095764 -2.5058218836784363,-1.7736618220806122 l-2.9135027527809143,-1.1843708902597427 -3.288474380970001,-0.5197941139340401 l-3.17501962184906,0.00023542264898424037 -2.5550121068954468,0.6335851550102234 m-4.738310873508453,16.261606216430664 l-1.3420912623405457,3.750390410423279 -2.0474325120449066,4.534202218055725 l-2.120729684829712,4.945167601108551 -2.0541971921920776,4.626942574977875 l0.20293096080422401,0.9041257202625275 1.095770001411438,0.40284696966409683 l14.808602333068848,0.4766782373189926 13.789951801300049,0.017744367942214012 l0.355028472840786,-0.49342814832925797 -0.27314212173223495,-1.345372051000595 l-1.9988355040550232,-4.223526418209076 -3.6307671666145325,-7.1887922286987305 l-2.9204726219177246,-5.291781425476074 -1.6289612650871277,-2.0846012234687805 m2.7695846557617188,4.664480090141296 l2.7000081539154053,-2.1530939638614655 2.200327515602112,-2.566523849964142 l2.2903113067150116,-3.320794701576233 2.44403213262558,-5.069524049758911 l2.0872874557971954,-3.644038438796997 1.5889811515808105,-2.7548792958259583 l1.260041743516922,-2.3944218456745148 0.8822739124298096,-1.7033863067626953 l0.7907603681087494,-1.4174014329910278 0.8927398920059204,-1.2500646710395813 l1.1380355060100555,-1.1200518161058426 1.464860439300537,-0.8086486905813217 l1.7532145977020264,-0.26255980134010315 1.007198542356491,0.2404557727277279 l0.773782804608345,0.9038294851779938 0.33859800547361374,1.4744412899017334 l-0.29029669240117073,2.797512114048004 -2.113286554813385,4.6178969740867615 l-3.034137487411499,4.31564062833786 -4.875601530075073,4.762587249279022 l-8.854619860649109,6.397368907928467 -3.096858561038971,1.6999584436416626 m-18.440678119659424,-4.162477552890778 l-3.394857943058014,-3.723767101764679 -3.160475194454193,-3.0724912881851196 l-4.5888060331344604,-4.351508617401123 -3.125734031200409,-2.6661518216133118 l-2.8057608008384705,-1.9473342597484589 -1.9421635568141937,-0.885784700512886 l-1.8829511106014252,-0.2634497173130512 -1.0283318907022476,0.3099527396261692 l-1.1391010135412216,1.4754347503185272 -0.5732503160834312,2.6075974106788635 l0.2019857056438923,3.043682277202606 1.0466992855072021,2.7626243233680725 l1.6975831985473633,2.7104076743125916 4.473491907119751,4.748847782611847 l3.9322692155838013,2.965497374534607 3.8920211791992188,2.1955110132694244 l2.845935821533203,1.1062100529670715 2.766179144382477,0.559595562517643 m6.346224546432495,-13.962264060974121 l-0.39660777896642685,0.8571296185255051 0.12238875031471252,1.4193269610404968 l1.2405551970005035,2.332186698913574 1.4007189869880676,1.1533812433481216 l1.6573333740234375,0.4810713231563568 " fill="none" stroke="black" stroke-width="1" /></svg>