<?xml version="1.0" encoding="utf-8" ?>
<svg baseProfile="full" height="3010.0" version="1.1" width="4070.0" xmlns="http://www.w3.org/2000/svg" xmlns:ev="http://www.w3.org/2001/xml-events" xmlns:xlink="http://www.w3.org/1999/xlink"><defs /><rect fill="white" height="3010.0" width="4070.0" x="0" y="0" /><path d="M2315.0,795.0 m-25.0,-20.0 l-100.0,-5.0 -165.0,35.0 l-270.0,120.0 -125.0,90.0 l-150.0,230.0 -5.0,195.0 l30.0,55.0 75.0,80.0 l105.0,55.0 360.0,70.0 l295.0,0.0 120.0,-20.0 l155.0,-35.0 120.0,-65.0 l50.0,-65.0 60.0,-290.0 l-5.0,-145.0 -60.0,-140.0 l-65.0,-90.0 -70.0,-40.0 l-105.0,-30.0 -270.0,-40.0 m345.0,-715.0 l-325.0,0.0 -115.0,30.0 l-145.0,115.0 -50.0,65.0 l-30.0,135.0 55.0,70.0 l140.0,60.0 255.0,35.0 l380.0,0.0 305.0,-50.0 l40.0,-45.0 10.0,-90.0 l-45.0,-75.0 -70.0,-65.0 l-155.0,-80.0 -350.0,-55.0 m-510.0,1600.0 l-155.0,235.0 -390.0,500.0 l-105.0,165.0 -175.0,395.0 l35.0,15.0 70.0,-10.0 l300.0,-75.0 180.0,-20.0 l630.0,0.0 455.0,75.0 l5.0,-95.0 -50.0,-240.0 l-75.0,-170.0 -170.0,-290.0 l-30.0,-165.0 -125.0,-360.0 m-795.0,120.0 l-290.0,-215.0 -190.0,-205.0 l-145.0,-240.0 -100.0,-280.0 l-15.0,-125.0 0.0,40.0 l40.0,90.0 260.0,505.0 l65.0,180.0 -40.0,10.0 l-70.0,-10.0 -285.0,-95.0 l-815.0,-155.0 60.0,60.0 l315.0,170.0 310.0,120.0 l230.0,120.0 200.0,160.0 l5.0,25.0 -35.0,20.0 l-110.0,0.0 -465.0,-55.0 l-25.0,0.0 50.0,35.0 l855.0,170.0 10.0,25.0 m1830.0,-815.0 l295.0,-145.0 495.0,-160.0 " fill="none" stroke="black" stroke-width="1" /></svg>