<?xml version="1.0" encoding="utf-8" ?>
<svg baseProfile="full" height="2900.0" version="1.1" width="3140.0" xmlns="http://www.w3.org/2000/svg" xmlns:ev="http://www.w3.org/2001/xml-events" xmlns:xlink="http://www.w3.org/1999/xlink"><defs /><rect fill="white" height="2900.0" width="3140.0" x="0" y="0" /><path d="M1090.0,845.0 m-5.0,125.0 l-30.0,165.0 5.0,340.0 l135.0,330.0 245.0,300.0 l155.0,120.0 160.0,80.0 l265.0,75.0 270.0,5.0 l85.0,-20.0 110.0,-65.0 l200.0,-150.0 70.0,-115.0 l40.0,-120.0 15.0,-115.0 l0.0,-280.0 -85.0,-255.0 l-85.0,-150.0 -115.0,-135.0 l-310.0,-225.0 -275.0,-160.0 l-270.0,-50.0 -75.0,0.0 m40.0,1160.0 l245.0,-75.0 560.0,-230.0 l255.0,-140.0 80.0,-100.0 m-850.0,350.0 l-80.0,-65.0 -320.0,-395.0 l-110.0,-115.0 -70.0,-45.0 m-375.0,-35.0 l-5.0,-25.0 25.0,-45.0 l50.0,-45.0 95.0,-65.0 l145.0,-40.0 330.0,0.0 l55.0,35.0 70.0,85.0 m-820.0,1300.0 l-80.0,145.0 -10.0,85.0 m1950.0,-220.0 l-35.0,125.0 5.0,175.0 l15.0,40.0 100.0,190.0 l125.0,155.0 130.0,125.0 l-25.0,-5.0 m-1975.0,-2275.0 l-295.0,-195.0 -85.0,-35.0 m80.0,-175.0 l-35.0,25.0 -210.0,330.0 l-145.0,335.0 -200.0,-180.0 l-135.0,-150.0 -65.0,-180.0 l0.0,-110.0 25.0,-55.0 l75.0,-90.0 40.0,-20.0 l205.0,-45.0 450.0,0.0 l40.0,75.0 m1065.0,620.0 l80.0,-55.0 320.0,-150.0 l115.0,-80.0 m-600.0,-245.0 l145.0,110.0 460.0,180.0 l215.0,110.0 210.0,145.0 l85.0,40.0 -5.0,-140.0 l-130.0,-270.0 -160.0,-210.0 l-95.0,-90.0 -100.0,-65.0 " fill="none" stroke="black" stroke-width="1" /></svg>