<?xml version="1.0" encoding="utf-8" ?>
<svg baseProfile="full" height="84.99917014618404" version="1.1" width="83.93404121510684" xmlns="http://www.w3.org/2000/svg" xmlns:ev="http://www.w3.org/2001/xml-events" xmlns:xlink="http://www.w3.org/1999/xlink"><defs /><rect fill="white" height="84.99917014618404" width="83.93404121510684" x="0" y="0" /><path d="M25.997582296840847,31.2833755009342 m-0.10581385344266891,2.6444384455680847 l-0.5825517699122429,6.915503144264221 0.037382072769105434,8.655278086662292 l1.7779040336608887,3.495989441871643 3.3239415287971497,3.16067636013031 l4.131774306297302,2.2130227088928223 4.393599629402161,1.2472937256097794 l4.626436829566956,0.38359273225069046 3.9689746499061584,-0.4389606788754463 l2.776065766811371,-1.055096834897995 2.427304834127426,-1.5785613656044006 l2.0498818159103394,-2.083229571580887 1.6412344574928284,-2.5249335169792175 l1.2627562880516052,-2.98796147108078 0.967758372426033,-4.528575837612152 l0.23980995640158653,-4.6043360233306885 -0.6366788595914841,-4.325828552246094 l-1.6336886584758759,-3.9101293683052063 -1.6842304170131683,-2.307848036289215 l-2.095179110765457,-1.812114268541336 -2.5324606895446777,-1.35610431432724 l-3.2347407937049866,-1.0012653470039368 -3.7070459127426147,-0.4741479456424713 l-3.8645243644714355,-0.010077013866975904 -3.4891632199287415,0.5438264831900597 l-3.5000216960906982,1.138453185558319 -3.003651201725006,1.4977163076400757 l-2.398681491613388,1.8819618225097656 -1.5379273891448975,2.054523229598999 l-0.5633856356143951,1.6032029688358307 -0.052661774680018425,1.557045727968216 m10.340524911880493,6.272589564323425 l-0.5179587379097939,0.41688308119773865 -0.27679530903697014,1.175188571214676 l0.1652338169515133,1.3703462481498718 0.7319480925798416,0.7860836386680603 l1.1006581038236618,0.2586002089083195 1.608535647392273,-0.4961155727505684 l0.9322697669267654,-1.108563244342804 0.2668176591396332,-1.366795301437378 l-0.24694878607988358,-0.9786892682313919 -0.7687188684940338,-0.7211770862340927 l-1.12741120159626,-0.31313832849264145 -1.1955185234546661,0.13528182171285152 l-0.7835450768470764,0.6779622286558151 -0.254326406866312,1.0567840188741684 l0.31618867069482803,0.9323614090681076 0.9046398103237152,0.46969030052423477 l1.7153403162956238,-0.04709713160991669 0.8619334548711777,-0.685969814658165 l0.6465624272823334,-1.4480030536651611 -0.03053194610401988,-0.8644233644008636 l-0.5763114988803864,-0.48759710043668747 -0.9216918051242828,-0.022396196145564318 l-0.7039834558963776,0.5570986866950989 -0.3251925855875015,1.083565428853035 l0.22660909220576286,1.0850785672664642 0.8120165020227432,0.4832416772842407 l1.7664068937301636,0.019744043238461018 1.235036849975586,-0.8588748425245285 l0.746631994843483,-1.4089661836624146 -0.0715569918975234,-1.4319884777069092 l-0.6027291342616081,-0.4851684719324112 -1.4835827052593231,-0.08890556171536446 l-0.8945051580667496,0.5228639394044876 -0.5560291558504105,1.0408489406108856 l0.010395854478701949,1.238439828157425 0.5877653509378433,0.6787843257188797 l1.6009944677352905,0.4176279157400131 1.8543298542499542,-0.2701345644891262 l0.9264729171991348,-0.8031092584133148 0.5759357661008835,-1.4150470495224 l-0.27458585798740387,-1.4032979309558868 -0.7319644093513489,-0.5506907030940056 l-1.5828286111354828,-0.07552307099103928 -1.478888839483261,0.8715182542800903 l-0.6558980047702789,1.0955941677093506 -0.04400983452796936,1.250828355550766 l0.5392297729849815,0.7341621816158295 1.5880565345287323,0.5601157993078232 l2.0603084564208984,-0.0974248256534338 1.34812131524086,-0.8866298198699951 l0.7935164123773575,-1.346127837896347 -0.015141986077651381,-1.5198764204978943 l-0.5880305543541908,-0.552041307091713 -0.9945423901081085,-0.1409155037254095 l-0.9738161414861679,0.362466461956501 -0.7441656291484833,0.8977692574262619 l-0.21347269415855408,1.1675703525543213 0.3289514034986496,0.8603525906801224 " fill="none" stroke="black" stroke-width="1" /></svg>