<?xml version="1.0" encoding="utf-8" ?>
<svg baseProfile="full" height="97.77691245311871" version="1.1" width="100.62304126098752" xmlns="http://www.w3.org/2000/svg" xmlns:ev="http://www.w3.org/2001/xml-events" xmlns:xlink="http://www.w3.org/1999/xlink"><defs /><rect fill="white" height="97.77691245311871" width="100.62304126098752" x="0" y="0" /><path d="M31.422974821180105,49.4055082736304 m3.596040904521942,-2.01545313000679 l3.281712532043457,-1.0767429322004318 3.143381178379059,-0.523105263710022 l2.954281270503998,-0.07247738540172577 3.7445762753486633,0.5902882292866707 l4.619084298610687,0.0070565222995355725 3.981351852416992,-0.3840271756052971 l5.091074109077454,-0.13477866537868977 8.234899640083313,-0.2953849546611309 l2.222418040037155,0.45125890523195267 1.7394568026065826,1.0201478749513626 l1.198418214917183,1.6476397216320038 0.3933713212609291,2.030078023672104 l-0.2550811320543289,1.170225739479065 -0.7759226858615875,1.0579711198806763 l-2.2682441771030426,1.567167341709137 -3.2612809538841248,1.1719412356615067 l-5.888929963111877,1.0503482818603516 -9.591357707977295,0.4666302353143692 l-14.458945989608765,-0.40086064487695694 -6.768350601196289,-0.3004968725144863 l-5.231512784957886,-1.1830972880125046 -1.3663585484027863,-0.634167268872261 l-0.7004847377538681,-0.9081099927425385 -0.05657197907567024,-1.1898940056562424 l0.716572180390358,-1.0296576470136642 1.3313159346580505,-0.6914636492729187 l2.6952749490737915,-0.5653458833694458 m16.661016941070557,-0.551517903804779 l0.5633923783898354,0.8913058787584305 1.1133099347352982,3.874019682407379 l2.3033304512500763,10.055239200592041 1.35120689868927,4.794832170009613 l1.4803513884544373,2.98489511013031 1.8468475341796875,0.4969395697116852 l2.1401578187942505,-0.3285730257630348 1.8811263144016266,-1.4457139372825623 l0.9600091725587845,-1.52887761592865 0.6827434152364731,-2.776547074317932 l0.036357666831463575,-3.52312833070755 -1.0734739899635315,-5.123438835144043 l-1.7385680973529816,-5.743378400802612 -1.4901381731033325,-3.4790632128715515 m-8.879277110099792,-6.6429078578948975 l-0.10045415721833706,-4.899521172046661 0.9272009879350662,-6.031724214553833 l1.4408791065216064,-3.6731523275375366 1.547999531030655,-1.7444461584091187 l1.903098225593567,-0.8122316747903824 2.225136458873749,-0.024208615068346262 l1.605643481016159,0.8525678515434265 0.970827043056488,1.2007985264062881 l0.7653021067380905,2.434099465608597 0.21339993923902512,3.090237081050873 l-0.5815625935792923,4.474027752876282 0.3267841413617134,2.82285213470459 l-0.26961691677570343,1.3882023096084595 m-7.925539016723633,3.5633650422096252 l-0.35349275916814804,0.5559607595205307 " fill="none" stroke="black" stroke-width="1" /></svg>