<?xml version="1.0" encoding="utf-8" ?>
<svg baseProfile="full" height="995.0" version="1.1" width="3215.0" xmlns="http://www.w3.org/2000/svg" xmlns:ev="http://www.w3.org/2001/xml-events" xmlns:xlink="http://www.w3.org/1999/xlink"><defs /><rect fill="white" height="995.0" width="3215.0" x="0" y="0" /><path d="M70.0,180.0 m165.0,-95.0 l110.0,-35.0 105.0,-20.0 l310.0,0.0 65.0,15.0 l260.0,155.0 270.0,100.0 l295.0,15.0 180.0,-70.0 l120.0,-85.0 m-1880.0,5.0 l-45.0,45.0 10.0,25.0 l50.0,10.0 100.0,-40.0 l20.0,-25.0 155.0,-55.0 l340.0,-15.0 50.0,10.0 l240.0,135.0 355.0,70.0 l205.0,60.0 155.0,10.0 l110.0,0.0 165.0,-60.0 l25.0,-125.0 -5.0,-25.0 l-50.0,-20.0 -5.0,-25.0 l55.0,-100.0 25.0,-15.0 l125.0,50.0 0.0,25.0 l-145.0,90.0 m35.0,-115.0 l0.0,25.0 -45.0,60.0 m-220.0,130.0 l0.0,5.0 m-85.0,40.0 l-10.0,0.0 m-600.0,-85.0 l0.0,0.0 m-170.0,-85.0 l0.0,0.0 m-135.0,-65.0 l0.0,-5.0 m-180.0,-35.0 l0.0,0.0 m-140.0,25.0 l0.0,0.0 m-295.0,75.0 l-5.0,5.0 m160.0,-55.0 l85.0,0.0 m85.0,-40.0 l30.0,0.0 m425.0,90.0 l30.0,15.0 m-245.0,785.0 l2465.0,10.0 " fill="none" stroke="black" stroke-width="1" /></svg>