<?xml version="1.0" encoding="utf-8" ?>
<svg baseProfile="full" height="66.74354494549334" version="1.1" width="104.25177242606878" xmlns="http://www.w3.org/2000/svg" xmlns:ev="http://www.w3.org/2001/xml-events" xmlns:xlink="http://www.w3.org/1999/xlink"><defs /><rect fill="white" height="66.74354494549334" width="104.25177242606878" x="0" y="0" /><path d="M25,35.58228967245668 m1.5714623034000397,0.8769521117210388 l5.566605925559998,0.8962152153253555 7.741793394088745,0.4933614283800125 l12.372905015945435,0.38110949099063873 5.80186665058136,-0.13207036070525646 l9.716344475746155,-0.45177940279245377 4.182592332363129,-0.31341053545475006 l3.365383744239807,-0.5548301711678505 2.0755453407764435,-0.7345492392778397 l1.386324167251587,-1.0126375406980515 0.47094907611608505,-1.1854767799377441 l-0.09559330530464649,-1.92056804895401 -1.0741288214921951,-1.796472817659378 l-1.9050616025924683,-1.6229285299777985 -2.652226984500885,-1.3112381100654602 l-3.5499608516693115,-1.056072935461998 -5.654222369194031,-0.686669796705246 l-9.438089728355408,-0.07424952927976847 -10.089445114135742,1.0472141951322556 l-6.158810257911682,1.5619851648807526 -4.97610867023468,2.019767463207245 l-2.545359432697296,1.5793465077877045 -1.5918520092964172,1.5937726199626923 l-0.522516556084156,1.1319976300001144 0.11268161237239838,1.0892515629529953 l1.1332665383815765,1.312941312789917 2.2537806630134583,1.0805942863225937 l3.1636157631874084,0.7295873016119003 4.94950145483017,0.6464273482561111 l5.793590545654297,0.4000595211982727 8.132982850074768,-0.2176838368177414 l7.680426836013794,-1.188049092888832 4.85764741897583,-1.4038987457752228 l3.8396021723747253,-1.6641999781131744 2.9881086945533752,-1.916404664516449 l0.9548173099756241,-1.169569343328476 0.2166534587740898,-1.2702420353889465 l-0.4453222453594208,-1.3249434530735016 -1.4589805901050568,-1.5181005001068115 l-2.3169666528701782,-1.3158200681209564 -2.975383996963501,-0.9963984787464142 l-5.008845925331116,-0.5846088379621506 -6.152992248535156,0.12169373221695423 l-5.907924771308899,0.9897875785827637 -5.481322407722473,1.8358367681503296 l-4.571489989757538,2.384297698736191 -2.48221755027771,1.914219707250595 l-1.7025481164455414,1.960640549659729 -0.9178698062896729,2.021031975746155 l-0.055604251101613045,1.5154632925987244 0.5497994646430016,1.0297240316867828 l1.7749117314815521,1.3273584842681885 2.686719000339508,0.9264753758907318 l3.531636595726013,0.49931541085243225 6.970624327659607,0.21770033985376358 l6.800100803375244,-0.841057226061821 4.501171708106995,-1.2196429073810577 l3.6091595888137817,-1.5793415904045105 2.1146470308303833,-1.4754542708396912 l1.37233167886734,-1.5861083567142487 0.6862869113683701,-1.7389531433582306 l0.12190036475658417,-1.9797427952289581 -0.49448926001787186,-1.6370497643947601 l-1.2734964489936829,-1.508399248123169 " fill="none" stroke="black" stroke-width="1" /></svg>