<?xml version="1.0" encoding="utf-8" ?>
<svg baseProfile="full" height="1960.0" version="1.1" width="2650.0" xmlns="http://www.w3.org/2000/svg" xmlns:ev="http://www.w3.org/2001/xml-events" xmlns:xlink="http://www.w3.org/1999/xlink"><defs /><rect fill="white" height="1960.0" width="2650.0" x="0" y="0" /><path d="M40.0,1760.0 m80.0,40.0 l220.0,60.0 550.0,75.0 l435.0,-15.0 465.0,-70.0 l250.0,-5.0 250.0,20.0 l205.0,-10.0 15.0,-25.0 l-85.0,-95.0 85.0,-255.0 l30.0,-170.0 25.0,-375.0 l55.0,-445.0 5.0,-210.0 l-25.0,-5.0 -75.0,35.0 l-195.0,35.0 -840.0,85.0 l-905.0,20.0 -200.0,25.0 l-360.0,80.0 0.0,25.0 l100.0,150.0 30.0,110.0 l-15.0,295.0 -45.0,360.0 l0.0,170.0 -30.0,80.0 m15.0,-825.0 l10.0,50.0 25.0,15.0 l50.0,-10.0 255.0,-190.0 l100.0,-55.0 25.0,5.0 l35.0,50.0 15.0,100.0 l30.0,55.0 80.0,40.0 l140.0,-10.0 155.0,-45.0 l110.0,-50.0 135.0,-90.0 l10.0,50.0 40.0,50.0 l110.0,25.0 80.0,-25.0 l125.0,-115.0 75.0,5.0 l230.0,185.0 130.0,25.0 l195.0,-25.0 315.0,-115.0 l50.0,-5.0 m-2130.0,-410.0 l15.0,-125.0 -10.0,-275.0 m375.0,365.0 l-35.0,-300.0 25.0,-70.0 m390.0,415.0 l-65.0,-385.0 " fill="none" stroke="black" stroke-width="1" /></svg>