<?xml version="1.0" encoding="utf-8" ?>
<svg baseProfile="full" height="68.12181029003114" version="1.1" width="84.15151543915272" xmlns="http://www.w3.org/2000/svg" xmlns:ev="http://www.w3.org/2001/xml-events" xmlns:xlink="http://www.w3.org/1999/xlink"><defs /><rect fill="white" height="68.12181029003114" width="84.15151543915272" x="0" y="0" /><path d="M28.758204728364944,29.867683295160532 m2.7062609791755676,-4.599480330944061 l0.5175638198852539,-0.2682029642164707 1.6855590045452118,2.2248993813991547 l2.552981972694397,0.6929951906204224 13.798691034317017,-0.17521247267723083 l3.8933074474334717,0.3796904534101486 2.671453356742859,0.7512624561786652 l1.4852997660636902,0.8279464393854141 0.8542023599147797,1.169017180800438 l0.22799097001552582,1.6565151512622833 -0.3903583809733391,0.862809345126152 l-0.9503359347581863,0.7875935733318329 -2.433764487504959,0.9534410387277603 l-7.0964425802230835,0.7187645137310028 -12.25972056388855,0.04470898304134607 l-8.027830719947815,-1.514609158039093 -1.972939670085907,-0.9948230534791946 l-0.8429954946041107,-0.9682941436767578 -0.17712760716676712,-1.1569686979055405 l0.4528483375906944,-1.0153192281723022 1.2117324769496918,-0.8295857906341553 l3.643195629119873,-0.9684703499078751 3.134194314479828,-0.09220561943948269 m6.6394370794296265,4.266133606433868 l-0.1633867435157299,3.5409677028656006 -0.55830467492342,4.420557916164398 l0.09031634777784348,2.1963003277778625 0.46576783061027527,0.3436955437064171 l1.7580923438072205,-0.017368783010169864 1.6466128826141357,-0.7957307994365692 l1.5327179431915283,-1.6796307265758514 1.3991065323352814,-3.5869115591049194 l0.4979804903268814,-4.422844648361206 " fill="none" stroke="black" stroke-width="1" /></svg>