<?xml version="1.0" encoding="utf-8" ?>
<svg baseProfile="full" height="1305.0" version="1.1" width="1615.0" xmlns="http://www.w3.org/2000/svg" xmlns:ev="http://www.w3.org/2001/xml-events" xmlns:xlink="http://www.w3.org/1999/xlink"><defs /><rect fill="white" height="1305.0" width="1615.0" x="0" y="0" /><path d="M130.0,705.0 m125.0,-220.0 l50.0,-165.0 35.0,310.0 l150.0,0.0 330.0,-35.0 l600.0,-5.0 50.0,10.0 l80.0,45.0 40.0,100.0 l-35.0,40.0 -115.0,40.0 l-130.0,10.0 -225.0,55.0 l-385.0,30.0 -360.0,0.0 l-130.0,-35.0 -185.0,-110.0 l15.0,-25.0 215.0,-5.0 l10.0,-20.0 m410.0,-120.0 l130.0,-135.0 155.0,-270.0 l80.0,-175.0 15.0,415.0 l-20.0,25.0 -95.0,30.0 m-805.0,180.0 l-45.0,50.0 0.0,40.0 m625.0,150.0 l15.0,260.0 50.0,105.0 " fill="none" stroke="black" stroke-width="1" /></svg>