<?xml version="1.0" encoding="utf-8" ?>
<svg baseProfile="full" height="96.69109791517258" version="1.1" width="125.59760588104837" xmlns="http://www.w3.org/2000/svg" xmlns:ev="http://www.w3.org/2001/xml-events" xmlns:xlink="http://www.w3.org/1999/xlink"><defs /><rect fill="white" height="96.69109791517258" width="125.59760588104837" x="0" y="0" /><path d="M94.28115401067771,28.206910490989685 m-15.702759027481079,-0.4057811573147774 l-13.542035818099976,-2.41761714220047 -14.49992060661316,-0.3835121914744377 l-6.192989349365234,0.8853218704462051 -4.917997419834137,1.5288589894771576 l-3.956175744533539,1.9373984634876251 -2.204682379961014,1.8570581078529358 l-2.5932329893112183,3.9202505350112915 -2.069969028234482,5.653477907180786 l-1.1248521506786346,12.01608657836914 0.10361467488110065,8.203291296958923 l0.9851508587598801,3.4991228580474854 1.2238101661205292,1.6099298000335693 l1.8049681186676025,0.9203291684389114 19.35334324836731,-0.9112174063920975 l11.421655416488647,-0.9265995025634766 10.668314695358276,-0.9494619816541672 l8.821967244148254,-0.9972343593835831 6.303914785385132,-0.7833137363195419 l5.247397422790527,-0.8975072950124741 2.2208502888679504,-0.9277211874723434 l1.4597654342651367,-1.3543584942817688 0.9662052243947983,-1.8818163871765137 l0.706842690706253,-4.030913710594177 -0.26111630722880363,-17.368746995925903 l-0.8405529707670212,-5.041908621788025 -0.8686131238937378,-0.8999288827180862 m-39.59665298461914,27.310495376586914 l-1.3904088735580444,0.263480506837368 -1.9439959526062012,1.699058711528778 l-1.18899866938591,1.8939423561096191 -0.6601116061210632,2.0084598660469055 l-0.1604750193655491,2.9088816046714783 0.5285170674324036,1.8941329419612885 l0.984513983130455,1.4779084920883179 1.3104766607284546,1.1112452298402786 l1.6544389724731445,0.7522052526473999 1.9526539742946625,0.3108905628323555 l2.0233412086963654,-0.22990290075540543 1.8811766803264618,-0.8965512365102768 l1.5558607876300812,-1.3103078305721283 1.1802145093679428,-1.611730009317398 l0.7551830261945724,-1.8447582423686981 0.28286172077059746,-1.9279223680496216 l-0.4205498471856117,-2.5225937366485596 -1.0475680977106094,-1.7995768785476685 l-1.4617420732975006,-1.2804771959781647 -1.7767001688480377,-0.7740779966115952 l-1.9879230856895447,-0.276337843388319 -2.424086779356003,0.46470362693071365 l-1.358993798494339,1.0059165954589844 m26.92458152770996,-0.3707800805568695 l-0.8688060194253922,-0.2972636930644512 -2.1721073985099792,0.6224672868847847 l-1.7156982421875,1.1983203142881393 -1.3435818254947662,1.571841686964035 l-0.8415736258029938,1.855892390012741 -0.3607567772269249,2.893940806388855 l0.4523716866970062,1.879355013370514 1.095648854970932,1.3722039759159088 l1.5618512034416199,0.9382671117782593 1.8638703227043152,0.411858893930912 l3.05501788854599,-0.38525842130184174 2.1237479150295258,-1.30263552069664 l1.3837143778800964,-1.636316180229187 0.8041614294052124,-1.974666565656662 l0.14833280816674232,-2.9888123273849487 -0.6305152177810669,-2.1067677438259125 l-1.1502861231565475,-1.5306094288825989 -1.5548992156982422,-1.0004401206970215 l-1.9242343306541443,-0.4590703919529915 m-26.832726001739502,-15.7429039478302 l-0.6002836674451828,3.3057913184165955 -0.7082680612802505,4.013616442680359 l-0.4157482832670212,2.6979032158851624 -0.21242335438728333,1.384035050868988 l-0.6559605896472931,3.5228195786476135 -0.33475790172815323,1.6020441055297852 l-0.061636967584490776,-0.1791621372103691 0.45056361705064774,-4.756230115890503 l0.5989350751042366,-6.75119936466217 0.048875692300498486,-5.352914333343506 m12.127524614334106,1.7380310595035553 l-1.1347781121730804,5.219780802726746 -0.7592928409576416,6.199032664299011 l7.869440317153931,-0.4069586470723152 0.05682051181793213,-5.020642280578613 l-0.7880041003227234,-6.349391937255859 -5.44960618019104,-0.6199779361486435 m13.671027421951294,1.4027813076972961 l-0.5239556357264519,4.990979433059692 -0.35076476633548737,4.555990099906921 l7.188125252723694,-0.7453501224517822 0.24870814755558968,-4.825544059276581 l-0.7627341151237488,-4.298914670944214 -5.716565847396851,-0.2989060804247856 l-3.477337062358856,0.16767870634794235 m16.415740251541138,0.9947964549064636 l-0.37587210536003113,4.2837777733802795 -0.03479451173916459,4.3032389879226685 l6.049458384513855,-0.6997502595186234 2.7319684624671936,-0.8886780589818954 l-0.003928708611056209,-4.273432195186615 -0.9806984663009644,-3.2238879799842834 l-6.735389828681946,-0.04142275080084801 -2.538231611251831,0.5115455016493797 m-23.88465166091919,3.1449094414711 l-0.7600840926170349,3.771868646144867 -0.214658435434103,2.8262317180633545 l5.613126754760742,-0.21374473348259926 3.985223174095154,-0.5985884740948677 l0.10497709736227989,-3.283495306968689 -0.9653510898351669,-2.908792197704315 l-6.565750241279602,-0.1832934468984604 -3.0054697394371033,0.33933497965335846 m-9.414495825767517,3.222438395023346 l-0.589672327041626,3.8467958569526672 -0.10773665271699429,2.4822403490543365 l6.0732293128967285,-0.7961829751729965 0.3867257758975029,-3.265766203403473 l-0.8183511346578598,-3.031395673751831 -4.924715161323547,-0.4904308170080185 l-2.2364988923072815,0.4131726920604706 m-0.07960640825331211,2.914845049381256 l-0.43889496475458145,4.645075798034668 4.8377832770347595,-0.2956007979810238 l0.5356911197304726,-2.4906139075756073 -0.8645493537187576,-3.1527844071388245 l-4.796114265918732,-0.39588533341884613 -2.5936827063560486,0.3257259726524353 m0.0259340088814497,3.1046125292778015 l-0.5293005704879761,4.069661200046539 6.518242359161377,-0.0924468319863081 l0.3582928329706192,-2.8171297907829285 -1.4006523787975311,-3.242150843143463 l-6.423488259315491,-0.2946033142507076 -3.160419464111328,0.3686521574854851 m2.5200968980789185,4.667858183383942 l-4.781745672225952,0.3616291657090187 -7.746461629867554,0.7542148977518082 l-9.996328949928284,0.6861633062362671 " fill="none" stroke="black" stroke-width="1" /></svg>