<?xml version="1.0" encoding="utf-8" ?>
<svg baseProfile="full" height="2560.0" version="1.1" width="3445.0" xmlns="http://www.w3.org/2000/svg" xmlns:ev="http://www.w3.org/2001/xml-events" xmlns:xlink="http://www.w3.org/1999/xlink"><defs /><rect fill="white" height="2560.0" width="3445.0" x="0" y="0" /><path d="M3405.0,170.0 m-785.0,-15.0 l-750.0,-110.0 -830.0,-20.0 l-440.0,85.0 -65.0,20.0 l-115.0,70.0 -105.0,115.0 l-100.0,145.0 -100.0,280.0 l-85.0,690.0 -5.0,365.0 l40.0,30.0 105.0,30.0 l300.0,45.0 610.0,40.0 l675.0,0.0 525.0,-60.0 l425.0,-95.0 340.0,-170.0 l185.0,-165.0 135.0,-175.0 l30.0,-65.0 25.0,-155.0 l0.0,-660.0 -25.0,-160.0 l-25.0,-40.0 m-425.0,1560.0 l55.0,-65.0 0.0,-30.0 l-75.0,0.0 -125.0,80.0 l-130.0,125.0 -60.0,80.0 l-35.0,85.0 -15.0,60.0 l15.0,115.0 50.0,40.0 l75.0,25.0 165.0,10.0 l95.0,-10.0 80.0,-40.0 l110.0,-85.0 55.0,-85.0 l10.0,-75.0 -70.0,-90.0 l-75.0,-55.0 -75.0,-25.0 l-100.0,0.0 m-2365.0,-15.0 l-150.0,0.0 -95.0,25.0 l-80.0,45.0 -120.0,140.0 l-30.0,65.0 -25.0,170.0 l0.0,80.0 30.0,60.0 l60.0,60.0 90.0,55.0 l105.0,30.0 215.0,5.0 l185.0,-140.0 75.0,-70.0 l50.0,-75.0 25.0,-65.0 l10.0,-135.0 -45.0,-75.0 l-215.0,-140.0 -110.0,-45.0 l-105.0,-20.0 -175.0,-5.0 l-85.0,25.0 -70.0,60.0 m2865.0,145.0 l0.0,0.0 m-25.0,-30.0 l-25.0,50.0 70.0,20.0 l-5.0,-30.0 -30.0,0.0 m-2490.0,135.0 l-25.0,-10.0 -50.0,45.0 m540.0,-1855.0 l-40.0,-25.0 -90.0,5.0 l-175.0,60.0 -110.0,75.0 l-30.0,40.0 -25.0,105.0 l0.0,210.0 50.0,70.0 l130.0,5.0 325.0,-35.0 l120.0,-20.0 35.0,-20.0 l20.0,-35.0 0.0,-105.0 l-105.0,-175.0 -35.0,-135.0 m980.0,-45.0 l-25.0,-15.0 -225.0,0.0 l-210.0,15.0 -65.0,30.0 l-25.0,80.0 0.0,125.0 l55.0,260.0 35.0,60.0 l240.0,-35.0 415.0,-15.0 l0.0,-150.0 -120.0,-305.0 m885.0,10.0 l-100.0,-10.0 -110.0,20.0 l-230.0,5.0 10.0,505.0 l365.0,-5.0 110.0,-20.0 l35.0,-30.0 25.0,-125.0 l-5.0,-275.0 m-2205.0,760.0 l-65.0,-5.0 -430.0,80.0 l35.0,320.0 550.0,30.0 l35.0,-10.0 0.0,-25.0 l-70.0,-260.0 -15.0,-205.0 m1180.0,85.0 l-185.0,-10.0 -455.0,60.0 l-25.0,25.0 -5.0,65.0 l80.0,315.0 25.0,25.0 " fill="none" stroke="black" stroke-width="1" /></svg>