<?xml version="1.0" encoding="utf-8" ?>
<svg baseProfile="full" height="70.71280610747635" version="1.1" width="68.13840350136161" xmlns="http://www.w3.org/2000/svg" xmlns:ev="http://www.w3.org/2001/xml-events" xmlns:xlink="http://www.w3.org/1999/xlink"><defs /><rect fill="white" height="70.71280610747635" width="68.13840350136161" x="0" y="0" /><path d="M36.97224669158459,32.82411364838481 m-1.097191795706749,-0.745467022061348 l-2.6943787932395935,-0.7089757174253464 -3.1175172328948975,-0.08721363730728626 l-1.554841548204422,0.4540778324007988 -2.044418901205063,1.5803435444831848 l-0.9729967266321182,1.5260449051856995 -0.4909016937017441,2.7523547410964966 l0.40982361882925034,2.8275227546691895 1.4628244936466217,2.3105379939079285 l2.355767786502838,1.7430517077445984 4.086029529571533,1.2364153563976288 l5.551760792732239,-0.22705303505063057 1.7543834447860718,-1.0922977328300476 l1.4819099009037018,-1.9107486307621002 0.8692623674869537,-2.4659624695777893 l0.16664156690239906,-2.765297591686249 -0.5832812562584877,-2.3587004840373993 l-1.3061195611953735,-2.043709456920624 -1.7310819029808044,-1.362905502319336 l-2.0012319087982178,-0.681312084197998 -1.9823531806468964,-0.09901466779410839 l-1.1703142523765564,0.5052348598837852 -0.616997703909874,0.7121238112449646 m0.626714676618576,0.23364033550024033 l-0.08466935716569424,-2.5493934750556946 0.2982804551720619,-1.7788323760032654 l0.8568646013736725,-1.3951519131660461 1.429518610239029,-0.975668877363205 l1.740909218788147,-0.45775681734085083 " fill="none" stroke="black" stroke-width="1" /></svg>