<?xml version="1.0" encoding="utf-8" ?>
<svg baseProfile="full" height="710.0" version="1.1" width="930.0" xmlns="http://www.w3.org/2000/svg" xmlns:ev="http://www.w3.org/2001/xml-events" xmlns:xlink="http://www.w3.org/1999/xlink"><defs /><rect fill="white" height="710.0" width="930.0" x="0" y="0" /><path d="M690.0,95.0 m-55.0,-35.0 l-145.0,-35.0 -170.0,5.0 l-140.0,25.0 -25.0,60.0 l-95.0,70.0 -35.0,105.0 l10.0,75.0 90.0,130.0 l290.0,95.0 125.0,10.0 l155.0,-20.0 70.0,-20.0 l75.0,-50.0 65.0,-100.0 l-20.0,-130.0 -80.0,-140.0 l-90.0,-55.0 m-175.0,440.0 l-115.0,0.0 10.0,105.0 l10.0,10.0 m100.0,-115.0 l30.0,135.0 -5.0,20.0 l-100.0,5.0 -30.0,-40.0 m-300.0,-315.0 l5.0,20.0 " fill="none" stroke="black" stroke-width="1" /></svg>