<?xml version="1.0" encoding="utf-8" ?>
<svg baseProfile="full" height="76.99753074441105" version="1.1" width="70.82539880648255" xmlns="http://www.w3.org/2000/svg" xmlns:ev="http://www.w3.org/2001/xml-events" xmlns:xlink="http://www.w3.org/1999/xlink"><defs /><rect fill="white" height="76.99753074441105" width="70.82539880648255" x="0" y="0" /><path d="M25,38.60735510010272 m0.45493680983781815,1.927412748336792 l0.448308102786541,6.126929521560669 1.1993934214115143,3.7717923521995544 l1.2717026472091675,0.8532173186540604 2.9095208644866943,0.6020023673772812 l5.155290961265564,0.1088213361799717 6.870130896568298,-0.7506570965051651 l1.5106318891048431,-1.3176725804805756 0.9462463110685349,-2.150019407272339 l0.05923690274357796,-7.649319767951965 -0.6512294709682465,-2.0509809255599976 l-1.1782658100128174,-1.157933846116066 -2.2440387308597565,-0.7875987142324448 l-3.18069189786911,-0.36276593804359436 -8.229949474334717,0.6977298110723495 l-3.911522328853607,1.0312163084745407 -1.03895902633667,0.6989376991987228 m4.763771891593933,-1.102401614189148 l0.04647888708859682,-3.4984365105628967 -0.35252463072538376,-4.164246022701263 l2.464333474636078,-0.3382543846964836 8.549968600273132,-0.012640566565096378 l0.015769990859553218,7.690593004226685 -0.1188452634960413,1.5597639977931976 m-6.738057732582092,-9.896049499511719 l-0.039588864892721176,-3.0340352654457092 3.1960591673851013,-0.402759425342083 l0.4590744525194168,0.3370518982410431 -0.007093276362866163,4.0291330218315125 m-3.733689785003662,-2.007155865430832 l-0.07906193844974041,-2.0657968521118164 m2.323770970106125,2.4078117311000824 l0.08243385702371597,-1.9055785238742828 m1.8600139021873474,1.9217109680175781 l0.14750861562788486,-1.8755486607551575 m-6.44469141960144,5.953616499900818 l0.007238075486384332,-0.7354871928691864 " fill="none" stroke="black" stroke-width="1" /></svg>