<?xml version="1.0" encoding="utf-8" ?>
<svg baseProfile="full" height="1480.0" version="1.1" width="925.0" xmlns="http://www.w3.org/2000/svg" xmlns:ev="http://www.w3.org/2001/xml-events" xmlns:xlink="http://www.w3.org/1999/xlink"><defs /><rect fill="white" height="1480.0" width="925.0" x="0" y="0" /><path d="M25,885.0 m20.0,90.0 l-15.0,175.0 15.0,275.0 l25.0,15.0 330.0,15.0 l385.0,-10.0 100.0,-20.0 l15.0,-25.0 -45.0,-445.0 l-25.0,-20.0 -540.0,-50.0 l-215.0,30.0 100.0,-10.0 l20.0,-80.0 0.0,-205.0 l410.0,-30.0 80.0,15.0 l45.0,315.0 m-415.0,-320.0 l-25.0,-165.0 15.0,-80.0 l25.0,-20.0 150.0,20.0 l35.0,190.0 m-145.0,-240.0 l15.0,-140.0 0.0,105.0 m10.0,-135.0 l-30.0,-50.0 -5.0,-50.0 l25.0,-10.0 30.0,10.0 l15.0,25.0 10.0,25.0 l-35.0,45.0 -15.0,-25.0 l10.0,-45.0 " fill="none" stroke="black" stroke-width="1" /></svg>