<?xml version="1.0" encoding="utf-8" ?>
<svg baseProfile="full" height="1020.0" version="1.1" width="1140.0" xmlns="http://www.w3.org/2000/svg" xmlns:ev="http://www.w3.org/2001/xml-events" xmlns:xlink="http://www.w3.org/1999/xlink"><defs /><rect fill="white" height="1020.0" width="1140.0" x="0" y="0" /><path d="M595.0,35.0 m-75.0,-10.0 l-125.0,35.0 -225.0,155.0 l-100.0,120.0 -40.0,110.0 l-5.0,60.0 10.0,120.0 l20.0,55.0 110.0,195.0 l145.0,95.0 195.0,25.0 l70.0,0.0 150.0,-65.0 l330.0,-310.0 55.0,-125.0 l5.0,-70.0 -25.0,-110.0 l-145.0,-200.0 -75.0,-55.0 l-70.0,-25.0 -190.0,0.0 m-25.0,105.0 l-5.0,85.0 m95.0,-95.0 l30.0,-10.0 30.0,10.0 l20.0,25.0 -20.0,80.0 l-30.0,25.0 -25.0,0.0 l-5.0,-20.0 35.0,-10.0 l65.0,10.0 m95.0,-25.0 l40.0,140.0 m0.0,145.0 l90.0,-45.0 55.0,0.0 l5.0,30.0 -30.0,50.0 l-70.0,30.0 115.0,0.0 m-320.0,90.0 l70.0,0.0 5.0,20.0 l-45.0,50.0 90.0,20.0 l-150.0,60.0 " fill="none" stroke="black" stroke-width="1" /></svg>