<?xml version="1.0" encoding="utf-8" ?>
<svg baseProfile="full" height="69.63329220656306" version="1.1" width="70.96729900687933" xmlns="http://www.w3.org/2000/svg" xmlns:ev="http://www.w3.org/2001/xml-events" xmlns:xlink="http://www.w3.org/1999/xlink"><defs /><rect fill="white" height="69.63329220656306" width="70.96729900687933" x="0" y="0" /><path d="M36.784857316051784,25.892519135959446 m-1.5582552552223206,-0.19135093316435814 l-2.6777878403663635,0.6528313457965851 -4.374427497386932,2.879623770713806 l-1.8581601977348328,2.3988959193229675 -0.8324190974235535,1.8765628337860107 l-0.4837602376937866,2.6540476083755493 -4.719022399513051e-05,2.6218125224113464 l0.3822237625718117,1.1804772913455963 1.9124633073806763,2.5010234117507935 l1.3140763342380524,0.9176170080900192 4.231353998184204,1.249232292175293 l5.303926467895508,-0.43301112949848175 2.755274772644043,-1.3690771162509918 l2.9195058345794678,-2.7067264914512634 1.4405949413776398,-2.501247823238373 l0.7078795880079269,-3.645433485507965 -0.00010955263860523701,-2.9892143607139587 l-1.0202738642692566,-2.8421750664711 -1.315547525882721,-1.6999509930610657 l-2.536899149417877,-1.3929075002670288 -4.821032881736755,-0.05354824010282755 m-1.6819171607494354,2.3774535953998566 l0.04972176160663366,1.773684173822403 0.2507960796356201,0.8205992728471756 m2.1447545289993286,-2.200254797935486 l0.7697411626577377,-0.32077450305223465 0.4028056934475899,0.346287302672863 l-0.04877775441855192,1.1314856261014938 -0.8710429072380066,1.4141707122325897 l0.3929300233721733,0.3032606281340122 1.5659520030021667,-0.04240013659000397 l0.7607022672891617,0.12191575020551682 m2.068573087453842,0.14369264245033264 l0.03570180851966143,1.309182047843933 -0.14364926144480705,0.8871515095233917 l0.16226300969719887,0.8185289800167084 1.1390301585197449,0.29584895819425583 l0.2620113082230091,0.2514279633760452 m-2.9789626598358154,1.8031197786331177 l0.31958308070898056,0.45740310102701187 0.36081552505493164,1.2409115582704544 l-0.3442421928048134,0.8363821357488632 -0.7217438519001007,0.4689893499016762 m-5.582360625267029,-0.49399033188819885 l-1.033882275223732,0.6604889780282974 -0.4930322989821434,1.4256195724010468 l0.5406828969717026,0.6896445155143738 1.3884875178337097,-0.221126489341259 " fill="none" stroke="black" stroke-width="1" /></svg>