<?xml version="1.0" encoding="utf-8" ?>
<svg baseProfile="full" height="1595.0" version="1.1" width="1435.0" xmlns="http://www.w3.org/2000/svg" xmlns:ev="http://www.w3.org/2001/xml-events" xmlns:xlink="http://www.w3.org/1999/xlink"><defs /><rect fill="white" height="1595.0" width="1435.0" x="0" y="0" /><path d="M275.0,445.0 m-5.0,180.0 l50.0,145.0 110.0,45.0 l195.0,35.0 50.0,-10.0 l95.0,-50.0 105.0,-100.0 l25.0,-75.0 0.0,-40.0 l-20.0,-75.0 -65.0,-65.0 l-85.0,-35.0 -225.0,-35.0 l-80.0,10.0 -140.0,65.0 m-45.0,-325.0 l60.0,-25.0 295.0,-65.0 l185.0,5.0 20.0,10.0 l20.0,45.0 -30.0,65.0 l-60.0,55.0 -90.0,25.0 l-170.0,10.0 -155.0,-40.0 l-15.0,-55.0 35.0,-60.0 m165.0,65.0 l240.0,-45.0 20.0,15.0 l-50.0,40.0 -50.0,15.0 l-120.0,-5.0 -5.0,-25.0 m60.0,825.0 l60.0,200.0 45.0,340.0 l-205.0,-70.0 -180.0,-25.0 m270.0,-310.0 l-310.0,-80.0 -190.0,20.0 l-60.0,20.0 50.0,20.0 l175.0,15.0 -150.0,80.0 l-50.0,50.0 15.0,25.0 l135.0,-10.0 130.0,-30.0 l180.0,10.0 110.0,-40.0 m50.0,-55.0 l70.0,-90.0 70.0,-65.0 l140.0,-65.0 40.0,0.0 l310.0,10.0 70.0,55.0 l35.0,55.0 5.0,55.0 l-30.0,20.0 -105.0,20.0 l-105.0,0.0 -70.0,-15.0 l-150.0,110.0 -95.0,-30.0 l-160.0,20.0 -40.0,-10.0 m155.0,330.0 l55.0,25.0 190.0,-20.0 l105.0,0.0 100.0,35.0 " fill="none" stroke="black" stroke-width="1" /></svg>