<?xml version="1.0" encoding="utf-8" ?>
<svg baseProfile="full" height="67.46679538337048" version="1.1" width="63.203609748743474" xmlns="http://www.w3.org/2000/svg" xmlns:ev="http://www.w3.org/2001/xml-events" xmlns:xlink="http://www.w3.org/1999/xlink"><defs /><rect fill="white" height="67.46679538337048" width="63.203609748743474" x="0" y="0" /><path d="M26.401893398724496,28.25692379847169 m-0.17245888710021973,3.5816162824630737 l0.4215358570218086,1.8258266150951385 1.4568260312080383,1.7577086389064789 l2.296643555164337,1.0484616458415985 4.438092112541199,0.2309979312121868 l1.6638591885566711,-0.8128888159990311 1.1365742236375809,-1.4168502390384674 l0.560644268989563,-2.0976121723651886 -0.033622621558606625,-2.4316996335983276 l-0.7350275665521622,-1.7887082695960999 -1.3587039709091187,-1.6035564243793488 l-1.7861948907375336,-1.0364826023578644 -2.2316284477710724,-0.513736754655838 l-2.649160623550415,0.005984394229017198 -1.9385293126106262,0.7089957594871521 l-1.6237255930900574,1.4501112699508667 -0.66754549741745,1.161259487271309 l-0.1794712245464325,1.1621031165122986 m3.5859885811805725,3.816259205341339 l-1.4045797288417816,2.961854934692383 -0.3300686553120613,1.817643642425537 l0.04223802126944065,1.960485428571701 0.6824696063995361,1.304880678653717 l1.0392680019140244,0.7481642067432404 1.8688331544399261,0.36905325949192047 l2.1980462968349457,-0.2569670043885708 1.2897220253944397,-0.7736314833164215 l1.1515305936336517,-1.6554029285907745 0.45629121363162994,-2.340618818998337 l-0.21316664293408394,-2.2323161363601685 -0.8754291385412216,-1.5441706776618958 l-1.3497722148895264,-1.0968245565891266 -1.74610435962677,-0.4748683050274849 l-2.00765922665596,0.10715948417782784 -0.9060963243246078,0.5338163673877716 m1.4668597280979156,4.055827558040619 l0.06320290267467499,0.9419914335012436 0.4806249216198921,0.20423747599124908 l0.17185114324092865,-0.9348733723163605 -0.5776172131299973,0.045629325322806835 l-0.022346731275320053,0.6541377305984497 0.5015332251787186,-0.4581614211201668 l-0.34112662076950073,-0.020947239827364683 0.05139647051692009,0.6653892248868942 l0.5585717782378197,-0.665270984172821 -0.4004678502678871,0.016838248120620847 l-0.005966160097159445,0.7030210644006729 0.6251607090234756,-0.5530428141355515 l-0.37634607404470444,0.040693385526537895 -0.009004278108477592,0.6265874207019806 l0.5860069766640663,-0.5231261998414993 -0.3984450176358223,0.021159476600587368 l0.007609515450894833,0.5854946747422218 0.6013470143079758,-0.46536583453416824 l-0.3723808377981186,-0.010802547913044691 -0.07201275322586298,0.5538127943873405 l0.5741197243332863,-0.42131122201681137 -0.36389704793691635,0.01654502935707569 l-0.08338118903338909,0.5081593617796898 0.5223558843135834,-0.3642885759472847 l-0.3802976757287979,-0.06336653139442205 -0.15066015534102917,0.5737413093447685 l0.513867698609829,-0.24940239265561104 -0.33307913690805435,-0.16371119767427444 l-0.168797317892313,0.4776732996106148 0.48782341182231903,-0.05899236537516117 l-0.17182577401399612,-0.2968164533376694 -0.3097276948392391,0.4412369430065155 l0.2723504416644573,0.23496607318520546 0.21459685638546944,-0.3357779234647751 l-0.44520221650600433,0.11163769289851189 0.0629497691988945,0.44421184808015823 l0.6276977807283401,-0.4323514550924301 -0.39787475019693375,0.08154291659593582 l0.0731756491586566,0.5181119963526726 " fill="none" stroke="black" stroke-width="1" /></svg>