<?xml version="1.0" encoding="utf-8" ?>
<svg baseProfile="full" height="73.63578042015433" version="1.1" width="76.80639263242483" xmlns="http://www.w3.org/2000/svg" xmlns:ev="http://www.w3.org/2001/xml-events" xmlns:xlink="http://www.w3.org/1999/xlink"><defs /><rect fill="white" height="73.63578042015433" width="76.80639263242483" x="0" y="0" /><path d="M43.40930941980332,39.700689965393394 m0.06614838261157274,-5.027350187301636 l-1.1032972484827042,-3.1656980514526367 -1.7307817935943604,-2.4328605830669403 l-2.0259693264961243,-1.6430595517158508 -2.482898235321045,-1.1559859663248062 l-2.9230204224586487,-0.675407275557518 -3.0489718914031982,-0.04986834246665239 l-2.397746741771698,0.8914122730493546 -1.483282595872879,1.225568875670433 l-1.1615831404924393,2.5412288308143616 -0.11790640652179718,4.5442116260528564 l1.045207604765892,2.783769965171814 7.079865336418152,7.104445695877075 l7.871239185333252,3.194526433944702 3.6075565218925476,0.769135057926178 l2.4301716685295105,0.03102165414020419 1.5292175114154816,-0.5808331444859505 l1.468392014503479,-1.3160082697868347 1.2071521580219269,-2.192727029323578 l0.56759063154459,-2.7593964338302612 -0.0222139828838408,-2.669737935066223 l-1.043524444103241,-3.456694185733795 -1.3792645931243896,-2.3809587955474854 l-1.7168055474758148,-1.829683780670166 -1.99103444814682,-1.3066363334655762 l-2.386249154806137,-0.8608067780733109 -2.6668965816497803,-0.2954387292265892 l-2.3674772679805756,0.30728040263056755 -2.059406489133835,1.08866848051548 l-1.4126616716384888,1.6117647290229797 -0.5318628251552582,1.352837085723877 l-0.1477034855633974,2.7946674823760986 0.7817820459604263,2.001609355211258 l1.5435588359832764,1.7602570354938507 2.0373767614364624,1.074751392006874 l2.455493062734604,0.3859434649348259 2.499721944332123,-0.3202436864376068 l2.1316921710968018,-1.2074846029281616 1.5396451950073242,-1.821199208498001 l0.7574024051427841,-2.2028599679470062 0.1405660528689623,-2.357111871242523 l-0.49582231789827347,-1.8457716703414917 -1.2132544815540314,-1.8967124819755554 l-1.647779494524002,-1.4361532032489777 -2.0497681200504303,-1.0135667026042938 l-2.396167069673538,-0.4830334708094597 -2.376331239938736,0.0746322376653552 l-1.9906511902809143,0.9081443399190903 -1.6071350872516632,1.6973300278186798 l-0.99859818816185,2.2788846492767334 -0.23582633584737778,2.546977400779724 l0.5625173822045326,2.167191505432129 0.8561491966247559,1.2491057068109512 l1.6966618597507477,1.1168763786554337 2.4432124197483063,0.38600247353315353 l2.455216944217682,-0.442831888794899 1.363012045621872,-0.9582547098398209 l0.912206694483757,-1.3630802929401398 0.48951148986816406,-2.342592775821686 l-0.1348564401268959,-2.4269337952136993 -0.8577460795640945,-1.9480672478675842 l-1.320645958185196,-1.507398784160614 -1.735362708568573,-1.0303225368261337 l-2.092660218477249,-0.5024683475494385 -2.196587473154068,0.056358291767537594 l-1.656503677368164,0.9134814888238907 -1.004263088107109,1.2266495078802109 l-0.5775528028607368,2.1766892075538635 0.17421642318367958,2.4706463515758514 l1.0049352794885635,1.8972009420394897 1.6660542786121368,1.4504925906658173 l2.2165006399154663,0.6837788224220276 2.3824939131736755,-0.12331672944128513 l1.7672237753868103,-1.1558517068624496 1.3863128423690796,-1.9657491147518158 l0.5544834211468697,-2.450171858072281 -0.11868242174386978,-2.2312965989112854 l-0.865534171462059,-1.735944002866745 -1.4859186112880707,-1.4322340488433838 l-1.9077487289905548,-0.8937375992536545 -2.2576209902763367,-0.24376166984438896 l-1.7905126512050629,0.5471168458461761 -1.1867005378007889,1.0329989343881607 l-0.9405246376991272,1.990956962108612 -0.20120495930314064,2.51181423664093 l0.5966095998883247,2.1542803943157196 1.3850215077400208,1.8153420090675354 l1.8779349327087402,1.0256429016590118 2.3456548154354095,0.15088042244315147 l1.9641630351543427,-0.7998263090848923 1.5787385404109955,-1.622873991727829 l0.7321573793888092,-1.652054637670517 0.22974632680416107,-2.296169549226761 l-0.436963327229023,-1.9817490875720978 -1.1775358021259308,-1.6799351572990417 l-1.6105054318904877,-1.0994920134544373 -1.9505299627780914,-0.4238617420196533 l-2.182909846305847,0.22333398461341858 -1.269829273223877,0.7982665300369263 l-1.1361489444971085,1.7998646199703217 -0.3865176811814308,2.307571917772293 l0.30905624851584435,2.371649593114853 " fill="none" stroke="black" stroke-width="1" /></svg>