<?xml version="1.0" encoding="utf-8" ?>
<svg baseProfile="full" height="77.97929916530848" version="1.1" width="90.58098550885916" xmlns="http://www.w3.org/2000/svg" xmlns:ev="http://www.w3.org/2001/xml-events" xmlns:xlink="http://www.w3.org/1999/xlink"><defs /><rect fill="white" height="77.97929916530848" width="90.58098550885916" x="0" y="0" /><path d="M27.18544968869537,31.60129988367771 m0.044149295426905155,2.9058077931404114 l-1.8446844816207886,6.938976049423218 -0.38491450250148773,4.275843799114227 l0.39948705583810806,0.65019391477108 3.146146237850189,1.1346489191055298 l4.413347840309143,1.4257635176181793 5.825138092041016,1.6263452172279358 l4.674210846424103,1.0678768157958984 6.564981937408447,1.352338194847107 l5.301690101623535,0.00020506058717728592 0.5697270855307579,-0.2889969199895859 l1.0991346091032028,-5.447363257408142 -0.055455020628869534,-7.520840167999268 l-0.8516644686460495,-5.728024840354919 -1.5740160644054413,-1.8981924653053284 l-12.877233028411865,-0.8777733147144318 -8.796789050102234,-0.4585966095328331 l-4.234279990196228,-0.20413029938936234 -1.2735840678215027,0.22428464144468307 l-0.45019667595624924,0.3377843648195267 m3.934033215045929,3.057168424129486 l0.2926653251051903,-4.649823904037476 0.2741660177707672,-4.524794816970825 m6.349123120307922,9.644252061843872 l0.0071693165227770805,-5.240073800086975 m6.349344849586487,6.207427978515625 l0.8415590971708298,-7.433890700340271 m5.300489664077759,7.746841311454773 l1.122300997376442,-7.527876496315002 m3.5759130120277405,8.400662541389465 l1.085677370429039,-6.910462975502014 m-15.562275648117065,3.8033634424209595 l0.10547904297709465,-3.6659151315689087 m1.3738732039928436,4.354255795478821 l0.38075465708971024,-4.003188610076904 m2.1066656708717346,4.703220725059509 l0.4215923696756363,-3.982793092727661 m2.423916310071945,4.590612053871155 l0.42716212570667267,-3.663439154624939 m2.4090008437633514,4.179682433605194 l0.338963158428669,-3.0796968936920166 m1.8331177532672882,3.558831512928009 l0.34153271466493607,-1.9286830723285675 m-13.034429550170898,1.3286839425563812 l0.2942931279540062,-0.4168783128261566 0.615362748503685,-0.9303142130374908 l0.6212358549237251,-0.09459231980144978 m-4.27538275718689,6.456173062324524 l3.3676695823669434,0.1585211046040058 4.037553071975708,0.10002092458307743 l4.539150893688202,0.5292611941695213 4.163525700569153,0.34254979342222214 l3.893861174583435,0.12706926092505455 3.2163357734680176,0.023669397924095392 l2.6811715960502625,0.06364760920405388 2.8477686643600464,0.1152107585221529 m-27.751312255859375,2.858171761035919 l6.075571775436401,0.5934993550181389 6.62065863609314,0.6366568058729172 l6.839157342910767,0.4774992913007736 5.429380536079407,0.3968285024166107 " fill="none" stroke="black" stroke-width="1" /></svg>