<?xml version="1.0" encoding="utf-8" ?>
<svg baseProfile="full" height="1885.0" version="1.1" width="1875.0" xmlns="http://www.w3.org/2000/svg" xmlns:ev="http://www.w3.org/2001/xml-events" xmlns:xlink="http://www.w3.org/1999/xlink"><defs /><rect fill="white" height="1885.0" width="1875.0" x="0" y="0" /><path d="M215.0,645.0 m0.0,145.0 l-80.0,370.0 -5.0,185.0 l25.0,20.0 120.0,20.0 l280.0,110.0 275.0,70.0 l270.0,125.0 250.0,70.0 l480.0,100.0 20.0,-25.0 l-5.0,-50.0 -30.0,-65.0 l-305.0,-1240.0 -220.0,25.0 l-680.0,10.0 -150.0,25.0 l-125.0,60.0 -125.0,30.0 l-185.0,25.0 m150.0,685.0 l0.0,0.0 m280.0,-820.0 l0.0,-80.0 55.0,-250.0 m5.0,-110.0 l0.0,0.0 m-25.0,0.0 l5.0,0.0 m390.0,405.0 l0.0,-320.0 m-10.0,-105.0 l0.0,0.0 m-10.0,0.0 l0.0,0.0 m20.0,-35.0 l0.0,0.0 m130.0,430.0 l-5.0,-300.0 m-30.0,-125.0 l5.0,5.0 m-105.0,10.0 l0.0,0.0 m-700.0,710.0 l480.0,-5.0 270.0,35.0 l175.0,0.0 110.0,-35.0 l365.0,-20.0 m-1480.0,245.0 l140.0,-10.0 260.0,-50.0 l350.0,-5.0 185.0,70.0 l285.0,0.0 55.0,-15.0 l20.0,-25.0 80.0,-15.0 " fill="none" stroke="black" stroke-width="1" /></svg>