<?xml version="1.0" encoding="utf-8" ?>
<svg baseProfile="full" height="1945.0" version="1.1" width="3830.0" xmlns="http://www.w3.org/2000/svg" xmlns:ev="http://www.w3.org/2001/xml-events" xmlns:xlink="http://www.w3.org/1999/xlink"><defs /><rect fill="white" height="1945.0" width="3830.0" x="0" y="0" /><path d="M695.0,540.0 m130.0,400.0 l0.0,105.0 -30.0,105.0 l5.0,175.0 -75.0,120.0 l45.0,25.0 295.0,0.0 l155.0,-35.0 515.0,-65.0 l360.0,-25.0 80.0,-20.0 l130.0,0.0 375.0,-90.0 l350.0,-45.0 235.0,-15.0 l370.0,20.0 170.0,-10.0 l-15.0,-70.0 -180.0,-350.0 l-245.0,-595.0 -125.0,-125.0 l-50.0,-20.0 -625.0,65.0 l-930.0,15.0 -330.0,30.0 l-515.0,115.0 -390.0,170.0 l-375.0,90.0 m815.0,920.0 l55.0,95.0 265.0,350.0 l60.0,25.0 110.0,20.0 l135.0,-15.0 185.0,-145.0 l65.0,-70.0 -5.0,-25.0 l-220.0,-225.0 -135.0,-45.0 l-405.0,-30.0 0.0,110.0 m240.0,150.0 l25.0,55.0 0.0,-45.0 m15.0,-825.0 l15.0,125.0 390.0,0.0 l190.0,40.0 -120.0,-175.0 l-55.0,-180.0 -35.0,-50.0 l-75.0,-40.0 -140.0,-25.0 l-70.0,0.0 -355.0,70.0 l65.0,160.0 60.0,85.0 l30.0,90.0 " fill="none" stroke="black" stroke-width="1" /></svg>