<?xml version="1.0" encoding="utf-8" ?>
<svg baseProfile="full" height="68.2053396385163" version="1.1" width="126.79442784748971" xmlns="http://www.w3.org/2000/svg" xmlns:ev="http://www.w3.org/2001/xml-events" xmlns:xlink="http://www.w3.org/1999/xlink"><defs /><rect fill="white" height="68.2053396385163" width="126.79442784748971" x="0" y="0" /><path d="M25,25 m2.8701427578926086,8.07375967502594 l0.7818739861249924,2.8650978207588196 0.7015765458345413,3.998967409133911 l0.012038168497383595,2.315077930688858 0.4190962016582489,0.38303885608911514 l1.7795032262802124,-0.046740430407226086 2.351430356502533,-0.4052402824163437 l3.4887677431106567,0.03704610047861934 3.6823228001594543,-0.22709259763360023 l4.78036493062973,0.024748046416789293 5.120236277580261,-0.370880663394928 l15.162338018417358,0.07498676422983408 10.692424774169922,0.06640838459134102 l4.003454744815826,-0.13765931129455566 4.246287047863007,-0.3706369176506996 l4.502945244312286,-0.04046734422445297 3.6239928007125854,-0.45843835920095444 l4.6570417284965515,0.06197459064424038 3.6290201544761658,-0.44825147837400436 l0.21834472194314003,-0.5378435924649239 0.07122561801224947,-8.240627646446228 l-0.8570893108844757,-5.9739696979522705 -5.786951184272766,-0.29858704656362534 l-10.00762939453125,0.184151791036129 -11.206244230270386,0.16459425911307335 l-11.053775548934937,0.042834808118641376 -10.241010189056396,-0.07824555039405823 l-9.702641367912292,-0.07413140032440424 -7.874624133110046,-0.15350986272096634 l-4.324025213718414,0.17330914735794067 m15.825831890106201,11.584974527359009 l-0.02322017913684249,1.4828555285930634 0.61613779515028,1.415826827287674 l1.463390439748764,1.5122853219509125 1.8324308097362518,0.7532289624214172 l2.946295738220215,0.21920472383499146 1.8470150232315063,-0.5683885514736176 l1.5980817377567291,-1.3545708358287811 0.5578672140836716,-1.2800462543964386 l0.04148747306317091,-1.948523223400116 -0.8384978771209717,-1.3160884380340576 l-1.609376072883606,-1.065838262438774 -2.202821224927902,-0.4632413759827614 l-2.491282671689987,0.11378079652786255 -1.2588191032409668,0.5338738858699799 l-0.7403936237096786,0.8609087020158768 -0.16257023438811302,1.1405937373638153 m38.68288040161133,0.10373663157224655 l-0.6623975932598114,0.924735963344574 -0.07034134585410357,1.3907277584075928 l0.385587140917778,1.1114566773176193 1.359538733959198,1.359565109014511 l2.74642676115036,0.9456250071525574 2.4634717404842377,0.14498301781713963 l1.6743643581867218,-0.5699396505951881 1.3942407071590424,-1.3538211584091187 l0.6540488451719284,-1.8738943338394165 -0.21549038589000702,-1.9254131615161896 l-1.2573835253715515,-1.465851366519928 -2.1825119853019714,-0.9465669840574265 " fill="none" stroke="black" stroke-width="1" /></svg>