<?xml version="1.0" encoding="utf-8" ?>
<svg baseProfile="full" height="1860.0" version="1.1" width="1585.0" xmlns="http://www.w3.org/2000/svg" xmlns:ev="http://www.w3.org/2001/xml-events" xmlns:xlink="http://www.w3.org/1999/xlink"><defs /><rect fill="white" height="1860.0" width="1585.0" x="0" y="0" /><path d="M830.0,320.0 m-140.0,25.0 l-255.0,115.0 -215.0,170.0 l-80.0,105.0 -50.0,125.0 l-15.0,95.0 50.0,235.0 l65.0,105.0 140.0,135.0 l185.0,120.0 125.0,45.0 l155.0,25.0 135.0,0.0 l200.0,-35.0 200.0,-80.0 l80.0,-65.0 50.0,-65.0 l80.0,-165.0 20.0,-90.0 l-5.0,-140.0 -60.0,-220.0 l-60.0,-145.0 -105.0,-115.0 l-160.0,-100.0 -55.0,-20.0 l-290.0,-40.0 m-455.0,1160.0 l-345.0,335.0 m1260.0,-300.0 l175.0,235.0 45.0,40.0 m-525.0,-1475.0 l40.0,-145.0 40.0,-80.0 l25.0,-10.0 210.0,45.0 l125.0,45.0 20.0,110.0 l-45.0,255.0 m-990.0,-115.0 l-15.0,-60.0 -115.0,-195.0 l-15.0,-60.0 5.0,-25.0 l30.0,-20.0 285.0,-55.0 l55.0,10.0 40.0,125.0 l15.0,180.0 " fill="none" stroke="black" stroke-width="1" /></svg>