<?xml version="1.0" encoding="utf-8" ?>
<svg baseProfile="full" height="85.22721730172634" version="1.1" width="78.7605500015161" xmlns="http://www.w3.org/2000/svg" xmlns:ev="http://www.w3.org/2001/xml-events" xmlns:xlink="http://www.w3.org/1999/xlink"><defs /><rect fill="white" height="85.22721730172634" width="78.7605500015161" x="0" y="0" /><path d="M39.793928662202234,31.175048644545313 m-2.867361009120941,0.5507942661643028 l-5.21333634853363,2.3431697487831116 -4.035173654556274,2.9552897810935974 l-1.7268148064613342,2.0883290469646454 -0.9510079026222229,2.195548415184021 l-0.00023494090783060528,3.779807388782501 1.1830122023820877,3.6229553818702698 l1.6903641819953918,2.6662737131118774 2.0619815587997437,2.104461044073105 l2.466338723897934,1.6819679737091064 2.737383544445038,1.1708234995603561 l3.046562373638153,0.6679771095514297 4.385278224945068,0.00033431231713620946 l3.0643120408058167,-0.7318101823329926 2.590126693248749,-1.2303341180086136 l2.042209655046463,-1.5352562069892883 1.6193096339702606,-1.8617120385169983 l1.09198696911335,-2.1251609921455383 0.7815574109554291,-3.5067328810691833 l0.00012678827260970138,-3.8577058911323547 -0.6394388526678085,-2.7612027525901794 l-1.7894428968429565,-3.4049972891807556 -1.9120736420154572,-2.1228061616420746 l-2.08300843834877,-1.3760930299758911 -3.6594539880752563,-1.1385662108659744 l-4.228849709033966,-0.31935375183820724 m-7.42095947265625,23.99493932723999 l-2.51467227935791,4.315996468067169 m16.744335889816284,-3.7304338812828064 l2.63477623462677,2.9240447282791138 2.27009117603302,1.6916218400001526 m-18.204280138015747,-25.29008150100708 l-0.9938107430934906,-1.3880327343940735 -1.0355909168720245,-2.0430098474025726 l-0.5279683321714401,-2.3933154344558716 0.49446623772382736,-2.19573050737381 l1.2904092669487,-1.2120063602924347 2.7105817198753357,-0.705040916800499 l3.129551410675049,0.5455489829182625 2.3960931599140167,1.7763946950435638 l1.4534740149974823,2.341836839914322 m2.8713011741638184,2.3628592491149902 l2.6968681812286377,-2.3340003192424774 1.9268615543842316,-0.6680353730916977 l1.992279440164566,0.21745478734374046 1.3853727281093597,1.3181932270526886 l0.4028268903493881,1.1936932057142258 -0.3631386533379555,1.653813123703003 l-0.9016856551170349,0.8637917786836624 " fill="none" stroke="black" stroke-width="1" /></svg>