<?xml version="1.0" encoding="utf-8" ?>
<svg baseProfile="full" height="72.4585409462452" version="1.1" width="121.00015096366405" xmlns="http://www.w3.org/2000/svg" xmlns:ev="http://www.w3.org/2001/xml-events" xmlns:xlink="http://www.w3.org/1999/xlink"><defs /><rect fill="white" height="72.4585409462452" width="121.00015096366405" x="0" y="0" /><path d="M25,33.86233603581786 m1.0674963891506195,0.6907082349061966 l5.282115340232849,0.6312088668346405 14.197708368301392,1.3988710939884186 l8.312680125236511,0.2711258642375469 15.766788721084595,0.39438433945178986 l11.136277914047241,0.0911206379532814 5.3562963008880615,-0.2689158171415329 l3.712974786758423,-0.5250776559114456 2.019108086824417,-0.5401673540472984 l2.266644686460495,-1.1380011588335037 1.2230361998081207,-1.183992624282837 l0.6590240448713303,-1.487908959388733 -0.04461741540580988,-1.7911140620708466 l-1.2154478579759598,-1.5642265975475311 -2.4656231701374054,-1.43158420920372 l-3.415115773677826,-1.083255112171173 -8.922614455223083,-1.1630536615848541 l-10.158472061157227,-0.16245786100625992 -9.94785726070404,0.8070400357246399 l-11.435381174087524,0.9399037808179855 -10.189428329467773,1.319940984249115 l-8.60404372215271,1.5031833946704865 -2.6469063758850098,1.1567999422550201 l-1.0690078139305115,0.9014192223548889 -0.42066995054483414,1.0186954587697983 l0.18996292725205421,1.1082862317562103 0.8506625145673752,0.8255518227815628 l2.4233293533325195,0.9198044985532761 3.3327826857566833,0.40739189833402634 m15.688074827194214,-1.7051811516284943 l-0.035190912894904613,3.7939083576202393 -0.9318336844444275,5.62724769115448 l-0.08298508822917938,3.5326430201530457 0.48399079591035843,0.3019057586789131 l10.480823516845703,-0.45423343777656555 4.655993282794952,-0.24621354416012764 l0.3630272299051285,-0.5192065238952637 0.015650393906980753,-9.613912105560303 " fill="none" stroke="black" stroke-width="1" /></svg>