<?xml version="1.0" encoding="utf-8" ?>
<svg baseProfile="full" height="965.0" version="1.1" width="3430.0" xmlns="http://www.w3.org/2000/svg" xmlns:ev="http://www.w3.org/2001/xml-events" xmlns:xlink="http://www.w3.org/1999/xlink"><defs /><rect fill="white" height="965.0" width="3430.0" x="0" y="0" /><path d="M140.0,90.0 m55.0,35.0 l375.0,115.0 480.0,85.0 l485.0,-15.0 905.0,75.0 l385.0,0.0 190.0,25.0 l165.0,0.0 225.0,-55.0 l-55.0,375.0 0.0,140.0 l-115.0,30.0 -340.0,35.0 l-225.0,5.0 -450.0,-50.0 l-190.0,0.0 -775.0,-75.0 l-755.0,-85.0 -320.0,-90.0 l-140.0,-65.0 -15.0,-25.0 l90.0,-425.0 5.0,-100.0 m150.0,135.0 l20.0,25.0 0.0,270.0 l-30.0,55.0 -55.0,50.0 m10.0,-20.0 l-65.0,55.0 -55.0,20.0 m3120.0,-205.0 l-50.0,280.0 90.0,160.0 m-1445.0,-225.0 l450.0,85.0 265.0,30.0 " fill="none" stroke="black" stroke-width="1" /></svg>