<?xml version="1.0" encoding="utf-8" ?>
<svg baseProfile="full" height="1035.0" version="1.1" width="725.0" xmlns="http://www.w3.org/2000/svg" xmlns:ev="http://www.w3.org/2001/xml-events" xmlns:xlink="http://www.w3.org/1999/xlink"><defs /><rect fill="white" height="1035.0" width="725.0" x="0" y="0" /><path d="M240.0,330.0 m-130.0,-15.0 l-35.0,40.0 -35.0,85.0 l-15.0,175.0 50.0,40.0 l140.0,-5.0 -70.0,50.0 l-90.0,100.0 -30.0,60.0 l0.0,75.0 20.0,35.0 l35.0,20.0 45.0,20.0 l55.0,0.0 160.0,-60.0 l25.0,-25.0 5.0,-120.0 l-95.0,-240.0 -20.0,-215.0 l25.0,-65.0 90.0,-15.0 l50.0,40.0 20.0,40.0 l35.0,170.0 5.0,220.0 l-35.0,220.0 m15.0,-575.0 l115.0,-125.0 40.0,-15.0 l50.0,5.0 35.0,115.0 l-15.0,70.0 -145.0,120.0 l110.0,20.0 35.0,35.0 l5.0,85.0 -90.0,190.0 l-175.0,65.0 m-145.0,-675.0 l-20.0,-145.0 -25.0,-25.0 m140.0,85.0 l5.0,-115.0 45.0,-50.0 " fill="none" stroke="black" stroke-width="1" /></svg>