<?xml version="1.0" encoding="utf-8" ?>
<svg baseProfile="full" height="68.15420107915998" version="1.1" width="65.10059940163046" xmlns="http://www.w3.org/2000/svg" xmlns:ev="http://www.w3.org/2001/xml-events" xmlns:xlink="http://www.w3.org/1999/xlink"><defs /><rect fill="white" height="68.15420107915998" width="65.10059940163046" x="0" y="0" /><path d="M30.545331798493862,28.389641419053078 m-2.629762589931488,-0.3551957756280899 l-0.7672274857759476,0.6872554868459702 -0.8156858384609222,1.4990350604057312 l-0.1323242485523224,3.1535083055496216 1.4068083465099335,1.6948571801185608 l1.1259442567825317,0.1521010883152485 -0.9074292331933975,-0.18591515719890594 l-1.4087535440921783,0.5794185772538185 -0.9998855739831924,1.6187264025211334 l-0.4170158877968788,1.603543758392334 0.10639798827469349,2.0526814460754395 l0.614740252494812,1.1340047419071198 0.9610812366008759,0.7140714675188065 l1.806083768606186,0.4164670780301094 1.3312022387981415,-0.2802518382668495 l1.0032787919044495,-0.816253051161766 1.0136942565441132,-1.8809844553470612 l0.17804725095629692,-2.4101248383522034 0.015975325368344784,-3.0117717385292053 l0.12689091265201569,-1.4140552282333374 0.2646918222308159,-0.6922177970409393 l1.0964778810739517,-0.5470454320311546 0.32260194420814514,5.897064805030823 l-0.4502680152654648,4.26468551158905 -1.3647684454917908,-1.1702381819486618 l-0.6183607503771782,-3.1923237442970276 m1.884961724281311,-6.0800158977508545 l3.728330433368683,-1.5778268873691559 2.47280016541481,-0.17434172332286835 l0.4059722274541855,0.5299292877316475 -0.2915431559085846,2.3491981625556946 l-1.8336018919944763,2.2938545048236847 2.1193403005599976,1.1252965778112411 l0.20657313987612724,1.6659770905971527 -1.0956422984600067,2.299017012119293 l-1.1100047081708908,0.8392701297998428 -3.2276752591133118,-0.02605793997645378 l-1.0086264461278915,-0.9663937985897064 m-1.6537381708621979,-10.347124338150024 l-0.3763860836625099,-1.505969762802124 -1.3664248585700989,-2.8823471069335938 m2.641240358352661,4.13019061088562 l1.2654682993888855,-3.8672876358032227 0.7597929239273071,-0.7060533761978149 " fill="none" stroke="black" stroke-width="1" /></svg>