<?xml version="1.0" encoding="utf-8" ?>
<svg baseProfile="full" height="82.87666000425816" version="1.1" width="93.06804560124874" xmlns="http://www.w3.org/2000/svg" xmlns:ev="http://www.w3.org/2001/xml-events" xmlns:xlink="http://www.w3.org/1999/xlink"><defs /><rect fill="white" height="82.87666000425816" width="93.06804560124874" x="0" y="0" /><path d="M27.033035333770385,50.17384430160746 m10.45240044593811,2.167910486459732 l4.015703797340393,0.06409882102161646 4.432169198989868,0.28920259326696396 l6.885359287261963,-0.036267435643821955 9.208878874778748,-1.5639092028141022 l2.7000510692596436,-1.083364486694336 1.0654591023921967,-0.7278599590063095 l2.2745229303836823,-3.689868450164795 0.00046556113375118,-1.2230579555034637 l-1.2478667497634888,-2.4518750607967377 -0.8269350975751877,-0.15642346814274788 l-5.294408202171326,1.9057093560695648 -3.8115236163139343,1.3022591173648834 l-4.336701035499573,1.36622816324234 -3.84877473115921,1.0505622625350952 l-3.6629894375801086,0.9386786818504333 -3.8183313608169556,0.7798348367214203 l-3.490346372127533,0.4904138296842575 -3.4015291929244995,0.26045193895697594 l-2.689426839351654,-0.11769723147153854 -1.8622779846191406,-0.3970883786678314 l-2.0063166320323944,-0.7580697536468506 -0.9756425023078918,-0.7199187576770782 l-1.164407879114151,-1.8569353222846985 -0.6305679678916931,-2.366138994693756 l0.13727380894124508,-2.744710147380829 0.8999062329530716,-1.8230332434177399 l2.4579304456710815,-2.2481025755405426 2.6380419731140137,-1.2608638405799866 l4.728879630565643,-1.1294860392808914 5.715962052345276,-0.29605237767100334 l5.14248251914978,0.7954141497612 4.727506935596466,1.9267943501472473 l3.710291087627411,2.6401308178901672 2.51242458820343,2.9216209053993225 l1.497248262166977,2.9635369777679443 m-20.964787006378174,-3.508414328098297 l0.32446637749671936,3.0152037739753723 0.49637604504823685,5.585554838180542 l0.43434131890535355,4.642972648143768 0.441068559885025,2.0971472561359406 l0.8752929419279099,0.6582269072532654 6.050376296043396,-1.7178283631801605 l1.0156571120023727,-4.385524690151215 -0.0355790089815855,-5.158835053443909 l-0.9961188584566116,-6.373071670532227 m-8.034982085227966,-0.8709096908569336 l0.12933602556586266,-2.137559652328491 0.9800560772418976,-7.247537970542908 l0.9734641015529633,-4.404402375221252 0.9495933353900909,-0.5809905380010605 l3.154800832271576,0.7625211030244827 0.5428992211818695,0.7859697192907333 l0.3263520076870918,7.373561859130859 0.17991682514548302,5.700477957725525 m-7.11194634437561,4.920638203620911 l-0.27515148743987083,1.3224507868289948 -0.2830185368657112,3.8934361934661865 l0.0008053390047280118,4.081766605377197 0.3924661874771118,2.828545868396759 l0.926642119884491,0.9866145253181458 3.056965470314026,-5.374592542648315 l1.003248244524002,-5.254981517791748 0.0008969279588200152,-2.8631848096847534 l-0.8068306744098663,-1.9528447091579437 -0.9634717553853989,-0.49776874482631683 " fill="none" stroke="black" stroke-width="1" /></svg>