<?xml version="1.0" encoding="utf-8" ?>
<svg baseProfile="full" height="2280.0" version="1.1" width="3255.0" xmlns="http://www.w3.org/2000/svg" xmlns:ev="http://www.w3.org/2001/xml-events" xmlns:xlink="http://www.w3.org/1999/xlink"><defs /><rect fill="white" height="2280.0" width="3255.0" x="0" y="0" /><path d="M885.0,1010.0 m520.0,110.0 l215.0,0.0 155.0,25.0 l350.0,20.0 655.0,0.0 l160.0,-215.0 -20.0,-25.0 l-10.0,-65.0 50.0,-90.0 l105.0,-150.0 60.0,-20.0 l70.0,40.0 35.0,160.0 l0.0,150.0 -70.0,150.0 l-10.0,175.0 -75.0,50.0 l-95.0,100.0 -95.0,50.0 l-465.0,30.0 -125.0,-30.0 l-745.0,-75.0 -190.0,-50.0 l-220.0,0.0 -175.0,-65.0 l-190.0,-20.0 -35.0,-90.0 l0.0,-120.0 25.0,-50.0 m-10.0,260.0 l-115.0,-50.0 -345.0,0.0 l-215.0,-60.0 -55.0,-100.0 l5.0,-105.0 40.0,-75.0 l80.0,-65.0 85.0,-30.0 l105.0,-10.0 205.0,0.0 l125.0,60.0 150.0,30.0 l90.0,55.0 m-820.0,30.0 l190.0,60.0 220.0,5.0 l295.0,65.0 m845.0,30.0 l-20.0,-25.0 0.0,-870.0 l5.0,-35.0 40.0,-60.0 l60.0,-60.0 60.0,-30.0 l100.0,50.0 25.0,100.0 l-5.0,490.0 -65.0,320.0 l5.0,85.0 m-285.0,255.0 l0.0,625.0 110.0,130.0 l65.0,165.0 75.0,10.0 l35.0,-25.0 110.0,-230.0 l-35.0,-425.0 -45.0,-115.0 l-25.0,-180.0 " fill="none" stroke="black" stroke-width="1" /></svg>