<?xml version="1.0" encoding="utf-8" ?>
<svg baseProfile="full" height="76.83053821325302" version="1.1" width="79.78409878909588" xmlns="http://www.w3.org/2000/svg" xmlns:ev="http://www.w3.org/2001/xml-events" xmlns:xlink="http://www.w3.org/1999/xlink"><defs /><rect fill="white" height="76.83053821325302" width="79.78409878909588" x="0" y="0" /><path d="M28.9034915134107,29.069183713745588 m-0.5132543668150902,-0.05167064256966114 l-0.9317109733819962,1.641014814376831 -0.5010761693120003,5.054068565368652 l-0.0798448733985424,4.455554485321045 0.5348562076687813,3.004574179649353 l0.9137606620788574,1.8626050651073456 1.3335691392421722,1.3884277641773224 l1.9186444580554962,1.0435440391302109 5.726141929626465,1.1305160075426102 l4.730888605117798,0.0002453541492286604 2.7903103828430176,-0.7175793498754501 l3.085654377937317,-1.6834601759910583 1.6547022759914398,-1.601470708847046 l1.5490734577178955,-2.874569296836853 0.6559369713068008,-3.7324169278144836 l-0.00015966368664521724,-4.063625931739807 -0.7407310605049133,-2.4506433308124542 l-3.0619028210639954,-3.614053726196289 -3.2428035140037537,-1.2892632186412811 l-6.992270350456238,-0.4771547019481659 -2.8906822204589844,0.3523532673716545 l-3.9933907985687256,0.3988761454820633 -2.229822725057602,0.10669233277440071 l-0.6810048222541809,0.23707348853349686 -0.7263330370187759,0.752800777554512 l-0.2569308318197727,1.0587656497955322 0.2440415509045124,1.1445030570030212 l0.8319713920354843,0.9950537979602814 m16.039341688156128,-3.2724708318710327 l4.9753376841545105,-1.5144556760787964 5.738294720649719,-1.3530179858207703 l-1.4012046158313751,7.5581783056259155 -1.0851558297872543,3.2815641164779663 m-19.091498851776123,-2.458805590867996 l-3.2451173663139343,-1.0185769200325012 -4.190110564231873,-0.47608375549316406 l-0.7710115611553192,4.672940969467163 0.4442816227674484,4.285680949687958 m12.378774881362915,1.2881521880626678 l-1.432819664478302,5.142881274223328 -1.5685856342315674,4.090957939624786 m8.308862447738647,-9.222179651260376 l0.8301675319671631,4.891426861286163 0.8803117275238037,4.096275568008423 m-4.821975231170654,-10.85636854171753 l-0.20467733964323997,5.778403282165527 -0.335547998547554,3.8349246978759766 l-0.43564047664403915,1.544034332036972 m2.1742452681064606,-10.350513458251953 l0.19138826057314873,4.873231649398804 0.2505561150610447,4.121906161308289 l-0.04981248173862696,1.3307467103004456 -0.12721966952085495,0.4217611253261566 m-2.413143068552017,-10.392005443572998 l4.802949130535126,-0.42611323297023773 3.4570756554603577,-0.7939344644546509 l2.516058087348938,-0.8063995093107224 1.816856861114502,-0.9846752136945724 l1.5619072318077087,-1.4180618524551392 -0.10562474839389324,-0.5755260214209557 l-2.428179830312729,-1.037330999970436 -5.980392694473267,0.4093342274427414 l-5.336671471595764,1.6483978927135468 -2.019314765930176,1.2705427408218384 m0.34589633345603943,1.3643831014633179 l-2.5198709964752197,-0.06324880290776491 -2.7693432569503784,0.2902214229106903 l-1.934259831905365,0.6501702964305878 -0.861092209815979,0.8668320626020432 l-0.3405507653951645,1.556667536497116 0.5277903378009796,1.0969079285860062 l1.2548546493053436,0.7770561426877975 4.383478462696075,0.8124788105487823 l3.9793485403060913,0.1551974005997181 " fill="none" stroke="black" stroke-width="1" /></svg>