<?xml version="1.0" encoding="utf-8" ?>
<svg baseProfile="full" height="1840.0" version="1.1" width="2255.0" xmlns="http://www.w3.org/2000/svg" xmlns:ev="http://www.w3.org/2001/xml-events" xmlns:xlink="http://www.w3.org/1999/xlink"><defs /><rect fill="white" height="1840.0" width="2255.0" x="0" y="0" /><path d="M480.0,775.0 m-25.0,-5.0 l-45.0,80.0 -10.0,280.0 l-30.0,205.0 5.0,165.0 l45.0,60.0 75.0,50.0 l110.0,40.0 255.0,55.0 l385.0,0.0 150.0,-30.0 l85.0,-40.0 65.0,-85.0 l70.0,-155.0 50.0,-220.0 l-30.0,-140.0 -60.0,-125.0 l-185.0,-170.0 5.0,-30.0 l185.0,-230.0 75.0,-175.0 l-335.0,215.0 -345.0,125.0 l-115.0,-60.0 -115.0,-10.0 l-25.0,-30.0 -40.0,-115.0 l-80.0,-130.0 -220.0,-275.0 l-50.0,100.0 -30.0,110.0 l-20.0,235.0 135.0,345.0 m-35.0,265.0 l-55.0,40.0 -230.0,80.0 m415.0,70.0 l-455.0,160.0 m375.0,-5.0 l-45.0,55.0 -360.0,135.0 m1620.0,-305.0 l90.0,60.0 85.0,20.0 l410.0,5.0 m-685.0,30.0 l20.0,25.0 150.0,60.0 l170.0,45.0 155.0,20.0 m-745.0,-135.0 l305.0,375.0 m-725.0,-765.0 l140.0,45.0 40.0,50.0 l0.0,30.0 -40.0,55.0 l-30.0,5.0 -55.0,-20.0 l-70.0,-85.0 -50.0,-130.0 m105.0,285.0 l-30.0,280.0 -35.0,60.0 l-50.0,-20.0 -45.0,-90.0 l5.0,-260.0 m175.0,-10.0 l10.0,145.0 20.0,55.0 l25.0,25.0 90.0,15.0 l90.0,-40.0 80.0,-75.0 l25.0,-70.0 -5.0,-80.0 " fill="none" stroke="black" stroke-width="1" /></svg>