<?xml version="1.0" encoding="utf-8" ?>
<svg baseProfile="full" height="2750.0" version="1.1" width="6825.0" xmlns="http://www.w3.org/2000/svg" xmlns:ev="http://www.w3.org/2001/xml-events" xmlns:xlink="http://www.w3.org/1999/xlink"><defs /><rect fill="white" height="2750.0" width="6825.0" x="0" y="0" /><path d="M390.0,25 m-165.0,580.0 l-10.0,135.0 -50.0,220.0 l-15.0,195.0 50.0,25.0 l255.0,25.0 510.0,95.0 l815.0,115.0 470.0,40.0 l1545.0,250.0 2080.0,290.0 l850.0,0.0 30.0,-5.0 l30.0,-30.0 15.0,-50.0 l0.0,-240.0 -30.0,-60.0 l-100.0,-810.0 -20.0,-85.0 l-70.0,-120.0 -25.0,-25.0 l-2390.0,0.0 -265.0,30.0 l-325.0,90.0 -220.0,0.0 l-450.0,-80.0 -425.0,-135.0 l-505.0,-5.0 -360.0,-105.0 l-385.0,-170.0 -180.0,-60.0 l-455.0,-70.0 -85.0,-40.0 l-110.0,10.0 m-155.0,1170.0 l-35.0,50.0 -55.0,150.0 l-80.0,280.0 -50.0,315.0 l0.0,160.0 45.0,80.0 l50.0,10.0 75.0,0.0 l95.0,-45.0 45.0,-30.0 l100.0,-130.0 90.0,-205.0 l5.0,-105.0 -35.0,-205.0 l-80.0,-220.0 -25.0,-35.0 l-30.0,-10.0 -100.0,150.0 m6270.0,565.0 l-205.0,30.0 -160.0,55.0 l-85.0,50.0 -60.0,65.0 l-5.0,200.0 25.0,125.0 l60.0,150.0 75.0,65.0 l25.0,5.0 125.0,-10.0 l275.0,-205.0 15.0,-25.0 l-10.0,-355.0 -15.0,-30.0 l-350.0,-160.0 m-195.0,-1275.0 l25.0,5.0 25.0,60.0 l25.0,120.0 15.0,210.0 l40.0,175.0 35.0,20.0 l395.0,0.0 75.0,-10.0 l30.0,-20.0 m-6095.0,-745.0 l-65.0,165.0 -90.0,120.0 l70.0,15.0 745.0,0.0 l-5.0,-70.0 -75.0,-80.0 l-185.0,-105.0 -75.0,-20.0 m1055.0,180.0 l-35.0,75.0 -160.0,210.0 l0.0,35.0 125.0,35.0 l560.0,80.0 180.0,10.0 l280.0,50.0 165.0,10.0 l-105.0,-180.0 -55.0,-60.0 l-145.0,-85.0 -210.0,-40.0 l-410.0,-5.0 10.0,20.0 m1745.0,105.0 l-30.0,20.0 -100.0,210.0 l-145.0,205.0 985.0,10.0 l40.0,15.0 5.0,-55.0 l-165.0,-360.0 -80.0,-270.0 l-275.0,-5.0 -185.0,95.0 l-65.0,85.0 -30.0,10.0 " fill="none" stroke="black" stroke-width="1" /></svg>