<?xml version="1.0" encoding="utf-8" ?>
<svg baseProfile="full" height="89.51719782315195" version="1.1" width="179.1026165895164" xmlns="http://www.w3.org/2000/svg" xmlns:ev="http://www.w3.org/2001/xml-events" xmlns:xlink="http://www.w3.org/1999/xlink"><defs /><rect fill="white" height="89.51719782315195" width="179.1026165895164" x="0" y="0" /><path d="M30.58901885524392,26.981648057699203 m-3.519250452518463,12.099692821502686 l-0.88570237159729,7.080870270729065 -1.038908138871193,5.604983568191528 l-0.14515789225697517,2.155309319496155 0.38669638335704803,0.42322151362895966 l1.0284461081027985,0.19691746681928635 6.095767021179199,-0.10188242420554161 l9.801042675971985,-0.3543943166732788 32.33611583709717,0.02520255744457245 l30.20515203475952,0.5018896982073784 25.25636911392212,0.6757188588380814 l17.496073246002197,0.5496230348944664 6.190969944000244,-0.2202189899981022 l0.3059842251241207,-0.5815979465842247 -0.48558738082647324,-7.194926142692566 l-0.6541870534420013,-8.796098232269287 -0.7066623866558075,-7.607879042625427 l-0.8052395284175873,-1.7161408066749573 -1.7573550343513489,-1.6087698936462402 l-2.847076654434204,-1.2938548624515533 -3.8516965508461,-0.9343928098678589 l-4.657692313194275,-0.5569763481616974 -11.091630458831787,-0.327945351600647 l-21.04001760482788,0.07887163199484348 -35.760626792907715,0.027257995679974556 l-14.183846712112427,0.6037300825119019 -12.793768644332886,0.7652541249990463 l-8.79813015460968,0.8790978044271469 m9.314519762992859,26.22117519378662 l-1.6195258498191833,-0.0500179547816515 -1.324450969696045,0.5502369254827499 l-1.621929556131363,1.6638295352458954 -0.9046375751495361,2.3443372547626495 l0.06411965936422348,2.603525221347809 1.0499218851327896,1.7811736464500427 l1.8253612518310547,1.3273148238658905 2.4885398149490356,0.6677694618701935 l2.879871428012848,-0.038145920261740685 2.3308539390563965,-0.9156867861747742 l1.9295607507228851,-1.6839218139648438 1.0800016671419144,-2.1524710953235626 l0.21342147141695023,-2.3797130584716797 -0.6806231290102005,-1.7514771223068237 l-1.6013671457767487,-1.632099449634552 -2.1100153028964996,-1.0040749609470367 l-2.4636058509349823,-0.3464693948626518 -2.357151061296463,0.22369852289557457 l-1.1401475220918655,0.5779802426695824 -0.5815162509679794,0.8728408813476562 m62.179412841796875,0.3452092781662941 l-1.758393794298172,0.04002015106379986 -2.0026417076587677,0.7691343873739243 l-1.8773531913757324,1.5134236216545105 -0.7667101174592972,1.3136100769042969 l-0.16281083226203918,2.2041164338588715 0.5165678262710571,1.3694025576114655 l1.0064304620027542,1.126953512430191 1.9941321015357971,1.0711759328842163 l2.704487442970276,0.5301360785961151 3.048686683177948,-0.02839275635778904 l2.4799083173274994,-0.767950564622879 2.094249725341797,-1.3582709431648254 l1.4062058925628662,-1.8716934323310852 0.5481734499335289,-2.1839717030525208 l-0.26847297325730324,-2.143012583255768 -1.1663729697465897,-1.636422723531723 l-1.9708816707134247,-1.31438747048378 -2.586185038089752,-0.7897470146417618 l-2.8238260746002197,-0.17644183710217476 -2.5662261247634888,0.41938863694667816 l-1.3543172180652618,0.6617259234189987 m-37.55820035934448,-17.523605823516846 l-0.8303298801183701,1.9929496943950653 -0.17253801226615906,1.9781412184238434 l0.3299897536635399,2.118329554796219 0.80173060297966,1.0338949412107468 l1.8520304560661316,0.862438976764679 2.8006204962730408,0.35779062658548355 l2.709631323814392,-0.1981065794825554 2.2000250220298767,-0.9259518980979919 l1.427188217639923,-1.4643101394176483 0.6431622803211212,-1.9985386729240417 l-0.1469268836081028,-1.9565147161483765 -1.0318667441606522,-1.3910901546478271 l-1.958940029144287,-1.1527745425701141 -2.6874572038650513,-0.6084532290697098 l-3.076884150505066,-0.03716851584613323 -2.364964783191681,0.4946865886449814 l-1.1400144547224045,0.582273043692112 m20.210371017456055,-0.4662322998046875 l-0.6543668359518051,1.584777981042862 -0.08854066021740437,1.7077338695526123 l0.2795279026031494,1.3882440328598022 1.104310005903244,1.7119771242141724 l1.2777377665042877,0.9082748740911484 2.2343377768993378,0.6483948975801468 l2.702961266040802,0.118001913651824 2.3415519297122955,-0.5262907221913338 l1.990216225385666,-1.176716387271881 1.24502994120121,-1.6271191835403442 l0.3711346536874771,-2.0280487835407257 -0.5782812461256981,-1.6569824516773224 l-1.5270787477493286,-1.4104180037975311 -2.2183406352996826,-0.8979682624340057 l-2.881816029548645,-0.29430005699396133 -2.9302701354026794,0.20601371303200722 l-2.0964568853378296,0.7951043546199799 -0.9683912247419357,0.7991400361061096 m20.1995849609375,-0.6793703138828278 l-0.6946256011724472,1.5473997592926025 0.013685220619663596,1.6522322595119476 l0.4580666869878769,1.2290816754102707 0.9522715210914612,0.9983691573143005 l1.8664644658565521,0.8866751939058304 2.589201033115387,0.388680100440979 l2.5098851323127747,-0.17080701887607574 2.0707178115844727,-0.9182913601398468 l1.4537915587425232,-1.414235383272171 0.6352125853300095,-1.7227968573570251 l-0.21944498643279076,-1.6686613857746124 -1.2155330181121826,-1.2390640377998352 l-2.0231346786022186,-0.8490175753831863 -2.835676670074463,-0.2109317108988762 l-3.0192601680755615,0.364801287651062 -2.5229716300964355,1.0645529627799988 " fill="none" stroke="black" stroke-width="1" /></svg>