<?xml version="1.0" encoding="utf-8" ?>
<svg baseProfile="full" height="68.00023972988129" version="1.1" width="66.2417470663786" xmlns="http://www.w3.org/2000/svg" xmlns:ev="http://www.w3.org/2001/xml-events" xmlns:xlink="http://www.w3.org/1999/xlink"><defs /><rect fill="white" height="68.00023972988129" width="66.2417470663786" x="0" y="0" /><path d="M36.82098614051938,26.885032835416496 m-0.2033981867134571,-0.4977850243449211 l-1.4477883279323578,-0.4732394963502884 -3.07158499956131,-0.02027904149144888 l-2.5288978219032288,0.9902212023735046 -2.3825323581695557,2.087564766407013 l-1.5929631888866425,2.8262054920196533 -0.593821257352829,3.2405969500541687 l0.28998561203479767,2.9468005895614624 1.3162048161029816,2.2848358750343323 l2.04569548368454,1.6482384502887726 2.388356477022171,0.8652662485837936 l2.839767038822174,0.2167808823287487 2.1949027478694916,-0.4555162787437439 l2.129361927509308,-1.2603257596492767 1.6558253765106201,-1.884668618440628 l1.0394201427698135,-2.5404322147369385 0.34222744405269623,-3.0620500445365906 l-0.24502726271748543,-2.849726378917694 -0.9093709290027618,-2.230328321456909 l-1.4436791837215424,-1.894250512123108 -1.8320977687835693,-1.2822268903255463 l-1.9579170644283295,-0.5407147109508514 m-3.9302560687065125,8.890478610992432 l-0.3456404432654381,-0.18828937783837318 0.0684256898239255,-0.1636858657002449 l0.3214019536972046,0.04072424955666065 0.003031400847248733,0.2343662828207016 l-0.15859371051192284,-0.3117387183010578 0.062010595574975014,-0.2100309543311596 l0.16674477607011795,0.2621378190815449 0.1077366154640913,-0.08605184964835644 l-0.14142131432890892,-0.14001808129251003 0.006511420360766351,-0.00204232768737711 l0.27602488175034523,-0.048107244074344635 -0.0646266620606184,0.06446666549891233 l-0.07805570494383574,0.05849286448210478 0.17460061237215996,-0.21233515813946724 l0.08090619929134846,0.023827513214200735 0.0036250072298571467,0.052069458179175854 l0.0684452522546053,-0.135452039539814 m0.39480023086071014,-0.5935898423194885 l0.001615403889445588,-5.580872893333435 m0.1644512079656124,7.041374444961548 l2.5814712047576904,1.3952401280403137 " fill="none" stroke="black" stroke-width="1" /></svg>