<?xml version="1.0" encoding="utf-8" ?>
<svg baseProfile="full" height="810.0" version="1.1" width="900.0" xmlns="http://www.w3.org/2000/svg" xmlns:ev="http://www.w3.org/2001/xml-events" xmlns:xlink="http://www.w3.org/1999/xlink"><defs /><rect fill="white" height="810.0" width="900.0" x="0" y="0" /><path d="M565.0,50.0 m-10.0,-25.0 l-25.0,5.0 -325.0,115.0 l-145.0,85.0 -25.0,65.0 l-10.0,80.0 5.0,150.0 l25.0,95.0 55.0,100.0 l30.0,35.0 60.0,20.0 l225.0,10.0 175.0,-35.0 l145.0,-75.0 100.0,-115.0 l30.0,-110.0 -5.0,-125.0 l-65.0,-125.0 -135.0,-115.0 l-90.0,-35.0 -55.0,0.0 m-255.0,145.0 l0.0,5.0 m220.0,0.0 l5.0,0.0 m175.0,115.0 l0.0,5.0 m-45.0,270.0 l0.0,0.0 m-280.0,30.0 l0.0,0.0 m-185.0,-195.0 l0.0,0.0 m265.0,0.0 l40.0,-50.0 m-50.0,-35.0 l100.0,-5.0 15.0,25.0 l0.0,65.0 m-155.0,105.0 l-65.0,-160.0 m-60.0,40.0 l55.0,-140.0 65.0,55.0 " fill="none" stroke="black" stroke-width="1" /></svg>