<?xml version="1.0" encoding="utf-8" ?>
<svg baseProfile="full" height="895.0" version="1.1" width="1080.0" xmlns="http://www.w3.org/2000/svg" xmlns:ev="http://www.w3.org/2001/xml-events" xmlns:xlink="http://www.w3.org/1999/xlink"><defs /><rect fill="white" height="895.0" width="1080.0" x="0" y="0" /><path d="M620.0,45.0 m-85.0,-20.0 l-175.0,0.0 -105.0,30.0 l-135.0,70.0 -50.0,45.0 l-45.0,105.0 0.0,160.0 l20.0,65.0 40.0,80.0 l65.0,80.0 140.0,125.0 l75.0,40.0 210.0,45.0 l230.0,-5.0 50.0,-20.0 l60.0,-50.0 55.0,-70.0 l75.0,-170.0 10.0,-60.0 l0.0,-140.0 -35.0,-135.0 l-110.0,-95.0 -180.0,-85.0 l-220.0,-15.0 m10.0,305.0 l-50.0,20.0 10.0,70.0 l60.0,45.0 30.0,-60.0 l0.0,-50.0 -25.0,-10.0 l-25.0,5.0 m-80.0,-250.0 l50.0,-10.0 25.0,0.0 l0.0,10.0 m60.0,0.0 l20.0,70.0 m10.0,460.0 l-90.0,135.0 95.0,65.0 l-120.0,-10.0 " fill="none" stroke="black" stroke-width="1" /></svg>