<?xml version="1.0" encoding="utf-8" ?>
<svg baseProfile="full" height="67.13087369404093" version="1.1" width="70.06066855954487" xmlns="http://www.w3.org/2000/svg" xmlns:ev="http://www.w3.org/2001/xml-events" xmlns:xlink="http://www.w3.org/1999/xlink"><defs /><rect fill="white" height="67.13087369404093" width="70.06066855954487" x="0" y="0" /><path d="M36.97195147538878,25.457013174891472 m-1.7445863783359528,-0.45701317489147186 l-3.3071517944335938,0.0008708829409442842 -2.5097158551216125,0.8312796056270599 l-1.922093778848648,1.2149707973003387 -1.160968393087387,1.1504317820072174 l-1.0553444921970367,1.9517721235752106 -0.2719734236598015,1.249677613377571 l-0.00011735970474546775,3.2653871178627014 1.2547720968723297,2.928423285484314 l0.9691751003265381,1.182856485247612 3.102450370788574,2.1041645109653473 l1.6708779335021973,0.6483543664216995 4.084353744983673,0.6023349612951279 l2.6932254433631897,0.000350161935784854 1.9968706369400024,-0.521746389567852 l1.6271671652793884,-0.9294860810041428 1.275743842124939,-1.3144953548908234 l0.8562606573104858,-1.656384915113449 0.5296892672777176,-2.8129902482032776 l8.230077582993545e-05,-2.7669838070869446 -0.5906658992171288,-2.032635807991028 l-1.6979523003101349,-2.4213162064552307 -3.025958836078644,-1.712462157011032 l-3.8638952374458313,-0.8214592188596725 m-1.0498753190040588,8.407893776893616 l-0.6005355715751648,0.49670644104480743 -0.06471422035247087,-0.03219100879505277 l0.23582881316542625,-0.6675632297992706 -0.09024301543831825,-0.14177926816046238 l-0.30242055654525757,0.6199003010988235 0.27441496029496193,-0.37461187690496445 l-0.15470989048480988,-0.2047005295753479 -0.26205752044916153,0.4076991230249405 m0.8108657598495483,-7.177001237869263 l-0.20366601645946503,2.245432436466217 -0.12167048640549183,2.364768087863922 m1.8518899381160736,0.24513265118002892 l1.913125365972519,2.0519059896469116 0.2253297157585621,1.025865599513054 m-3.006097376346588,-0.2186250127851963 l-1.095050573348999,2.711538076400757 -0.770534873008728,1.2903575599193573 " fill="none" stroke="black" stroke-width="1" /></svg>