<?xml version="1.0" encoding="utf-8" ?>
<svg baseProfile="full" height="79.22119640745223" version="1.1" width="79.11805612966418" xmlns="http://www.w3.org/2000/svg" xmlns:ev="http://www.w3.org/2001/xml-events" xmlns:xlink="http://www.w3.org/1999/xlink"><defs /><rect fill="white" height="79.22119640745223" width="79.11805612966418" x="0" y="0" /><path d="M27.441874258220196,31.828852286562324 m4.329750239849091,1.796993762254715 l2.1386127173900604,0.37024788558483124 9.966201186180115,0.30818337574601173 l5.260078310966492,-0.8434822410345078 2.0887936651706696,-0.9475259482860565 l0.6525272130966187,-0.9426525235176086 -0.2578017860651016,-1.001160740852356 l-2.3037751019001007,-1.4567281305789948 -3.225230574607849,-0.9565232694149017 l-9.29613709449768,-1.0721728205680847 -4.924840033054352,0.3486444801092148 l-4.027425050735474,1.0883920639753342 -1.7188157141208649,0.9705395996570587 l-0.8024068176746368,1.0253211855888367 -0.32140541821718216,1.738126128911972 l0.3283783793449402,3.1910040974617004 0.722176730632782,4.642564952373505 l0.615575984120369,4.889613687992096 0.28630660846829414,4.825468957424164 l0.4422995075583458,3.148881494998932 0.5041918531060219,0.4795224964618683 l3.23650985956192,0.4914774000644684 10.86814284324646,0.29760822653770447 l7.427256107330322,-0.3969554975628853 4.153707027435303,-0.8100377768278122 l0.5335112288594246,-0.44496580958366394 -0.0001557833638798911,-3.929932117462158 l-0.24671269580721855,-8.553082346916199 -0.3902909904718399,-6.873623728752136 l-0.5296917259693146,-3.295876681804657 m-26.27319574356079,6.9046550989151 l5.324770212173462,0.8134538680315018 7.262284755706787,0.7142801582813263 l6.796761155128479,0.09237434715032578 4.438148140907288,-0.2775021642446518 l2.934100031852722,-0.39433058351278305 m-27.3659348487854,4.130053222179413 l6.927770376205444,0.8750513195991516 7.386482357978821,0.43073102831840515 l5.214329361915588,-0.041422219946980476 3.93894225358963,-0.3975369781255722 l2.5153136253356934,-0.2935861051082611 m-24.89095687866211,-3.721957504749298 l4.3152859807014465,0.7187766581773758 4.942677021026611,0.6868135929107666 l5.272449254989624,0.2294260822236538 4.259239435195923,0.10075775906443596 l3.2921674847602844,-0.20457806065678596 2.2586750984191895,-0.18909620121121407 m-20.47739267349243,-6.4940959215164185 l0.28186967596411705,-3.184957206249237 0.8122136443853378,-3.3150681853294373 l0.7201895117759705,-0.9242735803127289 1.995043307542801,3.77966970205307 l0.3178546205163002,3.095143437385559 m2.7182498574256897,-3.1730589270591736 l0.3797684609889984,-1.4454449713230133 0.7324646413326263,-2.3942308127880096 l1.6131123900413513,2.6120278239250183 0.32461386173963547,2.447895109653473 m3.310248851776123,-1.3490867614746094 l0.1221503596752882,-1.937083750963211 0.8834633231163025,-2.810521721839905 l1.6939789056777954,3.846207857131958 0.2574196271598339,2.300301045179367 " fill="none" stroke="black" stroke-width="1" /></svg>