<?xml version="1.0" encoding="utf-8" ?>
<svg baseProfile="full" height="80.24370039347559" version="1.1" width="102.17344285920262" xmlns="http://www.w3.org/2000/svg" xmlns:ev="http://www.w3.org/2001/xml-events" xmlns:xlink="http://www.w3.org/1999/xlink"><defs /><rect fill="white" height="80.24370039347559" width="102.17344285920262" x="0" y="0" /><path d="M26.34240312501788,46.0434749815613 m0.34119632095098495,-4.178197383880615 l-0.54025087505579,-4.006352126598358 -0.19505999982357025,-11.757720708847046 l6.176839470863342,-0.06957021541893482 10.179791450500488,-0.3317650407552719 l13.94275188446045,-0.41915737092494965 11.333262920379639,-0.2557859756052494 l7.559508681297302,-0.024926159530878067 0.4991886392235756,0.633542537689209 l0.7603362202644348,8.575526475906372 0.5810607969760895,7.033665180206299 l0.19241422414779663,4.239323735237122 -0.39603035897016525,1.994830071926117 l-0.556350015103817,0.3278754651546478 -3.0642279982566833,0.14190702699124813 l-4.8252758383750916,-0.1423919852823019 -5.01225471496582,-0.0937145296484232 l-4.8295363783836365,0.07225506473332644 -12.008408308029175,-0.04982156679034233 l-8.672140836715698,-0.2749122865498066 -6.358863711357117,-0.23160511627793312 l-4.249262809753418,-0.12334424071013927 -1.976587325334549,-0.1183522678911686 l-0.22450456395745277,-0.32469309866428375 m5.475324988365173,1.6654188930988312 l-0.9877900034189224,1.0291524976491928 -0.42614828795194626,1.3165666162967682 l0.17355291172862053,2.0800870656967163 0.9762515127658844,1.3132759928703308 l1.371210664510727,0.7106736302375793 2.3314154148101807,0.17419278621673584 l1.526491791009903,-0.6050580367445946 1.0717538744211197,-1.1250965297222137 l0.4745796322822571,-1.374608427286148 -0.17471401020884514,-2.0539405941963196 l-0.8554317057132721,-1.2759074568748474 -1.2410783767700195,-0.7627157121896744 l-2.213248610496521,-0.378950797021389 m30.143141746520996,0.2576746419072151 l-1.524292230606079,1.8499238789081573 -0.5411471053957939,1.7071712017059326 l0.17648866400122643,2.0139408111572266 0.9409071505069733,1.1827639490365982 l1.374230682849884,0.684310793876648 2.509934902191162,0.1747347228229046 l1.6208481788635254,-0.5952420458197594 1.0382772237062454,-1.0623504221439362 l0.6265226751565933,-2.039998322725296 -9.339993994217366e-05,-1.8525783717632294 l-0.9733203053474426,-1.827186793088913 -1.287255436182022,-1.0151684284210205 l-2.2077497839927673,-0.6378805637359619 m-19.72481369972229,-14.585363864898682 l-0.2356276474893093,3.49950909614563 0.43917708098888397,0.4693126678466797 l3.7581604719161987,0.05200137849897146 2.3883210122585297,-0.33276595175266266 l0.39387382566928864,-0.4548778757452965 -0.15882818028330803,-2.825678586959839 l-4.424717724323273,-0.7614273577928543 -2.2902972996234894,0.28613705188035965 m9.154397249221802,-0.08102034218609333 l0.005851579480804503,3.4538698196411133 0.5016281828284264,0.4128752648830414 l4.154108166694641,-0.15717221423983574 0.3516704589128494,-2.3146988451480865 l-0.7564494758844376,-1.4607509970664978 -4.4384124875068665,0.06221940275281668 " fill="none" stroke="black" stroke-width="1" /></svg>