<?xml version="1.0" encoding="utf-8" ?>
<svg baseProfile="full" height="1560.0" version="1.1" width="2615.0" xmlns="http://www.w3.org/2000/svg" xmlns:ev="http://www.w3.org/2001/xml-events" xmlns:xlink="http://www.w3.org/1999/xlink"><defs /><rect fill="white" height="1560.0" width="2615.0" x="0" y="0" /><path d="M55.0,1055.0 m15.0,-200.0 l-30.0,-225.0 0.0,-585.0 l25.0,-20.0 1270.0,65.0 l505.0,0.0 460.0,-20.0 l50.0,100.0 35.0,155.0 l55.0,360.0 20.0,275.0 l55.0,295.0 -100.0,-45.0 l-190.0,-15.0 -75.0,25.0 l-85.0,95.0 -160.0,40.0 l-930.0,0.0 -260.0,-85.0 l-180.0,-15.0 -145.0,-125.0 l-75.0,-25.0 -120.0,-10.0 l-140.0,40.0 -10.0,-95.0 m55.0,50.0 l-30.0,5.0 -35.0,45.0 l-10.0,135.0 55.0,65.0 l40.0,20.0 90.0,25.0 l210.0,0.0 80.0,-30.0 l15.0,-25.0 -10.0,-55.0 l25.0,-15.0 m1870.0,5.0 l-65.0,-20.0 -105.0,15.0 l-90.0,40.0 -35.0,60.0 l25.0,60.0 65.0,65.0 l55.0,35.0 65.0,15.0 l100.0,0.0 145.0,-30.0 l30.0,-20.0 0.0,-65.0 l-85.0,-90.0 -90.0,-45.0 l-125.0,-40.0 -105.0,-10.0 l-15.0,10.0 m-1910.0,-670.0 l30.0,235.0 245.0,45.0 l20.0,-40.0 5.0,-195.0 l-30.0,-80.0 -180.0,-25.0 l-65.0,60.0 m610.0,-25.0 l-5.0,145.0 25.0,20.0 l190.0,40.0 205.0,20.0 " fill="none" stroke="black" stroke-width="1" /></svg>