<?xml version="1.0" encoding="utf-8" ?>
<svg baseProfile="full" height="930.0" version="1.1" width="1640.0" xmlns="http://www.w3.org/2000/svg" xmlns:ev="http://www.w3.org/2001/xml-events" xmlns:xlink="http://www.w3.org/1999/xlink"><defs /><rect fill="white" height="930.0" width="1640.0" x="0" y="0" /><path d="M850.0,200.0 m-75.0,0.0 l-65.0,25.0 -60.0,50.0 l-80.0,115.0 -20.0,90.0 l-5.0,195.0 90.0,150.0 l60.0,45.0 80.0,25.0 l190.0,10.0 75.0,-25.0 l85.0,-105.0 30.0,-95.0 l10.0,-105.0 0.0,-145.0 l-25.0,-90.0 -125.0,-115.0 l-155.0,-15.0 m-190.0,15.0 l0.0,-150.0 15.0,-50.0 l60.0,50.0 120.0,160.0 m140.0,-55.0 l110.0,-80.0 15.0,240.0 l20.0,70.0 m-350.0,55.0 l-50.0,-5.0 25.0,0.0 l0.0,-30.0 -10.0,-25.0 l-25.0,-10.0 -50.0,0.0 l0.0,40.0 m180.0,50.0 l115.0,-5.0 25.0,-15.0 l-55.0,-15.0 -5.0,30.0 m-5.0,65.0 l235.0,45.0 380.0,25.0 m-620.0,0.0 l75.0,30.0 285.0,60.0 l250.0,30.0 65.0,0.0 l-145.0,-20.0 m-750.0,-165.0 l-100.0,-15.0 -465.0,-10.0 m475.0,0.0 l-95.0,35.0 -295.0,35.0 l-215.0,60.0 45.0,5.0 m550.0,-25.0 l-380.0,120.0 m445.0,-95.0 l135.0,-30.0 90.0,40.0 l65.0,5.0 " fill="none" stroke="black" stroke-width="1" /></svg>