<?xml version="1.0" encoding="utf-8" ?>
<svg baseProfile="full" height="69.08951165154576" version="1.1" width="64.06431835144758" xmlns="http://www.w3.org/2000/svg" xmlns:ev="http://www.w3.org/2001/xml-events" xmlns:xlink="http://www.w3.org/1999/xlink"><defs /><rect fill="white" height="69.08951165154576" width="64.06431835144758" x="0" y="0" /><path d="M31.048093512654305,26.066358969546854 m-1.4938339591026306,-0.04302675370126963 l-1.1560960859060287,0.4946479946374893 -1.3091224431991577,1.129438430070877 l-1.3992270827293396,2.351635694503784 -0.6898139417171478,2.877779006958008 l0.07374614477157593,2.856137454509735 0.5137873068451881,1.322024017572403 l1.4482368528842926,1.6648772358894348 2.06053763628006,1.078638732433319 l2.4681147933006287,0.404910109937191 2.570503354072571,-0.18751878291368484 l1.9961966574192047,-1.0185002535581589 1.6551019251346588,-1.7793640494346619 l1.0012835264205933,-2.30768084526062 0.2768101543188095,-2.727079689502716 l-0.35317830741405487,-2.5031569600105286 -1.085052415728569,-2.066570818424225 l-1.6799521446228027,-1.571233719587326 -2.0485004782676697,-0.8778649568557739 l-2.3243986070156097,-0.16445081681013107 -1.2490235269069672,0.32627999782562256 m-1.3883879780769348,11.024892330169678 l-0.7634972035884857,1.039305254817009 -0.35441555082798004,1.4677643775939941 l0.018760401289910078,2.531231641769409 0.9844143688678741,1.7869512736797333 l1.0165821015834808,0.7067599147558212 1.5399838984012604,0.20632686093449593 l1.6147792339324951,-0.536230243742466 1.4605684578418732,-1.520741879940033 l0.7466217130422592,-2.0156966149806976 0.00856210186611861,-2.2291524708271027 l-0.7541535049676895,-1.559809297323227 -1.359095275402069,-1.0941959917545319 l-1.785731166601181,-0.35741642117500305 -1.1975915729999542,0.20135600119829178 l-0.9690011292695999,0.6847524642944336 m1.5893164277076721,-0.5205146968364716 l-0.3517821431159973,0.19392754882574081 0.007036835886538029,0.23422759026288986 l0.20032282918691635,-0.31640227884054184 -0.23120924830436707,-0.10298369452357292 l-0.1643572747707367,0.45280400663614273 0.37091225385665894,-0.548524297773838 l-0.29049625620245934,-0.08502194657921791 -0.181658323854208,0.4423575848340988 l0.4603911191225052,-0.43828077614307404 -0.32058410346508026,-0.09563656523823738 l-0.2138134092092514,0.5586080998182297 0.48046018928289413,-0.37248972803354263 l-0.2888435125350952,-0.1724754460155964 -0.15639906749129295,0.5005615949630737 l0.4717428609728813,-0.37084944546222687 -0.3239075094461441,-0.17716167494654655 l-0.18271168693900108,0.5204857513308525 0.43369676917791367,-0.29168931767344475 l-0.27574509382247925,-0.17341868951916695 m-0.1390545256435871,-0.1756126806139946 l0.7976865768432617,-2.701403498649597 0.47750305384397507,-2.2551867365837097 m-1.4570756256580353,5.7232725620269775 l3.4633535146713257,0.04593925550580025 2.263471931219101,-0.5301077291369438 " fill="none" stroke="black" stroke-width="1" /></svg>