<?xml version="1.0" encoding="utf-8" ?>
<svg baseProfile="full" height="80.41544618085027" version="1.1" width="71.07944130897522" xmlns="http://www.w3.org/2000/svg" xmlns:ev="http://www.w3.org/2001/xml-events" xmlns:xlink="http://www.w3.org/1999/xlink"><defs /><rect fill="white" height="80.41544618085027" width="71.07944130897522" x="0" y="0" /><path d="M34.3334362875612,34.76118452625087 m0.3041584976017475,0.7418514043092728 l0.09272821247577667,2.8232061862945557 -0.30381444841623306,6.5454792976379395 l0.09852183982729912,6.23077392578125 0.6043872982263565,3.61898273229599 l0.4672936350107193,0.6936309486627579 0.6046206504106522,0.00033715961762936786 l0.6340260803699493,-1.2933200597763062 0.8958018571138382,-10.92772126197815 l-0.0003019288124050945,-5.810953974723816 -0.5287336930632591,-2.4240924417972565 l-0.950159877538681,-0.9810630232095718 -0.9423065930604935,0.24461789056658745 m0.5181043967604637,0.5611361563205719 l-0.6485067307949066,-2.162117511034012 -0.8550228178501129,-2.42875799536705 l-0.9229984134435654,-2.3619040846824646 -1.1145887523889542,-1.927356868982315 l-0.933338850736618,-0.7984542846679688 m5.616453289985657,8.869681358337402 l-0.26433566585183144,-0.9126834571361542 1.0937608033418655,-4.759886264801025 l1.1585471779108047,-2.273358702659607 1.055433452129364,-1.0292116552591324 m-3.569583296775818,15.288692712783813 l0.09451990015804768,-1.3040244579315186 0.7036725431680679,-1.7515802383422852 l1.1630829423666,-1.6389305889606476 2.146574556827545,-1.7046351730823517 l1.8769097328186035,-0.598297156393528 1.518230140209198,0.20062660798430443 l0.932697132229805,0.7792661339044571 0.9481996297836304,2.206864058971405 l0.251972321420908,3.471743166446686 -0.8173120021820068,3.5093221068382263 l-1.785902976989746,3.098554313182831 -2.2938410937786102,2.2990521788597107 l-2.397470772266388,1.4164343476295471 -0.7014460116624832,0.18422290682792664 l-0.7318462431430817,-0.3357161208987236 -0.828000009059906,-1.2786677479743958 m-3.2900312542915344,-8.605097532272339 l-0.6934724748134613,-1.6332079470157623 -1.3316401839256287,-1.549544483423233 l-1.6663183271884918,-0.8668619394302368 -1.5806379914283752,0.000510384670633357 l-1.0248280316591263,0.7038825750350952 -1.2074356526136398,2.021341472864151 l-0.7292582839727402,3.1992438435554504 0.022692633792757988,2.3258621990680695 l0.5815451592206955,1.9408158957958221 1.0433606058359146,1.442556232213974 l1.3713008165359497,1.0404746979475021 1.6964982450008392,0.6089521571993828 l2.661394476890564,0.12080144137144089 1.7516522109508514,-0.6472936272621155 " fill="none" stroke="black" stroke-width="1" /></svg>