<?xml version="1.0" encoding="utf-8" ?>
<svg baseProfile="full" height="1640.0" version="1.1" width="1210.0" xmlns="http://www.w3.org/2000/svg" xmlns:ev="http://www.w3.org/2001/xml-events" xmlns:xlink="http://www.w3.org/1999/xlink"><defs /><rect fill="white" height="1640.0" width="1210.0" x="0" y="0" /><path d="M555.0,655.0 m15.0,40.0 l0.0,155.0 -20.0,240.0 l-5.0,380.0 20.0,100.0 l40.0,45.0 45.0,-30.0 l45.0,-160.0 25.0,-245.0 l-10.0,-380.0 -50.0,-250.0 l-25.0,-15.0 -30.0,10.0 l-30.0,40.0 -20.0,75.0 m0.0,-145.0 l-65.0,-225.0 -10.0,-180.0 m115.0,435.0 l10.0,-110.0 45.0,-175.0 l30.0,-90.0 85.0,-145.0 m-240.0,665.0 l-20.0,-60.0 -90.0,-80.0 l-85.0,-40.0 -95.0,-15.0 l-120.0,15.0 -75.0,90.0 l-15.0,70.0 20.0,150.0 l165.0,295.0 45.0,135.0 l10.0,190.0 15.0,30.0 l130.0,20.0 70.0,-50.0 m235.0,-710.0 l10.0,-110.0 50.0,-95.0 l110.0,-110.0 70.0,-40.0 l75.0,-25.0 60.0,0.0 l45.0,30.0 30.0,50.0 l20.0,90.0 0.0,115.0 l-15.0,45.0 -160.0,225.0 l-125.0,225.0 0.0,85.0 l65.0,115.0 -15.0,60.0 l-135.0,15.0 " fill="none" stroke="black" stroke-width="1" /></svg>