<?xml version="1.0" encoding="utf-8" ?>
<svg baseProfile="full" height="1330.0" version="1.1" width="1360.0" xmlns="http://www.w3.org/2000/svg" xmlns:ev="http://www.w3.org/2001/xml-events" xmlns:xlink="http://www.w3.org/1999/xlink"><defs /><rect fill="white" height="1330.0" width="1360.0" x="0" y="0" /><path d="M845.0,1305.0 m-40.0,-80.0 l-25.0,-110.0 -90.0,-575.0 l-15.0,-485.0 30.0,-30.0 m10.0,400.0 l-140.0,-255.0 -40.0,-40.0 l-170.0,-85.0 -90.0,-20.0 l-30.0,0.0 -55.0,40.0 l-45.0,65.0 -95.0,175.0 l-25.0,120.0 160.0,205.0 l155.0,75.0 125.0,5.0 l-160.0,75.0 -70.0,45.0 l-60.0,65.0 -10.0,75.0 l175.0,220.0 95.0,10.0 l90.0,-45.0 220.0,-210.0 m-90.0,-510.0 l190.0,-160.0 75.0,-35.0 l95.0,-15.0 75.0,0.0 l120.0,30.0 70.0,50.0 l55.0,80.0 -30.0,95.0 l-100.0,95.0 -145.0,75.0 l-155.0,-5.0 25.0,-20.0 l185.0,-25.0 75.0,25.0 l60.0,50.0 50.0,80.0 l20.0,130.0 0.0,105.0 l-25.0,80.0 -50.0,55.0 l-155.0,70.0 -135.0,10.0 l-90.0,-45.0 " fill="none" stroke="black" stroke-width="1" /></svg>