<?xml version="1.0" encoding="utf-8" ?>
<svg baseProfile="full" height="83.4564950875938" version="1.1" width="76.10923264175653" xmlns="http://www.w3.org/2000/svg" xmlns:ev="http://www.w3.org/2001/xml-events" xmlns:xlink="http://www.w3.org/1999/xlink"><defs /><rect fill="white" height="83.4564950875938" width="76.10923264175653" x="0" y="0" /><path d="M47.29241075459868,58.456495087593794 m-0.8486605435609818,-1.646903157234192 l-2.256022095680237,-6.2630486488342285 -1.7624135315418243,-7.734902501106262 l-0.651937872171402,-6.566310524940491 0.060012396425008774,-4.7346049547195435 l0.3103277459740639,-2.8225532174110413 0.4271480068564415,-1.4618019759654999 l0.7202246785163879,-1.2210413068532944 1.0546346753835678,-0.8232595026493073 l1.33210688829422,-0.1463083177804947 0.5916820093989372,1.3054883480072021 l0.4841920733451843,2.7570319175720215 0.06055525969713926,3.113337755203247 l-2.0196135342121124,10.589821338653564 -1.1608488857746124,7.229482531547546 l-1.358506977558136,5.992688536643982 -0.4551171511411667,0.5612019822001457 l-0.31295206397771835,-0.14753898605704308 -0.20584911108016968,-1.3249771296977997 l0.1954711601138115,-2.2243398427963257 1.2540121376514435,-4.63678240776062 l0.25301598012447357,-2.8803199529647827 m0.6301087141036987,-16.107380390167236 l-0.7037178426980972,-1.0461429506540298 -1.835397183895111,-1.321791410446167 l-4.846096634864807,-1.7381571233272552 -5.597782135009766,-0.15738319605588913 l-2.4129945039749146,0.8676934242248535 -1.3954123854637146,1.0966695100069046 l-1.3180884718894958,2.1317176520824432 -0.5244915559887886,2.532336413860321 l0.260542556643486,2.4163831770420074 1.1763617396354675,1.9681385159492493 l1.9093738496303558,1.50649756193161 3.5056930780410767,1.2035582959651947 l2.0623253285884857,0.32654188573360443 -2.7006179094314575,2.949572801589966 l-1.6310396790504456,2.8108027577400208 -0.7089323550462723,2.7785122394561768 l0.04017230123281479,2.6289305090904236 0.916106104850769,2.002851963043213 l1.7354996502399445,1.43232062458992 2.3591937124729156,0.7224507629871368 l2.7556660771369934,-0.012943041510879993 2.248760163784027,-0.7426398992538452 l2.2097356617450714,-1.4859215915203094 1.4751577377319336,-1.889994889497757 l0.8122149854898453,-2.3920421302318573 m3.453819751739502,-18.54382872581482 l2.3745104670524597,-2.021017074584961 1.8546894192695618,-0.8684039860963821 " fill="none" stroke="black" stroke-width="1" /></svg>