<?xml version="1.0" encoding="utf-8" ?>
<svg baseProfile="full" height="94.17580600827932" version="1.1" width="98.55096787214279" xmlns="http://www.w3.org/2000/svg" xmlns:ev="http://www.w3.org/2001/xml-events" xmlns:xlink="http://www.w3.org/1999/xlink"><defs /><rect fill="white" height="94.17580600827932" width="98.55096787214279" x="0" y="0" /><path d="M42.420675097964704,31.861898452043533 m4.469224214553833,0.44449955224990845 l6.3571178913116455,-0.37440188229084015 0.4735521972179413,-0.8648063987493515 l-0.3538522496819496,-2.0267216861248016 -1.342911720275879,-1.8091356754302979 l-1.8868060410022736,-1.233983263373375 -2.4563640356063843,-0.7698546350002289 l-2.8950488567352295,-0.22749446332454681 -2.6089268922805786,0.2877509221434593 l-2.3428289592266083,1.0283000022172928 -1.1348742991685867,0.9954719245433807 l-0.5285366624593735,1.1768794804811478 0.04148427862673998,1.241057813167572 l0.6241925060749054,0.8368031680583954 1.867126077413559,1.086137443780899 l2.6651543378829956,0.617852471768856 m2.5950652360916138,-0.5729404836893082 l-0.027401044499129057,4.552586674690247 -0.9393537789583206,5.402725338935852 l-0.09466426447033882,6.167860627174377 -0.8244705200195312,3.361661434173584 l-0.2777504362165928,1.516253650188446 -1.0325799137353897,2.208884507417679 l-0.8205108344554901,1.2241777777671814 -1.4910456538200378,1.8644653260707855 l-0.9131600707769394,0.9830822795629501 -0.8605445921421051,1.1800912767648697 l-0.6197327375411987,1.5179014205932617 -0.16348013654351234,1.9494827091693878 l0.6899256259202957,1.754147708415985 1.6945385932922363,1.628294438123703 l2.4280956387519836,1.1560456454753876 2.7392444014549255,0.6967249512672424 l2.947239875793457,0.3141075000166893 2.673923969268799,-0.12852833606302738 l2.300635725259781,-0.6346458196640015 2.1814586222171783,-1.3405732810497284 l1.87297984957695,-2.141617238521576 1.2652763724327087,-2.846948206424713 l0.5834591016173363,-3.332507908344269 0.03006587503477931,-3.3793115615844727 l-1.0601986199617386,-4.489631950855255 -1.9246000051498413,-4.124402105808258 l-2.909388244152069,-5.708274841308594 -2.4091286957263947,-4.271022975444794 l-1.611706018447876,-1.7144301533699036 -1.7323720455169678,-0.9420540928840637 l-1.8859736621379852,-0.28400249779224396 -1.1530715227127075,0.292303878813982 m2.2929346561431885,9.388418793678284 l-0.9682393819093704,-1.9120000302791595 -2.148183137178421,-2.306201756000519 l-4.746078848838806,-3.4085622429847717 -4.942070245742798,-2.5131186842918396 l-3.4191739559173584,-1.0438025742769241 -2.49497190117836,-0.18419677391648293 l-1.2197266519069672,0.37360500544309616 -0.9967530518770218,0.8409759402275085 l-0.8614173531532288,2.075219452381134 -0.11547310277819633,2.771839201450348 l0.6814035028219223,2.4206990003585815 1.3739979267120361,2.2443847358226776 l1.8988454341888428,1.9145368039608002 2.2811758518218994,1.5286561846733093 l2.5899940729141235,1.1817818880081177 3.9896947145462036,1.0322598367929459 l2.8937193751335144,0.20522663369774818 2.60192334651947,-0.35568132996559143 m10.553520917892456,-4.7234562039375305 l1.2216756492853165,-1.5721558034420013 2.5571152567863464,-2.0271486043930054 l3.815374970436096,-1.9350917637348175 3.9624497294425964,-1.0179352760314941 l2.541145980358124,-0.06594338454306126 2.4440044164657593,0.7646899670362473 l1.7323409020900726,1.3216747343540192 1.0712484270334244,1.800936758518219 l0.3413373976945877,2.2192494571208954 -0.4165521264076233,2.091957926750183 l-1.3348086178302765,2.007499188184738 -1.9914180040359497,1.6408917307853699 l-2.558756172657013,1.1801114678382874 -4.012789726257324,0.7311577349901199 l-4.377429485321045,-0.019965206738561392 " fill="none" stroke="black" stroke-width="1" /></svg>