<?xml version="1.0" encoding="utf-8" ?>
<svg baseProfile="full" height="1765.0" version="1.1" width="2310.0" xmlns="http://www.w3.org/2000/svg" xmlns:ev="http://www.w3.org/2001/xml-events" xmlns:xlink="http://www.w3.org/1999/xlink"><defs /><rect fill="white" height="1765.0" width="2310.0" x="0" y="0" /><path d="M1205.0,260.0 m225.0,20.0 l285.0,0.0 15.0,-120.0 l-20.0,-55.0 -55.0,-45.0 l-70.0,-15.0 -155.0,-20.0 l-165.0,0.0 -155.0,80.0 l-45.0,135.0 110.0,45.0 l110.0,-10.0 m120.0,140.0 l-30.0,20.0 -225.0,-20.0 l-80.0,110.0 -5.0,155.0 l150.0,25.0 250.0,90.0 l185.0,20.0 140.0,-80.0 l20.0,-35.0 0.0,-65.0 l-25.0,-55.0 -175.0,-105.0 l-145.0,-35.0 -150.0,20.0 m-110.0,255.0 l-80.0,50.0 -90.0,0.0 l-190.0,-90.0 -95.0,-100.0 l-115.0,-190.0 -130.0,-105.0 l-420.0,-45.0 -40.0,40.0 l-20.0,50.0 0.0,55.0 l25.0,15.0 160.0,-35.0 l75.0,0.0 40.0,35.0 l20.0,60.0 10.0,230.0 l155.0,160.0 60.0,30.0 l115.0,10.0 20.0,30.0 l70.0,40.0 210.0,5.0 l-30.0,105.0 0.0,70.0 l50.0,130.0 0.0,140.0 l-80.0,250.0 -70.0,85.0 l350.0,-15.0 160.0,-170.0 l25.0,-80.0 135.0,-270.0 l0.0,-70.0 40.0,-190.0 l0.0,-160.0 -20.0,-50.0 l25.0,185.0 45.0,140.0 l30.0,20.0 25.0,55.0 l115.0,150.0 180.0,330.0 l90.0,0.0 130.0,-80.0 l60.0,-110.0 40.0,-205.0 l-10.0,-155.0 -80.0,-140.0 l-70.0,-45.0 -40.0,-5.0 l-120.0,-90.0 -240.0,-110.0 l-60.0,-10.0 -115.0,60.0 " fill="none" stroke="black" stroke-width="1" /></svg>