<?xml version="1.0" encoding="utf-8" ?>
<svg baseProfile="full" height="1510.0" version="1.1" width="1490.0" xmlns="http://www.w3.org/2000/svg" xmlns:ev="http://www.w3.org/2001/xml-events" xmlns:xlink="http://www.w3.org/1999/xlink"><defs /><rect fill="white" height="1510.0" width="1490.0" x="0" y="0" /><path d="M130.0,710.0 m5.0,775.0 l925.0,-205.0 275.0,-5.0 l-30.0,-20.0 -10.0,-50.0 l-55.0,-575.0 -65.0,-115.0 l-155.0,-15.0 -550.0,105.0 l-115.0,65.0 -185.0,60.0 l-70.0,35.0 -40.0,25.0 l-35.0,50.0 m555.0,-245.0 l-45.0,-95.0 -85.0,-275.0 m550.0,365.0 l0.0,-140.0 40.0,-285.0 m155.0,375.0 l-10.0,-90.0 40.0,-385.0 m-395.0,520.0 l-30.0,-35.0 -20.0,-70.0 l-10.0,-100.0 -5.0,-355.0 m-530.0,610.0 l-25.0,-25.0 -30.0,-95.0 l-30.0,-190.0 m40.0,640.0 l545.0,-80.0 410.0,0.0 l50.0,10.0 m-995.0,305.0 l695.0,-70.0 205.0,-55.0 l185.0,-15.0 m-1140.0,285.0 l885.0,-95.0 315.0,-55.0 l120.0,-40.0 " fill="none" stroke="black" stroke-width="1" /></svg>