<?xml version="1.0" encoding="utf-8" ?>
<svg baseProfile="full" height="80.74231595732272" version="1.1" width="78.36439251288539" xmlns="http://www.w3.org/2000/svg" xmlns:ev="http://www.w3.org/2001/xml-events" xmlns:xlink="http://www.w3.org/1999/xlink"><defs /><rect fill="white" height="80.74231595732272" width="78.36439251288539" x="0" y="0" /><path d="M28.334310160425957,40.11347741819918 m0.1607220247387886,15.628838539123535 l19.59014654159546,-2.982686758041382 5.279213786125183,-0.2965761721134186 l-0.2300274558365345,-3.2879874110221863 -0.6614408642053604,-6.016135811805725 l-0.6676121801137924,-4.2536696791648865 -0.50896055996418,-0.46111278235912323 l-9.955134987831116,0.4108383134007454 -4.128483831882477,0.3553259000182152 l-6.612034440040588,0.26384061202406883 -1.7487479746341705,0.22391121834516525 l-1.8679051101207733,0.22922998294234276 -0.5481131002306938,0.1539145316928625 m6.301911473274231,-1.0072235763072968 l-0.6133488938212395,-6.58499002456665 8.971834778785706,-1.7767183482646942 m0.7242390513420105,7.568058967590332 l1.2727999687194824,-5.851975679397583 0.22185713052749634,-2.9780378937721252 m-10.428539514541626,6.653367877006531 l-0.031113179866224527,-4.754860997200012 -0.25772280991077423,-3.6124712228775024 l-0.0026905842241831124,-1.1651517450809479 m3.510153293609619,8.390892744064331 l-0.08080122992396355,-4.817076623439789 -0.2812691777944565,-3.5285407304763794 l0.02188991056755185,-1.6164806485176086 m4.194058179855347,9.884042739868164 l-0.005719024338759482,-5.2835845947265625 -0.09322058409452438,-3.7402546405792236 m3.522355556488037,8.497443199157715 l0.06328175310045481,-4.347979724407196 -0.041250232607126236,-4.080155789852142 m-17.415510416030884,12.56961703300476 l4.585190117359161,-0.05829759407788515 5.980817079544067,-0.2582875080406666 l6.861187219619751,0.04545979201793671 5.53848922252655,-0.13602749444544315 m-23.954811096191406,8.396103978157043 l8.889374732971191,0.13942882418632507 10.14534592628479,-0.37581581622362137 l6.190280914306641,-0.11079540476202965 m-24.252641201019287,-0.506211631000042 l8.432607650756836,0.17566051334142685 16.151607036590576,0.7793173938989639 " fill="none" stroke="black" stroke-width="1" /></svg>