<?xml version="1.0" encoding="utf-8" ?>
<svg baseProfile="full" height="98.00123685970902" version="1.1" width="97.08063013851643" xmlns="http://www.w3.org/2000/svg" xmlns:ev="http://www.w3.org/2001/xml-events" xmlns:xlink="http://www.w3.org/1999/xlink"><defs /><rect fill="white" height="98.00123685970902" width="97.08063013851643" x="0" y="0" /><path d="M43.61333986278623,35.40244766976684 m-0.5725634843111038,19.744079113006592 l0.5647315084934235,7.019304037094116 1.213683933019638,5.3615403175354 l1.0308678448200226,3.0278369784355164 0.8906310051679611,1.4662380516529083 l1.3243065774440765,0.9349003434181213 1.6164647042751312,0.04489034879952669 l1.2786497175693512,-1.0787039995193481 1.2982718646526337,-2.4536006152629852 l0.9329863637685776,-3.797767162322998 0.5077847465872765,-5.8549171686172485 l-0.14708402566611767,-6.469358205795288 -0.9352059662342072,-6.108490824699402 l-1.556832194328308,-5.573520064353943 -1.9325649738311768,-4.638105034828186 l-1.7108871042728424,-2.3808248341083527 -1.7930448055267334,-1.2230303138494492 l-1.2422426044940948,-0.2486780285835266 -1.0489179193973541,0.2956353686749935 l-0.8276162296533585,0.9466464072465897 -0.4027573764324188,1.2772884964942932 l-0.04677154589444399,2.3089122772216797 0.3863881900906563,1.359659880399704 m5.5895668268203735,-2.019563615322113 l-0.17670171335339546,-1.3140173256397247 1.2909311056137085,-3.336232900619507 l2.52686470746994,-3.478073477745056 3.0051693320274353,-2.4040213227272034 l3.4262993931770325,-1.4465071260929108 2.635769844055176,-0.36396726965904236 l3.1431734561920166,0.4959959536790848 2.0005598664283752,1.1937516182661057 l1.2571723759174347,1.7697660624980927 0.5531711503863335,2.6637807488441467 l-0.31355299055576324,2.934091091156006 -1.330016404390335,2.9513683915138245 l-1.9996723532676697,2.8225356340408325 -3.112068474292755,3.1382790207862854 l-3.577132523059845,2.5071653723716736 3.2030001282691956,-0.4914361238479614 l3.107120990753174,0.05051969084888697 2.421353757381439,0.651116669178009 l2.227003425359726,1.1846873909235 1.8635398149490356,1.7156606912612915 l1.2909027934074402,2.2007548809051514 0.6065575405955315,2.7210211753845215 l-0.0911969318985939,2.75961697101593 -0.9994781017303467,2.618318200111389 l-1.6927117109298706,2.4145954847335815 -2.1570853888988495,1.9946740567684174 l-2.5828149914741516,1.486644297838211 -3.0667176842689514,0.947272852063179 l-4.142226576805115,0.2881273068487644 -2.757005989551544,-0.40155157446861267 l-2.1117421984672546,-1.0137955099344254 m-9.598718881607056,-28.892359733581543 l-1.6535049676895142,-2.275167554616928 -1.83574840426445,-1.5215443074703217 l-2.315647304058075,-1.157245859503746 -2.6236718893051147,-0.5378885939717293 l-2.913866937160492,0.14339255169034004 -2.6450029015541077,1.2003080546855927 l-2.111452966928482,2.094435542821884 -1.26065194606781,2.5382226705551147 l-0.5213843658566475,3.0094951391220093 0.0710734911262989,2.8778499364852905 l0.7246959954500198,2.372783124446869 1.294354647397995,2.141806334257126 l1.7557768523693085,1.7134170234203339 2.1724489331245422,1.204080805182457 l2.6792731881141663,0.6652731448411942 2.712397873401642,0.07626073434948921 l1.992689073085785,-0.4667581617832184 1.672794669866562,-1.0963953286409378 l0.9374111145734787,-1.4206889271736145 0.13869483955204487,-1.505068838596344 l-0.9635929018259048,-1.4335928857326508 -1.8007346987724304,-1.1339513212442398 l-2.55392849445343,-0.45407433062791824 -2.748778760433197,0.3314906358718872 l-2.661963105201721,1.447032243013382 -2.219449281692505,2.2835707664489746 l-1.5673312544822693,2.762855589389801 -0.8753539621829987,3.188401460647583 l-0.2423669956624508,3.311392366886139 0.2328307367861271,3.018680214881897 l0.8159289509057999,2.6371121406555176 1.3333822786808014,2.336995303630829 l1.7517641186714172,1.8976546823978424 2.144259810447693,1.3662447035312653 l2.627478241920471,0.8047889918088913 3.0600392818450928,0.16179559752345085 l2.6932138204574585,-0.5757280439138412 2.549116015434265,-1.3139961659908295 l2.0141585171222687,-1.8261224031448364 1.2997795641422272,-2.1655362844467163 " fill="none" stroke="black" stroke-width="1" /></svg>