<?xml version="1.0" encoding="utf-8" ?>
<svg baseProfile="full" height="2740.0" version="1.1" width="3470.0" xmlns="http://www.w3.org/2000/svg" xmlns:ev="http://www.w3.org/2001/xml-events" xmlns:xlink="http://www.w3.org/1999/xlink"><defs /><rect fill="white" height="2740.0" width="3470.0" x="0" y="0" /><path d="M1365.0,610.0 m-15.0,1265.0 l50.0,355.0 55.0,165.0 l60.0,265.0 40.0,55.0 l130.0,-125.0 60.0,-100.0 l45.0,-180.0 0.0,-225.0 l-40.0,-240.0 -10.0,-750.0 l-30.0,-275.0 -50.0,-160.0 l-80.0,-130.0 -95.0,-80.0 l-25.0,-5.0 -10.0,190.0 l-50.0,50.0 m65.0,-150.0 l-215.0,-395.0 m-25.0,-75.0 l0.0,0.0 m-30.0,-15.0 l20.0,50.0 50.0,0.0 l25.0,-20.0 -5.0,-55.0 m300.0,455.0 l0.0,-200.0 15.0,-155.0 l20.0,-55.0 -25.0,-5.0 l10.0,25.0 55.0,0.0 l20.0,-50.0 m80.0,735.0 l125.0,-150.0 175.0,-120.0 l390.0,-170.0 270.0,-140.0 l255.0,-40.0 350.0,-5.0 l65.0,30.0 55.0,125.0 l-5.0,110.0 -115.0,175.0 l-130.0,100.0 -205.0,115.0 l-320.0,135.0 -50.0,35.0 l285.0,135.0 200.0,150.0 l70.0,70.0 70.0,155.0 l45.0,225.0 5.0,320.0 l-65.0,215.0 -80.0,130.0 l-140.0,125.0 -135.0,70.0 l-105.0,30.0 -400.0,5.0 l-320.0,-75.0 -185.0,-25.0 m-535.0,-1470.0 l-120.0,-165.0 -100.0,-105.0 l-175.0,-130.0 -170.0,-95.0 l-65.0,-20.0 -125.0,0.0 l-130.0,40.0 -200.0,90.0 l-115.0,75.0 -80.0,85.0 l-25.0,85.0 0.0,125.0 l85.0,140.0 115.0,100.0 l235.0,115.0 245.0,35.0 l-30.0,45.0 -180.0,45.0 l-130.0,60.0 -100.0,135.0 l-20.0,55.0 -15.0,105.0 l5.0,255.0 50.0,170.0 l75.0,150.0 30.0,25.0 l145.0,50.0 145.0,35.0 l515.0,0.0 230.0,30.0 l85.0,-15.0 " fill="none" stroke="black" stroke-width="1" /></svg>