<?xml version="1.0" encoding="utf-8" ?>
<svg baseProfile="full" height="1010.0" version="1.1" width="1025.0" xmlns="http://www.w3.org/2000/svg" xmlns:ev="http://www.w3.org/2001/xml-events" xmlns:xlink="http://www.w3.org/1999/xlink"><defs /><rect fill="white" height="1010.0" width="1025.0" x="0" y="0" /><path d="M745.0,60.0 m-325.0,105.0 l-190.0,110.0 -115.0,95.0 l-65.0,105.0 -25.0,130.0 l40.0,130.0 140.0,155.0 l75.0,60.0 65.0,20.0 l225.0,15.0 180.0,-55.0 l60.0,-60.0 125.0,-175.0 l40.0,-145.0 25.0,-195.0 l-5.0,-135.0 -20.0,-40.0 l-155.0,-120.0 -85.0,-35.0 m-140.0,120.0 l20.0,120.0 m355.0,70.0 l-125.0,30.0 m75.0,365.0 l-155.0,-65.0 m-80.0,200.0 l15.0,-150.0 m-330.0,145.0 l80.0,-75.0 m-230.0,-30.0 l130.0,-60.0 m-175.0,-180.0 l105.0,25.0 m335.0,-130.0 l-5.0,65.0 -70.0,195.0 " fill="none" stroke="black" stroke-width="1" /></svg>