<?xml version="1.0" encoding="utf-8" ?>
<svg baseProfile="full" height="70.52096753846854" version="1.1" width="70.35033518448472" xmlns="http://www.w3.org/2000/svg" xmlns:ev="http://www.w3.org/2001/xml-events" xmlns:xlink="http://www.w3.org/1999/xlink"><defs /><rect fill="white" height="70.52096753846854" width="70.35033518448472" x="0" y="0" /><path d="M39.30469274520874,25.09834512602538 m-6.313295960426331,1.9988611340522766 l-3.291035294532776,1.7183195054531097 -2.458222359418869,2.165163606405258 l-1.5889175236225128,2.5612926483154297 -0.653221607208252,2.861045002937317 l0.12196285650134087,2.906387746334076 1.069938987493515,2.2081445157527924 l1.8980471789836884,1.9731706380844116 2.5778016448020935,1.378234624862671 l2.878141403198242,0.6520029902458191 4.012627005577087,-0.114333126693964 l2.4060779809951782,-0.8762556314468384 2.223825454711914,-1.6137592494487762 l1.7204506695270538,-2.224014103412628 1.075744405388832,-2.770303189754486 l0.3657175973057747,-3.212096691131592 -0.2172127552330494,-3.0741220712661743 l-0.9482433646917343,-2.4711817502975464 -1.5775424242019653,-2.0344939827919006 l-2.0305874943733215,-1.3996770977973938 -2.2888411581516266,-0.6747907400131226 l-2.345038652420044,-0.055939904414117336 m-1.146787405014038,9.71011757850647 l-0.32101474702358246,0.5789969488978386 0.45093584805727005,0.23090217262506485 l0.11349066160619259,-0.8067948371171951 -0.643540695309639,0.2126583270728588 l0.14545838348567486,0.37313126027584076 0.5751801282167435,-0.6279601156711578 l-0.3946861997246742,-0.08017056621611118 -0.2247149497270584,0.727657750248909 l0.6169982627034187,-0.48215605318546295 -0.30913982540369034,-0.3828095644712448 m0.3367627412080765,-0.014921154361218214 l0.009358138777315617,-6.722779870033264 -0.10311962105333805,-1.7434872686862946 " fill="none" stroke="black" stroke-width="1" /></svg>