<?xml version="1.0" encoding="utf-8" ?>
<svg baseProfile="full" height="82.38537337630987" version="1.1" width="118.26096951961517" xmlns="http://www.w3.org/2000/svg" xmlns:ev="http://www.w3.org/2001/xml-events" xmlns:xlink="http://www.w3.org/1999/xlink"><defs /><rect fill="white" height="82.38537337630987" width="118.26096951961517" x="0" y="0" /><path d="M28.83327744435519,39.53225112287328 m-0.5062601342797279,-4.748489856719971 l0.39109915494918823,-4.025315940380096 1.3914956152439117,-1.9232997298240662 l1.4900733530521393,-0.9350907802581787 1.5003582835197449,-0.32565731555223465 l3.141672909259796,0.3213593363761902 2.3144610226154327,1.278720647096634 l0.20249618217349052,1.8142065405845642 -0.8043967187404633,1.3694925606250763 l-4.334004819393158,1.216544583439827 -4.530608952045441,0.557328574359417 l-2.6064246892929077,0.24822840467095375 -1.4078697562217712,0.0661119818687439 l-0.07536889519542456,0.06375188007950783 1.0370519757270813,0.17787255346775055 l7.622077465057373,0.19265873357653618 9.186584949493408,0.34431684762239456 l10.01439094543457,-0.021554750856012106 10.204967260360718,0.10212581604719162 l7.450084090232849,0.11107251048088074 6.747310161590576,0.41281990706920624 l5.3381723165512085,0.4804503545165062 4.762696921825409,0.6172792986035347 l4.114731550216675,0.9111153334379196 1.3401831686496735,0.6594046950340271 l0.4427187144756317,0.6926793605089188 -0.21848874166607857,1.1434078216552734 m-61.53435707092285,-4.229684770107269 l0.40663883090019226,5.274117588996887 0.8131681382656097,5.602735280990601 l0.7737459987401962,4.033539593219757 0.8675756305456161,2.7469155192375183 l0.9380248188972473,1.2621693313121796 1.210111752152443,0.5988383665680885 l2.3912838101387024,0.07357939146459103 1.75925612449646,-0.695783942937851 l1.357174962759018,-1.317925900220871 0.8928576111793518,-1.8907099962234497 l1.1617907881736755,-6.64387047290802 m5.398193001747131,-10.284547805786133 l0.592961348593235,-0.16891170293092728 4.539961516857147,-2.1169795095920563 l7.345094084739685,-4.578274786472321 4.225712716579437,-2.998996675014496 l0.7743751257658005,0.09536180645227432 0.9873170405626297,2.178834229707718 l0.5549365654587746,4.969976544380188 0.4095184803009033,4.133788645267487 m-20.046381950378418,5.971288084983826 l1.2804721295833588,3.800385594367981 1.1616431921720505,3.824530243873596 l1.267758309841156,3.2664400339126587 1.6275085508823395,2.586185932159424 l1.3204178214073181,1.0841792076826096 1.8330933153629303,0.47440305352211 l2.1393047273159027,-0.648997351527214 1.280536949634552,-1.3321642577648163 l1.3066573441028595,-3.0577531456947327 1.0556262731552124,-7.069728374481201 l0.4016232490539551,-3.8860923051834106 " fill="none" stroke="black" stroke-width="1" /></svg>