<?xml version="1.0" encoding="utf-8" ?>
<svg baseProfile="full" height="2605.0" version="1.1" width="3340.0" xmlns="http://www.w3.org/2000/svg" xmlns:ev="http://www.w3.org/2001/xml-events" xmlns:xlink="http://www.w3.org/1999/xlink"><defs /><rect fill="white" height="2605.0" width="3340.0" x="0" y="0" /><path d="M45.0,1400.0 m-20.0,-235.0 l10.0,-240.0 105.0,-85.0 l90.0,-40.0 135.0,-25.0 l55.0,0.0 25.0,15.0 m-315.0,85.0 l95.0,-55.0 350.0,0.0 l80.0,270.0 50.0,50.0 l70.0,15.0 320.0,10.0 l250.0,-35.0 890.0,0.0 l325.0,-35.0 590.0,-20.0 l105.0,55.0 55.0,85.0 l5.0,50.0 -35.0,45.0 l-170.0,95.0 -115.0,40.0 l-200.0,35.0 -655.0,25.0 l-315.0,30.0 -1160.0,-20.0 l-630.0,25.0 m1320.0,40.0 l-10.0,235.0 25.0,150.0 l45.0,95.0 65.0,65.0 l200.0,60.0 275.0,-10.0 l190.0,-60.0 85.0,-70.0 l30.0,-55.0 m-955.0,-435.0 l60.0,250.0 90.0,510.0 l55.0,105.0 70.0,75.0 l190.0,85.0 50.0,-90.0 l25.0,-110.0 60.0,-485.0 l125.0,-315.0 m-605.0,-535.0 l5.0,-85.0 45.0,-165.0 l150.0,-420.0 75.0,-130.0 l90.0,-115.0 110.0,-105.0 l20.0,110.0 0.0,450.0 l15.0,175.0 75.0,260.0 l100.0,135.0 " fill="none" stroke="black" stroke-width="1" /></svg>