<?xml version="1.0" encoding="utf-8" ?>
<svg baseProfile="full" height="79.71857264637947" version="1.1" width="79.96643765094632" xmlns="http://www.w3.org/2000/svg" xmlns:ev="http://www.w3.org/2001/xml-events" xmlns:xlink="http://www.w3.org/1999/xlink"><defs /><rect fill="white" height="79.71857264637947" width="79.96643765094632" x="0" y="0" /><path d="M38.456012241600774,27.939870299305767 m-1.5300725400447845,-0.3062659874558449 l-2.7666032314300537,-1.1941778659820557 -3.7285059690475464,0.03266360843554139 l-2.3981204628944397,1.7328155040740967 -1.9342803955078125,3.2859814167022705 l-1.0984118282794952,4.995094537734985 -1.7814396642279462e-05,5.336860418319702 l1.4385198056697845,4.442926347255707 2.561233639717102,3.6093518137931824 l1.4855925738811493,1.2598174810409546 8.213447332382202,3.3340591192245483 l5.083879232406616,0.24957595393061638 1.8871797621250153,-0.3330949693918228 l3.09064120054245,-1.3066354393959045 2.230297327041626,-1.6528882086277008 l1.736559420824051,-2.1020106971263885 1.5915068984031677,-3.678300678730011 l0.64756840467453,-4.5480987429618835 1.2053278624080122e-05,-4.203239977359772 l-1.2359751760959625,-4.095869660377502 -2.4871422350406647,-3.7640178203582764 l-3.4658649563789368,-2.7893146872520447 -7.298538088798523,-1.2451017647981644 l-2.210374027490616,0.7198029011487961 -0.9471046179533005,0.9505869448184967 m2.48218834400177,13.079254627227783 l0.16682690009474754,-0.24167541414499283 -0.10945959948003292,0.09931200183928013 l-0.22852974012494087,0.27645397931337357 0.09479200467467308,-0.015909363282844424 l-0.03206874709576368,-0.3353568911552429 m0.00031666058930568397,-0.0854761153459549 l0.2437925711274147,-8.230214715003967 -0.23801250383257866,-2.100672870874405 m0.8190087229013443,11.049679517745972 l3.2484853267669678,0.042406050488352776 2.8176510334014893,-0.031656259670853615 m-5.499396920204163,-9.089809656143188 l0.3645140305161476,0.22461531683802605 0.3802730515599251,0.2470255084335804 m1.5379253029823303,0.40437206625938416 l0.36997154355049133,0.8509065955877304 " fill="none" stroke="black" stroke-width="1" /></svg>