<?xml version="1.0" encoding="utf-8" ?>
<svg baseProfile="full" height="1595.0" version="1.1" width="1570.0" xmlns="http://www.w3.org/2000/svg" xmlns:ev="http://www.w3.org/2001/xml-events" xmlns:xlink="http://www.w3.org/1999/xlink"><defs /><rect fill="white" height="1595.0" width="1570.0" x="0" y="0" /><path d="M685.0,135.0 m-80.0,-15.0 l-145.0,-70.0 -160.0,-25.0 l-35.0,30.0 -135.0,305.0 l-75.0,275.0 -30.0,180.0 l20.0,175.0 230.0,320.0 l180.0,130.0 225.0,85.0 l225.0,45.0 200.0,-15.0 l120.0,-55.0 180.0,-165.0 l40.0,-65.0 75.0,-200.0 l25.0,-125.0 0.0,-220.0 l-90.0,-265.0 -155.0,-225.0 l-75.0,-60.0 -105.0,-45.0 l-220.0,0.0 -275.0,100.0 m335.0,560.0 l-40.0,20.0 -10.0,40.0 l25.0,5.0 0.0,-55.0 m-15.0,5.0 l45.0,-265.0 5.0,-135.0 m-30.0,15.0 l70.0,-10.0 m-80.0,10.0 l100.0,-110.0 20.0,55.0 l0.0,80.0 m-130.0,470.0 l-5.0,230.0 " fill="none" stroke="black" stroke-width="1" /></svg>