<?xml version="1.0" encoding="utf-8" ?>
<svg baseProfile="full" height="88.97186443209648" version="1.1" width="111.99004519730806" xmlns="http://www.w3.org/2000/svg" xmlns:ev="http://www.w3.org/2001/xml-events" xmlns:xlink="http://www.w3.org/1999/xlink"><defs /><rect fill="white" height="88.97186443209648" width="111.99004519730806" x="0" y="0" /><path d="M38.248188495635986,47.293719640001655 m-8.199977278709412,-0.843614786863327 l-5.048211216926575,-0.277398731559515 2.883201837539673,-0.9282554686069489 l2.5844207406044006,-0.9147495031356812 3.6406779289245605,-1.1523965001106262 l3.1242647767066956,-0.6955308467149734 3.8966497778892517,-0.6422872096300125 l4.199755787849426,-0.7898297905921936 5.664662718772888,-0.9160628169775009 l6.487311124801636,-0.7345114648342133 6.313592791557312,-0.5594689399003983 l6.331849694252014,-0.4363580793142319 5.373245477676392,-0.14561844058334827 l7.050376534461975,-0.15072738751769066 2.934814989566803,0.5537477880716324 l0.9274205565452576,0.6214222311973572 0.5778004601597786,1.307329386472702 l-0.9179064631462097,1.9775420427322388 -1.24627023935318,0.8062326163053513 l-4.140872359275818,1.0077240318059921 -4.674871861934662,0.9834294021129608 l-4.42358523607254,1.0023262351751328 -4.295586943626404,1.0030611604452133 l-4.93434339761734,0.9696836769580841 -4.6198442578315735,0.7314234972000122 l-4.6121567487716675,0.5250446498394012 -9.08104121685028,0.47542404383420944 l-2.9191160202026367,-0.05397586151957512 -2.0354050397872925,-0.24474401026964188 l-1.0853846371173859,-0.5521688982844353 m14.278708696365356,-7.245164513587952 l-0.38615740835666656,0.3489133343100548 -0.9325974434614182,2.8205418586730957 l-3.8283851742744446,13.502851724624634 -0.6791920959949493,3.919888734817505 l0.5792398750782013,1.404421627521515 5.739278197288513,-4.389362931251526 l6.416869759559631,-8.872781991958618 1.8112459778785706,-3.393610715866089 m-8.738870024681091,-8.611835837364197 l0.7030249387025833,-7.134684324264526 1.2886087596416473,-5.444126725196838 l1.4797070622444153,-1.125461906194687 3.324958086013794,6.4682334661483765 l1.9124709069728851,4.218512773513794 1.365516483783722,2.8361928462982178 l0.7706174999475479,1.614818125963211 0.5201153829693794,1.454373151063919 " fill="none" stroke="black" stroke-width="1" /></svg>