<?xml version="1.0" encoding="utf-8" ?>
<svg baseProfile="full" height="2180.0" version="1.1" width="3380.0" xmlns="http://www.w3.org/2000/svg" xmlns:ev="http://www.w3.org/2001/xml-events" xmlns:xlink="http://www.w3.org/1999/xlink"><defs /><rect fill="white" height="2180.0" width="3380.0" x="0" y="0" /><path d="M695.0,1475.0 m-400.0,-45.0 l-270.0,-10.0 75.0,-35.0 l45.0,-70.0 85.0,-70.0 l350.0,-175.0 105.0,-15.0 l190.0,-80.0 285.0,-60.0 l150.0,0.0 90.0,40.0 l445.0,25.0 55.0,15.0 l125.0,-5.0 175.0,-50.0 l1035.0,5.0 90.0,-30.0 l25.0,5.0 5.0,35.0 l-25.0,255.0 -25.0,15.0 l-75.0,-40.0 -30.0,5.0 l-305.0,90.0 -250.0,110.0 l-85.0,15.0 -165.0,0.0 l-80.0,25.0 -135.0,0.0 l-110.0,-20.0 -965.0,5.0 l-520.0,75.0 40.0,15.0 m990.0,-435.0 l-115.0,705.0 -85.0,260.0 l-20.0,120.0 115.0,-175.0 l50.0,-135.0 145.0,-765.0 m-240.0,-185.0 l30.0,-40.0 35.0,-120.0 l65.0,-120.0 65.0,-200.0 l170.0,-390.0 80.0,490.0 l-30.0,275.0 -5.0,315.0 " fill="none" stroke="black" stroke-width="1" /></svg>