<?xml version="1.0" encoding="utf-8" ?>
<svg baseProfile="full" height="75.99834022112191" version="1.1" width="73.76023047603667" xmlns="http://www.w3.org/2000/svg" xmlns:ev="http://www.w3.org/2001/xml-events" xmlns:xlink="http://www.w3.org/1999/xlink"><defs /><rect fill="white" height="75.99834022112191" width="73.76023047603667" x="0" y="0" /><path d="M25.21268878132105,37.54190758801997 m-0.21268878132104874,-8.320227861404419 l0.4426485300064087,-1.2576176226139069 0.37773337215185165,-0.20047800615429878 l0.996338427066803,0.5992791801691055 3.20976585149765,4.426431953907013 l2.928003966808319,1.1788877099752426 7.643345594406128,-0.13906954787671566 l1.2653648853302002,-3.5857605934143066 1.94233238697052,-3.7649518251419067 l1.553511768579483,-1.4784009754657745 0.4683678224682808,0.33380690962076187 l0.7435312122106552,3.0977430939674377 1.2356581538915634,6.3462746143341064 l0.9292452782392502,4.084539711475372 0.02438322640955448,2.629527449607849 l-0.92179074883461,3.310089409351349 -1.4420363306999207,2.2281280159950256 l-2.0284420251846313,1.7978399991989136 -2.4893662333488464,1.2859821319580078 l-2.9026219248771667,0.7325389981269836 -3.0900144577026367,0.1518698874861002 l-3.622027337551117,-0.7619877904653549 -2.609763741493225,-1.2984353303909302 l-2.0510220527648926,-1.8817415833473206 -1.3842342793941498,-2.3928524553775787 l-0.5599015578627586,-2.6651209592819214 0.13974837958812714,-2.8411027789115906 l1.0018610209226608,-2.1991032361984253 0.9106747061014175,-1.0933741182088852 m6.659494638442993,4.285120368003845 l-0.26765869930386543,0.8173318952322006 0.47259192913770676,0.2932026609778404 l0.3091401234269142,-0.9093669056892395 -0.46493470668792725,-0.04321346990764141 l0.10204706341028214,0.5086736753582954 0.4732874780893326,-0.6442534178495407 l-0.3803297132253647,-0.010306640760973096 0.06407744251191616,0.3759695217013359 l0.5191444233059883,-0.5497383326292038 -0.443381629884243,-0.03661161055788398 l0.040096575394272804,0.4500560089945793 0.5248775333166122,-0.6136532500386238 l-0.38219839334487915,0.03775525372475386 0.08611752651631832,0.297701358795166 l0.42618073523044586,-0.43710969388484955 -0.40410280227661133,-0.1057253684848547 l-0.037240174133330584,0.32490074634552 0.4920930415391922,-0.3350584954023361 l-0.3829343244433403,-0.10697715915739536 -0.11403670534491539,0.38852207362651825 l0.4460209608078003,-0.3776061534881592 -0.3163253888487816,-0.03507525194436312 l-0.013386793434619904,0.20512346178293228 0.404263436794281,-0.3247449919581413 l-0.3067305311560631,-0.13207272626459599 -0.11277886107563972,0.34165501594543457 l0.44698383659124374,-0.295146182179451 -0.34168384969234467,-0.09696510620415211 l-0.09773153811693192,0.3556739166378975 0.47056831419467926,-0.31135009601712227 l-0.2989201806485653,-0.10606823489069939 -0.10146226733922958,0.33826086670160294 " fill="none" stroke="black" stroke-width="1" /></svg>