<?xml version="1.0" encoding="utf-8" ?>
<svg baseProfile="full" height="1210.0" version="1.1" width="1350.0" xmlns="http://www.w3.org/2000/svg" xmlns:ev="http://www.w3.org/2001/xml-events" xmlns:xlink="http://www.w3.org/1999/xlink"><defs /><rect fill="white" height="1210.0" width="1350.0" x="0" y="0" /><path d="M45.0,485.0 m-20.0,-395.0 l50.0,0.0 90.0,55.0 l160.0,170.0 m-115.0,65.0 l215.0,-130.0 190.0,-45.0 l115.0,5.0 165.0,35.0 l225.0,120.0 m-110.0,-85.0 l150.0,-175.0 125.0,-80.0 l20.0,25.0 20.0,125.0 l-40.0,170.0 -5.0,115.0 l40.0,150.0 5.0,135.0 l-40.0,145.0 -105.0,170.0 l-75.0,55.0 -125.0,45.0 l-285.0,25.0 -45.0,-10.0 l-195.0,-85.0 -190.0,-115.0 l-85.0,-85.0 -120.0,-185.0 l-20.0,-250.0 25.0,-15.0 l40.0,10.0 m450.0,520.0 l70.0,10.0 30.0,-20.0 l30.0,-55.0 10.0,-125.0 l-15.0,-60.0 40.0,160.0 l30.0,50.0 55.0,0.0 l50.0,-30.0 25.0,-20.0 l5.0,-35.0 m-45.0,-280.0 l10.0,70.0 10.0,-60.0 l-5.0,-25.0 -15.0,25.0 l10.0,25.0 10.0,-25.0 l-15.0,-10.0 m-520.0,70.0 l60.0,20.0 -15.0,-50.0 l-25.0,10.0 0.0,25.0 l10.0,25.0 25.0,5.0 l-5.0,-50.0 -25.0,-15.0 l15.0,50.0 25.0,0.0 " fill="none" stroke="black" stroke-width="1" /></svg>