<?xml version="1.0" encoding="utf-8" ?>
<svg baseProfile="full" height="75.2145854383707" version="1.1" width="76.60259972260974" xmlns="http://www.w3.org/2000/svg" xmlns:ev="http://www.w3.org/2001/xml-events" xmlns:xlink="http://www.w3.org/1999/xlink"><defs /><rect fill="white" height="75.2145854383707" width="76.60259972260974" x="0" y="0" /><path d="M39.022723636589944,32.4447577886167 m-3.2933583855628967,-0.8767349272966385 l-2.3396825790405273,0.016688533360138535 -4.350698292255402,2.0085881650447845 l-2.4621500074863434,2.560802400112152 -1.175641268491745,2.286255657672882 l-0.361887663602829,3.447841703891754 0.7958215475082397,2.835475206375122 l1.5465809404850006,2.1562060713768005 2.1472156047821045,1.6447533667087555 l2.6150503754615784,1.12252876162529 3.0142471194267273,0.56704081594944 l4.791042506694794,0.0003818949335254729 3.1325066089630127,-0.977879986166954 l2.4300001561641693,-1.5548455715179443 1.657821387052536,-1.8819023668766022 l0.9541472792625427,-2.122955322265625 0.31085873022675514,-3.5363122820854187 l-1.6865193843841553,-3.605041801929474 -2.8518640995025635,-2.547878921031952 l-2.4116870760917664,-1.208578497171402 -3.483287990093231,-0.7690567523241043 m-9.80722188949585,1.240394040942192 l-0.9282480925321579,-1.0713456571102142 -0.9304068237543106,-1.301676332950592 l-0.752643495798111,-1.428997665643692 -0.5158565193414688,-1.449577808380127 l-0.06686232518404722,-1.4196987450122833 0.5707933008670807,-0.9099084138870239 l1.7545174062252045,-0.6693233549594879 1.7455382645130157,0.06369421724230051 l2.070658802986145,1.0909385979175568 1.6537532210350037,1.8885868787765503 l0.8494442701339722,2.326173335313797 m8.635311126708984,0.9558986872434616 l0.28263572603464127,-1.1691578477621078 1.051817536354065,-1.2828193604946136 l1.5777260065078735,-0.9156216681003571 1.682078093290329,-0.3237634152173996 l2.130003869533539,0.37241406738758087 1.77758127450943,1.4487345516681671 l0.8206744492053986,2.2134272754192352 6.637470505665988e-05,1.7657779157161713 l-0.966976135969162,1.636403650045395 -1.15682914853096,0.8039813488721848 l-2.138022631406784,0.487392358481884 m-12.434953451156616,0.8040444552898407 l-1.0086449980735779,-0.28891127556562424 -0.7879284769296646,-0.09448939003050327 l-1.2194572389125824,0.2014727145433426 -0.8300219476222992,0.282941609621048 m5.819011330604553,0.22364944219589233 l0.21497156471014023,-1.7278018593788147 1.789776235818863,-3.3704596757888794 l1.834993064403534,-1.9676302373409271 m-6.326043009757996,6.303002834320068 l1.973385214805603,0.3492783382534981 2.7056291699409485,0.38601502776145935 l2.294914573431015,0.46005669981241226 0.7197657227516174,0.3740185871720314 " fill="none" stroke="black" stroke-width="1" /></svg>