<?xml version="1.0" encoding="utf-8" ?>
<svg baseProfile="full" height="1285.0" version="1.1" width="1335.0" xmlns="http://www.w3.org/2000/svg" xmlns:ev="http://www.w3.org/2001/xml-events" xmlns:xlink="http://www.w3.org/1999/xlink"><defs /><rect fill="white" height="1285.0" width="1335.0" x="0" y="0" /><path d="M770.0,345.0 m-170.0,-40.0 l-115.0,5.0 -225.0,105.0 l-135.0,165.0 -30.0,75.0 l-20.0,120.0 20.0,175.0 l120.0,170.0 125.0,85.0 l105.0,35.0 230.0,20.0 l130.0,-20.0 125.0,-45.0 l170.0,-120.0 145.0,-175.0 l20.0,-55.0 10.0,-135.0 l-25.0,-95.0 -55.0,-90.0 l-190.0,-165.0 -165.0,-35.0 l-220.0,35.0 m-380.0,-120.0 l-140.0,60.0 -75.0,55.0 l0.0,50.0 50.0,20.0 l100.0,-30.0 110.0,-70.0 l45.0,-55.0 0.0,-25.0 l-50.0,-10.0 -50.0,15.0 l-30.0,40.0 m825.0,-85.0 l85.0,15.0 135.0,90.0 l65.0,130.0 -30.0,50.0 l-50.0,10.0 -155.0,-55.0 l-55.0,-80.0 -10.0,-55.0 l15.0,-75.0 30.0,-25.0 l55.0,-10.0 40.0,45.0 m5.0,215.0 l-115.0,65.0 m-835.0,-110.0 l30.0,85.0 25.0,25.0 m110.0,-300.0 l145.0,-135.0 65.0,-35.0 l135.0,-30.0 125.0,25.0 l120.0,95.0 35.0,60.0 " fill="none" stroke="black" stroke-width="1" /></svg>