<?xml version="1.0" encoding="utf-8" ?>
<svg baseProfile="full" height="2035.0" version="1.1" width="3220.0" xmlns="http://www.w3.org/2000/svg" xmlns:ev="http://www.w3.org/2001/xml-events" xmlns:xlink="http://www.w3.org/1999/xlink"><defs /><rect fill="white" height="2035.0" width="3220.0" x="0" y="0" /><path d="M25,1155.0 m170.0,-100.0 l95.0,-95.0 165.0,-215.0 l35.0,-30.0 65.0,-20.0 l2175.0,-15.0 305.0,-455.0 l75.0,-80.0 70.0,-25.0 l15.0,55.0 0.0,160.0 l-50.0,465.0 -5.0,505.0 l-40.0,20.0 -810.0,5.0 l-760.0,-35.0 -600.0,-40.0 l-510.0,-70.0 m-360.0,-10.0 l260.0,-5.0 235.0,35.0 l30.0,20.0 m520.0,-530.0 l120.0,-50.0 340.0,-205.0 l285.0,-150.0 680.0,-265.0 l-680.0,610.0 m-720.0,340.0 l595.0,480.0 255.0,180.0 l265.0,160.0 235.0,120.0 l160.0,70.0 135.0,25.0 l-20.0,-55.0 -60.0,-75.0 l-330.0,-370.0 -335.0,-415.0 l-250.0,-220.0 " fill="none" stroke="black" stroke-width="1" /></svg>