<?xml version="1.0" encoding="utf-8" ?>
<svg baseProfile="full" height="75.88737594895065" version="1.1" width="112.40086033940315" xmlns="http://www.w3.org/2000/svg" xmlns:ev="http://www.w3.org/2001/xml-events" xmlns:xlink="http://www.w3.org/1999/xlink"><defs /><rect fill="white" height="75.88737594895065" width="112.40086033940315" x="0" y="0" /><path d="M25,39.06723566353321 m3.3583077788352966,-1.9699950516223907 l1.8020786345005035,-1.668534129858017 4.291177690029144,-3.950546979904175 l6.444039940834045,-4.831466972827911 3.5513123869895935,-0.740676075220108 l23.132431507110596,-0.38607634603977203 16.799782514572144,-0.5199401080608368 l0.7310312986373901,0.4336431995034218 1.6022062301635742,5.720834136009216 l0.6884923577308655,8.386451601982117 -0.028767141047865152,4.602026641368866 l-0.6757569313049316,0.4151593893766403 -16.453735828399658,-0.2083257958292961 l-17.512117624282837,-0.17995718866586685 -14.878002405166626,0.24695387110114098 l-9.66711163520813,-0.1171159278601408 -0.5049558728933334,-0.5333374813199043 l-0.3820637986063957,-5.168448090553284 m13.91021728515625,-6.016623377799988 l-0.656115934252739,5.026901364326477 -0.30584339052438736,6.184750199317932 l0.1522674225270748,3.799291253089905 0.4913065582513809,0.9245643019676208 l10.476855039596558,-0.8181627094745636 0.6580908596515656,-5.91450035572052 l-0.18112065270543098,-7.552347779273987 -5.838138461112976,-1.2696944177150726 m13.062962293624878,1.748078465461731 l0.11225176975131035,5.088546872138977 0.10596808977425098,7.398416996002197 l0.44555366039276123,3.690270781517029 2.228485345840454,-4.312165677547455 l3.469957411289215,-9.600515961647034 0.25848159566521645,-2.271251678466797 m-20.228822231292725,-1.7124007642269135 l7.300503253936768,-0.7469134032726288 17.37480878829956,-2.0154771208763123 l9.158981442451477,-1.200924590229988 5.742838382720947,-0.7549169659614563 l0.15903914347290993,0.24376096203923225 -2.7694234251976013,4.117795825004578 l-3.2567429542541504,4.144401550292969 " fill="none" stroke="black" stroke-width="1" /></svg>