<?xml version="1.0" encoding="utf-8" ?>
<svg baseProfile="full" height="2040.0" version="1.1" width="2160.0" xmlns="http://www.w3.org/2000/svg" xmlns:ev="http://www.w3.org/2001/xml-events" xmlns:xlink="http://www.w3.org/1999/xlink"><defs /><rect fill="white" height="2040.0" width="2160.0" x="0" y="0" /><path d="M595.0,120.0 m-185.0,175.0 l-110.0,135.0 -90.0,145.0 l-80.0,95.0 -40.0,105.0 l-30.0,115.0 -35.0,325.0 l0.0,160.0 20.0,120.0 l45.0,105.0 50.0,50.0 l130.0,80.0 270.0,135.0 l240.0,90.0 320.0,60.0 l365.0,0.0 105.0,-20.0 l250.0,-90.0 100.0,-65.0 l130.0,-165.0 65.0,-170.0 l20.0,-120.0 0.0,-370.0 l-45.0,-180.0 -85.0,-180.0 l-165.0,-235.0 -95.0,-110.0 l-185.0,-145.0 -200.0,-120.0 l-165.0,-20.0 -225.0,0.0 l-325.0,50.0 -15.0,15.0 m435.0,-35.0 l0.0,285.0 m840.0,-40.0 l-35.0,30.0 m-65.0,70.0 l-110.0,85.0 -235.0,240.0 l-55.0,75.0 m685.0,-10.0 l-350.0,50.0 " fill="none" stroke="black" stroke-width="1" /></svg>