<?xml version="1.0" encoding="utf-8" ?>
<svg baseProfile="full" height="91.55704014003277" version="1.1" width="94.75449222838506" xmlns="http://www.w3.org/2000/svg" xmlns:ev="http://www.w3.org/2001/xml-events" xmlns:xlink="http://www.w3.org/1999/xlink"><defs /><rect fill="white" height="91.55704014003277" width="94.75449222838506" x="0" y="0" /><path d="M35.514403097331524,25.728460401296616 m-3.607131540775299,3.3956751227378845 l-1.4552819728851318,1.878914088010788 -1.6316038370132446,2.651459276676178 l-1.4079271256923676,3.027695119380951 -1.1409510672092438,3.399580419063568 l-0.7766276597976685,3.61582487821579 -0.4948798939585686,4.744124412536621 l0.053678154945373535,3.4383246302604675 0.6428178399801254,2.9729628562927246 l1.2650159001350403,2.813725769519806 1.8750450015068054,2.5423696637153625 l2.42897629737854,2.150680124759674 3.0947500467300415,1.779293268918991 l5.2975815534591675,1.7779482901096344 7.983472943305969,0.6400018185377121 l5.659042000770569,-0.5255282297730446 4.985924661159515,-1.5880337357521057 l3.1327834725379944,-1.7107754945755005 2.64544278383255,-2.185008227825165 l2.822340726852417,-3.704434037208557 1.918267160654068,-4.376130700111389 l0.9170418977737427,-4.800118505954742 0.032311787363141775,-5.061134099960327 l-1.1772583425045013,-4.50896680355072 -1.556861400604248,-3.107416331768036 l-2.07623228430748,-2.7524617314338684 -3.6279764771461487,-3.0504676699638367 l-4.483345448970795,-2.313159555196762 -4.992624521255493,-1.3946163654327393 l-5.599470138549805,-0.4787886515259743 -3.9306101202964783,0.13940397650003433 l-3.355361223220825,0.7496049255132675 -2.8329363465309143,1.2919306755065918 l-1.901039481163025,1.5654003620147705 m11.004968881607056,13.022894859313965 l-0.06450258195400238,-0.6254437565803528 0.012136668665334582,0.043729664757847786 l0.06724104285240173,0.4695276916027069 0.1171301119029522,-0.2451045997440815 l0.0005375545879360288,-8.51344883441925 0.11628224514424801,-4.421274363994598 l0.04223688505589962,-0.020860231015831232 m0.38585957139730453,14.27625298500061 l10.453969240188599,-0.008112516370601952 " fill="none" stroke="black" stroke-width="1" /></svg>