<?xml version="1.0" encoding="utf-8" ?>
<svg baseProfile="full" height="93.89273434877396" version="1.1" width="140.26761354878545" xmlns="http://www.w3.org/2000/svg" xmlns:ev="http://www.w3.org/2001/xml-events" xmlns:xlink="http://www.w3.org/1999/xlink"><defs /><rect fill="white" height="93.89273434877396" width="140.26761354878545" x="0" y="0" /><path d="M59.30549385026097,43.694338495693046 m33.00100564956665,0.26935677975416183 l17.186359167099,1.9778165221214294 5.774754881858826,1.2382213771343231 l-0.28392935171723366,1.880902349948883 -1.552903652191162,2.3853813111782074 l-1.4007337391376495,1.0612256079912186 -3.003901243209839,1.0714583843946457 l-7.064337134361267,-1.308493210672168e-05 -7.135436534881592,-0.03894084831699729 l-7.402216792106628,-0.08362890221178532 -7.00822114944458,0.08039121516048908 l-6.29563570022583,0.05166192539036274 -13.640027046203613,-0.4114936292171478 l-11.107512712478638,-0.337003730237484 -3.3671116828918457,-0.1436705980449915 l-1.3992880284786224,-0.5406885966658592 -1.880381554365158,-3.0624154210090637 l0.49594245851039886,-3.245016634464264 m22.149245738983154,-1.3427713513374329 l-2.180216908454895,-0.23590367287397385 -8.28987181186676,-1.691737323999405 l-9.876733422279358,-2.7432510256767273 -7.543373703956604,-2.2968026995658875 l-5.378583669662476,-1.147543266415596 -2.981121838092804,1.1910831928253174 l-2.77509868144989,3.5077980160713196 -1.3461653888225555,4.266659617424011 l0.18684003502130508,3.2014212012290955 1.7515750229358673,2.319750636816025 l3.918887674808502,2.4050433933734894 7.487077116966248,1.0953252762556076 l6.9278645515441895,0.32718174159526825 6.183280944824219,-0.04216588567942381 l5.338487029075623,-0.08800185285508633 4.828813970088959,-0.028984758537262678 m2.158985435962677,-10.944075584411621 l-1.4803613722324371,0.01217604149132967 -5.365799069404602,0.35342950373888016 l-16.67008876800537,0.7160383462905884 -3.0049747228622437,0.8938220888376236 l-3.1244730949401855,2.0180052518844604 -0.0457561481744051,6.0603708028793335 l0.9993140399456024,5.8323657512664795 1.5966102480888367,4.6225506067276 l5.441224575042725,3.9280718564987183 7.481830716133118,0.854995921254158 l9.901343584060669,-1.815711110830307 5.498397946357727,-2.514437437057495 l2.486705332994461,-2.146497368812561 2.5486990809440613,-4.203510880470276 l3.0318623781204224,-8.422635793685913 1.2322577089071274,-5.495424270629883 m-8.9162677526474,-2.7465635538101196 l0.9992019087076187,-1.5490476787090302 4.777039587497711,-6.432863473892212 l6.81332528591156,-8.56604278087616 1.5644587576389313,0.3967979922890663 l3.3622628450393677,9.203543663024902 1.9471214711666107,5.913451313972473 l0.9679313749074936,3.7437304854393005 0.6926284730434418,2.830526828765869 l0.3550199791789055,1.8003730475902557 -0.4959564283490181,1.3297754526138306 l-3.2869645953178406,2.6076045632362366 m-26.460580825805664,-2.7872228622436523 l-0.5856244638562202,3.853939175605774 -0.38918226957321167,3.8171565532684326 l-0.08046464994549751,2.657206356525421 0.5155076459050179,1.4666837453842163 l4.645639061927795,4.064775705337524 " fill="none" stroke="black" stroke-width="1" /></svg>