<?xml version="1.0" encoding="utf-8" ?>
<svg baseProfile="full" height="2890.0" version="1.1" width="4665.0" xmlns="http://www.w3.org/2000/svg" xmlns:ev="http://www.w3.org/2001/xml-events" xmlns:xlink="http://www.w3.org/1999/xlink"><defs /><rect fill="white" height="2890.0" width="4665.0" x="0" y="0" /><path d="M1585.0,1015.0 m2190.0,10.0 l575.0,135.0 275.0,20.0 l15.0,30.0 -95.0,100.0 l-230.0,195.0 -145.0,85.0 l-275.0,35.0 -420.0,90.0 l-165.0,20.0 -395.0,10.0 l-765.0,50.0 -930.0,-15.0 l-170.0,30.0 -5.0,-445.0 l-55.0,-410.0 80.0,-10.0 l250.0,25.0 170.0,0.0 l205.0,35.0 m-725.0,-50.0 l-315.0,-45.0 -110.0,-40.0 l-135.0,-80.0 -275.0,10.0 l-65.0,-25.0 -45.0,-40.0 l145.0,160.0 255.0,220.0 l260.0,185.0 -100.0,145.0 l-140.0,335.0 -90.0,105.0 l895.0,-65.0 60.0,-10.0 l0.0,-15.0 m1330.0,-800.0 l-165.0,-20.0 -350.0,-130.0 l-135.0,-75.0 -330.0,-340.0 l-110.0,-20.0 -150.0,-65.0 l-235.0,-140.0 -120.0,-135.0 l175.0,-40.0 280.0,-5.0 l390.0,115.0 160.0,30.0 l205.0,115.0 865.0,420.0 l75.0,105.0 200.0,205.0 l275.0,220.0 m-735.0,520.0 l-430.0,365.0 -190.0,70.0 l-100.0,55.0 -600.0,420.0 l225.0,20.0 910.0,180.0 l80.0,-45.0 135.0,-140.0 l215.0,-255.0 390.0,-410.0 l180.0,-255.0 40.0,-20.0 m0.0,-10.0 l5.0,-140.0 " fill="none" stroke="black" stroke-width="1" /></svg>