<?xml version="1.0" encoding="utf-8" ?>
<svg baseProfile="full" height="1875.0" version="1.1" width="2345.0" xmlns="http://www.w3.org/2000/svg" xmlns:ev="http://www.w3.org/2001/xml-events" xmlns:xlink="http://www.w3.org/1999/xlink"><defs /><rect fill="white" height="1875.0" width="2345.0" x="0" y="0" /><path d="M1530.0,210.0 m-60.0,-60.0 l-90.0,-50.0 -665.0,-75.0 l-180.0,30.0 -165.0,50.0 l-345.0,715.0 65.0,480.0 l100.0,190.0 135.0,135.0 l55.0,35.0 445.0,165.0 l355.0,25.0 895.0,-245.0 l105.0,-115.0 115.0,-275.0 l25.0,-310.0 -480.0,-655.0 l-310.0,-145.0 -380.0,-60.0 m35.0,65.0 l-45.0,395.0 -105.0,420.0 l95.0,45.0 140.0,40.0 l185.0,25.0 m-1220.0,-120.0 l65.0,25.0 " fill="none" stroke="black" stroke-width="1" /></svg>