<?xml version="1.0" encoding="utf-8" ?>
<svg baseProfile="full" height="84.90221841260791" version="1.1" width="101.56328389421105" xmlns="http://www.w3.org/2000/svg" xmlns:ev="http://www.w3.org/2001/xml-events" xmlns:xlink="http://www.w3.org/1999/xlink"><defs /><rect fill="white" height="84.90221841260791" width="101.56328389421105" x="0" y="0" /><path d="M56.865954995155334,28.28354023396969 m-1.202419102191925,-1.2393808364868164 l-3.106537163257599,-1.3535691797733307 -6.0990530252456665,-0.6905902177095413 l-12.902541160583496,2.621695101261139 -4.54378068447113,2.9427623748779297 l-2.355905920267105,2.927793562412262 -1.6557179391384125,4.7916653752326965 l0.6038400158286095,7.091900110244751 5.43816864490509,7.482845783233643 l4.08669650554657,3.0159375071525574 3.580050468444824,1.7711056768894196 l8.445044159889221,2.0187458395957947 9.004132747650146,0.237767081707716 l5.525362491607666,-0.7983231544494629 5.318589806556702,-1.8495635688304901 l4.086752235889435,-2.5686675310134888 2.9549992084503174,-3.262295722961426 l1.6131429374217987,-3.0459898710250854 0.8362562209367752,-3.2047706842422485 l0.07024845108389854,-4.826317131519318 -0.8652425557374954,-2.9548773169517517 l-2.3394960165023804,-3.918168842792511 -3.391786217689514,-3.317977488040924 l-4.00344043970108,-2.2918327152729034 -4.473005533218384,-1.296805590391159 l-4.379485845565796,-0.18304824829101562 -4.943237900733948,1.2849536538124084 l-0.37622373551130295,-1.035529226064682 " fill="none" stroke="black" stroke-width="1" /></svg>