<?xml version="1.0" encoding="utf-8" ?>
<svg baseProfile="full" height="1940.0" version="1.1" width="3555.0" xmlns="http://www.w3.org/2000/svg" xmlns:ev="http://www.w3.org/2001/xml-events" xmlns:xlink="http://www.w3.org/1999/xlink"><defs /><rect fill="white" height="1940.0" width="3555.0" x="0" y="0" /><path d="M1430.0,530.0 m-205.0,-45.0 l-295.0,-5.0 -765.0,140.0 l-140.0,65.0 15.0,40.0 l200.0,120.0 325.0,125.0 l280.0,70.0 305.0,35.0 l285.0,0.0 295.0,-50.0 m-390.0,-535.0 l0.0,-35.0 155.0,-170.0 l315.0,-260.0 25.0,30.0 l20.0,155.0 60.0,170.0 l50.0,55.0 215.0,130.0 m-155.0,-35.0 l665.0,20.0 415.0,50.0 l425.0,0.0 -60.0,0.0 l-15.0,75.0 55.0,215.0 l-20.0,25.0 -50.0,15.0 l-370.0,0.0 -420.0,40.0 l-665.0,-20.0 -130.0,10.0 l-100.0,110.0 -165.0,280.0 l-200.0,425.0 355.0,-100.0 l225.0,0.0 210.0,-25.0 l160.0,-75.0 90.0,-65.0 l30.0,-105.0 -155.0,-125.0 l-245.0,-310.0 -115.0,-90.0 l-155.0,-15.0 -445.0,100.0 l125.0,345.0 130.0,280.0 l170.0,295.0 50.0,30.0 l25.0,-5.0 250.0,-400.0 l50.0,-105.0 145.0,-550.0 m-1175.0,-215.0 l-15.0,35.0 5.0,65.0 l30.0,70.0 60.0,45.0 l55.0,15.0 140.0,-40.0 l45.0,-60.0 20.0,-60.0 l0.0,-85.0 -20.0,-75.0 l-55.0,-50.0 -55.0,-10.0 l-90.0,45.0 -55.0,60.0 l-60.0,120.0 5.0,40.0 l65.0,35.0 m485.0,-90.0 l35.0,85.0 50.0,45.0 l160.0,45.0 " fill="none" stroke="black" stroke-width="1" /></svg>