<?xml version="1.0" encoding="utf-8" ?>
<svg baseProfile="full" height="94.31348650366999" version="1.1" width="97.69632279756479" xmlns="http://www.w3.org/2000/svg" xmlns:ev="http://www.w3.org/2001/xml-events" xmlns:xlink="http://www.w3.org/1999/xlink"><defs /><rect fill="white" height="94.31348650366999" width="97.69632279756479" x="0" y="0" /><path d="M52.91497267782688,41.75272418768145 m-4.037235975265503,-0.9453984349966049 l-8.823867440223694,0.08014809340238571 -12.647881507873535,3.1102600693702698 l-1.7902325093746185,1.1339572072029114 -0.615755245089531,1.4746014773845673 l0.8541229367256165,1.6047771275043488 6.524752974510193,2.2571560740470886 l15.145933628082275,1.2389598041772842 5.485440492630005,-0.2662574127316475 l4.229870438575745,-0.9432040899991989 2.418183386325836,-1.2555457651615143 l1.3628800213336945,-1.6182483732700348 0.24258678779006004,-1.9550544023513794 l-0.9570585191249847,-1.6652143001556396 -1.997845470905304,-1.5914259850978851 l-2.6356810331344604,-1.1950503289699554 -3.127683401107788,-0.6718451529741287 m-23.16723346710205,8.814303278923035 l-0.05870392546057701,9.323751330375671 0.059227258898317814,8.727346062660217 l0.6123054400086403,0.480722039937973 16.803998947143555,1.0431260615587234 l15.158559083938599,0.37889793515205383 1.6589337587356567,-0.6642399728298187 l1.0441568493843079,-1.0665826499462128 0.941869467496872,-2.329510748386383 l0.6269735842943192,-4.880649149417877 -0.019090051064267755,-7.681816220283508 l-0.8175475895404816,-4.1228219866752625 m-32.50235319137573,3.0086302757263184 l2.514607012271881,0.8519267290830612 4.430514872074127,0.5803883448243141 l6.101061701774597,0.35196054726839066 5.2413564920425415,-0.01967888092622161 l9.140319228172302,-0.23055002093315125 4.470446705818176,-0.30334265902638435 m-31.839652061462402,3.153572976589203 l3.688766062259674,1.0742922872304916 5.388631820678711,0.6447369605302811 l14.595277309417725,0.7196847349405289 8.157086372375488,0.004996132338419557 l1.5409201383590698,-0.18002355471253395 m-29.404356479644775,-5.974165201187134 l5.031052827835083,0.8019337058067322 13.21304440498352,0.9778549522161484 l10.087003707885742,0.2941828593611717 3.1581148505210876,-0.09041650220751762 m-30.173180103302002,-2.2995267808437347 l8.306092023849487,0.7056465744972229 13.478819131851196,0.8118147403001785 l9.49795663356781,0.36579810082912445 3.185841739177704,0.2732345834374428 m-30.45964241027832,-5.668588876724243 l-0.053920671343803406,-4.183139204978943 0.3774639964103699,-1.8810200691223145 l0.07575760129839182,-4.040649235248566 -0.039188298396766186,-3.287598192691803 l1.7773661017417908,0.0819415133446455 3.281623125076294,-0.20969457924365997 l9.146963357925415,-0.2883562445640564 4.467859268188477,-0.353526771068573 l-0.0785402674227953,8.419283628463745 -0.1366380788385868,5.268406271934509 l-0.13894314877688885,0.6164697557687759 m-13.758201599121094,-12.268068790435791 l0.01845354330725968,-2.8371936082839966 -0.18291136249899864,-5.068657398223877 l3.0493319034576416,0.06612441036850214 7.17240035533905,0.058388132601976395 l0.0745976623147726,7.5049275159835815 -0.21230321377515793,2.0768220722675323 m-7.121253609657288,-6.958948969841003 l-0.07593536283820868,-2.4196437001228333 -0.2878885343670845,-3.2211506366729736 l2.1248987317085266,0.037359073758125305 2.622555196285248,-0.5343027785420418 l0.08077102713286877,5.944666266441345 " fill="none" stroke="black" stroke-width="1" /></svg>