<?xml version="1.0" encoding="utf-8" ?>
<svg baseProfile="full" height="1690.0" version="1.1" width="1655.0" xmlns="http://www.w3.org/2000/svg" xmlns:ev="http://www.w3.org/2001/xml-events" xmlns:xlink="http://www.w3.org/1999/xlink"><defs /><rect fill="white" height="1690.0" width="1655.0" x="0" y="0" /><path d="M45.0,580.0 m-20.0,120.0 l15.0,325.0 65.0,405.0 l70.0,135.0 80.0,20.0 l340.0,0.0 605.0,80.0 l240.0,-5.0 140.0,-70.0 l50.0,-245.0 0.0,-300.0 l-25.0,-330.0 -30.0,-20.0 l-185.0,-35.0 -215.0,-5.0 l-515.0,-85.0 -620.0,15.0 m250.0,-10.0 l10.0,-125.0 75.0,-350.0 m360.0,470.0 l70.0,-415.0 m390.0,540.0 l5.0,-300.0 35.0,-230.0 m205.0,505.0 l0.0,-80.0 -95.0,-165.0 l0.0,-100.0 m30.0,-140.0 l-40.0,45.0 25.0,25.0 l-15.0,80.0 -15.0,25.0 l-25.0,0.0 0.0,-30.0 m-70.0,-245.0 l-50.0,-5.0 0.0,25.0 l80.0,45.0 -100.0,0.0 l-5.0,15.0 m-300.0,-115.0 l-50.0,10.0 -20.0,25.0 l0.0,50.0 -30.0,10.0 l-235.0,-10.0 m-155.0,-110.0 l0.0,25.0 50.0,30.0 " fill="none" stroke="black" stroke-width="1" /></svg>