<?xml version="1.0" encoding="utf-8" ?>
<svg baseProfile="full" height="75.66141784191132" version="1.1" width="84.36625208240002" xmlns="http://www.w3.org/2000/svg" xmlns:ev="http://www.w3.org/2001/xml-events" xmlns:xlink="http://www.w3.org/1999/xlink"><defs /><rect fill="white" height="75.66141784191132" width="84.36625208240002" x="0" y="0" /><path d="M25.43550919741392,27.849756963551044 m-0.43550919741392136,2.293519824743271 l0.08757091127336025,6.387259364128113 0.12087669223546982,7.959706783294678 l1.7706149816513062,2.4987781047821045 3.761897385120392,2.138003706932068 l5.033215284347534,0.9379533678293228 9.981228709220886,0.5964397266507149 l4.051693379878998,-0.34341223537921906 3.582587242126465,-1.1196353286504745 l2.175242453813553,-1.3273848593235016 1.5769554674625397,-1.7706982791423798 l1.559375673532486,-3.4816893935203552 0.608394630253315,-3.2373037934303284 l0.05659927148371935,-4.354085028171539 -0.7139996439218521,-2.788906693458557 l-1.4099839329719543,-2.3131969571113586 -1.9827760756015778,-1.7070914804935455 l-2.7479881048202515,-1.3261570036411285 -4.882718026638031,-1.260676234960556 l-5.76269268989563,-0.6311805546283722 -8.606451153755188,0.0708839064463973 l-3.454769253730774,0.6767547130584717 -1.909959614276886,0.7872232794761658 l-1.1640240252017975,0.9755101054906845 -0.5624175071716309,1.1892329156398773 m6.18177592754364,5.791501402854919 l0.02828625962138176,0.30957097187638283 0.06908437702804804,1.3409553468227386 l0.6275876611471176,0.3688295930624008 3.0214914679527283,0.18820129334926605 l0.5206278339028358,-1.1817608028650284 0.003598292823880911,-0.6550950556993484 l-0.8148052543401718,-0.7199334353208542 -1.8050169944763184,-0.4330762103199959 l-1.1860241740942001,0.07923029363155365 m9.681939482688904,0.9246573597192764 l-0.1069255918264389,1.356511116027832 0.5747515335679054,0.39530444890260696 l2.107628583908081,0.1676539145410061 0.5013071000576019,-1.460362821817398 l-0.311929564923048,-0.6025249511003494 -1.4817357063293457,-0.585254356265068 l-1.9059959053993225,-0.005286312662065029 m6.511344909667969,0.8467946201562881 l-0.24111391976475716,1.2372425943613052 0.4355112463235855,1.0967037081718445 l0.9225123375654221,0.5063681676983833 1.6853982210159302,-0.011108225444331765 l0.762673020362854,-0.6274401396512985 0.17454832792282104,-1.1055340617895126 l-0.762779489159584,-1.0949531942605972 -0.987434908747673,-0.4730265587568283 " fill="none" stroke="black" stroke-width="1" /></svg>