<?xml version="1.0" encoding="utf-8" ?>
<svg baseProfile="full" height="68.97725969552994" version="1.1" width="77.03593472251669" xmlns="http://www.w3.org/2000/svg" xmlns:ev="http://www.w3.org/2001/xml-events" xmlns:xlink="http://www.w3.org/1999/xlink"><defs /><rect fill="white" height="68.97725969552994" width="77.03593472251669" x="0" y="0" /><path d="M35.84740241523832,25.194766651839018 m-1.7410875856876373,1.7133483290672302 l-0.6028278172016144,1.338726431131363 0.030161698814481497,1.1379116028547287 l0.7668030261993408,0.6354386359453201 1.868823617696762,0.262931976467371 l1.7879895865917206,-0.5018133297562599 1.4694330096244812,-1.2408217042684555 l0.5562329292297363,-1.57451793551445 -0.14550761319696903,-1.0770779103040695 l-1.0757753252983093,-0.696733221411705 -2.1215634047985077,-0.1921595260500908 m-1.2299219518899918,4.942542016506195 l-0.9510241448879242,4.9928706884384155 -2.714906930923462,9.041846990585327 l8.593382835388184,-0.37681959569454193 3.606107532978058,-0.694085955619812 l0.3129787743091583,-0.5458463728427887 -0.22790318354964256,-1.3261574506759644 l-3.0167722702026367,-6.004604697227478 -2.644796371459961,-4.631499946117401 l-1.0405229777097702,-1.0537010431289673 m2.6879864931106567,2.4394816160202026 l0.7961399853229523,-1.46111860871315 2.9455405473709106,-2.9818379878997803 l2.904425859451294,-1.7190627753734589 2.0675286650657654,-0.5082691460847855 l1.6562224924564362,0.13336876407265663 1.1819658428430557,0.9364372491836548 l0.4694189876317978,1.0847427695989609 -0.0358932395465672,1.9616159796714783 l-0.9282270073890686,1.9199834764003754 -1.728200614452362,1.848432868719101 l-2.821313738822937,1.6330571472644806 -0.14950402081012726,0.2374638058245182 l1.444401741027832,0.4063357785344124 0.8615559339523315,1.0039149969816208 l0.10926966555416584,1.001913845539093 -0.3974124416708946,0.7683674991130829 l-1.5719741582870483,0.9571299701929092 -2.3263265192508698,0.44991064816713333 l-2.852131426334381,-0.24269284680485725 m-7.140213251113892,-6.468255519866943 l-1.498599797487259,-2.1607086062431335 -1.746097356081009,-1.3191680610179901 l-1.9479358196258545,-0.7242589443922043 -1.9807779788970947,-0.015610253904014826 l-1.08882836997509,0.5305474251508713 -1.0712738335132599,1.6382306814193726 l-0.16645248979330063,2.150185853242874 0.4964517056941986,1.005195528268814 " fill="none" stroke="black" stroke-width="1" /></svg>