<?xml version="1.0" encoding="utf-8" ?>
<svg baseProfile="full" height="670.0" version="1.1" width="1040.0" xmlns="http://www.w3.org/2000/svg" xmlns:ev="http://www.w3.org/2001/xml-events" xmlns:xlink="http://www.w3.org/1999/xlink"><defs /><rect fill="white" height="670.0" width="1040.0" x="0" y="0" /><path d="M170.0,215.0 m-85.0,90.0 l-10.0,30.0 0.0,55.0 l85.0,50.0 75.0,0.0 l85.0,-75.0 20.0,-50.0 l-20.0,-35.0 -50.0,-35.0 l-105.0,-30.0 m0.0,0.0 l670.0,-20.0 10.0,185.0 l-25.0,75.0 -140.0,0.0 l-215.0,50.0 -115.0,10.0 l-75.0,-80.0 m585.0,-190.0 l115.0,140.0 40.0,105.0 l-30.0,-60.0 -120.0,-80.0 m-155.0,110.0 l-15.0,135.0 45.0,-30.0 l15.0,-85.0 m-50.0,90.0 l-25.0,10.0 -5.0,25.0 l35.0,5.0 m-655.0,-345.0 l10.0,-195.0 25.0,15.0 l70.0,130.0 15.0,-25.0 l10.0,-165.0 35.0,150.0 m-125.0,190.0 l-50.0,10.0 -20.0,50.0 l70.0,-10.0 m275.0,70.0 l0.0,160.0 -55.0,-10.0 l100.0,5.0 20.0,-50.0 l-25.0,-45.0 m-235.0,-240.0 l10.0,5.0 " fill="none" stroke="black" stroke-width="1" /></svg>