<?xml version="1.0" encoding="utf-8" ?>
<svg baseProfile="full" height="3255.0" version="1.1" width="2455.0" xmlns="http://www.w3.org/2000/svg" xmlns:ev="http://www.w3.org/2001/xml-events" xmlns:xlink="http://www.w3.org/1999/xlink"><defs /><rect fill="white" height="3255.0" width="2455.0" x="0" y="0" /><path d="M915.0,1225.0 m-55.0,25.0 l-75.0,-15.0 -115.0,-65.0 l-95.0,-100.0 -70.0,-110.0 l-100.0,-385.0 -45.0,115.0 l-55.0,250.0 5.0,80.0 l90.0,130.0 -50.0,20.0 l-305.0,-95.0 -20.0,25.0 l10.0,55.0 155.0,380.0 l65.0,100.0 100.0,105.0 l110.0,100.0 165.0,105.0 l250.0,90.0 105.0,5.0 l-405.0,5.0 -185.0,-25.0 l-185.0,0.0 -10.0,55.0 l40.0,95.0 100.0,95.0 l250.0,100.0 210.0,45.0 l85.0,5.0 15.0,-15.0 m710.0,-1130.0 l60.0,-5.0 85.0,-35.0 l270.0,-155.0 90.0,-70.0 l145.0,-190.0 55.0,-145.0 l-5.0,250.0 -85.0,370.0 l-30.0,200.0 -50.0,100.0 l-75.0,90.0 -95.0,70.0 l-105.0,50.0 85.0,10.0 l155.0,-20.0 150.0,-45.0 l170.0,-100.0 0.0,30.0 l-75.0,165.0 -75.0,110.0 l-210.0,225.0 -130.0,100.0 l-150.0,75.0 -220.0,55.0 l-140.0,20.0 -70.0,-10.0 m-445.0,-1215.0 l-30.0,-50.0 -30.0,-110.0 l-15.0,-85.0 5.0,-105.0 l115.0,-195.0 55.0,-40.0 l230.0,-65.0 230.0,0.0 l120.0,65.0 70.0,80.0 l45.0,80.0 10.0,165.0 l-45.0,155.0 -30.0,55.0 l-160.0,135.0 -15.0,60.0 l-10.0,525.0 20.0,105.0 l60.0,980.0 0.0,225.0 l-5.0,30.0 -25.0,20.0 l-190.0,-120.0 -120.0,-180.0 l-65.0,-150.0 -10.0,-140.0 l15.0,-50.0 -50.0,190.0 l-40.0,295.0 -25.0,75.0 l-50.0,30.0 -125.0,0.0 l-65.0,-40.0 -15.0,-35.0 l10.0,-105.0 105.0,-165.0 l70.0,-175.0 85.0,-390.0 l-10.0,-605.0 20.0,-265.0 l-40.0,-150.0 -30.0,-50.0 l-30.0,-15.0 m465.0,-860.0 l-250.0,-5.0 -125.0,-20.0 l-45.0,-35.0 0.0,-75.0 l15.0,-30.0 135.0,-65.0 l165.0,-50.0 160.0,-20.0 l140.0,0.0 100.0,40.0 l50.0,45.0 -10.0,60.0 l-90.0,70.0 -330.0,90.0 " fill="none" stroke="black" stroke-width="1" /></svg>