<?xml version="1.0" encoding="utf-8" ?>
<svg baseProfile="full" height="75.25836868095212" version="1.1" width="113.03004581481218" xmlns="http://www.w3.org/2000/svg" xmlns:ev="http://www.w3.org/2001/xml-events" xmlns:xlink="http://www.w3.org/1999/xlink"><defs /><rect fill="white" height="75.25836868095212" width="113.03004581481218" x="0" y="0" /><path d="M33.013341799378395,40.3051396086812 m-2.3311521112918854,0.18535824492573738 l-1.1073099076747894,0.8305829763412476 -0.6419657170772552,1.2772798538208008 l-0.08738505654036999,1.5763205289840698 0.42977225035429,1.1407200992107391 l1.3569280505180359,1.495007872581482 1.9454185664653778,0.973505973815918 l2.4603931605815887,0.34171365201473236 3.0278658866882324,-0.5073938891291618 l1.972472369670868,-1.20880588889122 1.0898693650960922,-1.6593559086322784 l0.1516453456133604,-1.9995608925819397 -0.8423100411891937,-1.6090704500675201 l-1.8629835546016693,-1.387956142425537 -2.411292791366577,-0.6962883472442627 l-2.461543083190918,-0.013396815629675984 -1.1399612575769424,0.43562039732933044 m31.102566719055176,1.0449745506048203 l-1.759335845708847,0.2588426321744919 -2.015691250562668,1.1711785942316055 l-1.3665102422237396,1.6276419162750244 -0.4869205877184868,1.9584374129772186 l0.412624292075634,1.8982894718647003 1.3742166757583618,1.4257307350635529 l2.1401309967041016,0.9771591424942017 2.7680444717407227,0.416693352162838 l2.7366554737091064,-0.18994687125086784 2.1306684613227844,-0.9455326199531555 l1.5677165985107422,-1.6246633231639862 0.6346595287322998,-2.117263823747635 l-0.3232574835419655,-2.164708226919174 -1.310558021068573,-1.614154726266861 l-2.239130735397339,-1.277419626712799 -2.843569815158844,-0.6566800177097321 l-3.0905884504318237,-0.06292687729001045 m-34.44291353225708,1.2161365151405334 l9.746424555778503,-0.004564825212582946 7.281697988510132,-0.3525976091623306 l18.74303698539734,0.4509834945201874 6.320821046829224,-0.047214189544320107 l4.649510085582733,-0.06732452195137739 4.295826256275177,-0.19535163417458534 l4.11852091550827,-0.11707835830748081 3.532221019268036,-0.2866627089679241 l0.9466924518346786,-0.5203284323215485 0.7080568373203278,-1.4568683505058289 l0.13662714511156082,-3.762878179550171 -1.0051773488521576,-3.6522990465164185 l-1.333867609500885,-2.1622678637504578 -1.9183237850666046,-1.5035590529441833 l-2.736257314682007,-1.078675016760826 -3.5137009620666504,-0.660945475101471 l-8.473631739616394,-0.4035773128271103 -11.61937952041626,0.25562334805727005 l-11.182233095169067,0.4276895523071289 -9.6278715133667,0.8536761254072189 l-7.408164739608765,1.2234094738960266 -1.847223937511444,0.7621524482965469 l-1.1050135642290115,0.9512682259082794 -0.7360772788524628,1.3266444206237793 l-0.5231234058737755,2.610490322113037 0.09757043793797493,2.900514602661133 l0.5105765536427498,1.445508748292923 1.2367387115955353,1.6502746939659119 l1.2986032664775848,0.8290929347276688 2.260616421699524,0.6050033494830132 m10.944236516952515,-11.795446872711182 l0.00044299285946181044,2.6080885529518127 0.10042719542980194,3.7280821800231934 l3.317248225212097,0.05140645429491997 4.293816387653351,-0.39743587374687195 l4.48401004076004,-0.17433693632483482 7.210971117019653,-0.4297403246164322 l6.778232455253601,-0.20512402057647705 5.792372226715088,-0.09345260448753834 l0.3381412848830223,-0.4484530910849571 -0.18854664638638496,-1.1239149421453476 l-1.6063350439071655,-4.175114333629608 -1.1209867149591446,-0.9242431074380875 l-2.1239273250102997,-0.4889017343521118 -3.4044936299324036,-0.052265655249357224 l-11.769516468048096,1.3269352912902832 -8.64814043045044,0.8283831179141998 l-4.135278165340424,0.41525281965732574 m9.42810833454132,-1.0281041264533997 l-0.021549342200160027,5.367490649223328 0.0010418082092655823,2.641373574733734 m8.929763436317444,-8.27216923236847 l0.014127572067081928,2.487264573574066 0.07066208869218826,4.60404247045517 m9.774667620658875,-7.260671854019165 l-0.17990946769714355,2.2157251834869385 0.13895202428102493,4.867374300956726 " fill="none" stroke="black" stroke-width="1" /></svg>