<?xml version="1.0" encoding="utf-8" ?>
<svg baseProfile="full" height="1605.0" version="1.1" width="3245.0" xmlns="http://www.w3.org/2000/svg" xmlns:ev="http://www.w3.org/2001/xml-events" xmlns:xlink="http://www.w3.org/1999/xlink"><defs /><rect fill="white" height="1605.0" width="3245.0" x="0" y="0" /><path d="M190.0,1070.0 m-115.0,10.0 l-30.0,50.0 0.0,125.0 l20.0,50.0 50.0,65.0 l75.0,50.0 85.0,15.0 l80.0,-40.0 30.0,-35.0 l40.0,-115.0 0.0,-85.0 l-90.0,-110.0 -50.0,-25.0 l-105.0,-20.0 m2725.0,120.0 l-165.0,-30.0 -90.0,0.0 l-85.0,10.0 -55.0,40.0 l-25.0,150.0 45.0,140.0 l90.0,95.0 90.0,50.0 l55.0,0.0 55.0,-35.0 l85.0,-65.0 100.0,-115.0 l0.0,-170.0 -75.0,-50.0 l-95.0,-20.0 m-340.0,35.0 l-420.0,-55.0 -330.0,-5.0 l-710.0,45.0 -370.0,50.0 l-115.0,0.0 -35.0,-25.0 m-490.0,-85.0 l80.0,-680.0 0.0,-380.0 l360.0,40.0 340.0,60.0 l940.0,70.0 580.0,-5.0 l235.0,30.0 195.0,5.0 l255.0,0.0 90.0,-20.0 l25.0,20.0 20.0,60.0 l60.0,300.0 15.0,335.0 l-35.0,205.0 -35.0,75.0 l-180.0,0.0 m-2705.0,-935.0 l-20.0,185.0 -5.0,305.0 l190.0,25.0 115.0,0.0 l0.0,-180.0 -30.0,-205.0 l0.0,-130.0 -25.0,-20.0 l-65.0,-5.0 -200.0,25.0 m2525.0,120.0 l10.0,240.0 40.0,20.0 l200.0,-60.0 -45.0,-90.0 l-80.0,-105.0 -25.0,-20.0 l-100.0,0.0 m-520.0,-20.0 l-15.0,250.0 10.0,80.0 l25.0,20.0 110.0,-20.0 l80.0,-30.0 20.0,-25.0 l-5.0,-190.0 -20.0,-30.0 l-85.0,-55.0 -150.0,-5.0 m-425.0,10.0 l-10.0,305.0 25.0,0.0 l125.0,-105.0 70.0,-85.0 l-100.0,-40.0 -40.0,-45.0 l-80.0,-20.0 " fill="none" stroke="black" stroke-width="1" /></svg>