<?xml version="1.0" encoding="utf-8" ?>
<svg baseProfile="full" height="2335.0" version="1.1" width="2300.0" xmlns="http://www.w3.org/2000/svg" xmlns:ev="http://www.w3.org/2001/xml-events" xmlns:xlink="http://www.w3.org/1999/xlink"><defs /><rect fill="white" height="2335.0" width="2300.0" x="0" y="0" /><path d="M775.0,1400.0 m-280.0,-5.0 l-85.0,-15.0 -85.0,-35.0 l-165.0,-110.0 -95.0,-145.0 l-10.0,-190.0 35.0,-105.0 l85.0,-115.0 105.0,-80.0 l130.0,-60.0 160.0,-45.0 l175.0,-20.0 565.0,-5.0 l335.0,75.0 140.0,55.0 l110.0,75.0 85.0,80.0 l40.0,80.0 25.0,70.0 l0.0,135.0 -125.0,110.0 l-90.0,55.0 -270.0,95.0 l-410.0,80.0 -430.0,0.0 l-85.0,-20.0 -85.0,-45.0 m-385.0,-630.0 l-70.0,-260.0 -70.0,-370.0 l180.0,155.0 270.0,190.0 l300.0,140.0 m805.0,-115.0 l55.0,-25.0 275.0,-235.0 l115.0,-70.0 165.0,-65.0 l85.0,-5.0 -10.0,45.0 l-70.0,80.0 -375.0,605.0 m-1080.0,645.0 l-80.0,90.0 -200.0,295.0 l-215.0,415.0 435.0,10.0 l360.0,30.0 430.0,65.0 l255.0,5.0 80.0,-15.0 l10.0,-30.0 -15.0,-90.0 l-90.0,-330.0 -115.0,-325.0 l-120.0,-175.0 m-430.0,-470.0 " fill="none" stroke="black" stroke-width="1" /></svg>