<?xml version="1.0" encoding="utf-8" ?>
<svg baseProfile="full" height="100.72982161305845" version="1.1" width="94.4836538285017" xmlns="http://www.w3.org/2000/svg" xmlns:ev="http://www.w3.org/2001/xml-events" xmlns:xlink="http://www.w3.org/1999/xlink"><defs /><rect fill="white" height="100.72982161305845" width="94.4836538285017" x="0" y="0" /><path d="M38.17313373088837,53.512030420824885 m-5.66326379776001,-0.10453839786350727 l-1.6348926723003387,-0.38087114691734314 -2.7363598346710205,-1.82235985994339 l-1.7810988426208496,-2.1298526227474213 -0.9997508674860001,-2.293100208044052 l-0.357767716050148,-2.5140196084976196 0.3765780106186867,-2.4618016183376312 l1.161985620856285,-2.282770574092865 1.9350901246070862,-2.123594433069229 l2.6750528812408447,-1.8499881029129028 5.0334203243255615,-2.090975344181061 l4.557471573352814,-1.041749268770218 6.564546823501587,-0.5261888355016708 l4.483369290828705,0.18113413825631142 5.527676939964294,1.0865551978349686 l4.706918299198151,1.9343504309654236 2.4196112155914307,1.834668219089508 l1.796233057975769,2.6384657621383667 0.44990353286266327,1.891893893480301 l-0.3450237587094307,2.6710182428359985 -1.047288402915001,1.8036291003227234 l-2.7215969562530518,2.6152920722961426 -2.5943759083747864,1.6158120334148407 l-4.633328020572662,1.8407358229160309 -5.965532660484314,1.3580991327762604 l-5.9538596868515015,0.5082482099533081 -5.108562707901001,-0.3313691169023514 l-2.2475847601890564,-0.6975124776363373 m-1.3388681411743164,-15.660040378570557 l-0.8757530152797699,-3.9276400208473206 -1.3345134258270264,-8.087378144264221 l0.6738071143627167,-0.1661825180053711 5.526666045188904,9.231843948364258 m15.1545250415802,-0.22814203053712845 l5.777478218078613,-5.651925802230835 3.747568428516388,-2.7980226278305054 l0.42999785393476486,0.3868930786848068 -0.20551644265651703,1.7955709993839264 l-2.2399799525737762,6.0419780015945435 -1.3085830211639404,4.669413268566132 m-22.617216110229492,12.95953631401062 l-0.32373081892728806,0.5439656227827072 -0.8954174071550369,4.112410843372345 l-1.0263793915510178,4.920256733894348 -1.3031569123268127,6.608060598373413 l-0.5222533643245697,4.15627121925354 0.09318951517343521,1.705530434846878 l0.5678222700953484,1.2326954305171967 1.2667982280254364,0.9349513053894043 l24.151668548583984,0.10853427462279797 7.358705401420593,-0.8053766191005707 l1.8243704736232758,-0.882379487156868 0.8317198604345322,-1.43483504652977 l-0.000738478556741029,-5.745441913604736 -2.6923227310180664,-9.202281832695007 l-3.9503371715545654,-8.094013333320618 -2.576904296875,-1.4447645843029022 m-19.489951133728027,5.023603439331055 l0.0001653046638239175,-0.00017301568732364103 " fill="none" stroke="black" stroke-width="1" /></svg>