<?xml version="1.0" encoding="utf-8" ?>
<svg baseProfile="full" height="2130.0" version="1.1" width="2400.0" xmlns="http://www.w3.org/2000/svg" xmlns:ev="http://www.w3.org/2001/xml-events" xmlns:xlink="http://www.w3.org/1999/xlink"><defs /><rect fill="white" height="2130.0" width="2400.0" x="0" y="0" /><path d="M125.0,1360.0 m310.0,40.0 l410.0,0.0 300.0,25.0 l240.0,0.0 230.0,105.0 l185.0,10.0 320.0,-50.0 l215.0,-85.0 40.0,-55.0 l0.0,-110.0 -140.0,-95.0 l-200.0,-85.0 -185.0,-40.0 l-435.0,0.0 -260.0,25.0 l-375.0,0.0 -430.0,-55.0 l-170.0,0.0 -155.0,35.0 l5.0,155.0 10.0,30.0 l65.0,60.0 10.0,65.0 m600.0,50.0 l45.0,145.0 105.0,155.0 l160.0,170.0 180.0,250.0 l30.0,-10.0 25.0,-40.0 l105.0,-215.0 65.0,-200.0 l30.0,-200.0 m-750.0,-460.0 l10.0,-90.0 70.0,-190.0 l180.0,-230.0 70.0,-140.0 l50.0,-160.0 10.0,-145.0 l0.0,265.0 25.0,120.0 l55.0,190.0 60.0,130.0 l60.0,250.0 " fill="none" stroke="black" stroke-width="1" /></svg>