<?xml version="1.0" encoding="utf-8" ?>
<svg baseProfile="full" height="67.30933718383312" version="1.1" width="99.88893616944551" xmlns="http://www.w3.org/2000/svg" xmlns:ev="http://www.w3.org/2001/xml-events" xmlns:xlink="http://www.w3.org/1999/xlink"><defs /><rect fill="white" height="67.30933718383312" width="99.88893616944551" x="0" y="0" /><path d="M28.893279507756233,26.10568343603518 m6.250519156455994,0.8985113352537155 l7.048406600952148,-0.012549776583909988 4.821147620677948,-0.3017503023147583 l5.432868003845215,-0.1845318078994751 4.757955968379974,-0.38262706249952316 l5.242210626602173,-0.0732671795412898 3.918820321559906,-0.5692583695054054 l3.781311810016632,0.007483671070076525 1.258482038974762,0.015389244072139263 l1.0556849837303162,0.09235682897269726 1.0632452368736267,0.33815182745456696 l1.0566990822553635,0.9870206564664841 0.30830521136522293,0.9393350780010223 l-0.1635713130235672,1.078595221042633 -0.7565499842166901,0.9751080721616745 l-2.047198712825775,1.3949103653430939 -2.8591251373291016,1.074562445282936 l-3.402142822742462,0.60220155864954 -8.704174757003784,0.2537224814295769 l-9.998345375061035,0.4023710638284683 -9.17511522769928,-0.13712518848478794 l-7.347564101219177,-0.31303439289331436 -2.72087961435318,-0.6633070111274719 l-1.3934755325317383,-0.6600666791200638 -0.9632770717144012,-1.0231051594018936 l-0.3575165197253227,-1.3153454661369324 0.24878133088350296,-1.3627451658248901 l0.9305042028427124,-1.010885015130043 3.157692849636078,-1.5663279592990875 l2.860918939113617,-0.5894767493009567 m13.330588340759277,2.8529080748558044 l-0.2718300372362137,2.3524321615695953 -0.36437228322029114,7.796635031700134 l-0.035695116966962814,3.9388507604599 0.47331202775239944,0.3685111552476883 l3.743593990802765,-0.09551064111292362 4.413771331310272,-0.4865723103284836 l0.3859599679708481,-0.5060259997844696 0.12338447384536266,-1.4441357553005219 l-0.24624956771731377,-7.4307966232299805 -0.33674024045467377,-4.311094284057617 l-0.5249825492501259,-0.4303732141852379 -1.6622599959373474,-0.11915222741663456 l-5.589287281036377,0.9251336008310318 -2.136717438697815,0.5486182868480682 " fill="none" stroke="black" stroke-width="1" /></svg>