<?xml version="1.0" encoding="utf-8" ?>
<svg baseProfile="full" height="78.54939415698027" version="1.1" width="78.74307364225388" xmlns="http://www.w3.org/2000/svg" xmlns:ev="http://www.w3.org/2001/xml-events" xmlns:xlink="http://www.w3.org/1999/xlink"><defs /><rect fill="white" height="78.54939415698027" width="78.74307364225388" x="0" y="0" /><path d="M38.88609697041829,25.566129917278886 m-1.6316716372966766,-0.47555141150951385 l-2.793666422367096,-0.09057850576937199 -1.9637034833431244,0.8715302497148514 l-2.7945899963378906,2.281053215265274 -2.0649032294750214,2.5908291339874268 l-1.4627312123775482,2.725982964038849 -1.1745957285165787,3.911634385585785 l-0.00023526070435764268,3.7843483686447144 0.7465501874685287,2.6131704449653625 l1.3732941448688507,2.3444703221321106 2.052602767944336,2.211180031299591 l5.472958087921143,3.42215895652771 3.6394715309143066,1.2734229862689972 l3.47284197807312,0.5191348120570183 4.492962956428528,0.00047828649258008227 l2.7911072969436646,-1.013186275959015 2.0774611830711365,-1.7232020199298859 l1.9245801866054535,-3.3982381224632263 0.6992433220148087,-4.76557195186615 l-1.2222804874181747,-7.004656791687012 -2.4727796018123627,-3.9352813363075256 l-2.275126576423645,-2.3238953948020935 -3.806847929954529,-2.359870821237564 l-6.863076686859131,-1.3066872954368591 m1.3334837555885315,3.6898308992385864 l0.6070120260119438,8.408786654472351 4.374692738056183,0.8244334906339645 l3.5283559560775757,0.4873202368617058 " fill="none" stroke="black" stroke-width="1" /></svg>