<?xml version="1.0" encoding="utf-8" ?>
<svg baseProfile="full" height="1465.0" version="1.1" width="1535.0" xmlns="http://www.w3.org/2000/svg" xmlns:ev="http://www.w3.org/2001/xml-events" xmlns:xlink="http://www.w3.org/1999/xlink"><defs /><rect fill="white" height="1465.0" width="1535.0" x="0" y="0" /><path d="M770.0,55.0 m-80.0,-25.0 l-130.0,-5.0 -110.0,35.0 l-110.0,85.0 -125.0,145.0 l-110.0,200.0 -70.0,200.0 l-10.0,140.0 55.0,160.0 l55.0,95.0 155.0,185.0 l185.0,110.0 200.0,50.0 l130.0,10.0 230.0,-10.0 l315.0,-105.0 100.0,-100.0 l40.0,-90.0 20.0,-255.0 l-85.0,-280.0 -90.0,-145.0 l-190.0,-155.0 -300.0,-140.0 l-130.0,-105.0 m5.0,155.0 l-10.0,590.0 25.0,20.0 l165.0,0.0 " fill="none" stroke="black" stroke-width="1" /></svg>