<?xml version="1.0" encoding="utf-8" ?>
<svg baseProfile="full" height="66.95761171868071" version="1.1" width="132.26381102576852" xmlns="http://www.w3.org/2000/svg" xmlns:ev="http://www.w3.org/2001/xml-events" xmlns:xlink="http://www.w3.org/1999/xlink"><defs /><rect fill="white" height="66.95761171868071" width="132.26381102576852" x="0" y="0" /><path d="M25.23636393249035,25 m-0.23636393249034882,5.6436532735824585 l0.46445295214653015,4.240249693393707 0.08950836956501007,3.701046109199524 l0.35482678562402725,0.3862607479095459 3.015783429145813,0.346098355948925 l5.451892018318176,0.07621672935783863 6.819998621940613,0.030095737893134356 l19.377570152282715,0.8447214215993881 16.864302158355713,0.9798555076122284 l7.799276113510132,0.056239026598632336 12.355338335037231,0.6531751155853271 l4.677062928676605,-0.23223889991641045 4.726950824260712,-0.16810672357678413 l0.266848336905241,-0.5320710688829422 -0.6189670041203499,-6.540423631668091 l-0.4688788205385208,-6.349412202835083 -0.6412230432033539,-0.3060949966311455 l-8.608190417289734,0.41747890412807465 -12.023357152938843,0.4495267942547798 l-12.26237177848816,0.04801815375685692 -11.380599737167358,-0.08622441440820694 l-11.342582702636719,-0.2786697633564472 -9.776444435119629,-0.3121263347566128 l-8.15914511680603,-0.26891833171248436 -4.865170121192932,-0.07064800709486008 l-1.9171635806560516,0.2209766022861004 m22.63096570968628,2.828633487224579 l-0.06620074156671762,4.2317575216293335 0.0032881018705666065,5.082215666770935 l0.47332439571619034,0.3786488249897957 3.875558078289032,0.27356257662177086 l6.110904216766357,-0.011412531603127718 4.6815624833106995,-0.21959368139505386 l4.672493636608124,-0.14940133318305016 0.3701944649219513,-0.4892111197113991 l0.20082801580429077,-5.681793689727783 -0.4047449305653572,-2.1505212783813477 l-0.554700456559658,-0.4691635072231293 -8.386181592941284,-0.32136496156454086 l-6.870411038398743,0.19202103838324547 -4.361768066883087,0.1458784006536007 l-1.6905835270881653,0.3679252415895462 " fill="none" stroke="black" stroke-width="1" /></svg>