<?xml version="1.0" encoding="utf-8" ?>
<svg baseProfile="full" height="1205.0" version="1.1" width="4935.0" xmlns="http://www.w3.org/2000/svg" xmlns:ev="http://www.w3.org/2001/xml-events" xmlns:xlink="http://www.w3.org/1999/xlink"><defs /><rect fill="white" height="1205.0" width="4935.0" x="0" y="0" /><path d="M380.0,135.0 m-10.0,275.0 l15.0,180.0 -45.0,120.0 l5.0,75.0 465.0,80.0 l105.0,35.0 690.0,120.0 l205.0,50.0 580.0,80.0 l1060.0,0.0 80.0,-25.0 l340.0,0.0 995.0,-170.0 l40.0,-40.0 5.0,-40.0 l-10.0,-240.0 -75.0,-380.0 l-50.0,-135.0 -50.0,-60.0 l-160.0,-35.0 -90.0,0.0 l-540.0,80.0 -3910.0,15.0 m2015.0,-10.0 l0.0,245.0 125.0,735.0 l25.0,50.0 140.0,35.0 l300.0,5.0 380.0,-65.0 l55.0,-20.0 50.0,-50.0 l20.0,-35.0 5.0,-80.0 l-40.0,-200.0 -230.0,-595.0 l-225.0,-20.0 -160.0,30.0 l-385.0,20.0 m740.0,60.0 l-5.0,0.0 " fill="none" stroke="black" stroke-width="1" /></svg>