<?xml version="1.0" encoding="utf-8" ?>
<svg baseProfile="full" height="1785.0" version="1.1" width="2350.0" xmlns="http://www.w3.org/2000/svg" xmlns:ev="http://www.w3.org/2001/xml-events" xmlns:xlink="http://www.w3.org/1999/xlink"><defs /><rect fill="white" height="1785.0" width="2350.0" x="0" y="0" /><path d="M965.0,460.0 m385.0,15.0 l40.0,-125.0 65.0,-105.0 l180.0,-175.0 70.0,-45.0 l25.0,5.0 95.0,570.0 l10.0,370.0 -5.0,80.0 l-80.0,335.0 -80.0,135.0 l-135.0,85.0 -260.0,90.0 l-145.0,40.0 -185.0,5.0 l-130.0,-65.0 -145.0,-205.0 l-90.0,-190.0 -40.0,-185.0 l-5.0,-470.0 25.0,-260.0 l5.0,-340.0 280.0,260.0 l165.0,120.0 m110.0,565.0 l-25.0,30.0 0.0,110.0 l85.0,20.0 30.0,-25.0 l15.0,-120.0 -20.0,-25.0 l-75.0,-5.0 m175.0,-370.0 l165.0,70.0 m-600.0,-10.0 l155.0,140.0 m440.0,245.0 l665.0,-5.0 150.0,-20.0 m-875.0,270.0 l50.0,-15.0 575.0,-5.0 l295.0,25.0 m-1430.0,0.0 l-115.0,5.0 -200.0,-40.0 l-325.0,-15.0 -180.0,-30.0 m680.0,345.0 l-105.0,15.0 -410.0,110.0 l-215.0,90.0 " fill="none" stroke="black" stroke-width="1" /></svg>