<?xml version="1.0" encoding="utf-8" ?>
<svg baseProfile="full" height="72.1069232467562" version="1.1" width="73.82096934801666" xmlns="http://www.w3.org/2000/svg" xmlns:ev="http://www.w3.org/2001/xml-events" xmlns:xlink="http://www.w3.org/1999/xlink"><defs /><rect fill="white" height="72.1069232467562" width="73.82096934801666" x="0" y="0" /><path d="M26.373886573128402,34.242758431937546 m7.889254093170166,0.3644421696662903 l2.8883597254753113,-0.6267740577459335 2.1185849606990814,-0.21761322394013405 l1.4066551625728607,-0.07533302064985037 1.281643807888031,0.06363772321492434 l1.288658082485199,0.19010838121175766 1.849742829799652,-0.3995456174015999 l2.59907603263855,-0.034821012523025274 0.7411529868841171,-0.29676809906959534 l0.0503804674372077,-0.22843122482299805 -2.3034457862377167,-0.630122721195221 l-6.963969469070435,-0.7244434952735901 -6.6185760498046875,-0.21087953820824623 l-4.4857946038246155,0.5342577397823334 -2.705581784248352,0.8754614740610123 l-0.3133844956755638,0.3987530246376991 -0.09664253331720829,6.3785094022750854 l0.14120460487902164,7.004826068878174 0.5843915417790413,0.363844633102417 l4.208362102508545,0.13505620881915092 5.0567567348480225,-0.49031931906938553 l5.245417356491089,-0.1569575071334839 4.226631224155426,-0.5754103511571884 l3.981764018535614,-0.08259723894298077 0.37245817482471466,-0.5185165628790855 l0.003983589995186776,-8.389951586723328 -0.7471156865358353,-4.596028029918671 l-0.5464468151330948,-0.4609740898013115 m-16.40740156173706,2.7254003286361694 l-0.18377430737018585,-4.101041555404663 -0.9840752184391022,-3.806726038455963 l1.2277990579605103,-0.4014839231967926 0.4696473106741905,0.31096210703253746 l0.019331281073391438,6.427167057991028 -0.069644870236516,1.8905188143253326 m3.484524190425873,-3.6255112290382385 l0.07507584989070892,-2.551008462905884 -0.4482340067625046,-3.7044456601142883 l2.091188430786133,0.023074974305927753 0.4363555833697319,0.4640165716409683 l-0.020079838577657938,6.587921380996704 0.29940085485577583,1.0955972224473953 m1.7651987075805664,-1.9750292599201202 l-0.021864217706024647,-3.4655985236167908 1.3159604370594025,-0.6850059330463409 l0.4597024619579315,0.3218572959303856 0.04820316098630428,4.885031878948212 l-0.22893425077199936,1.4207164943218231 m1.3664349913597107,-3.234763741493225 l-0.38782190531492233,-1.6608601808547974 0.03085736185312271,-1.3802462816238403 l0.30397210270166397,-0.7039549201726913 0.9991656243801117,-0.2538382075726986 l0.4969973489642143,1.8227744102478027 " fill="none" stroke="black" stroke-width="1" /></svg>