<?xml version="1.0" encoding="utf-8" ?>
<svg baseProfile="full" height="2000.0" version="1.1" width="2550.0" xmlns="http://www.w3.org/2000/svg" xmlns:ev="http://www.w3.org/2001/xml-events" xmlns:xlink="http://www.w3.org/1999/xlink"><defs /><rect fill="white" height="2000.0" width="2550.0" x="0" y="0" /><path d="M1570.0,940.0 m-640.0,-200.0 l-245.0,-25.0 -155.0,0.0 l-280.0,75.0 -120.0,50.0 l-65.0,45.0 -30.0,50.0 l-10.0,65.0 0.0,95.0 l15.0,35.0 75.0,60.0 l115.0,15.0 1035.0,-5.0 l330.0,20.0 595.0,5.0 l60.0,-10.0 90.0,-70.0 l140.0,-185.0 45.0,-105.0 l-10.0,-30.0 -160.0,-140.0 l-110.0,-40.0 -110.0,-10.0 l-250.0,0.0 -145.0,30.0 l-90.0,75.0 -45.0,60.0 l-15.0,140.0 m-585.0,-205.0 l-65.0,-290.0 0.0,-270.0 l10.0,-40.0 60.0,-80.0 l55.0,-30.0 55.0,0.0 l20.0,25.0 0.0,85.0 l100.0,435.0 -5.0,185.0 l-80.0,100.0 m-150.0,370.0 l5.0,510.0 15.0,185.0 l25.0,55.0 330.0,-5.0 l55.0,-30.0 25.0,-95.0 l0.0,-85.0 -55.0,-320.0 l5.0,-275.0 " fill="none" stroke="black" stroke-width="1" /></svg>