<?xml version="1.0" encoding="utf-8" ?>
<svg baseProfile="full" height="77.54334068391472" version="1.1" width="94.29331580657163" xmlns="http://www.w3.org/2000/svg" xmlns:ev="http://www.w3.org/2001/xml-events" xmlns:xlink="http://www.w3.org/1999/xlink"><defs /><rect fill="white" height="77.54334068391472" width="94.29331580657163" x="0" y="0" /><path d="M53.20379067212343,36.788002908342605 m-12.27313756942749,-3.75453382730484 l-4.8150634765625,-0.4132150486111641 -3.477773666381836,0.40059685707092285 l-2.7874085307121277,1.0644587874412537 -2.4132107198238373,1.55691459774971 l-1.4081621170043945,1.4367295801639557 -0.7521641254425049,1.3257807493209839 l-0.2768704667687416,1.3233582675457 0.2781553752720356,1.1340781301259995 l0.9899610280990601,0.8883387595415115 1.8875719606876373,0.700337141752243 l17.09876298904419,0.6634923815727234 10.144766569137573,-0.23901401087641716 l8.269625902175903,-0.6585194915533066 4.2432767152786255,-1.0144384950399399 l0.8567536622285843,-0.6627261638641357 0.5238114669919014,-1.5901929140090942 l0.0006301376561168581,-2.2184261679649353 -0.7697103917598724,-1.6535601019859314 l-1.3370704650878906,-1.2894800305366516 -1.871080994606018,-0.8560047298669815 l-3.2668104767799377,-0.45801565051078796 -3.8519135117530823,0.00019630964743555523 l-2.4621525406837463,0.5601799860596657 -1.4572873711585999,0.5876489356160164 l-1.2629550695419312,0.22165490314364433 -1.044253334403038,-0.12870066799223423 l-1.4442238211631775,-0.9521974623203278 -2.0599766075611115,-2.886919677257538 l-1.620936095714569,-4.8758238554000854 0.9219835698604584,0.05905397702008486 l2.9786521196365356,6.693488359451294 1.3222770392894745,3.353354036808014 m-4.60055947303772,5.284630656242371 l0.6349129229784012,1.6942314803600311 1.128222793340683,4.054685831069946 l1.1865299940109253,3.9295122027397156 1.1889374256134033,2.1754853427410126 l1.126301884651184,0.2988987974822521 0.8759307861328125,-0.533565916121006 l0.9392966330051422,-2.201126515865326 0.6688059121370316,-6.043497323989868 l-0.38188524544239044,-4.623926281929016 m-6.906792521476746,-5.190773010253906 l0.28118034824728966,-5.4457175731658936 0.7323972135782242,-2.8335705399513245 l1.2939141690731049,0.04821013659238815 2.1921907365322113,4.746378660202026 l0.8813043683767319,3.0918020009994507 0.1563091203570366,2.1431340277194977 " fill="none" stroke="black" stroke-width="1" /></svg>