<?xml version="1.0" encoding="utf-8" ?>
<svg baseProfile="full" height="71.11599560646937" version="1.1" width="96.9229681417346" xmlns="http://www.w3.org/2000/svg" xmlns:ev="http://www.w3.org/2001/xml-events" xmlns:xlink="http://www.w3.org/1999/xlink"><defs /><rect fill="white" height="71.11599560646937" width="96.9229681417346" x="0" y="0" /><path d="M29.30125867947936,33.963197598295665 m-0.9138603508472443,-0.04946934059262276 l1.245303526520729,-0.15754852443933487 10.361660718917847,-2.0511554181575775 l3.569222092628479,-0.11808717623353004 0.42777370661497116,0.36774877458810806 l-0.10493496432900429,3.360029458999634 0.15860319137573242,1.7640136182308197 l7.9096609354019165,-0.455256924033165 6.616536378860474,-0.21065330132842064 l6.108461022377014,0.03884702920913696 4.0896061062812805,0.5530767887830734 l1.593853384256363,0.8190563321113586 1.2549009919166565,1.8065905570983887 l0.3049227222800255,1.315966248512268 -0.5129600316286087,1.8110859394073486 l-1.1706112325191498,1.129414439201355 -1.8008023500442505,0.8492877334356308 l-6.967563629150391,1.0317311435937881 -17.415015697479248,0.34812062978744507 l-6.08350932598114,-0.3865700215101242 -8.972782492637634,-0.4454636573791504 l-2.7188950777053833,-0.7020253688097 -0.6794200092554092,-0.5906166508793831 l-0.6014082953333855,-2.6936668157577515 0.6969447433948517,-3.5916462540626526 l1.2888072431087494,-2.0261982083320618 1.534220427274704,-1.205364614725113 l1.8446917831897736,-0.7003798335790634 2.7793309092521667,-0.2416856586933136 l2.009824812412262,0.3703255206346512 m6.87317430973053,5.097843408584595 l-0.32429348677396774,-0.557655543088913 -0.005223490879870951,-1.0966680198907852 l0.6751035153865814,-3.388393521308899 1.2816981971263885,-2.3360905051231384 l1.8352526426315308,-1.897859275341034 2.1773089468479156,-1.2906359136104584 l2.2239184379577637,-0.637429729104042 1.9798550009727478,-0.06319652311503887 l2.5508812069892883,0.7639730721712112 2.464868277311325,1.9453367590904236 l1.7374984920024872,2.9318779706954956 0.6600399315357208,3.2604318857192993 l-0.38225553929805756,3.064756691455841 -0.8549827337265015,1.3953201472759247 l-1.9919253885746002,1.4363077282905579 -1.8118420243263245,0.5364194139838219 l-2.8813838958740234,-3.950723112211563e-05 -2.398556172847748,-0.6432721018791199 m-4.329341650009155,-3.1909582018852234 l-0.15464834868907928,1.0038495063781738 -0.1077753771096468,1.823754757642746 l0.4947271943092346,1.591084897518158 0.8839893341064453,0.768677219748497 l1.7583133280277252,0.338393896818161 1.3220492005348206,-0.4240873083472252 l0.8968109637498856,-0.943555161356926 0.6276035308837891,-1.9015617668628693 l-0.12121410109102726,-1.4954471588134766 -0.728767141699791,-0.9629783779382706 l-1.1679726839065552,-0.5145463719964027 -2.2118009626865387,-0.03423671005293727 l-1.2049467861652374,0.8128058165311813 m-3.5070115327835083,-2.828737199306488 l-0.33325906842947006,-1.3681134581565857 -0.47475893050432205,-4.038947224617004 l-0.08005847223103046,-3.1444549560546875 0.38271013647317886,-1.5751667320728302 l0.766572430729866,-0.9161403775215149 1.0932929813861847,-0.4233655706048012 l1.8041007220745087,0.25824785232543945 1.3146033883094788,0.9852822124958038 l1.1825882643461227,2.229809910058975 0.4280570149421692,3.236319422721863 l-0.4068499803543091,3.19630891084671 -0.7815343886613846,1.935855746269226 l-0.8096024394035339,0.7761603593826294 m-1.4354225993156433,-7.134941816329956 l-0.6375350803136826,-0.10601228103041649 -0.5341947451233864,-0.13634692877531052 l-0.7642792910337448,-0.2621595934033394 -0.5545707046985626,-0.21009620279073715 l-0.14341257512569427,-0.1187378354370594 0.6853305548429489,-0.00224517731112428 m3.961819112300873,0.3957759961485863 l-0.07855950854718685,-0.7123135030269623 " fill="none" stroke="black" stroke-width="1" /></svg>