<?xml version="1.0" encoding="utf-8" ?>
<svg baseProfile="full" height="1985.0" version="1.1" width="2535.0" xmlns="http://www.w3.org/2000/svg" xmlns:ev="http://www.w3.org/2001/xml-events" xmlns:xlink="http://www.w3.org/1999/xlink"><defs /><rect fill="white" height="1985.0" width="2535.0" x="0" y="0" /><path d="M205.0,1025.0 m-45.0,-5.0 l90.0,-15.0 420.0,-10.0 m-150.0,-100.0 l75.0,25.0 300.0,-5.0 l330.0,-35.0 360.0,-15.0 l355.0,45.0 120.0,30.0 l115.0,60.0 325.0,330.0 l10.0,35.0 0.0,55.0 l-60.0,85.0 -45.0,30.0 l-165.0,45.0 -150.0,15.0 l-595.0,-40.0 -790.0,-5.0 l-330.0,-25.0 -195.0,-85.0 l-110.0,-85.0 -25.0,-40.0 l-20.0,-105.0 5.0,-90.0 l25.0,-60.0 75.0,-95.0 l15.0,-5.0 m730.0,120.0 l-20.0,5.0 -5.0,-25.0 l5.0,-320.0 40.0,-305.0 l25.0,-95.0 65.0,-130.0 l110.0,-135.0 80.0,-40.0 l85.0,-10.0 80.0,15.0 l60.0,90.0 10.0,140.0 l-10.0,160.0 -65.0,145.0 l-70.0,225.0 m-390.0,430.0 l-10.0,330.0 10.0,210.0 l60.0,120.0 45.0,50.0 l35.0,10.0 105.0,10.0 l80.0,-10.0 50.0,-25.0 l45.0,-65.0 25.0,-70.0 l15.0,-115.0 -10.0,-185.0 l5.0,-165.0 m350.0,-400.0 l-20.0,15.0 -5.0,30.0 l5.0,20.0 55.0,30.0 l145.0,-20.0 60.0,-50.0 l-40.0,-20.0 -45.0,0.0 l-105.0,35.0 m-435.0,75.0 l-25.0,10.0 -35.0,50.0 l60.0,-5.0 25.0,-30.0 l-15.0,-25.0 -65.0,0.0 m-520.0,245.0 l-80.0,10.0 40.0,-10.0 l35.0,-35.0 5.0,-25.0 l-10.0,-25.0 -65.0,-25.0 l-70.0,5.0 m-275.0,75.0 l-35.0,20.0 " fill="none" stroke="black" stroke-width="1" /></svg>