<?xml version="1.0" encoding="utf-8" ?>
<svg baseProfile="full" height="2095.0" version="1.1" width="2400.0" xmlns="http://www.w3.org/2000/svg" xmlns:ev="http://www.w3.org/2001/xml-events" xmlns:xlink="http://www.w3.org/1999/xlink"><defs /><rect fill="white" height="2095.0" width="2400.0" x="0" y="0" /><path d="M1110.0,770.0 m-15.0,480.0 l-50.0,290.0 -70.0,240.0 l-140.0,290.0 370.0,0.0 l130.0,-15.0 465.0,-135.0 l90.0,-50.0 115.0,-95.0 l-35.0,-25.0 -235.0,-295.0 l-190.0,-330.0 -85.0,-255.0 l-35.0,-290.0 m5.0,-390.0 l-135.0,-35.0 -105.0,0.0 l-130.0,120.0 -40.0,55.0 l-55.0,150.0 -5.0,75.0 l20.0,115.0 45.0,45.0 l150.0,35.0 85.0,0.0 l155.0,-70.0 45.0,-40.0 l55.0,-105.0 20.0,-190.0 l-30.0,-100.0 -45.0,-45.0 m130.0,-95.0 l-240.0,-75.0 -220.0,-5.0 l-70.0,25.0 -115.0,85.0 l-20.0,75.0 15.0,25.0 l80.0,40.0 110.0,20.0 l320.0,15.0 135.0,-15.0 l80.0,-65.0 25.0,-50.0 l-45.0,-55.0 -110.0,-80.0 l-20.0,0.0 m-405.0,885.0 l-55.0,-20.0 -60.0,-55.0 l-100.0,-55.0 -175.0,-75.0 l-215.0,-60.0 -200.0,-25.0 l-75.0,0.0 -135.0,95.0 l-70.0,100.0 30.0,120.0 l445.0,390.0 150.0,85.0 l185.0,50.0 65.0,0.0 m660.0,-525.0 l-50.0,-30.0 725.0,-340.0 l80.0,30.0 60.0,115.0 l0.0,80.0 -50.0,105.0 l-230.0,245.0 -235.0,180.0 l-265.0,140.0 " fill="none" stroke="black" stroke-width="1" /></svg>