<?xml version="1.0" encoding="utf-8" ?>
<svg baseProfile="full" height="106.90502648707479" version="1.1" width="73.71016039163806" xmlns="http://www.w3.org/2000/svg" xmlns:ev="http://www.w3.org/2001/xml-events" xmlns:xlink="http://www.w3.org/1999/xlink"><defs /><rect fill="white" height="106.90502648707479" width="73.71016039163806" x="0" y="0" /><path d="M32.73198361159302,54.567125155590475 m-0.41686132550239563,9.93300974369049 l-1.3115081191062927,7.60068953037262 -1.1442211270332336,6.657229065895081 l0.37425193935632706,1.9583670794963837 1.5811361372470856,0.8586782962083817 l4.74801629781723,0.32992761582136154 7.636817693710327,-0.5007357150316238 l3.8407450914382935,-0.32828450202941895 0.669800192117691,-1.230306252837181 l-0.005810667062178254,-1.6455921530723572 -1.9255298376083374,-6.445583701133728 l-2.1248123049736023,-8.271518349647522 -2.327195703983307,-7.466942071914673 l-1.92118301987648,-3.6039772629737854 -5.184652209281921,0.07625881116837263 l-3.4680378437042236,0.7556845247745514 -1.4047904312610626,0.6664477288722992 l-0.6996097415685654,0.6963072717189789 m6.279508471488953,-1.3961388170719147 l-0.18617289140820503,-2.40068256855011 -0.8048827201128006,-5.05313515663147 l-0.42477045208215714,-2.654919922351837 -0.10415278375148773,-1.381404995918274 l0.24112652987241745,-1.380532830953598 1.0056228935718536,-1.2597042322158813 l1.1657608300447464,-0.6066455319523811 1.9652341306209564,-0.13480549678206444 l1.5681163966655731,0.7306358218193054 1.291930228471756,1.6185925900936127 l0.7161250710487366,2.3198795318603516 0.10401555337011814,2.7834224700927734 l-0.4585667699575424,2.4960672855377197 -1.517307460308075,3.0640342831611633 l-1.3312485814094543,1.440499722957611 -1.4843860268592834,0.6423282623291016 l-1.6180506348609924,-0.18097547814249992 -0.7470590621232986,-0.693572387099266 m1.5596914291381836,-6.807055473327637 l-0.5067217350006104,-1.7360559105873108 -1.1021079868078232,-5.253841876983643 l-0.8529665321111679,-3.7620431184768677 -0.4991699755191803,-2.4920225143432617 l-0.4398863762617111,-2.051285207271576 -0.338970385491848,-1.3845530152320862 l-0.3515743464231491,-1.1004191637039185 -0.521911270916462,-1.0998283326625824 l-0.8313257992267609,-1.0499676316976547 -1.2678436934947968,-0.7079042494297028 l-1.9465674459934235,-0.11475087143480778 -1.1352360993623734,0.5467450246214867 l-0.9958670288324356,1.1064013093709946 -0.8586221933364868,2.3042207956314087 l-0.22030191496014595,2.8270483016967773 0.5681777372956276,3.8041189312934875 l1.5589992702007294,3.526741862297058 3.227558732032776,4.108281135559082 l1.3579630851745605,3.3227598667144775 0.36700695753097534,4.619052708148956 l-0.23133296519517899,5.018545389175415 -0.4421825706958771,4.150232374668121 l0.05714552477002144,1.5697239339351654 0.44060859829187393,1.3497506082057953 l0.9480573982000351,1.0614828765392303 1.3939759135246277,0.45007195323705673 l1.711476445198059,-0.2854439616203308 1.1232776939868927,-1.052033081650734 l0.7105118036270142,-1.5400999784469604 0.18820622935891151,-2.539493143558502 l-0.46204332262277603,-2.6875507831573486 -1.095598116517067,-2.1945469081401825 " fill="none" stroke="black" stroke-width="1" /></svg>