<?xml version="1.0" encoding="utf-8" ?>
<svg baseProfile="full" height="67.50457767120679" version="1.1" width="117.37549241632223" xmlns="http://www.w3.org/2000/svg" xmlns:ev="http://www.w3.org/2001/xml-events" xmlns:xlink="http://www.w3.org/1999/xlink"><defs /><rect fill="white" height="67.50457767120679" width="117.37549241632223" x="0" y="0" /><path d="M27.156156880082563,25.78532743922551 m1.1349541693925858,8.532804250717163 l-0.0037834246177226305,7.955007553100586 0.8079325407743454,0.23143842816352844 l10.212448835372925,-0.3838571161031723 13.258533477783203,0.13853705488145351 l13.365508317947388,0.23229703307151794 12.597161531448364,-0.01530179288238287 l9.07828152179718,-0.21874615922570229 4.553750157356262,-0.581100806593895 l0.21454840898513794,-4.480775892734528 -0.3602651134133339,-7.591688632965088 l-1.086781844496727,-3.590092658996582 -21.24814510345459,0.18575871363282204 l-23.223233222961426,0.12291837483644485 -15.481332540512085,0.0628428254276514 l-5.97573459148407,0.21914375945925713 m10.995917320251465,1.728501170873642 l-0.5547600984573364,0.0016702392895240337 m4.224729537963867,0.12601119466125965 l0.0007800316234352067,0.0014555917005054653 5.561333182413364e-05,0.8008713275194168 l0.2414536289870739,1.1494120955467224 0.25565553456544876,0.5202421173453331 l0.34660879522562027,0.06130902096629143 0.19180208444595337,-1.9220633804798126 m8.184069395065308,-0.6619178503751755 l-0.6155627965927124,0.8278350532054901 -0.04832136910408735,1.2477760761976242 l1.1247199028730392,0.3458453342318535 0.5671191215515137,-1.757274717092514 l-0.4592575505375862,-0.4313787445425987 -0.8892631530761719,0.23334959521889687 m10.84402322769165,-0.7128700613975525 l-0.9105823189020157,0.9032078832387924 0.1820049062371254,1.366017758846283 l0.5398527160286903,0.28391506522893906 0.6039891019463539,-1.8718335032463074 l-0.495576374232769,-0.4446365311741829 -0.833420529961586,0.24957824498414993 m11.276347637176514,-0.9045759588479996 l-1.025535687804222,0.9386970102787018 0.026927245780825615,1.4582601189613342 l0.4960312321782112,0.359884575009346 1.0577552765607834,-0.21559624001383781 l0.24668438360095024,-1.965673565864563 -0.5658037960529327,-0.43596547096967697 l-1.0133348405361176,0.1945560984313488 m-10.21530270576477,3.413129448890686 l0.0013414944987744093,-1.3674502074718475 0.35143233835697174,-1.8347936868667603 l1.1350175738334656,-3.2513773441314697 0.7518718391656876,-0.03863013116642833 l1.80419921875,1.5553204715251923 0.44569239020347595,3.6023250222206116 l-0.6159914657473564,1.9742533564567566 m-8.253413438796997,1.0137026011943817 l-0.38986604660749435,-1.035052090883255 -0.5596411973237991,-2.5787395238876343 l0.5843813717365265,-0.9903521835803986 1.0284911096096039,0.6253962963819504 l0.43352119624614716,3.0130714178085327 -0.3944414481520653,1.5759755671024323 " fill="none" stroke="black" stroke-width="1" /></svg>