<?xml version="1.0" encoding="utf-8" ?>
<svg baseProfile="full" height="1495.0" version="1.1" width="3350.0" xmlns="http://www.w3.org/2000/svg" xmlns:ev="http://www.w3.org/2001/xml-events" xmlns:xlink="http://www.w3.org/1999/xlink"><defs /><rect fill="white" height="1495.0" width="3350.0" x="0" y="0" /><path d="M35.0,640.0 m50.0,375.0 l10.0,415.0 40.0,10.0 l690.0,10.0 410.0,-20.0 l625.0,0.0 785.0,40.0 l665.0,-5.0 15.0,-65.0 l-10.0,-235.0 -120.0,-415.0 l-55.0,-305.0 -100.0,25.0 l-1815.0,130.0 -870.0,15.0 l-330.0,-30.0 m535.0,35.0 l-10.0,-135.0 -45.0,-140.0 m30.0,-260.0 l-120.0,130.0 35.0,95.0 l60.0,10.0 65.0,-25.0 l-10.0,-60.0 -45.0,-85.0 l10.0,-15.0 m435.0,425.0 l35.0,-115.0 10.0,-165.0 m45.0,-255.0 l-25.0,65.0 -100.0,60.0 l-10.0,25.0 10.0,70.0 l35.0,25.0 65.0,30.0 l90.0,-25.0 35.0,-55.0 l-45.0,-85.0 -5.0,-55.0 l20.0,-10.0 m640.0,400.0 l10.0,-195.0 m50.0,-195.0 l-50.0,40.0 -130.0,60.0 l-25.0,25.0 10.0,30.0 l210.0,45.0 20.0,-50.0 l-10.0,-30.0 -60.0,-55.0 l15.0,-25.0 40.0,0.0 m330.0,150.0 l30.0,85.0 20.0,150.0 m-190.0,-480.0 l5.0,50.0 -35.0,55.0 l5.0,25.0 185.0,20.0 l-145.0,-130.0 " fill="none" stroke="black" stroke-width="1" /></svg>