<?xml version="1.0" encoding="utf-8" ?>
<svg baseProfile="full" height="72.89964353114556" version="1.1" width="70.91262392699718" xmlns="http://www.w3.org/2000/svg" xmlns:ev="http://www.w3.org/2001/xml-events" xmlns:xlink="http://www.w3.org/1999/xlink"><defs /><rect fill="white" height="72.89964353114556" width="70.91262392699718" x="0" y="0" /><path d="M38.106285110116005,25 m-3.232208788394928,0.23763494566082954 l-4.809558689594269,2.912377417087555 -1.5866807103157043,1.5339043736457825 l-2.8439873456954956,4.85390692949295 -0.6338495761156082,4.123185873031616 l0.6707628816366196,3.6837416887283325 2.3209279775619507,2.812017500400543 l2.3373955488204956,1.4323009550571442 5.256649851799011,1.3102780282497406 l4.316645860671997,0.00029581979106296785 1.4705756306648254,-0.48980969935655594 l2.2740036249160767,-1.7129790782928467 1.3525594770908356,-2.0809845626354218 l0.9131030738353729,-3.3738502860069275 -0.00021832407583133318,-3.8491126894950867 l-0.9445024281740189,-3.330618143081665 -1.4968721568584442,-3.0677616596221924 l-2.014407068490982,-2.43714839220047 -2.1077872812747955,-1.433398574590683 l-1.814713031053543,-0.4636623337864876 m-2.3133185505867004,10.397889614105225 l0.0002345103166589979,0.001541412202641368 m0.03357804147526622,-0.21417327225208282 l0.17219845205545425,-4.102368652820587 m-0.13410791754722595,4.166485369205475 l2.2665782272815704,0.3577529639005661 1.2005463987588882,0.15601539053022861 l0.3513847291469574,-0.45314107090234756 -0.08646692149341106,-0.5477618053555489 " fill="none" stroke="black" stroke-width="1" /></svg>