<?xml version="1.0" encoding="utf-8" ?>
<svg baseProfile="full" height="1160.0" version="1.1" width="1090.0" xmlns="http://www.w3.org/2000/svg" xmlns:ev="http://www.w3.org/2001/xml-events" xmlns:xlink="http://www.w3.org/1999/xlink"><defs /><rect fill="white" height="1160.0" width="1090.0" x="0" y="0" /><path d="M675.0,25 m-170.0,10.0 l-240.0,140.0 -70.0,70.0 l-120.0,270.0 -50.0,290.0 l0.0,70.0 40.0,90.0 l290.0,130.0 180.0,40.0 l250.0,0.0 110.0,-20.0 l70.0,-50.0 70.0,-110.0 l30.0,-90.0 0.0,-280.0 l-30.0,-110.0 -70.0,-150.0 l-130.0,-210.0 -120.0,-50.0 l-40.0,0.0 m-160.0,550.0 l0.0,0.0 m0.0,0.0 l30.0,-190.0 m-30.0,190.0 l30.0,-10.0 100.0,100.0 l90.0,40.0 " fill="none" stroke="black" stroke-width="1" /></svg>