<?xml version="1.0" encoding="utf-8" ?>
<svg baseProfile="full" height="825.0" version="1.1" width="1025.0" xmlns="http://www.w3.org/2000/svg" xmlns:ev="http://www.w3.org/2001/xml-events" xmlns:xlink="http://www.w3.org/1999/xlink"><defs /><rect fill="white" height="825.0" width="1025.0" x="0" y="0" /><path d="M950.0,690.0 m50.0,-130.0 l-5.0,-245.0 -35.0,-75.0 l-100.0,-130.0 -55.0,-45.0 l-80.0,-30.0 -305.0,-10.0 l-105.0,30.0 -70.0,50.0 l-130.0,140.0 -55.0,85.0 l-20.0,65.0 -15.0,190.0 l20.0,60.0 85.0,75.0 l140.0,55.0 295.0,25.0 l410.0,-220.0 m-150.0,-190.0 l-30.0,-95.0 -75.0,-120.0 l-50.0,-40.0 -75.0,-25.0 l-295.0,10.0 -75.0,75.0 l-80.0,150.0 -15.0,55.0 l5.0,125.0 75.0,55.0 l200.0,10.0 300.0,-100.0 l25.0,-20.0 70.0,-140.0 l40.0,-10.0 m-545.0,245.0 l-20.0,45.0 5.0,145.0 l250.0,5.0 80.0,-30.0 l115.0,-10.0 30.0,-35.0 l10.0,-125.0 -35.0,-75.0 l-125.0,15.0 -280.0,0.0 l-50.0,15.0 m245.0,160.0 l30.0,-25.0 -5.0,-40.0 l-40.0,-20.0 " fill="none" stroke="black" stroke-width="1" /></svg>