<?xml version="1.0" encoding="utf-8" ?>
<svg baseProfile="full" height="69.46359414607286" version="1.1" width="69.84423191286623" xmlns="http://www.w3.org/2000/svg" xmlns:ev="http://www.w3.org/2001/xml-events" xmlns:xlink="http://www.w3.org/1999/xlink"><defs /><rect fill="white" height="69.46359414607286" width="69.84423191286623" x="0" y="0" /><path d="M42.553000058978796,41.99757690774277 m1.104782596230507,-2.6581722497940063 l-0.2925604395568371,-2.495458424091339 -1.7922723293304443,-3.297264873981476 l-1.7670118808746338,-1.9800160825252533 -1.9917917251586914,-1.3652145862579346 l-2.363620847463608,-0.9380108863115311 -2.5626420974731445,-0.4282500222325325 l-2.600485682487488,0.035721075255423784 -1.5421479940414429,0.440150611102581 l-2.0101068913936615,1.4280372858047485 -1.3122622668743134,2.0534929633140564 l-0.42288050055503845,1.6294661164283752 0.0627122912555933,2.556873857975006 l0.5058681219816208,1.4260722696781158 1.4969609677791595,2.0230770111083984 l2.2411364316940308,1.7763710021972656 2.7275705337524414,1.3451166450977325 l4.022846221923828,0.8741512149572372 2.8466251492500305,0.03987431060522795 l1.9390001893043518,-0.5623914301395416 1.8981155753135681,-1.3219274580478668 l1.6706958413124084,-2.5253471732139587 0.43270058929920197,-2.284774035215378 l-0.2505860663950443,-1.9094975292682648 -0.9771974384784698,-1.6431613266468048 l-1.4395380020141602,-1.303241103887558 -1.7673557996749878,-0.9347595274448395 l-2.090063989162445,-0.5729465931653976 -2.107602506875992,-0.20707378163933754 m-3.3911913633346558,5.073150992393494 l-0.010699542472139001,0.2929978258907795 0.3474907949566841,0.077530387789011 l0.006258656503632665,-0.35074662417173386 -0.3425614908337593,0.09321553632616997 l0.11228478513658047,0.35668637603521347 0.536474771797657,-0.3630087897181511 l-0.253775492310524,-0.19337588921189308 m0.5827473849058151,-0.24640804156661034 l0.7085778564214706,-3.247811198234558 0.12718327343463898,-2.4707454442977905 l-0.05984113551676273,-1.410524696111679 m-0.7927883416414261,8.264473676681519 l-0.4942028224468231,0.7991096377372742 -0.16809536144137383,1.38347789645195 l-0.8018044382333755,2.6361700892448425 -0.2960652858018875,0.8758825063705444 m1.1221005767583847,-12.611383199691772 l-0.22291604429483414,-0.7212662696838379 -0.2432788908481598,-1.228298470377922 l-0.3312497213482857,-2.02307790517807 -0.042274827137589455,-1.184522584080696 " fill="none" stroke="black" stroke-width="1" /></svg>