<?xml version="1.0" encoding="utf-8" ?>
<svg baseProfile="full" height="855.0" version="1.1" width="700.0" xmlns="http://www.w3.org/2000/svg" xmlns:ev="http://www.w3.org/2001/xml-events" xmlns:xlink="http://www.w3.org/1999/xlink"><defs /><rect fill="white" height="855.0" width="700.0" x="0" y="0" /><path d="M455.0,285.0 m-25.0,-15.0 l-210.0,10.0 -105.0,75.0 l-50.0,65.0 -30.0,75.0 l-10.0,160.0 35.0,90.0 l65.0,80.0 110.0,5.0 l45.0,-85.0 50.0,-5.0 l110.0,80.0 105.0,10.0 l70.0,-85.0 45.0,-90.0 l15.0,-115.0 -5.0,-160.0 l-170.0,-120.0 -95.0,-25.0 l-65.0,0.0 m-55.0,40.0 l-5.0,-230.0 25.0,-20.0 l155.0,30.0 15.0,35.0 l0.0,225.0 " fill="none" stroke="black" stroke-width="1" /></svg>