<?xml version="1.0" encoding="utf-8" ?>
<svg baseProfile="full" height="63.16680207848549" version="1.1" width="61.85716774314642" xmlns="http://www.w3.org/2000/svg" xmlns:ev="http://www.w3.org/2001/xml-events" xmlns:xlink="http://www.w3.org/1999/xlink"><defs /><rect fill="white" height="63.16680207848549" width="61.85716774314642" x="0" y="0" /><path d="M33.4098388068378,26.695409566164017 m-0.48722226172685623,-0.3341861069202423 l-2.1789881587028503,-0.14307137578725815 -2.6506206393241882,0.7012312859296799 l-1.8735024333000183,1.6237324476242065 -1.0309049487113953,2.3093105852603912 l-0.18860036507248878,1.8464288115501404 0.43546855449676514,2.360495775938034 l0.7948945462703705,1.2735994160175323 1.7534513771533966,1.2768375873565674 l2.1024690568447113,0.5570140853524208 2.2722114622592926,-0.06073683500289917 l1.6094377636909485,-0.7780531793832779 1.5625986456871033,-1.6076549887657166 l0.9894116222858429,-2.152983695268631 0.33722471445798874,-2.6507896184921265 l-0.30709728598594666,-2.4921053647994995 -1.009717434644699,-1.797548085451126 l-1.4999346435070038,-1.151815801858902 -1.81914821267128,-0.47511450946331024 m-1.4235484600067139,4.127796292304993 l-0.1848984695971012,1.7030645906925201 0.07333312649279833,2.2146710753440857 l2.379823327064514,-0.15407396480441093 1.4119482040405273,-0.3293256461620331 m-3.3096852898597717,-1.905851811170578 l-0.006374571239575744,-1.1948394775390625 " fill="none" stroke="black" stroke-width="1" /></svg>