<?xml version="1.0" encoding="utf-8" ?>
<svg baseProfile="full" height="2045.0" version="1.1" width="2080.0" xmlns="http://www.w3.org/2000/svg" xmlns:ev="http://www.w3.org/2001/xml-events" xmlns:xlink="http://www.w3.org/1999/xlink"><defs /><rect fill="white" height="2045.0" width="2080.0" x="0" y="0" /><path d="M1015.0,25 m-195.0,0.0 l-110.0,20.0 -100.0,50.0 l-125.0,80.0 -140.0,120.0 l-120.0,135.0 -135.0,260.0 l-40.0,135.0 -25.0,245.0 l10.0,215.0 110.0,200.0 l80.0,95.0 345.0,280.0 l125.0,65.0 130.0,50.0 l250.0,40.0 555.0,5.0 l150.0,-60.0 95.0,-110.0 l100.0,-165.0 60.0,-175.0 l15.0,-115.0 5.0,-230.0 l-20.0,-100.0 -145.0,-275.0 l-205.0,-250.0 -195.0,-185.0 l-205.0,-240.0 -35.0,-30.0 l-95.0,-20.0 -120.0,0.0 l-50.0,-30.0 m30.0,1080.0 l0.0,-100.0 50.0,-160.0 l20.0,-175.0 10.0,-25.0 l20.0,25.0 -35.0,-80.0 l-25.0,-5.0 -60.0,85.0 m5.0,450.0 l40.0,80.0 160.0,210.0 " fill="none" stroke="black" stroke-width="1" /></svg>