<?xml version="1.0" encoding="utf-8" ?>
<svg baseProfile="full" height="89.48794342370093" version="1.1" width="89.27984987228228" xmlns="http://www.w3.org/2000/svg" xmlns:ev="http://www.w3.org/2001/xml-events" xmlns:xlink="http://www.w3.org/1999/xlink"><defs /><rect fill="white" height="89.48794342370093" width="89.27984987228228" x="0" y="0" /><path d="M43.023493215441704,25.013626436702907 m-3.8043758273124695,-0.013626436702907085 l-2.30225071310997,0.493391752243042 -2.1976226568222046,1.085444688796997 l-2.409600615501404,1.8837657570838928 -1.9513849914073944,2.0555128157138824 l-1.7022986710071564,2.3502692580223083 -2.0472797751426697,3.9907866716384888 l-1.0136140882968903,3.2370826601982117 -0.5950658768415451,4.71668154001236 l0.4978777840733528,4.956224262714386 1.2542325258255005,3.0659490823745728 l4.051909446716309,5.237204432487488 3.0798622965812683,2.3182202875614166 l3.121424913406372,1.5758657455444336 7.099241614341736,1.9364558160305023 l5.755444765090942,0.5846532434225082 4.665766656398773,0.0004354098564363085 l2.759419083595276,-0.7117947936058044 2.1175990998744965,-1.242300271987915 l2.5810620188713074,-2.7955344319343567 1.390058696269989,-2.919984757900238 l0.9059308469295502,-4.692259728908539 2.0124307411606424e-05,-5.940597653388977 l-1.1494933813810349,-5.1724207401275635 -2.0843590795993805,-4.878025949001312 l-1.9271808862686157,-3.0388525128364563 -2.979719638824463,-3.1929856538772583 l-3.7773406505584717,-2.6635143160820007 -2.7069473266601562,-1.2381751090288162 l-3.7863481044769287,-0.8036758750677109 -2.89772629737854,0.0005050267645856366 m1.7677801847457886,17.029831409454346 l-0.18497653305530548,-0.7867404818534851 -0.0003257201024098322,-1.935712993144989 l0.04660324193537235,-0.8219689875841141 0.22388625890016556,-0.9090209752321243 l0.5802019685506821,-1.265246719121933 1.121581643819809,-1.867385357618332 l1.182284876704216,-1.4346560835838318 1.2990371882915497,-1.0339049994945526 l0.025108710397034883,1.0187819600105286 m-4.716830551624298,8.836957812309265 l-0.686517059803009,5.459731817245483 -0.5976413562893867,3.4456247091293335 " fill="none" stroke="black" stroke-width="1" /></svg>