<?xml version="1.0" encoding="utf-8" ?>
<svg baseProfile="full" height="65.68485498428345" version="1.1" width="72.19880685210228" xmlns="http://www.w3.org/2000/svg" xmlns:ev="http://www.w3.org/2001/xml-events" xmlns:xlink="http://www.w3.org/1999/xlink"><defs /><rect fill="white" height="65.68485498428345" width="72.19880685210228" x="0" y="0" /><path d="M26.303949672728777,28.215937800705433 m2.671216130256653,-1.9365376234054565 l3.113824427127838,-1.0166257619857788 5.890719294548035,-0.26277441531419754 l3.8640832901000977,0.8183101564645767 2.554894983768463,1.2338998168706894 l1.7052502930164337,1.5974824130535126 0.9252320230007172,2.0420628786087036 l0.16963673755526543,2.3668740689754486 -0.6534618884325027,2.1050968766212463 l-1.6403450071811676,2.0929518342018127 -2.325107902288437,1.637812852859497 l-2.8059110045433044,1.1333807557821274 -4.207904040813446,0.6569833308458328 l-3.1785649061203003,-0.03784990170970559 -2.6912936568260193,-0.7254627346992493 l-2.2895610332489014,-1.3891980051994324 -1.6144926846027374,-1.9027777016162872 l-0.7921647280454636,-2.3656755685806274 0.06297266576439142,-2.553771734237671 l1.0953721404075623,-2.165316492319107 1.8305973708629608,-1.647559255361557 l1.9640812277793884,-0.7586365193128586 m2.099197506904602,4.879014194011688 l-0.7382239401340485,0.8075986057519913 -0.2851562574505806,1.354711651802063 l0.5044325813651085,0.324154868721962 1.3218161463737488,-0.01693486119620502 l0.798451229929924,-0.5541567131876945 0.144020589068532,-0.9909249097108841 l-0.4436950013041496,-0.5424472317099571 -0.9441626071929932,-0.23002462461590767 l-0.9441565722227097,0.1829657144844532 -0.4895985871553421,0.6500956416130066 l0.14408119022846222,0.8883688598871231 0.514758825302124,0.293609406799078 l0.9719499200582504,0.0042293843580409884 0.6040216982364655,-0.5064058676362038 l0.19150389358401299,-0.7433173805475235 -0.27970554307103157,-0.3904792293906212 l-0.688260868191719,-0.11567419394850731 -0.5493014678359032,0.40369294583797455 l-0.057281823828816414,0.86433045566082 0.6545376032590866,0.44712256640195847 l0.6501216441392899,-0.09265100583434105 0.3891607001423836,-0.8036747574806213 l-0.6563116610050201,-0.41069697588682175 -0.800262987613678,0.17744086682796478 l-0.32118987292051315,0.7294950634241104 0.11422302573919296,0.44336043298244476 l0.7053542882204056,0.24873318150639534 0.7967779785394669,-0.33216968178749084 l0.2763410285115242,-0.8717957139015198 -0.3800499439239502,-0.3811436891555786 " fill="none" stroke="black" stroke-width="1" /></svg>