<?xml version="1.0" encoding="utf-8" ?>
<svg baseProfile="full" height="1410.0" version="1.1" width="1660.0" xmlns="http://www.w3.org/2000/svg" xmlns:ev="http://www.w3.org/2001/xml-events" xmlns:xlink="http://www.w3.org/1999/xlink"><defs /><rect fill="white" height="1410.0" width="1660.0" x="0" y="0" /><path d="M425.0,530.0 m125.0,-95.0 l185.0,-75.0 210.0,-15.0 l180.0,35.0 150.0,90.0 l70.0,70.0 45.0,80.0 l20.0,90.0 -5.0,100.0 l-45.0,115.0 -70.0,110.0 l-185.0,200.0 -225.0,120.0 l-115.0,30.0 -110.0,-5.0 l-105.0,-40.0 -105.0,-90.0 l-75.0,-120.0 -45.0,-115.0 l-15.0,-130.0 20.0,-125.0 l85.0,-160.0 m-180.0,-135.0 l325.0,-260.0 115.0,-115.0 m505.0,50.0 l95.0,50.0 140.0,130.0 m-200.0,-225.0 l70.0,-40.0 100.0,-15.0 l155.0,20.0 55.0,35.0 l40.0,90.0 -15.0,95.0 l-40.0,65.0 -95.0,75.0 m-715.0,-370.0 l-120.0,-25.0 -190.0,15.0 l-170.0,50.0 -155.0,90.0 l-65.0,75.0 -35.0,70.0 l-10.0,75.0 10.0,60.0 l80.0,85.0 m815.0,-370.0 l15.0,25.0 m-220.0,-35.0 l80.0,-50.0 250.0,-50.0 " fill="none" stroke="black" stroke-width="1" /></svg>