<?xml version="1.0" encoding="utf-8" ?>
<svg baseProfile="full" height="1250.0" version="1.1" width="1395.0" xmlns="http://www.w3.org/2000/svg" xmlns:ev="http://www.w3.org/2001/xml-events" xmlns:xlink="http://www.w3.org/1999/xlink"><defs /><rect fill="white" height="1250.0" width="1395.0" x="0" y="0" /><path d="M230.0,1195.0 m595.0,5.0 l305.0,25.0 m-275.0,-45.0 l-10.0,-25.0 25.0,-65.0 l105.0,-140.0 85.0,-150.0 l20.0,-60.0 0.0,-115.0 l-55.0,-85.0 -55.0,-40.0 l-110.0,-25.0 -150.0,-5.0 l-200.0,140.0 -75.0,105.0 l-30.0,95.0 0.0,85.0 l120.0,230.0 70.0,65.0 l110.0,10.0 m-180.0,-665.0 l-70.0,-10.0 -90.0,-110.0 l-10.0,-40.0 m335.0,-135.0 l10.0,-85.0 90.0,-130.0 m95.0,405.0 l90.0,-85.0 120.0,-60.0 m130.0,415.0 l145.0,-15.0 m-175.0,260.0 l160.0,-15.0 m-1105.0,-80.0 l-100.0,-5.0 -125.0,60.0 m250.0,-260.0 l-70.0,-5.0 m530.0,195.0 l0.0,-100.0 20.0,-60.0 m20.0,-15.0 l-35.0,10.0 -55.0,50.0 l115.0,10.0 -5.0,-35.0 l-45.0,-45.0 m-155.0,80.0 l0.0,0.0 " fill="none" stroke="black" stroke-width="1" /></svg>