<?xml version="1.0" encoding="utf-8" ?>
<svg baseProfile="full" height="68.475258089602" version="1.1" width="94.06764866784215" xmlns="http://www.w3.org/2000/svg" xmlns:ev="http://www.w3.org/2001/xml-events" xmlns:xlink="http://www.w3.org/1999/xlink"><defs /><rect fill="white" height="68.475258089602" width="94.06764866784215" x="0" y="0" /><path d="M31.3652166351676,39.75844572298229 m12.47342824935913,0.28124362230300903 l2.838548719882965,-0.35584036260843277 2.073040157556534,-0.834941491484642 l1.8086077272891998,-1.7578069865703583 0.7739326357841492,-2.690916955471039 l-0.2937646955251694,-3.1457513570785522 -1.6891264915466309,-2.6211941242218018 l-1.9785800576210022,-1.6114643216133118 -2.6176035404205322,-1.1771180480718613 l-3.308596611022949,-0.738789439201355 -6.8989211320877075,-0.10586625896394253 l-3.0453112721443176,0.5946678295731544 -2.8359952569007874,1.2255504727363586 l-2.0806655287742615,1.7521288990974426 -1.2737543880939484,2.211139351129532 l-0.31045515090227127,2.4345313012599945 0.6361395120620728,2.132808566093445 l1.5980158746242523,1.9437263906002045 2.9403486847877502,1.6700264811515808 l2.8407496213912964,0.6725336611270905 m3.957047462463379,-6.958364248275757 l-0.07007324136793613,3.916407823562622 0.046404292806982994,6.880101561546326 l6.529700756072998,-0.00256520725088194 4.415865242481232,-0.5686759203672409 l0.2934509888291359,-0.5417297407984734 -1.5194889903068542,-6.298763155937195 l-0.79938143491745,-3.8828304409980774 -0.6078744307160378,-0.3909294307231903 l-5.4252320528030396,0.7677754014730453 -3.299769163131714,0.7597528398036957 m4.925428628921509,1.4821365475654602 l-0.07317541167140007,2.6350608468055725 1.9170065224170685,0.6105561554431915 l3.564881980419159,-0.030562470201402903 0.361950621008873,-0.47852907329797745 l-0.1984839327633381,-1.1074687540531158 -1.0090634226799011,-1.2324880808591843 l-4.35548335313797,0.10499701835215092 -0.2364278957247734,0.5058896914124489 m5.750764012336731,-0.06691941060125828 l3.8612398505210876,-0.7556520402431488 6.901357173919678,-1.363469809293747 l6.123323440551758,-1.153208389878273 4.468306005001068,-0.9603459388017654 m-24.102764129638672,7.61452317237854 l10.413950681686401,-1.086280420422554 8.923006653785706,-1.5669867396354675 l5.295928120613098,-0.3754996880888939 m-33.19623947143555,0.475250743329525 l-1.522446721792221,-0.5400507897138596 " fill="none" stroke="black" stroke-width="1" /></svg>