<?xml version="1.0" encoding="utf-8" ?>
<svg baseProfile="full" height="1035.0" version="1.1" width="835.0" xmlns="http://www.w3.org/2000/svg" xmlns:ev="http://www.w3.org/2001/xml-events" xmlns:xlink="http://www.w3.org/1999/xlink"><defs /><rect fill="white" height="1035.0" width="835.0" x="0" y="0" /><path d="M115.0,110.0 m15.0,-20.0 l145.0,-45.0 160.0,-10.0 l75.0,5.0 190.0,130.0 l80.0,95.0 0.0,90.0 l-30.0,100.0 -130.0,235.0 l-65.0,85.0 -35.0,20.0 l-70.0,10.0 -140.0,0.0 l-125.0,-85.0 -85.0,-110.0 l-60.0,-170.0 -15.0,-195.0 l55.0,-125.0 30.0,-30.0 l85.0,-45.0 m145.0,155.0 l80.0,-20.0 55.0,0.0 l-35.0,10.0 -45.0,-20.0 m395.0,85.0 l0.0,25.0 -10.0,-25.0 l-30.0,-10.0 -85.0,45.0 l145.0,5.0 m-80.0,210.0 l-10.0,-30.0 10.0,-45.0 l5.0,30.0 -20.0,25.0 l-60.0,10.0 -20.0,-25.0 m-140.0,220.0 l-50.0,-30.0 -30.0,125.0 l-40.0,-15.0 -25.0,-80.0 l5.0,50.0 m-150.0,-335.0 l-10.0,50.0 -20.0,10.0 l-45.0,-55.0 m65.0,-195.0 l0.0,-20.0 m260.0,235.0 l20.0,25.0 -35.0,25.0 l-20.0,-10.0 -10.0,-45.0 m60.0,-10.0 l-30.0,-130.0 10.0,-100.0 l45.0,-160.0 m25.0,455.0 l115.0,5.0 70.0,20.0 m-435.0,330.0 l-25.0,5.0 -65.0,170.0 m535.0,-305.0 l5.0,75.0 40.0,75.0 l5.0,60.0 -5.0,20.0 l-30.0,-5.0 -85.0,-85.0 l60.0,15.0 -40.0,-135.0 l25.0,210.0 m-490.0,-115.0 l20.0,0.0 10.0,70.0 l-25.0,55.0 -30.0,15.0 " fill="none" stroke="black" stroke-width="1" /></svg>