<?xml version="1.0" encoding="utf-8" ?>
<svg baseProfile="full" height="65.15680648386478" version="1.1" width="71.47515929071233" xmlns="http://www.w3.org/2000/svg" xmlns:ev="http://www.w3.org/2001/xml-events" xmlns:xlink="http://www.w3.org/1999/xlink"><defs /><rect fill="white" height="65.15680648386478" width="71.47515929071233" x="0" y="0" /><path d="M33.2413266482763,26.644345596432686 m0.4081544280052185,-0.42145296931266785 l3.0136334896087646,-1.0148800164461136 3.8007646799087524,-0.20801261067390442 l2.1278297901153564,0.6805501878261566 2.1057960391044617,1.8002891540527344 l1.3483715057373047,2.63645201921463 0.42928270995616913,3.1568872928619385 l-0.27148909866809845,1.866222470998764 -1.2475129216909409,2.3374731838703156 l-1.4229939877986908,1.3667075335979462 -1.676948219537735,0.8355258405208588 l-2.859773635864258,0.4766988009214401 -3.507450819015503,-0.39906762540340424 l-2.255672961473465,-0.9642550349235535 -2.3096823692321777,-2.0615047216415405 l-1.1515457183122635,-1.9751256704330444 -0.479479543864727,-2.070503681898117 l0.29304660856723785,-3.0636614561080933 1.1490287631750107,-2.0663605630397797 l2.1440334618091583,-1.8321409821510315 m4.353940784931183,6.180480718612671 l0.521070621907711,-0.08884444832801819 0.1754227839410305,0.46997953206300735 l-0.48289988189935684,0.819460079073906 -0.02214760286733508,-0.6904249638319016 l0.40677931159734726,-0.1488671824336052 -0.3279896453022957,0.42910024523735046 m-0.5665230751037598,-4.480980038642883 l0.0861835666000843,0.5752203613519669 -0.21257303655147552,0.851471871137619 l-0.19164526835083961,0.3212818503379822 0.5913614854216576,-0.6492804735898972 l0.4322114959359169,-0.08474509231746197 m-0.15006044879555702,-1.3345198333263397 l-0.061080451123416424,0.02179056406021118 -0.46478278934955597,1.1381641030311584 l-0.33515293151140213,0.2077239751815796 m-0.45587655156850815,-0.866643413901329 l1.6210262477397919,-0.0013792621030006558 0.047682574950158596,0.9213438630104065 l-0.9805276244878769,0.5933923646807671 -0.2924160659313202,-0.3807743266224861 l0.6249362602829933,-0.07494380697607994 m-1.6053512692451477,-1.0137652605772018 l-0.2279847487807274,-0.08477720431983471 -0.4363810271024704,1.0605400055646896 l-0.3046194277703762,0.21153904497623444 m1.5358541905879974,-2.38735169172287 l0.2737155929207802,0.9747598320245743 0.12614991515874863,0.42268555611371994 m-0.6723133474588394,-1.4524176716804504 l0.7871416211128235,-0.3052430972456932 0.06244238466024399,0.9157460927963257 l-0.6006960943341255,0.22446954622864723 m-0.23016121238470078,-0.8265086263418198 l1.3605508208274841,-0.6587056815624237 0.35826757550239563,0.6313694268465042 l-0.7613898813724518,0.600496269762516 m-2.077561616897583,-0.3693847730755806 l-3.2790538668632507,-0.3854065015912056 -2.9329127073287964,-0.4828617349267006 l-1.1150111258029938,0.10235513560473919 -1.119847223162651,0.7845659554004669 l-1.1086352169513702,1.9762206077575684 -0.2278619445860386,1.4955157041549683 l0.4518161341547966,1.2023858726024628 1.0974451154470444,0.8818148076534271 l2.6079729199409485,0.7801771908998489 3.7654557824134827,0.00027432981369202025 l3.2000860571861267,-1.2716716527938843 m-3.2312440872192383,-4.654464423656464 l-0.23490559309720993,2.82494455575943 -0.16958128660917282,3.037068545818329 l-0.09057378396391869,1.5491251647472382 0.1034898404031992,0.6569305062294006 m3.8291412591934204,-8.076414465904236 l0.2243001013994217,2.9171186685562134 0.24343155324459076,3.663977086544037 l-0.08970235474407673,1.4887815713882446 -0.31022539362311363,0.33753637224435806 l-1.239878460764885,-0.49906175583601 " fill="none" stroke="black" stroke-width="1" /></svg>