<?xml version="1.0" encoding="utf-8" ?>
<svg baseProfile="full" height="73.15228946506977" version="1.1" width="70.09839598089457" xmlns="http://www.w3.org/2000/svg" xmlns:ev="http://www.w3.org/2001/xml-events" xmlns:xlink="http://www.w3.org/1999/xlink"><defs /><rect fill="white" height="73.15228946506977" width="70.09839598089457" x="0" y="0" /><path d="M34.999703764915466,35.92020601441618 m-2.414054274559021,-1.8289510905742645 l-1.5269389748573303,-0.8110064268112183 -2.6906758546829224,-0.11575787328183651 l-1.6532175242900848,0.93426913022995 -1.0436151176691055,1.4381618797779083 l-0.6712020188570023,2.5240933895111084 0.3990381583571434,3.3810633420944214 l2.2872602939605713,2.9968678951263428 2.5981125235557556,1.7955660820007324 l5.7044535875320435,1.9174213707447052 3.8056206703186035,0.0003557518357411027 l1.5791474282741547,-0.7358906418085098 0.8755934983491898,-1.0093102604150772 m-7.213237881660461,-10.576939582824707 l0.7445049285888672,-0.6963027268648148 1.4071865379810333,-0.5677343159914017 l2.523065507411957,-0.24941939860582352 1.850595474243164,0.4489311948418617 l1.9689275324344635,1.4291195571422577 0.9349897503852844,1.3581368327140808 l0.633137971162796,2.352662533521652 -2.648421286721714e-05,2.4134692549705505 l-0.5187403410673141,1.4162267744541168 -0.9165515005588531,1.0555799305438995 l-3.083448112010956,1.5599310398101807 -4.042430818080902,0.4092200845479965 m-2.854187488555908,-11.715956926345825 l-0.3371676802635193,-2.0618468523025513 -0.6879514455795288,-2.2482791543006897 l-0.6569399684667587,-1.9634334743022919 -0.6648452579975128,-1.6045424342155457 l-0.7547440379858017,-1.2527672946453094 -0.8790614455938339,-0.9131436049938202 m3.451668918132782,7.603828310966492 l0.21311599761247635,-1.2150196731090546 0.9259788691997528,-1.461798995733261 l1.2904077768325806,-1.0460123419761658 1.8299756944179535,-0.5664108321070671 l1.1778574436903,0.19549602642655373 0.9803624451160431,1.0747086256742477 l0.2883992902934551,1.1301711946725845 -0.5240486562252045,1.7195504903793335 l-1.6260121762752533,1.7082904279232025 m-3.2573124766349792,-1.9839878380298615 l-0.3330672159790993,-0.9234008938074112 0.01623707008548081,-1.676679253578186 l0.363963283598423,-0.6421899795532227 " fill="none" stroke="black" stroke-width="1" /></svg>