<?xml version="1.0" encoding="utf-8" ?>
<svg baseProfile="full" height="1180.0" version="1.1" width="1105.0" xmlns="http://www.w3.org/2000/svg" xmlns:ev="http://www.w3.org/2001/xml-events" xmlns:xlink="http://www.w3.org/1999/xlink"><defs /><rect fill="white" height="1180.0" width="1105.0" x="0" y="0" /><path d="M530.0,535.0 m-120.0,-90.0 l-80.0,-40.0 -135.0,-5.0 l-55.0,20.0 -55.0,50.0 l-50.0,150.0 -10.0,135.0 l65.0,115.0 225.0,215.0 l185.0,70.0 200.0,-5.0 l145.0,-35.0 35.0,-30.0 l15.0,-55.0 -5.0,-50.0 l-25.0,-45.0 m-360.0,-420.0 l160.0,-130.0 75.0,-25.0 l85.0,-5.0 100.0,55.0 l80.0,90.0 50.0,85.0 l25.0,75.0 0.0,95.0 l-85.0,225.0 -45.0,45.0 l-180.0,50.0 m-315.0,-605.0 l20.0,-95.0 -15.0,-110.0 l-45.0,-140.0 -65.0,-80.0 l185.0,-20.0 40.0,270.0 l0.0,105.0 -10.0,55.0 l-20.0,20.0 m35.0,-60.0 l5.0,-120.0 40.0,-75.0 l50.0,-40.0 20.0,35.0 l-20.0,190.0 -40.0,30.0 l-85.0,20.0 " fill="none" stroke="black" stroke-width="1" /></svg>