<?xml version="1.0" encoding="utf-8" ?>
<svg baseProfile="full" height="90.07675796281546" version="1.1" width="94.78380360640585" xmlns="http://www.w3.org/2000/svg" xmlns:ev="http://www.w3.org/2001/xml-events" xmlns:xlink="http://www.w3.org/1999/xlink"><defs /><rect fill="white" height="90.07675796281546" width="94.78380360640585" x="0" y="0" /><path d="M54.94422334815681,37.32686610822199 m-2.6412433385849,-2.967917323112488 l-1.6425532102584839,-0.8858160674571991 -1.609906405210495,-0.445593036711216 l-3.7653344869613647,2.2851345704566484e-06 -3.7278226017951965,0.7172299921512604 l-4.4574978947639465,1.764661967754364 -4.430384337902069,2.761090099811554 l-3.770059049129486,3.690410554409027 -2.662317156791687,4.435820281505585 l-1.236913576722145,4.687918424606323 -0.00019129003703710623,4.7603440284729 l5.113964080810547,6.629995703697205 2.3309674859046936,1.1926569044589996 l2.6290521025657654,0.7634417712688446 6.513907313346863,0.645301565527916 l6.726069450378418,0.00034470307582523674 5.868656635284424,-0.9943890571594238 l3.0203768610954285,-1.1894748359918594 3.3426526188850403,-2.398785948753357 l1.8285773694515228,-2.403956353664398 1.376788467168808,-3.9606821537017822 l0.42589444667100906,-5.066052079200745 -1.3522355258464813,-4.214736521244049 l-2.4106036126613617,-3.6811167001724243 -3.305685818195343,-2.974056601524353 l-2.758563458919525,-1.3193660974502563 -2.718932628631592,-0.48647504299879074 m-16.635982990264893,1.6678768396377563 l-2.6742157340049744,-2.443820834159851 -1.7960253357887268,-1.9034682214260101 l-1.2795095145702362,-1.976669430732727 -0.6901823729276657,-2.137095630168915 l0.16184717416763306,-2.0410525798797607 1.0918935388326645,-1.3328802585601807 l2.860864996910095,-1.169770434498787 4.2671409249305725,-0.050786021165549755 l3.3372068405151367,1.4854645729064941 2.589455544948578,2.48097226023674 l1.2950749695301056,3.999313712120056 -0.2649398520588875,2.2177180647850037 m11.30280613899231,0.2527111768722534 l0.1373560819774866,-3.034326136112213 0.7893116027116776,-2.1190759539604187 l3.045400381088257,-3.07184636592865 2.235218733549118,-0.8917673677206039 l3.014552891254425,0.03274633549153805 2.8119969367980957,1.3723449409008026 l1.3919244706630707,1.3067440688610077 1.1617223918437958,2.422983944416046 l-6.031016710039694e-05,2.8590628504753113 -0.6152159720659256,1.5192124247550964 l-1.647527664899826,1.7705516517162323 -2.4854186177253723,1.2977078557014465 l-2.9896381497383118,0.5918523296713829 -2.3645879328250885,-5.96925065110554e-05 l-1.5971921384334564,-0.7854289561510086 -1.3896368443965912,-1.8007582426071167 l-0.39917342364788055,-1.5888325870037079 0.21642344072461128,-1.2958469986915588 l1.4081314206123352,-1.4295952022075653 " fill="none" stroke="black" stroke-width="1" /></svg>