<?xml version="1.0" encoding="utf-8" ?>
<svg baseProfile="full" height="2275.0" version="1.1" width="2215.0" xmlns="http://www.w3.org/2000/svg" xmlns:ev="http://www.w3.org/2001/xml-events" xmlns:xlink="http://www.w3.org/1999/xlink"><defs /><rect fill="white" height="2275.0" width="2215.0" x="0" y="0" /><path d="M1720.0,745.0 m-130.0,-145.0 l-80.0,-50.0 -45.0,-10.0 l-125.0,-15.0 -355.0,0.0 l-185.0,60.0 -265.0,145.0 l-240.0,190.0 -115.0,205.0 l-45.0,230.0 0.0,370.0 l30.0,105.0 220.0,280.0 l110.0,105.0 155.0,35.0 l570.0,0.0 285.0,-30.0 l95.0,-25.0 125.0,-55.0 l45.0,-40.0 165.0,-245.0 l55.0,-130.0 35.0,-320.0 l0.0,-355.0 -55.0,-185.0 l-35.0,-65.0 -215.0,-70.0 m-1180.0,-70.0 l-85.0,-215.0 -40.0,-10.0 l-195.0,100.0 -85.0,25.0 l-90.0,5.0 -20.0,-65.0 l0.0,-130.0 20.0,-70.0 l365.0,-200.0 275.0,-15.0 l95.0,55.0 20.0,95.0 l-285.0,110.0 m1095.0,280.0 l70.0,-55.0 110.0,-160.0 l50.0,-40.0 -85.0,-20.0 l-140.0,-95.0 -60.0,-70.0 l-30.0,-55.0 5.0,-30.0 l85.0,-65.0 135.0,-10.0 l290.0,105.0 110.0,120.0 l40.0,135.0 0.0,135.0 l-30.0,55.0 -55.0,15.0 l-160.0,0.0 -80.0,-30.0 l-35.0,-30.0 " fill="none" stroke="black" stroke-width="1" /></svg>