<?xml version="1.0" encoding="utf-8" ?>
<svg baseProfile="full" height="65.30092980712652" version="1.1" width="62.51756210811436" xmlns="http://www.w3.org/2000/svg" xmlns:ev="http://www.w3.org/2001/xml-events" xmlns:xlink="http://www.w3.org/1999/xlink"><defs /><rect fill="white" height="65.30092980712652" width="62.51756210811436" x="0" y="0" /><path d="M31.4275904558599,33.15367917646654 m-1.399429589509964,1.1602652072906494 l-2.6360800862312317,0.9001275897026062 -1.3355369865894318,-0.10002379305660725 l-0.7922989130020142,-0.7585044950246811 -0.2642448805272579,-1.4336654543876648 l1.8657959997653961,-4.0000805258750916 3.051597476005554,-2.5109127163887024 l2.7986693382263184,-0.9955769777297974 1.7943476140499115,-0.011679978342726827 l0.9804164618253708,0.6341224908828735 0.6474380195140839,1.1139952391386032 l0.17726723104715347,1.4216025173664093 -0.9305319935083389,2.8555789589881897 l-1.5568724274635315,1.8319867551326752 -2.578132152557373,1.4500589668750763 l-1.908458024263382,0.26650717481970787 m-1.7359212040901184,-4.265879392623901 l-0.04244721494615078,2.3983415961265564 -0.7142134755849838,7.190987467765808 l5.394125580787659,-0.4722016304731369 4.951739013195038,-0.6945634633302689 l0.32274186611175537,-0.4832809045910835 -0.044332919642329216,-7.194334864616394 l-0.7144629955291748,-2.408207356929779 m-8.278015851974487,2.9669013619422913 l-1.187719777226448,-0.5848713219165802 -0.7205279916524887,-0.8933895081281662 l-0.43745115399360657,-1.2925656139850616 -0.07133498787879944,-1.4787256717681885 l0.6484734266996384,-1.2790633738040924 1.5611423552036285,-1.0470714420080185 l2.0354536175727844,-0.4395560175180435 2.0156072080135345,0.03692032769322395 l2.2033071517944336,0.8796510845422745 1.4502784609794617,1.3265922665596008 l0.8271957188844681,1.8260632455348969 0.19426092505455017,2.0176783204078674 l-0.5090167000889778,1.4680315554141998 -0.8162273466587067,0.8250215649604797 l-1.7287622392177582,0.5917623266577721 -2.269085794687271,-0.026763330679386854 l-1.8595337867736816,-0.8007660508155823 -0.9756527096033096,-0.9572353959083557 l-0.4413073882460594,-1.1921272426843643 0.019676308147609234,-1.2299121916294098 l0.9052764624357224,-1.2943542003631592 " fill="none" stroke="black" stroke-width="1" /></svg>