<?xml version="1.0" encoding="utf-8" ?>
<svg baseProfile="full" height="690.0" version="1.1" width="895.0" xmlns="http://www.w3.org/2000/svg" xmlns:ev="http://www.w3.org/2001/xml-events" xmlns:xlink="http://www.w3.org/1999/xlink"><defs /><rect fill="white" height="690.0" width="895.0" x="0" y="0" /><path d="M355.0,30.0 m-70.0,60.0 l-125.0,70.0 m175.0,-120.0 l-110.0,85.0 55.0,-60.0 m10.0,-20.0 l50.0,45.0 25.0,125.0 m190.0,-25.0 l195.0,-20.0 m-70.0,5.0 l30.0,-95.0 m25.0,-40.0 l0.0,0.0 m0.0,0.0 l10.0,-15.0 m0.0,0.0 l125.0,225.0 m-240.0,-40.0 l-80.0,-20.0 -125.0,0.0 m-280.0,-35.0 l-85.0,100.0 -35.0,145.0 l0.0,60.0 190.0,145.0 l160.0,55.0 180.0,5.0 l55.0,-15.0 30.0,-30.0 l65.0,-110.0 35.0,-130.0 l0.0,-50.0 -55.0,-55.0 m-285.0,115.0 l0.0,10.0 m-50.0,20.0 l-20.0,-25.0 -130.0,-60.0 l-65.0,-75.0 m165.0,135.0 l-140.0,45.0 m140.0,-5.0 l-45.0,65.0 m215.0,-100.0 l20.0,-25.0 95.0,-30.0 " fill="none" stroke="black" stroke-width="1" /></svg>