<?xml version="1.0" encoding="utf-8" ?>
<svg baseProfile="full" height="62.716002967208624" version="1.1" width="67.67680087126791" xmlns="http://www.w3.org/2000/svg" xmlns:ev="http://www.w3.org/2001/xml-events" xmlns:xlink="http://www.w3.org/1999/xlink"><defs /><rect fill="white" height="62.716002967208624" width="67.67680087126791" x="0" y="0" /><path d="M33.660178780555725,36.80818868800998 m-2.2053782641887665,-0.23122748360037804 l-2.1754200756549835,-0.9318844974040985 -2.8810417652130127,-1.7829418182373047 l-0.9640707075595856,-1.1393510550260544 -0.43426796793937683,-1.3735979795455933 l0.05450592376291752,-1.4581799507141113 0.7578396797180176,-1.3955271244049072 l3.162669837474823,-2.39385187625885 4.217490553855896,-1.1016269028186798 l4.25427109003067,0.18402989953756332 2.172371745109558,0.7998858392238617 l1.6342853009700775,1.303035169839859 1.0382670909166336,1.8071100115776062 l0.3850996494293213,2.20456525683403 -0.2497842162847519,2.098662406206131 l-1.1092424392700195,1.8406249582767487 -1.7242743074893951,1.4317205548286438 l-2.2076238691806793,0.8621209859848022 -2.45195209980011,0.18424788489937782 l-2.039981037378311,-0.4548419266939163 -1.536373496055603,-1.0447588562965393 m-0.16974909231066704,-8.340518474578857 l0.08741112425923347,0.1299331709742546 0.2392948605120182,0.008937471429817379 l-0.026692829560488462,0.052194916643202305 -0.08703351020812988,0.04494909197092056 l0.015019932761788368,-0.22829130291938782 0.029733336996287107,-0.17292048782110214 l-0.07992282509803772,0.13666058890521526 0.1093193981796503,-0.11908931657671928 l0.013347732601687312,-0.01571088330820203 m5.139526128768921,-0.31598787754774094 l-0.08656388148665428,0.04356205463409424 0.4053402692079544,-0.20303906872868538 l-0.17309030517935753,-0.10999633930623531 -0.2083592489361763,0.36563314497470856 l0.2681962586939335,-0.04169426392763853 -0.060038347728550434,-0.14234852977097034 l-0.2398814633488655,0.23654114454984665 " fill="none" stroke="black" stroke-width="1" /></svg>