<?xml version="1.0" encoding="utf-8" ?>
<svg baseProfile="full" height="1095.0" version="1.1" width="955.0" xmlns="http://www.w3.org/2000/svg" xmlns:ev="http://www.w3.org/2001/xml-events" xmlns:xlink="http://www.w3.org/1999/xlink"><defs /><rect fill="white" height="1095.0" width="955.0" x="0" y="0" /><path d="M495.0,975.0 m-110.0,-10.0 l-180.0,-45.0 -115.0,-95.0 l-35.0,-75.0 0.0,-170.0 l45.0,-70.0 140.0,-110.0 l105.0,-35.0 155.0,-20.0 l165.0,15.0 115.0,80.0 l65.0,70.0 70.0,170.0 l15.0,120.0 -5.0,125.0 l-55.0,75.0 -45.0,30.0 l-135.0,35.0 -125.0,5.0 l-180.0,-40.0 -100.0,-55.0 m-105.0,-580.0 l-30.0,15.0 -90.0,-10.0 l-35.0,-110.0 25.0,-105.0 l80.0,-65.0 110.0,-10.0 l100.0,30.0 95.0,110.0 m10.0,-45.0 l50.0,-70.0 95.0,-85.0 l110.0,-25.0 90.0,5.0 l35.0,40.0 5.0,65.0 l-25.0,75.0 -35.0,35.0 l-155.0,20.0 " fill="none" stroke="black" stroke-width="1" /></svg>