<?xml version="1.0" encoding="utf-8" ?>
<svg baseProfile="full" height="57.994357123970985" version="1.1" width="79.42445096775373" xmlns="http://www.w3.org/2000/svg" xmlns:ev="http://www.w3.org/2001/xml-events" xmlns:xlink="http://www.w3.org/1999/xlink"><defs /><rect fill="white" height="57.994357123970985" width="79.42445096775373" x="0" y="0" /><path d="M26.29917425319036,28.285854160785675 m0.6320043653249741,-0.4335242509841919 l7.781494855880737,-1.9010341167449951 19.349552392959595,-0.951295793056488 l0.36222510039806366,0.5617774650454521 -0.13611136004328728,5.303085446357727 l-0.6046108156442642,0.28481245040893555 -13.189395666122437,0.80989770591259 l-10.610789060592651,0.6685475260019302 -4.472422301769257,0.36623653024435043 l-0.4110043868422508,-0.34900281578302383 -0.00011737673958123196,-2.406531423330307 l0.6374450027942657,-2.863650321960449 m9.470521211624146,-0.6255825608968735 l-0.6058470532298088,2.563484013080597 0.04586482420563698,1.8447065353393555 l0.525834709405899,0.30509183183312416 3.8398507237434387,-0.38596153259277344 l0.25546977296471596,-3.0198726058006287 -3.0689164996147156,-1.3713417947292328 l-1.6100241243839264,0.16057033091783524 m7.461145520210266,0.5426853150129318 l-0.47812212258577347,2.658749520778656 0.4029804840683937,1.5172885358333588 l2.988852858543396,-0.1308489590883255 0.47428444027900696,-2.845551073551178 l-0.5198751017451286,-0.6157827749848366 -3.246985375881195,-0.3352060914039612 m-3.57340008020401,1.911054402589798 l3.8170769810676575,0.2439378947019577 4.955171644687653,0.00438783346908167 l4.726665914058685,-0.16333194449543953 m-16.649436950683594,-0.4687368869781494 l-6.75894558429718,1.371963620185852 " fill="none" stroke="black" stroke-width="1" /></svg>