<?xml version="1.0" encoding="utf-8" ?>
<svg baseProfile="full" height="1000.0" version="1.1" width="2540.0" xmlns="http://www.w3.org/2000/svg" xmlns:ev="http://www.w3.org/2001/xml-events" xmlns:xlink="http://www.w3.org/1999/xlink"><defs /><rect fill="white" height="1000.0" width="2540.0" x="0" y="0" /><path d="M160.0,205.0 m30.0,-20.0 l465.0,-85.0 710.0,-60.0 l30.0,65.0 20.0,190.0 l-430.0,15.0 -520.0,110.0 l-205.0,25.0 -20.0,-30.0 l-20.0,-170.0 m1180.0,-220.0 l20.0,25.0 160.0,-5.0 l35.0,80.0 0.0,50.0 l-75.0,90.0 -100.0,45.0 l-75.0,10.0 m50.0,-235.0 l50.0,35.0 25.0,50.0 l-5.0,95.0 m-1315.0,-45.0 l-60.0,-10.0 -50.0,25.0 l-20.0,30.0 -15.0,125.0 l10.0,30.0 55.0,30.0 l130.0,-10.0 m-45.0,-200.0 l-90.0,45.0 m0.0,20.0 l2430.0,670.0 " fill="none" stroke="black" stroke-width="1" /></svg>