<?xml version="1.0" encoding="utf-8" ?>
<svg baseProfile="full" height="77.8217105573276" version="1.1" width="72.09839488060538" xmlns="http://www.w3.org/2000/svg" xmlns:ev="http://www.w3.org/2001/xml-events" xmlns:xlink="http://www.w3.org/1999/xlink"><defs /><rect fill="white" height="77.8217105573276" width="72.09839488060538" x="0" y="0" /><path d="M44.06511269509792,31.606872325028235 m-1.375037431716919,-1.3617976009845734 l-2.4620911478996277,-1.2267536669969559 -1.1946626007556915,-0.296902135014534 l-2.2359271347522736,0.00031901468901196495 -2.4070605635643005,0.6882178783416748 l-2.088656574487686,1.1511362344026566 -2.6855656504631042,2.312987297773361 l-1.893078237771988,2.39532470703125 -1.9644182920455933,3.879290223121643 l-0.7586150616407394,3.02546888589859 1.2832616675950703e-05,4.056237637996674 l1.6380329430103302,3.433005213737488 1.9053182005882263,1.98831707239151 l2.1146930754184723,1.1699874699115753 7.043575048446655,-0.003072396502830088 l1.564420759677887,-0.590880773961544 1.5214112401008606,-1.0399463772773743 l1.2645404040813446,-1.4000412821769714 0.9676261991262436,-1.7390653491020203 l0.9240636229515076,-3.245357871055603 0.37230130285024643,-4.111602008342743 l-0.0001637909736018628,-3.6427441239356995 -0.6922724843025208,-3.3038899302482605 l-0.8208151906728745,-1.8465764820575714 -0.9758783131837845,-0.9945259988307953 m-11.54604434967041,1.3801684975624084 l-0.3676558658480644,-0.6447804719209671 -0.5961877480149269,-1.4682561159133911 l-0.3005320206284523,-2.0265331864356995 0.4244624450802803,-1.7469000816345215 l0.9557536244392395,-1.0334310680627823 1.147877722978592,-0.3642755374312401 l1.5510687232017517,0.6926904618740082 1.2249592691659927,1.8772272765636444 l0.6607463210821152,2.533830404281616 m5.076768398284912,-0.45827358961105347 l2.8499436378479004,-2.6561754941940308 1.7241917550563812,-0.6250971555709839 l1.548452228307724,0.5342363938689232 0.9119560569524765,1.8828202784061432 l0.005768832634203136,2.672441601753235 -1.0933830589056015,2.2770951688289642 m-9.862274527549744,3.843855559825897 l-0.6444527208805084,-0.011811491567641497 m2.1405965089797974,0.2565973810851574 l-0.4978889971971512,-2.0473451912403107 -0.17190661281347275,-8.070870637893677 m0.8138670772314072,11.361364126205444 l6.577889919281006,2.815776765346527 " fill="none" stroke="black" stroke-width="1" /></svg>