<?xml version="1.0" encoding="utf-8" ?>
<svg baseProfile="full" height="1510.0" version="1.1" width="1230.0" xmlns="http://www.w3.org/2000/svg" xmlns:ev="http://www.w3.org/2001/xml-events" xmlns:xlink="http://www.w3.org/1999/xlink"><defs /><rect fill="white" height="1510.0" width="1230.0" x="0" y="0" /><path d="M1030.0,380.0 m-75.0,-70.0 l-130.0,-65.0 -60.0,-20.0 l-95.0,0.0 -125.0,45.0 l-60.0,40.0 -185.0,145.0 l-145.0,155.0 -105.0,205.0 l-25.0,160.0 0.0,135.0 l30.0,115.0 135.0,190.0 l145.0,50.0 330.0,20.0 l110.0,-10.0 80.0,-30.0 l100.0,-80.0 25.0,-40.0 l45.0,-155.0 45.0,-395.0 l0.0,-115.0 -50.0,-265.0 l-20.0,-50.0 -50.0,-55.0 m-50.0,-40.0 l0.0,-25.0 45.0,-45.0 l90.0,-35.0 50.0,0.0 l65.0,75.0 45.0,100.0 l10.0,25.0 -15.0,30.0 l-185.0,130.0 m-560.0,-235.0 l-15.0,-195.0 100.0,-50.0 l90.0,50.0 80.0,70.0 l0.0,60.0 m110.0,0.0 l5.0,-155.0 -35.0,-20.0 m-90.0,450.0 l-165.0,525.0 0.0,30.0 l160.0,195.0 m-160.0,-230.0 " fill="none" stroke="black" stroke-width="1" /></svg>