<?xml version="1.0" encoding="utf-8" ?>
<svg baseProfile="full" height="86.91804953643441" version="1.1" width="138.99895705282688" xmlns="http://www.w3.org/2000/svg" xmlns:ev="http://www.w3.org/2001/xml-events" xmlns:xlink="http://www.w3.org/1999/xlink"><defs /><rect fill="white" height="86.91804953643441" width="138.99895705282688" x="0" y="0" /><path d="M80.56948501616716,44.48559746146202 m-0.23181384429335594,-8.951081037521362 l-0.6677613407373428,-6.810741424560547 0.8845774829387665,-3.226712644100189 l0.7448049634695053,-0.4970623552799225 1.18999682366848,0.07231440395116806 l1.9348807632923126,1.222732663154602 1.283210664987564,1.9164784252643585 l1.1720089614391327,3.7216192483901978 0.4774785414338112,4.3184903264045715 l0.27987632900476456,5.688825249671936 -0.18957054242491722,3.945554792881012 l-0.7220009714365005,1.9592125713825226 m-5.722399353981018,-11.333507299423218 l0.321444496512413,-0.162871852517128 3.228905200958252,-0.5553708598017693 l4.4786083698272705,-0.6155693903565407 4.790670573711395,-0.5132218077778816 l4.433953762054443,-0.19502252340316772 4.146964848041534,-0.0214951834641397 l4.195195734500885,0.14490804634988308 m-17.07687020301819,2.2282297909259796 l3.416070342063904,-0.07029976695775986 6.985993385314941,-0.1172039844095707 l14.075247049331665,-0.8232022076845169 m-29.57948923110962,-0.6183131411671638 l-6.3014549016952515,-0.7320839166641235 -11.408450603485107,-1.4069396257400513 l-10.02251386642456,-1.3697251677513123 -3.6450964212417603,-0.45659199357032776 l-3.3927804231643677,-0.24256134405732155 -3.2971614599227905,0.18593430519104004 l-6.049004793167114,0.688936710357666 -2.850598096847534,0.5001645162701607 m37.6820969581604,9.549943804740906 l-1.6881348192691803,-0.1349283754825592 -4.004676043987274,-0.19049650058150291 l-17.957733869552612,-0.3157466650009155 -11.596165895462036,-0.44734764844179153 l-3.7839275598526,-0.2987911179661751 -3.1505239009857178,-0.3512275218963623 l-2.058827430009842,-0.5144292116165161 -2.0570358633995056,-0.8323338627815247 l-2.0288772881031036,-1.3597171008586884 -1.0149911791086197,-1.1584702134132385 l-0.7936103641986847,-1.9455355405807495 m38.02999973297119,3.492925465106964 l-0.6457363069057465,1.043848916888237 -1.6315895318984985,4.007120132446289 l-2.6564937829971313,6.786484718322754 -2.7306607365608215,6.625386476516724 l-1.2750650942325592,3.36954802274704 -0.282551646232605,1.6493996977806091 l0.7947329431772232,0.5825022235512733 4.0508052706718445,0.0004928515045321546 l7.198641896247864,-1.0870034247636795 7.678769826889038,-1.7230889201164246 l6.154493093490601,-1.8653634190559387 4.1894108057022095,-2.3217174410820007 l1.6270263493061066,-1.9167862832546234 0.8462691307067871,-2.1357543766498566 l0.9408678859472275,-10.96873164176941 -0.299919918179512,-4.7300124168396 l-1.452631801366806,-1.4602573215961456 m-19.713443517684937,2.462881952524185 l-6.450755596160889,-1.8058663606643677 -4.049709141254425,-1.4648517966270447 l-6.845337748527527,-2.8672409057617188 -4.526068568229675,-1.9706463813781738 l-3.20678174495697,-1.5606299042701721 -1.0651600360870361,-0.3678419440984726 l-2.1860001981258392,1.307336837053299 -1.1282364279031754,1.6395199298858643 l-0.8935119956731796,3.0890172719955444 0.24840569123625755,2.169455587863922 " fill="none" stroke="black" stroke-width="1" /></svg>