<?xml version="1.0" encoding="utf-8" ?>
<svg baseProfile="full" height="1880.0" version="1.1" width="5500.0" xmlns="http://www.w3.org/2000/svg" xmlns:ev="http://www.w3.org/2001/xml-events" xmlns:xlink="http://www.w3.org/1999/xlink"><defs /><rect fill="white" height="1880.0" width="5500.0" x="0" y="0" /><path d="M2265.0,1830.0 m-5.0,-455.0 l-40.0,-370.0 40.0,-90.0 l115.0,-30.0 55.0,0.0 l60.0,25.0 65.0,80.0 l0.0,195.0 -25.0,215.0 l0.0,220.0 20.0,195.0 m585.0,-95.0 l30.0,-55.0 130.0,-485.0 l5.0,-260.0 125.0,-90.0 l80.0,25.0 160.0,150.0 l80.0,135.0 60.0,515.0 l-5.0,125.0 m0.0,0.0 l-390.0,-5.0 -235.0,25.0 l-185.0,-5.0 m-445.0,40.0 l-85.0,-25.0 -105.0,0.0 l-225.0,45.0 m-925.0,-1095.0 l180.0,35.0 380.0,0.0 l365.0,-35.0 1235.0,-5.0 l710.0,-210.0 325.0,-210.0 l105.0,-95.0 45.0,-85.0 l0.0,-45.0 -55.0,-50.0 l-145.0,-25.0 -260.0,-10.0 l-300.0,105.0 -775.0,195.0 l-650.0,5.0 -305.0,30.0 l-30.0,15.0 -450.0,20.0 l-205.0,80.0 -115.0,125.0 m3115.0,-125.0 l70.0,50.0 155.0,20.0 l435.0,5.0 170.0,-55.0 l120.0,-75.0 140.0,-165.0 l10.0,-65.0 -125.0,20.0 l-435.0,165.0 -180.0,0.0 l-295.0,60.0 -205.0,10.0 l-310.0,-60.0 m-2495.0,-155.0 l-390.0,0.0 -730.0,200.0 l-180.0,110.0 -30.0,35.0 l-75.0,170.0 " fill="none" stroke="black" stroke-width="1" /></svg>