<?xml version="1.0" encoding="utf-8" ?>
<svg baseProfile="full" height="830.0" version="1.1" width="4315.0" xmlns="http://www.w3.org/2000/svg" xmlns:ev="http://www.w3.org/2001/xml-events" xmlns:xlink="http://www.w3.org/1999/xlink"><defs /><rect fill="white" height="830.0" width="4315.0" x="0" y="0" /><path d="M1450.0,40.0 m1135.0,-5.0 l10.0,160.0 -75.0,600.0 l-25.0,10.0 -860.0,-135.0 l-195.0,0.0 -15.0,-35.0 l-10.0,-575.0 75.0,-15.0 m950.0,90.0 l-195.0,25.0 -635.0,0.0 l-15.0,25.0 -25.0,300.0 l455.0,5.0 290.0,40.0 l25.0,-20.0 15.0,-55.0 l10.0,-125.0 45.0,-185.0 m175.0,-120.0 l250.0,40.0 600.0,0.0 l165.0,-25.0 610.0,-15.0 m-2785.0,5.0 l-170.0,25.0 -1230.0,0.0 m2495.0,745.0 l120.0,-20.0 1340.0,0.0 l115.0,-20.0 195.0,-5.0 m-2880.0,-85.0 l-925.0,5.0 -255.0,25.0 " fill="none" stroke="black" stroke-width="1" /></svg>