<?xml version="1.0" encoding="utf-8" ?>
<svg baseProfile="full" height="65.01022733747959" version="1.1" width="130.6334149837494" xmlns="http://www.w3.org/2000/svg" xmlns:ev="http://www.w3.org/2001/xml-events" xmlns:xlink="http://www.w3.org/1999/xlink"><defs /><rect fill="white" height="65.01022733747959" width="130.6334149837494" x="0" y="0" /><path d="M54.81759615242481,26.95263012778014 m20.22432565689087,-0.05222357343882322 l-0.6716573238372803,4.69757616519928 -0.8334186673164368,7.7203285694122314 l-0.8716354519128799,0.6919160485267639 -13.7811279296875,-0.42145028710365295 l-8.615276217460632,-1.1901979893445969 0.6677728891372681,-10.06308913230896 l0.7258050888776779,-3.3354899287223816 m7.402089834213257,4.843250811100006 l1.2763454020023346,0.10042289271950722 5.104386210441589,0.31942255795001984 l5.428043007850647,0.47544796019792557 4.884768426418304,0.49595464020967484 l2.819744050502777,0.5491854622960091 -1.4775237441062927,3.540777564048767 l-11.258397102355957,0.7094922661781311 -7.441161870956421,-0.28388381004333496 l-2.321179509162903,-0.4933461546897888 -0.31360700726509094,-0.6522093713283539 l0.7510151714086533,-3.0194026231765747 1.381174772977829,-2.0689311623573303 m6.070278882980347,-0.3477391228079796 l4.39765065908432,0.0229474063962698 18.81403923034668,-0.006381543353199959 l8.434875011444092,0.018567306688055396 m-34.419758319854736,3.061426281929016 l13.0479896068573,-0.8012782037258148 23.983166217803955,-0.048507051542401314 l7.407091856002808,0.2795295789837837 m-51.41624450683594,-1.156247928738594 l-9.946969747543335,0.3694802522659302 -17.017109394073486,0.13774631544947624 m38.364198207855225,1.5673163533210754 l-11.997606754302979,0.07247564848512411 -14.247889518737793,0.5935243517160416 l-14.371793270111084,0.66475510597229 " fill="none" stroke="black" stroke-width="1" /></svg>