<?xml version="1.0" encoding="utf-8" ?>
<svg baseProfile="full" height="95.45214533340186" version="1.1" width="77.87606002297252" xmlns="http://www.w3.org/2000/svg" xmlns:ev="http://www.w3.org/2001/xml-events" xmlns:xlink="http://www.w3.org/1999/xlink"><defs /><rect fill="white" height="95.45214533340186" width="77.87606002297252" x="0" y="0" /><path d="M25.134338941425085,70.45214533340186 m0.23479001596570015,-3.648604452610016 l-0.3691289573907852,-9.391582608222961 0.9626898169517517,-8.476389050483704 l13.185868263244629,-2.3854675889015198 10.503288507461548,-0.43583963066339493 l1.2951792776584625,0.5063173919916153 0.8059248328208923,1.0041466355323792 l0.6690973788499832,2.2605378925800323 0.3824756294488907,10.962189435958862 l0.07153631653636694,6.317543387413025 -5.936990976333618,1.2937885522842407 l-9.40564751625061,0.9298362582921982 -6.839019060134888,0.8025464415550232 l-3.661452829837799,0.24036113172769547 -0.8191858977079391,-0.20668551325798035 m4.585259258747101,-19.564592838287354 l0.02804580144584179,-5.566664338111877 -0.03164457157254219,-5.366643667221069 l2.137928605079651,-0.23817088454961777 9.338420629501343,-0.7472915202379227 l6.0285210609436035,-0.9407709538936615 0.44872306287288666,0.5923916772007942 l-0.05002580117434263,9.096356630325317 0.22244803607463837,3.761857748031616 m-13.288635015487671,-12.083679437637329 l-0.028425115160644054,-4.463910758495331 -0.30969250947237015,-3.896055221557617 l5.822751522064209,-0.2943609282374382 3.090265393257141,-0.41007041931152344 l0.058871651999652386,6.5690940618515015 -0.16031300649046898,2.6082643866539 m-6.411566138267517,-7.026023864746094 l-0.029612923972308636,-3.245876729488373 -0.06891848985105753,-3.5037097334861755 l2.470942586660385,-0.03967865835875273 2.4987436830997467,-0.46530816704034805 l0.057743280194699764,5.611426830291748 -0.09717375040054321,1.8483370542526245 m-4.7783079743385315,-1.5161541104316711 l-0.061336117796599865,-2.792608141899109 -0.06452733185142279,-2.9714590311050415 l1.8283762037754059,0.00966114574111998 0.4949288070201874,0.4336336627602577 l-0.05736201070249081,5.603882074356079 -0.16418617218732834,0.7526963949203491 m-3.5738196969032288,-0.387563593685627 l-0.6936008483171463,-1.2640012800693512 -0.07570391520857811,-1.5155425667762756 l0.34453727304935455,-1.0468654334545135 1.024564951658249,-0.8669494837522507 l0.8873951435089111,0.6286793947219849 0.34751974046230316,1.284661591053009 l0.01456538331694901,1.9533255696296692 -0.5745721235871315,1.6673928499221802 " fill="none" stroke="black" stroke-width="1" /></svg>