<?xml version="1.0" encoding="utf-8" ?>
<svg baseProfile="full" height="1705.0" version="1.1" width="1505.0" xmlns="http://www.w3.org/2000/svg" xmlns:ev="http://www.w3.org/2001/xml-events" xmlns:xlink="http://www.w3.org/1999/xlink"><defs /><rect fill="white" height="1705.0" width="1505.0" x="0" y="0" /><path d="M110.0,1680.0 m5.0,-175.0 l-85.0,-520.0 -5.0,-210.0 l825.0,-5.0 220.0,-45.0 l40.0,0.0 115.0,45.0 l195.0,0.0 -15.0,185.0 l5.0,210.0 50.0,205.0 l20.0,275.0 m-1105.0,-850.0 l-30.0,-5.0 -5.0,-135.0 l-50.0,-305.0 10.0,-10.0 m455.0,465.0 l35.0,-455.0 m470.0,365.0 l-20.0,-35.0 0.0,-95.0 l30.0,-395.0 10.0,-25.0 l15.0,0.0 m-1115.0,85.0 l10.0,-155.0 110.0,10.0 l35.0,15.0 20.0,35.0 l-5.0,65.0 -30.0,20.0 l-95.0,5.0 m480.0,70.0 l0.0,-85.0 70.0,-135.0 l25.0,-20.0 30.0,20.0 l40.0,70.0 25.0,65.0 l15.0,120.0 -30.0,20.0 l-50.0,0.0 -155.0,-65.0 m450.0,-45.0 l40.0,-100.0 115.0,-135.0 l25.0,0.0 25.0,30.0 l25.0,50.0 20.0,105.0 l-50.0,10.0 -195.0,-30.0 m-1005.0,1485.0 l30.0,-10.0 " fill="none" stroke="black" stroke-width="1" /></svg>