<?xml version="1.0" encoding="utf-8" ?>
<svg baseProfile="full" height="1055.0" version="1.1" width="1535.0" xmlns="http://www.w3.org/2000/svg" xmlns:ev="http://www.w3.org/2001/xml-events" xmlns:xlink="http://www.w3.org/1999/xlink"><defs /><rect fill="white" height="1055.0" width="1535.0" x="0" y="0" /><path d="M815.0,570.0 m-210.0,-185.0 l-160.0,-85.0 -140.0,-15.0 l-95.0,40.0 -110.0,110.0 l-60.0,100.0 -15.0,125.0 l20.0,40.0 90.0,85.0 l105.0,55.0 115.0,20.0 l200.0,0.0 90.0,-45.0 l165.0,-150.0 -40.0,5.0 l-90.0,55.0 -165.0,150.0 l-30.0,115.0 10.0,25.0 l85.0,15.0 80.0,-10.0 l40.0,-20.0 40.0,-50.0 l30.0,-120.0 10.0,-160.0 l50.0,-135.0 150.0,-220.0 l110.0,-110.0 200.0,-155.0 l115.0,-25.0 75.0,15.0 l30.0,80.0 0.0,80.0 l-50.0,140.0 -65.0,85.0 l-135.0,115.0 -120.0,75.0 l-185.0,30.0 -95.0,0.0 l-50.0,-30.0 35.0,-5.0 l65.0,20.0 190.0,75.0 l55.0,70.0 5.0,30.0 l-30.0,20.0 -175.0,-10.0 l-50.0,-40.0 -70.0,-115.0 l-20.0,-135.0 -5.0,-280.0 l-10.0,195.0 -60.0,-20.0 l-45.0,-40.0 -15.0,-35.0 " fill="none" stroke="black" stroke-width="1" /></svg>