<?xml version="1.0" encoding="utf-8" ?>
<svg baseProfile="full" height="69.30714951828122" version="1.1" width="73.37597131263465" xmlns="http://www.w3.org/2000/svg" xmlns:ev="http://www.w3.org/2001/xml-events" xmlns:xlink="http://www.w3.org/1999/xlink"><defs /><rect fill="white" height="69.30714951828122" width="73.37597131263465" x="0" y="0" /><path d="M39.17548900830525,33.897506124631036 m-4.016736149787903,-3.8954228162765503 l-2.977758049964905,-1.6105462610721588 -2.6946836709976196,-0.13390394859015942 l-2.2905640304088593,0.9658117592334747 -1.3909775018692017,1.2569300830364227 l-0.8047381043434143,1.5333612263202667 -3.150093334625126e-05,2.413144111633301 l0.40744852274656296,1.0768090188503265 1.2912936508655548,1.5282762050628662 l1.5744569897651672,0.9828348457813263 3.6048665642738342,0.8630990982055664 l2.7535220980644226,0.0002014727215282619 1.4882025122642517,-0.586349330842495 l1.26869797706604,-1.2274546176195145 -1.171410009264946,1.824849247932434 l-1.0280964523553848,2.765434682369232 0.3506459668278694,2.0868803560733795 l0.6116103753447533,0.5030493810772896 2.5845834612846375,0.06263887975364923 l1.661582589149475,-0.935109481215477 1.6277964413166046,-2.1865658462047577 l1.2402715533971786,-4.393001198768616 0.4834909737110138,-2.3323549330234528 l-0.0003120722249150276,-1.7582643032073975 -0.6265493482351303,-1.9183436036109924 l-1.0070613771677017,-1.1908932775259018 -1.2652777135372162,-0.6764660775661469 l-1.8381799757480621,-0.24027781561017036 -1.3485725224018097,0.7964085042476654 l-0.691404789686203,1.1898951977491379 -0.1546696573495865,2.122894674539566 l0.799901932477951,1.9865308701992035 1.1902530491352081,1.6832339763641357 l1.1920630186796188,1.4625388383865356 1.2405844777822495,1.3056637346744537 l2.648681104183197,1.567414104938507 2.5525468587875366,-0.33804185688495636 l1.1659399420022964,-1.1919142305850983 0.7690651714801788,-2.319948673248291 l-0.12485490180552006,-2.9589030146598816 -0.8444228023290634,-1.806468814611435 l-3.1185057759284973,-2.5487762689590454 -2.1386954188346863,-0.46663399785757065 l-1.4157803356647491,0.40353577584028244 -0.7933338731527328,0.7764724642038345 l-0.6502924859523773,2.3090846836566925 2.6060503721237183,-1.1786535382270813 l2.6007527112960815,-1.5267811715602875 1.0284057259559631,-0.935518741607666 l0.5650077015161514,-1.0312402993440628 -0.21609490737318993,-1.1482074856758118 l-2.7141734957695007,-1.8284577131271362 -2.5260528922080994,0.005857781507074833 l-1.502613127231598,0.6151275336742401 -1.6887430846691132,1.6487820446491241 " fill="none" stroke="black" stroke-width="1" /></svg>