<?xml version="1.0" encoding="utf-8" ?>
<svg baseProfile="full" height="2975.0" version="1.1" width="3050.0" xmlns="http://www.w3.org/2000/svg" xmlns:ev="http://www.w3.org/2001/xml-events" xmlns:xlink="http://www.w3.org/1999/xlink"><defs /><rect fill="white" height="2975.0" width="3050.0" x="0" y="0" /><path d="M1705.0,115.0 m-630.0,10.0 l-285.0,60.0 -190.0,75.0 l-170.0,100.0 -110.0,120.0 l-145.0,350.0 -120.0,440.0 l-30.0,245.0 15.0,295.0 l50.0,225.0 90.0,270.0 l95.0,150.0 145.0,165.0 l270.0,170.0 240.0,110.0 l195.0,50.0 200.0,0.0 l170.0,-30.0 270.0,0.0 l150.0,-30.0 110.0,-45.0 l260.0,-155.0 135.0,-100.0 l200.0,-190.0 145.0,-190.0 l205.0,-410.0 55.0,-250.0 l0.0,-205.0 -30.0,-140.0 l-145.0,-330.0 -255.0,-335.0 l-135.0,-130.0 -200.0,-130.0 l-145.0,-60.0 -295.0,-80.0 l-195.0,-105.0 -85.0,-10.0 m-215.0,210.0 l50.0,125.0 m45.0,-95.0 l20.0,-40.0 30.0,0.0 l100.0,45.0 10.0,25.0 l-30.0,115.0 70.0,45.0 l55.0,15.0 10.0,-20.0 m525.0,-35.0 l0.0,180.0 -15.0,40.0 l-80.0,60.0 m265.0,95.0 l15.0,-30.0 80.0,-5.0 l45.0,50.0 0.0,50.0 " fill="none" stroke="black" stroke-width="1" /></svg>