<?xml version="1.0" encoding="utf-8" ?>
<svg baseProfile="full" height="115.42092692339793" version="1.1" width="102.74398438632488" xmlns="http://www.w3.org/2000/svg" xmlns:ev="http://www.w3.org/2001/xml-events" xmlns:xlink="http://www.w3.org/1999/xlink"><defs /><rect fill="white" height="115.42092692339793" width="102.74398438632488" x="0" y="0" /><path d="M58.95589774532709,25 m-12.891960144042969,0.027679393533617258 l-2.8431564569473267,0.5805317312479019 -3.725503087043762,1.6653716564178467 l-3.3505216240882874,2.5753840804100037 -3.0279362201690674,3.510129153728485 l-3.2489439845085144,5.556426048278809 -2.476162761449814,6.296601295471191 l-1.6752837598323822,6.906333565711975 -0.7069609314203262,6.628270745277405 l-0.009468775824643672,6.224230527877808 1.1279357969760895,5.849668979644775 l2.245441824197769,5.578269362449646 2.9964959621429443,4.69228982925415 l3.767683506011963,3.694697320461273 4.634685218334198,2.9033902287483215 l5.1907432079315186,1.8690188229084015 5.8428990840911865,0.8626341819763184 l5.770133137702942,-0.07427587639540434 5.0941091775894165,-1.0557179152965546 l3.627844452857971,-1.5139852464199066 3.258606791496277,-2.164674997329712 l2.7564674615859985,-2.734381854534149 2.938576638698578,-4.570289850234985 l1.6175945103168488,-3.8268330693244934 1.3537466526031494,-5.765991806983948 l0.5210209637880325,-6.2635338306427 -0.2597695402801037,-6.439677476882935 l-1.229366809129715,-5.959720015525818 -1.9981367886066437,-5.47601044178009 l-2.635941505432129,-5.1168787479400635 -3.177793025970459,-4.4975826144218445 l-3.5825389623641968,-3.585924804210663 -2.854783535003662,-2.0437248051166534 l-2.9120606184005737,-1.3581618666648865 -2.9206904768943787,-0.6886538863182068 l-2.990787625312805,-0.15565360896289349 m-1.9369997084140778,22.298765182495117 l-0.24861477315425873,1.24967522919178 0.3268376365303993,2.3570141196250916 l0.7649613916873932,0.4603523761034012 0.9489358216524124,-0.234646238386631 l0.6586131453514099,-1.1842196434736252 0.11952223256230354,-1.5520372986793518 l-0.4042421281337738,-0.8624325692653656 -0.770229697227478,-0.45347265899181366 l-0.9349844604730606,0.010693464428186417 -0.709456279873848,0.6946533918380737 l-0.3148937225341797,1.2351766228675842 0.23778637871146202,1.0077834874391556 l0.8129891753196716,0.384451225399971 0.9789412468671799,-0.37714406847953796 l0.5647005513310432,-1.2453549355268478 -0.04220727365463972,-1.3968376815319061 l-0.5435105413198471,-0.7959897071123123 -0.7887522876262665,-0.31189560890197754 l-0.7307437807321548,0.24221768602728844 " fill="none" stroke="black" stroke-width="1" /></svg>