<?xml version="1.0" encoding="utf-8" ?>
<svg baseProfile="full" height="2955.0" version="1.1" width="2285.0" xmlns="http://www.w3.org/2000/svg" xmlns:ev="http://www.w3.org/2001/xml-events" xmlns:xlink="http://www.w3.org/1999/xlink"><defs /><rect fill="white" height="2955.0" width="2285.0" x="0" y="0" /><path d="M1025.0,805.0 m-190.0,-100.0 l-35.0,-5.0 -230.0,125.0 l-260.0,190.0 -165.0,230.0 l-70.0,185.0 -40.0,190.0 l-10.0,290.0 45.0,170.0 l30.0,200.0 80.0,150.0 l210.0,235.0 185.0,140.0 l170.0,80.0 255.0,45.0 l185.0,0.0 370.0,-145.0 l195.0,-130.0 75.0,-70.0 l185.0,-215.0 115.0,-170.0 l135.0,-265.0 0.0,-25.0 l-25.0,-110.0 -155.0,-245.0 l-40.0,-90.0 -115.0,-495.0 l-45.0,-110.0 -55.0,-85.0 l-110.0,-45.0 -425.0,-60.0 l-145.0,0.0 -125.0,25.0 l-130.0,50.0 -50.0,35.0 l-25.0,55.0 m250.0,45.0 l0.0,260.0 20.0,115.0 l30.0,520.0 0.0,545.0 l-10.0,50.0 -15.0,-35.0 m5.0,-605.0 l-5.0,-55.0 -70.0,-110.0 l-100.0,-100.0 -140.0,-120.0 l-160.0,-105.0 -20.0,30.0 m35.0,-610.0 l10.0,-515.0 90.0,-50.0 l90.0,-35.0 90.0,-10.0 l435.0,10.0 170.0,-35.0 l175.0,30.0 210.0,10.0 l40.0,110.0 0.0,415.0 l-30.0,420.0 m-1040.0,-730.0 l290.0,30.0 10.0,155.0 l-15.0,95.0 -10.0,50.0 l-25.0,5.0 -10.0,-15.0 m10.0,-45.0 l0.0,-25.0 260.0,-20.0 m45.0,-145.0 l0.0,40.0 -25.0,55.0 m-40.0,110.0 l85.0,-25.0 m200.0,-95.0 l-70.0,85.0 0.0,55.0 l25.0,0.0 50.0,-35.0 l40.0,-95.0 m-75.0,35.0 l0.0,150.0 25.0,10.0 l25.0,0.0 65.0,-40.0 l35.0,-50.0 10.0,-50.0 " fill="none" stroke="black" stroke-width="1" /></svg>