<?xml version="1.0" encoding="utf-8" ?>
<svg baseProfile="full" height="99.60476214066148" version="1.1" width="88.94983412697911" xmlns="http://www.w3.org/2000/svg" xmlns:ev="http://www.w3.org/2001/xml-events" xmlns:xlink="http://www.w3.org/1999/xlink"><defs /><rect fill="white" height="99.60476214066148" width="88.94983412697911" x="0" y="0" /><path d="M47.0090865669772,28.632597345858812 m-3.7089762091636658,-2.0340724289417267 l-3.1922072172164917,-0.6939326971769333 -3.146636188030243,0.35552099347114563 l-3.089974522590637,1.7268039286136627 -2.823789417743683,2.7135121822357178 l-2.3346173763275146,3.4265264868736267 -2.3043115437030792,5.425475835800171 l-1.3802619278430939,6.227453351020813 -0.02831216435879469,8.680989742279053 l1.247226968407631,5.1739418506622314 2.2404296696186066,5.0014883279800415 l2.1798166632652283,3.1494659185409546 3.7652796506881714,3.490762710571289 l6.000221371650696,2.697533667087555 4.801382422447205,0.6306949257850647 l3.672941029071808,-0.19546160474419594 3.1555980443954468,-0.9714540094137192 l3.019709289073944,-1.6986416280269623 2.6709097623825073,-2.353295534849167 l2.2016075253486633,-2.8988823294639587 1.775597333908081,-3.430922031402588 l1.2349513918161392,-3.7691032886505127 0.7233856618404388,-4.063773155212402 l0.2607773430645466,-5.495864152908325 -0.5102799832820892,-5.515539646148682 l-1.488957703113556,-5.080106258392334 -2.152516394853592,-4.62348997592926 l-2.83161997795105,-4.132297337055206 -2.330160290002823,-2.3120321333408356 l-2.6140883564949036,-1.7050328850746155 -2.78361052274704,-1.0177750885486603 l-3.079136908054352,-0.3410910815000534 -2.674219012260437,0.3912554308772087 l-2.6120024919509888,1.2391172349452972 m1.246262714266777,4.422846436500549 l0.07525882683694363,4.5184326171875 -0.9091672301292419,6.582510471343994 m6.095016002655029,-6.702055931091309 l1.2748947739601135,-0.6250130385160446 1.58354252576828,0.1424645446240902 l0.9904368966817856,0.7894265651702881 0.47846805304288864,1.6887404024600983 l-0.3717758134007454,2.325296401977539 -1.5088334679603577,1.9876544177532196 l1.4919692277908325,0.12479105032980442 1.6034479439258575,0.3836921602487564 l1.7393884062767029,0.6048330664634705 1.1847846955060959,0.6692583858966827 l0.7624801993370056,0.8549179881811142 0.35215936601161957,1.3546419143676758 l-0.2879229560494423,1.5669381618499756 m-3.340780735015869,0.8904989808797836 l1.8728236854076385,0.462191142141819 0.9232214093208313,0.9162351489067078 l0.3943534195423126,1.6605295240879059 -0.42524218559265137,1.8121325969696045 l-1.4173825085163116,1.5833044052124023 1.197364255785942,0.8895603567361832 l0.8163515478372574,1.1999144405126572 0.13023157604038715,0.8988482505083084 l-0.3574538603425026,0.7531080394983292 -1.5161284804344177,0.9243869036436081 l-2.2610116004943848,0.41409607976675034 m-4.833219349384308,-1.2709559500217438 l-0.3089114651083946,2.656635344028473 0.24531204253435135,1.670135259628296 l0.9317642450332642,1.1841829121112823 1.5233804285526276,0.46101145446300507 l1.7932815849781036,-0.18283605575561523 0.9344419836997986,-0.6843969225883484 l0.5691475421190262,-1.3490991294384003 -0.27768053114414215,-1.6079911589622498 l-0.8211171627044678,-0.6275392323732376 -0.9073084592819214,0.06292491219937801 l-0.6448642164468765,0.7273463159799576 -0.4255877807736397,2.1333906054496765 l0.23558830842375755,1.3702446222305298 1.1345314979553223,1.1580782383680344 l1.5617969632148743,0.41809048503637314 1.7100638151168823,-0.21303348243236542 l1.1218727380037308,-0.9918274730443954 0.5800634250044823,-1.5492701530456543 l-0.25680217891931534,-1.6319222748279572 -0.7708621025085449,-0.6724449992179871 l-1.7662464082241058,-0.013670077314600348 -1.458151489496231,1.1108099669218063 l-0.5993285775184631,1.2146218866109848 0.04507487639784813,1.9243918359279633 l0.6466805934906006,0.7652183622121811 1.4997000992298126,0.6483062356710434 l1.9096212089061737,0.012504352489486337 1.5201440453529358,-0.6561070680618286 l1.096704751253128,-1.2594839930534363 0.3978915885090828,-1.5612220764160156 l-0.3967916965484619,-1.492607444524765 " fill="none" stroke="black" stroke-width="1" /></svg>