<?xml version="1.0" encoding="utf-8" ?>
<svg baseProfile="full" height="77.0493539236486" version="1.1" width="84.85888058319688" xmlns="http://www.w3.org/2000/svg" xmlns:ev="http://www.w3.org/2001/xml-events" xmlns:xlink="http://www.w3.org/1999/xlink"><defs /><rect fill="white" height="77.0493539236486" width="84.85888058319688" x="0" y="0" /><path d="M29.521910157054663,37.2976746596396 m6.097992658615112,-1.3056747615337372 l6.403615474700928,-0.6121032685041428 6.119892001152039,-0.3531159460544586 l4.518573880195618,0.10149194858968258 3.6585956811904907,0.5936497077345848 l2.0873673260211945,0.8711493760347366 0.9949269890785217,0.8761157840490341 l0.45600641518831253,1.07085719704628 -0.17543023452162743,1.7594724893569946 l-0.776028111577034,1.0043071955442429 -2.28097602725029,1.4723953604698181 l-3.2533952593803406,1.1932428181171417 -5.16904890537262,0.8795727044343948 l-13.113782405853271,-0.037104105576872826 -6.288303732872009,-1.0351819545030594 l-2.366858869791031,-0.9881770610809326 -1.0165626555681229,-0.8899585157632828 l-0.4184943810105324,-1.142560914158821 0.18629863858222961,-1.2014899402856827 l0.8966989815235138,-0.9239235520362854 2.3859958350658417,-1.0729488730430603 l5.487855076789856,-0.9913292527198792 m3.6397695541381836,3.267472982406616 l0.0459869671612978,2.9882344603538513 -0.763513594865799,5.583469271659851 l0.04782079719007015,3.317313492298126 0.5056061968207359,0.32650262117385864 l1.6173452138900757,-0.23772967979311943 2.233632802963257,-1.2375559657812119 l2.4959591031074524,-2.6495078206062317 1.6063037514686584,-3.516876995563507 l0.5968930199742317,-3.938758969306946 m-8.592274785041809,-5.7724928855896 l0.7152842730283737,-4.961405396461487 0.5935969203710556,-1.8292801082134247 l1.184290125966072,-1.7089539766311646 1.0590332001447678,-0.7849461585283279 l1.8845286965370178,-0.41184596717357635 1.2654520571231842,0.21218536421656609 l0.9966761618852615,0.7511470466852188 0.8093448728322983,1.2881550192832947 l0.6483498215675354,2.4864329397678375 0.07936595007777214,3.962407112121582 " fill="none" stroke="black" stroke-width="1" /></svg>