<?xml version="1.0" encoding="utf-8" ?>
<svg baseProfile="full" height="1130.0" version="1.1" width="1410.0" xmlns="http://www.w3.org/2000/svg" xmlns:ev="http://www.w3.org/2001/xml-events" xmlns:xlink="http://www.w3.org/1999/xlink"><defs /><rect fill="white" height="1130.0" width="1410.0" x="0" y="0" /><path d="M60.0,670.0 m300.0,-70.0 l270.0,-40.0 290.0,-15.0 l215.0,10.0 175.0,70.0 l50.0,40.0 25.0,50.0 l-25.0,60.0 -40.0,30.0 l-85.0,45.0 -105.0,25.0 l-730.0,10.0 -210.0,-15.0 l-105.0,-35.0 -60.0,-60.0 l20.0,-75.0 105.0,-50.0 m510.0,60.0 l-165.0,55.0 -195.0,125.0 l-135.0,125.0 -25.0,60.0 l10.0,20.0 40.0,10.0 l45.0,-5.0 100.0,-40.0 l430.0,-315.0 m-185.0,-185.0 l70.0,-165.0 85.0,-115.0 l180.0,-160.0 160.0,-95.0 l20.0,0.0 0.0,45.0 l-45.0,95.0 -250.0,345.0 m295.0,160.0 l50.0,-20.0 -10.0,-5.0 m-10.0,150.0 l50.0,-20.0 -50.0,0.0 " fill="none" stroke="black" stroke-width="1" /></svg>