<?xml version="1.0" encoding="utf-8" ?>
<svg baseProfile="full" height="83.41098990291357" version="1.1" width="81.30863379687071" xmlns="http://www.w3.org/2000/svg" xmlns:ev="http://www.w3.org/2001/xml-events" xmlns:xlink="http://www.w3.org/1999/xlink"><defs /><rect fill="white" height="83.41098990291357" width="81.30863379687071" x="0" y="0" /><path d="M38.43678480014205,25.52509673172608 m-4.3767425417900085,-0.011961536947637796 l-1.8474940955638885,0.58033537119627 -2.593967020511627,1.8410803377628326 l-2.1222563087940216,2.7923807501792908 -1.5200357139110565,3.4772780537605286 l-0.8444694429636002,3.981022834777832 -0.1318196766078472,5.3781890869140625 l1.206609457731247,4.787711203098297 2.4918510019779205,4.27316814661026 l3.3032679557800293,3.0064570903778076 4.018647074699402,1.9328655302524567 l4.6195849776268005,0.8473663032054901 4.645262658596039,-0.21338637918233871 l2.858906090259552,-0.9584406018257141 2.7000609040260315,-1.6593876481056213 l2.2470255196094513,-2.2231456637382507 1.7383156716823578,-2.8213608264923096 l1.0616662353277206,-3.2581105828285217 0.41743624955415726,-3.755921423435211 l-0.10257183574140072,-3.688744306564331 -0.711820125579834,-3.2197263836860657 l-1.2776491045951843,-3.0090436339378357 -1.796233206987381,-2.7290508151054382 l-2.2911961376667023,-2.348908931016922 -2.6691025495529175,-1.760212481021881 l-2.984035909175873,-1.2033489346504211 -3.137193024158478,-0.5622012913227081 l-3.272067904472351,0.003131934499833733 -2.42431640625,0.6535954773426056 m3.3317992091178894,13.774495124816895 l-0.40378615260124207,0.7952785491943359 0.18403777852654457,1.1028236895799637 l0.5055737122893333,0.17358915880322456 0.3627224639058113,-1.409848928451538 l-0.44978443533182144,-0.09803727269172668 -0.10496609844267368,0.7034754753112793 l0.5685477331280708,-0.3550969064235687 -0.1627647876739502,-0.40457218885421753 l-0.1945287175476551,0.540001317858696 0.3584528714418411,-0.1966216042637825 l-0.1582830399274826,-0.6041083857417107 -0.20360097289085388,0.3177458420395851 l0.04160555079579353,-5.042930841445923 m-0.1953865960240364,5.278666615486145 l4.828916490077972,0.019334472017362714 " fill="none" stroke="black" stroke-width="1" /></svg>