<?xml version="1.0" encoding="utf-8" ?>
<svg baseProfile="full" height="2015.0" version="1.1" width="1765.0" xmlns="http://www.w3.org/2000/svg" xmlns:ev="http://www.w3.org/2001/xml-events" xmlns:xlink="http://www.w3.org/1999/xlink"><defs /><rect fill="white" height="2015.0" width="1765.0" x="0" y="0" /><path d="M610.0,560.0 m-220.0,0.0 l-70.0,35.0 -115.0,165.0 l-130.0,290.0 -20.0,75.0 l-30.0,320.0 10.0,70.0 l45.0,145.0 110.0,155.0 l120.0,85.0 240.0,65.0 l280.0,25.0 200.0,0.0 l190.0,-40.0 150.0,-80.0 l165.0,-170.0 90.0,-145.0 l80.0,-235.0 30.0,-130.0 l5.0,-285.0 -45.0,-110.0 l-100.0,-145.0 -125.0,-110.0 l-245.0,-130.0 -220.0,-30.0 l-85.0,15.0 -145.0,70.0 l-280.0,25.0 25.0,-20.0 m260.0,-70.0 l-5.0,-55.0 135.0,-320.0 l45.0,0.0 295.0,110.0 l100.0,55.0 50.0,70.0 l0.0,40.0 -35.0,15.0 l-95.0,-5.0 -345.0,-80.0 l-135.0,-65.0 125.0,150.0 m35.0,835.0 l5.0,-15.0 " fill="none" stroke="black" stroke-width="1" /></svg>