<?xml version="1.0" encoding="utf-8" ?>
<svg baseProfile="full" height="76.7969146836549" version="1.1" width="79.0438136830926" xmlns="http://www.w3.org/2000/svg" xmlns:ev="http://www.w3.org/2001/xml-events" xmlns:xlink="http://www.w3.org/1999/xlink"><defs /><rect fill="white" height="76.7969146836549" width="79.0438136830926" x="0" y="0" /><path d="M36.8899682816118,48.593821830581874 m0.5291272327303886,-14.869376420974731 l0.3297993540763855,-0.6974748522043228 0.8497009426355362,-0.5150534585118294 l0.417899414896965,0.008970277849584818 0.4069942608475685,0.8430524170398712 l0.22483902052044868,8.091049194335938 0.3259609267115593,6.386784911155701 l0.12384477071464062,3.5162895917892456 -0.35180389881134033,0.4388511925935745 l-0.707220584154129,-0.15064162202179432 -0.4949846491217613,-0.7818476110696793 l-0.193086639046669,-1.366235762834549 m1.7342785000801086,-16.126385927200317 l0.28495829552412033,-2.3003695905208588 0.6257738173007965,-1.3943473994731903 l2.2231049835681915,-2.3836375772953033 2.888925075531006,-1.5838536620140076 l3.138854503631592,-0.7095955312252045 2.0857764780521393,0.13984663411974907 l1.6216374933719635,0.983644649386406 0.7722416520118713,1.1251536011695862 l0.3172244504094124,2.325455993413925 -0.32187744975090027,1.5560245513916016 l-1.4708052575588226,2.4087220430374146 -3.0495643615722656,2.8284302353858948 l1.8793907761573792,1.0379843413829803 1.5072885155677795,1.6182033717632294 l0.5118496343493462,1.4483912289142609 -0.113813616335392,3.3014219999313354 l-1.0184462368488312,1.9440779089927673 -1.7021559178829193,1.5375372767448425 l-2.2180524468421936,0.9278961271047592 -2.5852593779563904,0.31532544642686844 l-2.178482860326767,-0.3312108665704727 -1.7185893654823303,-0.9961499273777008 m-3.9277663826942444,-13.971556425094604 l-3.501792252063751,-3.3996155858039856 -2.303614318370819,-1.3249413669109344 l-2.120283842086792,-0.5429282411932945 -2.126462161540985,0.1807793416082859 l-1.2194078415632248,0.7142522186040878 -1.121695190668106,1.8120668828487396 l-0.24427372962236404,2.4685001373291016 0.6053593754768372,1.9718216359615326 l1.5066391229629517,1.738349199295044 2.181047797203064,1.3426777720451355 l3.551490604877472,1.0937461256980896 " fill="none" stroke="black" stroke-width="1" /></svg>