<?xml version="1.0" encoding="utf-8" ?>
<svg baseProfile="full" height="1260.0" version="1.1" width="1130.0" xmlns="http://www.w3.org/2000/svg" xmlns:ev="http://www.w3.org/2001/xml-events" xmlns:xlink="http://www.w3.org/1999/xlink"><defs /><rect fill="white" height="1260.0" width="1130.0" x="0" y="0" /><path d="M525.0,1155.0 m-5.0,-730.0 l25.0,-155.0 25.0,-20.0 l25.0,15.0 25.0,95.0 l-20.0,730.0 -20.0,120.0 l-25.0,15.0 -10.0,-30.0 m90.0,-865.0 l80.0,-175.0 80.0,-85.0 l60.0,-20.0 85.0,0.0 l40.0,15.0 30.0,85.0 l-5.0,170.0 -100.0,210.0 l60.0,20.0 80.0,100.0 l45.0,135.0 15.0,175.0 l-80.0,110.0 -90.0,15.0 l-75.0,45.0 -95.0,5.0 l-105.0,-20.0 -65.0,-30.0 m-70.0,-775.0 l-25.0,-85.0 -45.0,-70.0 l-115.0,-110.0 -80.0,-20.0 l-50.0,0.0 -25.0,20.0 l-60.0,105.0 -35.0,165.0 l5.0,105.0 80.0,140.0 l-5.0,25.0 -105.0,65.0 l-35.0,130.0 -5.0,120.0 l60.0,220.0 120.0,95.0 l145.0,20.0 200.0,-75.0 " fill="none" stroke="black" stroke-width="1" /></svg>