<?xml version="1.0" encoding="utf-8" ?>
<svg baseProfile="full" height="1795.0" version="1.1" width="1920.0" xmlns="http://www.w3.org/2000/svg" xmlns:ev="http://www.w3.org/2001/xml-events" xmlns:xlink="http://www.w3.org/1999/xlink"><defs /><rect fill="white" height="1795.0" width="1920.0" x="0" y="0" /><path d="M40.0,740.0 m240.0,-160.0 l375.0,-110.0 375.0,-5.0 l295.0,45.0 210.0,0.0 l105.0,35.0 140.0,110.0 l40.0,150.0 0.0,170.0 l-10.0,50.0 -125.0,280.0 l-65.0,185.0 -75.0,65.0 l-180.0,95.0 -310.0,90.0 l-215.0,30.0 -175.0,0.0 l-115.0,-15.0 -400.0,-110.0 l-50.0,-30.0 0.0,-100.0 l70.0,-185.0 5.0,-75.0 l-150.0,-445.0 0.0,-90.0 l30.0,-35.0 m5.0,80.0 l-15.0,20.0 65.0,20.0 l225.0,0.0 135.0,-30.0 l70.0,95.0 40.0,25.0 l320.0,10.0 175.0,45.0 l215.0,0.0 265.0,-35.0 l300.0,-85.0 40.0,-25.0 m-1110.0,-185.0 l25.0,-280.0 0.0,-235.0 l15.0,-80.0 m0.0,20.0 l50.0,0.0 " fill="none" stroke="black" stroke-width="1" /></svg>