<?xml version="1.0" encoding="utf-8" ?>
<svg baseProfile="full" height="73.70627254713327" version="1.1" width="87.24003510549664" xmlns="http://www.w3.org/2000/svg" xmlns:ev="http://www.w3.org/2001/xml-events" xmlns:xlink="http://www.w3.org/1999/xlink"><defs /><rect fill="white" height="73.70627254713327" width="87.24003510549664" x="0" y="0" /><path d="M26.55983760021627,31.04705885052681 m5.057976841926575,-2.9821985960006714 l5.4427796602249146,-1.7215599119663239 8.809444308280945,-1.3433003425598145 l7.721578478813171,0.017592948861420155 4.318784475326538,1.0413981229066849 l2.36793115735054,1.3181830942630768 1.0715077072381973,1.1322111636400223 l0.8075188845396042,2.1098023653030396 0.08267599157989025,2.3924055695533752 l-0.715540423989296,2.3428063094615936 -0.8819325268268585,1.4568182826042175 l-2.030625194311142,1.9256210327148438 -2.6594501733779907,1.5715079009532928 l-4.457477033138275,1.597418338060379 -5.094283223152161,0.9521052241325378 l-5.315462946891785,0.32786156982183456 -4.662611186504364,-0.34652817994356155 l-4.367424547672272,-1.2103468179702759 -3.7858620285987854,-1.9458405673503876 l-1.9132420420646667,-1.7494416236877441 -1.1302780359983444,-2.1041111648082733 l-0.22584574297070503,-1.5591725707054138 0.3307337686419487,-1.3422572612762451 l1.5102708339691162,-1.8112340569496155 2.098613530397415,-1.2693899869918823 l2.3802565038204193,-0.6453434377908707 m6.116445064544678,4.78157639503479 l-0.07339519448578358,4.453598856925964 0.12527246959507465,5.962196588516235 l0.5131636559963226,0.3402062878012657 9.524754285812378,-0.8204218745231628 l7.793537974357605,-0.5173041671514511 0.30664145946502686,-0.5680302157998085 l-0.025278006214648485,-8.215858340263367 -0.8306702226400375,-2.8774413466453552 l-6.451054215431213,0.33189378678798676 -7.514240145683289,0.9377218037843704 l-3.8129371404647827,0.5314440280199051 -0.9267177432775497,0.4770180210471153 l-0.48135291785001755,0.8258064836263657 -0.035406467504799366,3.9750272035598755 l0.07752254605293274,3.8920897245407104 0.039459848776459694,2.5026896595954895 l0.035587125457823277,1.5054379403591156 0.0030378540395759046,1.9865554571151733 " fill="none" stroke="black" stroke-width="1" /></svg>