<?xml version="1.0" encoding="utf-8" ?>
<svg baseProfile="full" height="76.78411297267303" version="1.1" width="83.7975100427866" xmlns="http://www.w3.org/2000/svg" xmlns:ev="http://www.w3.org/2001/xml-events" xmlns:xlink="http://www.w3.org/1999/xlink"><defs /><rect fill="white" height="76.78411297267303" width="83.7975100427866" x="0" y="0" /><path d="M40.41961148905102,26.13221192965284 m-0.34908782690763474,5.504951477050781 l3.4971192479133606,0.913882702589035 4.284776449203491,0.06215762812644243 l-0.009029131033457816,-0.6252948939800262 -1.5653669834136963,-4.095334410667419 l-0.9549595415592194,-1.956154704093933 -0.7236461341381073,-0.5523158982396126 l-3.909931480884552,0.473913811147213 -0.7350482046604156,0.6588780879974365 l-0.327848382294178,0.9492309391498566 m0.6207964941859245,2.950914204120636 l-0.31700439751148224,0.3343662619590759 -0.131040308624506,5.243588089942932 l-0.7871074974536896,4.334615170955658 -0.11983237229287624,6.578081250190735 l-0.7894899696111679,3.23224276304245 0.10700679384171963,1.217878982424736 l0.42520977556705475,0.3253559023141861 3.221040666103363,0.10094367899000645 l1.1918418109416962,-0.9121556580066681 0.7171382009983063,-1.5004190802574158 l0.4775404930114746,-3.9692524075508118 -0.14509454369544983,-6.1840516328811646 l-0.43535221368074417,-5.7132357358932495 -0.7075776904821396,-2.5734743475914 l-0.6224004924297333,-0.7375440001487732 m0.5762897804379463,3.66979718208313 l0.10016319341957569,-1.0455088317394257 1.7171534895896912,-2.5306808948516846 l2.8802716732025146,-2.5738418102264404 3.089621663093567,-1.6351701319217682 l2.265975773334503,-0.5185054615139961 1.91820427775383,0.09224878624081612 l1.4296816289424896,0.8422617614269257 0.9269662946462631,1.5996670722961426 l0.22608691826462746,2.281351536512375 -0.343354195356369,1.4157211780548096 l-0.8822722733020782,1.3796806335449219 -1.9644264876842499,1.5721675753593445 l1.7028610408306122,0.41029710322618484 1.5586605668067932,1.0575690120458603 l0.9789561480283737,1.6691629588603973 0.28440630063414574,2.14615061879158 l-0.40017709136009216,2.008221745491028 -1.2265098839998245,1.7831166088581085 l-1.9084255397319794,1.4059773087501526 -3.5219112038612366,1.1033616960048676 l-3.869873583316803,0.14847712591290474 -2.261069118976593,-0.5707268789410591 l-1.011524498462677,-0.6161192059516907 m-6.14124059677124,-10.788633823394775 l-1.41394704580307,-1.932358741760254 -1.7469464242458344,-1.4153976738452911 l-2.0246975123882294,-0.972653329372406 -2.17280775308609,-0.4556366801261902 l-2.28546679019928,0.08686807006597519 -1.8001288175582886,0.9075810760259628 l-1.4299021661281586,1.6550755500793457 -0.5232444405555725,1.3755720853805542 l-0.05963757634162903,2.121034264564514 0.4178820922970772,0.9952343255281448 l1.3257358968257904,1.172831729054451 1.5393127501010895,0.5513225868344307 l1.675584316253662,0.050549511797726154 -1.9866541028022766,1.2803484499454498 l-0.8924995362758636,1.2455452233552933 -0.5326652899384499,2.0767860114574432 l0.05924008321017027,1.4164645969867706 0.4902378097176552,0.9850213676691055 l0.9743443876504898,0.7925208657979965 2.0343630015850067,0.6131934374570847 l2.6204773783683777,-0.016278980765491724 2.259363532066345,-0.7031287997961044 l1.9551636278629303,-1.3228391110897064 m3.7135449051856995,-13.522769212722778 l-0.6645151972770691,-2.0565876364707947 -1.6143295168876648,-2.2361350059509277 l-1.3179194927215576,-1.218937635421753 -1.4034061133861542,-0.7385779172182083 l-1.5353693068027496,-0.23467140272259712 -0.9757819026708603,0.26841700077056885 l-0.6402866542339325,0.7430703938007355 -0.1629343256354332,1.078905463218689 " fill="none" stroke="black" stroke-width="1" /></svg>