<?xml version="1.0" encoding="utf-8" ?>
<svg baseProfile="full" height="1080.0" version="1.1" width="1195.0" xmlns="http://www.w3.org/2000/svg" xmlns:ev="http://www.w3.org/2001/xml-events" xmlns:xlink="http://www.w3.org/1999/xlink"><defs /><rect fill="white" height="1080.0" width="1195.0" x="0" y="0" /><path d="M470.0,195.0 m-15.0,270.0 l90.0,60.0 160.0,-90.0 l50.0,-55.0 25.0,-65.0 l-10.0,-70.0 -25.0,-15.0 l-110.0,-25.0 -115.0,0.0 l-40.0,15.0 m0.0,-25.0 l-60.0,0.0 -15.0,85.0 l20.0,5.0 5.0,-30.0 l-20.0,-10.0 -20.0,0.0 l-20.0,25.0 -25.0,100.0 l20.0,10.0 5.0,-25.0 l-40.0,0.0 90.0,-210.0 l60.0,0.0 70.0,25.0 l45.0,-15.0 10.0,-45.0 l20.0,10.0 45.0,0.0 l25.0,-45.0 -15.0,25.0 l25.0,50.0 25.0,10.0 l60.0,-10.0 0.0,55.0 l60.0,55.0 -70.0,65.0 l-40.0,95.0 15.0,65.0 l55.0,0.0 -70.0,30.0 m-275.0,25.0 l-35.0,100.0 -110.0,180.0 l-60.0,190.0 25.0,35.0 l415.0,10.0 0.0,-110.0 l-95.0,-280.0 -25.0,-145.0 m-70.0,-265.0 l0.0,0.0 m130.0,15.0 l0.0,0.0 m-10.0,5.0 l0.0,0.0 m-40.0,10.0 l0.0,-5.0 m-55.0,125.0 l90.0,-50.0 m145.0,-195.0 l235.0,-100.0 100.0,-10.0 l0.0,80.0 -115.0,220.0 l160.0,-20.0 20.0,15.0 l-35.0,90.0 -120.0,95.0 l115.0,60.0 40.0,45.0 l0.0,25.0 -30.0,35.0 l-80.0,55.0 -400.0,100.0 m-220.0,-730.0 l-85.0,-75.0 -40.0,-15.0 l-155.0,-5.0 -90.0,25.0 l-35.0,35.0 -10.0,80.0 l40.0,45.0 135.0,80.0 " fill="none" stroke="black" stroke-width="1" /></svg>