<?xml version="1.0" encoding="utf-8" ?>
<svg baseProfile="full" height="84.91632596011186" version="1.1" width="88.58694288512197" xmlns="http://www.w3.org/2000/svg" xmlns:ev="http://www.w3.org/2001/xml-events" xmlns:xlink="http://www.w3.org/1999/xlink"><defs /><rect fill="white" height="84.91632596011186" width="88.58694288512197" x="0" y="0" /><path d="M36.358796764216095,36.150511779378576 m-1.5994499623775482,-1.272594928741455 l-3.437693417072296,-3.7685590982437134 -4.1742828488349915,-1.3334979116916656 l0.7941606640815735,5.678091049194336 1.299905925989151,6.062045097351074 l1.1240915209054947,2.7730318903923035 1.6686883568763733,2.140662968158722 l2.4011002480983734,2.3995451629161835 2.5032827258110046,1.4759132266044617 l4.600450098514557,1.7451445758342743 3.9226704835891724,0.8878374844789505 l3.076634407043457,0.00033798020012909546 3.5385778546333313,-1.0470089316368103 l3.849247097969055,-2.293405383825302 3.3909642696380615,-3.5315310955047607 l2.5247788429260254,-4.6109819412231445 1.7450198531150818,-7.658156752586365 l-0.0004044967863592319,-3.7222805619239807 -1.6801710426807404,-4.456350803375244 l-0.9731870144605637,-0.6187538057565689 -2.1400390565395355,0.18433952704071999 l-2.5238624215126038,1.6185633838176727 -3.0198800563812256,2.99323171377182 l-2.6788467168807983,2.3693273961544037 -6.239118576049805,1.924382597208023 l-3.1532514095306396,0.6237393245100975 -2.3951950669288635,0.06258453242480755 l-1.714327484369278,-0.03137184074148536 -1.2055126577615738,0.028962248470634222 l-1.1618856340646744,0.4222504049539566 m7.124621868133545,6.208948493003845 l-0.14073850587010384,3.035017251968384 -0.13076387345790863,1.822151094675064 l0.1268165558576584,0.7578191161155701 0.5498841032385826,0.33627092838287354 l1.338019222021103,-0.5191435664892197 0.9071268886327744,-1.3657420873641968 l0.211542546749115,-3.265608847141266 -1.0060470551252365,-1.0680750012397766 m3.6008962988853455,1.0585682094097137 l-0.0023226867779158056,4.267323017120361 0.3522036597132683,1.74797922372818 l0.4944303631782532,0.5789705365896225 2.671598196029663,-0.7851511985063553 l0.5110007524490356,-3.2611730694770813 -0.8458345383405685,-2.562423348426819 m-6.601532697677612,-0.059185163117945194 l-0.49463678151369095,3.495478928089142 -0.7757715880870819,1.9638822972774506 l-0.7825643569231033,0.36325134336948395 -2.63846218585968,-0.7847565412521362 m5.455799102783203,-4.290274083614349 l0.5564919859170914,3.2064342498779297 0.6050590798258781,1.7619781196117401 l0.832359567284584,0.3290097415447235 m-1.4879059791564941,-6.958673596382141 l3.058246672153473,-0.2791984751820564 m-5.004425644874573,1.2583324313163757 l-3.9896509051322937,-0.04748358391225338 -5.156518220901489,0.2173740416765213 l-4.943996965885162,0.5722325295209885 -2.1669434010982513,0.7504766434431076 l-1.2660950422286987,0.9157560765743256 -0.6170229613780975,1.1165420711040497 l-0.04612472373992205,1.1956969648599625 0.6387600302696228,1.1868979781866074 l1.3521943986415863,1.0158972442150116 2.065625786781311,0.7465944439172745 l4.010877311229706,0.48707742244005203 6.914853453636169,7.689817721256986e-05 l6.138307452201843,-0.38066551089286804 2.2749169170856476,-0.5679667368531227 l1.261296421289444,-0.8810956031084061 1.0438203066587448,-1.8540965020656586 l0.18389128148555756,-2.196412980556488 -0.6352131068706512,-1.2324798852205276 m-13.598932027816772,4.276013374328613 l-0.18543528392910957,4.162099659442902 -0.5353154242038727,3.4063759446144104 l-0.5684174597263336,2.657807171344757 -0.3464196249842644,1.2114781886339188 l0.040733995847404,0.3519754856824875 m5.988613963127136,-10.847663879394531 l0.7939521223306656,5.050346255302429 0.7838879525661469,4.383784830570221 l0.6398694962263107,2.0316681265830994 m-4.015482664108276,-15.695968866348267 l0.0740407919511199,6.658347249031067 -0.08624671958386898,3.6871781945228577 m1.9006362557411194,-9.988788962364197 l0.6330229341983795,5.139358639717102 m0.6235935539007187,-4.972190856933594 l0.5535368993878365,3.45334529876709 " fill="none" stroke="black" stroke-width="1" /></svg>