<?xml version="1.0" encoding="utf-8" ?>
<svg baseProfile="full" height="1620.0" version="1.1" width="1955.0" xmlns="http://www.w3.org/2000/svg" xmlns:ev="http://www.w3.org/2001/xml-events" xmlns:xlink="http://www.w3.org/1999/xlink"><defs /><rect fill="white" height="1620.0" width="1955.0" x="0" y="0" /><path d="M475.0,635.0 m-80.0,-65.0 l-230.0,-245.0 -140.0,-110.0 l20.0,230.0 140.0,465.0 l-10.0,25.0 25.0,250.0 l70.0,130.0 120.0,125.0 l135.0,95.0 170.0,50.0 l325.0,10.0 90.0,-5.0 l125.0,-40.0 410.0,-240.0 l65.0,-95.0 30.0,-65.0 l60.0,-480.0 50.0,-245.0 l55.0,-175.0 25.0,-225.0 l-165.0,130.0 -180.0,185.0 l-170.0,180.0 -160.0,210.0 l-20.0,-75.0 -40.0,-20.0 l-320.0,-60.0 -270.0,-20.0 l-160.0,20.0 -35.0,20.0 m295.0,450.0 l185.0,-40.0 135.0,-10.0 l-5.0,40.0 -100.0,115.0 l-25.0,0.0 -65.0,-60.0 l-95.0,-30.0 m120.0,45.0 l5.0,80.0 -20.0,150.0 l-30.0,75.0 -25.0,0.0 m-195.0,-145.0 l0.0,20.0 45.0,45.0 l115.0,60.0 220.0,5.0 l50.0,-25.0 120.0,-130.0 l40.0,-120.0 m-50.0,-490.0 l-20.0,15.0 -15.0,90.0 m-390.0,-45.0 l0.0,25.0 m1100.0,-480.0 l-20.0,20.0 -20.0,75.0 l-155.0,235.0 -15.0,55.0 l10.0,-40.0 80.0,-35.0 l65.0,-85.0 40.0,-90.0 l25.0,-105.0 m-1710.0,155.0 l20.0,15.0 40.0,105.0 l130.0,180.0 0.0,-20.0 l-45.0,-95.0 -30.0,-30.0 l-60.0,-110.0 -50.0,-40.0 m1465.0,340.0 l-95.0,135.0 -80.0,170.0 l-10.0,185.0 20.0,45.0 m315.0,-365.0 l-65.0,65.0 -125.0,190.0 l-65.0,150.0 -15.0,130.0 m-1075.0,-570.0 l0.0,75.0 100.0,225.0 l20.0,105.0 m-355.0,-345.0 l140.0,320.0 " fill="none" stroke="black" stroke-width="1" /></svg>