<?xml version="1.0" encoding="utf-8" ?>
<svg baseProfile="full" height="60.9252390160691" version="1.1" width="110.44971358031034" xmlns="http://www.w3.org/2000/svg" xmlns:ev="http://www.w3.org/2001/xml-events" xmlns:xlink="http://www.w3.org/1999/xlink"><defs /><rect fill="white" height="60.9252390160691" width="110.44971358031034" x="0" y="0" /><path d="M25,29.96355722541921 m2.1721814572811127,0.9642215818166733 l4.301270246505737,0.868462398648262 19.79220986366272,2.385209798812866 l18.810075521469116,1.1844240128993988 9.779011011123657,0.5593639984726906 l2.5664180517196655,-0.05795982200652361 1.3654860854148865,-0.2863341197371483 l1.1876355856657028,-0.723966434597969 0.47542575746774673,-1.1225076764822006 l-0.15941433608531952,-1.989823579788208 -1.2999796867370605,-1.681475192308426 l-2.4531129002571106,-1.5407507121562958 -3.413960337638855,-1.2335492670536041 l-6.072720885276794,-1.1302553117275238 -10.041022300720215,-0.7875539362430573 l-9.551599025726318,0.027381840627640486 -10.674643516540527,0.39885468780994415 l-8.094706535339355,0.8504682034254074 -2.9451200366020203,0.9285121411085129 l-1.2445216625928879,0.8137354254722595 -0.5959763377904892,1.016070395708084 l0.005063252174295485,1.1914397031068802 0.6659061461687088,0.9170251339673996 l1.9050416350364685,1.0867059230804443 3.249395489692688,0.7559878379106522 l5.188059210777283,0.5046332627534866 5.592676401138306,0.13140174560248852 l5.134263038635254,-0.1559219229966402 5.475829839706421,-0.27164358645677567 l12.48286247253418,0.007445215014740825 8.720906972885132,-0.28472449630498886 l2.430938631296158,-0.4398975521326065 1.6510054469108582,-0.9116689115762711 l0.9309619665145874,-1.3174857199192047 0.04111099522560835,-1.4307048916816711 l-0.9156888723373413,-1.318182498216629 -1.8261697888374329,-1.1201704293489456 l-2.7693063020706177,-0.9127630293369293 -5.357173681259155,-0.6959972530603409 l-6.323198676109314,-0.14156418852508068 -10.760300159454346,0.3204997256398201 l-9.737802743911743,0.6116199493408203 -7.684110999107361,0.8029285073280334 l-6.341874599456787,1.2342852354049683 -1.6733747720718384,0.7052621990442276 l-0.9616675227880478,0.8227412402629852 -0.39262376725673676,1.1365106701850891 l0.187505092471838,1.197434440255165 " fill="none" stroke="black" stroke-width="1" /></svg>