<?xml version="1.0" encoding="utf-8" ?>
<svg baseProfile="full" height="2055.0" version="1.1" width="3150.0" xmlns="http://www.w3.org/2000/svg" xmlns:ev="http://www.w3.org/2001/xml-events" xmlns:xlink="http://www.w3.org/1999/xlink"><defs /><rect fill="white" height="2055.0" width="3150.0" x="0" y="0" /><path d="M400.0,470.0 m105.0,45.0 l115.0,25.0 1095.0,120.0 l615.0,50.0 675.0,25.0 l110.0,105.0 10.0,75.0 l-30.0,25.0 -190.0,90.0 l-545.0,170.0 -275.0,45.0 l-875.0,-10.0 -445.0,-85.0 l-110.0,-30.0 -115.0,-65.0 l-175.0,-215.0 -110.0,-230.0 l-160.0,-115.0 -70.0,-20.0 l110.0,-10.0 300.0,25.0 m840.0,230.0 l495.0,-585.0 140.0,-110.0 l15.0,105.0 -10.0,80.0 l-50.0,175.0 -80.0,195.0 l-10.0,95.0 65.0,80.0 l345.0,240.0 180.0,0.0 m-1235.0,280.0 l-20.0,205.0 -115.0,475.0 l0.0,75.0 40.0,-10.0 l170.0,-135.0 335.0,-405.0 l105.0,-220.0 85.0,-135.0 l40.0,-150.0 m545.0,-220.0 l5.0,105.0 -20.0,140.0 l30.0,20.0 155.0,-5.0 l230.0,-35.0 " fill="none" stroke="black" stroke-width="1" /></svg>