<?xml version="1.0" encoding="utf-8" ?>
<svg baseProfile="full" height="995.0" version="1.1" width="980.0" xmlns="http://www.w3.org/2000/svg" xmlns:ev="http://www.w3.org/2001/xml-events" xmlns:xlink="http://www.w3.org/1999/xlink"><defs /><rect fill="white" height="995.0" width="980.0" x="0" y="0" /><path d="M290.0,160.0 m155.0,-110.0 l140.0,-25.0 175.0,10.0 l50.0,25.0 75.0,90.0 l55.0,110.0 15.0,145.0 l-80.0,255.0 -40.0,80.0 l-65.0,80.0 -130.0,110.0 l-145.0,30.0 -200.0,10.0 l-80.0,-10.0 -60.0,-40.0 l-80.0,-115.0 -50.0,-250.0 l0.0,-175.0 25.0,-65.0 l65.0,-100.0 35.0,-25.0 l210.0,-100.0 m45.0,380.0 l-40.0,265.0 215.0,-60.0 l130.0,-15.0 -245.0,75.0 l-60.0,5.0 -15.0,-25.0 l20.0,-480.0 " fill="none" stroke="black" stroke-width="1" /></svg>