<?xml version="1.0" encoding="utf-8" ?>
<svg baseProfile="full" height="67.1043786406517" version="1.1" width="68.28136760741472" xmlns="http://www.w3.org/2000/svg" xmlns:ev="http://www.w3.org/2001/xml-events" xmlns:xlink="http://www.w3.org/1999/xlink"><defs /><rect fill="white" height="67.1043786406517" width="68.28136760741472" x="0" y="0" /><path d="M28.613135255873203,28.320302795618773 m3.3250516653060913,-2.260787785053253 l2.7320128679275513,-0.8915227651596069 2.5572234392166138,-0.1679922454059124 l2.0662057399749756,0.4543522000312805 2.458529770374298,1.8135333061218262 l1.0893823951482773,1.9489558041095734 0.43982647359371185,2.5479164719581604 l-0.4300026595592499,3.4338176250457764 -1.7203615605831146,3.2259902358055115 l-1.8050427734851837,1.8178507685661316 -2.298196852207184,1.2221086770296097 l-3.439686596393585,0.6398535519838333 -3.366590440273285,-0.24831416085362434 l-2.0603394508361816,-0.914471298456192 -1.762043982744217,-1.7010962963104248 l-1.082102209329605,-2.2561337053775787 -0.3170010820031166,-2.621643841266632 l0.3496643900871277,-2.5913992524147034 1.1659259349107742,-2.2538426518440247 l1.5855096280574799,-1.551433503627777 1.7706845700740814,-0.7847143709659576 l1.7814326286315918,-0.12266370467841625 m2.3208272457122803,2.6678097248077393 l-0.07309118751436472,0.5427314341068268 0.12132314965128899,2.3201756179332733 l0.02916984260082245,-0.22912433370947838 0.2249843254685402,-0.9380681067705154 l0.07333253510296345,-4.591137766838074 -0.05089955870062113,-0.8803992718458176 " fill="none" stroke="black" stroke-width="1" /></svg>