<?xml version="1.0" encoding="utf-8" ?>
<svg baseProfile="full" height="91.63744717137888" version="1.1" width="109.7762431204319" xmlns="http://www.w3.org/2000/svg" xmlns:ev="http://www.w3.org/2001/xml-events" xmlns:xlink="http://www.w3.org/1999/xlink"><defs /><rect fill="white" height="91.63744717137888" width="109.7762431204319" x="0" y="0" /><path d="M34.65409271419048,36.42619032878429 m0.5900213867425919,-1.23775415122509 l1.0723937302827835,-0.4065745323896408 0.5426079407334328,-0.8926758915185928 l0.6512431055307388,-5.989834666252136 0.6661071628332138,-2.607647180557251 l3.023490011692047,4.93045449256897 2.061392068862915,4.1960209608078 l1.585306078195572,1.4868754148483276 3.31847220659256,0.515933483839035 l3.7142080068588257,-0.024148263037204742 1.9507326185703278,-0.03701977897435427 l4.8510682582855225,-3.7329721450805664 5.425625443458557,-5.959931015968323 l2.304786890745163,-1.6669170558452606 0.38996007293462753,0.6392589956521988 l0.2772401086986065,10.385898351669312 0.40529098361730576,3.437328338623047 l0.5005620792508125,2.9014259576797485 m-35.66080331802368,-3.5106343030929565 l0.7194162905216217,6.294128894805908 1.1213570833206177,5.831120014190674 l1.1577755957841873,3.2232925295829773 1.5318310260772705,2.742927074432373 l1.897500604391098,2.272987514734268 2.2838501632213593,1.8585538864135742 l2.7302834391593933,1.393703669309616 4.580023884773254,1.0785650461912155 l5.214480757713318,0.03853674279525876 3.5791558027267456,-0.809202566742897 l3.010057508945465,-1.346571147441864 2.7425965666770935,-1.905703991651535 l2.4439284205436707,-2.4440668523311615 1.986018717288971,-2.8344854712486267 l2.111460715532303,-4.612923264503479 1.2667550146579742,-5.222632884979248 l0.2919732965528965,-4.619210660457611 -0.5946474149823189,-3.3395636081695557 m-24.650561809539795,9.287409782409668 l-0.012172069400548935,2.008349746465683 0.2638066001236439,1.724075973033905 l0.5494480952620506,0.3735080733895302 1.3987290859222412,-0.4848751053214073 l0.7675123959779739,-2.4191944301128387 -0.6040880084037781,-1.4699262380599976 l-1.1739777028560638,-0.15905098989605904 m6.410235166549683,0.3400298207998276 l-0.31195033341646194,1.936342865228653 0.1544177159667015,1.5206868946552277 l0.637643039226532,0.6963151693344116 1.5630757808685303,-0.050617847591638565 l1.1711350083351135,-1.1973463743925095 0.44211897999048233,-1.5764105319976807 m-8.287487030029297,2.831224501132965 l-7.489746809005737,0.5620952695608139 -11.43594741821289,1.0415250062942505 l-4.789805710315704,0.5143652856349945 m23.82223606109619,-0.4775388538837433 l-8.69621217250824,2.7346843481063843 -6.014142632484436,2.267722338438034 l-5.598674416542053,2.6292824745178223 -2.3141172528266907,1.5809343755245209 m21.86300039291382,-8.52421522140503 l-1.2410254031419754,0.1609872281551361 -5.795413851737976,2.876580059528351 l-10.236822366714478,6.55893862247467 -2.398225963115692,2.453613579273224 l-0.9911596775054932,1.7346031963825226 m30.911757946014404,-18.646527528762817 l0.9537623077630997,-0.5731203034520149 3.325009346008301,-0.7525883615016937 l5.547170639038086,-0.4496462643146515 8.530250787734985,0.5606093257665634 l5.156741142272949,1.476988047361374 2.0233063399791718,1.0447735339403152 l0.9288018941879272,0.9620457142591476 m-27.14721918106079,2.489583343267441 l1.7177903652191162,0.317089781165123 8.743542432785034,2.729349136352539 l10.100629329681396,3.961472511291504 2.9607093334198,1.4625129103660583 l1.4638590812683105,1.0832098871469498 0.799100399017334,1.4160047471523285 l-0.08671164512634277,1.1667000502347946 -0.8349991589784622,0.8826729655265808 l-1.6034504771232605,0.7465214282274246 -2.4484990537166595,0.5098641291260719 l-9.56321895122528,0.32310083508491516 -16.22888445854187,-1.6240614652633667 l-4.999211430549622,-1.0758630186319351 " fill="none" stroke="black" stroke-width="1" /></svg>