<?xml version="1.0" encoding="utf-8" ?>
<svg baseProfile="full" height="2430.0" version="1.1" width="3920.0" xmlns="http://www.w3.org/2000/svg" xmlns:ev="http://www.w3.org/2001/xml-events" xmlns:xlink="http://www.w3.org/1999/xlink"><defs /><rect fill="white" height="2430.0" width="3920.0" x="0" y="0" /><path d="M1815.0,750.0 m25.0,-65.0 l60.0,-20.0 15.0,-25.0 l100.0,-315.0 40.0,-230.0 l30.0,10.0 65.0,190.0 l80.0,485.0 40.0,105.0 l135.0,-130.0 105.0,-45.0 l145.0,-20.0 185.0,0.0 l280.0,70.0 110.0,50.0 l160.0,125.0 -5.0,-395.0 l45.0,-215.0 100.0,-300.0 l25.0,15.0 75.0,175.0 l50.0,220.0 35.0,280.0 l10.0,485.0 25.0,135.0 m-1920.0,-525.0 l40.0,410.0 50.0,125.0 l150.0,265.0 115.0,140.0 l105.0,80.0 130.0,60.0 l160.0,35.0 270.0,20.0 l280.0,0.0 175.0,-50.0 l185.0,-100.0 160.0,-125.0 l165.0,-205.0 65.0,-130.0 l15.0,-90.0 -10.0,-90.0 m-1290.0,95.0 l195.0,45.0 315.0,20.0 l-25.0,40.0 -555.0,185.0 l80.0,-160.0 10.0,-145.0 m-105.0,380.0 l185.0,120.0 90.0,35.0 l310.0,20.0 150.0,-25.0 m-770.0,-70.0 l-205.0,15.0 -70.0,-20.0 l-55.0,-60.0 m255.0,-720.0 l-10.0,105.0 20.0,-35.0 m955.0,25.0 l-20.0,110.0 m35.0,730.0 l-10.0,100.0 -45.0,85.0 l-70.0,75.0 -85.0,50.0 l-130.0,65.0 -255.0,50.0 l-205.0,110.0 -165.0,25.0 l-695.0,0.0 -140.0,-15.0 l-265.0,-95.0 -515.0,-130.0 l-270.0,-100.0 -80.0,-45.0 m1335.0,-515.0 l-215.0,-135.0 -205.0,-65.0 l-380.0,-10.0 -190.0,40.0 l-245.0,90.0 -260.0,165.0 l-85.0,105.0 -75.0,195.0 l-105.0,200.0 " fill="none" stroke="black" stroke-width="1" /></svg>