<?xml version="1.0" encoding="utf-8" ?>
<svg baseProfile="full" height="1825.0" version="1.1" width="2305.0" xmlns="http://www.w3.org/2000/svg" xmlns:ev="http://www.w3.org/2001/xml-events" xmlns:xlink="http://www.w3.org/1999/xlink"><defs /><rect fill="white" height="1825.0" width="2305.0" x="0" y="0" /><path d="M220.0,380.0 m-100.0,130.0 l-60.0,150.0 -35.0,160.0 l0.0,140.0 55.0,160.0 l60.0,100.0 140.0,140.0 l130.0,80.0 295.0,80.0 l825.0,10.0 170.0,-50.0 l280.0,-140.0 130.0,-120.0 l130.0,-200.0 40.0,-170.0 l0.0,-285.0 -60.0,-165.0 l-60.0,-90.0 -100.0,-70.0 l-120.0,-55.0 -120.0,-25.0 l-100.0,-40.0 -100.0,0.0 l-130.0,-20.0 -30.0,-20.0 l-240.0,-20.0 -180.0,-35.0 l-280.0,0.0 -80.0,15.0 l-250.0,140.0 -100.0,180.0 m430.0,960.0 l0.0,140.0 -30.0,125.0 m220.0,-325.0 l180.0,20.0 570.0,0.0 l0.0,80.0 -110.0,400.0 l-20.0,30.0 -50.0,10.0 l-200.0,-40.0 -555.0,0.0 l-15.0,-35.0 10.0,-75.0 m180.0,-450.0 l-155.0,65.0 -25.0,25.0 l-20.0,70.0 m220.0,-15.0 l140.0,35.0 210.0,0.0 " fill="none" stroke="black" stroke-width="1" /></svg>