<?xml version="1.0" encoding="utf-8" ?>
<svg baseProfile="full" height="79.50109198689461" version="1.1" width="93.62060256302357" xmlns="http://www.w3.org/2000/svg" xmlns:ev="http://www.w3.org/2001/xml-events" xmlns:xlink="http://www.w3.org/1999/xlink"><defs /><rect fill="white" height="79.50109198689461" width="93.62060256302357" x="0" y="0" /><path d="M29.018496749595215,31.50271165613958 m-2.034830152988434,2.6572641730308533 l-1.0363301634788513,2.7159500122070312 -0.9469079971313477,3.6151260137557983 l-0.00042843599658226594,2.9201608896255493 1.1396467685699463,2.5615650415420532 l1.6215406358242035,1.9555169343948364 2.234720289707184,1.7267771065235138 l5.6641703844070435,2.766653597354889 3.8648486137390137,1.1342228949069977 l8.927390575408936,0.9445725381374359 6.924857497215271,0.0005711292760679498 l4.0007928013801575,-0.9395352005958557 5.830279588699341,-3.601093888282776 l2.039978802204132,-2.7742111682891846 1.0091682523488998,-2.779865860939026 l0.3632083535194397,-4.120849967002869 -0.6880862265825272,-3.9338740706443787 l-1.216655969619751,-2.759588658809662 -1.6058491170406342,-2.289215922355652 l-2.993514835834503,-2.676616609096527 -2.7866408228874207,-1.590387374162674 l-2.939079701900482,-1.0746286064386368 -4.862143099308014,-0.9612246602773666 l-4.671691060066223,0.0002041081097559072 -5.085843205451965,0.9189368039369583 l-4.343040585517883,1.7067588865756989 -2.266068458557129,1.3761559128761292 l-2.4010807275772095,2.105965167284012 -0.9799595922231674,1.4816446602344513 l-0.2641694247722626,1.241702139377594 m14.669995307922363,-3.3011436462402344 l-1.5454238653182983,5.395912528038025 -1.1286625266075134,4.842237830162048 l9.038671851158142,1.9676409661769867 6.591379642486572,1.3497307896614075 l2.9633623361587524,0.9761666506528854 m-19.781609773635864,-8.141210079193115 l-1.8996509909629822,1.0043469816446304 -1.592486947774887,1.380298137664795 l-1.2748803198337555,2.024677097797394 -0.3716050088405609,2.1231167018413544 l0.5543771758675575,1.2656539678573608 1.2482698261737823,0.8914422988891602 l4.381805062294006,1.0538585484027863 4.274671971797943,0.0002731514905462973 l0.673777312040329,-0.5032895877957344 0.2787363715469837,-4.251152575016022 l-4.520028531551361,-3.1309539079666138 -1.9663728773593903,-0.5000900477170944 m5.7098084688186646,2.7473029494285583 l-0.4909597709774971,0.8066212385892868 -0.4449034109711647,1.6732634603977203 " fill="none" stroke="black" stroke-width="1" /></svg>