<?xml version="1.0" encoding="utf-8" ?>
<svg baseProfile="full" height="70.31137914338615" version="1.1" width="75.50451029557735" xmlns="http://www.w3.org/2000/svg" xmlns:ev="http://www.w3.org/2001/xml-events" xmlns:xlink="http://www.w3.org/1999/xlink"><defs /><rect fill="white" height="70.31137914338615" width="75.50451029557735" x="0" y="0" /><path d="M34.721097871661186,25.96495724050328 m-0.44907718896865845,-0.3390001133084297 l-2.3582251369953156,-0.24357011541724205 -3.155145049095154,0.3242803364992142 l-1.5826930105686188,0.6365661323070526 -1.6987614333629608,1.4992822706699371 l-0.4771960526704788,1.1775385588407516 0.17482491210103035,1.1914970725774765 l1.8474692106246948,1.2478428333997726 7.100585103034973,1.1661189794540405 l9.046519994735718,-0.8727510273456573 2.1786537766456604,-1.0320089012384415 l0.6748522073030472,-0.8540616929531097 -0.13787099160254002,-1.0241257399320602 l-1.5520383417606354,-1.2293338775634766 -2.7779310941696167,-1.1083710938692093 l-3.391004800796509,-0.582377128303051 -3.5003897547721863,-0.00931755464989692 m-6.552950739860535,6.424337029457092 l0.04416726063936949,8.621037602424622 0.4293444752693176,1.9908155500888824 l0.8040256798267365,1.0401429235935211 1.3914461433887482,0.725049152970314 l2.645285725593567,0.5160433053970337 3.1587830185890198,0.0807873997837305 l2.7331548929214478,-0.4262237250804901 2.5640925765037537,-1.1278443783521652 l1.779179573059082,-1.6341270506381989 1.181180402636528,-2.419087141752243 l0.451309010386467,-3.0543291568756104 -0.2080000564455986,-2.746153473854065 l-0.8625879138708115,-1.9542589783668518 m-14.431918859481812,3.2378041744232178 l2.695743143558502,0.7784993946552277 3.669677972793579,0.24536240845918655 l7.325220704078674,-0.5121218413114548 3.3488309383392334,-0.8755913376808167 m-15.620769262313843,1.2555140256881714 l2.4932201206684113,0.7657044380903244 3.9158600568771362,0.232284776866436 l6.976680159568787,-0.7120449095964432 3.6515751481056213,-0.970289558172226 m-15.20024061203003,-1.5679551661014557 l1.8499688804149628,0.21247642114758492 3.823550045490265,-0.1675805076956749 l3.77766877412796,-0.25381190702319145 3.5223564505577087,-0.1604674756526947 l2.162053734064102,-0.3502824902534485 m-13.835703134536743,0.004983647377230227 l1.8144576251506805,0.01993437996134162 2.8657540678977966,-0.4423341155052185 l3.8924482464790344,0.1003451831638813 2.973368465900421,-0.48333626240491867 l2.68334299325943,0.10232825763523579 m-12.804639339447021,-0.1152192335575819 l2.0546793937683105,-0.20545253530144691 2.977614998817444,-0.2824799716472626 l3.592071235179901,0.06211659871041775 2.737162411212921,-0.5254067108035088 l2.5899308919906616,0.08750870823860168 m-12.392768859863281,-0.4519735649228096 l1.9020965695381165,-0.3827628493309021 3.453526496887207,0.021859805565327406 l2.8460362553596497,-0.4801508039236069 3.1999680399894714,0.05192000884562731 l1.7735862731933594,-0.4579675570130348 m-10.914380550384521,-0.16686873510479927 l-0.07827444933354855,-4.56389993429184 2.0826752483844757,0.09459135122597218 l0.6367582827806473,1.3785237073898315 -0.08804136887192726,4.088656902313232 " fill="none" stroke="black" stroke-width="1" /></svg>