<?xml version="1.0" encoding="utf-8" ?>
<svg baseProfile="full" height="1300.0" version="1.1" width="1915.0" xmlns="http://www.w3.org/2000/svg" xmlns:ev="http://www.w3.org/2001/xml-events" xmlns:xlink="http://www.w3.org/1999/xlink"><defs /><rect fill="white" height="1300.0" width="1915.0" x="0" y="0" /><path d="M480.0,480.0 m-25.0,-20.0 l-80.0,10.0 -95.0,80.0 l-45.0,60.0 -25.0,95.0 l-85.0,95.0 -100.0,70.0 m490.0,-395.0 l195.0,-110.0 135.0,-35.0 l250.0,-5.0 185.0,30.0 l75.0,50.0 65.0,165.0 l10.0,155.0 -15.0,75.0 l-130.0,105.0 -135.0,50.0 l-110.0,20.0 -200.0,-10.0 l-215.0,-45.0 -190.0,-70.0 l-45.0,-40.0 -25.0,-55.0 l-20.0,-140.0 5.0,-120.0 l40.0,-55.0 190.0,-75.0 m745.0,-40.0 l30.0,-60.0 40.0,-30.0 l90.0,-45.0 85.0,-5.0 l45.0,25.0 70.0,80.0 l15.0,75.0 0.0,90.0 l-20.0,35.0 -75.0,95.0 l-80.0,55.0 -55.0,5.0 l-145.0,-130.0 m80.0,-305.0 l10.0,-185.0 35.0,0.0 l55.0,40.0 115.0,150.0 m25.0,0.0 l245.0,-50.0 -205.0,255.0 m-1200.0,565.0 l-80.0,75.0 -95.0,215.0 m550.0,-305.0 l-15.0,80.0 -85.0,175.0 m235.0,-230.0 l20.0,45.0 5.0,145.0 m155.0,-265.0 l65.0,80.0 65.0,130.0 l30.0,25.0 m145.0,-805.0 l-145.0,-130.0 -210.0,-135.0 m345.0,310.0 l-190.0,-80.0 -130.0,-80.0 l-130.0,-45.0 " fill="none" stroke="black" stroke-width="1" /></svg>