<?xml version="1.0" encoding="utf-8" ?>
<svg baseProfile="full" height="96.7525888979435" version="1.1" width="105.51488146185875" xmlns="http://www.w3.org/2000/svg" xmlns:ev="http://www.w3.org/2001/xml-events" xmlns:xlink="http://www.w3.org/1999/xlink"><defs /><rect fill="white" height="96.7525888979435" width="105.51488146185875" x="0" y="0" /><path d="M54.22275951481424,31.52440974023193 m-0.03333668923005462,-0.7372471690177917 l-0.9232145547866821,-0.5032053589820862 -3.6965718865394592,-0.8308827131986618 l-2.6692479848861694,-0.23814311251044273 -2.342965453863144,0.2376324124634266 l-1.3181203603744507,0.5640281364321709 -0.730876550078392,0.8337409794330597 l-0.23040777072310448,1.0904812067747116 0.4981681704521179,0.9552307426929474 l3.4657973051071167,1.7320312559604645 4.418996870517731,0.01380015630275011 l2.1356838941574097,-0.8594224601984024 1.0380694270133972,-1.0573727637529373 l0.23395366966724396,-1.1224140226840973 -0.5731016770005226,-0.9713035821914673 m-4.60429310798645,6.9196659326553345 l-0.7162309437990189,1.9453571736812592 -2.1569421887397766,5.378702878952026 l-4.446865022182465,13.273568153381348 -2.7148407697677612,8.386614918708801 l-0.7931436598300934,3.8850903511047363 1.9761252403259277,0.6971072405576706 l9.237560629844666,0.493396632373333 9.624971747398376,0.1417221687734127 l6.847128868103027,-0.4055875539779663 4.246435463428497,-0.5528859421610832 l0.5462992936372757,-0.5058564245700836 0.009384223958477378,-1.027938425540924 l-4.477272033691406,-8.762730360031128 -2.4078673124313354,-5.354074835777283 l-4.001715183258057,-8.929503560066223 -1.5527866780757904,-4.393462538719177 l-0.9424076229333878,-3.238579034805298 m-8.990252017974854,-5.122207403182983 l-3.6366215348243713,-3.3229470252990723 -2.3474015295505524,-2.0365989208221436 l-2.1671411395072937,-1.2947170436382294 -3.041773736476898,-1.2110331654548645 l-3.2743334770202637,-0.5944666638970375 -3.477873206138611,0.36224693059921265 l-2.03994944691658,1.1474104970693588 -1.3502496480941772,1.642090529203415 l-1.3397736847400665,3.3678409457206726 -0.5037574470043182,4.6296486258506775 l0.5539630353450775,5.1648640632629395 1.1082379519939423,3.0414986610412598 l2.3400843143463135,3.856760263442993 3.25285941362381,3.488999605178833 l3.6571991443634033,2.455923557281494 4.0106746554374695,1.576078087091446 l2.7858707308769226,0.36446452140808105 m15.358929634094238,-21.65398120880127 l0.8632273226976395,-1.3929831981658936 1.9915947318077087,-1.7355789244174957 l3.4443938732147217,-2.2780825197696686 2.564336061477661,-1.0643534362316132 l3.121468424797058,-0.5722935125231743 2.9069629311561584,0.3087073750793934 l2.7061930298805237,1.412227749824524 2.44199201464653,2.6496732234954834 l1.6183698177337646,3.6073514819145203 0.7885243743658066,4.30108904838562 l-0.08999553509056568,3.6806029081344604 -0.9657012671232224,3.5292017459869385 l-1.7700552940368652,3.2859209179878235 -2.497795969247818,2.8549718856811523 l-3.1187021732330322,2.020075023174286 -3.665301203727722,1.1848538368940353 l-2.538902759552002,0.19737808033823967 -1.9550728797912598,-0.6943143159151077 l-2.3421579599380493,-1.9963343441486359 -0.8241047710180283,-1.1998049169778824 m-7.732140421867371,-21.89527988433838 l-0.11465005576610565,2.21686914563179 0.07846967317163944,4.420047402381897 l0.19030548632144928,4.9637725949287415 -0.07817467674612999,4.852716326713562 l-0.2562745288014412,4.044621586799622 -0.12017588131129742,3.440127670764923 l-0.15336573123931885,2.504965662956238 -0.05408821627497673,2.4582937359809875 l0.14500247314572334,1.8955367803573608 0.4446234181523323,1.1371702700853348 l0.6621880084276199,0.45466724783182144 m1.1065885424613953,-33.603501319885254 l0.5419785529375076,3.672845959663391 1.0387688875198364,8.486443758010864 l0.5826905742287636,7.422555685043335 0.4667290300130844,5.548164248466492 l0.34280940890312195,3.999130427837372 0.3393900766968727,3.5785284638404846 l0.271363016217947,3.11669260263443 0.23699183017015457,2.664787471294403 m-3.3416205644607544,-33.50586414337158 l0.4064851254224777,0.4161607101559639 1.7108206450939178,1.8588289618492126 l2.218547761440277,3.262869119644165 2.016187906265259,3.848678469657898 l1.4832818508148193,3.8742464780807495 " fill="none" stroke="black" stroke-width="1" /></svg>