<?xml version="1.0" encoding="utf-8" ?>
<svg baseProfile="full" height="3075.0" version="1.1" width="3175.0" xmlns="http://www.w3.org/2000/svg" xmlns:ev="http://www.w3.org/2001/xml-events" xmlns:xlink="http://www.w3.org/1999/xlink"><defs /><rect fill="white" height="3075.0" width="3175.0" x="0" y="0" /><path d="M1955.0,425.0 m0.0,-35.0 l-45.0,-30.0 -150.0,-60.0 l-300.0,-15.0 -80.0,25.0 l-115.0,65.0 -45.0,60.0 l0.0,35.0 35.0,40.0 l150.0,50.0 265.0,10.0 l80.0,-20.0 60.0,-20.0 l90.0,-85.0 10.0,-105.0 l-25.0,-45.0 m-540.0,805.0 l-100.0,-35.0 -210.0,-175.0 l-165.0,-210.0 -375.0,-600.0 l-30.0,-35.0 -55.0,-20.0 l-195.0,335.0 -125.0,300.0 l-65.0,315.0 0.0,195.0 l5.0,95.0 65.0,155.0 l225.0,200.0 100.0,60.0 l235.0,90.0 490.0,125.0 l215.0,30.0 m510.0,-785.0 l175.0,-80.0 625.0,-225.0 l105.0,-55.0 175.0,-140.0 l120.0,-180.0 70.0,-145.0 l-35.0,195.0 -5.0,390.0 l50.0,420.0 0.0,270.0 l-25.0,120.0 -105.0,230.0 l-80.0,95.0 -85.0,60.0 l-200.0,45.0 -440.0,-5.0 l-145.0,-20.0 -85.0,-35.0 m-295.0,-1270.0 l-10.0,-30.0 -25.0,-15.0 l-160.0,15.0 -50.0,45.0 l-25.0,50.0 -10.0,165.0 l75.0,65.0 145.0,60.0 l120.0,0.0 45.0,-25.0 l40.0,-65.0 25.0,-65.0 l10.0,-120.0 -25.0,-50.0 l-45.0,-30.0 m-485.0,265.0 l25.0,135.0 30.0,30.0 l100.0,30.0 250.0,5.0 l75.0,-30.0 105.0,-80.0 l-55.0,320.0 0.0,295.0 l25.0,200.0 -5.0,220.0 l-80.0,285.0 -55.0,75.0 l-75.0,35.0 m-360.0,-1365.0 l20.0,95.0 -5.0,175.0 l-55.0,295.0 -10.0,375.0 l-50.0,295.0 -105.0,240.0 l-85.0,110.0 -195.0,200.0 m1015.0,-1145.0 l80.0,25.0 75.0,190.0 l115.0,650.0 115.0,315.0 " fill="none" stroke="black" stroke-width="1" /></svg>