<?xml version="1.0" encoding="utf-8" ?>
<svg baseProfile="full" height="2145.0" version="1.1" width="2955.0" xmlns="http://www.w3.org/2000/svg" xmlns:ev="http://www.w3.org/2001/xml-events" xmlns:xlink="http://www.w3.org/1999/xlink"><defs /><rect fill="white" height="2145.0" width="2955.0" x="0" y="0" /><path d="M1915.0,350.0 m-165.0,-45.0 l-105.0,-10.0 -180.0,10.0 l-195.0,85.0 -200.0,150.0 l-105.0,125.0 -85.0,200.0 l-30.0,155.0 0.0,355.0 l15.0,75.0 70.0,140.0 l45.0,55.0 115.0,95.0 l205.0,110.0 75.0,25.0 l145.0,35.0 235.0,5.0 l205.0,-80.0 140.0,-110.0 l110.0,-190.0 115.0,-330.0 l35.0,-230.0 -5.0,-255.0 l-65.0,-150.0 -100.0,-105.0 l-120.0,-55.0 -180.0,-25.0 m140.0,600.0 l50.0,15.0 270.0,10.0 l580.0,0.0 m-935.0,270.0 l215.0,5.0 500.0,50.0 m-810.0,195.0 l790.0,105.0 125.0,45.0 l10.0,25.0 m-1740.0,-700.0 l-310.0,-45.0 -460.0,-145.0 m740.0,525.0 l-240.0,10.0 -445.0,50.0 l-345.0,15.0 m1160.0,85.0 l-180.0,185.0 -195.0,155.0 l-115.0,85.0 -345.0,195.0 m970.0,-1445.0 l-45.0,20.0 -10.0,-40.0 l75.0,-85.0 130.0,-15.0 l5.0,90.0 -15.0,35.0 l-60.0,50.0 -80.0,10.0 l-30.0,-20.0 0.0,-50.0 l10.0,-25.0 80.0,-25.0 l30.0,10.0 -10.0,70.0 l-65.0,10.0 -5.0,-40.0 l35.0,-35.0 70.0,-5.0 l5.0,35.0 -15.0,20.0 m445.0,50.0 l-5.0,-25.0 20.0,-40.0 l35.0,-20.0 20.0,30.0 l0.0,35.0 -85.0,65.0 l-50.0,-10.0 -5.0,-75.0 l20.0,-35.0 65.0,-30.0 l20.0,35.0 -15.0,50.0 m-515.0,610.0 l85.0,270.0 80.0,20.0 l100.0,-5.0 45.0,-50.0 l5.0,-155.0 -20.0,-25.0 l-315.0,-5.0 m-195.0,-915.0 l75.0,-215.0 130.0,-170.0 l60.0,-10.0 10.0,190.0 l15.0,25.0 50.0,15.0 l65.0,-30.0 235.0,-215.0 l60.0,-25.0 5.0,200.0 l50.0,40.0 100.0,-10.0 l225.0,-130.0 10.0,200.0 l15.0,40.0 70.0,5.0 l195.0,-100.0 -15.0,75.0 l-140.0,240.0 -40.0,110.0 " fill="none" stroke="black" stroke-width="1" /></svg>