<?xml version="1.0" encoding="utf-8" ?>
<svg baseProfile="full" height="93.60146176069975" version="1.1" width="86.97376736157821" xmlns="http://www.w3.org/2000/svg" xmlns:ev="http://www.w3.org/2001/xml-events" xmlns:xlink="http://www.w3.org/1999/xlink"><defs /><rect fill="white" height="93.60146176069975" width="86.97376736157821" x="0" y="0" /><path d="M50.5144511382332,29.783969922682445 m-3.306853771209717,-0.9381146728992462 l-1.9916155934333801,-0.18454564735293388 -4.3579113483428955,0.5549761280417442 l-3.7392687797546387,1.5604157745838165 -3.4510836005210876,2.452562600374222 l-2.1033871173858643,2.3385627567768097 -2.7818241715431213,5.472535490989685 l-0.5126536637544632,4.580515921115875 -0.00016653877537464723,3.6525246500968933 l0.452805832028389,1.6157247126102448 0.9756708890199661,1.7510801553726196 l2.193055748939514,2.252945452928543 2.291663885116577,1.5050341188907623 l2.388918399810791,0.9752656519412994 2.5504830479621887,0.5293101817369461 l4.161219894886017,0.0002654541822266765 3.0496346950531006,-0.5377139896154404 l2.6593992114067078,-0.9809395670890808 2.3970064520835876,-1.3607347011566162 l3.2093653082847595,-2.9571735858917236 1.7109888792037964,-2.7744609117507935 l1.1042021960020065,-4.5155733823776245 6.310280696197879e-05,-4.996860921382904 l-1.8746045231819153,-4.280481934547424 -2.489200234413147,-2.759326994419098 l-3.0246153473854065,-1.8563531339168549 -2.243848145008087,-0.6051092222332954 m-15.731769800186157,25.309481620788574 l-1.6819436848163605,3.923523426055908 -2.948293387889862,5.326201915740967 l-2.419888973236084,3.282707929611206 0.09223181754350662,0.3325872868299484 m24.498794078826904,-12.381010055541992 l1.9748355448246002,5.147814154624939 3.773309886455536,6.497662663459778 l1.0564449429512024,0.8841925114393234 m-21.95997714996338,-28.620967864990234 l-0.5134597048163414,2.7166208624839783 -0.9441710263490677,4.9589526653289795 m12.598284482955933,-7.4689531326293945 l0.4382678121328354,5.403327941894531 m-9.884514212608337,-3.024784028530121 l-0.37738893181085587,1.1832144856452942 -0.8240097016096115,2.4245890974998474 m3.290487229824066,-7.350702285766602 l-0.016167713329195976,2.5375041365623474 -0.035440875217318535,1.9214603304862976 l0.6239670887589455,0.407865047454834 3.535173237323761,-0.5797421559691429 l3.2941660284996033,-0.9963520616292953 1.1344411969184875,-0.8091680705547333 l0.6706102192401886,-1.5386657416820526 -0.8749376982450485,-2.049095779657364 l-2.975018620491028,-0.7643508166074753 -5.2665311098098755,0.6889507919549942 l-1.221640333533287,1.1916200071573257 m-1.2827390432357788,-0.4365430772304535 l-2.112138420343399,-0.8822458982467651 -1.7923636734485626,-1.2477096915245056 l-2.5417402386665344,-3.571408987045288 -0.9887965023517609,-2.974095046520233 l0.04618983715772629,-2.3969386518001556 0.9952656924724579,-1.3218146562576294 l1.6603197157382965,-0.7839768379926682 1.9177420437335968,-0.21805234253406525 l3.1787413358688354,0.6274548918008804 4.956837594509125,3.2432585954666138 l1.3831697404384613,1.663767695426941 0.8372344076633453,2.363665997982025 l0.24299893528223038,1.9656917452812195 m2.464056760072708,-2.4754439294338226 l4.114654362201691,-2.719476819038391 3.515070080757141,-1.3271231949329376 l3.293357491493225,-0.16100067645311356 2.421073764562607,1.085200309753418 l1.7816399037837982,2.140660732984543 0.7954362034797668,2.6267194747924805 l8.819370123092085e-07,2.1695081889629364 -1.0711604356765747,1.9209164381027222 l-1.3084526360034943,1.0652320832014084 -2.5433391332626343,0.908781886100769 l-3.7048164010047913,0.24632185697555542 -2.4006739258766174,-0.7339471578598022 l-2.325926721096039,-1.896587610244751 m-11.794066429138184,-8.089672327041626 l-1.2097253650426865,-0.4744572192430496 -1.2852849066257477,-0.4429851099848747 l-1.625853031873703,-0.1979166641831398 -1.6861028969287872,0.41273582726716995 l-1.6594462096691132,1.3015128672122955 -1.1442994326353073,2.1401046216487885 l-0.000101976793303038,1.6667799651622772 0.8027646690607071,1.2057725340127945 l1.3744622468948364,0.8002912253141403 2.670893669128418,0.4227622225880623 l3.0860257148742676,-0.7050115615129471 1.6470052301883698,-1.2550123035907745 l0.8424702286720276,-1.4079223573207855 0.23557495325803757,-2.130134403705597 l-0.4933582618832588,-1.4444328844547272 -1.0529784858226776,-1.0041525214910507 l-1.443042904138565,-0.5262473970651627 m18.432811498641968,1.485130488872528 l-1.4458949863910675,-0.5810689553618431 -2.1419507265090942,-0.21625423803925514 l-2.2571247816085815,0.7487054914236069 -1.166934296488762,1.1841274797916412 l-0.6872732192277908,2.2116154432296753 0.3229070082306862,1.6589544713497162 l1.1627466976642609,1.1390911787748337 2.8953194618225098,1.092550829052925 l2.956034243106842,0.0002710252010729164 1.821989119052887,-0.8390314877033234 l1.6244538128376007,-1.9749991595745087 0.4209071025252342,-1.7532971501350403 l-0.29175739735364914,-1.394723653793335 " fill="none" stroke="black" stroke-width="1" /></svg>