<?xml version="1.0" encoding="utf-8" ?>
<svg baseProfile="full" height="1035.0" version="1.1" width="945.0" xmlns="http://www.w3.org/2000/svg" xmlns:ev="http://www.w3.org/2001/xml-events" xmlns:xlink="http://www.w3.org/1999/xlink"><defs /><rect fill="white" height="1035.0" width="945.0" x="0" y="0" /><path d="M50.0,580.0 m-25.0,155.0 l5.0,180.0 15.0,40.0 l90.0,35.0 225.0,20.0 l115.0,-15.0 350.0,-170.0 l45.0,-40.0 35.0,-45.0 l15.0,-145.0 -25.0,-100.0 l-55.0,-50.0 -80.0,0.0 l-300.0,30.0 -330.0,55.0 l-75.0,30.0 m195.0,-30.0 l-20.0,-110.0 -15.0,-235.0 m240.0,350.0 l-45.0,-320.0 m290.0,240.0 l-10.0,-275.0 m-515.0,80.0 l25.0,-60.0 -50.0,-25.0 l5.0,-50.0 45.0,-45.0 l20.0,0.0 0.0,75.0 l15.0,5.0 m135.0,115.0 l0.0,-225.0 25.0,-20.0 l60.0,-5.0 -10.0,170.0 m285.0,25.0 l-40.0,0.0 -35.0,-20.0 l0.0,-55.0 90.0,-100.0 " fill="none" stroke="black" stroke-width="1" /></svg>