<?xml version="1.0" encoding="utf-8" ?>
<svg baseProfile="full" height="65.28008549008518" version="1.1" width="68.29496566206217" xmlns="http://www.w3.org/2000/svg" xmlns:ev="http://www.w3.org/2001/xml-events" xmlns:xlink="http://www.w3.org/1999/xlink"><defs /><rect fill="white" height="65.28008549008518" width="68.29496566206217" x="0" y="0" /><path d="M27.028246074914932,30.823627901263535 m-0.5483920499682426,3.2147106528282166 l-0.020150355994701385,2.3794248700141907 0.3758057951927185,1.368681937456131 l0.9270458668470383,1.140621080994606 2.2833608090877533,1.181507483124733 l8.954409956932068,0.17151156440377235 1.728687435388565,-0.8127012103796005 l1.4838990569114685,-1.5074342489242554 0.8523710817098618,-2.070694863796234 l0.22968199104070663,-2.490146905183792 -0.45069698244333267,-1.9560596346855164 l-1.1858788877725601,-1.6323952376842499 -1.8000264465808868,-1.2106282263994217 l-2.500234842300415,-0.7993068546056747 -3.1382641196250916,-0.34508679062128067 l-3.180035948753357,0.11138285510241985 -2.6023653149604797,0.6951465457677841 l-2.199130803346634,1.2801744043827057 -0.9002377092838287,0.9952639043331146 l-0.3380946069955826,1.0971219092607498 m6.049734354019165,-3.626415431499481 l-0.10819145478308201,0.895664319396019 0.1120186410844326,2.6883572340011597 l0.010939969215542078,3.9652225375175476 4.365660548210144,0.6437790393829346 l4.239746332168579,0.11060107499361038 m-10.023378133773804,-6.029548645019531 l-1.4048078656196594,-0.9493178129196167 -0.7281282544136047,-1.1292915791273117 l-0.013728576013818383,-1.336302012205124 0.565255768597126,-0.9554080665111542 l1.708342283964157,-0.8701636642217636 2.2680464386940002,-0.04189813043922186 l1.467885673046112,0.7185455411672592 0.7555537670850754,0.9214138984680176 l0.45699749141931534,1.6712944209575653 -0.12573923915624619,1.7775538563728333 m1.6654494404792786,-1.481654942035675 l1.5743069350719452,-1.960790753364563 1.337549090385437,-0.7794781774282455 l1.6039656102657318,-0.1843290962278843 1.4051370322704315,0.5634739622473717 " fill="none" stroke="black" stroke-width="1" /></svg>