<?xml version="1.0" encoding="utf-8" ?>
<svg baseProfile="full" height="2255.0" version="1.1" width="1580.0" xmlns="http://www.w3.org/2000/svg" xmlns:ev="http://www.w3.org/2001/xml-events" xmlns:xlink="http://www.w3.org/1999/xlink"><defs /><rect fill="white" height="2255.0" width="1580.0" x="0" y="0" /><path d="M510.0,280.0 m-55.0,-85.0 l-30.0,-20.0 -140.0,-45.0 l-90.0,0.0 -55.0,60.0 l-40.0,155.0 5.0,325.0 l210.0,695.0 30.0,55.0 m85.0,-1265.0 l25.0,15.0 110.0,160.0 l155.0,150.0 -220.0,-160.0 l-240.0,-125.0 m395.0,-140.0 l-15.0,-30.0 0.0,75.0 l30.0,315.0 20.0,25.0 l155.0,65.0 25.0,0.0 l85.0,-55.0 45.0,-335.0 m-20.0,300.0 l140.0,-205.0 130.0,-95.0 l160.0,-5.0 90.0,75.0 l35.0,75.0 20.0,115.0 l-5.0,480.0 -25.0,120.0 l-95.0,280.0 -35.0,260.0 m-785.0,-1000.0 l75.0,455.0 0.0,105.0 l-50.0,255.0 m395.0,-705.0 l-20.0,160.0 5.0,400.0 l45.0,155.0 65.0,120.0 m-105.0,-990.0 l165.0,190.0 140.0,265.0 l-135.0,205.0 -60.0,120.0 l-25.0,95.0 m-525.0,-1065.0 l-25.0,80.0 -225.0,405.0 l20.0,75.0 145.0,295.0 l55.0,75.0 40.0,20.0 m435.0,-790.0 l-30.0,-30.0 5.0,-30.0 l65.0,-120.0 55.0,-80.0 l125.0,-100.0 120.0,-10.0 l50.0,35.0 60.0,105.0 l45.0,160.0 10.0,165.0 l-70.0,160.0 5.0,255.0 l-115.0,455.0 0.0,90.0 l25.0,55.0 m-705.0,-1155.0 l5.0,-95.0 -55.0,-90.0 l-270.0,-165.0 -200.0,0.0 l-60.0,75.0 -15.0,45.0 l-50.0,540.0 50.0,230.0 l80.0,240.0 175.0,425.0 l55.0,190.0 20.0,5.0 m235.0,-675.0 l-280.0,1110.0 m575.0,-1015.0 l0.0,135.0 110.0,100.0 l140.0,180.0 255.0,585.0 m-535.0,-1040.0 l70.0,90.0 60.0,120.0 l280.0,675.0 75.0,135.0 l35.0,30.0 " fill="none" stroke="black" stroke-width="1" /></svg>