<?xml version="1.0" encoding="utf-8" ?>
<svg baseProfile="full" height="122.98085356662341" version="1.1" width="120.14892130537191" xmlns="http://www.w3.org/2000/svg" xmlns:ev="http://www.w3.org/2001/xml-events" xmlns:xlink="http://www.w3.org/1999/xlink"><defs /><rect fill="white" height="122.98085356662341" width="120.14892130537191" x="0" y="0" /><path d="M59.44645036390284,50.20111034573347 m-1.089651733636856,-1.629093587398529 l-2.1250469982624054,-1.1303512006998062 -2.775667905807495,-0.27923762798309326 l-2.185530662536621,0.895116999745369 -1.7935563623905182,2.1122686564922333 l-0.9655927121639252,2.9591429233551025 0.11492227204144001,4.245870113372803 l1.6048473119735718,2.764139771461487 2.807914614677429,2.0318886637687683 l2.432320713996887,0.6608977913856506 3.590233325958252,-0.3083951212465763 l2.155413329601288,-1.3056482374668121 1.6696225106716156,-1.9855229556560516 l1.0271075367927551,-2.7102112770080566 0.14150582253932953,-2.875128388404846 l-0.7066082209348679,-2.401416301727295 -1.4386449754238129,-1.98275625705719 l-1.806263029575348,-1.2939514219760895 -1.9870512187480927,-0.6669790297746658 m-5.8422136306762695,14.99348759651184 l-1.2432780861854553,5.60066282749176 -4.601765275001526,12.423303127288818 l-4.575179219245911,10.109684467315674 -4.5257967710494995,7.538651823997498 l5.8522772789001465,0.01331986510194838 19.28079128265381,-0.38705959916114807 l11.86191201210022,-0.07132723927497864 0.29933927580714226,-0.5206163600087166 l-0.5434328317642212,-1.6731491684913635 -5.5162060260772705,-10.317037105560303 l-4.096783399581909,-9.249797463417053 -3.083306849002838,-8.25210452079773 l-2.012237459421158,-5.486646294593811 m2.677866518497467,7.099042534828186 l3.319084048271179,-2.83534973859787 4.853363037109375,-3.0040591955184937 l6.118778586387634,-2.9341143369674683 4.0163615345954895,-1.3924333453178406 l3.497479557991028,-0.7415061444044113 3.3183661103248596,-0.2676093764603138 l2.9540693759918213,0.2999500371515751 2.7872127294540405,1.2445791065692902 l1.4892271161079407,1.5358154475688934 0.7462684065103531,2.0416051149368286 l-0.0018021769938059151,2.408975213766098 -1.0197889804840088,2.2068437933921814 l-1.854909211397171,2.1778005361557007 -5.165770649909973,3.2925087213516235 l-4.774541556835175,1.9289419054985046 -4.422742426395416,1.139938235282898 l-4.361238777637482,0.5378549918532372 -3.7838274240493774,-0.013723496813327074 l-3.4162136912345886,-0.6743976473808289 -1.3532152771949768,-0.6726646423339844 m-14.482676982879639,-7.400740385055542 l-0.9934990108013153,-2.0101298391819 -2.723114788532257,-2.7987778186798096 l-3.6550042033195496,-2.4081625044345856 -2.6399868726730347,-1.24361552298069 l-2.7227172255516052,-0.8597568422555923 -2.8399497270584106,-0.4520023241639137 l-2.7905061841011047,0.00035094730264972895 -2.3948276042938232,0.7223115861415863 l-2.236689329147339,1.5308088064193726 -1.6451413929462433,2.0984093844890594 l-0.8654234558343887,2.463165521621704 -0.005334356101229787,3.585268557071686 l0.9024086594581604,2.17605322599411 1.6341681778430939,2.050803303718567 l2.2354675829410553,1.7362670600414276 3.923722207546234,1.8039911985397339 l3.2680684328079224,0.8085896819829941 3.55812668800354,0.2951676957309246 l4.547887742519379,-0.4169951379299164 2.938823103904724,-0.9981546550989151 m7.743619084358215,-17.552964687347412 l-0.6590194255113602,-0.2927499823272228 -1.9370411336421967,-0.9159801155328751 l-2.7019253373146057,-1.494031399488449 -2.6493272185325623,-1.4255045354366302 l-2.627319097518921,-1.50649756193161 -2.476099729537964,-1.5413138270378113 l-2.467690110206604,-1.6452494263648987 -2.3067668080329895,-1.6263961791992188 l-2.3392845690250397,-1.7872878909111023 -1.498037725687027,-1.2859494984149933 l-1.7633378505706787,-1.6592974960803986 -1.3017411530017853,-1.4647440612316132 l-1.0459650307893753,-1.4639213681221008 -0.899944081902504,-1.583331823348999 l-0.7338769733905792,-1.70962855219841 -0.48552706837654114,-1.7432527244091034 l-0.2673102356493473,-1.850876361131668 0.05749313160777092,-1.9327351450920105 l0.8446118235588074,-1.9181384146213531 1.7418380081653595,-1.7722107470035553 l2.5086623430252075,-1.4298948645591736 3.0635198950767517,-0.9494690597057343 l4.881267845630646,-0.5325397476553917 5.325170159339905,0.1773153431713581 l3.354438543319702,0.7092190533876419 4.339581727981567,1.858488917350769 l2.5944647192955017,1.7603936791419983 2.0470404624938965,2.2054117918014526 l1.3716717064380646,2.6901036500930786 0.7090278714895248,4.489901661872864 " fill="none" stroke="black" stroke-width="1" /></svg>