<?xml version="1.0" encoding="utf-8" ?>
<svg baseProfile="full" height="2295.0" version="1.1" width="3665.0" xmlns="http://www.w3.org/2000/svg" xmlns:ev="http://www.w3.org/2001/xml-events" xmlns:xlink="http://www.w3.org/1999/xlink"><defs /><rect fill="white" height="2295.0" width="3665.0" x="0" y="0" /><path d="M470.0,990.0 m130.0,-430.0 l160.0,-335.0 m0.0,0.0 l245.0,285.0 175.0,250.0 m0.0,0.0 l-95.0,165.0 -40.0,125.0 l-15.0,155.0 45.0,-95.0 l115.0,-145.0 60.0,-60.0 l110.0,-70.0 120.0,-15.0 l-95.0,110.0 -20.0,45.0 l-25.0,100.0 -5.0,125.0 l235.0,-275.0 95.0,-65.0 l95.0,-35.0 150.0,-515.0 l100.0,-285.0 180.0,435.0 l95.0,340.0 60.0,350.0 l100.0,330.0 -5.0,135.0 l-50.0,95.0 -65.0,100.0 l-45.0,40.0 -360.0,195.0 l-140.0,45.0 -275.0,10.0 l-325.0,-85.0 -105.0,-65.0 l-145.0,-155.0 -65.0,-85.0 l-130.0,-240.0 -320.0,-715.0 m595.0,1015.0 l-165.0,-15.0 -125.0,20.0 l-155.0,75.0 -290.0,200.0 l-205.0,220.0 m980.0,-780.0 l-250.0,10.0 -165.0,45.0 l-420.0,165.0 -190.0,120.0 l25.0,10.0 40.0,-25.0 m2165.0,-490.0 l210.0,-190.0 325.0,-215.0 l385.0,-190.0 275.0,-55.0 l115.0,0.0 75.0,35.0 m-1335.0,875.0 l105.0,-100.0 385.0,-225.0 l340.0,-150.0 255.0,-70.0 l125.0,0.0 70.0,20.0 m-2060.0,495.0 l185.0,-10.0 30.0,20.0 l5.0,35.0 -70.0,130.0 l-40.0,115.0 -65.0,-195.0 l-55.0,-110.0 m-230.0,-265.0 l30.0,-20.0 25.0,10.0 l10.0,30.0 -5.0,65.0 l-25.0,30.0 -60.0,-10.0 l-10.0,-50.0 40.0,-25.0 m375.0,-85.0 l5.0,-25.0 -25.0,-15.0 l-25.0,40.0 0.0,30.0 l15.0,25.0 65.0,20.0 l20.0,-65.0 " fill="none" stroke="black" stroke-width="1" /></svg>