<?xml version="1.0" encoding="utf-8" ?>
<svg baseProfile="full" height="99.86959345638752" version="1.1" width="98.59605154022574" xmlns="http://www.w3.org/2000/svg" xmlns:ev="http://www.w3.org/2001/xml-events" xmlns:xlink="http://www.w3.org/1999/xlink"><defs /><rect fill="white" height="99.86959345638752" width="98.59605154022574" x="0" y="0" /><path d="M45.04866867791861,43.71032036840916 m2.306952625513077,-8.505657315254211 l2.943161129951477,-7.118474841117859 0.19399866461753845,-0.9831959754228592 l2.351280301809311,10.388895273208618 1.945355087518692,4.511741101741791 m3.3630242943763733,-3.2222357392311096 l0.8393540978431702,-4.454585313796997 1.6179966926574707,-4.648887515068054 l1.5600374341011047,-3.242180347442627 1.2356646358966827,-1.4357396960258484 l0.5086884275078773,0.20661186426877975 0.927443653345108,6.512889862060547 l0.6244207918643951,5.0333768129348755 0.3985932469367981,3.150244951248169 l0.23516526445746422,1.9464333355426788 -0.07902851328253746,2.0852839946746826 l-0.7185739278793335,2.108939290046692 -1.6566120088100433,2.044766843318939 l-2.8103530406951904,1.6901040077209473 -2.259511649608612,0.48156436532735825 l-3.3096176385879517,-0.35438641905784607 -1.0546786338090897,-0.7876075804233551 l-0.7174557447433472,-1.3120628893375397 -0.4001697897911072,-2.8666678071022034 l0.408097505569458,-2.2718577086925507 0.9304717928171158,-1.5450119972229004 l1.993638426065445,-1.397269070148468 m-4.001990854740143,5.783869624137878 l-7.568392753601074,0.8020372688770294 -4.528353810310364,1.1726556718349457 l-5.277507305145264,2.2816185653209686 -4.636906087398529,3.23931485414505 l-2.1508532762527466,2.3528367280960083 -2.0781387388706207,3.7110409140586853 l-1.1098115891218185,4.11880761384964 -0.07405738811939955,4.3035390973091125 l0.7798828929662704,2.4196338653564453 1.3614003360271454,1.7843186855316162 l2.0240461826324463,1.382419466972351 2.8513848781585693,0.9852267801761627 l5.84929883480072,0.8069224655628204 11.066722869873047,-0.4205881804227829 l7.978138327598572,-1.6849137842655182 6.846420764923096,-2.6832610368728638 l5.718080997467041,-3.7659507989883423 2.33021542429924,-2.7628666162490845 l1.6099782288074493,-4.255468845367432 0.18048180267214775,-5.213273763656616 l-1.544555127620697,-4.332244396209717 -2.8894060850143433,-3.629067540168762 l-2.589813768863678,-1.7915256321430206 -2.3806995153427124,-0.9187773615121841 m-24.37826156616211,20.703203678131104 l-0.8161444216966629,2.4930112063884735 -1.5537552535533905,3.8597798347473145 m14.344686269760132,-5.575251579284668 l1.6269254684448242,3.7347739934921265 1.9425834715366364,2.5874745845794678 m-12.243297100067139,-21.284220218658447 l-0.35686131566762924,-0.39428915828466415 -1.9432619214057922,-3.904992938041687 l-0.241223257035017,-2.6933568716049194 1.509840488433838,-4.358246922492981 l2.0348307490348816,-0.4320024698972702 5.165688991546631,7.2763097286224365 l0.8756084740161896,1.203424334526062 m6.59501850605011,-0.2573234774172306 l5.137861371040344,-5.147742033004761 2.2387541830539703,-1.2701043486595154 l2.0089469850063324,-0.31385552138090134 -0.18767662346363068,2.7951374650001526 l-1.7118695378303528,4.55509215593338 -1.445983499288559,3.1381118297576904 m-17.511467933654785,1.1646536737680435 l-0.4008001834154129,0.2732129953801632 -0.00010491345165064558,0.7268747687339783 l0.7745625823736191,1.0049647837877274 1.0957495123147964,0.3686784952878952 l1.4453807473182678,-0.4647059366106987 0.6843212991952896,-0.9595723450183868 l-0.00041330473322886974,-1.1484085023403168 -0.6472993642091751,-0.8946675807237625 l-1.6434210538864136,-0.7177602499723434 -1.022074669599533,0.6107185035943985 m11.210390329360962,-0.22441396489739418 l-0.8896005898714066,0.8924010396003723 -0.27353283017873764,1.128055527806282 l0.5115345120429993,1.444128006696701 1.1017423868179321,0.6441617012023926 l1.7231148481369019,-0.0375477853231132 1.057819277048111,-0.9040311723947525 l0.4557543620467186,-1.2329423427581787 -0.2983115240931511,-1.6405574977397919 l-1.013525053858757,-1.0308891534805298 " fill="none" stroke="black" stroke-width="1" /></svg>