<?xml version="1.0" encoding="utf-8" ?>
<svg baseProfile="full" height="1730.0" version="1.1" width="1900.0" xmlns="http://www.w3.org/2000/svg" xmlns:ev="http://www.w3.org/2001/xml-events" xmlns:xlink="http://www.w3.org/1999/xlink"><defs /><rect fill="white" height="1730.0" width="1900.0" x="0" y="0" /><path d="M1280.0,1700.0 m-580.0,5.0 l-200.0,-15.0 -165.0,-45.0 l-115.0,-90.0 -95.0,-125.0 l-75.0,-175.0 -25.0,-190.0 l35.0,-270.0 55.0,-165.0 l140.0,-195.0 115.0,-100.0 l275.0,-165.0 245.0,-95.0 l245.0,-50.0 160.0,0.0 l150.0,40.0 140.0,80.0 l60.0,55.0 110.0,155.0 l70.0,170.0 40.0,175.0 l10.0,145.0 -5.0,200.0 l-25.0,130.0 -105.0,180.0 l-175.0,155.0 -205.0,115.0 l-125.0,45.0 -115.0,15.0 l-40.0,-25.0 m-120.0,-605.0 l45.0,-805.0 10.0,25.0 l0.0,100.0 -65.0,615.0 l0.0,80.0 40.0,30.0 l135.0,55.0 235.0,75.0 l55.0,0.0 m125.0,-45.0 l-20.0,0.0 -30.0,30.0 l-65.0,125.0 60.0,5.0 l55.0,-15.0 5.0,-65.0 l-60.0,-30.0 " fill="none" stroke="black" stroke-width="1" /></svg>