<?xml version="1.0" encoding="utf-8" ?>
<svg baseProfile="full" height="84.22184647992253" version="1.1" width="87.70515142939985" xmlns="http://www.w3.org/2000/svg" xmlns:ev="http://www.w3.org/2001/xml-events" xmlns:xlink="http://www.w3.org/1999/xlink"><defs /><rect fill="white" height="84.22184647992253" width="87.70515142939985" x="0" y="0" /><path d="M51.57963186502457,55.8732533082366 m-11.863865852355957,0.21930936723947525 l-4.1557446122169495,-0.40026236325502396 -4.3348366022109985,-1.3225023448467255 l-2.5423473119735718,-1.4895696938037872 -1.824006587266922,-1.83058500289917 l-1.2490683048963547,-2.2466133534908295 -0.6097625941038132,-2.649659514427185 l0.08288899436593056,-3.0243581533432007 0.9949878603219986,-3.1967467069625854 l3.2195240259170532,-4.866877794265747 3.7943941354751587,-3.4890207648277283 l4.097373783588409,-2.749030888080597 4.123426079750061,-1.9526296854019165 l5.741527676582336,-1.536249965429306 3.9851990342140198,-0.3384564444422722 l3.2619380950927734,0.35754457116127014 2.5854462385177612,1.0612649470567703 l2.1338194608688354,1.6738064587116241 1.6341473162174225,2.1420615911483765 l1.1698737740516663,2.7326488494873047 0.8322872221469879,4.215022623538971 l0.04831773228943348,3.001008927822113 -0.797225683927536,4.641502201557159 l-1.1135441064834595,2.928100824356079 -2.2707001864910126,3.9363300800323486 l-2.987677752971649,3.543129861354828 -3.326307535171509,2.665588855743408 l-2.1695777773857117,1.0118252038955688 -1.8430039286613464,0.3120114840567112 l-2.3120076954364777,-0.49141157418489456 m-3.2581403851509094,-22.644424438476562 l0.01319186296314001,4.067003130912781 -0.17417876049876213,6.5908896923065186 l-0.25131918489933014,4.410509169101715 -0.3400201350450516,2.7391359210014343 l-0.007050552521832287,1.5738438069820404 0.5938593298196793,0.8084389567375183 l3.9864835143089294,0.03307618899270892 4.6523889899253845,-0.41181568056344986 l2.2090238332748413,-0.3621458634734154 0.3057243674993515,-0.5072719976305962 m-8.805025219917297,-21.237621307373047 l-0.22345684468746185,0.10545032098889351 0.0002283012327097822,-0.05351316649466753 l0.35627465695142746,-0.5189726874232292 0.2858983725309372,0.053443899378180504 l-0.3562783822417259,0.5729939043521881 0.0601930171251297,0.20404888316988945 " fill="none" stroke="black" stroke-width="1" /></svg>