<?xml version="1.0" encoding="utf-8" ?>
<svg baseProfile="full" height="91.96779321879148" version="1.1" width="81.06721923220903" xmlns="http://www.w3.org/2000/svg" xmlns:ev="http://www.w3.org/2001/xml-events" xmlns:xlink="http://www.w3.org/1999/xlink"><defs /><rect fill="white" height="91.96779321879148" width="81.06721923220903" x="0" y="0" /><path d="M49.774026311933994,39.030482750386 m-9.717127680778503,0.1605752296745777 l-3.7011078000068665,0.85309237241745 -4.343923330307007,1.1074051260948181 l-3.521265387535095,1.358674317598343 -1.8367663025856018,1.1703497171401978 l-1.404200941324234,1.73582062125206 -0.24963486939668655,1.3787657022476196 l2.119767516851425,1.242472380399704 11.458178758621216,2.2571519017219543 l3.512762188911438,0.8859735727310181 0.35797320306301117,1.4985015988349915 l0.038357158191502094,4.171849191188812 0.264658872038126,4.334742724895477 l0.9221917390823364,3.3928096294403076 1.4600035548210144,1.8160289525985718 l1.3658280670642853,0.5730974301695824 1.7889165878295898,-0.2721990644931793 l1.052466705441475,-1.0945279151201248 1.0537438839673996,-2.822815477848053 l0.7948604226112366,-7.503343820571899 0.4171641543507576,-5.896996259689331 m-6.205125451087952,-11.342393159866333 l0.10755760595202446,-2.166367918252945 1.5020614862442017,-6.208805441856384 l1.433033049106598,-3.6742177605628967 0.7206559926271439,-0.7746313512325287 l0.9723453223705292,-0.2114950492978096 1.6296055912971497,0.8983810245990753 l2.804415225982666,4.742574393749237 1.2519475817680359,4.8852574825286865 l0.24385001510381699,5.823667645454407 -0.5989734828472137,4.505864679813385 l-0.9880860149860382,3.2681727409362793 -1.1327292025089264,3.3076801896095276 l-1.0657499730587006,2.601190507411957 -0.9356120228767395,2.0073655247688293 l-0.8028518408536911,1.1512085795402527 -2.200697660446167,1.686442792415619 l-0.832456424832344,0.00018302187527297065 -0.9110688418149948,-1.027206927537918 l-1.5543386340141296,-8.144118785858154 0.277825016528368,-3.8903838396072388 l0.6651229411363602,-2.87137508392334 0.7712308317422867,-2.6196804642677307 l0.7578274607658386,-2.3142197728157043 " fill="none" stroke="black" stroke-width="1" /></svg>