<?xml version="1.0" encoding="utf-8" ?>
<svg baseProfile="full" height="2120.0" version="1.1" width="2655.0" xmlns="http://www.w3.org/2000/svg" xmlns:ev="http://www.w3.org/2001/xml-events" xmlns:xlink="http://www.w3.org/1999/xlink"><defs /><rect fill="white" height="2120.0" width="2655.0" x="0" y="0" /><path d="M1255.0,595.0 m-480.0,10.0 l-200.0,40.0 -315.0,90.0 l-85.0,40.0 -130.0,105.0 l-20.0,55.0 0.0,90.0 l185.0,65.0 670.0,90.0 l55.0,20.0 120.0,0.0 l-5.0,90.0 -20.0,35.0 l-15.0,100.0 0.0,235.0 l70.0,135.0 80.0,280.0 l30.0,20.0 95.0,-120.0 l25.0,-65.0 20.0,-265.0 m-120.0,-1065.0 l110.0,-445.0 45.0,-95.0 l55.0,-15.0 25.0,10.0 l5.0,220.0 -65.0,405.0 l-5.0,445.0 35.0,-100.0 l35.0,-50.0 60.0,-25.0 l260.0,-60.0 45.0,-25.0 l200.0,-30.0 230.0,-60.0 l380.0,-45.0 -10.0,295.0 l-500.0,130.0 -160.0,20.0 l-335.0,0.0 -55.0,30.0 l-110.0,170.0 -35.0,130.0 l15.0,235.0 35.0,155.0 " fill="none" stroke="black" stroke-width="1" /></svg>