<?xml version="1.0" encoding="utf-8" ?>
<svg baseProfile="full" height="1840.0" version="1.1" width="1530.0" xmlns="http://www.w3.org/2000/svg" xmlns:ev="http://www.w3.org/2001/xml-events" xmlns:xlink="http://www.w3.org/1999/xlink"><defs /><rect fill="white" height="1840.0" width="1530.0" x="0" y="0" /><path d="M1320.0,180.0 m-75.0,-75.0 l-75.0,-35.0 -265.0,-45.0 l-880.0,1115.0 5.0,190.0 l65.0,130.0 135.0,175.0 l125.0,85.0 155.0,70.0 l160.0,25.0 145.0,-5.0 l215.0,-155.0 235.0,-280.0 l70.0,-110.0 20.0,-70.0 l95.0,-175.0 35.0,-115.0 l20.0,-205.0 -5.0,-275.0 l-30.0,-50.0 -85.0,-65.0 l-185.0,-75.0 m-565.0,780.0 l10.0,45.0 m15.0,-65.0 l115.0,-135.0 240.0,-410.0 l140.0,-325.0 m-540.0,880.0 l-105.0,-70.0 -30.0,-40.0 " fill="none" stroke="black" stroke-width="1" /></svg>