<?xml version="1.0" encoding="utf-8" ?>
<svg baseProfile="full" height="82.11367456242442" version="1.1" width="79.45590567334875" xmlns="http://www.w3.org/2000/svg" xmlns:ev="http://www.w3.org/2001/xml-events" xmlns:xlink="http://www.w3.org/1999/xlink"><defs /><rect fill="white" height="82.11367456242442" width="79.45590567334875" x="0" y="0" /><path d="M47.77430731803179,30.078884232789278 m-1.4340904355049133,-1.547984927892685 l-1.5165349841117859,-0.6120166555047035 -9.871743321418762,0.9912954270839691 l-9.426703453063965,11.718833446502686 -0.5252351239323616,6.035899519920349 l0.9957583993673325,4.162992835044861 0.7353759557008743,1.3921937346458435 l3.4433284401893616,3.0433914065361023 1.619468629360199,0.8090415596961975 l7.136359810829163,1.0411439836025238 2.029692679643631,-0.2597173862159252 l2.138562500476837,-0.9110355377197266 3.2465246319770813,-2.4526122212409973 l2.5189006328582764,-2.789788544178009 2.019064575433731,-3.1785333156585693 l2.158985435962677,-5.023333430290222 1.0077907145023346,-3.831751048564911 l0.4060695692896843,-4.573289453983307 2.3697757569607347e-05,-3.08840274810791 l-0.5791307985782623,-2.2252878546714783 -1.6590215265750885,-2.23271906375885 l-1.7763787508010864,-1.070498675107956 -3.1450921297073364,-0.47670528292655945 m-9.977689385414124,18.72347116470337 l0.2633328549563885,-2.312207669019699 m0.28126126155257225,1.9939841330051422 l3.555767238140106,-2.06831231713295 5.636153817176819,-3.4461870789527893 l5.106647610664368,-3.8968726992607117 m-15.496537685394287,9.259797930717468 l-1.3946707546710968,3.628959059715271 -1.7657487094402313,2.549344003200531 " fill="none" stroke="black" stroke-width="1" /></svg>