<?xml version="1.0" encoding="utf-8" ?>
<svg baseProfile="full" height="1885.0" version="1.1" width="3060.0" xmlns="http://www.w3.org/2000/svg" xmlns:ev="http://www.w3.org/2001/xml-events" xmlns:xlink="http://www.w3.org/1999/xlink"><defs /><rect fill="white" height="1885.0" width="3060.0" x="0" y="0" /><path d="M585.0,1515.0 m-95.0,-425.0 l-5.0,-190.0 40.0,-150.0 l135.0,-45.0 355.0,-25.0 l1115.0,35.0 165.0,15.0 l100.0,30.0 55.0,80.0 l40.0,190.0 10.0,295.0 l-20.0,180.0 m-1935.0,-60.0 l-150.0,0.0 -160.0,65.0 l-205.0,145.0 -5.0,25.0 l25.0,15.0 255.0,80.0 l160.0,30.0 630.0,50.0 l370.0,5.0 880.0,-25.0 l675.0,-50.0 15.0,-35.0 l-25.0,-115.0 -95.0,-95.0 l-170.0,-85.0 -240.0,-55.0 m-1950.0,85.0 l515.0,65.0 605.0,20.0 l320.0,-15.0 455.0,-70.0 m-1105.0,-815.0 l-5.0,-265.0 5.0,-55.0 l30.0,-15.0 55.0,25.0 l20.0,55.0 5.0,230.0 m-130.0,-315.0 l-80.0,-140.0 135.0,-150.0 l30.0,-15.0 30.0,60.0 l10.0,150.0 -25.0,50.0 l-35.0,15.0 " fill="none" stroke="black" stroke-width="1" /></svg>