<?xml version="1.0" encoding="utf-8" ?>
<svg baseProfile="full" height="100.84818464703858" version="1.1" width="94.5247037615627" xmlns="http://www.w3.org/2000/svg" xmlns:ev="http://www.w3.org/2001/xml-events" xmlns:xlink="http://www.w3.org/1999/xlink"><defs /><rect fill="white" height="100.84818464703858" width="94.5247037615627" x="0" y="0" /><path d="M27.385480143129826,75.4148119315505 m-1.8898594379425049,-8.674737811088562 l-0.4956207051873207,-5.8248138427734375 0.24525903165340424,-2.282312661409378 l0.9066976606845856,-1.5685304999351501 14.401599168777466,-1.1262664943933487 l12.157714366912842,-0.522390566766262 6.378840804100037,-0.28768712654709816 l4.915322661399841,-0.48139825463294983 4.603357017040253,-0.25042861700057983 l0.45244671404361725,0.5400452762842178 0.10616510175168514,10.470417737960815 l0.3573012351989746,7.064523696899414 -4.082256555557251,0.6957079470157623 l-9.807127714157104,0.7548798620700836 -9.417484998703003,0.7070697844028473 l-9.06894326210022,0.734424963593483 -5.833017826080322,0.3780275210738182 l-3.05724173784256,0.10684180073440075 m5.510706305503845,-21.657118797302246 l-0.08210274390876293,-4.28639143705368 -0.2526082843542099,-4.84669953584671 l3.2214024662971497,-0.20018702372908592 11.855672597885132,-0.5170955508947372 l10.279088020324707,-0.7253868132829666 0.3606107458472252,6.990935802459717 l-0.15653923153877258,3.70305597782135 m-18.562182188034058,-10.926532745361328 l-0.06007002666592598,-4.573892652988434 -0.5630697682499886,-3.2466724514961243 l4.60282027721405,-0.06220088340342045 8.409057855606079,0.015636426396667957 l-0.007219486869871616,7.810461521148682 -0.016644946299493313,1.7430490255355835 m-8.84837031364441,-8.536351919174194 l-0.0659917900338769,-3.788411319255829 -0.2423127368092537,-2.7345114946365356 l2.62957364320755,-0.07625323254615068 2.7597421407699585,-0.29459938406944275 l0.11592990718781948,6.642124056816101 -0.1220825593918562,1.4666813611984253 m-4.983795881271362,-3.7587934732437134 l-0.05735748913139105,-3.6641499400138855 -0.16674276441335678,-2.3214618861675262 l2.0619890093803406,-0.1766752451658249 0.5009140074253082,0.34153878688812256 l-0.018227696418762207,5.972623825073242 -0.06658300757408142,0.5634354427456856 m-0.4475017637014389,-5.9866863489151 l-0.04282025154680014,-3.5602471232414246 1.0582920908927917,-0.15740761533379555 " fill="none" stroke="black" stroke-width="1" /></svg>