<?xml version="1.0" encoding="utf-8" ?>
<svg baseProfile="full" height="1890.0" version="1.1" width="5655.0" xmlns="http://www.w3.org/2000/svg" xmlns:ev="http://www.w3.org/2001/xml-events" xmlns:xlink="http://www.w3.org/1999/xlink"><defs /><rect fill="white" height="1890.0" width="5655.0" x="0" y="0" /><path d="M1105.0,25 m1380.0,10.0 l670.0,60.0 355.0,5.0 l600.0,55.0 735.0,0.0 l135.0,-25.0 460.0,-5.0 l30.0,25.0 95.0,185.0 l50.0,150.0 15.0,120.0 l0.0,765.0 -60.0,55.0 l-145.0,40.0 -415.0,15.0 l-2085.0,5.0 -1250.0,-30.0 l-215.0,-25.0 -145.0,-50.0 l-260.0,-120.0 -415.0,-100.0 l-595.0,-30.0 -20.0,-60.0 l5.0,-235.0 55.0,-160.0 l95.0,-430.0 65.0,-90.0 l295.0,-55.0 280.0,-15.0 l380.0,10.0 m60.0,1175.0 l10.0,250.0 160.0,185.0 l195.0,135.0 70.0,25.0 l240.0,0.0 25.0,-20.0 l10.0,-55.0 -20.0,-160.0 l-95.0,-145.0 -100.0,-100.0 l-40.0,-5.0 -90.0,-65.0 l-135.0,-55.0 -90.0,-5.0 l-60.0,25.0 0.0,20.0 m3025.0,180.0 l15.0,50.0 55.0,70.0 l165.0,115.0 105.0,45.0 l170.0,45.0 180.0,0.0 l25.0,-20.0 5.0,-140.0 l-35.0,-115.0 -50.0,-30.0 l-100.0,-15.0 -315.0,-5.0 l-55.0,20.0 -80.0,120.0 m-1435.0,-265.0 l-25.0,-315.0 0.0,-545.0 l35.0,-20.0 725.0,20.0 l30.0,15.0 60.0,130.0 l5.0,670.0 -35.0,20.0 l-120.0,10.0 -780.0,-10.0 " fill="none" stroke="black" stroke-width="1" /></svg>