<?xml version="1.0" encoding="utf-8" ?>
<svg baseProfile="full" height="107.46320137754083" version="1.1" width="147.9833578132093" xmlns="http://www.w3.org/2000/svg" xmlns:ev="http://www.w3.org/2001/xml-events" xmlns:xlink="http://www.w3.org/1999/xlink"><defs /><rect fill="white" height="107.46320137754083" width="147.9833578132093" x="0" y="0" /><path d="M35.927286418154836,45.52362341666594 m26.004157066345215,0.6671035289764404 l9.56702709197998,-0.5602020025253296 8.5249924659729,-0.2895229682326317 l16.898094415664673,-0.08538015186786652 7.387953996658325,-0.2885737456381321 l12.08787202835083,-0.02418255666270852 2.4182407557964325,0.5736654624342918 l2.046254426240921,1.2618036568164825 1.3591165840625763,2.01797679066658 l0.6706710904836655,2.619698941707611 0.09169147349894047,2.8336119651794434 l-0.5503981560468674,2.492387592792511 -1.2721045315265656,2.6223427057266235 l-1.1615095287561417,1.4623406529426575 -2.2630521655082703,1.6645383834838867 l-3.3330240845680237,1.4140033721923828 -3.9980822801589966,1.036665067076683 l-15.495461225509644,1.7786197364330292 -19.473555088043213,0.944206714630127 l-19.682433605194092,0.20976608619093895 -16.07059359550476,-0.728677287697792 l-7.886223196983337,-1.2438763678073883 -3.145935535430908,-0.9499605745077133 l-1.6532132029533386,-0.794747918844223 -1.1916407942771912,-1.0471902042627335 l-0.6850793212652206,-1.4232586324214935 -0.12105150148272514,-1.9042713940143585 l1.3030174374580383,-4.142951667308807 2.7953851222991943,-3.976644277572632 l5.27169942855835,-4.4338443875312805 6.585742235183716,-2.992914617061615 l7.357238531112671,-1.7854395508766174 6.787205338478088,-0.654669851064682 m2.3109427094459534,9.276404976844788 l0.16307728365063667,2.045818567276001 0.8168596774339676,8.731817603111267 l0.7335201650857925,11.693634986877441 0.5657997727394104,5.399324893951416 l0.7582445442676544,3.225354850292206 0.5550128221511841,0.2947995811700821 l1.7077906429767609,-0.38451697677373886 3.8656941056251526,-2.4680131673812866 l4.901072084903717,-4.769784510135651 6.766300797462463,-9.24242377281189 l2.4905307590961456,-5.180460214614868 1.8024830520153046,-6.5435463190078735 l0.7866069674491882,-6.524850130081177 -0.3195515647530556,-3.7584587931632996 l-0.8093166351318359,-2.1231897175312042 -1.2429559975862503,-1.6420464217662811 l-1.758447140455246,-1.1328336596488953 -2.528243064880371,-0.5730902031064034 l-3.1690484285354614,0.10554113425314426 -2.756822407245636,0.9886924177408218 l-2.612171471118927,1.7958860099315643 -2.025286853313446,2.26638600230217 l-1.4486141502857208,2.6984667778015137 -0.7275766134262085,2.8688445687294006 l-0.027392776682972908,2.799064517021179 m1.4021240174770355,-2.971566915512085 l-0.7607316970825195,-0.4384192079305649 -0.676637589931488,-0.6882590800523758 l-1.4980670809745789,-2.2748105227947235 -3.4937024116516113,-6.65375292301178 l-2.6436012983322144,-5.397818088531494 -2.420906126499176,-4.590730667114258 l-0.9396358579397202,-1.6061323881149292 -0.8479490876197815,-1.1626486480236053 l-0.984797328710556,-0.7452485710382462 -1.017470806837082,-0.1134819071739912 l-0.7535320520401001,0.6060459092259407 -0.5587140470743179,1.4108526706695557 l-0.17656445503234863,2.0725034177303314 0.731523409485817,4.562945663928986 l1.833929419517517,4.891325533390045 " fill="none" stroke="black" stroke-width="1" /></svg>