<?xml version="1.0" encoding="utf-8" ?>
<svg baseProfile="full" height="1865.0" version="1.1" width="4900.0" xmlns="http://www.w3.org/2000/svg" xmlns:ev="http://www.w3.org/2001/xml-events" xmlns:xlink="http://www.w3.org/1999/xlink"><defs /><rect fill="white" height="1865.0" width="4900.0" x="0" y="0" /><path d="M2370.0,640.0 m-160.0,80.0 l-170.0,120.0 -275.0,250.0 l-15.0,35.0 140.0,-80.0 l30.0,20.0 100.0,170.0 l25.0,-10.0 165.0,-115.0 l150.0,-60.0 420.0,-270.0 l100.0,-210.0 -515.0,-475.0 l-185.0,5.0 -230.0,65.0 l-120.0,80.0 -75.0,160.0 l320.0,345.0 270.0,90.0 l40.0,0.0 45.0,-25.0 l10.0,-35.0 m-595.0,-755.0 l-90.0,385.0 620.0,315.0 l220.0,0.0 160.0,-30.0 l40.0,-20.0 20.0,-30.0 l-10.0,-60.0 -45.0,-25.0 l-540.0,60.0 -740.0,850.0 l810.0,370.0 145.0,-20.0 l25.0,-30.0 -85.0,-150.0 l-1860.0,-560.0 -490.0,-20.0 l105.0,35.0 795.0,60.0 l1680.0,10.0 -360.0,0.0 l-365.0,40.0 -125.0,95.0 l100.0,50.0 190.0,0.0 l620.0,-105.0 705.0,-205.0 l685.0,-320.0 -115.0,-35.0 l-515.0,20.0 -605.0,65.0 l315.0,5.0 635.0,-85.0 l670.0,-160.0 435.0,-135.0 l-400.0,0.0 -535.0,25.0 l-560.0,170.0 -35.0,25.0 l100.0,15.0 1100.0,0.0 l-190.0,-50.0 -2300.0,-25.0 l1470.0,-15.0 -2140.0,10.0 l110.0,20.0 1845.0,0.0 l-2010.0,0.0 140.0,-45.0 l555.0,-80.0 1085.0,0.0 l-215.0,60.0 -145.0,10.0 " fill="none" stroke="black" stroke-width="1" /></svg>