<?xml version="1.0" encoding="utf-8" ?>
<svg baseProfile="full" height="79.35216555488296" version="1.1" width="139.17708080261946" xmlns="http://www.w3.org/2000/svg" xmlns:ev="http://www.w3.org/2001/xml-events" xmlns:xlink="http://www.w3.org/1999/xlink"><defs /><rect fill="white" height="79.35216555488296" width="139.17708080261946" x="0" y="0" /><path d="M38.9099473785609,41.548025637166575 m-3.164679706096649,1.5003342926502228 l-3.340289294719696,2.325475811958313 -3.455449342727661,3.4497082233428955 l-1.2851445376873016,2.2895967960357666 -0.07575574330985546,1.3358846306800842 l0.6540516763925552,0.6349441409111023 2.1266742050647736,0.5209401249885559 l4.485501646995544,-0.21256789565086365 4.557316899299622,-1.5834340453147888 l3.687235713005066,-2.3319189250469208 1.7622818052768707,-1.9974176585674286 l0.6882385164499283,-2.0350605249404907 -0.19998162984848022,-2.1338900923728943 l-1.1898233741521835,-1.4626441895961761 -1.980808675289154,-1.0657955706119537 l-2.4129343032836914,-0.3602953627705574 -2.7046847343444824,0.18332993611693382 m18.380794525146484,0.603889673948288 l-1.1716839671134949,-0.34746870398521423 -1.854916363954544,0.13903607614338398 l-2.384391874074936,1.0369810461997986 -2.125447541475296,1.767670065164566 l-1.352686882019043,2.1742214262485504 -0.4368501156568527,2.5090155005455017 l0.5307789891958237,2.0806653797626495 1.6097593307495117,1.7351806163787842 l2.4196872115135193,1.243482157588005 4.308579862117767,0.8042769879102707 l4.61995005607605,-0.11058133095502853 4.023800194263458,-1.213756948709488 l2.5125598907470703,-1.50566965341568 1.6117578744888306,-1.9088463485240936 l0.5598054081201553,-2.2000478208065033 -0.3167415037751198,-2.2981879115104675 l-1.4012981951236725,-1.9769707322120667 -2.1945837140083313,-1.6061118245124817 l-2.7226579189300537,-1.0408900678157806 -3.2682794332504272,-0.42959436774253845 l-2.9562652111053467,0.12689677998423576 m-23.503196239471436,4.841530621051788 l8.367618918418884,-0.30068233609199524 17.443312406539917,-0.01300989300943911 l14.730885028839111,-0.01184901688247919 12.354655265808105,0.3393567353487015 l5.207529067993164,-0.22099720314145088 4.5573946833610535,-0.1525613572448492 l3.905281126499176,-0.2630988694727421 4.019158780574799,-0.11000474914908409 l3.7865838408470154,-0.4221862554550171 4.088906943798065,0.03874652087688446 l1.0655971616506577,-0.2106017805635929 1.0869340598583221,-0.7295656204223633 l0.9816740453243256,-1.6330614686012268 0.6313785910606384,-3.6250296235084534 l-0.3276028484106064,-4.148585796356201 -1.5979519486427307,-3.662474751472473 l-1.8163585662841797,-2.064792215824127 -2.5622138381004333,-1.4683453738689423 l-3.404208719730377,-0.9604187309741974 -6.062177419662476,-0.4107741639018059 l-16.405723094940186,0.44324416667222977 -12.289479970932007,0.4745730385184288 l-12.63809323310852,0.49314025789499283 -11.461098194122314,0.6478951126337051 l-9.402183890342712,0.904485434293747 -6.707313656806946,1.1874506622552872 l-1.74458846449852,0.7787155359983444 -1.1858057230710983,1.039818450808525 l-1.1276013404130936,2.1264541149139404 -0.444679893553257,2.736404836177826 l0.1627626083791256,1.9559796154499054 0.6090394034981728,1.417974829673767 l1.5000064671039581,1.6511857509613037 2.262127250432968,1.3707730174064636 l2.858949899673462,0.8990342915058136 5.606232285499573,0.23181447759270668 l4.6706536412239075,-0.3880486264824867 " fill="none" stroke="black" stroke-width="1" /></svg>