<?xml version="1.0" encoding="utf-8" ?>
<svg baseProfile="full" height="92.10314174149971" version="1.1" width="81.645827293396" xmlns="http://www.w3.org/2000/svg" xmlns:ev="http://www.w3.org/2001/xml-events" xmlns:xlink="http://www.w3.org/1999/xlink"><defs /><rect fill="white" height="92.10314174149971" width="81.645827293396" x="0" y="0" /><path d="M35.84991379175335,32.86415418435354 m-2.1774253249168396,-3.206900656223297 l-0.18252192065119743,-0.005149671924300492 m0.202369075268507,1.318061351776123 l0.23069968447089195,-5.031933784484863 m0.3548915311694145,-0.9382314234972 l0.2209058403968811,0.0799729023128748 1.4229604601860046,0.9616877883672714 l1.0586493462324142,1.604648381471634 0.49880124628543854,0.8234719932079315 l0.8006077259778976,1.078106313943863 2.7856051921844482,2.0332539081573486 l1.10049769282341,-4.512233138084412 1.6609576344490051,-1.5423442423343658 l1.6077518463134766,-0.4172293096780777 2.040044516324997,0.6091371178627014 l1.8182289600372314,1.8938954174518585 1.049688532948494,2.6775866746902466 l0.19249200820922852,1.2150655686855316 -0.7030528783798218,2.6741158962249756 m-14.59051251411438,-2.1313703060150146 l-3.7225818634033203,0.1244998350739479 -2.5727665424346924,0.9757939726114273 l-1.4806212484836578,1.2308285385370255 -1.4723914861679077,2.576017677783966 l-0.5786768719553947,2.2738172113895416 0.06265764590352774,3.3414915204048157 l0.8163163810968399,2.186911404132843 1.3361535966396332,1.7572951316833496 l2.9477453231811523,2.1387162804603577 4.425176382064819,1.6607621312141418 l5.23406982421875,0.8705425262451172 5.182097554206848,0.0003086016295128502 l4.89313542842865,-1.1524812877178192 2.374645173549652,-1.2428206205368042 l1.5331968665122986,-1.463252454996109 1.5495017170906067,-2.9121777415275574 l0.659983679652214,-3.8663315773010254 -0.5112095922231674,-3.7066954374313354 l-1.9731299579143524,-2.5125250220298767 -2.2817914187908173,-1.523301750421524 l-3.783980906009674,-1.017589047551155 -5.314163565635681,-0.0006215263420017436 l-3.0092263221740723,0.6769775599241257 -3.1049519777297974,1.5479782223701477 l-1.4862897992134094,1.370605081319809 m4.07096803188324,9.271915555000305 l-0.49694135785102844,0.5062051862478256 -1.1412785202264786,2.1571387350559235 l-1.2939390540122986,3.5560137033462524 -0.8149170130491257,3.4775424003601074 l-0.22797690704464912,3.6655020713806152 0.6796412169933319,3.1163394451141357 l1.9459953904151917,2.8636491298675537 1.940254420042038,1.448531597852707 l3.4155136346817017,1.2220283597707748 4.321220815181732,0.43576136231422424 l4.172751009464264,-0.7286729663610458 2.2572866082191467,-1.2483962625265121 l1.5363715589046478,-1.5990670025348663 0.9743944555521011,-1.9778606295585632 l0.3420325368642807,-3.2440918684005737 -1.961832344532013,-6.21761679649353 l-2.641269862651825,-3.892921209335327 -2.65261173248291,-2.354859560728073 l-2.922023832798004,-1.4715638756752014 m-7.343984246253967,5.794000029563904 l-5.8288562297821045,-2.0357148349285126 -6.432203650474548,-2.6781532168388367 l-1.8630453944206238,-0.8495689928531647 m17.258737087249756,7.339146733283997 l-1.7368896305561066,-0.6692797690629959 -3.76801997423172,-1.8843592703342438 l-1.732938289642334,-1.0062087327241898 -1.6872386634349823,-1.2806402146816254 l-1.5806661546230316,-1.702391654253006 -0.7201359421014786,-1.2647750973701477 l-0.2600530534982681,-1.5659432113170624 0.40775012224912643,-1.1759984493255615 l1.7013993859291077,-1.255590170621872 2.1171584725379944,-0.5459790676832199 l3.2920825481414795,0.2462606132030487 3.654923141002655,1.5356454253196716 l2.8028401732444763,2.396872043609619 1.6378068923950195,2.666025161743164 l0.6103161349892616,2.641201913356781 0.14054792933166027,1.3053402304649353 l-0.22255022078752518,1.2570750713348389 " fill="none" stroke="black" stroke-width="1" /></svg>