<?xml version="1.0" encoding="utf-8" ?>
<svg baseProfile="full" height="2675.0" version="1.1" width="2545.0" xmlns="http://www.w3.org/2000/svg" xmlns:ev="http://www.w3.org/2001/xml-events" xmlns:xlink="http://www.w3.org/1999/xlink"><defs /><rect fill="white" height="2675.0" width="2545.0" x="0" y="0" /><path d="M1045.0,1140.0 m-105.0,-145.0 l0.0,0.0 m0.0,0.0 m-45.0,-40.0 l0.0,0.0 m0.0,0.0 l-45.0,-300.0 -20.0,-25.0 l40.0,-100.0 25.0,-25.0 l295.0,-80.0 60.0,20.0 l160.0,135.0 20.0,60.0 l5.0,145.0 -15.0,135.0 l35.0,50.0 95.0,20.0 l150.0,0.0 425.0,-35.0 l70.0,-40.0 30.0,-50.0 l5.0,-50.0 205.0,720.0 l30.0,195.0 40.0,100.0 l15.0,130.0 -35.0,45.0 l-105.0,45.0 -190.0,40.0 l-215.0,-35.0 -85.0,-85.0 m-995.0,-995.0 l-235.0,30.0 -160.0,0.0 l-150.0,-20.0 -220.0,-70.0 l-50.0,-30.0 -35.0,-50.0 l15.0,80.0 0.0,390.0 l-35.0,235.0 20.0,100.0 l140.0,105.0 160.0,175.0 l265.0,105.0 85.0,15.0 l50.0,-10.0 100.0,-55.0 l120.0,-35.0 -110.0,155.0 l-30.0,80.0 -115.0,120.0 l-170.0,125.0 -120.0,55.0 l85.0,30.0 310.0,40.0 l345.0,90.0 235.0,15.0 l175.0,-25.0 105.0,10.0 l195.0,-40.0 580.0,-55.0 l-265.0,-135.0 -290.0,-455.0 l285.0,30.0 m-1095.0,-1905.0 m-370.0,40.0 l0.0,0.0 m375.0,-90.0 l-240.0,10.0 -170.0,35.0 l-25.0,10.0 -15.0,30.0 l-10.0,65.0 45.0,40.0 l135.0,15.0 195.0,50.0 l240.0,-15.0 135.0,-25.0 l55.0,-40.0 -55.0,-85.0 l-125.0,-70.0 -70.0,-15.0 l-135.0,15.0 -95.0,-10.0 l-175.0,30.0 " fill="none" stroke="black" stroke-width="1" /></svg>