<?xml version="1.0" encoding="utf-8" ?>
<svg baseProfile="full" height="965.0" version="1.1" width="1205.0" xmlns="http://www.w3.org/2000/svg" xmlns:ev="http://www.w3.org/2001/xml-events" xmlns:xlink="http://www.w3.org/1999/xlink"><defs /><rect fill="white" height="965.0" width="1205.0" x="0" y="0" /><path d="M1100.0,115.0 m-355.0,-90.0 l-225.0,0.0 -105.0,15.0 l-145.0,70.0 -170.0,130.0 l-75.0,170.0 0.0,85.0 l20.0,155.0 30.0,85.0 l90.0,105.0 115.0,60.0 l145.0,40.0 115.0,0.0 l100.0,-5.0 255.0,-65.0 l215.0,-90.0 40.0,-65.0 l10.0,-60.0 -5.0,-50.0 l-115.0,-215.0 5.0,160.0 l-35.0,75.0 -135.0,90.0 l-75.0,15.0 -265.0,-20.0 l-160.0,-50.0 -120.0,-75.0 l-50.0,-90.0 0.0,-85.0 l75.0,-110.0 105.0,-65.0 l135.0,-45.0 100.0,-15.0 l350.0,50.0 95.0,-10.0 l25.0,-30.0 m-75.0,415.0 l60.0,20.0 85.0,0.0 m-65.0,-125.0 l65.0,120.0 m-90.0,-95.0 l65.0,70.0 40.0,15.0 m-115.0,-35.0 l65.0,40.0 55.0,10.0 m-75.0,-135.0 l50.0,100.0 m-80.0,-385.0 l65.0,-55.0 15.0,-55.0 m10.0,-30.0 l-135.0,50.0 " fill="none" stroke="black" stroke-width="1" /></svg>