<?xml version="1.0" encoding="utf-8" ?>
<svg baseProfile="full" height="67.40640897405683" version="1.1" width="77.2557808086276" xmlns="http://www.w3.org/2000/svg" xmlns:ev="http://www.w3.org/2001/xml-events" xmlns:xlink="http://www.w3.org/1999/xlink"><defs /><rect fill="white" height="67.40640897405683" width="77.2557808086276" x="0" y="0" /><path d="M45.8206081300159,26.778814047574997 m-7.041231989860535,-1.778814047574997 l-4.916770160198212,0.0007235664816107601 -1.676926612854004,0.3423196077346802 l-2.8498324751853943,1.4325016736984253 -2.4258318543434143,2.2483517229557037 l-1.2420140951871872,2.0568157732486725 -0.6678154319524765,2.772240936756134 l-0.00018551043467596173,2.5824353098869324 1.5574871003627777,2.4757705628871918 l1.8400019407272339,1.5628981590270996 2.851683497428894,1.3395817577838898 l2.346312701702118,0.5577614903450012 4.414549469947815,0.0350084132514894 l1.7313097417354584,-0.9800959378480911 0.7648351788520813,-0.5035725980997086 l1.7804673314094543,-1.6162978112697601 0.8051116764545441,0.10268643498420715 l1.147242859005928,1.577635258436203 1.6470034420490265,1.272098869085312 l4.663874804973602,-0.9876062721014023 1.2575620412826538,-1.5416227281093597 l0.4483390226960182,-1.6378684341907501 -0.17471712082624435,-2.609151601791382 l-1.3284961879253387,-2.9231154918670654 -2.1523281931877136,-2.5025805830955505 l-1.8588148057460785,-1.2836803495883942 -1.9904981553554535,-0.747828483581543 l-1.6840842366218567,-0.5426473915576935 -2.20449298620224,-0.24944918230175972 l-1.942940354347229,0.19429320469498634 -1.249813586473465,0.2564472332596779 l-1.186147779226303,0.6922751665115356 -0.5634662136435509,0.9785330295562744 m5.6119948625564575,-0.7076865434646606 l3.995658755302429,-1.7711691558361053 1.9593334197998047,-0.4987381026148796 l1.903989166021347,0.15838785097002983 m-11.410002708435059,6.937944293022156 l0.8408621698617935,2.1099278330802917 1.0790999978780746,1.4895926415920258 m-0.05627409089356661,-2.9735496640205383 l2.9858535528182983,-0.18595920875668526 1.904522180557251,-0.16113506630063057 m-2.5888901948928833,0.9134464710950851 l2.599373161792755,0.3377401828765869 m-1.8210642039775848,0.9980759024620056 l1.6908133029937744,0.2643106132745743 m-1.3545718789100647,0.2465624362230301 l1.1965935677289963,0.3263864666223526 0.5874468758702278,0.2426345832645893 m-1.4633096754550934,0.23261237889528275 l0.7454555481672287,0.29986534267663956 0.16595276072621346,0.4964394122362137 " fill="none" stroke="black" stroke-width="1" /></svg>