<?xml version="1.0" encoding="utf-8" ?>
<svg baseProfile="full" height="68.25422355905175" version="1.1" width="72.20124579966068" xmlns="http://www.w3.org/2000/svg" xmlns:ev="http://www.w3.org/2001/xml-events" xmlns:xlink="http://www.w3.org/1999/xlink"><defs /><rect fill="white" height="68.25422355905175" width="72.20124579966068" x="0" y="0" /><path d="M26.170110895764083,34.36586403287947 m5.966430902481079,-0.23509547114372253 l5.946601033210754,-0.9784838557243347 7.71514892578125,-0.5557915940880775 l0.9457548707723618,0.46260733157396317 0.42928092181682587,0.8134059607982635 l0.02791824983432889,1.1229496449232101 -0.5514220148324966,0.8930078148841858 l-1.1440233141183853,0.8134680986404419 -2.3659685254096985,0.9185074269771576 l-2.9877325892448425,0.522499717772007 -6.941895484924316,0.2605690062046051 l-5.500543713569641,-0.6910785287618637 -1.3899379968643188,-0.3615592420101166 l-0.9228018671274185,-0.6302449107170105 -0.3969202935695648,-0.8964959532022476 l0.10877838358283043,-1.1198946088552475 0.6726276874542236,-0.8256376534700394 l1.2054632604122162,-0.47091707587242126 1.9810642302036285,-0.02484234981238842 m3.109808564186096,1.8768490850925446 l-0.368676520884037,1.4718306064605713 -0.9378116577863693,3.230467140674591 l-0.4602333530783653,2.9323947429656982 0.4383598640561104,0.3598441928625107 l1.6505753993988037,-0.16586335375905037 1.0825642198324203,-0.6879525631666183 l1.2770776450634003,-1.7772586643695831 1.3260665535926819,-4.559617042541504 l0.37526991218328476,-0.7639656215906143 m-4.919246137142181,-2.9705440998077393 l0.010284810559824109,-3.5848861932754517 0.37382666021585464,-1.5913063287734985 l0.9646196663379669,-1.42169788479805 1.5552982687950134,-0.7311318069696426 l1.7357920110225677,0.16943791881203651 0.9680509567260742,0.7337316870689392 l0.7116308808326721,1.8029771745204926 " fill="none" stroke="black" stroke-width="1" /></svg>