<?xml version="1.0" encoding="utf-8" ?>
<svg baseProfile="full" height="1120.0" version="1.1" width="1085.0" xmlns="http://www.w3.org/2000/svg" xmlns:ev="http://www.w3.org/2001/xml-events" xmlns:xlink="http://www.w3.org/1999/xlink"><defs /><rect fill="white" height="1120.0" width="1085.0" x="0" y="0" /><path d="M25,635.0 m285.0,-15.0 l330.0,-40.0 330.0,-5.0 l85.0,30.0 5.0,85.0 l-45.0,50.0 -135.0,20.0 l-110.0,35.0 -140.0,0.0 l-165.0,30.0 -165.0,0.0 l-135.0,-20.0 -80.0,-45.0 l-15.0,-30.0 -10.0,-155.0 l40.0,-110.0 m285.0,315.0 l-75.0,65.0 -25.0,55.0 l25.0,140.0 20.0,30.0 l65.0,25.0 165.0,-10.0 l60.0,-55.0 20.0,-40.0 l25.0,-170.0 0.0,-180.0 m-270.0,-145.0 l-10.0,-60.0 35.0,-130.0 l135.0,-250.0 50.0,-30.0 l105.0,10.0 80.0,80.0 l50.0,220.0 40.0,105.0 " fill="none" stroke="black" stroke-width="1" /></svg>