<?xml version="1.0" encoding="utf-8" ?>
<svg baseProfile="full" height="2220.0" version="1.1" width="2475.0" xmlns="http://www.w3.org/2000/svg" xmlns:ev="http://www.w3.org/2001/xml-events" xmlns:xlink="http://www.w3.org/1999/xlink"><defs /><rect fill="white" height="2220.0" width="2475.0" x="0" y="0" /><path d="M1065.0,1035.0 m-120.0,-35.0 l-60.0,0.0 -75.0,35.0 l-155.0,155.0 -90.0,155.0 l0.0,105.0 20.0,45.0 l50.0,80.0 60.0,55.0 l180.0,45.0 90.0,-5.0 l80.0,-30.0 190.0,-140.0 l80.0,-80.0 10.0,-30.0 l-130.0,-200.0 -130.0,-140.0 m-75.0,-35.0 l75.0,-75.0 195.0,-145.0 l20.0,25.0 0.0,285.0 l-35.0,135.0 m-500.0,-155.0 l-100.0,-155.0 -125.0,-75.0 l55.0,300.0 20.0,60.0 l20.0,15.0 m180.0,150.0 l40.0,80.0 50.0,30.0 l25.0,-5.0 15.0,-50.0 l110.0,60.0 55.0,0.0 l0.0,-130.0 m-285.0,-190.0 l0.0,0.0 m150.0,30.0 l0.0,0.0 m-115.0,-85.0 l-10.0,135.0 20.0,50.0 m110.0,-155.0 l25.0,40.0 20.0,95.0 m-235.0,370.0 l-75.0,380.0 10.0,85.0 l60.0,55.0 65.0,20.0 l55.0,-10.0 220.0,-195.0 l20.0,75.0 60.0,60.0 l80.0,40.0 75.0,0.0 l60.0,-50.0 50.0,-80.0 l0.0,25.0 160.0,110.0 l75.0,5.0 40.0,-100.0 l20.0,50.0 65.0,40.0 l75.0,25.0 105.0,-5.0 l40.0,-90.0 10.0,-185.0 l-60.0,-115.0 -220.0,-185.0 l-130.0,-80.0 -195.0,-80.0 l-195.0,-35.0 m485.0,180.0 l270.0,-170.0 25.0,-40.0 l15.0,-450.0 30.0,-15.0 l90.0,5.0 220.0,105.0 l45.0,35.0 30.0,55.0 l0.0,145.0 -40.0,75.0 l-240.0,280.0 -60.0,110.0 l-25.0,115.0 m-1805.0,-1640.0 l-40.0,5.0 -80.0,45.0 l-110.0,130.0 -25.0,80.0 l10.0,160.0 50.0,65.0 l125.0,55.0 80.0,0.0 l170.0,-85.0 75.0,-95.0 l10.0,-35.0 m425.0,-360.0 l-70.0,5.0 -65.0,35.0 l-40.0,55.0 -80.0,130.0 l-90.0,200.0 -10.0,125.0 l120.0,-60.0 95.0,-130.0 l20.0,-185.0 0.0,70.0 l55.0,140.0 90.0,130.0 l55.0,30.0 35.0,0.0 m455.0,-675.0 l5.0,555.0 m-435.0,-250.0 l120.0,50.0 815.0,10.0 m165.0,-380.0 l15.0,165.0 65.0,345.0 m20.0,165.0 l20.0,135.0 " fill="none" stroke="black" stroke-width="1" /></svg>