<?xml version="1.0" encoding="utf-8" ?>
<svg baseProfile="full" height="88.91748271882534" version="1.1" width="95.85867427289486" xmlns="http://www.w3.org/2000/svg" xmlns:ev="http://www.w3.org/2001/xml-events" xmlns:xlink="http://www.w3.org/1999/xlink"><defs /><rect fill="white" height="88.91748271882534" width="95.85867427289486" x="0" y="0" /><path d="M52.01055553974584,27.120943078771234 m-2.319050431251526,-0.7033993303775787 l-2.7958881855010986,-0.08193056099116802 -1.499846875667572,0.47972798347473145 l-1.4964669942855835,1.0697834193706512 -1.5675880014896393,2.254365384578705 l-0.8201265335083008,2.7518662810325623 -0.02504044445231557,2.8263434767723083 l0.7940249890089035,2.101062536239624 1.5295620262622833,1.8132036924362183 l2.0300909876823425,1.128617450594902 2.457217425107956,0.43637722730636597 l2.5222474336624146,-0.24126512929797173 2.0537853240966797,-1.1730104684829712 l1.6584712266921997,-1.8342696130275726 1.1730241030454636,-2.435738295316696 l0.49569182097911835,-2.7509334683418274 -0.08257579058408737,-2.75392085313797 l-0.7813891023397446,-2.085437625646591 -1.4231635630130768,-1.6344740986824036 l-1.8935956060886383,-1.0016169399023056 -2.1264590322971344,-0.2862941473722458 l-1.9878354668617249,0.41310496628284454 m-1.8399418890476227,13.339213132858276 l-0.4522908106446266,1.464998573064804 -1.8759317696094513,4.820170104503632 l-3.9342638850212097,9.056876301765442 -2.0315933227539062,5.167335867881775 l-0.16287723556160927,1.574247032403946 0.40635809302330017,1.1138657480478287 l0.9888757020235062,0.8935641497373581 2.26503849029541,0.8205867558717728 l2.972247004508972,0.25352008640766144 2.8563472628593445,-0.33614736050367355 l2.631612718105316,-1.0786768794059753 2.1662554144859314,-1.6594313085079193 l1.6171641647815704,-2.237388640642166 1.0465924441814423,-2.8964999318122864 l0.4044440761208534,-3.2813480496406555 -0.1264229603111744,-3.509800434112549 l-1.235220581293106,-4.713364541530609 -1.8946956098079681,-3.92307311296463 l-1.5925563871860504,-1.9371649622917175 -1.114954724907875,-0.6850080192089081 m3.8568690419197083,3.9116719365119934 l0.6634608656167984,-1.138378083705902 1.9997377693653107,-1.6012679040431976 l3.7915965914726257,-2.1237874031066895 3.792486786842346,-1.3188736140727997 l2.68215149641037,-0.38794025778770447 1.9329425692558289,0.15273249708116055 l1.640278846025467,0.8300797641277313 1.037377417087555,1.3409829139709473 l0.46194184571504593,2.044137865304947 -0.33892691135406494,2.0860499143600464 l-1.2961207330226898,2.0860426127910614 -1.9365093111991882,1.8398620188236237 l-3.046952188014984,1.7122380435466766 1.3955990970134735,0.27831781655550003 l2.010384052991867,0.6084316596388817 1.9335667788982391,1.0891903191804886 l0.8618929982185364,1.0128292441368103 0.3386637941002846,1.1671795696020126 l-0.13895438984036446,1.2463772296905518 -1.1278236657381058,1.6142076253890991 l-1.9124975800514221,1.554904580116272 -3.3294737339019775,1.5333260595798492 l-3.8196513056755066,0.6625283509492874 -4.064056873321533,-0.1267843134701252 l-3.312476873397827,-1.1355890333652496 -2.643091082572937,-1.8053705990314484 m-9.724320769309998,-12.710518836975098 l-1.0939249396324158,-1.5357142686843872 -1.7343485355377197,-1.298353523015976 l-2.4134160578250885,-1.123017966747284 -2.6585254073143005,-0.6060285493731499 l-2.6231059432029724,-0.01827167347073555 -2.1892137825489044,0.7566920667886734 l-1.8685516715049744,1.5113237500190735 -0.8407089114189148,1.308833509683609 l-0.2861303277313709,1.3873344659805298 0.2195332758128643,1.120387390255928 l1.1045344173908234,1.2456701695919037 1.2932716310024261,0.6467375159263611 l2.2192761301994324,0.4222961515188217 2.3932307958602905,-0.09898519143462181 l-3.3751875162124634,1.310928612947464 -1.2782090902328491,1.1486952751874924 l-0.7473109662532806,1.3211023807525635 -0.35161327570676804,2.22429558634758 l0.38460560142993927,1.9437861442565918 1.09466090798378,1.5409034490585327 l1.6582584381103516,1.1495311558246613 2.3060807585716248,0.7439577579498291 l3.5916534066200256,0.10263374075293541 2.3024672269821167,-0.559353344142437 l1.954355388879776,-1.1296561360359192 1.3345611095428467,-1.485634297132492 m2.7758055925369263,-16.785379648208618 l-0.5765408277511597,-0.16932792961597443 -0.38663361221551895,-1.3780266046524048 l-0.16818732023239136,-3.298102915287018 0.6985526531934738,-2.6058632135391235 l1.365332156419754,-1.8253979086875916 1.8200182914733887,-1.0230445861816406 l2.246531993150711,-0.3502080962061882 1.855306625366211,0.3300587832927704 l1.1874423176050186,0.7142776250839233 1.1136291176080704,1.529340147972107 l0.5006004497408867,2.130666673183441 -0.14511015266180038,2.307427227497101 l-0.910087376832962,1.9922694563865662 -1.536831110715866,1.7493510246276855 l-1.8197931349277496,0.989583283662796 -2.1994248032569885,0.2819973789155483 l-1.9964203238487244,-0.42709019035100937 -1.4493943750858307,-1.2006332725286484 l-0.6974323093891144,-1.2684179842472076 -0.2975597232580185,-1.3861462473869324 l0.23297157138586044,-1.805427372455597 1.1731896549463272,-1.7243070900440216 l1.901935338973999,-1.2851853668689728 2.114367336034775,-0.5564675480127335 l2.113915979862213,-0.00420171651057899 1.5837401151657104,0.6156738102436066 l0.9680414199829102,0.852896124124527 0.7872491329908371,1.6047117114067078 l0.14711910858750343,2.0809710025787354 -0.5759137123823166,1.6526223719120026 l-1.3358879089355469,1.6403216123580933 -1.7274954915046692,0.980507954955101 l-2.202925384044647,0.31921111047267914 -2.0291730761528015,-0.33800117671489716 l-1.6749633848667145,-1.1763185262680054 -1.2084491550922394,-1.8862195312976837 l-0.36004189401865005,-2.0771484076976776 0.46094171702861786,-1.965186893939972 " fill="none" stroke="black" stroke-width="1" /></svg>