<?xml version="1.0" encoding="utf-8" ?>
<svg baseProfile="full" height="1405.0" version="1.1" width="1300.0" xmlns="http://www.w3.org/2000/svg" xmlns:ev="http://www.w3.org/2001/xml-events" xmlns:xlink="http://www.w3.org/1999/xlink"><defs /><rect fill="white" height="1405.0" width="1300.0" x="0" y="0" /><path d="M1150.0,200.0 m-35.0,-60.0 l-285.0,-100.0 -90.0,-15.0 l-300.0,0.0 -80.0,25.0 l-130.0,100.0 -125.0,150.0 l-55.0,100.0 -25.0,85.0 l0.0,270.0 30.0,115.0 l65.0,125.0 135.0,170.0 l130.0,115.0 190.0,90.0 l230.0,10.0 230.0,-50.0 l95.0,-75.0 125.0,-240.0 l20.0,-125.0 0.0,-365.0 l-55.0,-210.0 -75.0,-150.0 l-120.0,-50.0 -100.0,0.0 m-320.0,35.0 l0.0,70.0 15.0,30.0 m265.0,170.0 l20.0,50.0 -20.0,50.0 l-65.0,-5.0 35.0,45.0 l0.0,45.0 m35.0,165.0 l95.0,30.0 20.0,25.0 l-30.0,55.0 -60.0,20.0 l0.0,25.0 -45.0,35.0 " fill="none" stroke="black" stroke-width="1" /></svg>