<?xml version="1.0" encoding="utf-8" ?>
<svg baseProfile="full" height="78.59541655565408" version="1.1" width="75.46331223100424" xmlns="http://www.w3.org/2000/svg" xmlns:ev="http://www.w3.org/2001/xml-events" xmlns:xlink="http://www.w3.org/1999/xlink"><defs /><rect fill="white" height="78.59541655565408" width="75.46331223100424" x="0" y="0" /><path d="M46.53445404138438,28.964292258024216 m-0.7159432023763657,-1.190272569656372 l-5.897669196128845,-2.3857133090496063 -1.9135712087154388,-0.3883063793182373 l-4.126359522342682,0.0004204460492474027 -2.883591055870056,0.9848682582378387 l-2.439400851726532,1.7147888243198395 -1.500241458415985,1.7202891409397125 l-1.4459115266799927,2.9047024250030518 -0.6117216870188713,2.4459531903266907 l-4.433210960996803e-05,3.974975347518921 0.7781048119068146,4.02050256729126 l1.1353269219398499,2.7379846572875977 1.5287862718105316,2.4308882653713226 l1.9280067086219788,2.0712345838546753 5.250871777534485,3.089626133441925 l4.069637656211853,0.49918271601200104 4.758548438549042,-1.02557934820652 l2.4332422018051147,-1.7079547047615051 2.255479097366333,-3.2546013593673706 l0.9915202111005783,-3.039068281650543 0.3337881341576576,-4.579563736915588 l-0.7063127309083939,-4.672311842441559 -1.6809429228305817,-3.976757824420929 l-2.267075330018997,-3.050941526889801 -1.7436835169792175,-1.2182095646858215 m-7.329826354980469,1.1168807744979858 l-0.25416232645511627,2.7877283096313477 -0.06985990796238184,1.6062593460083008 m3.763784170150757,-2.557194232940674 l0.5658493563532829,-0.24049147963523865 0.5696477368474007,0.3427153080701828 l0.15068845823407173,1.1616706103086472 -0.7934868335723877,1.5473265945911407 l0.15914076939225197,0.6173359975218773 1.9899487495422363,0.38989171385765076 m3.308330774307251,2.1461227536201477 l-0.3186797723174095,1.3932465016841888 -0.5749823153018951,0.9931394457817078 l0.10260219685733318,0.7870840281248093 1.1039699614048004,0.44296059757471085 l0.3099178336560726,0.6173569336533546 " fill="none" stroke="black" stroke-width="1" /></svg>