<?xml version="1.0" encoding="utf-8" ?>
<svg baseProfile="full" height="2090.0" version="1.1" width="1305.0" xmlns="http://www.w3.org/2000/svg" xmlns:ev="http://www.w3.org/2001/xml-events" xmlns:xlink="http://www.w3.org/1999/xlink"><defs /><rect fill="white" height="2090.0" width="1305.0" x="0" y="0" /><path d="M70.0,210.0 m330.0,-150.0 l160.0,-35.0 210.0,20.0 l220.0,110.0 75.0,80.0 l40.0,70.0 0.0,30.0 l-25.0,35.0 -70.0,60.0 l-270.0,70.0 -270.0,40.0 l-140.0,-30.0 -130.0,-50.0 l-60.0,-80.0 -5.0,-55.0 l25.0,-85.0 65.0,-40.0 l115.0,0.0 m695.0,465.0 l-275.0,-30.0 -240.0,20.0 l-100.0,30.0 -45.0,30.0 l-145.0,135.0 -40.0,70.0 l5.0,60.0 100.0,110.0 l190.0,60.0 185.0,15.0 l210.0,-40.0 105.0,-110.0 l50.0,-125.0 5.0,-80.0 l-25.0,-60.0 -290.0,-60.0 m40.0,445.0 l85.0,170.0 25.0,15.0 l125.0,190.0 220.0,375.0 l-20.0,25.0 -215.0,65.0 l-135.0,15.0 -180.0,50.0 l-160.0,25.0 -115.0,-10.0 l-95.0,-40.0 -40.0,-100.0 l15.0,-105.0 95.0,-245.0 l125.0,-425.0 25.0,-20.0 l45.0,25.0 m255.0,200.0 l295.0,15.0 165.0,25.0 m-910.0,-45.0 l-195.0,95.0 -115.0,5.0 l-35.0,20.0 m990.0,-1105.0 l-140.0,-90.0 -100.0,-35.0 l-110.0,-20.0 -120.0,15.0 l-105.0,35.0 -95.0,95.0 l-50.0,90.0 -5.0,25.0 l25.0,25.0 195.0,15.0 l255.0,-25.0 135.0,-40.0 l50.0,-95.0 -25.0,-70.0 l-170.0,-70.0 " fill="none" stroke="black" stroke-width="1" /></svg>