<?xml version="1.0" encoding="utf-8" ?>
<svg baseProfile="full" height="72.9469857364893" version="1.1" width="73.80329426378012" xmlns="http://www.w3.org/2000/svg" xmlns:ev="http://www.w3.org/2001/xml-events" xmlns:xlink="http://www.w3.org/1999/xlink"><defs /><rect fill="white" height="72.9469857364893" width="73.80329426378012" x="0" y="0" /><path d="M25,30.18179881386459 m6.7519426345825195,-2.872689366340637 l3.8923409581184387,-0.8840827643871307 3.5952159762382507,-0.2834620140492916 l2.9732728004455566,0.1448778621852398 3.3492815494537354,1.0510595887899399 l1.7983061075210571,1.2522663176059723 0.8955109864473343,1.198241114616394 l0.5474232509732246,1.9507169723510742 -0.1623731106519699,2.2485964000225067 l-0.6379249691963196,1.511339396238327 -1.5894870460033417,1.9670191407203674 l-2.302340269088745,1.685737669467926 -2.8311708569526672,1.2958924472332 l-4.190738201141357,0.8751724660396576 -4.410997927188873,-0.0321452971547842 l-2.735442817211151,-0.8601821959018707 -2.310241460800171,-1.5187251567840576 l-1.6337139904499054,-2.009531408548355 -0.741313174366951,-2.269485592842102 l0.08873432874679565,-2.165183871984482 1.0347597301006317,-1.8087059259414673 l1.1017021536827087,-0.8501110225915909 m5.873916149139404,4.916402697563171 l0.049544903449714184,6.365091800689697 0.11387518607079983,6.461445689201355 l0.48174314200878143,0.39563197642564774 8.03160846233368,-0.37250880151987076 l5.557464361190796,-0.5224371701478958 0.32815970480442047,-0.5270271748304367 l-0.019399633165448904,-1.462421715259552 -1.0887300968170166,-7.902287244796753 l-0.5823312699794769,-3.466891050338745 m-12.018197774887085,0.892084464430809 l-0.09420190937817097,-4.846075475215912 -0.9347289800643921,-4.4589486718177795 l1.1436325311660767,-0.28047289699316025 0.5102631077170372,0.18977122381329536 l0.028306618332862854,7.22983717918396 -0.14519231393933296,2.320246994495392 m3.4114235639572144,-3.918525278568268 l0.07519594393670559,-2.6059284806251526 0.3115146607160568,-1.4887593686580658 l0.7613034546375275,-1.1744073033332825 0.8633532375097275,-0.3514775261282921 l1.3153396546840668,0.3289606422185898 0.6913280487060547,0.95464788377285 l0.36159101873636246,1.7495088279247284 -0.19197432324290276,2.097596824169159 l-0.8708358556032181,1.978488266468048 -1.1120099574327469,1.4177624881267548 l-1.174776777625084,0.7173310220241547 -1.219252347946167,0.0772446533665061 l-0.6156899780035019,-0.5100501328706741 -0.2887384779751301,-1.11796073615551 l0.14366925694048405,-1.3633018732070923 0.6100564077496529,-1.130734458565712 l1.5000610053539276,-1.044248789548874 1.8345771729946136,-0.18413228914141655 l0.8122960478067398,0.37335511296987534 0.5380836129188538,0.8693037182092667 l0.18024258315563202,1.7401207983493805 -0.5604484304785728,1.5090735256671906 l-1.2112939357757568,1.2917381525039673 -1.498795598745346,0.6404129415750504 l-1.5677675604820251,-0.08764432743191719 -0.8228539675474167,-0.7476800680160522 l-0.4274793341755867,-1.3063687086105347 -0.0182796036824584,-1.4544405043125153 l0.7823503017425537,-1.573113352060318 1.5668883919715881,-1.103174090385437 l1.9586840271949768,-0.22918729111552238 0.8361843973398209,0.3623654693365097 l0.5021945759654045,0.849144235253334 0.0760597363114357,1.6346794366836548 l-0.7160512357950211,1.521466076374054 -1.2088734656572342,1.2339920550584793 l-1.326029747724533,0.5773935839533806 -1.4488515257835388,-0.026258393190801144 l-0.6669053435325623,-0.6570523977279663 " fill="none" stroke="black" stroke-width="1" /></svg>