<?xml version="1.0" encoding="utf-8" ?>
<svg baseProfile="full" height="2415.0" version="1.1" width="1700.0" xmlns="http://www.w3.org/2000/svg" xmlns:ev="http://www.w3.org/2001/xml-events" xmlns:xlink="http://www.w3.org/1999/xlink"><defs /><rect fill="white" height="2415.0" width="1700.0" x="0" y="0" /><path d="M1000.0,30.0 m-170.0,-5.0 l-120.0,20.0 -125.0,65.0 l-125.0,100.0 -95.0,105.0 l-200.0,320.0 -65.0,180.0 l-60.0,220.0 -15.0,255.0 l0.0,380.0 45.0,220.0 l85.0,175.0 85.0,120.0 l75.0,70.0 200.0,95.0 l160.0,30.0 150.0,10.0 l120.0,-10.0 215.0,-115.0 l165.0,-120.0 145.0,-160.0 l65.0,-105.0 70.0,-265.0 l20.0,-160.0 0.0,-210.0 l-80.0,-255.0 -55.0,-85.0 l-100.0,-95.0 -60.0,-35.0 l-140.0,-165.0 -100.0,-220.0 l-50.0,-155.0 -30.0,-20.0 l-120.0,-10.0 -145.0,-120.0 m-255.0,205.0 l0.0,295.0 m305.0,570.0 l5.0,75.0 35.0,35.0 l110.0,15.0 420.0,-5.0 l310.0,-50.0 m-1480.0,25.0 l-125.0,0.0 m465.0,545.0 l0.0,285.0 " fill="none" stroke="black" stroke-width="1" /></svg>