<?xml version="1.0" encoding="utf-8" ?>
<svg baseProfile="full" height="101.5910411439836" version="1.1" width="88.03073216229677" xmlns="http://www.w3.org/2000/svg" xmlns:ev="http://www.w3.org/2001/xml-events" xmlns:xlink="http://www.w3.org/1999/xlink"><defs /><rect fill="white" height="101.5910411439836" width="88.03073216229677" x="0" y="0" /><path d="M44.90052247419953,25.143405068665743 m-3.4048953652381897,-0.14340506866574287 l-1.9205577671527863,0.5070650577545166 -2.9577982425689697,1.6959084570407867 l-2.693924307823181,2.4750466644763947 -2.428119033575058,3.138381242752075 l-2.0963209867477417,3.692943751811981 -2.1877342462539673,5.524855852127075 l-1.4241252839565277,5.847799777984619 -0.6858038157224655,6.081900000572205 l-0.10124342516064644,5.497288107872009 0.4428321123123169,3.688167929649353 l0.9926757961511612,3.2933565974235535 1.5150278806686401,2.9841282963752747 l1.9232195615768433,2.459305226802826 2.431066185235977,2.031812369823456 l2.8411030769348145,1.5098167955875397 3.2770392298698425,0.9128567576408386 l3.614107668399811,0.25040825828909874 3.6048781871795654,-0.39262067526578903 l4.731611013412476,-1.8112020194530487 3.096575140953064,-1.984339952468872 l2.817859947681427,-2.627815902233124 2.356148362159729,-3.1498393416404724 l2.43990495800972,-4.939808249473572 1.450973004102707,-5.405430793762207 l0.4957100376486778,-4.260068237781525 -0.0924303475767374,-5.423738956451416 l-1.1533503234386444,-5.129686594009399 -2.1916088461875916,-5.10438859462738 l-2.751966118812561,-4.3520790338516235 -2.3227792978286743,-2.6294633746147156 l-2.566762864589691,-2.0262672007083893 -2.5586840510368347,-1.3421407341957092 l-2.747575044631958,-0.7663819193840027 -3.0017894506454468,-0.15999436378479004 l-2.526138126850128,0.5141468718647957 m1.0450509935617447,20.140855312347412 l-0.15138564631342888,0.3989972919225693 -0.009904740145429969,-1.1250057071447372 l-0.13149544596672058,-9.61642324924469 0.03582943230867386,-4.541187584400177 l-0.06157661788165569,-1.4906449615955353 m0.46707674860954285,17.528321743011475 l4.9194130301475525,1.0876944661140442 4.84574019908905,0.1902957446873188 l4.133242070674896,-0.256910715252161 3.9398327469825745,-0.311098862439394 " fill="none" stroke="black" stroke-width="1" /></svg>