<?xml version="1.0" encoding="utf-8" ?>
<svg baseProfile="full" height="100.49981478601694" version="1.1" width="160.8503933250904" xmlns="http://www.w3.org/2000/svg" xmlns:ev="http://www.w3.org/2001/xml-events" xmlns:xlink="http://www.w3.org/1999/xlink"><defs /><rect fill="white" height="100.49981478601694" width="160.8503933250904" x="0" y="0" /><path d="M80.51062616279523,30.21312862259947 m-2.2592034935951233,0.010154952760785818 l-2.205733507871628,0.8341134339570999 -1.0255390405654907,0.763840526342392 l-1.209385246038437,1.7619799077510834 -1.2967132031917572,3.9800643920898438 l-0.09183369576931,5.8730387687683105 1.8517403304576874,3.6775070428848267 l2.442689538002014,2.191283404827118 2.837211489677429,1.1889921873807907 l3.206077516078949,0.48845626413822174 4.317353963851929,-0.00026163037546211854 l3.2713302969932556,-0.8948440104722977 2.730156183242798,-1.4927637577056885 l2.017413377761841,-1.8729983270168304 1.4048206806182861,-2.1890659630298615 l0.7977297902107239,-2.4482300877571106 0.0011302729399176314,-3.6461234092712402 l-1.5915104746818542,-3.36948424577713 -1.8659617006778717,-2.177850306034088 l-3.3182820677757263,-2.2967058420181274 -3.994397222995758,-1.0398735851049423 l-3.0840596556663513,0.08678820915520191 -1.4022256433963776,0.566648319363594 m9.10127580165863,0.3676077350974083 l3.9642274379730225,-3.301021158695221 3.372187614440918,-1.5389315783977509 l3.854679763317108,-0.7354498654603958 3.772260546684265,0.2780904620885849 l3.5179930925369263,1.3033637404441833 1.7272160947322845,1.168617457151413 l1.5081413090229034,2.1927641332149506 0.8182393014431,3.0761346220970154 l-0.25582272559404373,3.061138689517975 -1.6911521553993225,2.7932852506637573 l-3.1002384424209595,2.5234195590019226 -2.447751462459564,1.0487060248851776 l-6.519725322723389,0.7578204572200775 m-21.22077465057373,-14.066592454910278 l-4.981268644332886,-1.7229142785072327 -3.6022454500198364,-0.43168846517801285 l-3.3950135111808777,0.46647269278764725 -1.804557889699936,0.8973225206136703 l-1.8919596076011658,2.084226608276367 -0.7588371634483337,1.9825220108032227 l0.008709236280992627,1.936226487159729 0.8201330900192261,1.6878993809223175 l1.541176587343216,1.2596270442008972 m19.074954986572266,5.102453827857971 l-0.5218013003468513,3.709688186645508 m6.968108415603638,-3.6600369215011597 l-0.3599158301949501,3.5985246300697327 m-9.06872808933258,-0.6011539325118065 l-0.3885466232895851,2.6618126034736633 -0.6035224348306656,3.0683085322380066 l-0.5977239832282066,3.435148298740387 -1.6433878242969513,5.268159508705139 l-1.3609708845615387,4.981387555599213 -0.7866689562797546,3.974064886569977 l-0.22614577785134315,3.1337422132492065 0.29994891956448555,2.7699407935142517 l0.735422819852829,0.7613326609134674 16.757646799087524,-0.240744948387146 l9.543930292129517,-0.5348598212003708 6.787729263305664,-0.6415703892707825 l0.5093993246555328,-0.5695801228284836 -2.1798408031463623,-6.385520696640015 l-4.680286347866058,-9.969336986541748 -4.858311712741852,-9.567264914512634 l-1.775781363248825,-2.76519238948822 m-18.313422203063965,3.9442473649978638 l-5.980316400527954,-3.0154427886009216 -9.901764392852783,-4.941817224025726 l-6.150635480880737,-3.083793520927429 -5.259734392166138,-2.4267180263996124 l-4.2838698625564575,-1.9290539622306824 -3.392707109451294,-1.6703787446022034 l-3.17548006772995,-1.7700262367725372 -2.7487125992774963,-1.8044459819793701 l-2.523163855075836,-2.0405544340610504 -1.260494440793991,-0.3680504485964775 l-3.9258724451065063,2.268771678209305 -1.8280071020126343,2.415277510881424 l-1.6477356851100922,4.470843076705933 -0.6139203533530235,5.549601912498474 l0.5899785459041595,3.6995121836662292 4.28489476442337,8.217068314552307 l5.284106135368347,6.137064099311829 6.3297706842422485,4.969003200531006 l6.969392895698547,3.8906389474868774 7.88252055644989,3.2316869497299194 l7.807605266571045,2.2207149863243103 6.970454454421997,1.1042885482311249 m17.59612202644348,-25.13821840286255 l8.545259237289429,-4.003041088581085 11.77607536315918,-6.060744524002075 m-14.187455177307129,11.971397399902344 l13.465089797973633,-2.4065016210079193 12.164843082427979,-3.884018063545227 l12.440892457962036,-4.48517233133316 m-43.14374923706055,12.11934208869934 l13.204824924468994,0.06731788162142038 12.861087322235107,-1.1212362349033356 l13.69663953781128,-1.8084006011486053 6.312040686607361,-1.612675040960312 m-50.027427673339844,6.4881885051727295 l10.68304181098938,-0.0106480170506984 17.381471395492554,-0.10872603394091129 l8.710212111473083,0.1770690456032753 7.228323817253113,0.3078121691942215 " fill="none" stroke="black" stroke-width="1" /></svg>