<?xml version="1.0" encoding="utf-8" ?>
<svg baseProfile="full" height="3245.0" version="1.1" width="6905.0" xmlns="http://www.w3.org/2000/svg" xmlns:ev="http://www.w3.org/2001/xml-events" xmlns:xlink="http://www.w3.org/1999/xlink"><defs /><rect fill="white" height="3245.0" width="6905.0" x="0" y="0" /><path d="M2970.0,440.0 m-115.0,0.0 l-105.0,35.0 -65.0,45.0 l-45.0,80.0 -35.0,160.0 l-15.0,430.0 60.0,135.0 l90.0,60.0 120.0,40.0 l385.0,5.0 220.0,-20.0 l135.0,-45.0 145.0,-90.0 l55.0,-75.0 40.0,-95.0 l20.0,-80.0 0.0,-125.0 l-35.0,-195.0 -25.0,-60.0 l-155.0,-155.0 -310.0,-55.0 l-380.0,-20.0 m15.0,-220.0 l-315.0,0.0 -25.0,45.0 l0.0,20.0 20.0,20.0 l545.0,15.0 100.0,-10.0 l20.0,-45.0 -15.0,-20.0 l-90.0,-15.0 -270.0,-10.0 l-10.0,40.0 m-5.0,1135.0 l-20.0,300.0 -100.0,475.0 l-100.0,385.0 -60.0,155.0 l-120.0,215.0 -200.0,240.0 m1230.0,-1665.0 l30.0,75.0 0.0,780.0 l30.0,310.0 95.0,265.0 l230.0,295.0 40.0,20.0 m-390.0,-1285.0 l215.0,-50.0 220.0,-80.0 l580.0,-305.0 0.0,60.0 l-20.0,235.0 -40.0,125.0 l-120.0,215.0 -65.0,75.0 l-120.0,105.0 -135.0,80.0 l-395.0,175.0 -140.0,20.0 m-680.0,-550.0 l-250.0,-10.0 -180.0,-40.0 l-530.0,-300.0 -20.0,90.0 l0.0,395.0 40.0,100.0 l95.0,140.0 275.0,135.0 l370.0,80.0 165.0,0.0 l10.0,-15.0 m2725.0,-1460.0 l70.0,0.0 60.0,-20.0 l260.0,-140.0 45.0,-50.0 l345.0,-265.0 190.0,-190.0 l170.0,-220.0 150.0,-245.0 m-1500.0,1520.0 l80.0,15.0 195.0,0.0 l425.0,-100.0 220.0,-80.0 l385.0,-235.0 m-5105.0,570.0 l-375.0,-145.0 -880.0,-270.0 l-185.0,-90.0 -115.0,-110.0 m1475.0,415.0 l-285.0,-160.0 -115.0,-120.0 l-205.0,-430.0 m775.0,-615.0 l5.0,85.0 45.0,145.0 l30.0,250.0 180.0,465.0 l125.0,155.0 m2935.0,-1205.0 l0.0,220.0 -60.0,220.0 l-185.0,295.0 -130.0,60.0 " fill="none" stroke="black" stroke-width="1" /></svg>