<?xml version="1.0" encoding="utf-8" ?>
<svg baseProfile="full" height="2460.0" version="1.1" width="2295.0" xmlns="http://www.w3.org/2000/svg" xmlns:ev="http://www.w3.org/2001/xml-events" xmlns:xlink="http://www.w3.org/1999/xlink"><defs /><rect fill="white" height="2460.0" width="2295.0" x="0" y="0" /><path d="M1420.0,60.0 m-550.0,-35.0 l-225.0,55.0 -240.0,90.0 l-135.0,110.0 -125.0,195.0 l-55.0,120.0 -35.0,130.0 l-30.0,215.0 0.0,430.0 l20.0,160.0 55.0,230.0 l100.0,190.0 190.0,145.0 l145.0,85.0 525.0,200.0 l205.0,45.0 315.0,10.0 l255.0,-65.0 200.0,-185.0 l110.0,-215.0 110.0,-375.0 l15.0,-95.0 -5.0,-280.0 l-50.0,-160.0 -60.0,-125.0 l-190.0,-315.0 -155.0,-200.0 l-100.0,-100.0 -175.0,-120.0 l-270.0,-50.0 m-280.0,75.0 l0.0,185.0 m360.0,-75.0 l95.0,5.0 85.0,25.0 l10.0,85.0 -45.0,135.0 l110.0,25.0 m340.0,235.0 l110.0,10.0 5.0,125.0 l-50.0,85.0 -35.0,20.0 l60.0,45.0 -5.0,50.0 l-125.0,95.0 " fill="none" stroke="black" stroke-width="1" /></svg>