<?xml version="1.0" encoding="utf-8" ?>
<svg baseProfile="full" height="99.3304846342653" version="1.1" width="93.48154276609421" xmlns="http://www.w3.org/2000/svg" xmlns:ev="http://www.w3.org/2001/xml-events" xmlns:xlink="http://www.w3.org/1999/xlink"><defs /><rect fill="white" height="99.3304846342653" width="93.48154276609421" x="0" y="0" /><path d="M52.91764146584228,25.676808059215546 m-10.701344013214111,-0.6768080592155457 l-4.467647969722748,0.9457042813301086 -5.1089805364608765,2.5316080451011658 l-2.9873046278953552,2.647639214992523 -1.7486710846424103,2.36603707075119 l-1.3480110466480255,2.775796055793762 -0.9376971423625946,3.3418989181518555 l-0.617932453751564,5.209478735923767 -5.259114459477132e-05,5.621602535247803 l0.6559451669454575,3.929513394832611 1.1906534433364868,3.5909727215766907 l1.7665213346481323,3.571142256259918 2.342909425497055,3.320435583591461 l6.295528411865234,5.487114787101746 4.090607166290283,2.1526050567626953 l5.862835645675659,1.7340834438800812 8.040699362754822,0.10485253296792507 l2.588620185852051,-0.8633425086736679 4.035774767398834,-2.551114559173584 l2.690536379814148,-2.8807973861694336 1.8994024395942688,-3.2324323058128357 l1.2518082559108734,-3.555707037448883 0.7697007805109024,-5.655432343482971 l-0.0001711789627734106,-6.415700316429138 -0.6965493410825729,-4.302253723144531 l-1.866820752620697,-5.282706618309021 -1.8994611501693726,-3.38473379611969 l-3.095400035381317,-3.6789873242378235 -3.9819222688674927,-3.183353841304779 l-4.344386458396912,-2.191101610660553 -2.8360936045646667,-0.5125248059630394 m-4.5596107840538025,2.76048481464386 l0.23678135126829147,4.539598822593689 m4.941434562206268,-2.1603313088417053 l1.3164892792701721,-0.28305549174547195 0.5467392131686211,1.6746462881565094 l-0.8504395186901093,2.0221060514450073 0.4899250715970993,0.5807220563292503 m7.85016655921936,2.0184125006198883 l0.17319941893219948,1.6479754447937012 -0.4975064843893051,1.8976932764053345 l0.3544463962316513,0.9139280766248703 1.745436042547226,0.6060422584414482 l0.9323985874652863,0.8117441087961197 0.10360017418861389,1.0110406577587128 l-1.0182346403598785,1.122218444943428 -2.924637794494629,1.2363211065530777 " fill="none" stroke="black" stroke-width="1" /></svg>