<?xml version="1.0" encoding="utf-8" ?>
<svg baseProfile="full" height="2170.0" version="1.1" width="1570.0" xmlns="http://www.w3.org/2000/svg" xmlns:ev="http://www.w3.org/2001/xml-events" xmlns:xlink="http://www.w3.org/1999/xlink"><defs /><rect fill="white" height="2170.0" width="1570.0" x="0" y="0" /><path d="M950.0,740.0 m-55.0,-60.0 l-105.0,-70.0 -135.0,-25.0 l-290.0,5.0 -190.0,90.0 l-90.0,145.0 -45.0,160.0 l-15.0,550.0 65.0,375.0 l25.0,70.0 40.0,40.0 l5.0,55.0 80.0,70.0 l125.0,0.0 125.0,-85.0 l125.0,-55.0 70.0,-75.0 l30.0,-105.0 10.0,90.0 l60.0,55.0 85.0,25.0 l120.0,0.0 35.0,-15.0 l120.0,-180.0 150.0,-120.0 l90.0,-155.0 70.0,-300.0 l15.0,-175.0 75.0,-300.0 l-75.0,-150.0 -60.0,-35.0 l-130.0,-30.0 -250.0,15.0 l-35.0,25.0 -15.0,35.0 l-25.0,125.0 m-20.0,-40.0 l-40.0,-320.0 20.0,-145.0 l0.0,-145.0 -15.0,-40.0 m-20.0,-5.0 l-25.0,-15.0 -80.0,0.0 l-115.0,120.0 -85.0,60.0 l-25.0,160.0 5.0,25.0 l115.0,105.0 160.0,15.0 l150.0,65.0 " fill="none" stroke="black" stroke-width="1" /></svg>