<?xml version="1.0" encoding="utf-8" ?>
<svg baseProfile="full" height="80.40618889033794" version="1.1" width="71.80180445313454" xmlns="http://www.w3.org/2000/svg" xmlns:ev="http://www.w3.org/2001/xml-events" xmlns:xlink="http://www.w3.org/1999/xlink"><defs /><rect fill="white" height="80.40618889033794" width="71.80180445313454" x="0" y="0" /><path d="M44.30153206922114,28.21138042025268 m-1.087845340371132,-1.207842007279396 l-2.6510047912597656,-1.0215947777032852 -3.397650718688965,-0.11322416365146637 l-3.0424025654792786,1.1047913134098053 -3.1126603484153748,2.298305183649063 l-3.350572884082794,4.239262938499451 -1.6495418548583984,3.597593605518341 l-0.9028399735689163,3.9212900400161743 -0.10701359249651432,5.009523034095764 l0.7286842167377472,2.9311364889144897 1.3675197958946228,2.5406414270401 l1.7604011297225952,1.8845057487487793 2.0309005677700043,1.2622877955436707 l2.322912812232971,0.6910485774278641 2.5845006108283997,0.057083265855908394 l2.29599192738533,-0.6216048449277878 2.4266313016414642,-1.4830714464187622 l2.2017307579517365,-2.2000643610954285 1.8376259505748749,-2.8623029589653015 l1.32025808095932,-3.343011736869812 0.7183326780796051,-3.5585731267929077 l0.20631462335586548,-3.681231439113617 -0.2522706426680088,-3.385293185710907 l-0.8149447292089462,-2.9950541257858276 -1.263992041349411,-2.5452372431755066 l-1.5066972374916077,-1.900138109922409 -1.6606980562210083,-1.1997373402118683 l-1.9929219782352448,-0.6308689713478088 m-5.5120909214019775,13.631983995437622 l-0.3303951025009155,0.2040490135550499 0.22141780704259872,1.0278581082820892 l0.724521204829216,5.055004294263199e-05 -0.05072179716080427,-1.1180677264928818 l-0.5042659118771553,0.4568338394165039 0.36254391074180603,0.20794998854398727 l0.16995733603835106,-0.4652703180909157 -0.18360115587711334,0.09291525930166245 l0.11333721689879894,0.39250750094652176 0.5385101959109306,-0.37087954580783844 l-0.2379685454070568,-0.24539614096283913 -0.24041512981057167,0.7458670437335968 l0.5919267609715462,-0.1499004941433668 -0.13239133171737194,-0.37833765149116516 l-0.2536909654736519,0.41835568845272064 0.37466954439878464,0.15999920666217804 l0.17740005627274513,-0.4240444302558899 -0.1576748490333557,0.05236261524260044 m0.09369012899696827,-0.42913850396871567 l-0.029360842891037464,-9.073246717453003 -0.2871331013739109,-3.2406440377235413 m0.11028852313756943,13.779945373535156 l5.005215406417847,1.6870921850204468 " fill="none" stroke="black" stroke-width="1" /></svg>