<?xml version="1.0" encoding="utf-8" ?>
<svg baseProfile="full" height="545.0" version="1.1" width="2635.0" xmlns="http://www.w3.org/2000/svg" xmlns:ev="http://www.w3.org/2001/xml-events" xmlns:xlink="http://www.w3.org/1999/xlink"><defs /><rect fill="white" height="545.0" width="2635.0" x="0" y="0" /><path d="M2540.0,130.0 m-690.0,-10.0 l-1070.0,-70.0 -755.0,-15.0 l0.0,165.0 20.0,320.0 l205.0,-5.0 255.0,-30.0 l1075.0,-15.0 325.0,-65.0 l220.0,-10.0 135.0,-25.0 l285.0,0.0 m40.0,-345.0 l5.0,165.0 20.0,105.0 m-40.0,-60.0 l5.0,205.0 m-1180.0,-215.0 l-25.0,0.0 -25.0,55.0 l30.0,20.0 55.0,5.0 l25.0,-5.0 15.0,-25.0 l-40.0,-10.0 m585.0,-55.0 l0.0,0.0 m45.0,35.0 l80.0,5.0 m40.0,-80.0 l0.0,0.0 m155.0,60.0 l0.0,0.0 m10.0,-10.0 l40.0,0.0 m-2065.0,-15.0 l30.0,20.0 50.0,0.0 m140.0,15.0 l35.0,10.0 " fill="none" stroke="black" stroke-width="1" /></svg>