<?xml version="1.0" encoding="utf-8" ?>
<svg baseProfile="full" height="62.17478148639202" version="1.1" width="99.627845788076" xmlns="http://www.w3.org/2000/svg" xmlns:ev="http://www.w3.org/2001/xml-events" xmlns:xlink="http://www.w3.org/1999/xlink"><defs /><rect fill="white" height="62.17478148639202" width="99.627845788076" x="0" y="0" /><path d="M73.43581676483154,26.824050173163414 m-12.64338731765747,-0.3285977989435196 l-23.44966411590576,-1.4954523742198944 -12.34276533126831,0.7958915084600449 l0.21414417773485184,7.587574124336243 0.6271250545978546,3.7913158535957336 l6.987757086753845,-0.8268110454082489 10.353909730911255,-1.2666678428649902 l10.956209897994995,-0.9525680541992188 9.012526273727417,-0.6508281081914902 l5.899921655654907,-0.5220160633325577 3.6500009894371033,-0.590263269841671 l0.7007645815610886,-3.119976818561554 0.056962757371366024,-3.133283853530884 m-28.706021308898926,5.439236760139465 l0.0009794066863832995,0.0007540798105765134 m1.4899061620235443,-1.029963493347168 l0.0006042164750397205,0.000593406475672964 0.24425195530056953,0.7203786075115204 l0.20338144153356552,0.2328248880803585 0.21672073751688004,0.00016047071767388843 l-0.005931080086156726,0.0003014545109181199 m4.590352773666382,-1.1673781275749207 l0.03250188194215298,0.34837745130062103 m3.3184051513671875,-0.36645814776420593 l-0.0005532993236556649,0.00014377777006302495 m3.212948739528656,-0.3491172194480896 l-0.00035294262488605455,0.00019807332137133926 m3.1967800855636597,-0.5043559148907661 l1.5499684877795517e-05,0.0001714533027552534 m3.2504019141197205,-0.4868309572339058 l8.854869520291686e-05,0.0001719376268738415 m2.9197338223457336,-0.662301555275917 l0.00014853145330562256,0.00012127600712119602 m3.199300467967987,-0.8912795037031174 l0.0003341096453368664,0.00014342344911710825 m1.921459585428238,-0.6080138683319092 l9.391071216668934e-05,2.1446835489769e-05 m2.0829732716083527,-0.49007754772901535 l-3.9373699110001326e-05,0.0003123729766230099 " fill="none" stroke="black" stroke-width="1" /></svg>