<?xml version="1.0" encoding="utf-8" ?>
<svg baseProfile="full" height="2290.0" version="1.1" width="2580.0" xmlns="http://www.w3.org/2000/svg" xmlns:ev="http://www.w3.org/2001/xml-events" xmlns:xlink="http://www.w3.org/1999/xlink"><defs /><rect fill="white" height="2290.0" width="2580.0" x="0" y="0" /><path d="M1310.0,765.0 m-90.0,50.0 l-370.0,145.0 -475.0,165.0 l-170.0,85.0 -80.0,65.0 l-50.0,90.0 -30.0,80.0 l-20.0,140.0 30.0,15.0 l95.0,0.0 590.0,-225.0 l280.0,-75.0 125.0,-15.0 l25.0,15.0 5.0,25.0 l0.0,135.0 -25.0,115.0 l5.0,475.0 30.0,100.0 l60.0,95.0 60.0,20.0 l55.0,-5.0 60.0,-65.0 l135.0,-265.0 25.0,-205.0 l0.0,-305.0 10.0,-35.0 l45.0,-35.0 85.0,10.0 l185.0,165.0 260.0,360.0 l55.0,35.0 95.0,30.0 l120.0,5.0 45.0,-25.0 l60.0,-75.0 15.0,-75.0 l-5.0,-165.0 -55.0,-95.0 l-85.0,-90.0 -95.0,-65.0 l-385.0,-245.0 -185.0,-75.0 l-65.0,-75.0 -15.0,-60.0 l0.0,-160.0 30.0,-460.0 l-15.0,-90.0 -75.0,-135.0 l-50.0,-35.0 -60.0,-5.0 l-30.0,15.0 -35.0,55.0 l-50.0,170.0 -50.0,275.0 l-10.0,315.0 m-25.0,1065.0 l5.0,215.0 5.0,-155.0 l-25.0,-50.0 -25.0,0.0 l-15.0,110.0 " fill="none" stroke="black" stroke-width="1" /></svg>