<?xml version="1.0" encoding="utf-8" ?>
<svg baseProfile="full" height="81.39918343629688" version="1.1" width="85.42276557534933" xmlns="http://www.w3.org/2000/svg" xmlns:ev="http://www.w3.org/2001/xml-events" xmlns:xlink="http://www.w3.org/1999/xlink"><defs /><rect fill="white" height="81.39918343629688" width="85.42276557534933" x="0" y="0" /><path d="M53.96994948387146,32.093763197772205 m-1.8837100267410278,0.8986184000968933 l-4.06294971704483,1.0646738111972809 -14.463860988616943,3.794262409210205 l-4.167880117893219,2.153901606798172 -2.6023590564727783,2.103210985660553 l-1.417033076286316,2.1404270827770233 -0.3721565008163452,1.6138938069343567 l0.17744701355695724,1.3941748440265656 0.8182349801063538,1.0232415795326233 l2.2366029024124146,1.3340330123901367 3.3461347222328186,0.9212250262498856 l5.583457946777344,0.47226618975400925 7.87431001663208,-0.631040632724762 l5.371373295783997,-1.4158724248409271 3.3789461851119995,-1.4787594974040985 l2.5045087933540344,-1.7230261862277985 2.0434707403182983,-2.0630113780498505 l1.420721858739853,-2.3498184978961945 0.6675571203231812,-2.570337653160095 l-0.08075050078332424,-2.638241946697235 -1.0073982924222946,-1.9363020360469818 l-1.9330404698848724,-1.7291761934757233 -2.4257519841194153,-1.1265584081411362 l-2.7177461981773376,-0.5025607347488403 -2.9774126410484314,0.08428594097495079 m-16.202447414398193,13.174598217010498 l-0.4205966368317604,4.518614709377289 -0.1017298549413681,7.379313111305237 l0.5024758353829384,0.39938509464263916 12.470753192901611,-0.8014602214097977 l11.047307252883911,-1.1508937925100327 0.38183368742465973,-0.49985047429800034 l-0.08996780030429363,-3.010789155960083 -0.698101595044136,-8.097143769264221 l-0.3986683860421181,-3.665652871131897 m-19.06465768814087,2.9210689663887024 l-0.086349593475461,-2.759583294391632 -0.8512424677610397,-5.148427486419678 l-0.06528756581246853,-5.122332572937012 1.9494017958641052,0.20456433296203613 l3.3477136492729187,-0.28688298538327217 0.09860174730420113,7.559336423873901 l-0.06923267152160406,3.9004814624786377 -0.13518108054995537,0.07284790743142366 m4.817749261856079,-6.41215980052948 l0.06401790771633387,-3.402585983276367 0.2783847041428089,-4.9117931723594666 l2.7499154210090637,0.6902434676885605 0.7188123464584351,2.425501048564911 l-0.03154200967401266,6.3663482666015625 -0.15017244033515453,0.2581581473350525 m1.0376884788274765,-5.720273852348328 l0.01885266276076436,-4.437621831893921 1.194678172469139,-0.37028219550848007 l0.6484714150428772,1.093139871954918 0.010651511838659644,4.676645994186401 l0.44878270477056503,1.2401759624481201 m-14.708589315414429,1.159832626581192 l-0.041489056311547756,-2.439325451850891 -0.39832569658756256,-3.3022284507751465 l1.3472795486450195,-0.1357800979167223 " fill="none" stroke="black" stroke-width="1" /></svg>