<?xml version="1.0" encoding="utf-8" ?>
<svg baseProfile="full" height="1335.0" version="1.1" width="1280.0" xmlns="http://www.w3.org/2000/svg" xmlns:ev="http://www.w3.org/2001/xml-events" xmlns:xlink="http://www.w3.org/1999/xlink"><defs /><rect fill="white" height="1335.0" width="1280.0" x="0" y="0" /><path d="M605.0,315.0 m-15.0,150.0 l0.0,560.0 55.0,200.0 l0.0,85.0 105.0,-225.0 l35.0,-120.0 5.0,-300.0 l-25.0,-140.0 -100.0,-200.0 l-40.0,-15.0 m50.0,60.0 l80.0,-5.0 90.0,-180.0 l40.0,-20.0 10.0,-35.0 l55.0,-25.0 55.0,0.0 l25.0,20.0 115.0,190.0 l40.0,155.0 0.0,115.0 l-100.0,100.0 -55.0,105.0 l5.0,35.0 90.0,100.0 l105.0,85.0 25.0,55.0 l0.0,30.0 -25.0,30.0 l-175.0,140.0 -305.0,0.0 l-40.0,-35.0 m-125.0,-845.0 l-110.0,-20.0 -150.0,-170.0 l-60.0,-110.0 -50.0,-55.0 l-145.0,-5.0 -35.0,60.0 l-10.0,100.0 65.0,150.0 l95.0,130.0 20.0,100.0 l120.0,185.0 5.0,35.0 l-5.0,25.0 -60.0,20.0 l-50.0,40.0 -145.0,195.0 l-20.0,50.0 0.0,70.0 l15.0,25.0 60.0,25.0 l480.0,15.0 m-20.0,-895.0 l0.0,-130.0 -40.0,-120.0 l-20.0,-20.0 " fill="none" stroke="black" stroke-width="1" /></svg>