<?xml version="1.0" encoding="utf-8" ?>
<svg baseProfile="full" height="77.28993026539683" version="1.1" width="72.84962383402217" xmlns="http://www.w3.org/2000/svg" xmlns:ev="http://www.w3.org/2001/xml-events" xmlns:xlink="http://www.w3.org/1999/xlink"><defs /><rect fill="white" height="77.28993026539683" width="72.84962383402217" x="0" y="0" /><path d="M34.92149543094911,31.45691756897577 m-0.31754203140735626,2.923758625984192 l-0.0001825043000280857,11.299747228622437 0.8615508675575256,5.358430743217468 l1.0185719281435013,0.8407054841518402 1.5182159841060638,-3.9489170908927917 l0.4509379342198372,-6.405470371246338 -0.0002962491271318868,-5.346366763114929 l-0.49329500645399094,-2.4973416328430176 -0.7337579131126404,-1.375420242547989 l-0.7676830887794495,-0.40916867554187775 m0.9310054033994675,1.5811872482299805 l0.9214679151773453,-1.560865193605423 1.4412729442119598,-1.181517168879509 l1.7761024832725525,-0.7652325928211212 1.6095329821109772,-0.21915310993790627 l1.8513640761375427,0.5435406789183617 1.5367953479290009,1.6765494644641876 l0.597907118499279,1.644841879606247 -0.05970117636024952,2.5286969542503357 l-0.6675431877374649,1.4100021123886108 -1.764352023601532,1.640036553144455 l-3.877389132976532,1.5177614986896515 3.5538238286972046,0.3823397681117058 l1.2950201332569122,0.6731884926557541 1.434982568025589,1.7472541332244873 l0.8113192021846771,2.546079158782959 -5.381950813898584e-05,2.4189092218875885 l-1.0270117968320847,2.1777914464473724 -1.1600229144096375,0.9576106816530228 l-2.3775777220726013,0.6736225634813309 -3.3596420288085938,0.0004115999399800785 l-1.1055871099233627,-0.6041499972343445 -1.2455088645219803,-1.6698621213436127 m-2.5089222192764282,-17.281861305236816 l-1.2741531431674957,-1.6078311204910278 -2.2807130217552185,-1.2929119169712067 l-2.7139049768447876,-0.12478427961468697 -1.1825807392597198,0.4049208015203476 l-1.5269038081169128,1.4412419497966766 -1.063895970582962,2.3884129524230957 l-0.023145698942244053,2.765393555164337 0.8840885013341904,1.6023017466068268 l2.2811245918273926,1.4810377359390259 1.2886641919612885,0.4147452488541603 l3.285488188266754,0.2646462246775627 -2.032647430896759,1.0115234553813934 l-3.378882110118866,3.4729480743408203 -0.8167500048875809,1.8586568534374237 l9.159522960544564e-05,2.1116898953914642 0.7441307604312897,1.341351568698883 l1.3253532350063324,0.8491517603397369 4.0985241532325745,0.4298770800232887 l1.0582136362791061,-0.5002432689070702 2.0446090400218964,-2.7133741974830627 m0.1693975180387497,-16.958677768707275 l-1.3995204865932465,-4.244057238101959 -1.1907577514648438,-1.6382600367069244 l-1.5162014961242676,-0.4918159171938896 -0.9999686479568481,0.5852678418159485 " fill="none" stroke="black" stroke-width="1" /></svg>