<?xml version="1.0" encoding="utf-8" ?>
<svg baseProfile="full" height="66.42493074759841" version="1.1" width="70.16845795093104" xmlns="http://www.w3.org/2000/svg" xmlns:ev="http://www.w3.org/2001/xml-events" xmlns:xlink="http://www.w3.org/1999/xlink"><defs /><rect fill="white" height="66.42493074759841" width="70.16845795093104" x="0" y="0" /><path d="M35.23991838679649,25.77192695811391 m-0.3916359320282936,0.0681423768401146 l-0.33463507890701294,0.7489641010761261 -0.1356637291610241,2.1476738154888153 l0.3961590304970741,0.7907620817422867 0.7234018296003342,0.27234839275479317 l1.1136994510889053,-0.41374020278453827 0.4755888879299164,-1.1055034399032593 l-0.00422828015871346,-1.8745525181293488 -0.7341892272233963,-1.0903993248939514 l-0.80109603703022,-0.3156222403049469 -0.848647728562355,0.14892010018229485 m0.08404787629842758,4.292285144329071 l-1.1542396247386932,6.440448760986328 -1.3755324482917786,4.171545207500458 l0.2096727304160595,1.0509082674980164 0.47503523528575897,0.3208232671022415 l6.798275709152222,-0.6657617539167404 0.1716204546391964,-1.7994548380374908 l-2.631485164165497,-6.39758825302124 -1.5219461917877197,-2.8862005472183228 m-1.4852827787399292,1.997525542974472 l-2.2077620029449463,-2.5774532556533813 -2.426750361919403,-1.7818541824817657 l-1.9549356400966644,-0.4744759574532509 -1.1558026820421219,0.20148532465100288 l-0.9040719270706177,0.8020754158496857 -0.541902631521225,1.249665692448616 l-0.07761212531477213,1.5802554786205292 0.3428063541650772,1.1334913223981857 l1.1514978110790253,1.3288088142871857 1.7274336516857147,0.9056322276592255 l2.0305319130420685,0.34317634999752045 -0.7648414373397827,0.640254020690918 l-0.6532036513090134,1.0858428478240967 -0.09435107000172138,1.3036476075649261 l0.41390467435121536,0.9932525455951691 0.9029846638441086,0.6025324761867523 l1.7561070621013641,0.14003507792949677 1.4788718521595001,-0.6231260672211647 m4.219317436218262,-7.5459277629852295 l1.168520674109459,-1.1885005235671997 2.2601160407066345,-1.008145958185196 l2.100640833377838,-0.1537097804248333 1.3159790635108948,0.6418365240097046 l0.7932653278112411,1.3530418276786804 0.01887675141915679,1.7678308486938477 l-0.9777000546455383,1.365559697151184 -1.7082096636295319,0.9884718060493469 l1.550043374300003,0.6560464948415756 0.8875426650047302,1.2652494013309479 l0.014253677800297737,1.050599217414856 -0.5638730898499489,0.751650407910347 l-1.7200884222984314,0.7355733960866928 -3.160732388496399,0.05671549588441849 " fill="none" stroke="black" stroke-width="1" /></svg>