<?xml version="1.0" encoding="utf-8" ?>
<svg baseProfile="full" height="910.0" version="1.1" width="1325.0" xmlns="http://www.w3.org/2000/svg" xmlns:ev="http://www.w3.org/2001/xml-events" xmlns:xlink="http://www.w3.org/1999/xlink"><defs /><rect fill="white" height="910.0" width="1325.0" x="0" y="0" /><path d="M590.0,200.0 m-20.0,5.0 l-20.0,55.0 0.0,50.0 l15.0,20.0 65.0,5.0 l35.0,-30.0 0.0,-75.0 l-15.0,-20.0 -45.0,0.0 m-50.0,145.0 l-20.0,30.0 -5.0,300.0 l30.0,125.0 10.0,20.0 l20.0,0.0 35.0,-55.0 l35.0,-160.0 5.0,-300.0 m45.0,60.0 l140.0,-205.0 95.0,-70.0 l110.0,-55.0 85.0,-20.0 l105.0,0.0 40.0,40.0 l15.0,110.0 -25.0,55.0 l-240.0,215.0 85.0,75.0 l45.0,100.0 15.0,135.0 l-20.0,70.0 -105.0,40.0 l-140.0,0.0 -260.0,-110.0 m-155.0,-375.0 l-55.0,-115.0 -100.0,-140.0 l-60.0,-55.0 -100.0,-30.0 l-80.0,160.0 -10.0,105.0 l50.0,95.0 145.0,70.0 l-85.0,40.0 -140.0,105.0 l-35.0,85.0 -5.0,75.0 l5.0,40.0 30.0,45.0 l70.0,25.0 95.0,0.0 l170.0,-40.0 160.0,-80.0 " fill="none" stroke="black" stroke-width="1" /></svg>