<?xml version="1.0" encoding="utf-8" ?>
<svg baseProfile="full" height="1035.0" version="1.1" width="2770.0" xmlns="http://www.w3.org/2000/svg" xmlns:ev="http://www.w3.org/2001/xml-events" xmlns:xlink="http://www.w3.org/1999/xlink"><defs /><rect fill="white" height="1035.0" width="2770.0" x="0" y="0" /><path d="M1455.0,1010.0 m0.0,-260.0 l-20.0,-175.0 -310.0,5.0 l-75.0,-35.0 -90.0,-15.0 l-125.0,30.0 -75.0,0.0 l-70.0,-80.0 -10.0,-50.0 l35.0,-75.0 50.0,-30.0 l70.0,-20.0 155.0,-10.0 l105.0,-45.0 205.0,-135.0 l155.0,-50.0 130.0,-15.0 l930.0,-25.0 75.0,40.0 l95.0,105.0 60.0,100.0 l0.0,75.0 -65.0,45.0 l-195.0,75.0 -50.0,45.0 l-90.0,200.0 -25.0,95.0 l5.0,125.0 m-25.0,25.0 l-105.0,-85.0 -40.0,-80.0 l-15.0,-85.0 m-15.0,-45.0 l-10.0,-75.0 -80.0,-95.0 l-50.0,-5.0 -75.0,25.0 l-35.0,75.0 -5.0,280.0 l-15.0,90.0 -65.0,-340.0 l-15.0,-25.0 -25.0,-5.0 l-60.0,85.0 -45.0,120.0 l-20.0,125.0 0.0,-120.0 l-30.0,-195.0 -80.0,-95.0 l25.0,120.0 5.0,190.0 l-5.0,155.0 -10.0,25.0 l-25.0,10.0 -45.0,-30.0 l-15.0,-55.0 5.0,-310.0 l-30.0,-80.0 m1050.0,-375.0 l-45.0,45.0 20.0,55.0 l25.0,15.0 25.0,-10.0 l10.0,-25.0 0.0,-55.0 l-25.0,-25.0 -45.0,0.0 m165.0,110.0 l-30.0,15.0 -30.0,50.0 l0.0,25.0 25.0,20.0 l25.0,-15.0 30.0,-75.0 l-10.0,-25.0 -45.0,-20.0 m-1740.0,225.0 l-110.0,30.0 -470.0,55.0 l-75.0,75.0 -20.0,50.0 l-80.0,-85.0 -45.0,-15.0 m870.0,-210.0 l-125.0,15.0 -100.0,40.0 l-100.0,90.0 -205.0,235.0 l-25.0,10.0 -35.0,-10.0 m1120.0,-545.0 l10.0,50.0 50.0,45.0 l110.0,5.0 60.0,-35.0 l-95.0,125.0 95.0,-35.0 l105.0,-70.0 " fill="none" stroke="black" stroke-width="1" /></svg>