<?xml version="1.0" encoding="utf-8" ?>
<svg baseProfile="full" height="73.37823671485239" version="1.1" width="83.82329106330872" xmlns="http://www.w3.org/2000/svg" xmlns:ev="http://www.w3.org/2001/xml-events" xmlns:xlink="http://www.w3.org/1999/xlink"><defs /><rect fill="white" height="73.37823671485239" width="83.82329106330872" x="0" y="0" /><path d="M42.598049282096326,38.54761079863238 m0.06536528933793306,-5.392900109291077 l-0.5941236391663551,-3.073921501636505 -3.176954984664917,-1.7080497741699219 l-3.166351318359375,-0.4580729827284813 -3.7746328115463257,0.00032369418477173895 l-1.7477910220623016,0.016805302584543824 -1.2749949097633362,0.09747718460857868 l-1.8936774134635925,0.6557630002498627 -0.8058297634124756,0.5175909772515297 l-1.0418623685836792,1.565074473619461 -0.18719634041190147,1.5974003076553345 l0.7771450281143188,1.2391997128725052 1.3309352099895477,0.8478086441755295 l4.273577332496643,0.8049419522285461 5.472542643547058,-0.28740638867020607 l5.690099000930786,-1.0364631563425064 5.766754150390625,-0.9352388978004456 l5.149213075637817,-1.1005796492099762 3.729090392589569,-1.078183874487877 l1.1436950415372849,-0.8854042738676071 0.4902391880750656,-1.528027355670929 l-0.8105894178152084,-2.903088927268982 -1.0828977823257446,-0.5026591569185257 l-3.945571780204773,0.16932383179664612 -6.350001692771912,1.9034618139266968 l-2.3417487740516663,1.1064326763153076 -2.5050294399261475,1.3345012068748474 l-1.15191750228405,0.934416651725769 m4.730518162250519,-1.9964893162250519 l-0.4766855761408806,-0.21284043788909912 -1.1710114032030106,0.030433794017881155 l-2.7932363748550415,0.8327320963144302 -1.2324239313602448,1.0359834879636765 l-0.4663030430674553,1.0816140472888947 0.20204052329063416,0.9656661748886108 l0.8917868882417679,0.637088343501091 2.0816977322101593,0.35262051969766617 l3.681071698665619,-0.8979935944080353 1.3036949932575226,-1.12546868622303 l0.5835910886526108,-1.672331839799881 -0.5595488846302032,-0.6287941336631775 l-1.8402990698814392,-0.47392893582582474 m-3.3754488825798035,1.3718782365322113 l-1.2072528898715973,0.025936381425708532 -1.2786924839019775,0.5300886183977127 l-1.3515570759773254,1.3860641419887543 -0.4199255630373955,1.2799479067325592 l0.25152184069156647,0.9397805482149124 0.8594010770320892,0.5922112613916397 l1.8132972717285156,0.26174070313572884 2.0962928235530853,-0.7152740657329559 l1.0057690739631653,-1.0942260921001434 0.44404182583093643,-1.7164897918701172 l-1.5513190627098083,-1.2270116806030273 -1.9811007380485535,-0.059976428747177124 m0.3845086693763733,2.83698171377182 l-1.0430075228214264,0.37540409713983536 -1.0812316834926605,0.9319298714399338 l-1.616075038909912,2.809135913848877 -0.5124332383275032,2.3912155628204346 l0.42866840958595276,1.6734994947910309 1.2947823107242584,0.8411058783531189 l2.2297093272209167,0.0002977038820972666 1.328922063112259,-0.9216073155403137 l0.9346030652523041,-1.4381366968154907 0.5424985289573669,-2.592726945877075 l-0.5104060471057892,-3.209504187107086 -0.7628045231103897,-0.6382488459348679 l-1.424131840467453,0.1224112045019865 m-0.9026592969894409,3.8055622577667236 l-0.7488885521888733,0.17500055953860283 -1.1516021937131882,0.3569375351071358 l-4.784437716007233,1.6434362530708313 -1.170698031783104,0.657786950469017 l-1.6407331824302673,1.6989612579345703 -0.4043828323483467,2.137034386396408 l0.7224894315004349,1.5036164224147797 1.3192911446094513,0.65133236348629 l3.8670235872268677,0.10728037916123867 1.4517630636692047,-4.18996661901474 l0.6208621710538864,-3.220783770084381 0.10528194718062878,-1.3886384665966034 m2.4401256442070007,2.2032003104686737 l-1.2680840492248535,3.2077541947364807 -1.3047811388969421,4.0748924016952515 l-0.6493642181158066,1.8219754099845886 0.7245020568370819,-2.7892324328422546 m4.246516227722168,-6.209356784820557 l0.09210408665239811,2.782370448112488 0.019989050924777985,3.5976409912109375 l-0.5294053256511688,1.3065648078918457 -0.8940427750349045,-0.05414335522800684 l-1.2665437161922455,-1.3305467367172241 m1.5455424785614014,-11.59726858139038 l-2.661462724208832,-1.7059794068336487 -2.210487276315689,-1.5266452729701996 l-2.1666844189167023,-1.9761249423027039 -1.679101288318634,-2.0816510915756226 l-0.7192995399236679,-0.6633415818214417 -1.5030193328857422,-0.6598072499036789 l-0.9464281052350998,0.3094076178967953 -3.187527656555176,4.892537593841553 " fill="none" stroke="black" stroke-width="1" /></svg>