<?xml version="1.0" encoding="utf-8" ?>
<svg baseProfile="full" height="76.47250868845731" version="1.1" width="82.94354707584716" xmlns="http://www.w3.org/2000/svg" xmlns:ev="http://www.w3.org/2001/xml-events" xmlns:xlink="http://www.w3.org/1999/xlink"><defs /><rect fill="white" height="76.47250868845731" width="82.94354707584716" x="0" y="0" /><path d="M38.392597852507606,25.878919316455722 m-3.0357927083969116,-0.2707987651228905 l-1.5046681463718414,0.4466519132256508 -1.3463674485683441,1.0926849395036697 l-1.2496890872716904,2.392827123403549 -0.33395666629076004,2.856881618499756 l0.533359944820404,2.3063021898269653 1.5202367305755615,1.7504583299160004 l2.151966094970703,0.8890361338853836 2.481280267238617,0.05520530976355076 l1.849716305732727,-0.8131714910268784 1.6555814445018768,-1.666172444820404 l1.0096771270036697,-2.1803149580955505 0.28860868886113167,-2.630220949649811 l-0.4400802403688431,-2.1717172861099243 -1.1120621860027313,-1.651858538389206 l-1.6344226896762848,-0.9971375018358231 -1.8522529304027557,-0.28757493942976 m-1.9092461466789246,3.019474446773529 l-0.09676779620349407,-0.008700774051249027 0.32237865030765533,-0.3015204519033432 l0.21255310624837875,-0.011329927947372198 0.09460507892072201,0.5178758129477501 l0.3456398472189903,-0.44140297919511795 0.04400406964123249,0.028724290896207094 l0.1219877228140831,0.05974330473691225 0.3495118021965027,-0.5207128450274467 m2.866434156894684,0.5892698466777802 l0.02809632569551468,0.2156161144375801 0.31134840101003647,-0.5469249933958054 l-0.12844335287809372,0.24116761982440948 0.2469165436923504,0.15516304410994053 m-3.3469337224960327,4.242987930774689 l0.9606458246707916,0.27150586247444153 2.1726368367671967,-0.20305544137954712 l2.2739753127098083,-0.0814727321267128 0.8192171901464462,-0.4920830950140953 m-5.307539701461792,1.030431017279625 l-0.3411481902003288,2.433086782693863 -1.6550043225288391,3.2869890332221985 l-3.9881739020347595,6.278478503227234 -2.423756569623947,3.6923399567604065 l-0.4228176549077034,1.387270987033844 0.5134313553571701,0.41444718837738037 l3.9674368500709534,0.4008425399661064 10.064085721969604,0.8142976462841034 l4.067659676074982,-0.30629541724920273 0.33149298280477524,-0.5192025750875473 l-0.3705427050590515,-1.9009281694889069 -3.639538586139679,-5.976364016532898 l-3.113999366760254,-5.892653465270996 -0.8415122330188751,-2.2102846205234528 m1.9498005509376526,3.697441816329956 l3.6574003100395203,-2.1123459935188293 3.8019153475761414,-3.25454980134964 l2.5676921010017395,-2.1591204404830933 2.1751895546913147,-1.7680181562900543 l2.934061884880066,-2.132209837436676 0.5635499209165573,0.8997634053230286 l-0.07901161909103394,1.4257130026817322 -1.8548429012298584,3.6278745532035828 l1.4838697016239166,0.8036546409130096 0.7493261247873306,0.9613324701786041 l0.0922305416315794,1.034359186887741 -0.5609474703669548,0.9536753594875336 l-2.5792086124420166,2.0385758578777313 0.018723070388659835,1.4570026099681854 l-0.504756011068821,1.2415289878845215 -1.3270922005176544,1.2077271193265915 l-2.803492248058319,1.257588118314743 -3.143129050731659,0.534907691180706 l-2.8779903054237366,-0.09199310094118118 m-8.906500339508057,-5.589297413825989 l-1.470986157655716,-1.2815666198730469 -1.926499754190445,-2.4300315976142883 l-3.3076757192611694,-4.160851836204529 -1.2311425060033798,-1.26018226146698 l-0.9897450357675552,-0.15997935086488724 -0.6425563991069794,0.5541402101516724 l-0.5360327661037445,1.2542223930358887 -0.15451557002961636,1.4763985574245453 l0.2914685755968094,1.162855550646782 1.3886629045009613,1.7406708002090454 l-0.1620231568813324,0.8305689692497253 -0.6828097999095917,0.7505343854427338 l-0.3213276341557503,1.032388061285019 0.14551077038049698,1.215093806385994 l1.040288284420967,1.4586514234542847 1.6979257762432098,1.1214389652013779 l2.030946910381317,0.6249407678842545 2.2978048026561737,0.12556659057736397 l0.7376445829868317,0.7203595340251923 1.7562617361545563,0.635099932551384 l2.196980267763138,-0.02054823562502861 " fill="none" stroke="black" stroke-width="1" /></svg>