<?xml version="1.0" encoding="utf-8" ?>
<svg baseProfile="full" height="1370.0" version="1.1" width="3520.0" xmlns="http://www.w3.org/2000/svg" xmlns:ev="http://www.w3.org/2001/xml-events" xmlns:xlink="http://www.w3.org/1999/xlink"><defs /><rect fill="white" height="1370.0" width="3520.0" x="0" y="0" /><path d="M360.0,325.0 m-150.0,-10.0 l-100.0,55.0 -75.0,180.0 l-10.0,165.0 25.0,30.0 l70.0,35.0 75.0,-10.0 l85.0,-125.0 40.0,-140.0 l15.0,-165.0 85.0,320.0 l35.0,55.0 50.0,15.0 l30.0,0.0 45.0,-50.0 l25.0,-80.0 0.0,-135.0 l-45.0,-125.0 115.0,225.0 l30.0,115.0 -55.0,-145.0 l-20.0,-120.0 15.0,-110.0 l55.0,-50.0 165.0,-5.0 l30.0,5.0 25.0,35.0 l-30.0,310.0 55.0,5.0 l70.0,-60.0 70.0,-95.0 m280.0,-155.0 l-35.0,-25.0 -55.0,-10.0 l-100.0,10.0 -85.0,170.0 l0.0,130.0 25.0,15.0 l90.0,0.0 120.0,-145.0 l35.0,-115.0 0.0,-30.0 l-25.0,0.0 -10.0,30.0 l-55.0,415.0 -80.0,420.0 l-60.0,110.0 -25.0,20.0 l-30.0,-10.0 -15.0,-60.0 l-5.0,-195.0 115.0,-200.0 l55.0,-60.0 190.0,-145.0 l110.0,-135.0 35.0,-110.0 l5.0,-110.0 -15.0,-30.0 l-40.0,10.0 -35.0,185.0 l0.0,255.0 50.0,50.0 l55.0,0.0 115.0,-115.0 l115.0,-215.0 65.0,-185.0 l15.0,-155.0 -10.0,-30.0 l-45.0,-10.0 -40.0,30.0 l-30.0,135.0 -15.0,145.0 l15.0,210.0 45.0,80.0 l60.0,60.0 180.0,100.0 m760.0,-370.0 l-30.0,-15.0 -60.0,40.0 l-160.0,205.0 -60.0,125.0 l-50.0,210.0 -5.0,175.0 l70.0,120.0 60.0,45.0 l180.0,25.0 130.0,-15.0 l325.0,-160.0 165.0,-170.0 l100.0,-165.0 20.0,-90.0 l0.0,-175.0 -30.0,-80.0 l-45.0,-60.0 " fill="none" stroke="black" stroke-width="1" /></svg>