<?xml version="1.0" encoding="utf-8" ?>
<svg baseProfile="full" height="66.5312147304212" version="1.1" width="76.48513317108154" xmlns="http://www.w3.org/2000/svg" xmlns:ev="http://www.w3.org/2001/xml-events" xmlns:xlink="http://www.w3.org/1999/xlink"><defs /><rect fill="white" height="66.5312147304212" width="76.48513317108154" x="0" y="0" /><path d="M32.084697259365385,29.256258867681026 m-0.31341973692178726,-2.28099524974823 l0.3275078907608986,-1.121501550078392 0.9995272010564804,-0.5489058792591095 l2.4161940813064575,3.7322640419006348 m5.693846344947815,0.37966471165418625 l1.1758578568696976,-3.0093878507614136 1.3876858353614807,-1.4073970913887024 l0.5177093669772148,0.318872407078743 0.7095931470394135,2.375894784927368 m-11.10616683959961,2.9240089654922485 l-1.2025830894708633,-0.00392387097235769 -0.709318220615387,1.1511224508285522 l-0.22850856184959412,1.4046710729599 0.2549365535378456,1.4072851836681366 l0.7685933262109756,1.2103067338466644 1.1764411628246307,0.9174794703722 l1.604195237159729,0.6044319272041321 2.3222775757312775,0.0003080740134464577 l1.747010052204132,-0.5953435227274895 1.384315937757492,-1.046096310019493 l0.8537539839744568,-1.2563671171665192 0.5376613512635231,-2.1029017865657806 l-7.178425676102052e-05,-1.4496088027954102 -0.581088662147522,-1.125224530696869 l-1.1062002927064896,-0.7362828403711319 -2.303437292575836,-0.32675907015800476 m-3.4556028246879578,3.9734256267547607 l1.7902593314647675,0.3526584431529045 2.945363223552704,0.0978636834770441 l5.1753926277160645,-0.4970438778400421 3.18780779838562,-0.5887719243764877 l2.166961580514908,-0.5640862509608269 0.7819778472185135,-0.2795904129743576 m-13.41787338256836,2.861665189266205 l8.105567693710327,1.4373727142810822 4.2791131138801575,0.7754065096378326 l1.515156477689743,0.40718577802181244 m-18.788259029388428,-2.815580666065216 l-7.696874141693115,1.2683804333209991 m8.841418027877808,-0.33646516501903534 l-5.812931060791016,2.9757222533226013 m7.329730987548828,-1.9734330475330353 l-3.0881762504577637,5.764632225036621 m6.442918181419373,-8.747307062149048 l0.0857215840369463,5.224758982658386 0.5377482250332832,3.0865705013275146 " fill="none" stroke="black" stroke-width="1" /></svg>