<?xml version="1.0" encoding="utf-8" ?>
<svg baseProfile="full" height="980.0" version="1.1" width="1200.0" xmlns="http://www.w3.org/2000/svg" xmlns:ev="http://www.w3.org/2001/xml-events" xmlns:xlink="http://www.w3.org/1999/xlink"><defs /><rect fill="white" height="980.0" width="1200.0" x="0" y="0" /><path d="M255.0,190.0 m-15.0,-115.0 l25.0,-50.0 25.0,0.0 l140.0,170.0 m-45.0,30.0 l110.0,-55.0 260.0,0.0 m-15.0,40.0 l60.0,-85.0 100.0,-70.0 l20.0,5.0 15.0,45.0 l-10.0,95.0 m-655.0,15.0 l-60.0,35.0 -35.0,50.0 l-35.0,90.0 -5.0,70.0 l10.0,80.0 65.0,165.0 l65.0,75.0 70.0,45.0 l130.0,40.0 120.0,15.0 l100.0,-5.0 110.0,-35.0 l95.0,-85.0 55.0,-80.0 l20.0,-100.0 -10.0,-115.0 l-40.0,-155.0 -55.0,-85.0 m-460.0,405.0 l-180.0,-5.0 -205.0,45.0 m405.0,50.0 l-270.0,65.0 m540.0,-100.0 l255.0,10.0 220.0,60.0 m-570.0,-10.0 l60.0,10.0 380.0,205.0 m-515.0,-550.0 l-105.0,-30.0 m215.0,140.0 l15.0,-35.0 " fill="none" stroke="black" stroke-width="1" /></svg>