<?xml version="1.0" encoding="utf-8" ?>
<svg baseProfile="full" height="1075.0" version="1.1" width="1140.0" xmlns="http://www.w3.org/2000/svg" xmlns:ev="http://www.w3.org/2001/xml-events" xmlns:xlink="http://www.w3.org/1999/xlink"><defs /><rect fill="white" height="1075.0" width="1140.0" x="0" y="0" /><path d="M575.0,310.0 m-40.0,-55.0 l-35.0,-20.0 -120.0,-30.0 l-140.0,0.0 -85.0,40.0 l-115.0,160.0 -15.0,80.0 l0.0,110.0 70.0,170.0 l85.0,80.0 125.0,80.0 l275.0,120.0 155.0,5.0 l85.0,-25.0 135.0,-60.0 l80.0,-60.0 80.0,-140.0 l0.0,-120.0 -20.0,-80.0 l-70.0,-120.0 -140.0,-115.0 l-60.0,-25.0 -110.0,0.0 l-80.0,40.0 -35.0,0.0 m0.0,0.0 l-45.0,-40.0 m20.0,30.0 l60.0,-110.0 25.0,-90.0 l75.0,-85.0 60.0,-25.0 l100.0,0.0 " fill="none" stroke="black" stroke-width="1" /></svg>