<?xml version="1.0" encoding="utf-8" ?>
<svg baseProfile="full" height="69.66589097864926" version="1.1" width="70.99818125367165" xmlns="http://www.w3.org/2000/svg" xmlns:ev="http://www.w3.org/2001/xml-events" xmlns:xlink="http://www.w3.org/1999/xlink"><defs /><rect fill="white" height="69.66589097864926" width="70.99818125367165" x="0" y="0" /><path d="M35.214077669870676,30.69884550941424 m-0.8143242448568344,-1.116124466061592 l-0.7085508108139038,-0.3461143374443054 -2.989581525325775,-0.3749486804008484 l-2.3985466361045837,0.39002973586320877 -1.4665167033672333,0.8200732618570328 l-0.9853421896696091,1.1440061032772064 -0.8510740846395493,2.4304312467575073 l-0.0001414750931871822,3.275546133518219 1.1820417642593384,2.9804256558418274 l2.225724458694458,2.5423434376716614 2.851199209690094,1.4779236912727356 l3.1552276015281677,0.743170827627182 3.385089933872223,0.00028285945518291555 l2.3535577952861786,-0.1574930176138878 1.7719556391239166,-0.6400314718484879 l2.0261523127555847,-1.5566721558570862 1.2027505040168762,-1.7134812474250793 l0.844482034444809,-2.795037031173706 -0.0002792965642584022,-2.525798976421356 l-0.6028901413083076,-1.8582683801651 -1.5322098135948181,-2.059081494808197 l-2.191767394542694,-1.3785865902900696 -2.6065444946289062,-0.3988051787018776 l-2.166411578655243,0.4805414378643036 -1.7856831848621368,0.735417827963829 m-0.08921989239752293,-0.14635537751019 l0.16928896307945251,-2.668278217315674 0.9841980785131454,-2.9839611053466797 m-0.9369191527366638,4.168654382228851 l0.4438075050711632,-0.9452681988477707 1.2295695394277573,-1.4198701083660126 l1.1570852994918823,-0.7417371869087219 1.203174665570259,-0.20695434883236885 l1.0614712536334991,0.5317740887403488 " fill="none" stroke="black" stroke-width="1" /></svg>