<?xml version="1.0" encoding="utf-8" ?>
<svg baseProfile="full" height="920.0" version="1.1" width="4095.0" xmlns="http://www.w3.org/2000/svg" xmlns:ev="http://www.w3.org/2001/xml-events" xmlns:xlink="http://www.w3.org/1999/xlink"><defs /><rect fill="white" height="920.0" width="4095.0" x="0" y="0" /><path d="M25,85.0 m25.0,-15.0 l145.0,-10.0 400.0,-5.0 l395.0,-30.0 695.0,5.0 l285.0,25.0 495.0,75.0 l255.0,10.0 750.0,165.0 l600.0,75.0 m-3810.0,310.0 l455.0,45.0 485.0,10.0 l1460.0,90.0 420.0,5.0 l590.0,55.0 80.0,-5.0 m-2020.0,-850.0 l15.0,590.0 40.0,90.0 l595.0,135.0 295.0,40.0 l25.0,0.0 5.0,-25.0 l-10.0,-290.0 20.0,-485.0 m-965.0,-30.0 l155.0,25.0 495.0,15.0 l225.0,35.0 100.0,35.0 " fill="none" stroke="black" stroke-width="1" /></svg>