<?xml version="1.0" encoding="utf-8" ?>
<svg baseProfile="full" height="58.922037857118994" version="1.1" width="162.09154848009348" xmlns="http://www.w3.org/2000/svg" xmlns:ev="http://www.w3.org/2001/xml-events" xmlns:xlink="http://www.w3.org/1999/xlink"><defs /><rect fill="white" height="58.922037857118994" width="162.09154848009348" x="0" y="0" /><path d="M26.1800704151392,25.387437036260962 m0.559794083237648,-0.30781215056777 l1.8648777902126312,-0.07962488569319248 5.639050602912903,0.3312956914305687 l6.91426157951355,-0.07546764798462391 15.107427835464478,0.14420168474316597 l12.409518957138062,0.2267305739223957 5.932715535163879,-0.0943573284894228 l10.80473780632019,0.11215368285775185 5.388984680175781,-0.4030973091721535 m-65.80143928527832,5.214698314666748 l16.058961153030396,1.074306145310402 23.29868793487549,0.8280228078365326 l8.122045993804932,-0.03267555497586727 6.754752993583679,-0.37027910351753235 l6.387777328491211,-0.3145282715559006 4.829461574554443,-0.3394348546862602 l4.788112938404083,-0.18888786435127258 4.076418578624725,-0.35398878157138824 l3.9486634731292725,-0.12111356481909752 3.557724356651306,-0.5349806696176529 l4.2464131116867065,-0.020904717966914177 3.4073930978775024,-0.468733049929142 l3.7535542249679565,-0.029392316937446594 3.58611524105072,-0.5487941205501556 l7.588430643081665,-0.4903232306241989 3.5018256306648254,-0.4999815672636032 l4.0540966391563416,-0.019038168247789145 0.13111356645822525,0.40251772850751877 l-0.10084053501486778,2.81158983707428 -0.6086934730410576,0.9876010566949844 l-1.5258637070655823,0.9615287929773331 -2.5865942239761353,0.7333696633577347 " fill="none" stroke="black" stroke-width="1" /></svg>