<?xml version="1.0" encoding="utf-8" ?>
<svg baseProfile="full" height="1250.0" version="1.1" width="2555.0" xmlns="http://www.w3.org/2000/svg" xmlns:ev="http://www.w3.org/2001/xml-events" xmlns:xlink="http://www.w3.org/1999/xlink"><defs /><rect fill="white" height="1250.0" width="2555.0" x="0" y="0" /><path d="M25,75.0 m65.0,-5.0 l60.0,20.0 190.0,20.0 l280.0,5.0 345.0,55.0 l230.0,10.0 295.0,-5.0 l205.0,-30.0 25.0,25.0 l90.0,255.0 15.0,660.0 l-30.0,15.0 -155.0,-35.0 l-300.0,-35.0 -450.0,-20.0 l-340.0,-70.0 -375.0,15.0 l0.0,-930.0 m20.0,340.0 l35.0,-15.0 195.0,0.0 l140.0,30.0 190.0,0.0 l140.0,25.0 220.0,5.0 l125.0,30.0 515.0,70.0 l40.0,-20.0 m-25.0,-195.0 l90.0,-40.0 195.0,35.0 l55.0,140.0 5.0,105.0 l140.0,70.0 265.0,15.0 l-10.0,190.0 20.0,75.0 l-50.0,215.0 -25.0,15.0 l-305.0,-35.0 -250.0,-80.0 l-20.0,5.0 m35.0,20.0 l-25.0,35.0 -15.0,65.0 l30.0,30.0 155.0,65.0 l95.0,5.0 55.0,-160.0 l-30.0,0.0 m-1670.0,-105.0 l-5.0,70.0 120.0,70.0 l65.0,15.0 30.0,-195.0 m-115.0,-800.0 l10.0,265.0 15.0,0.0 m435.0,-165.0 l20.0,25.0 65.0,225.0 m320.0,-235.0 l60.0,50.0 10.0,35.0 l-15.0,105.0 m290.0,70.0 l190.0,65.0 105.0,5.0 l65.0,25.0 m-1110.0,-205.0 l95.0,220.0 0.0,420.0 " fill="none" stroke="black" stroke-width="1" /></svg>