<?xml version="1.0" encoding="utf-8" ?>
<svg baseProfile="full" height="65.5982375331223" version="1.1" width="91.27464245073497" xmlns="http://www.w3.org/2000/svg" xmlns:ev="http://www.w3.org/2001/xml-events" xmlns:xlink="http://www.w3.org/1999/xlink"><defs /><rect fill="white" height="65.5982375331223" width="91.27464245073497" x="0" y="0" /><path d="M25,37.82946257852018 m1.30147784948349,-0.1252545602619648 l2.8997859358787537,0.7718930393457413 3.8045236468315125,0.5476321652531624 l4.442149102687836,0.27963124215602875 4.492842853069305,-0.11680166237056255 l5.97993016242981,-0.22265229374170303 9.220846891403198,-0.07815456949174404 l3.3155184984207153,-0.3832012414932251 3.0136922001838684,-0.8324439078569412 l1.5679098665714264,-0.8909694850444794 0.6836571544408798,-0.84597148001194 l0.3594033047556877,-1.6820794343948364 -0.3372276574373245,-1.9779767096042633 l-1.353738009929657,-1.7705030739307404 -2.2181957960128784,-1.5320764482021332 l-4.527288377285004,-1.6829639673233032 -5.722755193710327,-0.9405664354562759 l-6.370638012886047,-0.19312895834445953 -5.90684175491333,0.5267129838466644 l-4.1780248284339905,0.9975199401378632 -3.6608991026878357,1.4091044664382935 l-2.5888174772262573,1.6151396930217743 -1.6763193905353546,1.822541356086731 l-0.48249512910842896,1.2509378790855408 0.056582819670438766,1.2254879623651505 l0.6377319991588593,0.9109783917665482 1.9210261106491089,1.1195574700832367 l4.451248049736023,1.1212564259767532 5.260210037231445,0.3826162964105606 l6.108036041259766,-0.12538819573819637 5.684923529624939,-0.5565309152007103 l7.5410133600234985,-1.562299132347107 3.961971402168274,-1.4672574400901794 l2.6591330766677856,-1.743803471326828 0.6908891350030899,-1.087314635515213 l0.15852870419621468,-1.6370245814323425 -0.6986869871616364,-1.4924892783164978 l-1.6994655132293701,-1.4297538995742798 -2.613072097301483,-1.207273006439209 l-5.114923715591431,-1.0057391971349716 -6.072452068328857,-0.22085390985012054 l-6.090648770332336,0.45339424163103104 -5.6301188468933105,1.3407798111438751 l-4.8735105991363525,2.0052698254585266 -2.4535425007343292,1.6610340774059296 l-1.6064567863941193,1.8787126243114471 -0.6617829203605652,2.0414482057094574 l0.11800327338278294,1.411011815071106 0.667327493429184,1.091172993183136 l1.8433235585689545,1.4496181905269623 2.7444717288017273,1.079857423901558 l4.997512698173523,0.8871619403362274 8.037853240966797,0.29877638444304466 l7.458084225654602,-0.8709733933210373 4.8490917682647705,-1.2672577798366547 l3.6929258704185486,-1.5874244272708893 1.949244886636734,-1.5229319036006927 l1.0452879965305328,-1.6583791375160217 0.19638551399111748,-1.9198031723499298 l-0.7605767250061035,-1.5567125380039215 -1.8443407118320465,-1.535342037677765 l-2.6593324542045593,-1.1886267364025116 -3.3761394023895264,-0.8054924756288528 l-3.8578683137893677,-0.3656231611967087 -3.937816321849823,-0.04549635574221611 l-5.286726951599121,0.6599679589271545 -3.4285709261894226,1.053234115242958 l-2.895631790161133,1.4621643722057343 -2.063031494617462,1.663123369216919 l-1.2977893650531769,1.8948568403720856 -0.31308818608522415,2.020910382270813 l0.3259827196598053,1.2730878591537476 " fill="none" stroke="black" stroke-width="1" /></svg>