<?xml version="1.0" encoding="utf-8" ?>
<svg baseProfile="full" height="73.54074584320188" version="1.1" width="76.61937882730854" xmlns="http://www.w3.org/2000/svg" xmlns:ev="http://www.w3.org/2001/xml-events" xmlns:xlink="http://www.w3.org/1999/xlink"><defs /><rect fill="white" height="73.54074584320188" width="76.61937882730854" x="0" y="0" /><path d="M37.8707917034626,29.27065848838538 m-2.7104565501213074,-0.45128200203180313 l-3.2292920351028442,-0.03277949523180723 -2.9175642132759094,0.5657092481851578 l-1.669277846813202,0.7322409003973007 -1.2096846848726273,0.9455149620771408 l-0.7912540435791016,1.1327102780342102 -0.34326232969760895,1.3499973714351654 l0.09696118533611298,1.3164453208446503 0.6039130315184593,0.9228818118572235 l1.8639333546161652,1.298462450504303 2.8508785367012024,0.9365666657686234 l4.901204407215118,0.4662742465734482 3.641768991947174,-0.074250977486372 l4.181873798370361,-0.7442817836999893 3.4941130876541138,-1.423848271369934 l1.8402092158794403,-1.5172362327575684 0.8045387268066406,-1.7570370435714722 l-0.15733672305941582,-1.4796274900436401 -1.3081790506839752,-1.4767199754714966 l-2.3570553958415985,-1.2020016461610794 -3.0777600407600403,-0.7003871351480484 l-3.413011133670807,-0.07977716624736786 -3.005686402320862,0.498800091445446 m-9.948825240135193,7.009831666946411 l-0.0020449647854547948,7.756143808364868 0.37453293800354004,2.028522491455078 l0.7341931015253067,1.181316301226616 1.3033077120780945,0.8941887319087982 l2.5763463973999023,0.7530012726783752 3.5240110754966736,0.42070895433425903 l12.186580896377563,-0.5411769449710846 2.465251088142395,-0.833025798201561 l1.1816880106925964,-0.9729953110218048 0.8405429124832153,-1.8508853018283844 l0.42342931032180786,-4.288561940193176 -0.34611765295267105,-4.454941153526306 l-1.1507875472307205,-3.5336607694625854 m-19.94069218635559,2.4411210417747498 l-0.19011052325367928,-4.260314404964447 -0.609896257519722,-4.197506010532379 l1.304151564836502,-0.34730903804302216 0.4988148808479309,0.2568742446601391 l-0.05772796459496021,7.343941926956177 -0.012315488420426846,2.1256467700004578 m3.7897074222564697,-5.03878116607666 l0.016067196847870946,-2.5365564227104187 0.2674665115773678,-1.5653607249259949 l0.4501156508922577,-0.8738073706626892 0.7006103545427322,-0.41344746947288513 l1.3965989649295807,0.014550170162692666 0.38358312100172043,0.524417944252491 l0.17015472054481506,1.8302126228809357 -0.6532750278711319,3.8536569476127625 m4.235426187515259,-0.08432483300566673 l-0.3850167617201805,-2.2971852123737335 0.11037474498152733,-1.465330719947815 l0.38068946450948715,-0.7943950593471527 0.6681191921234131,-0.38251839578151703 l1.3365359604358673,0.20396793261170387 0.7752259075641632,0.8620127290487289 l0.4115220159292221,1.9733014702796936 " fill="none" stroke="black" stroke-width="1" /></svg>