<?xml version="1.0" encoding="utf-8" ?>
<svg baseProfile="full" height="1960.0" version="1.1" width="1960.0" xmlns="http://www.w3.org/2000/svg" xmlns:ev="http://www.w3.org/2001/xml-events" xmlns:xlink="http://www.w3.org/1999/xlink"><defs /><rect fill="white" height="1960.0" width="1960.0" x="0" y="0" /><path d="M720.0,775.0 m-135.0,-20.0 l-315.0,-95.0 -65.0,0.0 l-115.0,40.0 -55.0,50.0 l-10.0,30.0 30.0,140.0 l30.0,50.0 70.0,65.0 l105.0,155.0 240.0,130.0 l60.0,5.0 25.0,20.0 l-5.0,130.0 -55.0,285.0 l5.0,110.0 45.0,40.0 l115.0,25.0 410.0,0.0 l25.0,-25.0 85.0,-180.0 l155.0,-195.0 -60.0,-110.0 l-70.0,-240.0 -50.0,-100.0 l50.0,65.0 100.0,80.0 l75.0,25.0 130.0,10.0 l190.0,-5.0 120.0,-40.0 l55.0,-50.0 15.0,-40.0 l15.0,-240.0 -40.0,-45.0 l-90.0,-35.0 -165.0,-25.0 l-175.0,-5.0 -105.0,-20.0 l-25.0,5.0 -10.0,25.0 l-70.0,-5.0 -60.0,-50.0 l15.0,-195.0 65.0,-225.0 l35.0,-190.0 -145.0,-85.0 l-235.0,-15.0 -190.0,65.0 l-105.0,80.0 0.0,75.0 l35.0,105.0 215.0,335.0 l15.0,45.0 -5.0,115.0 m-140.0,-95.0 l-110.0,245.0 -50.0,205.0 m565.0,-470.0 l25.0,30.0 15.0,115.0 l0.0,345.0 " fill="none" stroke="black" stroke-width="1" /></svg>