<?xml version="1.0" encoding="utf-8" ?>
<svg baseProfile="full" height="2465.0" version="1.1" width="2965.0" xmlns="http://www.w3.org/2000/svg" xmlns:ev="http://www.w3.org/2001/xml-events" xmlns:xlink="http://www.w3.org/1999/xlink"><defs /><rect fill="white" height="2465.0" width="2965.0" x="0" y="0" /><path d="M1220.0,730.0 m0.0,980.0 l75.0,480.0 40.0,165.0 l45.0,80.0 30.0,5.0 l25.0,-15.0 35.0,-90.0 l20.0,-120.0 10.0,-240.0 l-30.0,-435.0 -70.0,-330.0 l-25.0,-305.0 -35.0,-125.0 l-40.0,-75.0 -115.0,-15.0 m265.0,470.0 l335.0,-355.0 240.0,-200.0 l330.0,-245.0 200.0,-125.0 l200.0,-60.0 15.0,680.0 l-40.0,105.0 -70.0,75.0 l-170.0,105.0 -340.0,135.0 l-760.0,225.0 970.0,-285.0 l270.0,-50.0 110.0,0.0 l50.0,10.0 50.0,80.0 l70.0,275.0 30.0,200.0 l-130.0,30.0 -580.0,5.0 l-255.0,-40.0 -310.0,-75.0 m-420.0,-505.0 l-125.0,-60.0 -350.0,-295.0 l-360.0,-455.0 -140.0,-110.0 l-185.0,925.0 -40.0,240.0 l-20.0,250.0 45.0,25.0 l330.0,35.0 585.0,50.0 l115.0,-5.0 -210.0,-5.0 l-370.0,20.0 0.0,90.0 l45.0,225.0 30.0,300.0 l45.0,-5.0 560.0,-285.0 l135.0,-80.0 15.0,-45.0 m15.0,-1205.0 l10.0,-240.0 20.0,-115.0 l70.0,-175.0 60.0,-85.0 l135.0,-90.0 70.0,-25.0 l80.0,0.0 25.0,15.0 l10.0,30.0 -30.0,15.0 l-30.0,-15.0 0.0,-15.0 m-600.0,635.0 l0.0,-70.0 -75.0,-235.0 l-115.0,-175.0 -65.0,-55.0 l-60.0,-25.0 -155.0,10.0 l-35.0,40.0 -5.0,25.0 l25.0,5.0 10.0,-30.0 l-35.0,-15.0 " fill="none" stroke="black" stroke-width="1" /></svg>