<?xml version="1.0" encoding="utf-8" ?>
<svg baseProfile="full" height="90.01542816404253" version="1.1" width="106.59710752777755" xmlns="http://www.w3.org/2000/svg" xmlns:ev="http://www.w3.org/2001/xml-events" xmlns:xlink="http://www.w3.org/1999/xlink"><defs /><rect fill="white" height="90.01542816404253" width="106.59710752777755" x="0" y="0" /><path d="M48.52182627655566,30.11178292799741 m-0.1674054004251957,18.4212064743042 l0.7525663822889328,7.10966169834137 0.897984579205513,3.8502857089042664 l0.9071588516235352,2.7187514305114746 0.9041594713926315,1.7796994745731354 l0.8799904584884644,0.792032927274704 1.0352987796068192,0.23200752213597298 l1.1750933527946472,-0.590100958943367 0.938127264380455,-1.4582163095474243 l0.885104313492775,-3.321155607700348 0.309656485915184,-4.132733345031738 l-0.4734756425023079,-6.382741928100586 -3.184451162815094,-12.400953769683838 l-1.9987164437770844,-4.862775802612305 -1.6197492182254791,-2.3396627604961395 l-1.0786332935094833,-0.7499951869249344 -1.0936611890792847,-0.15275177545845509 l-0.8680444210767746,0.3885134309530258 -0.6741297245025635,0.8842462301254272 m6.278066039085388,3.656817674636841 l0.8383142203092575,-1.1814285814762115 3.450159728527069,-2.781226634979248 l4.349690675735474,-2.2668151557445526 4.668707251548767,-1.5183112025260925 l4.765633940696716,-0.7498036324977875 4.230535924434662,-0.0563328480347991 l2.443310469388962,0.4821743071079254 2.198615223169327,1.0880522429943085 l1.5271483361721039,1.5775801241397858 0.798225998878479,2.1878230571746826 l-0.0747667346149683,2.6747694611549377 -0.6421926617622375,1.683434545993805 l-1.874430626630783,2.4476413428783417 -3.716138005256653,3.0733218789100647 l-4.1984206438064575,2.356175035238266 1.1673522740602493,0.6979925185441971 l2.125140279531479,1.1428604274988174 2.32547789812088,1.6831739246845245 l1.6277943551540375,1.9137613475322723 1.436103880405426,3.294704556465149 l0.28146760538220406,2.574531137943268 -0.44255271553993225,2.4913690984249115 l-1.3207952678203583,2.3222865164279938 -1.93511962890625,1.8182170391082764 l-2.541622221469879,1.3278894126415253 -3.104454278945923,0.7867675274610519 l-4.507811665534973,0.17286542803049088 -3.123970329761505,-0.3898722305893898 l-2.8796976804733276,-0.9973356872797012 -2.2487226128578186,-1.4358800649642944 l-1.7442721128463745,-1.914372593164444 m-10.385836362838745,-25.490386486053467 l-1.638098806142807,-1.8822912871837616 -2.0349374413490295,-1.4716950058937073 l-2.5205254554748535,-1.1951756477355957 -2.8137725591659546,-0.7125146687030792 l-2.9535099864006042,-0.16093555837869644 -2.708047032356262,0.5356144532561302 l-2.561953365802765,1.3764576613903046 -1.990734189748764,2.065114676952362 l-1.2176507711410522,2.4684274196624756 -0.38041066378355026,2.744351327419281 l0.3298600763082504,2.4104706943035126 1.082274466753006,2.007414996623993 l1.6865761578083038,1.7309904098510742 2.212512642145157,1.3236227631568909 l2.6925432682037354,0.7857505977153778 2.9603540897369385,0.15872854739427567 l2.4130719900131226,-0.4204579070210457 1.9707132875919342,-1.0723001509904861 l-1.5225070714950562,-0.012611253187060356 -2.439325600862503,1.1794443428516388 l-2.5076547265052795,2.0265474915504456 -1.8151043355464935,2.3970209062099457 l-1.1067450046539307,2.631017565727234 -0.37573087960481644,2.787597179412842 l0.25205573067069054,2.505335211753845 1.0462341457605362,2.077876180410385 l1.6820964217185974,1.632830798625946 2.3051880300045013,1.0902179777622223 l2.9505249857902527,0.46618565917015076 3.132142424583435,-0.1942768506705761 l2.7002719044685364,-0.9144754707813263 2.495531290769577,-1.5736070275306702 l1.878071278333664,-2.0707422494888306 " fill="none" stroke="black" stroke-width="1" /></svg>