<?xml version="1.0" encoding="utf-8" ?>
<svg baseProfile="full" height="850.0" version="1.1" width="2550.0" xmlns="http://www.w3.org/2000/svg" xmlns:ev="http://www.w3.org/2001/xml-events" xmlns:xlink="http://www.w3.org/1999/xlink"><defs /><rect fill="white" height="850.0" width="2550.0" x="0" y="0" /><path d="M115.0,285.0 m-65.0,105.0 l-25.0,125.0 45.0,145.0 l35.0,35.0 50.0,20.0 l335.0,20.0 1050.0,-10.0 m80.0,5.0 l-5.0,-55.0 -70.0,-210.0 l-25.0,-145.0 -5.0,-230.0 l35.0,-50.0 220.0,40.0 l385.0,-55.0 270.0,25.0 l45.0,35.0 55.0,180.0 l0.0,365.0 -20.0,50.0 l-50.0,45.0 -210.0,75.0 l-165.0,25.0 -225.0,0.0 l-160.0,-20.0 -65.0,-30.0 m155.0,-220.0 l-25.0,-110.0 -20.0,-305.0 l70.0,-15.0 205.0,0.0 l305.0,-40.0 25.0,0.0 l70.0,315.0 10.0,130.0 l-25.0,15.0 -35.0,-15.0 l-80.0,-70.0 -160.0,-80.0 l-175.0,-40.0 -5.0,25.0 l30.0,35.0 180.0,150.0 l40.0,75.0 -480.0,-65.0 " fill="none" stroke="black" stroke-width="1" /></svg>