<?xml version="1.0" encoding="utf-8" ?>
<svg baseProfile="full" height="74.98105635866523" version="1.1" width="83.26855207827975" xmlns="http://www.w3.org/2000/svg" xmlns:ev="http://www.w3.org/2001/xml-events" xmlns:xlink="http://www.w3.org/1999/xlink"><defs /><rect fill="white" height="74.98105635866523" width="83.26855207827975" x="0" y="0" /><path d="M26.665005050599575,40.40312362834811 m-1.167581006884575,2.122255712747574 l-0.49742404371500015,2.1519748866558075 0.4625259339809418,2.411118596792221 l1.1370044201612473,1.2939414381980896 2.090134769678116,0.895344540476799 l15.016813278198242,0.16336258500814438 5.30112624168396,-0.3821859136223793 l3.717813789844513,-0.48608459532260895 2.728404700756073,-0.5424641817808151 m-25.872535705566406,-9.687600135803223 l0.6826870143413544,-0.5373433977365494 3.6302685737609863,-1.8776904046535492 l4.726927280426025,-1.7892247438430786 4.845284521579742,-1.2182284891605377 l4.267826974391937,-0.42575810104608536 3.848024904727936,0.45884426683187485 l3.105301856994629,1.42907053232193 1.4736223220825195,1.2492647022008896 l1.4419500529766083,2.4007460474967957 0.6652653962373734,3.167232871055603 l0.00010575202395557426,3.19503515958786 -0.5962641537189484,1.6879019141197205 l-1.0228272527456284,1.2584371864795685 -3.5165518522262573,1.8884165585041046 l-4.081757366657257,0.75156569480896 -6.459919214248657,-0.2743307687342167 l-0.9224820137023926,-0.6638015806674957 m-4.964413940906525,-11.383589506149292 l0.1382235251367092,-3.0490830540657043 1.0726401209831238,-5.974292755126953 l1.1549927294254303,-3.116860091686249 0.6637455523014069,-0.5190986022353172 l2.2645217180252075,0.39200805127620697 2.3822779953479767,1.8790723383426666 l1.6796553134918213,2.790791392326355 0.9853561222553253,5.051396489143372 l-0.013629613677039742,2.4383901059627533 -0.7690606266260147,1.6564348340034485 l-1.6504639387130737,1.0197216272354126 -2.8791433572769165,0.7366056740283966 l-6.196008324623108,0.8040308952331543 -2.181844711303711,0.13544447720050812 l-0.9865886718034744,-0.371769554913044 " fill="none" stroke="black" stroke-width="1" /></svg>