<?xml version="1.0" encoding="utf-8" ?>
<svg baseProfile="full" height="72.94971223920584" version="1.1" width="86.92798301577568" xmlns="http://www.w3.org/2000/svg" xmlns:ev="http://www.w3.org/2001/xml-events" xmlns:xlink="http://www.w3.org/1999/xlink"><defs /><rect fill="white" height="72.94971223920584" width="86.92798301577568" x="0" y="0" /><path d="M45.74809841811657,32.72512560710311 m-11.821789741516113,0.1698589324951172 l-1.3933204114437103,0.45940935611724854 -5.275017023086548,3.0177056789398193 l-1.7442479729652405,1.739431768655777 -0.5137232691049576,1.2387973070144653 l0.3601989895105362,0.8813412487506866 13.371626138687134,1.2490010261535645 l3.6212342977523804,0.08789407089352608 2.21644327044487,0.21094031631946564 l1.571742296218872,0.3340950235724449 1.946932077407837,0.4446062818169594 l2.331589013338089,0.4943636432290077 m-8.48750650882721,-9.646575450897217 l0.4027293622493744,4.486342668533325 0.2875942550599575,4.870536923408508 l0.4572517052292824,3.0689266324043274 0.7135678827762604,1.8360114097595215 l1.0562092810869217,0.2818997949361801 5.663372874259949,-2.913639545440674 l0.25935372337698936,-5.2278101444244385 m-10.690977573394775,-7.5434792041778564 l11.796517372131348,-2.015904188156128 6.104297041893005,-0.581689365208149 l3.9458075165748596,0.24870336055755615 -1.4600977301597595,2.0334376394748688 l-1.7780512571334839,2.8077661991119385 -1.7067880928516388,1.9189578294754028 m-19.168338775634766,-4.146075248718262 l0.9408855438232422,-2.345568835735321 1.2172427773475647,-1.7098432779312134 l2.3593538999557495,-2.078576534986496 1.9478192925453186,-0.9263572096824646 l2.660192549228668,-0.46963371336460114 2.5092673301696777,0.36504171788692474 l1.1814554035663605,0.6746674329042435 0.8846960961818695,1.5838441252708435 l-0.12443764135241508,2.2203832864761353 -2.5674229860305786,2.4940532445907593 l-3.437435030937195,1.5449146926403046 -5.760821104049683,1.1335893720388412 " fill="none" stroke="black" stroke-width="1" /></svg>