<?xml version="1.0" encoding="utf-8" ?>
<svg baseProfile="full" height="1375.0" version="1.1" width="2250.0" xmlns="http://www.w3.org/2000/svg" xmlns:ev="http://www.w3.org/2001/xml-events" xmlns:xlink="http://www.w3.org/1999/xlink"><defs /><rect fill="white" height="1375.0" width="2250.0" x="0" y="0" /><path d="M1065.0,595.0 m-540.0,10.0 l-80.0,20.0 -165.0,120.0 l-250.0,150.0 -5.0,60.0 l30.0,20.0 545.0,10.0 l190.0,30.0 m-70.0,-195.0 l10.0,35.0 80.0,90.0 l260.0,245.0 240.0,130.0 l115.0,30.0 85.0,0.0 l15.0,-30.0 -10.0,-65.0 l-155.0,-215.0 -245.0,-285.0 m-320.0,250.0 l85.0,-5.0 m465.0,-15.0 l80.0,0.0 480.0,-80.0 l255.0,10.0 15.0,-25.0 l-80.0,-205.0 0.0,-160.0 l45.0,-190.0 85.0,-255.0 l-10.0,-50.0 -55.0,-5.0 l-60.0,50.0 -250.0,370.0 l-70.0,70.0 -75.0,45.0 l-130.0,20.0 -335.0,0.0 l-200.0,30.0 " fill="none" stroke="black" stroke-width="1" /></svg>