<?xml version="1.0" encoding="utf-8" ?>
<svg baseProfile="full" height="2365.0" version="1.1" width="5160.0" xmlns="http://www.w3.org/2000/svg" xmlns:ev="http://www.w3.org/2001/xml-events" xmlns:xlink="http://www.w3.org/1999/xlink"><defs /><rect fill="white" height="2365.0" width="5160.0" x="0" y="0" /><path d="M680.0,90.0 m115.0,-10.0 l570.0,50.0 690.0,95.0 l655.0,55.0 545.0,75.0 l585.0,15.0 340.0,35.0 l30.0,390.0 30.0,50.0 l340.0,135.0 345.0,85.0 l165.0,15.0 45.0,225.0 l0.0,365.0 -405.0,95.0 l-370.0,45.0 -210.0,0.0 l-465.0,-35.0 -235.0,10.0 l-700.0,-10.0 -695.0,35.0 l-480.0,-10.0 -890.0,30.0 l-365.0,-40.0 -60.0,-30.0 l-10.0,-25.0 -20.0,-250.0 l-105.0,-555.0 -45.0,-295.0 l-5.0,-175.0 -50.0,-290.0 l65.0,-40.0 170.0,-45.0 l525.0,-60.0 85.0,15.0 m-685.0,1390.0 l185.0,-5.0 55.0,50.0 l10.0,80.0 -30.0,25.0 l-130.0,35.0 m625.0,-1375.0 l30.0,180.0 0.0,285.0 l-20.0,90.0 -70.0,110.0 l190.0,-80.0 185.0,-45.0 l335.0,-40.0 -25.0,-345.0 l-25.0,-130.0 -305.0,-80.0 l-330.0,-15.0 m1150.0,240.0 l115.0,375.0 330.0,-10.0 l420.0,30.0 70.0,-30.0 l10.0,-35.0 15.0,-330.0 l-30.0,-20.0 -310.0,-30.0 l-350.0,-5.0 -150.0,25.0 l-90.0,45.0 m1840.0,180.0 l-80.0,250.0 365.0,-10.0 l0.0,-250.0 -30.0,-15.0 l-340.0,30.0 m-620.0,15.0 l40.0,250.0 270.0,-110.0 l-75.0,-310.0 -55.0,65.0 l-50.0,20.0 -250.0,15.0 m-2120.0,1240.0 l-165.0,165.0 -80.0,120.0 l-40.0,80.0 -5.0,90.0 l85.0,60.0 90.0,25.0 l190.0,5.0 200.0,-40.0 l90.0,-40.0 90.0,-90.0 l35.0,-90.0 5.0,-100.0 l-30.0,-75.0 -65.0,-75.0 l-185.0,-105.0 m2465.0,95.0 l-85.0,60.0 -115.0,165.0 l-30.0,130.0 5.0,40.0 l35.0,25.0 310.0,55.0 l320.0,15.0 145.0,-20.0 l25.0,-30.0 10.0,-50.0 l-5.0,-70.0 -45.0,-155.0 l-115.0,-160.0 -395.0,-250.0 l-125.0,-55.0 " fill="none" stroke="black" stroke-width="1" /></svg>