<?xml version="1.0" encoding="utf-8" ?>
<svg baseProfile="full" height="72.06957441288978" version="1.1" width="129.5920255407691" xmlns="http://www.w3.org/2000/svg" xmlns:ev="http://www.w3.org/2001/xml-events" xmlns:xlink="http://www.w3.org/1999/xlink"><defs /><rect fill="white" height="72.06957441288978" width="129.5920255407691" x="0" y="0" /><path d="M25,38.552533506881446 m2.378755360841751,-0.14376524835824966 l9.17750895023346,1.2278319150209427 16.401604413986206,1.3577887415885925 l8.067492246627808,0.1794010028243065 17.508437633514404,0.38163013756275177 l12.708158493041992,0.06821906194090843 4.4275519251823425,-0.36574583500623703 l3.6112305521965027,-0.5939142778515816 2.1939849853515625,-0.6825406104326248 l1.8273064494132996,-0.9772716462612152 0.9732864797115326,-1.0131416469812393 l0.3167080506682396,-1.2524233758449554 -0.4639459028840065,-1.4618684351444244 l-1.832926869392395,-1.9407200813293457 -2.7277368307113647,-1.7486725747585297 l-3.433499336242676,-1.5339282155036926 -5.735076069831848,-1.5347209572792053 l-6.7779868841171265,-0.8440988510847092 -10.649120807647705,-0.24959677830338478 l-10.747450590133667,0.7116468250751495 -11.957777738571167,1.2762649357318878 l-10.277951955795288,1.4485006034374237 -7.267136573791504,1.585165560245514 l-2.8946974873542786,1.1749569326639175 -1.8590617179870605,1.3836018741130829 l-0.7672467827796936,1.098494529724121 -0.1844794675707817,1.2681832909584045 l0.38615789264440536,1.1770236492156982 1.0121767222881317,0.9312224388122559 l1.6836269199848175,0.5637667328119278 3.2250037789344788,0.2677319571375847 l4.73779171705246,-0.3944751247763634 4.705455899238586,-0.03759323386475444 l4.759551584720612,-0.30111610889434814 4.8454150557518005,-0.18053783103823662 l4.581764042377472,-0.3121858276426792 4.764896929264069,-0.16919627785682678 l5.283313989639282,-0.43389543890953064 5.180718302726746,-0.11791166849434376 l11.52787446975708,-0.12672916986048222 8.391257524490356,-0.40972262620925903 l5.109735131263733,-0.7428451627492905 2.9320719838142395,-1.014045923948288 l1.440872699022293,-1.1976855993270874 0.6972350180149078,-1.5121561288833618 l0.016304103191941977,-1.9733506441116333 -0.9049312025308609,-1.6445566713809967 l-1.7842984199523926,-1.5690982341766357 -2.6212456822395325,-1.3472868502140045 l-5.067093372344971,-1.3065411150455475 -6.310898065567017,-0.5206255242228508 l-6.295952796936035,0.1634460873901844 -9.753159284591675,1.4375068247318268 l-11.493275165557861,1.2441127747297287 -9.957335591316223,1.4748230576515198 l-8.562507629394531,1.827433705329895 -7.098609805107117,2.232270985841751 l-1.8722830712795258,0.9618870168924332 -1.70586958527565,1.5481360256671906 l-0.9776648133993149,1.894555389881134 -0.037267201114445925,1.4770792424678802 l0.5619337037205696,0.9934841841459274 1.1997726559638977,0.7989568263292313 l2.5943616032600403,0.7699397951364517 3.5732388496398926,0.3681311011314392 l5.467245578765869,-0.024903803132474422 5.382938981056213,-0.3206680342555046 l5.53655743598938,-0.18633775413036346 5.801933407783508,-0.44701334089040756 l5.97328245639801,-0.20433595404028893 12.747280597686768,-0.7946152985095978 l6.897103190422058,-1.0681767761707306 6.272865533828735,-1.8856102228164673 l3.2745319604873657,-1.7113988101482391 1.491784006357193,-1.5850284695625305 l0.3529561683535576,-1.4047068357467651 -0.44686276465654373,-1.6983990371227264 l-1.5478083491325378,-1.6148804128170013 -3.5737591981887817,-1.7258508503437042 l-4.994085729122162,-1.0477020591497421 -6.086683869361877,-0.2699476294219494 l-6.709944009780884,0.3875555843114853 -6.142638325691223,1.30451038479805 l-5.449513792991638,1.946316659450531 -3.0918771028518677,1.5472613275051117 l-3.639727830886841,2.37884521484375 -2.166907489299774,1.8460237979888916 l-2.3752151429653168,2.572745978832245 -1.2468897551298141,2.068369537591934 l-0.5431696027517319,2.141653150320053 0.15384220518171787,1.4591063559055328 l0.6964608281850815,0.9629740566015244 1.7263245582580566,1.0970310866832733 l2.851811647415161,0.7873164117336273 4.995853900909424,0.36767713725566864 l7.256576418876648,-0.5922961235046387 7.420905828475952,-1.8640059232711792 l6.767874360084534,-2.7750593423843384 3.474084734916687,-2.2583337128162384 l1.6190820932388306,-1.8920095264911652 0.7042405754327774,-2.004503607749939 l-0.09107274934649467,-2.0253117382526398 -1.10664002597332,-1.6483914852142334 l-2.0965155959129333,-1.47817000746727 -2.85118967294693,-1.1202100664377213 l-3.4395909309387207,-0.6093347445130348 -3.874261975288391,-0.18896203488111496 l-3.8956832885742188,0.1670803688466549 -3.5733649134635925,0.7368426769971848 l-3.2731810212135315,1.2467357516288757 -2.700580060482025,1.5481415390968323 l-2.083483040332794,1.7817029356956482 " fill="none" stroke="black" stroke-width="1" /></svg>