<?xml version="1.0" encoding="utf-8" ?>
<svg baseProfile="full" height="75.9423136152327" version="1.1" width="81.59584175096825" xmlns="http://www.w3.org/2000/svg" xmlns:ev="http://www.w3.org/2001/xml-events" xmlns:xlink="http://www.w3.org/1999/xlink"><defs /><rect fill="white" height="75.9423136152327" width="81.59584175096825" x="0" y="0" /><path d="M34.52798280864954,26.87705684453249 m-1.6857361793518066,0.16291821375489235 l-1.6720786690711975,0.8129928261041641 -2.4860866367816925,2.038939595222473 l-1.9105702638626099,2.55787193775177 -1.2381012737751007,2.9034441709518433 l-0.5354097858071327,3.250577747821808 0.13490285724401474,3.1224045157432556 l1.0057421028614044,2.6365548372268677 1.8758895993232727,2.4979279935359955 l2.6597291231155396,1.9519464671611786 4.531104564666748,1.5871632099151611 l5.218800902366638,0.542515255510807 5.191068053245544,-0.26651656255126 l4.091621935367584,-1.2298761308193207 2.694983184337616,-1.5426507592201233 l2.0591355860233307,-2.073255479335785 1.418384164571762,-2.6253047585487366 l0.6924227625131607,-3.143307864665985 0.0220569153316319,-3.2808902859687805 l-0.805569514632225,-2.8353995084762573 -1.5410782396793365,-2.699272334575653 l-2.1095412969589233,-2.2316448390483856 -2.527351677417755,-1.7144125699996948 l-3.0341100692749023,-1.3180525600910187 -3.196958899497986,-0.7500745356082916 l-3.4638139605522156,-0.23165542632341385 -3.0179062485694885,0.34592390060424805 l-2.7132299542427063,1.0470660775899887 -1.930614560842514,1.4348669350147247 m6.735830307006836,10.103094577789307 l-0.33352892845869064,0.5675952509045601 0.369979590177536,0.4761775955557823 l0.3924263268709183,-0.6950180977582932 -0.5069136619567871,-0.17340939491987228 l-0.17604338005185127,0.6488063186407089 0.6422331929206848,-0.4372720792889595 l-0.26266414672136307,-0.1832740567624569 -0.19160402938723564,0.3854767978191376 m0.1595909707248211,-0.46545807272195816 l0.0010574338375590742,-7.372382283210754 -0.17170164734125137,-3.0198436975479126 " fill="none" stroke="black" stroke-width="1" /></svg>