<?xml version="1.0" encoding="utf-8" ?>
<svg baseProfile="full" height="1715.0" version="1.1" width="1770.0" xmlns="http://www.w3.org/2000/svg" xmlns:ev="http://www.w3.org/2001/xml-events" xmlns:xlink="http://www.w3.org/1999/xlink"><defs /><rect fill="white" height="1715.0" width="1770.0" x="0" y="0" /><path d="M410.0,535.0 m-85.0,10.0 l-35.0,75.0 -120.0,110.0 l-115.0,210.0 -30.0,290.0 l0.0,75.0 25.0,40.0 l85.0,105.0 75.0,45.0 l85.0,10.0 25.0,25.0 l165.0,65.0 315.0,60.0 l470.0,35.0 280.0,-330.0 l105.0,-260.0 40.0,-65.0 l45.0,-160.0 5.0,-220.0 l-50.0,-160.0 -40.0,-60.0 l-145.0,-115.0 -180.0,-70.0 l-165.0,-45.0 -325.0,0.0 l-50.0,45.0 -290.0,145.0 l-50.0,45.0 -55.0,10.0 l-50.0,55.0 -40.0,100.0 m660.0,-380.0 l25.0,75.0 165.0,55.0 l55.0,0.0 100.0,-85.0 m-150.0,45.0 l-5.0,-65.0 55.0,-125.0 l95.0,-90.0 75.0,-10.0 " fill="none" stroke="black" stroke-width="1" /></svg>