<?xml version="1.0" encoding="utf-8" ?>
<svg baseProfile="full" height="71.56713046133518" version="1.1" width="68.76167576760054" xmlns="http://www.w3.org/2000/svg" xmlns:ev="http://www.w3.org/2001/xml-events" xmlns:xlink="http://www.w3.org/1999/xlink"><defs /><rect fill="white" height="71.56713046133518" width="68.76167576760054" x="0" y="0" /><path d="M37.22133339382708,29.2630260810256 m-0.08236014284193516,-1.6680818796157837 l-0.5820835381746292,-1.0589390248060226 -1.843642145395279,-1.2107594311237335 l-2.621934711933136,-0.3252457454800606 -2.3717890679836273,0.7709876447916031 l-2.235724776983261,2.0733828842639923 -1.627030372619629,2.969917356967926 l-0.8567686378955841,5.016942024230957 1.3731881976127625,6.191751956939697 l2.474825084209442,2.8701260685920715 2.4208419024944305,1.256319135427475 l2.8074678778648376,0.41770339012145996 2.7989643812179565,-0.3117467276751995 l2.4225710332393646,-1.284213364124298 2.6803460717201233,-2.889815866947174 l1.2874682247638702,-2.759135067462921 0.49600299447774887,-2.938307821750641 l-0.05577152594923973,-2.9468971490859985 -0.7084669172763824,-2.429119795560837 l-1.3705016672611237,-2.2823576629161835 -1.8067029118537903,-1.7125463485717773 l-2.1454165875911713,-1.0399294644594193 -2.395571917295456,-0.3356693312525749 l-2.3449252545833588,0.2935284562408924 m-1.9902004301548004,5.891273617744446 l-0.10093479417264462,-0.05623329430818558 0.18053120002150536,-0.1234040129929781 l0.08541935123503208,0.4221468046307564 0.07166850846260786,0.4768146574497223 l0.2533039264380932,-0.4600880667567253 -0.0142693764064461,-0.15690336003899574 l0.006608755211345851,0.28037646785378456 0.3084998205304146,-0.3616803139448166 l-0.10687562637031078,-0.09183005429804325 0.0228238757699728,0.4448828473687172 m4.852723777294159,-0.20581524819135666 l0.0349450740031898,0.25322798639535904 0.11143417097628117,-0.36292411386966705 l-0.2247285284101963,0.1388018298894167 0.08044001646339893,0.5325577035546303 l0.3028278425335884,-0.5364755541086197 -0.26902783662080765,0.11722254566848278 l0.1731438934803009,0.5030522868037224 m-3.62649142742157,3.4180450439453125 l0.6500262022018433,0.45378584414720535 1.7090873420238495,0.002184593031415716 l-0.017011271556839347,-0.6283260136842728 -0.532841756939888,-0.32494649291038513 l-0.8654744923114777,0.07647144608199596 -0.5310157313942909,0.47174856066703796 l-0.049710385501384735,0.6622177362442017 0.6489761173725128,0.45806925743818283 l0.28367001563310623,-0.6753477454185486 -0.5091547593474388,0.09833324700593948 l0.0776212802156806,0.5065412819385529 0.47056738287210464,-0.4083580896258354 l-0.291778277605772,-0.06432424299418926 -0.06686060223728418,0.46394120901823044 l0.4664831608533859,-0.4035305976867676 -0.3029477037489414,-0.08694206364452839 l-0.12707239016890526,0.48989564180374146 0.41586145758628845,-0.33798400312662125 l-0.2703280374407768,-0.05517658777534962 -0.1209007017314434,0.34449271857738495 l0.4081323370337486,-0.1893020235002041 -0.19554734230041504,-0.2519535645842552 l-0.18140845000743866,0.3171207383275032 0.34702785313129425,-0.10196414776146412 l-0.12909114360809326,-0.1750093325972557 -0.1762865111231804,0.1883147656917572 l0.23727906867861748,0.02936934819445014 0.012267642887309194,-0.22478604689240456 l-0.3070664033293724,0.016889076214283705 0.041814371943473816,0.3009054809808731 l0.4501447081565857,-0.2582882158458233 -0.28137650340795517,-0.20296983420848846 l-0.08204571902751923,0.5570144951343536 0.49602750688791275,-0.5119100958108902 l-0.30148085206747055,-0.005142735899426043 -0.0711565837264061,0.2780194580554962 l0.3604167699813843,-0.23975636810064316 -0.19320648163557053,-0.17335271462798119 l-0.14891579747200012,0.3323030471801758 0.3565644845366478,-0.12826303020119667 l-0.21783774718642235,-0.20204288884997368 -0.15659121796488762,0.27700595557689667 l0.28819162398576736,-0.09130924940109253 -0.12066946364939213,-0.2238311804831028 l-0.20795166492462158,0.2175111509859562 0.26234135031700134,0.007385530625469983 l0.0932115875184536,-0.2713216654956341 -0.39077017456293106,0.05528745707124472 l0.04311940632760525,0.362505204975605 0.4631529003381729,-0.33426467329263687 l-0.33014923334121704,-0.09711183607578278 -0.04566028714179993,0.4307381808757782 l0.509515106678009,-0.4019860178232193 -0.3100383095443249,-0.10418150573968887 l-0.1652274653315544,0.42319484055042267 0.4438163712620735,-0.26011234149336815 l-0.2404152788221836,-0.17381735146045685 -0.24105096235871315,0.39919592440128326 l0.4002436622977257,-0.07867732085287571 -0.09363818913698196,-0.28213120996952057 l-0.3059736266732216,0.35445474088191986 0.30081748962402344,0.020438788924366236 l-0.026158608961850405,-0.29158521443605423 -0.3638103976845741,0.25381045415997505 l0.21349741145968437,0.15932835638523102 0.23262225091457367,-0.23752590641379356 l-0.2771678939461708,-0.13773893006145954 -0.09878809563815594,0.47341831028461456 l0.5467167124152184,-0.2751709520816803 -0.33945951610803604,-0.10837667621672153 " fill="none" stroke="black" stroke-width="1" /></svg>