<?xml version="1.0" encoding="utf-8" ?>
<svg baseProfile="full" height="2190.0" version="1.1" width="5260.0" xmlns="http://www.w3.org/2000/svg" xmlns:ev="http://www.w3.org/2001/xml-events" xmlns:xlink="http://www.w3.org/1999/xlink"><defs /><rect fill="white" height="2190.0" width="5260.0" x="0" y="0" /><path d="M2475.0,1200.0 m-10.0,-80.0 l-105.0,-150.0 -110.0,-55.0 l-90.0,25.0 -35.0,40.0 l-125.0,255.0 0.0,270.0 l20.0,90.0 120.0,175.0 l110.0,70.0 135.0,20.0 l100.0,-35.0 40.0,-30.0 l65.0,-110.0 35.0,-95.0 l30.0,380.0 50.0,70.0 l40.0,5.0 105.0,-85.0 l85.0,-120.0 25.0,-190.0 l0.0,-120.0 30.0,140.0 l45.0,110.0 135.0,65.0 l90.0,0.0 35.0,-30.0 l75.0,-150.0 25.0,-95.0 l0.0,-250.0 -20.0,-150.0 l-105.0,-145.0 -140.0,-60.0 l-50.0,15.0 -40.0,45.0 l-60.0,185.0 15.0,-105.0 l0.0,-390.0 -20.0,10.0 l-110.0,-10.0 -225.0,15.0 l-135.0,30.0 -20.0,375.0 l20.0,50.0 m-260.0,-245.0 l0.0,375.0 50.0,130.0 l-50.0,410.0 10.0,30.0 m-240.0,-630.0 l430.0,450.0 75.0,135.0 m-280.0,-665.0 l-40.0,540.0 m100.0,-635.0 l-10.0,235.0 25.0,120.0 l90.0,145.0 m960.0,-425.0 l-85.0,295.0 -60.0,135.0 m-265.0,205.0 l-5.0,-30.0 15.0,-70.0 l180.0,-270.0 135.0,-125.0 l15.0,-30.0 -70.0,5.0 l-225.0,60.0 -670.0,270.0 l-775.0,480.0 2010.0,-1445.0 l790.0,-610.0 -765.0,360.0 l-1420.0,760.0 -890.0,585.0 l-580.0,435.0 95.0,-90.0 l490.0,-360.0 740.0,-435.0 l780.0,-365.0 500.0,-180.0 l-85.0,40.0 -2170.0,710.0 l-1025.0,465.0 135.0,-170.0 l3505.0,-1465.0 -155.0,50.0 m-470.0,1760.0 l-905.0,-1315.0 -370.0,130.0 l1275.0,1185.0 m-2855.0,-130.0 l785.0,-235.0 2065.0,365.0 l-375.0,-1155.0 m2575.0,-465.0 l-3035.0,750.0 m990.0,900.0 l530.0,-125.0 230.0,-100.0 l20.0,-15.0 -210.0,0.0 l-280.0,45.0 " fill="none" stroke="black" stroke-width="1" /></svg>