<?xml version="1.0" encoding="utf-8" ?>
<svg baseProfile="full" height="88.11631948221475" version="1.1" width="102.02724634669721" xmlns="http://www.w3.org/2000/svg" xmlns:ev="http://www.w3.org/2001/xml-events" xmlns:xlink="http://www.w3.org/1999/xlink"><defs /><rect fill="white" height="88.11631948221475" width="102.02724634669721" x="0" y="0" /><path d="M47.004184080287814,35.8874562010169 m-5.33296525478363,-4.612487852573395 l-4.6724531054496765,-4.326852560043335 -0.7253387570381165,3.2044583559036255 l2.927038073539734,6.181124448776245 3.3734148740768433,3.709692358970642 l1.1560134589672089,0.5039628222584724 m6.882458925247192,-5.772204399108887 l0.9783923625946045,-1.0153032839298248 1.959439367055893,-1.0997433960437775 l2.2964683175086975,-0.814494714140892 3.3907288312911987,-0.45617617666721344 l2.38534152507782,0.19673213362693787 2.5903472304344177,1.0345154255628586 l2.485272139310837,2.0170103013515472 1.4784561097621918,2.6544898748397827 l0.6184384971857071,-0.7739300280809402 4.170135259628296,-8.010502457618713 l3.099817931652069,-3.5077470541000366 0.6752454489469528,0.05851647350937128 l0.2868110314011574,0.8073258399963379 -0.09223609231412411,2.413475662469864 l-1.5713092684745789,6.0294777154922485 -1.0213188827037811,3.7630754709243774 l-0.8409601449966431,2.810387909412384 -1.3699065148830414,2.6649802923202515 l-2.187647372484207,2.312902808189392 -3.4375226497650146,2.073344439268112 l-4.524237513542175,1.3699911534786224 m-18.321107625961304,-10.979033708572388 l-1.7974853515625,0.11144602671265602 -6.1916583776474,0.945734977722168 l-5.367382764816284,1.8069358170032501 -2.5519299507141113,1.5348900854587555 l-1.5019239485263824,1.604612022638321 -0.8766467124223709,1.9038771092891693 l-0.37397317588329315,3.1026658415794373 0.5437017977237701,2.314487248659134 l1.3891766965389252,2.1075549721717834 2.2018614411354065,1.9326795637607574 l2.828316390514374,1.5414579212665558 5.543771982192993,1.670997440814972 l7.231306433677673,0.9475656598806381 11.183347702026367,-0.18604420125484467 l9.870746731758118,-1.80385023355484 5.558217763900757,-2.215741276741028 l1.7739900946617126,-1.6366083920001984 0.6757498532533646,-1.775626689195633 l-0.19463501870632172,-2.899704873561859 -1.0804696381092072,-2.0580369234085083 m-30.16106128692627,2.43377223610878 l-0.41540637612342834,5.034463405609131 -1.1713950335979462,3.588806390762329 l-1.1085552722215652,2.4508343636989594 m10.63542127609253,-10.334243774414062 l0.012416021199896932,5.617329478263855 -0.2440652996301651,3.8766181468963623 m-3.713274300098419,-8.944913148880005 l-0.5260289460420609,5.476008653640747 -0.9571497142314911,3.4305182099342346 l-1.1991273611783981,1.7089161276817322 m4.420693516731262,-9.346150755882263 l0.1440477930009365,5.611269474029541 -0.25425298139452934,3.4826084971427917 l-0.5460576340556145,1.7567460238933563 m3.6979585886001587,-10.017399787902832 l3.996073305606842,1.3184688985347748 4.723195433616638,0.922158733010292 l4.07477080821991,0.6610541045665741 " fill="none" stroke="black" stroke-width="1" /></svg>