<?xml version="1.0" encoding="utf-8" ?>
<svg baseProfile="full" height="2555.0" version="1.1" width="2800.0" xmlns="http://www.w3.org/2000/svg" xmlns:ev="http://www.w3.org/2001/xml-events" xmlns:xlink="http://www.w3.org/1999/xlink"><defs /><rect fill="white" height="2555.0" width="2800.0" x="0" y="0" /><path d="M870.0,585.0 m-265.0,-230.0 l-225.0,-170.0 -15.0,50.0 l245.0,485.0 75.0,110.0 m200.0,-265.0 l60.0,-5.0 185.0,-90.0 l150.0,-35.0 145.0,-5.0 l75.0,25.0 60.0,40.0 l65.0,65.0 15.0,35.0 l25.0,10.0 275.0,-370.0 l220.0,-210.0 15.0,30.0 l0.0,190.0 -120.0,420.0 l-20.0,125.0 15.0,40.0 m-1350.0,15.0 l-25.0,5.0 -15.0,75.0 l-65.0,475.0 5.0,220.0 l65.0,195.0 120.0,120.0 l265.0,135.0 445.0,145.0 l240.0,40.0 165.0,-5.0 l80.0,-20.0 145.0,-70.0 l100.0,-100.0 30.0,-55.0 l30.0,-130.0 -5.0,-230.0 l-55.0,-225.0 -50.0,-110.0 l-170.0,-220.0 -200.0,-190.0 m-1020.0,575.0 l-515.0,445.0 -245.0,155.0 m1040.0,-250.0 l-95.0,25.0 -215.0,105.0 l-140.0,80.0 -345.0,240.0 m1145.0,-160.0 l-145.0,40.0 -120.0,55.0 l-165.0,100.0 -220.0,170.0 l-100.0,50.0 m1270.0,-895.0 l175.0,40.0 665.0,220.0 m-950.0,210.0 l35.0,50.0 75.0,35.0 l265.0,35.0 250.0,65.0 l130.0,60.0 m-515.0,-445.0 l205.0,5.0 285.0,75.0 " fill="none" stroke="black" stroke-width="1" /></svg>