<?xml version="1.0" encoding="utf-8" ?>
<svg baseProfile="full" height="72.79262882773764" version="1.1" width="89.64091231813654" xmlns="http://www.w3.org/2000/svg" xmlns:ev="http://www.w3.org/2001/xml-events" xmlns:xlink="http://www.w3.org/1999/xlink"><defs /><rect fill="white" height="72.79262882773764" width="89.64091231813654" x="0" y="0" /><path d="M42.03590612625703,26.35131876100786 m-0.21797295659780502,1.18547223508358 l-2.269497811794281,5.289515852928162 -1.0589932650327682,4.575274586677551 l0.10126592591404915,1.4305587112903595 0.7970994710922241,0.14926289208233356 l1.6777709126472473,-0.6842281669378281 5.164167284965515,-5.47030508518219 l0.6447369605302811,-4.134922921657562 -0.3480353206396103,-2.262965887784958 l-0.8672312647104263,-0.8469047397375107 -1.6122978925704956,-0.3366994485259056 l-1.364377737045288,0.1493010576814413 -1.0141053050756454,0.661894828081131 m6.173558831214905,1.033710315823555 l2.4410326778888702,-0.8260060101747513 4.634092748165131,-0.4617200046777725 l5.308778285980225,0.5244257673621178 2.7776286005973816,1.2554454803466797 l1.2807314097881317,1.3490059971809387 0.3566546365618706,1.1830486357212067 l-0.12133965268731117,1.1857980489730835 -2.0430298149585724,2.074166089296341 l-2.4675489962100983,1.1440082639455795 -2.9084032773971558,0.5290822684764862 l-5.876351594924927,-0.232597254216671 -0.4631355404853821,0.11148208752274513 l0.0361236953176558,0.6747822463512421 3.2125791907310486,4.32803601026535 l1.4438317716121674,3.997715711593628 -0.09187845513224602,1.8820758163928986 l-1.0754240304231644,1.2343396246433258 -1.9182932376861572,0.7492570579051971 l-2.4515481293201447,-0.013076496543362737 -2.2837306559085846,-0.8800722658634186 l-2.768911123275757,-2.296811193227768 -2.056966722011566,-3.0182376503944397 m-2.0145973563194275,-13.007928133010864 l-0.9154798835515976,-0.932990163564682 -3.0382364988327026,-1.48879736661911 l-3.8570478558540344,-1.0004177689552307 -2.6437920331954956,-0.15429778955876827 l-2.12885245680809,0.557696744799614 -1.940476894378662,1.356615424156189 l-1.0918575525283813,1.9102416932582855 -0.17654521390795708,1.516832411289215 l0.36295607686042786,1.1807065457105637 1.4154331386089325,1.4844390749931335 l2.206697016954422,1.1389339715242386 3.7636804580688477,0.6637193262577057 l-2.963342070579529,2.112782746553421 -1.9271814823150635,2.3008793592453003 l-0.5816994607448578,1.5032406151294708 -0.02185783116146922,2.287135273218155 l0.5234978348016739,1.0964293032884598 1.5014006197452545,1.2679076194763184 l2.174185663461685,0.7066904753446579 2.8023457527160645,0.06454226095229387 l2.450689375400543,-0.6906723231077194 2.1431873738765717,-1.3444702327251434 l1.594521552324295,-1.8610391020774841 " fill="none" stroke="black" stroke-width="1" /></svg>