<?xml version="1.0" encoding="utf-8" ?>
<svg baseProfile="full" height="865.0" version="1.1" width="1025.0" xmlns="http://www.w3.org/2000/svg" xmlns:ev="http://www.w3.org/2001/xml-events" xmlns:xlink="http://www.w3.org/1999/xlink"><defs /><rect fill="white" height="865.0" width="1025.0" x="0" y="0" /><path d="M340.0,110.0 m-10.0,60.0 l15.0,365.0 25.0,185.0 m25.0,110.0 l0.0,0.0 m-30.0,-700.0 l5.0,-20.0 80.0,-25.0 l320.0,5.0 85.0,-10.0 l20.0,60.0 35.0,300.0 l-10.0,315.0 -115.0,-10.0 m-125.0,-25.0 l-170.0,0.0 m-70.0,5.0 l0.0,-5.0 m-70.0,-530.0 l0.0,65.0 20.0,40.0 l40.0,10.0 45.0,-20.0 l40.0,-45.0 155.0,90.0 l55.0,-50.0 110.0,20.0 l20.0,-25.0 40.0,-145.0 m-470.0,595.0 l140.0,-20.0 310.0,25.0 m-470.0,-300.0 l315.0,-15.0 105.0,-35.0 l35.0,-30.0 m-375.0,205.0 l150.0,-10.0 240.0,-50.0 m-520.0,120.0 l-10.0,20.0 -125.0,90.0 l-10.0,25.0 60.0,50.0 l110.0,40.0 425.0,-10.0 l130.0,-15.0 80.0,-65.0 l5.0,-45.0 -10.0,-30.0 l-90.0,-20.0 m-875.0,185.0 l60.0,-185.0 0.0,-120.0 l30.0,-20.0 20.0,60.0 l-10.0,50.0 -35.0,55.0 m340.0,-655.0 l30.0,130.0 " fill="none" stroke="black" stroke-width="1" /></svg>