<?xml version="1.0" encoding="utf-8" ?>
<svg baseProfile="full" height="1635.0" version="1.1" width="3730.0" xmlns="http://www.w3.org/2000/svg" xmlns:ev="http://www.w3.org/2001/xml-events" xmlns:xlink="http://www.w3.org/1999/xlink"><defs /><rect fill="white" height="1635.0" width="3730.0" x="0" y="0" /><path d="M100.0,295.0 m-45.0,315.0 l-25.0,535.0 m55.0,-865.0 l2125.0,-225.0 1035.0,-30.0 l30.0,45.0 75.0,385.0 l280.0,50.0 65.0,40.0 l10.0,40.0 -30.0,100.0 l-35.0,45.0 -85.0,35.0 l-585.0,110.0 -205.0,60.0 l-575.0,110.0 -270.0,15.0 l-625.0,75.0 -705.0,5.0 l-225.0,-30.0 -115.0,0.0 l-80.0,30.0 -145.0,5.0 m115.0,-20.0 l-80.0,120.0 -20.0,90.0 l10.0,65.0 65.0,130.0 l85.0,55.0 75.0,15.0 l75.0,10.0 85.0,-15.0 l190.0,-80.0 105.0,-85.0 l55.0,-85.0 40.0,-105.0 l0.0,-80.0 -60.0,-75.0 l-50.0,-20.0 -130.0,-15.0 l-220.0,15.0 -230.0,105.0 l-50.0,70.0 20.0,0.0 m2675.0,-250.0 l-330.0,90.0 -70.0,35.0 l-60.0,75.0 0.0,25.0 l90.0,70.0 105.0,45.0 l160.0,35.0 190.0,-25.0 l80.0,-50.0 165.0,-205.0 l30.0,-60.0 10.0,-65.0 l-85.0,-50.0 -110.0,-10.0 l-410.0,65.0 -130.0,5.0 m-2045.0,-590.0 l-20.0,115.0 10.0,145.0 l25.0,85.0 45.0,25.0 l275.0,-20.0 85.0,-60.0 l-45.0,-420.0 -20.0,-15.0 l-25.0,5.0 -180.0,75.0 l-150.0,30.0 -35.0,25.0 m905.0,-45.0 l50.0,305.0 35.0,45.0 l60.0,15.0 250.0,-105.0 l85.0,-20.0 125.0,0.0 l20.0,-20.0 10.0,-50.0 l0.0,-165.0 -20.0,-40.0 l-75.0,-40.0 -340.0,-15.0 l-105.0,15.0 -145.0,60.0 l25.0,0.0 m1125.0,-160.0 l-15.0,280.0 20.0,15.0 l305.0,-80.0 240.0,-25.0 l30.0,-35.0 -20.0,-130.0 l-35.0,-30.0 -125.0,-20.0 l-145.0,0.0 -320.0,35.0 " fill="none" stroke="black" stroke-width="1" /></svg>