<?xml version="1.0" encoding="utf-8" ?>
<svg baseProfile="full" height="81.93701596651408" version="1.1" width="123.84583400562406" xmlns="http://www.w3.org/2000/svg" xmlns:ev="http://www.w3.org/2001/xml-events" xmlns:xlink="http://www.w3.org/1999/xlink"><defs /><rect fill="white" height="81.93701596651408" width="123.84583400562406" x="0" y="0" /><path d="M28.78890572115779,29.636559933423996 m-0.8578018844127655,6.409803628921509 l-0.7768302410840988,11.250662803649902 m1.283411830663681,-18.55984091758728 l33.4698486328125,-2.5379297137260437 14.977823495864868,-0.8320817351341248 l12.69590139389038,-0.3671739995479584 7.593256831169128,0.1961580477654934 l0.6866347044706345,3.5950931906700134 0.523291602730751,7.721448540687561 l0.461391918361187,5.412640571594238 -0.2607073076069355,0.6298471242189407 l-3.914731442928314,0.9428142756223679 -6.089673042297363,0.7142823934555054 l-7.531769871711731,0.8773189038038254 -6.7757391929626465,0.8481322228908539 l-7.774607539176941,0.8463571220636368 -7.541447877883911,0.6689459085464478 l-13.938813209533691,0.5354156345129013 -10.688720941543579,-0.012028943747282028 l-6.3569217920303345,-0.0633813301101327 -2.9727017879486084,0.03684850176796317 m7.728763222694397,1.0546008497476578 l-1.7164154350757599,-0.03584414487704635 -1.4405490458011627,1.154598891735077 l-0.6844544410705566,1.388573795557022 -0.1088637113571167,1.4104899764060974 l0.5713596567511559,1.3279469311237335 1.1673475056886673,1.0223138332366943 l1.6634362936019897,0.6939697265625 3.2057934999465942,0.34621257334947586 l2.3007363080978394,-0.416351817548275 1.7131519317626953,-0.9663379192352295 l1.1254779249429703,-1.239851638674736 0.49275029450654984,-1.420692652463913 l-0.2106754668056965,-2.058829516172409 -0.9443952143192291,-1.4025385677814484 l-1.3873153924942017,-0.9729916602373123 -1.780412644147873,-0.5584340170025826 l-2.904438078403473,-0.1052192971110344 -1.4294250309467316,0.45996665954589844 m43.92721652984619,0.11905585415661335 l-1.8937167525291443,0.13503095135092735 -1.6922326385974884,0.808543786406517 l-1.2903954088687897,1.1997972428798676 -1.0585855692625046,2.238735109567642 l-0.0625874288380146,1.7769114673137665 0.7276814430952072,1.367037445306778 l1.4509813487529755,1.051316261291504 1.9571010768413544,0.6089847162365913 l3.098239004611969,0.00012896210137114394 2.237762063741684,-0.7404615730047226 l1.6598047316074371,-1.201583445072174 1.0178478807210922,-1.4436879754066467 l0.41272491216659546,-2.3185813426971436 -0.38846898823976517,-1.7964421212673187 l-1.0376840829849243,-1.375914067029953 -1.5266244113445282,-0.965982973575592 l-3.0569329857826233,-0.7009676843881607 -3.1492191553115845,0.00035277436836622655 m-40.46902656555176,-14.654922485351562 l-0.21868154406547546,4.380774199962616 0.4028560221195221,0.5673965066671371 l5.51419198513031,-0.04116138909012079 4.845832884311676,-0.3827425464987755 l0.48946261405944824,-0.43973755091428757 -0.29289092868566513,-3.081161677837372 l-1.0102465003728867,-1.7934191226959229 -1.1352187395095825,-0.7526923716068268 l-6.820560097694397,0.5829799547791481 -2.6908639073371887,0.7103053480386734 m18.647106885910034,-1.5020714700222015 l0.031438469886779785,4.223450422286987 0.42031116783618927,0.610688179731369 l0.9871692955493927,0.44485632330179214 4.954987168312073,-0.07829311303794384 l4.005755186080933,-0.5223896726965904 1.3164694607257843,-0.5400747433304787 l0.577661320567131,-0.7923638820648193 0.14656203798949718,-1.3777321577072144 l-0.4750784859061241,-1.041499376296997 -0.9940825402736664,-0.7605838030576706 l-1.5269602835178375,-0.49529101699590683 -3.067657947540283,-0.21778028458356857 l-5.3919559717178345,0.865953266620636 -1.5102452039718628,0.506325289607048 m17.68428921699524,-1.174331158399582 l0.0059844565112143755,3.632670044898987 0.37317853420972824,2.3196610808372498 l0.5688503757119179,0.41656777262687683 5.006575584411621,-0.32201576977968216 l3.805810809135437,-0.7883188128471375 1.1788729578256607,-0.6411129236221313 l0.6196648627519608,-1.304730474948883 -0.0001489499209128553,-1.8465842306613922 l-0.6085909530520439,-1.1198800802230835 -1.1234401166439056,-0.749569833278656 l-4.278697073459625,-0.7802051305770874 -6.253522634506226,1.0200956463813782 " fill="none" stroke="black" stroke-width="1" /></svg>