<?xml version="1.0" encoding="utf-8" ?>
<svg baseProfile="full" height="1500.0" version="1.1" width="1325.0" xmlns="http://www.w3.org/2000/svg" xmlns:ev="http://www.w3.org/2001/xml-events" xmlns:xlink="http://www.w3.org/1999/xlink"><defs /><rect fill="white" height="1500.0" width="1325.0" x="0" y="0" /><path d="M225.0,1035.0 m-25.0,-35.0 l-20.0,-85.0 -15.0,-155.0 l10.0,-80.0 95.0,-150.0 l95.0,-105.0 185.0,-160.0 l170.0,-75.0 130.0,0.0 l55.0,35.0 115.0,125.0 l80.0,195.0 15.0,85.0 l20.0,450.0 -55.0,255.0 l-20.0,50.0 -35.0,35.0 l-195.0,55.0 -200.0,0.0 l-135.0,-95.0 -325.0,-300.0 m190.0,-770.0 l-75.0,-35.0 -150.0,175.0 l-65.0,40.0 -25.0,0.0 l-20.0,-30.0 5.0,-135.0 l50.0,-185.0 65.0,-110.0 l70.0,-5.0 45.0,20.0 l40.0,100.0 25.0,145.0 m675.0,-140.0 l70.0,190.0 25.0,10.0 l195.0,-140.0 10.0,-60.0 l-70.0,-70.0 -195.0,-20.0 l-100.0,15.0 -30.0,30.0 m-630.0,205.0 l20.0,40.0 85.0,70.0 m685.0,-190.0 l-75.0,35.0 -20.0,35.0 m-380.0,600.0 l0.0,-400.0 m25.0,405.0 l150.0,110.0 75.0,80.0 l15.0,40.0 m-415.0,255.0 " fill="none" stroke="black" stroke-width="1" /></svg>