<?xml version="1.0" encoding="utf-8" ?>
<svg baseProfile="full" height="73.2368809916079" version="1.1" width="72.02217123005539" xmlns="http://www.w3.org/2000/svg" xmlns:ev="http://www.w3.org/2001/xml-events" xmlns:xlink="http://www.w3.org/1999/xlink"><defs /><rect fill="white" height="73.2368809916079" width="72.02217123005539" x="0" y="0" /><path d="M25.771612897515297,43.7263392098248 m-0.4740194231271744,-0.7547401636838913 l-0.29759347438812256,-3.294360339641571 0.1413978822529316,-1.9296112656593323 l0.5697579309344292,-1.6324730217456818 1.4144779741764069,-1.7882339656352997 l2.1667303144931793,-1.3898824155330658 3.5902777314186096,-1.0433246195316315 l3.853468894958496,-0.20264986902475357 3.056035339832306,0.7270272821187973 l2.0829904079437256,1.2135954201221466 1.5326966345310211,1.6811534762382507 l1.028968021273613,2.245468497276306 0.36770913749933243,2.609768807888031 l-0.28267381712794304,2.4313661456108093 -1.1873260140419006,2.1520116925239563 l-1.9011367857456207,1.7451874911785126 -2.527214288711548,1.2099982798099518 l-3.062235414981842,0.5302403494715691 -3.1830808520317078,-0.08079333230853081 l-2.747948169708252,-0.853361040353775 -2.1509985625743866,-1.5057910978794098 l-1.3087330758571625,-2.0376721024513245 -0.3552660346031189,-1.506640464067459 l0.0968636479228735,-1.3043978810310364 m7.322887182235718,-2.5613078474998474 l-0.014726193621754646,-0.6074772030115128 0.2982514724135399,-0.6280887871980667 l0.06685344967991114,0.5017983540892601 -0.11506058275699615,-0.06048621144145727 l-0.05788387730717659,-0.5649698153138161 m0.6792277097702026,-0.025294930674135685 l0.6523230671882629,-3.2863327860832214 0.40659695863723755,-2.6688754558563232 m-0.41082877665758133,6.885720491409302 l1.7090868949890137,1.713988482952118 0.9931020438671112,0.9131061285734177 m-6.126444339752197,-9.0837562084198 l-1.1398715525865555,-1.5558935701847076 -0.35527557134628296,-1.5916521847248077 l0.1847006008028984,-1.6675934195518494 1.1946416646242142,-1.218564510345459 l1.9298619031906128,-0.4425456002354622 1.986524909734726,0.32546263188123703 l1.278553456068039,1.2264028936624527 0.5465438216924667,1.6975019872188568 l-0.12639984488487244,1.8813583254814148 m3.3647552132606506,-0.45218732208013535 l0.5082876235246658,-1.2281708419322968 1.0252030193805695,-0.965564101934433 l1.7308007180690765,-0.6368479877710342 1.9290080666542053,0.10704088024795055 l0.9742390364408493,0.9574571251869202 0.39245225489139557,1.7990610003471375 l-0.37531930953264236,1.7496219277381897 -1.1718108505010605,1.4629016816616058 l-1.5967990458011627,0.7986981421709061 " fill="none" stroke="black" stroke-width="1" /></svg>