<?xml version="1.0" encoding="utf-8" ?>
<svg baseProfile="full" height="69.77253037504852" version="1.1" width="89.94026340544224" xmlns="http://www.w3.org/2000/svg" xmlns:ev="http://www.w3.org/2001/xml-events" xmlns:xlink="http://www.w3.org/1999/xlink"><defs /><rect fill="white" height="69.77253037504852" width="89.94026340544224" x="0" y="0" /><path d="M25.002721697092056,25 m4.083340764045715,1.8166454136371613 l8.306694626808167,1.0591211169958115 20.377297401428223,0.5171633511781693 l3.4642326831817627,-0.4214155301451683 2.465420812368393,-0.7622583955526352 m-38.699707984924316,0.18949761986732483 l1.0217425972223282,1.2887875735759735 2.406434863805771,1.438571959733963 l5.270245671272278,1.822466403245926 8.165460228919983,1.7062588036060333 l12.847853899002075,1.319918930530548 3.6562269926071167,-0.1436461228877306 l2.6231202483177185,-0.6947982311248779 2.275597006082535,-1.2373901158571243 l1.6735818982124329,-1.7188282310962677 m-30.721557140350342,-3.359821140766144 l0.04111264366656542,5.5886077880859375 0.014095602091401815,5.972997546195984 l-0.059937373735010624,3.9644405245780945 0.4814634472131729,0.3877227008342743 l3.771004378795624,0.6247386336326599 6.695895791053772,0.4137497767806053 l5.9922778606414795,-0.10223046876490116 4.922430515289307,-0.17067193984985352 l4.05085027217865,-0.13004415668547153 0.4036163166165352,-0.5486453324556351 l0.03874278860166669,-9.010478258132935 0.24040063843131065,-5.18882691860199 l-0.4535718634724617,-0.5191528797149658 -1.6732221841812134,-0.4054342955350876 l-8.401914238929749,0.1723320595920086 -9.025747776031494,0.19014541059732437 l-5.481037497520447,-0.011379460338503122 -2.3514381051063538,-0.032696404960006475 l-0.5850944668054581,0.010780480224639177 0.0423704506829381,0.04665326327085495 l1.218678280711174,0.11623946018517017 6.583033204078674,1.0039590299129486 l5.714161396026611,0.17214568331837654 8.350353837013245,0.7212922722101212 l4.028263986110687,0.6551351398229599 3.116101324558258,0.0018573990382719785 l0.35136643797159195,0.2516300603747368 -0.09350277483463287,0.6519804894924164 l-0.7511189579963684,0.790916308760643 -2.0766782760620117,0.9008165448904037 l-4.336055517196655,0.6696690618991852 -10.127742290496826,0.09789487347006798 l-6.9289398193359375,-0.45847930014133453 -3.5730209946632385,-0.6400620937347412 l-1.0833554714918137,-0.521259605884552 -0.329984575510025,-0.7582689076662064 " fill="none" stroke="black" stroke-width="1" /></svg>