<?xml version="1.0" encoding="utf-8" ?>
<svg baseProfile="full" height="1885.0" version="1.1" width="1770.0" xmlns="http://www.w3.org/2000/svg" xmlns:ev="http://www.w3.org/2001/xml-events" xmlns:xlink="http://www.w3.org/1999/xlink"><defs /><rect fill="white" height="1885.0" width="1770.0" x="0" y="0" /><path d="M65.0,1135.0 m190.0,85.0 l860.0,150.0 300.0,-5.0 l330.0,-60.0 m-1620.0,410.0 l175.0,55.0 725.0,90.0 l205.0,0.0 295.0,-40.0 l160.0,-40.0 m-915.0,-440.0 l-60.0,0.0 -115.0,60.0 l-45.0,40.0 -60.0,105.0 l-5.0,50.0 50.0,90.0 l145.0,80.0 170.0,40.0 l165.0,0.0 105.0,-30.0 l100.0,-80.0 25.0,-55.0 l10.0,-110.0 -45.0,-85.0 l-40.0,-35.0 -105.0,-40.0 l-85.0,0.0 -110.0,25.0 m-115.0,55.0 l0.0,0.0 m325.0,20.0 l-20.0,-5.0 m-335.0,155.0 l50.0,45.0 85.0,30.0 l60.0,0.0 45.0,-25.0 m-940.0,-560.0 l15.0,-40.0 -10.0,-145.0 l15.0,-120.0 60.0,-195.0 l75.0,-145.0 145.0,-205.0 l95.0,-95.0 220.0,-140.0 m705.0,160.0 l75.0,175.0 125.0,210.0 l155.0,385.0 35.0,155.0 l0.0,220.0 " fill="none" stroke="black" stroke-width="1" /></svg>