<?xml version="1.0" encoding="utf-8" ?>
<svg baseProfile="full" height="1565.0" version="1.1" width="1165.0" xmlns="http://www.w3.org/2000/svg" xmlns:ev="http://www.w3.org/2001/xml-events" xmlns:xlink="http://www.w3.org/1999/xlink"><defs /><rect fill="white" height="1565.0" width="1165.0" x="0" y="0" /><path d="M190.0,765.0 m-110.0,225.0 l-55.0,225.0 5.0,195.0 l55.0,80.0 25.0,25.0 l75.0,25.0 55.0,0.0 l200.0,-50.0 410.0,20.0 l125.0,-120.0 80.0,-110.0 l50.0,-170.0 10.0,-295.0 l25.0,-150.0 0.0,-50.0 l-80.0,-30.0 -190.0,-115.0 l-195.0,-50.0 -160.0,0.0 l-130.0,35.0 -100.0,85.0 l-95.0,155.0 0.0,50.0 m480.0,-335.0 l0.0,-65.0 75.0,-170.0 l155.0,-150.0 25.0,0.0 l5.0,50.0 50.0,55.0 l-110.0,55.0 -140.0,145.0 l-20.0,50.0 0.0,-20.0 m-20.0,0.0 l-35.0,130.0 " fill="none" stroke="black" stroke-width="1" /></svg>