<?xml version="1.0" encoding="utf-8" ?>
<svg baseProfile="full" height="71.47492635529488" version="1.1" width="72.9033075645566" xmlns="http://www.w3.org/2000/svg" xmlns:ev="http://www.w3.org/2001/xml-events" xmlns:xlink="http://www.w3.org/1999/xlink"><defs /><rect fill="white" height="71.47492635529488" width="72.9033075645566" x="0" y="0" /><path d="M28.238705042749643,26.58456536475569 m-2.1525901556015015,4.553367793560028 l-0.8310344070196152,3.3470329642295837 -0.2550804801285267,3.099488914012909 l0.269564613699913,2.590443789958954 0.5809454619884491,1.4226023852825165 l1.39934703707695,1.8174025416374207 2.972046732902527,1.9566020369529724 l3.837312161922455,1.0141564905643463 4.290573000907898,0.08926407434046268 l3.5252761840820312,-0.9675983339548111 2.4672862887382507,-1.419159471988678 l1.8061372637748718,-1.92520871758461 1.2133894860744476,-2.4911610782146454 l0.5414293333888054,-3.0050036311149597 -0.06799091584980488,-2.9819777607917786 l-0.8384264260530472,-2.5207793712615967 -1.533380001783371,-2.216171771287918 l-2.063463479280472,-1.6721294820308685 -3.7359848618507385,-1.6306522488594055 l-2.9636377096176147,-0.574846900999546 -3.0762195587158203,-0.07023758720606565 l-2.689976990222931,0.5301900580525398 -2.3074792325496674,1.1812575161457062 l-1.4846283197402954,1.5363699197769165 m7.009207606315613,-1.7784515023231506 l0.05562197882682085,1.6457632184028625 0.0915968231856823,3.0716472864151 m3.15752774477005,-2.6330000162124634 l1.4615541696548462,-0.37465546280145645 0.432656854391098,0.5396299436688423 l0.03148802788928151,1.0298268496990204 -0.5327444896101952,0.9862372279167175 l1.242833137512207,0.25719035416841507 1.3804163038730621,-0.23024767637252808 m1.5698640048503876,0.17917443066835403 l0.5487700179219246,1.6827169060707092 -0.2713597007095814,1.2754970788955688 " fill="none" stroke="black" stroke-width="1" /></svg>