<?xml version="1.0" encoding="utf-8" ?>
<svg baseProfile="full" height="2990.0" version="1.1" width="1425.0" xmlns="http://www.w3.org/2000/svg" xmlns:ev="http://www.w3.org/2001/xml-events" xmlns:xlink="http://www.w3.org/1999/xlink"><defs /><rect fill="white" height="2990.0" width="1425.0" x="0" y="0" /><path d="M505.0,780.0 m540.0,-305.0 l100.0,645.0 0.0,220.0 l-15.0,215.0 -75.0,425.0 l-10.0,380.0 -135.0,-140.0 l-215.0,-165.0 -385.0,-200.0 l-180.0,-125.0 -95.0,-90.0 l-10.0,-55.0 10.0,-85.0 l80.0,-160.0 100.0,-110.0 l160.0,-130.0 600.0,-375.0 l250.0,-185.0 165.0,-185.0 l10.0,170.0 -150.0,455.0 l-550.0,1205.0 -20.0,-35.0 l-240.0,-875.0 -40.0,-195.0 l0.0,-410.0 60.0,-200.0 l140.0,-280.0 125.0,-130.0 l75.0,-35.0 80.0,190.0 l40.0,190.0 20.0,255.0 l-5.0,330.0 -230.0,925.0 l-200.0,495.0 -275.0,555.0 " fill="none" stroke="black" stroke-width="1" /></svg>