<?xml version="1.0" encoding="utf-8" ?>
<svg baseProfile="full" height="77.57327869534492" version="1.1" width="89.35135383158922" xmlns="http://www.w3.org/2000/svg" xmlns:ev="http://www.w3.org/2001/xml-events" xmlns:xlink="http://www.w3.org/1999/xlink"><defs /><rect fill="white" height="77.57327869534492" width="89.35135383158922" x="0" y="0" /><path d="M32.16991402907297,30.67516028881073 m11.350438594818115,-5.67516028881073 l-1.9134724140167236,13.512129783630371 0.026403332594782114,4.401644766330719 l-1.1278171837329865,5.087485909461975 -0.684698298573494,1.685449481010437 l-1.3840951025485992,1.5593436360359192 -1.97361558675766,0.993199422955513 l-2.3814909160137177,0.33402569591999054 -2.5096631050109863,-0.28427252545952797 l-2.211619019508362,-1.101793646812439 -1.8730045855045319,-1.8787932395935059 l-1.3825580477714539,-2.616024911403656 -0.9756398946046829,-4.468370974063873 l-0.12908180244266987,-5.1427096128463745 1.0896866768598557,-4.8382532596588135 l2.078605741262436,-4.018158912658691 1.27131849527359,-1.3524478673934937 l2.6955121755599976,-1.3248103857040405 4.653059542179108,-0.5399635806679726 m-0.6187740340828896,9.084510207176208 l4.076592922210693,-1.9099052250385284 9.208876490592957,-3.483038544654846 l5.570375919342041,-1.1821670085191727 4.561984837055206,-0.2025686576962471 l2.205653041601181,0.6934123486280441 1.891307532787323,1.9683150947093964 l0.6671544909477234,2.157317101955414 -0.1374848186969757,2.654027044773102 l-1.9147218763828278,3.4993448853492737 -2.28573277592659,2.3530182242393494 l-3.0357763171195984,2.001323848962784 -4.690385460853577,1.9426442682743073 l-5.128902196884155,1.123739406466484 -5.047385096549988,0.28313184157013893 l-5.513553023338318,-0.865916907787323 -2.182362526655197,-0.9800949692726135 " fill="none" stroke="black" stroke-width="1" /></svg>