<?xml version="1.0" encoding="utf-8" ?>
<svg baseProfile="full" height="1205.0" version="1.1" width="880.0" xmlns="http://www.w3.org/2000/svg" xmlns:ev="http://www.w3.org/2001/xml-events" xmlns:xlink="http://www.w3.org/1999/xlink"><defs /><rect fill="white" height="1205.0" width="880.0" x="0" y="0" /><path d="M420.0,500.0 m-80.0,-55.0 l-80.0,-25.0 -55.0,0.0 l-60.0,30.0 -50.0,105.0 l5.0,75.0 40.0,55.0 l80.0,45.0 10.0,20.0 l-160.0,135.0 -45.0,105.0 l30.0,125.0 40.0,40.0 l55.0,10.0 85.0,-20.0 l75.0,-55.0 50.0,-95.0 l20.0,-75.0 m10.0,235.0 l-40.0,-255.0 10.0,-465.0 l20.0,-105.0 60.0,-55.0 l90.0,35.0 115.0,140.0 l50.0,130.0 5.0,205.0 l-20.0,105.0 -40.0,105.0 l-130.0,155.0 -80.0,30.0 l-45.0,-15.0 m165.0,-900.0 l10.0,-85.0 60.0,-100.0 l75.0,-55.0 60.0,0.0 m-390.0,205.0 l-165.0,-60.0 -55.0,0.0 l-25.0,15.0 -30.0,85.0 m535.0,65.0 l30.0,-15.0 65.0,0.0 l95.0,90.0 40.0,115.0 l0.0,45.0 -35.0,80.0 " fill="none" stroke="black" stroke-width="1" /></svg>