<?xml version="1.0" encoding="utf-8" ?>
<svg baseProfile="full" height="71.16165804676712" version="1.1" width="71.01386199239641" xmlns="http://www.w3.org/2000/svg" xmlns:ev="http://www.w3.org/2001/xml-events" xmlns:xlink="http://www.w3.org/1999/xlink"><defs /><rect fill="white" height="71.16165804676712" width="71.01386199239641" x="0" y="0" /><path d="M32.13090860621378,31.84272963553667 m-1.7052018642425537,-1.0558656603097916 l-1.6982059180736542,-0.5401689559221268 -1.2159761786460876,0.03744020126760006 l-0.9879204630851746,0.6008139252662659 -0.9239652752876282,1.520395278930664 l-0.00019866378352162428,2.4893197417259216 1.1693426966667175,1.8520939350128174 l1.1094427853822708,0.7969727367162704 1.7179268598556519,0.3145148977637291 l-1.7376023530960083,0.7135645300149918 -1.5106436610221863,1.3599969446659088 l-1.0758215188980103,2.1278738975524902 -0.2720850519835949,1.654001921415329 l0.24089224636554718,1.2841615080833435 0.7619429379701614,0.8178655803203583 l1.225224807858467,0.3459479287266731 2.175813168287277,-0.4294951260089874 l1.5294985473155975,-1.1620602011680603 2.225196361541748,-3.833078145980835 m0.4643670469522476,-8.061344027519226 l-0.564253069460392,1.0761186480522156 -0.26647230610251427,3.424313962459564 l0.16504047438502312,4.210991859436035 0.7571568340063095,2.9060226678848267 l0.5502909421920776,0.4203435778617859 1.9809934496879578,-7.2882407903671265 l0.04802968818694353,-3.350764811038971 -0.38994062691926956,-1.882299780845642 l-0.7339441776275635,-0.9393367916345596 -0.8017637580633163,-0.12022281996905804 l-0.9477140754461288,0.7356859743595123 m3.0897030234336853,1.5185114741325378 l3.0117130279541016,-5.7184988260269165 1.9295251369476318,-1.9785670936107635 l1.5685029327869415,-0.6897377967834473 1.624431312084198,0.16824841499328613 l1.1615187674760818,1.4809401333332062 0.208109300583601,2.7243831753730774 l-1.3554804027080536,3.0761590600013733 -4.162566065788269,4.293251633644104 l-1.967134028673172,1.1497928202152252 m-2.211752086877823,0.0804821029305458 l1.600641906261444,-0.8305095136165619 2.3733587563037872,-0.7923963665962219 l3.1934362649917603,-0.588371641933918 0.9190943837165833,0.1395844854414463 l0.33983685076236725,0.7531455159187317 -1.0232777893543243,2.8157123923301697 l-1.3271312415599823,1.3217400014400482 -2.4214398860931396,1.2062234431505203 m-4.941318929195404,-8.68641197681427 l-2.2578442096710205,-2.8781071305274963 -1.3144470751285553,-1.3494788110256195 " fill="none" stroke="black" stroke-width="1" /></svg>