<?xml version="1.0" encoding="utf-8" ?>
<svg baseProfile="full" height="59.92529686041962" version="1.1" width="63.237883527302756" xmlns="http://www.w3.org/2000/svg" xmlns:ev="http://www.w3.org/2001/xml-events" xmlns:xlink="http://www.w3.org/1999/xlink"><defs /><rect fill="white" height="59.92529686041962" width="63.237883527302756" x="0" y="0" /><path d="M30.70011954857364,25.01269304077141 m-1.6411605477333069,-0.01269304077140987 l-2.40456759929657,1.7482304573059082 -1.0613027960062027,1.4918263256549835 l-0.5929941684007645,1.8004792928695679 -9.443713679502252e-05,1.6320914030075073 l0.5727027356624603,1.540190428495407 1.619429737329483,1.187078282237053 l2.4556198716163635,0.30025897547602654 2.4381835758686066,-0.9000737965106964 l1.5896052122116089,-1.4322051405906677 0.8780673146247864,-1.5670275688171387 l0.29035700485110283,-1.6380681097507477 -0.22860988974571228,-1.5155746042728424 l-1.1179957538843155,-1.6876333951950073 -1.2713129818439484,-0.8289901912212372 m-3.0590224266052246,3.7814953923225403 l-0.00023738062736811116,0.0011112324136774987 m0.8820802718400955,0.04511042032390833 l-1.0606023579384782e-05,0.001056558539858088 m0.5383646488189697,0.5247435718774796 l-0.00012779781172866933,0.0005034281275584362 m-1.4379329979419708,0.5592352896928787 l1.7211909592151642,-0.45631278306245804 m-2.650916874408722,-0.26052646338939667 l1.6671593487262726,-0.4250158742070198 m-2.3863643407821655,-0.2325168251991272 l1.7397280037403107,-0.9440940618515015 1.8874669075012207,-0.512453056871891 l3.1241053342819214,-0.12360484339296818 2.0292140543460846,0.6726378947496414 l1.3932518661022186,1.5240120887756348 0.5638877302408218,2.149829715490341 l-0.25334902107715607,1.3284976780414581 -0.8288282155990601,0.9111969172954559 l-3.542903959751129,1.2498082220554352 -5.325757265090942,-0.6465866416692734 " fill="none" stroke="black" stroke-width="1" /></svg>