<?xml version="1.0" encoding="utf-8" ?>
<svg baseProfile="full" height="645.0" version="1.1" width="700.0" xmlns="http://www.w3.org/2000/svg" xmlns:ev="http://www.w3.org/2001/xml-events" xmlns:xlink="http://www.w3.org/1999/xlink"><defs /><rect fill="white" height="645.0" width="700.0" x="0" y="0" /><path d="M400.0,135.0 m-80.0,0.0 l-130.0,85.0 -35.0,75.0 l-25.0,110.0 0.0,55.0 l15.0,85.0 105.0,65.0 l115.0,10.0 85.0,-20.0 l100.0,-60.0 55.0,-95.0 l20.0,-80.0 0.0,-80.0 l-35.0,-70.0 -45.0,-25.0 l-85.0,-5.0 m-70.0,220.0 l0.0,0.0 m-35.0,25.0 l0.0,0.0 m15.0,-10.0 l0.0,0.0 m-10.0,-15.0 l10.0,60.0 m-10.0,-45.0 l-10.0,-95.0 15.0,-20.0 m30.0,155.0 l175.0,-80.0 m-545.0,-35.0 l0.0,-70.0 195.0,-185.0 l90.0,-40.0 100.0,-25.0 l90.0,15.0 100.0,70.0 l45.0,60.0 30.0,90.0 " fill="none" stroke="black" stroke-width="1" /></svg>