<?xml version="1.0" encoding="utf-8" ?>
<svg baseProfile="full" height="1655.0" version="1.1" width="1875.0" xmlns="http://www.w3.org/2000/svg" xmlns:ev="http://www.w3.org/2001/xml-events" xmlns:xlink="http://www.w3.org/1999/xlink"><defs /><rect fill="white" height="1655.0" width="1875.0" x="0" y="0" /><path d="M830.0,975.0 m-95.0,-155.0 l-130.0,-115.0 -120.0,-55.0 l-145.0,-15.0 -75.0,0.0 l-80.0,25.0 -70.0,45.0 l-50.0,55.0 -40.0,160.0 l0.0,180.0 15.0,65.0 l30.0,70.0 115.0,150.0 l310.0,175.0 210.0,55.0 l145.0,15.0 340.0,0.0 l205.0,-65.0 185.0,-105.0 l235.0,-265.0 35.0,-225.0 l0.0,-95.0 -20.0,-40.0 l-105.0,-105.0 -125.0,-70.0 l-125.0,-35.0 -290.0,0.0 l-105.0,30.0 -235.0,125.0 l-100.0,90.0 -25.0,65.0 l40.0,-330.0 65.0,-225.0 l40.0,-85.0 50.0,-70.0 l75.0,-60.0 160.0,-90.0 l125.0,-50.0 " fill="none" stroke="black" stroke-width="1" /></svg>