<?xml version="1.0" encoding="utf-8" ?>
<svg baseProfile="full" height="81.3225026614964" version="1.1" width="87.15420326218009" xmlns="http://www.w3.org/2000/svg" xmlns:ev="http://www.w3.org/2001/xml-events" xmlns:xlink="http://www.w3.org/1999/xlink"><defs /><rect fill="white" height="81.3225026614964" width="87.15420326218009" x="0" y="0" /><path d="M41.18422247406215,42.51346454977465 m-1.8495680391788483,-3.1109651923179626 l-2.679128348827362,-2.522205412387848 -1.581321805715561,-0.976719856262207 l-2.817181944847107,-0.9296555072069168 -2.43707537651062,0.0004890373384114355 l-1.6251686215400696,0.5062557011842728 -1.3514472544193268,0.9879054874181747 l-1.0071402788162231,1.4000831544399261 -0.8361203968524933,2.6390373706817627 l-7.040735454211244e-05,3.2486769556999207 1.2101753056049347,3.3453163504600525 l1.473126858472824,2.308138608932495 1.874265968799591,1.8888676166534424 l4.707337319850922,2.8689712285995483 3.154342472553253,1.1514375358819962 l6.487295627593994,1.003129705786705 5.461822152137756,0.00027532681997399777 l7.81511664390564,-2.511497139930725 1.65312260389328,-1.1249160021543503 l2.1005694568157196,-2.5850898027420044 0.964154526591301,-2.57090300321579 l0.25287432596087456,-3.6465683579444885 -0.9102671593427658,-3.401140868663788 l-1.3644450902938843,-2.097862660884857 -1.6778233647346497,-1.4770188927650452 l-2.189103364944458,-1.036299616098404 -3.868754804134369,-0.6423567235469818 l-4.392650723457336,0.2753233537077904 -3.6494621634483337,1.3148200511932373 l-2.716688811779022,1.9210074841976166 0.15102814882993698,-4.085853695869446 l1.4304400980472565,-4.086836874485016 2.010812610387802,-2.8271380066871643 l2.5405138731002808,-1.8394847214221954 1.8598413467407227,-0.716928020119667 l2.1257980167865753,-0.1837591640651226 1.7101415991783142,0.7647642493247986 l0.6806205958127975,0.9885711967945099 " fill="none" stroke="black" stroke-width="1" /></svg>