<?xml version="1.0" encoding="utf-8" ?>
<svg baseProfile="full" height="72.80285065993667" version="1.1" width="73.70925091207027" xmlns="http://www.w3.org/2000/svg" xmlns:ev="http://www.w3.org/2001/xml-events" xmlns:xlink="http://www.w3.org/1999/xlink"><defs /><rect fill="white" height="72.80285065993667" width="73.70925091207027" x="0" y="0" /><path d="M34.590918333269656,30.62477651052177 m3.2315585017204285,-1.898932307958603 l1.7257587611675262,-0.3764548525214195 2.243773490190506,0.11187485419213772 l2.4951301515102386,1.1525828391313553 1.6992780566215515,1.4891444146633148 l1.70445516705513,2.650443911552429 0.9414120018482208,3.4390276670455933 l0.07696644868701696,2.2663989663124084 -0.45302294194698334,1.9557677209377289 l-1.7153704166412354,2.794656455516815 -1.7316606640815735,1.546829640865326 l-3.1705188751220703,1.4775674045085907 -4.070762395858765,0.56916743516922 l-4.136022329330444,-0.5082092806696892 -2.640831768512726,-1.0885848850011826 l-2.098509520292282,-1.5193000435829163 -2.1379324793815613,-2.797260880470276 l-1.0662321746349335,-2.4922169744968414 -0.4883873462677002,-3.529587686061859 l0.29490919783711433,-2.616383731365204 1.0294750332832336,-2.1689845621585846 l1.5240038931369781,-1.6972364485263824 1.6946661472320557,-0.9633989632129669 l1.632537692785263,-0.265743974596262 2.1689198911190033,0.547003373503685 l1.7834174633026123,1.602696180343628 0.8982838690280914,1.2938784062862396 l0.2160356380045414,-4.088728725910187 m-0.4274030774831772,2.765209376811981 l2.175857722759247,-3.1902381777763367 2.363011986017227,-2.0857636630535126 l0.3946763277053833,2.378825545310974 -0.8654718846082687,3.1820422410964966 l-1.4382719993591309,2.1518513560295105 -1.078352928161621,0.9548436105251312 l-0.7985464483499527,0.3073020279407501 " fill="none" stroke="black" stroke-width="1" /></svg>