<?xml version="1.0" encoding="utf-8" ?>
<svg baseProfile="full" height="1440.0" version="1.1" width="1275.0" xmlns="http://www.w3.org/2000/svg" xmlns:ev="http://www.w3.org/2001/xml-events" xmlns:xlink="http://www.w3.org/1999/xlink"><defs /><rect fill="white" height="1440.0" width="1275.0" x="0" y="0" /><path d="M580.0,605.0 m160.0,-95.0 l90.0,-25.0 85.0,0.0 l75.0,35.0 120.0,100.0 l95.0,125.0 40.0,125.0 l5.0,165.0 -55.0,150.0 l-105.0,120.0 -145.0,85.0 l-135.0,25.0 -230.0,0.0 l-215.0,-40.0 -155.0,-85.0 l-110.0,-115.0 -65.0,-145.0 l-10.0,-85.0 0.0,-120.0 l25.0,-85.0 105.0,-160.0 l90.0,-70.0 60.0,-20.0 l110.0,0.0 85.0,25.0 l115.0,120.0 -5.0,-390.0 l35.0,-220.0 m-415.0,640.0 l0.0,215.0 35.0,95.0 l45.0,55.0 50.0,5.0 l70.0,-80.0 40.0,-75.0 l25.0,220.0 " fill="none" stroke="black" stroke-width="1" /></svg>