<?xml version="1.0" encoding="utf-8" ?>
<svg baseProfile="full" height="2345.0" version="1.1" width="3690.0" xmlns="http://www.w3.org/2000/svg" xmlns:ev="http://www.w3.org/2001/xml-events" xmlns:xlink="http://www.w3.org/1999/xlink"><defs /><rect fill="white" height="2345.0" width="3690.0" x="0" y="0" /><path d="M535.0,700.0 m-75.0,-20.0 l-40.0,5.0 -140.0,60.0 l-200.0,205.0 -55.0,115.0 l10.0,75.0 55.0,75.0 l65.0,40.0 45.0,5.0 l730.0,-25.0 m-575.0,-545.0 l530.0,-5.0 400.0,-90.0 l40.0,20.0 m-500.0,635.0 l485.0,25.0 110.0,50.0 m-1080.0,-540.0 l-50.0,40.0 -5.0,45.0 l15.0,55.0 50.0,25.0 l50.0,-15.0 130.0,-65.0 l65.0,-60.0 25.0,-65.0 l-15.0,-65.0 m705.0,645.0 l60.0,35.0 40.0,75.0 l80.0,470.0 70.0,160.0 l130.0,215.0 40.0,40.0 l20.0,-5.0 10.0,-25.0 l20.0,-75.0 0.0,-90.0 l-40.0,-275.0 -65.0,-195.0 l10.0,-180.0 -5.0,-30.0 l-25.0,-20.0 m-340.0,-845.0 l145.0,-60.0 210.0,-145.0 l185.0,-80.0 275.0,-150.0 l105.0,-105.0 40.0,-15.0 l-130.0,235.0 -135.0,110.0 l-25.0,60.0 -140.0,145.0 l-80.0,125.0 -115.0,75.0 l300.0,50.0 485.0,35.0 l400.0,0.0 185.0,-15.0 l210.0,-40.0 m-1445.0,620.0 l160.0,-10.0 440.0,40.0 l735.0,-40.0 305.0,-55.0 l240.0,-85.0 m-480.0,-445.0 l0.0,-20.0 " fill="none" stroke="black" stroke-width="1" /></svg>