<?xml version="1.0" encoding="utf-8" ?>
<svg baseProfile="full" height="80.08970406459412" version="1.1" width="100.96030969198182" xmlns="http://www.w3.org/2000/svg" xmlns:ev="http://www.w3.org/2001/xml-events" xmlns:xlink="http://www.w3.org/1999/xlink"><defs /><rect fill="white" height="80.08970406459412" width="100.96030969198182" x="0" y="0" /><path d="M37.518057245761156,35.37262018366164 m-1.470605880022049,-0.4801461473107338 l-0.8485320955514908,0.018939650617539883 -2.921208441257477,1.545867919921875 l-5.778939723968506,4.864549934864044 -1.2499000877141953,1.7770716547966003 l-0.24887101724743843,1.331857144832611 0.4579481855034828,0.991939976811409 l1.2050911784172058,0.7202210277318954 5.245469808578491,0.9453905373811722 l8.043752908706665,-0.2706287056207657 6.75658106803894,-1.1122548580169678 m-11.111078262329102,-10.119712352752686 l1.8546992540359497,5.224568247795105 1.8165835738182068,4.671475291252136 m-1.0082434117794037,-5.04045307636261 l8.440725207328796,0.06660660728812218 4.754197597503662,0.1319155003875494 m-12.482552528381348,0.17065728083252907 l0.7701560109853745,2.8855574131011963 1.0898984968662262,3.7874600291252136 l1.1116688698530197,3.4749770164489746 1.2470825016498566,2.334742844104767 l1.155025139451027,1.0477019101381302 1.9551780819892883,0.7483654469251633 l2.5872039794921875,0.0004135866402066313 1.4310595393180847,-0.8082033693790436 l0.9098583459854126,-1.3592231273651123 0.6394023448228836,-3.1203755736351013 l0.02691757632419467,-5.656870603561401 -0.47094833105802536,-3.9149758219718933 m-11.534932851791382,-4.4867053627967834 l1.3168717920780182,-0.4342418909072876 2.6738637685775757,-1.130896508693695 l5.828834772109985,-2.7891531586647034 4.347765147686005,-1.7427605390548706 l3.6425426602363586,-1.0376477241516113 3.317807614803314,-0.4327515512704849 l2.8698018193244934,0.20788945257663727 2.808666229248047,1.0823903977870941 l2.451573610305786,2.132297158241272 1.62208691239357,2.9727765917778015 l0.6017675623297691,3.4131479263305664 -0.00018668102711671963,2.806788682937622 l-0.9860741347074509,2.871261239051819 -1.137974113225937,1.4912496507167816 l-2.5079646706581116,1.5824684500694275 -4.018039107322693,1.1761130392551422 l-6.072806715965271,0.0005023452104069293 -9.551113843917847,-1.5012888610363007 l-3.19119930267334,-0.9943405538797379 -2.2583338618278503,-1.3111628592014313 m-2.6383930444717407,-7.2449904680252075 l0.5836222320795059,-0.40115147829055786 3.4660017490386963,-2.027911990880966 l7.190691232681274,-4.299735128879547 5.012211799621582,-2.5993794202804565 l4.424480199813843,-1.6420577466487885 4.288904368877411,-0.8611311763525009 l3.637147545814514,-0.0296340836212039 3.0417844653129578,0.8590637892484665 l2.4866992235183716,1.8300150334835052 1.8594489991664886,2.9323244094848633 l0.9590771794319153,3.4315702319145203 -0.2951505035161972,5.712860822677612 m-35.07728338241577,1.4950962364673615 l-1.2582246959209442,0.9646511077880859 -1.814131885766983,2.746034264564514 m11.264123916625977,-3.786464035511017 l-1.0931693017482758,2.5073713064193726 " fill="none" stroke="black" stroke-width="1" /></svg>