<?xml version="1.0" encoding="utf-8" ?>
<svg baseProfile="full" height="2570.0" version="1.1" width="4630.0" xmlns="http://www.w3.org/2000/svg" xmlns:ev="http://www.w3.org/2001/xml-events" xmlns:xlink="http://www.w3.org/1999/xlink"><defs /><rect fill="white" height="2570.0" width="4630.0" x="0" y="0" /><path d="M885.0,835.0 m-835.0,-5.0 l-25.0,15.0 5.0,1270.0 l35.0,15.0 610.0,-10.0 m180.0,-1340.0 l10.0,-705.0 5.0,-30.0 l25.0,-20.0 3295.0,5.0 l205.0,15.0 50.0,10.0 l105.0,260.0 40.0,175.0 l0.0,300.0 15.0,145.0 l-5.0,1120.0 -3010.0,0.0 l-660.0,15.0 -20.0,40.0 l10.0,305.0 35.0,55.0 l105.0,65.0 60.0,10.0 l55.0,0.0 75.0,-70.0 l65.0,-105.0 45.0,-115.0 l-5.0,-170.0 -25.0,-50.0 l-95.0,-100.0 -75.0,-25.0 l-25.0,0.0 -15.0,50.0 l85.0,70.0 m3050.0,30.0 l-235.0,110.0 -155.0,115.0 l-40.0,55.0 -25.0,90.0 l10.0,55.0 30.0,15.0 l90.0,-5.0 170.0,-65.0 l170.0,-100.0 45.0,-50.0 l35.0,-85.0 5.0,-90.0 l-5.0,-35.0 -75.0,-110.0 l-120.0,-100.0 -85.0,-30.0 l-290.0,5.0 m-2545.0,-1390.0 l0.0,285.0 260.0,0.0 l45.0,-35.0 5.0,-50.0 l-35.0,-75.0 -5.0,-105.0 l-20.0,-25.0 -265.0,0.0 m875.0,65.0 l-10.0,285.0 300.0,20.0 l180.0,-5.0 5.0,-25.0 l-30.0,-85.0 -5.0,-255.0 l-605.0,5.0 m1440.0,10.0 l-100.0,195.0 0.0,50.0 l425.0,-5.0 85.0,-15.0 l-70.0,-145.0 -50.0,-35.0 l-55.0,-15.0 -470.0,-5.0 m950.0,40.0 l-20.0,60.0 0.0,105.0 l50.0,15.0 130.0,-15.0 l10.0,-25.0 -20.0,-50.0 l-65.0,-85.0 -105.0,0.0 l-15.0,15.0 " fill="none" stroke="black" stroke-width="1" /></svg>