<?xml version="1.0" encoding="utf-8" ?>
<svg baseProfile="full" height="75.65200991346501" version="1.1" width="199.36566643416882" xmlns="http://www.w3.org/2000/svg" xmlns:ev="http://www.w3.org/2001/xml-events" xmlns:xlink="http://www.w3.org/1999/xlink"><defs /><rect fill="white" height="75.65200991346501" width="199.36566643416882" x="0" y="0" /><path d="M56.762956492602825,27.47888416517526 m-17.069737911224365,-0.20874295383691788 l-14.630804061889648,1.9751650094985962 -0.04176038317382336,5.759205222129822 l1.4473427832126617,4.902614653110504 7.456432580947876,0.048046279698610306 l16.080995798110962,0.3264995664358139 6.538332104682922,-0.26993948966264725 l6.198635101318359,-0.09259484708309174 m-16.699174642562866,-14.352468252182007 l11.703348159790039,-0.37522856146097183 17.04704761505127,-0.14790491200983524 l14.194527864456177,-0.04353587981313467 9.869625568389893,0.516040101647377 l0.2149711176753044,7.253466844558716 0.5387449264526367,8.33712637424469 l-0.14999150298535824,5.646069049835205 -7.477967739105225,-0.33398836851119995 l-12.691265344619751,-0.05687302444130182 -11.22949481010437,0.07725848816335201 l-9.147310853004456,0.4857565090060234 m-11.880046129226685,-18.489644527435303 l-0.20527433604002,4.257835149765015 0.07140593603253365,6.155943274497986 l4.144742786884308,0.020821583457291126 14.203094244003296,-0.05322046112269163 l14.282382726669312,-0.2440652996301651 7.998528480529785,-0.6829823553562164 l5.7687908411026,-0.8106286078691483 0.33869441598653793,-0.5090660601854324 l-0.10135795921087265,-1.2548243999481201 -1.2980073690414429,-5.53072452545166 l-0.947558656334877,-1.4413000643253326 -1.839289516210556,-1.0632092505693436 l-3.013955056667328,-0.5817582085728645 -5.643807053565979,0.04919133149087429 l-15.9239661693573,1.86981201171875 -11.547139883041382,0.6833891570568085 l-6.360135078430176,0.3848710283637047 m8.995663523674011,-0.1828029751777649 l-0.05779626779258251,6.572108864784241 0.05523950792849064,5.223647952079773 m9.660166501998901,-12.016534805297852 l-0.03561209887266159,2.6862427592277527 0.12201136909425259,7.1710580587387085 m10.600690841674805,-10.851608514785767 l0.13890478760004044,2.4233944714069366 0.07950405590236187,6.782289743423462 m-20.684244632720947,-1.0845177620649338 l2.1020829677581787,0.13176129199564457 8.441848158836365,-0.3933487832546234 l9.666627049446106,-0.34783806651830673 9.351510405540466,-0.04228631965816021 l6.263672709465027,0.445377454161644 6.252260208129883,0.8056257665157318 l3.8442957401275635,0.013876353623345494 3.8070595264434814,0.6558579951524734 l3.9750123023986816,0.03683243179693818 3.0159690976142883,-0.4579203203320503 l3.7173202633857727,0.0713403383269906 2.661180794239044,-0.31654559075832367 l3.483341634273529,0.0974133051931858 4.425069093704224,0.8876519650220871 l3.3650368452072144,0.06528926081955433 2.742779850959778,-0.3757255896925926 l3.826616108417511,0.09644446894526482 3.312104642391205,-0.4446781054139137 l4.224518239498138,0.05916308145970106 3.2017728686332703,-0.31483378261327744 l3.3432188630104065,0.05347070749849081 2.841537594795227,-0.4473068192601204 l4.245835542678833,0.03269720356911421 2.8156617283821106,-0.4934457316994667 l4.3544963002204895,-0.01491617877036333 3.0275604128837585,-0.41855234652757645 l3.9375627040863037,0.018390556797385216 0.8927031606435776,0.31981348991394043 l0.9415062516927719,1.1657855659723282 0.4484226927161217,2.191699892282486 l-0.14540795236825943,2.2611239552497864 -0.5046338215470314,1.234937608242035 l-1.41852006316185,1.565011888742447 -2.2715574502944946,1.342618614435196 l-2.911916971206665,0.9927754104137421 -7.551925182342529,1.0586055368185043 l-10.223647356033325,1.1239617317914963 -10.580402612686157,0.7621502876281738 l-15.973570346832275,0.34340910613536835 -10.181132555007935,0.3155915439128876 l-14.128292798995972,0.16215719282627106 -15.205518007278442,-0.2466105856001377 l-15.251052379608154,-0.3758973628282547 -15.181041955947876,-0.5300592631101608 l-12.99873948097229,-0.5230267345905304 -8.252372145652771,-0.332319438457489 l-6.585935354232788,-0.530390590429306 " fill="none" stroke="black" stroke-width="1" /></svg>