<?xml version="1.0" encoding="utf-8" ?>
<svg baseProfile="full" height="107.92588040465489" version="1.1" width="106.44552752375603" xmlns="http://www.w3.org/2000/svg" xmlns:ev="http://www.w3.org/2001/xml-events" xmlns:xlink="http://www.w3.org/1999/xlink"><defs /><rect fill="white" height="107.92588040465489" width="106.44552752375603" x="0" y="0" /><path d="M50.18709972500801,47.83949384931475 m-2.072567641735077,-0.016256659291684628 l-1.4323730766773224,-0.32125309109687805 -9.877926111221313,0.5080372095108032 l-8.623279929161072,2.9105666279792786 -3.1809529662132263,3.332718312740326 l1.8712805211544037,0.8360980451107025 10.543402433395386,0.6788706034421921 l13.428962230682373,-0.1194672379642725 11.597926616668701,-0.40963128209114075 m-16.179064512252808,-7.66511857509613 l16.150845289230347,-1.5348322689533234 9.503926634788513,-0.41624628007411957 l9.528248310089111,-1.541052907705307 -0.46206019818782806,2.006298750638962 l-1.108657494187355,5.329122543334961 -1.4716804027557373,5.042273998260498 l-1.9442076981067657,3.4876957535743713 -1.469394713640213,1.2055564671754837 l-4.953946769237518,1.4391689002513885 -10.962085723876953,0.23572325706481934 l-3.7422794103622437,-0.7870496064424515 -5.375603437423706,-1.6726818680763245 m-3.598714768886566,-13.011287450790405 l0.054078493267297745,-2.9787424206733704 1.5266995131969452,-8.639712929725647 l2.9004454612731934,-9.736802577972412 0.7340116798877716,-1.0014891624450684 l0.566209964454174,0.030967744532972574 1.9364717602729797,2.7124610543251038 l3.206222951412201,7.75723934173584 1.9255153834819794,6.813830733299255 l1.2648576498031616,5.134715437889099 m-12.646700143814087,14.788711071014404 l-0.05051650106906891,6.5868306159973145 1.1339684575796127,9.577834606170654 l1.4911314845085144,3.7507817149162292 0.7654036581516266,0.7725080847740173 l1.473287045955658,-0.09472758509218693 1.2096790969371796,-1.3010816276073456 l2.66135573387146,-5.98002016544342 2.3050573468208313,-8.974145650863647 l0.7989582419395447,-4.994470775127411 m-9.822856783866882,-9.025976061820984 l-0.028789485804736614,1.1305829137563705 0.45958254486322403,1.3069209456443787 l0.8722203224897385,0.7232081145048141 1.502549648284912,0.0003623176962719299 l0.44229570776224136,-0.568854808807373 0.16111919656395912,-1.4685353636741638 l-0.7008405774831772,-1.5205687284469604 -1.7921151220798492,-0.30834319069981575 m6.050521731376648,0.6724035739898682 l0.02951638074591756,1.8771162629127502 " fill="none" stroke="black" stroke-width="1" /></svg>