<?xml version="1.0" encoding="utf-8" ?>
<svg baseProfile="full" height="2810.0" version="1.1" width="3485.0" xmlns="http://www.w3.org/2000/svg" xmlns:ev="http://www.w3.org/2001/xml-events" xmlns:xlink="http://www.w3.org/1999/xlink"><defs /><rect fill="white" height="2810.0" width="3485.0" x="0" y="0" /><path d="M1170.0,1160.0 m-100.0,0.0 l-75.0,-20.0 -480.0,0.0 l-335.0,100.0 -155.0,65.0 l45.0,160.0 855.0,135.0 l70.0,-10.0 m800.0,-385.0 l320.0,-50.0 285.0,-25.0 l510.0,-20.0 540.0,130.0 l10.0,105.0 -760.0,400.0 l-125.0,20.0 -460.0,-5.0 m-980.0,-690.0 l0.0,-215.0 -40.0,-145.0 l0.0,-435.0 45.0,-90.0 l55.0,-70.0 70.0,-50.0 l155.0,-40.0 240.0,0.0 l190.0,195.0 0.0,210.0 l-55.0,355.0 0.0,325.0 m-755.0,495.0 l-50.0,105.0 -5.0,140.0 l260.0,560.0 m10.0,15.0 l50.0,70.0 125.0,285.0 l105.0,5.0 60.0,-35.0 l55.0,-140.0 50.0,-230.0 l55.0,-170.0 35.0,-70.0 l80.0,-55.0 60.0,-70.0 l50.0,-150.0 0.0,-95.0 m130.0,-445.0 l-15.0,95.0 70.0,-40.0 l-85.0,-50.0 " fill="none" stroke="black" stroke-width="1" /></svg>