<?xml version="1.0" encoding="utf-8" ?>
<svg baseProfile="full" height="940.0" version="1.1" width="1370.0" xmlns="http://www.w3.org/2000/svg" xmlns:ev="http://www.w3.org/2001/xml-events" xmlns:xlink="http://www.w3.org/1999/xlink"><defs /><rect fill="white" height="940.0" width="1370.0" x="0" y="0" /><path d="M1170.0,140.0 m-30.0,-55.0 l-75.0,-40.0 -115.0,-20.0 l-170.0,5.0 -100.0,10.0 l-275.0,70.0 -310.0,155.0 l-50.0,65.0 -20.0,135.0 l55.0,200.0 100.0,105.0 l110.0,50.0 75.0,15.0 l315.0,30.0 270.0,-25.0 l195.0,-65.0 80.0,-45.0 l55.0,-55.0 40.0,-75.0 l25.0,-155.0 -20.0,-130.0 l-25.0,-55.0 -40.0,-45.0 l-110.0,-60.0 -105.0,-40.0 l-140.0,-25.0 m-780.0,585.0 l35.0,20.0 165.0,40.0 l610.0,0.0 100.0,-30.0 l290.0,-190.0 m-560.0,255.0 l-145.0,20.0 -30.0,20.0 l-10.0,35.0 45.0,55.0 l35.0,15.0 85.0,-5.0 l75.0,-30.0 15.0,-25.0 l0.0,-45.0 -25.0,-40.0 l-120.0,-40.0 " fill="none" stroke="black" stroke-width="1" /></svg>