<?xml version="1.0" encoding="utf-8" ?>
<svg baseProfile="full" height="66.69848359875687" version="1.1" width="76.65760051835605" xmlns="http://www.w3.org/2000/svg" xmlns:ev="http://www.w3.org/2001/xml-events" xmlns:xlink="http://www.w3.org/1999/xlink"><defs /><rect fill="white" height="66.69848359875687" width="76.65760051835605" x="0" y="0" /><path d="M48.89682393356907,27.900379449129105 m-0.6158030405640602,-1.1465003341436386 l-1.352662593126297,-0.8431591838598251 -1.9156502187252045,-0.5789019912481308 l-3.9159831404685974,-0.33181793987751007 -4.532890617847443,0.43623942881822586 l-3.0567210912704468,0.8894705027341843 -4.005692899227142,2.06657737493515 l-3.098628520965576,2.7467501163482666 -1.402730941772461,2.850920855998993 l-6.0869601838930976e-05,2.2184352576732635 2.0861533284187317,2.5273868441581726 l1.5030845999717712,0.9144352376461029 4.795968532562256,1.5681487321853638 l3.1825286149978638,0.4798920452594757 4.606481194496155,0.00022720299966749735 l1.8649038672447205,-0.273821372538805 4.3405598402023315,-1.5563121438026428 l2.3101969063282013,-1.536358892917633 1.3317914307117462,-1.6507281363010406 l0.6357605010271072,-1.80263951420784 0.00017170239516417496,-2.537449896335602 l-0.7480471581220627,-1.9788940250873566 -1.2832944095134735,-1.6878320276737213 l-1.7342980206012726,-1.276022344827652 -3.19690078496933,-1.1481693387031555 l-2.812376916408539,-0.44247012585401535 m-4.554811418056488,1.6459493339061737 l0.07271652109920979,5.854257941246033 -0.11015723459422588,4.677705764770508 l8.576688766479492,-0.06909274961799383 4.277982413768768,-0.071042999625206 l1.2309204041957855,-0.010371458483859897 m-14.85689640045166,-7.91539192199707 l-1.1167297512292862,-0.3207292780280113 -0.7056757807731628,0.25678833946585655 l-0.37626855075359344,0.6390895694494247 0.14962255954742432,0.776170939207077 l0.5841964855790138,0.3413143754005432 1.4443828165531158,0.07959028705954552 l1.1075853556394577,-0.44735681265592575 0.5850403755903244,-0.777256190776825 l0.0001653263643675018,-0.792679637670517 -0.6607446819543839,-0.5885898321866989 l-1.416039615869522,0.0003726629074662924 " fill="none" stroke="black" stroke-width="1" /></svg>