<?xml version="1.0" encoding="utf-8" ?>
<svg baseProfile="full" height="2170.0" version="1.1" width="5135.0" xmlns="http://www.w3.org/2000/svg" xmlns:ev="http://www.w3.org/2001/xml-events" xmlns:xlink="http://www.w3.org/1999/xlink"><defs /><rect fill="white" height="2170.0" width="5135.0" x="0" y="0" /><path d="M1065.0,1105.0 m815.0,-110.0 l430.0,-100.0 455.0,-55.0 l840.0,-150.0 240.0,-5.0 l420.0,-60.0 685.0,-5.0 l150.0,35.0 10.0,25.0 l-45.0,80.0 -205.0,175.0 l-145.0,80.0 -195.0,75.0 l-285.0,70.0 -350.0,-5.0 l-615.0,25.0 -470.0,60.0 l-385.0,80.0 -675.0,40.0 l-675.0,85.0 -450.0,15.0 l-35.0,-10.0 5.0,-25.0 l95.0,-50.0 300.0,-235.0 l110.0,-20.0 10.0,-30.0 l-70.0,-150.0 -225.0,-200.0 l-100.0,-205.0 -15.0,-140.0 l-40.0,5.0 -45.0,40.0 l-185.0,250.0 -145.0,255.0 l-195.0,430.0 -55.0,190.0 l0.0,25.0 295.0,-80.0 l105.0,15.0 95.0,-25.0 m1195.0,-520.0 l145.0,-180.0 250.0,-220.0 l340.0,-360.0 260.0,-195.0 l-185.0,810.0 m-825.0,550.0 l75.0,80.0 215.0,315.0 l40.0,120.0 55.0,90.0 l85.0,80.0 30.0,50.0 l55.0,25.0 60.0,-145.0 l55.0,-305.0 75.0,-190.0 l40.0,-210.0 " fill="none" stroke="black" stroke-width="1" /></svg>