<?xml version="1.0" encoding="utf-8" ?>
<svg baseProfile="full" height="99.97731104493141" version="1.1" width="143.77654999494553" xmlns="http://www.w3.org/2000/svg" xmlns:ev="http://www.w3.org/2001/xml-events" xmlns:xlink="http://www.w3.org/1999/xlink"><defs /><rect fill="white" height="99.97731104493141" width="143.77654999494553" x="0" y="0" /><path d="M38.66951325908303,46.85062200804168 m16.349879503250122,-2.2649240493774414 l10.159523487091064,-2.224292606115341 11.126935482025146,-2.0190823078155518 l16.280393600463867,-3.231600522994995 8.0292409658432,-1.0614050179719925 l5.593303442001343,0.00017779066183720715 5.308862924575806,0.5823395773768425 l4.641188979148865,1.3308748602867126 1.7000913619995117,0.9413070976734161 l0.7543077319860458,1.0147446393966675 0.1633092574775219,1.8979178369045258 l-0.8510372042655945,1.3365453481674194 -1.7985901236534119,1.2338436394929886 l-7.750974893569946,2.372346669435501 -9.880388379096985,2.0608845353126526 l-10.816751718521118,1.8533815443515778 -9.273409843444824,1.5796607732772827 l-20.371286869049072,2.5728124380111694 -7.023410201072693,0.7239000499248505 l-11.53249979019165,1.2283919006586075 -8.174033761024475,0.6362029910087585 l-2.6463159918785095,-0.3673598915338516 -1.7737354338169098,-0.90102918446064 l-1.0324905812740326,-1.2279662489891052 -0.8516252040863037,-2.668159604072571 l0.28272872790694237,-3.466961979866028 1.0605426132678986,-2.047891914844513 l1.535673588514328,-1.3641925156116486 2.9638490080833435,-1.2147780507802963 l5.095708966255188,-0.7485379278659821 4.972001910209656,-0.19392291083931923 l4.616983532905579,0.03121684305369854 5.294557809829712,0.001856869348557666 l5.018577575683594,-0.6274009495973587 4.739991724491119,-0.846422016620636 l6.435235142707825,-1.5685075521469116 m0.5247712507843971,4.337461292743683 l-0.9242544323205948,0.5879531428217888 -5.625442862510681,6.459009647369385 l-10.417709350585938,14.435257911682129 -1.138329729437828,2.6685646176338196 l-0.9380528330802917,4.916793406009674 0.49245551228523254,0.9023380279541016 l1.4177608489990234,0.46534083783626556 6.140733361244202,-0.6393629312515259 l3.080580234527588,-1.3563509285449982 7.480593323707581,-6.20672881603241 l5.407887101173401,-6.4010268449783325 4.074431955814362,-5.915498733520508 l5.378466248512268,-7.834454774856567 m-10.313079357147217,-6.296507716178894 l2.093540132045746,-4.3946316838264465 2.7172383666038513,-4.691149890422821 l2.971561551094055,-3.836943507194519 2.8326383233070374,-2.4046552181243896 l0.7534186542034149,0.0072255905251950026 1.289542317390442,6.834381818771362 l0.4624950885772705,4.979863464832306 -0.364578440785408,3.7987887859344482 " fill="none" stroke="black" stroke-width="1" /></svg>