<?xml version="1.0" encoding="utf-8" ?>
<svg baseProfile="full" height="1455.0" version="1.1" width="2410.0" xmlns="http://www.w3.org/2000/svg" xmlns:ev="http://www.w3.org/2001/xml-events" xmlns:xlink="http://www.w3.org/1999/xlink"><defs /><rect fill="white" height="1455.0" width="2410.0" x="0" y="0" /><path d="M300.0,1140.0 m-50.0,50.0 l-20.0,125.0 25.0,60.0 l35.0,30.0 25.0,15.0 l80.0,10.0 140.0,-35.0 l90.0,-65.0 50.0,-75.0 l15.0,-100.0 -70.0,-60.0 l-140.0,-30.0 -95.0,0.0 l-100.0,55.0 m1475.0,-80.0 l-40.0,45.0 0.0,130.0 l75.0,140.0 105.0,60.0 l100.0,0.0 90.0,-40.0 l90.0,-100.0 10.0,-60.0 l-10.0,-35.0 -120.0,-125.0 l-120.0,-50.0 -110.0,0.0 l-120.0,40.0 m-990.0,195.0 l125.0,-35.0 660.0,20.0 l245.0,-40.0 m455.0,15.0 l160.0,20.0 20.0,-235.0 l0.0,-120.0 -40.0,-145.0 l-115.0,-295.0 m50.0,-35.0 l-110.0,-300.0 m-1900.0,1105.0 l-45.0,-20.0 -180.0,-20.0 l-20.0,-30.0 25.0,-365.0 l0.0,-350.0 -25.0,-230.0 l170.0,-35.0 745.0,-70.0 l615.0,-5.0 785.0,-45.0 l10.0,30.0 -5.0,515.0 l10.0,205.0 -20.0,110.0 m-1940.0,-480.0 l5.0,280.0 40.0,25.0 l280.0,0.0 70.0,-45.0 l20.0,-155.0 -35.0,-110.0 l-35.0,-55.0 -90.0,-35.0 l-230.0,10.0 m605.0,-20.0 l25.0,130.0 10.0,270.0 l85.0,45.0 335.0,-30.0 l-55.0,-175.0 -30.0,-160.0 l-65.0,-80.0 -40.0,-15.0 l-65.0,5.0 -135.0,60.0 l-45.0,40.0 m605.0,-95.0 l25.0,-5.0 40.0,25.0 l-35.0,295.0 10.0,70.0 l30.0,30.0 80.0,10.0 l140.0,-15.0 90.0,10.0 " fill="none" stroke="black" stroke-width="1" /></svg>