<?xml version="1.0" encoding="utf-8" ?>
<svg baseProfile="full" height="79.6015152320615" version="1.1" width="108.44808820169419" xmlns="http://www.w3.org/2000/svg" xmlns:ev="http://www.w3.org/2001/xml-events" xmlns:xlink="http://www.w3.org/1999/xlink"><defs /><rect fill="white" height="79.6015152320615" width="108.44808820169419" x="0" y="0" /><path d="M30.435829176567495,48.54971969820326 m-1.0536239296197891,0.9799311310052872 l-0.47257158905267715,1.4242622256278992 0.10839697904884815,1.3954348862171173 l0.6477830559015274,0.8493037521839142 1.4279597997665405,0.682518258690834 l2.001103311777115,0.1328257191926241 1.733088344335556,-0.55738665163517 l1.4214470982551575,-1.3325832784175873 0.6320960074663162,-1.7418350279331207 l-0.19727157428860664,-1.8976426124572754 -1.1538391560316086,-1.2344565987586975 l-1.8871620297431946,-0.6498222798109055 -2.183775305747986,0.0630732299759984 l-0.958847850561142,0.5430873483419418 m31.72694206237793,0.5801898613572121 l-1.645994782447815,0.4715494066476822 -0.95653235912323,0.8175405114889145 l-0.6915813684463501,1.7786991596221924 0.266032200306654,1.8925370275974274 l0.7626087963581085,0.8521060645580292 1.8121807277202606,0.784934014081955 l2.3541180789470673,0.21752938628196716 2.0860320329666138,-0.37133291363716125 l1.6755597293376923,-1.1085718870162964 0.9919045120477676,-1.6322576999664307 l0.09289868175983429,-1.4775912463665009 -0.8479572087526321,-1.515728384256363 l-1.8731755018234253,-1.2870906293392181 -2.451059967279434,-0.6415639072656631 l-2.7276623249053955,0.003953101404476911 m-34.36692476272583,1.6578879952430725 l9.801154732704163,-0.0454529095441103 6.841889023780823,-0.2487223967909813 l7.231428623199463,-0.17180880531668663 6.5916526317596436,0.014786456013098359 l5.547962188720703,-0.19198186695575714 4.830910563468933,-0.040821717120707035 l4.118426740169525,-0.2906854450702667 4.231632351875305,0.047497693449258804 l3.62538605928421,-0.3236827999353409 3.833027184009552,0.08395262993872166 l0.08661721833050251,-5.718846321105957 -0.8947905153036118,-5.963191986083984 l-1.3115423917770386,-5.987052321434021 -1.1892321705818176,-2.018432915210724 l-1.9060690701007843,-1.2901701033115387 -2.848271429538727,-0.7959827780723572 l-5.423859357833862,-0.2886240743100643 -9.019721150398254,0.6707156449556351 l-11.6869056224823,0.5796237662434578 -10.530736446380615,0.9258507192134857 l-7.920500040054321,1.1111918091773987 -2.1402092278003693,0.7261183857917786 l-1.2791258096694946,0.8869865536689758 -1.4143067598342896,2.132897228002548 l-0.8343766629695892,2.904129922389984 -0.048441546969115734,8.265178203582764 l0.45863308012485504,1.8800529837608337 m14.511945247650146,-13.544461727142334 l0.03856834024190903,3.2783448696136475 0.03388064680621028,3.3688637614250183 l2.4164949357509613,0.1580062322318554 3.9399170875549316,-0.4059622436761856 l4.57766056060791,-0.15373650938272476 0.32725851982831955,-0.5657093226909637 l-0.7365863025188446,-5.452784895896912 -5.097618103027344,-0.2864764630794525 l-3.63048255443573,0.24108249694108963 m15.448840856552124,-0.8466799557209015 l-0.23025240749120712,2.245800495147705 -0.02089065732434392,3.812737464904785 l0.5887812376022339,0.3808164596557617 4.731962978839874,-0.08226821199059486 l6.871893405914307,-0.1924065686762333 0.3941432014107704,-0.5071987584233284 l-0.380958616733551,-4.7950103878974915 -5.20774781703949,-0.2091190591454506 l-4.7785526514053345,0.37860382348299026 m13.27396273612976,-1.5790733695030212 l-0.15031871385872364,5.4009175300598145 0.47685708850622177,0.4160245880484581 l4.323533475399017,-0.05595249589532614 3.591269552707672,-0.4673200473189354 l0.3247133269906044,-0.5193986743688583 -0.9438467770814896,-4.285048544406891 l-1.5415982902050018,-0.24954358115792274 -4.905290305614471,0.6625490635633469 " fill="none" stroke="black" stroke-width="1" /></svg>