<?xml version="1.0" encoding="utf-8" ?>
<svg baseProfile="full" height="1175.0" version="1.1" width="2325.0" xmlns="http://www.w3.org/2000/svg" xmlns:ev="http://www.w3.org/2001/xml-events" xmlns:xlink="http://www.w3.org/1999/xlink"><defs /><rect fill="white" height="1175.0" width="2325.0" x="0" y="0" /><path d="M65.0,75.0 m65.0,60.0 l410.0,285.0 380.0,350.0 l135.0,85.0 100.0,40.0 l55.0,5.0 m-1130.0,-825.0 l-55.0,185.0 0.0,55.0 l40.0,55.0 205.0,185.0 l210.0,175.0 235.0,140.0 l215.0,90.0 245.0,55.0 m-15.0,-135.0 l0.0,115.0 m10.0,-115.0 l365.0,40.0 45.0,90.0 l35.0,120.0 -10.0,20.0 m-130.0,-220.0 l0.0,140.0 m50.0,-85.0 l-10.0,5.0 m25.0,50.0 l-15.0,5.0 m-370.0,-35.0 l340.0,95.0 165.0,15.0 m-60.0,-225.0 l145.0,-5.0 95.0,-35.0 l205.0,-175.0 65.0,-75.0 l30.0,-155.0 -5.0,-270.0 l-70.0,-155.0 m-425.0,1090.0 l115.0,0.0 165.0,-50.0 l135.0,-70.0 65.0,-70.0 l80.0,-115.0 55.0,-140.0 l35.0,-175.0 10.0,-145.0 " fill="none" stroke="black" stroke-width="1" /></svg>