<?xml version="1.0" encoding="utf-8" ?>
<svg baseProfile="full" height="73.82164068520069" version="1.1" width="76.6207883018069" xmlns="http://www.w3.org/2000/svg" xmlns:ev="http://www.w3.org/2001/xml-events" xmlns:xlink="http://www.w3.org/1999/xlink"><defs /><rect fill="white" height="73.82164068520069" width="76.6207883018069" x="0" y="0" /><path d="M25,32.08030328154564 m1.2971940636634827,1.1829433590173721 l8.811471462249756,5.530481338500977 8.532273173332214,5.808249115943909 l3.844026029109955,2.673255503177643 2.486535608768463,1.546408087015152 m-23.790454864501953,-17.04553484916687 l0.3545139357447624,0.9784997254610062 2.08467036485672,2.701483368873596 l3.1266987323760986,3.1814205646514893 3.8580265641212463,2.85861998796463 l4.346990287303925,2.4078278243541718 4.435889720916748,1.834997981786728 l4.094251394271851,1.1545348912477493 m-15.744140148162842,-5.654439330101013 l2.9883229732513428,1.0754741728305817 3.953900933265686,1.658744215965271 l3.4597140550613403,1.30813866853714 m-2.642807364463806,-1.90483957529068 l4.729481637477875,1.4550542831420898 m-6.241918206214905,-3.4154367446899414 l3.7887680530548096,0.7873637974262238 m-3.354610800743103,-3.353767693042755 l0.46132877469062805,0.6171314045786858 2.6892462372779846,2.8308844566345215 l2.0707038044929504,2.4397435784339905 1.7112354934215546,2.1475546061992645 m-8.162819743156433,-8.715226650238037 l-0.03511764341965318,1.3696026802062988 -0.14128872193396091,3.1012508273124695 l-0.13523525558412075,2.8920146822929382 0.011617010459303856,1.7403163015842438 m1.0368113964796066,-11.322627067565918 l4.1492849588394165,-4.257473051548004 2.533316910266876,-1.8806840479373932 l1.7822323739528656,-0.7020226866006851 2.1793244779109955,-0.1969643123447895 l2.051350623369217,0.6281410157680511 m-14.559931755065918,5.751059651374817 l-0.9423581510782242,-1.8482193350791931 -1.3379748165607452,-2.354344427585602 l-1.4432355761528015,-1.9789773225784302 -1.6499030590057373,-1.7751243710517883 l-1.8866205215454102,-1.3430628180503845 -2.0453406870365143,-0.8349055796861649 l-1.886119544506073,-0.1578495092689991 -0.275845043361187,1.0775662958621979 l0.462104007601738,1.5184381604194641 " fill="none" stroke="black" stroke-width="1" /></svg>