<?xml version="1.0" encoding="utf-8" ?>
<svg baseProfile="full" height="1775.0" version="1.1" width="1465.0" xmlns="http://www.w3.org/2000/svg" xmlns:ev="http://www.w3.org/2001/xml-events" xmlns:xlink="http://www.w3.org/1999/xlink"><defs /><rect fill="white" height="1775.0" width="1465.0" x="0" y="0" /><path d="M760.0,625.0 m-315.0,5.0 l-275.0,120.0 -65.0,80.0 l-80.0,370.0 0.0,160.0 l65.0,165.0 40.0,60.0 l105.0,90.0 50.0,25.0 l345.0,50.0 270.0,-5.0 l70.0,-20.0 295.0,-180.0 l50.0,-45.0 75.0,-125.0 l35.0,-135.0 15.0,-250.0 l-65.0,-145.0 -115.0,-165.0 l-70.0,-60.0 -95.0,-40.0 l-355.0,-10.0 -30.0,25.0 m-10.0,50.0 l-15.0,-540.0 -110.0,-20.0 l-55.0,-30.0 -15.0,-30.0 m175.0,305.0 " fill="none" stroke="black" stroke-width="1" /></svg>