<?xml version="1.0" encoding="utf-8" ?>
<svg baseProfile="full" height="78.99639821716846" version="1.1" width="77.34407179057598" xmlns="http://www.w3.org/2000/svg" xmlns:ev="http://www.w3.org/2001/xml-events" xmlns:xlink="http://www.w3.org/1999/xlink"><defs /><rect fill="white" height="78.99639821716846" width="77.34407179057598" x="0" y="0" /><path d="M39.9361115694046,31.40983497542038 m-6.195623278617859,0.07907374761998653 l-5.861146450042725,2.75695264339447 -1.2693354487419128,1.5076875686645508 l-1.6100063920021057,6.335530877113342 0.11455729603767395,4.445939064025879 l1.0498374700546265,2.979787588119507 0.7789287716150284,1.1594180762767792 l2.51987487077713,2.0154115557670593 1.3628904521465302,0.5871960148215294 l4.062528610229492,0.7192965596914291 4.380940794944763,0.0002695462535484694 l4.67813640832901,-0.7757583260536194 1.5462598204612732,-0.635850578546524 l5.257595777511597,-4.881463050842285 0.9270880371332169,-1.7875227332115173 l0.66543348133564,-3.2841482758522034 -0.0004531751255854033,-3.6723607778549194 l-1.211627870798111,-2.9465338587760925 -1.9526228308677673,-2.4577531218528748 l-2.7910754084587097,-1.826808899641037 -3.069879412651062,-0.8404189348220825 l-3.3866500854492188,0.0006017031773808412 -3.191717565059662,0.3678649291396141 m0.5259115621447563,-0.05456449929624796 l-0.39687134325504303,-2.9269427061080933 -1.541217714548111,-3.27473908662796 l0.0017670252418611199,3.064579963684082 m2.6739314198493958,0.28234025463461876 l5.244923830032349,-2.1813462674617767 " fill="none" stroke="black" stroke-width="1" /></svg>