<?xml version="1.0" encoding="utf-8" ?>
<svg baseProfile="full" height="71.61810211837292" version="1.1" width="79.29046998731792" xmlns="http://www.w3.org/2000/svg" xmlns:ev="http://www.w3.org/2001/xml-events" xmlns:xlink="http://www.w3.org/1999/xlink"><defs /><rect fill="white" height="71.61810211837292" width="79.29046998731792" x="0" y="0" /><path d="M54.29046998731792,35.04092801362276 m-2.5663092732429504,-0.18075298517942429 l-4.667470455169678,-0.9499473124742508 -2.4889738857746124,-0.5556193366646767 l-2.633296847343445,-1.2342388182878494 -0.6517566740512848,-3.522447347640991 l-0.12582017108798027,-1.4415331184864044 0.112541439011693,-1.7414020001888275 l-0.9175261855125427,-0.41498709470033646 -3.1655269861221313,0.5156812816858292 l-4.282625317573547,1.7239107191562653 -1.6903181374073029,1.3323934376239777 l-0.7936681807041168,1.454756259918213 -0.16627075150609016,3.328751027584076 l0.5317451804876328,2.0354075729846954 -1.128220409154892,1.7199747264385223 l-2.882377803325653,1.6299523413181305 -1.250474601984024,1.2365343421697617 l-0.5241209268569946,1.2600065767765045 0.1513204351067543,1.8566597998142242 l0.8786843717098236,1.3058751821517944 1.565709263086319,0.9729272127151489 l8.048513531684875,1.2452716380357742 4.721822738647461,-8.568825251131784e-05 l4.261113703250885,-0.8303007483482361 1.7907696962356567,-1.0095412284135818 l0.7957402616739273,-1.7243260145187378 0.8040002733469009,-8.700399994850159 l0.6157158315181732,-3.187110126018524 0.537748709321022,-0.9937520325183868 l0.37641752511262894,0.42272526770830154 1.7673172056674957,5.145612359046936 l0.3353116661310196,3.38093638420105 -0.45931078493595123,1.875559389591217 l-0.9188973903656006,1.1025335639715195 -1.0112854838371277,0.35974137485027313 m-5.589154362678528,-4.5932793617248535 l-0.5082026124000549,0.057448423467576504 -0.3442658856511116,0.7741141319274902 l0.32392650842666626,1.1551334708929062 1.105937585234642,0.3929111734032631 l0.5075321346521378,-0.41868098080158234 -0.0008419808000326157,-0.9489164501428604 l-0.5119471251964569,-0.4750962555408478 -1.1207281053066254,0.030547103378921747 m-1.3097965717315674,-0.6539390236139297 l-1.1407101899385452,0.34109901636838913 -0.8284445106983185,0.9069962054491043 l-0.00016165946362889372,0.9833896905183792 0.6973676383495331,0.6208581477403641 l1.5372319519519806,4.279293079889612e-05 0.5658399313688278,-0.45170579105615616 l0.3177310526371002,-1.1693954467773438 -0.3243448957800865,-0.9838791191577911 l-0.8403991907835007,-0.5538365617394447 -1.2773455679416656,0.00010266475328535307 m0.4463638365268707,-0.20056840032339096 l-2.618911564350128,0.9473869949579239 -0.9322711825370789,1.2011515349149704 l-0.06034569349139929,0.9704567492008209 0.6604290753602982,0.6779466569423676 l1.9781920313835144,0.5213290080428123 2.551005482673645,-0.2539297007024288 l1.24120332300663,-0.7851528376340866 0.4602627828717232,-1.009969636797905 l-0.3282815217971802,-1.43089160323143 -1.0370556265115738,-0.9167654812335968 l-1.505117267370224,-0.48224136233329773 -2.274908423423767,-3.276738425483927e-05 " fill="none" stroke="black" stroke-width="1" /></svg>