<?xml version="1.0" encoding="utf-8" ?>
<svg baseProfile="full" height="1530.0" version="1.1" width="1790.0" xmlns="http://www.w3.org/2000/svg" xmlns:ev="http://www.w3.org/2001/xml-events" xmlns:xlink="http://www.w3.org/1999/xlink"><defs /><rect fill="white" height="1530.0" width="1790.0" x="0" y="0" /><path d="M1650.0,725.0 m-135.0,-10.0 l-220.0,-55.0 -200.0,0.0 l-20.0,-10.0 -50.0,-395.0 l-50.0,-165.0 -55.0,-65.0 l-75.0,20.0 -105.0,110.0 l-30.0,65.0 -30.0,110.0 l-30.0,280.0 -20.0,15.0 l-495.0,130.0 -65.0,35.0 l-45.0,60.0 15.0,90.0 l30.0,40.0 55.0,30.0 l195.0,55.0 165.0,-30.0 l40.0,10.0 65.0,340.0 l110.0,120.0 45.0,0.0 l135.0,-130.0 215.0,-455.0 l515.0,55.0 60.0,0.0 l55.0,-30.0 40.0,-85.0 l0.0,-85.0 -45.0,-50.0 l-90.0,-25.0 m-140.0,65.0 l-60.0,10.0 -80.0,50.0 l5.0,35.0 55.0,50.0 l30.0,10.0 65.0,-10.0 l40.0,-60.0 -10.0,-55.0 l-20.0,-20.0 -55.0,0.0 m-1060.0,20.0 l-115.0,15.0 -50.0,35.0 l5.0,35.0 35.0,40.0 l55.0,15.0 25.0,-5.0 l70.0,-70.0 -5.0,-25.0 l-30.0,-15.0 -80.0,-5.0 m490.0,-80.0 l-40.0,5.0 -35.0,25.0 l-20.0,50.0 0.0,55.0 l55.0,45.0 110.0,-15.0 l45.0,-70.0 -15.0,-70.0 l-35.0,-25.0 -85.0,0.0 " fill="none" stroke="black" stroke-width="1" /></svg>