<?xml version="1.0" encoding="utf-8" ?>
<svg baseProfile="full" height="2440.0" version="1.1" width="2520.0" xmlns="http://www.w3.org/2000/svg" xmlns:ev="http://www.w3.org/2001/xml-events" xmlns:xlink="http://www.w3.org/1999/xlink"><defs /><rect fill="white" height="2440.0" width="2520.0" x="0" y="0" /><path d="M1540.0,450.0 m-35.0,-35.0 l-120.0,-30.0 -310.0,-15.0 l-210.0,55.0 -180.0,80.0 l-240.0,150.0 -170.0,130.0 l-90.0,95.0 -105.0,165.0 l-45.0,100.0 -10.0,175.0 l30.0,165.0 75.0,135.0 l130.0,180.0 195.0,170.0 l370.0,255.0 270.0,130.0 l210.0,50.0 150.0,10.0 l455.0,0.0 130.0,-35.0 l215.0,-120.0 105.0,-110.0 l55.0,-105.0 70.0,-200.0 l10.0,-645.0 -45.0,-130.0 l-140.0,-215.0 -50.0,-65.0 l-85.0,-70.0 -180.0,-120.0 l-130.0,-55.0 -165.0,-40.0 l-265.0,-95.0 m80.0,-5.0 l-5.0,-60.0 75.0,-320.0 m-35.0,270.0 l100.0,-90.0 95.0,-40.0 l65.0,-15.0 255.0,5.0 l0.0,50.0 -175.0,60.0 l-25.0,15.0 -10.0,35.0 l165.0,90.0 30.0,45.0 l-65.0,30.0 -200.0,0.0 l-105.0,-30.0 " fill="none" stroke="black" stroke-width="1" /></svg>