<?xml version="1.0" encoding="utf-8" ?>
<svg baseProfile="full" height="94.99698113650084" version="1.1" width="101.35165777057409" xmlns="http://www.w3.org/2000/svg" xmlns:ev="http://www.w3.org/2001/xml-events" xmlns:xlink="http://www.w3.org/1999/xlink"><defs /><rect fill="white" height="94.99698113650084" width="101.35165777057409" x="0" y="0" /><path d="M55.657641887664795,26.714643351733685 m-0.7203774899244308,-0.7400365918874741 l-1.5485139191150665,-0.5966639518737793 -3.5372212529182434,-0.3779428079724312 l-4.093568921089172,0.2291535958647728 -3.9506179094314575,1.0207180678844452 l-5.18429160118103,2.4107900261878967 -3.6173972487449646,2.6147043704986572 l-2.8981706500053406,3.032115399837494 -2.991088032722473,4.7319987416267395 l-1.4333455264568329,3.9324483275413513 -0.6830493360757828,5.550788044929504 l0.5415702983736992,5.109100937843323 2.2153115272521973,4.777385592460632 l3.5413819551467896,4.142897427082062 4.6022021770477295,3.3287426829338074 l5.376856327056885,2.453744411468506 8.614972233772278,1.6623935103416443 l8.65361213684082,-0.26141272857785225 5.52764892578125,-1.4942097663879395 l3.5442540049552917,-1.6638574004173279 2.9861807823181152,-2.2144967317581177 l2.3095299303531647,-2.6549744606018066 1.7887935042381287,-3.29474538564682 l1.1351337283849716,-3.7002691626548767 0.5142102390527725,-5.4639750719070435 l-0.45393187552690506,-5.328816175460815 -1.0100749135017395,-3.461272418498993 l-1.612585037946701,-3.4417590498924255 -2.001638114452362,-3.0300715565681458 l-2.4366362392902374,-2.6447099447250366 -2.754189372062683,-2.1089932322502136 l-3.1059661507606506,-1.5902778506278992 -3.279992938041687,-0.9927345812320709 l-3.447050154209137,-0.37381570786237717 -3.1363672018051147,0.14140604063868523 m-3.222797214984894,16.448084115982056 l-0.1630815863609314,1.4692924916744232 0.06197025999426842,2.3346196115016937 l0.42973000556230545,1.214224174618721 1.0358529537916183,0.8762679994106293 l1.5537792444229126,0.2036670595407486 1.709161102771759,-0.5716558545827866 l1.3380590081214905,-1.5431936085224152 0.40174517780542374,-1.5955168008804321 l-0.36664631217718124,-1.9287455081939697 -1.3746999204158783,-1.4289246499538422 l-1.8982446193695068,-0.714135468006134 -1.4183540642261505,-0.031024233903735876 l-0.845840722322464,0.4150586947798729 -0.5391313135623932,0.8060634881258011 l-0.0228561251424253,0.9568066895008087 " fill="none" stroke="black" stroke-width="1" /></svg>