<?xml version="1.0" encoding="utf-8" ?>
<svg baseProfile="full" height="2520.0" version="1.1" width="2750.0" xmlns="http://www.w3.org/2000/svg" xmlns:ev="http://www.w3.org/2001/xml-events" xmlns:xlink="http://www.w3.org/1999/xlink"><defs /><rect fill="white" height="2520.0" width="2750.0" x="0" y="0" /><path d="M2060.0,55.0 m-105.0,-30.0 l-90.0,0.0 -150.0,20.0 l-175.0,55.0 -455.0,235.0 l-245.0,165.0 -230.0,200.0 l-195.0,220.0 -155.0,225.0 l-115.0,235.0 -80.0,235.0 l-40.0,230.0 0.0,185.0 l20.0,145.0 80.0,115.0 l110.0,85.0 150.0,60.0 l170.0,35.0 580.0,25.0 l360.0,-35.0 370.0,-105.0 l175.0,-80.0 165.0,-95.0 l270.0,-220.0 95.0,-115.0 l120.0,-260.0 30.0,-140.0 l5.0,-290.0 -60.0,-325.0 l-125.0,-315.0 -190.0,-220.0 l-120.0,-85.0 -290.0,-105.0 l-305.0,-10.0 -140.0,35.0 l-130.0,90.0 m-145.0,880.0 l-75.0,85.0 -65.0,140.0 l-20.0,85.0 5.0,85.0 l45.0,50.0 125.0,55.0 l140.0,5.0 55.0,-20.0 l80.0,-40.0 35.0,-40.0 l15.0,-155.0 -25.0,-65.0 l-100.0,-100.0 -110.0,-60.0 l-45.0,-15.0 -120.0,15.0 m415.0,130.0 l10.0,-60.0 70.0,-160.0 l275.0,-480.0 65.0,-160.0 m-535.0,1095.0 l345.0,185.0 135.0,95.0 l45.0,55.0 " fill="none" stroke="black" stroke-width="1" /></svg>