<?xml version="1.0" encoding="utf-8" ?>
<svg baseProfile="full" height="97.1273051854223" version="1.1" width="102.65411058440804" xmlns="http://www.w3.org/2000/svg" xmlns:ev="http://www.w3.org/2001/xml-events" xmlns:xlink="http://www.w3.org/1999/xlink"><defs /><rect fill="white" height="97.1273051854223" width="102.65411058440804" x="0" y="0" /><path d="M61.98469448834658,26.073499214835465 m-2.137688845396042,-0.5454800650477409 l-1.6822116076946259,0.05985149648040533 -4.074169993400574,0.823519229888916 l-4.767830967903137,1.9623196125030518 -5.598934292793274,3.2411494851112366 l-3.857713043689728,2.8708288073539734 -4.904390871524811,4.698484838008881 l-4.437923431396484,5.599212646484375 -2.458457052707672,4.076665937900543 l-1.6658778488636017,3.837139308452606 -1.0280285030603409,3.7985029816627502 l-0.37146802991628647,4.8352983593940735 0.5641962215304375,3.2111668586730957 l1.2832379341125488,2.3959292471408844 1.8210527300834656,1.896543800830841 l2.3069068789482117,1.4387962222099304 2.8928980231285095,1.0572316497564316 l3.570566773414612,0.6536636501550674 9.234983325004578,0.14298190362751484 l5.419619679450989,-0.7561264932155609 5.179203152656555,-1.346862018108368 l7.107067108154297,-2.8142020106315613 4.383654296398163,-2.563752233982086 l3.3916813135147095,-2.7326422929763794 2.5321218371391296,-2.9550912976264954 l1.7324569821357727,-3.204091787338257 0.9289941191673279,-3.331913948059082 l0.30547020956873894,-5.475822687149048 -0.5490246787667274,-3.9665883779525757 l-1.890452653169632,-5.433603525161743 -3.072523772716522,-5.196192264556885 l-2.7673715353012085,-3.1181731820106506 -2.692525088787079,-2.087457627058029 l-2.777910530567169,-1.3614845275878906 -2.7398085594177246,-0.6633903086185455 l-2.7928969264030457,-0.11991060338914394 m-6.945711970329285,25.200088024139404 l-1.0148348659276962,0.5991668254137039 -0.7945279777050018,1.2602022290229797 l-0.6339443475008011,2.3507781326770782 0.09287279099225998,1.647939383983612 l0.7045739889144897,1.2565878033638 1.1576873809099197,0.7936339825391769 l2.2561976313591003,0.3961506113409996 1.0280951857566833,-0.3825097158551216 l0.9715527296066284,-1.0311683267354965 0.8325539529323578,-2.353576570749283 l0.00010540624316490721,-2.094673216342926 -0.7796922326087952,-1.1109226942062378 l-1.946386694908142,-1.1183267086744308 -1.6712872684001923,0.30628446489572525 l-0.8542143553495407,1.0640619695186615 -0.4524311423301697,2.043607532978058 m2.8767648339271545,-12.946692705154419 l0.5485446751117706,3.235293924808502 0.35546425729990005,7.086018323898315 m-0.496869720518589,-5.479954481124878 l7.954866290092468,-0.7808201760053635 5.4190826416015625,-0.7679406553506851 l3.223365545272827,-0.3797098249197006 -2.9271990060806274,3.6009451746940613 " fill="none" stroke="black" stroke-width="1" /></svg>