<?xml version="1.0" encoding="utf-8" ?>
<svg baseProfile="full" height="77.85547458321162" version="1.1" width="100.21013926178057" xmlns="http://www.w3.org/2000/svg" xmlns:ev="http://www.w3.org/2001/xml-events" xmlns:xlink="http://www.w3.org/1999/xlink"><defs /><rect fill="white" height="77.85547458321162" width="100.21013926178057" x="0" y="0" /><path d="M27.34423366960982,46.77538272329912 m-0.4979770630598068,-5.39365291595459 l-1.84590682387352,-6.8334150314331055 -0.0003497826764942147,-3.118874728679657 l0.8764923363924026,-1.1170011758804321 7.240129113197327,-2.240954339504242 l9.66957151889801,-1.664843112230301 10.773555040359497,-0.9941189736127853 l8.442689180374146,-0.3683564066886902 5.90070366859436,0.3922992944717407 l3.0816006660461426,0.9299365431070328 2.146138846874237,1.5312597155570984 l1.4143048226833344,2.3758988082408905 0.6648128479719162,3.2226940989494324 l0.0001412203891959507,5.318376421928406 -0.7058320939540863,3.9944541454315186 l-0.5274422466754913,0.4149264469742775 -2.4736973643302917,-0.05183260887861252 l-2.484479695558548,-0.43684035539627075 -2.1692079305648804,-0.18111668527126312 l-1.7531177401542664,0.0412163557484746 -1.5960516035556793,0.05099995993077755 l-2.2377407550811768,0.5473649874329567 -5.420809388160706,0.5005956068634987 l-6.642747521400452,0.0832765270024538 -5.275866389274597,-0.26161544024944305 l-4.358515739440918,-0.1757943443953991 -3.0270367860794067,-0.14315230771899223 l-2.5433334708213806,-0.13720929622650146 -2.6685166358947754,0.15480875968933105 l-2.233828157186508,0.3968798369169235 -1.9548851251602173,0.255271065980196 m6.933068037033081,-0.19077757373452187 l-1.0196682810783386,-0.288480669260025 -1.2103062868118286,-0.009837934048846364 l-1.4466877281665802,0.6170053780078888 -1.4179955422878265,1.7595712840557098 l-0.777827650308609,2.771315574645996 -3.2593384275969584e-05,2.1693146228790283 l0.6268548965454102,1.2337368726730347 1.0714402049779892,0.7231544703245163 l2.142183482646942,0.20360898226499557 1.5286991000175476,-0.7751619070768356 l1.1075164377689362,-1.34755477309227 0.8312482386827469,-2.7004003524780273 l-0.0769335264340043,-2.9763680696487427 -0.6584056466817856,-1.4542165398597717 l-0.9472034871578217,-0.7557778805494308 m25.257229804992676,0.7892239838838577 l-0.7401685416698456,-0.7575513422489166 -1.268560141324997,-0.518183708190918 l-1.352119892835617,0.31496133655309677 -0.9530184417963028,0.9996600449085236 l-1.0106472671031952,2.4011898040771484 -0.3102770075201988,3.125849664211273 l0.4302770644426346,1.6222943365573883 0.8520407974720001,1.0637776553630829 l1.1579111218452454,0.569634847342968 1.49262934923172,0.00023943617634358816 l1.3259747624397278,-0.688057467341423 1.0467957705259323,-1.244867816567421 l0.8126330375671387,-2.490176111459732 0.009718089131638408,-3.029543161392212 l-0.5716634914278984,-1.653858721256256 -0.8518741279840469,-1.000376045703888 l-1.0243604332208633,-0.4213646799325943 m-11.615561246871948,-9.527904987335205 l0.12752845883369446,-4.129728674888611 0.5976972728967667,-2.5326216220855713 l1.0917335003614426,-0.6545432657003403 4.612785577774048,-0.0840485654771328 " fill="none" stroke="black" stroke-width="1" /></svg>