<?xml version="1.0" encoding="utf-8" ?>
<svg baseProfile="full" height="1290.0" version="1.1" width="2320.0" xmlns="http://www.w3.org/2000/svg" xmlns:ev="http://www.w3.org/2001/xml-events" xmlns:xlink="http://www.w3.org/1999/xlink"><defs /><rect fill="white" height="1290.0" width="2320.0" x="0" y="0" /><path d="M140.0,1055.0 m-25.0,-285.0 l-85.0,-330.0 10.0,-210.0 l55.0,-40.0 420.0,-90.0 l430.0,-5.0 565.0,-40.0 l280.0,5.0 260.0,-35.0 l230.0,10.0 15.0,25.0 l0.0,65.0 -25.0,175.0 l0.0,260.0 -20.0,215.0 l-55.0,285.0 -260.0,-50.0 l-125.0,0.0 -35.0,-75.0 l-50.0,-60.0 -145.0,-90.0 l-90.0,5.0 -75.0,40.0 l-15.0,25.0 -5.0,130.0 l-50.0,15.0 -230.0,-10.0 l-335.0,80.0 -110.0,-160.0 l-110.0,-65.0 -100.0,-20.0 l-70.0,165.0 -230.0,0.0 l-135.0,35.0 m370.0,-60.0 l5.0,-30.0 65.0,-65.0 l110.0,-20.0 120.0,65.0 l75.0,90.0 10.0,105.0 l-35.0,75.0 -65.0,55.0 l-80.0,25.0 -55.0,0.0 l-45.0,-25.0 -35.0,-50.0 l-40.0,-120.0 m980.0,85.0 l-30.0,-80.0 -5.0,-100.0 l15.0,-70.0 35.0,-55.0 l135.0,-5.0 70.0,35.0 l90.0,80.0 30.0,50.0 l15.0,70.0 0.0,70.0 l-35.0,50.0 -65.0,20.0 l-100.0,-5.0 -95.0,-40.0 l-110.0,-75.0 m-1275.0,-480.0 l200.0,5.0 90.0,-105.0 l30.0,-115.0 0.0,-150.0 l-55.0,-175.0 " fill="none" stroke="black" stroke-width="1" /></svg>