<?xml version="1.0" encoding="utf-8" ?>
<svg baseProfile="full" height="74.62241491302848" version="1.1" width="122.41491289809346" xmlns="http://www.w3.org/2000/svg" xmlns:ev="http://www.w3.org/2001/xml-events" xmlns:xlink="http://www.w3.org/1999/xlink"><defs /><rect fill="white" height="74.62241491302848" width="122.41491289809346" x="0" y="0" /><path d="M25.184390638023615,34.250563625246286 m3.487723171710968,0.9378423541784286 l8.860167264938354,0.4273517057299614 16.002098321914673,0.18740851432085037 l6.329405307769775,-0.36770228296518326 6.755416989326477,-0.16758719459176064 l5.9933871030807495,-0.4261653497815132 6.01582407951355,-0.20126109942793846 l4.960615038871765,-0.5205930024385452 4.828599989414215,-0.10655439458787441 l4.994287192821503,-0.12411105446517467 1.7983099818229675,-0.22535931318998337 l1.5386804938316345,-0.6965996325016022 0.666007325053215,-1.1729182302951813 l-0.11397123336791992,-1.5420201420783997 -1.2130150198936462,-1.5230229496955872 l-2.351890355348587,-1.3901987671852112 -3.2552555203437805,-1.1023299396038055 l-5.93880295753479,-0.9614794701337814 -6.603184938430786,-0.27526337653398514 l-10.085078477859497,0.5072736367583275 -11.349977254867554,0.9985081851482391 l-10.828070640563965,1.366400569677353 -9.511998891830444,1.5134517848491669 l-6.518505215644836,1.5620709955692291 -3.3522170782089233,1.505368947982788 l-0.9807069599628448,0.8101776242256165 -0.3122383542358875,0.8925190567970276 l0.2986881695687771,0.9735876321792603 0.6603825092315674,0.4434220492839813 l1.0077425837516785,0.03179624676704407 2.1704401075839996,-0.22709032520651817 m16.960500478744507,-4.5193034410476685 l-0.4135216027498245,0.4541437700390816 -0.09795999154448509,4.8152559995651245 l-0.41116636246442795,5.307355523109436 0.0208799890242517,4.726548194885254 l0.382268950343132,1.3689102232456207 1.0467509180307388,1.1942941695451736 l1.9050726294517517,0.7270666211843491 2.766887843608856,0.1706574484705925 l2.6779115200042725,-0.5450340360403061 2.4675405025482178,-1.4720582962036133 l1.7898587882518768,-2.1701323986053467 1.1701519787311554,-2.990732491016388 l0.721704289317131,-4.709289968013763 -0.12457653880119324,-4.396509826183319 l-0.8124129474163055,-2.357548773288727 -1.267322450876236,-1.712256669998169 l-1.8054959177970886,-1.2813632190227509 -2.317926287651062,-0.8444306999444962 l-2.6999178528785706,-0.2919558063149452 -2.5359711050987244,0.3401637077331543 l-1.4632244408130646,0.60530174523592 -1.0706190764904022,0.8534952998161316 l-0.6163059175014496,1.0579268634319305 -0.2895779721438885,1.9548676908016205 l0.4208448901772499,3.2427093386650085 " fill="none" stroke="black" stroke-width="1" /></svg>