<?xml version="1.0" encoding="utf-8" ?>
<svg baseProfile="full" height="2100.0" version="1.1" width="4090.0" xmlns="http://www.w3.org/2000/svg" xmlns:ev="http://www.w3.org/2001/xml-events" xmlns:xlink="http://www.w3.org/1999/xlink"><defs /><rect fill="white" height="2100.0" width="4090.0" x="0" y="0" /><path d="M740.0,770.0 m175.0,45.0 l490.0,0.0 720.0,-25.0 l160.0,-10.0 515.0,-105.0 l500.0,-40.0 120.0,0.0 l170.0,55.0 360.0,-15.0 l115.0,30.0 -35.0,65.0 l-50.0,45.0 -220.0,160.0 l-180.0,80.0 -260.0,80.0 l-100.0,30.0 -270.0,40.0 l-130.0,40.0 -740.0,65.0 l-400.0,0.0 -445.0,-55.0 l-255.0,-50.0 -445.0,-125.0 l-270.0,-45.0 -145.0,-65.0 l-65.0,-60.0 -30.0,-40.0 l70.0,-60.0 415.0,-60.0 l235.0,5.0 m750.0,-560.0 l30.0,125.0 35.0,420.0 l-40.0,-405.0 5.0,-155.0 l25.0,-115.0 225.0,0.0 l20.0,-25.0 -25.0,-15.0 l-15.0,75.0 30.0,270.0 l130.0,330.0 m-260.0,670.0 l50.0,310.0 -5.0,235.0 l20.0,140.0 70.0,20.0 l75.0,0.0 265.0,-40.0 l-45.0,-610.0 -20.0,-65.0 l-90.0,-150.0 m-1035.0,-310.0 l55.0,125.0 30.0,5.0 l70.0,-60.0 -30.0,-70.0 " fill="none" stroke="black" stroke-width="1" /></svg>