<?xml version="1.0" encoding="utf-8" ?>
<svg baseProfile="full" height="2665.0" version="1.1" width="2330.0" xmlns="http://www.w3.org/2000/svg" xmlns:ev="http://www.w3.org/2001/xml-events" xmlns:xlink="http://www.w3.org/1999/xlink"><defs /><rect fill="white" height="2665.0" width="2330.0" x="0" y="0" /><path d="M25,1665.0 m185.0,0.0 l550.0,-80.0 795.0,-35.0 l645.0,0.0 -5.0,845.0 l40.0,215.0 -790.0,-10.0 l-475.0,25.0 -730.0,0.0 l-190.0,15.0 45.0,-310.0 l0.0,-560.0 -25.0,-165.0 m280.0,65.0 l0.0,-85.0 55.0,-305.0 l-5.0,-145.0 330.0,-90.0 l540.0,-90.0 475.0,-30.0 l80.0,0.0 5.0,55.0 l-55.0,655.0 m-1130.0,-540.0 l100.0,-370.0 30.0,-190.0 l635.0,-90.0 275.0,10.0 l-5.0,55.0 -150.0,320.0 l-45.0,150.0 -10.0,90.0 m-505.0,-550.0 l15.0,-65.0 90.0,-160.0 m195.0,150.0 l40.0,-140.0 m-230.0,-130.0 l10.0,125.0 45.0,55.0 l35.0,10.0 115.0,5.0 l60.0,-20.0 65.0,-35.0 l45.0,-50.0 5.0,-40.0 l-25.0,-30.0 -115.0,-50.0 l-180.0,-45.0 -20.0,-65.0 m0.0,275.0 l-20.0,-30.0 5.0,-100.0 l35.0,-75.0 65.0,-80.0 m-1050.0,1685.0 l10.0,100.0 35.0,40.0 l150.0,10.0 155.0,-70.0 l70.0,-5.0 35.0,30.0 l45.0,95.0 35.0,20.0 l65.0,0.0 230.0,-165.0 l75.0,-5.0 115.0,165.0 l80.0,15.0 85.0,-35.0 l190.0,-145.0 90.0,0.0 l50.0,110.0 80.0,-25.0 l90.0,-95.0 70.0,-40.0 l145.0,20.0 75.0,-50.0 l175.0,-190.0 m-1830.0,-350.0 l15.0,40.0 75.0,80.0 l35.0,20.0 120.0,0.0 l45.0,-10.0 135.0,-75.0 l80.0,-20.0 55.0,45.0 l90.0,0.0 100.0,-75.0 l60.0,-25.0 80.0,5.0 l110.0,50.0 85.0,0.0 l115.0,-70.0 185.0,-50.0 " fill="none" stroke="black" stroke-width="1" /></svg>