<?xml version="1.0" encoding="utf-8" ?>
<svg baseProfile="full" height="97.37648518523201" version="1.1" width="98.23700971901417" xmlns="http://www.w3.org/2000/svg" xmlns:ev="http://www.w3.org/2001/xml-events" xmlns:xlink="http://www.w3.org/1999/xlink"><defs /><rect fill="white" height="97.37648518523201" width="98.23700971901417" x="0" y="0" /><path d="M25,53.34132337709889 m4.02025580406189,-0.06607350427657366 l11.267573833465576,-1.6205695271492004 12.40541696548462,-0.8100216090679169 l20.329670906066895,0.6584343314170837 0.2140922099351883,5.097374320030212 l-0.42444679886102676,10.540742874145508 -0.4598812013864517,5.203157663345337 l-17.885184288024902,0.032117259688675404 -16.211090087890625,-0.672696903347969 l-10.029692649841309,-0.28054285794496536 -1.3754110038280487,-0.7083474844694138 l0.7887265086174011,-11.655482053756714 0.04711695481091738,-6.337186694145203 l0.26879921555519104,-2.8623130917549133 m6.090072989463806,3.149300515651703 l-0.21537555381655693,-5.220128297805786 0.3137022629380226,-4.561672508716583 l1.3020090758800507,-0.5011296272277832 13.179088830947876,-0.7866963744163513 l7.63364315032959,-0.33887092024087906 5.339564681053162,0.030860223341733217 l0.4126748815178871,0.6527556478977203 -0.13236979953944683,9.030532240867615 l0.18379103392362595,3.1627875566482544 m-21.50974750518799,-12.347947359085083 l0.6591684371232986,-6.493271589279175 1.1468952894210815,-0.5605292320251465 l11.718143224716187,-0.6697015464305878 5.095694065093994,0.13783122412860394 l0.418461374938488,0.6620442122220993 -0.14385282061994076,6.781700253486633 l0.14540712349116802,3.1355109810829163 m-14.315049648284912,-10.526821613311768 l-0.06193298380821943,-2.072204351425171 0.4836653172969818,-3.2809844613075256 l1.1510110646486282,-1.4013087749481201 9.012864232063293,-0.4643556475639343 l0.4570547118782997,0.5175132676959038 -0.08806232362985611,5.656409859657288 l-0.08248412050306797,2.319403290748596 m-9.31448519229889,-8.112422227859497 l0.004026645328849554,-0.37191804498434067 0.7277367264032364,-1.9004829227924347 l0.8559230715036392,-0.4861198738217354 0.6664958596229553,1.1199476569890976 l-0.10428356006741524,2.057707756757736 -0.38952190428972244,1.0745474696159363 m3.316868543624878,-1.9554410874843597 l-0.02132209949195385,0.916534885764122 0.14329534024000168,1.331024169921875 l0.2790243551135063,0.2278459258377552 0.49764562398195267,-1.696811318397522 l0.041505335830152035,-0.6160009652376175 -0.6291624903678894,-0.361802875995636 m-12.004684209823608,13.997852802276611 l0.7119239866733551,0.4974573850631714 2.008127123117447,0.26469359174370766 l1.2370574474334717,-0.11060289107263088 1.3416661322116852,-0.16416208818554878 l1.4405597746372223,0.2806444466114044 2.718920111656189,-0.07502544671297073 l1.7970503866672516,0.3651301935315132 2.7902132272720337,-0.3849627822637558 l1.8818840384483337,0.6084287539124489 1.8418695032596588,-0.13665641658008099 l2.6276057958602905,-0.6862666457891464 2.1289506554603577,-0.25953641161322594 l2.0530161261558533,-0.2391933836042881 m-27.050397396087646,10.357426404953003 l0.5994683876633644,0.36711350083351135 1.9243893027305603,0.11183984577655792 l1.9246451556682587,-0.12495309114456177 2.559841573238373,-0.41879933327436447 l1.5282970666885376,0.7672543078660965 1.900816261768341,0.21276196464896202 l2.0414263010025024,0.06368956994265318 2.835555076599121,-0.5104473605751991 l1.6855482757091522,0.6648985296487808 1.8066397309303284,-0.11846048757433891 l2.92180597782135,-0.3816913068294525 2.8897824883461,-0.28014903888106346 l2.031234949827194,-0.05414326675236225 2.0486974716186523,-0.3725545108318329 l1.8802683055400848,-0.2558108977973461 1.5750005841255188,-0.3806362673640251 l1.380961537361145,-0.5608636885881424 m-27.6830792427063,-7.7216702699661255 l-0.8243399113416672,-0.3839559108018875 -0.9538208693265915,-0.2113582007586956 l-1.7642979323863983,0.273288581520319 -0.7167751342058182,0.9524097293615341 l-0.33496078103780746,1.7870639264583588 0.4013782739639282,1.298920214176178 l0.9724830836057663,0.832357332110405 2.0463722944259644,0.5241221934556961 l2.5915884971618652,-0.4142998903989792 1.4641912281513214,-0.9970124810934067 l0.7058916985988617,-1.1826620250940323 -7.697162232034316e-06,-1.132820025086403 l-1.0849133878946304,-1.416575312614441 " fill="none" stroke="black" stroke-width="1" /></svg>