<?xml version="1.0" encoding="utf-8" ?>
<svg baseProfile="full" height="65.08993713185191" version="1.1" width="68.35156006738544" xmlns="http://www.w3.org/2000/svg" xmlns:ev="http://www.w3.org/2001/xml-events" xmlns:xlink="http://www.w3.org/1999/xlink"><defs /><rect fill="white" height="65.08993713185191" width="68.35156006738544" x="0" y="0" /><path d="M33.44016412273049,27.46567688882351 m-1.1103251576423645,4.738419353961945 l-0.23735122755169868,3.584577739238739 0.06779470946639776,2.6428431272506714 l0.41207849979400635,1.075851321220398 0.706387460231781,0.4428684338927269 l1.2709005177021027,-0.26833534240722656 0.8905094861984253,-1.1268437653779984 l1.199740394949913,-3.6267903447151184 0.3374825790524483,-4.3889689445495605 l-0.4421072080731392,-2.3372000455856323 -0.5719810724258423,-0.8533253520727158 l-1.5135282278060913,-0.5714068561792374 -1.2333200126886368,0.11294687166810036 l-0.855659693479538,0.7054309546947479 m2.8219640254974365,0.22512933239340782 l1.8254479765892029,-1.741010993719101 1.4830932021141052,-0.7890686392784119 l1.6264711320400238,-0.290793739259243 1.2793689966201782,0.379277840256691 l0.757458433508873,0.8249877393245697 0.3008759208023548,1.220075711607933 l-0.3560928627848625,2.065862715244293 -1.359754353761673,1.8635699152946472 l-1.8059808015823364,1.288549154996872 2.2437013685703278,0.12830416671931744 l1.5129919350147247,0.9475526958703995 0.6017446517944336,1.053200587630272 l0.059485272504389286,1.8928663432598114 -0.8085940778255463,1.5005983412265778 l-1.542060673236847,1.2184935808181763 -2.022303342819214,0.6153826043009758 l-2.1859972178936005,-0.06870592478662729 -1.4897194504737854,-0.7024776935577393 m-2.636379897594452,-11.145875453948975 l-1.6265389323234558,-1.5150775015354156 -1.6760878264904022,-0.6298058480024338 l-1.9756270945072174,0.04919113125652075 -1.0811737179756165,0.6022408604621887 l-1.0690189898014069,1.638755351305008 -0.23805884644389153,1.4314369857311249 l0.17487188801169395,1.2364823371171951 1.0665326565504074,1.2982895970344543 l1.8560484051704407,0.8855272084474564 -1.6086268424987793,2.0635519921779633 l-0.513550266623497,2.0149515569210052 0.3677346184849739,2.0104140043258667 l0.8462300896644592,0.9223171323537827 " fill="none" stroke="black" stroke-width="1" /></svg>