<?xml version="1.0" encoding="utf-8" ?>
<svg baseProfile="full" height="995.0" version="1.1" width="1035.0" xmlns="http://www.w3.org/2000/svg" xmlns:ev="http://www.w3.org/2001/xml-events" xmlns:xlink="http://www.w3.org/1999/xlink"><defs /><rect fill="white" height="995.0" width="1035.0" x="0" y="0" /><path d="M510.0,350.0 m-60.0,230.0 l-15.0,130.0 0.0,190.0 l20.0,25.0 30.0,-10.0 l105.0,-115.0 40.0,-150.0 l10.0,-235.0 -30.0,-65.0 l-45.0,-35.0 m-80.0,125.0 l80.0,5.0 70.0,40.0 m-175.0,125.0 l105.0,35.0 m-110.0,140.0 l40.0,20.0 m-45.0,-410.0 l-165.0,-70.0 -160.0,0.0 l-70.0,100.0 -30.0,120.0 l0.0,165.0 25.0,60.0 l45.0,50.0 65.0,25.0 l135.0,0.0 110.0,-40.0 m290.0,-355.0 l125.0,-40.0 135.0,10.0 l55.0,95.0 0.0,155.0 l-50.0,190.0 -50.0,70.0 l-50.0,35.0 -100.0,5.0 l-100.0,-130.0 m-75.0,-590.0 l-5.0,-40.0 20.0,-60.0 l70.0,-90.0 65.0,-35.0 m-80.0,300.0 l75.0,-95.0 70.0,-40.0 l50.0,-5.0 " fill="none" stroke="black" stroke-width="1" /></svg>