<?xml version="1.0" encoding="utf-8" ?>
<svg baseProfile="full" height="79.45056185126305" version="1.1" width="96.41640216344967" xmlns="http://www.w3.org/2000/svg" xmlns:ev="http://www.w3.org/2001/xml-events" xmlns:xlink="http://www.w3.org/1999/xlink"><defs /><rect fill="white" height="79.45056185126305" width="96.41640216344967" x="0" y="0" /><path d="M54.12910898914561,28.51949356496334 m-0.9791994839906693,-1.0886534303426743 l-1.8813808262348175,-1.1192293465137482 -2.883792817592621,-0.9299845993518829 l-2.9368865489959717,-0.3816261887550354 -2.6723462343215942,0.09958481416106224 l-1.453918069601059,0.49097057431936264 -1.2146758288145065,0.8650485426187515 l-1.2694863975048065,1.753278225660324 -0.43607287108898163,1.453881710767746 l-0.02598100807517767,1.6527219116687775 0.40159299969673157,1.2936142086982727 l1.3589434325695038,1.7443172633647919 2.062443792819977,1.3922373950481415 l2.60983407497406,0.9147346764802933 3.095700740814209,0.35234834998846054 l2.7542483806610107,-0.1962159387767315 2.0263463258743286,-0.797308087348938 l1.6380342841148376,-1.480371356010437 0.7446975260972977,-1.3976863026618958 l0.3877907991409302,-2.3617608845233917 -0.2862773835659027,-2.1617765724658966 l-0.9626000374555588,-1.6247445344924927 -1.390199214220047,-1.2233997136354446 l-1.6700492799282074,-0.743924081325531 m-8.986212611198425,10.781465768814087 l-1.7908966541290283,5.913499593734741 -5.03291130065918,11.66905164718628 l12.789591550827026,1.060994639992714 5.503082275390625,-0.24877360090613365 l3.7914061546325684,-0.6341664493083954 0.3188719227910042,-0.5475581809878349 l-0.4315844923257828,-2.111995965242386 -5.2424174547195435,-9.794968366622925 l-2.8684306144714355,-5.866535305976868 -0.5910423398017883,-1.7397670447826385 m3.125649392604828,4.552652835845947 l0.8689655363559723,-1.3877403736114502 3.1742551922798157,-2.950247824192047 l3.514862358570099,-2.231013923883438 3.4344521164894104,-1.4321425557136536 l3.3148691058158875,-0.6840531527996063 2.0296403765678406,0.01722760032862425 l1.5005390346050262,0.6189251691102982 1.2421712279319763,1.312342882156372 l0.6056660413742065,1.9158463180065155 -0.1263016276061535,2.3223944008350372 l-1.2002645432949066,2.088349461555481 -1.9607214629650116,1.8474937975406647 l-3.207072615623474,1.7084810137748718 -3.624795973300934,1.0494787245988846 l0.14020931906998158,0.22244557738304138 1.0969353467226028,0.8194714039564133 l2.8668612241744995,2.2084231674671173 0.739881843328476,1.5783753991127014 l0.024066742043942213,1.7812752723693848 -1.0099183022975922,1.2983402609825134 l-1.9802109897136688,1.0207656025886536 -2.60822594165802,0.45451272279024124 l-2.81228244304657,-0.07666750811040401 -3.2068070769309998,-1.0606393218040466 m-13.565120697021484,-12.515920400619507 l-1.3636626303195953,-1.9039690494537354 -1.911545991897583,-1.5056008100509644 l-2.35203355550766,-1.166200190782547 -2.4713653326034546,-0.646415650844574 l-2.535518705844879,-0.09755215607583523 -2.1581362187862396,0.6611478328704834 l-1.8338331580162048,1.5331187844276428 -1.0978228598833084,2.095516622066498 l-0.25871651247143745,1.5717600286006927 0.1343751884996891,1.2958282232284546 l0.6293518096208572,1.0515882819890976 1.6040046513080597,1.1658047884702682 l1.6358859837055206,0.513894185423851 3.4880268573760986,0.13821455650031567 l-2.027401626110077,2.333538681268692 -0.6702622771263123,1.458580195903778 l-0.19416887313127518,1.427369862794876 0.3690898045897484,1.7284518480300903 l0.8741810917854309,0.9580007195472717 1.8783096969127655,0.8440763503313065 l2.7493971586227417,0.32324880361557007 2.8020501136779785,-0.2786131575703621 l2.2970299422740936,-0.9117913246154785 1.7270544171333313,-1.3510370254516602 " fill="none" stroke="black" stroke-width="1" /></svg>