<?xml version="1.0" encoding="utf-8" ?>
<svg baseProfile="full" height="2315.0" version="1.1" width="2210.0" xmlns="http://www.w3.org/2000/svg" xmlns:ev="http://www.w3.org/2001/xml-events" xmlns:xlink="http://www.w3.org/1999/xlink"><defs /><rect fill="white" height="2315.0" width="2210.0" x="0" y="0" /><path d="M860.0,605.0 m-50.0,-55.0 l-105.0,-40.0 -115.0,-95.0 l-175.0,-180.0 -165.0,-115.0 l-140.0,-10.0 -75.0,100.0 l-10.0,150.0 50.0,105.0 l90.0,100.0 80.0,120.0 l55.0,190.0 30.0,250.0 l0.0,280.0 -40.0,130.0 l-50.0,100.0 -110.0,150.0 l-65.0,125.0 -35.0,130.0 l0.0,120.0 10.0,25.0 l55.0,35.0 240.0,20.0 l145.0,-90.0 110.0,-185.0 l30.0,-170.0 75.0,-240.0 l75.0,-125.0 50.0,-45.0 l45.0,-15.0 m-55.0,-875.0 l25.0,835.0 25.0,105.0 l30.0,55.0 30.0,0.0 l30.0,-25.0 35.0,-110.0 l0.0,-585.0 -15.0,-120.0 l-40.0,-195.0 -20.0,-55.0 l-25.0,-20.0 -100.0,55.0 l-15.0,25.0 0.0,55.0 l20.0,15.0 m210.0,35.0 l15.0,-50.0 200.0,-295.0 l155.0,-180.0 25.0,-15.0 l70.0,10.0 90.0,95.0 l45.0,105.0 5.0,150.0 l-25.0,70.0 -170.0,135.0 l-80.0,135.0 -25.0,215.0 l15.0,265.0 45.0,115.0 l235.0,275.0 195.0,305.0 l40.0,100.0 10.0,115.0 l-50.0,115.0 -35.0,25.0 l-150.0,25.0 -150.0,10.0 l-215.0,-90.0 -50.0,-65.0 l-25.0,-100.0 -15.0,-515.0 l-60.0,-90.0 -115.0,-45.0 m1115.0,-625.0 l-45.0,5.0 -75.0,55.0 l-75.0,110.0 -15.0,210.0 l95.0,220.0 -65.0,15.0 m-120.0,-125.0 l265.0,-160.0 70.0,-80.0 l55.0,-100.0 " fill="none" stroke="black" stroke-width="1" /></svg>