<?xml version="1.0" encoding="utf-8" ?>
<svg baseProfile="full" height="64.88388506695628" version="1.1" width="94.54029455780983" xmlns="http://www.w3.org/2000/svg" xmlns:ev="http://www.w3.org/2001/xml-events" xmlns:xlink="http://www.w3.org/1999/xlink"><defs /><rect fill="white" height="64.88388506695628" width="94.54029455780983" x="0" y="0" /><path d="M28.962225115392357,27.606063578277826 m-0.18620358780026436,3.846610188484192 l0.02881837310269475,0.5541146174073219 0.1778915897011757,-0.16404779627919197 l0.3424907848238945,-1.2364237755537033 0.2220839262008667,-1.6466043889522552 l0.039538131095469,-1.5088945627212524 -0.17343666404485703,-1.1229801177978516 l-0.4016008973121643,-0.8507654070854187 -0.7938713580369949,-0.4770723357796669 l-1.5521101653575897,0.18920287489891052 -0.9111658483743668,0.8722762763500214 l-0.7546593993902206,3.1290099024772644 6.636745929718018,0.3864928334951401 l14.596757888793945,-0.1155394222587347 13.985662460327148,-0.10368599556386471 l4.978059530258179,-0.2592247538268566 3.881242871284485,-0.33974844962358475 l0.2371341921389103,0.929780900478363 -0.2443438582122326,3.8288503885269165 l0.4690355435013771,2.700257897377014 -0.6870312243700027,0.3849972039461136 l-2.390175610780716,0.22885512560606003 -2.8938382863998413,-0.14111519791185856 l-7.55751371383667,0.5538929998874664 -8.502139449119568,0.5917270481586456 l-7.398911118507385,0.6340016424655914 -7.37866997718811,0.2523784711956978 l-2.4626706540584564,-0.08774080313742161 -1.573745608329773,-0.5088884755969048 l-0.7128520309925079,-0.6864745169878006 -0.357629656791687,-1.3014447689056396 l0.14789575710892677,-1.6001830995082855 0.7163506746292114,-1.3619261980056763 l1.508958637714386,-1.5099789202213287 1.3147775828838348,-0.5913890153169632 m7.007150650024414,4.116601049900055 l-0.5311688780784607,1.1893389374017715 0.05167743191123009,1.577669233083725 l0.9413180500268936,1.3067202270030975 1.5865403413772583,0.6191716715693474 l1.9670473039150238,-0.028527015820145607 1.4598256349563599,-0.8334061503410339 l0.6738331168889999,-1.0988935083150864 0.10975328274071217,-1.9228644669055939 l-0.3729875758290291,-0.7814600318670273 -0.869777500629425,-0.5947622284293175 l-1.969887763261795,-0.3489387407898903 -1.3741235435009003,0.16196385025978088 l-0.8627818524837494,0.6010828167200089 -0.3872345760464668,0.9134484082460403 m12.09821105003357,-1.007879376411438 l-0.6269136816263199,0.8678227663040161 -0.020893937908113003,1.3264326751232147 l0.4483601078391075,0.9693625569343567 1.36074960231781,1.0579092800617218 l1.344524770975113,0.34874752163887024 1.9924083352088928,-0.07013601250946522 l1.3727091252803802,-0.8474518358707428 0.8031493425369263,-1.4923126995563507 l-0.12416836805641651,-1.319078803062439 -1.0349365323781967,-1.1957219243049622 l-1.8621405959129333,-0.8186005055904388 -2.271217852830887,-0.07539458107203245 l-1.1008147895336151,0.4252748191356659 -0.7153046876192093,0.7714924216270447 l-0.21674370393157005,0.9850452095270157 m9.966145753860474,-1.5819792449474335 l-0.548393540084362,0.6262300163507462 -0.08863946422934532,1.2578004598617554 l0.35960853099823,0.9535741806030273 1.2207400798797607,1.0162823647260666 l1.717204749584198,0.3794794902205467 1.8131814897060394,-0.20187711343169212 l1.008959338068962,-0.7187808305025101 0.6109266355633736,-1.487729400396347 l-0.25848468765616417,-1.2846533954143524 -0.6747037917375565,-0.820448249578476 l-1.103796511888504,-0.56815005838871 -2.1942348778247833,-0.20586585626006126 l-1.8353471159934998,0.5326135084033012 -0.8834955841302872,0.7174910604953766 m-22.11754560470581,-4.959971606731415 l-0.3726721927523613,0.9767916798591614 0.20867476239800453,1.4053551852703094 l0.6959205865859985,0.8646862953901291 1.6698437929153442,0.5345915630459785 l2.161521166563034,0.06220432464033365 1.7360198497772217,-0.4972494766116142 l0.8582597225904465,-0.8766462653875351 0.09178232401609421,-1.1460992693901062 l-0.7491351664066315,-1.2411350756883621 -1.6226483881473541,-0.9256916493177414 l-2.107854038476944,-0.21537881344556808 -1.2166957557201385,0.28066402301192284 m9.660771489143372,0.15016342513263226 l-0.4471844807267189,1.6074520349502563 0.2710443176329136,1.3945381343364716 l0.7211130857467651,0.8169688284397125 1.5463346242904663,0.6531737744808197 l2.0914405584335327,0.24924525991082191 1.976507306098938,-0.1245326641947031 l1.4211517572402954,-0.7396227866411209 0.7689125090837479,-1.2619543075561523 " fill="none" stroke="black" stroke-width="1" /></svg>