<?xml version="1.0" encoding="utf-8" ?>
<svg baseProfile="full" height="1095.0" version="1.1" width="2435.0" xmlns="http://www.w3.org/2000/svg" xmlns:ev="http://www.w3.org/2001/xml-events" xmlns:xlink="http://www.w3.org/1999/xlink"><defs /><rect fill="white" height="1095.0" width="2435.0" x="0" y="0" /><path d="M35.0,700.0 m-10.0,185.0 l10.0,35.0 30.0,20.0 l30.0,15.0 30.0,-10.0 l40.0,-170.0 -10.0,-30.0 l-95.0,-30.0 m0.0,5.0 l15.0,-105.0 -5.0,-515.0 l30.0,-10.0 485.0,40.0 l675.0,5.0 735.0,-55.0 l245.0,-55.0 25.0,10.0 l100.0,395.0 45.0,500.0 l-525.0,-25.0 0.0,-140.0 l-50.0,-60.0 -110.0,-40.0 l-170.0,-15.0 -25.0,5.0 l-30.0,55.0 0.0,120.0 l35.0,120.0 -25.0,10.0 l-165.0,-40.0 -150.0,-15.0 l-525.0,35.0 20.0,-175.0 l-25.0,-60.0 -60.0,-40.0 l-90.0,-30.0 -65.0,0.0 l-60.0,70.0 -5.0,190.0 l-25.0,20.0 -260.0,-10.0 m400.0,-175.0 l-25.0,-10.0 -30.0,40.0 l-25.0,55.0 0.0,50.0 l55.0,80.0 120.0,55.0 l25.0,-15.0 0.0,-25.0 l-10.0,-125.0 -30.0,-50.0 l-45.0,-30.0 -90.0,5.0 m1270.0,30.0 l-60.0,10.0 -25.0,25.0 l-30.0,50.0 0.0,40.0 l50.0,100.0 85.0,55.0 l95.0,0.0 80.0,-65.0 l15.0,-60.0 -15.0,-95.0 l-80.0,-90.0 -80.0,-40.0 l-240.0,0.0 m-1305.0,-450.0 l55.0,205.0 10.0,-155.0 l10.0,-25.0 25.0,-10.0 l50.0,-5.0 180.0,30.0 l125.0,35.0 15.0,35.0 l-5.0,90.0 -35.0,20.0 l-375.0,-35.0 m670.0,-150.0 l20.0,245.0 15.0,-195.0 l40.0,-45.0 65.0,5.0 l270.0,75.0 10.0,105.0 l-20.0,60.0 -30.0,10.0 l-160.0,-30.0 -235.0,-10.0 m770.0,-200.0 l10.0,155.0 15.0,60.0 l0.0,-40.0 " fill="none" stroke="black" stroke-width="1" /></svg>