<?xml version="1.0" encoding="utf-8" ?>
<svg baseProfile="full" height="86.15973453037441" version="1.1" width="67.52240393790998" xmlns="http://www.w3.org/2000/svg" xmlns:ev="http://www.w3.org/2001/xml-events" xmlns:xlink="http://www.w3.org/1999/xlink"><defs /><rect fill="white" height="86.15973453037441" width="67.52240393790998" x="0" y="0" /><path d="M25,61.15973453037441 m16.174652576446533,-0.1421528495848179 m-14.17293906211853,-2.254788726568222 l-0.3197994828224182,-1.1814787983894348 -0.0009172734280582517,-4.204849004745483 l0.5440044775605202,-5.66587507724762 1.0447447746992111,-3.6352896690368652 l1.2126505374908447,-1.8054865300655365 5.443137884140015,-1.0504886507987976 l5.429857969284058,-0.240712258964777 0.6059365347027779,0.5688860639929771 l1.1407942324876785,8.177334070205688 0.4202807694673538,8.020865321159363 m-12.20048189163208,-16.558513641357422 l0.3167935460805893,-6.3297200202941895 0.5064110457897186,-3.4753304719924927 l6.919335126876831,-0.07225783541798592 0.29660653322935104,0.6079749017953873 l0.0868442002683878,7.723827958106995 m-4.941515624523163,-8.179409503936768 l0.18944459035992622,-3.456605076789856 m1.5815001726150513,2.8957778215408325 l0.3248106315732002,-2.7192121744155884 0.4235435649752617,-1.9412681460380554 l0.5930696800351143,-0.6791964918375015 1.0339946299791336,-0.12374104000627995 l0.33595938235521317,0.4855707287788391 -2.7372522026780644e-06,2.3470227420330048 l-0.6516022980213165,2.19677671790123 m0.6205074116587639,-1.6712844371795654 l0.042110919021070004,-2.330707162618637 0.765477865934372,-1.465403288602829 l0.7429242879152298,0.46231895685195923 0.039636436849832535,2.329622209072113 l-0.6174582615494728,1.5868020057678223 m-7.135652303695679,6.454339623451233 l-0.0973900780081749,-2.240527719259262 0.5968361720442772,-2.615477740764618 l0.8351144939661026,-0.5667867138981819 0.4304909333586693,0.26638973504304886 l-0.2028738148510456,3.7874633073806763 -0.6352830678224564,1.1128835380077362 m3.5009002685546875,-3.1618693470954895 l-0.465598925948143,-1.196114495396614 0.582876056432724,-2.1894370019435883 l1.0723008215427399,-0.2735651098191738 0.3707387298345566,0.49204494804143906 l-0.007063448429107666,1.5583157539367676 -0.930388793349266,1.9338300824165344 m-5.398774743080139,9.282124638557434 l-0.22262444719672203,-1.5020594000816345 0.662650540471077,-2.6419246196746826 l1.079336404800415,-1.4246346056461334 1.1800912767648697,-0.4416953772306442 l1.329849362373352,0.4250885546207428 0.9988103806972504,1.6652294993400574 l0.40823496878147125,2.4494928121566772 -0.8114893734455109,2.093445360660553 m0.42225610464811325,-4.498908221721649 l1.4922340214252472,-2.9258722066879272 0.9558766335248947,-0.8351264148950577 l1.2648436427116394,-0.04289617761969566 1.0365844517946243,1.1128386855125427 l0.5494966730475426,2.1544907987117767 -0.309696514159441,2.186523675918579 l-1.206391155719757,1.615922451019287 m-6.73086941242218,-0.9596344083547592 l-0.4465588554739952,-2.167332172393799 0.5754991620779037,-1.6968555748462677 l1.102599874138832,-0.03985818009823561 0.308938343077898,2.961796224117279 l-0.7021776586771011,1.6262364387512207 m-1.1568624526262283,-0.6394738703966141 l-0.2995724603533745,-2.0302237570285797 0.6200297921895981,-1.3340894877910614 l0.9080201387405396,0.3509961813688278 -0.159821305423975,2.5733664631843567 l-0.7535015046596527,1.1751975119113922 m-1.3014951348304749,-0.0761457672342658 l-0.24846861138939857,-1.6327600181102753 0.7200930267572403,-1.2683871388435364 l0.7686585932970047,0.37675511091947556 -0.27005305513739586,2.145162522792816 l-0.9975046664476395,0.9447269141674042 m-0.22577421739697456,-0.5700943619012833 l-0.25958074256777763,-1.1900369822978973 0.5790475755929947,-1.193951889872551 l0.7375112920999527,0.20729273557662964 -0.3319598361849785,1.998172402381897 " fill="none" stroke="black" stroke-width="1" /></svg>