<?xml version="1.0" encoding="utf-8" ?>
<svg baseProfile="full" height="1550.0" version="1.1" width="1270.0" xmlns="http://www.w3.org/2000/svg" xmlns:ev="http://www.w3.org/2001/xml-events" xmlns:xlink="http://www.w3.org/1999/xlink"><defs /><rect fill="white" height="1550.0" width="1270.0" x="0" y="0" /><path d="M25,1440.0 m890.0,-5.0 m-845.0,-20.0 l-35.0,-85.0 -5.0,-170.0 l35.0,-480.0 20.0,20.0 l90.0,5.0 160.0,-40.0 l265.0,-110.0 235.0,-125.0 l20.0,45.0 50.0,1050.0 m-645.0,-865.0 l5.0,-315.0 15.0,85.0 l5.0,270.0 m215.0,-165.0 l80.0,-260.0 15.0,400.0 m0.0,-385.0 l90.0,-90.0 15.0,-65.0 l-5.0,-50.0 -50.0,-10.0 l-10.0,10.0 m-60.0,215.0 l-20.0,-40.0 10.0,-25.0 l50.0,-115.0 60.0,-95.0 m-440.0,355.0 l90.0,-65.0 70.0,-115.0 l0.0,-55.0 -20.0,-30.0 l-40.0,0.0 m-85.0,255.0 l-30.0,-60.0 0.0,-35.0 l20.0,-45.0 60.0,-80.0 l85.0,-55.0 m-335.0,860.0 l205.0,-145.0 55.0,80.0 l125.0,-50.0 145.0,-20.0 l265.0,-100.0 m140.0,200.0 l15.0,360.0 -5.0,-265.0 l-20.0,-115.0 -25.0,-5.0 l20.0,10.0 65.0,-5.0 l180.0,-45.0 15.0,45.0 l15.0,435.0 -10.0,20.0 l-190.0,-20.0 -85.0,10.0 m100.0,-435.0 l-20.0,-60.0 -5.0,-90.0 l0.0,-30.0 15.0,20.0 l5.0,140.0 m75.0,-65.0 l50.0,-170.0 -10.0,250.0 m-135.0,-185.0 l-40.0,-35.0 -15.0,-50.0 l0.0,-65.0 25.0,-50.0 m15.0,140.0 l5.0,20.0 25.0,-10.0 l10.0,-40.0 -25.0,-110.0 m125.0,150.0 l-20.0,0.0 -15.0,-20.0 l-25.0,-115.0 25.0,-25.0 l50.0,-5.0 m10.0,175.0 l20.0,-105.0 -15.0,-100.0 " fill="none" stroke="black" stroke-width="1" /></svg>