<?xml version="1.0" encoding="utf-8" ?>
<svg baseProfile="full" height="70.47357542207465" version="1.1" width="114.33922227472067" xmlns="http://www.w3.org/2000/svg" xmlns:ev="http://www.w3.org/2001/xml-events" xmlns:xlink="http://www.w3.org/1999/xlink"><defs /><rect fill="white" height="70.47357542207465" width="114.33922227472067" x="0" y="0" /><path d="M64.5553338713944,28.6557423917111 m2.849108576774597,-0.5175850167870522 l2.710946500301361,-0.011698805028572679 11.577070951461792,0.4693378880620003 l3.7145203351974487,1.4569942653179169 2.7986890077590942,1.9933271408081055 l1.01687952876091,1.7466481029987335 0.11667350307106972,1.2218397110700607 l-0.4422612488269806,0.9525017440319061 -1.7181429266929626,1.3286788761615753 l-1.9367000460624695,0.6972041726112366 -5.821558833122253,0.6694100052118301 l-4.368891417980194,0.0974781159311533 -3.898441195487976,-0.2202386036515236 l-2.6550763845443726,-0.3686240687966347 m-4.8184362053871155,-7.818089723587036 l-0.7966245710849762,4.5518165826797485 -1.2983433902263641,5.357692837715149 l-0.9950851649045944,3.177841603755951 -0.872662216424942,1.5737490355968475 l-0.7148109376430511,0.4595491662621498 -2.282867282629013,-0.5957568064332008 l-1.4007271826267242,-1.4232717454433441 -1.642850637435913,-4.522736370563507 l0.5403966084122658,-4.477593302726746 1.5009555220603943,-3.0821195244789124 m11.62837266921997,-2.770642042160034 l-2.274426817893982,0.22374438121914864 -9.150372743606567,0.0370067753829062 l-8.466911315917969,-0.8010780811309814 -2.677142024040222,-0.6611570715904236 l-3.482261896133423,-0.9912586212158203 -3.4154921770095825,-1.0037480294704437 l-3.4280475974082947,-0.40496498346328735 -2.8131166100502014,0.47658175230026245 l-3.1168341636657715,1.5684771537780762 -2.944507598876953,2.398229241371155 l-0.5763544887304306,1.5253955125808716 m31.750195026397705,0.7784613221883774 l-0.15129524283111095,0.9883135557174683 -1.1827710270881653,7.188734412193298 l-0.6355905532836914,3.385762572288513 -0.15993881970643997,1.2195377051830292 l5.795422196388245,-0.9875939041376114 4.53840047121048,-1.4512984454631805 l1.045166477560997,-3.4742721915245056 0.24936972185969353,-3.7428268790245056 l-0.34593913704156876,-2.7488908171653748 -0.6552334874868393,-1.5562893450260162 l-1.0071054100990295,-0.889068990945816 -3.434286117553711,-1.2073485553264618 l-5.33689558506012,-0.31539253890514374 -2.1708494424819946,0.2893093414604664 " fill="none" stroke="black" stroke-width="1" /></svg>