<?xml version="1.0" encoding="utf-8" ?>
<svg baseProfile="full" height="1555.0" version="1.1" width="3340.0" xmlns="http://www.w3.org/2000/svg" xmlns:ev="http://www.w3.org/2001/xml-events" xmlns:xlink="http://www.w3.org/1999/xlink"><defs /><rect fill="white" height="1555.0" width="3340.0" x="0" y="0" /><path d="M1930.0,240.0 m160.0,-20.0 l160.0,0.0 820.0,65.0 l175.0,100.0 60.0,80.0 l10.0,50.0 -15.0,60.0 l-60.0,60.0 -160.0,65.0 l-95.0,20.0 -210.0,20.0 l-390.0,-20.0 -380.0,0.0 l-30.0,10.0 m-180.0,-220.0 l45.0,60.0 380.0,880.0 l25.0,20.0 25.0,0.0 l-80.0,40.0 -75.0,10.0 l-235.0,10.0 -20.0,-20.0 l25.0,-70.0 -15.0,-150.0 l-225.0,-510.0 -40.0,-130.0 m280.0,-485.0 l-90.0,0.0 m230.0,50.0 l-95.0,10.0 -195.0,-10.0 l-630.0,50.0 -815.0,120.0 l5.0,-65.0 -45.0,-110.0 l-75.0,-90.0 -130.0,-95.0 l-20.0,20.0 10.0,105.0 l180.0,485.0 -10.0,50.0 l-110.0,160.0 -20.0,90.0 l20.0,20.0 190.0,-20.0 l130.0,-30.0 370.0,-160.0 l130.0,-25.0 375.0,-25.0 l190.0,-45.0 " fill="none" stroke="black" stroke-width="1" /></svg>