<?xml version="1.0" encoding="utf-8" ?>
<svg baseProfile="full" height="64.93705417960882" version="1.1" width="59.63482385616771" xmlns="http://www.w3.org/2000/svg" xmlns:ev="http://www.w3.org/2001/xml-events" xmlns:xlink="http://www.w3.org/1999/xlink"><defs /><rect fill="white" height="64.93705417960882" width="59.63482385616771" x="0" y="0" /><path d="M33.7168020720037,30.537654235959053 m0.34894395619630814,-3.0791297554969788 l-0.2933954820036888,-1.2886665761470795 -0.6616739183664322,-0.7581603527069092 l-1.7859360575675964,-0.41169755160808563 -2.2964616119861603,0.4914725199341774 l-1.2692078948020935,1.0792295634746552 -1.390218585729599,2.454880326986313 l-0.7153952866792679,3.0260923504829407 -0.03385001327842474,3.048623502254486 l0.3719670698046684,1.5771937370300293 1.1678922176361084,1.8355175852775574 l1.5392549335956573,1.13450787961483 1.7151571810245514,0.289536714553833 l1.59918874502182,-0.4300163686275482 1.1048971861600876,-1.0355151444673538 l1.06941320002079,-2.163379192352295 0.44744614511728287,-2.897525131702423 l-0.09990635327994823,-2.8325942158699036 -0.6523727625608444,-1.9551874697208405 l-1.0703226178884506,-1.4493972063064575 m-4.145860970020294,5.742194056510925 l-0.08809012360870838,-0.22455232217907906 m1.4370065927505493,0.030949257779866457 l-0.0064854195807129145,-0.012566638179123402 m-0.8608880639076233,-3.2826924324035645 l9.643526027502958e-05,-0.9950555860996246 m2.0949283242225647,1.5037670731544495 l0.11473946273326874,-0.46847108751535416 m0.08861038833856583,1.7895464599132538 l0.16699569299817085,-0.011058368254452944 m-0.672246515750885,2.3240986466407776 l-0.003163174551445991,0.004145974526181817 m-1.4836637675762177,1.8852873146533966 l0.008056298829615116,0.00117350289656315 m-1.8279491364955902,0.5600360780954361 l0.007142095128074288,0.005027529550716281 m-1.50161474943161,-0.7615117728710175 l0.010385443456470966,-0.005942498100921512 m-0.9813807159662247,-1.6813702881336212 l0.014856061898171902,-0.011310508707538247 m-0.18369628116488457,-1.952768862247467 l0.016366736963391304,0.0010024623043136671 m0.5509619042277336,-1.6554255783557892 l0.01850368222221732,0.0054948648903518915 m1.3266973197460175,-1.0585763305425644 l0.023994361981749535,0.015993998385965824 m1.1598974466323853,-0.42779169976711273 l0.025004323106259108,0.024074683897197247 m0.5277321115136147,-0.0661366293206811 l0.02250878605991602,0.018238637130707502 m0.14106119982898235,0.18322573974728584 l0.02085197949782014,0.022317836992442608 m-0.028136903420090675,0.1594877801835537 l0.01652065315283835,0.021595109719783068 m-0.2703039161860943,0.20777544006705284 l0.0184474338311702,0.01854295376688242 m-0.2955889515578747,0.2158338949084282 l0.016523911617696285,0.010521307121962309 m-0.3270196169614792,0.21821338683366776 l0.015154174761846662,0.013859199825674295 m-0.5449661239981651,0.23735014721751213 l0.018741076346486807,0.007788980146870017 m-0.27036027982831,0.1409547496587038 l0.01355783548206091,0.00936859636567533 m-0.0486332131549716,0.17606424167752266 l0.012521008029580116,0.008686741930432618 m-0.14785312116146088,0.07565807551145554 l0.012734474148601294,0.005298968753777444 m-0.08861886337399483,0.0425763288512826 l0.01569163054227829,0.0023415443138219416 m0.01558987656608224,0.0154770293738693 l0.021891812793910503,0.002370042639086023 m0.05419366527348757,-0.0009448083437746391 l0.027986131608486176,0.0030573902768082917 " fill="none" stroke="black" stroke-width="1" /></svg>