<?xml version="1.0" encoding="utf-8" ?>
<svg baseProfile="full" height="1675.0" version="1.1" width="995.0" xmlns="http://www.w3.org/2000/svg" xmlns:ev="http://www.w3.org/2001/xml-events" xmlns:xlink="http://www.w3.org/1999/xlink"><defs /><rect fill="white" height="1675.0" width="995.0" x="0" y="0" /><path d="M405.0,845.0 m20.0,-150.0 l-25.0,-30.0 -50.0,-15.0 l-60.0,5.0 -140.0,65.0 l-60.0,70.0 -55.0,95.0 l-10.0,95.0 10.0,90.0 l35.0,75.0 45.0,50.0 l80.0,25.0 60.0,-10.0 l50.0,-20.0 45.0,-45.0 l-25.0,0.0 -40.0,45.0 l-80.0,185.0 0.0,165.0 l25.0,50.0 45.0,40.0 l80.0,20.0 80.0,0.0 l125.0,-65.0 60.0,-125.0 l0.0,-110.0 -20.0,-50.0 l5.0,70.0 105.0,110.0 l70.0,25.0 60.0,0.0 l50.0,-20.0 35.0,-40.0 l40.0,-100.0 5.0,-200.0 l-20.0,-85.0 -30.0,-60.0 l-100.0,-60.0 -95.0,15.0 l-60.0,55.0 100.0,-35.0 l55.0,-55.0 20.0,-45.0 l-5.0,-80.0 -50.0,-65.0 l-40.0,-25.0 -90.0,-20.0 l-45.0,5.0 -75.0,50.0 l-35.0,55.0 5.0,25.0 m-45.0,10.0 l80.0,505.0 30.0,-50.0 l0.0,-90.0 -65.0,-305.0 l-60.0,-155.0 m85.0,115.0 l0.0,-165.0 25.0,-145.0 l100.0,-310.0 110.0,-175.0 l60.0,-30.0 30.0,0.0 m-385.0,835.0 l-40.0,-45.0 -40.0,-105.0 l-45.0,-435.0 -20.0,-80.0 l-20.0,-50.0 -40.0,-25.0 " fill="none" stroke="black" stroke-width="1" /></svg>