<?xml version="1.0" encoding="utf-8" ?>
<svg baseProfile="full" height="94.25807095316031" version="1.1" width="140.29847398400307" xmlns="http://www.w3.org/2000/svg" xmlns:ev="http://www.w3.org/2001/xml-events" xmlns:xlink="http://www.w3.org/1999/xlink"><defs /><rect fill="white" height="94.25807095316031" width="140.29847398400307" x="0" y="0" /><path d="M53.92002416745527,29.829252890067437 m-2.3792946338653564,0.10566446930170059 l-6.17276668548584,1.4944478869438171 -4.891067147254944,1.7654496431350708 l-4.803173840045929,2.3236818611621857 -2.928490936756134,1.9393059611320496 l-2.145683765411377,2.0455728471279144 -1.3251905143260956,2.0784175395965576 l-0.49934230744838715,1.9910822808742523 0.2559305354952812,1.9135601818561554 l1.2888436019420624,1.703941524028778 2.390882968902588,1.4769142866134644 l8.2039874792099,2.061648517847061 9.083475470542908,0.6872707605361938 l12.823553085327148,0.0001863327452156227 10.487560033798218,-0.994129478931427 l10.026754140853882,-1.8711304664611816 5.791947841644287,-1.6423234343528748 l4.6462032198905945,-1.8690796196460724 3.295179605484009,-2.048298418521881 l1.9775909185409546,-2.106770873069763 0.879037156701088,-2.1698692440986633 l-0.004623178101610392,-2.196492850780487 -0.8955953270196915,-2.0948918163776398 l-1.9348253309726715,-2.1529293060302734 -2.8866535425186157,-2.0586052536964417 l-3.8693639636039734,-1.8639466166496277 -4.63750422000885,-1.4619563519954681 l-8.07909607887268,-1.353452056646347 -8.836976885795593,-0.5325211957097054 l-8.641805648803711,0.36683861166238785 -7.5941044092178345,1.2132639437913895 l-6.8842703104019165,1.9565622508525848 m4.589122533798218,5.552092790603638 l-2.5325798988342285,-0.25232935324311256 -5.386101603507996,0.7062967121601105 l-6.143967509269714,1.9039863348007202 -3.556499183177948,1.65375217795372 l-2.911570370197296,1.799580305814743 -2.062584310770035,1.769707202911377 l-1.3722239434719086,1.7691896855831146 -1.1903449892997742,2.955964207649231 l-0.09439222514629364,2.39942267537117 0.8751985430717468,2.227037101984024 l1.8143202364444733,1.9540336728096008 2.9491180181503296,1.9114623963832855 l3.8435813784599304,1.5522316098213196 7.994442582130432,1.9001521170139313 l10.060594081878662,1.2767115235328674 10.450665950775146,0.6361333280801773 l14.282724857330322,4.164126494288212e-05 9.629324078559875,-0.6293754279613495 l8.722034692764282,-1.2537729740142822 7.156087160110474,-1.7579852044582367 l5.998411178588867,-2.3015856742858887 3.0864962935447693,-1.8566682934761047 l1.9178372621536255,-1.8770603835582733 1.0901232808828354,-1.977372169494629 l0.4275143891572952,-2.079359143972397 -0.24646028876304626,-2.150212377309799 l-1.1014091968536377,-2.130536437034607 -2.018301784992218,-2.2470523416996 l-2.839314341545105,-2.1487073600292206 -3.6607086658477783,-1.9736693799495697 l-4.259382486343384,-1.6495256125926971 -4.7574955224990845,-1.2739337980747223 l-7.668294310569763,-1.126106083393097 -8.384177684783936,-0.5234313383698463 l-8.215117454528809,0.22165121510624886 -7.877293229103088,1.0444128513336182 l-6.753374934196472,1.7745870351791382 -3.1340259313583374,1.3942056894302368 m7.85880446434021,20.03398895263672 l-0.0693322578445077,4.091432690620422 -0.1533661875873804,5.420260429382324 l0.20414620637893677,3.433941602706909 0.5073444545269012,0.5478135496377945 l13.744093179702759,-1.0314338654279709 6.294504404067993,-0.2101820521056652 l0.5240121111273766,-0.5667368695139885 -0.5667829886078835,-6.345347166061401 l-0.9778676182031631,-5.07611870765686 -9.434897303581238,-0.7975644618272781 l-9.250631928443909,0.5481592938303947 " fill="none" stroke="black" stroke-width="1" /></svg>