<?xml version="1.0" encoding="utf-8" ?>
<svg baseProfile="full" height="2035.0" version="1.1" width="5025.0" xmlns="http://www.w3.org/2000/svg" xmlns:ev="http://www.w3.org/2001/xml-events" xmlns:xlink="http://www.w3.org/1999/xlink"><defs /><rect fill="white" height="2035.0" width="5025.0" x="0" y="0" /><path d="M1935.0,285.0 m-120.0,5.0 l-290.0,65.0 -290.0,115.0 l-185.0,85.0 -190.0,115.0 l-110.0,100.0 -45.0,80.0 l-20.0,90.0 5.0,100.0 l60.0,110.0 130.0,90.0 l215.0,70.0 300.0,30.0 l565.0,-25.0 855.0,-100.0 l640.0,-110.0 365.0,-100.0 l260.0,-100.0 160.0,-105.0 l75.0,-115.0 10.0,-55.0 l-20.0,-60.0 -60.0,-70.0 l-110.0,-75.0 -125.0,-55.0 l-310.0,-95.0 -525.0,-85.0 l-300.0,-15.0 -310.0,35.0 l-280.0,55.0 -390.0,125.0 m-520.0,-55.0 l-280.0,115.0 -460.0,260.0 l-270.0,195.0 -205.0,200.0 l-75.0,105.0 -35.0,90.0 l-25.0,95.0 0.0,95.0 l55.0,160.0 175.0,160.0 l230.0,105.0 125.0,35.0 l215.0,35.0 590.0,25.0 l755.0,-40.0 525.0,-45.0 l515.0,-75.0 520.0,-105.0 l435.0,-135.0 360.0,-150.0 l220.0,-145.0 170.0,-165.0 l75.0,-155.0 10.0,-85.0 l-15.0,-90.0 -35.0,-100.0 l-70.0,-105.0 -90.0,-90.0 l-105.0,-85.0 -320.0,-180.0 l-370.0,-125.0 -415.0,-80.0 l-440.0,-30.0 -440.0,5.0 l-210.0,20.0 -205.0,40.0 l-430.0,110.0 m285.0,1100.0 l-10.0,545.0 15.0,60.0 l55.0,45.0 125.0,15.0 l840.0,-145.0 70.0,-20.0 l25.0,-20.0 15.0,-45.0 l-30.0,-520.0 -85.0,-65.0 l-130.0,-15.0 -640.0,65.0 l-230.0,5.0 " fill="none" stroke="black" stroke-width="1" /></svg>