<?xml version="1.0" encoding="utf-8" ?>
<svg baseProfile="full" height="2915.0" version="1.1" width="3350.0" xmlns="http://www.w3.org/2000/svg" xmlns:ev="http://www.w3.org/2001/xml-events" xmlns:xlink="http://www.w3.org/1999/xlink"><defs /><rect fill="white" height="2915.0" width="3350.0" x="0" y="0" /><path d="M2255.0,1065.0 m-390.0,0.0 l-270.0,-45.0 -300.0,0.0 l-175.0,25.0 -700.0,-5.0 l-215.0,-20.0 -50.0,30.0 l-75.0,95.0 -55.0,195.0 l0.0,150.0 40.0,95.0 l175.0,255.0 40.0,45.0 l75.0,35.0 150.0,30.0 l140.0,0.0 170.0,30.0 l425.0,30.0 40.0,15.0 l185.0,0.0 180.0,-40.0 l835.0,-35.0 60.0,-20.0 l335.0,-25.0 145.0,-55.0 l175.0,-170.0 110.0,-220.0 l20.0,-270.0 -40.0,-65.0 l-60.0,-55.0 -190.0,-100.0 l-160.0,-60.0 -300.0,-5.0 l-160.0,25.0 -195.0,0.0 l-220.0,50.0 m-905.0,30.0 l220.0,-340.0 270.0,-370.0 l175.0,-210.0 100.0,-60.0 l105.0,-5.0 70.0,20.0 l70.0,45.0 140.0,230.0 l20.0,120.0 -30.0,180.0 l-260.0,405.0 m-890.0,965.0 l-150.0,420.0 -50.0,100.0 l-30.0,180.0 5.0,110.0 l135.0,90.0 150.0,-5.0 l190.0,-120.0 105.0,-325.0 l40.0,-220.0 80.0,-170.0 l25.0,-20.0 " fill="none" stroke="black" stroke-width="1" /></svg>