<?xml version="1.0" encoding="utf-8" ?>
<svg baseProfile="full" height="114.41982295364141" version="1.1" width="109.74713520612568" xmlns="http://www.w3.org/2000/svg" xmlns:ev="http://www.w3.org/2001/xml-events" xmlns:xlink="http://www.w3.org/1999/xlink"><defs /><rect fill="white" height="114.41982295364141" width="109.74713520612568" x="0" y="0" /><path d="M70.57464577257633,52.29103269986808 m-7.725605368614197,-0.12426288798451424 l-8.999472856521606,0.0961980689316988 -7.196793556213379,0.5900077149271965 l-5.596356391906738,0.6631358712911606 -4.375360608100891,0.5402779579162598 l-3.7436139583587646,0.7003714889287949 -2.6763397455215454,0.7452866435050964 l-2.1267125010490417,0.8749843388795853 -1.726507693529129,1.174217239022255 l-0.9502945840358734,1.158687248826027 -0.4575885087251663,1.3650870323181152 l0.06921322550624609,1.4240089058876038 0.6386946886777878,1.1291151493787766 l1.1680353432893753,1.0277006775140762 2.578490972518921,1.2376406788825989 l3.57455313205719,0.9497778862714767 5.914523005485535,0.6995128840208054 l7.568745017051697,0.11390329338610172 14.285635948181152,-0.5665803328156471 l6.2339067459106445,-0.5693042650818825 7.776164412498474,-1.7400996387004852 l6.278815865516663,-2.7026408910751343 2.4009479582309723,-1.8824711441993713 l1.0845761001110077,-1.9067499041557312 0.1748327910900116,-2.1881553530693054 l-0.9169048070907593,-1.704374998807907 -2.0353589951992035,-1.65506973862648 l-2.672565281391144,-1.1838580667972565 -3.158583641052246,-0.6581372767686844 l-3.6439064145088196,-0.14793909154832363 m-31.501455307006836,8.800927996635437 l-0.22487979382276535,4.093179106712341 -0.8752495795488358,12.026804685592651 l-1.1284239590168,12.16449499130249 0.09843070060014725,2.2110603749752045 l0.635918453335762,0.3720536082983017 1.3437703251838684,-0.2553371712565422 l1.782589852809906,-1.0775969922542572 2.3867036402225494,-2.3790256679058075 l6.044870615005493,-9.65326189994812 3.0393466353416443,-7.669072151184082 l1.6842947900295258,-7.267137169837952 0.584459938108921,-3.9640608429908752 m-14.230289459228516,-5.853656530380249 l1.1244435608386993,-5.365220308303833 2.8891873359680176,-11.3113534450531 l1.7643624544143677,-4.425042271614075 1.902720183134079,-3.004673421382904 l1.7576636373996735,-1.4403599500656128 2.0872825384140015,-0.7540251314640045 l2.131437659263611,0.035122926346957684 1.3844859600067139,0.6185312569141388 l1.4518074691295624,1.734459400177002 0.7074888795614243,1.83181494474411 l0.27671825140714645,3.2691198587417603 -0.6593643128871918,5.260087251663208 l-1.4020730555057526,6.700494289398193 -0.023059172090142965,2.6883286237716675 m-4.616846740245819,8.128143548965454 l-0.32341089099645615,1.0129466652870178 0.2403908409178257,1.2440251559019089 " fill="none" stroke="black" stroke-width="1" /></svg>