<?xml version="1.0" encoding="utf-8" ?>
<svg baseProfile="full" height="2090.0" version="1.1" width="2995.0" xmlns="http://www.w3.org/2000/svg" xmlns:ev="http://www.w3.org/2001/xml-events" xmlns:xlink="http://www.w3.org/1999/xlink"><defs /><rect fill="white" height="2090.0" width="2995.0" x="0" y="0" /><path d="M2515.0,25 m-135.0,5.0 l-225.0,55.0 -760.0,70.0 l-390.0,60.0 -410.0,30.0 l-480.0,0.0 -80.0,20.0 l20.0,180.0 -15.0,155.0 l5.0,615.0 -20.0,300.0 l235.0,-55.0 495.0,-50.0 l570.0,0.0 305.0,20.0 l1210.0,-20.0 110.0,-20.0 l20.0,-55.0 -45.0,-160.0 l-75.0,-395.0 -80.0,-575.0 l-25.0,-60.0 -50.0,-55.0 l-115.0,-45.0 -125.0,-20.0 l-200.0,15.0 m-1800.0,1400.0 l-70.0,25.0 -65.0,45.0 l-90.0,130.0 15.0,210.0 l65.0,105.0 105.0,65.0 l205.0,5.0 135.0,-35.0 l55.0,-40.0 75.0,-80.0 l15.0,-55.0 5.0,-165.0 l-50.0,-95.0 -50.0,-55.0 l-130.0,-65.0 -65.0,0.0 l-160.0,50.0 -10.0,25.0 m1045.0,-45.0 l-85.0,0.0 -125.0,30.0 l-55.0,50.0 -35.0,110.0 l35.0,215.0 160.0,155.0 l65.0,30.0 70.0,10.0 l320.0,-70.0 65.0,-35.0 l90.0,-110.0 0.0,-40.0 l-60.0,-160.0 -45.0,-65.0 l-50.0,-50.0 -220.0,-150.0 l-275.0,25.0 m1045.0,50.0 l-25.0,-5.0 -65.0,70.0 l-15.0,50.0 -10.0,150.0 l10.0,60.0 35.0,70.0 l230.0,140.0 65.0,0.0 l215.0,-65.0 25.0,-50.0 l20.0,-215.0 -25.0,-55.0 l-105.0,-125.0 -55.0,-25.0 l-235.0,-40.0 -140.0,40.0 l-30.0,50.0 m-2230.0,-675.0 l315.0,10.0 245.0,-40.0 l235.0,-5.0 15.0,-160.0 l-105.0,-420.0 m395.0,170.0 l10.0,205.0 45.0,20.0 l60.0,0.0 165.0,-15.0 l35.0,-30.0 15.0,-285.0 l-230.0,5.0 -90.0,30.0 m595.0,-80.0 l5.0,120.0 70.0,185.0 l320.0,35.0 90.0,-70.0 l30.0,-115.0 -5.0,-155.0 l-35.0,-15.0 -190.0,-15.0 m395.0,-45.0 l-20.0,50.0 5.0,295.0 l230.0,25.0 25.0,-95.0 l-20.0,-60.0 0.0,-155.0 l-190.0,-30.0 m-1575.0,765.0 l0.0,0.0 m-10.0,-55.0 l230.0,-55.0 35.0,20.0 l90.0,65.0 40.0,50.0 l-70.0,55.0 -15.0,75.0 " fill="none" stroke="black" stroke-width="1" /></svg>