<?xml version="1.0" encoding="utf-8" ?>
<svg baseProfile="full" height="89.59973076358438" version="1.1" width="124.36577521264553" xmlns="http://www.w3.org/2000/svg" xmlns:ev="http://www.w3.org/2001/xml-events" xmlns:xlink="http://www.w3.org/1999/xlink"><defs /><rect fill="white" height="89.59973076358438" width="124.36577521264553" x="0" y="0" /><path d="M71.97889544069767,25.660161329433322 m-2.694430649280548,0.08282148279249668 l-8.711557984352112,-0.35868454724550247 -10.93501091003418,0.30219998210668564 l-10.284572839736938,1.5114772319793701 -4.678279161453247,1.4913764595985413 l-3.534705936908722,1.9868673384189606 -2.8518566489219666,2.580128312110901 l-1.9885945320129395,2.844250500202179 -1.104367971420288,3.018047511577606 l-0.19551880657672882,3.0989593267440796 0.4738108068704605,1.6516456007957458 l1.0655378550291061,1.5207374095916748 2.7397742867469788,1.9514712691307068 l8.891677260398865,2.6279571652412415 17.889328002929688,1.9517481327056885 l22.421038150787354,0.1528274267911911 9.891173243522644,-1.1720535904169083 l3.964095115661621,-1.0394319891929626 2.8837254643440247,-1.3437971472740173 l2.0785295963287354,-1.7244286835193634 1.4242187142372131,-2.255888879299164 l0.6428667157888412,-2.941009998321533 -0.08372628130018711,-3.118489980697632 l-0.9704696387052536,-2.80985563993454 -1.7242074012756348,-2.72914320230484 l-2.335142195224762,-2.3890984058380127 -2.881307303905487,-2.0136526226997375 l-4.890220463275909,-2.1260373294353485 -3.9654096961021423,-1.0100802779197693 l-5.677967667579651,-0.4010241851210594 -4.2699626088142395,0.1665649190545082 l-3.635682463645935,0.8509492874145508 m-31.447510719299316,14.203001260757446 l-0.5410131439566612,2.2668886184692383 -0.0687622744590044,9.441370964050293 l-0.04279637709259987,8.02028477191925 0.36413826048374176,2.0352141559123993 l0.66033735871315,1.1161138862371445 1.1802753061056137,0.7599996775388718 l2.4474982917308807,0.5808717012405396 3.3285540342330933,0.15847152099013329 l6.828526258468628,-0.733967199921608 7.274414896965027,-0.10515409521758556 l7.398921847343445,-0.33186472952365875 6.765618324279785,-0.102285360917449 l6.307437419891357,-0.2723616361618042 2.811083495616913,-0.6940761208534241 l2.2489434480667114,-1.3335087895393372 1.670382022857666,-1.9893746078014374 l1.6990475356578827,-3.9274150133132935 1.0280952602624893,-4.944010674953461 l0.6213806197047234,-7.460816502571106 -0.18488815054297447,-4.498390555381775 l-0.7986991852521896,-2.1813933551311493 -1.146124079823494,-1.1028805375099182 l-2.0916856825351715,-0.8141282200813293 -3.236614465713501,-0.42764637619256973 l-5.472964644432068,0.28405386954545975 -4.578889012336731,-0.12986721470952034 l-11.008758544921875,0.6746352463960648 -10.444303750991821,0.7876025140285492 l-7.108921408653259,0.5830566585063934 -5.719462633132935,0.7918047159910202 l-2.487310767173767,0.7643230259418488 -1.7998512089252472,1.08749121427536 l-0.8630939573049545,1.0107192397117615 -0.24196555837988853,1.2108486890792847 l0.39529118686914444,1.3077141344547272 1.714678704738617,1.6061098873615265 l2.7917933464050293,1.3639441132545471 3.4319379925727844,0.942406952381134 l7.8317564725875854,1.1114758253097534 16.83382272720337,0.7985412329435349 l11.564671993255615,-0.5730007216334343 3.3225971460342407,-0.732947364449501 l2.5650694966316223,-1.1266855895519257 1.698058396577835,-1.4450284838676453 l0.9189183264970779,-1.8434499204158783 0.04359636455774307,-1.6571241617202759 l-0.9980366379022598,-1.7205126583576202 -1.9275352358818054,-1.6555266082286835 l-2.5584235787391663,-1.2868113815784454 -4.703792333602905,-1.1216650903224945 l-6.007348299026489,-0.4036279395222664 -6.032150387763977,0.17607947811484337 l-5.586475729942322,1.055893450975418 -3.4489697217941284,1.1053958535194397 l-3.9382943511009216,1.9461488723754883 -3.01298588514328,2.2199666500091553 l-2.106865644454956,2.340819537639618 -0.8736814558506012,1.8356993794441223 l-0.03755280049517751,1.9381773471832275 0.640232264995575,0.9720618277788162 l1.8298599123954773,1.040779948234558 3.1278032064437866,0.7120942324399948 l7.1820068359375,0.572485439479351 8.444629311561584,-0.058248117566108704 l7.931469082832336,-0.9707711637020111 5.0822514295578,-1.250278800725937 l2.7182331681251526,-1.2814712524414062 1.7537131905555725,-1.6213424503803253 l0.8366896957159042,-1.939394623041153 -0.07745513692498207,-1.582023948431015 l-1.2314438819885254,-1.7638340592384338 -2.109813541173935,-1.5761540830135345 l-2.747737169265747,-1.2523838877677917 -3.2421264052391052,-0.8591830730438232 l-3.907890021800995,-0.485316701233387 -5.642513632774353,0.034313148353248835 l-5.3449928760528564,0.8545166254043579 -3.3335107564926147,1.0186956077814102 l-2.7416253089904785,1.2907087802886963 -2.0317502319812775,1.4582306146621704 l-1.3335791230201721,1.6053465008735657 -0.42239829897880554,1.2442702800035477 l0.21034695208072662,1.2049493938684464 0.8984224498271942,0.7665766030550003 l2.3255839943885803,0.8139170706272125 3.4323737025260925,0.4591129347681999 l5.126122832298279,0.17885975539684296 7.0534127950668335,-0.5245004221796989 l4.617541432380676,-0.9319138526916504 2.5312912464141846,-1.0040267556905746 l1.755145937204361,-1.3524429500102997 0.8192448318004608,-1.641809195280075 l-0.09030207060277462,-1.910422295331955 -1.2849140167236328,-1.4909479022026062 l-2.2635750472545624,-1.2196807563304901 -2.9595693945884705,-0.8099687844514847 " fill="none" stroke="black" stroke-width="1" /></svg>