<?xml version="1.0" encoding="utf-8" ?>
<svg baseProfile="full" height="1655.0" version="1.1" width="1870.0" xmlns="http://www.w3.org/2000/svg" xmlns:ev="http://www.w3.org/2001/xml-events" xmlns:xlink="http://www.w3.org/1999/xlink"><defs /><rect fill="white" height="1655.0" width="1870.0" x="0" y="0" /><path d="M1505.0,940.0 m-25.0,-150.0 l-80.0,-120.0 -45.0,-50.0 l-110.0,-55.0 -445.0,0.0 l-130.0,25.0 -325.0,110.0 l-160.0,65.0 -95.0,60.0 l-65.0,155.0 10.0,380.0 l35.0,60.0 75.0,50.0 l390.0,130.0 210.0,30.0 l835.0,0.0 80.0,-5.0 l90.0,-40.0 70.0,-80.0 l25.0,-135.0 -105.0,-185.0 l-140.0,-185.0 -335.0,-230.0 l-70.0,-10.0 m-355.0,-130.0 l5.0,-500.0 m60.0,425.0 l-15.0,-25.0 15.0,-115.0 l70.0,-135.0 295.0,-200.0 l125.0,-55.0 50.0,0.0 l15.0,65.0 -10.0,125.0 l-185.0,105.0 -370.0,140.0 l-95.0,70.0 m105.0,-60.0 l115.0,-105.0 105.0,-70.0 l360.0,-170.0 " fill="none" stroke="black" stroke-width="1" /></svg>