<?xml version="1.0" encoding="utf-8" ?>
<svg baseProfile="full" height="81.94003334268928" version="1.1" width="85.17917327582836" xmlns="http://www.w3.org/2000/svg" xmlns:ev="http://www.w3.org/2001/xml-events" xmlns:xlink="http://www.w3.org/1999/xlink"><defs /><rect fill="white" height="81.94003334268928" width="85.17917327582836" x="0" y="0" /><path d="M55.646232441067696,45.53198054920358 m-0.535438060760498,-3.137916922569275 l-1.291494071483612,-2.3219455778598785 -1.0057128220796585,-1.1685974895954132 l-1.3384009897708893,-0.8441855758428574 -3.326219320297241,-0.9098431468009949 l-6.621715426445007,0.0003238159843022004 -5.52183210849762,1.2208851426839828 l-5.037493705749512,2.222867012023926 -3.8212740421295166,2.8560391068458557 l-1.3538019359111786,1.976197510957718 -0.7928499579429626,4.5543172955513 l0.44356822967529297,1.3584193587303162 1.3152414560317993,1.4067590236663818 l5.276837348937988,2.6478400826454163 3.856048882007599,0.9608306735754013 l16.784662008285522,0.5860624834895134 1.9788329303264618,-0.2871345542371273 l3.0884283781051636,-1.2706778943538666 1.5358135104179382,-1.4215770363807678 l0.899740532040596,-2.546500861644745 -0.000435758447565604,-3.33183616399765 l-1.269451528787613,-2.7419084310531616 -2.4278803169727325,-2.3808394372463226 m-21.527464389801025,-2.6391607522964478 l-0.16116486862301826,-8.02541732788086 -0.22457510232925415,-7.294980883598328 m9.000099301338196,13.948215246200562 l0.03744563087821007,-1.5582403540611267 0.9923437237739563,-3.9691516757011414 l1.6837197542190552,-4.163655936717987 1.3673704862594604,-1.9805236160755157 l1.4620746672153473,-1.1258134990930557 1.6105563938617706,-0.5010396987199783 l2.218621075153351,0.19198264926671982 2.025664895772934,1.4604093134403229 l0.9942063689231873,1.5374837815761566 m-8.197495341300964,6.644498109817505 l3.57826828956604,-3.242083787918091 3.3084407448768616,-2.7862924337387085 l2.645997703075409,-1.934647560119629 1.9575096666812897,-1.3326472043991089 " fill="none" stroke="black" stroke-width="1" /></svg>