<?xml version="1.0" encoding="utf-8" ?>
<svg baseProfile="full" height="1130.0" version="1.1" width="885.0" xmlns="http://www.w3.org/2000/svg" xmlns:ev="http://www.w3.org/2001/xml-events" xmlns:xlink="http://www.w3.org/1999/xlink"><defs /><rect fill="white" height="1130.0" width="885.0" x="0" y="0" /><path d="M480.0,400.0 m-215.0,60.0 l-180.0,90.0 -60.0,75.0 l0.0,40.0 20.0,40.0 l60.0,50.0 70.0,25.0 l315.0,55.0 205.0,-5.0 l105.0,-60.0 40.0,-60.0 l20.0,-85.0 -5.0,-80.0 l-45.0,-80.0 -75.0,-50.0 l-100.0,-35.0 -130.0,5.0 l-35.0,20.0 m-105.0,280.0 l230.0,310.0 115.0,110.0 l45.0,-15.0 20.0,-40.0 l-10.0,-95.0 -90.0,-145.0 l-135.0,-110.0 m-205.0,-215.0 l20.0,-125.0 80.0,-165.0 l105.0,-125.0 95.0,-45.0 l55.0,0.0 15.0,20.0 l10.0,90.0 -40.0,130.0 l-90.0,165.0 " fill="none" stroke="black" stroke-width="1" /></svg>