<?xml version="1.0" encoding="utf-8" ?>
<svg baseProfile="full" height="69.13510943762958" version="1.1" width="66.3118232596753" xmlns="http://www.w3.org/2000/svg" xmlns:ev="http://www.w3.org/2001/xml-events" xmlns:xlink="http://www.w3.org/1999/xlink"><defs /><rect fill="white" height="69.13510943762958" width="66.3118232596753" x="0" y="0" /><path d="M33.916539028286934,29.453488605067832 m-4.393204748630524,1.1915340274572372 l-2.9021915793418884,1.645064651966095 -1.2464656680822372,1.4355340600013733 l-0.37467703223228455,1.1991222947835922 0.15497789718210697,1.1270733177661896 l0.8866337686777115,1.054726243019104 1.8583856523036957,0.9651773422956467 l6.166728138923645,0.6472243368625641 3.4668779373168945,-0.48968784511089325 l2.089848518371582,-0.9772389382123947 1.1655385047197342,-1.163705587387085 l0.5226344615221024,-1.2952801585197449 0.00019838065782096237,-1.3761216402053833 l-0.5870917066931725,-1.3419966399669647 -1.174197793006897,-1.2382368743419647 l-1.623660922050476,-0.8913101255893707 -1.8836914002895355,-0.4452337697148323 l-2.602013647556305,0.0003831200592685491 m-6.496734023094177,8.056010007858276 l-0.5682317540049553,3.5979288816452026 0.005277702584862709,2.020127922296524 l0.3998172655701637,0.5107050761580467 4.74172979593277,0.4498211294412613 l4.43020761013031,-0.15606614761054516 3.1709232926368713,-0.6625910848379135 l1.1024881899356842,-0.6995056569576263 0.6335994601249695,-1.6087338328361511 l-0.17280083149671555,-6.13805890083313 m-10.02859115600586,-1.3482004404067993 l-0.43948423117399216,-0.668504387140274 -6.099946858739713e-05,-3.3940336108207703 l0.36228906363248825,-3.207031488418579 0.4608995094895363,-0.7394542545080185 l1.250443458557129,-0.5129296332597733 0.5272038280963898,0.20201865583658218 l0.545882061123848,1.315528005361557 0.7676953077316284,7.004520893096924 " fill="none" stroke="black" stroke-width="1" /></svg>