<?xml version="1.0" encoding="utf-8" ?>
<svg baseProfile="full" height="77.14061298407614" version="1.1" width="80.16249543521553" xmlns="http://www.w3.org/2000/svg" xmlns:ev="http://www.w3.org/2001/xml-events" xmlns:xlink="http://www.w3.org/1999/xlink"><defs /><rect fill="white" height="77.14061298407614" width="80.16249543521553" x="0" y="0" /><path d="M38.024015546543524,31.747639421373606 m-0.014507005689665675,13.342686891555786 l1.1364276707172394,3.0422353744506836 0.7931038737297058,1.1683278530836105 l0.8421360701322556,0.3867444768548012 0.8798431605100632,-0.17068618908524513 l0.8299824595451355,-1.4242446422576904 0.43663140386343,-2.911345362663269 l-0.10987027548253536,-5.115049481391907 -1.0406099259853363,-4.891342222690582 l-1.1478310823440552,-2.5369685888290405 -0.8262062817811966,-0.8904558420181274 l-0.9517140686511993,-0.27569856494665146 -0.980885922908783,0.2004125714302063 l-0.7841449975967407,0.7990424335002899 m1.3349515199661255,0.36940310150384903 l-0.938136950135231,-2.7715682983398438 -1.1998721212148666,-1.9563102722167969 l-2.6798391342163086,-2.2119151055812836 -1.8401454389095306,-0.7252008467912674 l-1.9308023154735565,-0.17570670694112778 -1.8287688493728638,0.47634467482566833 l-1.6545577347278595,1.3967882096767426 -0.8403503149747849,1.3933835923671722 l-0.5088492855429649,2.511187195777893 0.17850548028945923,2.5320079922676086 l0.9278972446918488,1.9664797186851501 1.577063798904419,1.7511609196662903 l2.0563028752803802,1.248471438884735 0.5649714544415474,0.45706670731306076 l0.577557310461998,0.42454492300748825 -0.21204281598329544,0.3264426067471504 l-0.6588952243328094,0.8622413128614426 -1.2805521488189697,2.3419031500816345 l-0.7473956793546677,2.9119297862052917 -0.04038561135530472,2.7239078283309937 l0.41508715599775314,1.3155633211135864 1.2647028267383575,1.5239185094833374 l1.817474514245987,0.8510368317365646 2.309466302394867,0.12623426504433155 l1.8985596299171448,-0.7308433204889297 1.7586301267147064,-1.5210171043872833 l1.3609910011291504,-2.1860262751579285 m3.8225865364074707,-15.374411344528198 l0.979803055524826,-1.578611433506012 2.878788113594055,-2.3249076306819916 l2.42989644408226,-1.0178292542696 2.4629072844982147,-0.27327820658683777 l1.839311122894287,0.40131956338882446 1.096145138144493,0.789225697517395 l0.8437801152467728,1.684352457523346 0.0413393834605813,2.16096892952919 l-1.0073701292276382,2.069157660007477 -1.8796221911907196,1.791212558746338 l-2.2384749352931976,1.1349820345640182 1.2788920104503632,0.8153403550386429 l1.5102066099643707,1.6060811281204224 0.5000077188014984,1.317710280418396 l0.001997518556891009,2.175143212080002 -0.79417884349823,1.725972294807434 l-1.5810401737689972,1.4617712795734406 -2.7571573853492737,0.9681438654661179 l-2.345740646123886,0.04633113741874695 -1.775061935186386,-0.6403195112943649 " fill="none" stroke="black" stroke-width="1" /></svg>