<?xml version="1.0" encoding="utf-8" ?>
<svg baseProfile="full" height="1255.0" version="1.1" width="1820.0" xmlns="http://www.w3.org/2000/svg" xmlns:ev="http://www.w3.org/2001/xml-events" xmlns:xlink="http://www.w3.org/1999/xlink"><defs /><rect fill="white" height="1255.0" width="1820.0" x="0" y="0" /><path d="M775.0,285.0 m5.0,680.0 l50.0,135.0 55.0,25.0 l50.0,0.0 25.0,-30.0 l5.0,-35.0 -5.0,-675.0 l-20.0,-160.0 -20.0,-60.0 l-45.0,-35.0 -25.0,30.0 l-50.0,140.0 -20.0,-80.0 l-35.0,-60.0 -120.0,-90.0 l-195.0,-45.0 -170.0,0.0 l-70.0,30.0 -60.0,85.0 l0.0,120.0 75.0,120.0 l115.0,70.0 -135.0,5.0 l-65.0,35.0 -65.0,100.0 l-30.0,195.0 10.0,205.0 l95.0,135.0 75.0,55.0 l120.0,45.0 170.0,5.0 l80.0,-15.0 110.0,-55.0 m295.0,-860.0 l90.0,-105.0 125.0,-85.0 l130.0,-30.0 100.0,15.0 l20.0,25.0 15.0,85.0 l-10.0,105.0 -25.0,45.0 l-140.0,105.0 -105.0,30.0 l25.0,-35.0 120.0,-30.0 l190.0,0.0 45.0,15.0 l85.0,40.0 70.0,55.0 l50.0,75.0 30.0,110.0 l-10.0,120.0 -55.0,90.0 l-120.0,120.0 -140.0,70.0 l-255.0,15.0 -165.0,-60.0 l-35.0,-25.0 -25.0,-50.0 m-275.0,135.0 l75.0,-70.0 60.0,-105.0 " fill="none" stroke="black" stroke-width="1" /></svg>