<?xml version="1.0" encoding="utf-8" ?>
<svg baseProfile="full" height="1580.0" version="1.1" width="2270.0" xmlns="http://www.w3.org/2000/svg" xmlns:ev="http://www.w3.org/2001/xml-events" xmlns:xlink="http://www.w3.org/1999/xlink"><defs /><rect fill="white" height="1580.0" width="2270.0" x="0" y="0" /><path d="M310.0,605.0 m-25.0,-20.0 l-90.0,-5.0 -125.0,65.0 l-45.0,45.0 0.0,25.0 l180.0,90.0 160.0,35.0 l130.0,-5.0 50.0,35.0 l95.0,230.0 -10.0,415.0 l35.0,40.0 50.0,-5.0 l40.0,-50.0 70.0,-220.0 l60.0,-130.0 30.0,-130.0 l40.0,-75.0 50.0,-30.0 l190.0,70.0 135.0,75.0 l340.0,110.0 240.0,30.0 l210.0,75.0 80.0,-10.0 l45.0,-100.0 -5.0,-285.0 l-35.0,-100.0 -120.0,-115.0 l-50.0,-15.0 -200.0,0.0 l-325.0,35.0 -200.0,-5.0 l25.0,-605.0 -30.0,-45.0 l-100.0,-5.0 -225.0,120.0 l-120.0,100.0 -210.0,100.0 l-95.0,125.0 -95.0,90.0 l-100.0,20.0 -150.0,-25.0 " fill="none" stroke="black" stroke-width="1" /></svg>