<?xml version="1.0" encoding="utf-8" ?>
<svg baseProfile="full" height="80.63552405219525" version="1.1" width="85.96569523215294" xmlns="http://www.w3.org/2000/svg" xmlns:ev="http://www.w3.org/2001/xml-events" xmlns:xlink="http://www.w3.org/1999/xlink"><defs /><rect fill="white" height="80.63552405219525" width="85.96569523215294" x="0" y="0" /><path d="M31.072859822052123,37.060545082204044 m-0.532049871981144,-0.4785113036632538 l-1.8515707552433014,-0.17368679866194725 -2.8649774193763733,0.954059362411499 l-0.823662281036377,1.0254226624965668 -0.0005994944149279036,2.026301473379135 l1.8130192160606384,2.2508272528648376 3.5290998220443726,1.463681012392044 l3.0707499384880066,0.37823185324668884 1.7772528529167175,-0.1954650692641735 l-1.0968198627233505,3.3559536933898926 -0.4991959035396576,3.555345833301544 l0.7489164173603058,2.718018591403961 1.857864111661911,1.3050971925258636 l1.9457733631134033,0.3897032141685486 2.2951285541057587,-0.6388607621192932 l1.4692232012748718,-1.3381454348564148 1.9240786135196686,-4.354900121688843 l1.0813267529010773,-3.148951530456543 5.449050664901733,-0.5776101723313332 l3.731686770915985,-0.015594507567584515 3.233208656311035,-0.1116921566426754 l1.957889348268509,-0.5751122161746025 1.0033311694860458,-0.9863900393247604 l0.674111545085907,-1.9923670589923859 -0.14609488658607006,-2.744963765144348 l-0.9771917760372162,-1.939939260482788 -2.4491357803344727,-2.3427140712738037 l-2.3324474692344666,-1.1506015062332153 -3.646423816680908,-0.6103077903389931 l-6.393835544586182,0.46638742089271545 -2.209237366914749,0.7821840047836304 l-3.227151334285736,2.540099322795868 -1.5423408150672913,-0.31020382419228554 l-2.3369410634040833,-2.6106053590774536 -2.5750359892845154,-5.282337665557861 l-1.9807398319244385,-3.6928975582122803 -1.6637851297855377,2.893911302089691 l-1.029701977968216,4.952223598957062 -0.5637798458337784,4.420688450336456 l-0.23249337449669838,2.826102375984192 -0.12719187885522842,1.8436557054519653 l0.16417231410741806,0.9097233414649963 " fill="none" stroke="black" stroke-width="1" /></svg>