<?xml version="1.0" encoding="utf-8" ?>
<svg baseProfile="full" height="84.44093452999368" version="1.1" width="104.80738228186965" xmlns="http://www.w3.org/2000/svg" xmlns:ev="http://www.w3.org/2001/xml-events" xmlns:xlink="http://www.w3.org/1999/xlink"><defs /><rect fill="white" height="84.44093452999368" width="104.80738228186965" x="0" y="0" /><path d="M50.636042969763366,36.288734964655305 m-10.661334991455078,0.033934342209249735 l-2.1655717492103577,0.34853119403123856 -8.19807767868042,1.182144209742546 l-2.8531399369239807,0.9444179385900497 -1.2046413123607635,0.8274324238300323 l-0.5531135946512222,0.9768953174352646 -0.00016370648154406808,1.7256933450698853 l0.9306294471025467,1.3678787648677826 5.090800523757935,2.7587413787841797 l9.141945838928223,1.821056306362152 7.725135087966919,0.7693201303482056 l4.57421213388443,0.41086647659540176 m-3.332895040512085,-5.694255232810974 l0.05967749282717705,5.310297608375549 0.6302399188280106,5.073556303977966 l0.9275966137647629,3.062470555305481 1.0292647033929825,1.3493354618549347 l1.935683786869049,0.8835019916296005 2.5319665670394897,0.0003810491398326121 l1.3758288323879242,-0.9266854822635651 1.3096636533737183,-2.464354634284973 l0.6078604981303215,-3.9707013964653015 -0.6844883412122726,-7.071065306663513 l-1.067264974117279,-1.7218929529190063 m-12.965946197509766,-6.9522446393966675 l5.065780878067017,-1.269260197877884 6.164597868919373,-1.2009377032518387 l5.7483971118927,-0.8632287383079529 5.2968597412109375,-0.4905565455555916 l4.125975072383881,0.03770353039726615 3.3783820271492004,0.5304467678070068 l2.6251795887947083,0.8492886275053024 1.975979059934616,1.5750916302204132 l0.6063203886151314,1.2173663824796677 -0.17313998192548752,1.5563057363033295 l-1.7527706921100616,1.6359105706214905 -14.951679706573486,2.141329050064087 l-12.47921347618103,1.0200592130422592 m8.898058533668518,-4.028661251068115 l-0.5620279163122177,-5.13768196105957 -0.20450782030820847,-4.034022092819214 l0.26015689596533775,-1.8046697974205017 1.5426665544509888,-3.0684733390808105 l2.8879883885383606,6.978911757469177 1.5994933247566223,5.657080411911011 m-11.13695740699768,3.0357596278190613 l-1.35009765625,-1.2270992249250412 -5.0426554679870605,-2.2513897716999054 l-5.68290114402771,-1.3801372051239014 -3.9590591192245483,-0.16032764688134193 " fill="none" stroke="black" stroke-width="1" /></svg>