<?xml version="1.0" encoding="utf-8" ?>
<svg baseProfile="full" height="1880.0" version="1.1" width="3205.0" xmlns="http://www.w3.org/2000/svg" xmlns:ev="http://www.w3.org/2001/xml-events" xmlns:xlink="http://www.w3.org/1999/xlink"><defs /><rect fill="white" height="1880.0" width="3205.0" x="0" y="0" /><path d="M1455.0,465.0 m-575.0,0.0 l-95.0,20.0 -545.0,40.0 l-110.0,35.0 -35.0,35.0 l-40.0,70.0 -30.0,130.0 l60.0,85.0 65.0,30.0 l885.0,270.0 250.0,45.0 l255.0,5.0 155.0,-35.0 l35.0,-25.0 m-645.0,0.0 l-50.0,100.0 -25.0,115.0 l-20.0,235.0 5.0,235.0 l130.0,-5.0 135.0,-30.0 l90.0,-40.0 95.0,-80.0 l110.0,-175.0 10.0,-265.0 m90.0,-55.0 l380.0,-20.0 545.0,-95.0 l120.0,-45.0 50.0,-85.0 l-15.0,-70.0 -185.0,-220.0 l-135.0,-60.0 -360.0,-65.0 l-575.0,-10.0 -285.0,-30.0 m-70.0,-10.0 l-5.0,-30.0 125.0,-350.0 l80.0,-70.0 115.0,-20.0 l35.0,60.0 -15.0,455.0 m1130.0,285.0 l170.0,-175.0 185.0,-140.0 l135.0,-75.0 90.0,-30.0 l10.0,495.0 " fill="none" stroke="black" stroke-width="1" /></svg>