<?xml version="1.0" encoding="utf-8" ?>
<svg baseProfile="full" height="1030.0" version="1.1" width="595.0" xmlns="http://www.w3.org/2000/svg" xmlns:ev="http://www.w3.org/2001/xml-events" xmlns:xlink="http://www.w3.org/1999/xlink"><defs /><rect fill="white" height="1030.0" width="595.0" x="0" y="0" /><path d="M200.0,270.0 m-50.0,-5.0 l-55.0,45.0 -55.0,130.0 l-15.0,95.0 10.0,175.0 l30.0,100.0 60.0,105.0 l80.0,70.0 65.0,20.0 l80.0,-10.0 70.0,-45.0 l65.0,-75.0 55.0,-120.0 l25.0,-100.0 5.0,-135.0 l-25.0,-125.0 -70.0,-115.0 l-90.0,-60.0 -90.0,-10.0 l160.0,-180.0 25.0,50.0 l10.0,175.0 -390.0,-5.0 l-55.0,15.0 35.0,-240.0 l100.0,185.0 -30.0,195.0 l-25.0,-25.0 -15.0,30.0 l15.0,25.0 40.0,-35.0 l-25.0,-15.0 -15.0,50.0 l215.0,-35.0 -5.0,55.0 l25.0,10.0 25.0,-15.0 l10.0,-50.0 -25.0,15.0 l0.0,25.0 30.0,25.0 l50.0,-25.0 -5.0,-25.0 l-25.0,-5.0 -210.0,255.0 l40.0,-50.0 25.0,-5.0 l20.0,75.0 -70.0,-60.0 l-15.0,130.0 10.0,150.0 l75.0,-15.0 30.0,-50.0 l-120.0,65.0 -50.0,-145.0 l-120.0,-165.0 50.0,10.0 l-15.0,-75.0 25.0,25.0 l295.0,75.0 30.0,-20.0 l-50.0,-40.0 30.0,-10.0 l15.0,-40.0 25.0,5.0 " fill="none" stroke="black" stroke-width="1" /></svg>