<?xml version="1.0" encoding="utf-8" ?>
<svg baseProfile="full" height="69.86021768301725" version="1.1" width="71.27284623877131" xmlns="http://www.w3.org/2000/svg" xmlns:ev="http://www.w3.org/2001/xml-events" xmlns:xlink="http://www.w3.org/1999/xlink"><defs /><rect fill="white" height="69.86021768301725" width="71.27284623877131" x="0" y="0" /><path d="M35.16472295731546,29.589008003877098 m-1.1465752124786377,0.009449513163417578 l-1.0613197088241577,0.8932968974113464 -1.1157063394784927,2.20707967877388 l-0.5151962116360664,2.4790415167808533 -0.00016632344340905547,3.4463542699813843 l0.7921283692121506,2.6163116097450256 1.0611042380332947,1.7505238950252533 l1.2287737429141998,1.2078950554132462 1.3501782715320587,0.6611287593841553 l1.7517729103565216,0.0001284834615944419 1.4891351759433746,-0.5674335733056068 l1.3814741373062134,-1.1924688518047333 1.1577297747135162,-1.704050451517105 l1.0749556869268417,-3.324819505214691 0.2449374832212925,-3.9035430550575256 l-1.1258000135421753,-2.6886680722236633 -1.952064335346222,-1.6321954131126404 l-2.3035934567451477,-0.4907992482185364 -1.6304126381874084,0.40954239666461945 l-0.572366751730442,0.6571586430072784 m-1.2583281099796295,-0.5803889036178589 l-1.622433364391327,-2.5129282474517822 -1.556163877248764,-1.5932947397232056 l-1.6395407915115356,-0.736328661441803 -1.7437447607517242,0.00043768650357378647 l-1.0782349854707718,0.9256137162446976 -0.9427865594625473,1.9282294809818268 l-0.0001088531735149445,1.7517577111721039 0.39621345698833466,0.43284304440021515 l1.7076626420021057,0.030673856381326914 -0.8153850585222244,0.09729648008942604 l-1.107800453901291,0.820927768945694 -0.6130610406398773,1.4469805359840393 l0.00020770085029653274,1.3355229794979095 0.5366178974509239,0.8749377727508545 l1.2497831881046295,0.6006098166108131 0.049441331066191196,0.17859386280179024 l-0.8473946154117584,0.8910233527421951 -0.39609793573617935,1.5236791968345642 l0.31255796551704407,1.696590930223465 0.7911862432956696,0.9306838363409042 l1.6026079654693604,0.5390878766775131 2.172166109085083,-0.26790106669068336 l0.9542150795459747,-0.528443455696106 1.3041162490844727,-1.7364461719989777 l0.6215281412005424,-0.21847881376743317 1.7009465396404266,-0.3094631992280483 l1.4078977704048157,-0.4075876623392105 0.7113205641508102,-0.919288694858551 l0.5007772520184517,-0.9690215438604355 0.5452015250921249,-1.053401380777359 l0.57639941573143,-1.0605354607105255 3.0979305505752563,-1.2916967272758484 l1.8725517392158508,-0.9121511876583099 1.5485391020774841,-1.3273055851459503 l0.7610870152711868,-1.434558779001236 0.1992594450712204,-2.1272076666355133 l-0.4867948964238167,-0.1821126602590084 -1.3948415219783783,0.5727952718734741 l-1.1255762726068497,1.2070786207914352 -0.9247556328773499,1.5944251418113708 l-1.0330403596162796,1.0439293831586838 -1.2205903232097626,0.42741667479276657 l-2.7943620085716248,-0.0595676526427269 -1.079510673880577,-0.23368064314126968 " fill="none" stroke="black" stroke-width="1" /></svg>