<?xml version="1.0" encoding="utf-8" ?>
<svg baseProfile="full" height="56.23082783073187" version="1.1" width="57.51732036471367" xmlns="http://www.w3.org/2000/svg" xmlns:ev="http://www.w3.org/2001/xml-events" xmlns:xlink="http://www.w3.org/1999/xlink"><defs /><rect fill="white" height="56.23082783073187" width="57.51732036471367" x="0" y="0" /><path d="M28.692499473690987,25.384790404932573 m-1.3916918635368347,-0.01001673866994679 l-1.0513393580913544,0.5032269656658173 -0.8028537034988403,0.9011660516262054 l-0.4466145485639572,1.7838698625564575 0.25942109525203705,1.0810931771993637 l1.396036297082901,1.1377962678670883 2.095582038164139,0.44890183955430984 l2.109287828207016,-0.15510817989706993 1.1347037553787231,-0.8448947221040726 l0.5222893506288528,-1.164965108036995 -0.09596097283065319,-2.0144186913967133 l-1.0019740462303162,-1.245163157582283 -1.6274017095565796,-0.7448101788759232 l-1.1520016193389893,-0.061467792838811874 m-1.664595603942871,4.194689691066742 l-0.30900871381163597,1.0579181462526321 0.4371369257569313,0.2547735907137394 l0.40161024779081345,-0.7023274898529053 -0.20133363083004951,-0.2769201621413231 m2.534683346748352,0.5674591660499573 l0.0025224595447070897,0.6729747354984283 0.4958103969693184,0.2118944376707077 l0.29832344502210617,-1.3280020654201508 -0.5664509162306786,-0.05604885518550873 m-2.422792464494705,-2.0799745619297028 l-0.019938473124057055,-1.6177190840244293 0.2543964236974716,0.10348064824938774 l0.3652377426624298,1.2566441297531128 m1.2896239757537842,-0.23430531844496727 l0.17938444390892982,-0.4501982033252716 0.5244994163513184,0.42067110538482666 l0.037034780252724886,0.7365588843822479 m-2.65414297580719,1.8283078074455261 l-1.7561985552310944,0.44844772666692734 m2.7286532521247864,-0.14416265301406384 l-0.8745567500591278,0.7630035281181335 " fill="none" stroke="black" stroke-width="1" /></svg>