<?xml version="1.0" encoding="utf-8" ?>
<svg baseProfile="full" height="81.34138140934738" version="1.1" width="83.9700527349487" xmlns="http://www.w3.org/2000/svg" xmlns:ev="http://www.w3.org/2001/xml-events" xmlns:xlink="http://www.w3.org/1999/xlink"><defs /><rect fill="white" height="81.34138140934738" width="83.9700527349487" x="0" y="0" /><path d="M41.14921766629777,34.45762757319244 m-6.650065183639526,-0.04279224667698145 l-4.140358865261078,1.1316168308258057 -2.8549373149871826,1.5456727147102356 l-1.8321426212787628,1.8818758428096771 -0.6716182827949524,1.4900067448616028 l-9.539833627059124e-05,2.012210488319397 0.758526548743248,1.3722723722457886 l2.3851342499256134,1.6166958212852478 8.956593871116638,1.0497570782899857 l3.076103627681732,0.030544758774340153 0.381573848426342,0.7658999413251877 l0.021158927120268345,4.979979395866394 0.7219305634498596,3.1181472539901733 l1.6327321529388428,0.9318668395280838 1.75779789686203,-0.0001993413570744451 l2.8319409489631653,-2.5058498978614807 1.123838648200035,-2.4583932757377625 l0.8886529505252838,-6.074756383895874 0.3689464181661606,-4.143175482749939 l-0.14549914747476578,-2.4061372876167297 -3.686821460723877,-1.9550269842147827 l-4.00764524936676,-0.7700057327747345 -1.0407207906246185,-0.21578848361968994 l-1.094708889722824,-0.02673526993021369 m3.572049140930176,0.03267698222771287 l2.765144109725952,-5.517753958702087 1.95587620139122,-2.7166426181793213 l1.815083920955658,-1.5169355273246765 2.492252141237259,-1.0161452740430832 l1.5980181097984314,-0.05051287356764078 1.7013013362884521,0.9125930815935135 l1.6575849056243896,2.2626014053821564 1.1452275514602661,3.541673719882965 l0.3379802033305168,3.947577476501465 -0.008256664732471108,3.6127859354019165 l-0.13519654050469398,3.4962686896324158 -0.15822410583496094,3.580600619316101 l-0.36009054630994797,2.978356182575226 -0.6711822003126144,2.218373864889145 l-1.1472097784280777,0.910530611872673 -3.418777883052826,0.6835716962814331 " fill="none" stroke="black" stroke-width="1" /></svg>