<?xml version="1.0" encoding="utf-8" ?>
<svg baseProfile="full" height="2050.0" version="1.1" width="2085.0" xmlns="http://www.w3.org/2000/svg" xmlns:ev="http://www.w3.org/2001/xml-events" xmlns:xlink="http://www.w3.org/1999/xlink"><defs /><rect fill="white" height="2050.0" width="2085.0" x="0" y="0" /><path d="M870.0,830.0 m-325.0,-10.0 l-215.0,50.0 -160.0,75.0 l-95.0,70.0 -50.0,60.0 l5.0,85.0 15.0,25.0 l130.0,65.0 300.0,0.0 l270.0,-40.0 45.0,60.0 l165.0,360.0 175.0,240.0 l145.0,140.0 25.0,15.0 l15.0,-25.0 5.0,-140.0 l-85.0,-265.0 -25.0,-160.0 l5.0,-165.0 10.0,-50.0 l40.0,-40.0 135.0,-10.0 m-640.0,-380.0 l10.0,-400.0 115.0,-295.0 l40.0,-45.0 50.0,-25.0 l25.0,15.0 60.0,240.0 l65.0,410.0 55.0,115.0 l55.0,25.0 340.0,40.0 l115.0,35.0 115.0,0.0 l50.0,-45.0 75.0,-165.0 l25.0,30.0 35.0,110.0 l70.0,360.0 " fill="none" stroke="black" stroke-width="1" /></svg>