<?xml version="1.0" encoding="utf-8" ?>
<svg baseProfile="full" height="1030.0" version="1.1" width="2615.0" xmlns="http://www.w3.org/2000/svg" xmlns:ev="http://www.w3.org/2001/xml-events" xmlns:xlink="http://www.w3.org/1999/xlink"><defs /><rect fill="white" height="1030.0" width="2615.0" x="0" y="0" /><path d="M60.0,885.0 m70.0,-120.0 l20.0,-90.0 20.0,-380.0 l35.0,-180.0 35.0,-55.0 l1005.0,0.0 225.0,-30.0 l405.0,-5.0 270.0,20.0 l220.0,55.0 35.0,60.0 l10.0,160.0 130.0,50.0 l30.0,25.0 20.0,70.0 l-10.0,215.0 -25.0,60.0 l-55.0,40.0 -120.0,30.0 l-450.0,50.0 -245.0,5.0 l-205.0,-25.0 -195.0,0.0 l-310.0,40.0 -950.0,-10.0 m160.0,135.0 l50.0,-120.0 100.0,-120.0 l50.0,-30.0 125.0,0.0 l50.0,75.0 5.0,65.0 l-80.0,70.0 -150.0,35.0 l-110.0,-5.0 0.0,-65.0 m1495.0,25.0 l-30.0,0.0 -35.0,-65.0 l-5.0,-45.0 20.0,-60.0 l65.0,-60.0 100.0,-20.0 l55.0,20.0 15.0,25.0 l25.0,80.0 -5.0,55.0 l-75.0,60.0 -60.0,25.0 l-55.0,5.0 -95.0,-25.0 m-1195.0,-760.0 l-30.0,100.0 160.0,20.0 l35.0,-70.0 -35.0,-30.0 l-150.0,0.0 m360.0,10.0 l-5.0,85.0 30.0,15.0 l130.0,0.0 35.0,-85.0 l-240.0,-15.0 m465.0,10.0 l-15.0,90.0 235.0,15.0 l40.0,-140.0 -245.0,50.0 m435.0,-5.0 l-5.0,65.0 45.0,20.0 l160.0,0.0 10.0,-95.0 l-50.0,-15.0 -175.0,15.0 m580.0,-40.0 l-45.0,85.0 140.0,10.0 " fill="none" stroke="black" stroke-width="1" /></svg>