<?xml version="1.0" encoding="utf-8" ?>
<svg baseProfile="full" height="69.95907862699823" version="1.1" width="101.35822650045156" xmlns="http://www.w3.org/2000/svg" xmlns:ev="http://www.w3.org/2001/xml-events" xmlns:xlink="http://www.w3.org/1999/xlink"><defs /><rect fill="white" height="69.95907862699823" width="101.35822650045156" x="0" y="0" /><path d="M25.454308111220598,41.27390515990555 m1.5574786067008972,-2.3436982929706573 l0.4412449523806572,-1.8845078349113464 0.828026533126831,-6.30537211894989 l0.34907810389995575,-4.978893995285034 0.6521980464458466,-0.7306435704231262 l18.755890130996704,-0.030789347365498543 10.524182319641113,0.20177412778139114 l8.004292845726013,0.1439315639436245 4.924556910991669,0.053772940300405025 l3.242734670639038,0.4300115257501602 0.514306016266346,0.4761488735675812 l0.4536379873752594,2.403099834918976 0.36419961601495743,4.303409159183502 l0.29209164902567863,3.1891989707946777 -0.020774230360984802,1.8299850821495056 l-0.5674312636256218,1.0584267973899841 -0.9758708626031876,0.5728989467024803 l-1.3797639310359955,0.28214965015649796 -4.2374104261398315,0.13625741936266422 l-4.597249925136566,0.11736237443983555 -4.81616884469986,0.2669592946767807 l-12.754455804824829,0.23044511675834656 -10.299100875854492,0.02163654426112771 l-7.601805329322815,-0.04085246007889509 -4.108195006847382,-0.10783771052956581 m7.600927948951721,0.17628870904445648 l-1.012149304151535,0.20771313458681107 -0.6809505075216293,0.9461908042430878 l-0.06878145504742861,1.0155153274536133 0.6218889355659485,0.8404549956321716 l1.1863665282726288,0.5423321574926376 2.0975497364997864,0.1042440626770258 l1.2366041541099548,-0.5882492661476135 0.6560547649860382,-0.971221923828125 l2.2252130804645276e-06,-1.30559504032135 -0.7337787002325058,-0.9045446664094925 l-1.2614241242408752,-0.5408930033445358 -1.9880318641662598,0.0003998519969172776 m27.96351909637451,0.5190170183777809 l-0.8558716624975204,-0.29952574521303177 -1.3965146243572235,0.6187711283564568 l-0.7307621836662292,0.972834974527359 -0.11812634766101837,1.554100662469864 l0.6897122412919998,0.9915818274021149 1.2029275298118591,0.5108855664730072 l2.0198579132556915,-0.045638056471943855 0.7036522775888443,-0.43036576360464096 l0.6147971376776695,-1.3422274589538574 -2.420489636278944e-05,-1.5249447524547577 l-0.9745124727487564,-1.3570253551006317 -1.2707158923149109,-0.679238885641098 m-23.841917514801025,-10.518947839736938 l-0.3772898018360138,2.1409256756305695 0.07946829311549664,0.9340964257717133 l1.3465386629104614,0.4853975772857666 4.0181028842926025,-0.39289407432079315 l-0.05478858482092619,-2.340264767408371 -1.3318535685539246,-1.3774687051773071 l-4.024315178394318,0.1438651978969574 m12.142422199249268,0.28584713116288185 l-0.42908258736133575,2.7885469794273376 5.277819037437439,0.022303429432213306 l-0.04169221967458725,-2.3048141598701477 -3.8945332169532776,-0.5648522451519966 l-1.5778151154518127,0.3225754201412201 m10.720142126083374,-0.08022761903703213 l-0.19463075324892998,2.4615398049354553 4.841115176677704,-0.09103866294026375 l-0.24007540196180344,-2.492433041334152 -0.7067260891199112,-0.31874876469373703 l-4.386073350906372,0.40466949343681335 m9.191036224365234,-0.1928500086069107 l-0.044746240600943565,2.618037462234497 3.9667144417762756,-0.11151054874062538 l0.05943130236119032,-2.1613965928554535 -1.859220713376999,-0.6826795637607574 l-3.556233048439026,0.4710106924176216 " fill="none" stroke="black" stroke-width="1" /></svg>