<?xml version="1.0" encoding="utf-8" ?>
<svg baseProfile="full" height="87.71055266261101" version="1.1" width="87.04186830660205" xmlns="http://www.w3.org/2000/svg" xmlns:ev="http://www.w3.org/2001/xml-events" xmlns:xlink="http://www.w3.org/1999/xlink"><defs /><rect fill="white" height="87.71055266261101" width="87.04186830660205" x="0" y="0" /><path d="M34.975710404805795,34.17322682014856 m-1.118723601102829,0.5089566111564636 l-2.221125066280365,1.8586641550064087 -3.12183678150177,3.1589332222938538 l-1.8816444277763367,2.7247467637062073 -0.9529131650924683,2.2313669323921204 l-0.679352879524231,3.4483644366264343 -0.00011448352779552806,3.615047037601471 l0.3439002111554146,1.8552900850772858 1.1436192691326141,2.943779230117798 l1.304376870393753,2.135968953371048 1.3998585939407349,1.582203209400177 l1.4847473800182343,1.1631206423044205 1.5916407108306885,0.808875784277916 l1.8464338779449463,0.5017666518688202 3.1166398525238037,0.00024212726202677004 l2.55317360162735,-0.6000745669007301 2.5531813502311707,-1.1816266924142838 l5.12856662273407,-4.036117494106293 2.385023385286331,-3.251715302467346 l1.2771277129650116,-2.9649150371551514 0.6077968701720238,-2.904730439186096 l-7.85580027695687e-06,-3.795962333679199 -1.114007905125618,-3.9119920134544373 l-1.4433005452156067,-2.6316863298416138 -1.7226971685886383,-1.9856253266334534 l-2.0926201343536377,-1.4998361468315125 -2.391592860221863,-0.941922515630722 l-3.8496455550193787,-0.5168159678578377 -3.9180827140808105,0.4260297864675522 l-1.8451376259326935,0.773332267999649 -2.2020776569843292,1.7645125091075897 m-2.9234185814857483,2.9172712564468384 l-0.8965058624744415,-1.3266931474208832 -1.1394935101270676,-2.3633839190006256 l-0.784437283873558,-2.991827130317688 -0.17139749601483345,-2.044294625520706 l0.27107639238238335,-1.533311903476715 0.7941436767578125,-1.2830562889575958 l2.124864012002945,-1.363946795463562 2.2033219039440155,-0.462164506316185 l3.156059682369232,0.39442267268896103 2.836889624595642,1.806546151638031 l1.982717216014862,2.668026089668274 1.0028807073831558,3.181529939174652 m7.897549867630005,-0.18678443506360054 l0.06955306511372328,-1.5087197721004486 0.9201283752918243,-1.6201972961425781 l2.4519209563732147,-2.0011256635189056 2.2793318331241608,-0.8662967383861542 l3.0763769149780273,-0.12196497991681099 2.848130464553833,1.059921681880951 l2.0446233451366425,2.2885137796401978 0.8406367152929306,2.977410852909088 l-0.25839976966381073,3.006080687046051 -0.7935453951358795,1.563645750284195 l-1.8973900377750397,1.7616929113864899 -2.8170230984687805,1.2983731925487518 l-3.2907378673553467,0.5052484944462776 -3.1699368357658386,-0.4419849067926407 l-1.804056167602539,-1.0417520254850388 m-10.62503457069397,-1.7576754093170166 l0.14439539052546024,-5.2511292695999146 0.18064642325043678,-3.0828487873077393 " fill="none" stroke="black" stroke-width="1" /></svg>