<?xml version="1.0" encoding="utf-8" ?>
<svg baseProfile="full" height="1055.0" version="1.1" width="950.0" xmlns="http://www.w3.org/2000/svg" xmlns:ev="http://www.w3.org/2001/xml-events" xmlns:xlink="http://www.w3.org/1999/xlink"><defs /><rect fill="white" height="1055.0" width="950.0" x="0" y="0" /><path d="M420.0,165.0 m-40.0,-5.0 l-70.0,20.0 -160.0,115.0 l-105.0,150.0 -10.0,45.0 l0.0,145.0 30.0,130.0 l120.0,140.0 175.0,85.0 l155.0,15.0 130.0,-30.0 l135.0,-110.0 65.0,-110.0 l15.0,-80.0 0.0,-140.0 l-110.0,-215.0 -95.0,-80.0 l-130.0,-60.0 -90.0,-15.0 l-135.0,25.0 -115.0,80.0 l-60.0,105.0 -30.0,115.0 l-5.0,95.0 20.0,120.0 l80.0,115.0 120.0,85.0 l90.0,40.0 85.0,10.0 l120.0,-30.0 100.0,-55.0 l45.0,-50.0 25.0,-60.0 l45.0,-245.0 -45.0,-160.0 l-50.0,-55.0 -100.0,-55.0 l-245.0,-80.0 m-240.0,180.0 l-60.0,-20.0 -35.0,-30.0 l-20.0,-70.0 25.0,-80.0 l75.0,-65.0 100.0,-15.0 l85.0,15.0 35.0,70.0 l-20.0,55.0 m305.0,5.0 l-15.0,-40.0 0.0,-50.0 l15.0,-40.0 60.0,-55.0 l75.0,0.0 95.0,35.0 l50.0,75.0 15.0,45.0 l-30.0,85.0 -100.0,55.0 l-30.0,0.0 m-345.0,245.0 l-10.0,-235.0 m10.0,270.0 l240.0,95.0 25.0,30.0 m-505.0,160.0 l-30.0,130.0 150.0,15.0 l60.0,-10.0 20.0,-30.0 m400.0,-85.0 l45.0,75.0 -35.0,20.0 l-185.0,-15.0 " fill="none" stroke="black" stroke-width="1" /></svg>