<?xml version="1.0" encoding="utf-8" ?>
<svg baseProfile="full" height="67.50133887329866" version="1.1" width="69.5022112980223" xmlns="http://www.w3.org/2000/svg" xmlns:ev="http://www.w3.org/2001/xml-events" xmlns:xlink="http://www.w3.org/1999/xlink"><defs /><rect fill="white" height="67.50133887329866" width="69.5022112980223" x="0" y="0" /><path d="M34.18654550238173,26.195028646852734 m-0.8625060319900513,-0.04159499891102314 l-1.3431937992572784,0.378066748380661 -2.72413432598114,1.9452138245105743 l-2.1970275044441223,2.718594968318939 -0.8100005239248276,1.9708436727523804 l-2.3774937574216892e-06,2.6099199056625366 0.4825502634048462,1.0615259408950806 l4.911384284496307,4.286029040813446 1.7743755877017975,0.7373268157243729 l3.8029545545578003,0.6403347104787827 2.8487658500671387,4.959782017976977e-05 l1.5891976654529572,-0.5585644394159317 1.1524605005979538,-0.9427542984485626 l1.2290297448635101,-2.221016138792038 0.4618119075894356,-2.290281653404236 l-0.14271577820181847,-3.4102240204811096 -1.2417379021644592,-3.411012589931488 l-1.3491266965866089,-2.075791209936142 -1.516786813735962,-1.3777744770050049 l-1.7752330005168915,-0.8810446411371231 -2.420036643743515,0.00037755657103843987 l-2.239724099636078,0.6724141538143158 -1.3469482958316803,0.9962381422519684 l-0.8585690706968307,1.3051745295524597 -0.6421396136283875,2.4293896555900574 l0.0001888152473839,2.964545786380768 0.5926824361085892,1.957215815782547 l1.0323025286197662,1.4588004350662231 1.4225374162197113,1.0081066936254501 l2.5173428654670715,0.7574464380741119 2.806137800216675,0.0002800019137794152 l1.6441716253757477,-0.7498829811811447 1.037123128771782,-1.1495838314294815 l0.7824700325727463,-2.458038479089737 -0.11241710744798183,-2.9543182253837585 l-0.7457456737756729,-1.7446714639663696 -1.1090011894702911,-1.1313537508249283 l-2.1820490062236786,-0.8377088606357574 -4.172665774822235,0.6982498615980148 m-0.708528682589531,1.9453945755958557 l-0.04889383912086487,0.33029433339834213 0.11988898739218712,1.32759228348732 l0.4191539064049721,1.0543977469205856 1.2569642066955566,0.0004035306119476445 l0.5099200457334518,-1.585221141576767 -0.5422836914658546,-0.6228048726916313 l-1.0605531930923462,0.08280375972390175 -0.588909462094307,0.8918163925409317 l0.09106267243623734,0.7598201185464859 1.058441624045372,0.08665589615702629 l0.21376200020313263,-1.1529415100812912 -0.5719320103526115,-0.2438456378877163 l-0.6004287675023079,0.8033387362957001 m1.79933562874794,-0.8286630362272263 l3.600108325481415,-3.8305220007896423 1.9891977310180664,-1.536838412284851 l1.9718292355537415,-1.0372376441955566 m-7.386786937713623,7.864745855331421 l2.4063318967819214,0.1773756928741932 3.0377185344696045,0.005459904205054045 l1.1012422293424606,0.01647390308789909 m-9.487261176109314,-2.976943850517273 l-1.5571026504039764,-0.21119937300682068 -3.04991215467453,-0.3972367197275162 l-2.5047898292541504,-0.04572552163153887 -0.9498459100723267,0.38738567382097244 m9.389590620994568,1.7705301940441132 l-0.9830822050571442,0.004347398644313216 -1.5082895755767822,0.9130163490772247 l-0.9703084081411362,1.2309297174215317 -0.41413992643356323,1.246437281370163 m6.313398480415344,-3.033842146396637 l0.684339627623558,2.710515558719635 1.4048199355602264,3.3941632509231567 " fill="none" stroke="black" stroke-width="1" /></svg>