<?xml version="1.0" encoding="utf-8" ?>
<svg baseProfile="full" height="62.4045105651021" version="1.1" width="101.83312742039561" xmlns="http://www.w3.org/2000/svg" xmlns:ev="http://www.w3.org/2001/xml-events" xmlns:xlink="http://www.w3.org/1999/xlink"><defs /><rect fill="white" height="62.4045105651021" width="101.83312742039561" x="0" y="0" /><path d="M32.80300734564662,27.290946474531665 m4.672086536884308,0.6787587702274323 l3.8296446204185486,0.018009761115536094 10.563735961914062,-1.0560453683137894 l9.27363932132721,-1.0126256197690964 9.949466586112976,-0.919044017791748 l3.8640108704566956,0.3375345468521118 0.6646443158388138,0.46883873641490936 l0.7023335248231888,1.481393724679947 0.5105583369731903,2.6535269618034363 l-0.17163904383778572,2.0011886954307556 -0.5178454145789146,0.5259136483073235 l-1.85594841837883,0.6924586743116379 -5.0069016218185425,1.031564250588417 l-6.356276273727417,1.0036198049783707 -7.307695150375366,0.9385903179645538 l-6.587325930595398,0.6396409124135971 -13.178012371063232,0.6302402913570404 l-4.482864439487457,-0.20195135846734047 -3.29818457365036,-0.5272945016622543 l-2.1457231044769287,-0.9078934043645859 -0.603778138756752,-0.753495842218399 l-0.32093293964862823,-2.6705610752105713 0.7426771521568298,-2.444518506526947 l1.5831418335437775,-1.2074074149131775 3.8983967900276184,-0.9417404979467392 l4.533388018608093,-0.40021948516368866 3.9053884148597717,-0.05693068262189627 m8.05298388004303,3.127322196960449 l0.28809620067477226,2.5670960545539856 0.38859181106090546,2.086361050605774 l0.5199937522411346,0.4184754565358162 3.9621707797050476,0.12484735809266567 l3.0229562520980835,-0.4653286933898926 0.5362033471465111,-0.40559422224760056 l0.2289198525249958,-2.587139308452606 -0.2749265357851982,-1.9250370562076569 l-0.4609016701579094,-0.4550261050462723 -5.360596179962158,0.05195110570639372 l-1.9640079140663147,0.42091868817806244 -1.088116317987442,0.36896809935569763 l-0.3583253547549248,0.37949055433273315 -0.00010226942322333343,1.1149434745311737 " fill="none" stroke="black" stroke-width="1" /></svg>