<?xml version="1.0" encoding="utf-8" ?>
<svg baseProfile="full" height="605.0" version="1.1" width="2770.0" xmlns="http://www.w3.org/2000/svg" xmlns:ev="http://www.w3.org/2001/xml-events" xmlns:xlink="http://www.w3.org/1999/xlink"><defs /><rect fill="white" height="605.0" width="2770.0" x="0" y="0" /><path d="M615.0,250.0 m210.0,35.0 l180.0,5.0 405.0,-50.0 l705.0,-130.0 265.0,-25.0 l245.0,20.0 75.0,65.0 l45.0,205.0 0.0,110.0 l-30.0,55.0 -45.0,25.0 l-295.0,-10.0 -245.0,-35.0 l-115.0,0.0 -445.0,15.0 l-435.0,40.0 -490.0,5.0 l-260.0,-40.0 -300.0,-20.0 l-50.0,-10.0 -10.0,-20.0 l5.0,-85.0 115.0,-305.0 l40.0,-55.0 50.0,-20.0 l50.0,0.0 105.0,40.0 l360.0,225.0 130.0,25.0 m300.0,5.0 l-40.0,80.0 -5.0,55.0 l15.0,55.0 70.0,50.0 l80.0,15.0 100.0,0.0 l260.0,-50.0 25.0,-45.0 l25.0,-235.0 -30.0,-5.0 l-385.0,35.0 -35.0,-5.0 l0.0,-20.0 " fill="none" stroke="black" stroke-width="1" /></svg>