<?xml version="1.0" encoding="utf-8" ?>
<svg baseProfile="full" height="1515.0" version="1.1" width="1690.0" xmlns="http://www.w3.org/2000/svg" xmlns:ev="http://www.w3.org/2001/xml-events" xmlns:xlink="http://www.w3.org/1999/xlink"><defs /><rect fill="white" height="1515.0" width="1690.0" x="0" y="0" /><path d="M170.0,515.0 m-30.0,110.0 l-5.0,190.0 50.0,230.0 l95.0,215.0 75.0,85.0 l155.0,60.0 50.0,35.0 l160.0,50.0 195.0,-15.0 l195.0,-80.0 160.0,-95.0 l80.0,-75.0 55.0,-85.0 l60.0,-260.0 15.0,-290.0 l-35.0,-115.0 -15.0,-25.0 l-50.0,-20.0 -10.0,-25.0 l50.0,-100.0 45.0,-145.0 l10.0,-135.0 -75.0,45.0 l-280.0,255.0 -305.0,-40.0 l-155.0,0.0 -100.0,20.0 l-150.0,85.0 -130.0,-345.0 l-160.0,305.0 -25.0,120.0 l10.0,35.0 m575.0,380.0 l140.0,5.0 190.0,-30.0 l-5.0,30.0 -50.0,100.0 l-50.0,75.0 -30.0,20.0 l-75.0,-25.0 -55.0,-50.0 l-70.0,-110.0 m190.0,205.0 l-20.0,160.0 -65.0,205.0 l-50.0,15.0 -130.0,-40.0 l-20.0,-25.0 10.0,-40.0 m255.0,-265.0 l50.0,35.0 65.0,115.0 l80.0,45.0 50.0,0.0 l50.0,-30.0 35.0,-30.0 l25.0,-65.0 m-145.0,-180.0 l420.0,-270.0 m-320.0,280.0 l510.0,5.0 m-1035.0,20.0 l-30.0,-20.0 -135.0,-20.0 l-160.0,-5.0 -165.0,0.0 l-80.0,10.0 -35.0,25.0 m660.0,125.0 l-625.0,165.0 m480.0,-710.0 l20.0,155.0 -40.0,-190.0 l20.0,130.0 m445.0,-75.0 l-5.0,100.0 -20.0,-225.0 l15.0,70.0 " fill="none" stroke="black" stroke-width="1" /></svg>