<?xml version="1.0" encoding="utf-8" ?>
<svg baseProfile="full" height="77.14138267561793" version="1.1" width="78.35740028403166" xmlns="http://www.w3.org/2000/svg" xmlns:ev="http://www.w3.org/2001/xml-events" xmlns:xlink="http://www.w3.org/1999/xlink"><defs /><rect fill="white" height="77.14138267561793" width="78.35740028403166" x="0" y="0" /><path d="M25.66332713700831,32.64837461585557 m-0.5488551035523415,2.1708285808563232 l-0.1144720334559679,4.114795029163361 1.2827350199222565,5.474147796630859 l1.711929738521576,3.520847260951996 1.069774106144905,1.2665736675262451 l2.3184970021247864,1.55662402510643 3.09926301240921,1.0757774859666824 l2.460073232650757,0.3130146488547325 3.102976083755493,0.00039956470573088154 l2.273958921432495,-0.5427854880690575 3.041461408138275,-1.593632698059082 l2.2593170404434204,-1.8890079855918884 2.5392937660217285,-3.38736891746521 l1.2653051316738129,-2.90810227394104 0.7570147514343262,-4.115703999996185 l-0.0002673162271094043,-4.584502875804901 -0.6285333633422852,-2.4901334941387177 l-1.6200034320354462,-2.6357510685920715 -2.5139042735099792,-1.9781959056854248 l-2.2960351407527924,-0.8075152337551117 -3.410913646221161,-0.20868273451924324 l-3.3511555194854736,0.9483447670936584 -5.482654571533203,2.1383604407310486 l-2.385392487049103,1.0362868756055832 -3.036886155605316,0.6714555621147156 l-1.1058571934700012,0.5192536488175392 -0.9501095116138458,1.0769090801477432 l-0.34700874239206314,1.1961811780929565 0.22858360782265663,1.9128896296024323 m8.46825361251831,-1.6450688242912292 l-0.2614589035511017,-2.7229005098342896 0.43297644704580307,-3.1687885522842407 l0.6184682995080948,-0.727069154381752 1.414150595664978,-0.2924187108874321 l1.9676592946052551,0.6731732189655304 1.6970843076705933,1.7702218890190125 l1.0693851113319397,2.312653362751007 0.5169093236327171,1.0463415831327438 m3.157753050327301,-0.7584461569786072 l3.273731768131256,-3.360722064971924 2.0055532455444336,-0.9458679705858231 l1.3885791599750519,-0.0681736646220088 1.3465860486030579,0.9069854766130447 l0.980292409658432,2.0033955574035645 1.5044107612993685e-05,2.7961063385009766 l-1.0880330950021744,2.32755184173584 -1.0600156337022781,1.0263674706220627 m-14.563772678375244,4.3613675236701965 l-1.2794147431850433,0.39074238389730453 -2.7518290281295776,1.3786140084266663 l-1.2076544761657715,1.065540388226509 -0.526130273938179,1.0957566648721695 l0.13971767388284206,0.9239404648542404 0.9203992038965225,0.687609538435936 m7.497255206108093,-4.727376699447632 l-2.2204071283340454,3.1767895817756653 -1.8455184996128082,2.4264268577098846 m5.463261604309082,-5.348151922225952 l2.8137072920799255,0.5939434841275215 2.857854664325714,0.49650341272354126 l1.5753361582756042,0.39754588156938553 m-6.680704355239868,-0.41386574506759644 l5.0212156772613525,1.657310426235199 2.7481213212013245,1.264798790216446 m-12.567355632781982,-5.623677968978882 l-4.393005073070526,-0.2967507019639015 -4.56685870885849,-0.37817448377609253 l-1.6732504963874817,0.07333604618906975 m10.821810960769653,2.269001752138138 l-2.258513420820236,0.039685615338385105 -2.7414563298225403,0.7685674726963043 l-3.1091725826263428,1.665758192539215 m9.6912282705307,-1.182902604341507 l-1.0301485657691956,0.205101165920496 -1.6364319622516632,1.3440608978271484 l-1.8311867117881775,2.527751922607422 " fill="none" stroke="black" stroke-width="1" /></svg>