<?xml version="1.0" encoding="utf-8" ?>
<svg baseProfile="full" height="71.28734793514013" version="1.1" width="79.83628083020449" xmlns="http://www.w3.org/2000/svg" xmlns:ev="http://www.w3.org/2001/xml-events" xmlns:xlink="http://www.w3.org/1999/xlink"><defs /><rect fill="white" height="71.28734793514013" width="79.83628083020449" x="0" y="0" /><path d="M29.831881150603294,35.62485245987773 m2.5427162647247314,-0.28824755921959877 l19.3464195728302,-1.67190283536911 1.6112594306468964,-0.5063949152827263 l1.2559115886688232,-1.0789167135953903 0.24809282273054123,-1.4209835231304169 l-0.7945664972066879,-1.6059346497058868 -2.8143391013145447,-2.182663083076477 l-4.193426668643951,-1.398637592792511 -5.417160391807556,-0.4711715877056122 l-5.686816573143005,0.3383571654558182 -6.881572604179382,2.09833025932312 l-2.7067750692367554,1.6408303380012512 -0.9765030443668365,1.1297103762626648 l-0.36512088030576706,1.1585745215415955 0.20597480237483978,1.1203543096780777 l0.7822112739086151,0.7999405264854431 2.1747659146785736,1.020234078168869 l3.2143059372901917,0.5704138427972794 m7.346547842025757,-3.267967998981476 l0.014357753098011017,3.551523983478546 0.12968787923455238,6.90608024597168 l0.041006412357091904,3.8320162892341614 0.474679172039032,0.38894999772310257 l8.301425576210022,-0.7005199790000916 6.210049390792847,-0.9135139733552933 l0.2808658592402935,-0.5202975496649742 -0.20347082987427711,-1.4212606847286224 l-1.783003956079483,-6.523346900939941 -1.5550848841667175,-4.644070565700531 l-0.6079363450407982,-0.392141193151474 -1.8783144652843475,-0.11665141209959984 l-6.769082546234131,1.043727844953537 -3.239051401615143,0.3708360716700554 m5.8380430936813354,1.3734209537506104 l-0.07125339470803738,2.2572343051433563 2.5002294778823853,0.9947419166564941 l3.1823208928108215,0.17130669206380844 0.3947945684194565,-0.5133344233036041 l-0.07936998270452023,-1.1232494562864304 -0.8432824909687042,-1.3541220128536224 l-1.5039317309856415,-0.8228146284818649 -2.1807070076465607,-0.2613922953605652 l-1.9317087531089783,0.2740003727376461 m-5.180129408836365,1.9090449810028076 l-0.4685835540294647,1.57009556889534 0.12107127346098423,1.5232299268245697 l0.8964743465185165,0.9839464724063873 1.782589703798294,0.5539025366306305 l2.1058614552021027,-0.061396174132823944 1.4237232506275177,-0.783158615231514 l0.8284830302000046,-1.543644517660141 -0.09924954734742641,-1.231117621064186 l-0.9894301742315292,-0.9982120990753174 -1.8200019001960754,-0.7069162279367447 l-2.3047667741775513,-0.09911133907735348 -1.0443542152643204,0.33515747636556625 m1.102641075849533,2.7163144946098328 l-0.09986863471567631,1.4908906817436218 -0.09106774814426899,0.6939808279275894 l-0.20804960280656815,0.7626387476921082 " fill="none" stroke="black" stroke-width="1" /></svg>