<?xml version="1.0" encoding="utf-8" ?>
<svg baseProfile="full" height="940.0" version="1.1" width="2900.0" xmlns="http://www.w3.org/2000/svg" xmlns:ev="http://www.w3.org/2001/xml-events" xmlns:xlink="http://www.w3.org/1999/xlink"><defs /><rect fill="white" height="940.0" width="2900.0" x="0" y="0" /><path d="M50.0,635.0 m135.0,-15.0 l1155.0,-5.0 35.0,50.0 l5.0,100.0 -100.0,50.0 l-120.0,35.0 -130.0,0.0 l-55.0,-20.0 -240.0,-15.0 l-185.0,-35.0 -380.0,0.0 l-105.0,-45.0 -40.0,-85.0 l0.0,-50.0 120.0,0.0 l40.0,15.0 m1095.0,125.0 l-5.0,5.0 m-165.0,-60.0 l-20.0,0.0 m-115.0,20.0 l-100.0,5.0 m-105.0,-10.0 l30.0,-10.0 m-770.0,-65.0 l50.0,-145.0 45.0,-55.0 l120.0,-60.0 130.0,-35.0 l270.0,-45.0 725.0,10.0 l435.0,-55.0 315.0,20.0 l195.0,75.0 85.0,75.0 l55.0,95.0 0.0,80.0 l-20.0,35.0 -105.0,80.0 l-105.0,40.0 -205.0,0.0 l-5.0,125.0 270.0,50.0 l280.0,0.0 75.0,-25.0 l155.0,-105.0 40.0,-55.0 l40.0,-115.0 0.0,-125.0 l-140.0,-155.0 -125.0,-70.0 l-310.0,-120.0 -215.0,-55.0 l-320.0,-45.0 -320.0,-20.0 l-945.0,0.0 -320.0,65.0 l-90.0,65.0 -50.0,70.0 " fill="none" stroke="black" stroke-width="1" /></svg>