<?xml version="1.0" encoding="utf-8" ?>
<svg baseProfile="full" height="2050.0" version="1.1" width="2885.0" xmlns="http://www.w3.org/2000/svg" xmlns:ev="http://www.w3.org/2001/xml-events" xmlns:xlink="http://www.w3.org/1999/xlink"><defs /><rect fill="white" height="2050.0" width="2885.0" x="0" y="0" /><path d="M1225.0,675.0 m1040.0,-5.0 l225.0,70.0 60.0,75.0 l20.0,130.0 -5.0,90.0 l-15.0,25.0 10.0,25.0 l145.0,40.0 105.0,65.0 l45.0,50.0 5.0,105.0 l-15.0,30.0 -30.0,15.0 l-640.0,-10.0 -210.0,40.0 l-205.0,0.0 -70.0,-30.0 l-400.0,-30.0 -245.0,-40.0 l-165.0,0.0 -25.0,20.0 l-125.0,0.0 -380.0,-95.0 l-280.0,-35.0 -45.0,-200.0 l0.0,-140.0 30.0,-60.0 l190.0,-160.0 100.0,-60.0 l325.0,-65.0 355.0,-10.0 l135.0,20.0 115.0,90.0 l75.0,5.0 40.0,-15.0 m-110.0,20.0 l0.0,-120.0 45.0,-245.0 l50.0,-170.0 5.0,-75.0 l25.0,15.0 5.0,25.0 l150.0,85.0 390.0,475.0 l70.0,115.0 m-960.0,505.0 l10.0,55.0 90.0,175.0 l115.0,290.0 120.0,120.0 l95.0,140.0 55.0,-435.0 l130.0,-360.0 20.0,-80.0 l-5.0,-40.0 -10.0,35.0 " fill="none" stroke="black" stroke-width="1" /></svg>