<?xml version="1.0" encoding="utf-8" ?>
<svg baseProfile="full" height="92.32368260622025" version="1.1" width="97.29324346408248" xmlns="http://www.w3.org/2000/svg" xmlns:ev="http://www.w3.org/2001/xml-events" xmlns:xlink="http://www.w3.org/1999/xlink"><defs /><rect fill="white" height="92.32368260622025" width="97.29324346408248" x="0" y="0" /><path d="M34.74782461300492,38.07377796503715 m20.180327892303467,-0.42397391051054 l3.291548490524292,1.7851762473583221 0.9333522617816925,1.231677606701851 l0.7220640778541565,3.1390082836151123 0.34360937774181366,2.30207160115242 l0.30204344540834427,0.6433514505624771 1.014678180217743,1.0226722806692123 l2.5880587100982666,0.5082017555832863 3.4124478697776794,0.615990161895752 l3.024810552597046,0.8635976165533066 1.1013677716255188,0.691802129149437 l0.6311102211475372,1.23508021235466 -0.1669483818113804,0.9323431551456451 l-0.966411828994751,0.7413152605295181 -3.1315910816192627,0.8092206716537476 l-5.423334836959839,0.36321647465229034 -5.755934119224548,-0.05832752678543329 l-5.567545294761658,-0.11459530331194401 -5.081189274787903,-0.13350852765142918 l-4.869849681854248,-0.1303510181605816 -9.904348254203796,-0.33611778169870377 l-3.6283254623413086,-0.628630518913269 -1.0998892039060593,-0.5770837143063545 l-1.2612783908843994,-1.6916243731975555 -0.43659765273332596,-1.843130737543106 l0.2681073546409607,-1.934128999710083 1.024312749505043,-1.8647274374961853 l1.5568332374095917,-1.4591175317764282 4.2607250809669495,-2.2715792059898376 l3.3906328678131104,-1.140304058790207 3.6479896306991577,-0.7709051668643951 l3.5595500469207764,-0.3950013220310211 3.380199372768402,-0.11146260425448418 l2.8270715475082397,-0.007236892124637961 m-5.632346272468567,2.788572311401367 l-0.7143864780664444,-3.6434581875801086 -1.139153242111206,-7.477537989616394 l-0.593717023730278,-4.648752212524414 0.3981180861592293,-0.6998049467802048 l2.6451516151428223,-0.38571521639823914 0.9309406578540802,0.3963135927915573 l3.9888277649879456,6.1319005489349365 2.107529640197754,6.2436604499816895 l1.1385715007781982,4.310182631015778 m-7.663201093673706,9.989811182022095 l0.13372262939810753,7.883082032203674 0.5563929304480553,4.4398438930511475 l1.144184172153473,2.507859170436859 0.6801071017980576,0.42102910578250885 l1.8527667224407196,-0.8334879577159882 1.3254986703395844,-1.8632201850414276 l2.149629145860672,-6.083952188491821 0.7903961837291718,-5.208027958869934 l0.1518435776233673,-3.7626686692237854 m-6.434266567230225,-7.527113556861877 l0.3821716830134392,-2.840757966041565 1.5793907642364502,-4.178860187530518 l1.5293359756469727,-0.04032350145280361 4.23982173204422,2.5110089778900146 " fill="none" stroke="black" stroke-width="1" /></svg>