<?xml version="1.0" encoding="utf-8" ?>
<svg baseProfile="full" height="1225.0" version="1.1" width="940.0" xmlns="http://www.w3.org/2000/svg" xmlns:ev="http://www.w3.org/2001/xml-events" xmlns:xlink="http://www.w3.org/1999/xlink"><defs /><rect fill="white" height="1225.0" width="940.0" x="0" y="0" /><path d="M800.0,75.0 m-105.0,-35.0 l-110.0,-15.0 -120.0,0.0 l-130.0,35.0 -120.0,85.0 l-95.0,115.0 -65.0,130.0 l-30.0,160.0 0.0,155.0 l30.0,150.0 65.0,120.0 l105.0,100.0 120.0,75.0 l120.0,35.0 250.0,15.0 l105.0,-80.0 40.0,-75.0 l40.0,-120.0 15.0,-315.0 l-45.0,-170.0 -90.0,-220.0 l-40.0,-65.0 -90.0,-55.0 m-50.0,30.0 l-15.0,25.0 -15.0,155.0 m75.0,-150.0 l100.0,-50.0 20.0,25.0 l-100.0,165.0 0.0,30.0 l85.0,15.0 m100.0,225.0 l-15.0,30.0 0.0,65.0 " fill="none" stroke="black" stroke-width="1" /></svg>