<?xml version="1.0" encoding="utf-8" ?>
<svg baseProfile="full" height="73.45655852928758" version="1.1" width="68.07095661759377" xmlns="http://www.w3.org/2000/svg" xmlns:ev="http://www.w3.org/2001/xml-events" xmlns:xlink="http://www.w3.org/1999/xlink"><defs /><rect fill="white" height="73.45655852928758" width="68.07095661759377" x="0" y="0" /><path d="M40.179670723109666,25.963683985173702 m-2.022104412317276,-0.7233387231826782 l-2.2814197838306427,-0.24034526199102402 -2.7701449394226074,0.229362603276968 l-2.5423797965049744,1.0015014559030533 -1.9419591128826141,1.301223635673523 l-1.6305293142795563,1.7464937269687653 -1.2492255866527557,2.22908616065979 l-0.7418222725391388,2.6624739170074463 -8.5504680100712e-05,4.127429127693176 l0.8229181170463562,2.9312634468078613 1.2698763608932495,2.3740240931510925 l1.6846634447574615,1.9802992045879364 2.087259590625763,1.5367616713047028 l2.503201961517334,0.999012365937233 4.978906512260437,0.3376271203160286 l1.5258480608463287,-0.5903346836566925 1.9081522524356842,-2.0255757868289948 l0.9292881190776825,-2.483915388584137 0.36084219813346863,-4.241790473461151 l-1.0938163101673126,-6.612036228179932 -1.356644183397293,-3.6931729316711426 l-1.2471190840005875,-1.8958009779453278 -1.371011883020401,-1.009928360581398 m-3.885447382926941,9.475904703140259 l-0.17860746011137962,-0.5980199575424194 -0.32997723668813705,-0.4524330049753189 l-0.24881185963749886,-0.10611294768750668 m0.32503657042980194,-0.2210538275539875 l-0.06630897987633944,-0.788777694106102 0.41511140763759613,-2.8715184330940247 l0.2798808552324772,-1.390858143568039 0.577654205262661,-1.1003533750772476 l1.0319174826145172,-0.9610260277986526 m-2.3938482999801636,8.996725082397461 l2.6106101274490356,2.4725505709648132 2.6988285779953003,1.6682814061641693 " fill="none" stroke="black" stroke-width="1" /></svg>