<?xml version="1.0" encoding="utf-8" ?>
<svg baseProfile="full" height="765.0" version="1.1" width="4170.0" xmlns="http://www.w3.org/2000/svg" xmlns:ev="http://www.w3.org/2001/xml-events" xmlns:xlink="http://www.w3.org/1999/xlink"><defs /><rect fill="white" height="765.0" width="4170.0" x="0" y="0" /><path d="M4145.0,25 m-415.0,0.0 l-205.0,20.0 -1590.0,240.0 l-300.0,30.0 -685.0,200.0 l-120.0,15.0 -795.0,5.0 l-10.0,180.0 25.0,25.0 l880.0,0.0 140.0,-25.0 l320.0,-95.0 370.0,-55.0 l1000.0,-15.0 375.0,-60.0 l700.0,-195.0 210.0,-30.0 l25.0,-20.0 5.0,-30.0 l0.0,-120.0 -30.0,-40.0 m-1845.0,155.0 l45.0,380.0 m-385.0,-380.0 l0.0,310.0 15.0,100.0 m175.0,-225.0 l-35.0,0.0 -15.0,25.0 l-5.0,75.0 " fill="none" stroke="black" stroke-width="1" /></svg>