<?xml version="1.0" encoding="utf-8" ?>
<svg baseProfile="full" height="65.69776579737663" version="1.1" width="132.14878774946555" xmlns="http://www.w3.org/2000/svg" xmlns:ev="http://www.w3.org/2001/xml-events" xmlns:xlink="http://www.w3.org/1999/xlink"><defs /><rect fill="white" height="65.69776579737663" width="132.14878774946555" x="0" y="0" /><path d="M102.96777740120888,25 m-8.170264959335327,0.04889398813247681 l-3.8634565472602844,0.44561516493558884 -20.36670684814453,2.5829973816871643 l-19.010032415390015,2.1588225662708282 -16.374086141586304,1.3557644188404083 l-9.443180561065674,1.0803381353616714 -0.7400499284267426,0.46491149812936783 l0.024456230457872152,4.377712309360504 0.9914278239011765,2.893746793270111 l0.7388700544834137,0.28896354138851166 20.916075706481934,-2.5725406408309937 l10.161159038543701,-1.1921470612287521 11.524546146392822,-0.9627761691808701 l11.059969663619995,-0.5519327893853188 9.629372358322144,-0.5944117903709412 l7.2648561000823975,-0.6446751207113266 5.518872141838074,-0.7589197158813477 l3.689644932746887,-0.9441327303647995 0.6295375525951385,-3.011195659637451 l-0.6070320308208466,-3.621132969856262 -0.7700928300619125,-0.5348365753889084 m-42.338881492614746,2.6449376344680786 l0.0681831780821085,3.6437800526618958 m5.82538902759552,-4.531078338623047 l0.12603223323822021,4.156568646430969 -0.10827942751348019,2.252109795808792 m4.276269972324371,-5.974923372268677 l0.04969663452357054,2.4331724643707275 -0.1349829137325287,1.9778025150299072 l-0.3806314989924431,0.9608680009841919 " fill="none" stroke="black" stroke-width="1" /></svg>