<?xml version="1.0" encoding="utf-8" ?>
<svg baseProfile="full" height="1145.0" version="1.1" width="2945.0" xmlns="http://www.w3.org/2000/svg" xmlns:ev="http://www.w3.org/2001/xml-events" xmlns:xlink="http://www.w3.org/1999/xlink"><defs /><rect fill="white" height="1145.0" width="2945.0" x="0" y="0" /><path d="M60.0,25 m-5.0,800.0 l45.0,60.0 1660.0,0.0 l1130.0,-25.0 25.0,-10.0 l5.0,-25.0 0.0,-275.0 l-30.0,-20.0 -765.0,5.0 l-35.0,-20.0 -25.0,-60.0 l-25.0,-390.0 -465.0,15.0 l-1340.0,0.0 -125.0,-15.0 m0.0,0.0 l0.0,0.0 m-85.0,255.0 l80.0,25.0 310.0,30.0 l1415.0,0.0 205.0,-30.0 m-365.0,35.0 l-20.0,-350.0 -15.0,10.0 m-685.0,50.0 l-35.0,300.0 -10.0,-10.0 m-595.0,-315.0 l-10.0,230.0 m270.0,595.0 l-80.0,5.0 -40.0,85.0 l50.0,110.0 50.0,30.0 l80.0,-10.0 80.0,-50.0 l70.0,-85.0 5.0,-85.0 l-65.0,-40.0 -155.0,0.0 l-60.0,30.0 m1605.0,-20.0 l-160.0,20.0 -65.0,75.0 l-5.0,70.0 10.0,30.0 l50.0,45.0 185.0,5.0 l205.0,-85.0 5.0,-60.0 l-35.0,-75.0 -55.0,-35.0 l-125.0,0.0 -175.0,45.0 " fill="none" stroke="black" stroke-width="1" /></svg>