<?xml version="1.0" encoding="utf-8" ?>
<svg baseProfile="full" height="68.85038638021797" version="1.1" width="104.47504978626966" xmlns="http://www.w3.org/2000/svg" xmlns:ev="http://www.w3.org/2001/xml-events" xmlns:xlink="http://www.w3.org/1999/xlink"><defs /><rect fill="white" height="68.85038638021797" width="104.47504978626966" x="0" y="0" /><path d="M25.579581186175346,26.861915066838264 m-0.15481646172702312,15.954740047454834 l6.099662780761719,-0.4400663450360298 22.014968395233154,0.14363777823746204 l19.29261088371277,-0.09755873121321201 6.129608154296875,-0.3681977465748787 l0.39375998079776764,-0.5539882183074951 0.11967486701905727,-10.510965585708618 l-0.20070157945156097,-5.644753575325012 -0.5796881392598152,-0.3447626903653145 l-9.507485628128052,0.48908114433288574 -13.323432207107544,0.43383240699768066 l-12.305514812469482,0.31449731439352036 -10.213406085968018,0.29267676174640656 l-6.550288796424866,0.24584434926509857 -1.7945325374603271,0.3845016285777092 m5.936295986175537,11.328122615814209 l-0.17901699990034103,0.06974171381443739 0.07570053450763226,0.6495597213506699 l0.8708061277866364,1.7647108435630798 1.539088636636734,1.2134002149105072 l1.8366743624210358,0.38447804749011993 2.0372135937213898,-0.3112861327826977 l1.6685763001441956,-1.2211666256189346 0.8628943562507629,-1.7644639313220978 l0.07013233844190836,-1.854976862668991 -0.7889626920223236,-1.0805010050535202 l-1.6376836597919464,-0.8290871977806091 -2.314928323030472,-0.2325027622282505 l-1.544245183467865,0.2117089182138443 -1.0933654010295868,0.6482687592506409 l-0.5032651126384735,0.9496215730905533 0.06918762810528278,1.0996446758508682 m33.59120845794678,0.44629793614149094 l-0.8458834886550903,0.6418155133724213 -0.3477511554956436,1.121290847659111 l0.12551195919513702,1.210891306400299 0.6540966778993607,0.9597098082304001 l1.6686893999576569,0.980369970202446 2.208106219768524,0.3043048270046711 l1.9469182193279266,-0.4058980569243431 1.1860419064760208,-0.8997519314289093 l0.9512660652399063,-1.7475980520248413 0.12364275753498077,-1.9836226105690002 l-0.8082036674022675,-1.320551186800003 -1.7148880660533905,-0.9385736286640167 l-2.4457748234272003,-0.3463114798069 -2.5025221705436707,0.20568769425153732 l-1.2657421827316284,0.5585181340575218 -0.8309091627597809,0.8419857919216156 m-21.880533695220947,-11.909503936767578 l-0.045896898955106735,3.713424503803253 0.06469583604484797,2.9261037707328796 l2.8493207693099976,0.01637654029764235 9.425315260887146,-0.367380827665329 l10.111246109008789,-0.09692398831248283 5.609489679336548,-0.2578146383166313 l3.260551393032074,-0.20267734304070473 " fill="none" stroke="black" stroke-width="1" /></svg>