<?xml version="1.0" encoding="utf-8" ?>
<svg baseProfile="full" height="1980.0" version="1.1" width="2210.0" xmlns="http://www.w3.org/2000/svg" xmlns:ev="http://www.w3.org/2001/xml-events" xmlns:xlink="http://www.w3.org/1999/xlink"><defs /><rect fill="white" height="1980.0" width="2210.0" x="0" y="0" /><path d="M995.0,1955.0 m175.0,-25.0 l425.0,-155.0 195.0,-120.0 l90.0,-75.0 155.0,-175.0 l60.0,-100.0 45.0,-115.0 l45.0,-215.0 0.0,-215.0 l-30.0,-110.0 -115.0,-205.0 l-85.0,-105.0 -105.0,-85.0 l-235.0,-120.0 -230.0,-40.0 l-255.0,10.0 -245.0,90.0 l-245.0,130.0 -325.0,245.0 l-150.0,175.0 -90.0,165.0 l-50.0,150.0 0.0,160.0 l25.0,40.0 70.0,70.0 l175.0,125.0 220.0,125.0 l175.0,55.0 285.0,45.0 l175.0,80.0 m120.0,-865.0 l200.0,325.0 240.0,325.0 m-465.0,-665.0 l20.0,-25.0 -10.0,-830.0 " fill="none" stroke="black" stroke-width="1" /></svg>