<?xml version="1.0" encoding="utf-8" ?>
<svg baseProfile="full" height="87.07945238798857" version="1.1" width="93.38037110865116" xmlns="http://www.w3.org/2000/svg" xmlns:ev="http://www.w3.org/2001/xml-events" xmlns:xlink="http://www.w3.org/1999/xlink"><defs /><rect fill="white" height="87.07945238798857" width="93.38037110865116" x="0" y="0" /><path d="M44.35363249969669,62.07945238798857 m3.7343159317970276,-0.47833651304244995 l8.856504559516907,-3.16533625125885 3.5226434469223022,-2.0475944876670837 l2.6656097173690796,-2.0839709043502808 2.072853147983551,-2.21440851688385 l1.55212864279747,-2.3725932836532593 1.2627457082271576,-3.5803553462028503 l0.3598274290561676,-3.011022210121155 0.00011002528481185436,-3.7686026096343994 l-1.0559036582708359,-4.016159772872925 -1.4991840720176697,-2.883986532688141 l-2.0997625589370728,-2.486139237880707 -2.851945161819458,-2.074093222618103 l-3.4255877137184143,-1.5229839086532593 -4.099779725074768,-0.9809071570634842 l-6.615495681762695,-0.39296243339776993 -6.6173142194747925,0.8616812527179718 l-5.925478935241699,2.2233588993549347 -2.82362699508667,1.792609691619873 l-3.3970344066619873,3.3099594712257385 -1.5834376215934753,2.618367373943329 l-1.385820358991623,4.200462698936462 3.996405666839564e-05,4.507875442504883 l0.9675628691911697,3.2287076115608215 1.5984608232975006,2.8521794080734253 l3.3006659150123596,3.8497456908226013 4.411609172821045,3.27921986579895 l4.61905837059021,2.215585559606552 4.490014910697937,1.2229233980178833 l4.151310920715332,-8.512832209817134e-05 m-1.8124866485595703,-23.7477707862854 l0.5878232046961784,-0.287695936858654 3.2835718989372253,-2.5599873065948486 l4.696993827819824,-5.574439167976379 m-8.453747630119324,11.04955792427063 l-0.25641387328505516,2.3680345714092255 " fill="none" stroke="black" stroke-width="1" /></svg>