<?xml version="1.0" encoding="utf-8" ?>
<svg baseProfile="full" height="2210.0" version="1.1" width="3515.0" xmlns="http://www.w3.org/2000/svg" xmlns:ev="http://www.w3.org/2001/xml-events" xmlns:xlink="http://www.w3.org/1999/xlink"><defs /><rect fill="white" height="2210.0" width="3515.0" x="0" y="0" /><path d="M2610.0,505.0 m405.0,230.0 l155.0,145.0 175.0,255.0 l140.0,320.0 5.0,65.0 l-330.0,20.0 -360.0,0.0 l-345.0,-45.0 -845.0,5.0 l-575.0,-80.0 -610.0,-5.0 l-20.0,15.0 m1455.0,-480.0 l-105.0,135.0 -325.0,650.0 l-90.0,270.0 -40.0,180.0 l325.0,-185.0 525.0,-385.0 m535.0,-1070.0 l-55.0,-30.0 m-245.0,-90.0 l-240.0,25.0 -320.0,65.0 l-785.0,80.0 -215.0,45.0 l-220.0,105.0 -305.0,225.0 l-215.0,225.0 -60.0,25.0 l15.0,75.0 m190.0,-120.0 m0.0,0.0 l0.0,0.0 m1975.0,-735.0 l170.0,-215.0 165.0,-160.0 l105.0,-40.0 110.0,5.0 l80.0,90.0 20.0,60.0 l-35.0,320.0 " fill="none" stroke="black" stroke-width="1" /></svg>