<?xml version="1.0" encoding="utf-8" ?>
<svg baseProfile="full" height="78.00395681057125" version="1.1" width="115.18094204366207" xmlns="http://www.w3.org/2000/svg" xmlns:ev="http://www.w3.org/2001/xml-events" xmlns:xlink="http://www.w3.org/1999/xlink"><defs /><rect fill="white" height="78.00395681057125" width="115.18094204366207" x="0" y="0" /><path d="M71.4132696390152,27.77108929120004 m8.344024419784546,4.721511006355286 l2.9533380270004272,3.252110481262207 2.4958255887031555,3.3612066507339478 l4.149301052093506,5.350510478019714 0.825183317065239,2.1210624277591705 l-3.8832655549049377,3.6307689547538757 -12.7339506149292,1.3833633065223694 l-13.789325952529907,0.23355230689048767 -5.447940230369568,-0.5270079523324966 l-3.6316677927970886,-1.0826289653778076 -3.209387958049774,-2.23474457859993 l-3.092218339443207,-5.329076051712036 -0.9776648133993149,-8.089078664779663 l0.8488255739212036,-8.0120849609375 2.823781669139862,-1.4243663847446442 l7.785504460334778,-0.12618734501302242 m11.986428499221802,12.584835290908813 l-1.9171142578125,-0.15225996263325214 -11.999313831329346,-1.5497788786888123 l-13.28724980354309,-1.5705685317516327 -9.315812587738037,-1.3813790678977966 m36.59062385559082,6.01346492767334 l-2.8202903270721436,-0.05065542180091143 -12.842209339141846,-0.6787016987800598 l-13.188961744308472,-0.8139214664697647 -10.164097547531128,-0.7485481351613998 l-2.915635406970978,-0.1845851168036461 m35.01338005065918,0.23129340261220932 l-0.39879418909549713,1.3907767832279205 -0.8189456164836884,4.08507227897644 l-1.0004659742116928,5.125529766082764 -0.8699080348014832,4.065372049808502 l-0.5439416319131851,1.6380105912685394 0.035347966477274895,-0.4257107153534889 m6.292093396186829,-19.935208559036255 l0.6670955568552017,3.8944920897483826 0.32613079994916916,7.791199684143066 l0.15967106446623802,4.517017304897308 -0.11273701675236225,1.567564457654953 l-0.26327192783355713,-0.1486412063241005 -1.2877587974071503,-4.820322394371033 l-1.7637710273265839,-8.106208443641663 0.11647178791463375,-2.8197509050369263 " fill="none" stroke="black" stroke-width="1" /></svg>