<?xml version="1.0" encoding="utf-8" ?>
<svg baseProfile="full" height="67.9913455597125" version="1.1" width="62.710267417132854" xmlns="http://www.w3.org/2000/svg" xmlns:ev="http://www.w3.org/2001/xml-events" xmlns:xlink="http://www.w3.org/1999/xlink"><defs /><rect fill="white" height="67.9913455597125" width="62.710267417132854" x="0" y="0" /><path d="M33.29997770488262,31.878878397401422 m-3.2033097743988037,-0.3319159150123596 l-3.0435803532600403,0.2483982965350151 -1.2954682111740112,1.2404920160770416 l-0.6631332635879517,1.6580045223236084 -0.09448610246181488,3.8063663244247437 l1.0923249274492264,2.6888447999954224 2.240060418844223,1.7618627846240997 l3.45328688621521,0.04041433334350586 1.4245085418224335,-0.6908524036407471 l2.9556557536125183,-3.0031058192253113 1.1782146245241165,-2.3901252448558807 l0.3662162646651268,-2.027943730354309 -0.00011358190931787249,-2.146659791469574 l-0.904032364487648,-1.5973784029483795 -3.8165923953056335,0.024402590934187174 l-0.49811195582151413,1.3679015636444092 m-0.6059181317687035,-0.5465475842356682 l-0.1842053048312664,-4.421812295913696 0.13493044301867485,-1.1796076595783234 l0.5793226882815361,-0.7532526552677155 1.7706823348999023,-0.6263641268014908 l0.2558210492134094,1.0363173484802246 -0.14142190106213093,2.638334035873413 l-0.4396560415625572,1.2323205173015594 0.5882955715060234,-1.2429141253232956 l0.42838264256715775,-0.6082003936171532 -0.1523146964609623,-0.013034817529842257 l-0.4887525737285614,0.9051899611949921 -0.5782148614525795,1.2173863500356674 l-0.28220565989613533,0.8222346752882004 " fill="none" stroke="black" stroke-width="1" /></svg>