<?xml version="1.0" encoding="utf-8" ?>
<svg baseProfile="full" height="1035.0" version="1.1" width="635.0" xmlns="http://www.w3.org/2000/svg" xmlns:ev="http://www.w3.org/2001/xml-events" xmlns:xlink="http://www.w3.org/1999/xlink"><defs /><rect fill="white" height="1035.0" width="635.0" x="0" y="0" /><path d="M450.0,470.0 m-150.0,-20.0 l-135.0,10.0 -75.0,70.0 l-55.0,80.0 -10.0,240.0 l55.0,85.0 95.0,60.0 l165.0,15.0 160.0,-100.0 l85.0,-100.0 20.0,-50.0 l5.0,-165.0 -50.0,-95.0 l-110.0,-90.0 -85.0,-5.0 l-20.0,15.0 m-45.0,-25.0 l-50.0,-185.0 -5.0,-120.0 l20.0,40.0 -20.0,160.0 l95.0,-100.0 10.0,-30.0 l0.0,-30.0 -40.0,-50.0 l-15.0,-55.0 25.0,10.0 l50.0,245.0 35.0,60.0 l-10.0,60.0 " fill="none" stroke="black" stroke-width="1" /></svg>