<?xml version="1.0" encoding="utf-8" ?>
<svg baseProfile="full" height="1855.0" version="1.1" width="1795.0" xmlns="http://www.w3.org/2000/svg" xmlns:ev="http://www.w3.org/2001/xml-events" xmlns:xlink="http://www.w3.org/1999/xlink"><defs /><rect fill="white" height="1855.0" width="1795.0" x="0" y="0" /><path d="M1220.0,255.0 m5.0,-105.0 l-60.0,-65.0 -170.0,-60.0 l-125.0,0.0 -110.0,75.0 l-100.0,140.0 -75.0,165.0 l-15.0,65.0 5.0,100.0 l30.0,30.0 110.0,15.0 l70.0,0.0 75.0,-35.0 l100.0,-105.0 120.0,-205.0 l40.0,-95.0 10.0,-120.0 m-275.0,495.0 l-15.0,25.0 -10.0,120.0 l0.0,365.0 -30.0,195.0 l15.0,215.0 -15.0,-235.0 l-170.0,-445.0 -100.0,-190.0 l-20.0,-110.0 15.0,110.0 l215.0,435.0 35.0,100.0 l40.0,-25.0 115.0,-210.0 l180.0,-255.0 200.0,-235.0 l95.0,-75.0 -215.0,275.0 l-255.0,390.0 -85.0,220.0 l-25.0,120.0 0.0,165.0 l-120.0,160.0 -85.0,165.0 l210.0,-310.0 160.0,235.0 l10.0,35.0 m-175.0,-530.0 l-105.0,-120.0 -100.0,-240.0 l-135.0,-230.0 -135.0,-180.0 l-135.0,-125.0 -95.0,-25.0 l-60.0,5.0 -35.0,165.0 l10.0,175.0 30.0,60.0 l90.0,100.0 120.0,65.0 l-10.0,35.0 -65.0,45.0 l-55.0,75.0 -10.0,180.0 l35.0,85.0 80.0,60.0 l150.0,5.0 165.0,-70.0 l190.0,-10.0 m135.0,-255.0 l65.0,-140.0 90.0,-120.0 l145.0,-135.0 240.0,-165.0 l185.0,-70.0 100.0,-10.0 l35.0,20.0 20.0,75.0 " fill="none" stroke="black" stroke-width="1" /></svg>