<?xml version="1.0" encoding="utf-8" ?>
<svg baseProfile="full" height="76.6095796879381" version="1.1" width="82.19927350059152" xmlns="http://www.w3.org/2000/svg" xmlns:ev="http://www.w3.org/2001/xml-events" xmlns:xlink="http://www.w3.org/1999/xlink"><defs /><rect fill="white" height="76.6095796879381" width="82.19927350059152" x="0" y="0" /><path d="M51.405895764619345,36.9475287431851 m0.1416774746030569,-2.173095941543579 l-0.8043313026428223,-1.7210057377815247 -1.935657560825348,-1.5873175859451294 l-2.5162073969841003,-0.7199646532535553 -2.9535630345344543,0.22584117949008942 l-2.777247428894043,1.6023625433444977 -2.3243936896324158,2.7022352814674377 l-1.9601453840732574,6.469554901123047 0.3695783019065857,4.366165399551392 l1.1327192187309265,2.13554784655571 1.736292839050293,1.5555427968502045 l1.8926389515399933,0.570276714861393 2.1428950130939484,-0.2017592266201973 l1.8086320161819458,-1.2236953526735306 1.477121114730835,-2.061008960008621 l0.9412618726491928,-2.5927600264549255 0.5879773944616318,-4.140850603580475 l-0.09866834618151188,-2.846512794494629 -0.7106110453605652,-2.2558337450027466 l-1.0462577641010284,-1.6502249240875244 m-7.842227816581726,8.923237323760986 l-0.1932273805141449,0.09796420112252235 0.4141061380505562,-0.21986788138747215 l0.13356306590139866,-0.11530322022736073 -0.16412360593676567,0.5260742083191872 l0.30988266691565514,-0.06900600623339415 0.00073639428592287,-0.18302252516150475 l-0.05174963269382715,0.28112709522247314 0.35246632993221283,-0.08028760552406311 l-0.052900733426213264,-0.11552885174751282 -0.09966530837118626,0.38063377141952515 l0.2859855070710182,-0.11353975161910057 0.02174967434257269,-0.06791922263801098 m0.42571239173412323,-0.18268177285790443 l0.9593965113162994,-2.4354608356952667 1.1508919298648834,-2.818498909473419 l1.3712796568870544,-2.675955891609192 m-4.275831580162048,9.152050018310547 l0.2963486686348915,0.34387771040201187 0.9529954940080643,2.018379718065262 l1.5998844802379608,3.657623529434204 m-4.335678517818451,-12.550700902938843 l-0.5458439886569977,-1.036137342453003 -1.318478286266327,-3.1051763892173767 l-0.968262180685997,-2.559584081172943 -0.7522531598806381,-1.8791323900222778 l-0.5519003048539162,-1.129099428653717 -0.5796586349606514,-0.9456715732812881 l-0.7539447396993637,-0.8466219902038574 -1.0833805054426193,-0.5903084203600883 l-1.7245122790336609,-0.06248843856155872 -1.7694979906082153,0.9415573626756668 l-1.6325736045837402,1.8932047486305237 -0.8975908160209656,2.3178312182426453 l-0.19130485132336617,2.8168538212776184 0.4430382326245308,2.1855121850967407 l1.0862772911787033,1.7927354574203491 1.6053830087184906,1.3238716125488281 l2.802956998348236,0.8413597196340561 -0.40090516209602356,0.12425846420228481 l-1.2087126076221466,1.052306741476059 -1.460702270269394,2.279563397169113 l-0.4992378503084183,1.7301857471466064 -0.10871792212128639,2.612466514110565 l0.3039039671421051,1.4241647720336914 1.0704584419727325,1.6709382832050323 l1.6378994286060333,1.190330907702446 2.0059384405612946,0.4124387353658676 l2.273142486810684,-0.24811005219817162 1.27958744764328,-0.8169233798980713 l1.1956849694252014,-1.7696104943752289 m7.5057971477508545,-13.80551815032959 l1.1351069062948227,-1.7153887450695038 2.891514301300049,-4.293721914291382 l2.0683054625988007,-1.8934965133666992 1.7761239409446716,-0.7126998156309128 l1.8858075141906738,0.018863336881622672 1.398584395647049,0.9581727534532547 l0.9149879217147827,1.2954269349575043 0.5970510095357895,3.396022915840149 " fill="none" stroke="black" stroke-width="1" /></svg>