<?xml version="1.0" encoding="utf-8" ?>
<svg baseProfile="full" height="61.83639992028475" version="1.1" width="71.27370152622461" xmlns="http://www.w3.org/2000/svg" xmlns:ev="http://www.w3.org/2001/xml-events" xmlns:xlink="http://www.w3.org/1999/xlink"><defs /><rect fill="white" height="61.83639992028475" width="71.27370152622461" x="0" y="0" /><path d="M30.120630627801575,26.706329142580216 m-2.3112864792346954,0.9474539011716843 l-1.139794960618019,1.0134217888116837 -1.0899117588996887,1.372886598110199 l-0.5796237662434578,1.4593560993671417 -1.3662805713465787e-05,1.9341085851192474 l0.3780820965766907,0.7730443030595779 0.9358681738376617,0.812232568860054 l3.4482240676879883,1.277724802494049 5.582138299942017,0.539555698633194 l4.246686697006226,0.00028643207770073786 2.549077272415161,-0.5185284093022346 l2.478305995464325,-1.2020067870616913 1.1812840402126312,-1.2504850327968597 l0.474034883081913,-1.9276347756385803 -4.778423772222595e-05,-1.64570152759552 l-1.140720546245575,-2.070416361093521 -1.6959716379642487,-1.4594019949436188 l-2.120790034532547,-0.9718895703554153 -3.9251264929771423,-0.7903354614973068 l-4.522372186183929,0.00018233298760605976 -3.4692922234535217,0.8326606452465057 l-1.2839412689208984,0.7692360877990723 m-0.13891998678445816,1.6468101739883423 l-1.5930603444576263,0.6855131685733795 -0.9837707877159119,1.0631168633699417 l-0.3875461220741272,1.1552515625953674 0.21165316924452782,1.2489371746778488 l0.9956909716129303,1.1164429038763046 1.6847239434719086,0.9064573794603348 l5.0239235162734985,1.060633361339569 5.05221426486969,0.2598559856414795 l2.4233494699001312,-0.3588923439383507 1.5674097836017609,-0.7422245293855667 l0.9646992385387421,-1.02004773914814 0.5193048715591431,-1.8070460855960846 l-0.24990679696202278,-1.4026503264904022 -0.8080805838108063,-1.001899391412735 l-1.4419777691364288,-0.779515951871872 -2.930559515953064,-0.5776065960526466 m-4.777127504348755,4.616974890232086 l-0.2677428349852562,1.1142288893461227 0.26423826813697815,0.23387856781482697 l0.292134303599596,-1.024574637413025 -0.5522091686725616,-0.30455075204372406 l-0.43459445238113403,0.41321609169244766 m1.8528416752815247,-0.08736014366149902 l0.033135926350951195,1.0852596163749695 0.06810322869569063,-0.08970520459115505 l-0.12301189824938774,-0.8195951581001282 m0.798083171248436,0.281380545347929 l-0.05653984844684601,0.7980648428201675 " fill="none" stroke="black" stroke-width="1" /></svg>