<?xml version="1.0" encoding="utf-8" ?>
<svg baseProfile="full" height="650.0" version="1.1" width="1100.0" xmlns="http://www.w3.org/2000/svg" xmlns:ev="http://www.w3.org/2001/xml-events" xmlns:xlink="http://www.w3.org/1999/xlink"><defs /><rect fill="white" height="650.0" width="1100.0" x="0" y="0" /><path d="M335.0,100.0 m-115.0,45.0 l-50.0,40.0 -75.0,75.0 l-65.0,110.0 -5.0,40.0 l30.0,75.0 105.0,95.0 l65.0,30.0 120.0,15.0 l380.0,0.0 230.0,-50.0 l75.0,-40.0 30.0,-40.0 l15.0,-55.0 -5.0,-110.0 l-175.0,-220.0 -65.0,-55.0 l-65.0,-25.0 -115.0,-5.0 l-235.0,10.0 -40.0,10.0 l-10.0,20.0 m70.0,110.0 l-50.0,0.0 -225.0,155.0 l-15.0,40.0 70.0,70.0 l130.0,45.0 415.0,35.0 l105.0,-10.0 80.0,-50.0 l15.0,-60.0 -10.0,-70.0 l-35.0,-70.0 -65.0,-55.0 l-195.0,-60.0 -245.0,5.0 m145.0,335.0 l-45.0,5.0 -15.0,25.0 l10.0,25.0 70.0,55.0 l90.0,5.0 25.0,-15.0 l0.0,-25.0 -35.0,-30.0 l-120.0,-40.0 m-85.0,-10.0 l5.0,120.0 m340.0,-75.0 l10.0,65.0 " fill="none" stroke="black" stroke-width="1" /></svg>