<?xml version="1.0" encoding="utf-8" ?>
<svg baseProfile="full" height="2840.0" version="1.1" width="3145.0" xmlns="http://www.w3.org/2000/svg" xmlns:ev="http://www.w3.org/2001/xml-events" xmlns:xlink="http://www.w3.org/1999/xlink"><defs /><rect fill="white" height="2840.0" width="3145.0" x="0" y="0" /><path d="M95.0,1295.0 m15.0,-30.0 l110.0,-70.0 160.0,-65.0 l200.0,-75.0 560.0,-170.0 l225.0,-35.0 160.0,10.0 l95.0,-60.0 240.0,-60.0 l360.0,0.0 220.0,-25.0 l210.0,0.0 290.0,95.0 l55.0,70.0 75.0,55.0 l40.0,90.0 10.0,240.0 l-40.0,330.0 -120.0,185.0 l-105.0,50.0 -120.0,40.0 l-140.0,10.0 -715.0,0.0 l-200.0,75.0 -245.0,50.0 l-370.0,-5.0 -135.0,40.0 l-135.0,-20.0 -250.0,-5.0 l-240.0,-105.0 -140.0,-105.0 l-115.0,-140.0 -25.0,-115.0 l5.0,-75.0 95.0,-125.0 l120.0,-110.0 m1000.0,-410.0 l-35.0,-85.0 -95.0,-625.0 l5.0,-55.0 25.0,-25.0 l60.0,-15.0 140.0,0.0 l60.0,30.0 130.0,160.0 l55.0,220.0 40.0,355.0 l10.0,35.0 10.0,-25.0 m-25.0,1150.0 l85.0,740.0 55.0,70.0 l40.0,25.0 135.0,30.0 l115.0,-35.0 40.0,-30.0 l25.0,-30.0 25.0,-90.0 l30.0,-300.0 -40.0,-295.0 l-55.0,-75.0 m425.0,-1255.0 l-5.0,465.0 25.0,670.0 " fill="none" stroke="black" stroke-width="1" /></svg>