<?xml version="1.0" encoding="utf-8" ?>
<svg baseProfile="full" height="110.04310451447964" version="1.1" width="111.53967127203941" xmlns="http://www.w3.org/2000/svg" xmlns:ev="http://www.w3.org/2001/xml-events" xmlns:xlink="http://www.w3.org/1999/xlink"><defs /><rect fill="white" height="110.04310451447964" width="111.53967127203941" x="0" y="0" /><path d="M26.216056785779074,54.26376808958594 m0.4426359385251999,-0.567907840013504 l2.4193890392780304,-1.8721780180931091 5.055163502693176,-2.3656702041625977 l5.334240198135376,-1.9354760646820068 5.360166430473328,-1.408454179763794 l5.4529184103012085,-1.2563495337963104 5.66831111907959,-1.1399655789136887 l5.964919924736023,-0.9613554924726486 6.195271611213684,-0.6638123095035553 l5.922958254814148,0.06104801781475544 4.496072828769684,0.8252754807472229 l3.5270926356315613,1.652984619140625 1.7595985531806946,1.3307276368141174 l1.7363457381725311,2.452799677848816 0.9881787002086639,3.434349298477173 l0.00035160104744136333,3.3363378047943115 -0.588790699839592,1.8901452422142029 l-1.9515858590602875,2.6466435194015503 -5.369689464569092,3.8114312291145325 l-5.180257558822632,2.0918233692646027 -5.644327998161316,1.203608289361 l-9.077574014663696,0.5242399498820305 -5.496803522109985,0.15042027458548546 l-4.802490770816803,0.1565542072057724 -4.783742129802704,0.10642572306096554 l-4.115244746208191,0.002047302550636232 -3.936237096786499,-0.25238271802663803 l-3.3010295033454895,-0.6279304623603821 -2.838674783706665,-1.2387852370738983 l-2.1977652609348297,-1.7209401726722717 -1.3949011266231537,-2.228185087442398 l-0.8605567365884781,-3.4593069553375244 0.33956069499254227,-3.6714190244674683 l0.9456590563058853,-2.0800012350082397 1.7359761893749237,-2.0054352283477783 m17.131108045578003,-2.6415184140205383 l-0.5719628185033798,-1.1918972432613373 -0.08981527760624886,-6.4837318658828735 l0.7822737842798233,-5.9277427196502686 1.4407673478126526,-4.469377100467682 l1.7730943858623505,-3.1774741411209106 1.4889228343963623,-1.5121416747570038 l0.7679477334022522,-0.08119123056530952 1.1086766421794891,1.1888740956783295 l0.7869122177362442,2.069224566221237 0.5520450696349144,4.10228431224823 l-0.2042788453400135,8.079407811164856 0.11858342215418816,4.796354174613953 m-5.3767818212509155,16.806743144989014 l0.5442775785923004,5.617591738700867 0.6605948507785797,7.578425407409668 l1.0153749585151672,5.685240626335144 0.9528054296970367,2.447957992553711 l0.9989002346992493,1.1923429369926453 1.1352352052927017,0.47865770757198334 l1.798136830329895,-0.47949284315109253 1.4080795645713806,-1.5351514518260956 l1.1165525764226913,-2.2979892790317535 1.568782478570938,-7.763857841491699 l0.6464278697967529,-9.97298777103424 -0.16258377581834793,-4.999345541000366 m-9.929978847503662,-9.40085768699646 l0.8069418370723724,1.0921311378479004 0.9925369173288345,5.249916911125183 " fill="none" stroke="black" stroke-width="1" /></svg>