<?xml version="1.0" encoding="utf-8" ?>
<svg baseProfile="full" height="58.87196131050587" version="1.1" width="71.5702815912664" xmlns="http://www.w3.org/2000/svg" xmlns:ev="http://www.w3.org/2001/xml-events" xmlns:xlink="http://www.w3.org/1999/xlink"><defs /><rect fill="white" height="58.87196131050587" width="71.5702815912664" x="0" y="0" /><path d="M25,26.659260090673342 m8.968355655670166,-0.9351640939712524 l8.164438605308533,1.0372580587863922 m-16.596274375915527,-0.01984459115192294 l-0.2274775691330433,0.4087567701935768 0.21599847823381424,0.730590894818306 l0.7669862359762192,0.6949511170387268 6.076086759567261,0.5709610134363174 l7.370251417160034,-0.06340267602354288 5.252256989479065,-0.34836530685424805 m-12.299516201019287,-2.6195088028907776 l0.6407259404659271,0.2083064801990986 3.8802018761634827,0.10165192186832428 l3.7056121230125427,0.08137059397995472 2.8759804368019104,-0.13923491351306438 l2.0202772319316864,0.013219240354374051 -1.5961039066314697,0.23505812510848045 l-6.136540174484253,0.042530917562544346 -3.2333192229270935,-0.11501411907374859 l-1.0344992578029633,-0.08576528169214725 m6.320940852165222,-0.6152533367276192 l0.5079765245318413,-0.08890347555279732 2.217430919408798,-0.3708033263683319 l3.3304908871650696,-0.3826553001999855 0.38000136613845825,1.7741546034812927 m-8.214508295059204,0.13812251389026642 l0.7543659210205078,2.7194109559059143 0.9703677892684937,3.1020164489746094 l0.9501225501298904,1.1382567882537842 2.3126021027565002,-4.831355512142181 m-4.347188770771027,-3.8619285821914673 l1.70477494597435,1.3128457963466644 1.3393202424049377,1.8467262387275696 m-0.6094653159379959,-2.4776434898376465 l5.124167799949646,-0.581732839345932 " fill="none" stroke="black" stroke-width="1" /></svg>