<?xml version="1.0" encoding="utf-8" ?>
<svg baseProfile="full" height="610.0" version="1.1" width="1140.0" xmlns="http://www.w3.org/2000/svg" xmlns:ev="http://www.w3.org/2001/xml-events" xmlns:xlink="http://www.w3.org/1999/xlink"><defs /><rect fill="white" height="610.0" width="1140.0" x="0" y="0" /><path d="M100.0,275.0 m420.0,-40.0 l315.0,45.0 m-710.0,5.0 l-65.0,45.0 -35.0,55.0 l15.0,20.0 40.0,10.0 l460.0,20.0 270.0,-10.0 m-10.0,-165.0 l145.0,-5.0 160.0,-165.0 l10.0,40.0 -60.0,185.0 l-50.0,70.0 -40.0,25.0 l-145.0,0.0 m-450.0,-180.0 l235.0,-155.0 105.0,-50.0 l95.0,60.0 -10.0,25.0 l-85.0,50.0 m-350.0,275.0 l275.0,125.0 95.0,25.0 m-325.0,-195.0 l0.0,-60.0 40.0,-30.0 l215.0,70.0 105.0,140.0 l100.0,70.0 m-135.0,-25.0 l80.0,10.0 " fill="none" stroke="black" stroke-width="1" /></svg>