<?xml version="1.0" encoding="utf-8" ?>
<svg baseProfile="full" height="87.57539476733655" version="1.1" width="112.57938664406538" xmlns="http://www.w3.org/2000/svg" xmlns:ev="http://www.w3.org/2001/xml-events" xmlns:xlink="http://www.w3.org/1999/xlink"><defs /><rect fill="white" height="87.57539476733655" width="112.57938664406538" x="0" y="0" /><path d="M81.13943081349134,35.87351158261299 m-3.0907264351844788,-0.6375730037689209 l-14.149434566497803,-0.047954549081623554 -17.98365354537964,1.5785415470600128 l-9.784274101257324,0.803399533033371 -7.109267711639404,1.1020806431770325 l-3.449569046497345,1.377698928117752 -0.5725054070353508,0.7477318495512009 l0.5308043584227562,0.810588151216507 1.8215696513652802,0.6194484233856201 l26.10325574874878,-0.313262902200222 16.741141080856323,-0.4418523982167244 l11.335433721542358,-0.58979082852602 3.2982107996940613,-0.6745545566082001 l2.116454094648361,-0.9858578443527222 0.6325171887874603,-0.8289288729429245 l-0.2491561509668827,-0.9304974228143692 -1.603911966085434,-1.0805020481348038 l-2.678324282169342,-0.869295746088028 m-41.74051761627197,2.293677181005478 l-0.6071523204445839,2.455208897590637 -2.2684073448181152,10.702370405197144 l-2.069757431745529,11.296830177307129 0.5032023414969444,0.3143776208162308 l14.680519104003906,-0.3259292244911194 16.175196170806885,-0.14173286966979504 l12.147197723388672,-0.09241857565939426 0.3592436760663986,-0.5133017897605896 l0.020802668295800686,-1.6056643426418304 -1.8408361077308655,-11.144598722457886 l-0.5840591341257095,-7.875322699546814 -0.20255176350474358,-4.4044047594070435 l-0.4999832808971405,-0.30851444229483604 -1.192166954278946,0.05562043283134699 m-30.306007862091064,4.22987163066864 l-0.20305050536990166,-3.8855069875717163 -0.9313669055700302,-5.359954237937927 l-0.0328252580948174,-6.203538179397583 m10.193709135055542,14.212570190429688 l0.18126234412193298,-9.822277426719666 " fill="none" stroke="black" stroke-width="1" /></svg>