<?xml version="1.0" encoding="utf-8" ?>
<svg baseProfile="full" height="3400.0" version="1.1" width="3640.0" xmlns="http://www.w3.org/2000/svg" xmlns:ev="http://www.w3.org/2001/xml-events" xmlns:xlink="http://www.w3.org/1999/xlink"><defs /><rect fill="white" height="3400.0" width="3640.0" x="0" y="0" /><path d="M3615.0,1015.0 m-155.0,-30.0 l-190.0,-10.0 -2630.0,10.0 l-445.0,100.0 -160.0,75.0 l-10.0,55.0 20.0,30.0 l130.0,90.0 120.0,60.0 l195.0,45.0 1910.0,10.0 l440.0,-70.0 165.0,0.0 l115.0,-25.0 285.0,-5.0 l185.0,-190.0 10.0,-140.0 l-15.0,-45.0 m-2220.0,410.0 l-95.0,175.0 -40.0,160.0 l-45.0,320.0 -20.0,240.0 l0.0,1095.0 195.0,-290.0 l170.0,-295.0 45.0,-105.0 l60.0,-445.0 165.0,-520.0 l15.0,-120.0 m-180.0,-725.0 l0.0,-495.0 65.0,-260.0 l60.0,-95.0 15.0,170.0 l85.0,430.0 55.0,220.0 l105.0,310.0 " fill="none" stroke="black" stroke-width="1" /></svg>