<?xml version="1.0" encoding="utf-8" ?>
<svg baseProfile="full" height="2445.0" version="1.1" width="2880.0" xmlns="http://www.w3.org/2000/svg" xmlns:ev="http://www.w3.org/2001/xml-events" xmlns:xlink="http://www.w3.org/1999/xlink"><defs /><rect fill="white" height="2445.0" width="2880.0" x="0" y="0" /><path d="M25,985.0 m10.0,-40.0 l60.0,685.0 25.0,105.0 m-95.0,-835.0 l105.0,45.0 175.0,145.0 l280.0,170.0 m-15.0,-10.0 l35.0,-30.0 625.0,-120.0 l775.0,-55.0 535.0,0.0 l115.0,15.0 155.0,60.0 l45.0,70.0 0.0,40.0 l-40.0,70.0 -210.0,115.0 l-190.0,60.0 -150.0,40.0 l-690.0,125.0 -265.0,35.0 l-1260.0,50.0 m1300.0,-360.0 l15.0,240.0 0.0,785.0 m455.0,-1070.0 l-150.0,345.0 -150.0,410.0 l-165.0,345.0 m45.0,-1410.0 l35.0,-60.0 120.0,-525.0 l95.0,-200.0 110.0,-170.0 m70.0,-30.0 l5.0,275.0 65.0,560.0 l0.0,215.0 " fill="none" stroke="black" stroke-width="1" /></svg>