<?xml version="1.0" encoding="utf-8" ?>
<svg baseProfile="full" height="92.15445857029408" version="1.1" width="103.52297445759177" xmlns="http://www.w3.org/2000/svg" xmlns:ev="http://www.w3.org/2001/xml-events" xmlns:xlink="http://www.w3.org/1999/xlink"><defs /><rect fill="white" height="92.15445857029408" width="103.52297445759177" x="0" y="0" /><path d="M25.994509649462998,49.7934683598578 m0.21177591755986214,-0.8469769358634949 l0.02432239707559347,3.603426516056061 -1.1542607098817825,6.502178907394409 l-0.07634725421667099,3.6627867817878723 0.429346039891243,0.32259270548820496 m1.8278203904628754,-14.1405189037323 l9.652603268623352,-0.19928961992263794 5.466892719268799,-0.35425741225481033 l6.36995792388916,-0.29953470453619957 11.986910104751587,-0.39507538080215454 l4.435241222381592,-0.4105778783559799 4.7822582721710205,-0.2857106551527977 l3.976926803588867,-0.6597164273262024 4.43465918302536,-0.15299206599593163 l0.16035852953791618,8.369730114936829 -0.05793486721813679,9.80255901813507 l-7.969712615013123,0.49013223499059677 -12.793649435043335,0.6814908236265182 l-12.578846216201782,0.7005149126052856 -10.508019924163818,0.5693449452519417 l-6.527808308601379,0.325576476752758 -3.061663508415222,0.07530675735324621 m12.258588075637817,-20.568313598632812 l-0.04275599028915167,-0.9513283520936966 0.07165344897657633,-6.255653500556946 l-0.052419998683035374,-5.682448148727417 3.636176586151123,-0.0577470613643527 l12.992087602615356,-0.19102539867162704 12.543801069259644,-0.6334114819765091 l-0.10163559578359127,8.640401363372803 -0.19412124529480934,4.552418291568756 m-20.772171020507812,-12.143231630325317 l-0.0451987748965621,-5.215741395950317 -0.4570303112268448,-3.6483776569366455 l9.862871766090393,0.1353941299021244 6.764147877693176,-0.08455432020127773 l-0.09277871809899807,8.337918519973755 -0.16433101147413254,1.7167559266090393 " fill="none" stroke="black" stroke-width="1" /></svg>