<?xml version="1.0" encoding="utf-8" ?>
<svg baseProfile="full" height="82.49603200238198" version="1.1" width="84.52121362090111" xmlns="http://www.w3.org/2000/svg" xmlns:ev="http://www.w3.org/2001/xml-events" xmlns:xlink="http://www.w3.org/1999/xlink"><defs /><rect fill="white" height="82.49603200238198" width="84.52121362090111" x="0" y="0" /><path d="M43.67285524494946,25.366657017730176 m-1.5379711985588074,-0.29897354543209076 l-3.1031861901283264,0.1270466484129429 -3.2809731364250183,0.9821218252182007 l-3.21161150932312,1.8259647488594055 -2.794412076473236,2.437441796064377 l-2.2987598180770874,2.9937824606895447 -1.6238680481910706,3.3964335918426514 l-0.8056410402059555,3.7262949347496033 -0.016432227566838264,3.733239769935608 l1.3814710080623627,4.260978698730469 2.753949761390686,3.8752999901771545 l3.678986132144928,2.820613980293274 3.1186413764953613,1.3695144653320312 l5.022833943367004,0.8796156197786331 3.7705573439598083,-0.051514399237930775 l3.320934772491455,-0.7550039142370224 4.357166588306427,-2.05479234457016 l2.72038072347641,-2.1195700764656067 2.093888819217682,-2.621353566646576 l1.4386411011219025,-3.1313183903694153 0.7246541976928711,-3.4318873286247253 l0.1391078531742096,-3.54072242975235 -0.48945728689432144,-3.1681570410728455 l-1.1688897013664246,-2.9865193367004395 -1.7561832070350647,-2.6668432354927063 l-2.2447821497917175,-2.261049300432205 -2.6316633820533752,-1.7428885400295258 l-2.9607734084129333,-1.2305637449026108 -3.1317827105522156,-0.6161518394947052 l-3.262723386287689,-0.11769651435315609 -2.4433863162994385,0.44898316264152527 m0.6837780773639679,3.271768093109131 l-0.11024395003914833,4.726499319076538 -1.1388715356588364,5.76674222946167 m4.180126786231995,-1.2398914247751236 l1.1437325924634933,-0.3694204241037369 4.134092032909393,-0.2567703276872635 l1.1799462884664536,0.4944204166531563 0.5728275701403618,0.8149151504039764 l-0.011634485563263297,1.0708532482385635 -1.212403029203415,1.6144490242004395 l0.04214844200760126,0.9990885108709335 1.3886883854866028,0.23179002106189728 l2.394358217716217,-0.3405904769897461 1.2193930894136429,-0.7138294726610184 l0.507417805492878,-1.1112622916698456 -0.1541188545525074,-1.0073237121105194 l-0.8072635531425476,-0.6408637762069702 -2.084021419286728,-0.46038035303354263 l-3.490786552429199,0.05219925660640001 m-8.684834241867065,2.0080170035362244 l-0.019270171178504825,-0.23522093892097473 0.2133442834019661,0.9253616631031036 l0.3739141672849655,0.9897293150424957 0.9402597695589066,0.9209472686052322 l1.3982363045215607,0.27771782130002975 1.4095625281333923,-0.39396513253450394 l0.9869994223117828,-1.1522822082042694 0.21628722548484802,-1.718551516532898 l-0.47374431043863297,-0.6724724173545837 -0.8476404845714569,-0.16554296016693115 " fill="none" stroke="black" stroke-width="1" /></svg>