<?xml version="1.0" encoding="utf-8" ?>
<svg baseProfile="full" height="1935.0" version="1.1" width="2230.0" xmlns="http://www.w3.org/2000/svg" xmlns:ev="http://www.w3.org/2001/xml-events" xmlns:xlink="http://www.w3.org/1999/xlink"><defs /><rect fill="white" height="1935.0" width="2230.0" x="0" y="0" /><path d="M1340.0,285.0 m-80.0,-15.0 l-125.0,25.0 -125.0,50.0 l-210.0,120.0 -210.0,200.0 l-140.0,220.0 -45.0,100.0 l-20.0,95.0 -5.0,275.0 l30.0,55.0 55.0,45.0 l285.0,110.0 140.0,35.0 l245.0,25.0 510.0,0.0 l185.0,-105.0 110.0,-130.0 l50.0,-180.0 5.0,-355.0 l-20.0,-120.0 -55.0,-115.0 l-105.0,-140.0 -125.0,-105.0 l-150.0,-95.0 -120.0,-35.0 l-265.0,-10.0 m270.0,-210.0 l-160.0,15.0 -150.0,40.0 l-405.0,165.0 -270.0,210.0 l-250.0,240.0 -90.0,170.0 l-55.0,205.0 -20.0,190.0 l5.0,205.0 100.0,100.0 l200.0,70.0 225.0,30.0 l425.0,10.0 10.0,50.0 l-30.0,175.0 40.0,10.0 l115.0,-30.0 30.0,-35.0 l5.0,-155.0 370.0,55.0 l250.0,5.0 75.0,-10.0 l180.0,-65.0 110.0,-95.0 l30.0,-50.0 25.0,-95.0 l15.0,-315.0 -35.0,-255.0 l-280.0,-610.0 -225.0,-170.0 l-240.0,-35.0 -35.0,20.0 " fill="none" stroke="black" stroke-width="1" /></svg>