<?xml version="1.0" encoding="utf-8" ?>
<svg baseProfile="full" height="1870.0" version="1.1" width="1865.0" xmlns="http://www.w3.org/2000/svg" xmlns:ev="http://www.w3.org/2001/xml-events" xmlns:xlink="http://www.w3.org/1999/xlink"><defs /><rect fill="white" height="1870.0" width="1865.0" x="0" y="0" /><path d="M1300.0,685.0 m-80.0,-70.0 l-150.0,-40.0 -205.0,-5.0 l-135.0,25.0 -265.0,120.0 l-125.0,100.0 -210.0,245.0 l-105.0,270.0 0.0,120.0 l20.0,115.0 60.0,110.0 l85.0,80.0 125.0,65.0 l135.0,25.0 145.0,-5.0 l140.0,-45.0 140.0,-65.0 l130.0,-85.0 120.0,-110.0 l110.0,-135.0 105.0,-160.0 l75.0,-155.0 45.0,-140.0 l5.0,-95.0 -40.0,-70.0 l-90.0,-55.0 -105.0,-35.0 l-105.0,-25.0 -155.0,-10.0 m-590.0,145.0 l-40.0,-25.0 5.0,-35.0 l125.0,-265.0 40.0,-125.0 l20.0,-165.0 210.0,190.0 l135.0,165.0 65.0,50.0 m265.0,75.0 l-5.0,-30.0 25.0,-85.0 l200.0,-250.0 255.0,-205.0 l140.0,-70.0 20.0,35.0 l0.0,115.0 -30.0,130.0 l-380.0,595.0 m-860.0,380.0 l160.0,10.0 -55.0,10.0 l-25.0,25.0 -25.0,220.0 m-100.0,-280.0 l40.0,80.0 45.0,155.0 l25.0,-20.0 25.0,-85.0 l75.0,-150.0 -145.0,215.0 l0.0,-150.0 " fill="none" stroke="black" stroke-width="1" /></svg>