<?xml version="1.0" encoding="utf-8" ?>
<svg baseProfile="full" height="81.58252264605835" version="1.1" width="83.3484947681427" xmlns="http://www.w3.org/2000/svg" xmlns:ev="http://www.w3.org/2001/xml-events" xmlns:xlink="http://www.w3.org/1999/xlink"><defs /><rect fill="white" height="81.58252264605835" width="83.3484947681427" x="0" y="0" /><path d="M49.24464225769043,34.28806594765774 m-1.5205764770507812,-1.3987168669700623 l-2.9114946722984314,-0.888085812330246 -4.888637959957123,-0.025158256758004427 l-3.8092201948165894,1.2099730968475342 -3.0578461289405823,1.7439588904380798 l-2.9860341548919678,2.4378687143325806 -3.2142382860183716,4.073154330253601 l-1.3782459497451782,3.2029440999031067 -0.47834843397140503,3.1056517362594604 l0.2523229084908962,2.910003364086151 1.0857994109392166,2.2711102664470673 l1.7167700827121735,1.7854009568691254 2.1016141772270203,1.191156953573227 l2.38732248544693,0.6748576462268829 2.698681056499481,0.0003375792221049778 l2.891269624233246,-0.5105311051011086 2.989022433757782,-1.1305198073387146 l2.9578161239624023,-1.6153237223625183 2.73296982049942,-1.968960165977478 l2.3407281935214996,-2.212035655975342 1.9141803681850433,-2.415865957736969 l1.3411378860473633,-2.4722352623939514 0.7061995565891266,-2.386288642883301 l0.18508898094296455,-2.3209016025066376 -0.39770934730768204,-2.1312689781188965 l-1.004759892821312,-1.849624216556549 -1.4293260872364044,-1.427128165960312 l-1.794101744890213,-0.9268856793642044 -2.109816074371338,-0.43456193059682846 m-15.633296966552734,3.6405330896377563 l-0.5921893194317818,-1.6471585631370544 -0.7352510094642639,-2.739797830581665 l-1.0925819724798203,-5.148445963859558 0.7086466252803802,-1.1683250963687897 l1.3405564427375793,-0.47678180038928986 4.017034471035004,1.0793021321296692 l3.051789700984955,2.45837539434433 1.9105090200901031,2.841874659061432 m8.513638377189636,-0.013342977035790682 l4.064450562000275,-4.663761854171753 2.0325003564357758,-1.3656055927276611 l2.12605819106102,-0.5772573500871658 1.1921018362045288,0.3286420553922653 l0.8793184906244278,1.5672975778579712 -0.00012037577107548714,3.8942307233810425 l-1.904522329568863,5.088302493095398 -1.6829992830753326,2.9715877771377563 m-17.422107458114624,7.334585785865784 l-1.242702156305313,2.162056863307953 -1.4952738583087921,2.8880029916763306 l-1.28789484500885,3.1595221161842346 -0.30968423932790756,1.1885982751846313 l0.23811427876353264,0.7249791920185089 9.143785238265991,-0.708402618765831 l1.0556324571371078,-3.357805907726288 -0.0640359940007329,-3.8753631711006165 l-0.5293885618448257,-1.885770708322525 -0.8798033744096756,-0.43202493339776993 l-3.0789440870285034,0.40713850408792496 -1.9035905599594116,0.8108558505773544 " fill="none" stroke="black" stroke-width="1" /></svg>