<?xml version="1.0" encoding="utf-8" ?>
<svg baseProfile="full" height="76.77379935281351" version="1.1" width="75.96027497202158" xmlns="http://www.w3.org/2000/svg" xmlns:ev="http://www.w3.org/2001/xml-events" xmlns:xlink="http://www.w3.org/1999/xlink"><defs /><rect fill="white" height="76.77379935281351" width="75.96027497202158" x="0" y="0" /><path d="M39.24683688208461,26.783280598465353 m-2.340485155582428,-0.5288765206933022 l-3.1280556321144104,0.14285976998507977 -2.8637608885765076,1.2493112683296204 l-2.5982171297073364,2.288926988840103 -1.918109655380249,2.9053983092308044 l-1.1386892944574356,3.452727198600769 -0.2595191262662411,5.029042959213257 l0.8626512438058853,2.909127175807953 2.551664113998413,3.787730634212494 l3.5532134771347046,2.537279725074768 4.2820098996162415,1.2169912457466125 l4.557889997959137,-0.03468874143436551 2.6834842562675476,-0.8647427707910538 l3.3994323015213013,-2.244575619697571 2.4397777020931244,-3.07400643825531 l1.1596907675266266,-2.843448519706726 0.4704612120985985,-3.2131317257881165 l-0.10033397004008293,-3.2172662019729614 -0.83494633436203,-2.844281792640686 l-1.4635291695594788,-2.727474272251129 -1.9241604208946228,-2.255406975746155 l-2.369518131017685,-1.7789480090141296 -2.5197353959083557,-1.1370068788528442 l-2.777409851551056,-0.5388214066624641 -2.7538669109344482,0.054902806878089905 l-2.0773403346538544,0.7387717068195343 m-0.9252503514289856,14.729385375976562 l-0.369873046875,-0.004683633742388338 0.13775303028523922,0.21209640428423882 l0.5633087083697319,-0.014481781981885433 0.03891580272465944,-0.4825010150671005 l-0.3772902116179466,0.19654294475913048 0.171261765062809,0.3170302137732506 l0.48100315034389496,-0.401935838162899 -0.18589872866868973,-0.20216036587953568 l-0.17009902745485306,0.4127509146928787 0.4636046290397644,-0.11740394867956638 l0.02467680722475052,-0.20329374819993973 -0.19555572420358658,0.17947973683476448 l0.180304367095232,0.2482915297150612 0.5102073773741722,-0.37489447742700577 l-0.12711926363408566,-0.11426853016018867 -0.13117440044879913,0.380302369594574 l0.4302576556801796,-0.1617206074297428 0.008192448876798153,-0.24086492136120796 l-0.18169423565268517,0.2883884869515896 0.2694765292108059,0.18068743869662285 l0.2968728169798851,-0.23903071880340576 -0.10618249885737896,-0.11761916801333427 l-0.10782427154481411,0.31840071082115173 0.4550417512655258,-0.14505884610116482 l-0.009725133422762156,-0.22424763068556786 -0.16066217795014381,0.2086346223950386 l0.29452351853251457,0.17192011699080467 0.2629793994128704,-0.25872720405459404 l-0.1702193170785904,-0.06008893717080355 -0.09989768266677856,0.4655688628554344 l0.5976656079292297,-0.37085216492414474 -0.18905343487858772,-0.10473662056028843 l-0.14552646316587925,0.34840214997529984 0.46936217695474625,0.03399711335077882 l0.11111421510577202,-0.28094250708818436 -0.3349579870700836,0.15393015928566456 l0.07015354465693235,0.40970709174871445 0.6406276673078537,-0.4574771225452423 l-0.25305645540356636,-0.03698450047522783 -0.15705492347478867,0.5143818631768227 l0.6097247451543808,-0.1291116140782833 -0.03841032972559333,-0.3571188822388649 l-0.26063166558742523,0.24446280673146248 0.22307757288217545,0.4555618390440941 l0.46993646770715714,-0.33579137176275253 -0.2740923501551151,-0.13721768744289875 l-0.19891999661922455,0.47930270433425903 0.4909161478281021,0.049894736148416996 l0.08048699237406254,-0.26321452111005783 " fill="none" stroke="black" stroke-width="1" /></svg>