<?xml version="1.0" encoding="utf-8" ?>
<svg baseProfile="full" height="1795.0" version="1.1" width="1325.0" xmlns="http://www.w3.org/2000/svg" xmlns:ev="http://www.w3.org/2001/xml-events" xmlns:xlink="http://www.w3.org/1999/xlink"><defs /><rect fill="white" height="1795.0" width="1325.0" x="0" y="0" /><path d="M675.0,565.0 m-115.0,-25.0 l-215.0,10.0 -255.0,95.0 l-35.0,30.0 -25.0,60.0 l-5.0,475.0 35.0,95.0 l105.0,175.0 70.0,85.0 l85.0,80.0 185.0,105.0 l80.0,20.0 325.0,0.0 l80.0,-20.0 135.0,-80.0 l85.0,-80.0 50.0,-80.0 l40.0,-190.0 0.0,-100.0 l-25.0,-105.0 -120.0,-260.0 l-230.0,-310.0 -120.0,-120.0 l-125.0,-85.0 -140.0,-10.0 l-55.0,5.0 -105.0,55.0 l-25.0,30.0 0.0,40.0 m-315.0,110.0 l-5.0,-490.0 90.0,145.0 m630.0,105.0 l185.0,-140.0 265.0,-165.0 l0.0,375.0 m-880.0,505.0 l25.0,10.0 35.0,-15.0 l10.0,-25.0 m265.0,20.0 l65.0,5.0 m-450.0,455.0 l175.0,5.0 85.0,-35.0 l35.0,-55.0 5.0,-60.0 l-15.0,-30.0 -95.0,-10.0 l-25.0,30.0 0.0,60.0 l30.0,25.0 180.0,30.0 l210.0,0.0 m-265.0,-150.0 l250.0,-85.0 m-195.0,140.0 l335.0,15.0 m-795.0,-150.0 l60.0,10.0 80.0,45.0 m-165.0,125.0 l185.0,0.0 170.0,-20.0 m-405.0,-845.0 l-10.0,120.0 -45.0,130.0 m105.0,-210.0 l20.0,55.0 45.0,55.0 m745.0,-220.0 l-35.0,40.0 -195.0,100.0 m245.0,-140.0 l-25.0,120.0 -65.0,135.0 " fill="none" stroke="black" stroke-width="1" /></svg>