<?xml version="1.0" encoding="utf-8" ?>
<svg baseProfile="full" height="2265.0" version="1.1" width="1445.0" xmlns="http://www.w3.org/2000/svg" xmlns:ev="http://www.w3.org/2001/xml-events" xmlns:xlink="http://www.w3.org/1999/xlink"><defs /><rect fill="white" height="2265.0" width="1445.0" x="0" y="0" /><path d="M880.0,1565.0 m95.0,-10.0 l135.0,-70.0 60.0,-10.0 l125.0,-95.0 65.0,-80.0 l45.0,-115.0 10.0,-100.0 l-10.0,-410.0 m0.0,0.0 l-45.0,-45.0 -170.0,-85.0 m-85.0,-65.0 l-105.0,-55.0 -145.0,-40.0 l-305.0,0.0 -95.0,50.0 l-50.0,45.0 m-185.0,355.0 l-10.0,315.0 20.0,65.0 m45.0,80.0 l25.0,45.0 m65.0,85.0 l155.0,140.0 125.0,25.0 m15.0,0.0 l205.0,0.0 m30.0,-20.0 l0.0,-85.0 m170.0,-1130.0 l165.0,-100.0 m95.0,-25.0 l5.0,-5.0 m90.0,455.0 l0.0,0.0 m0.0,0.0 l0.0,0.0 m-55.0,-455.0 l-5.0,-5.0 m0.0,0.0 l0.0,165.0 m20.0,170.0 l25.0,90.0 m0.0,0.0 l0.0,0.0 m-1075.0,-400.0 l-305.0,-220.0 90.0,220.0 l35.0,305.0 m5.0,255.0 l35.0,85.0 m0.0,0.0 l0.0,-25.0 m275.0,650.0 l-5.0,5.0 m-75.0,205.0 l-15.0,25.0 -20.0,165.0 l5.0,325.0 " fill="none" stroke="black" stroke-width="1" /></svg>