<?xml version="1.0" encoding="utf-8" ?>
<svg baseProfile="full" height="71.54140554368496" version="1.1" width="76.71512242406607" xmlns="http://www.w3.org/2000/svg" xmlns:ev="http://www.w3.org/2001/xml-events" xmlns:xlink="http://www.w3.org/1999/xlink"><defs /><rect fill="white" height="71.54140554368496" width="76.71512242406607" x="0" y="0" /><path d="M33.323071990162134,42.6142018660903 m1.8654082715511322,-0.22103218361735344 l2.1409744024276733,-0.7797319442033768 3.3982720971107483,-0.38407672196626663 l1.860656589269638,-0.5815268307924271 1.2454883754253387,-0.8107936382293701 l0.6938937306404114,-1.4084193110466003 -0.0470233429223299,-2.910800576210022 l-1.3228467106819153,-2.384117692708969 -1.6304521262645721,-1.6184255480766296 l-3.105737268924713,-1.5391728281974792 -4.138530790805817,-0.6970672309398651 l-4.003006815910339,0.21110279485583305 -2.2159692645072937,0.8297411352396011 l-1.836378574371338,1.5167564153671265 -1.1536489427089691,2.192392796278 l-0.07417161948978901,3.235892951488495 1.0274723172187805,1.8514609336853027 l1.9495497643947601,1.574813425540924 2.512480914592743,0.9756550192832947 l2.7276745438575745,0.30327577143907547 2.4141085147857666,-0.28419654816389084 m-1.9394908845424652,-5.452311635017395 l0.0743200397118926,2.385382801294327 0.04781581927090883,5.199363827705383 l-0.19420111551880836,2.7230384945869446 3.007349669933319,-0.22766340523958206 l3.4503281116485596,-0.6035243347287178 3.4070074558258057,-0.15585346147418022 l0.26877548545598984,-0.45561693608760834 -2.0195525884628296,-5.166415572166443 l-1.5925905108451843,-3.8559475541114807 -4.204416871070862,0.2269144542515278 l-2.3921728134155273,0.46542007476091385 m5.315805673599243,1.8498329818248749 l0.20380225032567978,-0.8151105046272278 0.6646907329559326,-2.8395679593086243 l0.3690525144338608,-2.747081220149994 0.4342818260192871,-2.4895110726356506 l0.6456663459539413,-1.5799038112163544 1.5370218455791473,-1.7224614322185516 l2.240092307329178,-1.147012934088707 2.078429162502289,-0.27790285646915436 l1.9272547960281372,0.3858809918165207 1.137712374329567,0.7892447710037231 l1.05282723903656,1.691068708896637 0.5640275031328201,2.430359572172165 l-0.2553649805486202,3.6717891693115234 -1.0965143889188766,2.48591810464859 l-1.6716468334197998,2.145847827196121 -1.9753919541835785,1.5174534916877747 l-2.208712249994278,0.8587946742773056 -2.2802232205867767,0.25724926963448524 l-1.9966000318527222,-0.3298153728246689 -1.4565718173980713,-0.9686878323554993 l-0.658196434378624,-1.0878727585077286 -0.07817937061190605,-1.911662369966507 l1.0044636577367783,-1.8992635607719421 " fill="none" stroke="black" stroke-width="1" /></svg>