<?xml version="1.0" encoding="utf-8" ?>
<svg baseProfile="full" height="2015.0" version="1.1" width="2880.0" xmlns="http://www.w3.org/2000/svg" xmlns:ev="http://www.w3.org/2001/xml-events" xmlns:xlink="http://www.w3.org/1999/xlink"><defs /><rect fill="white" height="2015.0" width="2880.0" x="0" y="0" /><path d="M45.0,265.0 m15.0,25.0 l265.0,170.0 300.0,135.0 l-5.0,50.0 30.0,10.0 l385.0,15.0 430.0,-20.0 l885.0,50.0 20.0,-25.0 l65.0,-20.0 195.0,-15.0 l90.0,30.0 50.0,30.0 l30.0,40.0 50.0,120.0 l5.0,145.0 -20.0,70.0 l-45.0,50.0 -145.0,45.0 l-120.0,10.0 -120.0,-50.0 l-165.0,-5.0 -195.0,-35.0 l-410.0,-40.0 -1040.0,0.0 l-85.0,-15.0 -75.0,-40.0 l-355.0,-45.0 -55.0,-60.0 m95.0,-490.0 l15.0,200.0 30.0,15.0 l295.0,-20.0 185.0,5.0 m-535.0,-25.0 l15.0,30.0 0.0,100.0 l-55.0,160.0 -15.0,95.0 m1415.0,-200.0 l-55.0,65.0 -180.0,145.0 l-190.0,235.0 -320.0,530.0 l-105.0,245.0 60.0,10.0 l25.0,-15.0 290.0,-240.0 l355.0,-440.0 195.0,-315.0 l40.0,-95.0 m-190.0,-190.0 l-90.0,-85.0 -180.0,-260.0 l-120.0,-140.0 -55.0,-125.0 l0.0,-35.0 25.0,-25.0 l25.0,0.0 215.0,255.0 l445.0,430.0 95.0,140.0 " fill="none" stroke="black" stroke-width="1" /></svg>