<?xml version="1.0" encoding="utf-8" ?>
<svg baseProfile="full" height="90.84066739305854" version="1.1" width="110.30900908634067" xmlns="http://www.w3.org/2000/svg" xmlns:ev="http://www.w3.org/2001/xml-events" xmlns:xlink="http://www.w3.org/1999/xlink"><defs /><rect fill="white" height="90.84066739305854" width="110.30900908634067" x="0" y="0" /><path d="M28.702782951295376,40.93952556399017 m0.2751183323562145,0.5913426727056503 l6.100603342056274,3.069794774055481 4.455775320529938,1.5026159584522247 l2.163524776697159,0.5538444593548775 5.394885540008545,0.6824690103530884 l6.9818490743637085,0.3765949606895447 12.73680329322815,0.06640100385993719 l4.377736747264862,0.4221031814813614 3.9752385020256042,0.47322623431682587 l3.3227702975273132,0.8020263910293579 2.807987928390503,0.8924248069524765 l2.2402602434158325,1.0898445546627045 1.4388282597064972,1.6582055389881134 l0.3348444774746895,1.110038235783577 -0.26473531499505043,0.8122409880161285 l-0.885332003235817,0.5517662689089775 -2.4371059238910675,0.504239909350872 l-5.122857093811035,0.00016236885130638257 -4.240683317184448,-0.28190698474645615 l-3.5835865139961243,-0.29118409380316734 -4.044469892978668,-0.2697010152041912 l-3.9254164695739746,-0.08470059372484684 -4.364264607429504,-0.2076227404177189 l-11.131662130355835,-0.8404358476400375 -10.618489980697632,-1.2011949717998505 l-6.692450046539307,-1.325831562280655 -2.845456898212433,-1.823807805776596 l-0.15249889343976974,-1.573134958744049 0.9564802050590515,-3.368057608604431 l0.9326723217964172,-2.138882428407669 m17.821673154830933,5.790648460388184 l-0.1246328093111515,1.930481493473053 0.03734789788722992,2.629813551902771 l0.3663280978798866,1.5859732031822205 0.6547955423593521,0.38037221878767014 l2.292298972606659,-0.20611122250556946 m9.677401185035706,-5.478643178939819 l0.3000876307487488,3.680565059185028 0.19530810415744781,3.627350926399231 m-11.835482120513916,-7.716227769851685 l-0.31968843191862106,1.5875360369682312 -0.8264819532632828,3.4375756978988647 l-0.7284325361251831,2.4684718251228333 -0.44145368039608,1.548326015472412 l-1.7772427201271057,4.248177707195282 -0.6233607977628708,1.3775639235973358 l-1.6305841505527496,2.256387174129486 -0.5413549393415451,-0.1741710864007473 l-1.4005064964294434,-5.641540884971619 -1.2285339087247849,-8.582901954650879 l0.5391151830554008,-4.2694297432899475 0.963820219039917,-2.873837947845459 m17.7663254737854,-1.8419243395328522 l0.8099488168954849,-1.2899431586265564 3.303702175617218,-5.5459171533584595 l4.609754383563995,-7.538951635360718 2.6908352971076965,-3.0820494890213013 l0.8143621683120728,1.14240400493145 0.5770064517855644,8.081706762313843 l0.07961171679198742,5.338907837867737 -0.4544804245233536,3.6977380514144897 l-1.1492621153593063,2.41520419716835 " fill="none" stroke="black" stroke-width="1" /></svg>