<?xml version="1.0" encoding="utf-8" ?>
<svg baseProfile="full" height="108.3866829611361" version="1.1" width="107.7522349357605" xmlns="http://www.w3.org/2000/svg" xmlns:ev="http://www.w3.org/2001/xml-events" xmlns:xlink="http://www.w3.org/1999/xlink"><defs /><rect fill="white" height="108.3866829611361" width="107.7522349357605" x="0" y="0" /><path d="M29.569814801216125,48.27676635235548 m-0.6014489755034447,1.7565713822841644 l-0.6895006448030472,5.34719705581665 -0.4975731670856476,4.45314884185791 l-0.8024362474679947,6.956072449684143 -0.7136014848947525,6.58075213432312 l-0.7987670600414276,5.452154278755188 -0.46648722141981125,3.125767707824707 l2.9102978110313416,0.6918306648731232 17.06145167350769,0.44454537332057953 l31.992712020874023,0.3018767200410366 5.459148287773132,-0.4159834235906601 l0.3286251425743103,-0.5349791049957275 -1.325232982635498,-8.040233850479126 l-1.0308755189180374,-8.596872687339783 -1.777399629354477,-8.996025323867798 l-1.240852177143097,-4.618096649646759 -0.641619935631752,-0.7506631314754486 l-2.262491136789322,-0.7235896587371826 -6.754708290100098,-0.2576647512614727 l-18.394078016281128,-0.2754579856991768 -12.489643096923828,-0.1292720902711153 l-3.2969236373901367,-0.05363854579627514 m7.110142707824707,1.0785077512264252 l-1.6034451127052307,-0.5979180335998535 -1.650523841381073,-1.4703887701034546 l-1.6583862900733948,-2.8444069623947144 -1.7065086960792542,-5.959871411323547 l-0.31121768057346344,-3.7301096320152283 1.0309195518493652,-2.6699984073638916 l1.7054444551467896,-1.7144592106342316 3.773050606250763,-1.796829104423523 l14.932986497879028,0.3497026860713959 7.185775637626648,1.8158242106437683 l2.6205450296401978,1.2934443354606628 2.6362043619155884,2.7258259057998657 l1.6860927641391754,3.7677711248397827 0.9221816062927246,6.821386814117432 l-0.6694354861974716,4.179895222187042 -1.2643443048000336,2.1143190562725067 m-20.704028606414795,-17.995920181274414 l-1.8457524478435516,-4.874978959560394 -1.4393389225006104,-2.4476929008960724 l-1.3729840517044067,-1.3174432516098022 -2.2477954626083374,-1.037588194012642 l-1.035270020365715,-0.27421141043305397 -1.9860945641994476,0.26525678113102913 l-0.6421408802270889,0.6729302555322647 -7.728624041192234e-05,2.589973211288452 l1.4519697427749634,3.109831213951111 m16.190671920776367,1.412292867898941 l-0.7415811717510223,-2.3772652447223663 -0.8602334558963776,-3.388873338699341 l0.07844382897019386,-1.7168793082237244 0.7418192923069,-0.9763328731060028 l0.8008632808923721,0.547962449491024 0.6441931426525116,3.6716756224632263 " fill="none" stroke="black" stroke-width="1" /></svg>