<?xml version="1.0" encoding="utf-8" ?>
<svg baseProfile="full" height="2830.0" version="1.1" width="2510.0" xmlns="http://www.w3.org/2000/svg" xmlns:ev="http://www.w3.org/2001/xml-events" xmlns:xlink="http://www.w3.org/1999/xlink"><defs /><rect fill="white" height="2830.0" width="2510.0" x="0" y="0" /><path d="M240.0,1045.0 m-25.0,90.0 l-35.0,290.0 0.0,130.0 l-80.0,485.0 -65.0,185.0 l-10.0,75.0 5.0,480.0 l730.0,-5.0 615.0,30.0 l340.0,0.0 755.0,-100.0 l10.0,-65.0 -55.0,-325.0 l-155.0,-340.0 -120.0,-365.0 l-225.0,-545.0 -55.0,-25.0 l-750.0,-5.0 -135.0,30.0 l-490.0,15.0 -345.0,-10.0 m925.0,-1045.0 l-595.0,230.0 -160.0,90.0 l-40.0,60.0 -105.0,275.0 l25.0,240.0 20.0,40.0 l35.0,35.0 180.0,105.0 l280.0,30.0 275.0,-60.0 l220.0,-150.0 95.0,-150.0 l20.0,-240.0 -115.0,-320.0 l-85.0,-150.0 -140.0,-10.0 m945.0,1265.0 l310.0,-250.0 160.0,-230.0 l30.0,-20.0 55.0,-120.0 l-5.0,-30.0 -235.0,-110.0 l-280.0,-65.0 -260.0,-25.0 l-315.0,0.0 -125.0,35.0 m-25.0,-150.0 l0.0,180.0 30.0,-45.0 l25.0,-145.0 -75.0,215.0 l25.0,-215.0 " fill="none" stroke="black" stroke-width="1" /></svg>